<?xml version="1.0" encoding="UTF-8"?>
<svg width="165px" height="30px" viewBox="0 0 165 30" version="1.1" xmlns="http://www.w3.org/2000/svg" xmlns:xlink="http://www.w3.org/1999/xlink">
    <title>camputers lynx</title>
    <g id="Page-1" stroke="none" stroke-width="1" fill="none" fill-rule="evenodd">
        <g id="System" transform="translate(-18.000000, 0.000000)" fill="#000000">
            <g id="camputers-lynx" transform="translate(18.332649, 0.000000)">
                <line x1="81.6673511" y1="30" x2="81.6673511" y2="0" id="Path" fill-rule="nonzero"></line>
                <path d="M153.575512,2.75200458 L153.575512,3.00400916 L153.323507,3.00400916 L153.071503,3.00400916 L153.071503,5.04295533 L153.071503,7.08190149 L153.323507,7.08190149 L153.575512,7.08190149 L153.575512,7.33390607 L153.575512,7.58591065 L155.614458,7.58591065 L157.653404,7.58591065 L157.653404,7.33390607 L157.653404,7.08190149 L157.905409,7.08190149 L158.157413,7.08190149 L158.157413,5.04295533 L158.157413,3.00400916 L157.905409,3.00400916 L157.653404,3.00400916 L157.653404,2.75200458 L157.653404,2.5 L155.614458,2.5 L153.575512,2.5 L153.575512,2.75200458 M146.885936,3.64547537 L146.885936,3.89747995 L146.633931,3.89747995 L146.381927,3.89747995 L146.381927,5.93642612 L146.381927,7.97537228 L146.633931,7.97537228 L146.885936,7.97537228 L146.885936,8.22737686 L146.885936,8.47938144 L148.924882,8.47938144 L150.963828,8.47938144 L150.963828,8.22737686 L150.963828,7.97537228 L151.215833,7.97537228 L151.467837,7.97537228 L151.467837,5.93642612 L151.467837,3.89747995 L151.215833,3.89747995 L150.963828,3.89747995 L150.963828,3.64547537 L150.963828,3.39347079 L148.924882,3.39347079 L146.885936,3.39347079 L146.885936,3.64547537 M159.531984,7.05899198 L159.531984,7.31099656 L159.279979,7.31099656 L159.027975,7.31099656 L159.027975,9.34994273 L159.027975,11.3888889 L159.279979,11.3888889 L159.531984,11.3888889 L159.531984,11.6408935 L159.531984,11.8928981 L161.57093,11.8928981 L163.609876,11.8928981 L163.609876,11.6408935 L163.609876,11.3888889 L163.861881,11.3888889 L164.113885,11.3888889 L164.113885,9.34994273 L164.113885,7.31099656 L163.861881,7.31099656 L163.609876,7.31099656 L163.609876,7.05899198 L163.609876,6.8069874 L161.57093,6.8069874 L159.531984,6.8069874 L159.531984,7.05899198 M142.899682,9.60194731 L142.899682,9.85395189 L142.647677,9.85395189 L142.395672,9.85395189 L142.395672,11.8928981 L142.395672,13.9318442 L142.647677,13.9318442 L142.899682,13.9318442 L142.899682,14.1838488 L142.899682,14.4358534 L144.938628,14.4358534 L146.977574,14.4358534 L146.977574,14.1838488 L146.977574,13.9318442 L147.229578,13.9318442 L147.481583,13.9318442 L147.481583,11.8928981 L147.481583,9.85395189 L147.229578,9.85395189 L146.977574,9.85395189 L146.977574,9.60194731 L146.977574,9.34994273 L144.938628,9.34994273 L142.899682,9.34994273 L142.899682,9.60194731 M148.810334,12.5801833 L148.810334,12.8321879 L148.55833,12.8321879 L148.306325,12.8321879 L148.306325,17.4140893 L148.306325,21.9959908 L148.55833,21.9959908 L148.810334,21.9959908 L148.810334,22.2479954 L148.810334,22.5 L153.392236,22.5 L157.974137,22.5 L157.974137,22.2479954 L157.974137,21.9959908 L158.226142,21.9959908 L158.478147,21.9959908 L158.478147,17.4140893 L158.478147,12.8321879 L158.226142,12.8321879 L157.974137,12.8321879 L157.974137,12.5801833 L157.974137,12.3281787 L153.392236,12.3281787 L148.810334,12.3281787 L148.810334,12.5801833 M88.7073922,4.96406571 L88.7073922,7.15436345 L87.5795688,7.27279261 L86.451694,7.39122177 L86.7453799,7.93839836 C86.9068789,8.23932238 87.6973819,9.70287474 88.5020534,11.1907084 C89.8347536,13.6548768 89.97654,13.8957906 90.0934292,13.8952772 C90.138207,13.8950644 90.2013881,13.8345941 90.3868842,13.528757 L90.449649,13.4238047 C90.8297296,12.7804096 91.6365158,11.2889014 93.4654517,7.88855236 L93.7317762,7.39342916 L92.6440965,7.27648871 C92.0458932,7.21221766 91.5406571,7.14491786 91.5213552,7.12700205 C91.4922485,7.1 91.6591889,5.71955852 91.7627823,5.13090349 L91.7921458,4.96406571 L94.7541648,4.96497058 C95.7266051,4.96733706 97.1321415,4.97415754 98.5458435,4.98320023 L99.2514077,4.98789643 C99.7196145,4.99113691 100.180859,4.99458297 100.619405,4.99815195 L104.805595,5.03213552 L107.754928,9.67915811 C109.377105,12.2350103 111.437782,15.4815195 112.334189,16.8935832 L113.964066,19.4609343 L113.963479,11.3428834 C113.963418,11.2640351 113.96335,11.1868758 113.963276,11.1113682 L113.96241,10.4753961 C113.957852,7.97001623 113.941025,7.68891541 113.879936,7.59366848 L113.869918,7.5798768 C113.784497,7.47438398 113.687834,7.45446612 112.83039,7.36529774 C112.310421,7.31119097 111.83306,7.25657084 111.769507,7.24389117 C111.666883,7.22340292 111.65544,7.2207614 111.654164,6.45071045 L111.654004,5.02797741 L118.751027,4.99229979 C121.204553,4.9799736 123.560236,4.97198785 125.111925,4.97001265 L126.326146,4.97000656 C126.5903,4.97055714 126.777941,4.97159431 126.874743,4.97315195 L127.901437,4.98973306 L127.901437,7.14579055 L126.797741,7.26632444 C126.190708,7.33259754 125.68501,7.39553388 125.673973,7.40616016 C125.651335,7.42797741 129.165452,12.1156571 129.333214,12.2874743 L129.441478,12.398306 L131.340862,9.9887577 C132.385524,8.66350103 133.269456,7.537423 133.305133,7.48634497 C133.366376,7.3986653 133.308984,7.38696099 132.265606,7.27417864 C131.189682,7.15795688 131.161191,7.15189938 131.161191,7.03927105 C131.161191,6.97571869 131.218943,6.50390144 131.289528,5.99075975 C131.360113,5.47761807 131.417864,5.03670431 131.417864,5.01093429 C131.417864,4.98615674 132.660281,4.9683962 134.55408,4.96475531 L139.169405,4.96406571 L139.169405,7.14784394 L138.396509,7.31262834 C137.971407,7.40323409 137.545483,7.51447639 137.45,7.55975359 C137.324076,7.61950719 136.508522,8.58352156 134.480544,11.0698152 C132.942813,12.9549795 131.655749,14.5437885 131.620329,14.600462 C131.561653,14.6944559 131.812628,15.0194045 134.470996,18.2911704 C136.07423,20.2644251 137.515811,22.0126283 137.674487,22.176078 C138,22.5113963 138.096304,22.5494353 139.066735,22.7261294 C139.391427,22.7852669 139.697485,22.8455852 139.74692,22.8602156 C139.828747,22.8844456 139.836756,22.9822895 139.836756,23.961345 L139.836756,25.0359343 L130.185832,25.0359343 L130.18629,23.6721619 C130.187785,23.2166923 130.192762,22.8796372 130.198665,22.8794661 C130.320431,22.875462 132.459343,22.6253593 132.470534,22.613809 C132.490554,22.5931725 128.577721,17.5954312 128.543121,17.5974846 C128.498819,17.6000513 124.641632,22.5889117 124.665452,22.612731 C124.681211,22.6284908 126.556006,22.8584189 126.836242,22.8789528 C126.842146,22.8793806 126.847122,23.216621 126.848617,23.6721452 L126.849076,25.0359343 L118.48152,25.0359343 L118.482021,23.6337881 C118.484664,22.958629 118.499711,22.8816735 118.571355,22.8615503 C118.620791,22.8476899 119.019251,22.7747947 119.456879,22.699538 C119.894507,22.6243326 120.351283,22.5163244 120.47192,22.4594969 C120.627002,22.386499 120.802259,22.2185318 121.069713,21.8865503 C121.277823,21.6281828 122.582444,20.0308522 123.968891,18.3368583 C125.35539,16.6428645 126.489733,15.2452259 126.489733,15.2310062 C126.489733,15.2168378 125.125257,13.4997433 123.457495,11.4152464 C121.01499,8.36237166 120.389938,7.61057495 120.243326,7.54933265 C120.143275,7.50749487 119.874641,7.43583162 119.646407,7.39004107 C119.261191,7.31278234 119.172793,7.31314168 118.413758,7.39476386 C117.964014,7.44312115 117.555801,7.50426078 117.506571,7.53059548 C117.457341,7.55693018 117.402464,7.65148871 117.3846,7.74070842 L117.382185,7.77638815 C117.369427,8.09051734 117.358678,10.3615602 117.354283,13.4143285 L117.353534,13.9955964 C117.353422,14.0939056 117.353316,14.1929064 117.353218,14.2925631 L117.352509,15.2062116 C117.352451,15.3094803 117.3524,15.4132973 117.352356,15.5176266 L117.352156,25.0359343 L112.552361,25.0354209 L107.906571,17.8359856 L103.26078,10.6366016 L103.246715,16.463039 C103.24554,16.9485797 103.244683,17.4219232 103.244126,17.875837 L103.243444,18.6703357 C103.243322,18.9271325 103.243305,19.1753725 103.243389,19.4134934 L103.244255,20.3083062 C103.246337,21.5584643 103.251881,22.3693532 103.260113,22.4035421 C103.275257,22.4662731 103.334908,22.5428645 103.392659,22.573768 C103.450462,22.6046715 103.906417,22.674846 104.405955,22.7297228 C104.905441,22.7845483 105.38922,22.8418378 105.481006,22.8569815 L105.647844,22.8845483 L105.647844,25.0359343 L97.536961,25.0359343 L97.536961,22.8889117 L97.7294661,22.8594969 C97.8353696,22.8433265 98.2800308,22.7930698 98.7176591,22.7477926 C99.1552875,22.7025154 99.5708932,22.6383984 99.6412731,22.6053388 C99.7190452,22.5687885 99.7820842,22.4850103 99.8020534,22.3916838 C99.8266984,22.276507 99.8393982,19.6448919 99.8414027,16.6340844 L99.8415485,15.168529 C99.8414931,15.0454315 99.8414208,14.9222745 99.8413319,14.7991947 L99.8405983,14.0627368 C99.8364003,10.7626939 99.8201354,7.71836825 99.7933778,7.62207392 C99.7485113,7.46052361 99.710883,7.42361396 99.549846,7.38311088 C99.1159651,7.27402464 98.7508214,7.27191992 98.3188398,7.37607803 C97.7682752,7.50877823 97.5144764,7.64209446 97.3626797,7.87833676 C97.2950205,7.98362423 96.0590862,10.1973306 94.6162218,12.7976386 L91.9928131,17.5255133 L91.9929842,20.1271795 C91.9950234,21.3748048 92.0150627,22.3669999 92.0404004,22.4336756 C92.0665811,22.5025154 92.1416324,22.5720226 92.2072382,22.5880903 C92.2728439,22.6041581 93.0310575,22.6664271 93.8921971,22.726386 C94.7533368,22.7863963 95.486807,22.8447125 95.5220739,22.8560575 C95.5707392,22.8716632 95.5862423,23.1377823 95.5862423,23.9563142 L95.5862423,25.0359343 L84.087269,25.0359343 L84.087269,22.8285421 L84.2797741,22.8274641 C84.3856776,22.8268994 85.1069815,22.7824949 85.8827515,22.7289014 C87.211653,22.6370123 87.2985113,22.6248973 87.3842916,22.5189425 C87.4565855,22.4297081 87.4718539,22.2789601 87.4747409,20.8247447 L87.4753593,17.5600616 L84.5528234,12.7187885 C82.9454312,10.0561088 81.5672485,7.81165298 81.4901437,7.7312115 C81.3291068,7.56309035 81.112577,7.48511294 80.288501,7.29845996 C79.963809,7.22489733 79.6835729,7.14887064 79.6657084,7.12956879 C79.6478953,7.11026694 79.6989733,6.63244353 79.7792094,6.06776181 C79.8594969,5.50308008 79.9260267,5.02376797 79.9271561,5.00256674 C79.9280854,4.98428981 81.3967233,4.96891229 83.348404,4.96501793 L88.7073922,4.96406571 Z M74.436345,5.01540041 L74.435941,6.44079212 C74.4336415,7.15531288 74.4195706,7.222699 74.3465092,7.22238193 C74.0449179,7.22109856 71.8200205,7.44440452 71.7076489,7.48726899 C71.6327002,7.51581109 71.5579569,7.58927105 71.5415298,7.65051335 C71.5289933,7.69721172 71.5180115,9.61094066 71.5133531,12.2622926 L71.5124811,12.8210027 C71.5123513,12.9157517 71.5122295,13.0112852 71.5121157,13.1075568 L71.511532,13.693674 C71.5114514,13.792713 71.5113793,13.8923976 71.511316,13.9926813 L71.5109856,14.9101643 L71.5102669,22.0585216 L77.0520534,22.0585216 L77.12423,21.9430185 C77.1639117,21.8795175 77.2919918,21.25 77.4088296,20.5441478 C77.5256674,19.8382957 77.6342402,19.1969199 77.6500513,19.1188912 L77.6789014,18.9770021 L80.8788501,19.0041068 L80.8920945,22.0200205 L80.9053388,25.0359343 L64.6293634,25.0359343 L64.6432238,23.9450719 L64.6570842,22.8542094 L65.6745893,22.7422485 C66.3587782,22.6669405 66.7329055,22.6034908 66.8167864,22.5485626 L66.9414784,22.4668378 L66.9413992,13.6757537 C66.9413839,13.5701751 66.9413658,13.4664237 66.9413447,13.3644673 L66.9405426,11.7162113 C66.9404699,11.6346443 66.9403916,11.5546804 66.9403075,11.4762877 L66.9393806,10.8123103 C66.9339667,7.76514508 66.9148418,7.57392545 66.848152,7.51355236 C66.7785421,7.45061602 66.500616,7.40241273 65.7572895,7.32433265 C65.2086242,7.26673511 64.7309035,7.20949692 64.6955852,7.19712526 C64.6469713,7.18013347 64.6314168,6.91252567 64.6314168,6.09502053 L64.6314168,5.01540041 L74.436345,5.01540041 Z M14.2670204,4.75960084 C14.5093115,4.39846652 14.5333871,4.39925588 14.721212,4.77451106 C14.7823001,4.89664331 14.8783394,5.05789297 14.9345597,5.13288261 C14.99078,5.20782839 15.1177362,5.44463779 15.2166699,5.6591257 L15.3361247,5.91479621 C16.3558392,8.08303589 21.8601629,19.5778609 21.8804862,19.5778609 C21.894607,19.5778609 22.2314903,18.9826361 22.6291108,18.255105 C22.9131255,17.7354713 23.1877206,17.2396438 23.3454196,16.9606007 L23.4251517,16.8207328 C23.44648,16.7838107 23.4622727,16.7571039 23.4716699,16.7421561 L23.5913025,16.5519631 L63.5,16.5519631 L63.5,17.955278 L24.3597928,17.955278 L23.4283425,19.6586392 C23.0365855,20.375016 22.6992974,21.0050734 22.5622625,21.2742842 L22.5137657,21.3719135 C22.5026937,21.3952494 22.4968923,21.4090449 22.4968923,21.4123004 C22.4968923,21.4400159 22.4114216,21.5960908 22.3069624,21.7591385 C22.2024593,21.9221861 22.0631802,22.1409278 21.9973999,22.2452117 C21.8484731,22.4812317 21.8382552,22.4739959 21.5022051,21.8959617 C21.4851669,21.866655 21.4691217,21.8391179 21.4536395,21.8124643 L21.3789294,21.6824557 C21.1075989,21.2026656 20.784658,20.523386 17.7608798,14.1838691 C16.0409858,10.5780076 14.6220152,7.61416265 14.6075874,7.59754214 C14.6062306,7.59598396 14.5983223,7.61451797 14.5843494,7.65168976 L14.5484617,7.75045278 C14.3518777,8.30283461 13.6903539,10.2863387 12.9188733,12.6407051 C12.0045259,15.4310653 11.2003387,17.8151658 11.1318394,17.9387013 C11.0632963,18.0622369 11.0072514,18.1954202 11.0072514,18.2347131 C11.0072514,18.2838839 10.7552221,18.2994574 8.4963873,18.304171 L8.10103242,18.3048599 C8.03194272,18.3049593 7.96122934,18.3050512 7.88885467,18.3051363 L6.93820937,18.3058559 C6.85194257,18.3058934 6.76386403,18.305926 6.67393615,18.305954 L0,18.3061067 L0,16.9027918 L10.070144,16.9027918 L11.9404558,11.2127883 C12.9691295,8.08326451 13.8657162,5.42214089 13.9328999,5.29913157 C14.0000836,5.1761661 14.1504575,4.93334877 14.2670204,4.75960084 Z M59.3021588,5.47941368 C59.6704852,5.39938088 60.2591319,5.39995098 60.6015846,5.48068544 C61.4472134,5.68000001 62.0211692,6.33249759 62.2262286,7.32753558 C62.2702137,7.5408833 62.2935877,7.72761189 62.2781512,7.74247826 C62.2477607,7.77186016 60.8229575,7.97108703 60.8049337,7.94850243 C60.7988819,7.94091576 60.7695439,7.80646065 60.7397673,7.64968406 C60.7100345,7.49290747 60.6368429,7.27442888 60.577202,7.16418095 C60.4273981,6.88737708 60.2593073,6.79563537 59.9008042,6.79502142 C59.6592586,6.79462674 59.5829972,6.81409773 59.4302552,6.91518026 C58.9620304,7.22504973 58.9056785,8.02143095 59.309,8.62893475 C59.469241,8.87030491 59.972768,9.37299863 60.7591506,10.0766734 C61.6464841,10.8706865 62.0783104,11.4166198 62.2735028,11.9911896 C62.410326,12.393941 62.441462,13.1326109 62.3406865,13.5855746 C62.0854147,14.7330038 61.1698394,15.4546147 59.9697859,15.4542201 C59.2165566,15.4539568 58.625191,15.226883 58.146222,14.7539658 C57.7102735,14.3235428 57.4735956,13.7784427 57.3892652,13.0105663 C57.3712852,12.8469047 57.3804068,12.8213819 57.4633339,12.8026126 C57.6741381,12.7548999 58.8305573,12.571241 58.843538,12.5834323 C58.8512124,12.5906243 58.8770421,12.7415245 58.9008985,12.9187807 C58.9554523,13.3239441 59.1438474,13.7403778 59.3396537,13.8885591 C59.7772686,14.2197414 60.4627441,14.1144928 60.7192876,13.6767024 C60.9532027,13.277547 60.938424,12.7691523 60.6785915,12.2762379 C60.5201923,11.9757531 60.0647289,11.5001171 59.2471664,10.7814883 C58.3754886,10.0151906 57.912614,9.43097308 57.6777341,8.80049 C57.5433667,8.43975036 57.4942068,7.67507529 57.5776164,7.24324897 C57.7447863,6.37762294 58.439778,5.66680008 59.3021588,5.47941368 Z M35.9129776,5.54471168 L35.9254758,9.45864469 C35.9357507,12.6635079 35.9380861,13.2452823 35.9904972,13.4630174 L36.0005912,13.499097 C36.005927,13.515634 36.0117057,13.5302939 36.017971,13.544774 L36.031163,13.5739972 C36.1511903,13.8335228 36.3195881,13.9872296 36.5564852,14.0535801 C36.7893039,14.1187466 37.0259817,14.0804624 37.2358211,13.9436392 C37.4157086,13.8263308 37.5206502,13.6329803 37.5830539,13.3040345 C37.6073821,13.1758172 37.6236186,11.8469913 37.6260608,9.84682099 L37.6263812,5.54471168 L39.2090573,5.54471168 L39.1936647,9.48057149 C39.1798947,13.001971 39.17051,13.4453308 39.1043788,13.6909548 C38.8257331,14.7263381 38.022116,15.3779147 36.942923,15.443432 C35.7298888,15.517106 34.743183,14.8288678 34.4395846,13.6974013 C34.3715238,13.4437959 34.3627093,13.0331071 34.3488077,9.48057149 L34.3334151,5.54471168 L35.9129776,5.54471168 Z M7.89364641,5.44340989 C8.19728867,5.39267128 8.73524068,5.41889573 9.05203902,5.49989331 C9.65033356,5.65294235 10.0916323,5.96035602 10.4017648,6.44020201 C10.6811122,6.87237915 10.7500062,7.16510188 10.7766692,8.03340298 L10.7999555,8.78987743 L9.22245407,8.78987743 L9.19793992,8.11839124 C9.18206492,7.6831882 9.15114814,7.39379835 9.11014503,7.29613641 C8.91140055,6.82304386 8.3050808,6.63605215 7.88671754,6.91882011 C7.80940366,6.97104973 7.69547203,7.11247757 7.63350691,7.23307494 L7.52089088,7.4523429 L7.52089088,13.3725777 L7.64359323,13.6224555 C7.8397942,14.0219617 8.2201364,14.1843515 8.61043336,14.0352932 C9.05133736,13.8669392 9.15114814,13.6214907 9.19245822,12.6041312 L9.22267334,11.8596288 L10.7994731,11.8596288 L10.7769323,12.6818836 C10.7514972,13.608203 10.6940052,13.8704914 10.4142193,14.3373567 C9.9505991,15.1108464 9.19241436,15.4929427 8.22254834,15.4418094 C7.38783909,15.3977804 6.75823308,15.057038 6.33587914,14.4207662 C5.97458037,13.8763924 5.92563565,13.589333 5.92092888,10.9865767 L5.92091991,9.91545732 C5.92443983,7.95995755 5.95167291,7.41237131 6.06486619,7.0228421 L6.09499137,6.92802936 C6.3524558,6.17975554 7.0795922,5.57953143 7.89364641,5.44340989 Z M22.3479216,5.54471168 L22.9784924,8.48228834 C23.3252866,10.0979862 23.6134924,11.4152165 23.6189741,11.4095155 C23.6214459,11.4069242 23.6753006,11.1415647 23.7619805,10.7067494 L23.8177789,10.426272 C23.9168465,9.92740696 24.0450277,9.27774863 24.1837645,8.57060947 C24.336375,7.7927564 24.4778138,7.07451132 24.5827554,6.54394865 L24.6362246,6.27393375 C24.6857697,6.02407157 24.7230862,5.83697693 24.7440642,5.73343425 L24.7627635,5.64338226 L24.7867952,5.54471168 L26.8822514,5.54471168 L26.8822514,15.3240625 L25.435653,15.3240625 L25.4243826,12.0177649 L25.4131561,8.71146721 L24.6897034,12.0177649 L23.9662507,15.3240625 L23.2516126,15.3240625 L23.1895159,15.0499776 C23.1553539,14.8992528 22.8128574,13.4096778 22.4284368,11.7398647 L21.7294544,8.70379283 L21.7182279,12.0139496 L21.7069575,15.3240625 L20.2603591,15.3240625 L20.2603591,5.54471168 L22.3479216,5.54471168 Z M28.2855663,5.54471168 L29.655991,5.54624656 C31.1094744,5.54786914 31.4561809,5.58080319 31.9379126,5.76310257 C32.2829088,5.89369856 32.6724164,6.25834117 32.8448049,6.61215194 C33.0824037,7.09984773 33.1285376,7.39314055 33.1285376,8.4171219 L33.1281187,8.60405418 C33.1252559,9.19076449 33.1070294,9.42479769 33.0524517,9.64502246 C32.9340031,10.1231582 32.7486778,10.4593398 32.452403,10.733644 C32.0231202,11.1310891 31.4647324,11.2853222 30.4453557,11.2879972 L29.8642956,11.2895321 L29.8642956,15.3240625 L28.2855663,15.3240625 L28.2855663,5.54471168 Z M45.1253453,5.54471168 L45.1253453,6.90417301 L43.4589088,6.90417301 L43.4589088,15.3240625 L41.8801796,15.3240625 L41.8801796,6.90417301 L40.2137431,6.90417301 L40.2137431,5.54471168 L45.1253453,5.54471168 Z M50.4316298,5.54471168 L50.4316298,6.90417301 L47.7565608,6.90417301 L47.7565608,9.57924207 L49.6861188,9.57924207 L49.6861188,10.9387034 L47.7565608,10.9387034 L47.7565608,13.9646012 L50.4316298,13.9646012 L50.4316298,15.3240625 L46.1778315,15.3240625 L46.1778315,5.54471168 L50.4316298,5.54471168 Z M51.5718232,5.53751969 L53.0299551,5.55475415 C54.1906073,5.56841801 54.4424091,5.57517802 54.6662763,5.63393127 L54.7506376,5.65851596 L54.7950622,5.67285188 C55.2087331,5.80884186 55.4209406,5.93974483 55.6916488,6.22597722 C56.1414113,6.70152556 56.3201146,7.31828247 56.3202901,8.39519511 C56.3205093,9.52688088 56.1451827,10.0632103 55.6017928,10.5932687 L55.3040708,10.883711 L55.89377,13.084942 C56.2180673,14.2956081 56.4834254,15.2947245 56.4834254,15.3051178 C56.4834254,15.3155549 56.1084772,15.3240625 55.6502072,15.3240625 L55.5155175,15.3237523 C55.120697,15.3219159 54.816989,15.3121475 54.816989,15.3004254 C54.816989,15.2717013 53.9545642,11.6416326 53.8927307,11.4101295 L53.8488332,11.2456785 L53.1505525,11.2456785 L53.1505525,15.3240625 L51.5718232,15.3240625 L51.5718232,5.53751969 Z M29.8642956,6.89193786 L29.8642956,9.94230595 L30.3660245,9.92015989 C31.3656671,9.87604317 31.5745856,9.6162545 31.5745856,8.4171219 C31.5745856,7.21798931 31.3656671,6.95820063 30.3660245,6.91408392 L29.8642956,6.89193786 Z M53.1505525,6.90417301 L53.1505525,9.88621721 L53.4992324,9.88621721 C54.2555314,9.88621721 54.4834385,9.75329697 54.6512224,9.21442404 C54.7890104,8.77180975 54.7900628,8.02182563 54.6535028,7.58337743 C54.4871661,7.04954766 54.2479886,6.90741817 53.5123446,6.90522549 L53.1505525,6.90417301 Z" id="Combined-Shape"></path>
            </g>
        </g>
    </g>
</svg>