<?xml version="1.0" encoding="UTF-8"?>
<svg width="148px" height="30px" viewBox="0 0 148 30" version="1.1" xmlns="http://www.w3.org/2000/svg" xmlns:xlink="http://www.w3.org/1999/xlink">
    <title>colour genie</title>
    <g id="Page-1" stroke="none" stroke-width="1" fill="none" fill-rule="evenodd">
        <g id="System" transform="translate(-28.000000, 0.000000)" fill="#000000" fill-rule="nonzero">
            <g id="colour-genie" transform="translate(28.388527, 0.000000)">
                <line x1="71.6114731" y1="30" x2="71.6114731" y2="0" id="Path"></line>
                <path d="M29.4533034,18.7681347 C29.2201428,19.2733161 28.2875003,21.1968912 25.9947542,21.1968912 C23.6048578,21.1968912 22.1281739,19.0984456 22.1281739,16.9222798 C22.1281739,14.8821244 23.5077076,12.7253886 25.9753242,12.7253886 C27.9571894,12.7253886 29.0452723,14.1632124 29.4533034,15.2318653 L33.3004537,15.2318653 C32.9118527,12.9779793 30.5025262,9.5 25.9947542,9.5 C21.2926817,9.5 18.4558941,13.2694301 18.4558941,16.9417098 C18.4558941,20.8277202 21.5258423,24.4222798 26.0336143,24.4222798 C29.5115936,24.4222798 32.4649615,22.1683938 33.3004537,18.7681347 L29.4533034,18.7681347 Z M34.5634071,18.7487047 C34.5634071,21.3911917 36.4481221,24.4805699 40.3729926,24.4805699 C44.297863,24.4805699 46.182578,21.3911917 46.182578,18.7487047 C46.182578,16.1062176 44.297863,13.0168394 40.3729926,13.0168394 C36.4481221,13.0168394 34.5634071,16.1062176 34.5634071,18.7487047 Z M37.7887957,18.7487047 C37.7887957,17.1748705 38.9740288,16.0284974 40.3729926,16.0284974 C41.7719563,16.0284974 42.9571894,17.1748705 42.9571894,18.7487047 C42.9571894,20.3225389 41.7719563,21.4689119 40.3729926,21.4689119 C38.9740288,21.4689119 37.7887957,20.3225389 37.7887957,18.7487047 Z M48.0090029,24.1502591 L51.2343915,24.1502591 L51.2343915,9.77202073 L48.0090029,9.77202073 L48.0090029,24.1502591 Z M53.0608164,18.7487047 C53.0608164,21.3911917 54.9455314,24.4805699 58.8704019,24.4805699 C62.7952723,24.4805699 64.6799874,21.3911917 64.6799874,18.7487047 C64.6799874,16.1062176 62.7952723,13.0168394 58.8704019,13.0168394 C54.9455314,13.0168394 53.0608164,16.1062176 53.0608164,18.7487047 Z M56.286205,18.7487047 C56.286205,17.1748705 57.4714381,16.0284974 58.8704019,16.0284974 C60.2693656,16.0284974 61.4545988,17.1748705 61.4545988,18.7487047 C61.4545988,20.3225389 60.2693656,21.4689119 58.8704019,21.4689119 C57.4714381,21.4689119 56.286205,20.3225389 56.286205,18.7487047 Z M76.4934589,13.3665803 L73.2680703,13.3665803 L73.2680703,19.2927461 C73.2680703,21.0025907 72.3548578,21.488342 71.4222154,21.488342 C69.6929407,21.488342 69.6929407,20.0699482 69.6929407,19.3316062 L69.6929407,13.3665803 L66.4675521,13.3665803 L66.4675521,19.8173575 C66.4675521,21.2940415 66.5841324,22.0712435 67.4390547,23.1398964 C68.3911273,24.3445596 69.9455314,24.5 70.6061532,24.5 C71.4222154,24.5 72.7434589,24.3834197 73.4040806,23.003886 L73.4429407,23.003886 L73.4429407,24.1502591 L76.4934589,24.1502591 L76.4934589,13.3665803 Z M78.805635,24.1502591 L82.0310236,24.1502591 L82.0310236,18.2240933 C82.0310236,16.5919689 83.0802464,16.2810881 84.5763604,16.242228 L84.5763604,12.9974093 C82.7110755,12.9974093 82.147604,13.988342 81.8755832,14.5129534 L81.8367231,14.5129534 L81.8367231,13.3665803 L78.805635,13.3665803 L78.805635,24.1502591 Z M96.1579666,15.9702073 L96.1579666,18.9041451 L100.452008,18.9041451 C100.063407,20.3031088 98.8393138,21.2163212 97.0128889,21.2163212 C95.2058941,21.2163212 93.0685884,19.9145078 93.0685884,16.9028497 C93.0685884,14.0660622 95.1864641,12.7253886 96.9934589,12.7253886 C98.547863,12.7253886 99.5970858,13.5803109 100.160557,14.5906736 L104.279728,14.5906736 C103.483096,11.8121762 100.529728,9.5 97.0906091,9.5 C92.8548578,9.5 89.3963086,12.6088083 89.3963086,16.9028497 C89.3963086,21.0414508 92.6799874,24.4417098 97.032319,24.4417098 C101.01548,24.4417098 104.707189,21.5466321 104.707189,16.7279793 C104.707189,16.4365285 104.707189,16.2227979 104.687759,15.9702073 L96.1579666,15.9702073 Z M108.417322,13.9358449 C111.171247,12.1474253 114.379502,12.935219 116.167922,15.6891437 C116.400734,16.0476428 116.551328,16.4022311 116.656308,16.6352362 L110.019886,20.9343134 C110.881276,21.903987 112.699909,21.8100349 113.771931,21.1444613 C114.411289,20.7475102 115.037251,20.2071213 115.649817,19.5232945 L115.873694,22.5050062 C115.772114,22.5814739 115.50549,23.0776451 114.730969,23.5509821 C112.101371,25.15802 108.574992,24.560089 106.828902,21.871346 C105.188635,19.345557 105.663398,15.7242645 108.417322,13.9358449 Z M108.867252,19.0880624 L112.743422,16.5807403 L112.598146,16.4329475 C112.103784,15.9739078 111.071494,15.5415593 109.716802,16.4213065 C108.315397,17.3313899 108.632101,18.4762373 108.867252,19.0880624 Z M119.027138,24.1502591 L122.252526,24.1502591 L122.252526,18.2823834 C122.252526,17.6217617 122.252526,16.0284974 124.098381,16.0284974 C125.788796,16.0284974 125.788796,17.5051813 125.788796,18.2629534 L125.788796,24.1502591 L129.014184,24.1502591 L129.014184,17.4080311 C129.014184,15.2901554 128.353563,14.4352332 127.770661,13.9300518 C127.187759,13.4248705 126.041386,12.9974093 125.011594,12.9974093 C123.088018,12.9974093 122.407967,13.988342 122.077656,14.5129534 L122.038796,14.5129534 L122.038796,13.3665803 L119.027138,13.3665803 L119.027138,24.1502591 Z M134.532319,13.3665803 L131.30693,13.3665803 L131.30693,24.1502591 L134.532319,24.1502591 L134.532319,13.3665803 Z M134.532319,9.77202073 L131.30693,9.77202073 L131.30693,12.2202073 L134.532319,12.2202073 L134.532319,9.77202073 Z M138.849934,13.9358449 C141.603858,12.1474253 144.812113,12.935219 146.600533,15.6891437 C146.833345,16.0476428 146.983939,16.4022311 147.088919,16.6352362 L140.452497,20.9343134 C141.313887,21.903987 143.13252,21.8100349 144.204542,21.1444613 C144.8439,20.7475102 145.469863,20.2071213 146.082428,19.5232945 L146.306306,22.5050062 C146.204725,22.5814739 145.938101,23.0776451 145.16358,23.5509821 C142.533983,25.15802 139.007603,24.560089 137.261513,21.871346 C135.621247,19.345557 136.096009,15.7242645 138.849934,13.9358449 Z M139.299863,19.0880624 L143.176034,16.5807403 L143.030758,16.4329475 C142.536395,15.9739078 141.504105,15.5415593 140.149413,16.4213065 C138.748008,17.3313899 139.064713,18.4762373 139.299863,19.0880624 Z M19.4558941,7.88592245 L23.2093611,7.88592245 L23.2093611,6.36992361 L21.1088808,6.36992361 L21.1088808,5.21009317 L23.1454335,5.21009317 L23.1454335,3.69409433 L21.1088808,3.69409433 L21.1088808,2.64385417 L23.2093611,2.64385417 L23.2093611,1.12785532 L19.4558941,1.12785532 L19.4558941,7.88592245 Z M27.1637436,4.04113021 L27.1637436,5.4201412 L29.1820313,5.4201412 C28.9993808,6.07768287 28.4240318,6.50691145 27.5655747,6.50691145 C26.71625,6.50691145 25.7116725,5.8950324 25.7116725,4.47949132 C25.7116725,3.14614294 26.7071175,2.51599884 27.5564421,2.51599884 C28.287044,2.51599884 28.7802002,2.91782986 29.0450434,3.39272106 L30.9811383,3.39272106 C30.6067049,2.08677025 29.2185613,1 27.6021047,1 C25.6112147,1 23.9856256,2.4612037 23.9856256,4.47949132 C23.9856256,6.42471874 25.529022,8.02291029 27.5747072,8.02291029 C29.4468744,8.02291029 31.1820538,6.66216435 31.1820538,4.39729861 C31.1820538,4.26031076 31.1820538,4.15985301 31.1729213,4.04113021 L27.1637436,4.04113021 Z M34.4058345,6.43385127 C35.4743397,5.49320138 36.6524352,4.39729861 36.6524352,2.96349247 C36.6524352,2.00457755 35.8579057,1 34.3510393,1 C33.8578831,1 32.844173,1.13698785 32.2688241,2.03197511 C31.9035231,2.58905903 31.8852581,3.14614294 31.8669931,3.58450405 L33.5108472,3.58450405 C33.5382448,3.19180555 33.611305,2.51599884 34.2871117,2.51599884 C34.7711354,2.51599884 34.9263883,2.89956481 34.9263883,3.17354051 C34.9263883,3.85847974 34.204919,4.66214178 33.9948709,4.89958738 C33.3555943,5.61192419 32.7802454,5.98635763 31.9309207,6.54344155 L31.9309207,7.88592245 L36.6980978,7.88592245 L36.6980978,6.43385127 L34.4058345,6.43385127 Z M37.4104346,5.44753877 C37.4104346,7.3562361 38.9629635,8.01377777 39.9584086,8.01377777 C41.0177812,8.01377777 42.4515874,7.32883854 42.4515874,5.44753877 L42.4515874,3.566239 C42.4515874,1.56621643 40.8259983,1 39.9584086,1 C38.9903611,1 37.4104346,1.61187905 37.4104346,3.566239 L37.4104346,5.44753877 Z M39.1364815,3.52057639 C39.1364815,3.15527546 39.2460717,2.51599884 39.931011,2.51599884 C40.7255405,2.51599884 40.7255405,3.31052835 40.7255405,3.52057639 L40.7255405,5.49320138 C40.7255405,5.69411689 40.7255405,6.49777893 39.931011,6.49777893 C39.2643368,6.49777893 39.1364815,5.8950324 39.1364815,5.49320138 L39.1364815,3.52057639 Z M43.0543339,5.44753877 C43.0543339,7.3562361 44.6068628,8.01377777 45.6023079,8.01377777 C46.6616805,8.01377777 48.0954867,7.32883854 48.0954867,5.44753877 L48.0954867,3.566239 C48.0954867,1.56621643 46.4698976,1 45.6023079,1 C44.6342604,1 43.0543339,1.61187905 43.0543339,3.566239 L43.0543339,5.44753877 Z M44.7803808,3.52057639 C44.7803808,3.15527546 44.889971,2.51599884 45.5749103,2.51599884 C46.3694398,2.51599884 46.3694398,3.31052835 46.3694398,3.52057639 L46.3694398,5.49320138 C46.3694398,5.69411689 46.3694398,6.49777893 45.5749103,6.49777893 C44.9082361,6.49777893 44.7803808,5.8950324 44.7803808,5.49320138 L44.7803808,3.52057639 Z M48.6982332,5.44753877 C48.6982332,7.3562361 50.2507621,8.01377777 51.2462072,8.01377777 C52.3055798,8.01377777 53.739386,7.32883854 53.739386,5.44753877 L53.739386,3.566239 C53.739386,1.56621643 52.1137969,1 51.2462072,1 C50.2781597,1 48.6982332,1.61187905 48.6982332,3.566239 L48.6982332,5.44753877 Z M50.4242801,3.52057639 C50.4242801,3.15527546 50.5338703,2.51599884 51.2188096,2.51599884 C52.0133391,2.51599884 52.0133391,3.31052835 52.0133391,3.52057639 L52.0133391,5.49320138 C52.0133391,5.69411689 52.0133391,6.49777893 51.2188096,6.49777893 C50.5521354,6.49777893 50.4242801,5.8950324 50.4242801,5.49320138 L50.4242801,3.52057639 Z M14.883324,3.73397727 L14.883324,6.65128967 L8.49685173,6.65113827 C8.12507711,6.65112946 7.78583659,6.86310364 7.62285958,7.19725161 L1.77639261,19.1841264 C1.54097082,19.6668062 1.74141305,20.2489426 2.22409286,20.4843644 C2.35686084,20.5491205 2.5026374,20.5827765 2.65035569,20.5827775 L14.883324,20.5828534 L14.883324,23.5 L0.444021315,23.5 C0.0771235151,23.5 0.00769950932,22.5870029 0.000535557015,21.837268 L-7.10542736e-15,21.623025 L0.00132637216,21.4563304 L0.00727914064,21.0069211 C0.00727914064,20.6145645 0.172900743,20.0374026 0.237656182,19.9046341 L6.63714143,6.2825295 C7.39767901,4.7231944 8.98075648,3.73397727 10.7156753,3.73397727 L14.883324,3.73397727 Z M14.883324,7.94632065 L14.883324,10.8634673 L8.90142835,10.8631925 C8.46057432,10.8631723 8.05829577,11.1145298 7.86503643,11.510766 C7.75602899,11.734262 7.84884032,12.0038093 8.07233633,12.1128167 C8.13381046,12.1428 8.20130767,12.1583837 8.26970404,12.1583849 L14.883324,12.1584982 L14.883324,15.0756448 L6.84656805,15.0755295 C6.40585199,15.0755232 6.00371273,15.3268314 5.81055491,15.7229636 C5.70158946,15.9464323 5.79441266,16.2159234 6.01788132,16.3248888 C6.07933222,16.3548529 6.1468008,16.3704267 6.21516788,16.3704286 L14.883324,16.3706758 L14.883324,19.2878224 L3.67735994,19.2875774 C3.31933869,19.2875696 3.02911931,18.9973297 3.02911931,18.6393084 C3.02911931,18.5408303 3.05155999,18.4436471 3.09473147,18.3551363 L7.90544561,8.49214349 C8.06842821,8.1579943 8.407676,7.9460407 8.77945417,7.9460407 L14.883324,7.94632065 Z" id="Combined-Shape"></path>
            </g>
        </g>
    </g>
</svg>