<?xml version="1.0" encoding="UTF-8"?>
<svg width="159px" height="30px" viewBox="0 0 159 30" version="1.1" xmlns="http://www.w3.org/2000/svg" xmlns:xlink="http://www.w3.org/1999/xlink">
    <title>exl100</title>
    <g id="Page-1" stroke="none" stroke-width="1" fill="none" fill-rule="evenodd">
        <g id="System" transform="translate(-19.000000, 0.000000)" fill="#000000">
            <g id="exl100" transform="translate(19.920688, 0.000000)">
                <line x1="80.0793117" y1="30" x2="80.0793117" y2="0" id="Path" fill-rule="nonzero"></line>
                <path d="M125.204312,5 L125.204312,7.5 L126.454312,7.5 L126.454312,5 L138.954312,5 L138.954312,7.5 L142.704312,7.5 L142.704312,5 L155.204312,5 L155.204312,7.5 L157.704312,7.5 L157.704312,22.5 L155.204312,22.5 L155.204312,25 L142.704312,25 L142.704312,22.5 L138.954312,22.5 L138.954312,25 L126.454312,25 L126.454312,22.5 L125.204312,22.5 L125.204312,25 L117.704312,25 L117.704312,15 L110.204312,15 L110.204312,10 L112.704312,10 L112.704312,7.5 L115.204312,7.5 L115.204312,5 L125.204312,5 Z M83.9543117,5 L83.9543117,10 L88.9543117,10 L88.9543117,5 L96.4543117,5 L96.4543117,7.5 L97.7043117,7.5 L97.7043117,5 L102.704312,5 L103.079312,20 L112.704312,20 L112.704312,25 L97.7043117,25 L97.7043117,22.5 L96.4543117,22.5 L96.4543117,25 L88.9543117,25 L88.9543117,20 L83.9543117,20 L83.9543117,25 L63.9543117,25 L63.9543117,22.5 L61.4543117,22.5 L61.4543117,7.5 L63.9543117,7.5 L63.9543117,5 L83.9543117,5 Z M137.704312,6.25 L127.704312,6.25 L127.704312,8.75 L125.204312,8.75 L125.204312,21.25 L127.704312,21.25 L127.704312,23.75 L137.704312,23.75 L137.704312,21.25 L140.204312,21.25 L140.204312,8.75 L137.704312,8.75 L137.704312,6.25 Z M153.954312,6.25 L143.954312,6.25 L143.954312,8.75 L141.454312,8.75 L141.454312,21.25 L143.954312,21.25 L143.954312,23.75 L153.954312,23.75 L153.954312,21.25 L156.454312,21.25 L156.454312,8.75 L153.954312,8.75 L153.954312,6.25 Z M123.954312,6.25 L116.454312,6.25 L116.454312,8.75 L113.954312,8.75 L113.954312,11.25 L111.454312,11.25 L111.454312,13.75 L116.454312,13.75 L116.454312,11.25 L118.954312,11.25 L118.954312,23.75 L123.954312,23.75 L123.954312,6.25 Z M76.4543117,6.25 L65.2043117,6.25 L65.2043117,8.75 L62.7043117,8.75 L62.7043117,21.25 L65.2043117,21.25 L65.2043117,23.75 L76.4543117,23.75 L76.4543117,21.25 L67.7043117,21.25 L67.7043117,16.25 L73.9543117,16.25 L73.9543117,13.75 L67.7043117,13.75 L67.7043117,8.75 L76.4543117,8.75 L76.4543117,6.25 Z M82.7043117,6.25 L77.7043117,6.25 L77.7043117,11.25 L80.2043117,11.25 L80.2043117,13.75 L82.7043117,13.75 L82.7043117,16.25 L80.2043117,16.25 L80.2043117,18.75 L77.7043117,18.75 L77.7043117,23.75 L82.7043117,23.75 L82.7043117,18.75 L85.2043117,18.75 L85.2043117,16.25 L87.7043117,16.25 L87.7043117,18.75 L90.2043117,18.75 L90.2043117,23.75 L95.2043117,23.75 L95.2043117,18.75 L92.7043117,18.75 L92.7043117,16.25 L90.2043117,16.25 L90.2043117,13.75 L92.7043117,13.75 L92.7043117,11.25 L95.2043117,11.25 L95.2043117,6.25 L90.2043117,6.25 L90.2043117,11.25 L87.7043117,11.25 L87.7043117,13.75 L85.2043117,13.75 L85.2043117,11.25 L82.7043117,11.25 L82.7043117,6.25 Z M101.454312,6.25 L98.9543117,6.25 L98.9543117,8.75 L96.4543117,8.75 L96.4543117,21.25 L98.9543117,21.25 L98.9543117,23.75 L111.454312,23.75 L111.454312,21.25 L101.454312,21.25 L101.454312,6.25 Z M151.454312,8.75 L151.454312,21.25 L146.454312,21.25 L146.454312,8.75 L151.454312,8.75 Z M135.204312,8.75 L135.204312,21.25 L130.204312,21.25 L130.204312,8.75 L135.204312,8.75 Z M76.4543117,10 L68.9543117,10 L68.9543117,12.5 L75.2043117,12.5 L75.2043117,17.5 L68.9543117,17.5 L68.9543117,20 L76.4543117,20 L76.4543117,17.5 L78.9543117,17.5 L78.9543117,12.5 L76.4543117,12.5 L76.4543117,10 Z M150.204312,10 L147.704312,10 L147.704312,20 L150.204312,20 L150.204312,10 Z M133.954312,10 L131.454312,10 L131.454312,20 L133.954312,20 L133.954312,10 Z M95.2043117,12.5 L93.9543117,12.5 L93.9543117,17.5 L95.2043117,17.5 L95.2043117,12.5 Z" id="Shape"></path>
                <path d="M21.0274298,14.2762585 C21.010763,14.2929252 20.9971185,16.1340011 20.9971185,18.3675234 L20.9971185,22.4284326 L18.897108,22.415677 L16.7970975,22.4029214 L16.5991854,22.2918097 C16.2359836,22.0878976 16.0425604,21.7465626 15.9884712,21.2140266 L15.9625155,20.9584697 L18.1909267,20.9584697 L20.4193378,20.9584697 L20.4193378,19.8998866 C20.4193378,19.0609491 20.4046266,18.79117 20.3484041,18.5998801 C20.084225,17.7010312 19.3401324,16.9618719 18.3526608,16.6172924 C18.0159925,16.4998252 17.9557699,16.4932029 17.2193218,16.4930252 C16.5322073,16.4928474 16.4000733,16.5050252 16.0859828,16.5975146 C14.836821,16.9653831 14.0571726,17.768276 13.7230376,19.0308601 C13.6186816,19.4250843 13.6065926,19.5529516 13.6037037,20.2917997 C13.6009481,21.0010922 13.6141927,21.1689597 13.6999264,21.5140281 C13.9016608,22.3258988 14.1985511,22.8986128 14.6684646,23.3823485 C15.0666888,23.7922617 15.6402472,24.11373 16.3082061,24.3014198 C16.6607412,24.4004425 16.6931414,24.4014203 20.0972918,24.4147981 L23.5308201,24.4282649 L23.5195311,19.3489061 L23.5082422,14.2695474 L22.2829916,14.2577695 C21.6091216,14.2512362 21.0440965,14.2595917 21.0274298,14.2762585 M32.2416192,15.1132849 L32.2416192,15.980667 L33.4870477,15.980667 L34.7324317,15.980667 L34.7203872,15.1251072 L34.7082982,14.2695474 L33.4749587,14.2577251 L32.2416192,14.2459028 L32.2416192,15.1132849 M41.9506012,14.3036809 C41.9383789,14.3354144 41.93389,14.7207496 41.9406011,15.1599518 L41.9527789,15.9584447 L43.1972296,15.9584447 L44.4416803,15.9584447 L44.4416803,15.113996 L44.4416803,14.2695474 L43.2072297,14.2577251 C42.227047,14.2483472 41.9682012,14.257814 41.9506012,14.3036809 M2.9303614,16.4983585 C2.64213773,16.5428476 2.11720177,16.708804 1.86368939,16.8355602 C0.876662231,17.3291627 0.323592796,18.0939221 0.055102563,19.3362394 C0.0197690528,19.4995291 -0.00147549794,19.8957977 7.99336655e-05,20.3584667 C0.00252452208,21.0197589 0.0171912622,21.1700263 0.117636209,21.5627394 C0.268436964,22.1524313 0.403637641,22.4784773 0.652038884,22.8517681 C0.871639983,23.1818142 1.27070865,23.5987941 1.54435446,23.7840839 C1.81520026,23.9675515 2.32355836,24.1933748 2.70813806,24.3011087 C3.0570287,24.3988425 3.11774011,24.4009758 5.94206536,24.4147537 L8.82047977,24.4287982 L8.99759177,24.1491968 C9.09501448,23.9954183 9.41972721,23.4819046 9.71919538,23.0080355 C10.018708,22.5342109 10.2811537,22.144209 10.3024427,22.1413645 C10.3359985,22.1369201 11.4073816,23.7907506 11.6740052,24.2584862 L11.7689834,24.4251537 L13.0052563,24.4251537 C13.7767712,24.4251537 14.2415291,24.408887 14.2415291,24.3819091 C14.2415291,24.3445311 13.8714828,23.7162169 12.1260519,20.78998 L11.800228,20.2437106 L12.7764551,18.5374798 C13.3133467,17.5990751 13.7526378,16.8098712 13.7526378,16.7837377 C13.7526378,16.7076484 11.244803,16.7185818 11.1814249,16.7949822 C11.1546248,16.8272935 10.9744017,17.1322728 10.780934,17.4727634 C10.5875108,17.8132095 10.4119988,18.0855665 10.3909321,18.077922 C10.3698653,18.0703219 10.1888422,17.7703204 9.98861895,17.411252 L9.62461713,16.7584487 L8.32803286,16.7466709 C7.10456007,16.7355153 7.03313749,16.7392931 7.06135985,16.8133379 C7.09758226,16.9083606 8.33416623,19.2097054 8.67061235,19.8081529 L8.91088022,20.2355772 L8.39412208,21.1859375 C8.10994288,21.7086068 7.83727485,22.2019426 7.78820794,22.2822541 L7.69900749,22.4282104 L5.44801845,22.4155881 L3.1970294,22.4029214 L2.9991173,22.2918097 C2.63600437,22.0879865 2.44920344,21.7574959 2.39000314,21.2140266 L2.36213633,20.9584697 L4.59072527,20.9584697 L6.81926975,20.9584697 L6.81926975,19.8964644 C6.81926975,18.9514375 6.80922526,18.8020145 6.72815819,18.5395243 C6.4597124,17.6703199 5.69273078,16.9241384 4.75259274,16.6174702 C4.44423564,16.5168919 4.30850163,16.4999141 3.7303654,16.4896029 C3.3636969,16.483114 3.0036951,16.4870251 2.9303614,16.4983585 M47.7137411,16.5196475 C46.7721808,16.6760483 45.9632879,17.2490289 45.5798638,18.0312106 C45.2550621,18.6938806 45.2416843,18.7894811 45.2416843,20.4473561 C45.2416843,22.1060755 45.2549288,22.2006093 45.5810193,22.8657682 C45.9439989,23.6062163 46.6664914,24.1331078 47.5972516,24.3359977 C48.1551211,24.4576428 49.1727262,24.4576428 49.7305957,24.3359977 C50.6628225,24.1327523 51.3905151,23.6015496 51.7471391,22.8639015 C52.064474,22.207676 52.0856297,22.0580308 52.0858994,20.4695784 C52.0861186,19.2692613 52.0745629,19.0201934 52.005007,18.7234808 C51.7257612,17.5330748 50.8263789,16.7202263 49.5612615,16.5148919 C49.2301931,16.4611583 48.047565,16.464225 47.7137411,16.5196475 M24.2230902,16.7745821 C24.2096235,16.7964489 24.3355797,17.23174 24.5030472,17.7419647 C24.6705147,18.2521451 25.0630055,19.4595733 25.3751849,20.4251337 C25.6874086,21.3906941 26.106433,22.6807006 26.3063451,23.2918147 L26.6699024,24.4029314 L27.8747529,24.4147537 L29.0796034,24.426576 L29.1083147,24.3258644 C29.1482704,24.1857748 29.9496078,21.7025623 30.3957433,20.3362444 C31.1574805,18.0034772 31.5305046,16.836538 31.5305046,16.7864044 C31.5305046,16.748182 31.2344586,16.7378264 30.3919211,16.746582 L29.2533376,16.7584487 L29.1740928,17.0251167 C28.4704003,19.392773 28.2665771,20.085532 28.1443098,20.5251342 C28.0644428,20.8123357 27.9852424,21.0473591 27.9683089,21.0473591 C27.9513755,21.0473591 27.9243087,20.982381 27.9081309,20.9029139 C27.891953,20.8234468 27.8500417,20.6584682 27.8149748,20.5362454 C27.779908,20.4140226 27.6295072,19.8640198 27.4807509,19.314017 C27.3319946,18.7640143 27.1150158,17.9640103 26.9985708,17.5362304 L26.7868808,16.7584487 L25.5172745,16.7466709 C24.8049153,16.7400486 24.236868,16.7523153 24.2230902,16.7745821 M32.2416192,20.5799789 L32.2416192,24.4251538 L35.7434145,24.4251538 C39.4996556,24.4251538 39.4904555,24.4256426 39.9429911,24.1978637 C40.7838398,23.7746172 41.2638866,22.9280351 41.2638866,21.8685632 C41.2638866,21.3280716 41.206953,21.0454924 41.022241,20.6695794 C40.7448618,20.1049543 40.2130369,19.6907745 39.6245006,19.5809073 C39.4928111,19.5563294 39.0689423,19.5362404 38.6824959,19.5362404 C38.0178704,19.5362404 37.9736479,19.5308626 37.8636029,19.436151 C37.7220022,19.3143726 37.6698686,19.0252156 37.7532913,18.8238813 C37.8590696,18.5685022 37.9220032,18.5584577 39.4172107,18.5584577 L40.7749953,18.5584577 L40.7749953,17.647342 L40.7749953,16.7362264 L39.0972091,16.7377819 C37.2541776,16.7394708 36.9450205,16.7687154 36.4860849,16.9846276 C36.1507055,17.1424062 35.72297,17.5633861 35.5639914,17.8921433 C35.1433226,18.7621032 35.2576343,19.8839755 35.8320816,20.5231342 C36.0568828,20.7733132 36.4643515,21.0295367 36.8162199,21.1420706 C37.0551989,21.2185155 37.2615555,21.2396711 37.9511145,21.2586046 L38.7939187,21.2816713 L38.9145415,21.4022942 C39.150276,21.6380287 39.1230314,22.0891421 38.8596523,22.3107432 L38.7237406,22.4251437 L36.7274639,22.4251437 L34.7311872,22.4251437 L34.7197205,19.5917962 L34.7082982,16.7584487 L33.4749587,16.7466264 L32.2416192,16.7348041 L32.2416192,20.5799789 M41.9513123,16.7910711 C41.93949,16.8220046 41.9350011,18.5473465 41.9413122,20.6251347 L41.9527789,24.4029314 L43.1972296,24.4029314 L44.4416803,24.4029314 L44.4416803,20.5806901 L44.4416803,16.7584487 L43.2072297,16.7466264 C42.2436248,16.7374264 41.9680235,16.7471598 41.9513123,16.7910711 M52.8935893,16.765871 C52.8772781,16.7821377 52.8639447,18.5121464 52.8639447,20.6103346 L52.8639447,24.4251537 L54.1083953,24.4251537 L55.352846,24.4251537 L55.352846,21.4918057 L55.352846,18.5584577 L56.1417389,18.5585466 C57.0295211,18.558591 57.1580995,18.5914801 57.340856,18.865037 L57.4417454,19.01606 L57.4417454,21.7206069 L57.4417454,24.4251537 L58.6873516,24.4251537 L59.9329578,24.4251537 L59.9206911,21.3029159 L59.9084244,18.180678 L59.7889571,17.9257434 C59.4949112,17.2983181 58.8041077,16.8878716 57.8639697,16.7820044 C57.4254786,16.7326264 52.9413673,16.7180485 52.8935893,16.765871 M3.21898507,18.108411 C2.7212048,18.2717452 2.42484776,18.6696138 2.384892,19.2283277 L2.36284745,19.5362404 L3.50218648,19.5362404 L4.64148108,19.5362404 L4.64148108,19.322106 C4.64148108,18.8670815 4.41174659,18.4042792 4.08596718,18.2029004 C3.90796629,18.0928998 3.42627499,18.0404107 3.21898507,18.108411 M16.8190531,18.1110777 C16.3120284,18.2653007 15.9748711,18.7400586 15.9748711,19.2997059 L15.9748711,19.5362404 L17.1146546,19.5362404 L18.2544381,19.5362404 L18.2278157,19.2186388 C18.1814155,18.6649471 17.8974585,18.242545 17.4894565,18.1202777 C17.3007,18.0637441 16.9887873,18.0594774 16.8190531,18.1110777 M48.2858773,18.2862786 C47.9727202,18.3888569 47.7858748,18.5437021 47.6357852,18.8251257 C47.5612959,18.9648153 47.5512959,19.1145049 47.5378736,20.2917997 C47.5213846,21.7387847 47.5452958,21.9538525 47.7546747,22.2428762 C47.9597868,22.5259887 48.1572989,22.6029224 48.6793459,22.6029224 C49.1035258,22.6029224 49.1288149,22.5973668 49.3348159,22.4584772 C49.4789055,22.3613656 49.586106,22.2415873 49.662062,22.0929643 L49.7750403,21.8718521 L49.7750403,20.4262893 C49.7750403,19.1001938 49.7681958,18.9678375 49.6920621,18.8251257 C49.4875722,18.441746 49.2163709,18.2833008 48.7305906,18.263434 C48.5472564,18.2559229 48.3471221,18.2661896 48.2858773,18.2862786" id="Shape"></path>
                <path d="M55.2326096,1.19220782 C55.2421813,1.19182603 55.3739918,1.39648567 55.5255026,1.64705451 C55.9289397,2.3141823 55.868586,2.27130123 56.1567106,2.09591349 C56.2453964,2.04191768 56.32791,1.99180469 56.376788,1.96222985 L56.4214455,1.93535312 C56.4339756,1.92804385 56.5876444,2.15703293 56.7629277,2.44418294 C56.860288,2.60373007 56.9498492,2.74715253 57.011612,2.84312368 L57.0711043,2.93350752 C57.0856341,2.95470666 57.0944361,2.96630868 57.0962306,2.96630868 C57.1043056,2.96630868 57.2162071,2.90184785 57.3449199,2.82308174 C57.4986931,2.72896614 57.5942357,2.69015738 57.6235772,2.70996203 C57.6481503,2.72652972 57.8499907,3.03766111 58.072123,3.40138446 C58.2942552,3.7651078 58.5062938,4.11215905 58.5432578,4.17261718 L58.6105031,4.28253472 L58.0923453,4.61075589 L58.2461533,4.85791373 C58.330732,4.99386621 58.3999612,5.11652277 58.3999612,5.13051481 C58.3999612,5.14454165 58.2864239,5.22229839 58.1476173,5.30339652 C58.0088107,5.38445984 57.8892867,5.45508134 57.8819774,5.46033705 C57.8746682,5.46559277 57.9403472,5.58400299 58.0279193,5.72347088 C58.1500537,5.91800196 58.1774461,5.98625665 58.1456334,6.01671195 C58.0955474,6.06457029 57.2260572,6.61196523 57.1708896,6.63037763 C57.1483353,6.63789574 57.2009272,6.75393915 57.296087,6.90663335 C57.3863391,7.05142656 57.4601976,7.17846869 57.4601976,7.18894532 C57.4601976,7.19942194 57.3242799,7.29005693 57.1581854,7.3904028 C56.9920908,7.49071387 56.7819318,7.62099296 56.6911924,7.67988482 C56.6004182,7.73877668 56.4988541,7.80344634 56.4654751,7.82359905 C56.4101335,7.85704768 56.4178952,7.88235168 56.5535693,8.11074906 C56.6354331,8.24851146 56.7103706,8.36124829 56.7201163,8.36124829 C56.729862,8.36124829 56.8527274,8.29149694 56.9931698,8.2062569 L57.2484375,8.0512655 L57.4097984,8.31015299 C57.5916601,8.6018974 57.5529557,8.59702455 57.9059588,8.37259507 C58.0075577,8.30799502 58.1051887,8.26413938 58.1229746,8.27513809 C58.1407257,8.286102 58.2199443,8.40395533 58.2989889,8.5370189 C58.3780334,8.67004767 58.4499079,8.77892103 58.4587487,8.77892103 C58.4675546,8.77892103 58.5837373,8.70843876 58.7169052,8.62229375 C58.8500732,8.53614875 58.9662211,8.46566648 58.9750618,8.46566648 C58.9838677,8.46566648 59.0382,8.5479132 59.0958388,8.6483983 C59.1534429,8.7488834 59.2279627,8.86597099 59.2614461,8.90857361 L59.3223219,8.9860171 L59.5765106,8.82632689 C59.7163265,8.73847639 59.8354329,8.67231007 59.8411759,8.67927128 C59.8469189,8.68619768 60.0046251,8.94250953 60.1916033,9.24880287 C60.3785815,9.55509622 60.5923255,9.90319164 60.6665668,10.0223676 C60.7408429,10.1415784 60.8015795,10.2536191 60.8015795,10.271405 C60.8015795,10.2891909 60.7193676,10.3507976 60.6188477,10.4082972 C60.2763561,10.6042901 60.2854752,10.5864694 60.4177383,10.8015709 C60.4811549,10.9047013 60.555257,11.0230071 60.5823361,11.0644263 C60.6293939,11.1363356 60.6201355,11.1471255 60.377224,11.3034395 C60.2373385,11.3934828 60.1185106,11.4709611 60.11322,11.4756251 C60.1078947,11.4802891 60.1744439,11.5990822 60.2610762,11.7395943 C60.3477085,11.8801412 60.4068788,12.0066264 60.3925387,12.0206532 C60.3782334,12.0347149 60.1942137,12.1514544 59.9836371,12.2800628 C59.7730604,12.408706 59.3579981,12.662303 59.0612764,12.8436426 C58.7645547,13.025017 58.4713833,13.2039549 58.4098114,13.2413018 C58.3482394,13.2786835 58.2840571,13.3007158 58.2672457,13.2903088 C58.2503996,13.2799017 58.0974966,13.0451697 57.927469,12.7687051 L57.6182867,12.2660012 L57.5131376,12.3198461 C57.4552899,12.3495009 57.3425183,12.4185213 57.2624991,12.4732713 C57.18248,12.5279864 57.1096657,12.5727818 57.1007206,12.5727818 C57.0918102,12.5727818 56.9397773,12.3378409 56.7629277,12.0506909 C56.5860781,11.7635409 56.4336624,11.5285999 56.4242299,11.5285999 C56.3932874,11.5285999 56.0172427,11.7469732 55.950415,11.8037419 C55.8927066,11.8527836 55.8813598,11.8531665 55.8531669,11.8070484 C55.4074405,11.0775134 55.2677985,10.8537452 55.2427382,10.8286848 C55.2072708,10.7932175 54.7244063,11.0863541 54.7349873,11.1369621 C54.7388856,11.1555486 54.8759171,11.3840504 55.0395404,11.6448174 C55.2031637,11.9055496 55.3370278,12.1330768 55.3370278,12.150445 C55.3370278,12.1648896 55.2581824,12.2235184 55.1515727,12.2898941 L55.0173982,12.3699904 C54.9094962,12.4336871 54.8263533,12.4834694 54.8213064,12.4874721 C54.8152501,12.4923102 54.9257594,12.6818292 55.0668979,12.9086603 C55.2080365,13.1355262 55.3580158,13.3779852 55.400166,13.4474929 L55.4768089,13.5738737 L55.2346284,13.717762 C55.1014256,13.796911 54.985417,13.8731711 54.9768895,13.8872327 C54.9683272,13.9012944 55.1065072,14.1501925 55.2839834,14.4403359 L55.6066007,14.9678565 L55.358712,15.123544 C54.4013364,15.7247492 53.5339346,16.240401 53.476609,16.2424842 C53.4288899,16.2441252 53.3705201,16.17956 53.2803028,16.0252995 C53.2096465,15.9045573 53.1436194,15.7975286 53.1335256,15.7874349 C53.1234667,15.7773411 53.0311958,15.8228674 52.9284831,15.8885465 C52.5717906,16.116735 52.6094856,16.1201808 52.4455142,15.8442384 C52.3655995,15.7097129 52.2862417,15.5910243 52.2691519,15.580478 C52.2520969,15.569897 52.1258553,15.6316429 51.9886498,15.7176835 L51.7391948,15.874102 L51.6281982,15.6939806 C50.8490645,14.4298592 50.7488231,14.2569775 50.7804966,14.2317431 C50.7883628,14.2254432 50.8966444,14.1602515 51.0210761,14.0868455 C51.1455078,14.0134395 51.2532325,13.9488046 51.2604722,13.9431661 C51.2677119,13.9375275 51.1994572,13.8139312 51.1087874,13.6684766 C51.0181176,13.5230221 50.9495496,13.3994606 50.9564064,13.3938568 C50.9632632,13.388253 51.0825436,13.316831 51.2214894,13.2351412 L51.4741118,13.0865889 L51.3977473,12.9602081 C51.3557364,12.8907004 51.2851149,12.7792862 51.2408416,12.7126325 C51.1965335,12.6459789 51.1604396,12.5754967 51.1606136,12.5560053 C51.1607528,12.5365139 51.2703919,12.4530141 51.404256,12.3704542 C51.5380854,12.2878942 51.6475852,12.2059259 51.6475852,12.188314 C51.6475852,12.170737 51.5845514,12.0533709 51.5075256,11.9275122 C51.4304998,11.8016535 51.3754018,11.6858537 51.3850779,11.670191 C51.394754,11.6545283 51.5126073,11.5763887 51.6469587,11.4965784 C51.7813101,11.4167681 51.8912277,11.3444759 51.8912277,11.3359832 C51.8912277,11.3274557 51.8202233,11.2097068 51.7334518,11.074346 L51.5757107,10.8281975 L51.4463018,10.9064068 C51.3751582,10.9493923 51.1323163,11.098571 50.9067034,11.2378997 L50.4964791,11.4912182 L50.3811318,11.3097742 C50.3176804,11.2099852 50.2472329,11.0931065 50.2245394,11.0500166 C50.2018458,11.0069267 50.1659608,10.9717029 50.1447639,10.9717029 C50.123567,10.9717029 50.0105517,11.0319522 49.8936381,11.1056019 C49.7767246,11.1792515 49.5523647,11.3199724 49.3951457,11.4183343 L49.1092139,11.5971331 L48.9644207,11.353421 C48.8847844,11.2193481 48.8067841,11.1017384 48.7911213,11.0920623 C48.7754586,11.0823862 48.6560042,11.1393289 48.5257251,11.2186519 C48.3954112,11.297975 48.2786369,11.3687705 48.2662111,11.3759753 C48.2537853,11.383215 48.1703552,11.2715572 48.0807644,11.1278429 C47.9912084,10.9840939 47.9073954,10.8726797 47.8945172,10.880163 C47.8816389,10.8876811 47.7632287,10.959486 47.6313137,11.0397836 C47.4353208,11.1590988 47.3839122,11.1773023 47.3497327,11.1396422 C47.3013871,11.0862497 46.4325581,9.67068715 46.4082287,9.60556501 C46.398657,9.58001736 46.4959748,9.4987104 46.6442486,9.40845828 C46.7830204,9.32398396 46.9025444,9.2501255 46.9098537,9.24431289 C46.9171978,9.23853508 46.8136845,9.05702147 46.6798552,8.84101505 C46.5460259,8.62500863 46.4003625,8.38731803 46.356124,8.31286786 C46.2644797,8.15846817 46.2434916,8.18805333 46.6005322,7.96783537 L46.8151116,7.83543311 L46.7525999,7.74159597 C46.5817369,7.48497087 46.1831379,6.81022056 46.1837976,6.77872107 C46.1841821,6.75895123 46.3682365,6.63117817 46.5927704,6.49480802 C46.8172695,6.35840306 47.2851326,6.07257568 47.6324623,5.85959739 C47.979792,5.6466191 48.2773839,5.47248437 48.2937775,5.4726584 C48.3101712,5.47283243 48.3862572,5.5823323 48.4628305,5.71598758 C48.5394039,5.84964286 48.6135408,5.95914273 48.6275328,5.95931676 C48.6415597,5.95949079 48.7590301,5.89509957 48.8885783,5.81626384 C49.0181613,5.73742811 49.1341699,5.66708506 49.1464216,5.65994982 C49.1566604,5.65400378 49.2113978,5.72521118 49.2762909,5.82678124 L49.3642327,5.96888146 C49.4268791,6.06825973 49.4811097,6.14580764 49.4948651,6.15430032 C49.5120593,6.16491617 49.6289728,6.10866957 49.7546575,6.02931175 C49.8803422,5.94991912 50.0014673,5.89200183 50.0238128,5.90056412 C50.0461583,5.90916122 50.1251333,6.01991411 50.199305,6.1467474 C50.2734419,6.27354589 50.3429148,6.37730276 50.3536351,6.37730276 C50.3643553,6.37730276 50.4799463,6.3138513 50.6105038,6.23626859 C50.7410613,6.15872069 50.8614903,6.1036923 50.8781624,6.1139949 C50.8948345,6.12429749 50.969041,6.23445868 51.0430735,6.35882074 C51.1171408,6.4831828 51.1885629,6.58519936 51.2017892,6.58554742 C51.2198883,6.5859999 51.6228381,6.34900543 51.712951,6.28492747 C51.7201907,6.27981098 51.6514139,6.1536042 51.5601524,6.00449503 C51.4688909,5.85538586 51.3252811,5.62058416 51.2410156,5.48268254 L51.0877645,5.23197448 L50.8286334,5.38929788 C50.6861026,5.47582575 50.5538743,5.53698 50.5347658,5.52514594 C50.5156573,5.51334669 50.4352901,5.39469282 50.3561411,5.26149002 L50.2122528,5.01930944 L50.085872,5.09567394 C50.0163643,5.13768486 49.9049501,5.20830636 49.8382965,5.25257967 C49.7716429,5.29688779 49.706834,5.3331209 49.6943386,5.3331209 C49.6655192,5.3331209 49.3851912,4.8634479 49.3851912,4.81520669 C49.3851912,4.78287186 49.8296646,4.49777541 49.8800986,4.49777541 C49.8916194,4.49777541 49.9672182,4.60348142 50.0481423,4.73271633 C50.1290315,4.86191643 50.2006972,4.97395714 50.2074148,4.98168409 C50.2130128,4.98812321 50.2997524,4.94298168 50.4120607,4.8761911 L50.5520771,4.7908352 C50.6644097,4.72241953 50.7512943,4.67180572 50.7570373,4.67180572 C50.7639289,4.67180572 50.836778,4.78927618 50.9189551,4.93285118 C51.0010974,5.07642619 51.0815342,5.19389665 51.0977539,5.19389665 C51.156228,5.19389665 51.5779731,4.90820849 51.577625,4.86880803 C51.5774858,4.85104302 51.5373614,4.77279899 51.4822007,4.68057016 L51.3946337,4.5388577 C51.3395321,4.44774935 51.2995246,4.37272419 51.2995246,4.35869038 C51.2995246,4.34118294 51.4094421,4.26154667 51.5437935,4.18173637 C51.6781449,4.10192607 51.7951977,4.02503947 51.8039341,4.01090821 C51.8126704,3.99677695 51.7478615,3.87272815 51.6598718,3.7352094 C51.5719168,3.59772545 51.5057505,3.47994174 51.512851,3.47353742 C51.5583425,3.43229224 52.0027463,3.17514505 52.028468,3.17514505 C52.0458362,3.17514505 52.1302409,3.2908056 52.2160726,3.43215301 L52.3721082,3.68916098 L52.1144041,3.85240141 C51.826558,4.03475037 51.8315701,4.00018795 52.045697,4.32534618 C52.113882,4.42889421 52.1696762,4.52499375 52.1696762,4.53895098 C52.1696762,4.5528734 52.0597586,4.62958596 51.9254072,4.70939627 C51.7910558,4.78920657 51.672576,4.86835555 51.6621342,4.88523649 C51.6481421,4.90789524 52.1822063,5.83352765 52.2591973,5.92012513 C52.2691171,5.93126307 52.62574,5.73868113 52.7573765,5.65110908 C52.7966029,5.62503934 52.7842468,5.58111409 52.691071,5.41519359 C52.628072,5.30304846 52.5543876,5.18536916 52.5273084,5.15366084 C52.4830699,5.10190423 52.504058,5.07928029 52.7328382,4.93201584 C52.8729674,4.84183333 52.9924218,4.76376333 52.9983041,4.75854242 C53.0042211,4.75328671 52.9556666,4.66508815 52.8904053,4.56247988 C52.6645487,4.20724921 52.6595715,4.24661486 52.9537175,4.06325653 C53.1200557,3.95960408 53.2056786,3.88585003 53.1899114,3.8598499 C53.1763371,3.83739999 53.1056808,3.72657749 53.0329013,3.6135274 C52.9601566,3.50047731 52.9006035,3.39637238 52.9006035,3.38217151 C52.9006035,3.36800544 53.0170297,3.28380958 53.1593517,3.19512373 L53.4180652,3.03386725 L53.26196,2.76982846 C53.1761282,2.62461757 53.1105884,2.50126489 53.1163662,2.49569592 C53.1289312,2.48361821 53.7685274,2.08230432 53.9839421,1.95136391 C54.0676855,1.90047745 54.3789909,1.7089745 54.6757126,1.52589461 C54.9724343,1.34277992 55.2230379,1.19262657 55.2326096,1.19220782 Z M47.3023964,3.87189194 C47.3150658,3.87154474 47.3915696,3.9769723 47.4724937,4.10620721 C47.553383,4.23544212 47.6247354,4.34716958 47.6310701,4.35451366 C47.6374048,4.36185774 47.7566504,4.29920682 47.8960834,4.21528941 C48.0354817,4.13137199 48.1580687,4.05855771 48.1684757,4.05351083 C48.1788827,4.04842915 48.2571963,4.16154885 48.342506,4.30484541 C48.4278157,4.44814196 48.5115938,4.56585607 48.5286836,4.56637816 C48.5457734,4.56693505 48.6589279,4.50473662 48.7801574,4.42816328 L48.8510326,4.38429567 C48.9420975,4.3290927 49.0157248,4.28911307 49.0275589,4.28925229 C49.0534198,4.28953074 49.3503851,4.74869231 49.3503851,4.78840603 C49.3503851,4.80657479 48.8753868,5.12428452 48.8482033,5.12428452 C48.8412072,5.12428452 48.7627544,5.00754499 48.6738249,4.86487494 L48.5121159,4.60546536 L48.2529848,4.76278876 C48.110454,4.84931663 47.9799661,4.91151507 47.9629807,4.90103844 C47.9459953,4.89056182 47.8654193,4.7715947 47.7839035,4.6366516 C47.6433914,4.4041123 47.6318706,4.39387931 47.5619801,4.43961448 C47.3461477,4.58082267 47.1288186,4.70654217 47.1015307,4.70595046 C47.0725372,4.70532396 46.8025814,4.2778359 46.7832988,4.20192388 C46.778426,4.18278055 46.8880651,4.10084708 47.0269413,4.01981856 C47.1658175,3.93882486 47.2897618,3.87224086 47.3023964,3.87189194 Z M52.6399719,0.580552721 L52.6567174,0.581954209 C52.6712315,0.590899367 52.7490927,0.709344396 52.8297383,0.845122844 C52.9895329,1.11406929 52.9898462,1.11170247 52.7787822,1.23209664 C52.7596389,1.24300834 52.7274433,1.26222129 52.690997,1.28438405 L52.5777076,1.35437034 L52.4462103,1.43693032 L52.5452684,1.5838119 C52.5997399,1.66459677 52.6778447,1.78631357 52.7188114,1.85428981 L52.7932964,1.97788613 L52.5337128,2.13183334 C52.3909035,2.21648169 52.2740943,2.30182615 52.2741291,2.32145677 C52.2741291,2.33718911 52.3142257,2.41578398 52.3694521,2.51030165 L52.4571851,2.65588539 C52.5124114,2.74859537 52.552508,2.82207236 52.552508,2.83181806 C52.5525428,2.85834028 52.0829394,3.14086108 52.0417639,3.13912878 C52.0005187,3.13734567 51.714204,2.65127901 51.7347744,2.61793481 C51.7442417,2.60262014 51.8347374,2.54338022 51.9358838,2.48629828 C52.2278023,2.32156119 52.2300995,2.31345138 52.0627171,2.03844868 C51.9829764,1.90747347 51.9123201,1.79094277 51.905707,1.77949158 C51.8990938,1.76807519 52.0105776,1.68464506 52.1534913,1.59411449 C52.296405,1.50358392 52.4133186,1.42067589 52.4133186,1.4098512 C52.4133186,1.40119145 52.373222,1.3302929 52.3179778,1.24021035 L52.2302109,1.09848035 C52.1749667,1.00645869 52.1348701,0.930119247 52.1348701,0.915083029 C52.1348701,0.896252949 52.2092506,0.838126826 52.3001989,0.78584812 C52.3911471,0.733569415 52.5025961,0.662634661 52.5479484,0.628211466 C52.5706072,0.610999868 52.5941709,0.597190563 52.6138842,0.588806653 L52.6399719,0.580552721 Z" id="Combined-Shape"></path>
            </g>
        </g>
    </g>
</svg>