<?xml version="1.0" encoding="UTF-8"?>
<svg width="148px" height="30px" viewBox="0 0 148 30" version="1.1" xmlns="http://www.w3.org/2000/svg" xmlns:xlink="http://www.w3.org/1999/xlink">
    <title>jupiter ace</title>
    <g id="Page-1" stroke="none" stroke-width="1" fill="none" fill-rule="evenodd">
        <g id="System" transform="translate(-25.000000, 0.000000)" fill="#000000">
            <g id="jupiter-ace" transform="translate(25.632199, 0.000000)">
                <line x1="74.367801" y1="30" x2="74.367801" y2="0" id="Path" fill-rule="nonzero"></line>
                <path d="M15.4698406,1.73550725 C15.3531401,2.14010628 14.2748164,5.87536232 13.073628,10.0362319 C11.8724396,14.1971014 10.7125797,17.9797101 10.4959904,18.442029 C10.0565073,19.380256 9.3757778,20.1287923 8.69700968,20.4200531 C8.09389374,20.6789517 6.64725606,20.6678841 6.13015944,20.4004396 C5.47604833,20.0622464 5.11431886,19.1992512 5.18198553,18.1382995 L5.23844447,17.2512077 L2.75999519,17.2512077 C-0.0653333108,17.2512077 0.163444467,17.1353478 0.0237681385,18.6374638 C-0.195763263,20.9990725 1.11133819,22.8325169 3.70102418,23.7955411 C4.50419809,24.0942271 4.97982611,24.1651159 6.55605316,24.2211546 C10.939116,24.3770821 13.5243189,23.1244783 14.9503623,20.1538696 C15.344314,19.3331836 16.2455556,16.4166522 18.0872657,10.0012077 L20.6714879,1 L18.1767875,1 L15.6822271,1 L15.4698406,1.73550725 M57.4830546,2.01570048 C57.3213831,2.5742657 57.098069,3.31061353 56.9866922,3.65174879 C56.6414942,4.70933816 56.5134459,4.65343961 59.1867695,4.61085024 L61.5891463,4.57246377 L62.1138082,2.78623188 L62.6383299,1 L60.2075135,1 L57.7768372,1 L57.4830546,2.01570048 M67.7672054,4.42059903 L65.3970508,5.30264734 L65.0344807,6.61871498 L64.6717706,7.93478261 L63.0680846,8.00483092 L61.4645387,8.07487923 L61.0757706,9.4057971 C60.8618431,10.1378019 60.6856015,10.7840676 60.6839172,10.8417874 C60.6822392,10.8995072 61.3427947,10.9468599 62.1518527,10.9468599 C63.0749493,10.9468599 63.6228672,11.0010773 63.6228672,11.0922802 C63.6228672,11.1722754 63.0798527,13.0477488 62.4160749,15.2601546 C60.8285001,20.551744 60.7389783,21.6935314 61.8154807,22.9193768 C62.0378141,23.1728116 62.5512682,23.5293575 62.9564276,23.7117633 C63.6235677,24.0121304 63.8775629,24.0422512 65.6542682,24.0316039 C66.7330121,24.0250193 67.7732295,23.9541304 67.9658624,23.8741353 C68.2618865,23.7509903 68.3682199,23.5254348 68.6533165,22.4161498 C68.8388044,21.694372 69.0126643,21.0408213 69.0398431,20.9637681 C69.0703841,20.8770483 68.6037223,20.8236715 67.8146981,20.8236715 C66.5919348,20.8236715 66.5265097,20.8077005 66.2023262,20.4305604 C65.9732682,20.1640966 65.8662344,19.8707343 65.870017,19.5199324 C65.8730991,19.235256 66.3959397,17.2056763 67.0318382,15.0096618 L68.1881957,11.0169082 L70.0873455,10.9781014 L71.9864952,10.9392947 L72.4049638,9.4720628 L72.8235725,8.00483092 L70.9457175,8.00483092 C69.097703,8.00483092 69.0692633,8.00006763 69.1617271,7.70866667 C69.2885146,7.30911111 70.3475049,3.60145411 70.3475049,3.55704348 C70.3475049,3.47298551 70.0091716,3.58618357 67.7672054,4.42059903 M45.5943012,7.74299034 C44.6546732,7.89905797 43.3248761,8.4860628 42.5205814,9.09982609 C42.1854703,9.35578261 41.8881852,9.54211111 41.8601659,9.51395169 C41.8320065,9.48579227 41.8954703,9.13471014 42.0012432,8.73375362 L42.1935959,8.00483092 L39.8469775,8.00483092 L37.5002191,8.00483092 L37.3215959,8.81038647 C37.2233881,9.25337198 35.8580065,14.1403623 34.2872432,19.670256 C32.71662,25.2000097 31.4315137,29.7864928 31.4315137,29.862285 C31.4315137,29.9467633 32.2952094,30 33.6671756,30 L35.9026973,30 L36.1805089,29.0543478 C36.3332142,28.5341691 36.8434461,26.7532609 37.3141707,25.0966184 C37.7848954,23.4399758 38.2035041,21.9717633 38.2444123,21.8337681 C38.3057746,21.6265652 38.3863302,21.6750386 38.7096732,22.1139614 C39.6203012,23.350314 40.5057118,23.8597053 42.2018616,24.1228068 C43.3862384,24.3066135 44.9683495,24.1445217 46.1936345,23.7138647 C48.1535862,23.0250097 50.0066442,21.1748937 51.0570886,18.8583961 C52.4325572,15.8246039 52.6789872,12.3668792 51.6627263,10.361256 C50.9314219,8.91826087 49.9026925,8.134 48.2941031,7.79314493 C47.2265669,7.56702899 46.7124123,7.55750242 45.5943012,7.74299034 M78.6892897,7.74004831 C74.1358694,8.4986715 71.0673332,12.1525314 70.3871641,17.625686 C69.978082,20.9178164 71.4212173,23.0081981 74.7332414,23.9207874 C75.8841351,24.2379662 79.1829902,24.2813961 80.3371061,23.9944783 C82.4871689,23.4598696 84.3238356,22.0125314 85.2923235,20.0894251 C85.5719564,19.533942 85.8008743,18.9833623 85.8008743,18.8658213 C85.8008743,18.6832754 85.4755699,18.6521739 83.5670337,18.6521739 L81.333053,18.6521739 L80.8100723,19.6474203 C80.218024,20.7740773 79.6794926,21.2122995 78.5858984,21.4574686 C78.2006327,21.5437681 77.5697776,21.5757101 77.1840916,21.5284976 C75.2101303,21.2864106 74.3873429,19.8585459 74.884966,17.5382657 L75.0366907,16.8309179 L80.7624395,16.8309179 L86.4881883,16.8309179 L86.6351496,16.3055556 C87.2123477,14.2410918 87.188111,12.0658116 86.5722462,10.6937053 C86.1421496,9.73530435 85.2222752,8.7760628 84.2648549,8.28754589 C83.0342462,7.65977295 80.6038501,7.42118841 78.6892897,7.74004831 M98.1002484,7.9766715 C97.0090359,8.35395169 96.1723789,8.90495169 95.3888185,9.762343 C94.9933257,10.1951014 94.6697026,10.4801981 94.6697026,10.396 C94.6697026,10.3118019 94.7957895,9.78784058 94.9498958,9.231657 C95.1040021,8.67561353 95.230089,8.17210628 95.230089,8.11270531 C95.230089,8.05344444 94.197717,8.00483092 92.9358668,8.00483092 L90.6416446,8.00483092 L90.2109876,9.72101449 C89.9742243,10.6648454 88.989205,14.1748261 88.022118,17.5208937 C87.0551712,20.8668213 86.2639055,23.689628 86.2639055,23.7935797 C86.2639055,23.946285 86.702548,23.975285 88.5336108,23.9443237 L90.8034562,23.9057971 L92.0950069,19.4056135 C93.4868668,14.5565894 93.9183644,13.4997005 94.8930166,12.5523671 C95.8168137,11.654628 96.7900649,11.3220386 98.5341277,11.3083092 L99.9467219,11.2971014 L100.440843,9.51086957 L100.934823,7.72463768 L99.8686881,7.72926087 C99.2322291,7.73192271 98.5195576,7.8316715 98.1002484,7.9766715 M18.9085358,12.8472705 C17.3613088,18.2949275 17.1577484,19.339628 17.384845,20.6655024 C17.8010721,23.0954783 19.182845,24.144942 21.9821156,24.1570946 C23.7023619,24.1644155 24.9440383,23.7757874 26.3070383,22.8030966 L27.2091204,22.1594928 L27.0139658,22.8924783 C26.7019706,24.0642464 26.5510866,23.9873333 29.0738064,23.9443237 L31.3321639,23.9057971 L31.8734972,21.9444444 C32.1712025,20.8657005 33.192647,17.287913 34.1436228,13.9939614 L35.8724151,8.00483092 L33.5504537,8.00595169 L31.2284924,8.00707246 L29.9177484,12.5941159 C29.1968112,15.1169758 28.39756,17.6224638 28.1417436,18.1618357 C27.1981928,20.1507874 26.0045697,21.0338164 24.259246,21.0338164 C22.4854827,21.0338164 21.9772122,20.463343 22.0845262,18.5926329 C22.1346808,17.7180097 22.4441542,16.4287005 23.4490672,12.9094734 C24.1638402,10.4058068 24.7791445,8.27815942 24.8164102,8.18121256 C24.8690866,8.04391787 24.3749658,8.00483092 22.5839706,8.00483092 L20.2838643,8.00483092 L18.9085358,12.8472705 M53.6589773,15.6751208 C52.4451802,19.8938502 51.4150497,23.4871884 51.3699386,23.660628 L51.287842,23.9758454 L53.5487212,23.9758454 C55.7586053,23.9758454 55.8126826,23.9687005 55.9488565,23.660628 C56.1159918,23.2826473 60.4267647,8.34568599 60.4267647,8.14478744 C60.4267647,8.05722705 59.5724555,8.00483092 58.146412,8.00483092 L55.8661995,8.00483092 L53.6589773,15.6751208 M78.7832945,10.6041836 C77.6464105,10.954285 76.366768,12.4128309 75.9296665,13.8563865 L75.8335602,14.1742657 L79.171082,14.1365797 L82.5086037,14.0990338 L82.5488115,12.9716763 C82.5839757,11.988058 82.5478308,11.7826763 82.2658163,11.3605652 C81.6449081,10.4313043 80.2956375,10.1382222 78.7832945,10.6041836 M42.9425524,11.2377005 C41.6266248,11.8951739 40.83662,12.9859662 40.1061562,15.1538213 C39.4867891,16.9918889 39.3815765,18.7614493 39.8357698,19.6998164 C40.5387746,21.1519179 42.5048905,21.6425362 44.2678664,20.8060193 C46.0504558,19.9601159 47.4473591,17.0889758 47.4629099,14.2391304 C47.4696345,13.0174879 47.4259244,12.7485024 47.1213543,12.1376812 C46.4367021,10.7644541 44.6566345,10.3811498 42.9425524,11.2377005" id="Shape"></path>
                <path d="M125.764855,5.16009799 C121.446187,5.79490659 117.920745,9.73332962 116.657881,15.333747 C116.330862,16.7841004 116.251539,18.8678888 116.485615,19.8581032 C116.981466,21.9556271 118.447844,23.4020887 120.683066,23.9985524 C121.673281,24.2628461 123.683928,24.2687982 124.680094,24.010571 C125.089297,23.9044643 125.861919,23.6037715 126.397031,23.3422249 C127.850818,22.6317566 129.271983,21.1041411 129.653944,19.8412772 C129.730405,19.5885442 129.713923,19.5837368 128.77968,19.5837368 L127.827467,19.5837368 L127.541426,20.1229692 C127.133367,20.8923856 126.210342,21.7906867 125.418262,22.1894738 C124.470971,22.6663243 123.638143,22.8274874 122.435028,22.7671657 C120.408013,22.6654086 118.962124,21.5963295 118.449676,19.8204451 C117.924522,18.0011793 118.548342,14.5487637 119.880914,11.8983863 C121.61376,8.4519228 123.771377,6.73384184 126.575592,6.5676424 C129.05771,6.42044373 130.60032,7.59757528 130.499135,9.56163598 L130.460447,10.3127384 L131.415521,10.3125095 L132.370481,10.3122806 L132.33122,9.19627193 C132.285207,7.89231602 132.05136,7.29608126 131.283088,6.52357437 C130.171315,5.40561989 127.90473,4.84555526 125.764855,5.16009799 M105.458973,14.5251845 C101.906861,19.6052557 98.9794843,23.8260575 98.9537302,23.9046932 C98.9187047,24.0114867 99.1501477,24.0477712 99.866797,24.0477712 L100.826679,24.0477712 L102.628661,21.4151355 L104.430643,18.7824998 L109.175568,18.7824998 C112.891133,18.7824998 113.92221,18.8135191 113.928162,18.9255778 C113.932397,19.004328 114.073987,20.1760798 114.242934,21.5295979 L114.550037,23.99054 L115.379889,24.024192 C116.11428,24.0539522 116.209742,24.0341502 116.209399,23.8524983 C116.209399,23.7395239 115.668449,19.5305117 115.007543,14.4989726 C114.346751,9.46754787 113.806031,5.33396641 113.806031,5.31336318 C113.806031,5.29275994 113.381032,5.27879553 112.861716,5.28234386 L111.917401,5.28875376 L105.458973,14.5251845 M135.835783,5.41901199 C135.672789,5.84652914 130.403282,23.7700854 130.403282,23.8967953 C130.403282,24.0198424 131.464921,24.0477712 136.132241,24.0477712 L141.861199,24.0477712 L142.016525,23.6757684 C142.102028,23.471224 142.208135,23.1106674 142.252432,22.8745314 L142.332899,22.4452973 L137.443179,22.4452973 C133.123482,22.4452973 132.561357,22.4251519 132.620076,22.2720012 C132.656704,22.176654 133.160453,20.5026411 133.739633,18.5519725 L134.792802,15.0052399 L139.283506,15.0052399 L143.774324,15.0052399 L144.00634,14.3184653 L144.238241,13.6316908 L139.724415,13.6316908 C136.184779,13.6316908 135.212764,13.6007859 135.219975,13.4886128 C135.225126,13.4099771 135.675765,11.8775542 136.221521,10.0833557 L137.213796,6.82117667 L141.96971,6.79130198 L146.725509,6.76142728 L146.967025,6.01868062 L147.20854,5.27593397 L141.549404,5.27593397 C137.127492,5.27593397 135.878363,5.30718221 135.835783,5.41901199 M108.965072,12.1220459 C107.031916,14.9594549 105.450274,17.3098263 105.450274,17.3449662 C105.450274,17.3801062 107.304565,17.4089507 109.570921,17.4089507 C113.501217,17.4089507 113.691568,17.3992214 113.691568,17.1975386 C113.691568,16.940456 112.559077,7.20599933 112.51272,7.063837 C112.49452,7.00832273 110.898113,9.28452246 108.965072,12.1220459" id="Shape"></path>
            </g>
        </g>
    </g>
</svg>