<?xml version="1.0" encoding="UTF-8"?>
<svg width="174px" height="30px" viewBox="0 0 174 30" version="1.1" xmlns="http://www.w3.org/2000/svg" xmlns:xlink="http://www.w3.org/1999/xlink">
    <title>mikrosha</title>
    <g id="Page-1" stroke="none" stroke-width="1" fill="none" fill-rule="evenodd">
        <g id="System" transform="translate(-13.000000, 0.000000)" fill="#000000" fill-rule="nonzero">
            <g id="mikrosha" transform="translate(13.252159, 0.000000)">
                <line x1="86.7478408" y1="30" x2="86.7478408" y2="0" id="Path"></line>
                <path d="M45.9153801,6.90245085 C46.4015583,6.80976806 46.9056226,6.91708497 47.3153781,7.19675936 C47.7251336,7.47643375 48.006434,7.90732743 48.0974907,8.3951316 C48.1200923,8.51399321 48.130824,8.63383043 48.1300539,8.75301725 L48.1300539,21.5853562 C48.1300539,22.0812905 47.9332633,22.5577125 47.5820443,22.9073055 C47.2324514,23.2585245 46.7560293,23.4554095 46.2600951,23.4554095 C45.7641608,23.4554095 45.2877388,23.2585245 44.9381458,22.9073055 C44.5869268,22.5577125 44.3901791,22.0812905 44.3901791,21.5853562 L44.3901791,14.788293 L39.0503495,22.6001515 C38.9791301,22.7103952 38.8958782,22.8133219 38.8015694,22.9073055 C38.4519764,23.2585245 37.9755543,23.4554095 37.4796201,23.4554095 C36.9836858,23.4554095 36.5072638,23.2585245 36.1576708,22.9073055 C35.8064518,22.5577125 35.6097041,22.0812905 35.6097041,21.5853562 L35.6097041,15.1915444 L30.9300361,22.5853548 C30.6649959,23.0048664 30.2438583,23.3008009 29.7593061,23.4097438 C29.27638,23.5186867 28.7690637,23.430882 28.3495521,23.1658417 C27.9300405,22.9008015 27.634106,22.4796639 27.5251631,21.9951117 C27.4162201,21.5121856 27.5040249,21.0048693 27.7690651,20.5853577 L35.8991346,7.739848 C35.9204354,7.70602691 35.9428743,7.67301883 35.9666141,7.64098636 C35.9797849,7.622775 35.9934434,7.60472625 36.0082401,7.5876531 C36.0318173,7.55497022 36.0575083,7.52423856 36.0845002,7.49480771 C36.342386,7.20521463 36.6862879,7.0016377 37.0698646,6.91545896 C37.5527907,6.80651603 38.060107,6.89432078 38.4796186,7.15936104 C38.5134397,7.18066182 38.5464478,7.20310082 38.5784803,7.22667802 C38.5966916,7.24001133 38.6147404,7.25366985 38.6318135,7.26846657 C38.6644964,7.29204378 38.6952281,7.31773479 38.7246589,7.34472663 C39.014252,7.60261243 39.2178289,7.94651436 39.3040077,8.33009104 C39.3362027,8.47318026 39.3513247,8.6183833 39.349536,8.76277334 L39.349536,15.5369098 L44.6893656,7.72505127 L44.7170079,7.68456353 C44.9966823,7.27480803 45.4275759,6.99350763 45.9153801,6.90245085 Z M29.3495506,6.86993057 C29.8454849,6.86993057 30.3219069,7.06667825 30.6714999,7.41789725 C31.0227189,7.76749024 31.2194666,8.2439123 31.2194666,8.73984654 C31.2194666,9.13464271 31.0947513,9.51691858 30.8669468,9.83285307 L22.1121628,22.6406392 C21.8324884,23.0503947 21.4015948,23.3316952 20.9137906,23.4227519 C20.8080997,23.4429145 20.7014332,23.4536462 20.5952545,23.4542966 L20.582348,23.4551503 L1.86991597,23.4552722 C1.37398173,23.4552722 0.897559665,23.2585245 0.54796668,22.9073055 C0.19674768,22.5577125 0,22.0812905 0,21.5853562 C0,21.089422 0.19674768,20.6129999 0.54796668,20.2634069 C0.897559665,19.9121879 1.37398173,19.7154403 1.86991597,19.7154403 L19.5828982,19.7154403 L25.8069542,10.6097625 L1.86991597,10.6097625 C1.37398173,10.6097625 0.897559665,10.4130148 0.54796668,10.0617958 C0.19674768,9.71220284 0,9.23578077 0,8.73984654 C0,8.2439123 0.19674768,7.76749024 0.54796668,7.41789725 C0.897559665,7.06667825 1.37398173,6.86993057 1.86991597,6.86993057 L29.3495506,6.86993057 Z M171.625766,6.86993057 C172.1217,6.86993057 172.598122,7.06667825 172.947715,7.41789725 C173.298934,7.76749024 173.495682,8.2439123 173.495682,8.73984654 C173.495682,9.23578077 173.298934,9.71220284 172.947715,10.0617958 C172.598122,10.4130148 172.1217,10.6097625 171.625766,10.6097625 L147.688727,10.6097625 L153.912783,19.7154403 L171.625766,19.7154403 C172.1217,19.7154403 172.598122,19.9121879 172.947715,20.2634069 C173.298934,20.6129999 173.495682,21.089422 173.495682,21.5853562 C173.495682,22.0812905 173.298934,22.5577125 172.947715,22.9073055 C172.598122,23.2585245 172.1217,23.4552722 171.625766,23.4552722 L152.926606,23.4552722 C152.917663,23.4552722 152.908882,23.4552722 152.900102,23.4542966 C152.793923,23.4536462 152.687582,23.4429145 152.581891,23.4227519 C152.094087,23.3316952 151.663193,23.0503947 151.383519,22.6406392 L142.603044,9.79512955 C142.398491,9.49545519 142.286134,9.1452118 142.278166,8.78846435 C142.276703,8.77236682 142.276215,8.75610668 142.276215,8.73984654 C142.276215,8.2439123 142.472963,7.76749024 142.824182,7.41789725 C143.173775,7.06667825 143.650197,6.86993057 144.146131,6.86993057 L171.625766,6.86993057 Z M135.85346,6.86993057 C136.349394,6.86993057 136.825816,7.06667825 137.175409,7.41789725 C137.25232,7.4943199 137.321751,7.57692141 137.382564,7.66488876 C137.39736,7.68440093 137.411019,7.7045635 137.42419,7.72505127 L146.177022,20.5300732 C146.456697,20.9398287 146.564014,21.443893 146.471331,21.9300712 C146.380274,22.4178753 146.098974,22.848769 145.689218,23.1284434 C145.279463,23.4081178 144.775398,23.5154347 144.28922,23.4227519 C143.801416,23.3316952 143.370522,23.0503947 143.090848,22.6406392 L142.86971,22.3170625 L137.574433,22.3170625 C137.481588,22.5357614 137.346954,22.7365741 137.175409,22.9073055 C136.825816,23.2585245 136.349394,23.4553173 135.85346,23.4553173 C135.357526,23.4553173 134.881104,23.2585245 134.531511,22.9073055 C134.180292,22.5577125 133.983544,22.0812905 133.983544,21.5853562 L133.983544,8.73984654 C133.983544,8.2439123 134.180292,7.76749024 134.531511,7.41789725 C134.881104,7.06667825 135.357526,6.86993057 135.85346,6.86993057 Z M137.723376,14.788293 L137.723376,18.5772305 L140.313291,18.5772305 L137.723376,14.788293 Z M54.796668,15.5369098 L60.1641398,7.68456353 C60.4438142,7.27480803 60.8747079,6.99350763 61.362512,6.90245085 C61.8486902,6.80976806 62.3527545,6.91708497 62.76251,7.19675936 C63.1722655,7.47643375 63.4535659,7.90732743 63.5446227,8.3951316 C63.5672243,8.51399321 63.5779559,8.63383043 63.5771859,8.75301725 L63.5771859,21.5853562 C63.5771859,22.0812905 63.3803953,22.5577125 63.0291763,22.9073055 C62.6795833,23.2585245 62.2031612,23.4553173 61.707227,23.4553173 C61.2112927,23.4553173 60.7348707,23.2585245 60.3852777,22.9073055 C60.0340587,22.5577125 59.837311,22.0812905 59.837311,21.5853562 L59.837311,14.788293 L54.4698392,22.6406392 C54.1901648,23.0503947 53.7592711,23.3316952 53.2714669,23.4227519 C52.7852888,23.5154347 52.2812245,23.4081178 51.871469,23.1284434 C51.4617135,22.848769 51.1804131,22.4178753 51.0893563,21.9300712 C51.0667547,21.8112096 51.056023,21.6913723 51.0567931,21.5721855 L51.0567931,8.73984654 C51.0567931,8.2439123 51.2535837,7.76749024 51.6048027,7.41789725 C51.9543957,7.06667825 52.4308178,6.86988552 52.926752,6.86988552 C53.4226862,6.86988552 53.8991083,7.06667825 54.2487013,7.41789725 C54.5999203,7.76749024 54.796668,8.2439123 54.796668,8.73984654 L54.796668,15.5369098 Z M120.731531,19.7154403 L117.398203,19.7154403 L117.398203,8.73984654 C117.398203,8.2439123 117.201455,7.76749024 116.850236,7.41789725 C116.500643,7.06667825 116.024221,6.86993057 115.528287,6.86993057 C115.032352,6.86993057 114.55593,7.06667825 114.206337,7.41789725 C113.855118,7.76749024 113.658371,8.2439123 113.658371,8.73984654 L113.658371,21.4227548 C113.658371,22.5445418 114.569101,23.4552722 115.690888,23.4552722 L129.512006,23.4552722 C130.633793,23.4552722 131.544523,22.5445418 131.544523,21.4227548 L131.544523,8.73984654 C131.544523,8.2439123 131.347776,7.76749024 130.996557,7.41789725 C130.646964,7.06667825 130.170542,6.86993057 129.674607,6.86993057 C129.178673,6.86993057 128.702251,7.06667825 128.352658,7.41789725 C128.001439,7.76749024 127.804691,8.2439123 127.804691,8.73984654 L127.804691,19.7154403 L124.471363,19.7154403 L124.471363,8.73984654 C124.471363,8.2439123 124.274615,7.76749024 123.923396,7.41789725 C123.573803,7.06667825 123.097381,6.86993057 122.601447,6.86993057 C122.105513,6.86993057 121.629091,7.06667825 121.279498,7.41789725 C120.928279,7.76749024 120.731531,8.2439123 120.731531,8.73984654 L120.731531,19.7154403 Z M84.7250592,6.8706013 L84.7753234,6.87236959 C84.8094697,6.87090618 84.843616,6.86993057 84.8779248,6.86993057 C86.5592232,6.86993057 88.173855,7.53822228 89.3624711,8.72683843 C90.5510873,9.91545458 91.219379,11.5300864 91.219379,13.2113847 C91.219379,14.8926831 90.5510873,16.5073149 89.3624711,17.695931 C88.173855,18.8845472 86.5592232,19.5528389 84.8779248,19.5528389 L84.8779248,21.5853562 C84.8779248,22.0812905 84.6811772,22.5577125 84.3299582,22.9073055 C83.9803652,23.2585245 83.5039431,23.4552722 83.0080089,23.4552722 C82.5120746,23.4552722 82.0356526,23.2585245 81.6860596,22.9073055 C81.3348406,22.5577125 81.1380929,22.0812905 81.1380929,21.5853562 L81.1380929,8.98374862 C81.1380929,7.81708366 82.085246,6.86993057 83.251911,6.86993057 L84.7250592,6.8706013 Z M84.8779248,10.6097625 L84.8779248,15.8130069 C85.5673547,15.8130069 86.2291424,15.5382106 86.7169465,15.0504064 C87.2047507,14.5626023 87.4795471,13.9008146 87.4795471,13.2113847 C87.4795471,12.5219548 87.2047507,11.8601672 86.7169465,11.372363 C86.2291424,10.8845589 85.5673547,10.6097625 84.8779248,10.6097625 Z M72.0764801,16.5899164 L70.3592469,18.3414585 C70.3221737,18.3793447 70.2836372,18.4156048 70.2437999,18.4499137 L70.2437999,21.5853562 C70.2437999,22.0812905 70.0470522,22.5577125 69.6958332,22.9073055 C69.3462402,23.2585245 68.8698181,23.4553575 68.3738839,23.4553575 C67.8779497,23.4553575 67.4015276,23.2585245 67.0519346,22.9073055 C66.7007156,22.5577125 66.5039679,22.0812905 66.5039679,21.5853562 L66.5039679,8.73984654 C66.5039679,8.2439123 66.7007156,7.76749024 67.0519346,7.41789725 C67.4015276,7.06667825 67.8779497,6.86983979 68.3738839,6.86983979 C68.8698181,6.86983979 69.3462402,7.06667825 69.6958332,7.41789725 C70.0470522,7.76749024 70.2437999,8.2439123 70.2437999,8.73984654 L70.2437999,13.1180515 L75.8194015,7.43090536 C76.1657424,7.07643433 76.6405385,6.87480861 77.1364727,6.86983979 C77.630781,6.86505253 78.108829,7.05692217 78.4633001,7.40488914 C78.8177711,7.7512301 79.0193968,8.22602615 79.0243656,8.72196039 C79.0291529,9.21626861 78.8372833,9.69431669 78.4893163,10.0487877 L74.7898095,13.8222781 L78.7689907,20.6438942 C79.0193968,21.0715359 79.0893154,21.5821042 78.9624863,22.0617783 C78.8372833,22.5414524 78.5250886,22.9512079 78.0958209,23.199988 C77.6681793,23.4503942 77.1576109,23.5203128 76.6779368,23.3934837 C76.1982627,23.2682806 75.7885072,22.9560859 75.5397271,22.5268183 L72.0764801,16.5899164 Z M102.520183,5.00000727 C103.857735,4.99838859 105.180985,5.26716868 106.411389,5.78716792 C107.600168,6.28960621 108.67854,7.01757263 109.590572,7.92960382 C110.502603,8.84163501 111.230569,9.92000742 111.733008,11.1087862 C112.253007,12.3391909 112.521787,13.662441 112.520168,15.0000073 C112.521787,16.337559 112.253007,17.6608091 111.733008,18.8912138 C111.230569,20.0799926 110.502603,21.158365 109.590572,22.0703962 C108.67854,22.9824274 107.600168,23.7103938 106.411389,24.2128321 C105.180985,24.7328313 103.857735,25.0016114 102.520183,24.9999927 C101.182616,25.0016114 99.8593664,24.7328313 98.6289617,24.2128321 C97.4401829,23.7103938 96.3618105,22.9824274 95.4497793,22.0703962 C94.5377481,21.158365 93.8097817,20.0799926 93.3073434,18.8912138 C92.7873442,17.6608091 92.5185641,16.337559 92.5201828,15.0000073 C92.5185641,13.664067 92.7873442,12.3408169 93.3073434,11.1087862 C93.8097817,9.92000742 94.5377481,8.84163501 95.4497793,7.92960382 C96.3618105,7.01757263 97.4401829,6.28960621 98.6289617,5.78716792 C99.8593664,5.26716868 101.182616,4.99838859 102.520183,5.00000727 Z M102.520176,8.67999765 C101.675299,8.67838321 100.840178,8.84797646 100.062618,9.17594346 C99.3105867,9.49447958 98.6289617,9.95512932 98.0530276,10.5328521 C97.4753048,11.1087862 97.0146551,11.7904112 96.696119,12.5408166 C96.368152,13.3183764 96.1985587,14.1551232 96.2001732,15 C96.1985587,15.8447142 96.368152,16.6799976 96.696119,17.4575574 C97.0146551,18.2095888 97.4753048,18.8912138 98.0530276,19.4671479 C98.6289617,20.0448707 99.3105867,20.5055204 100.062618,20.8240565 C100.840178,21.1520235 101.675299,21.3216168 102.520176,21.3200024 C103.365052,21.3216168 104.200173,21.1520235 104.977733,20.8240565 C105.729764,20.5055204 106.411389,20.0448707 106.987323,19.4671479 C107.565046,18.8912138 108.025696,18.2095888 108.344232,17.4575574 C108.672199,16.6799976 108.841792,15.8447142 108.840178,15 C108.841792,14.1551232 108.672199,13.3200025 108.344232,12.5424426 C108.025696,11.7904112 107.565046,11.1087862 106.987323,10.5328521 C106.411389,9.95512932 105.729764,9.49447958 104.977733,9.17594346 C104.200173,8.84797646 103.365052,8.67838321 102.520176,8.67999765 Z" id="Combined-Shape"></path>
            </g>
        </g>
    </g>
</svg>