<?xml version="1.0" encoding="UTF-8"?>
<svg width="56px" height="30px" viewBox="0 0 56 30" version="1.1" xmlns="http://www.w3.org/2000/svg" xmlns:xlink="http://www.w3.org/1999/xlink">
    <title>nabu</title>
    <g id="Page-1" stroke="none" stroke-width="1" fill="none" fill-rule="evenodd">
        <g id="System" transform="translate(-72.000000, 0.000000)" fill="#000000" fill-rule="nonzero">
            <g id="nabu" transform="translate(72.951950, 0.000000)">
                <line x1="27.0480499" y1="30" x2="27.0480499" y2="0" id="Path"></line>
                <path d="M18.446,29.378 L18.446,30 L17.8720037,30.0000245 C12.0045613,29.9994331 8.06501119,29.981407 5.41780332,29.4332911 L5.16563495,29.3785756 L18.446,29.378 Z M48.9304649,29.3785756 L48.6782965,29.4332911 C46.0310887,29.981407 42.0915386,29.9994331 36.2240961,30.0000245 L35.6500999,30 L35.6500999,29.378 L48.9304649,29.3785756 Z M35.6497163,29.3785301 L35.6497163,29.999999 L18.4789719,29.999999 L18.4789719,29.3785301 L35.6497163,29.3785301 Z M18.446,27.57 L18.446,28.248 L2.47772544,28.2486321 C2.27358138,28.0974753 2.08604219,27.9327423 1.91410443,27.7540397 L1.74732998,27.570666 L18.446,27.57 Z M52.3487699,27.570666 L52.1819954,27.7540397 C52.0100577,27.9327423 51.8225185,28.0974753 51.6183744,28.2486321 L35.6500999,28.248 L35.6500999,27.57 L52.3487699,27.570666 Z M35.6497163,27.5706205 L35.6497163,28.2485866 L18.4789719,28.2485866 L18.4789719,27.5706205 L35.6497163,27.5706205 Z M18.446,25.762 L18.446,26.666 L1.13867464,26.6667112 C1.02917888,26.4572621 0.927465957,26.2380757 0.836701129,26.0031504 L0.749702898,25.7627565 L18.446,25.762 Z M53.346397,25.7627565 L53.2593987,26.0031504 C53.1686339,26.2380757 53.066921,26.4572621 52.9574252,26.6667112 L35.6500999,26.666 L35.6500999,25.762 L53.346397,25.7627565 Z M35.6497163,25.762711 L35.6497163,26.6666658 L18.4789719,26.6666658 L18.4789719,25.762711 L35.6497163,25.762711 Z M18.446,23.785 L18.446,25.028 L0.541262227,25.0282932 C0.471058839,24.7404542 0.409919011,24.4357307 0.356760644,24.1134768 L0.306222687,23.7853554 L18.446,23.785 Z M53.7898772,23.7853554 L53.7393392,24.1134768 C53.6861808,24.4357307 53.625041,24.7404542 53.5548376,25.0282932 L35.6500999,25.028 L35.6500999,23.785 L53.7898772,23.7853554 Z M35.6497163,23.7853099 L35.6497163,25.0282477 L18.4789719,25.0282477 L18.4789719,23.7853099 L35.6497163,23.7853099 Z M18.446,6.723 L18.446,8.089 L17.7724798,8.08916494 L14.1857855,21.2985685 L18.446,21.298 L18.446,23.276 L0.242335683,23.2768808 C0.172188793,22.6725871 0.127111958,21.9891408 0.092041903,21.2712312 L0.080290491,21.2712312 C0.0194577681,19.7861433 0.00405596676,18.0940909 0.000756778709,16.1110603 L0.000756812654,13.8890296 C0.00405611385,11.9059991 0.0194582462,10.2139466 0.080290491,8.72885874 L0.0923130894,8.72885874 C0.127386535,8.01094916 0.172465629,7.32750286 0.24260687,6.72320909 L18.446,6.723 Z M53.853493,6.72320909 C53.9236342,7.32750286 53.9687133,8.01094916 54.0037868,8.72885874 L54.0158094,8.72885874 C54.0766416,10.2139466 54.0920437,11.9059991 54.095343,13.8890296 L54.0953431,16.1110603 C54.0920439,18.0940909 54.0766421,19.7861433 54.0158094,21.2712312 L54.004058,21.2712312 L53.9816946,21.6974838 C53.9499544,22.2593532 53.9098817,22.7934458 53.8537642,23.2768808 L35.6500999,23.276 L35.65,21.298 L36.3618723,21.2985344 C38.2554082,21.2985344 39.8020666,20.3154142 39.8998807,17.9923962 L39.9047918,17.7556149 C39.9041794,16.0451284 38.7304671,15.0131065 37.3678865,14.6185128 L37.3678865,14.5660592 C38.715578,14.1778252 39.5548738,13.3015431 39.5548738,11.6320845 C39.5548738,9.67543061 37.9686081,8.08916494 36.0119543,8.08916494 L35.65,8.089 L35.6500999,6.723 Z M35.6497163,6.72316361 L35.649,8.089 L28.2700191,8.08916494 L28.2700191,21.2985344 L35.649,21.298 L35.6497163,23.2768354 L18.4789719,23.2768354 L18.478,21.298 L19.2595962,21.2985685 L19.6433425,18.7616632 L22.1126262,18.7616632 L22.4963725,21.2985685 L27.5701831,21.2985685 L23.9835239,8.08916494 L18.478,8.089 L18.4789719,6.72316361 L35.6497163,6.72316361 Z M45.5472191,8.08916494 L40.9545457,8.08916494 L40.9545457,17.7119093 C40.9545457,20.0309616 43.5982442,21.910925 46.8594116,21.910925 C50.1205789,21.910925 52.7642774,20.0309616 52.7642774,17.7119093 L52.7642774,8.08916494 L48.171604,8.08916494 L48.171604,17.7119093 C48.171604,18.4366069 47.5841092,19.0241017 46.8594116,19.0241017 C46.1347139,19.0241017 45.5472191,18.4366069 45.5472191,17.7119093 L45.5472191,8.08916494 Z M6.92502253,8.08916494 L1.23885542,8.08916494 L1.23885542,21.2985685 L5.43787114,21.2985685 L5.43787114,13.8628115 L5.48161088,13.8628115 C5.48161088,14.1118115 5.99183354,15.6572425 6.55064884,17.2751856 L6.72819367,17.7870979 C7.35148507,19.5772345 7.97477646,21.2985685 7.97477646,21.2985685 L13.6609436,21.2985685 L13.6609436,8.08916494 L9.63688685,8.08916494 L9.63688685,15.5249219 L9.5931471,15.5249219 C9.5931471,15.2874776 9.04711934,13.7431471 8.44908894,12.122944 L8.25908482,11.6102146 C7.59205368,9.81688495 6.92502253,8.08916494 6.92502253,8.08916494 Z M33.7812272,15.8748399 C34.5542446,15.8748399 35.1808991,16.5014944 35.1808991,17.2745118 C35.1808991,18.0475293 34.5542446,18.6741837 33.7812272,18.6741837 L32.3815553,18.6741837 L32.3815553,15.8748399 Z M20.8998717,10.8885088 L21.8214682,16.8371143 L19.9345355,16.8371143 L20.856132,10.8885088 L20.8998717,10.8885088 Z M33.8249669,10.8010293 C34.525514,10.8010293 35.0934196,11.3689349 35.0934196,12.0694819 C35.0934196,12.770029 34.525514,13.3379346 33.8249669,13.3379346 L32.3815553,13.3379346 L32.3815553,10.8010293 Z M35.6497163,4.97175124 L35.6497163,6.21468905 L18.4789719,6.21468905 L18.4789719,4.97175124 L35.6497163,4.97175124 Z M53.5545664,4.97179672 L53.6217863,5.26527826 C53.6860668,5.56443901 53.7416484,5.88070912 53.789606,6.21473453 L35.6500999,6.214 L35.6500999,4.971 L53.5545664,4.97179672 Z M18.446,4.971 L18.446,6.214 L0.306493873,6.21473453 C0.354451499,5.88070912 0.410033064,5.56443901 0.474313518,5.26527826 L0.541533413,4.97179672 L18.446,4.971 Z M35.6497163,3.33333322 L35.6497163,4.23728799 L18.4789719,4.23728799 L18.4789719,3.33333322 L35.6497163,3.33333322 Z M18.446,3.333 L18.446,4.237 L0.749962785,4.23733347 C0.833081426,3.99123179 0.928200067,3.76289493 1.03215345,3.54629271 L1.13893452,3.3333787 L18.446,3.333 Z M52.9571653,3.3333787 L53.0639464,3.54629271 C53.1678998,3.76289493 53.2630184,3.99123179 53.3461371,4.23733347 L35.6500999,4.237 L35.6500999,3.333 L52.9571653,3.3333787 Z M35.6497163,1.75141237 L35.6497163,2.42937845 L18.4789719,2.42937845 L18.4789719,1.75141237 L35.6497163,1.75141237 Z M51.6181258,1.75145785 L51.8167649,1.90715461 C52.009945,2.06740593 52.1868603,2.24136461 52.3485213,2.42942393 L35.6500999,2.429 L35.6500999,1.751 L51.6181258,1.75145785 Z M18.446,1.751 L18.446,2.429 L1.74757857,2.42942393 C1.90923958,2.24136461 2.08615483,2.06740593 2.27933491,1.90715461 L2.47797403,1.75145785 L18.446,1.751 Z M35.6497163,0 L35.6497163,0.621468905 L18.4789719,0.621468905 L18.4745756,7.78933874e-05 L35.6497163,0 Z M18.446,-3.55271368e-15 L18.446,0.621 L5.16610953,0.621514386 C7.64787626,0.0574671526 11.3202859,0.00534967764 16.7606199,0.000535320479 L18.446,-3.55271368e-15 Z M37.33548,0.000535320479 C42.7758139,0.00534967764 46.4482236,0.0574671526 48.9299903,0.621514386 L35.6500999,0.621 L35.6500999,3.55271368e-15 Z" id="Combined-Shape"></path>
            </g>
        </g>
    </g>
</svg>