<?xml version="1.0" encoding="UTF-8"?>
<svg width="162px" height="30px" viewBox="0 0 162 30" version="1.1" xmlns="http://www.w3.org/2000/svg" xmlns:xlink="http://www.w3.org/1999/xlink">
    <title>pecom 64</title>
    <g id="Page-1" stroke="none" stroke-width="1" fill="none" fill-rule="evenodd">
        <g id="System" transform="translate(-19.000000, 0.000000)" fill="#000000">
            <g id="pecom-64" transform="translate(19.279615, 0.000000)">
                <line x1="80.7203855" y1="30" x2="80.7203855" y2="0" id="Path" fill-rule="nonzero"></line>
                <path d="M9.83139555,2.74339384 C10.7464823,2.53565737 11.9054905,2.45740197 13.1039534,2.52214251 C16.3518794,2.69739972 18.9271141,3.86185747 21.287201,6.22172636 C23.8408555,8.77559888 24.9558314,11.4186259 24.9690418,14.9503639 C24.9787195,17.5833637 24.4403049,19.5423644 23.1648945,21.5157519 C18.6616125,28.4833161 9.51815597,29.5422707 3.7412074,23.7653221 C-0.101808347,19.9220884 -1.05482394,14.6323287 1.2108769,9.7188053 C2.80148869,6.26924635 6.11786087,3.58567477 9.83139555,2.74339384 Z M10.3763496,4.16506989 C6.77202368,4.88855085 3.52235387,7.65146773 2.17152184,11.1406993 C1.51583317,12.8348524 1.36760567,16.0705714 1.86700154,17.7889204 C2.46448912,19.843833 3.25249264,21.1682893 4.79536646,22.7111631 C7.22738726,25.1434019 9.66442163,26.0820307 13.0869509,25.9050296 C16.4787447,25.7295544 18.8937629,24.5005741 21.097339,21.8289915 C24.6070609,17.5739905 24.2659196,11.2183008 20.3156569,7.26803808 C17.6780795,4.63046062 13.9133191,3.45510379 10.3763496,4.16506989 Z M161.440771,23.8873918 L161.440771,25.4132631 L28.9079533,25.4132631 L28.9079533,23.8873918 L161.440771,23.8873918 Z M13.9730461,7.86596163 L13.9730461,9.60981449 L6.77965303,9.60981449 L6.77965303,13.9694467 L13.5370829,13.9694467 L13.5370829,15.7132995 L6.77965303,15.7132995 L6.77965303,20.5088949 L14.1910277,20.5088949 L14.1910277,22.2527478 L5.03580017,22.2527478 L5.03580017,7.86596163 L13.9730461,7.86596163 Z M18.7686415,13.3155018 L18.7686415,22.2527478 L16.806807,22.2527478 L16.806807,13.3155018 L18.7686415,13.3155018 Z M75.3032614,6.11687721 C76.5516421,5.85093964 79.0937436,6.01900346 80.0679034,6.43186063 C81.2844587,6.9478231 82.4282082,8.06040122 82.9967043,9.28131621 C83.7642175,10.9294751 83.7060164,11.1359037 82.4737664,11.1348138 L82.3276877,11.1345116 C81.4480959,11.1305506 81.4134821,11.0733648 81.032036,10.1460492 C80.2830512,8.32503089 78.2290105,7.42040722 75.8621662,7.86923135 C73.0351628,8.40546611 71.5517979,10.9116007 71.7817685,14.7631177 C71.9912489,18.2754553 73.8634929,20.1370183 77.1859685,20.1370183 C79.4268195,20.1370183 80.6401051,19.2777348 81.3441857,17.1920867 L81.7330649,16.0402719 L82.8656973,15.9735696 L83.9983298,15.9066492 L83.8455247,16.7365052 C83.2931593,19.7354961 81.2129608,21.6323721 78.1230715,21.954113 C73.5953755,22.4253892 70.2524096,19.9489001 69.5592281,15.6097583 C68.8265919,11.0236432 71.2762692,6.97528878 75.3032614,6.11687721 Z M91.8349865,6.12298069 C93.0759558,5.86031285 95.5825264,6.02510695 96.8060571,6.44951714 C99.011377,7.21463258 100.841551,9.19063586 101.526231,11.5459271 C102.010368,13.2108707 101.843394,16.0954213 101.174627,17.6249982 C99.8242305,20.7131437 95.8765835,22.522609 92.0222327,21.8202722 C90.2633392,21.4996213 89.1823684,20.9535774 87.8613998,19.7178396 C86.2485539,18.2094069 85.7982039,16.9782468 85.7979859,14.0784375 C85.7979859,11.9328445 85.8594567,11.5494148 86.3823946,10.433785 C87.3772627,8.31108007 89.5276512,6.61104151 91.8349865,6.12298069 Z M132.652261,7.32362339 C134.488756,6.39088009 137.04241,6.66052334 138.404359,7.93092015 C138.983972,8.47151454 139.748434,9.85547976 139.748434,10.3640309 C139.748434,10.6157996 139.506692,10.6997225 138.781467,10.6997225 C137.884691,10.6997225 137.779842,10.6382517 137.337121,9.85024821 C136.782576,8.86388143 136.156097,8.51990645 134.91382,8.51990645 C133.064246,8.51990645 131.841805,9.98517882 131.54971,12.5525662 C131.40388,13.8336441 131.409329,13.8528265 131.822405,13.4872713 C133.062066,12.3901699 135.702695,12.0799821 137.402516,12.8318006 C141.00379,14.4248102 141.070492,19.4259623 137.514776,21.2443648 C136.481762,21.7727523 136.019858,21.8760755 134.72592,21.8680102 C130.899906,21.8440322 129.086953,19.2221495 129.340466,14.0797453 C129.515941,10.5205417 130.562907,8.38475786 132.652261,7.32362339 Z M107.432225,6.34009037 L109.895199,12.9070043 L112.358173,19.4739182 L112.929503,17.9750767 C113.243832,17.1506702 114.330253,14.1972374 115.344085,11.4118684 L117.187337,6.34728377 L118.767704,6.34379606 L120.348071,6.34009037 L120.348071,21.5988029 L118.175012,21.5988029 L118.059264,9.28284208 L113.523503,21.6186393 L112.32286,21.5541167 L111.122217,21.4898121 L108.814228,15.2773363 L106.506239,9.06486047 L106.39049,21.5988029 L104.435413,21.5988029 L104.435413,6.34009037 L107.432225,6.34009037 Z M44.1479819,6.34053814 C48.3817605,6.35172673 49.4598323,6.57787963 50.501532,7.60917929 C52.3443485,9.43412132 52.0683838,12.9137617 49.9707468,14.3018686 C48.9344623,14.9876387 47.2413991,15.2745025 44.2179942,15.2760284 L41.8746919,15.2773363 L41.8746919,21.5988029 L39.6948758,21.5988029 L39.6948758,6.34009037 Z M66.7245952,6.34009037 L66.7245952,8.08394324 L57.1334045,8.08394324 L57.1334045,12.8795386 L66.288632,12.8795386 L66.288632,14.6233915 L57.1334045,14.6233915 L57.1334045,19.8549501 L67.1605584,19.8549501 L67.1605584,21.5988029 L54.9535884,21.5988029 L54.9535884,6.34009037 L66.7245952,6.34009037 Z M150.647514,6.77605359 L150.647514,16.3672443 L153.289669,16.3672443 L153.221877,17.1846754 L153.154303,18.0021064 L151.900909,18.0675009 L150.647514,18.1328954 L150.647514,21.5988029 L148.68568,21.5988029 L148.68568,18.1110972 L141.710268,18.1110972 L141.710998,16.9930384 C141.711276,16.9749821 141.711648,16.9571568 141.712141,16.9395237 L141.716745,16.8357202 C141.766245,16.0528119 142.178407,15.5122863 145.436446,11.4369363 C148.976031,7.00951189 149.199898,6.77605359 149.905069,6.77605359 L150.647514,6.77605359 Z M133.889742,14.1885182 C132.162456,14.5948359 131.21489,16.1544943 131.6696,17.8427618 C132.438421,20.6983209 136.584867,21.0869821 137.703984,18.4084241 C138.788007,15.814443 136.716964,13.5230203 133.889742,14.1885182 Z M92.517487,7.8816563 C89.8483022,8.39173327 88.1364926,10.5000514 87.918511,13.5463443 C87.7269052,16.2249023 88.7891295,18.4428652 90.7402829,19.4381692 C94.0442301,21.123821 98.0189068,19.8111358 99.2042908,16.6427731 C100.006899,14.4980521 99.6507171,11.6830376 98.3500208,9.88730508 C97.2365708,8.35031676 94.6750689,7.46945308 92.517487,7.8816563 Z M148.576689,10.0850144 L146.132679,13.171634 L143.688669,16.2582535 L146.106957,16.3201603 C146.527065,16.3308988 146.926892,16.3371593 147.278848,16.3392026 L147.767432,16.3391374 C148.262748,16.3356231 148.586774,16.3207569 148.611784,16.2957464 C148.638643,16.2690105 148.653942,15.8047344 148.656146,15.1019274 L148.656228,14.7613425 C148.655082,14.286579 148.648888,13.7330788 148.637288,13.14722 L148.576689,10.0850144 Z M41.8746919,8.08394324 L41.8746919,13.3155018 L44.6210422,13.3155018 C46.7363357,13.3155018 47.5437396,13.2317969 48.1355597,12.9510366 C49.5591975,12.2752936 49.9101479,10.1349322 48.7823111,9.00687736 C48.0871677,8.31173402 47.0105566,8.09527828 44.2179942,8.08917479 L41.8746919,8.08394324 Z M16.806807,9.80272822 L17.7332288,9.86986655 L18.6596507,9.9367869 L18.7261351,10.9721995 L18.7926194,12.0076122 L16.806807,12.0076122 L16.806807,9.80272822 Z" id="Combined-Shape"></path>
            </g>
        </g>
    </g>
</svg>