<?xml version="1.0" encoding="UTF-8"?>
<svg width="136px" height="30px" viewBox="0 0 136 30" version="1.1" xmlns="http://www.w3.org/2000/svg" xmlns:xlink="http://www.w3.org/1999/xlink">
    <title>pegasus</title>
    <g id="Page-1" stroke="none" stroke-width="1" fill="none" fill-rule="evenodd">
        <g id="System" transform="translate(-30.000000, 0.000000)" fill="#000000">
            <g id="pegasus" transform="translate(30.500000, 0.000000)">
                <line x1="69.5" y1="30" x2="69.5" y2="0" id="Path" fill-rule="nonzero"></line>
                <path d="M45.6206648,7.631489 C42.7358406,8.11553771 40.4574785,10.2009883 39.720049,13.0324226 C39.5381988,13.7304733 39.5,15.2541502 39.5,21.8103408 L39.5,29.7436072 L41.5648026,29.7436072 L43.6296051,29.7436072 L43.6296051,25.463124 L43.6296051,21.1826408 L43.9614484,21.3947255 C44.9959145,22.0557573 47.4578966,22.2758063 48.9491265,21.8405754 C51.0860497,21.21671 52.7679789,19.5897931 53.6624809,17.2810489 C54.1540514,16.0126701 54.1544938,13.6849002 53.6636607,12.4140142 C52.6687209,9.83832049 50.5045128,8.03884505 47.9066962,7.62735939 C46.8297542,7.45671821 46.6601454,7.45701318 45.6206648,7.631489 M61.0329411,7.64078061 C58.8777297,7.99400933 56.7499506,9.61591176 55.7977817,11.6311591 C54.7674452,13.8115906 54.7644955,15.925506 55.7889325,18.0184783 C56.4303487,19.3291855 57.1149782,20.1260518 58.2523895,20.8854567 C59.6315301,21.8065062 60.8721815,22.126698 62.739353,22.0436635 C64.1410589,21.9812769 64.3639101,21.9290669 65.3893796,21.4223054 C66.7369582,20.7562591 67.874517,19.6715003 68.6162236,18.3453071 C68.9067708,17.8254193 69.1446655,17.3236723 69.1446655,17.2300187 C69.1446655,17.1092278 68.5215376,17.05982 66.9974183,17.05982 C64.8566605,17.05982 64.8486963,17.0611474 64.3058007,17.4839895 C63.287853,18.2773161 62.0371726,18.4548891 60.9487267,17.9605164 C60.3353328,17.6819155 59.3636957,16.6651477 59.4999727,16.4446563 C59.5415637,16.3774028 61.3801229,16.322243 63.5857745,16.3220955 C67.1083277,16.3219481 67.6588926,16.2905336 68.1122642,16.0639952 C69.3781357,15.4317232 69.6596863,13.3042391 68.7280179,11.4117001 C67.8137528,9.55455762 65.5867157,7.97498365 63.3927155,7.62735939 C62.3070718,7.45539083 62.158406,7.45612826 61.0329411,7.64078061 M76.2239886,7.63414374 C72.2998313,8.3091867 69.5297512,12.3980857 70.3707158,16.2743101 C70.8267422,18.3762791 71.8845111,19.9400721 73.6018369,21.0509359 C75.3567716,22.1862823 78.0141725,22.4157704 79.8167451,21.5877846 L80.68116,21.1909 L80.6264427,22.775636 C80.5801321,24.1218873 80.5198104,24.4442914 80.2266084,24.9180161 C79.0132419,26.8779562 75.6070551,26.2148596 75.0255182,23.905378 L74.8616614,23.2542277 L72.8142622,23.2542277 L70.7670104,23.2542277 L70.7670104,23.6157157 C70.7670104,24.2844167 71.095904,25.5348022 71.4640288,26.2654473 C72.3628078,28.0494367 74.4770182,29.5191337 76.6888642,29.897435 C80.2792609,30.5115663 83.8619883,28.302965 84.6218357,25.0070976 C84.70723,24.6367605 84.7725663,22.0867294 84.7746311,19.0408506 C84.7784657,13.2928827 84.7455764,12.9934863 83.9355838,11.3938543 C83.4807373,10.4956651 82.3225305,9.25412885 81.3682968,8.6417674 C80.0040522,7.76629111 77.8773056,7.34979093 76.2239886,7.63414374 M92.0049797,7.63414374 C89.4581933,8.07232435 87.1770289,10.0756253 86.3104017,12.6352431 C85.9161719,13.8000867 85.9505361,16.0837583 86.38031,17.2691025 C87.196792,19.5215071 88.9804864,21.2274765 91.1781738,21.8581262 C92.4826866,22.2325929 94.4619473,22.1116545 95.5993586,21.5880795 C96.0755905,21.368768 96.4903209,21.1894252 96.5211454,21.1894252 C96.5518225,21.1894252 96.5770426,21.3221625 96.5770426,21.484397 C96.5770426,21.7647676 96.6754157,21.7793687 98.5681022,21.7793687 L100.559162,21.7793687 L100.559162,17.8282215 C100.559162,13.5533428 100.473178,12.886559 99.7342732,11.4282185 C99.2685127,10.5090864 98.1160579,9.26106069 97.1864543,8.66875732 C95.7801763,7.77292797 93.659624,7.34949596 92.0049797,7.63414374 M105.573682,7.67057276 C103.281162,8.20225942 101.825328,9.7535161 101.633449,11.8690538 C101.428591,14.1275054 102.983535,15.9343551 105.661584,16.5502562 C106.974651,16.8523073 107.343513,17.0924144 107.343513,17.6447491 C107.343513,18.2684669 106.878343,18.534679 105.788864,18.534679 C104.656615,18.534679 103.670377,18.2442793 102.587093,17.5919491 L101.739049,17.0813529 L101.739049,19.0414405 L101.739049,21.0016756 L102.587093,21.3805669 C103.910484,21.9718378 104.699091,22.1144567 106.273061,22.0472031 C107.446753,21.9969104 107.878887,21.9098938 108.615727,21.5755432 C110.363729,20.7823641 111.238911,19.4213642 111.235089,17.5022777 C111.233454,16.6655902 111.153369,16.2318342 110.906477,15.721533 C110.293821,14.455219 108.938868,13.4767976 107.257381,13.0865499 C106.845011,12.9908316 106.293414,12.7822865 106.031479,12.6230017 C105.631054,12.3795025 105.562768,12.2585641 105.60141,11.8609421 C105.633562,11.5316061 105.75922,11.3320577 106.01614,11.20286 C106.833802,10.7913744 108.659972,11.0718925 110.182617,11.8429488 L110.883175,12.1977999 L110.883175,10.3546686 L110.883175,8.51168484 L110.330103,8.23544375 C109.118506,7.6304566 106.888667,7.36557192 105.573682,7.67057276 M130.023895,7.61777281 C128.342408,7.91893901 126.899111,8.95900957 126.224953,10.355406 C125.686187,11.4715793 125.714209,13.0297678 126.291911,14.0834071 C127.022409,15.4153522 128.074131,16.1421627 129.868887,16.5548283 C131.162191,16.8523073 131.5312,17.0941842 131.5312,17.6447491 C131.5312,18.2684669 131.06603,18.534679 129.976552,18.534679 C128.844302,18.534679 127.858064,18.2442793 126.77478,17.5919491 L125.926736,17.0813529 L125.926736,19.0414405 L125.926736,21.0016756 L126.783039,21.3858764 C128.026346,21.9438155 129.02571,22.1151941 130.628734,22.0449909 C131.790628,21.9941082 132.199607,21.9097463 132.888366,21.5787879 C135.014817,20.5570056 135.997368,18.2666971 135.244158,16.0877405 C134.78238,14.7519607 133.673138,13.7605605 132.121144,13.2965698 C130.007081,12.6644453 129.638661,12.4070824 129.819037,11.6880886 C130.056784,10.7407867 132.320987,10.800666 134.300986,11.8066673 L135.079711,12.2022245 L135.038415,10.3182396 L134.997119,8.43410725 L134.480918,8.1836762 C133.454417,7.68561632 131.225757,7.40273837 130.023895,7.61777281 M112.213055,12.0781888 C112.216595,17.8698126 112.461421,18.952654 114.117835,20.5021409 C115.254214,21.5650717 116.242075,21.9598915 117.973559,22.043221 C120.35,22.1576701 121.817484,21.6327678 123.127306,20.1996473 C124.518099,18.6778878 124.770742,17.3441728 124.71396,11.8240706 L124.673106,7.84195137 L122.608304,7.84195137 L120.543501,7.84195137 L120.469758,12.4140142 C120.402357,16.589635 120.37168,17.0219161 120.116087,17.3991851 C119.273942,18.6416063 117.281113,18.4649182 116.665507,17.0934468 C116.456519,16.6275388 116.412274,15.8794904 116.375992,12.1927854 L116.333074,7.84195137 L114.271811,7.80109778 L112.210548,7.7600967 L112.213055,12.0781888 M45.5469218,11.8379343 C43.3462847,12.7911357 42.9024997,15.8051575 44.7397315,17.3196902 C46.8661832,19.0724126 49.979463,17.5947514 49.9682843,14.8377975 C49.9607323,12.9743131 48.5926531,11.5936977 46.7684,11.6085937 C46.3805121,11.6118384 45.8308322,11.7149311 45.5469218,11.8379343 M60.9012362,11.8315924 C60.3247138,12.081876 59.3675304,13.0362572 59.4917135,13.237133 C59.585662,13.389191 65.0150604,13.4273898 65.0150604,13.2759218 C65.0150604,13.0088248 64.1919416,12.155029 63.6850326,11.8964862 C62.9919963,11.5429625 61.6389607,11.5114005 60.9012362,11.8315924 M76.1489183,11.877903 C75.4277123,12.2056166 74.6948548,13.012217 74.4531255,13.744337 C74.1590386,14.6355943 74.3274675,15.925211 74.8331966,16.6549712 C75.342023,17.3890085 76.5960956,18.0926638 77.3934043,18.0913383 C79.2601333,18.0885341 80.6953186,16.678569 80.6953186,14.8475315 C80.6953186,12.5038331 78.265341,10.9164424 76.1489183,11.877903 M91.9312368,11.882475 C89.8331024,12.8538172 89.4194045,15.8538278 91.1830408,17.3074488 C92.420595,18.3276088 94.0905778,18.3324758 95.3194303,17.3196902 C96.7779184,16.1175326 96.83942,13.7797336 95.4475956,12.4587024 C94.5455718,11.6026943 93.0609788,11.3593426 91.9312368,11.882475" id="Shape"></path>
                <path d="M16.7565182,0.0303767219 C16.0434429,0.142687959 14.9664676,0.468130701 14.9664676,0.571260712 C14.9664676,0.596725625 15.674577,0.850277626 16.5399798,1.13472244 C19.7212462,2.18022746 20.6816949,2.6057398 21.6935932,3.41796081 C22.2073377,3.83030762 22.6050754,4.26557862 23.0216952,4.8712509 C23.303657,5.28117248 23.7612748,6.18520576 23.8318374,6.47161385 L23.8704679,6.62838763 L23.4268241,6.47917826 C23.1827998,6.39712465 22.5760304,6.12214978 22.0785118,5.86802035 C20.1550736,4.88574453 19.9399788,4.78428909 19.6093391,4.70304389 C19.421788,4.65696452 19.0230687,4.60135747 18.7232064,4.57947265 L18.1780493,4.53962959 L18.3250645,4.71436163 C18.4059055,4.81044692 18.9549313,5.40474371 19.5451283,6.03501474 C21.6581386,8.29157559 22.3301005,9.2554312 22.655139,10.4958785 C22.7679122,10.926299 22.8251938,12.1420898 22.7392714,12.2811364 C22.6964257,12.3503709 21.5498694,11.8494455 21.1160998,11.5719299 C20.7761056,11.3544676 20.5024589,11.0324317 20.3445302,10.6640278 C20.2839572,10.522787 20.1469895,10.3334458 20.0401061,10.2432504 C19.9332228,10.1530549 19.3284167,9.82357016 18.6960669,9.51106197 C18.0637171,9.19855379 17.5387126,8.93524312 17.5293581,8.92588867 C17.5200614,8.91653421 17.5627339,8.71500916 17.6242885,8.47802956 C17.6858432,8.24104996 17.7365998,8.02722554 17.7371772,8.00285775 C17.7376969,7.97848997 17.406884,7.96295695 17.0019284,7.96838484 C16.1653396,7.97952935 16.2922599,8.01654298 14.7354934,7.30762521 C12.968367,6.50291086 11.7328279,5.88753767 11.7331166,5.81224006 C11.7332899,5.7710689 11.8718744,5.18526041 12.0411208,4.51041135 C12.2103672,3.83556228 12.335844,3.27036825 12.3199645,3.25448877 C12.2264199,3.16100194 12.0129997,3.27394835 11.5648519,3.65418974 C10.8387265,4.27019811 10.5333785,4.63190381 10.1737516,5.30184467 C9.826886,5.94805293 9.304018,6.57330027 8.96800819,6.74387477 C8.85304075,6.80219577 8.55340938,6.89221799 8.30205163,6.94395622 C8.05069389,6.99569446 7.73067904,7.09512888 7.59082412,7.16494085 C7.07390371,7.42311234 6.71566262,7.99171324 6.78276065,8.44754096 C6.79713879,8.54489661 6.85603723,8.79469528 6.91372306,9.00262987 C7.01604466,9.371669 7.01587143,9.38616264 6.90714029,9.60893732 C6.81036207,9.80734421 6.72016662,9.87473096 6.21831728,10.1241254 C5.579096,10.441715 5.08429137,10.8725975 4.86480808,11.3028448 C4.79528482,11.4391774 4.58215332,12.0096838 4.39125309,12.5706049 C3.84927197,14.1630569 3.09675781,15.632573 2.27783854,16.6976531 C2.13602034,16.882086 1.80191607,17.2665427 1.53548725,17.5519691 C1.26900069,17.8373956 0.945405741,18.2263562 0.816406612,18.4163903 C0.288399438,19.1939074 0.0102486771,20.2243414 0.000720988555,21.4380534 C-0.00407172749,22.0441876 0.0127316504,22.1819061 0.121462787,22.4280669 C0.303239535,22.8396053 0.547899027,23.0650939 1.13313008,23.36051 C1.41693971,23.5037718 1.83269339,23.7457751 2.05702714,23.8982758 C2.80365146,24.4058995 2.79649126,24.4043405 3.50460062,24.2166161 C3.8409569,24.12746 4.26583406,23.9837363 4.44876568,23.8972364 C4.94403225,23.6630285 5.47411819,23.0906166 6.16692551,22.0420511 C6.49502445,21.5453987 6.8949564,20.9952758 7.055599,20.8195043 C7.61288216,20.2097323 8.30049255,19.8681213 9.22098275,19.7437417 C9.47505445,19.709442 10.0204424,19.5879495 10.4329625,19.4737905 C11.5250088,19.1716184 11.9063473,19.2282649 12.1161297,19.7239356 C12.3055286,20.1713328 12.1418833,20.9527765 11.6449999,21.973856 C11.1055018,23.0825902 10.4951523,23.7934713 8.54128323,25.588892 C7.57921766,26.472946 6.90921906,27.457647 6.49000076,28.6038568 C6.25463799,29.2473511 6.17887843,29.6094033 6.23633327,29.8164717 C6.31070699,30.0845751 6.43462468,30.0573201 6.55935079,29.7453317 C6.84598985,29.0280988 7.50357359,28.1095719 8.1564801,27.5145244 C8.60711089,27.1037367 9.39733161,26.5018755 10.2892387,25.8899092 C11.2415456,25.2365407 12.0575777,24.6156242 12.4379923,24.2548424 L12.7678813,23.9420455 L12.7844537,24.5118012 L12.8010839,25.0814993 L12.9308337,24.8793968 C13.0583892,24.6806434 13.1676978,24.3808966 13.4045619,23.5801665 C13.51849,23.1949014 13.5382383,23.1678197 13.825397,23.0027309 C14.3917459,22.6770571 14.4937211,22.2995874 14.3960767,20.890067 C14.3247634,19.860326 14.2245206,19.2703022 13.9701024,18.3832455 C13.8104992,17.826713 13.7876327,17.6586792 13.785323,17.0262717 C13.7837639,16.5864389 13.8212972,16.0901907 13.8814083,15.7559132 C13.9356872,15.4542031 13.9953363,15.0124648 14.0139298,14.7742726 C14.0477098,14.3431591 14.0473633,14.3420043 13.9487373,14.5144265 C13.8942851,14.6097034 13.6244494,15.2111027 13.3491858,15.8509014 C12.5877792,17.6205107 12.1258884,18.2342094 11.2420076,18.6504827 C10.7544209,18.8801289 10.0740285,19.0419264 9.4134998,19.0851763 C8.85488854,19.1217857 8.84767059,19.1206309 8.7959901,18.9837209 C8.7672338,18.9074994 8.75308663,18.8290836 8.7645776,18.8094508 C8.77601083,18.7897602 9.26660017,18.607868 9.85477614,18.4052458 C10.4429521,18.2025659 10.9242447,18.0229834 10.9243025,18.0061223 C10.9243602,17.9892612 10.6905565,17.8369914 10.4047259,17.6678027 C10.1188952,17.4985563 9.88503377,17.3401657 9.88503377,17.3157402 C9.88503377,17.2913724 9.92464586,17.2384793 9.97309271,17.1982898 C10.0215396,17.1581003 10.1884762,16.978229 10.3440951,16.7986466 L10.6269809,16.4721067 L10.4563486,16.1979402 C10.3602056,16.0434762 10.3043676,15.8934584 10.3284466,15.8543083 C10.3519483,15.816082 10.7170608,15.3349626 11.1398015,14.7851284 C11.5625421,14.2352941 11.895376,13.7642799 11.8793811,13.7384107 C11.8361889,13.668541 11.368466,13.5616577 11.1060792,13.5616577 C10.8261384,13.5616577 10.627616,13.765377 10.5300872,14.1527786 C10.4494771,14.4727934 10.2614641,14.7170487 10.0973569,14.7148545 C10.0282378,14.7139306 9.63384925,14.6020235 9.22098275,14.4662107 C8.48521422,14.2242074 8.47031638,14.21595 8.47031638,14.0498218 C8.47031638,13.8521656 8.58701613,13.8107057 9.17496113,13.7994457 C9.77156766,13.7880702 9.81481759,13.7492088 10.0215973,13.038501 C10.1249005,12.6833203 10.4307105,12.2828109 10.7081683,12.1393182 C10.8488894,12.0665613 10.9817573,12.0562252 11.3663872,12.0882728 C11.7882617,12.1234387 11.848315,12.1422053 11.848315,12.2387526 C11.848315,12.2993833 11.8624045,12.3490428 11.8796121,12.3490428 C11.8968196,12.3490428 12.1065443,12.1784106 12.3456026,11.9698985 C13.1614615,11.2583823 14.0044021,10.810119 14.7643652,10.6836606 C15.3334858,10.5889611 15.8326211,10.5500997 15.8326211,10.6005676 C15.8326211,10.6265522 15.4428521,10.814854 14.9664676,11.0190352 C14.4900832,11.2231587 14.1002564,11.4175813 14.1001409,11.4510148 C14.0996212,11.629327 14.3582547,12.8687349 14.3959612,12.8687349 C14.4203867,12.8687349 14.9160575,12.7235098 15.4974197,12.5460061 C17.0487584,12.0723356 17.2684727,12.0945669 18.1663274,12.8158995 L18.6234255,13.1830909 L18.1374556,13.3364578 C17.8702184,13.4207634 17.5507232,13.5337098 17.4274985,13.5874113 L17.2033957,13.684998 L17.3986267,13.8901031 L17.5937999,14.095266 L18.8352866,14.054961 C19.5181043,14.0328452 20.2940046,13.9965822 20.5595673,13.9744665 C21.0382614,13.9345656 21.0428232,13.9354895 21.0987189,14.0799639 C21.1501685,14.2129474 21.1230867,14.254927 20.7892134,14.5592933 C20.351113,14.9585901 20.1247005,15.073904 19.4489852,15.2419955 L18.9366266,15.3694355 L19.0736521,15.4759147 C19.2367199,15.6027195 19.7136818,15.7559132 19.9453489,15.7559132 C20.2674426,15.7559132 21.0078306,15.5691128 21.5719852,15.345472 C21.8865722,15.2207459 22.153001,15.1278365 22.1640878,15.1389232 C22.2375953,15.2124308 21.4769393,16.7663679 21.0781622,17.3574311 L20.7950455,17.7769381 L21.3276144,17.7769381 L21.8601256,17.7769381 L22.3072918,18.0705064 C22.6413961,18.2898742 22.7460852,18.3884424 22.7212554,18.4602754 C22.583999,18.8573779 21.9399272,20.0962662 21.6225108,20.57369 C21.1711294,21.2526966 20.3766356,22.0980047 19.7606273,22.5546408 C19.5216267,22.731798 19.3014504,22.8985615 19.2712505,22.9252967 C19.2407619,22.9523207 19.3608108,22.9738591 19.5417214,22.9738591 C19.8475891,22.9738591 19.9009441,22.9508771 20.4338595,22.5896911 C22.1828544,21.404158 23.1984483,20.5082665 24.0073201,19.4372388 C25.2600091,17.7786704 25.9643074,15.986772 26.2626106,13.6991451 C26.395825,12.6773727 26.3957673,10.5497533 26.2624374,9.62198736 C25.839408,6.67879777 24.4048846,4.25737904 22.1236095,2.63565097 C21.5379165,2.21931985 20.5182806,1.66740684 19.8169273,1.38706182 C18.9048099,1.02252669 18.9238075,1.03349796 19.0271107,0.930194723 C19.1122248,0.845080705 19.1589971,0.845889115 19.5983101,0.939606924 C20.3958643,1.10983496 21.7563027,1.58697005 22.5553004,1.97668138 C25.8154445,3.56693921 27.535683,6.16655459 27.9095726,10.0681719 C27.9752271,10.7531838 27.9864871,10.798628 28.0383985,10.587864 C28.0696956,10.4608282 28.0969505,9.86318224 28.0989138,9.25976197 C28.1029558,8.04911035 28.0359156,7.60148222 27.7143416,6.69017325 C27.2585139,5.39839192 26.5123516,4.24542612 25.3242777,2.99695246 C25.0510351,2.70979371 24.836922,2.47489288 24.8484707,2.47495062 C24.9084085,2.47500836 25.5258027,2.72925329 25.7847826,2.86050442 C27.2585139,3.60730196 28.5878863,5.15390566 29.308988,6.96064412 C29.9960787,8.68226856 30.0264518,10.4850805 29.3982595,12.2647949 C29.3011349,12.539943 29.2368663,12.780214 29.2553442,12.7986919 C29.3203057,12.8636535 29.7428731,12.3875 29.858187,12.1194544 C30.2295359,11.2562458 30.4222839,10.0996421 30.3626926,9.09184368 C30.2947284,7.94263121 30.0212549,6.98397252 29.396123,5.70391313 C29.1757736,5.2527049 29.0078553,4.87113541 29.0230418,4.85600659 C29.0769743,4.80201636 29.8421343,5.38944166 30.2409114,5.79104817 C31.3272989,6.88505779 32.0863958,8.67262538 32.2901728,10.6167358 C32.4736242,12.3666546 32.0117334,14.0362521 30.9532938,15.4489484 C30.7673595,15.697188 30.6151475,15.9186346 30.6150897,15.9410391 C30.6149165,16.004788 31.0831013,15.8241661 31.315346,15.670857 C31.7817407,15.363026 32.1587485,14.7171642 32.3949197,13.8215037 C32.5958095,13.0595774 32.701769,12.0548393 32.7421317,10.5301204 L32.780358,9.08653127 L33.1092653,9.66396694 C33.7751642,10.8331009 34.072659,11.8300436 34.121741,13.0570944 C34.216094,15.4159769 33.4101671,17.1427405 31.4233842,18.8385535 C31.0962091,19.1178014 31.2303474,19.0908352 31.9818799,18.7262423 C33.0954069,18.1860512 34.0106424,17.0383401 34.5467337,15.5099256 C34.6481314,15.2209191 34.6887829,15.3118652 34.772973,16.0157593 C34.9516316,17.5094121 34.5342033,19.0927985 33.5710406,20.5750758 C33.239939,21.0845473 32.3226825,22.0083866 31.8275891,22.3309999 C31.1500261,22.7725073 30.2008374,23.1719195 29.2291286,23.4244321 L29.0270261,23.476921 L29.3476762,23.5193625 C30.0376541,23.6105974 31.1313172,23.3843003 31.9142045,22.9883527 C32.6881415,22.5968513 33.587613,21.7816854 34.3437651,20.7864173 C34.5614583,20.4998937 34.7458335,20.2717489 34.7534557,20.279371 C34.7848104,20.3107258 34.6008394,21.5369104 34.5131847,21.8811198 C34.3231506,22.627109 33.7328959,23.5990487 33.0138152,24.3501192 C31.9130496,25.4997359 30.9222855,25.9810285 28.7902775,26.4017482 C28.0202093,26.5536715 25.8864113,26.9252513 25.4036173,26.9914255 C25.191583,27.0204705 25.1293354,27.0526914 25.1293354,27.1333014 C25.1293354,27.3001226 25.5188735,27.3478188 26.4574374,27.2958496 C28.7871016,27.1669082 30.1898084,26.8567097 31.6254867,26.1528157 C33.478189,25.2445671 34.8461341,23.6939791 35.2972846,21.9907171 C35.403244,21.5904964 35.425764,21.3594644 35.4207981,20.72186 C35.4007033,18.1321765 35.4076325,17.2978397 35.4524993,16.9174251 C35.5449467,16.1332097 35.3392064,14.306261 35.0054486,12.9484788 C34.3060008,10.102818 32.9789381,7.71974104 30.9454407,5.65766053 C29.4328479,4.12370268 28.691767,3.64015805 25.4975084,2.10302431 C24.2250134,1.49065378 24.037751,1.41766591 23.3321246,1.25910208 C22.9073052,1.16359422 22.0530469,0.93210026 21.4337471,0.744606899 C20.0125047,0.31430184 19.4928704,0.183108456 18.7902466,0.0772067546 C18.2810061,0.000465554349 17.1167803,-0.0263852042 16.7565182,0.0303767219 M10.6404929,6.72412647 C10.468417,6.77037906 10.1895156,6.88725204 10.0207312,6.98385703 C9.83953184,7.08750673 9.42753149,7.22972914 9.01535791,7.33083812 C8.63118996,7.42513337 8.20683249,7.55395926 8.07234772,7.61718847 C7.83236546,7.7300194 7.26318712,8.24924955 7.37948267,8.24924955 C7.41205004,8.24924955 8.16190799,8.05436501 9.04584651,7.8161728 C9.92978503,7.57798059 10.6871497,7.38309605 10.7288983,7.38309605 C10.7707046,7.38309605 10.8344535,7.43835664 10.870601,7.50591662 C10.9515574,7.65720476 10.9579092,7.65270076 10.2045289,7.9745634 C9.44906984,8.29723446 9.06259215,8.65004765 8.96748849,9.1037966 C8.8422427,9.70173123 8.8920754,9.77217838 9.25464725,9.5095029 C9.7932215,9.11932962 11.2253197,8.59571095 11.7537888,8.59571095 C11.9344107,8.59571095 12.2300578,8.54374174 12.4107374,8.48022382 C12.5914747,8.41670589 12.7882648,8.36473668 12.8480872,8.36473668 C13.0645678,8.36473668 13.3501097,8.55511722 13.5213194,8.81351969 C13.6696626,9.03756472 13.6961092,9.13272612 13.6961092,9.44286682 C13.6961092,9.64387218 13.7109493,9.80832585 13.7290808,9.80832585 C13.8090556,9.80832585 15.4783066,8.44956198 15.4411198,8.41480036 C15.3535228,8.33297772 13.810326,7.46630453 13.1825956,7.14640517 C12.2081729,6.64986824 11.4099259,6.51723127 10.6404929,6.72412647 M16.7183497,10.5916751 L16.6029781,11.1439923 L16.7519565,11.108711 C16.9229352,11.0682327 17.1547178,10.9118632 17.2369447,10.7815937 C17.2678952,10.7325116 17.2763835,10.6253973 17.2558846,10.5435169 C17.2174851,10.390612 16.9531928,10.0393001 16.8765671,10.0393001 C16.8530077,10.0393001 16.7818099,10.2878862 16.7183497,10.5916751 M17.7381588,10.1102092 C17.7381588,10.1408711 17.965553,10.5290811 18.2434151,10.9728404 L18.7486713,11.779749 L18.9796455,11.7477013 C19.1066814,11.7300895 19.3117865,11.6982728 19.4354732,11.6769654 L19.6603844,11.6382772 L19.6184049,12.0658683 C19.5803519,12.4538474 19.5093273,12.7114992 19.289844,13.2576956 C19.2323314,13.4008996 19.2306568,13.4604332 19.2826838,13.5124602 C19.3347107,13.5644871 19.4966814,13.4837039 19.9760108,13.1668072 C20.3200469,12.9393553 20.6286863,12.7532478 20.6620043,12.7532478 C20.6953224,12.7532478 20.9929905,12.9879176 21.3235724,13.2747299 L21.9245674,13.7962698 L22.1346385,13.5560566 C22.2559578,13.4172988 22.3723111,13.3329354 22.4101331,13.3563216 C22.4461073,13.3785528 22.552702,13.5312846 22.6469972,13.6957383 C22.7940123,13.9520619 22.8186111,14.054961 22.819073,14.4167244 C22.8193617,14.6488536 22.7895661,15.0832584 22.7528412,15.3820814 L22.6860319,15.9254483 L22.8689635,16.2686761 C23.2788273,17.0375894 23.3605345,17.3398193 23.3628442,18.0945277 C23.3645188,18.6650341 23.3430382,18.8461179 23.2410053,19.119476 C23.1728101,19.3021189 23.1277701,19.4515015 23.1408779,19.4515015 C23.2033565,19.4515015 23.8790717,18.5393264 24.071762,18.1948283 C24.3283744,17.7360556 24.7242643,16.6158882 24.7247842,16.3471496 C24.7252459,16.0849361 24.006223,14.8054541 23.4255537,14.0353859 C23.1713088,13.6981635 22.7866211,13.2739215 22.5706602,13.092549 C22.1548488,12.7433159 21.4868712,12.3697727 20.9894681,12.2083217 C20.5221494,12.0566294 20.3392756,11.9011259 20.225463,11.5587643 C20.0201846,10.9412546 19.6583057,10.5851501 18.982475,10.3353514 C18.5977873,10.1931867 17.7381588,10.0376833 17.7381588,10.1102092 M6.09682482,14.7990446 C5.99825655,14.8419481 5.86573506,14.9513721 5.80227488,15.0422027 C5.6940057,15.1971865 4.12239904,17.9131551 3.39968056,19.1943694 C3.12435923,19.682418 2.78257506,20.5020302 2.78257506,20.6742215 C2.78257506,20.7004371 2.99016318,20.72186 3.24383067,20.72186 L3.70508628,20.72186 L3.74077181,20.9448656 C3.80169127,21.3260309 3.80960214,21.3298997 4.351641,21.2477306 C5.12736808,21.130107 5.21721706,21.0700537 6.4986623,19.8118791 C7.73755052,18.5955686 8.46962346,17.9350977 9.05595164,17.5045617 C9.25522469,17.3582395 9.40576217,17.2181536 9.39040238,17.1933816 C9.31839615,17.0768551 8.47389649,16.5643232 8.35390535,16.5643232 C8.1901446,16.5643232 8.05750763,16.7394594 7.81423398,17.2769943 C7.47631863,18.0237341 6.59930933,18.7363474 5.74805367,18.9558307 C5.40569207,19.0440629 4.91908703,19.0797484 4.91908703,19.016577 C4.91908703,18.9247647 6.58158206,16.9916833 7.33652145,16.2056779 L7.76417031,15.7604172 L7.34662658,15.3106526 C6.79350095,14.714739 6.53429008,14.608664 6.09682482,14.7990446 M15.3133332,15.4378039 C15.254839,15.5083088 15.3235539,15.6091291 15.7166143,16.0291558 C16.8560104,17.2466789 17.4963288,18.3704842 17.8476407,19.7690911 C18.0709928,20.6581688 18.0406774,21.9793416 17.7725163,23.0448837 C17.6565672,23.5054463 17.6563362,23.6312696 17.7709572,23.7728568 C17.7981544,23.8064636 18.6289689,22.9114383 18.719222,22.7511999 C18.8395596,22.5376064 18.8282419,20.8858517 18.7015525,20.1732961 C18.4060787,18.511725 17.7987896,17.2943751 16.6807587,16.1227581 C16.3173206,15.7418815 16.102861,15.5649553 15.9300923,15.5034584 C15.5270422,15.3601388 15.389959,15.3455297 15.3133332,15.4378039" id="Shape"></path>
            </g>
        </g>
    </g>
</svg>