<?xml version="1.0" encoding="UTF-8"?>
<svg width="143px" height="30px" viewBox="0 0 143 30" version="1.1" xmlns="http://www.w3.org/2000/svg" xmlns:xlink="http://www.w3.org/1999/xlink">
    <title>sol20</title>
    <g id="Page-1" stroke="none" stroke-width="1" fill="none" fill-rule="evenodd">
        <g id="System" transform="translate(-29.000000, 0.000000)" fill="#000000">
            <g id="sol20" transform="translate(29.222396, 0.000000)">
                <line x1="70.7776041" y1="30" x2="70.7776041" y2="0" id="Path" fill-rule="nonzero"></line>
                <path d="M5.40821983,5.17491796 C3.1699912,5.65009745 1.80940134,6.70592851 1.02890792,8.57444973 C0.433268214,9.99998819 0.491555418,11.2320687 1.22375372,12.6839751 C2.03061515,14.2843752 3.29489236,14.973552 7.15461547,15.9180823 C10.4031556,16.7130087 11.4240144,17.36416 11.4240144,18.6409274 C11.4240144,20.2013591 9.36148002,21.2433122 6.92007887,20.9157936 C5.47150308,20.721503 4.41928027,19.9473934 4.08065937,18.8266137 C3.81614649,17.9500852 3.80865242,17.9470321 1.90765691,17.9470321 L0,17.9470321 L0.194845795,18.8490959 C0.780770971,21.5636143 2.61320963,23.1867741 5.76293909,23.7813036 C9.78170301,24.5395924 13.2670002,23.2905809 14.6855997,20.5838341 C15.2654186,19.4774875 15.24821,16.9411615 14.6531254,15.7948465 C13.9303641,14.4028925 12.4043496,13.5879819 8.78138357,12.6603827 C6.95921456,12.1938075 5.24723612,11.6117682 4.97661696,11.3669619 C4.6940628,11.1113309 4.48506154,10.5298466 4.48506154,9.99998819 C4.48506154,8.81009657 5.41377099,8.17282314 7.35556754,8.02960315 C9.07309715,7.90303665 10.4778188,8.63662275 10.9591045,9.91144716 C11.2569244,10.7011 11.3321426,10.7305211 13.046064,10.7305211 L14.8241012,10.7305211 L14.6475743,9.84760879 C14.3006266,8.1134257 13.1845655,6.65458026 11.6191377,5.88851987 C9.97072008,5.08221355 7.29394964,4.77440161 5.40821983,5.17491796 M31.9633147,14.3387766 L31.9633147,23.4981943 L33.6286634,23.4981943 L35.294012,23.4981943 L35.294012,14.3387766 L35.294012,5.17935889 L33.6286634,5.17935889 L31.9633147,5.17935889 L31.9633147,14.3387766 M49.6690243,6.00870253 C47.6869818,6.60628515 46.2681047,8.45398951 45.9369779,10.8684675 L45.7657245,12.1183117 L47.4380122,12.1183117 L49.1100222,12.1183117 L49.2982066,11.1157718 C49.5610542,9.71549113 50.5635941,8.78761436 51.8142709,8.78761436 C53.1348924,8.78761436 53.7396915,9.14122339 54.1615799,10.1601392 C54.9417957,12.043371 54.1171706,13.3800909 50.4997557,16.0962746 C47.5432067,18.3164619 46.1198887,20.2035795 45.6952248,22.4670659 L45.5017668,23.4981943 L51.9166899,23.4981943 L58.3313354,23.4981943 L58.3313354,22.1104038 L58.3313354,20.7226132 L54.3067428,20.7226132 C52.0932168,20.7226132 50.2821501,20.6210269 50.2821501,20.4969585 C50.2821501,20.15806 51.5933347,19.0153533 53.6128475,17.5937006 C54.6051177,16.8953644 55.8166589,15.9083677 56.3048836,15.400714 C59.1953738,12.3961474 58.3602014,7.71068888 54.6586865,6.16413508 C53.5726016,5.71032756 50.9321912,5.62817036 49.6690243,6.00870253 M63.9291274,6.45695889 C61.4136182,7.71068888 60.0186112,10.228141 59.7874053,13.9313213 C59.504296,18.4710618 60.9459328,21.6638128 64.0212767,23.3075119 C65.5628345,24.1315819 68.5524129,24.1188143 70.167246,23.2811439 C72.9325575,21.8467236 74.2776041,19.1016738 74.2776041,14.8938928 C74.2776041,10.5445572 72.9766892,7.83087154 70.2371906,6.46584075 C68.2157349,5.45858236 65.9394808,5.45525166 63.9291274,6.45695889 M64.858392,9.6991152 C62.5627088,11.9947984 62.9984751,19.2654331 65.5098209,20.5641275 C67.3561374,21.5189274 69.171645,20.8266975 70.059831,18.8293893 C70.4994831,17.8407273 70.6415928,16.933945 70.6549156,15.0323943 C70.6843368,10.7951922 69.5122089,8.78761436 67.0091898,8.78761436 C65.978339,8.78761436 65.6164032,8.941104 64.858392,9.6991152 M20.0771661,10.897056 C16.4464284,12.7061798 15.3378613,17.8240738 17.8314434,21.2663495 C19.396316,23.4265843 22.1360922,24.4152463 24.8650435,23.8046185 C27.7197287,23.1656797 29.521636,21.2607984 30.0723113,18.2995309 C30.6432483,15.2300157 28.996496,11.933458 26.2733734,10.6933284 C24.5580643,9.91200227 21.8768529,10.0002658 20.0771661,10.897056 M21.7464006,13.2357607 C19.5245479,14.5902443 19.4138022,18.9887077 21.5587713,20.6759834 C22.6354192,21.5228132 24.1900222,21.4767386 25.2724988,20.5660704 C27.40359,18.7727675 26.9972449,14.0701004 24.6257884,13.0792179 C23.3373637,12.5410327 22.8416449,12.5679559 21.7464006,13.2357607 M37.4300993,15.9033717 C37.3237945,16.0096765 37.2369188,16.700241 37.2369188,17.4382681 L37.2369188,18.7797064 L40.8596073,18.7797064 L44.4825734,18.7797064 L44.3984733,17.3225263 L44.3146507,15.8653462 L40.9689652,15.7879075 C39.1287549,15.7451636 37.536404,15.7973445 37.4300993,15.9033717" id="Shape"></path>
                <path d="M82.4141545,14.0624257 C80.0178695,14.7940809 78.6590813,16.9559399 78.8224071,19.7770925 C78.9611394,22.1746387 80.3194546,23.9560874 82.4683862,24.5591 C84.8126466,25.2168171 87.317868,24.1001798 87.9065343,22.1352261 C88.1931426,21.1786039 88.1832107,21.1669378 87.0754018,21.1669378 C86.1607146,21.1669378 86.0508323,21.2016209 85.9541927,21.5216511 C85.7812503,22.0942371 85.0765533,22.7360315 84.4293987,22.9102352 C83.5705197,23.1415082 82.7734396,22.9400311 82.08435,22.3174699 C81.2606271,21.5733604 80.936025,20.5450073 81.0273046,18.9692922 C81.1504295,16.8411704 82.0750487,15.7518067 83.7715239,15.7357263 C84.7301955,15.7267403 85.3521261,16.0901243 85.7248114,16.8771147 C85.9556115,17.3645695 85.9866686,17.376551 87.0254267,17.3798616 C88.2457979,17.3838029 88.2593558,17.3604706 87.7142009,16.1897593 C87.2603256,15.2151649 86.3793756,14.4565516 85.3414058,14.1469263 C84.5209935,13.9020954 83.075813,13.8604757 82.4141545,14.0624257 M126.398596,15.8856518 L126.398596,17.0680293 L125.84682,17.0680293 C125.309706,17.0680293 125.295044,17.0844249 125.295044,17.6886986 C125.295044,18.2735813 125.324525,18.312048 125.807408,18.3587125 L126.319771,18.4080571 L126.401276,20.9304623 C126.446049,22.3177852 126.543319,23.5796185 126.617415,23.7345887 C126.845535,24.2116386 127.58255,24.4775947 128.676644,24.4775947 L129.709253,24.4775947 L129.709253,23.7681683 C129.709253,23.088853 129.689705,23.0587418 129.247495,23.0587418 C128.374586,23.0587418 128.276527,22.7849031 128.325399,20.4811589 L128.369225,18.4080571 L128.960414,18.3591855 C129.535207,18.3115751 129.551603,18.2929723 129.551603,17.6891716 C129.551603,17.0696058 129.550026,17.0680293 128.921002,17.0680293 L128.2904,17.0680293 L128.2904,15.8856518 L128.2904,14.7032743 L127.344498,14.7032743 L126.398596,14.7032743 L126.398596,15.8856518 M90.7961072,17.3207427 C89.3718942,18.0304845 88.608236,19.4704626 88.7613144,21.1577941 C88.9372522,23.0984697 90.177172,24.4325067 92.0683454,24.7161197 C94.468887,25.0760354 96.5186565,23.2576965 96.4935901,20.7903112 C96.4699426,18.4581899 94.947671,16.9215721 92.6529128,16.9137902 C91.8512609,16.9111672 91.4352217,17.0022891 90.7961072,17.3207427 M100.465117,17.0938839 C100.291702,17.1895777 99.9697799,17.4345663 99.7497,17.6384082 L99.3495835,18.0088864 L99.3555742,17.5778704 C99.3614073,17.1585206 99.334922,17.1455932 98.3762504,17.0998746 L97.3909358,17.0530525 L97.3909358,20.7652448 L97.3909358,24.4775947 L98.4156629,24.4775947 L99.4403901,24.4775947 L99.4403901,22.1049573 C99.4403901,19.110074 99.6295705,18.6401183 100.832758,18.6468973 C101.798366,18.6524151 101.962795,19.1581573 101.962795,22.1230871 L101.962795,24.4775947 L102.908697,24.4775947 L103.854599,24.4775947 L103.855545,22.3099027 C103.856806,19.1691928 104.068215,18.6445326 105.333044,18.6445326 C106.277527,18.6445326 106.377005,18.955892 106.377005,21.9115203 L106.377005,24.4775947 L107.414028,24.4775947 L108.451052,24.4775947 L108.399343,21.5216511 C108.341801,18.2316463 108.229238,17.8006303 107.275769,17.2193736 C106.285094,16.6152575 104.537541,16.9474268 103.896377,17.861641 C103.717601,18.1165616 103.651546,18.0891304 103.087315,17.5247423 C102.523715,16.9613 102.402797,16.9108519 101.626685,16.9151084 C101.161143,16.9177885 100.638533,16.9981902 100.465117,17.0938839 M112.424314,17.2135405 C112.152051,17.3795463 111.881839,17.592059 111.823823,17.6858609 C111.637323,17.9876036 111.421815,17.8676317 111.421815,17.4621551 C111.421815,17.0855284 111.379722,17.0680293 110.475913,17.0680293 L109.530011,17.0680293 L109.530011,22.0340146 L109.530011,27 L110.554738,27 L111.579465,27 L111.579465,25.4119882 L111.579465,23.8241341 L111.983366,24.1417995 C113.684413,25.4799355 116.158577,24.5241016 116.779404,22.2890929 C117.151459,20.949538 116.858544,18.959045 116.157316,18.0615416 C115.284563,16.9447467 113.521875,16.5443149 112.424314,17.2135405 M132.389309,17.1616736 C129.76317,18.2992783 129.421541,22.5090151 131.823344,24.1350206 C132.554842,24.6302003 134.153101,24.8920574 135.006147,24.6566855 C136.142175,24.343119 137.095014,23.5182925 137.352929,22.6252034 C137.450988,22.2859399 137.415044,22.2704901 136.527315,22.2704901 C135.736383,22.2704901 135.549094,22.3281901 135.260121,22.660517 C134.557632,23.468475 133.206411,23.358908 132.591732,22.4442208 C132.393723,22.1495723 132.231659,21.7772022 132.231659,21.6165566 C132.231659,21.3436638 132.4087,21.3245881 134.932051,21.3245881 L137.632444,21.3245881 L137.522877,20.4969239 C137.395022,19.5303698 136.933422,18.4123136 136.44108,17.8769331 C135.612312,16.9753309 133.628125,16.6250318 132.389309,17.1616736 M141.449631,17.1496921 C141.186986,17.2813302 140.851821,17.5827576 140.704891,17.819706 L140.437831,18.2504067 L140.433732,17.6516508 L140.429476,17.0530525 L139.444161,17.0998746 L138.458847,17.1468544 L138.416596,20.8122246 L138.374188,24.4775947 L139.401911,24.4775947 L140.429476,24.4775947 L140.430422,22.5463782 C140.431683,19.6522335 140.709778,19.0440185 142.137775,18.8119572 L142.715405,18.7179976 L142.715405,17.8536009 C142.715405,17.0472194 142.68892,16.986524 142.32128,16.9497915 C142.10451,16.9280358 141.712276,17.0180541 141.449631,17.1496921 M117.832981,17.173182 C117.668867,17.3371384 117.709541,21.6583339 117.883744,22.5769624 C118.089163,23.6601778 118.522701,24.2362321 119.378585,24.5630412 C120.339306,24.9298935 121.347322,24.7697208 122.069834,24.1353359 L122.614988,23.6567095 L122.614988,24.0670733 C122.614988,24.4637215 122.646991,24.4775947 123.56089,24.4775947 L124.506792,24.4775947 L124.506792,20.772812 L124.506792,17.0680293 L123.482065,17.0680293 L122.457338,17.0680293 L122.457338,19.6025736 L122.457338,22.1371179 L121.996526,22.5979299 C121.378695,23.2157615 120.569633,23.2353101 120.104092,22.6433332 C119.803768,22.2615041 119.777283,22.0193531 119.777283,19.6479769 L119.777283,17.0680293 L118.857708,17.0680293 C118.351808,17.0680293 117.890681,17.1153244 117.832981,17.173182 M91.8883087,18.5286596 C91.2206596,18.8717067 90.8741441,19.5131859 90.7995755,20.5437461 C90.6778695,22.2265057 91.3981738,23.2163921 92.7445076,23.2163921 C94.6840796,23.2163921 95.2027492,19.3210101 93.3654923,18.553253 C92.7115587,18.280045 92.3827001,18.2745272 91.8883087,18.5286596 M133.237152,18.5521495 C132.730937,18.7761706 132.231659,19.3482836 132.231659,19.7044157 C132.231659,19.8549718 132.647225,19.9057352 133.878789,19.9057352 L135.52592,19.9057352 L135.35818,19.4244287 C135.065739,18.5855713 134.078847,18.1797794 133.237152,18.5521495 M112.179325,18.9413881 C111.710631,19.360265 111.665543,19.4862277 111.605635,20.5481603 C111.506158,22.3061191 112.046268,23.0587418 113.407106,23.0587418 C114.488745,23.0587418 115.003631,22.065387 114.854493,20.2661238 C114.792379,19.5172848 114.703464,19.3106052 114.281277,18.933348 C113.603696,18.327813 112.862739,18.3306507 112.179325,18.9413881" id="Shape"></path>
                <path d="M77.2500874,3.94590198 L77.2500874,4.89180395 L78.8265907,4.89180395 L80.403094,4.89180395 L80.403094,9.14836284 L80.403094,13.4049217 L81.4278212,13.4049217 L82.4525483,13.4049217 L82.4525483,9.14836284 L82.4525483,4.89180395 L84.0290516,4.89180395 L85.6055549,4.89180395 L85.6055549,3.94590198 L85.6055549,3 L81.4278212,3 L77.2500874,3 L77.2500874,3.94590198 M110.030793,3.07882516 C110.025118,3.12217901 110.015344,3.53002041 110.009195,3.98531456 L109.99816,4.81297879 L110.96566,4.85995858 L111.93316,4.90678073 L111.93316,3.95346919 L111.93316,3 L110.987258,3 C110.467012,3 110.036626,3.03547132 110.030793,3.07882516 M128.957188,3.03941258 C128.955927,3.06101068 128.93827,5.40227572 128.917776,8.24187345 L128.88057,13.4049217 L129.865885,13.4049217 L130.851199,13.4049217 L130.851199,8.20246086 L130.851199,3 L129.905297,3 C129.385051,3 128.95845,3.01781449 128.957188,3.03941258 M86.630282,6.13724155 C85.2514722,6.77698659 84.5020026,8.08311956 84.5020026,9.84659615 C84.5020026,11.7026135 85.6079196,13.1471634 87.3482216,13.5646215 C88.6335448,13.8729856 90.2888732,13.4671936 90.986003,12.6727936 C91.2390317,12.3846088 91.7539177,11.4536836 91.7539177,11.2845248 C91.7539177,11.2367567 91.3337796,11.1978171 90.8201548,11.1978171 C89.9928059,11.1978171 89.8324755,11.2517335 89.4134409,11.6707681 C88.5361169,12.5480922 87.1298759,12.1812399 86.6112063,10.9399012 C86.4915497,10.6537658 86.3938065,10.3819767 86.3938065,10.3357851 C86.3938065,10.2895936 87.6222179,10.2519151 89.1236796,10.2519151 L91.8537104,10.2519151 L91.7413057,9.34542575 C91.6055688,8.24959831 91.513501,7.99735778 90.9423338,7.15392852 C90.1036341,5.91574284 88.1170823,5.44736371 86.630282,6.13724155 M95.7615467,6.05841639 C95.4944871,6.17633883 95.1243241,6.47634741 94.9389273,6.72527728 L94.6015556,7.17773372 L94.5966685,6.58654499 L94.5916236,5.99535625 L93.6457217,5.99535625 L92.6998197,5.99535625 L92.6998197,9.70013899 L92.6998197,13.4049217 L93.7245468,13.4049217 L94.749274,13.4049217 L94.7499046,11.2372297 C94.7503775,9.34889406 94.7910513,9.00300923 95.0652052,8.55323285 C95.3942215,8.01375342 95.91699,7.72950988 96.5803826,7.72950988 C96.9576398,7.72950988 96.9704095,7.69608801 96.9248485,6.82302048 C96.8715627,5.80081575 96.6598383,5.66161051 95.7615467,6.05841639 M100.635622,6.14291696 C100.361468,6.31002631 100.06209,6.57582477 99.9703376,6.7334751 C99.8282946,6.97767546 99.8029129,6.94441124 99.798814,6.50771982 L99.7940845,5.99535625 L98.8481825,5.99535625 L97.9022806,5.99535625 L97.9022806,9.70013899 L97.9022806,13.4049217 L98.8481825,13.4049217 L99.7940845,13.4049217 L99.7940845,11.2963486 C99.7940845,10.1366728 99.8374384,8.97100622 99.8904089,8.70599601 C100.038758,7.96409357 100.495156,7.57185955 101.2101,7.57185955 C102.225683,7.57185955 102.31649,7.83986511 102.31649,10.8388473 L102.31649,13.4049217 L103.341217,13.4049217 L104.365944,13.4049217 L104.365944,10.9037993 C104.365944,8.61219407 104.393375,8.36783606 104.692753,7.98726816 C104.942471,7.66960275 105.159398,7.57185955 105.614219,7.57185955 C106.659283,7.57185955 106.730699,7.77680497 106.730699,10.7767331 L106.730699,13.4049217 L107.755426,13.4049217 L108.780153,13.4049217 L108.780153,10.562171 C108.780153,7.49161553 108.685721,7.01629979 107.938616,6.32736785 C107.65989,6.07039781 107.278849,5.92599011 106.744415,5.8745961 C105.707391,5.77496109 105.273695,5.90013546 104.597217,6.49400425 L104.034405,6.98823803 L103.796511,6.64850157 C103.22093,5.82682805 101.583416,5.56497086 100.635622,6.14291696 M116.268544,6.01222484 C116.095129,6.1129634 115.75823,6.3763971 115.519705,6.59773816 L115.086166,7.00021945 L115.086166,6.49778785 L115.086166,5.99535625 L114.140264,5.99535625 L113.194362,5.99535625 L113.194362,9.70013899 L113.194362,13.4049217 L114.21909,13.4049217 L115.243817,13.4049217 L115.243817,10.9734807 C115.243817,8.58760062 115.251542,8.53289595 115.651973,8.05694961 C115.979571,7.6675533 116.181679,7.57185955 116.676701,7.57185955 C117.083123,7.57185955 117.400789,7.67937707 117.608572,7.8871602 C117.898333,8.17692151 117.923872,8.41260875 117.923872,10.8036913 L117.923872,13.4049217 L118.9486,13.4049217 L119.973327,13.4049217 L119.973327,10.6409962 C119.973327,7.59345764 119.884412,7.18703509 119.044136,6.39673399 C118.623997,6.00166227 118.400134,5.9234677 117.566479,5.88027151 C117.010604,5.8514215 116.447004,5.90880622 116.268544,6.01222484 M122.648653,6.19241917 C121.92488,6.55801028 121.234529,7.39671003 121.234529,7.91049245 C121.234529,8.15926467 121.362699,8.20246086 122.101606,8.20246086 C122.578498,8.20246086 122.968683,8.13151822 122.968683,8.04481053 C122.968683,7.95810285 123.110568,7.74527491 123.283984,7.57185955 C123.709482,7.14636131 125.011989,7.12965037 125.387827,7.54490134 C126.023,8.24660296 125.652995,8.59154188 123.910644,8.92197697 C121.644893,9.35188941 120.918598,9.95048771 120.919858,11.3869975 C120.920647,12.2728347 121.397697,13.0421683 122.138181,13.3514783 C123.002578,13.7128128 124.726799,13.585589 125.217722,13.1243041 C125.677904,12.6920269 125.806389,12.6844597 125.806389,13.0896211 C125.806389,13.3724458 125.911542,13.4049217 126.827175,13.4049217 L127.847961,13.4049217 L127.694252,13.0005486 C127.609751,12.778104 127.540385,11.4834795 127.540227,10.1234301 C127.540069,7.18782334 127.401968,6.75554614 126.285331,6.19241917 C125.753576,5.92425596 125.30979,5.83770593 124.466361,5.83770593 C123.622616,5.83770593 123.179777,5.92409831 122.648653,6.19241917 M110.038361,6.03476884 C110.036784,6.05652458 110.01897,7.72367681 109.998948,9.73955157 L109.962531,13.4049217 L110.947845,13.4049217 L111.93316,13.4049217 L111.93316,9.70013899 L111.93316,5.99535625 L110.987258,5.99535625 C110.467012,5.99535625 110.039937,6.01301309 110.038361,6.03476884 M87.7338343,7.39056167 C87.2263579,7.55546391 86.9252458,7.78468749 86.7321241,8.15264336 C86.3977478,8.78986599 86.4863473,8.83306218 88.1279602,8.83306218 C89.0219952,8.83306218 89.7044634,8.76795259 89.7044634,8.68282142 C89.7044634,8.27734477 89.2923655,7.71942025 88.8310806,7.5006016 C88.2802504,7.23921735 88.2181361,7.23306899 87.7338343,7.39056167 M124.407873,10.104985 C122.95008,10.5262267 122.535144,11.0182534 122.963007,11.8180135 C123.291866,12.4323768 124.933952,12.3057836 125.407691,11.6296214 C125.65063,11.2827906 125.752472,9.76335677 125.530501,9.79677864 C125.465391,9.80671061 124.96028,9.94528525 124.407873,10.104985" id="Shape"></path>
            </g>
        </g>
    </g>
</svg>