<?xml version="1.0" encoding="UTF-8"?>
<svg width="96px" height="30px" viewBox="0 0 96 30" version="1.1" xmlns="http://www.w3.org/2000/svg" xmlns:xlink="http://www.w3.org/1999/xlink">
    <title>vg5000</title>
    <g id="Page-1" stroke="none" stroke-width="1" fill="none" fill-rule="evenodd">
        <g id="System" transform="translate(-52.000000, 0.000000)" fill="#000000">
            <g id="vg5000" transform="translate(52.238518, 0.000000)">
                <line x1="47.7614822" y1="30" x2="47.7614822" y2="0" id="Path" fill-rule="nonzero"></line>
                <path d="M1.77032476,5.64515706 L6.66417789,19.8581064 L11.5579607,5.64515706 L13.3284947,5.64515706 L6.66417789,25 L0,5.64515706 L1.77032476,5.64515706 Z M21.9583407,5 C25.5944652,5 28.7723903,6.96178416 30.4914216,9.88465775 L29.3115431,10.6365895 C27.8415813,8.10226474 25.0990059,6.39784031 21.9583407,6.39784031 C17.2669204,6.39784031 13.4637727,10.200988 13.4637727,14.8924083 C13.4637727,19.5838287 17.2669204,23.3869763 21.9583407,23.3869763 C26.1262816,23.3869763 29.5931213,20.3852052 30.3149038,16.4256187 L22.9260763,16.4255336 L22.9260763,15.322513 L31.8415621,15.3226285 C31.6163195,20.5864609 27.2776194,24.7848167 21.9583407,24.7848167 C16.4949145,24.7848167 12.0659324,20.3558346 12.0659324,14.8924083 C12.0659324,9.42898207 16.4949145,5 21.9583407,5 Z M50.6415883,5.42997372 L50.6415883,6.82794502 L43.9829222,6.82781403 L42.444633,11.0536767 C42.6651295,11.0323686 42.8886695,11.0214659 43.1147559,11.0214659 C46.9154002,11.0214659 49.9964313,14.1024969 49.9964313,17.9031413 C49.9964313,21.7037857 46.9154002,24.7848167 43.1147559,24.7848167 C40.3938865,24.7848167 38.041825,23.2057626 36.9249827,20.9140661 L38.6600553,20.9141416 C39.6266551,22.3414093 41.2611599,23.2794502 43.1147559,23.2794502 C46.0840093,23.2794502 48.4910648,20.8723947 48.4910648,17.9031413 C48.4910648,14.9338879 46.0840093,12.5268324 43.1147559,12.5268324 C41.9885804,12.5268324 40.9432786,12.8730935 40.0795063,13.4649598 L43.0040039,5.42997372 L50.6415883,5.42997372 Z M58.021025,5 C62.0592096,5 65.3328051,9.42898207 65.3328051,14.8924083 C65.3328051,20.3558346 62.0592096,24.7848167 58.021025,24.7848167 C53.9828404,24.7848167 50.7092449,20.3558346 50.7092449,14.8924083 C50.7092449,9.42898207 53.9828404,5 58.021025,5 Z M58.021025,6.45476593 C54.8142313,6.45476593 52.2146114,10.2324271 52.2146114,14.8924083 C52.2146114,19.5523895 54.8142313,23.3300507 58.021025,23.3300507 C61.2278187,23.3300507 63.8274386,19.5523895 63.8274386,14.8924083 C63.8274386,10.2324271 61.2278187,6.45476593 58.021025,6.45476593 Z M73.1161047,5 C77.1542893,5 80.4278847,9.42898207 80.4278847,14.8924083 C80.4278847,20.3558346 77.1542893,24.7848167 73.1161047,24.7848167 C69.07792,24.7848167 65.8043246,20.3558346 65.8043246,14.8924083 C65.8043246,9.42898207 69.07792,5 73.1161047,5 Z M73.1161047,6.45476593 C69.909311,6.45476593 67.3096911,10.2324271 67.3096911,14.8924083 C67.3096911,19.5523895 69.909311,23.3300507 73.1161047,23.3300507 C76.3228983,23.3300507 78.9225182,19.5523895 78.9225182,14.8924083 C78.9225182,10.2324271 76.3228983,6.45476593 73.1161047,6.45476593 Z M88.2111843,5 C92.2493689,5 95.5229644,9.42898207 95.5229644,14.8924083 C95.5229644,20.3558346 92.2493689,24.7848167 88.2111843,24.7848167 C84.1729997,24.7848167 80.8994042,20.3558346 80.8994042,14.8924083 C80.8994042,9.42898207 84.1729997,5 88.2111843,5 Z M88.2111843,6.45476593 C85.0043906,6.45476593 82.4047707,10.2324271 82.4047707,14.8924083 C82.4047707,19.5523895 85.0043906,23.3300507 88.2111843,23.3300507 C91.417978,23.3300507 94.0175979,19.5523895 94.0175979,14.8924083 C94.0175979,10.2324271 91.417978,6.45476593 88.2111843,6.45476593 Z" id="Shape"></path>
            </g>
        </g>
    </g>
</svg>