<?xml version="1.0" encoding="UTF-8"?>
<svg width="171px" height="30px" viewBox="0 0 171 30" version="1.1" xmlns="http://www.w3.org/2000/svg" xmlns:xlink="http://www.w3.org/1999/xlink">
    <title>windows 3x</title>
    <g id="Page-1" stroke="none" stroke-width="1" fill="none" fill-rule="evenodd">
        <g id="System" transform="translate(-16.000000, 0.000000)" fill="#000000">
            <g id="windows-3x" transform="translate(16.172000, 0.000000)">
                <line x1="83.828" y1="30" x2="83.828" y2="0" id="Path" fill-rule="nonzero"></line>
                <path d="M15.413,3.752 L15.413,7.013 L18.674,5.304 L18.674,2.174 L15.413,3.752 Z M15.413,7.486 L15.413,10.748 L18.674,9.038 L18.674,5.882 L15.413,7.486 Z M15.413,11.169 L15.413,14.43 L18.674,12.747 L18.674,9.591 L15.413,11.169 Z M15.413,14.904 L15.413,18.165 L18.674,16.455 L18.674,13.325 L15.413,14.904 Z M15.413,18.586 L15.413,21.821 L18.674,20.137 L18.674,16.981 L15.413,18.586 Z M15.413,22.373 L15.413,25.634 L18.674,23.951 L18.674,20.795 L15.413,22.373 Z M15.413,26.108 L15.413,29.369 L18.674,27.66 L18.674,24.529 L15.413,26.108 Z M11.731,4.883 L14.755,3.357 L14.755,6.303 L11.731,7.829 L11.731,4.883 Z M11.731,8.644 L14.755,7.118 L14.755,10.064 L11.731,11.59 L11.731,8.644 Z M12.036,8.831 L14.449,7.615 L14.449,9.876 L12.036,11.092 L12.036,8.831 Z M11.731,12.221 L14.755,10.695 L14.755,13.641 L11.731,15.167 L11.731,12.221 Z M12.036,12.409 L14.449,11.193 L14.449,13.454 L12.036,14.67 L12.036,12.409 Z M11.731,15.956 L14.755,14.43 L14.755,17.376 L11.731,18.928 L11.731,15.956 Z M11.731,19.717 L14.755,18.191 L14.755,21.137 L11.731,22.689 L11.731,19.717 Z M12.036,19.904 L14.449,18.688 L14.449,20.949 L12.036,22.187 L12.036,19.904 Z M11.731,23.32 L14.755,21.794 L14.755,24.74 L11.731,26.292 L11.731,23.32 Z M12.036,23.509 L14.449,22.29 L14.449,24.554 L12.036,25.792 L12.036,23.509 Z M11.731,27.055 L14.755,25.529 L14.755,28.475 L11.731,30 L11.731,27.055 Z M8.469,4.751 L11.046,3.541 L11.046,6.119 L8.469,7.355 L8.469,4.751 Z M8.469,8.538 L11.046,7.303 L11.046,9.906 L8.469,11.143 L8.469,8.538 Z M8.774,8.731 L10.741,7.789 L10.741,9.715 L8.774,10.657 L8.774,8.731 Z M8.469,12.116 L11.046,10.906 L11.046,13.483 L8.469,14.72 L8.469,12.116 Z M8.774,12.311 L10.741,11.386 L10.741,13.29 L8.774,14.234 L8.774,12.311 Z M8.469,15.85 L11.046,14.641 L11.046,17.218 L8.469,18.454 L8.469,15.85 Z M8.469,19.638 L11.046,18.402 L11.046,21.006 L8.469,22.242 L8.469,19.638 Z M8.774,19.831 L10.741,18.889 L10.741,20.812 L8.774,21.757 L8.774,19.831 Z M8.469,23.215 L11.046,21.979 L11.046,24.583 L8.469,25.792 L8.469,23.215 Z M8.774,23.408 L10.741,22.464 L10.741,24.387 L8.774,25.31 L8.774,23.408 Z M8.469,26.923 L11.046,25.713 L11.046,28.291 L8.469,29.527 L8.469,26.923 Z M5.444,6.75 L7.548,5.803 L7.548,3.883 L5.444,4.883 L5.444,6.75 Z M5.444,8.644 L7.548,7.644 L7.548,9.564 L5.444,10.511 L5.444,8.644 Z M5.75,8.836 L7.242,8.129 L7.242,9.367 L5.75,10.038 L5.75,8.836 Z M5.444,12.221 L7.548,11.195 L7.548,13.141 L5.444,14.088 L5.444,12.221 Z M5.75,12.411 L7.242,11.685 L7.242,12.945 L5.75,13.615 L5.75,12.411 Z M5.444,17.823 L7.548,16.876 L7.548,14.956 L5.444,15.956 L5.444,17.823 Z M5.444,19.717 L7.548,18.717 L7.548,20.637 L5.444,21.61 L5.444,19.717 Z M5.75,19.909 L7.242,19.202 L7.242,20.443 L5.75,21.133 L5.75,19.909 Z M5.444,23.32 L7.548,22.32 L7.548,24.241 L5.444,25.214 L5.444,23.32 Z M5.75,23.514 L7.242,22.804 L7.242,24.045 L5.75,24.735 L5.75,23.514 Z M5.444,28.922 L7.548,27.975 L7.548,26.055 L5.444,27.055 L5.444,28.922 Z M2.604,3.646 L4.129,2.726 L4.129,4.33 L2.604,5.198 L2.604,3.646 Z M2.604,7.408 L4.129,6.487 L4.129,8.118 L2.604,8.96 L2.604,7.408 Z M2.909,7.581 L3.824,7.028 L3.824,7.938 L2.909,8.442 L2.909,7.581 Z M2.604,10.985 L4.129,10.064 L4.129,11.695 L2.604,12.563 L2.604,10.985 Z M2.909,11.158 L3.824,10.605 L3.824,11.516 L2.909,12.037 L2.909,11.158 Z M2.604,14.72 L4.129,13.799 L4.129,15.43 L2.604,16.298 L2.604,14.72 Z M2.604,18.506 L4.129,17.586 L4.129,19.191 L2.604,20.059 L2.604,18.506 Z M2.909,18.678 L3.824,18.128 L3.824,19.013 L2.909,19.532 L2.909,18.678 Z M2.604,22.084 L4.129,21.163 L4.129,22.794 L2.604,23.662 L2.604,22.084 Z M2.909,22.256 L3.824,21.705 L3.824,22.615 L2.909,23.137 L2.909,22.256 Z M2.604,25.819 L4.129,24.898 L4.129,26.529 L2.604,27.37 L2.604,25.819 Z M0,2.778 L1.183,2.174 L1.183,3.331 L0,3.857 L0,2.778 Z M0,6.513 L1.183,5.935 L1.183,7.092 L0,7.618 L0,6.513 Z M0.305,6.705 L0.877,6.426 L0.877,6.893 L0.305,7.148 L0.305,6.705 Z M0,10.09 L1.183,9.538 L1.183,10.695 L0,11.195 L0,10.09 Z M0.305,10.285 L0.877,10.018 L0.877,10.493 L0.305,10.733 L0.305,10.285 Z M0,13.825 L1.183,13.247 L1.183,14.404 L0,14.93 L0,13.825 Z M0,17.613 L1.183,17.034 L1.183,18.165 L0,18.691 L0,17.613 Z M0.305,17.805 L0.877,17.523 L0.877,17.966 L0.305,18.221 L0.305,17.805 Z M0,21.216 L1.183,20.637 L1.183,21.768 L0,22.294 L0,21.216 Z M0.305,21.407 L0.877,21.128 L0.877,21.571 L0.305,21.823 L0.305,21.407 Z M0,24.951 L1.183,24.346 L1.183,25.503 L0,26.029 L0,24.951 Z M19.173,5.544 L19.173,1.858 C24.802,-0.588 30.615,-0.746 36.69,2.147 L36.69,27.765 C30.562,24.793 24.697,24.477 19.173,27.686 L19.173,24.111 L19.173,24.111 C20.949,23.283 22.929,22.738 24.986,22.373 L24.986,14.588 C23.238,14.719 21.309,15.185 19.173,16.22 L19.173,13.67 L19.173,13.67 C21.102,12.789 23.031,12.193 24.986,12.037 L24.986,3.884 C23.342,3.988 21.464,4.533 19.173,5.544 Z M27.274,3.515 L27.274,11.853 L29.589,11.853 C30.614,11.853 32.298,12.379 33.061,12.668 L33.061,4.436 C31.14,3.621 29.195,3.331 27.274,3.515 L27.274,3.515 L27.274,3.515 L27.274,3.515 Z M27.274,14.246 L27.274,22.268 C29.51,22.163 31.22,22.505 33.061,23.11 L33.061,15.009 C31.14,14.246 29.195,14.01 27.274,14.246 L27.274,14.246 L27.274,14.246 Z" id="Shape"></path>
                <g id="3.x" transform="translate(145.449547, 4.910156)" fill-rule="nonzero">
                    <path d="M0.238965912,4.0509915 C0.678966638,2.75731822 1.23465721,1.75873466 1.90603763,1.05524079 C2.57741805,0.351746931 3.41379874,0 4.4151797,0 C5.65173347,0 6.6000109,0.500472144 7.26001199,1.50141643 C7.76070247,2.24740321 8.01104771,3.04532578 8.01104771,3.89518414 C8.01104771,5.29272899 7.3055293,6.7374882 5.89449249,8.22946176 C6.84276992,8.69216242 7.55966766,9.35316336 8.0451857,10.2124646 C8.53070374,11.0717658 8.77346276,12.082153 8.77346276,13.2436261 C8.77346276,14.9055713 8.34863448,16.3456091 7.4989779,17.5637394 C6.39138986,19.1501416 4.78690446,19.9433428 2.68552168,19.9433428 C1.64620961,19.9433428 0.938794654,19.782814 0.563276792,19.4617564 C0.187758931,19.1406988 0,18.796034 0,18.427762 C0,18.1539188 0.0891380782,17.9131256 0.267414235,17.7053824 C0.445690391,17.4976393 0.66000109,17.3937677 0.910346331,17.3937677 C1.10000182,17.3937677 1.29345041,17.4315392 1.49069212,17.5070822 C1.61965785,17.5542965 1.91172729,17.7266289 2.36690046,18.0240793 C2.82207363,18.3215297 3.13690173,18.4985836 3.31138478,18.5552408 C3.5920749,18.6591124 3.89173056,18.7110482 4.21035178,18.7110482 C4.98414616,18.7110482 5.65742314,18.3380548 6.2301827,17.592068 C6.80294227,16.8460812 7.08932205,15.9631728 7.08932205,14.9433428 C7.08932205,14.197356 6.95656321,13.470255 6.69104553,12.7620397 C6.49380383,12.2332389 6.27759657,11.8319169 6.04242377,11.5580737 C5.71621634,11.1803588 5.26862939,10.8380548 4.69966293,10.5311615 C4.13069648,10.2242682 3.55035069,10.0708215 2.95862558,10.0708215 L2.59448704,10.0708215 L2.59448704,9.64589235 C3.19379838,9.55146364 3.79500627,9.28234183 4.39811071,8.83852691 C5.00121516,8.39471199 5.43931933,7.8611898 5.71242323,7.23796034 C5.98552713,6.61473088 6.12207907,5.93012276 6.12207907,5.18413598 C6.12207907,4.2115203 5.8774235,3.42540132 5.38811235,2.82577904 C4.89880119,2.22615675 4.29000708,1.92634561 3.56173002,1.92634561 C2.38586601,1.92634561 1.40345059,2.71010387 0.614483773,4.2776204 L0.238965912,4.0509915 Z" id="Path"></path>
                    <path d="M11.2288195,16.8555241 C11.5853718,16.8555241 11.8850274,17.0089707 12.1277865,17.315864 C12.3705455,17.6227573 12.491925,17.99339 12.491925,18.427762 C12.491925,18.8621341 12.3686489,19.2327668 12.1220968,19.5396601 C11.8755447,19.8465534 11.5777856,20 11.2288195,20 C10.8798534,20 10.5820943,19.8465534 10.3355421,19.5396601 C10.08899,19.2327668 9.96571393,18.8621341 9.96571393,18.427762 C9.96571393,17.9839471 10.08899,17.6109537 10.3355421,17.3087819 C10.5820943,17.00661 10.8798534,16.8555241 11.2288195,16.8555241 Z" id="Path"></path>
                    <path d="M13.4392921,6.62889518 L18.3437829,6.62889518 L18.3437829,7.1529745 C18.0327479,7.1529745 17.8146441,7.2190746 17.6894715,7.35127479 C17.5642989,7.48347498 17.5017126,7.65816808 17.5017126,7.87535411 C17.5017126,8.101983 17.6344714,8.45136922 17.8999891,8.92351275 C17.9834375,9.07459868 18.1086101,9.31067044 18.275507,9.63172805 L19.0151634,11.1048159 L19.868613,9.63172805 C20.4148208,8.69688385 20.6879247,8.10670444 20.6879247,7.8611898 C20.6879247,7.66288952 20.6234419,7.49527856 20.4944761,7.35835694 C20.3655104,7.22143532 20.1568894,7.1529745 19.868613,7.1529745 L19.868613,6.62889518 L23.3962051,6.62889518 L23.3962051,7.1529745 C23.0244803,7.18130312 22.702066,7.30878187 22.4289621,7.53541076 C22.0572373,7.85646837 21.5489606,8.55524079 20.904132,9.63172805 L19.4817159,11.9971671 L22.0762029,16.6430595 C22.7134453,17.7856468 23.1686185,18.4726157 23.4417224,18.703966 C23.7148263,18.9353163 24.0675855,19.0651558 24.5,19.0934844 L24.5,19.6033994 L19.5841298,19.6033994 L19.5841298,19.0934844 C19.9255097,19.0934844 20.1910274,18.9990557 20.3806829,18.8101983 C20.524821,18.6779981 20.5968901,18.503305 20.5968901,18.286119 C20.5968901,18.068933 20.3541311,17.5212465 19.868613,16.6430595 L18.3437829,13.8668555 L16.6710216,16.6430595 C16.1551586,17.5023607 15.8972272,18.0122757 15.8972272,18.1728045 C15.8972272,18.3994334 15.9825721,18.6048159 16.1532621,18.7889518 C16.323952,18.9730878 16.5799869,19.0745987 16.9213668,19.0934844 L16.9213668,19.6033994 L13.5189474,19.6033994 L13.5189474,19.0934844 C13.7920513,19.0462701 14.0310172,18.9282342 14.2358451,18.7393768 C14.5241215,18.4655335 15.0096395,17.7667611 15.6923992,16.6430595 L17.8772304,13.0311615 L15.8972272,9.46175637 C15.3358469,8.44192635 14.9015359,7.80217186 14.594294,7.54249292 C14.2870521,7.28281398 13.9020515,7.1529745 13.4392921,7.1529745 L13.4392921,6.62889518 Z" id="Path"></path>
                </g>
                <path d="M90.3477817,5.56121829 C91.7022701,5.70974672 92.8513407,6.26672831 93.7949934,7.23216308 C94.6936967,8.15120338 95.3934013,9.35801751 95.8941074,10.8526055 C96.3948421,12.3378897 96.6452094,13.9577882 96.6452094,15.7123009 C96.6452094,16.9933999 96.5007678,18.2048452 96.2118846,19.3466368 C95.9294351,20.4792074 95.5346404,21.4214449 95.0275007,22.1733494 C94.3149431,23.2316558 93.4258617,23.9046856 92.3602565,24.1924387 C91.5642622,24.405969 90.752211,24.5127341 89.924103,24.5127341 L82.808222,24.5127341 L82.808222,24.1923147 C83.1805447,24.1646103 83.4790455,24.0903461 83.7037241,23.969522 C83.9284028,23.8488634 84.1306139,23.6539198 84.3103574,23.3846914 C84.509356,23.0876345 84.6441629,22.7116823 84.7147781,22.2568346 C84.7918098,21.792642 84.8303257,21.0871113 84.8303257,20.1402425 L84.8303257,9.87776363 C84.8303257,8.8566307 84.7853905,8.10933673 84.6955202,7.63588169 C84.6120663,7.16242666 84.4451615,6.77253955 84.1948056,6.46622035 C83.897908,6.106955 83.4694708,5.89657515 82.9094938,5.83508081 C82.3641352,5.88802889 81.9321789,6.15399367 81.6121503,6.63331482 C81.4131489,6.93037167 81.2751323,7.31097576 81.1981006,7.77512709 C81.1274854,8.23001607 81.0921777,8.92624306 81.0921777,9.86380807 L81.0921777,24.5126101 L80.6588701,24.5126101 L71.5882881,8.02576881 L71.5882881,20.1402425 C71.5882881,21.096415 71.6235943,21.8019457 71.6942067,22.2568346 C71.7712384,22.7116823 71.909255,23.0876345 72.1082564,23.3846914 C72.2879999,23.6539198 72.490211,23.8488634 72.7148896,23.969522 C72.9459848,24.090222 73.2444855,24.1644863 73.6103918,24.1923147 L73.6103918,24.5126101 L63.3533628,24.5126101 L63.3533628,24.1923147 C63.7256884,24.1646103 64.0241892,24.0903461 64.248865,23.969522 C64.479963,23.8395597 64.682174,23.6446161 64.8554982,23.3846914 C65.060919,23.0876345 65.1989356,22.7116823 65.2695479,22.2568346 C65.3401603,21.8019457 65.3754665,21.096415 65.3754665,20.1402425 L65.3754665,9.87776363 C65.3754665,8.92159121 65.3401603,8.21606052 65.2695479,7.76117154 C65.1989356,7.30632391 65.060919,6.93037167 64.8554982,6.63331482 C64.682174,6.36408638 64.479963,6.16914282 64.248865,6.04848415 C64.0177699,5.92778413 63.7192691,5.85351992 63.3533628,5.82569151 L63.3536853,5.54800754 C63.1830945,6.08853924 63.0023238,6.69559008 62.8113734,7.36916005 L57.9042759,24.5606147 L57.4147592,24.5606147 L53.1643273,6.17815571 L48.8541954,24.5606147 L48.3169212,24.5606147 L42.9800026,5.98826478 L42.6218198,4.7282994 C42.3750724,3.87678762 42.1681236,3.26116148 42.0009734,2.88142097 C41.8338202,2.50168045 41.6308494,2.20249785 41.3920609,1.98387315 C41.2010312,1.79977032 40.994081,1.66742961 40.7712101,1.58685103 C40.5483422,1.50631379 40.2339388,1.44303749 39.828,1.39702212 L39.828,1 L47.3378919,1 L47.3378919,1.39702212 C46.6374469,1.39702212 46.1598698,1.4718126 45.9051607,1.62139357 C45.6902516,1.75948103 45.5151396,1.98387315 45.3798248,2.29456993 C45.2445128,2.60522537 45.1768568,2.95619078 45.1768568,3.34746614 C45.1768568,3.83073091 45.30421,4.49811918 45.5589162,5.34963095 L45.8693416,6.41982943 L49.5824993,19.5378073 L52.1733554,8.23216532 C52.5076588,6.78228834 52.6748105,5.70063769 52.6748105,4.98721338 C52.6748105,4.4578919 52.6071531,3.94583135 52.4718382,3.45103174 C52.3444851,2.94469727 52.173354,2.53618164 51.9584449,2.22548486 C51.7514946,1.92632293 51.5127061,1.71344498 51.2420793,1.58685103 C50.9794113,1.46029842 50.6411285,1.39702212 50.2272309,1.39702212 L50.2272309,1 L57.9042759,1 L57.9042759,1.39702212 C57.4346577,1.39702212 57.0923941,1.4200298 56.877485,1.46604518 C56.6705347,1.51206055 56.4755242,1.60987939 56.2924533,1.7595017 C56.0536648,1.96659155 55.8586543,2.26575348 55.7074217,2.6569875 C55.564148,3.03672801 55.4925112,3.45099039 55.4925112,3.89977464 C55.4925112,4.31403702 55.6039466,5.03322875 55.8268174,6.05734985 L58.7639138,19.7449385 L62.0472504,8.09405719 C62.5566657,6.31049641 62.8113734,4.92966316 62.8113734,3.95155743 C62.8113734,2.92743634 62.5765657,2.20249785 62.1069504,1.77674196 C61.820403,1.5235954 61.3866039,1.39702212 60.8055532,1.39702212 L60.8055532,1 L66.3335014,1 L66.3335014,1.39702212 C65.8002067,1.47755936 65.3942664,1.62714032 65.1156808,1.84576502 C64.845054,2.05289621 64.5744271,2.43838348 64.3038003,3.00222682 C64.0365886,3.54305328 63.7245237,4.37696967 63.3676057,5.50397598 L72.878582,5.50539608 L80.697386,19.9314055 L80.697386,9.87776363 C80.697386,8.92159121 80.6588701,8.21606052 80.5818384,7.76117154 C80.511226,7.30632391 80.3764191,6.93037167 80.1774177,6.63331482 C79.9976741,6.36408638 79.7922534,6.16914282 79.5611554,6.04848415 C79.3364768,5.92778413 79.0411857,5.85351992 78.6752822,5.82569151 L78.6752822,5.50539608 L88.1042075,5.50539608 C89.2789553,5.50539608 90.0268134,5.52400349 90.3477817,5.56121829 Z M69.341,5.842 L69.506339,5.82569151 C69.1404355,5.85339587 68.8419348,5.92766008 68.6108368,6.04848415 C68.3861581,6.16914282 68.183947,6.36408638 68.0042035,6.63331482 C67.7538476,7.00463589 67.5997828,7.51983353 67.542009,8.17890774 C67.5034932,8.67092882 67.4842352,9.23721412 67.4842352,9.87776363 L67.4842352,20.1402425 C67.4842352,20.9107544 67.5099125,21.518803 67.5612669,21.9643883 C67.6126214,22.4099736 67.6960739,22.7673804 67.8116243,23.0366089 C67.9785263,23.4079299 68.1935746,23.6864207 68.4567691,23.8720813 C68.6412132,23.9956703 68.8682175,24.0850723 69.1377822,24.1402873 L69.342,24.174 L69.3824584,24.1701049 C69.6525871,24.1330422 69.8775228,24.0661813 70.0572658,23.969522 C70.2883637,23.8488634 70.4937831,23.6539198 70.6735237,23.3846914 C70.8725251,23.0876345 71.0073321,22.7116823 71.0779445,22.2568346 C71.154979,21.792642 71.1934963,21.0871113 71.1934963,20.1402425 L71.1934963,9.86380807 C71.1934963,8.92624306 71.154979,8.23001607 71.0779445,7.77512709 C71.0073321,7.31097576 70.8725251,6.93037167 70.6735237,6.63331482 C70.5002024,6.36408638 70.2979927,6.16914282 70.0668947,6.04848415 C69.9153731,5.96708496 69.7302762,5.90680502 69.511604,5.86764433 L69.341,5.842 Z M88.1042075,5.93708783 L86.9390901,5.93708783 L86.9390901,19.7782045 C86.9390901,20.6879411 86.9743977,21.3795369 87.045013,21.852992 C87.1156254,22.326447 87.2472226,22.730269 87.4398048,23.0644579 C87.8506434,23.788534 88.5182587,24.1505721 89.4426506,24.1505721 C90.2322341,24.1505721 90.9062644,23.9649115 91.4647414,23.5935905 C92.0296692,23.2129657 92.5335921,22.6002653 92.9765101,21.7554892 C93.4130231,20.9385828 93.7436247,20.0056283 93.9683148,18.9566256 C94.1994099,17.8983606 94.3149574,16.7751144 94.3149574,15.586887 C94.3149574,14.2686559 94.1769351,13.0154266 93.9008906,11.8271992 C93.6248746,10.6389718 93.2300942,9.59927283 92.7165495,8.70810228 C92.003992,7.47343907 91.1534192,6.65651205 90.1648314,6.25732124 C89.6256037,6.0438323 88.9387291,5.93708783 88.1042075,5.93708783 Z M135.504531,5.03196173 C135.806253,5.03196173 136.0855,5.07837686 136.342272,5.17120713 C136.599045,5.25473369 136.942471,5.42648002 137.37255,5.68644611 C137.693544,5.87210664 137.911815,5.99278599 138.027362,6.04848415 C138.14291,6.09487861 138.245619,6.11807584 138.335489,6.11807584 C138.560151,6.11807584 138.710997,5.88134832 138.788029,5.40789329 L139.009517,5.40789329 L139.076898,10.9360287 L138.855453,10.9360287 C138.682118,10.0541205 138.531257,9.38109069 138.402871,8.91693936 C138.280918,8.44348433 138.133274,8.00718208 137.959938,7.60803262 C137.645378,6.88395654 137.298735,6.35017218 136.92001,6.00667952 C136.541257,5.65392451 136.104729,5.477547 135.610428,5.477547 C134.891466,5.477547 134.323364,5.83030201 133.906123,6.53581203 C133.732788,6.82360653 133.594765,7.16244734 133.492056,7.55233446 C133.395752,7.94222157 133.347601,8.33210869 133.347601,8.7219958 C133.347601,10.2722819 134.037683,11.5208593 135.417849,12.467728 L136.775554,13.4145968 C137.821916,14.1294105 138.576192,14.9184884 139.038382,15.7818306 C139.564794,16.7472653 139.828,17.8705115 139.828,19.1515692 C139.828,20.005649 139.709236,20.822576 139.471707,21.6023502 C139.137903,22.688485 138.637197,23.5286093 137.969589,24.122723 C137.301952,24.7075743 136.515565,25 135.610428,25 C134.782352,25 133.986357,24.7632725 133.222445,24.2898175 C132.824448,24.0391551 132.586934,23.8952578 132.509902,23.8581257 C132.43287,23.8209109 132.346203,23.8023035 132.249899,23.8023035 C131.941772,23.8023035 131.729935,24.0250961 131.614387,24.4706814 L131.393071,24.4708055 L131.421808,18.7199395 L131.643253,18.7199395 C131.912892,20.1866577 132.233872,21.3424048 132.606192,22.1871809 C133.305882,23.7467294 134.185327,24.5265036 135.244528,24.5265036 C135.982763,24.5265036 136.592611,24.1691174 137.074074,23.4543451 C137.555536,22.7395313 137.796267,21.8344259 137.796267,20.7390288 C137.796267,20.2655737 137.741696,19.7828357 137.632553,19.2908146 C137.529845,18.7988349 137.38862,18.3764675 137.208879,18.0237125 C137.022705,17.6616538 136.759513,17.3135299 136.419304,16.979341 C136.0855,16.645152 135.571941,16.222764 134.878627,15.7121768 C134.268807,15.2665916 133.800198,14.8906393 133.472798,14.5843201 C133.151833,14.2779596 132.891844,13.9669678 132.692831,13.6513449 C132.14077,12.7787404 131.86474,11.7158236 131.86474,10.4625943 C131.86474,9.69208242 131.970666,8.94941962 132.182517,8.2346059 C132.400774,7.51983353 132.702481,6.90715377 133.08764,6.39656663 C133.768087,5.48683003 134.573717,5.03196173 135.504531,5.03196173 Z M104.369782,5.03196173 C105.358356,5.03196173 106.314847,5.34758463 107.239256,5.97883044 C108.163637,6.60081389 108.97247,7.48272209 109.665755,8.62455504 C110.795582,10.4811604 111.360496,12.5930592 111.360496,14.9602517 C111.360496,16.1485204 111.212851,17.2949846 110.917563,18.3996441 C110.622246,19.5043449 110.192138,20.5115636 109.627239,21.4213002 C108.933954,22.5538708 108.112282,23.4311272 107.162225,24.0530693 C106.218572,24.6750527 105.229984,24.9860444 104.196461,24.9860444 C103.175777,24.9860444 102.200028,24.6843357 101.269213,24.0809183 C100.338399,23.4775423 99.5359715,22.6235038 98.8619297,21.518803 C98.3291414,20.6554609 97.9183056,19.6760912 97.6294224,18.5806941 C97.3469728,17.4759932 97.2057481,16.3295291 97.2057481,15.1413017 C97.2057481,13.5817119 97.4368432,12.1381703 97.8990334,10.8106768 C98.3612236,9.47392096 99.0352654,8.30889078 99.9211586,7.31558627 C100.582362,6.58224784 101.294905,6.02063507 102.058788,5.63074795 C102.8227,5.23155714 103.593032,5.03196173 104.369782,5.03196173 Z M104.273493,5.477547 C103.593046,5.477547 103.002455,5.64929333 102.501721,5.99278599 C102.007448,6.3362373 101.548475,6.89321889 101.1248,7.66373077 C100.617661,8.58277108 100.226069,9.71066915 99.950024,11.047425 C99.674008,12.3841808 99.536,13.8184187 99.536,15.3501388 C99.536,18.0422579 100.043125,20.3119889 101.057376,22.1593318 C101.513161,22.9855419 101.99461,23.5889386 102.501721,23.969522 C103.015294,24.3408431 103.605885,24.5265036 104.273493,24.5265036 C104.947535,24.5265036 105.538111,24.3408431 106.045222,23.969522 C106.558795,23.598201 107.046677,22.9948042 107.508867,22.1593318 C108.523118,20.3026852 109.030244,18.0143881 109.030244,15.2944406 C109.030244,13.7998527 108.889019,12.3888327 108.606569,11.0613805 C108.330525,9.72458335 107.938947,8.59203343 107.431836,7.66373077 C107.021,6.9025226 106.562012,6.35017218 106.054872,6.00667952 C105.554166,5.65392451 104.960373,5.477547 104.273493,5.477547 Z M116.725951,5.50539608 L116.725951,5.82569151 C116.161052,5.82569151 115.775893,5.88602085 115.570476,6.00667952 C115.39714,6.11807584 115.255901,6.29910519 115.146758,6.54976758 C115.037644,6.80038863 114.983087,7.0835106 114.983087,7.3991335 C114.983087,7.78902062 115.085796,8.32745684 115.291214,9.01444215 L115.541567,9.87776363 L118.536196,20.460538 L120.625703,11.3398713 C120.895314,10.1701686 121.030119,9.29754345 121.030119,8.7219958 C121.030119,8.29497658 120.975562,7.88187156 120.866448,7.48268074 C120.763739,7.07422757 120.625717,6.74469047 120.452381,6.49406943 C120.285479,6.25271073 120.0929,6.08096441 119.874644,5.97883044 C119.662821,5.87673782 119.389993,5.82569151 119.05616,5.82569151 L119.05616,5.50539608 L125.247691,5.50539608 L125.247691,5.82569151 C124.868937,5.82569151 124.592893,5.84429891 124.419557,5.88151372 C124.252655,5.91872853 124.095389,5.99762391 123.947759,6.11819989 C123.75518,6.28529436 123.5979,6.52665306 123.475919,6.84227596 C123.360371,7.14863651 123.302597,7.48282547 123.302597,7.84484283 C123.302597,8.17907314 123.392468,8.75927264 123.572208,9.58544133 L125.940976,20.6277565 L128.588963,11.2285991 C128.999798,9.78970926 129.205216,8.6757254 129.205216,7.88664746 C129.205216,7.06043742 129.015839,6.47560675 128.637086,6.13215544 C128.405991,5.92792885 128.056146,5.82581556 127.58755,5.82581556 L127.58755,5.50539608 L132.045782,5.50539608 L132.045782,5.82581556 C131.615702,5.89077607 131.288318,6.01145542 131.063628,6.1878536 C130.845371,6.35494808 130.627115,6.66591913 130.408858,7.12076676 C130.087893,7.77057862 129.686679,8.94489182 129.205216,10.6437064 L125.247691,24.5127341 L124.852882,24.5127341 L121.424928,9.68294412 L117.948851,24.5127341 L117.515526,24.5127341 L113.211315,9.52974317 L112.922446,8.51328277 C112.723462,7.82629745 112.55656,7.32964519 112.42174,7.02332599 C112.286949,6.71696544 112.123264,6.47560675 111.930685,6.29924992 C111.776593,6.15072149 111.609676,6.04395635 111.429936,5.97895449 C111.250195,5.91399398 110.996639,5.86294767 110.669269,5.82581556 L110.669269,5.50539608 L116.725951,5.50539608 Z" id="Combined-Shape" fill-rule="nonzero"></path>
            </g>
        </g>
    </g>
</svg>