<?xml version="1.0" encoding="UTF-8"?>
<svg width="800px" height="400px" viewBox="0 0 800 400" version="1.1" xmlns="http://www.w3.org/2000/svg" xmlns:xlink="http://www.w3.org/1999/xlink">
    <title>atari_2</title>
    <g id="Page-1" stroke="none" stroke-width="1" fill="none" fill-rule="evenodd">
        <g id="Manufacturer" fill="#000000" fill-rule="nonzero">
            <g id="atari_2">
                <line x1="0" y1="0" x2="800" y2="400" id="Path"></line>
                <path d="M96.0216666,102.691724 C83.7851226,102.691724 73.2478734,110.270637 69.2060249,121.110549 L69.2060249,121.245981 L0,297.308276 L41.5777879,297.308276 L57.4233944,253.563567 L134.619939,253.563567 L151.413573,297.308276 L193.939389,297.308276 L122.701876,121.110549 C118.617772,110.326219 108.268776,102.691724 96.0216666,102.691724 Z M388.420486,102.827157 C388.420486,124.660342 388.159199,168.142693 374.335502,197.900796 C359.20784,230.457533 320.260338,248.30602 308.650745,248.417131 L308.650745,296.631113 C353.187441,292.147538 383.45126,248.575268 394.785858,206.297613 C404.432772,170.344501 403.265235,109.006239 403.318108,102.827157 L388.420486,102.827157 Z M412.392088,102.827157 C412.392088,102.827157 412.678815,184.621534 410.631465,217.403081 C407.076372,274.504306 391.264612,296.631113 391.264612,296.631113 L453.292713,296.631113 C453.292713,296.631113 436.202297,274.349328 432.30067,216.996783 C430.031081,183.662394 429.998317,102.827157 429.998317,102.827157 L412.392088,102.827157 Z M438.936864,102.827157 C438.989781,109.006239 437.824801,170.344505 447.469114,206.297613 C458.800982,248.57526 488.932098,292.147555 533.468773,296.631113 L533.468773,248.417131 C521.853776,248.306024 483.03127,230.457529 467.919427,197.900796 C454.077268,168.142693 453.834443,124.660346 453.834443,102.827157 L438.936864,102.827157 Z M183.781949,104.04605 C176.997104,104.04605 171.457588,109.468608 171.457588,116.234978 L171.457588,136.68529 L231.860498,136.68529 L231.860498,297.308276 L270.729635,297.308276 L270.729635,136.68529 L330.997091,136.68529 L330.997091,116.234978 C330.997091,109.468608 325.590421,104.04605 318.808185,104.04605 L183.781949,104.04605 Z M597.528318,104.04605 C581.749973,104.046045 568.952097,116.843934 568.952097,132.622314 L568.952097,297.172843 L607.821191,297.172843 L607.821191,144.404945 C607.821191,139.61459 611.71168,135.60183 616.488873,135.60183 L642.627395,135.60183 C645.005417,135.601826 652.184815,135.809746 653.597387,136.008128 C665.185905,136.957776 674.565637,145.273611 677.298124,156.187575 C677.443568,156.634607 677.619739,157.089612 677.704378,157.541901 C677.855153,158.208506 677.89056,158.922662 677.975244,159.573389 C678.115487,160.586476 678.110719,161.632882 678.110719,162.688337 C678.110763,172.739927 672.637295,181.422448 664.43199,185.982733 C662.770872,186.966731 660.9621,187.82055 659.150165,188.555951 C657.861974,189.140525 656.376896,189.790229 654.816324,190.316574 C644.333542,194.01188 639.82457,196.132753 635.449428,200.338581 C630.537366,205.467574 627.408202,212.446033 627.323476,220.111731 C627.254784,227.309219 629.831123,233.844859 634.095103,238.936854 L683.392545,297.172843 L729.710472,297.172843 L673.099672,228.779413 C671.941107,227.292845 671.203617,225.489378 671.203617,223.497545 C671.203617,221.696184 671.884507,220.169913 672.828807,218.757406 C674.30747,217.01157 676.890786,215.931308 678.65245,215.100728 C699.461994,205.612537 714.271163,185.770049 714.271163,162.688337 C714.271163,131.729274 688.271843,106.27435 656.035173,104.316915 C652.019869,103.920156 643.03365,104.04605 643.03365,104.04605 L597.528318,104.04605 Z M761.266295,104.04605 L761.266295,297.308276 L800,297.308276 L800,104.04605 L761.266295,104.04605 Z M95.4799365,149.145083 L122.160146,220.924327 L69.3414574,220.924327 L95.4799365,149.145083 Z" id="path13511"></path>
            </g>
        </g>
    </g>
</svg>