<svg id="Capa_1" data-name="Capa 1" xmlns="http://www.w3.org/2000/svg" width="2079.59" height="466.71" viewBox="0 0 2079.59 466.71">
  <g>
    <path d="M2446-971.46H366.41v-466.72H2446Zm-2064.28-19h2049v-429.75h-2049Z" transform="translate(-366.41 1438.18)"/>
    <g>
      <g>
        <g id="g22">
          <path id="path24" d="M860.4-1212.29l30.23-71.57,31.67,71.57Zm191.48,108c-20.56,0-25.12-14.21-25.12-14.21L927.9-1343.22H868.37L772.8-1113.58s-3.7,9.3-21.85,9.3v21.87h83.42v-21.83c-21.32,0-14.72-14.2-14.72-14.2L845-1178.5h91l24.47,55.37s6.72,18.89-12.11,18.89v21.83h103.48Z" transform="translate(-366.41 1438.18)"/>
        </g>
        <g id="g26">
          <path id="path28" d="M1145.86-1306.27h48.79s44.66-1,44.66,36.47c0,62-93.45,69.25-93.45,69.25Zm0,140.24c.22,0,155.44-15.29,155.44-107,0-70.37-101.65-70.2-101.65-70.2h-133v24.27s19,.28,19,20.73v176.14s.63,17.83-19,17.83v21.84h98.2V-1104c-19.46,0-18.79-14.23-19-14.23Z" transform="translate(-366.41 1438.18)"/>
        </g>
        <g id="g34">
          <path id="path36" d="M1884-1343.22h93.81l38.68,101.93,38.14-101.93h96.47v21.85c-17,0-14.41,15.41-14.41,15.41L2164-1122.63s2.44,18.35,20.86,18.35v21.87H2082.46v-21.94c18.56,0,15.66-20.57,15.66-20.57l-21.55-138.71-43.51,110.47h-51.85l-42.12-110.47-26.93,138.39s-4,20.89,15.08,20.89v21.94h-81.6s-.2-21.87,0-21.87c18.22,0,21.35-16.88,21.35-16.88l32.93-181.12s4.38-18.84-16-18.84Z" transform="translate(-366.41 1438.18)"/>
        </g>
        <g id="g42">
          <path id="path44" d="M1711.4-1118.28s-82.89,0-82.7-94,82.7-94.76,82.7-94.76,85.25,1.38,85.25,94.76-85.25,94-85.25,94m0-224.56s-149.94,0-149.76,130.58,149.76,130,149.76,130,149.87,0,150.06-130-150.06-130.58-150.06-130.58" transform="translate(-366.41 1438.18)"/>
        </g>
        <g id="g46">
          <path id="path48" d="M751.43-1291.91l-45.27,52.54-17.35-14.2s18.92-33.12-12.48-40.83c0,0-101.57-31.08-101.57,67.81,0,104.36,110.44,112,110.44,112,33.19,4.65,32.34-24.84,32.34-24.84h22.18s.19,50,0,53.85-187.4,18.88-233.36-101.05c-19.47-50.84,9.81-155.75,128.89-155.75,77.09,0,116.15,50.53,116.15,50.53" transform="translate(-366.41 1438.18)"/>
        </g>
        <g id="g50">
          <path id="path52" d="M1566.24-1291.91,1521-1239.37l-17.35-14.2s18.91-33.12-12.48-40.83c0,0-101.58-31.08-101.58,67.81,0,104.36,110.43,112,110.43,112,33.2,4.65,32.36-24.84,32.36-24.84h22.17s.19,50,0,53.85-187.39,18.88-233.35-101.05c-19.47-50.84,9.8-155.75,128.9-155.75,77.08,0,116.15,50.53,116.15,50.53" transform="translate(-366.41 1438.18)"/>
        </g>
      </g>
      <path d="M2259-1171.73a53.94,53.94,0,0,1,25.89,6.81,48.29,48.29,0,0,1,19.68,19.47,53.57,53.57,0,0,1,7.05,26.41,53.39,53.39,0,0,1-6.94,26.18,49,49,0,0,1-19.47,19.5,53.35,53.35,0,0,1-26.21,6.95,53.32,53.32,0,0,1-26.21-6.95,49.26,49.26,0,0,1-19.51-19.5,53.22,53.22,0,0,1-7-26.18,53.39,53.39,0,0,1,7.08-26.41,48.45,48.45,0,0,1,19.72-19.47A53.94,53.94,0,0,1,2259-1171.73Zm0,8.72a44.84,44.84,0,0,0-21.6,5.69,40.9,40.9,0,0,0-16.44,16.26,44.45,44.45,0,0,0-5.93,22,44,44,0,0,0,5.83,21.81,41.23,41.23,0,0,0,16.29,16.26,44.26,44.26,0,0,0,21.85,5.83,44.25,44.25,0,0,0,21.84-5.83,41,41,0,0,0,16.26-16.26,44.21,44.21,0,0,0,5.8-21.81,44.63,44.63,0,0,0-5.9-22,40.59,40.59,0,0,0-16.44-16.26A44.89,44.89,0,0,0,2259-1163Zm-23.1,73.08v-56.67h19.47q10,0,14.45,1.57a14,14,0,0,1,7.12,5.47,14.62,14.62,0,0,1,2.65,8.31,15.12,15.12,0,0,1-4.43,10.82,17.53,17.53,0,0,1-11.76,5.16,15.6,15.6,0,0,1,4.81,3,65.33,65.33,0,0,1,8.38,11.24l6.91,11.1H2272.3l-5-8.94q-5.92-10.53-9.56-13.19c-1.67-1.3-4.12-2-7.33-2H2245v24.08Zm9.14-31.9h11.1q7.95,0,10.85-2.37a7.72,7.72,0,0,0,2.9-6.28,7.63,7.63,0,0,0-1.4-4.5,8.29,8.29,0,0,0-3.87-3c-1.66-.65-4.71-1-9.18-1H2245Z" transform="translate(-366.41 1438.18)"/>
    </g>
  </g>
</svg>
