<?xml version="1.0" encoding="UTF-8"?>
<svg width="800px" height="400px" viewBox="0 0 800 400" version="1.1" xmlns="http://www.w3.org/2000/svg" xmlns:xlink="http://www.w3.org/1999/xlink">
    <title>electronicarts_3</title>
    <g id="Page-1" stroke="none" stroke-width="1" fill="none" fill-rule="evenodd">
        <g id="electronicarts_3" fill="#000000">
            <line x1="0" y1="0" x2="800" y2="400" id="Path" fill-rule="nonzero"></line>
            <path d="M2.46430485,210.462814 L2.46430485,190.147439 C2.46430485,186.453311 1.84939324,182.759183 0,179.055738 L25.2486432,179.055738 L22.1694268,185.833741 C19.3701391,184.156709 15.5544686,183.492211 11.1809075,183.385252 L9.23764936,183.369436 L9.23764936,198.155265 L23.4039084,198.155265 L19.0948687,203.694128 L17.3541528,203.282308 C15.2012912,202.803104 12.5937831,202.327658 9.24230778,201.849393 L9.24230778,217.245476 L11.0870426,217.245476 C16.6259055,217.245476 22.1740852,216.015652 27.7129481,214.170917 L24.6337316,220.939604 L0,220.939604 C1.63976428,218.202522 2.31149713,214.979585 2.44052709,211.69612 L2.46430485,210.462814 Z M60.9694175,190.147439 L60.9694175,217.240817 C68.3576736,216.621247 73.9011949,215.396082 78.8298046,213.546689 L75.1356765,220.934945 L52.3466797,220.934945 C53.5811613,217.860387 54.196073,214.166259 54.196073,210.462814 L54.196073,190.147439 C54.196073,186.453311 53.5811613,182.759183 52.3466797,179.055738 L63.4290639,179.055738 C61.7892996,182.347689 61.1212475,185.632279 60.9930355,188.91605 L60.9694175,190.147439 Z M103.463536,210.462814 L103.463536,190.147439 C103.463536,186.453311 102.848625,182.759183 100.999231,179.055738 L126.247875,179.055738 L123.168658,185.833741 C120.36937,184.156709 116.54985,183.492211 112.179089,183.385252 L110.236881,183.369436 L110.236881,198.155265 L124.40314,198.155265 L120.709012,203.694128 C118.244707,203.074558 114.550579,202.464305 110.236881,201.849393 L110.236881,217.245476 L112.081616,217.245476 C118.240048,217.245476 123.78357,216.015652 128.712179,214.170917 L125.632963,220.939604 L100.994573,220.939604 C102.642619,218.202522 103.311591,214.979585 103.439905,211.69612 L103.463536,210.462814 Z M175.519996,221.554515 C169.361563,221.554515 164.432954,219.70978 160.738826,217.240817 C155.195304,212.927119 152.116088,207.388256 152.116088,200.610253 C152.116088,193.841567 155.195304,188.298046 160.738826,183.989006 C165.667435,180.294878 171.82121,179.055738 178.599213,179.055738 L181.068764,179.069336 C183.965772,179.11693 186.946068,179.331102 190.301167,180.294878 L189.686255,187.683134 C186.607039,185.218829 181.678429,183.989006 177.36939,183.989006 C166.897259,183.989006 160.123914,190.147439 160.123914,200.610253 C160.123914,210.462814 166.897259,216.015652 176.749819,216.015652 C181.678429,216.015652 186.60238,214.776512 190.916079,211.082384 L190.916079,218.47064 C185.926909,220.135094 180.93774,221.30147 176.848508,221.5181 L175.519996,221.554515 Z M213.700417,186.453311 L216.164722,179.055738 L251.270584,179.055738 L248.191368,186.453311 C244.49724,184.599259 240.803112,183.989006 235.259591,183.989006 L235.259591,210.467473 C235.259591,214.170917 235.874502,217.865046 237.719237,220.939604 L226.636853,220.939604 C227.871334,217.865046 228.486246,214.170917 228.486246,210.467473 L228.486246,183.989006 C222.836746,183.989006 218.745164,184.501788 214.77982,186.015344 L213.700417,186.453311 Z M282.677661,183.369436 C289.451005,183.369436 293.145133,186.453311 293.145133,191.377262 C293.145133,196.31053 289.451005,199.385088 282.677661,200.610253 L282.677661,183.369436 Z M282.67951,211.572953 L282.677661,201.844735 C291.91531,214.771854 298.693313,220.934945 300.533389,220.934945 L307.311392,220.934945 C301.152959,215.396082 295.609438,208.613421 291.29574,201.844735 C297.454173,200 300.533389,196.305872 300.533389,191.372604 C300.533389,183.364778 294.379615,179.05108 280.828267,179.05108 L273.440011,179.05108 C274.674493,182.754524 275.289404,186.448653 275.289404,190.142781 L275.289404,210.458156 C275.289404,214.161601 274.674493,217.855729 273.440011,220.930287 L284.527054,220.930287 C282.8626,218.167377 282.696154,214.898842 282.67951,211.572953 L282.67951,211.572953 Z M353.504297,216.625905 C347.960776,216.625905 343.647078,214.170917 340.567862,210.467473 C338.103557,206.782661 336.873733,203.079216 336.873733,199.385088 C336.873733,190.152097 343.032166,183.989006 351.654904,183.989006 C357.198425,183.989006 362.127035,186.453311 365.201593,190.757692 C367.046328,193.841567 368.28081,197.535695 368.28081,201.229823 C368.28081,210.144435 362.539773,216.197214 354.386897,216.604047 L353.504297,216.625905 Z M375.673724,200 C375.673724,193.841567 373.209419,188.298046 368.90038,184.594601 C364.59134,180.900473 359.04316,179.055738 352.884727,179.055738 C345.496471,179.055738 338.718468,181.520043 334.414087,186.453311 C330.715301,190.147439 328.870566,194.461137 328.870566,200 C328.870566,206.778003 331.949782,212.927119 336.878392,216.621247 C341.807002,219.705122 346.730953,221.554515 352.274474,221.554515 C358.432907,221.554515 363.976428,219.70978 368.290126,216.015652 C372.901964,211.97156 375.356096,206.846569 375.644848,201.14735 L375.673724,200 Z M412.00941,220.934945 L401.537279,220.934945 C403.386672,217.860387 404.001584,214.166259 404.001584,210.462814 L404.001584,185.214171 L398.458063,179.055738 L410.160017,179.055738 L410.160017,179.675308 C410.160017,181.520043 411.38984,182.759183 412.619663,184.599259 L433.559267,211.087043 L433.559267,190.152097 C433.559267,186.457969 432.939697,182.763841 431.714532,179.060396 L442.182005,179.060396 C440.521743,182.393497 440.355717,185.719051 440.339114,189.04385 L440.344018,213.174469 C440.367636,216.151322 440.473917,218.548281 440.952181,220.939604 L431.71919,220.939604 C431.09962,219.094869 430.484709,217.865046 429.869797,216.625905 L410.169334,192.616402 L410.169334,210.467473 C410.161181,213.703911 410.630954,216.936782 411.575531,219.754145 L412.00941,220.934945 Z M477.902779,190.147439 L477.902779,210.462814 C477.902779,214.166259 478.51769,217.860387 480.367084,220.934945 L469.280041,220.934945 C470.509864,217.860387 471.124776,214.166259 471.124776,210.462814 L471.124776,190.147439 C471.124776,186.453311 470.505206,182.759183 469.280041,179.055738 L480.367084,179.055738 C478.723178,182.347689 478.054666,185.632279 477.926403,188.91605 L477.902779,190.147439 Z M529.019635,221.554515 C523.480772,221.554515 518.552163,219.70978 514.238465,217.240817 C508.699602,212.927119 505.615727,207.388256 505.615727,200.610253 C505.615727,193.841567 508.694943,188.298046 514.238465,183.989006 C518.8385,180.541153 524.509849,179.231868 531.25251,179.07262 L532.713763,179.055738 C535.79298,179.055738 539.491766,179.055738 543.800806,180.294878 L543.800806,187.683134 C540.106678,185.218829 535.79298,183.989006 530.869028,183.989006 C521.016468,183.989006 514.243123,190.147439 514.243123,200.610253 C514.243123,210.462814 520.401556,216.015652 530.258775,216.015652 C535.797638,216.015652 540.111336,214.776512 545.035288,211.082384 L545.035288,218.47064 C539.488505,220.135094 534.945427,221.30147 530.499322,221.5181 L529.019635,221.554515 Z M612.163138,203.074558 L618.321571,191.372604 L623.860434,203.074558 L612.163138,203.074558 Z M609.694175,208.007826 L626.324739,208.007826 L629.399297,214.776512 L629.914982,215.850095 C630.320048,216.766704 630.633778,217.769215 630.633778,219.09021 L630.633778,220.934945 L642.335732,220.934945 L640.708288,218.890812 C638.839961,216.520602 637.133829,214.229924 636.1773,212.316866 L618.936482,178.445485 L601.076095,211.082384 C598.616449,214.776512 596.762397,218.47064 594.302751,220.934945 L605.389793,220.934945 C604.770223,220.934945 604.770223,220.315375 604.770223,219.705122 C604.770223,217.860387 605.389793,216.010994 606.619617,213.546689 L609.694175,208.007826 Z M672.517644,183.369436 C679.290988,183.369436 683.600028,186.453311 683.600028,191.377262 C683.600028,196.31053 679.9059,199.385088 672.517644,200.610253 L672.517644,183.369436 Z M672.517644,210.462814 L672.517644,201.844735 C682.365546,214.771854 689.143549,220.934945 690.992942,220.934945 L697.766287,220.934945 C691.607854,215.396082 686.064333,208.613421 681.750635,201.844735 C687.909068,200 690.988284,196.305872 690.988284,191.372604 C690.988284,183.364778 684.21494,179.05108 671.283162,179.05108 L663.890248,179.05108 C665.124729,182.754524 665.734982,186.448653 665.734982,190.142781 L665.734982,210.458156 C665.734982,214.161601 665.120071,217.855729 663.890248,220.930287 L674.97729,220.930287 C673.337526,218.201487 672.669474,214.97947 672.541262,211.696107 L672.517644,210.462814 Z M715.626674,186.453311 L717.471409,179.055738 L752.572613,179.055738 L749.498055,186.453311 C746.418839,184.599259 742.105141,183.989006 737.176531,183.989006 L737.176531,210.467473 C737.176531,214.170917 737.796101,217.865046 739.021266,220.939604 L727.938882,220.939604 C729.168705,217.865046 729.783616,214.170917 729.783616,210.467473 L729.783616,183.989006 C724.748286,183.989006 720.221148,184.493348 716.664193,185.978023 L715.626674,186.453311 Z M785.833741,216.015652 C790.142781,216.015652 792.607085,214.170917 792.607085,211.082384 C792.607085,207.5376 790.098566,205.65463 786.46309,203.726687 L783.984348,202.464305 C777.825915,199.38043 774.746698,196.916125 774.746698,191.372604 C774.746698,184.594601 780.905131,179.05108 788.908299,179.05108 L790.63557,179.064678 C792.741375,179.112272 795.137126,179.326444 797.535695,180.29022 L796.916125,187.678476 C795.07139,185.214171 792.607085,183.984348 788.908299,183.984348 C785.214171,183.984348 782.134954,186.448653 782.134954,190.142781 C782.134954,193.836909 785.214171,195.066732 789.527869,197.531037 C792.607085,199.375772 795.07139,199.995342 796.916125,202.464305 C799.38043,204.30904 800,206.778003 800,209.852561 C800,216.621247 794.456479,221.554515 783.984348,221.554515 C781.520043,221.554515 779.055738,220.934945 776.591433,220.315375 L776.591433,210.462814 C778.870476,213.881379 781.665529,215.72016 784.991247,215.982821 L785.833741,216.015652 Z" id="Shape"></path>
        </g>
    </g>
</svg>