<?xml version="1.0" encoding="UTF-8"?>
<svg width="800px" height="400px" viewBox="0 0 800 400" version="1.1" xmlns="http://www.w3.org/2000/svg" xmlns:xlink="http://www.w3.org/1999/xlink">
    <title>electronicarts_2</title>
    <g id="Page-1" stroke="none" stroke-width="1" fill="none" fill-rule="evenodd">
        <g id="Manufacturer" fill="#000000" fill-rule="nonzero">
            <g id="electronicarts_2">
                <line x1="5.68434189e-14" y1="0" x2="800" y2="400" id="Path"></line>
                <path d="M664.428,222.9045 L664.428,178.0875 L674.075,178.0875 L674.075,222.9045 L664.428,222.9045 Z M679.501,205.2185 L679.501,195.7065 L682.649,195.7065 L682.649,195.7065 C683.765667,195.7065 684.592,195.6735 685.128,195.6075 L685.128,195.6075 L685.128,195.6075 C685.664,195.5415 686.177667,195.3985 686.669,195.1785 L686.669,195.1785 L686.669,195.1785 C687.383667,194.871167 687.953,194.399167 688.377,193.7625 L688.377,193.7625 L688.377,193.7625 C688.801667,193.125167 689.014,192.411167 689.014,191.6205 L689.014,191.6205 L689.014,191.6205 C689.014,190.961167 688.857667,190.346167 688.545,189.7755 L688.545,189.7755 L688.545,189.7755 C688.232333,189.204167 687.830333,188.742833 687.339,188.3915 L687.339,188.3915 L687.339,188.3915 C686.847667,188.0835 686.300667,187.874833 685.698,187.7655 L685.698,187.7655 L685.698,187.7655 C685.094667,187.6555 684.234667,187.6005 683.118,187.6005 L683.118,187.6005 L679.501,187.6005 L679.501,178.0875 L682.516,178.0875 L682.516,178.0875 C683.944667,178.0875 685.206,178.1435 686.3,178.2555 L686.3,178.2555 L686.3,178.2555 C687.394667,178.366833 688.399667,178.5565 689.315,178.8245 L689.315,178.8245 L689.315,178.8245 C690.230333,179.0925 691.056667,179.449833 691.794,179.8965 L691.794,179.8965 L691.794,179.8965 C692.530667,180.343167 693.256333,180.879167 693.971,181.5045 L693.971,181.5045 L693.971,181.5045 C695.400333,182.799167 696.516667,184.3175 697.32,186.0595 L697.32,186.0595 L697.32,186.0595 C698.124,187.8015 698.526,189.654833 698.526,191.6195 L698.526,191.6195 L698.526,191.6195 C698.526,193.718833 698.068333,195.7175 697.153,197.6155 L697.153,197.6155 L697.153,197.6155 C696.237667,199.5135 694.953667,201.110167 693.301,202.4055 L693.301,202.4055 L693.301,202.4055 C692.005667,203.432167 690.599,204.157833 689.081,204.5825 L689.081,204.5825 L689.081,204.5825 C687.562333,205.0065 685.597,205.2185 683.185,205.2185 L683.185,205.2185 L679.501,205.2185 Z M688.143,222.9045 L683.252,209.1715 L683.252,209.1715 C685.306667,209.126833 687.059667,208.948167 688.511,208.6355 L688.511,208.6355 L688.511,208.6355 C689.962333,208.322833 691.380333,207.809167 692.765,207.0945 L692.765,207.0945 L698.325,222.9045 L688.143,222.9045 Z M729.668,222.9045 L729.668,192.9595 L739.315,192.9595 L739.315,222.9045 L729.668,222.9045 Z M719.352,187.4665 L719.352,178.0875 L749.565,178.0875 L749.565,187.4665 L719.352,187.4665 Z M770.323,209.3895 L779.836,209.3895 L779.836,209.3895 C780.327333,212.8615 782.113667,214.5975 785.195,214.5975 L785.195,214.5975 L785.195,214.5975 C786.669,214.5975 787.897333,214.097167 788.88,213.0965 L788.88,213.0965 L788.88,213.0965 C789.862,212.095833 790.353,210.837833 790.353,209.3225 L790.353,209.3225 L790.353,209.3225 C790.353,208.163167 790.063,207.204167 789.483,206.4455 L789.483,206.4455 L789.483,206.4455 C788.902333,205.686833 787.964333,205.0175 786.669,204.4375 L786.669,204.4375 L791.023,195.8665 L791.023,195.8665 C797.007667,198.589833 800,203.0085 800,209.1225 L800,209.1225 L800,209.1225 C800,211.2165 799.620333,213.169833 798.861,214.9825 L798.861,214.9825 L798.861,214.9825 C798.101667,216.7945 797.052333,218.375167 795.713,219.7245 L795.713,219.7245 L795.713,219.7245 C794.373,221.073833 792.798667,222.142167 790.99,222.9295 L790.99,222.9295 L790.99,222.9295 C789.181333,223.716833 787.227333,224.1105 785.128,224.1105 L785.128,224.1105 L785.128,224.1105 C782.538,224.1105 780.115333,223.480833 777.86,222.2215 L777.86,222.2215 L777.86,222.2215 C775.604667,220.9615 773.807,219.207167 772.467,216.9585 L772.467,216.9585 L772.467,216.9585 C771.797,215.8345 771.294667,214.693167 770.96,213.5345 L770.96,213.5345 L770.96,213.5345 C770.624667,212.375833 770.412333,210.994167 770.323,209.3895 L770.323,209.3895 Z M797.923,190.3315 L787.942,190.3315 L787.942,190.3315 C787.629333,187.796167 786.468,186.5285 784.458,186.5285 L784.458,186.5285 L784.458,186.5285 C783.430667,186.5285 782.582333,186.884167 781.913,187.5955 L781.913,187.5955 L781.913,187.5955 C781.243,188.306167 780.908,189.173833 780.908,190.1985 L780.908,190.1985 L780.908,190.1985 C780.908,191.625167 781.6,192.672833 782.984,193.3415 L782.984,193.3415 L782.984,193.3415 C783.252,193.430833 783.52,193.520167 783.788,193.6095 L783.788,193.6095 L783.788,193.6095 C784.056,193.698833 784.703667,193.854833 785.731,194.0775 L785.731,194.0775 L781.377,202.7815 L781.377,202.7815 C779.813667,202.334833 778.563,201.865833 777.625,201.3745 L777.625,201.3745 L777.625,201.3745 C776.687,200.883833 775.794,200.236833 774.946,199.4335 L774.946,199.4335 L774.946,199.4335 C773.784667,198.272833 772.88,196.9005 772.232,195.3165 L772.232,195.3165 L772.232,195.3165 C771.584667,193.7325 771.261,192.0265 771.261,190.1985 L771.261,190.1985 L771.261,190.1985 C771.261,188.329167 771.596,186.597833 772.266,185.0045 L772.266,185.0045 L772.266,185.0045 C772.936,183.411833 773.874,182.0195 775.08,180.8275 L775.08,180.8275 L775.08,180.8275 C776.285333,179.6355 777.692,178.702167 779.3,178.0275 L779.3,178.0275 L779.3,178.0275 C780.908,177.352833 782.649667,177.0155 784.525,177.0155 L784.525,177.0155 L784.525,177.0155 C786.445667,177.0155 788.198667,177.3305 789.784,177.9605 L789.784,177.9605 L789.784,177.9605 C791.369333,178.589833 792.753667,179.489167 793.937,180.6585 L793.937,180.6585 L793.937,180.6585 C795.121,181.8285 796.059,183.2325 796.751,184.8705 L796.751,184.8705 L796.751,184.8705 C797.443,186.5085 797.833667,188.328833 797.923,190.3315 L797.923,190.3315 Z M418.255,222.9045 L418.255,196.5105 L427.902,204.9505 L427.902,222.9045 L418.255,222.9045 Z M418.255,189.4095 L418.255,176.6135 L448.133,203.0755 L448.133,178.0875 L457.779,178.0875 L457.779,224.3115 L418.255,189.4095 Z M480.363,222.9045 L480.363,178.0875 L490.01,178.0875 L490.01,222.9045 L480.363,222.9045 Z M531.553,214.3965 L531.553,224.1775 L531.553,224.1775 C528.471,223.730833 525.646,222.815167 523.078,221.4305 L523.078,221.4305 L523.078,221.4305 C520.51,220.045833 518.288333,218.315167 516.413,216.2385 L516.413,216.2385 L516.413,216.2385 C514.537,214.161833 513.085333,211.794833 512.058,209.1375 L512.058,209.1375 L512.058,209.1375 C511.030667,206.480167 510.517,203.633167 510.517,200.5965 L510.517,200.5965 L510.517,200.5965 C510.517,197.6045 511.030667,194.7685 512.058,192.0885 L512.058,192.0885 L512.058,192.0885 C513.085333,189.409167 514.525667,187.031167 516.379,184.9545 L516.379,184.9545 L516.379,184.9545 C518.232333,182.877833 520.443,181.147167 523.011,179.7625 L523.011,179.7625 L523.011,179.7625 C525.579,178.377833 528.426333,177.439833 531.553,176.9485 L531.553,176.9485 L531.553,186.7295 L531.553,186.7295 C528.069,187.578167 525.3,189.241833 523.246,191.7205 L523.246,191.7205 L523.246,191.7205 C521.191333,194.199167 520.164,197.157833 520.164,200.5965 L520.164,200.5965 L520.164,200.5965 C520.164,203.9905 521.18,206.915833 523.212,209.3725 L523.212,209.3725 L523.212,209.3725 C525.244,211.8285 528.024333,213.503167 531.553,214.3965 L531.553,214.3965 Z M536.912,224.1775 L536.912,214.3965 L536.912,214.3965 C540.44,213.7265 543.276,211.9625 545.42,209.1045 L545.42,209.1045 L553.056,214.9325 L553.056,214.9325 C548.902667,220.291833 543.521333,223.3735 536.912,224.1775 L536.912,224.1775 Z M536.912,186.7295 L536.912,176.9485 L536.912,176.9485 C540.261333,177.3505 543.309333,178.344167 546.056,179.9295 L546.056,179.9295 L546.056,179.9295 C548.802667,181.5155 551.113667,183.581167 552.989,186.1265 L552.989,186.1265 L545.42,192.0885 L545.42,192.0885 C543.186667,189.185833 540.350667,187.3995 536.912,186.7295 L536.912,186.7295 Z M198.141,214.3965 L198.141,224.1775 L198.141,224.1775 C195.059667,223.730833 192.235,222.815167 189.667,221.4305 L189.667,221.4305 L189.667,221.4305 C187.099,220.045833 184.877,218.315167 183.001,216.2385 L183.001,216.2385 L183.001,216.2385 C181.125667,214.161833 179.674333,211.794833 178.647,209.1375 L178.647,209.1375 L178.647,209.1375 C177.619667,206.480167 177.106,203.633167 177.106,200.5965 L177.106,200.5965 L177.106,200.5965 C177.106,197.6045 177.619667,194.7685 178.647,192.0885 L178.647,192.0885 L178.647,192.0885 C179.674333,189.409167 181.114667,187.031167 182.968,184.9545 L182.968,184.9545 L182.968,184.9545 C184.821333,182.877833 187.032,181.147167 189.6,179.7625 L189.6,179.7625 L189.6,179.7625 C192.168,178.377833 195.015,177.439833 198.141,176.9485 L198.141,176.9485 L198.141,186.7295 L198.141,186.7295 C194.657667,187.578167 191.888667,189.241833 189.834,191.7205 L189.834,191.7205 L189.834,191.7205 C187.78,194.199167 186.753,197.157833 186.753,200.5965 L186.753,200.5965 L186.753,200.5965 C186.753,203.9905 187.769,206.915833 189.801,209.3725 L189.801,209.3725 L189.801,209.3725 C191.833,211.8285 194.613,213.503167 198.141,214.3965 L198.141,214.3965 Z M203.5,224.1775 L203.5,214.3965 L203.5,214.3965 C207.028,213.7265 209.864,211.9625 212.008,209.1045 L212.008,209.1045 L219.645,214.9325 L219.645,214.9325 C215.491667,220.291833 210.11,223.3735 203.5,224.1775 L203.5,224.1775 Z M203.5,186.7295 L203.5,176.9485 L203.5,176.9485 C206.85,177.3505 209.898,178.344167 212.644,179.9295 L212.644,179.9295 L212.644,179.9295 C215.390667,181.5155 217.702,183.581167 219.578,186.1265 L219.578,186.1265 L212.008,192.0885 L212.008,192.0885 C209.775333,189.185833 206.939333,187.3995 203.5,186.7295 L203.5,186.7295 Z M250.72,222.9045 L250.72,192.9595 L260.367,192.9595 L260.367,222.9045 L250.72,222.9045 Z M240.404,187.4665 L240.404,178.0875 L270.616,178.0875 L270.616,187.4665 L240.404,187.4665 Z M293.653,222.9045 L293.653,178.0875 L303.299,178.0875 L303.299,222.9045 L293.653,222.9045 Z M308.726,205.2185 L308.726,195.7065 L311.874,195.7065 L311.874,195.7065 C312.990667,195.7065 313.817,195.6735 314.353,195.6075 L314.353,195.6075 L314.353,195.6075 C314.889,195.5415 315.402333,195.3985 315.893,195.1785 L315.893,195.1785 L315.893,195.1785 C316.607667,194.871167 317.177333,194.399167 317.602,193.7625 L317.602,193.7625 L317.602,193.7625 C318.026,193.125167 318.238,192.411167 318.238,191.6205 L318.238,191.6205 L318.238,191.6205 C318.238,190.961167 318.081667,190.346167 317.769,189.7755 L317.769,189.7755 L317.769,189.7755 C317.456333,189.204167 317.054333,188.742833 316.563,188.3915 L316.563,188.3915 L316.563,188.3915 C316.071667,188.0835 315.524667,187.874833 314.922,187.7655 L314.922,187.7655 L314.922,187.7655 C314.319333,187.6555 313.459667,187.6005 312.343,187.6005 L312.343,187.6005 L308.726,187.6005 L308.726,178.0875 L311.74,178.0875 L311.74,178.0875 C313.169333,178.0875 314.431,178.1435 315.525,178.2555 L315.525,178.2555 L315.525,178.2555 C316.619,178.366833 317.624,178.5565 318.54,178.8245 L318.54,178.8245 L318.54,178.8245 C319.455333,179.0925 320.281333,179.449833 321.018,179.8965 L321.018,179.8965 L321.018,179.8965 C321.755333,180.343167 322.481,180.879167 323.195,181.5045 L323.195,181.5045 L323.195,181.5045 C324.624333,182.799167 325.741,184.3175 326.545,186.0595 L326.545,186.0595 L326.545,186.0595 C327.349,187.8015 327.751,189.654833 327.751,191.6195 L327.751,191.6195 L327.751,191.6195 C327.751,193.718833 327.293333,195.7175 326.378,197.6155 L326.378,197.6155 L326.378,197.6155 C325.462,199.5135 324.178,201.110167 322.526,202.4055 L322.526,202.4055 L322.526,202.4055 C321.230667,203.432167 319.823667,204.157833 318.305,204.5825 L318.305,204.5825 L318.305,204.5825 C316.786333,205.0065 314.821333,205.2185 312.41,205.2185 L312.41,205.2185 L308.726,205.2185 Z M317.367,222.9045 L312.477,209.1715 L312.477,209.1715 C314.531667,209.126833 316.284667,208.948167 317.736,208.6355 L317.736,208.6355 L317.736,208.6355 C319.187333,208.322833 320.605333,207.809167 321.99,207.0945 L321.99,207.0945 L327.55,222.9045 L317.367,222.9045 Z M57.88,222.9045 L57.88,178.0875 L67.526,178.0875 L67.526,222.9045 L57.88,222.9045 Z M71.68,222.9045 L71.68,213.5255 L84.676,213.5255 L84.676,222.9045 L71.68,222.9045 Z M0,222.9045 L0,178.0875 L9.647,178.0875 L9.647,222.9045 L0,222.9045 Z M15.14,222.9045 L15.14,213.5255 L32.825,213.5255 L32.825,222.9045 L15.14,222.9045 Z M15.14,205.2185 L15.14,195.8405 L32.825,195.8405 L32.825,205.2185 L15.14,205.2185 Z M15.14,187.4665 L15.14,178.0875 L32.825,178.0875 L32.825,187.4665 L15.14,187.4665 Z" id="Shape"></path>
                <circle id="Oval" cx="371.367689" cy="199.50187" r="21.981243"></circle>
                <polygon id="Path" points="643.06 217.4885 596.909 217.4885 619.985 177.5205"></polygon>
                <rect id="Rectangle" x="106.615" y="175.6885" width="47.103" height="47.626"></rect>
            </g>
        </g>
    </g>
</svg>