<?xml version="1.0" encoding="UTF-8"?>
<svg width="800px" height="400px" viewBox="0 0 800 400" version="1.1" xmlns="http://www.w3.org/2000/svg" xmlns:xlink="http://www.w3.org/1999/xlink">
    <title>hal</title>
    <g id="Page-1" stroke="none" stroke-width="1" fill="none" fill-rule="evenodd">
        <g id="Manufacturer" fill="#000000" fill-rule="nonzero">
            <g id="hal">
                <line x1="0" y1="0" x2="800" y2="400" id="Path"></line>
                <path d="M735.800818,0 L735.800818,289.013227 L62.7839693,289.013227 L62.7839693,0 L735.800818,0 Z M387.406051,24.2312753 L364.565365,24.2312753 L298.809971,198.605966 L298.809971,24.2351778 L279.654256,24.2351778 L279.654256,262.415346 L298.809971,262.415346 L387.406051,24.2312753 Z M440.719246,24.2312753 L417.87856,24.2312753 L505.267179,262.415346 L524.422831,262.415346 L524.422831,246.979803 L524.71608,246.979803 L524.422831,246.20218 L524.422831,44.6374506 L543.684053,44.6374506 L543.684053,224.443935 L693.014113,224.443935 L693.014113,241.208089 L543.684053,241.208089 L543.684053,261.610357 L713.416381,261.610357 L713.416381,204.041667 L562.839767,204.041667 L562.839767,24.2351778 L505.267179,24.2351778 L505.267179,195.405544 L440.719246,24.2312753 Z M108.960658,24.2352757 L89.8049433,24.2352757 L89.8049433,262.415435 L147.37755,262.415435 L147.37755,169.251217 L241.237364,169.251217 L241.237364,262.415435 L261.639633,262.415435 L261.639633,148.848904 L126.971365,148.848904 L126.971365,242.009251 L108.960658,242.009251 L108.960658,24.2352757 Z M448.272883,151.595969 L358.613919,151.595969 L316.820723,262.415435 L339.661387,262.415435 L373.756346,171.998326 L433.126539,171.998326 L467.22537,262.415435 L490.062185,262.415435 L448.272883,151.595969 Z M146.850013,24.2352757 L126.447744,24.2352757 L126.447744,137.801775 L261.116012,137.801775 L261.116012,24.2352757 L240.709827,24.2352757 L240.709827,117.395591 L146.850013,117.395591 L146.850013,24.2352757 Z M403.082095,24.2342211 L362.306678,134.949026 L443.868894,134.949026 L403.082095,24.2342211 Z M403.083892,84.6800733 L414.099783,112.589107 L392.067957,112.589107 L403.083892,84.6800733 Z M63.7539607,308.729562 L63.7539607,382.164298 L131.463641,382.164298 L131.463641,373.576752 L73.552594,373.576752 L73.552594,308.729562 L63.7539607,308.729562 Z M144.785276,346.49282 C144.711875,346.272516 144.687408,346.10128 144.679252,345.978889 L144.675174,345.831908 C144.675174,338.895734 148.08818,337.574591 165.483513,337.574591 L167.923881,337.588897 C184.79601,337.79804 188.546637,340.387225 188.708405,351.022004 L188.713988,357.281944 L188.053379,357.281944 L187.560021,356.6328 C184.247484,352.481461 180.230388,351.808562 161.417555,351.778207 L157.326808,351.786515 C148.063685,351.856562 143.757664,352.327315 140.931841,353.538641 C135.977474,355.630496 133.995728,359.4839 133.995728,367.30081 C133.995728,373.6864 135.206793,376.879271 138.7299,379.521558 C142.149384,382.008487 146.934226,382.739887 162.355075,382.817329 L165.373389,382.824454 C180.786976,382.824454 184.640373,381.723514 188.49377,376.218661 L188.824075,376.218661 L188.713973,382.16392 L196.751064,382.16392 L196.751064,355.300191 C196.751064,343.622068 196.034449,340.031427 192.82431,336.630902 L192.457276,336.253447 C188.293603,331.876222 182.473523,330.604821 166.36363,330.531786 L164.822919,330.528391 C143.272006,330.528391 136.485761,333.586768 136.206741,343.522675 L136.201762,344.706343 C136.209918,345.122255 136.234385,345.68508 136.307786,346.492442 L144.785276,346.49282 Z M165.373427,358.93377 L167.96807,358.947368 C183.791561,359.122043 188.163511,361.025685 188.163511,367.301189 C188.163511,373.777134 184.497016,375.595645 169.54898,375.765129 L167.024882,375.778633 C154.033424,375.778633 148.638673,375.448177 146.326638,374.347388 C143.684305,373.026244 142.583335,371.154593 142.583335,367.521392 C142.583335,364.108394 143.574211,361.906437 145.776152,360.585294 L146.263777,360.325861 C148.612231,359.220087 153.175429,358.93377 165.373427,358.93377 Z M205.558753,308.729562 L205.558753,382.164298 L213.485742,382.164298 L213.485742,375.668531 L213.926149,375.668531 C217.546006,381.253472 221.457332,382.66065 235.334546,382.810703 L238.147501,382.824832 C250.533421,382.824832 255.997553,382.315857 260.21671,380.515001 L260.717397,380.292647 C268.42419,376.989751 271.617008,370.163679 271.617008,357.392423 C271.617008,345.171676 269.304965,338.675985 263.469823,334.492276 C259.096909,331.399256 253.79408,330.475977 238.352628,330.421292 L236.826334,330.418668 C222.293529,330.418668 217.779546,331.739811 214.146344,337.244664 L213.595836,337.244664 L213.595836,308.729562 L205.558753,308.729562 Z M236.936413,337.464867 L239.659367,337.480004 C248.775068,337.586464 253.608932,338.259783 256.423586,339.666823 C261.157765,342.088983 263.029409,346.933226 263.029409,356.841991 C263.029409,372.035345 259.232783,375.627917 242.143463,375.773914 L238.1957,375.765845 C227.855606,375.667366 222.588567,374.995139 219.651174,373.576752 C214.917003,371.044491 213.375641,366.970884 213.375641,356.73189 L213.392679,354.875744 C213.67736,340.208956 217.684539,337.464867 236.936413,337.464867 Z M309.490178,330.52877 L306.641171,330.547501 C296.638678,330.686263 291.415936,331.611353 287.580869,333.831666 C281.195249,337.464867 278.222627,344.621168 278.222627,356.401585 C278.222627,369.17284 280.975053,375.888735 287.801072,379.521936 C292.315086,381.944095 298.700676,382.824832 313.12338,382.824832 L315.985696,382.809932 C327.411859,382.684083 332.716612,381.740209 336.794239,379.191631 C342.739498,375.448328 345.38186,368.622332 345.38186,356.621788 C345.38186,344.511067 342.629396,337.795172 336.243806,333.941768 C331.949996,331.299481 325.454229,330.52877 309.490178,330.52877 Z M309.561215,337.579376 L310.921423,337.574969 C321.380696,337.574969 326.995651,338.235881 330.188446,339.776925 C334.922587,342.088983 336.794239,346.713023 336.794239,356.401585 C336.794239,365.539639 335.362994,370.163679 331.839894,372.69594 C328.669113,374.915515 324.280697,375.714516 313.804438,375.774885 L312.462846,375.778633 C302.884385,375.778633 297.819939,375.228125 294.406865,374.017083 C288.902013,371.815127 286.810234,367.191087 286.810234,356.952093 C286.810234,347.814039 288.461682,342.749517 292.315086,340.327433 C295.26375,338.431843 299.824114,337.644277 309.561215,337.579376 L309.561215,337.579376 Z M353.088442,331.189379 L353.088442,382.164298 L361.12548,382.164298 L361.12548,358.603541 C361.12548,341.117485 364.40602,337.705806 382.794094,337.578738 L383.915602,337.574969 C396.118014,337.574969 399.058643,339.760363 399.212596,349.594537 L399.219119,354.089527 L407.47636,354.089527 L407.47636,348.804877 C407.47636,342.199084 405.71481,337.354766 402.301812,334.382174 C399.037205,331.538753 395.067448,330.60931 386.056793,330.533864 L382.227365,330.542749 C374.097858,330.637051 370.203493,331.2194 367.401044,332.620624 C364.758682,334.051869 362.997132,335.703317 361.675988,338.015375 L361.12548,338.015375 L361.12548,331.189379 L353.088442,331.189379 Z M421.788735,346.49282 C421.715132,346.272516 421.690598,346.10128 421.68242,345.978889 L421.678331,345.831908 C421.678331,338.895734 425.091329,337.574591 442.486624,337.574591 L444.926998,337.588897 C461.799166,337.79804 465.549801,340.387225 465.711569,351.022004 L465.717152,357.281944 L465.05624,357.281944 L464.562884,356.6328 C461.250354,352.481461 457.233263,351.808562 438.420396,351.778207 L434.329646,351.786515 C425.066521,351.856562 420.760528,352.327315 417.934725,353.538641 C412.980305,355.630496 410.998552,359.4839 410.998552,367.30081 C410.998552,373.6864 412.20967,376.879271 415.732769,379.521558 C419.152253,382.008487 423.937081,382.739887 439.357911,382.817329 L442.37622,382.824454 C457.789838,382.824454 461.643242,381.723514 465.496647,376.218661 L465.827103,376.218661 L465.716699,382.16392 L473.753737,382.16392 L473.753737,355.300191 C473.753737,343.622068 473.037164,340.031427 469.827034,336.630902 L469.460002,336.253447 C465.296306,331.876222 459.476204,330.604821 443.366345,330.531786 L441.825636,330.528391 C420.274724,330.528391 413.488435,333.586768 413.209413,343.522675 L413.204446,344.706343 C413.212624,345.122255 413.237158,345.68508 413.310761,346.492442 L421.788735,346.49282 Z M442.376825,358.93377 L444.971477,358.947368 C460.795017,359.122043 465.166947,361.025685 465.166947,367.301189 C465.166947,373.777134 461.500432,375.595645 446.552374,375.765129 L444.028273,375.778633 C431.03689,375.778633 425.642064,375.448177 423.330081,374.347388 C420.687719,373.026244 419.586779,371.154593 419.586779,367.521392 C419.586779,364.108394 420.577617,361.906437 422.779574,360.585294 L423.267201,360.325861 C425.615661,359.220087 430.178821,358.93377 442.376825,358.93377 Z M490.048772,318.528225 L490.048772,331.189379 L477.49772,331.189379 L477.49772,338.125477 L490.048772,338.125477 L490.048772,362.787175 C490.048772,370.824288 490.709684,374.017083 492.911262,377.099852 C495.88393,381.173384 501.719087,382.824832 512.618691,382.824832 C523.408193,382.824832 528.913046,381.063283 531.885638,376.549344 C533.867395,373.628898 534.564599,370.609567 534.6325,363.466182 L534.638102,359.043872 L526.600988,359.043872 L526.600988,362.236742 C526.600988,368.51223 526.270532,370.383882 525.059641,372.255533 C523.298092,374.897896 520.545627,375.778633 513.389326,375.778633 C505.682593,375.778633 502.049392,374.787794 499.957537,372.255533 L499.465652,371.60824 C498.30337,369.974759 498.281622,368.756943 498.085886,360.144888 L498.085886,338.125477 L533.757289,338.125477 L533.757289,331.189379 L498.085886,331.189379 L498.085886,318.528225 L490.048772,318.528225 Z M571.410445,330.52877 L568.56142,330.547501 C558.55887,330.686263 553.336133,331.611353 549.501136,333.831666 C543.115471,337.464867 540.142879,344.621168 540.142879,356.401585 C540.142879,369.17284 542.895267,375.888735 549.721339,379.521936 C554.235278,381.944095 560.620943,382.824832 575.043646,382.824832 L577.905947,382.809932 C589.33205,382.684083 594.636809,381.740209 598.714505,379.191631 C604.659765,375.448328 607.302052,368.622332 607.302052,356.621788 C607.302052,344.511067 604.549663,337.795172 598.163998,333.941768 C593.870262,331.299481 587.374495,330.52877 571.410445,330.52877 Z M571.481481,337.579376 L572.84169,337.574969 C583.300888,337.574969 588.915842,338.235881 592.108637,339.776925 C596.842854,342.088983 598.714505,346.713023 598.714505,356.401585 C598.714505,365.539639 597.28326,370.163679 593.760161,372.69594 C590.589308,374.915515 586.200958,375.714516 575.724637,375.774885 L574.383037,375.778633 C564.804577,375.778633 559.74013,375.228125 556.327132,374.017083 C550.822279,371.815127 548.730425,367.191087 548.730425,356.952093 C548.730425,347.814039 550.381873,342.749517 554.235278,340.327433 C557.183941,338.431843 561.744375,337.644277 571.481481,337.579376 L571.481481,337.579376 Z M615.008634,331.189379 L615.008634,382.164298 L623.045747,382.164298 L623.045747,358.603541 C623.045747,341.117485 626.326214,337.705806 644.714286,337.578738 L645.835794,337.574969 C658.038205,337.574969 660.978834,339.760363 661.132787,349.594537 L661.13931,354.089527 L669.396551,354.089527 L669.396551,348.804877 C669.396551,342.199084 667.635001,337.354766 664.222003,334.382174 C660.957396,331.538753 656.98764,330.60931 647.976984,330.533864 L644.147558,330.542749 C636.018061,330.637051 632.123753,331.2194 629.321235,332.620624 C626.678948,334.051869 624.917399,335.703317 623.59618,338.015375 L623.045672,338.015375 L623.045672,331.189379 L615.008634,331.189379 Z M669.726553,331.189379 L698.461934,382.164298 L701.214323,382.164298 L700.270396,383.832062 C696.121516,390.9223 693.125966,392.513195 683.980103,392.617787 L681.649675,392.619407 C680.907536,392.611229 680.295878,392.586695 679.194912,392.513092 L679.194912,399.889596 L681.005799,399.976153 C681.548364,399.992051 682.069792,399.99735 682.689863,399.999117 L683.708926,400 C692.076269,400 695.929673,399.119263 699.783078,396.4769 L700.699838,395.799487 C704.282084,393.009854 706.947831,389.1089 712.33413,378.641199 L737.216031,331.189379 L727.747748,331.189379 L704.847524,375.668531 L703.856685,375.668531 L679.194912,331.189379 L669.726553,331.189379 Z" id="Shape"></path>
            </g>
        </g>
    </g>
</svg>