<?xml version="1.0" encoding="UTF-8"?>
<svg width="800px" height="400px" viewBox="0 0 800 400" version="1.1" xmlns="http://www.w3.org/2000/svg" xmlns:xlink="http://www.w3.org/1999/xlink">
    <title>hal_2</title>
    <g id="Page-1" stroke="none" stroke-width="1" fill="none" fill-rule="evenodd">
        <g id="hal_2" fill="#000000">
            <line x1="0" y1="0" x2="800" y2="400" id="Path" fill-rule="nonzero"></line>
            <path d="M30.509053,31.545929 C30.509053,31.9553926 31.9742904,34.3367045 33.7646901,36.8368411 L37.0203272,41.3834928 L49.7674912,41.3834928 L62.5146553,41.3834928 L64.2295852,43.7921023 L65.9445151,46.2007117 L79.8076682,46.2007117 L93.6700184,46.2007117 L95.8160894,48.6093212 L97.9621605,51.0179306 L111.469642,51.0179306 L124.976321,51.0179306 L126.050561,53.0251051 L127.124801,55.0322797 L139.763577,55.0322797 L152.402354,55.0322797 L154.4296,57.4408891 L156.456044,59.8494986 L215.904539,59.8494986 L275.353837,59.8494986 L275.819502,57.9956722 C279.154623,44.7049652 281.448422,32.4210571 280.686499,31.9248835 C279.33286,31.0433325 30.509053,30.6667865 30.509053,31.545929 M349.099839,31.484108 L337.310498,31.7916071 L336.359097,36.3864311 C335.835626,38.9138653 334.571106,44.9377975 333.54825,49.7734824 C332.525394,54.6083644 331.867041,58.85394 332.085421,59.2072027 C332.303802,59.5604654 350.66142,59.8494986 372.88004,59.8494986 L413.277237,59.8494986 L415.950794,46.2312208 C417.421651,38.7420511 418.441296,32.4306915 418.217295,32.2066908 C417.670541,31.6591336 363.920012,31.0979276 349.099839,31.484108 M720.920893,31.4961511 L711.630886,31.7972272 L709.208628,45.2212105 C707.875864,52.6044014 706.929281,58.915761 707.104306,59.2473462 C707.280135,59.5781286 727.240281,59.8494986 751.461258,59.8494986 L795.498667,59.8494986 L796.461308,54.0286924 C796.990399,50.8268476 798.075879,44.5949721 798.873129,40.1791881 C799.671181,35.7634041 800.156918,31.983493 799.953792,31.7787612 C799.496156,31.3187168 733.66324,31.083476 720.920893,31.4961511 M496.318062,38.372731 C489.394113,55.0692117 488.144847,58.2236872 488.144847,59.0008652 C488.144847,59.5853544 500.418318,59.8494986 527.585827,59.8494986 L567.026807,59.8494986 L566.504138,57.2401717 C566.216711,55.8046404 565.029267,49.6634892 563.865908,43.5913848 L561.751149,32.5519249 L530.24172,32.5519249 L498.732292,32.5519249 L496.318062,38.372731 M30.509053,73.3674176 C30.509053,73.7375406 31.9742904,76.0859348 33.7646901,78.5860714 L37.0203272,83.1327232 L49.7980003,83.1327232 L62.5756734,83.1327232 L64.3564386,85.5413326 L66.1372039,87.9499421 L80.0180201,87.9499421 L93.8988363,87.9499421 L95.2139371,89.9571166 L96.5290378,91.9642912 L109.935358,91.9642912 L123.341678,91.9642912 L125.649126,94.3729006 L127.956574,96.78151 L140.179464,96.78151 L152.402354,96.78151 L154.4296,99.1901195 L156.456044,101.598729 L211.055205,101.598729 C241.084945,101.598729 265.848662,101.28561 266.084705,100.903444 C266.624234,100.030724 272.172867,75.3489003 272.172867,73.821842 C272.172867,72.8600039 254.493674,72.6954156 151.34096,72.6954156 C84.8834112,72.6954156 30.509053,72.9980975 30.509053,73.3674176 M326.028572,85.7420501 C324.521585,92.9181005 323.125394,99.4245575 322.92548,100.200933 C322.581851,101.537711 324.784123,101.60194 363.805202,101.405237 L405.047822,101.197294 L407.625034,88.7528119 C409.042902,81.9083467 410.2175,75.4950226 410.234361,74.5018727 L410.266475,72.6954156 L369.517621,72.6954156 L328.768766,72.6954156 L326.028572,85.7420501 M476.165227,86.3056647 C472.960973,93.7916229 470.573239,100.294868 470.859863,100.757321 C471.482087,101.76412 576.943052,101.964035 577.56367,100.959645 C577.781248,100.607988 576.296742,94.1047421 574.265481,86.5079879 L570.57228,72.6954156 L526.281164,72.6954156 L481.990047,72.6954156 L476.165227,86.3056647 M704.488556,73.5456547 C703.46008,75.2108067 699.295594,100.310123 699.941102,100.95563 C700.302393,101.316922 720.248891,101.519245 744.266741,101.405237 L787.936436,101.197294 L790.142723,88.7528119 C791.356662,81.9083467 792.368278,75.4950226 792.391561,74.5018727 L792.432507,72.6954156 L748.723472,72.6954156 C718.819783,72.6954156 704.848242,72.964377 704.488556,73.5456547 M28.1967879,119.697823 L31.5046115,124.079084 L44.2300981,124.079084 L56.9555847,124.079084 L58.7363499,126.487693 L60.5171152,128.896303 L74.3979314,128.896303 L88.2787476,128.896303 L89.5938484,130.903477 L90.9089491,132.910652 L104.517592,132.910652 L118.125433,132.910652 L120.151876,135.319261 L122.179123,137.727871 L134.603533,137.727871 L147.028746,137.727871 L149.060007,140.1421 L151.09207,142.55633 L204.186654,142.349992 L257.280435,142.143655 L259.772543,130.903477 C261.143042,124.72138 262.497483,118.488701 262.782502,117.053973 L263.301156,114.444646 L144.09506,114.444646 C78.5319081,114.444646 24.8889643,114.640546 24.8889643,114.880604 C24.8889643,115.120662 26.3774849,117.288411 28.1967879,119.697823 Z M320.083321,115.046798 C319.88742,115.377581 318.553854,121.37823 317.119125,128.381663 C314.947362,138.988376 314.696867,141.232397 315.621773,141.821704 C316.234363,142.211899 334.717229,142.442322 356.875633,142.336343 L397.019123,142.143655 L399.58349,129.297738 C400.994132,122.232483 402.16873,116.000608 402.192924,115.448233 C402.228143,114.658209 393.546711,114.444646 361.338786,114.444646 C338.84398,114.444646 320.279221,114.716016 320.083321,115.046798 M462.884957,117.048353 C462.282805,118.487095 459.770625,124.340016 457.304209,130.055647 C454.83699,135.771277 452.818576,140.92811 452.818576,141.514205 C452.818576,142.39415 464.603902,142.542681 520.193002,142.362035 C557.248655,142.241605 587.807486,141.902794 588.101337,141.608943 C588.395187,141.315093 587.070452,135.173139 585.157213,127.960156 L581.679181,114.846081 L522.830429,114.639743 L463.980875,114.434209 L462.884957,117.048353 M696.515256,116.251103 C695.678666,119.971602 692.07378,140.439965 692.07378,141.471653 C692.07378,142.354809 699.90417,142.545089 736.23162,142.545089 C760.518432,142.545089 780.38946,142.440716 780.38946,142.313863 C780.38946,142.186207 781.473334,136.148626 782.798069,128.896303 C784.122805,121.64398 785.206679,115.425753 785.206679,115.077307 C785.206679,114.729665 765.342877,114.444646 741.064094,114.444646 L696.921508,114.444646 L696.515256,116.251103 M24.8889643,155.024095 C24.8889643,155.264153 26.3774849,157.431902 28.1967879,159.841314 L31.5046115,164.222574 L43.9250076,164.222574 L56.3454036,164.222574 L58.4593598,166.631184 L60.5725132,169.039793 L74.4260318,169.039793 L88.2787476,169.039793 L89.5938484,171.046968 L90.9089491,173.054142 L104.517592,173.054142 L118.125433,173.054142 L120.151876,175.462752 L122.179123,177.871361 L134.780164,177.871361 L147.382009,177.871361 L148.804694,180.279971 L150.22738,182.68858 L269.361217,182.68858 C348.867809,182.68858 388.661249,182.418013 388.996045,181.876076 C389.529954,181.012991 394.209079,157.478468 394.209079,155.659968 C394.209079,154.780023 386.821071,154.588137 352.918287,154.588137 L311.627496,154.588137 L310.710618,159.003921 L309.793741,163.419705 L281.348866,163.419705 C249.723824,163.419705 251.970254,163.853254 253.629786,158.068577 C254.268067,155.843825 254.146834,155.481731 252.626199,155.073873 C250.432758,154.485369 24.8889643,154.436394 24.8889643,155.024095 M441.019601,168.036206 L435.285505,181.484276 L440.639843,182.137009 C443.58477,182.495891 461.459863,182.676537 480.36263,182.538444 L514.731881,182.287145 L516.170624,180.378724 C517.569223,178.524897 517.622213,178.516869 518.037296,180.104142 C518.390559,181.453766 519.354003,181.82951 523.577098,182.265468 C530.251355,182.955133 597.833724,182.459762 598.575576,181.716305 C598.889498,181.402383 597.580018,175.169704 595.665173,167.866801 L592.184732,154.588137 L519.468813,154.588137 L446.753697,154.588137 L441.019601,168.036206 M689.291836,155.591724 C688.267375,158.7743 684.774088,181.277135 685.23333,181.736377 C686.074737,182.57939 771.686351,182.881269 772.522942,182.044679 C773.123488,181.444132 777.980851,157.657508 777.980851,155.319551 C777.980851,154.88841 759.826358,154.588137 733.798122,154.588137 C699.159107,154.588137 689.54474,154.804912 689.291836,155.591724 M24.8889643,192.852109 C24.8889643,193.143551 26.346173,195.311299 28.1261354,197.669328 L31.3641093,201.957456 L44.1289365,201.957456 L56.8945666,201.957456 L58.6094965,204.366065 L60.3244264,206.774675 L74.227723,206.774675 L88.1310196,206.774675 L89.4461203,208.781849 L90.7612211,210.789024 L104.357019,210.789024 L117.953619,210.789024 L120.195231,213.599068 L122.437647,216.409112 L135.06438,216.409112 C147.651773,216.409112 147.695128,216.415535 149.00782,218.418696 L150.324527,220.429082 L266.044562,220.225153 L381.764597,220.022027 L384.334583,207.17611 C385.747634,200.110855 386.922233,193.87898 386.94393,193.326605 C386.975222,192.526947 350.259985,192.323018 205.936108,192.323018 C106.360179,192.323018 24.8889643,192.56147 24.8889643,192.852109 M425.330722,204.968218 C422.398641,211.922676 419.758002,218.245276 419.462546,219.018439 C418.955935,220.34478 421.163827,220.423462 458.972573,220.423462 L499.018916,220.423462 L504.393327,207.778262 C507.348691,200.823804 509.998964,194.501204 510.282377,193.72804 C510.768113,192.401699 508.549784,192.323018 470.729798,192.323018 L430.66258,192.323018 L425.330722,204.968218 M521.86538,193.142748 C521.86538,193.593158 523.355506,199.915758 525.176415,207.19297 L528.48745,220.423462 L568.987415,220.423462 C607.175918,220.423462 609.463294,220.343175 609.082733,219.018439 C608.861141,218.245276 607.371015,212.555337 605.772501,206.37324 C604.173987,200.191142 602.680649,194.501204 602.455043,193.72804 C602.070468,192.414545 599.443478,192.323018 561.955078,192.323018 C535.225133,192.323018 521.86538,192.595994 521.86538,193.142748 M682.836763,193.132311 C682.400805,193.838033 677.645407,218.213161 677.628547,219.827732 C677.625335,220.163332 697.583073,220.343977 721.980681,220.229167 L766.339238,220.022027 L768.498155,208.380414 C769.6856,201.977528 770.679552,195.744849 770.706047,194.53091 L770.755022,192.323018 L727.045987,192.323018 C698.551334,192.323018 683.162728,192.604825 682.836763,193.132311 M16.8602661,229.690988 C16.8602661,229.931046 18.3487867,232.098794 20.1680897,234.508207 L23.4759134,238.889467 L36.0930125,238.889467 L48.7093088,238.889467 L50.8553798,241.298077 L53.0014508,243.706686 L66.5041154,243.706686 C79.8694892,243.706686 80.0260488,243.727561 81.8927211,245.713861 C83.7529705,247.693738 83.9528851,247.721035 96.7353754,247.721035 L109.692891,247.721035 L112.000339,250.129645 L114.307787,252.538254 L126.530677,252.538254 L138.753567,252.538254 L140.780813,254.946864 L142.807257,257.355473 L187.308725,257.355473 L231.810193,257.355473 L232.832246,252.538254 L233.8543,247.721035 L263.521945,247.721035 L293.188788,247.721035 L292.658091,251.133232 C292.365846,253.009539 291.947551,255.181302 291.728367,255.957677 C291.350216,257.294455 293.556502,257.358684 332.934055,257.161981 L374.538769,256.954038 L377.075837,244.509556 C378.471225,237.665091 379.645021,231.433215 379.685536,230.660052 C379.753408,229.325682 370.609524,229.255029 198.308844,229.255029 C98.5121263,229.255029 16.8602661,229.45093 16.8602661,229.690988 M414.764955,229.924623 C414.53694,230.29314 411.829663,236.455166 408.747446,243.61837 C405.023735,252.27411 403.463759,256.765364 404.096421,257.007028 C404.619892,257.207745 422.688477,257.277595 444.248743,257.162784 L483.449665,256.954038 L487.061776,248.523905 C489.048076,243.887332 491.714407,237.654654 492.986152,234.674401 L495.29922,229.255029 L455.238425,229.255029 C433.205269,229.255029 414.992167,229.556106 414.764955,229.924623 M531.499817,230.098846 C531.499817,231.321616 536.958529,252.81123 537.894675,255.273632 L538.685502,257.355473 L578.849065,257.355473 C600.939225,257.355473 619.012627,257.201322 619.012627,257.012648 C619.012627,256.726826 616.690728,247.863946 612.528651,232.265791 L611.724978,229.255029 L571.611996,229.255029 C544.111296,229.255029 531.499817,229.519977 531.499817,230.098846 M675.640641,231.061487 C674.804051,234.781985 671.199165,255.250348 671.199165,256.282036 C671.199165,257.165193 678.966128,257.355473 714.97243,257.355473 L758.746498,257.355473 L759.50521,255.549016 C760.206919,253.880652 764.332064,232.167841 764.332064,230.147018 C764.332064,229.503919 752.017647,229.255029 720.189478,229.255029 L676.046893,229.255029 L675.640641,231.061487 M7.22582833,265.511827 C7.22582833,266.024058 8.68303705,268.372453 10.4629994,270.730481 L13.7009734,275.018609 L26.3694562,275.018609 L39.0387419,275.018609 L40.8195071,277.427218 L42.6002724,279.835828 L56.534078,279.835828 C70.3530733,279.835828 70.478321,279.851885 71.7291921,281.76111 C72.9664145,283.649459 73.259462,283.692012 86.7516892,283.969002 L100.512075,284.251612 L102.271966,286.459504 L104.031856,288.667396 L116.591952,288.667396 L129.15285,288.667396 L130.86778,291.076005 L132.58271,293.484615 L177.84289,293.484615 C205.393368,293.484615 223.286124,293.187553 223.571946,292.725903 C224.162858,291.768882 229.620767,267.494113 229.620767,265.820129 C229.620767,264.709761 218.122066,264.581301 118.423298,264.581301 C34.6494526,264.581301 7.22582833,264.810922 7.22582833,265.511827 M290.237438,265.584889 C289.408074,267.958975 285.225122,292.335708 285.554298,292.882462 C286.093024,293.777662 366.72524,293.632343 367.280023,292.734734 C367.944799,291.659692 372.531594,268.712067 372.531594,266.463228 L372.531594,264.581301 L331.560345,264.581301 C299.504964,264.581301 290.51202,264.799682 290.237438,265.584889 M398.285249,267.993498 C390.591348,285.650211 387.786121,292.287536 387.786121,292.837502 C387.786121,293.193173 442.018371,293.484615 508.3025,293.484615 C604.373099,293.484615 628.745818,293.280686 628.456785,292.481027 C628.257673,291.929456 626.518657,285.425407 624.59177,278.029371 L621.088046,264.581301 L580.709314,264.581301 C558.501935,264.581301 540.3354,264.851868 540.340217,265.183454 C540.345034,265.515039 540.887774,267.561554 541.546127,269.731711 C542.204481,271.901868 542.617959,273.803064 542.46461,273.955609 C542.312065,274.108957 527.350586,274.139466 509.217771,274.023853 L476.248725,273.814304 L478.126638,269.197803 L480.005353,264.581301 L439.888357,264.581301 L399.772164,264.581301 L398.285249,267.993498 M669.217683,266.387758 C668.214898,270.846095 664.776207,290.682599 664.776207,292.009743 C664.776207,293.422794 666.61237,293.484615 708.832082,293.484615 L752.88876,293.484615 L754.966587,282.445155 C756.109071,276.373853 757.284472,269.869805 757.579126,267.993498 L758.11464,264.581301 L713.869287,264.581301 L669.623935,264.581301 L669.217683,266.387758 M7.7613425,302.851697 C6.64374772,303.969292 7.33100428,305.735605 10.533652,309.977969 L13.8414756,314.35923 L26.5332416,314.35923 C39.1142116,314.35923 39.2378536,314.376893 40.8026469,316.366404 C42.3770746,318.367156 42.423641,318.373579 56.0916967,318.373579 L69.8015017,318.373579 L71.582267,320.782188 L73.3630322,323.190798 L86.9130661,323.190798 L100.462297,323.190798 L102.48874,325.599407 L104.515987,328.008017 L116.974118,328.008017 C129.307001,328.008017 129.448306,328.028088 131.011494,330.015191 L132.589936,332.022366 L173.86467,332.022366 L215.138601,332.022366 L215.565728,330.215909 C218.540361,317.635742 221.413832,303.480344 221.095895,302.966507 C220.617385,302.190935 8.535309,302.076927 7.7613425,302.851697 M283.050147,304.12264 C281.916495,309.324433 278.595826,328.866285 278.595826,330.334733 L278.595826,332.036817 L319.30534,331.828874 L360.014854,331.620931 L362.621772,318.775014 C364.055697,311.709759 365.246353,305.116593 365.267228,304.12264 L365.305766,302.316183 L324.37466,302.316183 L283.443554,302.316183 L283.050147,304.12264 M382.894235,304.062424 C382.380398,305.022657 379.49087,311.615824 376.474488,318.714799 L370.988478,331.620931 L504.365226,331.824057 C577.721836,331.935656 637.921014,331.848143 638.139395,331.62896 C638.464557,331.3046 635.212131,317.836459 631.691547,304.92551 L630.980205,302.316183 L507.404089,302.316183 L383.827972,302.316183 L382.894235,304.062424 M662.84129,303.001833 C662.442264,303.647341 657.550378,329.83856 657.550378,331.328686 C657.550378,331.710049 677.382066,332.022366 701.621508,332.022366 L745.691835,332.022366 L746.131808,330.215909 C746.373472,329.221956 747.506321,323.351372 748.648002,317.169274 C749.790486,310.987177 750.90246,305.116593 751.120841,304.12264 L751.516656,302.316183 L707.390931,302.316183 C683.121782,302.316183 663.074926,302.624485 662.84129,303.001833 M665.513241,341.452875 L655.41073,341.702567 L653.269477,353.986475 C652.090864,360.742625 651.12742,366.874142 651.12742,367.612782 C651.12742,368.850004 654.555674,368.954377 695.28526,368.954377 C719.572072,368.954377 739.443099,368.822707 739.443099,368.662133 C739.443099,368.501559 740.526974,362.370042 741.851709,355.035023 C743.176444,347.700808 744.260318,341.509878 744.260318,341.277046 C744.260318,340.852328 684.397542,340.985604 665.513241,341.452875 M5.68434189e-14,342.079113 C5.68434189e-14,342.311142 1.34159546,344.298245 2.98105562,346.494897 L5.96291411,350.488372 L18.5663645,350.488372 L31.169012,350.488372 L33.1962582,352.896981 L35.2227016,355.30559 L48.8522196,355.30559 L62.4809347,355.30559 L64.508181,357.7142 L66.5346244,360.122809 L80.0838554,360.122809 L93.6338893,360.122809 L95.4146545,362.531419 L97.1954198,364.940028 L109.70092,364.940028 C122.084384,364.940028 122.221675,364.9601 123.785665,366.947203 L125.364107,368.954377 L166.252661,368.954377 C188.741045,368.954377 207.140412,368.766506 207.140412,368.537688 C207.140412,368.30887 208.404932,362.559519 209.950457,355.762423 C211.495981,348.965328 212.760501,343.011245 212.760501,342.530326 C212.760501,341.90489 182.509169,341.656804 106.38025,341.656804 C47.8711127,341.656804 5.68434189e-14,341.847084 5.68434189e-14,342.079113 M276.169553,341.857521 C276.159919,341.967514 275.115385,347.838901 273.847654,354.904156 C272.579922,361.96941 271.796321,368.024654 272.106229,368.359451 C272.416137,368.69505 290.69668,368.875696 312.729836,368.760886 L352.789828,368.552942 L354.95838,357.7142 C356.151444,351.752891 357.318817,345.701662 357.553255,344.26613 L357.978776,341.656804 L317.082996,341.656804 C294.590598,341.656804 276.179188,341.747528 276.169553,341.857521 M365.120303,345.470435 C364.184157,347.568334 361.544321,353.619564 359.25293,358.918505 L355.086839,368.552942 L394.518987,368.761689 C416.206909,368.876499 434.327681,368.826721 434.788528,368.65009 C435.249375,368.473458 437.185897,364.676687 439.09191,360.211928 L442.558702,352.094111 L502.989107,352.094111 L563.419513,352.094111 L564.762714,357.513482 C565.501354,360.493735 566.462389,364.288098 566.898348,365.943615 L567.69078,368.954377 L607.803762,368.954377 C641.392623,368.954377 647.915941,368.773732 647.915941,367.845614 C647.915941,367.235433 646.470775,361.23077 644.704461,354.502721 C642.938148,347.774672 641.492982,342.1313 641.492982,341.962697 C641.492982,341.794897 579.692078,341.656804 504.157283,341.656804 L366.821584,341.656804 L365.120303,345.470435" id="Shape"></path>
        </g>
    </g>
</svg>