<?xml version="1.0" encoding="UTF-8"?>
<svg width="800px" height="400px" viewBox="0 0 800 400" version="1.1" xmlns="http://www.w3.org/2000/svg" xmlns:xlink="http://www.w3.org/1999/xlink">
    <title>hal_3</title>
    <g id="Page-1" stroke="none" stroke-width="1" fill="none" fill-rule="evenodd">
        <g id="Manufacturer" fill="#000000" fill-rule="nonzero">
            <g id="hal_3">
                <line x1="0" y1="0" x2="800" y2="400" id="Path"></line>
                <g id="Group-4" transform="translate(124.745000, 0.000000)">
                    <path d="M429.417682,28.2952537 C429.599207,29.1574128 429.85376,30.9365711 430.100377,32.8178828 L430.174043,33.384526 C430.186254,33.4792057 430.198425,33.5739371 430.210545,33.6686183 L430.282586,34.2352883 C430.579572,36.587114 430.832529,38.7802551 430.883325,39.2232159 L430.892605,39.3043239 C430.911103,39.8718019 430.941779,40.3084702 431.435165,40.5552078 C432.021058,40.740254 432.606889,40.4736945 433.161939,40.1036076 C433.161939,40.1036076 439.121496,35.2545008 443.093957,32.0705443 L443.589673,31.6736294 C444.960147,30.5775107 446.026412,29.7355069 446.412426,29.4558788 C446.844143,29.7149501 449.894112,32.0373852 450.720522,32.2841061 C449.732469,33.4492813 448.141457,35.5263468 446.52745,37.6830568 L446.123804,38.2234119 C443.50136,41.7402444 440.945818,45.2842506 440.945818,45.2842506 C440.575776,45.6543486 440.452438,46.1169697 440.452438,46.5487368 C440.452438,46.7337941 440.452438,46.9188348 440.514107,47.1655612 C440.729957,47.708366 441.254175,48.337591 441.907906,48.3807065 L450.714736,50.1752965 C451.541147,50.3726877 452.392224,49.9779165 452.762267,49.3487582 C452.762267,49.3487582 458.649431,40.2765592 459.630034,38.8208627 L463.954058,39.4825106 C463.665622,40.5136504 463.326463,41.9127339 462.995102,43.3557115 L462.871321,43.8982527 C462.173265,46.9771392 461.543456,50.0713241 461.543456,50.0713241 C461.543456,50.1330043 461.420112,50.3797419 461.420112,50.5647826 C461.420112,50.8916927 461.481787,51.2988033 461.72848,51.5455241 C461.925832,52.0019811 462.474717,52.3504379 462.968103,52.3720791 L470.461429,53.6775222 C471.010315,53.9242598 471.559206,53.6775222 472.052592,53.3691156 C472.459619,53.0236852 472.706317,52.4500431 472.706317,51.9565791 C472.706317,51.9565791 472.82148,47.1746546 472.932156,42.1553325 L472.948708,41.4012217 C473.044895,36.9984838 473.133066,32.5879584 473.133066,31.2141238 L477.929848,31.4140351 C478.063048,32.5980254 478.378633,35.6710885 478.702099,38.85955 L478.809974,39.9242115 C479.013384,41.9341204 479.212233,43.9116501 479.362963,45.4140802 L479.414093,45.9239014 C479.544733,47.2269737 479.62821,48.0630592 479.62821,48.0630592 C479.82554,48.8032441 480.152383,49.3830615 480.824651,49.6297879 C481.453693,49.8765255 482.181427,49.7531595 482.736476,49.3830615 C482.736476,49.3830615 482.924617,49.1897827 483.237332,48.8766633 L483.463566,48.6509687 C483.990705,48.1269889 484.748288,47.3870208 485.544744,46.6523868 L485.914402,46.3145096 C486.718285,45.5867552 487.53157,44.8983844 488.162689,44.4707193 C488.619045,44.9950262 490.511733,47.3309968 491.005141,47.8244552 C489.351063,49.7174932 484.704825,55.361831 484.704825,55.361831 C484.396396,55.7319346 484.33481,56.2130481 484.33481,56.5831461 L484.33481,57.0149243 C484.402571,57.5392256 484.821932,58.0511819 485.31534,58.2979195 L492.353016,61.9713388 C493.136272,62.2489026 493.27285,62.7129534 494.126537,61.9542595 C494.126537,61.9542595 496.346347,58.9956064 498.267129,57.5583967 C498.694,57.8051342 500.093168,60.0042033 500.626688,60.189244 C499.691029,61.1869147 497.261723,65.5696988 494.790893,70.2528249 L494.410634,70.9752593 C494.283902,71.2165833 494.157257,71.4582812 494.030894,71.6999368 L493.65285,72.4243611 C491.831623,75.9211117 490.110963,79.3215215 489.087911,81.3572871 L488.886395,81.7585922 C488.854533,81.8220925 488.82355,81.883866 488.79347,81.9438609 L488.624019,82.2820706 C488.465795,82.5981043 488.341839,82.8463623 488.25744,83.0156118 L488.186421,83.1581092 C488.148127,83.2349953 488.128196,83.2751025 488.128196,83.2751025 C488.032953,83.4427856 487.937598,83.6687944 487.937598,83.8146194 C487.937598,84.1499802 488.080519,84.3431989 488.414038,84.5983759 L490.029229,85.9216438 C490.496156,86.359091 491.406199,86.4392859 492.011318,86.0674577 C492.011318,86.0674577 495.757736,83.2192155 499.62665,80.2829432 L500.520002,79.6050356 C503.692364,77.1980753 506.759521,74.8747948 507.719606,74.1599437 C508.41652,74.7520949 511.187651,76.030467 511.970907,76.6842985 C509.251181,80.0786798 502.880822,87.6914271 498.465015,92.1325584 C498.156642,92.4779832 497.909965,92.9652775 497.909965,93.4587415 C497.909965,93.8966727 497.971662,94.2174298 498.156642,94.5258365 C498.742568,95.2166749 499.766325,95.5867785 500.635923,95.1549947 C500.635923,95.1549947 504.708656,93.0340634 509.028858,90.7990186 L510.054808,90.2685196 C513.135249,88.6765464 516.188162,87.1069478 517.841397,86.2795843 L518.185185,86.1082362 C518.504818,85.9496912 518.750311,85.8304329 518.906607,85.7583612 C519.732979,86.3936891 522.381829,89.7278144 523.794126,90.7949261 C522.167444,91.7638345 517.282357,94.6199944 512.162871,97.6071992 L511.430248,98.0346446 L510.329619,98.6766666 C503.852972,102.454199 497.576335,106.107481 497.576335,106.107481 C497.13906,106.37201 496.862954,106.896433 496.862954,107.369808 L496.954971,110.233212 C497.037808,111.0036 497.686766,111.620892 498.51514,111.574439 L503.515649,111.342382 C503.920657,111.333103 504.275039,111.147473 504.505136,110.869024 C504.505136,110.869024 506.570127,108.487809 508.716875,106.031689 L509.132863,105.555995 C510.796637,103.654431 512.432725,101.797155 513.12084,101.054371 C513.651188,101.239411 515.117004,101.829243 515.610413,102.07598 C515.240398,103.925207 514.346155,108.539056 514.346155,108.539056 L514.346155,108.847463 C514.346155,109.285411 514.531134,109.741868 514.77781,110.111955 C515.215697,110.562237 515.770747,110.808974 516.387493,110.808974 L516.468598,110.808604 C517.127001,110.805589 521.689045,110.784436 526.294231,110.756493 L527.040786,110.751904 C531.017927,110.727131 534.871251,110.697738 536.103354,110.671066 C536.288389,111.602477 537.544414,114.191339 537.729393,115.12892 C534.639597,115.825928 519.707666,118.508898 519.707666,118.508898 C519.072449,118.575396 518.560571,118.98382 518.313839,119.363759 C518.190556,119.605974 518.067162,119.748455 518.067162,119.985919 C518.067162,120.218631 518.252142,120.551071 518.498874,120.788535 L524.742612,127.339661 C525.155853,127.781348 525.963754,128.018795 526.722309,127.876324 C526.722309,127.876324 529.83952,127.41797 533.298802,126.860757 L533.950749,126.755208 C534.059849,126.737453 534.169113,126.719623 534.278458,126.70173 L534.934808,126.593694 C537.667955,126.141093 540.345227,125.662437 541.643336,125.329149 C541.684356,125.814387 541.695829,126.523831 541.697465,127.295903 L541.696918,127.969248 C541.692845,129.331537 541.676414,130.742202 541.746924,131.387223 C540.485428,131.836934 537.029373,132.998857 534.314177,133.90706 L533.798695,134.079414 C532.032404,134.669747 530.692997,135.115052 530.692997,135.115052 C530.168824,135.349455 529.786403,135.670196 529.539671,136.28702 C529.495721,136.472061 529.495721,136.780479 529.495721,136.903845 C529.495721,137.347962 529.495721,137.594683 529.61906,137.841421 L535.924661,148.144609 C536.251505,148.853957 537.053286,149.224049 537.861188,149.100678 C537.861188,149.100678 539.853672,148.789509 542.001735,148.434386 L542.499367,148.351776 L542.997507,148.268335 C544.073735,148.087173 545.118208,147.905301 545.901313,147.756119 C545.901313,148.071974 546.013492,148.814837 546.15275,149.615328 L546.230882,150.055454 C546.377173,150.864689 546.535069,151.664391 546.619467,152.085178 L546.657702,152.274899 C546.672664,152.348751 546.681008,152.389423 546.681008,152.389423 C545.73393,152.657961 543.537324,153.268841 541.277347,153.895555 L540.392405,154.140874 C537.449368,154.956469 534.661739,155.726547 534.661739,155.726547 L526.388734,158.158835 C525.550012,158.288365 524.994963,159.071732 524.994963,159.89827 C524.994963,160.767996 525.562363,161.545194 526.388734,161.791931 C526.388734,161.791931 530.341106,162.979224 534.438594,164.192717 L535.122199,164.39501 L535.804575,164.596593 C538.753215,165.466857 541.556894,166.283495 542.781363,166.609108 C542.540862,167.676203 542.489123,170.535396 542.242391,171.491464 C541.20895,171.220504 539.34352,170.721857 537.372196,170.192719 L536.778348,170.03326 L536.182502,169.873155 C533.00708,169.019639 529.932329,168.189027 529.932329,168.189027 C529.173774,167.911452 528.341171,168.28155 527.90946,168.910709 C527.477749,169.521369 527.477749,170.415757 527.847763,171.044915 L534.957483,180.710528 C535.241211,181.210156 535.870308,181.580243 536.567222,181.580243 C536.646564,181.62397 537.466225,181.985028 543.224535,181.985028 C543.224535,183.470572 543.581086,183.470572 543.581086,184.800861 C536.221908,186.818522 531.042539,187.488537 531.042539,187.488537 C530.234638,187.729105 529.584066,188.426113 529.56237,189.295834 L529.56237,189.419205 C529.56237,190.184063 529.994137,190.936587 530.845209,191.183325 C530.845209,191.183325 535.247513,192.551379 539.856803,193.985208 L540.870279,194.300497 L541.544754,194.510352 C544.123773,195.31283 546.606923,196.08603 548.253584,196.600052 C546.835111,197.710335 542.016466,200.496409 541.461416,200.928187 C540.724329,200.702711 536.418786,199.276009 531.872778,197.76386 L531.134005,197.518074 L530.02484,197.148899 C528.549092,196.657591 527.095355,196.173155 525.777162,195.733656 L525.129887,195.517828 C523.754208,195.059076 522.559812,194.660508 521.691047,194.370519 L521.313725,194.244564 C520.607428,194.008778 520.197514,193.871853 520.197514,193.871853 C519.611643,193.707007 519.081239,193.871853 518.587831,194.146579 C518.094478,194.569673 517.847802,194.9488 517.847802,195.443304 L517.909387,202.712162 C517.909387,203.701188 519.405245,204.372199 520.385831,204.372199 L520.412268,204.371597 C520.753233,204.363882 524.339327,204.284147 528.07834,204.257226 L528.654362,204.253518 L529.230295,204.250744 C529.613664,204.249229 529.995306,204.248404 530.371884,204.248404 C529.451545,204.524578 528.493342,204.812198 527.545876,205.096648 L526.979073,205.266821 C523.21416,206.397212 519.776539,207.430118 519.776539,207.430118 C519.017929,207.640582 518.419764,208.655783 518.234673,210.091886 L515.006907,219.468575 C514.94521,219.709143 514.94521,219.894189 514.94521,220.14091 C514.94521,220.55419 515.006907,220.979798 515.376921,221.226525 C515.376921,221.226525 517.683209,224.654246 520.03932,228.089862 L520.443292,228.678264 C522.326842,231.418545 524.159758,234.038811 524.786729,234.788111 C524.157687,235.657832 521.829561,238.885893 521.07095,240.039352 C520.083213,238.713067 518.278166,236.08939 516.48982,233.451784 L516.093024,232.865941 C513.915885,229.648286 511.855981,226.551844 511.436042,225.919949 L511.378099,225.832738 C511.365035,225.813068 511.358333,225.802972 511.358333,225.802972 C510.988319,225.291005 510.451795,225.044273 509.835048,225.044273 C509.094908,225.044273 508.638607,225.291005 508.268536,225.846149 C508.268536,225.846149 508.17505,225.995355 508.014912,226.253082 L507.861954,226.499618 C506.85378,228.12691 504.285542,232.317025 503.8075,233.535875 C502.895064,233.350818 501.114644,233.042412 501.114644,233.042412 C500.634142,232.980731 500.089162,233.412498 499.806547,234.109523 C499.765935,234.362414 499.765935,234.732512 499.765935,234.979238 C499.765935,235.485036 499.806325,235.873637 500.04855,236.243724 C500.04855,236.243724 501.739118,237.738396 503.543619,239.369165 L503.961347,239.747294 C504.031067,239.810512 504.100775,239.873777 504.170383,239.937011 L504.586105,240.315431 C505.825346,241.44588 506.973873,242.516338 507.508535,243.076009 C507.3235,243.581806 505.268531,246.593583 505.021855,247.309095 C502.239944,245.487492 490.408531,237.591759 488.533309,236.3401 L488.395803,236.248316 C488.32148,236.198704 488.282466,236.172659 488.282466,236.172659 C487.907389,235.949031 487.445747,235.859573 487.06099,235.99376 C486.633006,236.105571 486.382936,236.342612 486.142491,236.655686 L485.209582,238.328418 C485.113337,238.587817 485.113337,238.721993 485.113337,238.990344 C485.113337,239.446539 485.2384,239.826701 485.671224,240.095052 C485.671224,240.095052 486.577095,240.228872 488.754623,241.278787 C488.206138,242.325131 488.183384,242.74921 488.00419,244.212906 C485.252178,243.648542 484.698576,243.494862 484.603916,243.45304 L484.590858,243.446261 C484.595766,243.437519 484.596531,243.437479 484.59719,243.437455 C484.118342,243.375742 483.606464,243.437422 482.989717,243.74584 C482.477839,244.07275 482.419591,242.692002 482.419591,243.308827 L482.542985,248.027533 C482.542985,248.921921 483.762014,248.544018 484.742599,248.790288 C484.742599,248.790288 486.977937,249.186568 489.490719,249.618786 L490.052887,249.715279 C490.241267,249.747543 490.430375,249.779858 490.619413,249.812077 L491.185525,249.908301 C493.066565,250.227112 494.861108,250.521704 495.773383,250.645618 L495.773383,251.655378 C494.293269,252.180775 491.968203,253.190529 491.968203,253.190529 C491.302165,253.592794 490.74706,254.265969 490.685419,255.333187 L490.685419,255.497365 C490.685419,256.425033 491.018493,257.204928 491.51179,257.697491 C491.51179,257.697491 495.721258,259.933524 499.984729,262.232215 L500.640514,262.586061 C504.025143,264.413791 507.309251,266.210689 508.405894,266.885251 C507.770678,267.859839 506.225584,272.196959 505.732176,273.350424 C504.228753,272.657379 497.556405,269.416494 491.141651,266.291052 L490.357827,265.909103 C483.973141,262.797522 478.067539,259.91009 478.067539,259.91009 C477.457024,259.66451 476.605951,259.66451 476.17424,259.959214 C475.613015,260.253935 475.304642,260.725463 475.304642,261.260841 L476.020025,271.380118 C476.020025,271.797621 476.328399,272.141449 476.636716,272.436153 C476.636716,272.436153 483.242235,278.018521 485.110889,279.671603 C484.76552,280.134225 482.881066,283.258742 482.510996,283.690525 C480.76568,282.364354 479.85191,280.443293 479.85191,280.443293 C479.333911,279.949829 478.550656,279.949829 477.853742,280.196567 C477.163004,280.628351 476.440165,281.419601 476.854686,281.892837 C478.645009,283.936657 477.668262,291.349237 477.976635,295.333922 C476.126451,294.723267 471.298293,294.334666 470.256032,294.026259 C470.10184,291.937688 468.352763,274.065519 468.352763,274.065519 C468.328096,273.498041 468.025898,273.072432 467.655867,272.825706 L460.075893,266.917868 C459.317321,266.325712 458.318221,266.362724 457.596651,266.979549 L450.067425,274.003805 C449.697388,274.373903 449.450701,274.861198 449.450701,275.416336 L449.450701,275.848109 C449.648047,276.477267 450.147603,277.075588 450.776661,277.26064 C450.776661,277.26064 454.020076,278.199641 457.295901,279.142392 L457.891148,279.313635 C460.069788,279.940148 462.17634,280.543136 463.259397,280.845486 C462.759858,282.387552 461.28424,286.935827 460.66751,288.286667 C459.316274,288.06535 452.159859,286.597243 444.82495,285.076224 L443.867673,284.877628 C435.570516,283.155565 427.357884,281.432218 427.357884,281.432218 C426.512976,281.210165 425.705064,281.580263 425.335021,282.474657 C425.211683,282.789239 425.211683,283.035965 425.211683,283.282692 C425.211683,283.868673 425.458371,284.288118 425.828407,284.719896 C425.828407,284.719896 428.280252,286.926044 430.970135,289.330713 L431.476738,289.783425 C433.848855,291.902363 436.297287,294.077226 437.338958,294.963062 C436.253516,296.375587 433.190272,299.836622 432.104824,301.292325 C431.029378,300.409571 428.230205,298.153475 425.355981,295.84221 L424.780624,295.379612 C421.04065,292.373022 417.359592,289.421712 417.359592,289.421712 C416.644186,288.928248 415.638932,288.928248 414.923521,289.421712 L403.684509,296.733752 C403.191139,297.036006 402.944441,297.677503 402.944441,298.232642 C402.944441,298.417688 403.006115,298.602729 403.006115,298.664415 C403.154138,299.429284 403.807869,300.083115 404.504766,300.144795 C405.309591,300.298999 410.537327,302.273205 416.742912,303.732173 C416.15702,306.128828 415.848663,307.406282 415.416952,309.158552 C414.499032,309.0584 411.532918,308.765633 408.410143,308.460595 L407.018078,308.324801 C403.19536,307.952371 399.557231,307.60152 399.557231,307.60152 C399.100846,307.558344 398.508806,307.67554 398.077089,308.230684 C397.707052,308.495925 397.583708,308.940026 397.583708,309.49517 L397.583708,309.618531 C397.583708,309.618531 397.654249,311.954605 397.766264,314.569548 L397.790891,315.133411 L397.816725,315.701314 C397.909179,317.690791 398.022626,319.67182 398.144805,320.776519 L397.036535,320.776526 C396.945003,320.77657 396.850652,320.776631 396.753911,320.776715 L396.148192,320.77753 C394.474655,320.780643 392.407705,320.792167 391.696416,320.833287 C391.252369,319.449509 390.418159,315.481897 389.821838,312.529211 L389.716177,312.004344 C389.373645,310.297407 389.132473,309.043375 389.132473,309.043375 C388.916623,308.334028 388.417073,307.90225 387.633828,307.778884 L379.817414,306.128327 C379.31788,306.048138 378.81216,306.375048 378.318774,306.745146 C377.825394,307.004212 377.640375,307.559351 377.578706,308.114495 C377.578706,308.114495 376.659667,315.275542 376.3513,317.693493 C376.135444,317.734615 375.697888,317.843476 375.183007,317.972633 L374.647698,318.106797 C373.730381,318.335821 372.731949,318.577292 372.3208,318.611558 C371.77332,316.557196 370.244271,309.443938 369.674501,306.774979 L369.605782,306.452839 C369.511344,306.009778 369.456857,305.75266 369.456857,305.75266 C369.284178,305.08032 368.833968,304.648542 368.217238,304.340135 L361.5457,300.999267 C360.873471,300.752541 360.207394,300.937587 359.652356,301.369365 C359.282308,301.739452 359.035626,302.24525 359.035626,302.738714 C359.035626,302.862074 359.078742,302.985435 359.078742,302.985435 C359.078742,302.985435 359.631817,307.723623 360.128264,312.151715 L360.206091,312.847574 C360.527667,315.730118 360.810844,318.363442 360.882005,319.31003 C360.185108,319.569096 357.278243,320.701938 356.476501,321.072036 C355.931007,319.757262 354.457345,315.880458 353.036161,312.107258 L352.778561,311.422957 C352.26539,310.059012 351.767017,308.730128 351.330596,307.564482 L351.117766,306.995855 C350.357921,304.965119 349.832718,303.554843 349.832718,303.554843 C349.598369,302.981195 349.037139,302.734474 348.420415,302.487737 C347.834528,302.302691 347.156129,302.487737 346.724417,302.857835 C346.158881,303.314286 345.126067,303.91703 341.882089,305.786007 C341.277693,306.094425 340.969337,306.791433 340.969337,307.463773 C340.969337,307.685838 340.969337,307.870878 341.154355,308.179285 C341.154355,308.179285 343.70617,315.412899 344.816286,317.849354 C344.119389,318.176281 340.900307,319.504094 340.228078,319.874181 C338.51059,315.968694 338.520721,314.676893 337.331311,312.369328 C336.763933,311.937561 336.005356,311.814201 335.351619,312.060921 C334.580719,312.165778 334.149002,312.819615 334.087333,313.516624 C334.087333,313.516624 333.827512,317.960137 333.522129,322.441155 L333.472242,323.16744 C333.237887,326.551807 332.984073,329.821262 332.803654,331.066328 C331.477699,331.066328 326.458786,330.881282 324.978645,330.881282 C324.978645,327.639251 325.541388,301.518823 325.541388,301.518823 C325.541388,300.735461 325.282367,300.0878 324.628641,299.841062 C324.042749,299.470975 323.30267,299.594336 322.673612,299.902742 C322.673612,299.902742 318.865672,302.425439 316.842809,303.554231 C316.589946,302.980583 314.805871,299.79186 314.374159,299.360082 C316.680105,297.64038 324.232579,291.900275 324.232579,291.900275 C324.688959,291.678406 325.05899,291.162299 325.05899,290.776435 L324.935646,285.791002 C324.935646,285.381004 324.750628,284.975841 324.44226,284.734677 C324.010548,284.445269 323.480178,284.25234 322.986797,284.25234 L317.169485,284.160924 C316.497251,284.160924 315.843525,284.549526 315.473482,285.203357 L307.060556,301.953405 C306.937206,302.193962 306.813868,302.539392 306.813868,302.847799 C306.813868,303.285747 306.998881,303.810048 307.307238,304.241815 C307.307238,304.241815 307.449953,304.400939 307.700191,304.679581 L307.907479,304.910352 C308.699699,305.792154 310.17218,307.429275 311.688329,309.105308 L312.122152,309.584615 C313.930119,311.580981 315.714049,313.535798 316.399893,314.240358 C316.21488,314.505599 315.082211,316.89466 314.773843,317.264763 C312.575219,315.74737 310.381618,314.145376 310.381618,314.145376 C309.666224,313.836969 308.728798,313.836969 308.031901,314.268742 C307.53852,314.793043 307.291822,315.237161 307.291822,315.792299 C307.291822,316.045195 307.415177,316.230236 307.53852,316.600339 C307.53852,316.600339 309.077845,320.107586 310.702884,323.847731 L310.98203,324.490569 C312.286101,327.495425 313.591868,330.529589 314.155082,331.916594 C312.718106,332.317523 309.06491,334.63005 307.89313,334.876771 C307.335524,333.789309 305.210415,328.873246 302.958421,323.597198 L302.628122,322.822926 C302.462687,322.434908 302.296949,322.045868 302.131472,321.657166 L301.636389,320.49343 C299.060946,314.435622 296.688149,308.794145 296.688149,308.794145 C296.447631,308.454896 295.941917,308.023118 295.44853,307.838071 C294.881141,307.776391 294.289079,307.776391 293.857385,308.084798 L284.807628,314.064519 C284.246403,314.391429 283.938035,315.039091 283.938035,315.655915 C283.938035,315.717595 283.938035,315.840956 283.981763,315.964333 C283.981763,315.964333 285.366878,326.14939 285.675234,327.783969 C285.175701,328.24042 281.476785,331.268559 280.366674,332.335671 C280.00897,330.586107 279.658826,327.56492 279.367427,324.569339 L279.301247,323.879097 C278.899855,319.632684 278.625403,315.64021 278.625403,315.64021 L277.959449,312.962636 C277.811427,312.160755 277.157695,311.648787 276.460793,311.463747 C275.659056,311.334216 274.832634,311.661127 274.462603,312.333473 C272.458249,315.337394 272.422878,317.674066 271.701308,318.957061 C271.010575,318.37108 267.194391,316.239955 266.824348,315.808188 C266.937094,314.961594 267.840522,311.474888 268.768595,308.009195 L268.954312,307.317125 C269.94413,303.635989 270.903882,300.180612 270.903882,300.180612 L270.903882,299.810514 C270.903882,299.440427 270.736138,298.940799 270.344749,298.570701 C270.009272,298.138917 269.366266,297.953877 268.863061,298.077237 L257.994764,300.229958 C257.122535,300.402665 256.675235,301.30003 256.675235,302.142112 L256.675235,302.450518 C256.675235,302.450518 257.828812,307.915129 258.993002,313.518839 L259.151713,314.283343 C260.18237,319.251723 261.180549,324.139205 261.350331,325.2373 C260.523926,325.545701 255.772741,326.792017 254.489952,326.977064 C254.191277,325.73672 253.463324,322.194699 252.728905,318.551685 L252.582061,317.822388 C251.653084,313.203236 250.758958,308.657439 250.758958,308.657439 C250.715792,307.904914 250.148403,307.473136 249.519345,307.28809 C248.933453,306.979672 248.144049,307.28809 247.712332,307.596497 L234.433144,319.006836 C233.817188,319.301479 233.267206,319.794843 233.267206,320.411534 C233.267206,320.411534 232.760194,323.800165 232.229898,327.493241 L232.133331,328.167377 C231.682495,331.322594 231.236002,334.56242 231.089333,336.002887 C228.647477,336.002887 227.173583,335.797323 225.039699,335.660283 C224.81469,334.680686 224.32915,332.570401 223.817711,330.348168 L223.677761,329.740095 C222.906447,326.388844 222.124851,322.994092 222.124851,322.994092 C222.014859,322.439075 221.684878,322.103331 221.134902,321.692192 L211.788299,310.270754 C211.245583,309.715627 210.61652,309.671732 209.919617,309.715627 C209.290559,309.86983 208.815677,310.449642 208.568983,311.066466 C208.568983,311.066466 207.434074,314.159561 206.258994,317.449081 L205.831871,318.64877 C205.052716,320.845156 204.314682,322.972794 203.942138,324.173409 C202.943032,323.723122 199.844385,323.255366 199.104316,322.823588 C199.235819,320.735314 200.544273,307.169024 200.624669,306.336153 L200.628536,306.296105 C200.628536,305.796549 199.510721,306.03112 199.186514,305.743197 C199.110864,305.666421 199.041272,305.540075 198.969362,305.397226 L198.858712,305.174709 C198.686986,304.834767 198.48232,304.494977 198.149294,304.531985 L193.887712,305.796477 L187.682272,306.846726 C186.954538,306.957753 186.421736,307.741126 186.399483,308.542996 L186.390875,308.632849 C186.336335,309.202496 186.031724,312.389052 185.738771,315.555735 L185.678412,316.209763 C185.438328,318.817818 185.218592,321.287716 185.167553,322.124894 C185.111534,322.152138 185.036873,322.18801 184.946523,322.231099 L184.631364,322.3806 C183.443637,322.941677 180.982423,324.083037 180.20123,324.391457 C180.091344,323.164986 179.933797,321.210062 179.777782,319.218648 L179.731073,318.620821 C179.537052,316.131079 179.353112,313.69244 179.275331,312.65639 L179.258751,312.43536 C179.244308,312.242644 179.236422,312.136944 179.236422,312.136944 C179.193234,311.569466 178.903381,310.989648 178.409995,310.742922 C177.996787,310.372824 177.299884,310.372824 176.868184,310.434504 L171.393877,311.049854 C170.499611,311.247234 170.0679,311.857889 170.0679,312.616594 C170.0679,312.616594 169.404366,320.273525 169.095998,322.666803 L163.390208,323.066637 C163.328523,320.672741 162.820294,315.345912 162.820294,315.345912 C162.820294,314.235623 161.97538,313.538615 160.822098,313.538615 C160.822098,313.538615 160.808925,313.538557 160.783356,313.538448 L160.587256,313.537649 C160.12973,313.53585 159.04063,313.531948 157.648253,313.529518 L157.075906,313.528633 C156.978078,313.528502 156.879097,313.528379 156.77906,313.528265 L156.166943,313.527711 C156.06307,313.527641 155.958336,313.527583 155.852838,313.527537 L154.885346,313.527506 C154.776138,313.527547 154.666457,313.527605 154.556401,313.52768 L153.892342,313.528342 C150.779652,313.532473 147.52535,313.551698 146.264766,313.609269 C146.141417,312.610018 146.112304,310.313636 145.988944,309.228027 C147.770017,309.068504 149.789652,308.593818 150.312907,308.465905 L150.40887,308.442203 C150.430688,308.436747 150.442042,308.43385 150.442042,308.43385 C151.200613,308.366 153.925096,308.782396 154.171778,308.085376 C154.295133,307.881827 154.356802,307.6351 154.356802,307.326683 C154.356802,306.956596 154.171778,306.450798 153.801747,306.01902 L141.342115,293.761447 C140.663716,293.144622 139.553606,292.947242 138.838206,293.576406 L135.361515,295.66338 C134.898972,296.014975 134.510988,296.428238 134.467261,297.057408 L134.467015,297.148888 C134.466961,297.168891 134.466898,297.192065 134.466827,297.2183 L134.465963,297.534165 C134.4632,298.53766 134.456288,300.988522 134.447786,303.564365 L134.445534,304.23829 C134.435253,307.275884 134.423089,310.327247 134.413186,311.253109 C133.457256,311.839091 127.785831,314.509271 125.676631,315.594886 C125.582847,314.43349 125.48991,312.68718 125.406326,310.830864 L125.378823,310.20867 C125.206979,306.250552 125.081036,302.037338 125.081036,302.037338 C125.050198,301.90048 124.952855,301.946083 124.838557,302.006667 L124.76834,302.043475 C124.530145,302.163229 124.263773,302.208921 124.36563,300.840702 C123.909251,300.408918 123.459053,300.347238 122.842323,300.408918 L122.802507,300.413416 C122.370881,300.462239 118.535505,300.897752 116.482863,301.188536 L115.083684,298.147963 C115.908666,297.808276 117.202012,297.406097 118.500952,297.034962 L118.987412,296.897425 C121.007892,296.331937 122.900799,295.870785 122.900799,295.870785 C123.708711,295.628604 124.140417,295.070122 124.140417,294.442449 L124.140417,294.195328 L123.585367,289.608878 C123.474357,289.203603 123.252338,288.842818 122.758952,288.595697 C122.302572,288.299179 121.772185,288.249793 121.21713,288.348581 C121.21713,288.348581 114.315815,290.461824 107.649846,292.468306 L106.86713,292.703737 C101.792133,294.229092 97.0184198,295.641106 95.7373701,295.947036 C95.2624875,294.664046 94.0571447,290.402036 93.502084,288.878473 C94.9622409,288.463701 100.3336,286.840218 105.95539,285.132504 L106.759811,284.888093 C107.028256,284.806513 107.296873,284.724863 107.565268,284.643265 L108.369388,284.398748 C114.924459,282.405112 121.108579,280.515477 121.108579,280.515477 C121.947323,280.281079 122.564053,279.448371 122.564053,278.646489 L122.654467,261.288351 C122.654467,260.720879 122.24744,260.011537 121.63071,259.764799 C120.952317,259.456381 120.181395,259.456381 119.62634,259.826479 L107.58124,267.547127 C107.124872,267.966554 106.816504,268.564875 106.816504,269.1817 C106.816504,269.490117 106.878173,269.749178 107.001523,270.119276 C107.001523,270.119276 109.23894,275.948593 110.324371,278.169148 C109.473293,278.551585 107.034051,280.131076 106.361805,280.501174 C105.98992,279.914576 105.498588,279.10946 104.992948,278.26973 L104.739422,277.847832 C103.639862,276.014486 102.55539,274.162537 102.55539,274.162537 C102.271701,273.638236 101.846154,273.391515 101.291104,273.268149 C100.773045,273.144788 100.267336,273.329829 99.8356358,273.576556 L92.3961461,278.781304 C91.9274387,279.151402 91.7244676,279.546162 91.6807401,280.175337 L91.1873596,285.942635 C91.1873596,285.942635 90.1875526,298.324464 90.1659114,300.063911 C89.5738548,300.434009 85.3456695,302.890814 84.2170668,303.674187 C84.1611741,302.461446 84.3115031,299.093254 84.4926413,295.771991 L84.5305002,295.086225 C84.7405093,291.326142 84.9747482,287.823506 84.9747482,287.823506 C84.9747482,287.083321 84.5306974,286.478831 83.9756422,286.170424 C83.2540777,285.862006 82.5016703,285.862006 81.8849404,286.35547 C81.8849404,286.35547 79.8384739,287.900967 77.6604968,289.541794 L77.1924723,289.89433 C75.3960129,291.247261 73.6031107,292.594624 72.8751393,293.132656 C72.6284462,292.577528 71.9720835,288.522495 71.8487398,288.090722 C72.6513459,287.424826 75.0216482,285.506039 77.3861925,283.596808 L77.9109125,283.173204 C80.6148676,280.990702 83.1575879,278.94407 83.1575879,278.94407 C83.5831297,278.644375 83.8298172,278.229787 83.8298172,277.780223 L83.7681481,274.748252 C83.7681481,274.328663 83.4227734,273.819176 83.1144223,273.569418 C82.7197124,273.319626 82.1029825,273.169829 81.5479273,273.269723 C81.5479273,273.269723 74.5349205,274.636118 67.0044259,276.067644 L66.1164896,276.236281 C65.5234628,276.348801 64.9288195,276.461408 64.3356938,276.573474 L63.4475351,276.741088 C57.3915815,277.882609 51.6596888,278.934302 49.6267103,279.220076 C49.8496928,278.475838 50.3162292,277.196137 50.8081713,275.876004 L51.0362311,275.265643 C51.6830104,273.538368 52.315843,271.872186 52.4468987,271.374098 C53.3771673,271.207559 56.3688759,270.667302 59.3783491,270.123397 L60.0465827,270.00262 C63.2697624,269.420026 66.3387948,268.864849 66.721383,268.795638 L66.7613764,268.788403 C67.5877923,268.687919 68.0811673,268.195072 68.3278603,267.60652 L69.1357783,263.840812 L69.1357783,263.601557 C69.1357783,263.314457 69.012429,263.027369 68.7040613,262.692426 C68.3587032,262.343123 67.8283157,262.103885 67.3349351,262.103885 C67.3349351,262.103885 61.9949205,261.545804 59.6451974,261.545804 L59.6451974,261.052345 C60.4868017,260.82055 62.4043791,260.170097 64.490873,259.440933 L65.0908269,259.230752 C68.5077317,258.030919 72.1409739,256.709628 72.1409739,256.709628 C72.9118848,256.536905 73.46694,255.753543 73.46694,254.883828 C73.46694,254.014097 72.8625496,253.218396 72.011466,253.033355 C72.011466,253.033355 70.9721541,252.878034 69.1466434,252.322889 C69.6276845,250.299698 71.1426301,247.995639 71.1426301,247.995639 L71.1426301,247.625541 C71.1426301,246.903859 70.8342679,246.348715 70.3408818,246.101989 C69.8351675,245.67021 68.9039169,245.546844 68.2070145,245.916931 C68.2070145,245.916931 68.1207899,245.974437 67.9595986,246.081853 L67.7738354,246.205624 C65.0099117,248.046918 49.9002285,258.101703 48.1417787,259.031468 C47.4448818,258.59352 43.5485192,255.334516 42.6542701,254.662181 C43.677172,253.899265 45.2602353,252.716495 46.8844299,251.502433 L47.3724032,251.137664 C50.2200566,249.008903 53.0347217,246.903303 53.0347217,246.903303 C53.1744435,246.807591 53.5199909,246.628336 53.9119722,246.431412 L54.178423,246.298234 L54.4481371,246.164157 C55.1623969,245.809277 55.7995194,245.491076 55.4639386,245.579662 C53.3318515,246.142501 55.9352941,244.493953 55.7502812,244.247215 L50.7095939,236.723358 C50.4073959,236.303914 49.9695148,235.93381 49.53782,235.87213 C49.0382642,235.81045 48.3845329,235.87213 48.0144962,236.180548 L40.1714842,239.889038 C39.4555275,240.4049 39.1263586,241.367332 39.1263586,241.983272 L39.1259419,242.017183 C39.1218336,242.352612 39.0882527,245.120924 39.0653891,247.837104 L39.0609712,248.378909 C39.0524688,249.458182 39.0461098,250.502608 39.0444665,251.353145 L39.0440497,251.76152 L35.0363489,251.76152 L35.0363489,246.980199 C35.0363489,246.164053 34.5261283,245.324819 33.7031783,244.862849 C32.9213912,244.40094 31.8844882,244.477941 31.0615549,244.939889 C31.0615549,244.939889 28.9653671,246.122522 26.9513351,247.344575 L26.5218082,247.60663 C26.1662401,247.824818 25.8182533,248.041659 25.490252,248.250643 C25.0787687,247.719388 25.0787687,247.4884 24.7496054,247.02643 C25.5222575,246.362983 26.5901424,245.296566 27.6472199,244.195834 L28.0193591,243.806516 C29.8110453,241.923729 31.4665069,240.067297 31.4665069,240.067297 C32.034341,239.659218 32.3635099,239.127963 32.3635099,238.358031 L32.7506983,219.687373 C32.664356,218.731305 31.967448,217.960277 31.0546954,217.8369 C31.0546954,217.8369 30.9910721,217.826327 30.8724848,217.806709 L30.7043516,217.778923 C29.866252,217.640556 27.635585,217.27416 25.2299174,216.894707 L24.672211,216.807007 C22.9930975,216.5438 21.2749976,216.28226 19.9219198,216.093721 C24.0558462,215.82848 30.7869342,213.730757 30.7869342,213.730757 C31.761367,213.595046 33.2355558,212.07866 33.2355558,211.036221 L33.3120956,206.453421 C33.3120956,205.885942 33.0222259,205.238281 32.5288509,204.929857 C32.115643,204.621456 31.4310743,204.374719 30.8760247,204.683137 C30.8760247,204.683137 26.3216215,206.364261 21.4272652,208.154479 L20.6910889,208.423634 C20.5681435,208.468564 20.4451173,208.513513 20.3220763,208.558456 L19.5841776,208.827854 C14.9163584,210.531136 10.4171741,212.155529 9.69998869,212.353214 C9.08942854,211.983116 5.8212227,208.156522 4.29791552,207.218957 C5.78113319,206.635061 7.97725365,205.864478 10.2708157,205.088781 L10.9282389,204.867171 C15.5413188,203.317125 20.3097035,201.815799 20.3097035,201.815799 C21.0127701,201.556722 21.5061562,200.902891 21.5061562,200.033176 C21.5061562,199.317659 21.0497716,198.645324 20.3343712,198.336906 C20.3343712,198.336906 18.3037484,197.702606 15.7351162,196.848055 L15.1560596,196.654698 C14.5693602,196.458052 13.9615523,196.252043 13.3490159,196.041217 L12.73551,195.828952 C10.3823462,195.010406 8.03992949,194.143313 6.63091531,193.483618 C7.6546834,192.441191 10.3764238,189.174854 11.1164918,188.545696 C11.6674357,188.800649 12.4506792,189.173484 13.2501399,189.557285 L13.6865189,189.767076 C15.1378182,190.46572 16.5128515,191.136354 16.5128515,191.136354 C17.3577653,191.555799 18.5172109,191.272054 18.9489224,190.377666 L28.4217452,173.375189 C28.7121601,172.807711 28.7121601,172.227894 28.4654726,171.611069 C28.1817837,171.018918 27.682239,170.710511 27.0531698,170.52546 L24.1994181,170.055573 L22.864356,170.158171 C21.9269246,169.942276 21.0635129,170.423401 20.7551452,171.336309 L20.6892476,171.401763 C20.1749418,171.914877 16.8065556,175.317347 16.146186,177.065332 C15.295097,177.003651 14.9929045,176.941971 13.9691364,176.756925 C14.6474853,174.561027 14.7607539,170.851274 14.7607539,170.851274 C14.9020393,170.604536 14.9457667,170.604536 14.9457667,170.29613 C14.9457667,169.932201 14.822423,169.623795 14.5757244,169.315377 C14.4030454,168.834263 13.8541543,168.587526 13.4224596,168.402485 C13.4224596,168.402485 11.9000271,167.95467 10.2109769,167.456017 L9.72502855,167.312504 C9.64367192,167.288469 9.56223027,167.264404 9.48085,167.240353 L8.9944762,167.096548 C7.86678836,166.762976 6.80852062,166.448817 6.22139584,166.271694 C5.87603225,164.773728 5.59233775,162.627994 4.93860645,159.702932 C5.90166323,159.935316 7.12018492,160.154986 8.37560754,160.350844 L8.91526783,160.433292 L9.45562332,160.512631 C12.1527667,160.901225 14.7326072,161.165913 15.0445516,161.197481 L15.0760646,161.200654 C15.9888116,161.311691 16.8954057,160.812063 17.1420931,159.874482 L19.8959059,149.421908 C19.9088134,149.396088 19.8197805,149.436168 19.6916855,149.499638 L19.6011919,149.54495 C19.0950554,149.800119 18.2717413,150.231555 19.957575,148.928455 C20.225976,148.720988 19.8959059,148.280787 19.7725677,147.97237 C19.5567064,147.534433 19.0509976,147.164335 18.6192806,147.102655 C18.6192806,147.102655 15.1650719,146.006359 11.6926942,144.915182 L11.0804324,144.722898 C8.83990986,144.019698 6.67640482,143.345767 5.52078825,142.999493 C6.17451398,141.371084 8.29036181,137.379378 8.78374791,136.114892 C11.307385,136.546659 22.8980807,138.537744 22.8980807,138.537744 C23.5888134,138.667275 24.3782167,138.469895 24.8099282,137.840725 L31.6182235,130.523678 C31.8649221,130.22143 31.9882658,129.845162 31.9882658,129.413395 C31.9882658,129.203665 31.9265912,128.895258 31.8032419,128.58684 C31.5442206,128.037866 30.9583281,127.566672 30.1750889,127.544418 C30.1750889,127.544418 24.7057801,127.34142 19.438841,127.120745 L18.6884103,127.089119 C14.9492639,126.930592 11.4511633,126.767549 10.2610467,126.667527 C10.2610467,125.581912 10.4325685,122.316793 10.4325685,121.29287 C11.5772183,121.085881 14.9107595,120.439533 18.4230801,119.753392 L19.1516587,119.610995 C23.8954293,118.683428 28.7118152,117.733731 28.7118152,117.733731 L40.9840197,114.946912 L40.9840197,114.885231 C41.6809165,115.057938 41.9831034,114.68784 42.3531458,114.034003 C42.5381642,113.799616 42.5998333,113.114942 42.5998333,112.991581 C42.5998333,112.639987 42.4764895,112.276053 42.2914767,111.967652 C42.112628,111.844286 41.6809165,111.495829 41.6192474,111.474188 L36.7420653,109.519754 C36.1130072,109.087986 35.3051004,109.211347 34.6328656,109.704811 C34.6328656,109.704811 34.5602043,109.756273 34.4306277,109.848431 L34.2488242,109.977868 C33.1442515,110.76503 29.966411,113.042775 28.8430254,113.989208 C28.2139618,113.779488 26.1547594,112.29499 25.2851779,111.863223 C27.1168639,110.01275 28.4029078,107.789792 28.4029078,107.789792 C28.7852785,107.481391 29.0319659,107.037274 29.0319659,106.482129 C29.0319659,106.358769 28.9702969,106.297089 28.9702969,106.235403 C28.9702969,105.692598 28.6495898,105.051101 28.0328655,104.86606 C28.0328655,104.86606 26.5234434,103.805858 24.6652253,102.562054 L24.2307424,102.272162 C24.0842031,102.174711 23.9361281,102.076573 23.7870459,101.978146 L23.3373054,101.682399 C23.1867367,101.583795 23.035689,101.485301 22.8846906,101.387316 L22.4323711,101.095291 C21.6805125,100.612459 20.9430916,100.152343 20.286143,99.7648162 C21.6121091,98.9814546 25.4195481,96.2074749 26.0362668,95.8990572 C26.6872599,96.1216082 28.6850467,96.8313805 30.7184164,97.5565334 L31.2728689,97.7543292 C33.6707815,98.6100245 35.9519054,99.4272913 35.9519054,99.4272913 C36.6488078,99.7542126 37.4628954,99.5506517 38.0179506,99.0571933 L42.6588487,94.6747714 C42.9795557,94.2368235 43.2879067,93.8358826 43.2879067,93.2807495 C43.2879067,92.9106515 43.1028995,92.5158804 42.856212,92.0841133 C42.856212,92.0841133 41.2241108,89.9824335 39.4670755,87.7032958 L39.0892049,87.2128942 C37.5113536,85.1640804 35.9197273,83.0833682 35.3870978,82.3403804 C35.5302685,82.0769085 36.0620293,81.1092823 36.6400635,80.0629627 L36.9088878,79.5767358 C37.4930579,78.5210067 38.0708373,77.4828091 38.2999094,77.0876038 C40.7803145,79.1685393 47.8927989,86.1531172 48.372151,86.6242567 L48.3976234,86.6493001 C48.8770289,87.2846281 49.6873279,87.1982746 50.1794678,86.5259397 L52.7376641,82.8064897 C53.0007021,82.4610649 53.1703937,81.9737706 53.1703937,81.4803066 C53.1703937,81.1533965 53.0855535,80.764795 52.958282,80.4563883 C52.958282,80.4563883 50.8368504,78.0623835 48.7423023,75.5718765 L48.3504141,75.1043365 C46.9184921,73.3899898 45.5627401,71.6979014 44.9812559,70.7746473 C45.6534907,70.1824905 49.6600122,68.687684 50.2767364,68.2559003 C51.1216503,69.1688086 52.4005954,70.5628249 52.4005954,70.5628249 C52.8594955,71.1148393 53.096292,71.3673303 53.2868851,71.5593442 L53.4239151,71.6957503 C53.6247108,71.8945555 53.8226861,72.0924552 54.2682926,72.6298104 L57.3041142,77.4182858 L58.7145088,78.406855 C59.2387322,79.0360132 59.4605518,80.5875541 60.2191178,80.4025079 C60.9160313,80.2667969 61.5512591,79.6376387 61.6129338,78.8111004 L64.1608936,72.8689763 C64.247247,72.239818 63.9820504,71.4996332 63.4886643,71.1295352 C62.8781098,70.7594317 62.1627038,70.6360712 61.5089781,70.8828088 L55.4285672,73.2065179 C55.1448782,71.9852029 53.4467724,66.8265682 53.015061,65.1734806 C53.9510922,64.8848549 55.6801497,64.2931956 57.4704329,63.6683074 L58.2777232,63.3857754 C60.9660011,62.442596 63.5450539,61.5157108 63.5450539,61.5157108 C64.0446542,61.275154 65.3439443,60.5955813 65.4482449,60.0274523 C65.4482449,60.0274523 65.4992083,59.6730916 65.5863524,59.0673847 L65.6428623,58.6746232 C66.178295,54.953362 67.6469925,44.7505242 67.8481377,43.4026174 C68.1005389,43.2570959 69.1966715,43.0133774 70.3550298,42.7446792 L70.8912295,42.6191576 C71.9610826,42.3656334 72.9815107,42.1004226 73.3378383,41.8811127 C73.2104529,43.2487604 73.0410916,45.080052 72.8656189,46.9822758 L72.8069509,47.6184389 C72.4051781,51.9761427 71.9923728,56.4754741 71.9923728,56.4754741 L71.9923728,56.7222117 C71.9923728,57.2218453 72.2390603,57.8510036 72.6090971,58.1594102 C73.0407974,58.5295082 73.6513631,58.6128296 74.3050889,58.5911884 L77.3025627,55.7218706 C78.7733913,55.4813027 79.6855431,54.9570014 79.9135768,54.1551364 C79.9135768,54.1551364 80.4728546,50.5914474 81.2709922,48.0686392 C83.1294711,48.2536854 83.8477977,48.377057 85.0563895,48.500423 C85.5580593,50.1781838 86.5842308,53.8544571 86.5842308,53.8544571 C86.7894495,54.4219352 87.3253558,54.8968789 88.237502,55.2052967 C88.9216033,55.4520231 90.1415887,55.5753836 91.0537516,55.4520231 L93.4291047,54.5283887 C94.0149917,54.3741743 94.5885392,53.8622235 94.7118997,53.3070793 C94.7735688,53.122022 94.8969125,52.9369813 94.8969125,52.5668833 C94.8969125,52.2399676 94.8352378,51.8945428 94.5885392,51.5861362 C94.5885392,51.5861362 92.6854762,46.8626622 90.7242767,43.9450828 L93.7326379,42.484346 C94.6084002,43.088831 98.8483573,47.2099229 98.8483573,47.2099229 C99.3910787,47.5800209 100.04481,47.7650615 100.673863,47.4566549 C101.30909,47.2222567 101.740807,46.611602 101.802476,45.9577705 C101.802476,45.9577705 102.559451,34.6269641 103.052837,31.8389148 C103.422863,31.9622752 106.767887,33.470122 107.014585,33.470122 C107.014585,35.2726041 106.943342,38.2205195 106.909145,41.2213059 L106.899704,42.1694058 C106.894399,42.8009449 106.891242,43.4297302 106.891242,44.045567 C106.891242,46.5930595 105.963541,47.6316649 106.148559,48.9578313 C106.148559,49.4142827 106.45691,49.9570931 106.888627,50.2655108 C107.351176,50.6355977 107.986403,50.7589581 108.479784,50.5739175 L112.001298,49.7905504 L113.917145,49.5138823 C114.7559,49.3165023 115.310956,48.5578028 115.310956,47.731259 C115.310956,47.6874703 116.61898,38.7939809 116.495636,34.5502296 C116.78526,35.3555658 117.110594,36.2855645 117.443569,37.2514463 L117.625781,37.781316 C117.656219,37.8700429 117.686679,37.9589329 117.717138,38.0479193 L117.899726,38.5824618 C118.294598,39.7408326 118.682323,40.8929585 119.016571,41.8922967 L119.238861,42.5579354 C119.711322,43.9748842 120.031904,44.9501638 120.031904,44.9501638 C120.445117,46.0352116 121.46493,46.9202645 122.507207,46.5501665 L128.158322,45.4408733 C127.645134,45.9319287 127.142076,46.4204505 126.652249,46.9053215 C121.90962,51.6487009 117.797285,56.2619216 114.207321,60.9405387 C113.944764,61.271941 113.675386,61.6027035 113.402832,61.9333416 C113.468085,61.3051207 113.821177,60.4309953 114.099153,59.6213195 L114.182924,59.3714874 C114.370828,58.795034 114.49918,58.2696758 114.429012,57.9146476 C114.601319,57.374452 113.957885,57.8595766 113.487976,57.3830751 C113.06506,56.906568 112.459412,56.8006763 111.869431,57.1183459 L107.695254,58.3297193 C107.042624,58.4991493 106.572727,59.0974313 106.572727,59.7327592 L106.4377,63.3970992 C106.4377,63.8630138 106.662207,64.4559884 107.079898,64.7207232 C107.487148,65.0383816 108.051021,65.1972303 108.573142,65.0383816 L111.863392,63.7914396 C111.182072,64.6239947 110.523685,65.4618312 109.945734,66.3130764 C103.52807,75.669682 99.3719632,84.9615198 97.6969284,94.0349984 L97.51191,95.7991182 C97.2035478,99.2594968 96.4881475,106.287598 94.9031545,108.136825 C83.5683369,111.640391 79.3252532,125.675609 76.1706998,136.055515 C75.214765,139.170474 74.3883602,141.952359 73.5187621,143.823806 L71.4280659,147.956514 C68.0545748,154.593538 64.3788856,161.904761 64.3788856,167.997739 C64.3788856,170.261487 64.872255,172.30934 66.0748718,174.242467 C69.3373697,179.442304 74.0164708,180.268842 78.1719772,180.531613 C82.9824444,180.654973 86.1783274,178.594786 88.5280449,177.095896 C89.4223107,176.540758 90.4645767,175.856083 90.9887835,175.788233 C91.7042005,177.05272 92.6231172,181.339648 93.31385,184.883921 C96.2063055,198.33191 100.928572,220.897195 117.920629,225.967484 C123.514341,227.793284 129.23449,228.619834 133.694653,228.188056 C135.742189,228.311416 137.524529,227.817952 139.109511,227.386185 C139.354058,227.321819 139.67541,227.24654 140.016852,227.170422 L140.36289,227.094397 C140.885691,226.981061 141.41116,226.873392 141.747887,226.805391 L141.942309,226.766307 C142.050482,226.744666 142.112971,226.732353 142.112971,226.732353 C151.794973,223.968977 164.935574,213.589683 172.202463,179.491032 L172.449161,178.251214 C172.942531,176.339061 173.645597,175.376811 173.972468,175.074563 C174.034138,175.136243 174.280836,175.259615 174.589193,175.568022 C174.589193,175.673773 175.246192,176.350515 175.433906,176.541712 L175.483442,176.591957 C178.530073,179.941303 182.750342,184.577973 189.037868,185.513691 C194.366389,186.580803 199.198447,183.928464 203.28858,177.59306 L203.411923,177.346333 L203.473592,177.161287 C204.411024,174.700148 204.737884,172.306881 204.737884,170.132574 C204.737884,165.105461 203.041892,160.405871 201.407564,155.79265 C200.408463,153.029268 199.409368,150.37693 198.885151,147.785048 C198.576783,145.108025 197.929221,142.498864 197.232319,139.842197 C197.108975,139.410419 196.985637,138.972482 196.862277,138.448181 C197.293994,139.799021 197.861383,140.952486 198.428772,142.019592 C200.7785,146.43605 204.673127,150.048779 208.589351,151.441572 C222.753091,156.949809 231.934297,155.099336 242.007922,151.81167 C247.077416,157.578967 256.258622,160.167784 268.224974,159.014325 C275.752742,158.11992 285.999663,154.030388 291.569931,146.741375 C294.221869,147.635774 299.663241,149.134647 303.862542,149.288862 C309.931131,149.412222 317.895534,146.938766 319.91902,145.304176 L319.980695,145.242496 L320.002948,145.220855 C320.434659,144.789076 321.853126,144.41282 322.420515,144.48067 C324.159678,155.339225 329.121862,165.522998 336.649635,173.943874 C343.65565,181.647387 352.640745,187.58802 362.126613,190.459952 C369.611221,192.834727 376.421113,194.160899 385.580745,195.141652 C399.853042,196.535673 414.843193,192.335099 428.83303,182.977881 C441.495655,174.51321 452.569604,162.196466 459.945044,148.400582 L460.068382,148.277216 C466.486657,133.175516 465.008363,119.118095 463.941435,108.891152 C463.876132,108.326212 463.802188,107.627333 463.728753,106.905008 L463.679972,106.421198 C463.494039,104.562573 463.32471,102.711191 463.32471,102.711191 C463.32471,102.711191 463.263041,101.730433 463.263041,101.600903 C464.459488,103.778297 466.32817,109.630107 467.247087,117.725308 C467.555455,120.093913 467.863811,123.492606 467.863811,127.29965 C467.863811,133.282843 467.148416,140.442933 464.730844,147.07935 C464.484156,147.801031 464.299132,148.602896 464.299132,149.299905 C464.299132,150.866639 464.996034,152.260661 466.235647,153.173564 C468.998595,155.498981 474.133469,155.283097 478.267373,152.741785 C483.355337,149.719349 485.729806,145.038896 488.449532,136.943694 C489.627503,133.329107 490.213374,129.066852 490.213374,124.30127 C490.213374,117.077029 488.844248,108.93864 486.142936,100.539349 L486.132477,100.537023 C481.716669,87.0020518 474.666872,75.6210255 467.226063,70.0942845 C458.718939,63.7835533 451.452039,60.1936446 446.274,57.6473927 C442.511963,55.7784159 439.486305,54.4275763 437.984584,52.7929866 C433.809344,48.3765285 429.36892,44.2629248 424.821791,40.5638365 L424.626579,40.396292 C425.388089,36.0141017 424.997984,30.8319476 425.363294,29.3947883 Z M240.485216,305.400354 C240.171313,304.934756 239.530794,304.859068 238.945425,304.934756 L233.767864,306.335337 C233.280058,306.482965 232.898293,307.069697 232.898293,307.523929 L232.558955,311.356592 C232.512295,311.863825 232.81347,312.329434 233.292786,312.556544 C233.84847,312.745818 234.438079,312.677685 234.819843,312.291576 L240.40165,306.816451 L240.40032,306.827433 C240.782129,306.403471 240.824554,305.854591 240.485216,305.400354 Z M215.977719,295.856287 C215.639015,295.856287 215.303398,296.095303 215.118652,296.44228 C214.903147,296.820083 214.872349,297.217163 215.057106,297.63737 L217.175518,302.383837 L219.487901,307.552051 C219.706516,308.087991 220.171462,308.357777 220.596381,308.165032 L220.58526,308.163485 C220.997873,308.028559 221.324249,307.554366 221.324249,306.995377 C221.191842,304.193832 220.976309,299.881068 220.606823,297.012829 C220.560631,296.357451 220.117242,296.049044 219.649219,296.049044 Z M290.049016,296.087726 C289.868749,295.365282 289.243774,294.971207 288.594778,295.146361 L282.262961,296.564979 C281.637992,296.718225 281.237396,297.396891 281.317497,298.031774 L282.194856,305.445828 C282.210872,305.971237 282.635541,306.382814 283.07222,306.557952 C283.536933,306.698064 284.065746,306.557952 284.386253,306.063192 L290.166402,298.664459 L290.177217,298.666651 C290.497701,298.360147 290.577796,297.896029 290.457646,297.401264 Z M152.737105,289.430252 C152.246818,289.088843 151.652536,289.046167 151.092914,289.216871 L149.854825,289.775921 C149.478446,289.925295 149.131742,290.172817 149.032726,290.556913 C148.933683,290.915389 148.933683,291.325092 149.230841,291.623824 L158.407146,305.770563 C158.808287,306.26993 159.457045,306.440578 160.085997,306.312545 L162.111508,305.87725 C162.794942,305.774825 163.334754,305.185883 163.334754,304.643896 L163.422409,299.481735 C163.422409,299.118986 163.273835,298.769038 162.92717,298.42763 Z M177.032474,286.848083 C176.66963,286.565824 176.289101,286.518758 175.890847,286.565824 L172.240343,287.346732 C171.616425,287.497258 171.173893,288.014728 171.085437,288.593338 L170.147372,302.251592 C170.147372,302.684377 170.315516,303.131271 170.75801,303.41353 C171.041203,303.728724 171.479263,303.789909 172.023525,303.695789 L176.909458,302.251592 L176.899722,302.228538 C177.53248,302.016843 177.946194,301.433526 177.930728,300.737292 L177.53248,287.892413 C177.53248,287.511378 177.297954,287.036245 177.032474,286.848083 Z M245.076662,294.834049 L242.887657,294.834049 L234.333623,295.119491 C233.467229,295.119491 232.795678,295.706702 232.795678,296.355064 L232.74444,300.555589 C232.74444,301.028619 232.969993,301.371145 233.431373,301.57504 C233.826117,301.860492 234.328521,301.901299 234.841167,301.819713 L243.684337,299.430118 C243.945789,299.389351 244.304588,299.307787 244.40717,299.063114 L246.667947,296.53082 L246.647897,296.530414 C246.937583,296.114474 246.937583,295.690385 246.629983,295.32338 C246.286516,294.915635 245.727728,294.834049 245.076662,294.834049 Z M191.190284,286.705023 C190.857955,286.321111 190.343272,286.081183 189.84479,286.22515 C189.386848,286.407493 188.981612,286.815388 188.900527,287.391222 L187.255139,298.699297 C187.145731,299.188766 187.336196,299.750197 187.660419,300.086114 C187.976526,300.422092 188.499308,300.469987 188.904583,300.374025 L196.22449,297.259689 L196.237463,297.288479 C196.618415,297.048551 196.902054,296.655054 197.023679,296.27117 C197.104736,295.762513 197.023679,295.378612 196.780518,294.89875 Z M340.902599,285.716943 C340.61649,285.248893 340.076506,284.936875 339.609062,285.070595 C339.024755,285.133004 338.598034,285.66792 338.569383,286.216204 L337.26375,297.554226 C337.19525,298.040108 337.380624,298.561655 337.791646,298.873683 C338.146267,299.185779 338.601628,299.230357 339.056989,298.962891 L344.657899,295.864827 C344.939964,295.674435 345.181767,295.398061 345.302646,294.996876 C345.383252,294.617982 345.383252,294.21678 345.181767,293.815594 Z M381.153244,288.554206 C380.548019,288.620976 380.187161,289.040137 380.070822,289.537184 L379.042726,296.119437 C378.926291,296.382797 379.042726,296.698097 379.159071,296.957747 C379.418999,297.191439 379.68281,297.376896 379.993186,297.414004 L384.05825,298.003785 C384.484999,298.085398 384.923398,297.859128 385.19497,297.599467 L385.176399,297.594649 C385.48672,297.242254 385.564361,296.815683 385.37038,296.444739 L382.398587,289.299787 C382.220133,288.776759 381.700266,288.541187 381.153244,288.554206 Z M365.346652,281.723768 C364.748331,281.633493 364.204024,281.938717 363.954722,282.467491 L360.231828,291.627674 C360.107127,291.980186 360.107127,292.405778 360.314877,292.706702 C360.431222,293.089306 360.717921,293.304255 361.09188,293.433224 L366.016806,294.903468 C366.457247,295.032436 366.885214,294.94645 367.217609,294.688519 L367.237192,294.693671 C367.577955,294.405648 367.785649,293.954259 367.661004,293.524367 L366.385413,282.862986 C366.34385,282.209549 365.874336,281.753866 365.346652,281.723768 Z M402.08089,274.84203 L401.918386,274.847456 C401.46811,274.847456 401.065239,275.134989 400.73345,275.408831 L393.827652,285.278484 C393.495863,285.748571 393.495863,286.401228 393.827652,286.857618 L396.88951,291.348597 C397.140731,291.544859 397.543608,291.864403 397.875397,291.909966 C398.358836,292.001249 398.742748,291.81869 399.027138,291.590494 L409.209992,284.457865 L409.219956,284.467912 C409.51856,284.289909 409.755551,283.897413 409.755551,283.532289 C409.802945,283.116972 409.660758,282.729033 409.423767,282.455191 L403.103328,275.258227 C402.785759,275.030021 402.420801,274.801893 401.918386,274.847456 Z M141.520886,283.750715 C141.213698,283.298948 140.678854,283.112316 140.194597,283.313078 L136.306079,284.999379 C135.883258,285.127869 135.630284,285.621722 135.630284,286.10352 L135.485721,289.359698 C135.384542,289.897713 135.702567,290.319293 136.110924,290.520039 C136.569885,290.724807 137.108356,290.652535 137.397463,290.198831 L141.400541,285.382823 L141.412407,285.364748 C141.773849,284.911062 141.846138,284.244557 141.520886,283.750715 Z M280.153111,283.531894 C279.69286,283.436684 279.340904,283.618459 279.070172,283.878109 C278.799484,284.168062 278.664074,284.613809 278.709192,284.960024 L279.408581,289.278997 L279.401811,289.313623 C279.496576,289.967087 280.227559,290.512312 280.913435,290.425814 L288.076663,289.785323 C288.424107,289.785323 288.884358,289.504021 289.109966,289.157823 C289.335636,288.77267 289.335636,288.357209 289.245338,288.010995 L288.018003,284.635451 C287.823967,284.094498 287.35018,283.748284 286.727498,283.748284 Z M240.371886,279.444426 C239.788987,279.382374 239.120785,279.710341 238.836456,280.211154 L237.097238,282.901361 C234.931515,285.932833 234.884066,286.06579 234.789351,286.464667 C234.694575,286.823655 234.789351,287.297875 235.073691,287.652429 C235.35803,287.97154 235.794015,288.104486 236.277392,288.104486 L248.832418,287.417525 C249.538522,287.417525 250.104348,286.916717 250.121427,286.243064 L250.421405,282.068147 C250.520927,281.429943 249.86694,280.751811 249.16557,280.663221 Z M141.876186,266.736744 C141.562583,266.353016 141.178037,266.305094 140.797213,266.448977 L138.385398,267.360239 C137.933759,267.530882 137.605119,267.969347 137.530426,268.492113 L136.738558,275.59993 C136.686291,276.175458 136.8767,276.731804 137.175371,277.019582 C137.503928,277.307344 137.978071,277.355316 138.38502,277.163466 L145.07578,273.187498 C145.4342,272.981261 145.706829,272.535224 145.732865,272.103579 C145.811274,271.609593 145.650723,271.067622 145.352047,270.7319 Z M448.180618,263.338613 C447.841407,262.806201 447.228533,262.554673 446.754407,262.806201 L433.672638,268.219189 C433.125271,268.412035 432.855451,268.944448 432.855451,269.460087 C432.894005,270.051198 433.260186,270.533301 433.79212,270.65906 L439.557855,272.419803 C439.935597,272.55395 440.390446,272.419803 440.698814,272.12635 L447.946648,264.938783 C448.373341,264.55017 448.488986,263.871026 448.180618,263.338613 Z M94.4945252,262.319179 C94.1239877,262.281226 93.8058508,262.395073 93.543842,262.62279 L91.7472771,264.269925 C91.5226981,264.50903 91.3729955,264.861976 91.3729955,265.165593 L91.4104921,270.574564 C91.4516549,271.067939 91.7024314,271.546138 92.2039733,271.697949 C92.6643468,271.800419 93.1696383,271.697949 93.4316249,271.318421 L97.1033752,266.980483 L97.1067021,266.991098 C97.4326831,266.603993 97.3952478,266.175124 97.133239,265.788019 L95.3254473,262.854306 C95.1420534,262.546885 94.7939693,262.319179 94.4945252,262.319179 Z M104.715883,254.181741 C104.297118,253.953524 103.870953,254.067632 103.537417,254.333869 C103.229839,254.520251 103.044498,254.991879 103.081605,255.379846 L103.670836,259.646607 C103.711598,260.103025 104.026603,260.536634 104.430537,260.612695 C104.80854,260.764823 105.23471,260.650731 105.568235,260.422525 L108.495867,257.912212 L108.495867,257.924379 C108.788619,257.6163 109.010984,257.159871 108.899801,256.771921 C108.859039,256.410585 108.592218,256.102506 108.258688,255.8743 Z M461.932697,238.440785 C461.402287,238.369937 460.883766,238.566738 460.606686,238.995751 L456.4454,245.674656 C456.247608,245.899006 456.207925,246.265049 456.326724,246.619286 C456.397967,246.92629 456.651303,247.249 456.928366,247.32776 L462.891035,250.425345 C463.350207,250.582781 463.785607,250.582781 464.18934,250.267915 L464.185916,250.269571 C464.490894,250.046317 464.714218,249.663384 464.698109,249.236139 L464.683661,249.092236 L462.882668,239.456264 C462.799552,238.968207 462.435396,238.55886 461.932697,238.440785 Z M64.2605711,225.636057 C63.8929599,225.414693 63.3833067,225.503244 63.007345,225.76888 L56.1990497,230.891793 C55.5724395,231.268122 55.4471152,232.034065 55.7813077,232.627323 L59.6996954,240.202568 C59.8751394,240.578897 60.2343946,240.844583 60.5685815,240.888812 C60.8777114,240.977351 61.3372281,240.888812 61.6296514,240.667437 L65.2973962,237.49744 L65.3216132,237.475298 C65.7268211,237.253935 65.8521454,236.802351 65.8521454,236.302044 L65.0542748,226.711914 C65.0124889,226.278016 64.678302,225.813147 64.2605711,225.636057 Z M42.7624483,221.491304 C42.5431934,221.021774 41.920661,220.793851 41.4234196,220.930608 C40.8909291,221.076477 40.4993902,221.591588 40.4993902,222.298148 L40.2253202,230.885429 C40.1705218,231.482592 40.4876461,231.933876 40.8870125,232.252969 C41.372521,232.448986 41.8619405,232.389726 42.2143138,231.933876 L45.2682773,228.893375 L45.2800214,228.902493 C45.7107036,228.487667 45.8281559,227.762864 45.5540914,227.152037 Z M494.793298,212.337623 L494.694494,212.353052 C494.289208,212.406621 493.936384,212.835184 493.831627,213.385471 L491.169425,222.418677 C491.029731,222.968981 491.134488,223.563124 491.379106,224.001417 L493.744284,227.799944 C494.00281,228.20415 494.2753,228.350259 494.656107,228.350259 C495.012436,228.316161 495.330378,228.053179 495.505066,227.663593 L498.830968,220.413745 C499.005656,219.878055 499.005656,219.225476 498.761149,218.69466 L495.704176,213.025103 C495.494551,212.596546 495.089321,212.255617 494.694494,212.353052 Z M506.539632,209.605009 L502.971393,209.87218 C502.552254,209.883629 502.240821,210.074473 502.010056,210.463781 C501.817844,210.799659 501.817844,211.177523 501.971669,211.582102 L503.709641,215.028662 C503.886498,215.433241 504.305637,215.662248 504.713204,215.662248 C505.213065,215.662248 505.630424,215.41535 505.824471,215.028662 L507.700858,211.288216 L507.701916,211.283571 L507.756455,211.167449 C507.86649,210.877548 507.839543,210.534801 507.693703,210.221809 L507.623974,210.089733 C507.408618,209.757676 506.974125,209.605009 506.539632,209.605009 Z M55.1120882,197.170873 C54.7436314,196.912609 54.2454386,196.912609 53.8302891,197.153905 L47.3496494,199.586132 L42.1705418,201.57922 C41.5478092,201.815688 41.1845485,202.361013 41.1845485,202.906327 L40.7174879,210.481961 C40.7174879,210.824616 40.8731822,211.33132 41.2364373,211.572617 C41.5478092,211.813908 42.0148587,212.041207 42.4819193,212.006938 L52.1696187,211.500305 C52.7197058,211.500305 53.1919403,211.302447 53.4514289,210.819859 L57.5874471,204.980556 C57.7950636,204.623454 57.8469413,204.208438 57.6912581,203.7741 L55.952785,198.087782 C55.8645512,197.663102 55.5272489,197.363914 55.1120882,197.170873 Z M498.497171,187.971064 C497.719534,187.732588 496.971883,187.971064 496.620672,188.623226 L493.896106,193.261342 L493.885591,193.237025 C493.534381,193.699374 493.534381,194.28827 493.885591,194.677612 L498.290995,202.352162 C498.577004,202.833987 499.179063,203.126005 499.725991,203.126005 L506.346085,203.077326 C507.158938,203.02379 507.866422,202.303483 507.866422,201.549128 L507.665698,192.0203 C507.665698,191.402207 507.168952,190.823046 506.622025,190.579702 Z M35.1271084,178.988027 C34.5354635,178.780595 33.8245471,178.988027 33.4428497,179.497636 L24.4881807,190.125198 C24.1064833,190.508509 24.0110673,191.099297 24.297332,191.590853 C24.483413,191.992211 24.9700786,192.352985 25.5426304,192.352985 L34.3961531,192.758849 C34.8160203,192.758849 35.2167998,192.578465 35.4553649,192.352985 C35.751193,192.113975 35.9420306,191.73966 35.9420306,191.333795 L36.1386039,180.354472 C36.1386039,179.718605 35.747371,179.213519 35.1271084,178.988027 Z M518.352782,170.04582 C518.005855,169.656785 517.289359,169.440751 516.811806,169.743289 C516.266547,169.924813 515.919398,170.413192 515.951109,170.992331 L516.505324,181.558597 C516.577424,181.908667 516.75773,182.241463 517.028051,182.457558 C517.284852,182.673647 517.595785,182.846526 518.046411,182.846526 C528.20092,182.260281 528.586534,182.238019 528.601178,181.098156 L528.601756,180.957844 C528.601756,180.638022 528.421505,180.331167 528.241255,180.071846 Z M499.766158,165.054952 C499.380343,164.936198 498.983236,165.054952 498.721093,165.420372 C498.434751,165.694436 498.394695,166.219716 498.421399,166.676491 L499.571331,173.831373 C499.653779,174.315541 499.912194,174.726646 500.286826,174.863681 L504.449281,176.846071 C504.872481,176.983095 505.262078,176.937426 505.599213,176.663361 C505.898852,176.439539 506.048727,175.964495 506.048727,175.553407 L505.988755,167.777316 C505.962552,167.119562 505.606668,166.562293 505.104748,166.425269 Z M28.9865528,148.897195 C28.3265016,148.728938 27.5564586,149.175871 27.3651481,149.880462 L23.5005685,160.713359 C23.3570745,161.197115 23.4049133,161.670351 23.6918845,162.196166 C23.911896,162.690436 24.3519302,162.900768 24.8397808,162.900768 L30.8997355,163.303539 C31.2536721,163.303539 31.6602263,163.145786 31.9471976,162.882893 C32.2819909,162.509546 32.4254905,162.130958 32.4254905,161.657723 L32.3297907,150.769103 C32.2771731,150.101314 31.7701904,149.423004 31.0958137,149.212683 Z M39.2223143,150.302282 C38.824105,150.261447 38.4032642,150.302282 38.0412441,150.506427 C37.7244814,150.751434 37.4982279,151.131168 37.4982279,151.457817 L36.8918458,158.314368 C36.8782714,158.861523 37.2448144,159.36376 37.7878251,159.567922 L37.7878251,159.558114 C38.3761154,159.692857 39.0503529,159.598949 39.3671157,159.19062 L44.6991303,153.356518 C45.0158763,153.025775 45.1516484,152.650119 44.9706467,152.147887 C44.7625017,151.743653 44.4321479,151.449661 43.9796409,151.327157 Z M523.803027,137.651095 C523.453208,136.993358 522.753568,136.603182 522.090479,136.826142 L521.37326,137.751902 C520.663217,138.06403 520.141046,138.671614 520.141046,139.440822 L520.141046,139.663783 C520.141046,139.663783 520.163891,139.775069 520.203548,139.972582 L520.248586,140.197909 C520.524661,141.585079 521.248502,145.327913 521.416598,147.257081 C521.283686,147.257081 520.593077,147.213266 519.854714,147.161743 L519.410046,147.130194 C518.672981,147.077032 517.990151,147.023383 517.871501,147.005353 C517.391111,145.274067 515.763069,140.78369 515.763069,140.78369 C515.653473,140.309898 515.40802,139.869558 514.990384,139.702325 C514.604013,139.423671 514.243734,139.423671 513.721619,139.535115 L507.320774,141.004441 C506.809174,141.143785 506.334013,141.567407 506.125167,142.12481 C505.968505,142.754675 506.020744,143.479294 506.438436,143.813748 L507.508758,145.073466 L514.489465,152.860378 C514.839285,153.194854 515.366685,153.417742 515.836505,153.306298 L525.635687,151.712126 L529.760367,150.942917 C530.235472,150.942917 530.731495,150.536007 530.992525,149.978598 C531.149187,149.449079 531.096948,148.757895 530.783679,148.367719 Z M40.3674845,127.997309 C39.8820039,127.890016 39.5073273,128.104597 39.1379247,128.31919 C38.7368615,128.700081 38.5626748,129.048799 38.5257902,129.531621 L38.1268354,140.379589 C38.1268354,141.157487 38.5912089,141.90318 39.3563841,142.064126 L45.8535189,143.727183 C46.6714619,143.995412 47.5632798,143.614538 47.8271412,142.782992 L52.0910038,131.843803 C52.3021029,131.312692 52.2493295,130.82987 51.9854793,130.347055 C51.7427362,129.907148 51.2678091,129.638886 50.7928597,129.531621 Z M508.15894,123.316395 C507.876491,122.657684 507.113708,122.325956 506.482831,122.515509 L495.719864,124.922867 C495.187847,125.022395 494.797081,125.458379 494.655829,125.94174 L494.638583,125.950747 C494.440863,126.415148 494.638583,127.021736 494.921142,127.353453 L499.407993,132.252054 C499.723487,132.678563 500.354364,132.773295 500.834588,132.678563 L509.654019,130.337541 C510.016578,130.171677 510.360279,129.849435 510.54854,129.470319 C510.720224,129.152822 510.720224,128.607842 510.53185,128.181354 Z M48.4755651,99.2484426 C48.0054002,98.5542049 47.6113021,97.6894691 47.0346836,98.1853364 L43.9652987,100.669686 C43.4773869,101.021764 43.3443519,101.562271 43.3886913,102.192047 C43.4197456,102.697845 43.8100718,103.213556 44.2802311,103.362313 L50.6806815,105.913116 C51.2262457,106.156093 51.8871481,105.913116 52.1976298,105.352776 C52.596835,104.881687 52.596835,104.093235 52.1976298,103.56761 Z M77.8117596,67.5468031 C77.4302124,67.2104743 76.9409153,67.0662682 76.4336488,67.2584855 L71.6668758,68.9691922 C71.1102517,69.0364524 70.7870523,69.5602252 70.6523817,70.1032303 L68.9775582,82.6691598 C68.9416639,83.3130719 69.2468828,84.053101 69.7990339,84.2453183 L73.6954244,86.2106902 C74.0724932,86.4028964 74.5438264,86.4028964 74.9927173,86.2106902 C75.2575689,85.9896439 75.616774,85.6052149 75.7064543,85.12468 L78.2696408,68.9691922 C78.3953156,68.3925347 78.1259799,67.9312154 77.8117596,67.5468031 Z M483.88563,63.0590402 C483.231832,62.8732374 482.657811,63.0590402 482.158729,63.4719589 L482.168242,63.4724763 C481.768964,64.0402492 481.669103,64.6751098 481.918617,65.2583653 L484.613809,71.0851735 C484.898316,71.5290686 485.402406,71.9239065 485.901489,71.9419872 C486.465495,71.993609 486.979543,71.7458478 487.328918,71.2296967 L490.058992,67.4256735 C490.308728,66.9508132 490.358576,66.5327374 490.258659,66.0062608 C490.118909,65.577854 489.719576,65.1649131 489.220549,65.0617029 Z M95.9242633,62.3168804 C95.6226829,62.106983 95.0798558,62.023083 94.64904,62.1489858 L88.9648078,63.7313084 C88.3676886,63.9038039 87.9368728,64.5543585 88.0661137,65.2342985 L89.0828553,70.4017954 C89.2336428,70.8634819 89.5136711,71.2118441 89.858317,71.379722 C90.1900561,71.4636443 90.6682711,71.4636443 91.012917,71.379722 L94.9032157,69.5287981 C95.2909493,69.2895543 95.6355786,68.9705663 95.6786941,68.5508549 L96.3636966,63.5466294 C96.4412434,63.1143338 96.2258216,62.6106779 95.9242633,62.3168804 Z M464.889258,57.9896352 C464.422198,57.8516267 463.912328,57.9896352 463.639865,58.4467876 L463.620844,58.4705151 C463.309417,58.867289 463.231586,59.4451982 463.542964,59.9153019 L465.769276,64.6011291 C465.921071,65.0108544 466.290829,65.2540482 466.730636,65.2696254 C467.018664,65.2955002 467.442904,65.1833665 467.676451,64.8383479 L470.451554,61.582181 C470.801886,61.2759885 470.879688,60.7800211 470.724,60.3487324 C470.65783,59.8915801 470.299754,59.5077296 469.859948,59.4214763 Z M136.909184,27.063463 C136.831009,29.4082792 136.674658,33.7070404 136.518318,38.7032047 C134.806271,40.2200306 133.516394,41.6821304 131.859089,43.0347837 C132.236877,41.4135905 132.706355,39.3692371 133.186415,37.2787921 L133.366775,36.4934511 C134.299561,32.4323035 135.23401,28.3750675 135.580208,27.0642363 L136.901368,27.0642363 Z M408.557602,22.7665711 C410.16852,23.1012198 411.081367,23.3346778 412.853381,23.6459829 C412.504335,24.7977512 411.797324,27.7627966 411.081367,30.9457394 C409.345158,29.8717849 407.73424,29.1013524 406.033831,28.1441102 C407.295697,25.4281111 408.199599,23.3891591 408.557602,22.7665711 Z" id="Combined-Shape"></path>
                    <path d="M238.57279,144.603452 C228.195131,150.173364 216.076446,148.692983 207.482356,142.493901 C202.283348,138.903987 201.802296,132.506296 203.066599,126.565663 C204.935281,120.779851 209.593419,117.360796 215.66385,116.838965 C225.802226,114.926811 233.613059,120.780463 239.595929,127.827685 C238.226798,133.070681 237.030345,139.099526 238.572172,144.604676" id="path92-path"></path>
                    <path d="M285.197331,142.279247 C282.280213,146.239265 272.926328,154.029749 254.890142,150.983257 C248.840051,149.959322 243.59849,142.845501 243.946318,137.078816 C244.501378,127.591439 251.844128,123.043598 257.239876,122.086284 C267.769869,120.303661 278.169736,124.411712 283.674024,132.160871 C285.308341,134.486299 288.632508,137.946673 285.197331,142.279247" id="path92-path"></path>
                    <path d="M319.964695,136.83886 C316.461684,139.620739 307.105941,144.280853 292.702896,139.472706 C292.702896,139.472706 293.572488,136.38242 291.463272,132.161483 C289.181393,127.658677 286.091597,125.198161 282.151317,121.477482 C282.151317,121.477482 283.958325,118.603079 284.655227,117.406443 L308.00019,113.230541 C314.025614,115.975414 319.248054,119.519687 322.337856,125.177188 C324.033853,128.335324 324.249703,133.337151 319.969624,136.840712" id="path92-path"></path>
                    <path d="M130.398286,220.611586 C124.219299,220.611586 120.760083,218.890643 120.694703,216.805783 C121.521125,215.306893 123.198613,212.518855 129.332582,212.451005 C135.576325,212.327634 139.100915,215.713998 140.014903,217.194373 C140.05863,219.347095 136.555075,220.457383 130.398286,220.611586" id="path92-path"></path>
                    <path d="M440.069155,67.760745 C455.92951,89.5210602 462.674044,123.706064 448.619456,150.166582 L448.616991,150.179533 C438.369452,167.609744 417.047981,183.364046 403.319635,186.192807 C389.721425,188.999349 366.158765,186.377848 351.712554,175.791299 C338.615124,165.672917 329.390129,153.509147 330.564996,136.013545 C330.688335,133.077474 330.873353,127.984358 332.520015,124.306855 C334.197514,120.501041 336.565752,109.618418 347.249308,105.853939 C356.343555,102.60945 364.328314,105.853939 373.227061,108.136191 C376.403216,108.691335 375.774158,105.897116 374.509867,104.065152 C367.939252,96.8402938 353.188378,96.2746684 346.617775,98.5815819 C342.263687,100.321029 337.348991,103.867772 333.324228,108.308286 C311.306466,101.018654 277.235387,113.310725 266.400731,113.619143 C262.028145,113.804189 260.069416,114.05091 258.959929,113.865869 C237.660026,112.144926 209.854905,103.682097 191.361739,118.023267 C189.108053,118.320727 186.174963,117.08465 183.504379,116.00162 L183.073761,115.827602 C179.506932,114.393066 176.512453,113.4045 176.414742,117.024005 C176.291399,120.484395 187.357949,123.704212 188.31572,130.906866 C190.794962,143.049046 192.164093,154.582423 197.518517,165.331815 C199.060339,170.315751 196.901787,174.057404 195.298307,175.776489 C193.75648,177.411079 189.291387,178.626224 185.986347,176.646221 C175.47794,169.574326 173.410671,149.816217 170.32148,146.029535 C168.952349,144.265432 165.554179,144.635518 166.318926,148.250106 C170.518833,170.684614 157.333213,202.715667 152.742919,210.266217 C151.460124,212.375745 148.654016,216.163045 144.69278,215.095939 C140.517535,208.263382 129.288787,204.73823 122.740387,207.958675 C116.322112,211.024293 116.539202,216.96738 111.47032,212.504663 C103.224064,203.95301 100.809579,186.370454 99.9387625,180.517399 C99.1555234,174.750101 100.660338,158.996411 103.595948,154.622517 C106.229382,150.446616 107.993224,145.526836 105.230276,143.394476 C102.02947,141.938763 100.660338,143.209419 99.2048642,147.50868 C97.835727,151.968321 87.3476813,174.121555 77.4263904,173.599106 C73.4238245,173.352374 72.5974142,170.749376 72.5974142,168.923576 C72.9057875,157.281637 79.7119798,151.210244 82.235617,141.875236 C85.3932691,132.017761 89.2194453,116.263459 98.8360624,114.414232 C103.97339,113.47665 108.626594,112.280014 109.932209,110.324684 C111.239672,108.41253 109.932209,106.013083 107.841496,106.383181 C105.732302,106.753268 105.689131,106.814948 104.449507,105.754022 C102.901516,104.446343 105.405426,86.4091885 117.830014,67.847716 C130.470447,48.9383542 182.229857,1.80558972 262.947062,0.108707838 C343.577925,-1.6739155 397.556326,18.3654733 440.069155,67.760745 Z M146.285745,167.611697 C145.459335,168.228521 144.830277,169.332629 145.588849,170.899368 C146.828472,173.224797 150.442487,176.709843 156.054085,174.773016 L156.060866,174.760682 C158.367429,174.063669 160.871339,171.867771 160.871339,169.819923 C160.871339,168.795988 160.377959,168.16683 159.58855,167.728893 C158.762139,167.482155 157.763039,167.685777 157.109302,168.425901 L156.307565,169.449836 C155.326968,170.757499 154.414204,171.972644 152.150824,171.170762 C150.454821,170.738995 149.973774,169.622543 149.560572,168.734308 L149.005522,167.735063 C148.450467,166.976358 147.155338,167.062722 146.285745,167.611697 Z M107.829124,164.186467 C106.786858,164.556565 105.960442,165.666848 106.219469,166.974516 C106.65118,168.800316 107.674948,170.262182 109.352448,171.175085 C111.54799,172.414904 114.594621,172.569107 117.467326,171.606858 C119.336025,170.977694 121.753581,168.559743 121.753581,166.820313 C121.753581,165.993758 121.445225,165.42628 120.686653,165.124043 C119.009154,164.494885 118.4911,165.370769 117.880545,166.320679 L117.878075,166.296011 C117.446375,166.968346 116.940655,167.690028 115.941555,168.103302 C112.198021,169.324617 110.502024,167.233576 109.740977,165.09937 C109.494295,164.340681 108.674049,164.013754 107.829124,164.186467 Z" id="Combined-Shape"></path>
                    <path d="M475.880665,145.423208 C474.443661,146.551995 473.814603,145.916667 474.314142,144.528803 C480.645458,129.013828 474.129124,100.594898 468.50458,94.5241174 C463.046546,88.645782 459.148837,90.2803661 457.343053,84.7536251 C455.449704,79.1590343 453.49468,74.9831329 450.359242,70.3051444 C452.795313,70.3051444 459.061871,72.9574827 463.892083,77.2684664 C469.202089,81.8144546 482.145989,100.33398 482.537589,121.963535 C482.660927,126.836445 481.186988,141.177599 475.880053,145.42135" id="path92-path"></path>
                    <path d="M3.55271368e-15,348.841849 L13.3798892,348.841849 L13.3798892,363.94356 L25.8901859,363.94356 L25.8901859,348.841849 L39.2706927,348.841849 L39.2706927,392.231725 L25.8901859,392.231725 L25.8901859,375.041454 L13.3798892,375.041454 L13.3798892,392.231725 L3.55271368e-15,392.231725 L3.55271368e-15,348.841849 Z M60.0050534,348.841849 L73.0808976,348.841849 L88.8543042,392.231725 L74.9952208,392.231725 L73.1678519,385.986385 L59.3957172,385.986385 L57.4591965,392.231725 L44.0139386,392.231725 L60.0050534,348.841849 Z M70.5134607,376.78213 L66.6219214,363.268755 L66.498561,363.268755 L62.2986651,376.78213 L70.5134607,376.78213 Z M93.6407212,348.841849 L107.021217,348.841849 L107.021217,381.112229 L126.254451,381.112229 L126.254451,392.231725 L93.6407212,392.231725 L93.6407212,348.841849 Z M142.702563,392.231725 L142.702563,348.928831 L152.79715,348.928831 L152.79715,385.660076 L163.762548,385.660076 L163.762548,392.231725 L142.702563,392.231725 Z M188.891709,348.928831 L194.485427,392.231725 L184.433393,392.231725 L183.304779,381.590889 L177.84675,381.590889 L176.193919,392.231725 L167.686783,392.231725 L175.062835,348.928831 L188.891709,348.928831 Z M182.582586,375.041454 L180.81875,355.805177 L180.695401,355.805177 L178.956238,375.041454 L182.582586,375.041454 Z M199.574643,348.928831 L209.799979,348.928831 C218.394057,348.928831 225.117001,349.113872 225.117001,359.482685 C225.117001,364.269241 223.704698,368.622166 217.958652,369.122406 L217.958652,369.61587 C224.376927,369.61587 225.117001,374.340746 225.117001,379.930397 C225.117001,391.78946 220.485388,392.246529 209.799979,392.246529 L199.574643,392.246529 L199.574643,348.928831 Z M209.669236,385.986385 C215.090252,386.541524 215.040919,383.4204 215.040919,378.892904 C215.040919,372.823353 213.912303,372.737 209.669236,372.737 L209.669236,385.986385 Z M209.669236,366.489801 C212.826871,366.366441 215.040911,367.384206 215.040911,360.852034 C215.040911,356.608282 214.670885,354.844162 209.669236,355.127913 L209.669236,366.489801 Z M255.141113,380.415839 C255.141113,390.382482 249.047851,393.124272 242.348357,393.124272 C235.690788,393.124272 229.598755,390.385564 229.598755,380.415839 L229.598755,360.723115 C229.598755,350.887243 235.692017,348.145453 242.348357,348.145453 C249.049097,348.145453 255.141113,350.890331 255.141113,360.723115 L255.141113,380.415839 Z M239.672369,382.679587 C239.672369,384.530054 240.227424,386.158474 242.348974,386.158474 C244.501339,386.158474 245.044061,384.52389 245.044061,382.679587 L245.044061,358.395217 C245.044061,356.631114 244.489006,355.002694 242.348974,355.002694 C240.239752,355.002694 239.672369,356.637278 239.672369,358.395217 L239.672369,382.679587 Z M260.710775,392.231725 L260.710775,348.928831 L270.849763,348.928831 C280.444188,348.928831 286.166173,349.971253 286.166173,359.047825 C286.166173,364.420362 283.945952,367.991161 278.464496,368.90467 L278.464496,369.028031 C283.336638,369.151408 286.166173,370.940195 286.166173,377.188006 L286.166173,386.239893 C286.166173,387.892981 286.474535,390.483639 287.689485,392.247759 L277.572088,392.247759 C276.33247,390.483639 276.116614,387.89915 276.116614,386.239893 L276.116614,377.057235 C276.116614,374.010125 274.266442,372.511247 272.440925,372.511247 L270.806597,372.511247 L270.806597,392.247759 L260.710775,392.231725 Z M270.805985,366.315242 C275.332752,366.315242 276.115991,364.73001 276.115991,360.677469 C276.115991,356.631114 275.419094,355.126054 270.805985,355.126054 L270.805985,366.315242 Z M312.622529,348.928831 L318.216241,392.231725 L308.164825,392.231725 L307.036211,381.590889 L301.553514,381.590889 L299.919181,392.231725 L291.412056,392.231725 L298.744325,348.928831 L312.622529,348.928831 Z M306.291203,375.041454 L304.527361,355.805177 L304.404023,355.805177 L302.621678,375.041454 L306.291203,375.041454 Z M320.367994,355.478878 L320.367994,348.928831 L344.561571,348.928831 L344.561571,355.478878 L337.533965,355.478878 L337.533965,392.231725 L327.460351,392.231725 L327.460351,355.478878 L320.367994,355.478878 Z M373.497781,380.415839 C373.497781,390.382482 367.404519,393.124272 360.726594,393.124272 C354.069025,393.124272 347.955418,390.385564 347.955418,380.415839 L347.955418,360.723115 C347.955418,350.887243 354.067184,348.145453 360.726594,348.145453 C367.405743,348.145453 373.497781,350.890331 373.497781,360.723115 L373.497781,380.415839 Z M358.050618,382.679587 C358.050618,384.530054 358.605673,386.158474 360.727206,386.158474 C362.879588,386.158474 363.42231,384.52389 363.42231,382.679587 L363.42231,358.395217 C363.42231,356.631114 362.86726,355.002694 360.727206,355.002694 C358.618007,355.002694 358.050618,356.637278 358.050618,358.395217 L358.050618,382.679587 Z M379.111215,392.231725 L379.111215,348.928831 L389.228017,348.928831 C398.822437,348.928831 404.566624,349.971253 404.566624,359.047825 C404.566624,364.420362 402.303238,367.991161 396.821148,368.90467 L396.821148,369.028031 C401.69329,369.151408 404.566624,370.940195 404.566624,377.188006 L404.566624,386.239893 C404.566624,387.892981 404.874986,390.483639 406.089931,392.247759 L395.929981,392.247759 C394.708866,390.483639 394.474513,387.89915 394.474513,386.239893 L394.474513,377.057235 C394.474513,374.010125 392.649002,372.511247 390.798818,372.511247 L389.189157,372.511247 L389.189157,392.247759 L379.111215,392.231725 Z M389.184217,366.315242 C393.729499,366.315242 394.469572,364.73001 394.469572,360.677469 C394.469572,356.631114 393.797338,355.126054 389.184217,355.126054 L389.184217,366.315242 Z M416.358439,376.281885 L407.786552,348.928831 L417.62026,348.928831 L421.320622,366.162891 L421.443972,366.162891 L425.144334,348.928831 L434.978047,348.928831 L426.427741,376.281885 L426.427741,392.231725 L416.354127,392.231725 L416.358439,376.281885 Z M435.308596,400 L437.615153,381.982573 L447.274958,381.982573 L441.576395,400 L435.308596,400 Z M459.850624,348.928831 L469.945834,348.928831 L469.945834,392.231725 L459.850624,392.231725 L459.850624,348.928831 Z M475.101676,348.928831 L489.069895,348.928831 L495.53138,380.415839 L495.654662,380.415839 L495.654662,348.928831 L503.530281,348.928831 L503.530281,392.231725 L490.628395,392.231725 L483.122791,356.066089 L482.999453,356.066089 L482.999453,392.231725 L475.101676,392.231725 L475.101676,348.928831 Z M534.432642,375.389338 L534.432642,381.113476 C534.432642,389.143281 530.121759,393.125502 521.59607,393.125502 C514.916948,393.125502 508.89029,390.386804 508.89029,380.417079 L508.89029,360.724345 C508.89029,350.888473 514.915724,348.146693 521.59607,348.146693 C528.949907,348.146693 534.432642,350.237723 534.432642,359.657862 L534.432642,364.401241 L524.315852,364.401241 L524.315852,358.393376 C524.315852,356.629256 523.760802,355.000836 521.59607,355.000836 C519.530086,355.000836 519.005801,356.635426 519.005801,358.393376 L519.005801,382.67774 C519.005801,384.528213 519.499209,386.156622 521.59607,386.156622 C523.773153,386.156622 524.315852,384.522043 524.315852,382.67774 L524.377493,375.388108 L534.432642,375.389338 Z M541.090234,381.982573 L550.510722,381.982573 L550.510722,392.231725 L541.090234,392.231725 L541.090234,381.982573 Z" id="Combined-Shape"></path>
                </g>
            </g>
        </g>
    </g>
</svg>