<?xml version="1.0" encoding="UTF-8"?>
<svg width="800px" height="400px" viewBox="0 0 800 400" version="1.1" xmlns="http://www.w3.org/2000/svg" xmlns:xlink="http://www.w3.org/1999/xlink">
    <title>irem_2</title>
    <g id="Page-1" stroke="none" stroke-width="1" fill="none" fill-rule="evenodd">
        <g id="Manufacturer" fill="#000000" fill-rule="nonzero">
            <g id="irem_2">
                <line x1="0" y1="0" x2="800" y2="400" id="Path"></line>
                <path d="M289.811522,165.740635 C295.806789,165.740635 302.201741,166.140324 308.197009,166.939692 L294.019025,224.250251 C312.835465,192.315895 346.511449,174.54396 384.546588,174.54396 C431.424129,174.54396 467.271656,200.543272 484.210601,240.330083 L378.637657,319.903726 C384.152659,322.661221 393.606955,323.44908 400.697675,323.44908 C421.969833,323.44908 435.757353,314.388724 448.363075,303.75264 L483.028813,360.872347 C454.665935,381.356635 425.909128,390.416947 387.304095,390.416947 C323.487619,390.416947 278.185796,343.539461 278.185796,286.813694 C278.185796,270.466396 280.768817,255.664676 285.463649,242.570512 L283.655047,242.516571 C283.017147,242.503685 282.3406,242.495356 281.614564,242.489968 L277.021617,242.480065 C257.037392,242.480065 240.250642,255.269963 240.250642,283.247882 L240.250642,375.175333 L162.711853,381.570315 L162.711853,172.135584 L235.454429,165.740635 L235.454429,205.309407 L236.253798,205.309407 C242.249066,179.329911 260.634553,165.740635 289.811522,165.740635 Z M383.75874,235.209011 C364.850148,235.209011 351.850497,252.935815 351.850497,270.662608 C351.850497,277.821839 352.925798,280.679874 354.188102,283.456087 L355.001922,285.237976 L407.788394,245.451166 C401.485534,237.178658 393.606955,235.209011 383.75874,235.209011 Z M800,380.962728 L800,246.632954 C800,205.664344 774.394617,174.54396 732.24423,174.54396 C713.335637,174.54396 697.97241,182.816468 685.760618,195.4222 C673.548827,181.24075 659.367388,174.54396 637.7013,174.54396 C611.308058,174.54396 592.793406,186.755763 577.824108,206.846133 L577.03625,206.846133 L577.03625,174.54396 L506.916903,180.846821 L506.916903,387.265577 L583.33911,380.962728 L583.33911,260.420464 C583.33911,250.178309 589.248041,244.269377 598.308408,244.269377 C609.338411,244.269377 615.247353,250.572238 615.247353,260.026534 L615.247353,387.265577 L691.66955,380.962728 L691.66955,260.420464 C691.66955,252.935815 696.396703,244.269377 707.820636,244.269377 C718.85065,244.269377 723.577793,250.572238 723.577793,259.238675 L723.577793,387.265577 L800,380.962728 Z M113.303847,177.844915 L113.303847,384.45758 L34.1578285,384.45758 L34.1578285,177.844915 L113.303847,177.844915 Z M100.316265,190.838989 L47.1454109,190.838989 L47.1454109,371.463507 L100.316265,371.463507 L100.316265,190.838989 Z M0,81.6475742 L71.6479293,153.295524 L142.879353,82.0641009 L70.3983127,9.583053 L0,81.6475742 Z" id="Shape"></path>
            </g>
        </g>
    </g>
</svg>