<?xml version="1.0" encoding="UTF-8" standalone="no"?>
<!-- Created with Inkscape (http://www.inkscape.org/) -->

<svg
   xmlns:dc="http://purl.org/dc/elements/1.1/"
   xmlns:cc="http://creativecommons.org/ns#"
   xmlns:rdf="http://www.w3.org/1999/02/22-rdf-syntax-ns#"
   xmlns:svg="http://www.w3.org/2000/svg"
   xmlns="http://www.w3.org/2000/svg"
   xmlns:xlink="http://www.w3.org/1999/xlink"
   xmlns:sodipodi="http://sodipodi.sourceforge.net/DTD/sodipodi-0.dtd"
   xmlns:inkscape="http://www.inkscape.org/namespaces/inkscape"
   width="210mm"
   height="57mm"
   viewBox="0 0 744.09449 201.96838"
   id="svg4410"
   version="1.1"
   inkscape:version="0.91 r13725"
   sodipodi:docname="Jaleco.svg"
   inkscape:export-filename="C:\Users\namco\OneDrive\Documents\jaleco.png"
   inkscape:export-xdpi="90"
   inkscape:export-ydpi="90">
  <defs
     id="defs4412">
    <linearGradient
       inkscape:collect="always"
       id="linearGradient4367">
      <stop
         style="stop-color:#13183c;stop-opacity:1;"
         offset="0"
         id="stop4369" />
      <stop
         style="stop-color:#162f77;stop-opacity:1"
         offset="1"
         id="stop4371" />
    </linearGradient>
    <linearGradient
       inkscape:collect="always"
       xlink:href="#linearGradient4367"
       id="linearGradient4373"
       x1="-499.52045"
       y1="408.13742"
       x2="-499.52045"
       y2="441.21991"
       gradientUnits="userSpaceOnUse"
       gradientTransform="matrix(5.6031022,0,0,5.6031022,2836.737,-1409.5369)" />
    <linearGradient
       inkscape:collect="always"
       xlink:href="#linearGradient4367"
       id="linearGradient4418"
       x1="-377.25043"
       y1="483.76382"
       x2="-377.25043"
       y2="511.26895"
       gradientUnits="userSpaceOnUse"
       gradientTransform="matrix(3.7555985,0,0,3.7555985,1634.8795,-1183.5148)" />
    <linearGradient
       inkscape:collect="always"
       xlink:href="#linearGradient4367"
       id="linearGradient3385"
       gradientUnits="userSpaceOnUse"
       gradientTransform="matrix(3.7555985,0,0,3.7555985,1634.8795,-1183.5148)"
       x1="-377.25043"
       y1="483.76382"
       x2="-377.25043"
       y2="511.26895" />
    <linearGradient
       inkscape:collect="always"
       xlink:href="#linearGradient4367"
       id="linearGradient3387"
       gradientUnits="userSpaceOnUse"
       gradientTransform="matrix(3.7555985,0,0,3.7555985,1634.8795,-1183.5148)"
       x1="-377.25043"
       y1="483.76382"
       x2="-377.25043"
       y2="511.26895" />
    <linearGradient
       inkscape:collect="always"
       xlink:href="#linearGradient4367"
       id="linearGradient3389"
       gradientUnits="userSpaceOnUse"
       gradientTransform="matrix(3.7555985,0,0,3.7555985,1634.8795,-1183.5148)"
       x1="-377.25043"
       y1="483.76382"
       x2="-377.25043"
       y2="511.26895" />
    <linearGradient
       inkscape:collect="always"
       xlink:href="#linearGradient4367"
       id="linearGradient3391"
       gradientUnits="userSpaceOnUse"
       gradientTransform="matrix(3.7555985,0,0,3.7555985,1634.8795,-1183.5148)"
       x1="-377.25043"
       y1="483.76382"
       x2="-377.25043"
       y2="511.26895" />
    <linearGradient
       inkscape:collect="always"
       xlink:href="#linearGradient4367"
       id="linearGradient3393"
       gradientUnits="userSpaceOnUse"
       gradientTransform="matrix(3.7555985,0,0,3.7555985,1634.8795,-1183.5148)"
       x1="-377.25043"
       y1="483.76382"
       x2="-377.25043"
       y2="511.26895" />
    <linearGradient
       inkscape:collect="always"
       xlink:href="#linearGradient4367"
       id="linearGradient3395"
       gradientUnits="userSpaceOnUse"
       gradientTransform="matrix(3.7555985,0,0,3.7555985,1634.8795,-1183.5148)"
       x1="-377.25043"
       y1="483.76382"
       x2="-377.25043"
       y2="511.26895" />
  </defs>
  <sodipodi:namedview
     id="base"
     pagecolor="#ffffff"
     bordercolor="#666666"
     borderopacity="1.0"
     inkscape:pageopacity="0.0"
     inkscape:pageshadow="2"
     inkscape:zoom="0.49497475"
     inkscape:cx="216.80638"
     inkscape:cy="397.50485"
     inkscape:document-units="px"
     inkscape:current-layer="layer1"
     showgrid="false"
     inkscape:window-width="1366"
     inkscape:window-height="705"
     inkscape:window-x="-8"
     inkscape:window-y="-8"
     inkscape:window-maximized="1" />
  <metadata
     id="metadata4415">
    <rdf:RDF>
      <cc:Work
         rdf:about="">
        <dc:format>image/svg+xml</dc:format>
        <dc:type
           rdf:resource="http://purl.org/dc/dcmitype/StillImage" />
        <dc:title></dc:title>
      </cc:Work>
    </rdf:RDF>
  </metadata>
  <g
     inkscape:label="Layer 1"
     inkscape:groupmode="layer"
     id="layer1"
     transform="translate(0,-850.39432)">
    <rect
       style="fill:#ffffff;fill-opacity:1;stroke:none;stroke-width:0.99520135"
       id="rect3368-6"
       width="717.4303"
       height="172.65651"
       x="11.681899"
       y="868.79523" />
    <g
       transform="matrix(1.7472425,0,0,1.27393,-19.794112,98.178287)"
       style="font-style:normal;font-weight:normal;font-size:128.27302551px;line-height:125%;font-family:sans-serif;letter-spacing:0px;word-spacing:0px;fill:url(#linearGradient4418);fill-opacity:1;stroke:none;stroke-width:1px;stroke-linecap:butt;stroke-linejoin:miter;stroke-opacity:1"
       id="text4418">
      <path
         d="m 106.17796,621.38723 -26.29597,0 0,71.44808 c 0,3.84819 -0.128273,6.41365 -0.256546,7.69638 -0.128273,1.411 -0.769638,2.43719 -1.924096,3.46337 -1.026184,0.89791 -2.56546,1.28273 -4.361282,1.28273 -0.769639,0 -1.924096,0 -3.463372,-0.12827 l 0,17.70168 13.212121,0 c 5.772287,0 10.13357,-0.38482 13.083849,-1.28273 2.95028,-0.89792 5.259196,-2.56546 6.926746,-4.87438 1.66755,-2.43719 2.56546,-5.00265 2.822,-7.95293 0.25655,-2.822 0.25655,-9.36393 0.25655,-19.4975 l 0,-67.85643 z"
         style="font-style:normal;font-variant:normal;font-weight:bold;font-stretch:condensed;font-family:'Impact MT Std';-inkscape-font-specification:'Impact MT Std Bold Condensed';fill:url(#linearGradient3385);fill-opacity:1"
         id="path3373"
         inkscape:connector-curvature="0" />
      <path
         d="m 161.85847,621.38723 -38.09709,0 -13.46866,101.46397 27.32215,0 1.53928,-18.21477 9.4922,0 1.28273,18.21477 27.06561,0 -15.13622,-101.46397 z m -13.98176,65.29097 -8.97911,0 c 0.64137,-8.97911 2.30892,-23.21741 5.00265,-42.58664 1.28273,16.93204 2.69373,31.04207 3.97646,42.58664 z"
         style="font-style:normal;font-variant:normal;font-weight:bold;font-stretch:condensed;font-family:'Impact MT Std';-inkscape-font-specification:'Impact MT Std Bold Condensed';fill:url(#linearGradient3387);fill-opacity:1"
         id="path3375"
         inkscape:connector-curvature="0" />
      <path
         d="m 207.88444,621.38723 -26.42424,0 0,101.46397 42.45837,0 0,-20.26714 -16.03413,0 0,-81.19683 z"
         style="font-style:normal;font-variant:normal;font-weight:bold;font-stretch:condensed;font-family:'Impact MT Std';-inkscape-font-specification:'Impact MT Std Bold Condensed';fill:url(#linearGradient3389);fill-opacity:1"
         id="path3377"
         inkscape:connector-curvature="0" />
      <path
         d="m 230.31418,621.38723 0,101.46397 45.6652,0 0,-20.26714 -19.24096,0 0,-22.31951 16.41895,0 0,-19.24095 -16.41895,0 0,-19.24096 17.57341,0 0,-20.39541 -43.99765,0 z"
         style="font-style:normal;font-variant:normal;font-weight:bold;font-stretch:condensed;font-family:'Impact MT Std';-inkscape-font-specification:'Impact MT Std Bold Condensed';fill:url(#linearGradient3391);fill-opacity:1"
         id="path3379"
         inkscape:connector-curvature="0" />
      <path
         d="m 345.24882,665.64143 0,-9.62048 c 0,-9.4922 -0.76964,-16.41895 -2.43719,-20.9085 -1.53928,-4.48956 -4.87437,-8.33775 -9.87702,-11.28803 -5.13092,-2.95028 -11.54457,-4.48956 -19.24096,-4.48956 -5.77228,0 -10.77493,0.89792 -15.26449,2.95028 -4.36128,1.9241 -7.82465,4.48956 -10.26184,7.95293 -2.43719,3.3351 -3.97646,6.92675 -4.48955,10.51839 -0.5131,3.71992 -0.76964,9.10738 -0.76964,16.41895 l 0,29.63107 c 0,10.00529 0.89791,17.44513 2.43718,22.3195 1.66755,5.00265 5.00265,8.85084 10.0053,11.67285 5.00265,2.822 11.4163,4.23301 19.11268,4.23301 7.43984,0 13.59694,-1.66755 18.72786,-5.00265 5.13092,-3.3351 8.33775,-7.18329 9.87703,-11.54457 1.411,-4.36129 2.18064,-11.80112 2.18064,-22.31951 l 0,-3.84819 -26.42425,0 0,12.69903 c 0,5.51574 -0.25654,9.10738 -0.89791,10.51839 -0.51309,1.53927 -1.79582,2.30891 -3.84819,2.30891 -2.05237,0 -3.3351,-0.76964 -3.84819,-2.30891 -0.64136,-1.41101 -0.89791,-4.7461 -0.89791,-9.62048 l 0,-47.0762 c 0,-5.13092 0.25655,-8.46602 0.89791,-10.0053 0.51309,-1.53927 1.9241,-2.30891 4.10474,-2.30891 1.92409,0 3.07855,0.64137 3.71992,1.9241 0.51309,1.15445 0.76963,4.36128 0.76963,9.62047 l 0,17.57341 26.42425,0 z"
         style="font-style:normal;font-variant:normal;font-weight:bold;font-stretch:condensed;font-family:'Impact MT Std';-inkscape-font-specification:'Impact MT Std Bold Condensed';fill:url(#linearGradient3393);fill-opacity:1"
         id="path3381"
         inkscape:connector-curvature="0" />
      <path
         d="m 415.11753,680.77764 0,-17.31685 c 0,-10.39012 -0.25655,-17.70168 -0.76964,-21.93469 -0.51309,-4.10474 -2.05237,-7.95293 -4.7461,-11.54457 -2.56546,-3.59165 -6.02883,-6.28538 -10.39011,-7.95293 -4.36129,-1.79582 -9.23566,-2.69374 -14.62313,-2.69374 -5.77229,0 -10.77493,1.02619 -15.00794,2.82201 -4.36129,1.9241 -7.69638,4.48956 -10.26185,8.0812 -2.56546,3.46337 -3.97646,7.31156 -4.48955,11.54457 -0.51309,4.23301 -0.76964,11.54458 -0.76964,21.67815 l 0,17.31685 c 0,10.51839 0.25655,17.82995 0.76964,21.93469 0.51309,4.23301 2.05237,8.0812 4.7461,11.67285 2.56546,3.46337 6.02883,6.1571 10.39012,7.95292 4.36128,1.79583 9.23565,2.69374 14.62312,2.69374 5.77229,0 10.77494,-1.02619 15.00794,-2.82201 4.36129,-1.92409 7.69639,-4.61783 10.26185,-8.0812 2.56546,-3.59164 3.97646,-7.43983 4.48955,-11.67284 0.51309,-4.23301 0.76964,-11.4163 0.76964,-21.67815 z m -26.42424,-33.22271 0,46.56311 c 0,5.90056 -0.25655,9.74875 -0.76964,11.28802 -0.51309,1.66755 -1.66755,2.43719 -3.46337,2.43719 -1.66755,0 -2.82201,-0.76964 -3.3351,-2.05237 -0.38482,-1.411 -0.64137,-5.00264 -0.64137,-10.9032 l 0,-47.33275 c 0,-5.25919 0.38482,-8.46602 1.02619,-9.4922 0.76964,-1.02619 1.79582,-1.53928 3.20682,-1.53928 1.66755,0 2.69374,0.64137 3.20683,1.9241 0.51309,1.28273 0.76964,4.36128 0.76964,9.10738 z"
         style="font-style:normal;font-variant:normal;font-weight:bold;font-stretch:condensed;font-family:'Impact MT Std';-inkscape-font-specification:'Impact MT Std Bold Condensed';fill:url(#linearGradient3395);fill-opacity:1"
         id="path3383"
         inkscape:connector-curvature="0" />
    </g>
    <rect
       style="fill:none;fill-opacity:1;stroke:#13183c;stroke-width:5.57621479;stroke-opacity:1"
       id="rect3368"
       width="717.4303"
       height="172.65651"
       x="12.389638"
       y="868.79523" />
    <rect
       style="fill:url(#linearGradient4373);fill-opacity:1;stroke:none;stroke-width:0.87961596;stroke-opacity:1"
       id="rect3370"
       width="52.34177"
       height="169.0585"
       x="13.466893"
       y="869.88684" />
  </g>
</svg>
