<?xml version="1.0" encoding="UTF-8"?>
<svg width="800px" height="400px" viewBox="0 0 800 400" version="1.1" xmlns="http://www.w3.org/2000/svg" xmlns:xlink="http://www.w3.org/1999/xlink">
    <title>konami_2</title>
    <g id="Page-1" stroke="none" stroke-width="1" fill="none" fill-rule="evenodd">
        <g id="Manufacturer" fill="#000000" fill-rule="nonzero">
            <g id="konami_2">
                <line x1="0" y1="0" x2="800" y2="400" id="Path"></line>
                <path d="M203.549608,132.625799 C245.89254,132.625799 277.129239,162.143274 277.129239,199.990987 C277.129239,237.874752 248.3666,267.374201 203.549608,267.374201 C161.188651,267.374201 129.945192,237.874752 129.945192,199.990987 C129.945192,162.143274 158.714591,132.625799 203.549608,132.625799 Z M144.128001,135.930179 C145.883277,136.110438 145.901302,138.000908 144.274461,138.379453 C133.544803,140.731862 125.165114,145.804939 116.089329,154.939392 L115.542248,155.493756 C111.335838,159.789912 103.07641,169.151509 94.7067288,178.806492 L92.6551555,181.176325 L90.200624,184.019426 C79.3908436,196.557843 69.6020078,208.133078 69.6020078,208.133078 L127.161085,262.796739 L96.0257816,262.796739 L43.484675,211.398027 L42.8968821,210.823875 C40.9454111,208.904783 39.7306406,207.571822 38.6582298,206.242608 L38.363055,206.242608 C38.4441717,207.961832 38.511769,209.775692 38.511769,211.546741 L38.511769,252.648136 C38.511769,258.236177 33.9692323,262.796739 28.3654184,262.796739 L1.11019816,262.796739 C-0.183162983,262.796739 -0.349902921,261.404236 0.628004286,260.95584 L0.874731717,260.841846 C4.8865973,258.972275 8.00061347,256.696086 8.00061347,249.464304 L8.00061347,137.21678 L38.511769,137.21678 L38.511769,195.071032 C38.511769,196.5424 38.4441717,197.6893 38.363055,199.363459 L38.6582298,199.363459 C39.6688841,197.710255 41.4080517,195.814915 43.2895532,193.541071 L43.484675,193.30449 C43.484675,193.30449 75.5483146,155.596478 78.9552171,152.047622 C92.5445221,137.818396 111.577661,132.793665 144.128001,135.930179 Z M203.549608,145.467027 C178.281748,145.467027 163.854237,170.182843 163.854237,198.404704 C163.854237,230.89646 178.281748,254.537479 203.549608,254.537479 C228.79719,254.537479 243.224701,229.83293 243.224701,201.602055 C243.224701,168.242801 228.79719,145.467027 203.549608,145.467027 Z M743.717159,137.216555 L724.94765,251.800691 C723.987768,257.5397 718.697155,262.796514 712.1267,262.796514 L694.540143,262.796514 L663.754092,191.303386 L663.499643,190.726237 C662.214101,187.784884 661.374805,185.470902 660.748267,183.707705 L660.581527,183.707705 L660.442716,184.136358 C659.870957,185.873972 659.0996,187.890765 658.07756,190.298834 L630.638188,254.655549 L630.620163,254.655549 C628.648575,259.211605 624.108292,262.796514 618.436881,262.796514 L591.465569,262.796514 C590.151929,262.796514 590.003215,261.40401 590.983375,260.955615 L591.202742,260.853946 C594.76462,259.17299 597.274744,256.472654 596.186112,249.565475 L577.747829,137.216555 L597.191058,137.216555 L609.45095,216.456331 L609.830824,219.070404 C610.315765,222.449396 610.790409,225.942481 610.974142,227.911815 L611.122856,227.911815 L611.388264,227.202472 C612.560505,224.087384 614.01779,220.44634 615.651873,216.690668 L649.50684,137.216555 L659.554048,137.216555 L693.810093,218.083172 L694.40895,219.539367 C696.064919,223.584699 697.205682,226.537009 698.01915,228.840151 L698.18589,228.840151 L698.389035,227.208869 C698.767697,224.214052 699.298048,220.260171 699.907367,216.287337 L712.593122,137.216555 L743.717159,137.216555 Z M789.855903,262.796289 L761.359146,262.796289 C760.036493,262.796289 759.896792,261.403785 760.876952,260.95539 L761.246406,260.784032 C765.201025,258.924856 768.251814,256.621841 768.251814,249.463853 L768.251814,137.216329 L800,137.216329 L800,252.649938 C800,258.235726 795.457463,262.796289 789.855903,262.796289 Z M398.826862,262.796289 L398.826862,191.005732 L398.829313,190.271077 C398.850268,187.166621 399.00181,185.044136 399.13781,182.121197 L398.826862,182.121197 L398.338577,182.801649 C396.040633,185.98679 393.45363,189.327517 389.773334,193.655545 L335.790152,256.08388 L335.515333,256.39503 C331.409549,260.999387 328.010294,262.780859 320.432052,262.796289 L292.994319,262.796289 C291.705465,262.796289 291.556751,261.403785 292.530151,260.95539 L292.777796,260.841396 C296.80416,258.971824 299.90952,256.695635 299.90952,249.463853 L299.90952,137.216329 L320.432052,137.216329 L320.432052,217.950005 L320.429575,218.865676 C320.408428,222.771599 320.256138,225.897191 320.136877,229.236496 L320.432052,229.236496 L321.057449,228.395062 C324.668704,223.551735 329.387259,217.4834 333.303866,212.912308 L398.428038,137.216329 L409.221069,137.216329 C414.82939,137.216329 419.365167,141.770132 419.365167,147.36944 L419.365167,262.796289 L398.826862,262.796289 Z M472.209109,181.325352 L491.873156,224.610139 L492.466827,225.967308 C493.173498,227.592685 493.755091,228.984775 493.991204,229.817382 L494.306658,229.817382 C494.694215,228.562326 495.521155,226.649323 496.429212,224.533529 L515.579519,181.325352 L472.209109,181.325352 Z M535.112878,137.215879 L569.686629,137.215879 L515.115351,255.051444 C513.121232,259.312325 508.797259,262.795838 503.1619,262.795838 L479.300063,262.795838 C478.005551,262.795838 477.861456,261.490018 478.764267,260.986611 L478.824629,260.954939 C481.742578,259.494838 483.761483,254.654873 481.643435,250.141629 L428.858978,137.215879 L452.19581,137.215879 L465.309681,166.138498 L522.307701,166.138498 L535.112878,137.215879 Z" id="Shape" transform="translate(400.000000, 200.000000) scale(1, -1) translate(-400.000000, -200.000000) "></path>
            </g>
        </g>
    </g>
</svg>