<?xml version="1.0" encoding="UTF-8"?>
<svg width="800px" height="400px" viewBox="0 0 800 400" version="1.1" xmlns="http://www.w3.org/2000/svg" xmlns:xlink="http://www.w3.org/1999/xlink">
    <title>konami_3</title>
    <g id="Page-1" stroke="none" stroke-width="1" fill="none" fill-rule="evenodd">
        <g id="Manufacturer" fill="#000000" fill-rule="nonzero">
            <g id="konami_3">
                <line x1="0" y1="0" x2="800" y2="400" id="Path"></line>
                <path d="M1.13686838e-13,264.910714 L1.13686838e-13,107.455357 L49.4642857,107.455357 L49.4642857,152.455357 L116.964286,85 L186.919643,85 L91.9642857,179.955357 L129.642857,213.080357 C132.410714,215.3125 135.446428,216.383929 139.821428,215.446429 C144.196428,214.508929 148.4375,210.9375 148.4375,203.080357 L148.4375,152.5 L197.946428,152.5 L197.946428,220 C197.946428,244.821428 170.714286,264.955357 137.1875,264.955357 C120.446429,264.955357 102.678571,259.821428 90.0892857,248.348214 L49.4642857,212.5 L49.4642857,264.910714 L1.13686838e-13,264.910714 Z M776.473214,107.455346 C789.454362,107.443035 799.987653,117.956344 799.999989,130.937493 C800.012304,143.918641 789.498998,154.451935 776.51785,154.464275 C763.536701,154.476594 753.003405,143.963291 752.991071,130.982143 C752.992768,118.006784 763.497881,107.481698 776.473214,107.455346 L776.473214,107.455346 Z M243.616071,208.526786 C243.616071,218.258928 244.955357,225.223214 247.633928,229.464286 C250.3125,233.705357 254.6875,235.803571 260.803571,235.803571 C266.919643,235.803571 271.339286,233.660714 274.107143,229.375 C276.830357,225.089286 278.214286,218.125 278.214286,208.482143 C278.214286,198.883929 276.830357,192.008929 274.107143,187.767857 C271.339286,183.571429 266.964286,181.428571 260.803571,181.428571 C254.642857,181.428571 250.267857,183.482143 247.633928,187.678571 C245,191.875 243.616071,198.883929 243.616071,208.526786 Z M201.428571,208.526786 C201.428571,191.160714 206.711309,177.485119 217.276786,167.5 C227.857143,157.5 242.321428,152.455357 260.803571,152.455357 C279.285714,152.455357 293.794643,157.455357 304.285714,167.5 C314.821428,177.5 320.089286,191.175595 320.089286,208.526786 C320.089286,226.026786 314.791666,239.806548 304.196428,249.866071 C293.660714,259.866071 279.196428,264.880952 260.803571,264.910714 C242.366071,264.910714 227.901786,259.910714 217.276786,249.866071 C206.741071,239.821428 201.458333,226.041667 201.428571,208.526786 L201.428571,208.526786 Z M323.616071,261.160714 L323.616071,156.25 L361.5625,156.25 L361.5625,171.607143 C366.473214,165.491071 371.875,160.9375 377.901786,157.946429 C383.928571,154.955357 390.714286,153.4375 398.303571,153.4375 C404.6875,153.4375 410.357143,154.508929 415.401785,156.651786 C420.358621,158.708732 424.729552,161.960091 428.125,166.116071 C431.393871,170.151443 433.685672,174.887833 434.821428,179.955357 C436.160714,185.401786 436.785714,194.285714 436.785714,206.651786 L436.785714,261.205357 L395.089286,261.205357 L395.089286,206.830357 C395.089286,198.839286 394.017857,193.348214 391.875,190.357143 C389.732143,187.366071 386.116071,185.848214 380.848214,185.848214 C375.580357,185.848214 371.651786,187.589286 369.107143,191.071429 C366.5625,194.553571 365.267857,199.866071 365.267857,207.008929 L365.267857,261.160714 L323.616071,261.160714 Z M516.026785,214.330357 C512.053571,215.892857 506.741071,217.5 500.133928,219.241071 C489.6875,221.964286 484.508928,225.714286 484.508928,230.3125 C484.508928,233.303571 485.535714,235.580357 487.633928,237.276786 C489.6875,238.973214 492.589285,239.776786 496.383928,239.776786 C503.348214,239.776786 508.4375,238.169643 511.607143,235 C514.821428,231.741071 516.383928,226.651786 516.383928,219.642857 C516.383928,218.169643 516.383928,217.008929 516.339285,216.294643 C516.25,215.625 516.160714,214.910714 516.026785,214.330357 L516.026785,214.330357 Z M519.866071,261.160714 L517.276785,251.116071 C512.219697,255.645142 506.359987,259.188223 500,261.5625 C493.794643,263.794643 486.830357,264.910714 479.151785,264.910714 C467.321428,264.910714 458.169643,262.008928 451.696428,256.205357 C445.223214,250.357143 441.994047,242.127976 442.008877,231.517857 C442.008877,221.205357 445.223214,213.526786 451.5625,208.571429 C457.901785,203.616071 470,200.044643 487.678571,197.767857 C489.910714,197.5 492.946428,197.098214 496.696428,196.741071 C509.910714,195.3125 516.517857,191.875 516.517857,186.517857 C516.517857,183.526786 515.267857,181.294643 512.901785,179.910714 C510.491071,178.526786 506.696428,177.857143 501.473214,177.857143 C497.142857,177.857143 493.839285,178.75 491.517857,180.401786 C489.196428,182.098214 487.857143,184.732143 487.455357,188.258929 L446.696428,188.258929 C446.919643,176.517857 451.696428,167.633929 461.160714,161.607143 C470.625,155.580357 484.508928,152.589286 502.901785,152.589286 C511.517857,152.589286 519.464285,153.348214 526.785714,155 C534.0625,156.607143 539.776785,158.75 543.839285,161.517857 C548.75,164.821429 552.276785,168.616071 554.241071,172.8125 C556.25,177.053571 557.232143,183.080357 557.232143,190.9375 L557.232143,249.419643 C557.211578,251.20764 557.592994,252.977412 558.348214,254.598214 C559.119106,256.120317 560.292603,257.4019 561.741071,258.303571 L561.741071,261.294643 L519.866071,261.294643 L519.866071,261.160714 Z M567.901785,261.160714 L567.901785,156.25 L605.848214,156.25 L605.848214,171.607143 C610.491071,165.401786 615.699404,160.833333 621.473214,157.901786 C627.276785,154.910714 633.928571,153.4375 641.473214,153.4375 C648.348214,153.4375 654.285714,154.910714 659.285714,157.8125 C664.241071,160.714286 668.705357,165.3125 672.678571,171.607143 C677.723214,165.267857 683.303571,160.669643 689.330357,157.723214 C695.401785,154.732143 702.232142,153.258929 709.821428,153.258929 C722.142857,153.258929 731.785714,156.473214 738.571428,162.8125 C745.401785,169.196429 748.794642,178.125 748.794642,189.6875 L748.794642,261.205357 L707.678571,261.205357 L707.678571,205 C707.678571,198.4375 706.5625,193.705357 704.330357,190.758929 C702.142857,187.767857 698.526785,186.294643 693.571428,186.294643 C688.482142,186.294643 684.776785,187.857143 682.366071,190.9375 C679.955357,193.973214 678.794642,198.839286 678.794642,205.401786 L678.794642,261.205357 L637.857143,261.205357 L637.857143,206.473214 C637.857143,199.285714 636.696428,194.151786 634.419643,190.982143 C632.142857,187.857143 628.392857,186.294643 623.169643,186.294643 C618.526785,186.294643 615,187.901786 612.589285,191.071429 C610.178571,194.196429 608.973214,198.794643 608.973214,204.866071 L608.973214,261.25 L567.901785,261.25 L567.901785,261.160714 Z M753.839285,261.160714 L753.839285,156.25 L795.9375,156.25 L795.9375,261.160714 L753.839285,261.160714 Z" id="Shape"></path>
            </g>
        </g>
    </g>
</svg>