<?xml version="1.0" encoding="UTF-8"?>
<svg width="800px" height="400px" viewBox="0 0 800 400" version="1.1" xmlns="http://www.w3.org/2000/svg" xmlns:xlink="http://www.w3.org/1999/xlink">
    <title>lucasfilmgames_2</title>
    <g id="Page-1" stroke="none" stroke-width="1" fill="none" fill-rule="evenodd">
        <g id="lucasfilmgames_2" fill="#000000">
            <line x1="0" y1="0" x2="800" y2="400" id="Path" fill-rule="nonzero"></line>
            <path d="M216.719184,72.6207146 C214.362444,73.1492412 211.006959,74.1442254 209.262131,74.8326266 C201.830157,77.7617799 193.250221,85.2783935 190.163701,91.5630324 L188.401318,95.1523737 L188.232666,158.013182 C188.046459,227.48841 187.937368,225.327282 192.018873,233.000008 C196.02138,240.524145 203.314796,245.93543 212.969341,248.544834 C220.230155,250.506589 233.51542,250.507216 240.403194,248.545461 C250.41197,245.695305 258.48595,240.322891 264.215103,232.701576 L267.084696,228.884021 L267.084696,232.080886 C267.084696,235.420697 268.522313,237.785588 270.552407,237.785588 C272.696607,237.785588 307.49723,230.177438 308.263375,229.541074 C308.878422,229.030729 309.090961,226.544209 309.090961,219.862705 C309.090961,209.610669 309.070898,209.572424 303.75303,209.572424 C300.912278,209.572424 300.848955,209.530418 301.179363,207.848287 C301.36557,206.900324 302.245193,201.327911 303.133595,195.465843 C304.021996,189.603774 304.886572,184.164277 305.055851,183.377443 C305.357419,181.9718 305.491588,181.951111 313.026384,182.123524 L320.689706,182.2997 L322.511022,192.684025 C323.548639,198.597504 324.153028,203.78371 323.915411,204.730419 C323.594407,206.009415 322.914784,206.549854 320.969329,207.073992 C319.188138,207.553616 318.263374,208.2207 317.840803,209.331045 C316.890333,211.831985 317.081556,225.415056 318.086571,226.789977 C319.081555,228.150479 317.917292,228.23073 344.827634,224.940448 C355.000047,223.696561 369.247694,222.39562 376.489073,222.048912 C388.606313,221.468975 389.734212,221.316624 390.644557,220.136687 C391.5944,218.905339 391.749886,218.893426 394.527942,219.836373 C401.026374,222.042642 410.332329,222.697188 417.282799,221.437 C426.101607,219.838254 436.048314,212.737941 440.089066,205.157378 C443.554269,198.655184 443.871511,196.479636 443.879661,179.139826 C443.887812,161.837633 443.465868,158.874624 440.097217,152.569922 C436.602546,146.030738 432.932327,142.910362 417.554899,133.409423 C411.520417,129.680897 405.736719,125.820709 404.702236,124.83074 L402.821358,123.031368 L402.616343,114.19814 C402.397534,104.80441 402.86023,102.437639 405.241421,100.769928 C407.144869,99.4370127 411.833897,99.6200848 414.300981,101.124787 C417.601294,103.136699 418.37747,105.803783 418.677783,116.155506 C418.822611,121.155506 419.228253,125.599392 419.578723,126.030113 C420.465244,127.119768 442.048314,127.147982 443.134834,126.061461 C443.680288,125.516007 443.887185,120.945474 443.887185,109.435131 L443.887185,93.5611513 L445.611323,93.9699287 C448.397529,94.6307436 451.64267,96.0821541 452.163046,96.9009628 C452.42825,97.3185176 452.649566,120.110992 452.655209,147.551114 L452.664613,197.441391 L451.185617,198.830733 C450.372451,199.594996 448.608814,200.519761 447.267122,200.886532 C445.925429,201.252676 444.475273,201.83951 444.043925,202.190607 C442.877154,203.141704 442.942984,219.813803 444.117279,220.788724 C444.598157,221.18747 450.583736,221.915997 457.753641,222.447658 C468.674016,223.257689 479.926679,224.389978 495.319154,226.226968 C500.299718,226.821325 500.383104,226.636372 500.173699,215.477126 L500.000032,206.191233 L495.924797,205.021955 C489.317901,203.126657 489.655205,204.402519 489.655205,181.289669 L489.655205,161.296567 L492.7737,161.296567 C495.579969,161.296567 495.986866,161.478386 496.83138,163.111614 C497.347367,164.109733 497.958026,166.103463 498.18812,167.542335 C498.877775,171.85456 499.15301,171.954873 510.312883,171.954873 C517.803164,171.954873 520.391879,171.751112 520.916017,171.119137 C521.937333,169.889043 521.989371,127.68842 520.971189,126.461461 C520.376205,125.744847 518.126048,125.559894 509.989999,125.559894 C500.126677,125.559894 499.722289,125.610051 498.78185,126.953624 C498.245173,127.719768 497.805674,128.998138 497.805674,129.795003 C497.805674,130.591241 497.396897,132.221335 496.897211,133.416946 C496.030753,135.490927 495.843292,135.591241 492.821976,135.591241 L489.655205,135.591241 L489.655205,118.349863 L489.655205,101.108486 L494.316647,101.108486 C499.568057,101.108486 501.487179,101.655821 503.388119,103.695946 C504.571818,104.966793 504.702225,105.857702 504.702225,112.685914 C504.702225,123.635756 503.96116,123.052057 517.858964,123.052057 C527.209433,123.052057 529.226988,122.889048 530.049558,122.067104 C530.885295,121.231368 531.034511,118.996885 531.034511,107.343595 L531.034511,93.6050384 L533.222599,94.6489254 C534.425733,95.2225931 535.534824,96.1348187 535.685921,96.6758845 C535.837645,97.2175772 536.050185,122.487794 536.158648,152.832618 C536.371815,212.393741 536.474636,210.460199 533.053947,211.161139 C527.342348,212.330418 526.707866,212.67838 526.298461,214.860198 C525.784982,217.597502 526.186236,230.015055 526.808179,230.635118 C527.070248,230.895933 540.471501,234.144209 556.58874,237.852672 C587.406292,244.94358 593.331056,246.491543 608.895945,251.519755 C637.047039,260.613798 661.910359,270.601258 689.565529,283.925395 C698.29907,288.132918 700.682142,289.042635 701.634493,288.533545 C702.725402,287.949846 702.821327,287.061444 702.821327,277.567402 L702.821327,267.236995 L699.507848,265.771791 C697.685904,264.965522 695.428851,263.395616 694.492174,262.283391 L692.78998,260.260193 L692.862707,215.010041 C692.902833,190.122897 693.073992,170.32478 693.243271,171.014435 C693.41255,171.70409 698.181202,193.569291 703.840762,219.603771 C709.500323,245.638251 714.419445,267.826337 714.772423,268.910976 C715.447031,270.98433 716.705965,271.618186 720.178692,271.632606 C723.438253,271.647026 725.208785,270.650788 725.944835,268.388719 C726.316622,267.246399 731.005023,245.293424 736.36427,219.603771 C741.723517,193.914119 746.381197,172.189983 746.714739,171.327914 C747.109096,170.307852 747.248908,192.403774 747.114739,234.595619 L746.90847,299.430095 L745.590601,300.49718 C744.865837,301.084013 742.851417,301.752979 741.113486,301.9837 C738.941072,302.271474 737.754239,302.775549 737.315367,303.594985 C736.479004,305.157994 736.487781,320.272726 737.326025,321.839497 C737.954239,323.012538 738.959881,323.052036 768.235113,323.052036 C790.934797,323.052036 798.683386,322.863948 799.247649,322.299685 C799.761756,321.785579 800,318.740438 800,312.678997 C800,302.387462 799.873981,302.134797 794.428214,301.525393 C792.570534,301.317242 790.524766,300.671474 789.88276,300.090283 C788.752352,299.067713 788.714735,295.764892 788.714735,198.287159 C788.714735,103.133564 788.77555,97.4859157 789.811913,96.5504926 C790.415675,96.0056651 792.31975,95.2163235 794.043888,94.7956339 C799.668339,93.4244742 799.373041,94.0125619 799.373041,84.180588 C799.373041,76.1881123 799.27022,75.3925011 798.160502,74.7981438 C797.378057,74.3793351 787.293418,74.1492411 769.731038,74.1492411 C744.594363,74.1492411 742.440758,74.2332536 741.552357,75.2464196 C740.958,75.9241625 737.555492,91.0783929 732.647656,114.901588 C728.279631,136.108482 724.502202,153.969922 724.25518,154.593747 C723.980572,155.284029 720.663958,140.687792 715.778065,117.289675 C711.363646,96.1486118 707.475245,77.959272 707.137314,76.86899 C706.798756,75.779335 706.089665,74.7210279 705.561138,74.5178931 C705.031985,74.3153853 694.077127,74.1492411 681.21694,74.1492411 C662.040767,74.1492411 657.70409,74.3059809 657.111614,75.0188335 C656.62384,75.6069212 656.447037,78.7059804 656.564905,84.579961 L656.739827,93.2714961 L659.561143,94.0928127 C661.112867,94.5448502 663.299701,95.31601 664.420077,95.8069191 L666.457694,96.6997089 L666.457694,145.299077 L666.457694,193.898445 L660.469607,193.898445 L654.48152,193.898445 L653.645156,195.936062 C653.185595,197.057065 650.892179,204.823835 648.549232,213.196875 C646.206286,221.569288 643.775565,229.264585 643.147352,230.29656 C641.66334,232.737312 639.260832,233.643895 636.050174,232.97493 L633.542337,232.452673 L633.15613,210.197503 C632.944218,197.957379 632.732306,167.762397 632.685911,143.097823 C632.613811,104.737953 632.734187,98.0639721 633.515378,96.9479848 C634.018199,96.2307435 635.781208,95.2834081 637.433873,94.8432828 C643.332932,93.2714961 643.260205,93.4044115 643.260205,84.210682 C643.260205,77.6909335 643.068982,75.9285512 642.275252,75.134194 C641.409421,74.2689903 637.958638,74.1492411 613.845788,74.1492411 C588.053941,74.1492411 586.33858,74.2182066 585.363659,75.2959494 C584.514756,76.2338804 584.326041,77.867736 584.326041,84.2896789 C584.326041,92.9824679 584.607546,93.6658534 588.528549,94.4990822 C589.633251,94.7335649 591.255194,95.4909316 592.133564,96.1818406 L593.730429,97.4376399 L593.730429,160.324781 C593.730429,210.527283 593.569301,223.346091 592.931056,223.875244 C592.491558,224.240134 590.716009,224.726655 588.985602,224.956122 C586.091559,225.339821 585.784976,225.255181 585.16554,223.89468 C584.705979,222.885903 583.58623,222.173677 581.642029,221.653928 C580.075258,221.234492 577.9925,220.203144 577.013817,219.361765 L575.235133,217.831985 L575.059585,158.686536 C574.963033,126.156759 575.031999,98.9335645 575.21319,98.1918718 C575.393754,97.4495521 576.954255,95.8276087 578.680274,94.5874834 L581.818205,92.3329382 L581.818205,83.8903059 C581.818205,76.2062942 581.709741,75.3893663 580.614443,74.8031595 C579.808801,74.3718116 553.150496,74.1624072 499.926677,74.1686768 C428.977468,74.1774542 420.327313,74.2827834 419.367438,75.1517488 C418.389382,76.0363882 417.779978,75.9486139 412.635777,74.1824699 C399.172456,69.5598999 385.610075,71.5116238 376.037035,79.448927 C371.618854,83.1128765 369.001926,86.9724372 367.383118,92.213816 C366.277789,95.791872 366.144246,98.065226 366.144246,113.268359 C366.144246,132.126037 366.509763,134.767417 370.035782,141.382463 C373.173713,147.26961 377.373085,150.942963 390.294087,159.101583 C396.816343,163.219451 403.079039,167.402523 404.211327,168.396253 L406.269634,170.203776 L406.269634,178.936691 C406.269634,188.161768 405.726687,190.66647 403.247064,192.875247 C401.421986,194.500953 396.934212,194.917253 394.546124,193.682144 C391.09973,191.900326 390.595654,189.741705 390.595654,176.76365 C390.595654,167.04014 390.435153,164.987476 389.610701,164.162398 C388.795028,163.347351 386.857097,163.177445 378.36995,163.177445 C369.882804,163.177445 367.944873,163.347351 367.129199,164.162398 C366.278416,165.013808 366.144246,167.660203 366.144246,183.584966 L366.144246,202.021955 L364.619482,201.327284 C363.78061,200.944839 362.793149,199.892802 362.425751,198.989353 C361.798792,197.448915 346.29033,103.587482 345.971835,99.4037839 C345.731709,96.2570757 346.89848,95.4658533 351.778731,95.4658533 C355.37873,95.4658533 356.173087,95.270869 356.717915,94.2533142 C357.074655,93.5862296 357.366818,89.233252 357.366818,84.579961 C357.366818,77.7247893 357.179984,75.93294 356.381865,75.134194 C355.509138,74.2620937 351.324812,74.1492411 319.801931,74.1492411 C286.114161,74.1492411 284.151151,74.2106831 283.169333,75.2959494 C282.327954,76.2257299 282.131716,77.8332532 282.131716,83.8006507 C282.131716,87.8482992 282.413221,91.6852894 282.756794,92.3272956 C283.15554,93.0721231 284.630775,93.7548817 286.831402,94.2113079 C290.579991,94.9893643 292.163063,96.1247874 292.163063,98.0338781 C292.163063,99.9216522 275.279679,208.326029 274.581246,210.923521 C274.242062,212.184336 273.474664,213.821327 272.875918,214.561139 C271.837673,215.843897 271.795667,214.830104 271.973096,192.933555 C272.109773,176.080265 271.963692,169.72478 271.425761,169.076504 C270.443316,167.892178 246.440184,167.771802 245.266516,168.945469 C244.71103,169.500955 244.514165,175.21318 244.514165,190.756125 C244.514165,211.358631 244.483444,211.874618 243.103507,214.575559 C241.321062,218.063959 239.127959,219.666467 235.65147,220.020699 C232.15868,220.376185 229.016361,218.805025 227.294104,215.842016 C226.042694,213.688411 226.015734,212.650167 225.845201,159.544843 C225.726079,122.327292 225.882819,104.658956 226.347396,102.933564 C227.297239,99.4050378 229.944261,97.8232198 234.351784,98.1492386 C238.500373,98.4558216 240.596924,99.9285487 242.628272,103.962404 C244.116673,106.919144 244.205074,107.71977 244.509149,121.038891 C244.771218,132.534188 244.994416,135.117887 245.768083,135.605661 C246.285325,135.932307 251.857111,136.203153 258.150527,136.208796 C268.763692,136.217573 269.683441,136.127291 270.846451,134.964282 C272.063378,133.747354 272.100369,132.874627 272.100369,105.183721 C272.100369,77.4928144 272.063378,76.6200872 270.846451,75.4031594 C269.682814,74.2395232 268.756796,74.1492411 257.98501,74.1492411 C250.798804,74.1492411 245.963695,74.4062943 245.289087,74.8232222 C244.463381,75.3348209 242.838303,75.0959494 238.558053,73.8357615 C231.410091,71.7304326 222.818243,71.2526897 216.719184,72.6207146 M0.985037031,75.134194 C0.191306707,75.9285512 4.20423016e-05,77.6909335 4.20423016e-05,84.210682 C4.20423016e-05,93.4044115 -0.0726431085,93.2714961 5.82641583,94.8432828 C7.47908023,95.2834081 9.24208945,96.2307435 9.74491072,96.9479848 C10.5355062,98.0777652 10.6583902,111.729174 10.6583902,198.643272 C10.6583902,295.053293 10.6132492,299.074609 9.51356278,300.069593 C8.8834688,300.639499 7.02516179,301.356741 5.38378265,301.663324 C3.74177655,301.969907 2.07030337,302.547963 1.66967646,302.947963 C0.703532358,303.912226 0.31168287,319.015046 1.19318748,321.327898 L1.84961374,323.052036 L49.7511761,323.052036 C88.7756234,323.052036 97.7800112,322.897804 98.3423936,322.220688 C98.7217039,321.763008 99.7869075,312.523511 100.709164,301.687775 C101.631421,290.85204 102.569352,281.773671 102.793177,281.514737 C103.017001,281.255175 105.095371,281.996241 107.410731,283.161131 C116.650856,287.810034 130.425776,288.63135 140.75242,285.148592 C155.07593,280.318498 164.895992,272.136054 170.885333,260.042638 C174.676555,252.388094 176.129219,246.255179 176.750536,235.277751 C177.033294,230.277751 177.304768,197.426344 177.353044,162.275251 C177.431413,105.444536 177.549909,98.1975144 178.422009,96.8658531 C178.961194,96.0426557 181.121695,94.5561355 183.222008,93.5630321 C185.322322,92.5693018 187.272165,91.3918725 187.554923,90.9467315 C187.837682,90.5009635 188.072792,86.9830955 188.078633,83.1279235 C188.085958,77.5837235 187.882196,75.9141312 187.102886,75.134194 C186.245206,74.2771408 183.315425,74.1492411 164.490976,74.1492411 C150.781886,74.1492411 142.420132,74.3868586 141.65148,74.7981438 C140.544897,75.3906203 140.438941,76.1843506 140.438941,83.8746319 C140.438941,91.9316844 140.50101,92.3417157 141.849599,93.1956341 C142.625774,93.6865431 144.156809,94.2752578 145.252106,94.5034709 C146.347404,94.7316841 147.940507,95.6144426 148.791291,96.4658532 C150.265272,97.9398342 150.359316,98.4946931 150.781886,108.181212 C151.025774,113.774315 151.267153,145.998763 151.317937,179.791863 L151.410727,241.233863 L149.976871,244.780571 C145.919818,254.815053 134.235807,257.914739 127.155557,250.834489 C122.655244,246.334176 122.860259,250.403768 123.038316,169.121018 L123.197563,96.406292 L127.774992,94.8388941 C130.29286,93.9768252 132.616371,92.8482987 132.938001,92.3310574 C133.259631,91.813816 133.527343,87.9780798 133.532985,83.8075473 C133.541136,77.2495542 133.387531,76.0840371 132.395682,75.1868585 C131.364334,74.2533163 128.403832,74.1492411 102.964337,74.1492411 L74.6790732,74.1492411 L73.7035247,75.5429713 C72.9543085,76.6125637 72.7273492,78.651435 72.7273492,84.3203999 C72.7273492,92.719772 73.1787598,93.6865431 77.4784459,94.4934396 C78.8069724,94.7423424 80.6796995,95.3523736 81.639574,95.8489253 L83.3856553,96.7517465 L83.3856553,169.463338 C83.3856553,233.173049 83.2709218,242.174302 82.4596366,242.174302 C80.0157497,242.174302 78.8075994,247.768659 76.5022705,269.760506 C74.6865967,287.082134 73.3348727,291.035739 68.3618325,293.573042 C65.7875381,294.886522 59.5994509,296.080252 55.3292319,296.087776 L52.6646554,296.092791 L52.6646554,196.428225 C52.6646554,99.6526867 52.6985112,96.7454769 53.83895,96.1354457 C54.4853449,95.7893642 56.3781347,95.2012765 58.0452191,94.8276088 C59.7129305,94.4533142 61.441457,93.8457907 61.886598,93.4758848 C62.4734318,92.9893645 62.6960023,90.5216532 62.6960023,84.5147572 C62.6960023,77.2796483 62.5499208,76.0921876 61.549294,75.1868585 C60.5173192,74.2526893 57.4928681,74.1492411 31.1869147,74.1492411 C5.46277951,74.1492411 1.85274854,74.2671094 0.985037031,75.134194 M218.855861,77.3385824 C206.533605,79.756137 196.961192,87.0156974 193.736114,96.3893641 C192.508528,99.9573888 192.476553,101.590618 192.476553,160.322273 C192.476553,212.771797 192.602572,221.079006 193.449594,224.331043 C195.98439,234.065212 203.342383,240.771167 214.733604,243.729788 C222.801942,245.825712 234.415733,245.552985 241.6452,243.09844 C251.778114,239.658315 261.72921,230.115369 265.378113,220.338567 C266.611341,217.034493 266.722313,215.30095 266.940495,195.897818 C267.115417,180.331048 266.984382,174.783713 266.426388,174.110986 C265.447078,172.931676 251.442064,172.801268 250.282189,173.961143 C249.729838,174.513494 249.529838,179.789355 249.529838,193.79437 C249.529838,214.448286 249.311657,216.180574 246.245826,219.900323 C242.32357,224.658943 234.079056,226.665212 229.031408,224.090291 C225.615734,222.347345 222.233917,218.285276 221.381879,214.90095 C220.483447,211.332299 220.419497,110.013814 221.312287,104.556761 C222.413854,97.8238467 226.702255,93.7266685 233.312285,93.0915588 C239.627018,92.4846624 244.909149,96.2664801 247.680309,103.377451 C248.923569,106.567419 249.166202,108.610053 249.480309,118.531055 C249.772472,127.759267 250.027017,130.112872 250.783757,130.589987 C251.300998,130.916633 254.615731,131.18748 258.150527,131.193122 C267.879053,131.207542 267.084696,133.509736 267.084696,105.30347 C267.084696,87.4765124 266.896608,81.6551964 266.294727,80.831372 C265.606953,79.8915602 264.494727,79.7736919 257.740496,79.9279239 C250.727957,80.0884254 249.910403,80.2263564 249.283444,81.3592717 C248.901625,82.0489268 248.569964,82.6796477 248.54614,82.7611524 C248.522315,82.8426571 246.124196,81.9461055 243.216986,80.7686761 C234.242693,77.1341937 225.892223,75.9580183 218.855861,77.3385824 M390.034526,77.6075479 C382.495342,79.7279239 376.004433,84.8595848 373.144246,90.9605246 C371.483431,94.5034709 371.472145,94.6294897 371.265249,111.453312 C371.035155,130.179329 371.369951,133.054564 374.464622,138.916005 C377.105374,143.917259 381.099104,147.324155 393.526689,155.176819 C407.626374,164.086536 409.34048,165.379326 410.393144,167.898448 C411.043301,169.453933 411.281546,172.80503 411.271514,180.24202 C411.255213,192.286533 410.586875,194.564275 406.21885,197.454557 C404.065872,198.879635 402.71791,199.25393 399.11603,199.426344 C395.003804,199.623209 394.450826,199.492175 391.732958,197.677128 C386.845185,194.411924 385.962426,191.818821 385.583743,179.610672 C385.330451,171.462084 385.076533,169.278385 384.326063,168.80503 C383.054589,168.003777 373.886565,168.03199 372.372459,168.842021 C371.207569,169.465845 371.15992,170.394999 371.15992,192.644526 C371.15992,219.442643 370.467757,217.095935 378.36995,217.095935 C384.655216,217.095935 385.579981,216.570543 385.579981,212.998756 C385.579981,211.458945 385.711642,210.199384 385.872144,210.199384 C386.032645,210.199384 387.93672,211.163647 390.104118,212.34233 C395.390011,215.216938 399.812581,216.433866 406.630135,216.890292 C420.190009,217.796875 431.420728,211.782455 436.608816,200.833867 L438.558032,196.719761 L438.753643,180.502835 C438.973079,162.332931 438.457091,159.028856 434.452703,152.983716 C431.514772,148.548606 428.23076,145.966788 415.252078,137.890927 C408.759916,133.851429 402.705998,129.917887 401.798788,129.150489 C398.387503,126.262715 397.83766,124.211932 397.600669,113.489049 C397.398788,104.365539 397.486563,103.397514 398.751139,100.784348 C401.149885,95.8288626 407.156781,93.3730635 412.724179,95.070242 C416.866498,96.3335648 419.45772,98.4821539 421.611952,102.43952 C423.265243,105.477137 423.467751,106.500335 423.706623,113.016949 C423.852077,116.984346 424.254585,120.583719 424.601293,121.01444 C425.452704,122.072747 437.065242,122.099706 438.11916,121.045788 C438.672765,120.492183 438.871511,115.031995 438.871511,100.378078 C438.871511,77.2056671 439.580602,79.1649145 431.19565,79.1649145 C425.290322,79.1649145 423.935463,79.7774537 423.30098,82.736074 L422.884052,84.6783936 L419.035777,82.3467324 C413.097219,78.7473597 407.659602,77.1931279 400.000042,76.9040997 C395.354902,76.7291781 392.420733,76.9360746 390.034526,77.6075479 M6.40948787,80.14109 C5.23770116,80.9617796 5.01575761,81.7047262 5.01575761,84.8075472 C5.01575761,87.9103682 5.23770116,88.6533148 6.40948787,89.4740044 C7.17563199,90.0106814 8.28221495,90.4501798 8.86904874,90.4501798 C10.4514937,90.4501798 13.841462,93.5479851 14.8188914,95.8865429 C15.5292361,97.5868562 15.6734367,115.062716 15.6715559,199.050795 C15.669675,298.791224 15.6527471,300.195612 14.425161,302.208151 C13.6239072,303.522885 11.8972616,304.860189 9.56873519,305.969906 L5.95619638,307.691536 L5.76936255,311.979937 C5.65525598,314.60188 5.86779514,316.611912 6.31669791,317.15235 C6.93487967,317.897178 13.7881705,318.037604 49.875314,318.037604 C96.815121,318.037604 94.6577544,318.211911 94.6809519,314.386833 C94.6865946,313.462696 95.939886,298.480252 97.4652777,281.092166 C99.3662179,259.431353 100.046469,249.116621 99.6276599,248.333549 C99.0953715,247.339192 98.1630832,247.189975 92.4690399,247.189975 C86.3517992,247.189975 85.8665328,247.282138 85.0665329,248.600633 C84.5956865,249.376182 83.1474108,258.052043 81.8483514,267.879628 C80.3781321,279.00063 79.0082263,287.028216 78.2195117,289.137933 C76.6602642,293.309093 72.6251549,297.495299 68.1586977,299.574296 C65.1825224,300.959876 64.0916135,301.096553 55.9561911,301.102195 L47.0220228,301.108465 L47.0220228,199.19625 C47.0220228,89.1442238 46.8239037,95.6758846 50.2539974,92.5649131 C51.0627747,91.8313709 52.8527432,90.8740042 54.2320534,90.4363867 C57.4151251,89.4276094 57.6590123,89.019459 57.6709245,84.686544 C57.6859715,78.9235353 58.8370686,79.1634725 31.3480432,79.1634725 C11.0521206,79.1634725 7.6101147,79.2997108 6.40948787,80.14109 M78.153681,80.3116229 C77.1191983,81.4539425 76.7173175,86.1743182 77.4840885,88.1724371 C77.6865964,88.7003367 79.1931793,89.5768257 80.8314236,90.1210262 C82.469668,90.6652268 84.6314232,91.968048 85.6358118,93.0156968 L87.46089,94.9210257 L87.6251533,169.174936 L87.7894166,243.42822 L89.6778177,243.42822 L91.5662187,243.42822 L91.3944319,169.917256 C91.2226451,96.4758845 91.2213912,96.4037842 89.8909838,93.5272955 C88.5091658,90.539208 86.0665328,88.374318 82.7862823,87.2313714 C81.2508593,86.6959482 80.8778186,86.2100549 80.8778186,84.7461052 L80.8778186,82.9266696 L102.860888,82.9266696 L124.844585,82.9266696 L124.64772,84.8702431 C124.483457,86.4978291 124.057751,86.9479858 122.029538,87.6420296 C118.848974,88.7298038 116.249602,91.2896782 114.998191,94.5667938 C114.082204,96.9655396 114.011357,104.187482 114.25211,170.792491 C114.51794,244.208784 114.521075,244.377436 115.876561,248.50847 C118.25399,255.754865 124.659005,261.13104 132.919192,262.813171 C145.041448,265.282136 157.173108,255.330413 159.225146,241.233863 C159.64897,238.322892 159.725459,213.11349 159.452732,166.371802 L159.04082,95.8990821 L157.687215,93.3310572 C156.629535,91.3260418 155.494739,90.3517472 152.502262,88.8827819 C149.008219,87.1674215 148.66778,86.822594 148.630163,84.964287 L148.58941,82.9266696 L164.26339,82.9266696 L179.937369,82.9266696 L179.896617,84.964287 C179.858999,86.8213401 179.517307,87.1680485 176.032668,88.8827819 C173.071539,90.339835 171.916054,91.3285496 170.901634,93.2714961 C169.601947,95.761151 169.590035,96.3078594 169.256493,168.193118 L168.92107,240.606904 L167.511038,245.936057 C166.73549,248.867091 164.833296,253.877749 163.28408,257.070852 C152.635178,279.020066 125.550541,286.348592 105.485966,272.709722 C103.408224,271.297183 102.194431,270.78433 102.194431,271.319126 C102.194431,271.784957 102.028287,272.599377 101.824525,273.129157 C101.295371,274.508468 107.532361,278.344204 114.106655,280.682762 C118.995683,282.421946 120.109162,282.578059 127.586278,282.578059 C135.107907,282.578059 136.160571,282.428216 141.229536,280.630097 C148.753047,277.962386 153.088469,275.2627 158.419503,269.92665 C166.040819,262.296557 170.919188,250.647028 172.402574,236.531669 C172.805082,232.707218 172.888467,207.12603 172.63643,165.058322 C172.343013,116.018202 172.428279,98.8752573 172.975615,96.8934393 C173.760567,94.0526873 176.039564,91.9360731 179.937369,90.4294902 C181.144266,89.9624056 182.33925,89.2827818 182.592541,88.9185185 C183.213231,88.0251017 183.180002,81.5592717 182.549281,80.5655413 C182.158059,79.9492405 178.000692,79.8094286 163.90665,79.9385822 L145.768094,80.1053533 L145.768094,84.7899923 L145.768094,89.4740044 L148.320445,90.4326249 C149.724206,90.9592707 151.652106,91.906606 152.604457,92.5367 C156.267779,94.9598972 156.11292,91.5592706 156.11292,169.674623 C156.11292,240.777437 156.101008,241.453299 154.796306,245.677123 C153.684081,249.278376 152.882827,250.534802 149.623893,253.786213 C146.914802,256.489034 144.848972,257.944833 142.678439,258.68151 C133.890352,261.661447 123.821388,257.773673 119.995683,249.922263 L118.206341,246.249536 L117.721075,192.958006 C117.067156,121.176195 117.259006,96.9931258 118.502266,94.5254145 C119.3612,92.8200855 120.44584,92.1034712 126.01888,89.556763 C127.405713,88.9229072 127.607594,88.3993963 127.771231,85.0156976 C128.071544,78.7987704 129.648973,79.1649145 102.560575,79.1649145 C80.717317,79.1649145 79.1235868,79.2395227 78.153681,80.3116229 M288.151778,80.3486135 C287.34112,81.2439112 287.1267,82.4257292 287.2709,85.2075471 L287.460869,88.8827819 L291.222624,90.7636594 C294.140492,92.2225934 295.252091,93.1937532 296.179363,95.0921856 L297.374348,97.5398342 L289.382499,149.951114 C284.986888,178.777443 280.838926,205.152362 280.164318,208.561766 C278.89598,214.973678 277.198174,218.343583 273.734852,221.32352 C272.416983,222.457689 272.100369,223.285276 272.100369,225.596874 C272.100369,229.111607 272.977485,230.889037 274.712281,230.889037 C277.158676,230.889037 302.502247,225.743583 303.317294,225.080887 C303.874033,224.628222 304.069645,223.043896 303.944253,219.99374 L303.761808,215.564273 L300.940491,215.016938 C297.40883,214.331671 295.924818,213.039509 295.924818,210.652048 C295.924818,208.984964 299.795664,182.998132 300.6872,178.681518 L301.045821,176.943588 L313.03955,177.114121 L325.033906,177.284026 L327.400677,190.763649 C330.099109,206.129791 330.002557,208.211296 326.506633,210.095308 C323.003185,211.983709 322.257104,213.090292 322.257104,216.399383 C322.257104,218.398756 322.638922,219.92352 323.354282,220.783708 L324.451461,222.102204 L344.006945,219.972423 C354.762429,218.801263 363.861488,217.65769 364.226378,217.431985 C364.602554,217.20001 364.890328,214.884649 364.890328,212.090292 L364.890328,207.158631 L362.281551,205.700951 C360.846441,204.899071 359.127319,203.505967 358.460861,202.605027 C357.495971,201.299071 355.544874,190.37368 348.847696,148.764907 C341.613841,103.821965 340.55428,96.3373265 341.225754,94.9404615 C342.374343,92.5530009 345.85522,90.4501798 348.660236,90.4501798 C351.629514,90.4501798 352.351144,89.3028445 352.351144,84.579961 C352.351144,78.7755729 354.692837,79.1649145 319.801931,79.1649145 C290.625759,79.1649145 289.173721,79.21946 288.151778,80.3486135 M448.059598,80.3116229 C446.9643,81.5216541 446.595648,87.5548823 447.52731,89.0213398 C447.795021,89.4420294 449.257717,90.2251015 450.778093,90.7617785 C452.298469,91.2984556 454.089692,92.2232204 454.757403,92.8175777 C457.713516,95.4470445 457.680287,94.8156966 457.677779,148.580581 C457.675271,206.8044 458.208813,201.86835 451.574958,205.029478 L447.962419,206.751108 L447.77872,210.910982 C447.543611,216.237627 448.082169,216.788725 454.023861,217.295308 C456.55176,217.510981 462.147371,217.978066 466.457715,218.333552 C470.76806,218.689038 478.593764,219.439508 483.848309,220.00189 C495.536082,221.25142 495.427618,221.299069 495.166803,215.052048 L494.984358,210.695935 L491.919155,209.534807 C488.065864,208.074619 486.06461,206.213804 485.268999,203.349227 C484.911005,202.059572 484.645174,191.595624 484.643293,178.694685 L484.639532,156.280894 L490.364923,156.280894 C497.379969,156.280894 499.547994,157.347351 501.56743,161.790611 C502.305987,163.415062 503.131693,165.16804 503.401912,165.685282 C504.035768,166.89594 514.388745,167.379325 515.73608,166.26083 C516.924168,165.274623 517.042036,132.507856 515.862099,131.327918 C515.034513,130.500332 504.850815,130.272119 503.729812,131.055191 C503.366802,131.308483 502.571191,132.848294 501.960533,134.476507 C501.349875,136.104093 500.002539,138.149861 498.966176,139.021962 C497.228245,140.48403 496.601286,140.606914 490.860848,140.606914 L484.639532,140.606914 L484.639532,118.349863 L484.639532,96.0928124 L492.006302,96.0965742 C500.353637,96.100336 503.206301,96.6965741 505.959279,99.0131883 C509.02699,101.594379 509.717899,103.561777 509.717899,109.715382 C509.717899,117.72792 510.019466,118.036384 517.858964,118.036384 C522.649559,118.036384 524.270875,117.813813 525.033885,117.051431 C525.88216,116.202528 526.018838,113.642027 526.018838,98.6006492 C526.018838,83.5592714 525.88216,80.9987701 525.033885,80.1498674 C524.159904,79.2765133 519.805672,79.1649145 486.573074,79.1649145 C451.06336,79.1649145 449.04267,79.2251026 448.059598,80.3116229 M534.936078,80.14109 C533.761783,80.9630335 533.542348,81.7034723 533.542348,84.8432838 C533.542348,88.7498665 533.881533,89.3448508 537.55614,91.8890511 C541.065858,94.318518 540.917269,91.783095 541.157394,153.146098 C541.36241,205.605654 541.299087,210.032612 540.314134,211.830731 C539.064604,214.110982 536.813194,215.721013 534.117269,216.260198 C531.933571,216.696562 531.029495,218.384336 531.043661,221.995621 C531.064605,227.16678 530.192505,226.785589 555.17244,232.535431 C567.586231,235.393111 577.934193,237.742954 578.168675,237.758001 C579.579334,237.84891 580.564286,235.542955 580.564286,232.149224 C580.564286,227.399382 580.253942,226.7091 577.538581,225.420699 C573.974318,223.72979 570.789366,220.166781 570.324162,217.35048 C569.620714,213.092173 569.844538,99.1605237 570.561153,96.5793328 C571.001278,94.9956339 572.210682,93.4006497 574.319773,91.6219665 L577.42949,89.0000232 L577.42949,84.7316851 C577.42949,81.1530021 577.233252,80.3580179 576.216951,79.8138173 C575.455823,79.4069208 567.797517,79.1649145 555.666483,79.1649145 C539.179338,79.1649145 536.123539,79.3084882 534.936078,80.14109 M589.742969,79.9636605 C588.849552,80.616952 588.685289,81.5586447 588.839521,85.1360738 L589.028235,89.509741 L592.850179,91.2997095 C599.653313,94.4859161 599.030742,88.0432835 599.253313,157.534812 C599.359896,190.810671 599.265852,219.811295 599.043908,221.9812 C598.537325,226.936686 597.077137,228.764272 592.78999,229.810667 L589.655195,230.575557 L589.474003,235.337312 C589.347358,238.653299 589.537953,240.299067 590.100963,240.758001 C590.545477,241.120383 595.615069,242.862076 601.367419,244.62822 C614.82259,248.760508 624.64704,252.136056 641.507854,258.419441 C648.992492,261.208783 655.658322,263.490914 656.321645,263.490914 C656.984341,263.490914 657.829482,263.126651 658.198761,262.680883 C658.568667,262.235742 661.201269,248.097812 664.048917,231.263331 C669.993744,196.121015 670.092804,198.914118 662.90409,198.914118 C659.499701,198.914118 658.841394,199.105968 658.069607,200.324776 C657.578071,201.100952 655.569921,207.519133 653.606285,214.588098 C649.319138,230.023833 648.221333,232.734177 645.11475,235.540447 C641.600017,238.715995 637.858951,239.092797 630.564281,237.00565 L628.213184,236.332923 L628.213184,166.26083 L628.213184,96.1887372 L629.915378,94.1655399 C630.852055,93.0533143 633.109108,91.4834085 634.931052,90.677139 L638.244531,89.2119354 L638.244531,85.1736913 C638.244531,78.7686763 639.872117,79.1649145 613.554879,79.1649145 C596.142968,79.1649145 590.579959,79.3517484 589.742969,79.9636605 M662.396253,80.017579 C661.44014,80.7172655 661.255814,81.5887387 661.373682,84.8583309 C661.540453,89.4827818 661.852679,89.9993962 665.065845,90.9617785 C668.138572,91.8821546 670.797506,94.6827812 671.508477,97.7467308 C671.822584,99.0984548 672.077129,132.648294 672.08528,173.699074 C672.097819,236.300321 671.966158,247.551104 671.197506,249.390602 C670.200014,251.778063 667.262083,253.871479 664.061456,254.476495 C662.634497,254.746087 661.794999,255.35173 661.39688,256.400006 C660.555501,258.611918 660.682146,264.33292 661.598761,265.521635 C662.030109,266.080255 669.012553,269.551101 677.116,273.23386 C698.035747,282.742323 695.694682,281.902824 697.173052,280.424454 C698.131672,279.465834 698.432613,278.334173 698.432613,275.688405 C698.432613,271.812543 697.668349,270.742324 692.872739,267.905961 C691.211297,266.922889 689.815686,265.431353 689.020701,263.789347 C687.803147,261.273359 687.774306,259.813798 687.774306,200.596877 L687.774306,139.979955 L689.811924,139.981209 L691.849541,139.982463 L700.265214,179.009418 C713.962391,242.533549 718.334178,262.485898 718.808159,263.647654 C719.492798,265.323516 721.389977,264.96803 722.155494,263.020695 C722.528535,262.072105 728.225086,235.340447 734.815054,203.616312 C741.404395,171.892178 747.082137,144.596256 747.431353,142.958011 C748.03825,140.110363 748.15988,139.979955 750.208783,139.979955 L752.351102,139.979955 L752.351102,218.319132 C752.351102,270.992481 752.134174,297.670221 751.688406,299.747963 C750.915366,303.354233 749.310977,305.077116 745.462075,306.43511 C742.021323,307.648903 741.714113,308.126019 741.7022,312.27837 C741.684646,318.524137 739.438251,318.036363 768.235113,318.036363 C787.033857,318.036363 793.671474,317.844513 794.231976,317.284012 C795.252665,316.263322 795.227587,308.357994 794.200628,307.515988 C793.769907,307.16301 792.186208,306.544828 790.68276,306.14232 C787.462697,305.281505 785.210033,303.075236 784.335425,299.92602 C783.926647,298.453293 783.704704,262.803767 783.702823,198.110357 C783.699061,90.7661672 783.529782,96.2639723 786.927901,93.1360729 C787.757995,92.3718097 789.687148,91.3053521 791.215048,90.7661672 C792.742947,90.2276093 794.211286,89.4420294 794.478997,89.0213398 C795.344828,87.6583306 795.031348,82.0188327 794.008151,80.5586448 L793.032603,79.1649145 L769.915364,79.1649145 C749.735428,79.1649145 746.672733,79.2903064 745.812545,80.1498674 C745.270852,80.6921871 744.827592,81.277767 744.827592,81.4514347 C744.827592,81.6251024 740.595618,102.198141 735.423204,127.168671 C730.250791,152.139828 726.018817,172.714121 726.018817,172.88967 C726.018817,173.065218 725.172422,173.208792 724.137939,173.208792 C723.103456,173.208792 722.257061,173.001895 722.257061,172.748604 C722.257061,170.64014 703.119759,81.6564503 702.433866,80.5755727 L701.538568,79.1649145 L682.550483,79.1649145 C667.528541,79.1649145 663.319137,79.3429709 662.396253,80.017579 M220.217616,80.4595852 C209.688463,82.3028452 200.832038,88.296575 197.279687,95.9824676 C195.925455,98.9122479 195.924828,98.9523733 195.736741,158.475251 C195.601944,201.307848 195.750534,219.088411 196.266521,221.782454 C198.149907,231.616936 204.905392,238.046403 216.105391,240.665211 C222.459622,242.150477 236.689087,241.641386 241.264009,239.765525 C253.004446,234.949851 261.65711,225.064586 263.300997,214.588098 C263.652721,212.346719 263.942376,202.82509 263.944884,193.428225 L263.9499,176.343588 L258.464007,176.344215 L252.978114,176.344215 L252.978114,194.99625 C252.978114,216.19374 252.743631,217.505339 248.049588,222.598128 C244.001312,226.989977 241.432034,228.044523 234.749903,228.057062 C229.504762,228.067093 228.819496,227.919758 225.972474,226.168661 C222.563697,224.072736 219.192538,219.595621 218.173729,215.812549 C217.739873,214.199383 217.579999,194.920388 217.695359,158.033872 C217.865892,103.40253 217.885328,102.638893 219.177491,99.847671 C220.758055,96.4332513 223.689716,93.3906184 227.188775,91.5341922 C229.232662,90.4495528 230.840812,90.1580168 234.796298,90.1561359 C240.341125,90.1542551 242.183131,90.8520606 245.651469,94.271496 C251.0057,99.5504923 252.664634,105.202529 252.664634,118.168045 L252.664634,127.440772 L257.993787,127.440772 L263.32294,127.440772 L263.32294,105.183721 L263.32294,82.9266696 L257.680308,82.9266696 L252.037675,82.9266696 L252.037675,85.1210268 C252.037675,87.9624058 251.117299,87.9667945 245.030779,85.1548826 C236.149276,81.0514347 226.867145,79.295322 220.217616,80.4595852 M391.849573,80.6589583 C384.721674,82.2338797 378.682176,86.7636598 376.10412,92.4696153 C374.678415,95.62322 374.598791,96.5078594 374.411957,111.255193 C374.20506,127.606289 374.603807,131.713498 376.865248,136.524783 C379.09785,141.274626 383.280922,144.848293 395.924807,152.809421 C409.105997,161.10848 412.704743,164.038887 413.917909,167.459576 C415.058348,170.677131 415.018222,189.574307 413.86399,192.883398 C410.04142,203.836375 394.225121,206.491547 386.50788,197.475874 C383.299103,193.727285 382.445185,190.117254 382.445185,180.304716 L382.445185,171.954873 L378.36995,171.954873 L374.294716,171.954873 L374.294716,192.644526 L374.294716,213.334179 L378.36995,213.334179 L382.445185,213.334179 L382.445185,210.011296 C382.445185,204.907848 383.011329,204.771798 389.594401,208.300324 C395.936093,211.69907 400.201923,213.07023 406.269634,213.660198 C419.157407,214.912863 431.255838,207.798757 434.521669,197.047661 C435.730446,193.06647 435.818847,191.505969 435.629505,177.479011 L435.423236,162.237006 L433.425744,158.020706 C432.304114,155.653308 430.215086,152.629484 428.660854,151.124155 C427.138597,149.650174 420.702234,145.225096 414.357407,141.291554 C394.499102,128.979329 394.779353,129.361147 394.468381,114.218202 C394.228883,102.541715 394.6665,100.020712 397.537346,96.54485 C400.54487,92.9034711 403.878412,91.4276092 409.09095,91.4288631 C414.309131,91.430744 418.615087,93.3379538 421.933582,97.1178907 C425.494083,101.173063 426.557406,104.379332 426.842672,111.923532 L427.097845,118.663343 L431.417594,118.663343 L435.736715,118.663343 L435.736715,100.795006 L435.736715,82.9266696 L431.348001,82.9266696 L426.959287,82.9266696 L426.959287,85.6965753 C426.959287,88.7341925 426.490948,90.4501798 425.662735,90.4501798 C425.368064,90.4501798 422.90098,88.9341925 420.179977,87.0815281 C410.894085,80.7586448 401.270888,78.5768268 391.849573,80.6589583 M8.15055352,84.7617792 C8.15055352,86.3736912 8.56434658,86.7856034 11.553061,88.1542553 C13.9806469,89.2658539 15.4627785,90.478393 16.7254742,92.3856028 L18.49538,95.0595837 L19.00259,195.732927 C19.3825273,271.108468 19.3286088,297.249531 18.786916,299.761757 C17.9380133,303.699687 14.8326845,307.547963 11.5449105,308.736677 C9.55995776,309.454545 9.40447188,309.70721 9.40447188,312.210658 L9.40447188,314.910344 L50.3135585,314.749216 L91.2226451,314.588087 L93.8395727,285.121006 C95.279071,268.914111 96.4784439,254.454551 96.5041492,252.989348 L96.5517981,250.324771 L92.1749961,250.324771 C87.0496048,250.324771 87.6633978,249.168031 86.1850281,261.610036 C82.9787588,288.58182 81.6690411,293.01066 75.1706092,298.853293 C70.2709232,303.258308 66.586284,304.371787 55.7411441,304.722885 C49.4928689,304.926019 46.1630887,304.790596 45.2395778,304.295925 L43.8872269,303.572414 L43.90102,199.989353 C43.9141861,100.818204 43.9637159,96.299709 45.0665371,93.8984553 C46.4834648,90.8119353 47.7906747,89.617578 51.5906743,87.9367004 C54.1505535,86.8044122 54.545533,86.3824686 54.545533,84.7780801 L54.545533,82.9266696 L31.3480432,82.9266696 L8.15055352,82.9266696 L8.15055352,84.7617792 M290.909144,85.0533152 C290.909144,86.7805877 291.194411,87.2508071 292.428267,87.5605249 C296.245821,88.5191455 300.270272,94.0815274 300.299739,98.4401476 C300.316667,100.945477 283.685321,209.244525 282.722311,212.898443 C281.863377,216.158004 279.636418,220.058317 277.489083,222.063959 C275.495353,223.926655 275.091591,228.075244 276.959303,227.502203 C277.893472,227.215056 300.26651,222.738567 300.76557,222.738567 C300.862121,222.738567 300.940491,221.817564 300.940491,220.691545 C300.940491,218.807533 300.695977,218.557376 297.877796,217.556123 C294.818862,216.469602 293.324818,214.942957 292.625132,212.186844 C292.309144,210.943584 297.27905,176.884027 298.106636,174.61945 C298.324818,174.023212 301.855225,173.835751 312.848327,173.835751 C327.271523,173.835751 327.304752,173.838886 327.810081,175.246409 C329.089705,178.813807 333.053341,204.565528 332.652087,206.704713 C332.188764,209.173678 329.173717,213.044524 327.233906,213.660198 C325.571837,214.187471 325.467135,218.349226 327.116037,218.351107 C328.711648,218.352361 358.676535,215.200637 360.344874,214.855809 C361.541112,214.608787 361.755532,214.158631 361.755532,211.897189 C361.755532,209.473365 361.548009,209.119133 359.473401,208.001892 C354.472774,205.308475 354.930454,207.211296 345.715408,150.816318 C341.107258,122.615067 337.329829,98.5962605 337.321052,97.4414016 C337.283434,92.7341921 340.625127,88.9611517 346.043308,87.5931268 C348.60569,86.9461049 348.923558,86.6658542 349.099107,84.8990832 L349.295972,82.9266696 L320.102245,82.9266696 L290.909144,82.9266696 L290.909144,85.0533152 M450.783736,85.025729 C450.783736,86.8714968 451.089065,87.2627193 453.313516,88.265854 C456.59502,89.7454777 460.032011,93.580587 460.435145,96.2119347 C460.60944,97.3536274 460.877779,120.434503 461.030757,147.503465 C461.246431,185.625718 461.132324,197.397504 460.524801,199.726657 C459.58687,203.321014 457.092826,206.158632 453.413203,207.818193 C450.867121,208.966155 450.724175,209.166782 450.905366,211.341703 L451.097215,213.647659 L459.561164,214.403772 C480.949877,216.313489 490.052697,217.206906 491.065863,217.495308 C491.981851,217.756123 492.163042,217.386844 492.163042,215.257063 C492.163042,213.219446 491.936083,212.70722 491.034515,212.70722 C489.270879,212.70722 485.059594,209.6928 483.359908,207.213177 L481.818215,204.963647 L481.818215,179.211926 L481.818215,153.459578 L489.028246,153.277759 C492.993763,153.177446 496.880283,153.255189 497.664609,153.450173 C500.005047,154.031991 503.927304,158.046411 505.063981,161.023213 L506.126677,163.804404 L509.803165,163.804404 L513.479654,163.804404 L513.479654,148.757384 L513.479654,133.710363 L509.791253,133.710363 L506.103479,133.710363 L504.400658,137.190614 C503.250188,139.541711 501.874013,141.215692 500.159279,142.350488 C497.904734,143.842651 496.898464,144.057071 491.141098,144.270237 C487.577462,144.401898 483.95113,144.331679 483.082792,144.114124 L481.504736,143.717886 L481.504736,118.337951 L481.504736,92.9580165 L491.111004,92.9580165 C502.863354,92.9580165 505.267116,93.6156967 509.307241,97.9341916 C512.547993,101.399395 513.471503,104.080899 513.475892,110.042654 L513.479654,114.274629 L518.181848,114.274629 L522.884042,114.274629 L522.884042,98.6006492 L522.884042,82.9266696 L486.833889,82.9266696 L450.783736,82.9266696 L450.783736,85.025729 M536.677144,85.0357603 C536.677144,86.7724372 537.100341,87.4382679 539.074636,88.8062928 C540.393131,89.7197724 542.15614,91.6627189 542.99313,93.1235338 L544.514133,95.7793329 L544.709118,151.26522 C544.850184,191.30973 544.704102,207.678381 544.18498,210.082142 C543.332942,214.030104 540.938585,217.024461 537.334824,218.649539 C535.006297,219.699696 534.796266,219.99374 534.796266,222.206906 C534.796266,223.533551 534.952379,224.619445 535.143602,224.619445 C535.334824,224.619445 544.694698,226.735432 555.944226,229.321639 C567.193755,231.907845 576.630118,234.023832 576.913503,234.023832 C577.197516,234.023832 577.42949,232.940447 577.42949,231.616936 C577.42949,229.633864 577.14297,229.079005 575.801904,228.46772 C572.542971,226.983081 569.902219,224.423206 568.344852,221.240135 L566.753003,217.986217 L566.91852,156.882775 C567.079021,97.9711821 567.127924,95.6921855 568.294068,93.3423425 C568.959272,92.0019038 570.570557,90.1680482 571.875259,89.2671078 C573.894695,87.8721237 574.250807,87.2796472 574.27087,85.2777666 L574.294695,82.9266696 L555.485919,82.9266696 L536.677144,82.9266696 L536.677144,85.0357603 M591.849552,85.0138167 C591.849552,86.9116222 592.141088,87.237641 595.062091,88.6056659 C598.842027,90.3761986 600.894065,92.8257281 601.858328,96.7197716 C602.35488,98.7247871 602.504096,117.862716 602.375569,162.863965 C602.20629,222.071483 602.122278,226.319131 601.084033,228.218817 C599.781212,230.603143 597.630115,232.14609 594.811934,232.717876 C592.969301,233.092171 592.773063,233.358629 592.599395,235.720384 L592.409426,238.31286 L602.630742,241.517876 C616.521649,245.873361 628.700958,250.090915 643.260205,255.587467 C649.984342,258.126024 655.563652,260.135428 655.658949,260.053924 C655.908479,259.839504 665.186848,205.085277 665.196297,203.773052 C665.201895,202.91788 664.674622,202.675873 662.803776,202.675873 L660.403776,202.675873 L656.792492,215.685276 C651.62384,234.306591 650.18058,237.081512 644.122273,240.045775 C641.117885,241.515368 640.190612,241.673361 636.190613,241.393738 C633.699704,241.22007 630.034501,240.456434 628.045786,239.696559 L624.430739,238.314741 L624.597511,166.944216 L624.764909,95.5736902 L626.662087,92.874631 C627.887165,91.1310575 629.70472,89.6144432 631.79751,88.588738 C634.687792,87.1724372 635.040143,86.7824686 635.072745,84.964287 L635.109735,82.9266696 L613.479643,82.9266696 L591.849552,82.9266696 L591.849552,85.0138167 M664.576817,84.9805879 C664.576817,86.8395219 664.888415,87.1843494 667.849544,88.6012772 C670.012553,89.6363868 671.765531,91.0834086 673.021957,92.8702422 L674.921643,95.5736902 L675.087787,172.20503 L675.254559,248.836997 L673.795625,251.618188 C672.610672,253.876495 671.609418,254.753611 668.472741,256.280883 L664.608792,258.161761 L664.592491,261.062701 L664.576817,263.963641 L667.868352,265.378061 C669.679011,266.156117 676.294057,269.152982 682.569291,272.038248 C688.844526,274.923515 694.134807,277.284016 694.324776,277.284016 C694.515372,277.284016 694.670857,276.353609 694.670857,275.216932 C694.670857,273.415678 694.247033,272.87085 691.379322,270.984957 C688.939197,269.379942 687.641391,267.939189 686.363648,265.416306 L684.639511,262.011917 L684.639511,199.495936 C684.639511,143.067102 684.736062,136.942338 685.63136,136.598764 C687.03951,136.058325 692.957378,136.144219 693.860199,136.718513 C694.2765,136.982463 700.34233,163.638887 707.339822,195.954871 C714.337313,228.270228 720.20377,254.710978 720.376184,254.711605 C720.548598,254.712231 726.15424,228.545463 732.833863,196.563021 C739.512859,164.579953 745.236369,137.918513 745.55173,137.315379 C745.999379,136.459579 746.937937,136.2182 749.813798,136.2182 C751.842638,136.2182 753.948594,136.38936 754.494049,136.598764 C755.391227,136.942965 755.485271,144.691553 755.482136,217.946718 C755.480255,274.130411 755.270851,299.681506 754.799378,301.421944 C753.977434,304.454546 750.373673,308.359875 747.53104,309.297806 C745.649535,309.918495 745.454551,310.21442 745.454551,312.442633 L745.454551,314.901567 L768.652041,314.901567 L791.849531,314.901567 L791.849531,312.442633 C791.849531,310.152351 791.687775,309.931034 789.498434,309.230094 C786.024453,308.117242 783.368027,305.877116 781.882134,302.808151 L780.564265,300.085894 L780.564265,198.695936 C780.564265,108.600648 780.672102,97.0476713 781.534798,94.9843486 C782.857055,91.8182047 784.426334,90.2840356 788.10345,88.5624057 C790.927274,87.2395218 791.222571,86.9034717 791.222571,85.0138167 L791.222571,82.9266696 L769.604392,82.9266696 L747.986212,82.9266696 L747.657059,84.3373278 C747.476495,85.1135033 743.226338,105.638266 738.212546,129.948608 C733.19938,154.258951 728.958001,174.616942 728.788095,175.188729 C728.343581,176.682146 726.915368,177.049544 723.377438,176.579951 C721.052673,176.271487 720.122892,175.834497 719.689664,174.845155 C719.370541,174.117256 716.006278,158.710361 712.213175,140.606914 C708.420072,122.503468 704.137941,102.119771 702.697189,95.3091135 L700.077753,82.9266696 L682.327285,82.9266696 L664.576817,82.9266696 L664.576817,84.9805879 M308.662748,105.026981 C307.677168,106.564285 299.206949,163.44641 299.793783,164.588103 C300.302247,165.577445 301.583125,165.685282 312.79817,165.685282 C322.606947,165.685282 325.390019,165.50221 325.956163,164.820705 C326.504752,164.159263 325.541116,157.121646 321.857104,134.883404 C319.208201,118.893437 316.76933,105.458329 316.437041,105.026981 C316.088452,104.573689 314.42701,104.243282 312.499738,104.243282 C310.51792,104.243282 308.96118,104.56115 308.662748,105.026981 M307.269644,133.240144 C305.107889,147.464594 303.187513,159.878386 303.001933,160.826348 L302.664629,162.550486 L312.774346,162.550486 C318.334847,162.550486 322.889705,162.3392 322.89662,162.080266 C322.903498,161.821332 320.882809,149.408167 318.40632,134.494062 C314.095349,108.53419 313.845819,107.378078 312.551775,107.378078 C311.252716,107.378078 311.046446,108.387482 307.269644,133.240144 M310.406948,140.474626 C309.276541,149.823841 308.534848,157.769295 308.758672,158.13105 C308.98187,158.492806 310.98187,158.788731 313.203186,158.788731 C317.190646,158.788731 317.24143,158.766787 317.242057,157.064593 C317.243311,154.389358 313.473405,126.023217 312.937982,124.674628 C312.648327,123.946728 311.655224,130.1461 310.406948,140.474626 M668.338572,225.453927 C668.338572,225.568034 667.351111,230.552986 666.144215,236.531669 C664.937318,242.510352 663.949858,247.918502 663.949858,248.54985 C663.949858,250.06521 665.94923,250.045147 667.332302,248.516621 C668.220077,247.536057 668.465845,245.459568 668.781205,236.290917 C668.989982,230.216309 668.975562,225.246404 668.74923,225.246404 C668.523525,225.246404 668.338572,225.339821 668.338572,225.453927 M390.595654,228.41819 C316.966822,230.830102 242.503507,247.612546 173.040818,277.450787 C147.404457,288.462698 109.856499,307.303449 107.366844,310.403762 C105.235183,313.05768 107.601327,317.180563 110.795684,316.378683 C111.606969,316.174921 115.292862,314.319122 118.987532,312.254545 C135.425775,303.068966 163.881572,289.475864 184.45461,280.980567 C246.884071,255.202514 312.53234,240.280885 379.937348,236.54797 C394.667127,235.732296 433.408189,235.726654 447.33546,236.537939 C520.917898,240.825713 594.131683,257.800632 658.934184,285.598122 C679.621956,294.472729 703.367408,306.194985 720.062704,315.775548 C725.076497,318.652664 726.257688,319.013792 728.210039,318.264576 C729.709098,317.689027 730.509098,315.183698 729.736058,313.487147 C728.114741,309.928527 685.579949,288.293419 656.112868,276.038248 C596.922905,251.422577 529.219464,235.214428 463.636399,229.959883 C438.909129,227.978692 417.68468,227.530416 390.595654,228.41819 M388.714777,251.715994 C388.714777,253.862702 388.939855,254.2301 390.60882,254.811918 C391.650827,255.174927 392.779353,255.988093 393.116657,256.618814 C393.490952,257.318501 393.73045,268.773045 393.73045,285.974924 L393.73045,314.183699 L392.006313,315.476488 C388.790012,317.887773 388.643303,318.11724 388.837034,320.444513 L389.028256,322.738557 L399.373083,322.738557 L409.717909,322.738557 L409.717909,319.91724 C409.717909,317.132288 409.685934,317.089027 407.210073,316.56489 C402.499728,315.566771 402.838913,317.070846 402.655214,296.381193 C402.563678,286.097181 402.692205,277.885897 402.940481,278.134173 C403.18813,278.382448 405.382487,284.689031 407.816342,292.148591 C410.250198,299.608152 412.554273,305.815674 412.936718,305.942947 C413.344868,306.078997 415.709758,300.401255 418.650824,292.225707 C421.411325,284.553608 423.986246,278.170536 424.373707,278.041383 C425.365557,277.710975 425.362422,311.712225 424.369945,313.889028 C423.980604,314.7442 422.852077,315.77931 421.862109,316.189341 C420.22888,316.86583 420.062736,317.2163 420.062736,319.993102 L420.062736,323.052036 L431.661481,323.052036 L443.260226,323.052036 L443.260226,319.91724 C443.260226,317.505955 443.036401,316.782444 442.289693,316.782444 C441.756151,316.782444 440.627624,316.035736 439.781856,315.12351 L438.244552,313.464576 L438.244552,286.32414 C438.244552,269.574926 438.487185,258.546087 438.877781,257.519128 C439.242044,256.560507 440.317906,255.549222 441.413831,255.135429 C443.191887,254.464583 443.30474,254.231981 443.131699,251.587467 L442.946746,248.757373 L435.292201,248.581825 L427.638284,248.405649 L426.769318,250.149223 C426.291575,251.107843 423.410071,258.882764 420.365557,267.426337 C417.321043,275.96991 414.621984,282.741069 414.367439,282.473357 C414.112893,282.205646 411.454586,274.438875 408.460856,265.215052 L403.016343,248.443894 L396.283428,248.443894 C392.580607,248.443894 389.362426,248.631981 389.132959,248.862075 C388.902865,249.091542 388.714777,250.376182 388.714777,251.715994 Z M447.747372,248.933549 C447.348626,249.066464 447.021981,250.273987 447.021981,251.616307 C447.021981,253.602514 447.342984,254.256432 448.746118,255.125398 C452.159284,257.238877 452.037654,256.112858 452.037654,285.595614 C452.037654,303.262697 451.806933,313.534796 451.391886,314.30909 C451.037027,314.97304 449.908501,315.949216 448.884049,316.478369 C447.240163,317.328526 447.021981,317.770532 447.021981,320.247021 L447.021981,323.052036 L466.163671,323.052036 C480.904736,323.052036 485.372447,322.872099 485.596271,322.268337 C486.105362,320.89467 488.331067,298.367399 488.009437,297.847023 C487.414453,296.884014 484.067118,297.32602 483.490315,298.443888 C483.179344,299.047023 482.267118,302.058935 481.463983,305.136051 C480.651444,308.248903 479.387495,311.447022 478.614454,312.346081 C477.344235,313.82257 476.737338,313.979937 471.527934,314.179937 L465.830756,314.399373 L465.830756,302.737932 L465.830756,291.077118 L468.607558,291.077118 C471.678404,291.077118 473.119784,292.098434 474.127307,294.988089 C474.71853,296.684014 474.924172,296.770534 477.971821,296.593105 L481.191256,296.406271 L481.366178,287.714736 C481.484046,281.840755 481.307244,278.741696 480.819469,278.153608 C480.408811,277.658938 478.936084,277.284016 477.404423,277.284016 C474.914768,277.284016 474.624486,277.461445 473.562417,279.635113 C472.476523,281.857683 472.23389,281.996868 469.122292,282.175551 L465.830756,282.36552 L465.830756,270.660819 L465.830756,258.956118 L469.922292,259.216933 C475.546743,259.574927 477.29972,261.272732 477.742981,266.793108 L478.05646,270.694048 L481.033262,271.235114 C485.990002,272.136681 485.89345,272.332919 485.89345,261.352983 C485.89345,256.018187 485.666491,251.512232 485.389375,251.341072 C485.112259,251.169912 478.270253,250.588094 470.185615,250.048282 C450.887184,248.759881 448.608814,248.646401 447.747372,248.933549 M360.188134,249.808157 C349.493464,250.47963 348.589389,250.788721 348.589389,253.774928 C348.589389,255.557372 348.894091,256.114112 350.124185,256.581824 C350.968072,256.902827 352.107257,257.850162 352.655219,258.686526 C353.585627,260.106588 353.396912,262.001886 349.831395,287.036366 C347.729201,301.79185 345.769954,314.312225 345.476537,314.860188 C345.183747,315.40815 344.353653,316.390595 343.632023,317.043259 C342.329202,318.221943 341.969954,320.157366 342.700362,322.060187 C343.017603,322.887773 344.316662,323.052036 350.537351,323.052036 L357.993777,323.052036 L357.993777,320.586833 C357.993777,318.563635 357.656473,317.881504 356.112899,316.782444 C353.960548,315.250156 353.881552,314.576802 354.953025,306.907837 L355.675909,301.735424 L361.412585,301.735424 L367.148635,301.735424 L368.242679,308.475235 L369.336095,315.215046 L367.427005,316.828212 C365.578102,318.389341 365.107256,320.000626 365.897851,322.060187 C366.223243,322.90909 367.762428,323.052036 376.556157,323.052036 L386.833899,323.052036 L386.833899,320.417554 C386.833899,318.357366 386.433272,317.366143 384.998163,315.8721 C383.18437,313.984326 383.11227,313.624451 379.032646,286.12226 C375.279669,260.823203 374.988759,258.152983 375.838916,256.855178 C376.354277,256.068971 377.557411,255.336683 378.512897,255.226965 C380.107881,255.043266 380.266502,254.782451 380.44205,252.048909 L380.633273,249.070853 L374.799418,249.16427 C371.590641,249.21568 365.01572,249.505335 360.188134,249.808157 M334.184375,252.187467 C332.144877,252.428219 331.195661,252.885899 330.712902,253.860194 C330.080927,255.134175 329.954281,255.152357 328.190018,254.222576 C327.168075,253.684018 324.216351,253.122263 321.630144,252.974928 C317.252715,252.724771 316.6477,252.852044 312.874659,254.815053 C309.700992,256.465836 308.408202,257.591855 306.918547,260.001259 L305.015726,263.078375 L305.015726,288.519751 C305.015726,302.512226 305.234535,314.7442 305.501619,315.70094 C305.769331,316.658306 306.999425,318.561128 308.236415,319.929153 C312.037042,324.136676 319.679674,325.480249 326.467134,323.135422 C328.374971,322.476488 329.969328,322.237616 330.29472,322.563008 C330.601303,322.869591 332.51541,323.034481 334.548011,322.929152 L338.244563,322.738557 L338.398168,315.215046 C338.593152,305.688402 338.712274,305.236991 341.372462,303.974922 C343.513528,302.959248 343.573716,302.831349 343.573716,299.323512 C343.573716,297.339813 343.262744,295.405644 342.882807,295.025707 C342.023873,294.166773 324.830144,294.702823 323.667762,295.624453 C323.233906,295.96928 322.884063,297.605017 322.884063,299.292164 C322.884063,302.018183 323.048953,302.379938 324.450207,302.731662 C325.311649,302.947963 326.446445,302.959248 326.971837,302.757994 C328.260865,302.263324 330.407573,304.51348 330.407573,306.359248 C330.407573,311.642633 327.972463,314.901567 324.023875,314.901567 C322.257731,314.901567 321.142997,314.471473 320.034533,313.362382 L318.495348,311.823824 L318.495348,288.556742 C318.495348,273.088405 318.722308,264.865208 319.172464,264.023829 C319.545505,263.327278 320.815097,262.354864 321.993781,261.862074 C326.052087,260.166149 330.407573,263.327278 330.407573,267.968029 C330.407573,271.775553 330.832024,272.268342 334.111021,272.268342 C335.729202,272.268342 337.391898,271.929785 337.805691,271.515991 C338.884061,270.437622 338.855848,253.200633 337.774343,252.420696 C337.343622,252.109724 335.727949,252.004395 334.184375,252.187467 M497.430126,253.400006 C496.01696,254.042012 494.183104,255.517247 493.354891,256.677749 C491.902854,258.714112 491.849562,259.179316 491.849562,269.810663 L491.849562,280.832605 L493.734201,283.879627 C495.13044,286.137307 497.405674,288.194987 502.51163,291.81693 C506.302852,294.506585 509.757397,297.186835 510.188118,297.773669 C510.681535,298.445142 510.971817,300.987462 510.971817,304.64138 C510.971817,309.758621 510.805673,310.634483 509.561159,312.066457 C508.733573,313.019435 507.214451,313.838871 505.885297,314.050156 C503.974326,314.354231 503.289059,314.114733 501.496583,312.51536 L499.373072,310.62069 L499.059593,302.886521 L498.746113,295.152353 L495.141098,294.964265 L491.536083,294.776177 L491.536083,308.914107 L491.536083,323.052036 L495.004421,323.052036 C497.93232,323.052036 498.547367,322.850782 498.949875,321.762381 L499.426991,320.473353 L501.021975,321.727898 C505.915391,325.576801 515.896582,324.867083 520.907239,320.314105 C524.179339,317.341065 524.764924,315.045141 524.764924,305.188715 C524.764924,292.244516 524.253321,291.264579 513.446425,283.516617 C504.916645,277.401884 505.05583,277.608154 504.799404,270.667089 C504.593761,265.082763 504.658338,264.731666 506.181849,263.208155 C508.109122,261.280883 510.41257,261.161761 513.141096,262.848281 C515.576832,264.35361 516.719152,266.561133 517.195014,270.68339 C517.552381,273.779941 517.572444,273.803766 520.271503,274.335427 C524.802537,275.228217 524.764924,275.305333 524.764924,265.114738 C524.764924,260.12477 524.553634,255.919755 524.2947,255.770539 C524.035766,255.621949 522.463352,255.302827 520.799402,255.061448 C518.131064,254.674614 517.737334,254.765523 517.457083,255.83825 C517.160531,256.971165 516.819466,256.889034 512.453949,254.6301 C508.475266,252.571166 507.184357,252.20753 503.884671,252.219163 C501.460846,252.228219 499.033261,252.672106 497.430126,253.400006 M360.842052,265.438876 C360.608197,266.084644 356.740486,292.475237 356.739859,293.428215 C356.739859,293.514735 358.878416,293.584955 361.491582,293.584955 L366.243933,293.584955 L365.900986,291.860817 C365.712898,290.912228 364.685939,284.500316 363.619482,277.611916 C362.553024,270.723515 361.562429,264.969911 361.418855,264.826337 C361.275281,264.682763 361.01572,264.958625 360.842052,265.438876 M237.330467,266.480882 C231.838304,267.764268 229.319809,275.404392 232.961815,279.732292 C235.194417,282.38621 238.10915,283.085269 245.87592,282.830724 L252.510402,282.613169 L255.14175,279.89969 C258.286577,276.657684 264.140495,273.745458 268.643943,273.182449 C274.850839,272.4069 283.465258,275.78433 287.494098,280.572417 C290.87717,284.593733 292.368078,288.539187 292.647702,294.211914 C292.863376,298.588089 292.667765,300.184954 291.551778,303.144201 C289.767452,307.876489 285.01322,313.063949 280.369961,315.3442 C277.224506,316.889027 276.098488,317.095924 270.846451,317.095297 C265.492219,317.09467 264.519806,316.907209 261.225762,315.240125 C259.205073,314.217554 256.3499,312.038244 254.860245,310.381818 L252.159305,307.378057 L195.828904,307.380565 C141.822013,307.382445 139.418878,307.431348 137.567468,308.560502 C135.53612,309.799373 133.54239,313.229467 133.54239,315.48652 C133.54239,322.5605 142.490351,326.305954 147.477185,321.319121 C148.986275,319.81003 149.297874,319.07398 148.974363,317.784325 C148.657122,316.520375 148.181887,316.159874 146.85336,316.175548 C145.911668,316.186206 144.593172,316.609404 143.924207,317.115987 C142.246464,318.384952 140.606966,318.267711 139.833925,316.823824 C138.994427,315.255172 139.004458,315.171786 140.169975,314.005642 C141.050226,313.125391 146.838313,313.020689 194.47091,313.020689 L247.786892,313.020689 L251.322942,316.258307 C257.882189,322.263322 267.212595,325.183697 275.319177,323.769278 C290.87905,321.05329 301.755538,306.043261 299.154912,290.875237 C296.721056,276.68527 284.995665,266.658939 270.803817,266.633233 C263.729837,266.620067 257.101625,269.168029 252.105387,273.82132 C249.332346,276.403765 249.011343,276.529784 244.104134,276.957997 C239.436423,277.364894 238.878429,277.290913 237.691595,276.104079 C235.217614,273.630098 238.168711,270.727904 240.941125,272.909095 C242.854604,274.414424 245.659619,274.5348 246.196297,273.135427 C247.554917,269.594989 241.963695,265.398124 237.330467,266.480882 M590.711621,266.665208 C587.650806,267.321635 585.479019,269.608155 585.707233,271.935427 C585.859584,273.487778 586.210054,273.872104 587.621966,274.034487 C588.663345,274.154236 589.998141,273.723515 590.980586,272.951101 C592.98184,271.376807 594.984348,272.132919 594.984348,274.4627 C594.984348,276.883389 593.13858,277.430097 586.673377,276.924141 C581.119772,276.489659 580.853942,276.396869 577.600023,273.746085 C571.48341,268.764268 565.801279,266.6464 558.519775,266.633233 C550.68592,266.61944 543.665858,269.711603 538.048303,275.650787 C524.685295,289.780566 528.852066,312.661442 546.337331,321.167397 C556.987486,326.347961 569.617579,324.377428 578.282782,316.182444 L581.633252,313.013793 L636.986224,313.174294 C688.921642,313.324138 692.382456,313.40188 693.031986,314.431347 C694.489039,316.741065 690.8044,319.236363 689.053303,317.126018 C688.01694,315.877115 684.714746,315.85768 684.238884,317.097178 C682.447661,321.764262 690.699071,325.668964 695.56929,322.458933 C698.088412,320.797491 699.011296,318.892789 699.038582,315.297805 C699.057064,312.575548 698.796876,311.983699 696.625716,309.811912 L694.191234,307.378057 L636.023842,307.378057 L577.85645,307.378057 L574.212563,310.853918 C568.916639,315.904702 565.943598,317.095297 558.620715,317.09467 C553.277769,317.09467 552.290935,316.905328 549.034509,315.257053 C544.612566,313.018808 540.88404,309.100941 538.658335,304.352979 C537.239526,301.326647 536.990623,299.952352 536.990623,295.152353 C536.990623,290.251413 537.219463,289.043262 538.732943,285.961131 C541.11288,281.114737 544.772441,277.539188 549.7436,275.201885 C553.302847,273.529157 554.611938,273.245772 558.620715,273.278374 C564.999398,273.331038 569.448927,275.109722 573.785604,279.338561 L577.116011,282.58621 L585.384349,282.804392 C592.267106,282.985583 594.03952,282.838874 595.959896,281.927276 C600.166792,279.931038 601.87651,274.621947 599.680272,270.374926 C598.186855,267.487152 594.325413,265.88966 590.711621,266.665208 M266.571843,290.763638 L264.709147,292.331036 L217.294105,292.331036 L169.879063,292.331036 L169.131728,293.971788 C168.47154,295.420691 168.554925,295.751726 169.841446,296.793105 C171.239565,297.925393 173.210724,297.973669 218.317303,297.973669 L265.336106,297.973669 L267.198802,299.541067 C270.344883,302.188089 274.418864,301.273355 276.200055,297.520377 C279.045196,291.524767 271.751153,286.405645 266.571843,290.763638 M554.517267,290.735425 C553.062722,292.189344 552.695951,293.508466 552.939211,296.406271 C553.0878,298.178685 556.458333,301.108465 558.347988,301.108465 C560.204414,301.108465 563.636389,299.470221 563.636389,298.584327 C563.636389,298.193105 581.189992,297.973669 612.469612,297.973669 C659.352993,297.973669 661.361143,297.926647 662.760516,296.793105 C664.047036,295.751726 664.130422,295.420691 663.470234,293.971788 L662.722898,292.331036 L613.740458,292.331036 L564.758018,292.331036 L562.895323,290.763638 C560.353003,288.624454 556.640151,288.611914 554.517267,290.735425" id="Shape"></path>
        </g>
    </g>
</svg>