<?xml version="1.0" encoding="UTF-8"?>
<svg width="800px" height="400px" viewBox="0 0 800 400" version="1.1" xmlns="http://www.w3.org/2000/svg" xmlns:xlink="http://www.w3.org/1999/xlink">
    <title>lucasarts_2</title>
    <g id="Page-1" stroke="none" stroke-width="1" fill="none" fill-rule="evenodd">
        <g id="Manufacturer" fill="#000000" fill-rule="nonzero">
            <g id="lucasarts_2">
                <line x1="0" y1="0" x2="800" y2="400" id="Path"></line>
                <path d="M327.944248,54.8192963 L327.944248,320.582843 L555.55949,320.582843 L555.55949,400 L244.44051,400 L244.44051,54.8192963 L327.944248,54.8192963 Z M524.550253,352.09856 C519.630968,352.09856 513.032866,356.956993 513.032866,361.925186 C513.032866,364.696834 514.610889,367.503556 516.289722,370.470079 C517.802933,373.197732 519.248958,376.040133 519.248958,378.740271 C519.248958,378.954196 518.947755,379.875357 518.334146,379.875357 C516.982127,379.875357 516.237715,379.174168 515.483702,378.038175 C514.278089,376.21339 513.310469,374.758097 511.390832,374.758097 C509.163596,374.758097 507.552781,376.463749 507.552781,378.817072 C507.552781,382.454699 511.138431,384.627508 514.608093,384.627508 C520.390983,384.627508 527.376297,379.784193 527.376297,373.771322 C527.376297,371.025987 525.911992,368.424864 524.387252,365.908268 L523.989045,365.253643 C523.95875,365.20945 523.862348,365.053503 523.755173,364.878304 L523.624931,364.664743 C523.496601,364.453782 523.384629,364.26838 523.384629,364.26838 C522.011413,362.059135 520.720987,359.96237 520.720987,358.271534 C520.720987,357.511534 521.089799,357.142647 521.843811,357.142647 C522.854624,357.142647 523.345835,357.628702 524.411044,358.921925 C525.341064,360.002736 526.003475,360.648744 527.550702,360.648744 C529.601522,360.648744 531.023947,359.162307 531.023947,357.029108 C531.023146,353.941789 528.608715,352.09856 524.550253,352.09856 Z M475.159066,343.614594 C472.495409,343.614594 471.580204,344.282976 470.716992,346.876227 L468.821755,352.574334 C468.769294,352.701328 468.687353,352.934 468.60136,353.14475 C468.181075,353.168835 467.436028,353.211996 466.673059,353.256297 L466.256961,353.280466 C465.152463,353.344643 464.128081,353.404332 464.128081,353.404332 C462.43085,353.404332 462.036442,356.708901 462.036442,356.742917 C462.036442,357.639284 462.54646,358.604138 463.971682,358.604138 L464.023686,358.600008 C464.1923,358.586621 464.746968,358.542592 465.332856,358.496189 L465.685297,358.468289 C466.211062,358.42669 466.704632,358.387748 466.907333,358.372071 C466.844319,358.539165 465.501396,362.308182 464.06031,366.355585 L463.8539,366.93532 C463.78496,367.128957 463.715924,367.322867 463.646921,367.51669 L463.382835,368.258506 C461.89027,372.451243 460.490031,376.386797 460.490031,376.386797 C459.311601,379.816849 458.893201,381.294063 458.893201,382.030024 C458.893201,383.006065 459.302001,384.626904 462.076445,384.626904 C468.546949,384.626904 478.345516,375.052754 478.345516,371.140729 C478.345516,370.157885 477.283497,369.419051 476.325477,369.419051 C475.165461,369.419051 474.558656,370.340666 473.792639,371.510221 L472.709817,373.09145 C471.180188,375.214671 470.112182,376.023503 469.494975,376.270386 C469.539952,376.058351 469.58474,375.839675 469.621688,375.656705 L469.661773,375.456989 C469.691225,375.309357 469.709777,375.214369 469.709777,375.214369 C469.709777,375.2067 471.385331,370.877313 473.036602,366.612533 L473.319122,365.88288 C474.821244,362.003498 476.221871,358.387643 476.221871,358.387643 C476.221871,358.387643 476.431472,357.953595 476.447074,357.916404 C476.486684,357.916404 476.717889,357.877096 476.717889,357.877096 L476.770418,357.87354 C477.246532,357.842257 480.807417,357.614336 481.312448,357.582014 L481.371953,357.578206 C482.007967,357.511686 483.384387,357.063124 483.384387,354.178996 C483.385131,352.650207 481.816569,352.541007 480.968917,352.533207 L480.787144,352.532607 L477.708292,352.532003 C477.720387,352.497231 477.921098,351.902777 477.921098,351.902777 C477.913264,351.91927 478.104952,351.399936 478.316396,350.828482 L478.444195,350.483226 C478.656352,349.910273 478.852313,349.381943 478.852313,349.381943 C478.852313,349.381943 479.881132,345.845004 479.881132,345.845004 C479.881132,343.99695 478.156263,343.680141 476.307958,343.625831 L475.924314,343.617923 C475.796196,343.616259 475.668016,343.615426 475.540299,343.61501 L475.159066,343.614594 Z M435.001623,352.097955 C431.587098,352.097955 428.927462,355.821605 425.917006,361.491743 C426.285818,359.825247 426.566218,358.158449 426.566218,356.444028 C426.566218,352.662777 424.200982,352.097955 422.796563,352.097955 C417.02687,352.097955 409.747958,363.703407 409.747958,365.58413 C409.747958,366.477775 410.364364,367.381399 411.758382,367.381399 C412.703596,367.381399 413.226404,366.550948 414.099625,365.178202 L416.007651,362.425301 C415.995557,362.425301 416.697668,361.57051 416.697668,361.57051 C417.166866,360.978475 417.780082,360.258085 418.198089,359.950427 C418.057337,360.700902 417.612873,363.065715 417.612873,363.065715 L414.252819,373.905875 C412.498268,379.544548 412.151268,380.663723 412.091361,381.41933 L412.085287,381.512188 C412.081336,381.588492 412.079994,381.662731 412.079994,381.739601 C412.079994,384.061875 414.684598,384.1841 416.753884,384.190533 L417.09327,384.19089 C418.976503,384.19089 419.83651,382.383643 421.912547,378.019125 L426.136222,369.554209 L426.511822,368.85181 C428.959675,364.198176 430.496535,361.724198 431.471987,360.408624 L431.625302,360.20528 C432.046067,359.656995 432.352305,359.3416 432.577925,359.16004 C432.596369,359.294593 432.630385,359.439729 432.630385,359.439729 C432.630385,361.75329 433.9276,363.133747 436.100833,363.133747 C438.877273,363.133747 440.748502,361.149312 440.748502,358.19443 C440.748109,354.43238 438.54727,352.097955 435.001623,352.097955 Z M375.118193,334.400563 C373.394172,334.400563 372.585355,335.508889 368.722102,340.830549 L367.040065,343.131411 C367.040065,343.131411 364.340532,347.060189 361.411627,351.322784 L361.052007,351.846158 L360.591763,352.515977 L360.233687,353.037104 C360.174063,353.123879 360.114479,353.210594 360.054957,353.29722 L359.698724,353.815664 C356.798188,358.036973 354.14346,361.900543 354.14346,361.900543 L345.311319,374.947076 C343.407299,377.759997 342.329269,378.508355 340.254442,379.198055 C339.476436,379.451589 337.947608,379.955182 337.947608,381.669603 C337.947608,383.006821 338.868815,383.900467 340.24844,383.900467 L346.321739,383.61095 L353.484255,383.900467 C355.110672,383.900467 355.931493,383.220443 355.931493,381.889272 C355.931493,380.180899 354.332273,379.722813 352.483042,379.186413 C352.483042,379.186413 350.490201,378.490062 350.340998,378.435636 C350.404512,378.032403 350.927323,377.051331 351.660227,375.817776 L351.927217,375.37245 C352.385387,374.614533 352.906109,373.782496 353.43866,372.942563 L353.782994,372.400836 C354.12796,371.85933 354.473313,371.320451 354.805478,370.801927 L354.828923,370.765999 C354.975189,370.541865 355.78454,369.301625 356.655176,367.967403 L356.931449,367.544021 C357.716017,366.341682 358.498934,365.141812 358.849138,364.604914 L370.354522,364.604914 C370.46943,365.283873 370.812668,367.337908 371.170465,369.481963 L371.317107,370.36084 C371.398423,370.848274 371.478986,371.331307 371.556286,371.794852 L371.69136,372.604929 C371.966786,374.256903 372.17335,375.49678 372.17335,375.49678 C372.17335,375.49678 372.567365,378.103184 372.58856,378.251948 C372.295355,378.713965 370.329728,379.143629 369.573311,379.308872 L368.864895,379.46444 L368.590899,379.53039 C367.397727,379.823624 366.16125,380.2454 366.16125,382.031234 C366.16125,383.172821 366.896471,383.901223 368.031693,383.901223 L376.21382,383.611706 L385.012354,383.840447 L386.675584,383.901223 C388.378818,383.901223 388.982826,383.012868 388.982826,382.246821 C388.982826,380.772782 387.875603,380.363982 385.192761,379.381591 L384.728355,379.209998 C384.249542,379.038858 383.587131,378.275986 383.251534,376.683117 C382.986956,375.371207 381.824479,368.901459 380.599899,361.651323 L380.455595,360.79503 C380.287023,359.792436 380.117899,358.778375 379.950384,357.764165 L379.782088,356.741812 L379.6323,355.825818 L379.484144,354.913689 C378.379996,348.091893 377.443717,341.753858 377.352232,339.444952 C377.227052,336.512597 377.138625,334.400563 375.118193,334.400563 Z M277.809449,345.463115 L276.338615,345.463115 C267.622477,345.463115 264.494837,350.548021 264.494837,359.617672 C264.494837,369.279811 268.504496,374.534799 277.461833,374.534799 C292.845678,374.534799 288.777617,356.604887 297.087752,356.604887 C298.973781,356.604887 300.801817,357.670882 300.801817,360.016948 C300.801817,362.153776 298.73857,363.151284 296.269743,363.151284 L295.256526,363.151284 L295.256526,373.409086 C304.274669,373.409086 308.229932,369.337865 308.229932,359.794859 C308.229932,350.548021 303.569458,345.997851 295.082514,345.997851 C286.735696,345.997851 284.356027,351.396369 282.418047,356.147065 L282.211845,356.653314 C280.776736,360.175847 279.479075,363.212514 275.987809,363.212514 C273.682971,363.212514 271.922544,361.918988 271.922544,359.669679 C271.922544,357.554924 273.219366,356.083606 276.817428,356.083606 L277.809449,356.083606 L277.809449,345.463115 Z M367.950477,349.635175 C368.478092,352.839661 369.332899,358.134108 369.619709,359.843238 L361.595976,359.843238 C362.954406,357.665288 366.189249,352.462005 367.950477,349.635175 Z M265.321237,277.621929 L265.321237,289.295413 L272.688168,290.419009 L272.688168,299.13746 L265.321237,300.254404 L265.321237,311.924563 L307.399511,301.676436 L307.399511,287.882603 L265.321237,277.621929 Z M370.81702,52.5267139 L371.045027,52.7561133 C371.657218,53.3663632 372.307444,53.9398396 373.10777,53.8784812 C374.331389,56.5784678 377.617832,56.818396 378.673848,59.440523 C378.09985,62.4729621 378.09985,66.157758 380.481081,68.4510609 C383.017124,69.017092 383.175534,72.3011004 385.714767,72.8675851 C386.697581,74.5015766 388.418412,75.9831751 388.662816,77.939641 C391.280861,79.3432288 391.445666,82.1231914 393.582101,83.8448693 C395.703327,85.5524872 396.850552,88.3462075 399.139788,89.8965945 C400.201792,92.4382919 402.987847,93.4138791 404.221067,95.9542158 C406.9219,96.7786196 406.510696,101.523968 409.95195,99.7174761 C410.286558,99.9328811 410.676801,100.08546 411.069701,100.232301 L411.405887,100.358091 C412.2418,100.67571 413.020405,101.041881 413.220402,102.018338 C413.14481,103.16567 415.528052,103.857183 415.280444,105.009202 C418.220086,107.438116 416.302459,107.056831 419.610914,108.0684 C421.110415,107.351345 422.097968,106.001755 423.023497,104.67566 L423.286635,104.297982 C424.68518,102.293153 426.039204,100.487957 428.940661,101.20361 C430.011872,101.856723 429.514266,103.972839 431.234689,103.647643 C436.233981,103.25124 441.636463,103.812433 446.13694,102.503637 C448.013369,101.769944 446.711739,99.4758848 447.284559,98.0827286 C445.973737,95.8743154 446.689345,93.9520925 447.497355,91.9681489 L447.708965,91.4489696 C448.448033,89.6253403 449.123931,87.7250371 448.264561,85.4832452 C448.211278,85.0641965 448.106806,84.6237062 447.994059,84.1740076 L447.896392,83.786582 C447.505628,82.2301419 447.16171,80.6065458 448.594171,79.4088425 C448.264561,78.0312582 450.232592,77.6127822 450.232592,76.468323 C449.902589,74.6734722 451.709428,73.3615016 450.562202,71.7226723 C452.039432,69.2691149 452.359427,66.4029777 453.843459,64.0293964 C456.131501,63.2069581 458.829537,62.4729621 461.200382,63.042168 C465.537641,66.6442666 470.04811,69.6750426 474.308991,72.7067258 C475.810203,73.4576584 475.615084,74.5452809 475.416244,75.6696675 L475.358173,76.0077865 C475.22118,76.8543417 475.177302,77.7047059 475.940609,78.4323481 C474.952594,80.4748375 476.595022,82.4512596 475.281797,84.4945049 C475.940609,85.4829428 474.875793,86.5421345 474.952988,87.7677794 C473.484572,90.3093255 475.531809,93.2566483 472.175353,94.9746978 C471.865954,95.7060805 471.239679,96.2634952 470.566515,96.8055232 L470.227275,97.0759891 C469.035011,98.0232712 467.836958,99.0043736 468.080079,100.869192 C466.364463,102.096802 466.272861,104.142013 464.963642,105.616052 C464.811627,107.011627 466.364463,107.422847 467.262871,107.907692 C471.516934,107.578112 476.268209,111.437374 480.363876,107.907692 C481.342699,108.237272 482.811522,107.835124 483.308734,108.894921 L485.895968,108.846542 C490.38884,108.364569 487.505196,107.677742 490.886446,107.946546 C492.119665,107.861884 492.644483,107.742146 493.12889,106.767315 C497.960564,106.361236 502.955849,105.204833 507.371119,103.326076 C508.449133,103.076018 509.184338,101.924 510.164763,101.522456 C513.108806,101.03247 515.233645,98.3303672 517.864087,97.4235685 C521.220935,93.5771573 525.6426,92.3566528 528.984663,88.5938461 C531.774301,87.027736 534.071943,84.409691 537.019991,83.341277 C539.959241,82.860967 539.638822,79.5040881 542.262476,78.7657078 C543.319295,77.1312627 544.951321,76.3119992 546.520137,75.6616077 C548.079761,78.7657078 543.160884,80.7324542 542.745281,83.8436599 C544.470104,86.8705052 540.947648,87.2690249 539.958833,89.5777485 C538.075207,92.7578938 535.961177,96.4523655 532.759519,98.5792153 C531.358698,97.4235685 530.149879,99.4743729 528.82586,98.5792153 C527.031432,98.9012362 526.13062,101.278446 524.907787,102.502428 C523.01816,104.390105 520.967733,106.019259 518.514493,106.767315 C514.33563,109.46972 508.849542,109.132127 504.265068,111.015421 C501.655414,111.015421 499.687383,112.738157 497.224951,113.311747 C495.258915,112.331776 493.952493,113.644653 491.82206,113.48455 C491.163656,114.207812 490.196036,114.709892 489.20722,114.294289 C488.497292,114.884376 487.670875,115.294224 486.83935,115.687709 L486.285465,115.949407 C484.997006,116.562771 483.756077,117.224661 482.981921,118.551919 C480.851896,120.599549 476.103419,120.112284 476.432212,124.281623 C476.346189,130.833615 477.250629,137.466641 477.577035,143.437936 C479.460267,154.419605 481.501895,165.300585 484.11994,176.017229 C485.596761,177.174085 483.881932,179.47525 485.764363,180.614418 C485.276358,181.104555 485.438759,182.657663 486.093973,183.396194 C486.499977,184.626526 486.661985,186.191729 487.235197,187.488581 C486.576385,189.455781 488.554016,190.688683 488.062005,192.731474 C488.878018,193.956666 488.468809,195.6791 489.036821,196.988802 C489.121481,197.525975 489.264924,198.095119 489.423,198.680972 L489.561048,199.186867 C490.142596,201.308847 490.749881,203.588328 489.371632,205.330051 C490.757652,207.056567 488.712411,209.598869 490.672052,211.072606 C489.713468,211.983314 489.824306,213.233844 489.981215,214.507251 L490.036842,214.957123 C490.127187,215.706771 490.191815,216.451434 490.022432,217.126599 L490.196036,217.616736 C489.20722,222.279991 490.196036,228.596439 489.371632,233.176544 C489.692837,235.630554 490.431247,238.420193 490.196036,240.876623 C491.746468,242.256626 490.022432,243.819108 491.002056,245.463531 C491.420864,249.226337 491.246459,253.395979 489.86003,257.078961 C489.768413,258.71779 490.843252,259.858923 490.672445,261.504556 C491.329859,262.036797 491.372561,262.814032 491.35316,263.62275 L491.340843,264.028745 C491.320217,264.70648 491.320424,265.381367 491.661261,265.929849 C492.472875,270.997974 493.544086,276.405204 493.300892,281.472119 C493.709299,283.693308 494.036097,286.064621 493.621295,288.356563 C494.197304,290.071438 493.300892,292.452276 493.788897,294.252721 C493.799585,294.678979 493.818653,295.105349 493.841192,295.531118 L493.889447,296.381648 C494.039374,298.929574 494.19652,301.438868 493.300892,303.756117 C491.987666,303.506059 491.08885,303.988032 490.196444,304.891656 L487.06879,304.403182 C486.012773,300.795188 485.109557,296.297175 485.935563,292.775507 C485.521562,291.546233 484.758358,288.789855 485.573569,287.800964 C486.232382,282.155318 484.725158,278.673259 483.800338,272.956708 C484.865547,267.720618 483.958733,261.832624 483.308734,256.905251 C483.479526,255.854525 484.28795,254.62888 483.479526,253.642862 C482.490711,251.838486 484.03434,249.873554 482.721916,250.285227 C482.634366,249.904027 482.647177,249.722953 482.679468,249.554656 L482.702993,249.442294 C482.760475,249.174938 482.8216,248.837753 482.58192,247.725539 C484.205948,244.758713 482.322716,246.113922 483.637528,244.465871 C482.735114,237.264244 482.811522,228.921181 481.672702,222.041121 C482.404717,220.070293 481.093488,218.518696 481.501895,216.475451 C480.763484,214.43024 480.363483,212.546947 480.363483,210.411027 C480.101259,209.916627 479.949352,209.350422 479.805768,208.775632 L479.710159,208.391861 C479.388109,207.11301 478.995228,205.861144 477.412229,205.330051 C474.552593,205.41169 472.007751,205.015287 469.556915,206.31486 C468.524445,205.708393 467.740331,206.026344 466.982084,206.43868 L466.496013,206.708589 C465.792733,207.093643 465.070648,207.406718 464.15162,206.983243 C460.297559,207.71618 456.946304,208.708549 453.019449,208.772197 C451.212216,207.71618 449.081783,209.430904 447.284559,207.960946 C444.827706,207.21924 442.044462,206.657291 439.426432,206.657291 C438.443619,206.983243 437.045186,206.315314 435.821975,206.315314 L435.162362,205.995258 C434.094449,206.08021 432.979775,206.076343 431.850948,206.049864 L431.285506,206.035047 C430.719186,206.018959 430.150687,205.999977 429.584084,205.986376 L429.018264,205.974876 C424.593321,205.903648 420.368093,206.331933 418.301695,211.237698 C416.092858,216.066651 414.612031,221.308335 414.209626,226.958063 C414.697631,228.248414 413.302011,229.173657 413.059603,230.385242 C411.673583,232.438163 412.569995,235.463799 409.951557,237.105047 C408.474328,239.393361 408.386732,242.257079 406.509894,244.465871 C404.137855,254.707647 401.189822,264.687876 396.682542,274.117192 C397.009356,275.832823 395.870929,277.46878 396.029339,279.351317 C395.373716,282.298942 394.222907,285.161753 392.590473,287.539719 C392.99888,289.583871 390.78965,290.56097 390.301645,292.285067 C389.383901,293.70592 388.92841,295.453898 388.561413,297.26175 L388.458642,297.779677 C388.391303,298.125741 388.325883,298.473053 388.259799,298.819767 L388.159853,299.339158 C387.384829,303.314183 386.351225,307.087988 381.130702,307.851678 C379.983884,307.924247 379.33387,306.539708 378.503449,305.709257 C378.015051,302.609239 380.310289,300.475586 379.653865,297.521157 L379.895079,295.079846 C380.016551,294.957758 380.1302,294.844219 380.236706,294.737866 L380.535478,294.439002 C381.789652,293.178854 381.866167,292.979858 382.440314,290.487495 C384.491148,288.271749 386.450381,285.495415 387.023986,282.461313 C387.439197,280.822937 388.418806,279.42449 389.318831,278.04237 C390.048035,275.173663 391.610864,272.723129 392.434875,270.015886 C392.511676,267.146725 392.346433,264.443866 391.934866,261.83338 C391.934866,260.845396 392.679278,259.859377 391.934866,259.054476 C392.22527,258.495165 392.418354,257.862695 392.601939,257.222188 L392.723885,256.794708 C393.172929,255.228155 393.681826,253.700059 395.533321,253.161644 C396.851339,249.551231 396.192541,245.205158 397.998958,241.860676 C398.978173,239.815768 397.998958,236.85499 400.125792,235.464555 C400.618212,232.112514 403.566261,229.820874 406.022297,227.770826 C406.427892,224.411528 405.884267,222.737624 407.984327,218.862337 C407.675912,218.1359 407.919923,214.732608 409.390742,213.745077 C409.879155,211.618227 409.47359,211.269749 410.02916,207.348048 C410.273563,206.039253 410.115183,205.016496 409.622748,204.036525 C409.613772,203.25158 409.607559,202.463053 409.599709,201.672762 L409.586157,200.486228 C409.501463,194.153409 409.171238,187.765748 406.343094,182.253247 C406.593106,179.301993 407.331909,176.114742 407.00431,173.409162 L407.651511,172.580676 C407.740256,168.907522 408.805541,165.053854 408.962741,161.455383 C408.148724,159.985728 409.867559,159.166465 409.785558,157.862054 C410.11476,155.720841 409.867499,153.34847 410.59956,151.460792 C409.049143,149.417547 412.156387,147.943507 411.099569,145.739856 C412.079994,142.459476 412.079994,138.86146 411.746786,135.74209 C412.241987,134.766201 412.8152,133.372893 412.079994,132.304479 C413.794022,129.446052 411.262379,124.94033 414.860032,122.973584 C415.76925,119.621089 414.048827,117.408669 414.124026,114.216278 C412.570403,112.666193 411.203568,112.609802 409.650747,110.895834 C407.843514,110.318162 407.215105,109.10174 404.547064,108.567306 C404.38306,107.169765 403.158246,105.949261 401.92542,105.298869 C399.627794,102.917275 397.094956,100.54445 395.044121,98.2475187 C391.690069,97.6007556 392.590473,93.2566483 389.157216,92.3578622 C386.697989,89.4858289 384.155143,85.8970345 380.969495,83.8448693 C380.801484,82.8621765 380.151486,81.8776694 379.16267,81.5532295 C377.853436,81.9617274 376.376222,81.5532295 375.725815,80.2361187 C376.461822,76.7188341 373.26937,74.7551113 373.26937,71.5671044 C371.310138,71.6396725 371.310138,68.6119201 369.179705,68.4515144 C368.524097,67.5486464 367.864075,65.9931192 367.864075,64.5242201 C368.764902,63.7853862 370.162125,64.02985 370.641725,62.7174258 C371.056527,59.8577895 368.844092,58.0476692 368.352897,55.5100538 C367.043663,54.6148962 367.778884,53.0608808 368.026492,51.9076529 C369.128932,50.8511714 369.948149,51.6496973 370.81702,52.5267139 Z M280.94309,291.70936 L298.796171,294.713075 L298.796171,294.83387 L280.94309,297.837433 L280.94309,291.70936 Z M286.360782,215.085016 C270.686936,215.085016 264.494837,217.794679 264.494837,230.112054 C264.494036,237.132865 267.322876,244.021391 279.112666,244.021391 L282.231114,244.021391 L282.231114,233.422822 C274.281385,233.422822 271.922544,232.824891 271.922544,230.112054 C271.922544,226.801158 274.907144,226.406597 285.921418,226.396907 L286.360374,226.396719 C297.740562,226.396719 300.801817,226.757594 300.801817,230.112054 C300.801817,232.239206 299.382582,233.115314 294.612515,233.115314 L292.250469,233.115314 L292.250469,243.728246 L294.908517,243.728246 C303.047845,243.728246 308.229932,240.020622 308.229932,230.112054 C308.229932,218.743506 302.452635,215.085016 286.360782,215.085016 Z M307.399511,150.079882 L279.820281,150.079882 C268.028087,150.079882 264.494429,155.135156 264.494429,164.342233 C264.494429,173.52512 268.028087,178.603223 279.820281,178.603223 L307.399511,178.603223 L307.399511,167.638185 L277.049026,167.638185 C272.981373,167.638185 271.922151,166.393037 271.922151,164.342233 C271.922151,162.274496 272.981373,161.029348 277.049026,161.029348 L307.399511,161.029348 L307.399511,150.079882 Z M307.399511,90.2414441 L265.321237,90.2414441 L265.321237,114.706113 L274.281385,114.706113 L274.281385,101.211169 L307.399511,101.211169 L307.399511,90.2414441 Z M443.497579,1.45202582 L443.770209,1.58698993 C444.13267,1.76414 444.489762,1.9223718 444.827312,1.96916571 L445.486926,2.62122023 C446.061333,5.81799579 446.381736,9.17487469 446.466535,12.6112761 L445.486926,13.5962368 C445.398484,16.8714766 445.234525,20.3883076 446.466535,23.4134899 C446.295743,24.5603681 446.06094,26.1994998 447.284559,26.8544268 C450.391803,28.7419531 454.487063,28.331641 458.246332,28.6568368 L458.746341,28.331641 C458.326677,31.0702441 460.034532,31.0291608 461.853973,30.9565613 L462.1579,30.9446408 L462.46182,30.934964 C463.27042,30.9146639 464.056815,30.948455 464.644025,31.2776031 C465.124834,30.8692564 465.866843,30.5440607 466.437258,30.9496861 C467.014069,31.4396719 467.587674,31.934042 468.409296,31.7724268 C469.302503,31.0335929 469.227305,29.5600071 470.530129,29.480787 C472.580162,26.8547292 471.034129,22.7638543 473.813774,20.4702491 C473.890576,18.7521996 474.952594,17.359497 474.79299,15.5602619 C475.304199,15.2253354 475.664176,14.610497 475.992103,13.936482 L476.121848,13.6642432 L476.313762,13.2509169 L476.442376,12.9766323 C477.15511,11.4780468 477.981922,10.1916141 480.191874,11.467724 C481.916712,15.4762039 477.912647,18.5069799 478.229452,22.4379026 C476.667424,24.4823574 475.861404,27.1072057 475.776212,29.6464841 C474.8754,30.6256998 474.551792,31.8545194 474.466993,33.2428377 C478.721055,35.7804531 483.384734,37.2541901 488.214806,38.4830097 C488.878018,38.8121363 489.286818,39.6273178 490.195643,39.2981913 C492.278418,38.4519828 493.431381,36.7957418 494.483963,35.1011929 L494.813989,34.5656989 C496.073711,32.5149913 497.314279,30.5271865 500.007,29.9712263 C501.315811,30.8704659 501.402212,32.9180955 500.828607,34.387297 C500.666598,34.886505 500.421802,35.3713505 500.498603,36.0341391 C498.29217,36.5997166 498.698174,40.3629768 496.083334,40.6145462 C495.299358,41.1194532 495.11449,41.8715432 494.974003,42.6529696 L494.89844,43.0808023 C494.768725,43.7943412 494.592334,44.4993908 493.952493,45.0322799 C495.832929,48.3079732 499.272187,50.111895 502.144236,52.4008135 C504.02706,53.880749 506.731507,53.3836576 508.360736,55.3552419 C510.896764,56.0856095 513.356807,56.9004887 515.562847,58.4584348 C516.874863,58.6232249 517.939678,58.872073 519.164507,58.4584348 C523.354966,55.022487 525.963411,50.3559052 529.814675,46.9994799 C532.109913,45.8550206 534.154746,44.3014587 536.522779,43.5630784 C538.252802,44.5422941 537.185991,46.1767391 536.36638,47.3215008 C534.813558,49.7854898 531.457496,50.929949 530.464689,53.8812026 C528.175846,54.2868279 529.728667,57.154477 527.846644,57.9764618 C524.248189,57.3112543 522.854564,60.9153182 520.152914,62.5541476 C519.49451,65.4210407 522.609753,65.1758211 523.750568,67.1393926 C526.293022,67.2240554 527.681839,70.0019014 529.162258,71.3994419 C527.937445,73.9411392 529.162258,77.86798 526.21102,79.2532746 C524.334024,81.3325303 522.993062,80.0089871 521.649403,78.4883933 L521.418935,78.226388 C520.6115,77.3068004 519.792011,76.3822214 518.844104,76.1450926 C516.544859,75.0863544 514.988833,72.9451422 512.620392,72.3742732 C511.885187,71.1583042 510.572762,70.4155395 509.342748,69.9222277 C507.62872,65.9149573 505.903097,62.4744739 501.976226,60.0969618 C501.443818,60.3011352 501.217813,60.097302 501.013209,59.8424255 L500.890735,59.6862301 C500.724779,59.4774178 500.536039,59.2816291 500.178593,59.2816291 C498.454164,58.2136687 496.166137,58.2136687 495.588117,55.8435647 C495.018911,55.1860675 494.444504,54.6159545 493.620494,54.5320476 C491.534259,51.7892006 489.142321,49.6387662 486.707682,47.5502792 L484.877806,45.9872406 C483.048143,44.4192401 481.231446,42.8114884 479.538671,40.9401955 C474.552185,42.0037716 469.885709,40.5253479 465.629243,38.8118339 C463.820014,39.0529716 462.109993,37.5789323 460.541963,38.6473462 C459.07394,38.3145913 457.929527,38.3145913 456.785097,39.2977377 C455.307883,38.3145913 455.881489,36.1097308 454.160264,35.6957903 C451.135415,35.6957903 448.924174,37.8273268 445.806921,37.8273268 C429.108263,37.6625368 409.621554,36.353741 394.393714,43.3973813 C394.217158,43.604933 394.039647,43.8159109 393.86066,44.0283753 L393.500561,44.454711 C391.447087,46.8753296 389.159151,49.3207555 385.875566,48.9671334 C384.322745,46.6694462 383.501531,43.4814393 384.077949,40.9406491 C385.063953,39.5553545 385.469563,37.9896979 385.225568,36.1940912 C383.501531,33.7369055 383.016323,30.6256998 380.48028,28.6575927 C379.333069,25.4655038 376.949026,22.7647614 376.714223,19.1566155 C377.522631,17.6038095 379.247061,16.2950138 380.968285,16.872686 C383.174733,17.524287 382.521514,20.3110529 383.754733,21.7802543 C384.651947,24.6551602 386.69678,26.6095095 386.69678,29.8064363 C388.088409,31.9347979 388.417611,34.552087 390.300844,36.5189846 L392.922079,38.9769263 C393.346327,38.878143 393.784351,38.8092094 394.222778,38.744406 L394.660844,38.680027 C396.263946,38.442033 397.812533,38.1443083 398.647369,36.5189846 C402.009826,35.9420683 404.466664,33.1633152 407.817919,32.5928998 C408.961139,33.1636175 410.35756,32.9988275 410.765968,31.6083927 C410.909914,29.6231744 410.341116,27.7815429 409.733377,25.9477123 L409.452571,25.1013884 C409.127463,24.113503 408.821121,23.1218225 408.63874,22.1051477 C407.982724,20.6359462 408.062322,18.8318733 406.83831,17.6878676 C406.83831,15.5605643 405.037473,14.1669546 405.199073,11.9581633 C403.646252,9.99565003 403.157445,7.61813797 402.244629,5.40556714 C402.827835,4.42635148 403.316657,3.03757965 404.545869,2.6224297 C406.264297,2.04793232 408.061929,2.70860431 409.129935,3.93122544 C410.357167,4.5903856 409.783955,6.22437709 411.260776,6.71799129 C410.194766,8.59735364 412.645194,10.2396602 411.581179,12.1229534 C412.321994,13.4361334 412.408002,14.6601152 411.911183,16.2150377 C413.743357,18.8221274 414.410552,21.8880418 415.082486,24.9709644 L415.296197,25.944569 C415.548894,27.0798982 415.818948,28.2112234 416.164852,29.3164505 C416.397883,29.4710867 416.627773,29.6481603 416.856796,29.8349452 L417.131354,30.0629341 C418.503517,31.2180412 419.877231,32.5395034 421.743751,31.2785102 C423.454967,31.2785102 424.602193,29.2352649 426.32062,30.2908283 C428.042646,28.3323969 429.919075,31.2785102 431.725507,29.6460306 C433.279522,30.2908283 434.923552,28.9912547 436.150376,29.4812405 C437.704407,29.2352649 438.607214,27.9184565 439.587231,27.0272296 C438.814244,25.2530706 440.02102,24.1918981 441.163591,23.1590055 L441.435529,22.9113037 C441.883216,22.4982038 442.294468,22.0808644 442.53847,21.6154643 L442.370868,14.5805927 C440.734442,10.7293437 438.927617,5.64957735 441.061255,1.47434204 C441.757061,0.616855175 442.632465,1.02256236 443.497579,1.45202582 Z M517.695275,11.9569538 L518.844104,14.0801752 C519.990513,17.2774043 517.778078,19.155406 515.726851,21.1322817 C514.251428,21.2945017 513.043906,22.1514099 511.848135,23.0506683 L511.250043,23.5008067 C510.250902,24.2468523 509.230274,24.9468058 508.039924,25.2231566 C506.315102,26.3647434 504.02706,26.9424157 502.787839,28.8211733 C502.543436,28.412373 501.976226,28.8211733 501.655021,28.4959775 C501.731822,26.6079977 503.04145,24.8092162 502.787839,22.6014832 C503.290901,21.0100936 504.495823,20.7236859 505.710817,20.540894 L506.115238,20.482153 C507.323929,20.3075551 508.465824,20.103088 508.849134,18.6673856 C510.08196,17.8514482 511.885187,16.4581408 512.290797,14.9050325 C512.984591,14.7178443 513.530366,14.1305788 514.038998,13.4921079 L514.240733,13.2348156 C514.274112,13.191754 514.307393,13.1486716 514.340607,13.1056717 L514.539355,12.8494897 C515.399416,11.7508261 516.25892,10.8477072 517.695275,11.9569538 Z M482.322307,1.71220227e-07 C483.637135,-0.000453207994 484.865154,0.899542294 485.438759,1.96840979 C487.15959,4.18324837 484.11994,5.24878983 483.308326,7.03850035 C482.161115,7.12769863 480.363483,6.38130559 479.704277,5.07523115 C479.704277,3.20116022 480.763091,1.39754081 482.322307,1.71220227e-07 Z" id="Combined-Shape"></path>
            </g>
        </g>
    </g>
</svg>