<?xml version="1.0" encoding="UTF-8"?>
<svg width="800px" height="400px" viewBox="0 0 800 400" version="1.1" xmlns="http://www.w3.org/2000/svg" xmlns:xlink="http://www.w3.org/1999/xlink">
    <title>midway_3</title>
    <g id="Page-1" stroke="none" stroke-width="1" fill="none" fill-rule="evenodd">
        <g id="Manufacturer" fill="#000000" fill-rule="nonzero">
            <g id="midway_3">
                <line x1="0" y1="0" x2="800" y2="400" id="Path"></line>
                <path d="M0.0283852359,278.746473 C-0.286646251,278.117954 2.07454563,268.358155 5.38083198,257.182259 C8.68711832,245.847302 17.5018229,215.466839 25.0579458,189.495273 C32.4550086,163.522162 39.3810685,139.910243 40.1686472,137.23402 L41.8997762,132.039089 L69.2905286,132.039089 C94.791092,132.039089 96.8372524,132.196605 96.0496737,134.872828 C95.7346422,136.288925 94.9486078,154.23491 94.3185448,174.540543 C93.8459976,194.846175 93.0584189,212.949676 92.5874159,214.680805 C91.6423214,218.300578 102.660702,199.253528 124.068945,160.05836 L139.338706,132.039089 L166.255367,132.039089 L193.014512,132.039089 L192.070962,136.446441 C191.125868,140.225275 185.459934,159.585813 158.541729,252.459875 C154.449408,266.311995 150.514603,278.117954 149.569508,278.746473 C147.208316,280.32163 111.161919,280.32163 110.216825,278.746473 C109.429246,277.330375 125.642558,220.346739 128.318781,215.153352 C129.263876,213.420679 129.736423,211.68955 129.263876,211.374519 C128.948844,210.901971 120.606687,225.384154 110.846888,243.328595 C101.087089,261.27458 92.4299002,277.015344 91.4848057,278.117954 C90.3837398,279.534052 85.661356,280.006599 74.7989468,279.691567 L59.6882453,279.21902 L59.6882453,267.413061 C59.6882453,260.959548 60.1607925,243.958658 60.7893112,229.633991 C61.4193742,210.901971 61.4193742,205.708585 60.1607925,210.744456 C58.4281193,219.088157 41.5847447,277.015344 40.4836787,278.746473 C39.5385843,280.479146 1.13099544,280.32163 0.0283852359,278.746473 Z" id="Path"></path>
                <path d="M166.88543,278.746473 C166.570399,278.117954 169.089106,268.043124 172.393848,256.39468 C175.857651,244.746236 184.042292,216.726965 190.497349,194.217657 C197.108377,171.706804 203.876922,148.567432 205.608051,142.743982 L208.756821,132.039089 L231.581161,132.039089 C252.201825,132.039089 254.405501,132.35412 253.461951,134.557797 C252.516857,136.918988 246.063344,159.272326 219.302655,251.672296 C210.172919,283.311341 213.794236,280.006599 188.922192,280.006599 C177.273748,280.006599 167.356433,279.534052 166.88543,278.746473 Z" id="Path"></path>
                <path d="M228.432391,278.746473 C227.803872,277.960438 228.432391,274.181605 229.535001,270.404316 C230.793583,266.625482 235.515966,250.727202 239.923319,235.143953 C244.488187,219.560704 251.571762,194.846175 255.979115,180.050505 C260.230495,165.410807 265.110395,148.567432 266.841524,142.743982 L269.98875,132.039089 L302.730405,132.039089 C337.833252,132.039089 346.491985,133.456731 357.825397,140.697822 C365.852523,145.733693 369.788872,150.456077 374.35374,160.373392 C382.22335,177.05925 378.918608,202.244782 365.379976,229.633991 C353.57556,253.718457 332.482349,271.191894 308.397883,276.857828 C298.008021,279.21902 229.692517,280.950149 228.432391,278.746473 Z M303.675499,239.236274 C316.897556,233.255308 327.60245,216.884481 331.064708,197.049851 C333.583415,183.197732 331.064708,176.429187 321.777456,171.706804 C317.527619,169.503128 312.64772,168.244546 309.342978,168.559577 L303.833015,169.03058 L296.276892,195.003691 C292.027056,209.328358 287.304672,225.699186 285.573543,231.680151 L282.582288,242.227529 L289.980895,242.227529 C294.073216,242.227529 300.211697,240.811431 303.675499,239.236274 Z" id="Shape"></path>
                <path d="M384.111995,278.746473 C383.798508,278.117954 384.111995,267.255545 384.899574,254.821067 C385.687152,242.227529 387.260765,213.578195 388.676863,191.068886 C389.936989,168.559577 391.510602,146.048725 391.983149,141.168825 L392.928244,132.039089 L414.807489,132.039089 C436.530764,132.039089 436.688279,132.039089 436.688279,135.660407 C436.688279,137.549051 434.642119,155.335976 432.123411,175.328122 C429.604704,195.161207 427.716059,211.68955 427.873575,211.847066 C428.187062,212.162097 456.993912,146.048725 460.928717,135.817923 C462.503874,132.039089 462.66139,132.039089 483.597085,132.039089 C502.800108,132.039089 504.532781,132.196605 503.745202,134.872828 C503.430171,136.288925 502.642592,141.168825 502.171589,145.420206 C501.541526,149.827558 499.495366,166.511873 497.29169,182.8827 C495.088013,199.096012 493.35534,212.949676 493.35534,213.578195 C493.35534,214.208258 499.652881,200.828685 507.364976,183.98531 C514.921099,167.141936 523.422316,148.567432 526.096995,142.743982 L530.976895,132.039089 L552.385137,132.039089 L573.635864,132.039089 L538.06047,202.559814 C518.384901,241.282434 501.38401,274.496636 500.125429,276.542797 C498.077724,279.849083 497.134174,280.006599 477.45706,280.006599 C462.346359,280.006599 456.836396,279.534052 456.206333,277.960438 C455.892846,276.857828 457.308943,259.385935 459.512619,239.236274 C461.716296,218.930641 463.289909,202.244782 463.132393,201.929751 C462.818906,201.772235 454.947751,218.458094 445.502984,239.236274 C436.058216,259.856938 427.558543,277.487891 426.613449,278.431441 C424.724804,280.32163 385.372121,280.635118 384.111995,278.746473 Z" id="Path"></path>
                <path d="M515.393646,278.746473 C515.393646,277.960438 529.245766,254.663551 546.08914,227.115283 C563.090031,199.568559 583.080632,166.826904 590.636755,154.549942 L604.331359,132.039089 L627.47073,132.039089 L650.452586,132.039089 L651.397681,143.530017 C652.971294,164.780744 655.332486,277.645407 654.07236,278.903989 C653.443841,279.534052 643.369011,279.849083 631.720567,279.691567 L610.627356,279.21902 L610.154808,270.2468 L609.683805,261.27458 L589.849176,260.802032 L570.172062,260.329485 L565.607194,269.14419 C563.246002,274.024089 560.098776,278.431441 558.681134,279.061504 C554.746329,280.479146 515.393646,280.164115 515.393646,278.746473 Z M611.414934,207.282198 C611.414934,194.846175 610.784871,187.291597 609.997293,188.707694 C609.211258,189.966276 604.016327,199.411043 598.348849,209.64339 L587.960531,228.060377 L599.766491,228.060377 L611.414934,228.060377 L611.414934,207.282198 Z" id="Shape"></path>
                <path d="M665.878319,278.746473 C665.564832,278.117954 668.554543,265.839448 672.804379,251.514781 L680.360502,225.384154 L670.285671,181.466603 C664.777253,157.382137 660.212385,136.288925 660.212385,134.872828 C660.212385,132.35412 662.416061,132.039089 684.452823,132.039089 C702.398808,132.039089 708.85232,132.511636 709.482383,134.085249 C709.797415,135.030344 711.528544,144.947659 713.102157,156.123555 C714.67577,167.141936 716.250927,176.114156 716.879446,176.114156 C717.351993,176.114156 724.908116,166.198386 733.880337,154.077395 L749.936132,132.039089 L775.27918,132.039089 C789.1313,132.039089 800.308741,132.669152 799.993709,133.456731 C799.836193,134.085249 782.520272,155.335976 761.742092,180.679024 L724.120537,226.486764 L716.879446,251.357265 C712.944641,264.894353 709.167352,277.015344 708.537289,278.117954 C707.121191,280.32163 667.295961,280.950149 665.878319,278.746473 Z" id="Path"></path>
            </g>
        </g>
    </g>
</svg>