<?xml version="1.0" encoding="UTF-8"?>
<svg width="800px" height="400px" viewBox="0 0 800 400" version="1.1" xmlns="http://www.w3.org/2000/svg" xmlns:xlink="http://www.w3.org/1999/xlink">
    <title>midway_2</title>
    <g id="Page-1" stroke="none" stroke-width="1" fill="none" fill-rule="evenodd">
        <g id="Manufacturer" fill="#000000" fill-rule="nonzero">
            <g id="midway_2">
                <line x1="0" y1="0" x2="800" y2="400" id="Path"></line>
                <path d="M42.128,366.28 C-4.251,366.076 -1.804,366.382 1.661,359.858 C2.477,358.126 4.108,353.946 5.229,350.583 C6.248,347.117 7.675,343.753 8.287,343.04 C8.898,342.326 10.02,339.472 10.733,336.822 C11.447,334.172 13.383,328.259 14.912,323.774 C19.805,309.402 28.571,283.205 30.202,277.905 C31.12,275.153 32.139,271.891 32.649,270.77 C33.77,268.119 46.817,228.264 48.448,222.352 C49.162,219.803 51.2,213.891 52.933,209.1 C56.705,198.907 66.286,170.366 91.668,93.305 C101.861,62.42 110.831,36.325 111.442,35.408 C112.666,33.777 120.209,33.675 213.579,33.573 C299.814,33.471 314.492,33.675 314.390526,34.898 C314.288,36.427 309.701,50.494 303.789,67.924 C293.596,97.688 259.041,202.883 258.429,206.043 C258.021,207.979 256.594,212.362 255.371,215.726 C254.046,219.09 252.007,225.308 250.784,229.487 C249.459,233.666 248.134,237.54 247.624,238.151 C247.114,238.661 246.707,239.782 246.707,240.598 C246.707,241.515 245.585,245.185 244.26,248.854 C242.935,252.524 240.081,260.78 238.042,267.202 C236.004,273.624 233.965,279.842 233.557,280.963 C233.048,282.084 231.927,285.754 230.907,289.117 C229.888,292.481 228.053,297.986 226.728,301.349 C225.505,304.713 220.306,320.309 215.108,336.006 C209.909,351.704 205.424,364.853 205.016,365.261 C204.303,366.076 103.696,366.688 42.128,366.28 Z M189.115,291.156 C194.008,276.58 199.512,259.863 201.347,253.951 C203.284,248.039 208.992,231.118 214.088,216.236 C221.937,193.097 236.717,148.858 253.332,98.504 L257.715,85.253 L239.266,84.947 C222.651,84.743 220.612,84.845 219.185,86.476 C217.758,88.005 195.741,121.846 180.349,146.106 C175.864,153.242 173.723,154.771 173.927,150.489 C174.029,149.368 174.437,138.156 174.742,125.516 C175.15,112.876 175.66,98.504 175.966,93.407 L176.475,84.233 L156.191,83.927 L135.906,83.52 L128.975,104.824 C125.203,116.444 119.597,133.365 116.641,142.335 C102.982,184.127 97.885,200.436 98.191,201.965 C98.293,202.781 97.987,204.004 97.376,204.514 C96.764,205.125 94.929,209.712 93.4,214.707 C91.769,219.803 90.139,224.798 89.629,225.919 C89.221,227.041 83.105,245.388 76.174,266.692 C67.713,292.685 63.942,305.63 64.655,306.14 C65.471,306.752 65.471,306.956 64.655,306.956 C63.228,306.956 59.763,315.008 60.68,316.028 C61.088,316.333 67.102,316.639 74.237,316.639 L87.183,316.639 L88.915,311.543 C89.833,308.79 94.522,295.029 99.211,280.963 C104.001,266.998 108.384,255.378 109.098,255.174 C110.117,254.766 110.219,260.678 109.71,284.021 C109.098,307.975 109.2,313.173 110.321,312.46 C111.341,311.95 111.442,312.052 110.423,313.173 C107.161,316.537 108.792,317.149 120.82,317.149 L132.441,317.149 L136.824,310.014 C139.27,306.038 141.716,301.961 142.226,301.044 C148.954,289.423 174.641,248.854 175.354,248.854 C177.189,248.854 177.087,250.587 174.742,257.213 C173.417,261.188 172.602,264.756 172.806,265.163 C173.112,265.673 173.01,266.183 172.5,266.386 C172.092,266.488 168.219,277.395 163.836,290.341 C159.453,303.388 155.681,314.804 155.375,315.62 C154.866,316.843 156.802,317.149 167.403,317.353 C174.233,317.557 180.043,317.658 180.043,317.658 C180.145,317.658 184.222,305.732 189.115,291.156 Z" id="Shape"></path>
                <path d="M136.62,267.202 C136.212,261.901 136.722,224.9 137.231,215.013 L137.945,202.985 L131.523,202.985 L125.203,202.985 L125.815,200.232 C126.426,197.786 135.6,169.041 145.794,137.748 C150.381,123.681 151.196,125.414 150.483,148.553 C150.075,159.765 149.565,174.647 149.259,181.885 L148.75,194.83 L163.02,194.83 L177.393,194.83 L184.834,183.414 C194.925,167.818 197.779,163.231 203.997,152.834 C209.094,144.068 211.744,141.519 210.827,146.208 C210.215,148.756 194.517,196.869 192.784,201.252 C191.765,203.8 191.357,204.004 185.343,204.004 L178.922,204.004 L175.762,208.897 C174.029,211.547 169.952,217.867 166.69,222.861 C163.428,227.958 159.249,234.38 157.414,237.132 C155.477,239.986 153.948,242.84 153.948,243.554 C153.948,244.165 153.642,244.777 153.235,244.777 C151.91,244.777 146.813,254.562 147.628,255.48 C148.036,255.989 147.832,255.989 147.221,255.684 C146.609,255.378 145.182,256.805 143.959,258.843 C140.697,264.45 136.722,269.037 136.62,267.202 Z" id="Path"></path>
                <path d="M281.975,253.135 C281.771,252.728 283.3,246.408 285.441,239.171 C287.582,231.831 293.29,212.158 298.183,195.34 C302.973,178.521 307.458,163.231 307.968,161.498 L309.089,158.134 L326.826,158.134 C343.339,158.134 344.664,158.236 344.154,159.969 C343.95,160.886 343.441,172.507 343.033,185.656 C342.727,198.805 342.217,210.528 341.912,211.649 C341.3,213.993 348.435,201.659 362.298,176.278 L372.186,158.134 L389.616,158.134 L406.944,158.134 L406.333,160.988 C405.721,163.435 402.052,175.972 384.621,236.113 C381.971,245.083 379.423,252.728 378.811,253.135 C377.282,254.155 353.94,254.155 353.328,253.135 C352.818,252.218 363.317,215.318 365.05,211.955 C365.662,210.833 365.968,209.712 365.662,209.508 C365.458,209.202 360.056,218.58 353.736,230.2 C347.416,241.821 341.81,252.014 341.198,252.728 C340.485,253.645 337.427,253.951 330.393,253.747 L320.608,253.441 L320.608,245.796 C320.608,241.617 320.914,230.608 321.321,221.332 C321.729,209.202 321.729,205.839 320.914,209.1 C319.792,214.503 308.885,252.014 308.172,253.135 C307.56,254.257 282.689,254.155 281.975,253.135 Z" id="Path"></path>
                <path d="M390.024,253.135 C389.82,252.728 391.451,246.204 393.591,238.661 C395.834,231.118 401.134,212.974 405.314,198.398 C409.595,183.821 413.978,168.837 415.099,165.066 L417.138,158.134 L431.918,158.134 C445.271,158.134 446.698,158.338 446.087,159.765 C445.475,161.294 441.296,175.769 423.967,235.603 C418.055,256.091 420.4,253.951 404.294,253.951 C396.751,253.951 390.329,253.645 390.024,253.135 Z" id="Path"></path>
                <path d="M429.879,253.135 C429.472,252.626 429.879,250.179 430.593,247.733 C431.408,245.286 434.466,234.991 437.32,224.9 C440.276,214.809 444.863,198.805 447.717,189.224 C450.47,179.744 453.63,168.837 454.751,165.066 L456.789,158.134 L477.991,158.134 C500.722,158.134 506.329,159.052 513.668,163.741 C518.866,167.002 521.415,170.06 524.371,176.482 C529.467,187.287 527.327,203.596 518.56,221.332 C510.916,236.928 497.257,248.243 481.661,251.912 C474.933,253.441 430.695,254.562 429.879,253.135 Z M478.603,227.55 C487.165,223.677 494.097,213.076 496.339,200.232 C497.97,191.262 496.339,186.879 490.325,183.821 C487.573,182.394 484.413,181.579 482.273,181.783 L478.705,182.088 L473.812,198.907 C471.06,208.183 468.002,218.784 466.881,222.657 L464.944,229.487 L469.735,229.487 C472.385,229.487 476.36,228.57 478.603,227.55 Z" id="Shape"></path>
                <path d="M530.69,253.135 C530.487,252.728 530.69,245.694 531.2,237.642 C531.71,229.487 532.729,210.935 533.646,196.359 C534.462,181.783 535.481,167.206 535.787,164.046 L536.399,158.134 L550.567,158.134 C564.634,158.134 564.736,158.134 564.736,160.479 C564.736,161.702 563.411,173.22 561.78,186.166 C560.149,199.009 558.926,209.712 559.028,209.814 C559.231,210.018 577.885,167.206 580.433,160.581 C581.453,158.134 581.555,158.134 595.112,158.134 C607.547,158.134 608.669,158.236 608.159,159.969 C607.955,160.886 607.445,164.046 607.14,166.799 C606.732,169.653 605.407,180.457 603.98,191.058 C602.553,201.557 601.431,210.528 601.431,210.935 C601.431,211.343 605.509,202.679 610.503,191.772 C615.396,180.865 620.901,168.837 622.633,165.066 L625.793,158.134 L639.656,158.134 L653.417,158.134 L630.38,203.8 C617.639,228.875 606.63,250.383 605.815,251.708 C604.489,253.849 603.878,253.951 591.136,253.951 C581.351,253.951 577.783,253.645 577.375,252.626 C577.172,251.912 578.089,240.598 579.516,227.55 C580.943,214.401 581.962,203.596 581.86,203.392 C581.657,203.29 576.56,214.095 570.444,227.55 C564.328,240.903 558.824,252.32 558.212,252.931 C556.989,254.155 531.506,254.358 530.69,253.135 Z" id="Path"></path>
                <path d="M615.702,253.135 C615.702,252.626 624.672,237.54 635.579,219.701 C646.588,201.863 659.533,180.661 664.426,172.711 L673.294,158.134 L688.278,158.134 L703.16,158.134 L703.772,165.575 C704.791,179.336 706.32,252.422 705.504,253.237 C705.097,253.645 698.573,253.849 691.03,253.747 L677.371,253.441 L677.065,247.631 L676.76,241.821 L663.916,241.515 L651.174,241.209 L648.218,246.917 C646.689,250.077 644.651,252.931 643.733,253.339 C641.185,254.257 615.702,254.053 615.702,253.135 Z M677.881,206.858 C677.881,198.805 677.473,193.913 676.963,194.83 C676.454,195.645 673.09,201.761 669.42,208.387 L662.693,220.313 L670.338,220.313 L677.881,220.313 L677.881,206.858 Z" id="Shape"></path>
                <path d="M713.149,253.135 C712.946,252.728 714.882,244.777 717.634,235.501 L722.527,218.58 L716.003,190.141 C712.436,174.545 709.48,160.886 709.48,159.969 C709.48,158.338 710.907,158.134 725.177,158.134 C736.798,158.134 740.977,158.44 741.385,159.459 C741.589,160.071 742.71,166.493 743.729,173.73 C744.748,180.865 745.768,186.675 746.175,186.675 C746.481,186.675 751.374,180.254 757.184,172.405 L767.581,158.134 L783.992,158.134 C792.962,158.134 800.2,158.542 799.996,159.052 C799.894,159.459 788.681,173.22 775.226,189.631 L750.864,219.294 L746.175,235.399 C743.627,244.165 741.181,252.014 740.773,252.728 C739.856,254.155 714.067,254.562 713.149,253.135 Z" id="Path"></path>
            </g>
        </g>
    </g>
</svg>