<?xml version="1.0" encoding="UTF-8"?>
<svg width="800px" height="400px" viewBox="0 0 800 400" version="1.1" xmlns="http://www.w3.org/2000/svg" xmlns:xlink="http://www.w3.org/1999/xlink">
    <title>nec_2</title>
    <g id="Page-1" stroke="none" stroke-width="1" fill="none" fill-rule="evenodd">
        <g id="Manufacturer" fill="#000000" fill-rule="nonzero">
            <g id="nec_2">
                <line x1="0" y1="0" x2="800" y2="400" id="Path"></line>
                <path d="M0,99.905 L64.385,99.905 C79.112,99.905 96.474,113.661 104.215,121.226 L217.173,246.472 L217.173,99.905 L255.546,99.905 L255.546,299.871 L188.37,299.871 C176.403,299.468 164.652,297.008 150.959,283.553 L38.187,158.079 L38.187,299.871 L0,299.871 L0,99.905 Z" id="Path"></path>
                <path d="M800,301.234 C754.042,307.507 707.546,308.127 660.957,304.211 C633.684,301.803 606.969,296.191 582.486,283.407 C551.575,267.388 541.726,231.382 542.139,198.745 C542.48,168.619 551.44,136.458 578.321,118.941 C595.942,107.376 614.761,103.583 634.759,99.956 C689.346,90.334 744.038,92.504 797.292,98.344 L797.292,126.867 C734.488,114.662 668.15,117.7 645.61,146.555 C631.524,164.506 629.519,182.365 629.519,197.402 C629.519,224.499 638.789,265.61 693.852,273.599 C729.776,278.87 765.337,274.87 800,268.556 L800,301.234 Z" id="Path"></path>
                <path d="M406.716,270.134 C412.153,270.186 498.706,270.589 528.418,270.134 L528.418,300.012 C468.57,302.316 411.067,303.319 350.609,300.807 C299.308,298.689 290.472,272.893 289.48,248.111 L289.48,99.901 L525.555,99.901 L525.555,128.373 L372.829,128.373 L372.829,179.282 L512.027,179.282 L512.027,207.072 L372.829,207.072 C372.829,222.109 373.325,239.161 373.47,242.23 C374.286,261.618 383.277,268.749 406.716,270.134 Z" id="Path"></path>
            </g>
        </g>
    </g>
</svg>