<?xml version="1.0" encoding="UTF-8" standalone="no"?>
<!-- Created with Inkscape (http://www.inkscape.org/) -->

<svg
   xmlns:dc="http://purl.org/dc/elements/1.1/"
   xmlns:cc="http://creativecommons.org/ns#"
   xmlns:rdf="http://www.w3.org/1999/02/22-rdf-syntax-ns#"
   xmlns:svg="http://www.w3.org/2000/svg"
   xmlns="http://www.w3.org/2000/svg"
   xmlns:sodipodi="http://sodipodi.sourceforge.net/DTD/sodipodi-0.dtd"
   xmlns:inkscape="http://www.inkscape.org/namespaces/inkscape"
   width="342.494756484"
   height="291.975272926" viewBox="0 0 500.0 426.2478"
   id="svg5549"
   version="1.1"
   inkscape:version="0.48.5 r10040"
   sodipodi:docname="New document 4">
  <defs
     id="defs5551" />
  <sodipodi:namedview
     id="base"
     pagecolor="#ffffff"
     bordercolor="#666666"
     borderopacity="1.0"
     inkscape:pageopacity="0.0"
     inkscape:pageshadow="2"
     inkscape:zoom="0.98994949"
     inkscape:cx="175.2265"
     inkscape:cy="224.35582"
     inkscape:document-units="px"
     inkscape:current-layer="layer1"
     showgrid="false"
     fit-margin-top="0"
     fit-margin-left="0"
     fit-margin-right="0"
     fit-margin-bottom="0"
     inkscape:window-width="1920"
     inkscape:window-height="1028"
     inkscape:window-x="-8"
     inkscape:window-y="-8"
     inkscape:window-maximized="1" />
  <metadata
     id="metadata5554">
    <rdf:RDF>
      <cc:Work
         rdf:about="">
        <dc:format>image/svg+xml</dc:format>
        <dc:type
           rdf:resource="http://purl.org/dc/dcmitype/StillImage" />
        <dc:title></dc:title>
      </cc:Work>
    </rdf:RDF>
  </metadata>
  <g
     inkscape:label="Layer 1"
     inkscape:groupmode="layer"
     id="layer1"
     transform="translate(-58.287035,-266.76298)">
    <g
       id="g6362"
       transform="matrix(5.2702311,0,0,5.2702311,-930.33754,-2671.8345)">
      <path
         d="m 234.54907,575.71147 0,-0.069 0.41625,0 0,0.069 c 0.11625,-0.021 0.23,-0.041 0.34375,-0.069 l 0,0.069 0.07,0 0,-0.069 c 0.23125,0.028 0.4575,0.048 0.695,0.069 0.7925,0.01 1.63625,0.025 2.27375,0.2075 0.43875,0.048 0.87375,0.091 1.31125,0.1387 l 0,0.071 0.275,0 0,0.069 0.34625,0 0,0.068 0.3425,0 0,0.069 0.28125,0 0,0.071 0.20625,0 0,0.068 c 0.1825,0.024 0.365,0.046 0.55125,0.069 l 0,0.069 c 0.22875,0.046 0.46375,0.094 0.69,0.1375 l 0,0.069 0.1375,0 0,0.07 0.20625,0 0,0.069 c 0.14,0.023 0.27375,0.048 0.41625,0.069 l 0,0.07 0.1375,0 0,0.066 c 0.1375,0.026 0.27625,0.05 0.4125,0.071 l 0,0.069 c 0.0913,0.023 0.185,0.05 0.28,0.07 l 0,0.069 0.20625,0 0,0.07 c 0.1375,0.046 0.27375,0.092 0.41125,0.1375 l 0,0.069 0.13875,0 0,0.07 c 0.16,0.044 0.32375,0.089 0.485,0.14 0.02,0.039 0.0462,0.091 0.0675,0.135 l 0.14,0 0.13625,0.1388 0.13875,0 0,0.066 0.13625,0 0,0.071 0.14125,0 c 0.0225,0.045 0.0437,0.092 0.0662,0.1387 0.14,0.045 0.27875,0.09 0.415,0.1363 0.025,0.045 0.0475,0.091 0.07,0.1375 l 0.13625,0 c 0.0275,0.047 0.0462,0.091 0.07,0.1387 l 0.1375,0 c 0.025,0.047 0.0463,0.091 0.0713,0.1363 l 0.1375,0 0,0.071 c 0.0687,0.024 0.13375,0.046 0.2025,0.069 0.0262,0.046 0.0512,0.094 0.0725,0.1387 l 0.13875,0 c 0.0475,0.069 0.09,0.1363 0.13625,0.2075 l 0.13875,0 c 0.0213,0.046 0.045,0.091 0.0687,0.1375 l 0.14,0 c 0.0675,0.094 0.13875,0.185 0.20875,0.2763 l 0.13625,0 c 0.0462,0.069 0.0913,0.1362 0.13875,0.2075 l 0.0662,0 c 0.0238,0.047 0.0475,0.094 0.07,0.135 l 0.1375,0 c 0.12375,0.091 0.17375,0.255 0.34375,0.3462 l 0,0.4138 c -0.0888,0.074 -0.0687,0.1262 -0.13625,0.21 l -0.0675,0 c -0.0238,0.066 -0.0463,0.1387 -0.0713,0.205 -0.1225,0.078 -0.2675,-0.046 -0.3425,0.074 -0.025,0.1575 -0.0475,0.3188 -0.0687,0.48 -0.0475,0.021 -0.095,0.045 -0.1375,0.069 l 0,0.1362 c -0.0687,0.047 -0.13875,0.092 -0.21,0.1438 l 0,0.1312 -0.0675,0 c -0.0238,0.2788 -0.0463,0.5563 -0.0712,0.8325 l -0.0688,0 c -0.0475,0.066 -0.09,0.1375 -0.1375,0.2075 l -0.1375,0 0,0.066 c -0.185,0.17 -0.0213,-0.01 -0.13875,0.2087 l -0.0687,0 0,0.2075 -0.0725,0 0,0.1363 c -0.0688,0.045 -0.13375,0.094 -0.2025,0.14 l 0,0.415 -0.0725,0 c -0.0475,0.1387 -0.09,0.275 -0.13625,0.4137 l -0.07,0 0,0.2075 -0.0675,0 c -0.0238,0.09 -0.0425,0.1838 -0.07,0.275 l -0.0675,0 0,0.1375 -0.0688,0 0,0.21 c -0.30125,0.2513 -0.5975,0.5038 -0.8975,0.755 l 0,0.1425 c -0.0475,0.021 -0.0937,0.043 -0.13625,0.065 l 0,0.14 -0.07,0 0,0.1363 c -0.16375,0.3012 -0.305,0.405 -0.62,0.5537 0.0225,0.8175 0.125,1.7038 0.48,2.21 0.0925,0.069 0.18625,0.1363 0.27625,0.2075 0.0462,0.069 0.0937,0.1363 0.13875,0.205 0.09,0.024 0.18375,0.046 0.2775,0.071 0.0225,0.046 0.0437,0.094 0.0662,0.1362 l 0.20875,0 0,0.069 0.1375,0 0,0.067 0.345,0 0,0.072 c 0.47875,0.1412 1.41875,-0.1275 1.65875,-0.2775 0.0213,-0.048 0.0438,-0.092 0.0687,-0.1388 l 0.13625,0 0,-0.069 c 0.0925,-0.068 0.18375,-0.1363 0.2775,-0.2075 l 0,-0.1363 c 0.0675,-0.045 0.135,-0.096 0.20375,-0.1387 0.0725,-0.2075 0.13875,-0.415 0.21125,-0.6213 l 0,-1.5175 c 0.34375,-1.145 0.86375,-2.0762 1.37875,-3.0425 l 0,-0.1337 0.0687,0 0,-0.14 0.1375,-0.1388 0,-0.1362 c 0.0462,-0.021 0.0925,-0.047 0.13875,-0.069 l 0,-0.1362 0.0687,0 c 0.0225,-0.095 0.0463,-0.1888 0.0675,-0.28 0.045,-0.02 0.0937,-0.045 0.14,-0.066 0.0812,-0.1275 0.001,-0.1562 0.1375,-0.2775 l 0,-0.069 c 0.35625,0.089 0.3525,0.2712 0.55375,0.4837 0.0662,0.044 0.14,0.091 0.205,0.1375 l 0,0.1388 c 0.0912,0.069 0.1875,0.1375 0.2775,0.205 0.0225,0.094 0.045,0.1875 0.07,0.2762 0.0437,0.025 0.0913,0.05 0.1375,0.071 0.025,0.068 0.0463,0.1337 0.0675,0.2075 l 0.0687,0 c 0.0475,0.1387 0.0925,0.275 0.1375,0.4137 0.0487,0.024 0.095,0.045 0.1425,0.068 0.0213,0.096 0.0438,0.1825 0.0637,0.2738 l 0.07,0 c 0.025,0.071 0.0512,0.1412 0.0737,0.21 0.045,0.024 0.0888,0.045 0.13375,0.069 l 0,0.1388 c 0.0463,0.024 0.0925,0.047 0.14,0.071 l 0,0.1363 0.1375,0.1375 0,0.1387 0.0687,0 0,0.1375 0.07,0 0,0.135 c 0.0437,0.024 0.0925,0.05 0.1375,0.07 l 0,0.1425 0.13875,0.1338 0,0.1412 0.0663,0 0,0.1375 0.07,0 0,0.1363 0.0712,0 0,0.1387 0.0662,0 c 0.0463,0.14 0.0937,0.2763 0.14,0.4138 l 0.0675,0 0,0.2075 0.07,0 0,0.1375 0.07,0 0,0.1387 0.07,0 c 0.045,0.1363 0.0887,0.2738 0.13625,0.415 l 0.0687,0 0,0.21 0.0675,0 0,0.135 0.0713,0 c 0.045,0.2063 0.0925,0.4138 0.13625,0.6213 l 0.0687,0 0,0.1387 0.0712,0 c 0.0213,0.1363 0.0438,0.2763 0.0675,0.4125 l 0.0712,0 0,0.1388 0.0687,0 c 0.0475,0.2312 0.0925,0.46 0.13625,0.69 l 0.07,0 0,0.2075 0.0675,0 0,0.2075 0.0687,0 c 0.0263,0.1837 0.0475,0.3675 0.0725,0.5512 0.11625,0.3463 0.2325,0.8125 0.34125,1.1738 0.025,0.2512 0.0488,0.5062 0.0713,0.76 l 0.07,0 0,0.4837 0.0687,0 0,0.5488 0.0687,0 0,0.835 0.0687,0 0,2.275 -0.0687,0 c -0.0263,0.4125 -0.0475,0.8275 -0.0687,1.2412 l -0.0687,0 0,0.4838 -0.07,0 0,0.4125 -0.0713,0 c -0.0212,0.205 -0.0475,0.4137 -0.0687,0.6212 l -0.0637,0 0,0.2763 -0.0737,0 0,0.275 -0.0688,0 0,0.205 -0.0662,0 0,0.2787 -0.0725,0 0,0.2063 -0.0687,0 0,0.205 -0.0675,0 0,0.21 -0.07,0 c -0.0237,0.1362 -0.0437,0.2762 -0.0687,0.4125 l -0.0675,0 0,0.1387 -0.0687,0 c -0.0225,0.14 -0.0475,0.2763 -0.0712,0.415 -0.0463,0.021 -0.0888,0.045 -0.13875,0.07 -0.0225,0.14 -0.0475,0.2738 -0.0687,0.4125 l -0.065,0 c -0.0475,0.14 -0.0962,0.2788 -0.1425,0.4175 l -0.0675,0 0,0.135 -0.0687,0 0,0.1388 -0.07,0 0,0.1362 -0.0662,0 0,0.1388 -0.07,0 0,0.1387 -0.07,0 0,0.1388 -0.1375,0.14 0,0.1362 c -0.0463,0.024 -0.0937,0.045 -0.14,0.071 l 0,0.1337 -0.1375,0.1388 0,0.1375 -0.07,0 0,0.1387 c -0.0425,0.029 -0.09,0.046 -0.13625,0.07 l 0,0.1388 c -0.0475,0.023 -0.0925,0.045 -0.13875,0.066 l 0,0.1413 c -0.0475,0.023 -0.0925,0.045 -0.1375,0.066 -0.0237,0.094 -0.0475,0.1863 -0.0687,0.2813 -0.0475,0.017 -0.0913,0.043 -0.1375,0.062 l 0,0.14 c -0.0712,0.046 -0.14,0.094 -0.21,0.1387 l 0,0.1413 c -0.045,0.019 -0.0863,0.044 -0.1375,0.069 -0.0225,0.066 -0.0463,0.1338 -0.07,0.2038 l -0.0637,0 0,0.1387 c -0.0937,0.069 -0.1875,0.1375 -0.28,0.2075 -0.0237,0.069 -0.0462,0.1375 -0.0687,0.2075 -0.0425,0.021 -0.095,0.046 -0.13625,0.069 l 0,0.1387 c -0.0687,0.046 -0.13875,0.09 -0.2075,0.14 -0.22125,0.2225 -0.47375,0.4688 -0.6225,0.755 l -0.13625,0 c -0.05,0.195 -0.0838,0.17 -0.20875,0.2763 l 0,0.071 c -0.0675,0.022 -0.1375,0.045 -0.20375,0.07 l 0,0.1375 c -0.0738,0.02 -0.14125,0.046 -0.21,0.067 -0.13875,0.1625 -0.27625,0.3225 -0.415,0.4813 l -0.13625,0 c -0.0913,0.1175 -0.185,0.2337 -0.27875,0.345 l -0.14,0 c -0.045,0.071 -0.0888,0.14 -0.13375,0.21 l -0.14,0 c -0.0675,0.095 -0.13625,0.185 -0.205,0.2762 -0.0925,0.021 -0.18625,0.045 -0.275,0.069 -0.0475,0.07 -0.095,0.1362 -0.13875,0.205 l -0.14125,0 c -0.0213,0.049 -0.045,0.094 -0.0675,0.1387 -0.0675,0.024 -0.13875,0.044 -0.2075,0.071 l 0,0.068 -0.1375,0 c -0.0225,0.047 -0.0463,0.092 -0.07,0.1387 l -0.135,0 c -0.0238,0.047 -0.0475,0.092 -0.07,0.1363 -0.0675,0.025 -0.13625,0.05 -0.20625,0.071 l 0,0.069 -0.13875,0 c -0.0238,0.045 -0.0463,0.09 -0.0712,0.1362 -0.1375,0.048 -0.27625,0.091 -0.4125,0.1388 -0.0212,0.045 -0.0462,0.091 -0.07,0.14 -0.14125,0.045 -0.275,0.094 -0.41625,0.1387 -0.0213,0.044 -0.0475,0.089 -0.065,0.1363 l -0.14125,0 -0.1375,0.14 -0.13625,0 0,0.068 -0.13875,0 c -0.0225,0.046 -0.045,0.092 -0.0675,0.1387 l -0.13875,0 -0.14,0.1363 -0.1375,0 0,0.071 -0.13875,0 0,0.065 -0.13625,0 0,0.071 -0.13625,0 0,0.069 c -0.1425,0.048 -0.2775,0.091 -0.4175,0.1388 l 0,0.069 c -0.11375,0.025 -0.23,0.048 -0.345,0.07 l 0,0.069 c -0.0913,0.024 -0.185,0.043 -0.27625,0.069 l 0,0.07 -0.2075,0 0,0.069 -0.1375,0 0,0.069 c -0.115,0.022 -0.23,0.044 -0.345,0.067 l 0,0.071 -0.20625,0 0,0.069 c -0.0912,0.02 -0.185,0.044 -0.27625,0.069 l 0,0.069 -0.28,0 0,0.069 -0.13375,0 0,0.069 c -0.14,0.024 -0.2775,0.048 -0.415,0.068 l 0,0.069 -0.20625,0 0,0.072 -0.1375,0 0,0.066 c -0.1625,0.026 -0.32125,0.047 -0.48625,0.071 l 0,0.069 c -0.2525,0.048 -0.505,0.091 -0.75625,0.1363 l 0,0.071 -0.3475,0 0,0.067 -0.27625,0 0,0.069 -0.3425,0 0,0.071 -0.345,0 0,0.07 -0.48625,0 0,0.066 -0.8275,0 0,0.074 -0.0675,0 c -0.0512,-0.039 -0.0412,-0.1163 -0.20625,-0.074 -0.56875,0.15 -2.82375,0.1575 -3.38625,0 -0.415,-0.023 -0.82875,-0.043 -1.24125,-0.066 l 0,-0.07 -0.4125,0 0,-0.071 c -0.25375,-0.023 -0.5075,-0.045 -0.76375,-0.069 l 0,-0.067 -0.20625,0 0,-0.071 -0.345,0 0,-0.066 -0.27625,0 0,-0.07 -0.27375,0 c -0.435,-0.1862 -0.8775,-0.3675 -1.315,-0.5525 -0.0413,-0.2262 -0.10375,-0.3337 0.07,-0.4825 -0.0637,-0.46 -0.1925,-0.2075 -0.34125,-0.4175 -0.0687,-0.2075 -0.14125,-0.4125 -0.21,-0.6187 -0.0462,-0.024 -0.09,-0.048 -0.1375,-0.068 l 0,-0.14 c -0.0687,-0.024 -0.13875,-0.048 -0.20625,-0.068 -0.0462,-0.069 -0.095,-0.14 -0.14,-0.2075 -0.13625,-0.049 -0.275,-0.095 -0.4125,-0.14 l 0,-0.068 -0.415,0 0,-0.071 -0.48375,0 0,-0.069 -0.275,0 0,-0.067 -0.34625,0 0,-0.069 -0.2075,0 0,-0.071 -0.14,0 c -0.0213,-0.044 -0.0413,-0.089 -0.0662,-0.1363 -0.0675,-0.024 -0.13875,-0.046 -0.20875,-0.069 l 0,-0.1375 c -0.11375,-0.092 -0.2275,-0.185 -0.34125,-0.2788 l 0,-0.1362 c -0.0475,-0.024 -0.095,-0.047 -0.13875,-0.069 -0.0263,-0.071 -0.0475,-0.1412 -0.0688,-0.2075 l -0.0712,0 c -0.27625,-0.5975 -0.5525,-1.1962 -0.8275,-1.795 -0.13,-0.05 -0.42,-0.095 -0.5525,-0.1375 -0.045,-0.1925 -0.155,-0.33 -0.20625,-0.4825 l 0,-0.415 c -0.14125,-0.4737 -0.2,-1.0687 -0.34875,-1.5212 l 0,-0.2763 -0.0662,0 c -0.1,-0.2875 0.009,-0.4187 -0.205,-0.6212 -0.0862,-0.3138 -0.2475,-0.2225 -0.41625,-0.41 l -0.48125,0 c -0.13125,0.1462 -0.3375,0.1575 -0.4875,0.2725 -0.0187,0.069 -0.0462,0.1375 -0.0662,0.2075 -0.07,0.045 -0.13875,0.095 -0.2075,0.1375 l 0,0.1387 -0.0675,0 c -0.0275,0.094 -0.0475,0.1838 -0.0725,0.275 l -0.0687,0 0,0.2075 -0.07,0 0,0.2813 -0.0687,0 0,0.3412 -0.0675,0 c -0.0213,0.37 -0.045,0.735 -0.0687,1.105 l 0.0687,0 0,0.4825 0.0675,0 c 0.025,0.32 0.0463,0.645 0.0687,0.9688 l 0.07,0 c 0.11,0.3012 0.18875,0.5375 0.20875,0.8975 -0.3475,-0.01 -0.53625,-0.019 -0.76,-0.14 l 0,-0.067 -0.1375,0 0,-0.073 -0.13875,0 c -0.0462,-0.069 -0.0937,-0.1338 -0.14125,-0.205 l -0.13375,0 c -0.18,-0.1263 -0.11875,-0.265 -0.415,-0.3438 l 0,-0.1375 c -0.07,-0.025 -0.1375,-0.048 -0.20625,-0.07 -0.0925,-0.1175 -0.18625,-0.2337 -0.2775,-0.3475 l -0.1375,0 c -0.2075,-0.23 -0.41375,-0.4587 -0.62125,-0.6875 l -0.1375,0 c -0.0238,-0.048 -0.0475,-0.094 -0.0687,-0.1387 -0.13875,-0.1163 -0.2775,-0.23 -0.4175,-0.3463 l 0,-0.1375 c -0.20625,-0.185 -0.4125,-0.37 -0.61875,-0.55 l 0,-0.1387 c -0.1625,-0.14 -0.325,-0.2788 -0.48375,-0.4125 l 0,-0.14 c -0.0675,-0.047 -0.13875,-0.091 -0.20625,-0.1413 l 0,-0.1362 c -0.0688,-0.045 -0.13875,-0.092 -0.2075,-0.1375 l 0,-0.1388 c -0.0475,-0.024 -0.095,-0.041 -0.14125,-0.07 l 0,-0.1387 c -0.065,-0.043 -0.135,-0.093 -0.205,-0.1375 l 0,-0.1388 c -0.0438,-0.02 -0.0913,-0.043 -0.13625,-0.069 l 0,-0.1363 c -0.0487,-0.023 -0.0925,-0.047 -0.1375,-0.069 -0.025,-0.067 -0.0475,-0.1388 -0.07,-0.2075 l -0.07,0 c -0.0238,-0.091 -0.0438,-0.185 -0.0663,-0.2775 -0.05,-0.024 -0.095,-0.044 -0.14,-0.066 -0.02,-0.072 -0.0475,-0.14 -0.0687,-0.2087 l -0.0687,0 c -0.0475,-0.1388 -0.0937,-0.2738 -0.1375,-0.4125 -0.0475,-0.026 -0.0937,-0.048 -0.14125,-0.069 -0.0425,-0.1412 -0.09,-0.2775 -0.1375,-0.4175 l -0.07,0 0,-0.1362 -0.0687,0 0,-0.1388 -0.0662,0 0,-0.1387 -0.07,0 0,-0.1363 -0.0687,0 0,-0.2075 c -0.0462,-0.025 -0.0937,-0.045 -0.14,-0.071 l 0,-0.205 -0.0687,0 c -0.0213,-0.094 -0.0463,-0.1838 -0.0663,-0.2788 l -0.0687,0 0,-0.2075 -0.0712,0 c -0.0225,-0.091 -0.0488,-0.1825 -0.0675,-0.2725 l -0.07,0 0,-0.2087 -0.0688,0 0,-0.14 -0.07,0 c -0.0462,-0.205 -0.0913,-0.4125 -0.13875,-0.62 l -0.0687,0 0,-0.1363 -0.0688,0 0,-0.2075 -0.0687,0 0,-0.1387 -0.0687,0 0,-0.205 -0.0687,0 0,-0.205 -0.0687,0 0,-0.3488 -0.0688,0 0,-0.205 -0.0687,0 0,-0.4162 c -0.14125,-0.455 -0.20875,-1.0725 -0.345,-1.5175 l 0,-0.4125 c -0.22375,-0.74 -0.325,-2.4175 -0.14,-3.1075 0.0212,-0.6663 0.045,-1.3363 0.0687,-2.0038 0.12625,-0.4262 0.21375,-1.0262 0.3475,-1.4462 0.0225,-0.2088 0.0425,-0.4163 0.0687,-0.6213 l 0.0687,0 0,-0.2075 0.0688,0 0,-0.1387 0.0687,0 c 0.0237,-0.16 0.0437,-0.3225 0.0687,-0.4838 l 0.0687,0 0,-0.1375 0.0687,0 0,-0.2087 0.0688,0 c 0.0237,-0.09 0.0475,-0.1813 0.0687,-0.2775 l 0.0725,0 0,-0.205 0.0662,0 0,-0.1375 0.07,0 0,-0.2075 0.0688,0 0,-0.1388 0.07,0 c 0.0187,-0.115 0.045,-0.2312 0.0675,-0.3425 l 0.0712,0 c 0.0438,-0.14 0.0888,-0.2787 0.135,-0.415 l 0.0687,0 0,-0.1375 0.0725,0 0,-0.1412 0.0675,0 0,-0.1338 0.0687,0 0,-0.1425 0.07,0 0,-0.1362 0.0662,0 0,-0.1363 0.13875,-0.1387 0,-0.1388 c 0.0475,-0.023 0.095,-0.048 0.1375,-0.069 0.0475,-0.1363 0.0937,-0.2763 0.14125,-0.415 0.0438,-0.023 0.09,-0.048 0.1375,-0.069 l 0,-0.1412 c 0.0475,-0.019 0.09,-0.044 0.1375,-0.066 l 0,-0.14 c 0.045,-0.021 0.09,-0.045 0.14,-0.067 l 0,-0.1375 0.0663,0 c 0.0225,-0.069 0.0462,-0.1337 0.07,-0.205 0.045,-0.028 0.0888,-0.048 0.13875,-0.071 l 0,-0.1413 c 0.0888,-0.066 0.18375,-0.1337 0.275,-0.205 l 0,-0.1362 c 0.0925,-0.071 0.18125,-0.14 0.27625,-0.2075 l 0,-0.1375 c 0.13875,-0.115 0.275,-0.2325 0.41375,-0.3475 l 0,-0.1363 c 0.15875,-0.1375 0.32125,-0.2762 0.48375,-0.4137 l 0,-0.1388 c 0.25375,-0.23 0.50625,-0.4612 0.75875,-0.6925 0.115,-0.1362 0.23,-0.275 0.34625,-0.41 0.1675,-0.12 0.30375,-0.1037 0.4125,-0.275 l 0.34625,0 c 0.0238,0.045 0.0475,0.089 0.07,0.1363 l 0.0675,0 0,0.1387 c 0.0475,0.021 0.0913,0.044 0.13875,0.066 0.13875,0.4162 0.275,0.8287 0.41375,1.2437 l 0,0.345 0.0675,0 c 0.025,0.091 0.0475,0.1825 0.075,0.2738 0.0412,0.025 0.0888,0.047 0.13625,0.071 l 0,0.1388 c 0.0425,0.023 0.09,0.045 0.135,0.069 l 0,0.1363 c 0.0662,0.045 0.1375,0.094 0.2075,0.14 l 0,0.068 0.13875,0 c 0.0475,0.069 0.0913,0.14 0.1375,0.2075 l 0.13625,0 c 0.2225,0.125 0.725,0.4037 1.17375,0.2787 l 0,-0.071 0.3475,0 0,-0.068 c 0.205,-0.074 0.41375,-0.14 0.62125,-0.2075 0.045,-0.071 0.0913,-0.14 0.14,-0.2075 l 0.13625,0 c 0.0687,-0.095 0.135,-0.1838 0.205,-0.2763 l 0.0725,0 0,-0.1362 c 0.0462,-0.026 0.0913,-0.048 0.13625,-0.071 0.1275,-0.2025 0.41375,-1.1562 0.27625,-1.59 l -0.07,0 0,-0.205 -0.0675,0 0,-0.205 -0.0688,0 0,-0.1387 -0.07,0 0,-0.1363 c -0.07,-0.05 -0.13625,-0.098 -0.20875,-0.14 -0.0913,-0.115 -0.18125,-0.2325 -0.27375,-0.3487 l -0.13875,0 -0.13875,-0.1363 -0.1375,0 0,-0.066 -0.1375,0 0,-0.07 -0.14,0 0,-0.07 c -0.2075,-0.071 -0.41125,-0.14 -0.62,-0.2075 l 0,-0.066 c -0.0925,-0.071 -0.18625,-0.1437 -0.27625,-0.2125 l 0,-0.1375 c -0.0687,-0.045 -0.1375,-0.091 -0.205,-0.1362 l 0,-0.2763 0.0675,0 c 0.0688,-0.091 0.1375,-0.1825 0.2075,-0.2762 l 0.13875,0 c 0.0675,-0.092 0.135,-0.185 0.20375,-0.2763 l 0.1375,0 c 0.0263,-0.05 0.0488,-0.094 0.0738,-0.1362 0.065,-0.024 0.13625,-0.045 0.20625,-0.071 l 0,-0.066 0.135,0 c 0.025,-0.048 0.0462,-0.094 0.0712,-0.1388 l 0.1375,0 c 0.025,-0.048 0.0463,-0.096 0.0688,-0.1387 0.13875,-0.045 0.27875,-0.09 0.415,-0.1375 0.0238,-0.046 0.0437,-0.094 0.0687,-0.1413 l 0.20875,0 c 0.0187,-0.044 0.0462,-0.091 0.0662,-0.1375 0.0937,-0.02 0.185,-0.044 0.27625,-0.068 l 0,-0.07 c 0.0937,-0.026 0.185,-0.045 0.28,-0.065 l 0,-0.074 0.205,0 0,-0.066 c 0.1125,-0.024 0.22875,-0.048 0.34375,-0.07 l 0,-0.069 c 0.0925,-0.026 0.18625,-0.045 0.275,-0.071 l 0,-0.066 c 0.14,-0.023 0.2775,-0.048 0.4175,-0.07 l 0,-0.069 0.2075,0 0,-0.07 0.20375,0 0,-0.069 0.2075,0 0,-0.071 0.205,0 0,-0.066 0.21125,0 0,-0.07 c 0.15875,-0.021 0.32,-0.046 0.4825,-0.069 l 0,-0.069 c 0.2075,-0.023 0.41125,-0.044 0.62125,-0.07 l 0,-0.069 0.27625,0 0,-0.07 0.27625,0 0,-0.068 0.34625,0 0,-0.069 c 0.22,-0.075 0.46375,-0.01 0.61875,-0.1363 0.4275,0.061 0.2725,0.31 0.4825,0.55 0.0712,0.048 0.14125,0.09 0.20875,0.1388 l 0,0.1375 c 0.0438,0.02 0.0913,0.048 0.13875,0.069 l 0,0.1388 c 0.0462,0.023 0.09,0.048 0.13625,0.07 0.0475,0.1375 0.095,0.2762 0.13875,0.4162 0.0462,0.02 0.0937,0.039 0.13625,0.065 l 0,0.1375 0.0725,0 c 0.0188,0.094 0.0438,0.185 0.0675,0.2788 l 0.07,0 0,0.965 -0.07,0 c 0.045,0.2087 0.0912,0.4162 0.14,0.6212 l 0.0687,0 0,0.205 c 0.0438,0.027 0.0913,0.05 0.1375,0.069 l 0,0.1437 0.0675,0 c 0.07,0.089 0.14,0.18 0.20625,0.2738 l 0.14,0 c 0.0462,0.07 0.0937,0.14 0.13625,0.2062 0.37625,0.2625 1.38,0.6275 2.0025,0.4125 l 0,-0.066 0.21,0 0,-0.071 0.2075,0 0,-0.065 0.13375,0 0,-0.074 0.14,0 c 0.0688,-0.086 0.14125,-0.1813 0.20625,-0.2725 0.0687,-0.024 0.1375,-0.045 0.2075,-0.07 0.195,-0.2488 0.73,-1.2925 0.5525,-1.8625 l -0.0675,0 c -0.0263,-0.165 -0.045,-0.3225 -0.07,-0.485 -0.1125,-0.092 -0.175,-0.2388 -0.275,-0.3463 -0.0462,-0.026 -0.095,-0.045 -0.14,-0.065 -0.135,-0.1925 -0.0763,-0.2762 -0.345,-0.35 -0.0725,-0.2637 -0.19625,-0.2937 -0.4125,-0.415 l 0,-0.066 c -0.11625,-0.023 -0.2325,-0.049 -0.3475,-0.07 l 0,-0.069 -0.13875,0 c -0.05,-0.035 -0.545,-0.8262 -0.54875,-0.8975 -0.006,-0.048 0.06,-0.1387 0.0662,-0.2775 0.53,-0.019 1.0575,-0.044 1.5875,-0.069 m 20.29625,-4.2075 c 0.045,-0.2238 0.22875,-0.585 0.34875,-0.7638 0.0425,-0.021 0.0863,-0.045 0.13375,-0.07 l 0,-0.1375 c 0.05,-0.02 0.0925,-0.045 0.13875,-0.065 l 0,-0.14 c 0.0487,-0.02 0.0937,-0.045 0.14,-0.068 l 0,-0.14 c 0.0675,-0.046 0.13625,-0.089 0.20625,-0.1387 l 0,-0.1388 c 0.0675,-0.043 0.13625,-0.09 0.20875,-0.1375 l 0,-0.135 c 0.115,-0.095 0.22875,-0.1875 0.34125,-0.2762 l 0,-0.1388 c 0.14125,-0.1162 0.27875,-0.2287 0.4175,-0.3462 l 0,-0.14 c 0.11375,-0.089 0.23125,-0.18 0.345,-0.2738 l 0,-0.1375 c 0.11375,-0.092 0.22875,-0.1862 0.34375,-0.2762 l 0,-0.1363 c 0.07,-0.05 0.135,-0.092 0.20625,-0.1387 l 0,-0.1425 c 0.0725,-0.045 0.13875,-0.086 0.20875,-0.1363 l 0,-0.1362 c 0.09,-0.069 0.1825,-0.14 0.275,-0.2075 l 0,-0.14 c 0.16125,-0.135 0.3225,-0.2713 0.4825,-0.4138 l 0,-0.1387 c 0.0937,-0.066 0.185,-0.1338 0.2775,-0.2075 0.0213,-0.069 0.0463,-0.1338 0.0687,-0.2025 l 0.1375,0 c 0.20625,-0.2338 0.4175,-0.4613 0.6225,-0.695 l 0.1375,0 c 0.065,-0.09 0.1375,-0.1813 0.2075,-0.2738 l 0.13625,0 c 0.0238,-0.048 0.0475,-0.094 0.07,-0.1362 0.0675,-0.024 0.13625,-0.047 0.20875,-0.074 l 0,-0.068 c 0.0675,-0.021 0.13875,-0.045 0.20625,-0.069 0.0487,-0.21 0.1325,-0.2938 0.345,-0.3438 l 0,-0.14 c 0.0925,-0.02 0.18375,-0.046 0.27625,-0.069 l 0,-0.069 0.62125,0 0,-0.069 0.1375,0 c 0.13875,-0.1863 0.27625,-0.3663 0.4125,-0.5538 l 0.555,0 0,-0.066 c 0.0913,-0.022 0.18,-0.047 0.27625,-0.067 0.0238,-0.051 0.0463,-0.095 0.0675,-0.14 l 0.1375,0 0,-0.07 c 0.095,-0.061 0.12125,-0.047 0.275,-0.069 0.025,0.069 0.05,0.1388 0.0725,0.2075 l 0.4825,0 0,0.1388 c 0.0675,0.045 0.13625,0.094 0.205,0.1375 l 0,0.1387 c 0.0725,0.023 0.14,0.044 0.21,0.066 l 0,0.07 c 0.1925,0.1625 0.35125,0.4112 0.61875,0.485 0.0725,0.2712 0.19625,0.2375 0.2075,0.6225 -0.345,0.1575 -0.6875,0.32 -1.03625,0.4812 -0.1375,0.025 -0.275,0.044 -0.41375,0.07 l 0,0.068 -0.13625,0 0,0.071 -0.21,0 0,0.066 -0.205,0 0,0.07 -0.13625,0 0,0.069 -0.13875,0 c -0.0225,0.045 -0.0475,0.092 -0.07,0.1387 -0.09,0.024 -0.185,0.045 -0.27625,0.071 -0.0462,0.069 -0.0913,0.1337 -0.13875,0.2025 l -0.13875,0 c -0.0913,0.1187 -0.18125,0.235 -0.27375,0.3462 l -0.1375,0 c -0.1175,0.1425 -0.23125,0.2788 -0.34625,0.4138 l -0.1375,0 c -0.0687,0.094 -0.14,0.185 -0.20625,0.2787 l -0.14125,0 0,0.069 c -0.07,0.045 -0.13625,0.09 -0.205,0.1362 l 0,0.1363 c -0.0337,0.061 -0.23375,0.385 -0.27625,0.4175 l -0.13875,0 c -0.0238,0.048 -0.0463,0.09 -0.0725,0.14 l -0.1325,0 c -0.025,0.044 -0.0475,0.089 -0.0712,0.1362 -0.14,0.1125 -0.27625,0.2313 -0.415,0.3438 l 0,0.1362 c -0.11375,0.094 -0.22875,0.1888 -0.34375,0.2788 l 0,0.1387 c -0.0475,0.02 -0.0937,0.046 -0.1375,0.066 l 0,0.1412 c -0.0925,0.069 -0.18375,0.1363 -0.27625,0.2075 l 0,0.135 c -0.0488,0.025 -0.0925,0.048 -0.13875,0.069 l 0,0.1387 c -0.0687,0.048 -0.13875,0.094 -0.2075,0.14 l 0,0.1363 c -0.0687,0.05 -0.1375,0.094 -0.20625,0.1387 l 0,0.14 c -0.0687,0.045 -0.13875,0.089 -0.20875,0.1388 l 0,0.1337 c -0.0687,0.047 -0.13625,0.092 -0.20875,0.14 l 0,0.14 c -0.0675,0.043 -0.135,0.09 -0.205,0.135 l 0,0.1388 c -0.0437,0.026 -0.0913,0.045 -0.1375,0.07 l 0,0.14 c -0.0475,0.02 -0.0925,0.045 -0.1375,0.066 -0.0225,0.068 -0.0475,0.1363 -0.0687,0.2075 -0.07,0.048 -0.13625,0.094 -0.20875,0.1388 l 0,0.1362 c -0.045,0.026 -0.0875,0.045 -0.13625,0.071 l 0,0.1362 c -0.07,0.044 -0.14125,0.094 -0.20875,0.1375 l 0,0.1375 -0.0662,0 c -0.025,0.071 -0.0462,0.1413 -0.0725,0.21 -0.0425,0.024 -0.09,0.042 -0.13625,0.069 l 0,0.1362 c -0.07,0.045 -0.1375,0.091 -0.2075,0.1388 -0.0213,0.071 -0.0463,0.14 -0.0675,0.2075 -0.0438,0.021 -0.0913,0.046 -0.13875,0.069 -0.0263,0.115 -0.0475,0.2313 -0.0687,0.3463 l -0.0687,0 c -0.0238,0.092 -0.05,0.1837 -0.07,0.275 l -0.0713,0 c -0.0212,0.092 -0.0475,0.185 -0.0687,0.2762 -0.0437,0.024 -0.09,0.047 -0.1375,0.069 -0.02,0.094 -0.0438,0.1837 -0.0688,0.275 -0.0462,0.026 -0.0912,0.048 -0.13875,0.071 -0.02,0.091 -0.0462,0.1813 -0.0687,0.2763 -0.0675,0.046 -0.1375,0.094 -0.20625,0.1387 l 0,0.14 c -0.0675,0.04 -0.13625,0.09 -0.2075,0.135 l 0,0.1363 -0.0675,0 0,0.3487 c -0.0712,0.045 -0.14,0.09 -0.205,0.1375 -0.0263,0.094 -0.0475,0.1825 -0.0712,0.275 -0.0488,0.021 -0.0925,0.046 -0.13875,0.069 l 0,0.1387 -0.0687,0 0,0.1375 c -0.0913,0.068 -0.18375,0.1375 -0.27625,0.2063 l 0,0.1387 c -0.0487,0.023 -0.09,0.048 -0.1375,0.069 l 0,0.1362 -0.0687,0 0,0.14 c -0.0463,0.023 -0.0937,0.05 -0.1375,0.07 l 0,0.1388 -0.0712,0 0,0.1375 -0.13625,0.1387 0,0.14 c -0.0487,0.02 -0.0925,0.039 -0.13875,0.065 -0.0238,0.094 -0.045,0.1838 -0.07,0.275 -0.0475,0.025 -0.0925,0.047 -0.1375,0.071 -0.0475,0.1387 -0.0913,0.275 -0.13875,0.4125 -0.0463,0.025 -0.0925,0.047 -0.13875,0.072 -0.045,0.1375 -0.0913,0.2737 -0.13875,0.4125 l -0.0637,0 c -0.0225,0.095 -0.0488,0.1862 -0.0737,0.2762 -0.0463,0.024 -0.09,0.046 -0.13375,0.07 l 0,0.2075 c -0.0475,0.021 -0.0937,0.045 -0.1425,0.065 l 0,0.4138 c 0.1425,0.1212 0.16625,0.2625 0.27625,0.4175 0.1625,0.14 0.3225,0.2762 0.485,0.4162 l 0,0.1363 c 0.045,0.024 0.0937,0.045 0.13875,0.066 l 0,0.072 c 0.0675,0.043 0.1375,0.09 0.20625,0.14 l 0,0.1363 c 0.0463,0.021 0.0937,0.046 0.13625,0.066 0.025,0.072 0.05,0.1388 0.07,0.2075 0.0937,0.07 0.18375,0.1388 0.2775,0.21 l 0,0.1375 c 0.0675,0.045 0.1375,0.087 0.2075,0.1363 l 0,0.1375 c 0.045,0.024 0.0888,0.048 0.13625,0.07 0.0225,0.069 0.0475,0.1375 0.07,0.205 l 0.0687,0 0,0.1425 c 0.0463,0.02 0.09,0.045 0.13875,0.068 l 0,0.1375 c 0.0712,0.045 0.13625,0.091 0.205,0.1387 l 0,0.1375 c 0.05,0.023 0.0925,0.049 0.13875,0.07 l 0,0.1375 c 0.0487,0.02 0.0937,0.044 0.14,0.066 0.0475,0.1425 0.0925,0.2787 0.13625,0.415 0.0475,0.025 0.095,0.045 0.1375,0.069 0.0225,0.096 0.0487,0.1863 0.0687,0.2788 0.0475,0.02 0.0925,0.048 0.13875,0.068 0.025,0.095 0.0488,0.1862 0.0688,0.2787 0.0475,0.024 0.0937,0.044 0.1375,0.071 l 0,0.1337 0.14,0.1375 0,0.14 0.07,0 0,0.1338 0.0687,0 0,0.1412 0.0687,0 0,0.1375 0.13875,0.1388 0,0.1362 c 0.0462,0.024 0.0887,0.046 0.1375,0.071 l 0,0.2075 0.0675,0 0,0.1387 0.07,0 c 0.0463,0.1363 0.0937,0.2725 0.13625,0.415 l 0.0725,0 0,0.205 0.0662,0 0,0.1363 0.0675,0 c 0.0263,0.094 0.0488,0.1837 0.0713,0.2787 l 0.07,0 0,0.2075 0.065,0 0,0.1363 0.0712,0 0,0.2062 0.0725,0 c 0.0187,0.1163 0.0425,0.23 0.0662,0.3463 l 0.07,0 0,0.1375 0.0687,0 0,0.205 0.0675,0 0,0.1412 0.07,0 c 0.0462,0.2075 0.0937,0.4138 0.1375,0.6188 l 0.07,0 0,0.2075 0.0675,0 0,0.2075 0.0675,0 0,0.2075 0.0725,0 0,0.2075 0.0675,0 c 0.0225,0.16 0.0475,0.3225 0.0687,0.485 l 0.07,0 c 0.0463,0.25 0.0925,0.5037 0.13875,0.7587 l 0.0687,0 c 0.0213,0.1838 0.0463,0.365 0.0687,0.5538 l 0.0687,0 c 0.025,0.2287 0.0488,0.4575 0.0688,0.6887 l 0.07,0 c 0.0462,0.8275 0.0888,1.6563 0.13625,2.485 0.18125,0.66 0.1125,2.49 0,3.1763 -0.0212,0.4125 -0.0475,0.825 -0.0675,1.2412 l -0.0687,0 0,0.4838 c -0.12375,0.4075 -0.21625,0.9725 -0.345,1.3775 l 0,0.345 -0.0687,0 c -0.0238,0.1625 -0.0463,0.3225 -0.07,0.4812 l -0.07,0 0,0.2788 -0.0687,0 0,0.2762 -0.0675,0 0,0.2075 -0.0725,0 c -0.0425,0.2275 -0.09,0.4613 -0.135,0.6925 l -0.07,0 0,0.1338 -0.0687,0 0,0.2075 -0.0687,0 c -0.0238,0.1187 -0.0475,0.2312 -0.07,0.3487 l -0.0675,0 0,0.135 -0.0687,0 0,0.2075 -0.07,0 c -0.0238,0.1188 -0.0475,0.23 -0.0662,0.345 l -0.0725,0 c -0.0225,0.092 -0.045,0.185 -0.0712,0.2788 l -0.065,0 0,0.2075 -0.07,0 c -0.045,0.1337 -0.09,0.2725 -0.13875,0.41 l -0.0662,0 c -0.025,0.096 -0.0462,0.185 -0.0725,0.2775 -0.0425,0.024 -0.09,0.045 -0.13625,0.07 -0.0225,0.092 -0.0437,0.185 -0.07,0.2737 -0.0462,0.025 -0.0913,0.05 -0.1375,0.069 -0.0213,0.094 -0.0463,0.1862 -0.0675,0.275 -0.0438,0.024 -0.0913,0.047 -0.13875,0.071 -0.0263,0.094 -0.0475,0.1825 -0.0687,0.2788 -0.0475,0.023 -0.0925,0.046 -0.13875,0.07 -0.0225,0.069 -0.0463,0.135 -0.0713,0.2025 l -0.0687,0 c -0.0437,0.1387 -0.09,0.2775 -0.1375,0.4162 -0.0438,0.022 -0.09,0.046 -0.135,0.069 -0.025,0.091 -0.0462,0.185 -0.0725,0.2762 -0.0462,0.022 -0.0925,0.047 -0.13625,0.07 l 0,0.14 c -0.07,0.044 -0.13875,0.089 -0.20625,0.1363 l 0,0.1362 c -0.0462,0.024 -0.0913,0.048 -0.14,0.071 l 0,0.1362 c -0.0675,0.045 -0.13875,0.092 -0.2075,0.1388 l 0,0.1362 c -0.0437,0.025 -0.0913,0.045 -0.13625,0.071 l 0,0.1362 c -0.0925,0.069 -0.185,0.14 -0.2775,0.21 l 0,0.1375 c -0.11375,0.089 -0.23,0.1825 -0.34375,0.275 l 0,0.14 c -0.2525,0.2275 -0.50625,0.4588 -0.76,0.6888 l 0,0.135 c -0.0475,0.025 -0.0913,0.05 -0.13875,0.07 -0.115,0.14 -0.23,0.2762 -0.34125,0.415 l -0.14375,0 c -0.20625,0.2312 -0.4125,0.4625 -0.6175,0.69 l -0.13875,0 c -0.0925,0.1162 -0.18375,0.2312 -0.27375,0.3475 l -0.14,0 c -0.0712,0.094 -0.14,0.1825 -0.20875,0.275 l -0.13625,0 c -0.0488,0.069 -0.0925,0.14 -0.14,0.2075 l -0.13625,0 c -0.0462,0.066 -0.0937,0.1387 -0.13625,0.2062 l -0.14125,0 c -0.0225,0.048 -0.045,0.094 -0.0687,0.14 -0.0675,0.021 -0.13875,0.045 -0.2075,0.065 -0.0687,0.096 -0.1375,0.1875 -0.2075,0.2788 l -0.13625,0 c -0.0475,0.069 -0.0913,0.1387 -0.13875,0.2075 l -0.14,0 c -0.0437,0.069 -0.0912,0.1387 -0.14,0.2075 l -0.13375,0 c -0.0238,0.044 -0.0463,0.091 -0.07,0.1362 -0.07,0.024 -0.1375,0.047 -0.20625,0.071 l 0,0.069 -0.1375,0 c -0.0237,0.044 -0.05,0.091 -0.07,0.1375 -0.0675,0.023 -0.13625,0.045 -0.20875,0.069 l 0,0.069 c -0.13875,0.048 -0.275,0.092 -0.41375,0.1363 -0.0225,0.045 -0.0462,0.092 -0.0687,0.1387 -0.0925,0.026 -0.18625,0.047 -0.27375,0.071 -0.025,0.045 -0.0475,0.089 -0.0687,0.1387 -0.07,0.021 -0.1375,0.045 -0.20625,0.066 l 0,0.071 c -0.0963,0.02 -0.18625,0.047 -0.28,0.067 l -0.1375,0.14 -0.13875,0 0,0.07 -0.13625,0 0,0.066 -0.13875,0 0,0.074 -0.14125,0 0,0.068 c -0.09,0.021 -0.18,0.044 -0.27125,0.066 l 0,0.072 c -0.0937,0.019 -0.185,0.043 -0.27875,0.064 l 0,0.07 c -0.0913,0.025 -0.18125,0.047 -0.275,0.069 l 0,0.07 -0.1375,0 0,0.069 -0.13875,0 0,0.069 -0.13625,0 0,0.067 -0.14125,0 0,0.071 c -0.0888,0.021 -0.18125,0.045 -0.275,0.069 l 0,0.065 -0.13625,0 0,0.076 -0.2075,0 0,0.066 c -0.11625,0.023 -0.23125,0.045 -0.3475,0.07 l 0,0.066 c -0.09,0.024 -0.1825,0.045 -0.27625,0.071 l 0,0.07 -0.205,0 0,0.066 -0.14,0 0,0.071 -0.20875,0 0,0.068 -0.1325,0 0,0.07 c -0.16375,0.025 -0.3275,0.045 -0.48625,0.069 l 0,0.07 -0.20625,0 0,0.066 -0.21125,0 0,0.071 c -0.15875,0.024 -0.32,0.045 -0.48,0.07 l 0,0.069 c -0.255,0.043 -0.50375,0.091 -0.76125,0.1375 l 0,0.067 -0.275,0 0,0.071 -0.13625,0 0,0.069 -0.345,0 0,0.067 -0.485,0 0,0.071 -0.415,0 0,0.066 -0.4125,0 0,0.07 -0.76,0 0,0.069 -0.7575,0 c 0,0 0.0113,0.075 -0.14,0.071 -0.0975,-0.01 0.0263,-0.069 -0.0662,-0.071 l 0,0.071 -0.14125,0 -2.96625,0 0,-0.071 -1.245,0 0,-0.069 -0.6875,0 0,-0.07 -0.415,0 0,-0.066 -0.48375,0 0,-0.071 -0.2775,0 0,-0.067 c -0.22875,-0.021 -0.46,-0.049 -0.68875,-0.069 -0.5525,-0.185 -1.10375,-0.37 -1.655,-0.5525 l 0,-0.07 -0.14125,0 0,-0.069 -0.20625,0 c -0.0238,-0.049 -0.0463,-0.094 -0.07,-0.1375 l -0.2075,0 0,-0.071 -0.13625,0 0,-0.066 -0.13875,0 0,-0.07 c -0.0937,-0.026 -0.1875,-0.047 -0.27625,-0.071 l 0,-0.066 -0.1375,0 0,-0.07 -0.13875,0 0,-0.066 -0.1375,0 0,-0.076 -0.1375,0 0,-0.065 -0.1375,0 0,-0.069 c -0.0937,-0.024 -0.1875,-0.043 -0.27875,-0.071 l 0,-0.067 -0.1375,0 0,-0.069 c -0.2975,-0.024 -0.59625,-0.044 -0.89875,-0.069 l 0,0.069 c -0.3725,0.1062 -1.07875,-0.1175 -1.30875,-0.2075 l -0.2075,0 0,-0.07 c -0.0687,-0.045 -0.14,-0.09 -0.20625,-0.1363 l 0,-0.1337 c -0.2775,-0.2563 -0.55375,-0.51 -0.8325,-0.765 l -0.20375,0 c -0.0238,-0.046 -0.0463,-0.094 -0.0675,-0.1388 l -0.21,0 0,-0.069 -0.1375,0 0,-0.068 -0.1375,0 0,-0.069 -0.14,0 0,-0.069 -0.13625,0 0,-0.069 -0.13625,0 0,-0.069 -0.13875,0 0,-0.069 -0.14125,0 0,-0.071 -0.135,0 0,-0.067 -0.13875,0 0,-0.069 -0.13875,0 -0.13625,-0.1387 -0.14125,0 c -0.0238,-0.045 -0.045,-0.09 -0.07,-0.1375 l -0.13625,0 0,-0.07 -0.135,0 0,-0.069 -0.14125,0 -0.13875,-0.1387 -0.13625,0 0,-0.069 c -0.07,-0.024 -0.14,-0.046 -0.21125,-0.071 -0.02,-0.044 -0.0425,-0.089 -0.0662,-0.1363 -0.135,-0.044 -0.27125,-0.091 -0.41375,-0.1362 l 0,-0.072 c -0.0687,-0.02 -0.13875,-0.043 -0.20625,-0.066 -0.0263,-0.048 -0.0475,-0.095 -0.0687,-0.1387 l -0.13875,0 c -0.0213,-0.045 -0.0475,-0.093 -0.0712,-0.1363 l -0.135,0 c -0.0225,-0.05 -0.0463,-0.094 -0.07,-0.14 l -0.14125,0 0,-0.067 c -0.0662,-0.024 -0.13625,-0.049 -0.205,-0.071 -0.025,-0.045 -0.0425,-0.091 -0.0675,-0.1363 l -0.13625,0 c -0.05,-0.071 -0.095,-0.14 -0.14125,-0.2075 l -0.13625,0 c -0.0475,-0.069 -0.0937,-0.14 -0.13875,-0.2062 l -0.13875,0 c -0.045,-0.07 -0.0913,-0.1388 -0.14,-0.2088 l -0.13875,0 c -0.0675,-0.095 -0.135,-0.1837 -0.205,-0.2775 l -0.13625,0 c -0.0462,-0.069 -0.0937,-0.135 -0.13875,-0.205 -0.0662,-0.024 -0.13625,-0.047 -0.2075,-0.069 l 0,-0.071 c -0.15875,-0.1287 -0.2575,-0.2825 -0.4825,-0.3437 l 0,-0.1363 c -0.25125,-0.1125 -0.8975,-0.7 -0.9675,-0.9662 l -0.1375,0 0,-0.07 c -0.0475,-0.024 -0.0888,-0.049 -0.1375,-0.071 l 0,-0.1362 c -0.18625,-0.1625 -0.36875,-0.3225 -0.555,-0.4838 l 0,-0.1387 c -0.0888,-0.067 -0.18375,-0.1363 -0.27375,-0.205 l 0,-0.1388 c -0.0462,-0.023 -0.0937,-0.048 -0.14,-0.069 l 0,-0.1388 c -0.09,-0.069 -0.18125,-0.1387 -0.275,-0.2075 l 0,-0.1387 c -0.0488,-0.024 -0.0925,-0.044 -0.1375,-0.069 l 0,-0.1387 c -0.0688,-0.044 -0.13875,-0.092 -0.205,-0.1388 -0.025,-0.09 -0.0475,-0.1837 -0.0725,-0.2725 l -0.0687,0 c -0.025,-0.071 -0.045,-0.14 -0.0688,-0.21 -0.0425,-0.022 -0.0937,-0.045 -0.1375,-0.069 l 0,-0.1338 c -0.045,-0.026 -0.095,-0.051 -0.1375,-0.071 l 0,-0.1413 c -0.0463,-0.019 -0.0937,-0.044 -0.1375,-0.069 l 0,-0.1363 c -0.0462,-0.021 -0.0937,-0.045 -0.14125,-0.071 -0.0438,-0.1363 -0.0913,-0.275 -0.1375,-0.4138 -0.045,-0.022 -0.0913,-0.042 -0.1375,-0.069 l 0,-0.1388 -0.0687,0 0,-0.1375 -0.1375,-0.1362 0,-0.1363 c -0.0475,-0.026 -0.0913,-0.048 -0.1375,-0.071 -0.0475,-0.1363 -0.0925,-0.2763 -0.13875,-0.4125 l -0.07,0 0,-0.14 -0.0662,0 0,-0.14 -0.0687,0 c -0.0463,-0.1363 -0.095,-0.2725 -0.14,-0.41 l -0.07,0 0,-0.21 -0.0687,0 c -0.0225,-0.091 -0.0463,-0.185 -0.0675,-0.2725 l -0.07,0 c -0.0237,-0.14 -0.0475,-0.2813 -0.07,-0.4163 l -0.0662,0 0,-0.14 -0.07,0 c -0.025,-0.1362 -0.0438,-0.2762 -0.07,-0.4125 l -0.0675,0 0,-0.1387 -0.0687,0 c -0.0263,-0.14 -0.0475,-0.2788 -0.0725,-0.415 l -0.0675,0 0,-0.1388 -0.0675,0 0,-0.2025 -0.0713,0 0,-0.2125 -0.0675,0 0,-0.205 -0.0712,0 c -0.0425,-0.275 -0.09,-0.5512 -0.135,-0.83 l -0.0713,0 0,-0.2037 -0.0687,0 0,-0.2738 -0.0687,0 0,-0.2775 -0.0687,0 0,-0.345 -0.0687,0 0,-0.2775 -0.0675,0 0,-0.275 -0.0687,0 c -0.025,-0.2525 -0.0487,-0.5037 -0.07,-0.7612 -0.18625,-0.6238 -0.27375,-1.3025 -0.27625,-2.1363 -0.004,-0.8412 -0.23,-2.1562 0,-2.9687 l 0,-0.6913 0.07,0 0,-0.4875 0.07,0 0,-0.4787 0.0675,0 0,-0.3463 0.0687,0 0,-0.4125 0.07,0 0,-0.345 0.0687,0 0,-0.2762 0.0675,0 0,-0.3463 0.0687,0 0,-0.2075 0.0687,0 0,-0.345 0.0687,0 0,-0.2037 0.0687,0 0,-0.21 0.0713,0 0,-0.21 0.0662,0 0,-0.1363 0.0687,0 0,-0.2075 0.0712,0 0,-0.1375 0.0675,0 c 0.0238,-0.1387 0.0463,-0.2737 0.0713,-0.4137 l 0.0675,0 0,-0.1363 0.0675,0 0,-0.21 0.0725,0 c 0.045,-0.1362 0.0888,-0.2737 0.13625,-0.415 l 0.07,0 0,-0.1337 0.07,0 0,-0.2125 0.0662,0 0,-0.135 0.07,0 c 0.0213,-0.094 0.0463,-0.185 0.07,-0.2763 l 0.0675,0 0,-0.2087 0.0687,0 c 0.0463,-0.1363 0.0937,-0.275 0.13875,-0.4125 l 0.0712,0 0,-0.1413 0.0687,0 0,-0.1337 0.0662,0 c 0.0463,-0.14 0.0925,-0.2775 0.14,-0.4113 0.045,-0.027 0.0887,-0.047 0.13625,-0.071 l 0,-0.1388 0.07,0 0,-0.14 0.1375,-0.1387 0,-0.1363 0.0687,0 c 0.0238,-0.071 0.0462,-0.14 0.0712,-0.2075 0.045,-0.021 0.0888,-0.047 0.13625,-0.069 l 0,-0.1363 c 0.0463,-0.026 0.0937,-0.048 0.14,-0.071 l 0,-0.1375 0.0687,0 c 0.0213,-0.071 0.0438,-0.1375 0.0687,-0.2075 0.0438,-0.023 0.0913,-0.046 0.1375,-0.071 l 0,-0.1362 c 0.0687,-0.049 0.1375,-0.095 0.20625,-0.1375 l 0,-0.1363 c 0.0688,-0.05 0.1375,-0.091 0.21,-0.1425 l 0,-0.1362 c 0.0437,-0.023 0.0875,-0.044 0.13625,-0.069 l 0,-0.1412 c 0.0438,-0.019 0.0925,-0.044 0.13875,-0.066 0.0675,-0.091 0.13875,-0.185 0.2075,-0.2737 l 0.0663,0 0,-0.14 c 0.0937,-0.07 0.1875,-0.1388 0.2775,-0.205 l 0,-0.1388 c 0.22875,-0.21 0.46,-0.415 0.69125,-0.625 0.0475,-0.086 0.09,-0.1812 0.1375,-0.2725 l 0.14,0 c 0.055,-0.24 0.52125,-0.7 0.75375,-0.7612 0.0512,-0.2025 0.08,-0.2238 0.28,-0.2738 l 0,-0.1387 0.0675,0 c 0.0212,-0.046 0.0475,-0.094 0.0712,-0.1413 l 0.13625,0 0,-0.067 c 0.1525,-0.1312 0.4925,-0.3537 0.34875,-0.76 l -0.07,0 c -0.0475,-0.1362 -0.095,-0.275 -0.14125,-0.4125 l -0.0675,0 0,-0.1387 -0.07,0 0,-0.135 -0.0687,0 c -0.15875,-0.37 -0.32375,-0.7388 -0.48625,-1.1088 -0.0425,-0.021 -0.0888,-0.046 -0.13375,-0.069 l 0,-0.1375 -0.07,0 0,-0.1375 -0.13625,-0.1388 0,-0.1362 c -0.05,-0.025 -0.095,-0.045 -0.13875,-0.069 l 0,-0.1387 -0.0687,0 0,-0.1375 -0.14,-0.1413 0,-0.1362 c -0.0438,-0.024 -0.0913,-0.045 -0.1375,-0.071 -0.0238,-0.091 -0.0475,-0.1812 -0.0687,-0.2712 -0.0475,-0.028 -0.09,-0.049 -0.1375,-0.071 -0.0475,-0.1375 -0.0937,-0.2762 -0.1375,-0.4137 -0.0475,-0.023 -0.0937,-0.047 -0.14125,-0.07 -0.0213,-0.091 -0.0425,-0.185 -0.0662,-0.2738 -0.0463,-0.028 -0.0937,-0.048 -0.14125,-0.072 -0.02,-0.09 -0.0412,-0.1837 -0.0687,-0.2737 -0.045,-0.026 -0.09,-0.049 -0.13625,-0.071 -0.0237,-0.091 -0.045,-0.1825 -0.0687,-0.275 -0.0462,-0.024 -0.0937,-0.047 -0.14,-0.07 -0.0225,-0.091 -0.0413,-0.185 -0.0687,-0.2762 l -0.0663,0 c -0.025,-0.069 -0.0462,-0.1363 -0.0687,-0.205 -0.0475,-0.026 -0.0937,-0.05 -0.13875,-0.071 l 0,-0.1387 c -0.0463,-0.021 -0.095,-0.044 -0.13875,-0.069 -0.0225,-0.068 -0.0487,-0.1362 -0.07,-0.205 l -0.0662,0 c -0.025,-0.094 -0.0475,-0.1875 -0.0725,-0.2787 -0.045,-0.02 -0.0937,-0.044 -0.1375,-0.066 l 0,-0.1387 c -0.0425,-0.023 -0.0937,-0.046 -0.1375,-0.069 l 0,-0.1387 c -0.045,-0.024 -0.095,-0.049 -0.1375,-0.069 l 0,-0.1387 -0.0688,0 c -0.025,-0.071 -0.0475,-0.14 -0.0687,-0.2075 -0.0462,-0.021 -0.0937,-0.046 -0.14125,-0.066 l 0,-0.14 c -0.0438,-0.025 -0.0913,-0.044 -0.1375,-0.07 l 0,-0.1387 -0.0662,0 c -0.025,-0.067 -0.0475,-0.135 -0.0712,-0.205 -0.0475,-0.024 -0.0913,-0.045 -0.1375,-0.07 l 0,-0.14 c -0.0687,-0.045 -0.13875,-0.09 -0.20625,-0.1338 l 0,-0.1387 c -0.0475,-0.024 -0.0925,-0.047 -0.13875,-0.071 l 0,-0.1362 c -0.0462,-0.021 -0.0937,-0.045 -0.13625,-0.071 l 0,-0.1362 c -0.0687,-0.046 -0.14,-0.092 -0.20875,-0.14 l 0,-0.1388 c -0.0487,-0.021 -0.0925,-0.044 -0.13875,-0.069 l 0,-0.135 -0.0675,0 c -0.0238,-0.071 -0.0488,-0.1388 -0.07,-0.2075 -0.0475,-0.025 -0.09,-0.047 -0.13625,-0.069 l 0,-0.1387 c -0.07,-0.047 -0.14,-0.091 -0.2075,-0.1388 l 0,-0.1375 c -0.0687,-0.047 -0.14125,-0.094 -0.20875,-0.1412 l 0,-0.1363 c -0.045,-0.021 -0.0925,-0.048 -0.13875,-0.069 l 0,-0.1375 c -0.0675,-0.044 -0.13875,-0.091 -0.2075,-0.1375 l 0,-0.1363 c -0.0662,-0.05 -0.1375,-0.092 -0.20625,-0.14 l 0,-0.1362 c -0.0687,-0.05 -0.1375,-0.092 -0.20625,-0.1388 l 0,-0.1425 c -0.0675,-0.045 -0.13625,-0.086 -0.20625,-0.1362 l 0,-0.1363 c -0.0475,-0.024 -0.095,-0.046 -0.13625,-0.069 l 0,-0.1388 c -0.0937,-0.066 -0.1875,-0.14 -0.28125,-0.2075 l 0,-0.1362 c -0.0425,-0.026 -0.0888,-0.047 -0.13625,-0.068 l 0,-0.1425 c -0.0675,-0.045 -0.14125,-0.091 -0.20625,-0.1388 l 0,-0.1337 c -0.07,-0.049 -0.13875,-0.097 -0.20875,-0.1425 l 0,-0.1338 c -0.0687,-0.047 -0.1375,-0.094 -0.2075,-0.1412 l 0,-0.1375 c -0.0437,-0.023 -0.0913,-0.044 -0.13875,-0.07 l 0,-0.1375 c -0.0425,-0.02 -0.09,-0.046 -0.13625,-0.068 l 0,-0.1413 c -0.045,-0.019 -0.0912,-0.045 -0.1375,-0.066 l 0,-0.1388 -0.0712,0 0,-0.1387 -0.0675,0 0,-0.2075 c -0.0875,-0.2175 -0.32625,-0.5625 -0.20875,-0.9663 l 0.07,0 0,-0.3462 0.0712,0 c 0.135,-0.6238 0.74625,-0.8263 1.24125,-1.1025 l 0,-0.066 0.13625,0 c 0.0225,-0.05 0.0475,-0.096 0.0725,-0.1412 0.0913,-0.021 0.1825,-0.047 0.27625,-0.069 l 0,-0.07 0.13875,0 0,-0.069 c 0.13625,-0.045 0.27375,-0.094 0.41125,-0.1338 l 0,-0.074 0.20625,0 0,-0.069 c 0.0937,-0.02 0.185,-0.044 0.2775,-0.067 l 0,-0.069 c 0.14,-0.026 0.27625,-0.046 0.41625,-0.074 l 0,-0.067 0.13625,0 0,-0.066 0.27625,0 0,-0.07 c 0.1625,-0.024 0.32125,-0.045 0.48375,-0.07 l 0,-0.066 0.415,0 0,-0.071 0.68875,0 c 0.6375,-0.1763 1.92625,0.043 2.07375,0.5537 l 0.0663,0 0,0.3438 c -0.14125,0.12 -0.0575,0.1537 -0.1375,0.2762 -0.0475,0.023 -0.0888,0.046 -0.1375,0.072 l 0,0.1375 c -0.0687,0.044 -0.13875,0.089 -0.20625,0.1338 l 0,0.14 c -0.0712,0.02 -0.14125,0.046 -0.2075,0.069 -0.0238,0.047 -0.0463,0.092 -0.0713,0.1388 l -0.13875,0 c -0.02,0.049 -0.045,0.094 -0.0662,0.1375 l -0.13875,0 0,0.069 -0.14,0 0,0.07 -0.20375,0 0,0.069 -0.13875,0 0,0.071 c -0.095,0.02 -0.1875,0.045 -0.275,0.067 l 0,0.066 -0.21,0 0,0.071 -0.1375,0 0,0.068 -0.20625,0 0,0.071 c -0.095,0.023 -0.18375,0.044 -0.2775,0.066 l 0,0.07 -0.2075,0 0,0.069 c -0.0913,0.024 -0.1825,0.046 -0.27625,0.074 l 0,0.065 -0.13625,0 c -0.23125,0.1375 -0.46375,0.2775 -0.69125,0.4138 l 0,0.4125 c 0.1075,0.076 0.2775,0.305 0.345,0.4175 l 0,0.1375 c 0.0937,0.07 0.1825,0.1375 0.27625,0.2087 l 0,0.1363 c 0.0463,0.025 0.0913,0.045 0.13875,0.069 0.02,0.069 0.0462,0.1388 0.0675,0.21 0.0937,0.069 0.185,0.1338 0.27625,0.2025 l 0,0.1413 c 0.0712,0.045 0.1375,0.094 0.2075,0.14 l 0,0.1387 c 0.0463,0.02 0.0937,0.041 0.14,0.069 l 0,0.1362 c 0.0687,0.046 0.1375,0.091 0.20625,0.135 l 0,0.14 c 0.0425,0.024 0.0925,0.045 0.1375,0.068 0.025,0.071 0.0437,0.14 0.0687,0.2075 l 0.0687,0 0,0.14 c 0.0438,0.02 0.0925,0.047 0.1375,0.065 l 0,0.1425 c 0.0475,0.023 0.0925,0.046 0.13875,0.067 l 0,0.1375 c 0.0475,0.023 0.0937,0.046 0.13875,0.07 0.0237,0.09 0.045,0.1838 0.07,0.2763 0.0675,0.046 0.13875,0.094 0.2075,0.1375 0.02,0.094 0.045,0.185 0.0663,0.2737 0.0687,0.048 0.14125,0.092 0.20875,0.14 l 0,0.1413 c 0.045,0.02 0.09,0.045 0.13875,0.066 0.0212,0.091 0.0462,0.185 0.0662,0.2775 0.0487,0.021 0.0925,0.044 0.13875,0.069 l 0,0.1362 c 0.0475,0.024 0.095,0.044 0.1375,0.071 l 0,0.135 c 0.0475,0.025 0.0937,0.048 0.14125,0.069 l 0,0.1388 c 0.0438,0.028 0.09,0.048 0.1375,0.069 l 0,0.1388 c 0.0475,0.026 0.09,0.045 0.1375,0.069 l 0,0.1388 0.0687,0 c 0.0213,0.069 0.0463,0.14 0.0712,0.205 0.0425,0.024 0.0888,0.049 0.13625,0.074 l 0,0.1338 c 0.045,0.024 0.0888,0.047 0.13875,0.071 l 0,0.1388 c 0.0438,0.024 0.0888,0.047 0.13875,0.07 l 0,0.135 c 0.045,0.024 0.0913,0.048 0.13625,0.07 l 0,0.1387 c 0.045,0.022 0.0925,0.046 0.135,0.069 0.0263,0.091 0.0463,0.1825 0.0688,0.2737 0.0725,0.047 0.14125,0.094 0.21125,0.1413 0.0213,0.089 0.045,0.1837 0.0688,0.2762 0.0675,0.046 0.13875,0.091 0.20625,0.1363 0.0225,0.094 0.0475,0.1837 0.0687,0.275 0.0463,0.025 0.09,0.047 0.1375,0.071 0.0238,0.092 0.0462,0.1813 0.07,0.275 0.045,0.025 0.0937,0.047 0.14125,0.069 l 0,0.1387 c 0.0412,0.021 0.0887,0.045 0.1325,0.071 l 0,0.1362 c 0.0475,0.021 0.095,0.046 0.14,0.069 0.0225,0.091 0.0475,0.185 0.0687,0.2762 0.07,0.046 0.1375,0.091 0.205,0.1413 l 0,0.1375 0.0712,0 0,0.1375 c 0.0475,0.021 0.0925,0.042 0.1375,0.065 0.025,0.096 0.0475,0.1875 0.07,0.2812 0.0462,0.021 0.0913,0.043 0.13875,0.066 0.0225,0.091 0.045,0.1837 0.0688,0.2775 0.045,0.021 0.0912,0.048 0.13875,0.066 0.045,0.14 0.09,0.2788 0.1375,0.4188 0.0475,0.02 0.0925,0.04 0.13875,0.066 0.0437,0.1363 0.0937,0.2763 0.13625,0.4125 0.0463,0.025 0.0913,0.05 0.13875,0.069 l 0,0.1387 0.0662,0 0,0.1388 c 0.05,0.026 0.0937,0.045 0.14125,0.071 l 0,0.1363 0.07,0 0,0.14 c 0.135,0.225 0.27625,0.4587 0.41375,0.6887 l 0.20625,0 0,-0.07 c 0.0925,-0.021 0.18375,-0.046 0.27875,-0.069 l 0,-0.069 0.135,0 c 0.0237,-0.044 0.0462,-0.091 0.0662,-0.1387 0.095,-0.023 0.18875,-0.044 0.28,-0.07 l 0,-0.068 0.1375,0 0,-0.069 0.13625,0 0.14,-0.1362 0.13625,0 c 0.025,-0.045 0.0463,-0.094 0.0687,-0.14 l 0.13875,0 0.14,-0.1363 0.1375,0 0,-0.071 0.13625,0 0,-0.068 0.14,0 0,-0.071 0.13625,0 0,-0.066 0.1375,0 0,-0.072 0.13875,0 0,-0.069 0.14125,0 0,-0.069 0.135,0 0,-0.067 0.20875,0 c 0.025,-0.045 0.0463,-0.092 0.0688,-0.14 l 0.2075,0 0,-0.067 c 0.0925,-0.024 0.18375,-0.045 0.27625,-0.069 l 0,-0.066 0.20875,0 0,-0.071 0.13625,0 0,-0.069 0.20625,0 0,-0.069 c 0.0937,-0.024 0.185,-0.045 0.28,-0.07 l 0,-0.069 0.205,0 0,-0.071 0.1375,0 0,-0.066 c 0.13875,-0.023 0.275,-0.047 0.4125,-0.07 l 0,-0.071 0.13875,0 0,-0.067 c 0.115,-0.024 0.23125,-0.046 0.3475,-0.069 l 0,-0.066 c 0.1375,-0.028 0.275,-0.048 0.41125,-0.072 l 0,-0.069 0.1375,0 0,-0.069 c 0.165,-0.023 0.3275,-0.046 0.48625,-0.071 l 0,-0.065 0.205,0 0,-0.071 0.2075,0 0,-0.066 0.2075,0 0,-0.071 0.20875,0 0,-0.066 0.1375,0 0,-0.071 0.34375,0 0,-0.07 0.2075,0 0,-0.066 c 0.23,-0.048 0.45875,-0.095 0.69125,-0.1388 l 0,-0.071 c 0.075,-0.078 0.0275,0 0.0675,-0.1363 0.0475,-0.084 0.075,0.027 0.07,-0.069 l -0.07,0 0,-0.4838 -0.0675,0 0,-0.4837 -0.0687,0 0,-0.555 -0.0712,0 0,-0.55 -0.0662,0 0,-0.6913 -0.07,0 0,-0.8975 -0.07,0 0,-1.3775 c -0.115,-0.42 0.0225,-1.08 -0.0687,-1.5912 -0.09,-0.485 0.0162,-1.96 0.20875,-2.6188 0.0662,-0.5337 0.1375,-1.0612 0.20625,-1.5912 l 0.61875,-1.725 c 0.0475,-0.023 0.0937,-0.048 0.14125,-0.07 l 0,-0.14 0.065,0 0,-0.1388 0.07,0 0,-0.1362 0.14125,-0.14 0,-0.135 0.0675,0 c 0.0225,-0.066 0.0438,-0.14 0.07,-0.2075 0.0437,-0.025 0.0888,-0.048 0.13625,-0.069 l 0,-0.1387 c 0.0475,-0.023 0.095,-0.045 0.13875,-0.069 l 0,-0.1387 c 0.0475,-0.024 0.09,-0.043 0.13875,-0.069 l 0,-0.1362 0.0662,0 c 0.0725,-0.092 0.14,-0.1838 0.21,-0.2763 l 0.13875,0 c 0.11625,-0.1387 0.2275,-0.2787 0.345,-0.4137 l 0.13625,0 c 0.0462,-0.066 0.09,-0.1388 0.1375,-0.2075 l 0.14,0 c 0.0225,-0.045 0.045,-0.092 0.0675,-0.1388 0.0937,-0.026 0.1875,-0.046 0.2775,-0.069 0.0225,-0.047 0.0437,-0.094 0.0687,-0.1363 0.225,-0.1225 1.22875,-0.2462 1.5175,-0.1425 l 0,0.071 0.1375,0 0,0.071 0.28,0 c 0.0187,0.043 0.045,0.089 0.0662,0.1363 l 0.14125,0 c 0.02,0.043 0.045,0.089 0.0662,0.1387 l 0.14125,0 c 0.18,0.21 0.36625,0.4138 0.55,0.6188 0.025,0.425 0.075,0.4787 -0.0713,0.8275 -0.0487,0.029 -0.13875,0.14 -0.13875,0.14 l -0.5475,0 0,0.067 c -0.095,0.026 -0.18875,0.048 -0.2775,0.074 -0.0212,0.044 -0.0475,0.089 -0.0687,0.135 l -0.14125,0 c -0.0225,0.046 -0.0438,0.094 -0.0675,0.1375 l -0.13875,0 c -0.11375,0.1388 -0.23125,0.2788 -0.345,0.415 -0.07,0.045 -0.13625,0.091 -0.2075,0.1388 l 0,0.1375 c -0.0462,0.023 -0.0937,0.045 -0.13625,0.07 -0.025,0.066 -0.0475,0.14 -0.0687,0.205 l -0.07,0 0,0.1375 -0.0713,0 0,0.2062 -0.0687,0 0,0.21 -0.0662,0 0,0.1363 -0.07,0 c -0.0225,0.1387 -0.0475,0.2762 -0.07,0.415 l -0.0688,0 c -0.0212,0.1837 -0.045,0.3675 -0.07,0.5525 l -0.07,0 0,0.2762 -0.0662,0 0,0.2763 -0.0687,0 0,0.2762 -0.0713,0 c -0.0187,0.2513 -0.0437,0.5088 -0.0662,0.76 l -0.0712,0 c -0.0238,0.3438 -0.0438,0.6888 -0.0687,1.0325 l -0.0675,0 0,1.2438 -0.0713,0 0,0.4137 0.0713,0 c -0.025,0.094 -0.0488,0.185 -0.0713,0.2788 -0.0387,0.57 -0.0588,1.4087 0.0713,1.8612 l 0,1.105 0.0675,0 0,0.9663 0.0687,0 0,0.6925 0.0712,0 0,0.55 c 0.0588,0.185 0.185,0.3875 0.3425,0.4837 l 0,0.069 c 0.12125,0.076 0.5975,0.05 0.76,0 l 0,-0.069 0.69125,0 c 0,0 0.0275,-0.1012 0.20875,-0.068 l 0,0.068 c 0,0 0.23,-0.065 0.34625,-0.068 0.33125,0 0.3875,0.06 0.5475,0.068 0.0475,-0.023 0.0925,-0.046 0.13875,-0.068 l 0,0.068 c 0.16125,0.031 0.19125,-0.076 0.27875,-0.068 l 0,0.068 c 0.44375,0.084 1.02625,-0.03 1.37875,0.069 l 0.89625,0 0,0.071 c 0.0962,-0.026 0.18625,-0.045 0.27625,-0.071 l 0,0.071 0.485,0 c 0.375,0.1113 0.93625,0.1625 1.31375,0.275 l 0.41125,0 0,0.069 c 0.25375,0.024 0.50875,0.046 0.76125,0.071 l 0,0.067 0.27625,0 0,0.071 0.275,0 0,0.066 0.20625,0 0,0.07 c 0.185,0.021 0.37,0.046 0.55125,0.071 l 0,0.066 c 0.18375,0.025 0.36875,0.046 0.55375,0.071 l 0,0.066 0.20875,0 0,0.071 0.2025,0 0,0.065 0.21125,0 0,0.071 0.275,0 0,0.069 0.20625,0 0,0.069 0.28,0 0,0.072 0.135,0 0,0.066 0.20875,0 0,0.069 0.20625,0 0,0.067 0.20625,0 0,0.071 0.20875,0 0,0.07 0.13625,0 0,0.066 0.2075,0 0,0.071 c 0.14,0.043 0.27625,0.094 0.415,0.1387 l 0,0.069 0.13625,0 0,0.069 0.14125,0 0,0.071 0.13625,0 0,0.066 0.13875,0 0,0.069 0.1375,0 0.13875,0.1362 0.13625,0 c 0.0275,0.048 0.0462,0.092 0.07,0.1388 0.20875,0.069 0.415,0.1375 0.62125,0.21 0.0462,0.066 0.0925,0.1375 0.13875,0.205 l 0.13625,0 0,0.071 0.2075,0 c 0.0225,0.044 0.0463,0.091 0.0688,0.1363 0.0937,0.021 0.18375,0.046 0.28,0.069 l 0,0.071 c 0.0687,0.02 0.13625,0.044 0.20625,0.068 0.0213,0.046 0.0438,0.092 0.0687,0.1375 0.0875,0.02 0.18125,0.046 0.27375,0.068 0.0225,0.047 0.0463,0.092 0.0687,0.1387 l 0.13875,0 c 0.0225,0.048 0.0462,0.095 0.0675,0.1388 l 0.14125,0 0,0.069 c 0.0663,0.021 0.13875,0.048 0.2075,0.07 0.02,0.046 0.0425,0.093 0.0675,0.1375 l 0.13875,0 c 0.0462,0.069 0.0925,0.1388 0.1375,0.2075 l 0.1375,0 c 0.0238,0.048 0.0463,0.094 0.07,0.1363 l 0.13375,0 c 0.0288,0.045 0.0488,0.094 0.0737,0.14 l 0.13375,0 0,0.07 c 0.095,0.024 0.18625,0.044 0.28,0.066 l 0,0.074 0.0675,0 0,-0.074 c 0.18625,-0.1262 0.21875,-0.295 0.3475,-0.4812 0.0437,-0.02 0.0913,-0.048 0.13625,-0.07 0.0225,-0.09 0.0463,-0.1838 0.0675,-0.2763 0.045,-0.021 0.0937,-0.046 0.14,-0.069 l 0,-0.1388 0.07,0 c 0.0225,-0.091 0.0475,-0.1862 0.0675,-0.275 0.045,-0.023 0.0925,-0.045 0.13875,-0.069 0.0212,-0.095 0.0475,-0.1863 0.07,-0.275 0.0475,-0.025 0.0913,-0.045 0.13625,-0.069 0.0475,-0.1387 0.0937,-0.2762 0.1375,-0.4175 0.0475,-0.021 0.0925,-0.041 0.1375,-0.069 l 0,-0.1388 0.0737,0 0,-0.1362 0.1375,-0.135 0,-0.14 c 0.0437,-0.025 0.09,-0.045 0.13625,-0.069 0.025,-0.096 0.045,-0.1837 0.0687,-0.2762 0.045,-0.023 0.0925,-0.047 0.13875,-0.07 0.0225,-0.091 0.0412,-0.185 0.0687,-0.2738 l 0.0675,0 c 0.0225,-0.072 0.045,-0.1412 0.0687,-0.21 0.0475,-0.023 0.0925,-0.046 0.1375,-0.071 0.0225,-0.091 0.0487,-0.1825 0.0687,-0.2738 0.0475,-0.023 0.095,-0.045 0.1375,-0.066 l 0,-0.1413 c 0.0475,-0.023 0.095,-0.045 0.14375,-0.066 0.0188,-0.071 0.045,-0.1388 0.0637,-0.21 0.07,-0.047 0.13875,-0.091 0.21,-0.1363 l 0,-0.14 c 0.0462,-0.02 0.09,-0.047 0.1375,-0.068 l 0,-0.14 c 0.0687,-0.046 0.13875,-0.094 0.20625,-0.1362 0.2725,-0.4025 0.4525,-1.11 0.96625,-1.2413"
         style="fill:#000000;fill-opacity:1;fill-rule:evenodd;stroke:none"
         id="path4263"
         inkscape:connector-curvature="0" />
      <path
         d="m 240.41819,602.77077 -0.1375,0 c -0.21125,0.3538 -0.56875,0.5238 -0.89749,0.7575 -0.07,0.094 -0.13751,0.19 -0.20751,0.2813 l -0.13874,0 c -0.02,0.043 -0.045,0.087 -0.0713,0.1337 -0.0662,0.026 -0.13375,0.049 -0.20499,0.071 l 0,0.069 -0.13876,0 c -0.045,0.067 -0.0912,0.1388 -0.13624,0.21 -0.13751,0.043 -0.27751,0.089 -0.41625,0.1363 -0.02,0.044 -0.045,0.091 -0.0688,0.1375 -0.0925,0.02 -0.1825,0.044 -0.27625,0.067 -0.0225,0.046 -0.0425,0.094 -0.0675,0.14 l -0.20875,0 0,0.068 -0.13751,0 0,0.069 -0.13625,0 0,0.072 -0.13749,0 0,0.065 c -0.13751,0.048 -0.27625,0.092 -0.41626,0.14 l 0,0.07 -0.2075,0 0,0.069 -0.20625,0 0,0.069 -0.27625,0 0,0.07 -0.34625,0 0,0.069 -0.20499,0 0,0.069 -0.14001,0 0,0.07 -0.20624,0 0,0.066 -0.20625,0 0,0.069 -0.21001,0 0,0.068 -0.27374,0 0,0.071 -0.27625,0 0,0.069 -0.6925,0 0,0.068 -0.96375,0 0,-0.068 c -0.27875,-0.025 -0.5525,-0.045 -0.83001,-0.069 l 0,-0.071 -0.27624,0 0,-0.068 c -0.16126,-0.021 -0.32,-0.043 -0.48125,-0.069 l 0,-0.066 -0.13875,0 0,-0.07 -0.20625,0 0,-0.069 c -0.13875,-0.047 -0.2775,-0.094 -0.41375,-0.1388 l 0,-0.069 -0.13875,0 0,-0.069 c -0.0913,-0.023 -0.185,-0.046 -0.275,-0.07 -0.025,-0.048 -0.0475,-0.092 -0.07,-0.14 l -0.13624,0 c -0.0475,-0.065 -0.0937,-0.1375 -0.1425,-0.2062 l -0.1375,0 c -0.0413,-0.068 -0.0913,-0.1388 -0.13625,-0.2075 l -0.13875,0 c -0.0675,-0.087 -0.13875,-0.1813 -0.20625,-0.2738 l -0.13875,0 c -0.1625,-0.1862 -0.325,-0.3687 -0.48375,-0.5512 -0.0687,-0.046 -0.1375,-0.091 -0.20625,-0.1388 l 0,-0.1425 c -0.0687,-0.046 -0.1375,-0.091 -0.20625,-0.135 l 0,-0.1387 c -0.0462,-0.023 -0.0925,-0.043 -0.1375,-0.069 -0.0263,-0.092 -0.0475,-0.1837 -0.0725,-0.2762 -0.0675,-0.045 -0.13625,-0.091 -0.20625,-0.1388 -0.0238,-0.091 -0.0475,-0.1837 -0.0687,-0.2737 -0.045,-0.025 -0.0913,-0.049 -0.1375,-0.072 -0.0238,-0.09 -0.0475,-0.1813 -0.0687,-0.275 -0.0462,-0.023 -0.0913,-0.045 -0.13875,-0.068 l 0,-0.135 -0.0675,0 0,-0.14 -0.14,-0.1363 0,-0.1412 c -0.0463,-0.023 -0.0875,-0.045 -0.14,-0.069 -0.0662,-0.2075 -0.135,-0.4125 -0.205,-0.6225 l -0.07,0 0,-0.1387 -0.0688,0 c -0.0463,-0.1388 -0.0937,-0.2725 -0.13625,-0.4088 l -0.07,0 c -0.02,-0.14 -0.0475,-0.2762 -0.0662,-0.4175 l -0.07,0 0,-0.1375 -0.07,0 c -0.0675,-0.2962 -0.13875,-0.5975 -0.20875,-0.8975 l -0.0688,0 0,-0.2075 -0.0675,0 0,-0.205 -0.0712,0 c -0.0213,-0.23 -0.0463,-0.4587 -0.0687,-0.6912 -0.19875,-0.6325 -0.275,-1.4475 -0.275,-2.2775 l 0,-0.8963 0.0687,0 0,-0.2075 0.0687,0 0,-0.14 0.0688,0 0,-0.2075 0.0687,0 0,-0.1362 0.0687,0 0,-0.2775 0.0712,0 0,-0.275 0.0675,0 0,-0.2075 0.0688,0 0,-0.2738 0.07,0 0,-0.1425 0.0712,0 0,-0.205 0.0675,0 c 0.0225,-0.091 0.0438,-0.1825 0.07,-0.2775 l 0.07,0 c 0.0187,-0.09 0.0462,-0.1812 0.0662,-0.275 0.0462,-0.026 0.0913,-0.047 0.1375,-0.069 l 0,-0.1388 0.0687,0 0,-0.1362 0.13875,-0.14 0,-0.1338 c 0.095,-0.074 0.1825,-0.1412 0.2775,-0.2125 l 0,-0.069 0.13875,0 c 0.0213,-0.046 0.045,-0.091 0.0687,-0.1363 l 0.13625,0 0,-0.071 c 0.20375,-0.076 0.4125,0.045 0.55125,-0.065 0.16375,-0.1863 0.3225,-0.37 0.485,-0.5538 l 0.1375,0 c 0.025,-0.05 0.045,-0.094 0.0662,-0.1387 0.12,-0.091 0.23375,-0.1825 0.3475,-0.2763 0.0462,-0.115 0.0925,-0.23 0.14,-0.3462 0.1125,-0.021 0.22875,-0.046 0.34375,-0.069 0.0913,-0.1175 0.185,-0.2287 0.27625,-0.34 l 0.14125,0 0.1325,-0.1425 0.1425,0 c 0.0188,-0.045 0.0438,-0.091 0.0637,-0.1387 0.21125,-0.071 0.4175,-0.1388 0.625,-0.2075 0.0475,-0.069 0.09,-0.1363 0.13875,-0.205 l 0.13875,0 c 0.0188,-0.046 0.0425,-0.094 0.0675,-0.1363 0.25625,-0.13 0.32625,0.09 0.62,0 l 0,-0.071 0.2075,0 0,-0.071 0.13875,0 0,-0.067 0.2075,0 0,-0.069 0.20625,0 0,-0.068 0.415,0 0,-0.07 0.2775,0 0,-0.069 0.55125,0 c 1.07375,-0.3037 2.715,0.1175 3.4525,0.4138 l 0.2075,0 0,0.071 0.13625,0 0,0.065 0.20625,0 0,0.071 0.1375,0 0,0.069 0.1375,0 c 0.0275,0.045 0.0475,0.091 0.0712,0.1363 l 0.20375,0 c 0.0275,0.048 0.0475,0.091 0.075,0.1362 0.0888,0.024 0.18125,0.047 0.2725,0.071 0.0475,0.071 0.0937,0.1387 0.14,0.2075 l 0.1375,0 c 0.02,0.044 0.045,0.091 0.0675,0.1387 l 0.13875,0 c 0.115,0.1388 0.22875,0.275 0.345,0.4113 l 0.13875,0 c 0.0213,0.049 0.0463,0.096 0.07,0.14 0.09,0.07 0.185,0.1387 0.2775,0.2075 l 0,0.1387 c 0.13625,0.1138 0.2725,0.2288 0.41,0.345 l 0,0.1388 c 0.0937,0.069 0.1875,0.1362 0.2775,0.205 0.0238,0.094 0.0463,0.1825 0.07,0.28 l 0.0663,0 0,0.1337 0.0712,0 0,0.1388 0.1375,0.14 0,0.1387 c 0.0475,0.021 0.0925,0.045 0.14,0.069 0.0212,0.091 0.045,0.1825 0.0662,0.275 0.0725,0.043 0.1425,0.092 0.20875,0.135 l 0,0.14 c 0.0663,0.045 0.14,0.095 0.2075,0.1362 l 0,0.14 c 0.13875,0.1163 0.275,0.23 0.4125,0.3463 l 0,0.1362 c 0.0713,0.049 0.1375,0.092 0.20625,0.14 0.0263,0.089 0.0475,0.1825 0.0725,0.2763 0.0438,0.023 0.0913,0.046 0.135,0.067 0.025,0.072 0.0475,0.14 0.0725,0.2075 l 0.0662,0 0,0.1412 0.0712,0 0,0.1363 0.0675,0 0,0.2075 0.07,0 c 0.02,0.091 0.0462,0.1837 0.0687,0.2762 l 0.0675,0 0,0.2075 0.07,0 0,0.1363 0.07,0 0,0.2087 0.0662,0 0,0.2763 0.0725,0 0,0.275 0.0687,0 0,0.345 0.0675,0 0,0.5525 0.0663,0 c 0.1,0.3362 0,1.3475 -0.0663,1.5887 l 0,0.5513 -0.0675,0 c -0.0475,0.2762 -0.095,0.5525 -0.14124,0.8262 l -0.0662,0 0,0.21 -0.07,0 c -0.0237,0.1163 -0.0475,0.2263 -0.07,0.3425 l -0.0675,0 c -0.0225,0.094 -0.0488,0.1863 -0.0687,0.2775 l -0.07,0 c -0.02,0.092 -0.0475,0.1813 -0.0675,0.2763 -0.0487,0.024 -0.09,0.044 -0.1375,0.069 -0.0475,0.135 -0.0913,0.2738 -0.1425,0.4113 l -0.065,0 c -0.025,0.07 -0.0462,0.1412 -0.0725,0.2075 -0.0425,0.021 -0.09,0.048 -0.135,0.07 l 0,0.1375 c -0.0925,0.07 -0.18625,0.1387 -0.2775,0.2075 l 0,0.1412 c -0.0925,0.064 -0.185,0.1363 -0.27375,0.2025 l 0,0.14 c -0.0475,0.022 -0.0937,0.046 -0.14,0.069 -0.16125,0.17 -0.4875,0.455 -0.5525,0.6887"
         style="fill:#c60a27;fill-opacity:1;fill-rule:evenodd;stroke:none"
         id="path4267"
         inkscape:connector-curvature="0" />
      <path
         d="m 209.49907,627.95627 -1.6875,0 0,10.2538 1.57125,0 0,-7.9213 5.1725,7.9213 1.70625,0 0,-10.2538 -1.5675,0 0,7.99 -5.195,-7.99 z m 66.19375,0 -1.68375,0 0,10.2538 1.56875,0 0,-7.9213 5.1725,7.9213 1.70875,0 0,-10.2538 -1.57125,0 0,7.99 -5.195,-7.99 z m -29.14875,0 -1.68625,0 0,10.2538 1.57125,0 0,-7.9213 5.17375,7.9213 1.70625,0 0,-10.2538 -1.57125,0 0,7.99 -5.19375,-7.99 z m -44.90625,10.5063 c 1.95125,0 4.90875,-0.7088 4.90875,-5.3488 0,-2.655 -1.08625,-5.35 -4.90875,-5.35 -3.82,0 -4.90625,2.695 -4.90625,5.35 0,4.64 2.95375,5.3488 4.90625,5.3488 m -3.1275,-5.3725 c 0,-3.6013 1.455,-4.3338 3.1275,-4.3338 1.67625,0 3.12875,0.7325 3.12875,4.3338 0,2.1462 -0.25375,4.31 -3.12875,4.31 -2.87375,0 -3.1275,-2.1638 -3.1275,-4.31 m 69.06125,5.3725 c 1.9525,0 4.91,-0.7088 4.91,-5.3488 0,-2.655 -1.0875,-5.35 -4.91,-5.35 -3.81875,0 -4.905,2.695 -4.905,5.35 0,4.64 2.955,5.3488 4.905,5.3488 m -3.12875,-5.3725 c 0,-3.6013 1.45625,-4.3338 3.12875,-4.3338 1.675,0 3.1275,0.7325 3.1275,4.3338 0,2.1462 -0.2525,4.31 -3.1275,4.31 -2.87375,0 -3.12875,-2.1638 -3.12875,-4.31 m -68.42875,-1.5975 c -0.13375,2.49 -1.6175,2.9 -3.395,2.9 l -3.46125,0 0,3.8175 -1.57125,0 0,-10.2538 5.28625,0 c 2.5625,0 3.23375,1.8025 3.14125,3.5363 m -3.4875,-2.5163 -3.36875,0 0,4.4 3.02125,0 c 1.73375,0 2.12625,-1.0075 2.2175,-1.9775 0.0863,-0.9025 -0.3225,-2.4225 -1.87,-2.4225 m 70.795,-1.02 -1.82375,0 -2.88625,4.5263 -2.91,-4.5263 -1.82375,0 3.9475,5.9613 0,4.2925 1.5725,0 0,-4.3188 3.92375,-5.935 z m -37.09,0 -1.82375,0 -2.89,4.5263 -2.90625,-4.5263 -1.82375,0 3.9475,5.9613 0,4.2925 1.56875,0 0,-4.3188 3.9275,-5.935 z m 9.7625,10.2538 1.005,-2.6013 4.75625,0 0.98,2.6013 1.68,0 -4.05,-10.315 -2.01625,0 -3.63125,9.3 -2.50375,0 c -1.76,-0.024 -3.35375,-0.7538 -3.13875,-4.1775 0.1125,-1.8238 0.455,-4.0413 3.0475,-4.0413 l 3.325,0 0,-1.02 -3.47625,0 c -3.495,0 -4.49,2.4038 -4.51375,5.1063 -0.045,5.0387 3.18125,5.1475 4.29375,5.1475 l 4.2425,0 z m 5.2675,-3.88 -3.78625,0 1.90875,-5.0625 1.8775,5.0625 z"
         style="fill:#000000;fill-opacity:1;fill-rule:nonzero;stroke:none"
         id="path4271"
         inkscape:connector-curvature="0" />
    </g>
  </g>
</svg>
