<?xml version="1.0" encoding="UTF-8" standalone="no"?>
<!-- Created with Inkscape (http://www.inkscape.org/) -->

<svg
   xmlns:dc="http://purl.org/dc/elements/1.1/"
   xmlns:cc="http://creativecommons.org/ns#"
   xmlns:rdf="http://www.w3.org/1999/02/22-rdf-syntax-ns#"
   xmlns:svg="http://www.w3.org/2000/svg"
   xmlns="http://www.w3.org/2000/svg"
   xmlns:sodipodi="http://sodipodi.sourceforge.net/DTD/sodipodi-0.dtd"
   xmlns:inkscape="http://www.inkscape.org/namespaces/inkscape"
   width="884.34375"
   height="338.50003"
   id="svg2"
   version="1.1"
   inkscape:version="0.48.4 r9939"
   sodipodi:docname="Pony Video logo 1983.svg">
  <defs
     id="defs4" />
  <sodipodi:namedview
     id="base"
     pagecolor="#ffffff"
     bordercolor="#666666"
     borderopacity="1.0"
     inkscape:pageopacity="0.0"
     inkscape:pageshadow="2"
     inkscape:zoom="0.98994949"
     inkscape:cx="461.61847"
     inkscape:cy="124.30737"
     inkscape:document-units="px"
     inkscape:current-layer="layer1"
     showgrid="false"
     fit-margin-top="0"
     fit-margin-left="0"
     fit-margin-right="0"
     fit-margin-bottom="0"
     inkscape:window-width="1920"
     inkscape:window-height="1006"
     inkscape:window-x="-4"
     inkscape:window-y="-4"
     inkscape:window-maximized="1" />
  <metadata
     id="metadata7">
    <rdf:RDF>
      <cc:Work
         rdf:about="">
        <dc:format>image/svg+xml</dc:format>
        <dc:type
           rdf:resource="http://purl.org/dc/dcmitype/StillImage" />
        <dc:title></dc:title>
      </cc:Work>
    </rdf:RDF>
  </metadata>
  <g
     inkscape:label="Layer 1"
     inkscape:groupmode="layer"
     id="layer1"
     transform="translate(0,-713.86218)">
    <path
       style="fill:#000000;stroke:none"
       d="m 668.28125,713.89343 c -120.25545,0 -217.75,57.02243 -217.75,127.375 0,70.35257 97.49455,127.375 217.75,127.375 110.12532,0 201.16366,-47.81927 215.71875,-109.90625 l -212.9375,0 0,-24.31297 213.28125,0 C 871.00467,771.55192 779.36157,713.89343 668.28125,713.89343 z"
       id="path2996"
       inkscape:connector-curvature="0"
       sodipodi:nodetypes="sssccccs" />
    <path
       style="fill:#000000;stroke:none"
       d="M 208.65625,713.86218 C 93.417279,713.86218 0,768.81054 0,836.61218 c 0,2.60129 0.166523,5.18888 0.4375,7.75 l 0,114.40625 186.90625,0 c 7.01449,0.41912 14.11006,0.625 21.3125,0.625 115.23897,0 208.65625,-54.97961 208.65625,-122.78125 0,-67.80164 -93.41728,-122.75 -208.65625,-122.75 z"
       id="path2998"
       inkscape:connector-curvature="0" />
    <path
       style="font-size:91.58312988px;font-style:normal;font-variant:normal;font-weight:bold;font-stretch:normal;line-height:125%;letter-spacing:0px;word-spacing:0px;fill:#000000;fill-opacity:1;stroke:none;font-family:HelveticaNeueLT Std;-inkscape-font-specification:Sans Bold"
       d="m 173.2505,988.11224 c -10.86659,0.2113 -19.26992,3.3118 -25.21875,9.3437 -5.94885,6.03206 -8.95194,13.71306 -9.03125,23.03126 0.0793,9.0713 3.0824,16.6155 9.03125,22.5937 5.94883,5.9783 14.35216,9.0593 25.21875,9.2813 10.86651,-0.222 19.26985,-3.303 25.21875,-9.2813 5.94878,-5.9782 8.98311,-13.5224 9.0625,-22.5937 -0.0794,-9.3182 -3.11372,-16.9992 -9.0625,-23.03126 -5.9489,-6.0319 -14.35224,-9.1324 -25.21875,-9.3437 z m 0,11.34367 c 6.81113,0.2059 11.68205,2.37429 14.625,6.49999 2.94284,4.1258 4.38362,8.9558 4.3125,14.5313 0.0711,5.3286 -1.36966,10.053 -4.3125,14.125 -2.94295,4.072 -7.81387,6.1897 -14.625,6.4062 -6.81121,-0.2165 -11.68213,-2.3342 -14.625,-6.4062 -2.94292,-4.072 -4.3837,-8.7964 -4.3125,-14.125 -0.0712,-5.5755 1.36958,-10.4055 4.3125,-14.5313 2.94288,-4.1257 7.81379,-6.29409 14.625,-6.49999 z"
       id="path3037"
       inkscape:connector-curvature="0" />
    <path
       style="font-size:91.58312988px;font-style:normal;font-variant:normal;font-weight:bold;font-stretch:normal;line-height:125%;letter-spacing:0px;word-spacing:0px;fill:#000000;fill-opacity:1;stroke:none;font-family:HelveticaNeueLT Std;-inkscape-font-specification:Sans Bold"
       d="m 413.688,988.11224 c -10.86659,0.2113 -19.26992,3.3118 -25.21875,9.3437 -5.94885,6.03206 -8.95194,13.71306 -9.03125,23.03126 0.0793,9.0713 3.0824,16.6155 9.03125,22.5937 5.94883,5.9783 14.35216,9.0593 25.21875,9.2813 8.65375,-0.09 15.71173,-2.3628 21.15625,-6.8125 5.4444,-4.4497 8.60709,-10.5453 9.5,-18.2813 l -14.84375,0 c -0.58579,4.1061 -2.17675,7.4112 -4.8125,9.9063 -2.63584,2.4951 -6.31418,3.7757 -11,3.8437 -6.81121,-0.2165 -11.68213,-2.3342 -14.625,-6.4062 -2.94292,-4.072 -4.3837,-8.7964 -4.3125,-14.125 -0.0712,-5.5755 1.36958,-10.4055 4.3125,-14.5313 2.94287,-4.1257 7.81379,-6.29409 14.625,-6.49999 3.90484,0.066 7.29391,1.07399 10.125,3.06249 2.83099,1.9887 4.53921,4.5401 5.125,7.6563 l 14.8125,0 c -1.10645,-7.122 -4.42062,-12.56156 -9.96875,-16.34376 -5.54824,-3.782 -12.25149,-5.6846 -20.09375,-5.7187 z"
       id="path3035"
       inkscape:connector-curvature="0" />
    <path
       style="font-size:91.58312988px;font-style:normal;font-variant:normal;font-weight:bold;font-stretch:normal;line-height:125%;letter-spacing:0px;word-spacing:0px;fill:#000000;fill-opacity:1;stroke:none;font-family:HelveticaNeueLT Std;-inkscape-font-specification:Sans Bold"
       d="m 690.34425,988.11224 c -10.86659,0.2113 -19.26992,3.3118 -25.21875,9.3437 -5.94885,6.03206 -8.95194,13.71306 -9.03125,23.03126 0.0793,9.0713 3.0824,16.6155 9.03125,22.5937 5.94883,5.9783 14.35216,9.0593 25.21875,9.2813 10.86651,-0.222 19.3011,-3.303 25.25,-9.2813 5.94878,-5.9782 8.95186,-13.5224 9.03125,-22.5937 -0.0794,-9.3182 -3.08247,-16.9992 -9.03125,-23.03126 -5.9489,-6.0319 -14.38349,-9.1324 -25.25,-9.3437 z m 0,11.34367 c 6.81113,0.2059 11.7133,2.37429 14.65625,6.49999 2.94284,4.1258 4.35237,8.9558 4.28125,14.5313 0.0711,5.3286 -1.33841,10.053 -4.28125,14.125 -2.94295,4.072 -7.84512,6.1897 -14.65625,6.4062 -6.81121,-0.2165 -11.68213,-2.3342 -14.625,-6.4062 -2.94292,-4.072 -4.3837,-8.7964 -4.3125,-14.125 -0.0712,-5.5755 1.36958,-10.4055 4.3125,-14.5313 2.94287,-4.1257 7.81379,-6.29409 14.625,-6.49999 z"
       id="path3033"
       inkscape:connector-curvature="0" />
    <path
       style="font-size:91.58312988px;font-style:normal;font-variant:normal;font-weight:bold;font-stretch:normal;line-height:125%;letter-spacing:0px;word-spacing:0px;fill:#000000;fill-opacity:1;stroke:none;font-family:HelveticaNeueLT Std;-inkscape-font-specification:Sans Bold"
       d="m 76.813,989.58094 0,61.34376 15.3125,0 0,-22 16.125,0 c 8.60697,-0.1969 14.78772,-2.224 18.5625,-6.0938 3.77466,-3.8697 5.61254,-8.4137 5.53125,-13.5937 0.0813,-5.18 -1.75659,-9.69269 -5.53125,-13.56246 -3.77478,-3.8697 -9.95553,-5.8968 -18.5625,-6.0938 l -31.4375,0 z m 15.3125,10.46876 11.9375,0 c 3.67909,-0.10559 6.81312,0.4409 9.40625,1.6562 2.59304,1.2154 3.94653,3.7278 4.0625,7.5313 -0.11597,3.8036 -1.46946,6.3159 -4.0625,7.5312 -2.59313,1.2154 -5.72716,1.7619 -9.40625,1.6563 l -11.9375,0 0,-18.375 z"
       id="path3031"
       inkscape:connector-curvature="0" />
    <path
       style="font-size:91.58312988px;font-style:normal;font-variant:normal;font-weight:bold;font-stretch:normal;line-height:125%;letter-spacing:0px;word-spacing:0px;fill:#000000;fill-opacity:1;stroke:none;font-family:HelveticaNeueLT Std;-inkscape-font-specification:Sans Bold"
       d="m 217.90675,989.58094 0,61.34376 14.34375,0 0,-41.0938 0.1875,0 29,41.0938 15.34375,0 0,-61.34376 -14.34375,0 0,41.12496 -0.21875,0 -29.09375,-41.12496 -15.21875,0 z"
       id="path3029"
       inkscape:connector-curvature="0" />
    <path
       style="font-size:91.58312988px;font-style:normal;font-variant:normal;font-weight:bold;font-stretch:normal;line-height:125%;letter-spacing:0px;word-spacing:0px;fill:#000000;fill-opacity:1;stroke:none;font-family:HelveticaNeueLT Std;-inkscape-font-specification:Sans Bold"
       d="m 282.563,989.58094 25.65625,37.43746 0,23.9063 15.34375,0 0,-23.5625 25.875,-37.78126 -17.09375,0 -16.21875,24.21876 -16.28125,-24.21876 -17.28125,0 z"
       id="path3027"
       inkscape:connector-curvature="0" />
    <path
       style="font-size:91.58312988px;font-style:normal;font-variant:normal;font-weight:bold;font-stretch:normal;line-height:125%;letter-spacing:0px;word-spacing:0px;fill:#000000;fill-opacity:1;stroke:none;font-family:HelveticaNeueLT Std;-inkscape-font-specification:Sans Bold"
       d="m 473.7505,989.58094 -26.4375,61.34376 15.5,0 5.46875,-13.6875 26.0625,0 5.28125,13.6875 15.90625,0 -26.0625,-61.34376 -15.71875,0 z m 7.625,15.09376 0.1875,0 8.78125,22.5312 -18.0625,0 9.09375,-22.5312 z"
       id="path3025"
       inkscape:connector-curvature="0" />
    <path
       style="font-size:91.58312988px;font-style:normal;font-variant:normal;font-weight:bold;font-stretch:normal;line-height:125%;letter-spacing:0px;word-spacing:0px;fill:#000000;fill-opacity:1;stroke:none;font-family:HelveticaNeueLT Std;-inkscape-font-specification:Sans Bold"
       d="m 521.65675,989.58094 0,61.34376 14.34375,0 0,-41.0938 0.1875,0 29,41.0938 15.3125,0 0,-61.34376 -14.34375,0 0,41.12496 -0.1875,0 -29.09375,-41.12496 -15.21875,0 z"
       id="path3023"
       inkscape:connector-curvature="0" />
    <path
       style="font-size:91.58312988px;font-style:normal;font-variant:normal;font-weight:bold;font-stretch:normal;line-height:125%;letter-spacing:0px;word-spacing:0px;fill:#000000;fill-opacity:1;stroke:none;font-family:HelveticaNeueLT Std;-inkscape-font-specification:Sans Bold"
       d="m 586.28175,989.58094 25.6875,37.43746 0,23.9063 15.3125,0 0,-23.5625 25.875,-37.78126 -17.0625,0 -16.21875,24.21876 -16.3125,-24.21876 -17.28125,0 z"
       id="path3021"
       inkscape:connector-curvature="0" />
    <path
       style="font-size:91.58312988px;font-style:normal;font-variant:normal;font-weight:bold;font-stretch:normal;line-height:125%;letter-spacing:0px;word-spacing:0px;fill:#000000;fill-opacity:1;stroke:none;font-family:HelveticaNeueLT Std;-inkscape-font-specification:Sans Bold"
       d="m 735.0005,989.58094 0,61.34376 14.34375,0 0,-41.0938 0.21875,0 28.96875,41.0938 15.34375,0 0,-61.34376 -14.34375,0 0,41.12496 -0.21875,0 -29.0625,-41.12496 -15.25,0 z"
       id="path3019-1"
       inkscape:connector-curvature="0" />
  </g>
</svg>
