<?xml version="1.0" encoding="utf-8"?>
<!-- Generator: Adobe Illustrator 16.0.0, SVG Export Plug-In . SVG Version: 6.00 Build 0)  -->
<!DOCTYPE svg PUBLIC "-//W3C//DTD SVG 1.1//EN" "http://www.w3.org/Graphics/SVG/1.1/DTD/svg11.dtd">
<svg version="1.1" id="Layer_1" xmlns="http://www.w3.org/2000/svg" xmlns:xlink="http://www.w3.org/1999/xlink" x="0px" y="0px"
	 width="1000px" height="473.047px" viewBox="0 0 1000 473.047" enable-background="new 0 0 1000 473.047" xml:space="preserve">
<g>
	<path d="M282.444,141.234c0,77.977-63.233,141.206-141.219,141.206C63.24,282.439,0,219.211,0,141.234C0,63.229,63.24,0,141.226,0
		C219.211,0,282.444,63.229,282.444,141.234 M141.37,87.456c-29.777,0-53.914,24.136-53.914,53.897
		c0,29.789,24.137,53.925,53.914,53.925c29.793,0,53.922-24.136,53.922-53.925C195.292,111.592,171.163,87.456,141.37,87.456"/>
	<path fill="#9FA4A6" d="M641.238,141.234c0,77.977-63.264,141.206-141.241,141.206c-77.994,0-141.219-63.229-141.219-141.206
		C358.778,63.229,422.002,0,499.997,0C577.974,0,641.238,63.229,641.238,141.234 M500.147,87.456
		c-29.784,0-53.937,24.136-53.937,53.897c0,29.789,24.152,53.925,53.937,53.925c29.795,0,53.931-24.136,53.931-53.925
		C554.078,111.592,529.942,87.456,500.147,87.456"/>
	<path fill="#EE3124" d="M1000,141.234c0,77.977-63.239,141.206-141.218,141.206c-78.001,0-141.233-63.229-141.233-141.206
		C717.548,63.229,780.781,0,858.782,0C936.76,0,1000,63.229,1000,141.234 M858.902,87.456c-29.761,0-53.896,24.136-53.896,53.897
		c0,29.789,24.136,53.925,53.896,53.925c29.8,0,53.938-24.136,53.938-53.925C912.839,111.592,888.702,87.456,858.902,87.456"/>
	<path d="M60.528,431.253v-21.945H74.85c9.679,0,13.74,3.001,13.74,10.276c0,3.353,0,11.669-11.649,11.669H60.528z M60.528,444.136
		h19.843c20.075,0,23.809-17.052,23.809-23.806c0-14.657-8.745-23.932-23.195-23.932H44.937v74.693h15.591V444.136z"/>
	<path d="M143.388,433.747c0-20.909,11.849-26.123,20.283-26.123c8.41,0,20.274,5.214,20.274,26.123
		c0,20.904-11.864,26.087-20.274,26.087C155.237,459.834,143.388,454.651,143.388,433.747 M127.774,433.747
		c0,35.035,26.019,39.3,35.897,39.3c9.87,0,35.865-4.265,35.865-39.3c0-35.067-25.995-39.332-35.865-39.332
		C153.793,394.415,127.774,398.68,127.774,433.747"/>
	<polygon points="274.513,396.402 289.074,396.402 289.074,471.096 273.468,471.096 243.004,420.534 242.789,420.534 
		242.789,471.096 228.22,471.096 228.22,396.402 244.664,396.402 274.306,445.708 274.513,445.708 	"/>
	<polygon points="354.725,471.092 339.126,471.092 339.126,442.895 313.338,396.398 329.982,396.398 347.241,427.324 
		363.781,396.398 379.714,396.398 354.725,443.099 	"/>
	<path d="M490.581,420.83c-1.236-4.469-3.614-12.883-16.524-12.883c-7.484,0-18.527,4.975-18.527,26.095
		c0,13.417,5.306,25.493,18.527,25.493c8.633,0,14.657-4.88,16.524-14.026h15.615c-3.151,16.192-13.74,27.538-32.466,27.538
		c-19.86,0-34.11-13.425-34.11-39.216c0-26.087,15.097-39.416,34.31-39.416c22.373,0,31.437,15.403,32.267,26.415H490.581z"/>
	<path d="M562.823,413.253h0.158l9.305,29.554h-19.047L562.823,413.253z M549.107,455.689h27.559l4.738,15.402h16.972
		l-26.322-74.693h-17.984l-26.609,74.693h16.429L549.107,455.689z"/>
	<path d="M809.361,433.747c0-20.909,11.873-26.123,20.299-26.123c8.401,0,20.242,5.214,20.242,26.123
		c0,20.904-11.841,26.087-20.242,26.087C821.234,459.834,809.361,454.651,809.361,433.747 M793.754,433.747
		c0,35.035,26.02,39.3,35.905,39.3s35.881-4.265,35.881-39.3c0-35.067-25.995-39.332-35.881-39.332S793.754,398.68,793.754,433.747"
		/>
	<polygon points="670.114,396.402 684.683,396.402 684.683,471.096 669.069,471.096 638.613,420.534 638.398,420.534 
		638.398,471.096 623.812,471.096 623.812,396.402 640.264,396.402 669.906,445.708 670.114,445.708 	"/>
	<polygon points="940.495,396.402 955.04,396.402 955.04,471.096 939.463,471.096 908.969,420.534 908.777,420.534 908.777,471.096 
		894.208,471.096 894.208,396.402 910.653,396.402 940.302,445.708 940.495,445.708 	"/>
	<polygon points="750.333,471.092 734.727,471.092 734.727,442.895 708.946,396.398 725.591,396.398 742.849,427.324 
		759.397,396.398 775.282,396.398 750.333,443.099 	"/>
</g>
</svg>
