<?xml version="1.0" encoding="UTF-8"?>
<svg width="800px" height="400px" viewBox="0 0 800 400" version="1.1" xmlns="http://www.w3.org/2000/svg" xmlns:xlink="http://www.w3.org/1999/xlink">
    <title>sammy_2</title>
    <g id="Page-1" stroke="none" stroke-width="1" fill="none" fill-rule="evenodd">
        <g id="sammy_2" fill="#000000">
            <line x1="0" y1="0" x2="800" y2="400" id="Path" fill-rule="nonzero"></line>
            <path d="M292.474,135.599 C271.656,74.083 270.269,25.611 292.883,12.775 C314.644,0.424 353.347,24.083 393.799,70.001 C379.063,86.995 364.341,106.603 350.309,128.148 L350.309,128.148 C329.752,129.685 310.313,132.215 292.474,135.599 Z M506.306,265.973 C526.645,326.755 527.814,374.5 505.398,387.22 C483.634,399.572 444.931,375.915 404.479,329.999 L404.479,329.999 L404.479,329.999 C418.859,313.415 433.226,294.341 446.946,273.391 C468.059,271.921 488.013,269.394 506.306,265.973 Z M505.884,135.3 C526.63,73.913 527.972,25.588 505.397,12.775 L505.397,12.775 C475.816,-4.015 414.929,45.738 360.93,127.418 C373.591,126.625 386.659,126.229 399.999,126.229 C438.347,126.229 474.457,129.499 505.884,135.3 Z M436.341,274.119 C382.593,354.882 322.283,403.906 292.883,387.22 C270.428,374.478 271.64,326.591 292.055,265.675 C323.97,271.707 360.816,275.121 399.999,275.121 C412.375,275.121 424.518,274.781 436.341,274.119 Z" id="Shape"></path>
            <path d="M351.751,127.317 C367.394,126.124 383.561,125.533 399.999,125.533 L399.999,125.533 C459.324,125.533 515.117,133.23 557.098,147.203 C599.557,161.339 622.942,180.327 622.942,200.675 C622.942,221.024 599.557,240.012 557.098,254.146 C544.369,258.384 530.369,262.044 515.369,265.076 C515.387,265.088 515.387,265.088 515.369,265.076 C515.369,265.076 515.369,265.076 515.369,265.076 C515.369,265.076 515.369,265.076 515.369,265.076 C520.449,280.775 524.33,295.876 526.904,310.068 C535.019,354.802 529.145,385.307 510.36,395.966 C505.647,398.643 500.198,400 494.165,400 C468.901,400 434.192,376.1 399.098,337.155 L399.098,337.155 C364.037,376.136 329.361,400 304.114,400 C298.084,400 292.635,398.643 287.92,395.966 C269.137,385.307 263.261,354.802 271.378,310.068 C273.969,295.779 277.886,280.568 283.015,264.754 C268.629,261.782 255.174,258.232 242.9,254.146 C200.441,240.012 177.058,221.024 177.058,200.675 C177.058,180.327 200.441,161.336 242.9,147.203 C272.812,137.247 309.735,130.477 349.974,127.434 C349.953,127.408 349.953,127.408 349.974,127.434 C349.974,127.434 349.974,127.434 349.974,127.434 L349.974,127.434 C349.974,127.434 349.974,127.434 349.974,127.434 C365.527,103.564 381.929,82.061 398.265,63.867 L398.265,63.867 C363.174,24.838 328.823,1.445 304.109,1.445 L304.109,1.445 C298.396,1.445 293.201,2.693 288.629,5.288 C263.391,19.614 263.597,71.306 284.864,136.227 C284.366,136.313 283.887,136.41 283.42,136.516 C278.099,120.251 274.041,104.605 271.379,89.932 C263.262,45.2 269.134,14.693 287.915,4.031 C292.63,1.357 298.079,0 304.109,0 L304.109,0 C329.377,0 364.086,23.899 399.178,62.84 C434.241,23.868 468.92,0 494.17,0 L494.173,0 L494.173,0 C500.203,0 505.649,1.357 510.363,4.031 C529.146,14.693 535.019,45.2 526.903,89.932 C524.258,104.508 520.236,120.043 514.962,136.193 C514.504,136.084 514.026,135.988 513.526,135.906 C534.684,71.138 534.847,19.59 509.651,5.288 C505.077,2.693 499.881,1.443 494.17,1.445 L494.17,1.445 C458.024,1.447 401.27,51.48 351.751,127.317 Z M284.455,265.042 C318.907,272.069 358.593,275.82 399.999,275.82 C415.49,275.82 430.741,275.295 445.522,274.216 C445.568,274.27 445.568,274.27 445.523,274.216 C445.523,274.216 445.523,274.216 445.522,274.216 C445.522,274.216 445.522,274.216 445.522,274.216 C396.241,349.197 340.012,398.555 304.114,398.555 C298.403,398.555 293.205,397.304 288.631,394.71 C263.556,380.479 263.593,329.37 284.455,265.042 Z M447.3,274.098 C447.339,274.145 447.339,274.145 447.3,274.098 C470.881,272.451 493.33,269.495 513.929,265.364 C513.95,265.377 513.95,265.377 513.93,265.364 C513.929,265.364 513.929,265.364 513.929,265.364 C513.929,265.364 513.929,265.364 513.929,265.364 C534.689,329.542 534.683,380.503 509.648,394.71 C505.074,397.304 499.878,398.555 494.165,398.555 C469.452,398.555 435.104,375.162 400.013,336.132 L400.013,336.132 C415.997,318.332 432.046,297.358 447.3,274.098 C447.3,274.098 447.3,274.098 447.3,274.098 C447.3,274.098 447.3,274.098 447.3,274.098 Z M399.999,126.927 C522.359,126.927 621.546,159.943 621.546,200.675 C621.546,241.408 522.359,274.424 399.999,274.424 C277.637,274.424 178.452,241.408 178.452,200.675 C178.452,159.943 277.637,126.927 399.999,126.927 L399.999,126.927 Z" id="Shape"></path>
            <path d="M568.098,65.933 C550.801,65.933 536.725,80.007 536.725,97.308 C536.725,114.607 550.801,128.683 568.098,128.683 C585.399,128.683 599.475,114.607 599.475,97.308 C599.475,80.007 585.399,65.933 568.098,65.933 Z M568.098,67.338 C584.653,67.338 598.07,80.757 598.07,97.308 C598.07,113.858 584.653,127.276 568.098,127.276 C551.545,127.276 538.13,113.858 538.13,97.308 C538.13,80.757 551.545,67.338 568.098,67.338 Z" id="Shape" fill-rule="nonzero"></path>
            <path d="M592.677,97.307 C592.677,110.877 581.672,121.882 568.098,121.882 C554.524,121.882 543.525,110.877 543.525,97.307 C543.525,83.736 554.524,72.733 568.098,72.733 C581.672,72.733 592.677,83.736 592.677,97.307 Z" id="Path" fill-rule="nonzero"></path>
            <path d="M231.248,274.081 C213.95,274.081 199.876,288.154 199.876,305.457 C199.876,322.759 213.95,336.834 231.248,336.834 C248.55,336.834 262.625,322.759 262.625,305.457 C262.625,288.154 248.55,274.081 231.248,274.081 Z M231.248,275.485 C247.805,275.485 261.221,288.907 261.221,305.457 C261.221,322.008 247.805,335.428 231.248,335.428 C214.696,335.428 201.28,322.008 201.28,305.457 C201.28,288.907 214.696,275.485 231.248,275.485 Z" id="Shape" fill-rule="nonzero"></path>
            <path d="M255.827,305.457 C255.827,319.027 244.822,330.032 231.248,330.032 C217.676,330.032 206.678,319.027 206.678,305.457 C206.678,291.885 217.676,280.882 231.248,280.882 C244.822,280.882 255.827,291.885 255.827,305.457 Z" id="Path" fill-rule="nonzero"></path>
            <path d="M231.253,65.933 C213.952,65.933 199.876,80.007 199.876,97.308 C199.876,114.607 213.952,128.683 231.253,128.683 C248.552,128.683 262.625,114.607 262.625,97.308 C262.625,80.007 248.552,65.933 231.253,65.933 Z M231.253,67.338 C247.805,67.338 261.221,80.757 261.221,97.308 C261.221,113.858 247.805,127.276 231.253,127.276 C214.696,127.276 201.28,113.858 201.28,97.308 C201.28,80.757 214.696,67.338 231.253,67.338 Z" id="Shape" fill-rule="nonzero"></path>
            <path d="M206.674,97.307 C206.674,110.877 217.679,121.882 231.253,121.882 C244.825,121.882 255.824,110.877 255.824,97.307 C255.824,83.736 244.825,72.733 231.253,72.733 C217.679,72.733 206.674,83.736 206.674,97.307 Z" id="Path" fill-rule="nonzero"></path>
            <path d="M568.1,274.081 C550.801,274.081 536.725,288.154 536.725,305.457 C536.725,322.759 550.801,336.834 568.1,336.834 C585.399,336.834 599.475,322.759 599.475,305.457 C599.475,288.154 585.399,274.081 568.1,274.081 Z M568.1,275.485 C584.653,275.485 598.07,288.907 598.07,305.457 C598.07,322.008 584.653,335.428 568.1,335.428 C551.545,335.428 538.13,322.008 538.13,305.457 C538.13,288.907 551.545,275.485 568.1,275.485 Z" id="Shape" fill-rule="nonzero"></path>
            <path d="M543.523,305.457 C543.523,319.027 554.528,330.032 568.1,330.032 C581.674,330.032 592.673,319.027 592.673,305.457 C592.673,291.885 581.674,280.882 568.1,280.882 C554.528,280.882 543.523,291.885 543.523,305.457 Z" id="Path" fill-rule="nonzero"></path>
            <path d="M613.026,200.674 C613.026,237.372 517.649,267.117 399.998,267.117 C282.346,267.117 186.971,237.372 186.971,200.674 C186.971,163.982 282.346,134.236 399.998,134.236 C517.649,134.236 613.026,163.982 613.026,200.674 Z M337.273,214.72 C332.628,214.72 332.628,212.391 332.628,211.139 C332.628,206.646 334.927,206.026 337.41,206.026 L350.982,206.026 L350.982,214.72 L337.273,214.72 L337.273,214.72 L337.273,214.72 L337.273,214.72 L337.273,214.72 L337.273,214.72 Z M408.361,179.312 C403.219,179.312 399.108,181.015 396.275,184.141 C393.352,181.062 388.943,179.312 383.503,179.312 L371.423,179.312 L371.423,223.219 L379.787,223.219 L379.787,187.675 L383.503,187.675 C391.868,187.675 391.868,193.096 391.868,194.876 L391.868,223.219 L400.231,223.219 L400.231,197.664 C400.231,188.863 403.412,187.675 407.432,187.675 C413.237,187.675 413.936,192.67 413.936,198.595 L413.936,223.219 L422.297,223.219 L422.297,198.595 C422.297,186.88 416.829,179.312 408.361,179.312 L408.361,179.312 L408.361,179.312 L408.361,179.312 L408.361,179.312 Z M472.597,179.312 C467.452,179.312 463.341,181.015 460.509,184.141 C457.586,181.062 453.177,179.312 447.739,179.312 L435.659,179.312 L435.659,223.219 L444.022,223.219 L444.022,187.675 L447.739,187.675 C456.102,187.675 456.102,193.096 456.102,194.876 L456.102,223.219 L464.465,223.219 L464.465,197.664 C464.465,188.863 467.647,187.675 471.666,187.675 C477.475,187.675 478.174,192.67 478.174,198.595 L478.174,223.219 L486.535,223.219 L486.535,198.595 C486.535,186.88 481.063,179.312 472.597,179.312 L472.597,179.312 L472.597,179.312 L472.597,179.312 Z M293.296,189.347 C281.096,187.505 280.59,185.747 280.59,179.311 C280.59,173.537 282.881,171.18 288.488,171.18 L314.045,171.18 L314.045,162.817 L288.488,162.817 C278.307,162.817 272.229,168.984 272.229,179.311 C272.229,193.499 280.818,195.92 292.046,197.616 C305.502,199.651 306.84,201.841 306.84,206.725 C306.84,212.462 305.056,214.949 295.925,214.949 L274.086,214.949 L274.086,223.218 L295.925,223.218 C311.86,223.218 315.205,214.675 315.205,206.725 C315.205,192.656 302.543,190.743 293.296,189.347 L293.296,189.347 L293.296,189.347 Z M519.931,179.312 C519.873,179.563 516.405,194.876 513.234,207.234 L503.294,179.312 L494.348,179.312 L509.322,220.755 C504.727,232.523 493.711,230.24 493.379,230.214 L493.379,238.523 C493.486,238.538 493.981,238.588 494.774,238.588 C498.733,238.588 510.81,239.713 517.291,223.592 C521.404,213.357 528,180.8 528.349,179.312 L519.931,179.312 L519.931,179.312 Z M346.798,179.311 L329.375,179.311 L329.375,187.767 L346.798,187.767 C349.771,187.767 350.982,189.026 350.982,193.25 L350.982,197.663 L337.41,197.663 C329.427,197.663 324.265,202.953 324.265,211.139 C324.265,218.395 329.371,223.218 337.273,223.218 L350.982,223.218 L355.627,223.218 L359.345,223.218 L359.345,193.25 C359.345,184.861 354.889,179.311 346.798,179.311 L346.798,179.311 L346.798,179.311 L346.798,179.311 L346.798,179.311 L346.798,179.311 Z" id="Shape"></path>
        </g>
    </g>
</svg>