<?xml version="1.0" encoding="UTF-8"?>
<svg width="800px" height="400px" viewBox="0 0 800 400" version="1.1" xmlns="http://www.w3.org/2000/svg" xmlns:xlink="http://www.w3.org/1999/xlink">
    <title>sierra_3</title>
    <g id="Page-1" stroke="none" stroke-width="1" fill="none" fill-rule="evenodd">
        <g id="Manufacturer" fill="#000000" fill-rule="nonzero">
            <g id="sierra_3">
                <line x1="0" y1="0" x2="800" y2="400" id="Path"></line>
                <path d="M150.24632,101.527065 L62.061837,101.527065 C55.1016008,104.713815 48.5701333,108.633985 42.5157917,113.182801 L169.790754,113.182801 C163.738024,108.633985 157.206556,104.713815 150.24632,101.527065 Z M173.997844,116.380834 L38.3087013,116.380834 C34.0419702,119.931877 30.1218001,123.868166 26.4579241,128.03657 L185.847009,128.03657 C182.184745,123.866554 178.266187,119.931877 173.997844,116.380834 Z M188.627558,131.228156 L135.656905,131.228156 L151.46815,139.724544 L104.669508,139.724544 L98.5490777,133.188241 L86.5371092,140.567574 L88.6616093,131.228156 L23.6789877,131.228156 C20.7001743,134.903316 18.0324599,138.823486 15.5597868,142.879056 L196.74837,142.879056 C194.274085,138.821874 191.606371,134.901704 188.627558,131.228156 Z M198.689113,146.075478 L162.856308,146.075478 L169.60216,154.473539 L117.316569,154.473539 L109.519751,147.103878 L83.1633774,155.107021 L85.4958141,146.073866 L13.6158209,146.073866 C11.5058281,149.826397 9.6069957,153.706269 7.95639778,157.724766 L204.345312,157.724766 C202.697938,153.709493 200.799105,149.828009 198.689113,146.075478 Z M205.517172,160.922799 L173.401437,160.922799 L177.200713,169.453038 L122.801906,169.453038 L121.115846,162.073705 L78.1051974,170.504005 L81.2806641,160.922799 L6.78776156,160.922799 C5.3725028,164.710793 4.17324025,168.593889 3.19158582,172.5737 L209.111736,172.5737 C208.131693,168.595501 206.932431,164.712405 205.517172,160.922799 Z M209.935423,175.771733 L179.512195,175.771733 L183.311472,184.213316 L124.903839,184.213316 L123.436999,177.457793 L69.6620022,185.681768 L75.5632121,175.771733 L2.36951068,175.771733 C1.55549511,179.587129 0.923625593,183.467001 0.53193097,187.422633 L211.771391,187.422633 C211.379696,183.467001 210.747826,179.587129 209.935423,175.771733 Z M190.482868,199.183143 L132.504005,199.183143 L127.653761,191.167105 L55.9639738,200.026173 L65.8627255,190.620667 L0.372351679,190.620667 C0.203100916,193.069161 -2.84217094e-14,195.509596 -2.84217094e-14,198.001612 C-2.84217094e-14,199.442661 0.159579291,200.843413 0.215996212,202.271567 L212.092161,202.271567 C212.148578,200.843413 212.308157,199.442661 212.308157,198.001612 C212.308157,195.509596 212.105056,193.070773 211.935806,190.620667 L186.686816,190.620667 L190.482868,199.183143 Z M198.706844,213.943422 L144.72391,213.943422 L137.342965,206.770413 L49.8419319,214.567232 L51.9664319,205.456705 L0.375575503,205.456705 C0.65121246,209.40589 1.1122193,213.298657 1.8085653,217.118889 L210.49798,217.118889 C211.194326,213.298657 211.655333,209.407501 211.93097,205.456705 L193.440727,205.456705 L198.706844,213.943422 Z M148.523186,221.322755 L47.3128419,229.535447 L49.2294053,220.305639 L2.39046554,220.305639 C3.243167,224.288673 4.36344586,228.16371 5.64975166,231.967822 L206.655182,231.967822 C207.022698,230.879782 207.422452,229.80786 207.756118,228.7037 L150.209246,228.7037 L148.523186,221.322755 Z M152.103243,237.135612 L30.6585668,245.140367 L43.316912,235.15296 L6.81516406,235.15296 C8.31101843,239.150502 9.99707841,243.051329 11.9458801,246.803861 L200.359053,246.803861 C200.890984,245.777073 201.36811,244.718046 201.867803,243.671915 L153.165493,243.671915 L152.103243,237.135612 Z M153.581366,251.468734 L20.3552251,260.329414 C20.6792194,260.774302 21.0128852,261.21113 21.3449391,261.652794 L190.961606,261.652794 C191.767562,260.580873 192.604145,259.534742 193.368191,258.433806 L155.05949,258.433806 L153.581366,251.468734 Z M156.747162,267.279979 L33.1118969,274.896263 C33.6889614,275.444313 34.2869808,275.964961 34.8769406,276.500116 L177.432829,276.500116 C178.570838,275.46688 179.750758,274.482002 180.842023,273.402021 L158.007677,273.402021 L156.747162,267.279979 Z M53.3333333,289.988596 C54.0925439,290.425424 54.805009,290.929952 55.575503,291.347438 L156.734266,291.347438 C158.699187,290.280352 160.564169,289.061746 162.451718,287.875379 L158.849095,280.987679 L53.3333333,289.988596 Z M106.157302,304.147631 C120.068103,304.147631 133.31802,301.396097 145.49118,296.531347 L86.2356817,302.214948 C92.6962251,303.443225 99.3421384,304.147631 106.157302,304.147631 Z M106.157302,91.852369 C93.3990187,91.852369 81.2242472,94.217044 69.8925056,98.3419268 L142.415652,98.3419268 C131.087134,94.217044 118.913974,91.852369 106.157302,91.852369 Z M272.62107,224.785142 C272.62107,226.369652 272.911214,228.220127 273.493114,230.333343 C274.073402,232.448172 275.2098,234.453391 276.900696,236.357059 C278.58998,238.259115 281.022355,239.871027 284.192986,241.191183 C287.363617,242.512951 291.536857,243.172223 296.715931,243.172223 C299.569015,243.172223 302.396309,242.961062 305.1962,242.537129 C307.994479,242.11642 310.531629,241.376553 312.804425,240.319138 C315.075609,239.263336 316.926084,237.781989 318.352626,235.881545 C319.779168,233.979488 320.493245,231.497144 320.493245,228.431287 C320.493245,226.211684 319.990329,224.364433 318.987719,222.883086 C317.981886,221.404963 316.555344,220.16379 314.708093,219.156345 C312.857618,218.153736 310.665417,217.281692 308.12988,216.541824 C305.59273,215.803568 302.84442,215.063701 299.886562,214.322221 L287.681164,211.469137 C283.030798,210.413335 278.540011,209.249534 274.207191,207.980959 C269.87276,206.712385 266.044469,204.889312 262.714258,202.511742 C259.38566,200.134172 256.690543,197.019957 254.63052,193.159428 C252.568884,189.303735 251.538872,184.256838 251.538872,178.021962 C251.538872,175.908746 251.775823,173.582757 252.252949,171.047219 C252.728463,168.511681 253.545703,165.950353 254.709503,163.36001 C255.871692,160.77128 257.483604,158.23413 259.543627,155.750174 C261.605263,153.269441 264.271365,151.101419 267.549994,149.250944 C270.823788,147.402081 274.735898,145.898167 279.279878,144.734367 C283.822246,143.572178 289.160899,142.990278 295.291,142.990278 C303.955028,142.990278 311.142543,144.258853 316.848712,146.796002 C322.554881,149.33154 327.097249,152.45059 330.480652,156.148316 C333.860832,159.849266 336.240014,163.837136 337.613363,168.118375 C338.9851,172.396389 339.674998,176.281097 339.674998,179.769275 L316.848712,179.769275 C316.634328,178.5007 316.294214,176.892012 315.817088,174.935151 C315.341574,172.979901 314.311562,171.105248 312.727053,169.307966 C311.142543,167.512296 308.842345,165.953577 305.831293,164.631809 C302.820242,163.311653 298.722761,162.650769 293.546912,162.650769 C291.327309,162.650769 289.028722,162.88772 286.651152,163.364846 C284.273582,163.84036 282.132963,164.60763 280.230906,165.661821 C278.32885,166.720847 276.768519,168.119987 275.55475,169.862464 C274.339368,171.604941 273.731677,173.747172 273.731677,176.282709 C273.731677,178.502312 274.128207,180.323773 274.921268,181.751927 C275.714329,183.180081 276.716938,184.314867 277.93232,185.161121 C279.14609,186.007374 280.469469,186.640856 281.896012,187.061565 C283.322554,187.485498 284.615307,187.854626 285.78072,188.172172 L313.521726,194.987336 C317.429,195.939976 321.181532,197.103777 324.776095,198.475514 C328.367435,199.850475 331.538066,201.699338 334.286376,204.023715 C337.033074,206.349704 339.225275,209.25437 340.864589,212.742547 C342.502292,216.230725 343.321143,220.510351 343.321143,225.583039 C343.321143,231.289207 342.449099,236.178136 340.70501,240.246602 C338.960921,244.315068 336.688125,247.724262 333.889846,250.469348 C331.088343,253.21927 327.996696,255.409859 324.616516,257.049173 C321.233113,258.688488 317.880336,259.926436 314.550125,260.774302 C311.221527,261.618944 308.12988,262.173442 305.276796,262.439407 C302.423711,262.700537 300.149303,262.835938 298.461631,262.835938 C288.103485,262.835938 279.729602,261.512558 273.336759,258.872246 C266.942304,256.231934 262.003405,252.982319 258.515228,249.123402 C255.028662,245.267708 252.702673,241.118647 251.540484,236.681053 C250.376684,232.241847 249.796395,228.278156 249.796395,224.79159 L272.62107,224.79159 L272.62107,224.785142 Z M376.291192,259.816826 L352.512266,259.816826 L352.512266,146.00133 L376.28958,146.00133 L376.28958,259.816826 L376.291192,259.816826 Z M475.206174,166.134111 L414.811054,166.134111 L414.811054,190.069393 L470.291454,190.069393 L470.291454,210.202174 L414.811054,210.202174 L414.811054,239.685657 L477.899679,239.685657 L477.899679,259.816826 L391.509253,259.816826 L391.509253,146.00133 L475.206174,146.00133 L475.206174,166.134111 Z M490.261432,146.00133 L547.80508,146.00133 C555.413304,146.00133 561.540182,147.216711 566.19216,149.647475 C570.840914,152.07985 574.459657,155.01353 577.049999,158.445291 C579.63873,161.880275 581.382819,165.420034 582.282266,169.066179 C583.178489,172.712324 583.629824,175.750778 583.629824,178.181542 C583.629824,184.522804 582.124299,190.149988 579.113247,195.064708 C576.100583,199.977816 571.741973,203.38701 566.035805,205.287454 C568.35857,206.34648 570.420205,207.428073 572.217487,208.538681 C574.013157,209.647676 575.518683,211.232186 576.735677,213.293821 C577.949446,215.353845 578.874684,218.024783 579.509777,221.298576 C580.143259,224.575594 580.460805,228.85522 580.460805,234.137456 C580.460805,238.259115 580.484984,241.694099 580.539789,244.440797 C580.592982,247.190719 580.778352,249.381308 581.095899,251.020622 C581.411833,252.659937 581.913138,253.928512 582.599813,254.824735 C583.286487,255.724182 584.264918,256.385066 585.533493,256.805775 L585.533493,259.818438 L559.219029,259.818438 C558.372775,257.07174 557.739293,254.031674 557.318584,250.703076 C556.894651,247.374477 556.683491,242.753126 556.683491,236.832573 C556.683491,232.923686 556.549702,229.620878 556.286961,226.925761 C556.022607,224.230644 555.281128,222.012654 554.067358,220.266953 C552.851976,218.524476 551.001501,217.255901 548.519157,216.46284 C546.036812,215.66978 542.574425,215.273249 538.136831,215.273249 L513.566456,215.273249 L513.566456,259.815214 L490.264656,259.815214 L490.264656,146.00133 L490.261432,146.00133 Z M541.463818,196.093108 C547.697081,196.093108 552.321657,194.932531 555.334321,192.60493 C558.345372,190.282165 559.850898,186.263669 559.850898,180.5575 C559.850898,179.079377 559.636514,177.465853 559.215805,175.723376 C558.793484,173.979287 557.973021,172.368987 556.759251,170.889252 C555.543869,169.409516 553.851362,168.169956 551.686564,167.162511 C549.520154,166.159902 546.694472,165.656985 543.206295,165.656985 L513.563232,165.656985 L513.563232,196.093108 L541.463818,196.093108 Z M593.296461,146.00133 L650.840108,146.00133 C658.448333,146.00133 664.575211,147.216711 669.227189,149.647475 C673.875943,152.07985 677.494686,155.01353 680.085028,158.445291 C682.673759,161.880275 684.417848,165.420034 685.317295,169.066179 C686.213518,172.712324 686.664853,175.750778 686.664853,178.181542 C686.664853,184.522804 685.159327,190.149988 682.148276,195.064708 C679.135612,199.977816 674.777002,203.38701 669.070833,205.287454 C671.393599,206.34648 673.455234,207.428073 675.252516,208.538681 C677.048186,209.647676 678.553712,211.232186 679.770706,213.293821 C680.984475,215.353845 681.909713,218.024783 682.544806,221.298576 C683.178288,224.575594 683.495834,228.85522 683.495834,234.137456 C683.495834,238.259115 683.520013,241.694099 683.574818,244.440797 C683.628011,247.190719 683.813381,249.381308 684.130928,251.020622 C684.446862,252.659937 684.948167,253.928512 685.634841,254.824735 C686.321516,255.724182 687.299947,256.385066 688.568521,256.805775 L688.568521,259.818438 L662.254057,259.818438 C661.407804,257.07174 660.774322,254.031674 660.353613,250.703076 C659.92968,247.374477 659.71852,242.753126 659.71852,236.832573 C659.71852,232.923686 659.584731,229.620878 659.32199,226.925761 C659.057636,224.230644 658.316156,222.012654 657.102387,220.266953 C655.887005,218.524476 654.03653,217.255901 651.554185,216.46284 C649.071841,215.66978 645.609454,215.273249 641.17186,215.273249 L616.601485,215.273249 L616.601485,259.815214 L593.299685,259.815214 L593.299685,146.00133 L593.296461,146.00133 Z M644.498846,196.093108 C650.73211,196.093108 655.356686,194.932531 658.369349,192.60493 C661.380401,190.282165 662.885927,186.263669 662.885927,180.5575 C662.885927,179.079377 662.671543,177.465853 662.250834,175.723376 C661.828513,173.979287 661.008049,172.368987 659.79428,170.889252 C658.578898,169.409516 656.88639,168.169956 654.721593,167.162511 C652.555183,166.159902 649.729501,165.656985 646.241323,165.656985 L616.598261,165.656985 L616.598261,196.093108 L644.498846,196.093108 Z M716.936561,259.816826 L691.890672,259.816826 L732.470557,146.00133 L759.895629,146.00133 L800,259.816826 L774.162662,259.816826 L766.870372,236.357059 L724.863945,236.357059 L716.936561,259.816826 Z M731.201983,216.699791 L760.209952,216.699791 L746.102497,171.682312 L745.784951,171.682312 L731.201983,216.699791 Z" id="Combined-Shape"></path>
            </g>
        </g>
    </g>
</svg>