<?xml version="1.0" encoding="UTF-8"?>
<svg width="800px" height="400px" viewBox="0 0 800 400" version="1.1" xmlns="http://www.w3.org/2000/svg" xmlns:xlink="http://www.w3.org/1999/xlink">
    <title>sierra_4</title>
    <g id="Page-1" stroke="none" stroke-width="1" fill="none" fill-rule="evenodd">
        <g id="Manufacturer" fill="#000000" fill-rule="nonzero">
            <g id="sierra_4">
                <line x1="0" y1="0" x2="800" y2="400" id="Path"></line>
                <path d="M154.24632,101.527065 L66.061837,101.527065 C59.1016008,104.713815 52.5701333,108.633985 46.5157917,113.182801 L173.790754,113.182801 C167.738024,108.633985 161.206556,104.713815 154.24632,101.527065 Z M177.997844,116.380834 L42.3087013,116.380834 C38.0419702,119.931877 34.1218001,123.868166 30.4579241,128.03657 L189.847009,128.03657 C186.184745,123.866554 182.266187,119.931877 177.997844,116.380834 Z M192.627558,131.228156 L139.656905,131.228156 L155.46815,139.724544 L108.669508,139.724544 L102.549078,133.188241 L90.5371092,140.567574 L92.6616093,131.228156 L27.6789877,131.228156 C24.7001743,134.903316 22.0324599,138.823486 19.5597868,142.879056 L200.74837,142.879056 C198.274085,138.821874 195.606371,134.901704 192.627558,131.228156 Z M202.689113,146.075478 L166.856308,146.075478 L173.60216,154.473539 L121.316569,154.473539 L113.519751,147.103878 L87.1633774,155.107021 L89.4958141,146.073866 L17.6158209,146.073866 C15.5058281,149.826397 13.6069957,153.706269 11.9563978,157.724766 L208.345312,157.724766 C206.697938,153.709493 204.799105,149.828009 202.689113,146.075478 Z M209.517172,160.922799 L177.401437,160.922799 L181.200713,169.453038 L126.801906,169.453038 L125.115846,162.073705 L82.1051974,170.504005 L85.2806641,160.922799 L10.7877616,160.922799 C9.3725028,164.710793 8.17324025,168.593889 7.19158582,172.5737 L213.111736,172.5737 C212.131693,168.595501 210.932431,164.712405 209.517172,160.922799 Z M213.935423,175.771733 L183.512195,175.771733 L187.311472,184.213316 L128.903839,184.213316 L127.436999,177.457793 L73.6620022,185.681768 L79.5632121,175.771733 L6.36951068,175.771733 C5.55549511,179.587129 4.92362559,183.467001 4.53193097,187.422633 L215.771391,187.422633 C215.379696,183.467001 214.747826,179.587129 213.935423,175.771733 Z M194.482868,199.183143 L136.504005,199.183143 L131.653761,191.167105 L59.9639738,200.026173 L69.8627255,190.620667 L4.37235168,190.620667 C4.20310092,193.069161 4,195.509596 4,198.001612 C4,199.442661 4.15957929,200.843413 4.21599621,202.271567 L216.092161,202.271567 C216.148578,200.843413 216.308157,199.442661 216.308157,198.001612 C216.308157,195.509596 216.105056,193.070773 215.935806,190.620667 L190.686816,190.620667 L194.482868,199.183143 Z M202.706844,213.943422 L148.72391,213.943422 L141.342965,206.770413 L53.8419319,214.567232 L55.9664319,205.456705 L4.3755755,205.456705 C4.65121246,209.40589 5.1122193,213.298657 5.8085653,217.118889 L214.49798,217.118889 C215.194326,213.298657 215.655333,209.407501 215.93097,205.456705 L197.440727,205.456705 L202.706844,213.943422 Z M152.523186,221.322755 L51.3128419,229.535447 L53.2294053,220.305639 L6.39046554,220.305639 C7.243167,224.288673 8.36344586,228.16371 9.64975166,231.967822 L210.655182,231.967822 C211.022698,230.879782 211.422452,229.80786 211.756118,228.7037 L154.209246,228.7037 L152.523186,221.322755 Z M156.103243,237.135612 L34.6585668,245.140367 L47.316912,235.15296 L10.8151641,235.15296 C12.3110184,239.150502 13.9970784,243.051329 15.9458801,246.803861 L204.359053,246.803861 C204.890984,245.777073 205.36811,244.718046 205.867803,243.671915 L157.165493,243.671915 L156.103243,237.135612 Z M157.581366,251.468734 L24.3552251,260.329414 C24.6792194,260.774302 25.0128852,261.21113 25.3449391,261.652794 L194.961606,261.652794 C195.767562,260.580873 196.604145,259.534742 197.368191,258.433806 L159.05949,258.433806 L157.581366,251.468734 Z M160.747162,267.279979 L37.1118969,274.896263 C37.6889614,275.444313 38.2869808,275.964961 38.8769406,276.500116 L181.432829,276.500116 C182.570838,275.46688 183.750758,274.482002 184.842023,273.402021 L162.007677,273.402021 L160.747162,267.279979 Z M57.3333333,289.988596 C58.0925439,290.425424 58.805009,290.929952 59.575503,291.347438 L160.734266,291.347438 C162.699187,290.280352 164.564169,289.061746 166.451718,287.875379 L162.849095,280.987679 L57.3333333,289.988596 Z M110.157302,304.147631 C124.068103,304.147631 137.31802,301.396097 149.49118,296.531347 L90.2356817,302.214948 C96.6962251,303.443225 103.342138,304.147631 110.157302,304.147631 Z M110.157302,91.852369 C97.3990187,91.852369 85.2242472,94.217044 73.8925056,98.3419268 L146.415652,98.3419268 C135.087134,94.217044 122.913974,91.852369 110.157302,91.852369 Z" id="Combined-Shape"></path>
                <path d="M305.988145,168.190102 C304.640805,157.5798 303.6303,150.8431 302.95663,144.78007 C297.230435,142.927477 289.820065,140.73805 281.39919,140.73805 C259.336498,140.73805 246.031515,154.716702 246.031515,171.221617 C246.031515,189.747542 262.199595,198.336835 274.157238,204.568283 C286.78855,211.304983 295.714678,217.368013 295.714678,229.325655 C295.714678,241.283298 288.304308,249.030503 276.00983,249.030503 C258.831245,249.030503 250.915623,231.6835 248.220943,221.241615 L243,222.588955 C244.010505,231.178248 246.199933,245.493735 247.547273,249.19892 C249.399865,250.041008 251.926128,251.388348 256.304983,252.735688 C260.51542,254.083028 266.073198,255.26195 272.809898,255.26195 C295.714678,255.26195 310.872253,240.946463 310.872253,222.92579 C310.872253,204.399865 295.714678,196.315825 281.736025,189.24229 C268.094208,182.337172 260.347003,176.610977 260.347003,164.821752 C260.347003,155.55879 266.410033,146.632662 278.70451,146.632662 C293.019998,146.632662 297.904105,158.590305 300.93562,169.200607 L305.988145,168.190102 Z M364.377461,252.735688 L364.377461,247.85158 C350.904061,246.841075 349.388304,245.83057 349.388304,231.515083 L349.388304,164.653335 C349.388304,150.337847 350.904061,149.327342 364.377461,148.14842 L364.377461,143.264312 L318.736319,143.264312 L318.736319,148.14842 C332.209719,149.327342 333.725476,150.337847 333.725476,164.653335 L333.725476,231.515083 C333.725476,245.83057 332.209719,246.841075 318.736319,247.85158 L318.736319,252.735688 L364.377461,252.735688 Z M457.495154,225.115218 C454.968891,231.851918 451.937376,237.578113 448.905861,241.11488 C445.200676,245.325318 440.316569,246.672658 428.190509,246.672658 C420.106469,246.672658 414.211856,246.672658 411.011924,244.651648 C407.980409,242.630638 406.969904,238.757035 406.969904,230.841413 L406.969904,199.684175 L422.127479,199.684175 C436.779801,199.684175 438.127141,200.69468 440.316569,212.652323 L445.369094,212.652323 L445.369094,180.147745 L440.316569,180.147745 C438.295559,191.431717 437.116636,192.779057 422.127479,192.779057 L406.969904,192.779057 L406.969904,154.88512 C406.969904,149.832595 407.475156,149.327342 412.864516,149.327342 L424.822159,149.327342 C436.442966,149.327342 440.990239,150.506265 443.516501,154.21145 C445.705929,157.5798 447.558521,161.62182 449.074279,168.526937 L454.295221,167.68485 C453.621551,158.758722 452.779464,147.306332 452.779464,143.264312 L376.991588,143.264312 L376.991588,148.14842 C389.791319,149.327342 391.307076,150.001012 391.307076,164.99017 L391.307076,231.515083 C391.307076,245.325318 389.791319,246.672658 374.633743,247.85158 L374.633743,252.735688 L456.821484,252.735688 C458.168824,247.514745 461.705591,231.851918 462.547679,225.957305 L457.495154,225.115218 Z M563.577556,249.535755 C559.872371,248.52525 556.167186,246.50424 551.788331,241.78855 C547.914729,237.578113 544.377961,233.03084 538.314931,224.104713 C533.262406,216.525925 526.357289,205.241953 523.494191,199.852593 C535.788669,194.463232 544.883214,185.705522 544.883214,171.221617 C544.883214,160.94815 540.504359,153.53778 533.599241,149.158925 C527.199376,144.78007 518.946919,143.264312 506.147189,143.264312 L463.369144,143.264312 L463.369144,148.14842 C476.337291,149.327342 477.853049,150.16943 477.853049,164.3165 L477.853049,231.515083 C477.853049,245.662153 476.337291,246.841075 462.695474,247.85158 L462.695474,252.735688 L508.168199,252.735688 L508.168199,247.85158 C494.863216,246.841075 493.347459,245.662153 493.347459,231.515083 L493.347459,205.073535 L498.231566,205.073535 C506.315606,205.073535 509.178704,207.094545 512.210219,211.978653 C517.094326,220.23111 522.988939,230.504578 528.546716,238.4202 C536.125504,249.367338 542.862204,253.24094 557.177691,253.91461 C559.198701,254.083028 561.051294,254.083028 562.903886,254.083028 L563.577556,249.535755 Z M493.347459,199.34734 L493.347459,157.916635 C493.347459,153.53778 493.852711,151.685187 495.031634,150.674682 C496.378974,149.664177 499.073654,148.990507 503.957761,148.990507 C516.083821,148.990507 527.704629,155.727207 527.704629,173.916297 C527.704629,182.842425 525.009949,189.579125 518.778501,194.63165 C514.568064,198 509.010286,199.34734 500.757829,199.34734 L493.347459,199.34734 Z M671.921566,249.535755 C668.216381,248.52525 664.511196,246.50424 660.132341,241.78855 C656.258738,237.578113 652.721971,233.03084 646.658941,224.104713 C641.606415,216.525925 634.701298,205.241953 631.8382,199.852593 C644.132678,194.463232 653.227223,185.705522 653.227223,171.221617 C653.227223,160.94815 648.848368,153.53778 641.94325,149.158925 C635.543385,144.78007 627.290928,143.264312 614.491198,143.264312 L571.713153,143.264312 L571.713153,148.14842 C584.6813,149.327342 586.197058,150.16943 586.197058,164.3165 L586.197058,231.515083 C586.197058,245.662153 584.6813,246.841075 571.039483,247.85158 L571.039483,252.735688 L616.512208,252.735688 L616.512208,247.85158 C603.207225,246.841075 601.691468,245.662153 601.691468,231.515083 L601.691468,205.073535 L606.575575,205.073535 C614.659615,205.073535 617.522713,207.094545 620.554228,211.978653 C625.438335,220.23111 631.332948,230.504578 636.890725,238.4202 C644.469513,249.367338 651.206213,253.24094 665.521701,253.91461 C667.542711,254.083028 669.395303,254.083028 671.247896,254.083028 L671.921566,249.535755 Z M601.691468,199.34734 L601.691468,157.916635 C601.691468,153.53778 602.19672,151.685187 603.375643,150.674682 C604.722983,149.664177 607.417663,148.990507 612.30177,148.990507 C624.42783,148.990507 636.048638,155.727207 636.048638,173.916297 C636.048638,182.842425 633.353958,189.579125 627.12251,194.63165 C622.912073,198 617.354295,199.34734 609.101838,199.34734 L601.691468,199.34734 Z M790,252.735688 L790,247.85158 C779.052862,246.672658 776.695017,244.988483 771.474075,230.504578 C760.695355,201.36835 749.411382,169.70586 738.969497,140.73805 L733.074885,142.422225 L698.38088,230.33616 C692.486267,245.1569 690.29684,246.335823 679.349702,247.85158 L679.349702,252.735688 L716.233135,252.735688 L716.233135,247.85158 C703.601822,246.50424 702.4229,244.820065 705.79125,234.546598 C707.980677,227.64148 710.338522,220.736363 712.864785,213.49441 L748.23246,213.49441 C751.769227,223.262625 754.96916,231.851918 756.99017,238.251783 C759.179597,244.988483 757.832257,246.50424 747.390372,247.85158 L747.390372,252.735688 L790,252.735688 Z M745.706197,206.08404 L715.559465,206.08404 C720.61199,192.442222 725.664515,178.295152 730.885457,164.3165 L731.39071,164.3165 L745.706197,206.08404 Z" id="Combined-Shape"></path>
            </g>
        </g>
    </g>
</svg>