<?xml version="1.0" encoding="UTF-8"?>
<svg width="800px" height="400px" viewBox="0 0 800 400" version="1.1" xmlns="http://www.w3.org/2000/svg" xmlns:xlink="http://www.w3.org/1999/xlink">
    <title>sierra_2</title>
    <g id="Page-1" stroke="none" stroke-width="1" fill="none" fill-rule="evenodd">
        <g id="Manufacturer" fill="#000000" fill-rule="nonzero">
            <g id="sierra_2">
                <line x1="0" y1="0" x2="800" y2="400" id="Path"></line>
                <path d="M222.09316,88.8322757 L248.075052,89.8983457 C223.945955,101.074978 207.929252,123.476699 204.790901,143.409927 C201.042554,167.208372 219.752937,225.939136 211.609188,253.018453 C204.899219,275.331811 191.11157,294.170464 159.702413,311.167724 L137.209476,310.13871 C161.412685,297.394328 176.565701,276.486245 178.330133,257.676096 C180.485076,234.80975 168.880876,185.747728 168.287981,170.512049 C166.999576,137.669112 187.571306,106.311263 222.09316,88.8322757 Z M276.22044,126.230238 L310.659631,126.247341 L266.126981,279.15142 L231.471155,279.15142 L276.22044,126.230238 Z M162.182308,207.955618 C163.732955,216.127871 165.069818,225.674043 166.038973,235.117599 C158.163766,239.113737 145.953524,245.945656 133.69429,252.967806 L131.706554,254.107783 C111.507298,265.706004 91.8045871,277.432596 91.8045871,277.432596 L87.4063358,277.198858 L87.4665451,277.142991 C89.4232798,275.327375 138.577694,229.719351 162.182308,207.955618 Z M157.504712,177.147907 C158.382652,185.246048 159.642553,194.056802 161.495348,204.150262 C130.627777,223.484894 47.0866574,277.198858 47.0866574,277.198858 L42.0812593,276.936617 C42.0812593,276.936617 74.012479,249.099981 106.824542,220.714039 L109.902306,218.05208 C127.346853,202.967966 144.766145,187.969486 157.504712,177.147907 Z M172.147497,124.468657 C174.601738,122.41348 175.009353,123.516606 174.918139,123.801651 C174.909587,123.830156 173.971788,125.540428 172.891465,126.840236 C160.050168,142.269746 158.151765,157.927292 157.67859,172.726852 C136.837036,185.931981 83.0363839,222.921789 45.1574087,249.127223 L41.5430457,251.628406 C20.1747779,266.419584 4.70610033,277.198858 4.70610033,277.198858 L2.84217094e-14,276.950869 C2.84217094e-14,276.950869 106.31055,179.539438 172.147497,124.468657 Z M166.674624,239.806597 C167.635227,248.662959 167.418593,253.032705 166.740185,260.016319 C165.50514,260.664854 164.269329,261.319574 163.040778,261.975338 L162.120852,262.467276 C148.346145,269.846881 135.744343,277.196008 135.744343,277.196008 L131.594081,276.979373 C131.594081,276.979373 144.094444,262.744447 157.686566,248.796633 L158.682894,247.776785 L159.682126,246.759225 C162.016283,244.388573 164.366041,242.04694 166.674624,239.806597 Z M526.695575,126.515284 C548.407487,126.515284 561.377055,136.426314 553.723584,162.673299 C548.949073,179.089066 539.764909,193.093349 519.025002,197.320573 L527.174451,279.026 L491.746153,279.026 L487.573087,193.902878 C502.466712,193.902878 513.87138,181.671578 517.981736,167.567529 C522.542463,151.907132 524.09026,137.309955 509.932052,137.309955 L501.298026,137.255796 L460.596386,279.356652 L425.940561,279.356652 L470.724051,126.686311 L526.695575,126.515284 Z M360.950199,126.230238 L427.545367,126.247341 L424.395615,137.059115 L392.573141,137.101872 L377.554096,188.846172 L405.371681,188.846172 L402.22478,199.703553 L373.74874,199.55818 L354.357098,267.780957 L386.655597,267.780957 L383.34622,279.15142 L316.212316,279.15142 L360.950199,126.230238 Z M654.595467,197.11249 L662.744916,278.817917 L627.316618,278.817917 L623.143552,193.694795 C638.037177,193.694795 649.441845,181.463495 653.552201,167.359446 C658.112928,151.699049 659.660725,137.09332 645.502517,137.09332 L636.868491,137.039162 L596.169702,279.15142 L561.513876,279.15142 L606.297367,126.481078 L662.26889,126.310051 C683.980802,126.310051 696.95037,136.221081 689.2969,162.468066 C684.519538,178.880983 675.338224,192.885266 654.595467,197.11249 M745.285526,194.846378 C755.333378,173.143018 763.542687,154.703428 763.229137,155.036931 C763.542687,154.703428 762.690401,173.143018 761.501762,194.846378 L745.285526,194.846378 M760.945923,126.156127 L691.950673,279.060205 L705.926451,279.060205 C705.926451,279.060205 724.60833,238.928657 740.644987,204.318439 L760.908867,204.318439 C758.964857,238.928657 756.556223,279.060205 756.556223,279.060205 L792.363632,279.060205 L800,126.156127 L760.945923,126.156127 L760.945923,126.156127 Z" id="Combined-Shape"></path>
            </g>
        </g>
    </g>
</svg>