<?xml version="1.0" encoding="UTF-8" standalone="no"?>
<svg
   xmlns:dc="http://purl.org/dc/elements/1.1/"
   xmlns:cc="http://creativecommons.org/ns#"
   xmlns:rdf="http://www.w3.org/1999/02/22-rdf-syntax-ns#"
   xmlns:svg="http://www.w3.org/2000/svg"
   xmlns="http://www.w3.org/2000/svg"
   xmlns:sodipodi="http://sodipodi.sourceforge.net/DTD/sodipodi-0.dtd"
   xmlns:inkscape="http://www.inkscape.org/namespaces/inkscape"
   sodipodi:docname="Square (1986).svg"
   inkscape:version="1.0 (4035a4fb49, 2020-05-01)"
   id="svg8"
   version="1.1"
   viewBox="0 0 734.69019 142.36867"
   height="142.36867mm"
   width="734.69019mm">
  <defs
     id="defs2" />
  <sodipodi:namedview
     inkscape:window-maximized="1"
     inkscape:window-y="-8"
     inkscape:window-x="-8"
     inkscape:window-height="961"
     inkscape:window-width="1280"
     inkscape:pagecheckerboard="true"
     showgrid="false"
     inkscape:document-rotation="0"
     inkscape:current-layer="text12"
     inkscape:document-units="mm"
     inkscape:cy="329.64053"
     inkscape:cx="1328.6136"
     inkscape:zoom="0.34728331"
     inkscape:pageshadow="2"
     inkscape:pageopacity="0.0"
     borderopacity="1.0"
     bordercolor="#666666"
     pagecolor="#ffffff"
     id="base" />
  <metadata
     id="metadata5">
    <rdf:RDF>
      <cc:Work
         rdf:about="">
        <dc:format>image/svg+xml</dc:format>
        <dc:type
           rdf:resource="http://purl.org/dc/dcmitype/StillImage" />
        <dc:title></dc:title>
      </cc:Work>
    </rdf:RDF>
  </metadata>
  <g
     id="layer1"
     inkscape:groupmode="layer"
     inkscape:label="Layer 1">
    <g
       style="font-weight:bold;font-size:176.389px;line-height:1.25;font-family:'Helvetica Black';-inkscape-font-specification:'Helvetica Black, Bold';fill:#00aad4;stroke-width:0.264583"
       id="text12"
       aria-label="SQUARE">
      <path
         id="path14"
         style="fill:#00aad4;stroke-width:0.264583"
         d="M 110.41539,39.44637 H 71.48578 q -1.37804,-5.426029 -5.25377,-8.09598 -3.78961,-2.756078 -10.93819,-2.756078 -6.97632,0 -10.6798,2.842206 -2.75608,2.153186 -2.75608,5.598283 0,2.928334 2.06706,4.73701 2.92833,2.583823 13.86652,5.253774 L 73.7251,50.90132 q 22.13475,5.339902 31.00588,15.158429 8.95725,9.81853 8.95725,22.73765 0,10.33529 -4.65088,18.861911 -4.56476,8.44049 -11.282697,13.34975 -6.717943,4.90927 -17.397743,7.75147 -10.6798,2.92833 -22.47926,2.92833 -12.91912,0 -24.28794,-3.35897 Q 22.22088,124.97092 14.81392,118.68362 7.49309,112.39632 3.70348,104.12808 1.03353,98.271419 0,89.658669 h 39.36025 q 1.37803,5.9428 5.94279,9.12951 4.56475,3.186721 14.03877,3.186721 8.26824,0 11.88559,-2.756081 2.66995,-2.06706 2.66995,-5.77054 0,-3.78961 -2.49769,-6.11505 -2.41157,-2.32544 -13.43589,-4.99539 L 43.66662,78.806609 Q 32.47005,76.136659 22.65152,71.399649 12.83299,66.662639 7.8376,59.169559 2.84221,51.676467 2.84221,40.996664 2.84221,30.489116 7.32084,22.307008 11.79946,14.124901 19.29255,9.129509 26.87177,4.134117 36.0874,2.067059 45.38917,0 55.2077,0 q 11.71333,0 21.44573,2.411569 9.7324,2.325441 15.50294,6.201176 5.770538,3.789607 9.38789,8.784999 3.61735,4.909264 5.59829,10.076911 2.06705,5.081519 3.27284,11.971715 z" />
      <path
         id="path16"
         style="fill:#00aad4;stroke-width:0.264583"
         d="m 247.77419,123.93739 -17.13936,18.43128 -16.9671,-17.39775 q -12.57461,6.54569 -30.40299,6.54569 -16.19196,0 -29.11108,-5.08152 -10.16304,-4.04799 -18.25902,-12.05784 -8.00985,-8.00985 -12.31622,-17.225491 -6.45956,-13.95265 -6.45956,-31.60877 0,-14.297159 4.56476,-26.785639 3.44509,-9.732401 9.99078,-17.139361 6.54568,-7.493088 14.21103,-12.057843 7.66534,-4.650882 16.62259,-7.06245 Q 171.46528,0 182.05896,0 q 13.86652,0 25.92436,4.478627 12.05784,4.3925 20.06769,11.885588 8.09598,7.40696 12.74686,16.364214 3.4451,6.545686 5.42603,15.072303 1.98093,8.44049 1.98093,17.914507 0,9.30177 -1.98093,17.57 -1.98093,8.26824 -6.02892,16.53647 -2.4977,4.909261 -6.45956,9.646271 z m -58.73891,-24.029551 -14.29716,-14.29716 16.70873,-17.39774 14.29715,13.09137 q 2.06706,-7.06245 2.06706,-16.36422 0,-13.952641 -5.94279,-24.11568 -5.94279,-10.163038 -19.03416,-10.163038 -9.64628,0 -15.84746,6.545685 -9.38789,9.990784 -9.38789,27.646913 0,12.14397 3.4451,20.4122 3.53122,8.26824 9.21564,11.97172 5.68441,3.617351 12.31622,3.617351 3.18672,0 6.45956,-0.947401 z" />
      <path
         id="path18"
         style="fill:#00aad4;stroke-width:0.264583"
         d="m 253.33253,3.272843 h 40.82426 v 76.997936 q 0,7.66534 1.80867,11.6272 1.8948,3.87574 6.71794,6.37344 4.82313,2.411561 11.02431,2.411561 9.04338,0 14.03877,-4.823131 4.9954,-4.90927 4.9954,-15.58907 V 3.272843 h 40.82441 v 72.949946 q 0,13.78039 -2.15319,21.79024 -2.15319,8.009861 -7.14858,14.211031 -4.90926,6.11505 -12.05784,10.59368 -7.14858,4.3925 -16.88098,6.63181 -9.64627,2.32544 -21.0151,2.32544 -13.26362,0 -22.99599,-2.32544 -9.73236,-2.32544 -16.88089,-6.80407 -7.06242,-4.47862 -11.88555,-10.50755 -4.73701,-6.11504 -7.49309,-16.278081 -1.72255,-6.45956 -1.72255,-19.89544 z" />
      <path
         id="path20"
         style="fill:#00aad4;stroke-width:0.264583"
         d="M 367.45939,128.24377 412.15953,3.272843 h 41.68569 l 44.70014,124.970927 h -40.82441 l -4.73701,-16.36422 h -40.82441 l -4.65088,16.36422 z m 65.11235,-87.419361 -12.83299,45.38916 h 26.09661 z" />
      <path
         id="path22"
         style="fill:#00aad4;stroke-width:0.264583"
         d="M 504.69547,128.24377 V 3.272843 h 61.06436 q 12.83299,0 21.53186,1.378039 8.69887,1.378039 14.29716,4.306372 5.68441,2.928333 9.56014,7.493088 3.96187,4.478627 5.85667,9.560146 1.98093,5.08152 1.98093,12.660735 0,9.387891 -3.01446,15.761322 -2.92833,6.373434 -8.35436,10.507544 -3.78961,2.92834 -9.64628,4.47863 12.05785,4.56476 16.36422,10.16304 4.30637,5.51216 4.65088,18.68966 l 0.60289,19.723181 q 0.17226,4.30637 0.86128,5.08152 0.86127,1.11966 3.10059,1.29191 v 3.87574 h -41.51343 q -1.72255,-5.08152 -1.98093,-17.31162 l -0.25839,-9.21564 q -0.0861,-6.373431 -2.06706,-9.818531 -1.8948,-3.53122 -5.77053,-5.3399 -3.87574,-1.80867 -11.71334,-1.80867 H 544.3141 V 128.24377 Z M 544.3141,57.360879 h 19.55093 q 9.47401,0 13.34975,-3.272843 3.87573,-3.272843 3.87573,-8.785 0,-5.684411 -3.70348,-8.784999 -3.70348,-3.186716 -13.00524,-3.186716 H 544.3141 Z" />
      <path
         id="path24"
         style="fill:#00aad4;stroke-width:0.264583"
         d="M 630.56208,128.24377 V 3.272843 h 101.63039 v 29.455586 h -62.01176 v 17.569999 h 52.62386 v 28.335931 h -52.62386 v 19.63706 h 64.50945 v 29.972351 z" />
    </g>
  </g>
</svg>
