<?xml version="1.0" encoding="utf-8"?>
<!-- Generator: Adobe Illustrator 21.1.0, SVG Export Plug-In . SVG Version: 6.00 Build 0)  -->
<svg version="1.1" id="Layer_2" xmlns="http://www.w3.org/2000/svg" xmlns:xlink="http://www.w3.org/1999/xlink" x="0px" y="0px"
	 viewBox="0 0 841.2 151.9" style="enable-background:new 0 0 841.2 151.9;" xml:space="preserve">
<style type="text/css">
	.st0{fill:#FF0000;}
</style>
<path d="M288.1,142.7l-20.8-20.8c9.8-12,15.7-27.4,15.7-44.1c0-38.7-31.3-70-70-70s-70,31.3-70,70s31.3,70,70,70
	c17.2,0,33-6.2,45.2-16.6l20.7,20.7L288.1,142.7z M213,134.8c-31.5,0-57-25.5-57-57s25.5-57,57-57s57,25.5,57,57
	c0,13.1-4.5,25.2-11.9,34.9l-20-20l-9.2,9.2L249,122C239.2,130,226.6,134.8,213,134.8z"/>
<path d="M409.6,13.8l-0.2,72c-0.3,27.9-22.9,50.4-50.9,50.4s-50.6-22.5-50.9-50.4v-72H296v72h0c0.3,34.3,28.1,62,62.5,62
	s62.2-27.7,62.5-62h0v-72H409.6z"/>
<polygon points="484.7,0 408.4,148.3 422.1,148.3 484.7,26.8 547.2,148.3 561,148.3 "/>
<polygon class="st0" points="484.7,77.8 448.4,148.3 521,148.3 "/>
<g>
	<path d="M664.9,77.3L581,77.1v11.6h83.9v0c0,0,0,0,0,0h0.1v0c20.6-0.2,37.3-17,37.3-37.7c0-20.7-16.7-37.5-37.3-37.7v0l-0.1,0
		c0,0,0,0,0,0v0L581,13.8l0,10.9h83.9c14.4,0.1,26,11.9,26,26.3S679.2,77.1,664.9,77.3z"/>
	<polygon points="569.4,148.3 581,148.3 581,13.8 569.6,13.8 	"/>
	<polygon points="586.8,88.7 675.2,148.3 696.7,148.3 608.5,88.7 	"/>
</g>
<polygon points="841.2,24.7 841.2,13.3 723,13.8 723,13.8 711.6,13.8 711.4,148.3 723,148.3 841.2,148.3 841.2,136.9 723,137.4 
	723,88.7 831,88.7 831,77.3 723,77.1 723,24.7 "/>
<polygon points="484.7,39.9 428.9,148.3 431.6,148.3 439.5,148.3 441.6,148.3 484.7,64.6 527.7,148.3 529.9,148.3 537.8,148.3 
	540.5,148.3 "/>
<path d="M112.8,82.6L112.8,82.6L26,59.8l0,0.2c-7.2-1.9-12.6-8.4-12.7-16.2c0.1-9.2,7.6-16.9,16.7-17l0,0h63l0,0
	c16.4,0.3,29.7,13.6,30,30h13c-0.3-23.6-19.4-42.7-43-43l0,0H30l0,0C13.5,14,0.2,27.3,0,43.8c0.2,14.1,10,25.9,23.2,29.1l0-0.1
	L110,95.8l0-0.2c7.2,1.9,12.6,8.4,12.7,16.2c-0.1,9.2-7.6,16.9-16.7,17H43l0,0c-16.4-0.3-29.7-13.6-30-30H0
	c0.3,23.6,19.4,42.7,43,43l0,0h63v0c16.5-0.2,29.8-13.5,30-30C135.8,97.6,126,85.8,112.8,82.6z"/>
</svg>
