<?xml version="1.0" encoding="UTF-8"?>
<svg width="800px" height="400px" viewBox="0 0 800 400" version="1.1" xmlns="http://www.w3.org/2000/svg" xmlns:xlink="http://www.w3.org/1999/xlink">
    <title>taito_2</title>
    <g id="Page-1" stroke="none" stroke-width="1" fill="none" fill-rule="evenodd">
        <g id="Manufacturer" fill="#000000" fill-rule="nonzero">
            <g id="taito_2">
                <line x1="0" y1="0" x2="800" y2="400" id="Path"></line>
                <path d="M800,48.6500975 L745.329807,260.899152 L398.857362,351.349903 L54.6900087,259.367538 L0,48.6500975 L800,48.6500975 Z M19.9789485,66.8331854 L66.8289434,247.308521 L398.894781,336.053962 L733.177384,248.795718 L779.889852,67.4224522 L401.893036,138.112172 L19.9789485,66.8331854 Z M28.4280999,72.1186316 L399.643056,146.057529 L771.583992,73.6489184 L729.177995,242.487615 L398.954312,328.073097 L397.275803,328.067094 L70.8362978,240.966064 L28.4280999,72.1186316 Z M37.3656065,80.6208609 L76.2852716,235.58866 L398.127799,321.462595 L723.730409,237.075857 L762.650074,82.108058 L400.263073,152.658036 L398.987986,152.65527 L37.3656065,80.6208609 Z M418.20329,169.316495 L418.20329,292.320337 L400.631301,299.77512 L383.591802,292.852827 L383.591802,169.848985 L401.163791,175.173807 L418.20329,169.316495 Z M276.296233,147.484638 L317.297523,157.3356 L350.31154,287.261734 L317.031278,279.540733 L313.037655,254.780207 L273.101319,244.929246 L265.646537,267.559811 L235.028699,259.572565 L276.296233,147.484638 Z M558.779121,142.15979 L558.779121,169.848985 L517.777831,179.433701 L517.777831,268.891036 L486.361258,277.943263 L486.361258,185.291013 L446.957412,194.34324 L446.957412,163.991647 L558.779121,142.15979 Z M116.817214,116.068065 L234.496235,140.562346 L234.496235,169.316495 L191.365011,158.933043 L191.365011,248.922869 L160.214683,239.338152 L160.214683,153.87444 L116.817214,144.289724 L116.817214,116.068065 Z M641.314163,124.587899 C673.957368,124.587899 700.419913,151.050444 700.419913,183.693649 C700.419913,216.336853 673.957368,242.799399 641.314163,242.799399 C608.670959,242.799399 582.208413,216.336853 582.208413,183.693649 C582.208413,151.050444 608.670959,124.587899 641.314163,124.587899 Z M295.199421,187.420947 L280.822346,222.032435 L306.914071,227.091038 L295.199421,187.420947 Z M641.047918,154.406901 C625.314482,154.406901 612.560012,167.161372 612.560012,182.894808 C612.560012,198.628244 625.314482,211.382715 641.047918,211.382715 C656.781355,211.382715 669.535825,198.628244 669.535825,182.894808 C669.535825,167.161372 656.781355,154.406901 641.047918,154.406901 Z M720.80417,63.4285332 L82.3383349,63.4285332 L401.887882,123.066773 L720.80417,63.4285332 Z" id="Shape"></path>
            </g>
        </g>
    </g>
</svg>