<?xml version="1.0" encoding="UTF-8" standalone="no"?>
<svg
   xmlns:dc="http://purl.org/dc/elements/1.1/"
   xmlns:cc="http://creativecommons.org/ns#"
   xmlns:rdf="http://www.w3.org/1999/02/22-rdf-syntax-ns#"
   xmlns:svg="http://www.w3.org/2000/svg"
   xmlns="http://www.w3.org/2000/svg"
   xmlns:sodipodi="http://sodipodi.sourceforge.net/DTD/sodipodi-0.dtd"
   xmlns:inkscape="http://www.inkscape.org/namespaces/inkscape"
   inkscape:version="1.0 (4035a4fb49, 2020-05-01)"
   sodipodi:docname="THQ_2011.svg"
   xml:space="preserve"
   enable-background="new 0 0 1000 448.503"
   viewBox="0 0 1000 448.503"
   height="448.503px"
   width="1000px"
   y="0px"
   x="0px"
   id="Layer_1"
   version="1.1"><metadata
   id="metadata17"><rdf:RDF><cc:Work
       rdf:about=""><dc:format>image/svg+xml</dc:format><dc:type
         rdf:resource="http://purl.org/dc/dcmitype/StillImage" /><dc:title></dc:title></cc:Work></rdf:RDF></metadata><defs
   id="defs15" /><sodipodi:namedview
   inkscape:current-layer="g10"
   inkscape:window-maximized="1"
   inkscape:window-y="-8"
   inkscape:window-x="-8"
   inkscape:cy="224.2515"
   inkscape:cx="500"
   inkscape:zoom="1.093"
   inkscape:pagecheckerboard="true"
   showgrid="false"
   id="namedview13"
   inkscape:window-height="961"
   inkscape:window-width="1280"
   inkscape:pageshadow="2"
   inkscape:pageopacity="0"
   guidetolerance="10"
   gridtolerance="10"
   objecttolerance="10"
   borderopacity="1"
   bordercolor="#666666"
   pagecolor="#ffffff" />
<g
   id="g10">
	
	<polygon
   id="polygon4"
   points="314.084,12.672 0,12.672 0,117.705 104.512,117.705 104.512,327.776 209.558,327.776    209.558,117.705 314.084,117.705  "
   fill="#A1A3A6" />
	<polygon
   id="polygon6"
   points="498.72,13.741 498.72,117.451 314.084,117.451 314.084,149.011 314.084,222.469 314.084,327.776    419.116,327.776 419.116,222.469 498.72,222.469 498.72,327.776 603.78,327.776 603.78,222.469 603.78,117.451 603.78,13.741  "
   fill="#A1A3A6" />
	<path
   id="path8"
   d="M983.798,263.811C993.826,240.464,1000,207.477,1000,190.74c0.07-52.502-21.42-100.518-55.863-134.891   C909.777,21.434,861.775-0.028,809.26,0c-52.516-0.028-100.518,21.434-134.848,55.85c-34.444,34.373-55.906,82.389-55.906,134.891   c0,52.509,21.518,100.497,55.906,134.87c80.687,80.729,147.618,27.791,147.618,97.972v24.922h106.932V414.44   c0-116.115-93.401-130.882-120.715-137.437c-16.075-3.882-82.938-16.821-82.938-86.263c0-22.883,9.325-44.007,24.585-59.379   c15.358-15.274,36.047-24.556,59.365-24.584c23.375,0.028,44.021,9.311,59.394,24.584c15.273,15.372,24.247,36.005,24.627,59.379   c0.576,35.625-28.088,66.179-39.577,73.071H983.798z"
   fill="#ED1C24" />
</g>
</svg>
