<?xml version="1.0" encoding="UTF-8" standalone="no"?>
<svg
   xmlns:dc="http://purl.org/dc/elements/1.1/"
   xmlns:cc="http://creativecommons.org/ns#"
   xmlns:rdf="http://www.w3.org/1999/02/22-rdf-syntax-ns#"
   xmlns:svg="http://www.w3.org/2000/svg"
   xmlns="http://www.w3.org/2000/svg"
   xmlns:sodipodi="http://sodipodi.sourceforge.net/DTD/sodipodi-0.dtd"
   xmlns:inkscape="http://www.inkscape.org/namespaces/inkscape"
   version="1.1"
   id="Layer_1"
   x="0px"
   y="0px"
   width="1000"
   height="237.653"
   viewBox="0 0 1000 237.653"
   enable-background="new 0 0 1080 792"
   xml:space="preserve"
   inkscape:version="0.91 r13725"
   sodipodi:docname="THQ 2000.svg"><metadata
   id="metadata20"><rdf:RDF><cc:Work
       rdf:about=""><dc:format>image/svg+xml</dc:format><dc:type
         rdf:resource="http://purl.org/dc/dcmitype/StillImage" /><dc:title /></cc:Work></rdf:RDF></metadata><defs
   id="defs18" /><sodipodi:namedview
   pagecolor="#ffffff"
   bordercolor="#666666"
   borderopacity="1"
   objecttolerance="10"
   gridtolerance="10"
   guidetolerance="10"
   inkscape:pageopacity="0"
   inkscape:pageshadow="2"
   inkscape:window-width="1366"
   inkscape:window-height="705"
   id="namedview16"
   showgrid="false"
   inkscape:zoom="0.82589285"
   inkscape:cx="517.96714"
   inkscape:cy="89.483102"
   inkscape:window-x="-8"
   inkscape:window-y="-8"
   inkscape:window-maximized="1"
   inkscape:current-layer="Layer_1" />
<path
   inkscape:connector-curvature="0"
   id="path29"
   d="m 853.70658,210.63007 c -18.65803,24.2783 -25.77426,24.46529 -36.86933,24.46529 L 14.30313,235.34469 C 4.7351773,235.45897 -2.7342668,230.33736 6.5324149,216.8321 L 156.10829,13.619588 C 165.37498,0.103946 172.0341,3.064713 183.00452,2.545281 l 802.53411,-0.23894 c 12.83,-0.03117 16.08167,6.357858 6.80458,19.873501 L 853.70658,210.63007 Z"
   clip-path="url(#SVGID_6_)" /><path
   style="fill:none;stroke:#ffffff;stroke-width:4.61256361"
   inkscape:connector-curvature="0"
   id="path31"
   d="m 853.70658,210.63007 c -18.65803,24.2783 -25.77426,24.46529 -36.86933,24.46529 L 14.30313,235.34469 C 4.7351773,235.45897 -2.7342668,230.33736 6.5324149,216.8321 L 156.10829,13.619588 C 165.37498,0.103946 172.0341,3.064713 183.00452,2.545281 l 802.53411,-0.23894 c 12.83,-0.03117 16.08167,6.357858 6.80458,19.873501 L 853.70658,210.63007 Z"
   clip-path="url(#SVGID_6_)" /><path
   style="fill:#ffffff"
   inkscape:connector-curvature="0"
   id="path33"
   d="m 183.71095,45.710149 -26.12747,32.983984 89.56062,0 -69.47934,89.456717 77.06305,0 57.21033,-74.237335 -32.17367,-0.08311 c 0,0 9.46407,-15.76998 27.78965,-15.76998 l 74.31007,0 25.58726,-32.24639 -223.7405,-0.103893"
   clip-path="url(#SVGID_6_)" /><path
   style="fill:#ffffff"
   inkscape:connector-curvature="0"
   id="path35"
   d="m 419.49191,45.824424 -94.703,121.807006 77.26044,0 43.44536,-54.60279 50.88364,0 -41.89746,54.60279 77.26045,0 74.28928,-95.804198 c 0.0104,0 19.97739,-26.117083 -12.73649,-26.117083 l -44.06868,0.11427 -37.13945,47.081391 -87.26472,0.08312 c 0,0 6.76302,-15.250548 25.69115,-15.250548 l 22.02395,0 24.90162,-31.913953 -77.94609,0"
   clip-path="url(#SVGID_6_)" /><path
   style="fill:#ffffff"
   inkscape:connector-curvature="0"
   id="path37"
   d="m 622.75636,167.1951 -44.18295,-0.15582 c -33.03593,0 -15.20901,-22.8135 -15.20901,-22.8135 l 59.67245,-76.917614 c 15.65571,-21.442188 41.24298,-21.639571 41.24298,-21.639571 l 163.79794,0 c 36.66156,0 17.54644,25.628815 17.54644,25.628815 l -66.60168,86.5479 -16.54912,0 c -18.13861,0 -26.37681,16.52836 -26.37681,16.52836 l 86.50635,0 -13.86886,17.87887 -205.9655,-0.0727 19.98777,-24.98472"
   clip-path="url(#SVGID_6_)" /><path
   inkscape:connector-curvature="0"
   id="path39"
   d="m 717.60479,140.22615 c -3.8438,4.97616 -11.56257,8.98619 -17.24516,8.99658 l -53.97947,-0.34282 c -5.69298,0.0104 -7.16817,-4.01003 -3.32437,-8.95504 l 46.17758,-59.599718 c 3.84381,-4.965777 10.94965,-8.601807 16.63225,-8.622584 L 760.458,71.6714 c 5.69299,-0.01039 7.16818,4.010023 3.32437,8.965411 l -46.17758,59.589339"
   clip-path="url(#SVGID_6_)" /><polyline
   style="fill:#de000f;fill-opacity:1"
   id="polyline41"
   points="111.434,712.236 69.533,712.233 70.883,710.554 112.783,710.557      111.434,712.236    "
   clip-path="url(#SVGID_6_)"
   transform="matrix(10.388657,0,0,10.388657,-562.86986,-7207.2759)" /><path
   style="fill:#ffffff"
   inkscape:connector-curvature="0"
   id="path47"
   d="M 637.17581,32.173729"
   clip-path="url(#SVGID_6_)" /><path
   style="fill:#ffffff"
   inkscape:connector-curvature="0"
   id="path49"
   d="M 562.87615,127.96753"
   clip-path="url(#SVGID_6_)" /><path
   style="fill:#ffffff"
   inkscape:connector-curvature="0"
   id="path51"
   d="M 583.36258,118.25414"
   clip-path="url(#SVGID_6_)" /><path
   style="fill:#ffffff"
   inkscape:connector-curvature="0"
   id="path53"
   d="M 523.69013,195.17175"
   clip-path="url(#SVGID_6_)" />
</svg>