<?xml version="1.0" encoding="UTF-8"?>
<svg width="800px" height="400px" viewBox="0 0 800 400" version="1.1" xmlns="http://www.w3.org/2000/svg" xmlns:xlink="http://www.w3.org/1999/xlink">
    <title>ubisoft_3</title>
    <g id="Page-1" stroke="none" stroke-width="1" fill="none" fill-rule="evenodd">
        <g id="Manufacturer" fill="#000000" fill-rule="nonzero">
            <g id="ubisoft_3">
                <line x1="0" y1="0" x2="800" y2="400" id="Path"></line>
                <path d="M515.566719,184.821365 L515.566719,185.646523 C515.566719,185.646523 533.717699,185.745292 533.651436,185.646523 C533.651436,177.443701 534.076517,166.774155 514.360238,166.774155 L454.940096,166.774155 L454.940096,190.11488 C454.940096,196.614876 457.88441,207.663245 473.258608,207.663245 L516.140579,207.663245 L516.140579,211.326447 C516.140579,215.5135 515.749254,217.361354 507.686458,217.361354 L475.98163,217.361354 C472.299674,217.361354 472.597231,214.294516 472.597231,214.294516 L472.597231,213.145546 L454.33873,213.145546 L454.33873,218.296533 C454.33873,224.183912 456.754193,232.541764 470.381806,232.541764 L517.417074,232.541764 C526.296276,232.541764 535.893116,229.221128 535.893116,217.76018 L535.893116,206.930604 C535.893116,200.395601 534.337818,192.003992 519.461215,192.003992 L485.814765,192.003992 C476.074147,192.003992 474.555106,189.74731 474.555106,185.336464 L474.555106,181.942063 L512.318596,181.942063 C513.612594,181.940813 515.566719,182.467164 515.566719,184.821365 L515.566719,184.821365 Z M286.54156,204.35261 C286.54156,208.544663 285.698899,211.512733 284.029829,213.244314 C282.353257,214.988399 279.476456,215.842313 275.393173,215.842313 L255.595627,215.842313 C251.514845,215.842313 248.653046,214.984648 246.967723,213.244314 C245.2799,211.510232 244.450991,208.542163 244.450991,204.35261 L244.450991,166.792909 L224.493415,166.792909 L224.493415,208.664686 C224.493415,216.812499 226.645077,222.846155 230.962155,226.715647 C235.285484,230.623896 242.034278,232.543014 251.193534,232.543014 L306.505388,232.543014 L306.529142,166.792909 L286.544061,166.792909 L286.54156,204.35261 L286.54156,204.35261 Z M394.234707,198.776541 C397.597852,197.865116 400.044571,196.402336 401.562362,194.431958 C403.098907,192.489085 403.852801,189.000917 403.852801,183.891187 C403.852801,177.569975 401.982443,173.16288 398.251727,170.629895 C394.493507,168.10066 388.477353,166.792909 380.200767,166.792909 L322.709745,166.792909 L322.709745,232.543014 L386.325691,232.543014 C392.671908,232.543014 397.604103,231.294025 401.023509,228.853557 C404.47417,226.385584 406.178247,221.233346 406.178247,214.645833 C406.178247,209.599866 405.315582,205.875402 403.493982,203.471191 C401.728644,201.010719 398.608046,199.467923 394.234707,198.776541 Z M342.61356,181.940813 L378.02785,181.940813 C381.922347,181.940813 383.881472,183.671145 383.881472,187.073047 C383.881472,188.962159 383.422634,190.733749 382.449948,191.502646 C381.483513,192.257791 380.023233,192.607858 378.02785,192.607858 L342.61356,192.607858 L342.61356,181.940813 L342.61356,181.940813 Z M383.880222,216.347409 C382.686243,217.033791 380.893399,217.363854 378.487938,217.363854 L342.614811,217.363854 L342.614811,206.056686 L378.487938,206.056686 C380.837139,206.056686 382.612479,206.465515 383.852717,207.271919 C385.076701,208.05832 385.686818,209.902424 385.686818,211.964069 C385.685568,213.746911 385.109208,215.634773 383.880222,216.347409 Z M419.059467,166.792909 L439.028295,166.792909 L439.028295,232.543014 L419.059467,232.543014 L419.059467,166.792909 Z M648.350926,232.541764 L668.296,232.541764 L668.296,211.23643 L714.106033,211.23643 L714.106033,194.515724 L668.296,194.515724 L668.296,183.458604 L716.352713,183.458604 L716.352713,166.792909 L648.350926,166.792909 L648.350926,232.541764 Z M723.865404,166.792909 L723.865404,183.363586 L751.925783,183.363586 L751.925783,232.541764 L771.912115,232.541764 L771.912115,183.363586 L800,183.363586 L800,166.792909 L723.865404,166.792909 Z M574.868088,166.792909 C562.391946,166.792909 557.806067,168.67577 553.378968,171.872633 C548.941867,175.059494 546.200092,180.600556 546.200092,189.572276 L546.200092,209.006002 C546.200092,218.047735 548.534289,224.257676 553.235191,227.587064 C557.949844,230.927705 564.157285,232.540514 574.868088,232.540514 L605.158895,232.540514 C615.873449,232.540514 621.512031,231.090236 626.25669,227.699586 C630.945089,224.360196 633.123007,219.156698 633.123007,209.006002 L633.123007,166.792909 L574.868088,166.792909 L574.868088,166.792909 Z M612.980395,203.428683 C612.980395,208.820966 612.450293,211.210175 610.761219,213.004268 C609.080897,214.799613 606.180341,215.843563 601.63572,215.843563 L577.609864,215.843563 C572.430121,215.843563 569.947145,214.670838 568.481864,212.955509 C567.00033,211.23643 566.198926,208.289615 566.198926,202.806063 L566.198926,195.782217 C566.198926,191.293856 567.059091,188.598339 568.745664,186.525442 C570.467244,184.418788 573.759125,183.377338 578.672567,183.377338 L612.977894,183.377338 L612.980395,203.428683 L612.980395,203.428683 Z M102.899412,91.1125969 C46.0952784,91.1125969 0,137.206028 0,194.013856 C0,250.807828 46.0943547,296.887403 102.900335,296.887403 C159.710011,296.887403 205.794205,250.807828 205.794205,194.013856 C205.794205,137.206028 159.709087,91.1125969 102.899412,91.1125969 Z M105.102519,279.79423 C40.079919,280.127163 34.5726135,222.851002 34.5726135,222.851002 C30.9432604,192.311413 52.778498,164.589215 83.3310187,160.960786 C104.481769,158.440838 124.276477,168.139127 135.658734,184.478144 C126.6865,175.361808 113.739437,170.323759 100.049691,171.949532 C76.5600443,174.747524 59.794262,196.043301 62.5802454,219.518167 C65.3736188,243.01428 86.5825643,258.868336 110.159965,256.991307 C133.636679,255.12444 154.623005,232.613952 149.959993,198.772013 C145.526067,166.518897 118.417229,144.911822 85.8445004,144.911822 C49.8927512,144.911822 20.7433833,174.208063 20.7433833,210.333475 C20.7433833,215.133199 21.2514374,219.812839 22.2269011,224.315121 L22.8079301,226.576423 C10.8769745,198.195602 14.5682178,164.332417 35.3439318,138.760673 C65.3745425,101.807596 119.715999,96.2476373 156.657992,126.267163 L156.648755,126.254231 C177.059594,141.864421 190.523949,166.68794 190.523949,194.375036 C190.523949,241.551084 153.138563,279.530431 105.102519,279.79423 L105.102519,279.79423 Z M97.1528589,230.156818 C105.614268,230.526312 112.769515,223.96872 113.122382,215.506388 C113.348697,210.576417 111.199167,206.107389 107.708374,203.149591 C113.837353,206.771554 117.831581,213.566546 117.503655,221.181813 C117.025161,232.178873 107.721306,240.722494 96.7205511,240.244 C85.7161013,239.766429 77.1826414,230.474583 77.6629834,219.461819 C77.9881379,211.850247 82.5439968,205.42752 88.9630283,202.344094 C85.2311407,204.988746 82.7093453,209.259171 82.5024288,214.199304 C82.1357061,222.645009 88.6914503,229.789172 97.1528589,230.156818 Z M119.485066,236.879758 C128.638352,225.615739 126.9239,209.052255 115.659881,199.914672 C104.388472,190.757692 87.8416145,192.470296 78.6781677,203.726925 C73.345448,210.284517 71.7067429,218.642467 73.4913981,226.287294 C68.7526398,215.020504 70.2139879,201.590327 78.4555476,191.453264 C90.3763422,176.797291 111.915985,174.573862 126.573805,186.480801 C141.230701,198.387739 143.458749,219.917221 131.547192,234.569498 C123.301013,244.712104 110.450018,248.906782 98.4654857,246.56881 C106.304297,246.754481 114.152346,243.441045 119.485066,236.879758 L119.485066,236.879758 Z" id="Combined-Shape"></path>
            </g>
        </g>
    </g>
</svg>