<?xml version="1.0" encoding="UTF-8"?>
<svg width="800px" height="400px" viewBox="0 0 800 400" version="1.1" xmlns="http://www.w3.org/2000/svg" xmlns:xlink="http://www.w3.org/1999/xlink">
    <title>ubisoft_5</title>
    <g id="Page-1" stroke="none" stroke-width="1" fill="none" fill-rule="evenodd">
        <g id="Manufacturer" fill="#000000" fill-rule="nonzero">
            <g id="ubisoft_5">
                <line x1="0" y1="0" x2="800" y2="400" id="Path"></line>
                <path d="M517.751918,79 C527.011713,79 535.72443,80.8180164 543.887657,84.4543298 C552.172669,88.0907555 559.421219,93.1068285 565.634992,99.5018193 C571.848765,105.771433 576.722793,113.106524 580.256123,121.507821 C583.911237,129.909061 585.739243,138.875841 585.739243,148.405695 C585.739243,158.186302 583.972859,167.402714 580.439473,176.054708 C576.906144,184.706757 572.032172,192.293275 565.818343,198.813698 C559.60457,205.208689 552.29451,210.286272 543.887657,214.048018 C535.602589,217.684443 526.707082,219.502347 517.203606,219.502347 C507.822026,219.502347 498.989825,217.684443 490.704813,214.048018 C482.419745,210.411704 475.169399,205.458881 468.955626,199.189267 C462.741797,192.794276 457.808111,185.332518 454.152941,176.805845 C450.619612,168.279228 448.853171,159.189426 448.853171,149.534252 C448.853171,139.628268 450.619612,130.411914 454.152941,121.885241 C457.808111,113.233191 462.741797,105.771433 468.955626,99.5018193 C475.29124,93.1068285 482.6013,88.0907555 490.886368,84.4543298 C499.29322,80.8180164 508.248497,79 517.751918,79 Z M517.570363,104.580581 C511.600272,104.580581 505.995086,105.772724 500.756041,108.155104 C495.516939,110.412162 490.947036,113.54697 487.048184,117.559525 C483.149331,121.446704 480.043596,126.084683 477.728619,131.476549 C475.535539,136.868412 474.438747,142.637082 474.438747,148.781263 C474.438747,155.050877 475.535539,160.944306 477.728619,166.461492 C479.921755,171.853414 482.906211,176.618004 486.683222,180.755936 C490.582074,184.768492 495.090468,187.96666 500.207729,190.349152 C505.446774,192.731644 511.111674,193.921823 517.203606,193.921823 C523.295594,193.921823 528.962289,192.731644 534.201391,190.349152 C539.440437,187.96666 543.946978,184.707038 547.723989,180.569106 C551.622842,176.431174 554.668864,171.664676 556.862,166.27281 C559.055023,160.755511 560.151928,154.862139 560.151928,148.592525 C560.151928,142.57372 558.995309,136.931774 556.680389,131.665287 C554.487309,126.273365 551.441343,121.57208 547.542491,117.559525 C543.76548,113.54697 539.257086,110.412162 534.017984,108.155104 C528.90078,105.772724 523.418669,104.580581 517.570363,104.580581 Z M392.466658,79.5643068 C381.501147,79.5643068 372.422851,82.9505966 365.234295,89.7218295 C357.802169,96.6183826 354.0865,105.583256 354.0865,116.617798 C354.0865,135.551902 363.468865,147.903178 382.23208,153.67123 C388.933217,155.802912 394.170916,157.559363 397.947983,158.938729 C410.131903,162.575099 416.223891,169.094344 416.223891,178.498765 C416.223891,190.787184 409.706554,196.932039 396.669748,196.932039 C382.292804,196.932039 374.676823,189.596949 373.823937,174.926094 L353.721538,174.926094 L353.721538,217.05829 L372.91072,217.05829 L372.91072,208.782426 C380.342901,215.804412 389.359688,219.313609 399.959676,219.313609 C412.874585,219.313609 423.290382,215.051872 431.209927,206.525255 C438.642108,198.625521 442.35963,188.844745 442.35963,177.183265 C442.35963,158.249046 432.67314,145.583038 413.300776,139.188047 C408.183515,137.557927 401.785606,135.490449 394.109743,132.982639 C383.266072,129.597023 377.845528,124.01653 377.845528,116.242229 C377.845528,106.336245 383.448918,101.383478 394.658111,101.383478 C407.085656,101.383478 414.031934,107.589787 415.494024,120.003638 L435.048167,120.003638 L435.048167,82.0102724 L416.590648,82.0102724 L416.590648,88.4044775 C410.864239,82.511049 402.822965,79.5643068 392.466658,79.5643068 L392.466658,79.5643068 Z M0,82.3858408 L0,103.827535 L14.0728184,103.827535 L14.0728184,169.658595 C14.0728184,173.29502 14.2557762,176.806125 14.6211305,180.191686 C14.9864848,183.451869 15.6562448,186.650038 16.6309719,189.784845 C17.605699,192.79422 18.8852808,195.740906 20.4691562,198.62496 C22.1749285,201.508958 24.3685134,204.267579 27.0489567,206.900824 C31.6788541,211.665694 36.8568953,214.925317 42.5833045,216.680869 C48.3097138,218.43631 54.3402482,219.313609 60.6758619,219.313609 C67.2551574,219.313609 73.4684251,218.311551 79.3167314,216.305245 C85.2868224,214.298995 90.5879391,210.78789 95.2178365,205.77221 C100.091416,200.505721 103.258661,195.051896 104.720696,189.409277 C106.304627,183.766601 107.097351,177.433569 107.097351,170.41164 L107.097351,103.827535 L121.168317,103.827535 L121.168317,82.3858408 L70.362128,82.3858408 L70.362128,103.827535 L82.2416422,103.827535 L82.2416422,167.025799 C82.2416422,170.536792 81.9975114,174.047897 81.5099795,177.55889 C81.0228405,181.069827 79.6833203,184.267996 77.4902406,187.152049 C75.4189455,189.910671 72.9213477,191.978262 69.9972227,193.357516 C67.0730415,194.61145 63.9655097,195.239175 60.6758619,195.239175 C57.1425324,195.239175 53.7924413,194.486635 50.6246345,192.981948 C47.4568276,191.351828 44.8379502,188.969505 42.7667113,185.834698 C40.939098,182.9507 39.8423056,179.940652 39.4767829,176.805845 C39.1114286,173.545661 38.9284709,170.286039 38.9284709,167.025799 L38.9284709,103.827535 L50.8080412,103.827535 L50.8080412,82.3858408 L0,82.3858408 Z M180.971313,82.3858408 C195.591995,82.3858408 206.740801,86.3365498 214.416664,94.2362278 C220.508596,100.631219 223.554618,108.217792 223.554618,116.995218 C223.554618,130.036065 218.376577,139.000936 208.02027,143.89124 C221.666225,150.035422 228.48763,160.568737 228.48763,175.490401 C228.48763,189.032754 223.919523,199.566014 214.781569,207.089562 C206.86208,213.484553 196.9928,216.680869 185.174459,216.680869 L127.788413,216.680869 L127.788413,195.614687 L144.236035,195.614687 L144.236035,103.451967 L128.701687,103.451967 L128.701687,82.3858408 Z M182.61625,157.057071 L167.446807,157.057071 L167.446807,195.614687 L182.61625,195.614687 C196.505886,195.614687 203.450367,189.156952 203.450367,176.241538 C203.450367,163.451556 196.505886,157.057071 182.61625,157.057071 Z M181.519625,103.451967 L167.446807,103.451967 L167.446807,136.179683 L181.519625,136.179683 C193.459808,136.179683 199.430628,130.724009 199.430628,119.8149 C199.430628,108.905792 193.459808,103.451967 181.519625,103.451967 Z M237.189124,82.3858408 L237.189124,103.827535 L251.445349,103.827535 L251.445349,195.239175 L237.189124,195.239175 L237.189124,216.680869 L290.371968,216.680869 L290.371968,195.239175 L276.299149,195.239175 L276.299149,103.827535 L290.371968,103.827535 L290.371968,82.3858408 L237.189124,82.3858408 Z M591.640528,82.3858408 L591.640528,103.827535 L605.896697,103.827535 L605.896697,195.239175 L591.640528,195.239175 L591.640528,216.680869 L645.006779,216.680869 L645.006779,195.239175 L630.75235,195.239175 L630.75235,159.503036 L668.582401,159.503036 L668.582401,139.75241 L630.75235,139.75241 L630.75235,105.33357 L664.195961,105.33357 L664.195961,122.825116 L689.051613,122.825116 L689.051613,82.3858408 L591.640528,82.3858408 Z M697.289202,82.3858408 L697.289202,124.706775 L717.028491,124.706775 L717.028491,105.144887 L736.217673,105.144887 L736.217673,195.239175 L721.961447,195.239175 L721.961447,216.680869 L775.327698,216.680869 L775.327698,195.239175 L761.073437,195.239175 L761.073437,105.144887 L780.262563,105.144887 L780.262563,124.706775 L800,124.706775 L800,82.3858408 L697.289202,82.3858408 Z M555.303891,268.541504 C557.926159,268.541791 560.285471,269.099106 562.382201,270.214571 C564.531292,271.281601 566.307484,272.736615 567.709581,274.579643 C569.156885,276.422671 570.19541,278.581142 570.826714,281.054667 C571.458047,283.528164 571.571202,286.146857 571.165067,288.911385 C570.744708,291.772895 569.851546,294.465132 568.486359,296.987148 C567.128327,299.460673 565.451428,301.642749 563.455466,303.534241 C561.466686,305.377269 559.237955,306.856807 556.768272,307.972328 C554.305687,309.039329 551.739828,309.573067 549.072338,309.573067 C546.404765,309.573067 543.996628,309.039329 541.847537,307.972328 C539.75078,306.856807 537.979264,305.377269 536.53196,303.534241 C535.091754,301.642749 534.05618,299.460673 533.424848,296.987148 C532.84596,294.465132 532.76245,291.797419 533.175711,288.9844 C533.589,286.171381 534.474563,283.528164 535.832623,281.054667 C537.242988,278.532651 538.942853,276.349656 540.931688,274.506628 C542.920524,272.6636 545.146304,271.208585 547.608917,270.141584 C549.949496,269.145716 552.339907,268.615205 554.780239,268.548896 L555.303891,268.541504 Z M517.71016,255.5187 C521.553242,255.5187 524.370047,256.658772 526.160185,258.938277 L526.523981,256.465114 L533.373072,256.465114 L531.214684,271.160038 L523.958038,271.160038 C524.120882,266.358518 521.896132,263.95862 517.284512,263.95862 C513.124957,263.95862 510.763558,265.873828 510.200675,269.705358 C509.758938,272.712397 511.454627,274.870869 515.286101,276.180382 C517.991977,277.150401 520.247988,277.950033 522.054299,278.580558 C528.879701,281.054055 531.753877,285.952864 530.677996,293.276429 C530.015403,297.786974 528.080821,301.570235 524.873999,304.625738 C521.450692,307.923781 517.342635,309.573067 512.550105,309.573067 C508.616666,309.573067 505.470388,308.215146 503.111439,305.499137 L502.641168,308.699668 L495.520087,308.699668 L497.914083,292.403977 L505.374436,292.403977 C504.857317,298.078534 507.265983,300.915019 512.601046,300.915019 C517.438782,300.915019 520.207263,298.5387 520.905486,293.78567 C521.439891,290.148133 519.54982,287.62659 515.235216,286.220095 C513.912007,285.68658 512.067782,285.00762 509.702235,284.18313 C503.06729,281.952117 500.287368,277.174925 501.363222,269.851388 C501.990212,265.583354 503.878279,262.115064 507.028064,259.447546 C510.080394,256.82852 513.641074,255.5187 517.71016,255.5187 Z M596.532401,255.228504 L595.367276,263.158237 C593.249362,263.10969 591.65266,263.667005 590.577391,264.831073 C589.502177,265.995056 588.856899,267.619846 588.640888,269.705358 L593.388016,269.705358 L592.169166,277.999248 L587.422066,277.999248 L584.15211,300.260694 L588.899238,300.260694 L587.680389,308.554584 L569.980011,308.554584 L571.198833,300.260694 L575.877734,300.260694 L579.148552,277.999248 L574.468789,277.999248 L575.687638,269.705358 L580.366456,269.705358 C581.040879,264.806799 582.751154,261.169708 585.496503,258.793193 C588.287113,256.416678 591.96596,255.228504 596.532401,255.228504 Z M612.965772,256.610198 L611.042018,269.705358 L617.213485,269.705358 L615.994663,277.999248 L609.823196,277.999248 L606.55324,300.260694 L613.131315,300.260694 L611.913412,308.554584 L597.060905,308.554584 L601.549682,277.999248 L595.852939,277.999248 L597.070898,269.705358 L602.768504,269.705358 L604.69223,256.610198 L612.965772,256.610198 Z M554.02142,277.271657 C552.529438,277.271657 551.05903,277.586599 549.610028,278.217124 C548.213387,278.79913 546.939393,279.623314 545.787935,280.690315 C544.64366,281.708798 543.670606,282.946019 542.869137,284.401006 C542.074739,285.80753 541.559903,287.310646 541.324684,288.911162 C541.08941,290.511678 541.136732,292.039318 541.465537,293.494305 C541.794314,294.949348 542.350822,296.234615 543.136424,297.350136 C543.974358,298.417137 545.00314,299.265845 546.221712,299.896342 C547.440227,300.526839 548.817606,300.842728 550.35485,300.842728 C551.846859,300.842728 553.291435,300.551363 554.688077,299.969357 C556.137079,299.33886 557.437823,298.490153 558.589253,297.423151 C559.740683,296.35615 560.690687,295.119874 561.439852,293.713379 C562.241376,292.258336 562.759108,290.729777 562.994326,289.129261 C563.229573,287.528773 563.179383,286.025657 562.843452,284.619133 C562.514675,283.164118 561.931333,281.903347 561.093426,280.836346 C560.307824,279.720825 559.305765,278.847621 558.087277,278.217124 C556.868762,277.586599 555.513457,277.271657 554.02142,277.271657 Z M43.8588347,256.610198 L41.5612643,272.251564 L32.3372172,272.251564 L33.3313705,265.486344 L21.1921443,265.486344 L19.2893235,278.435446 L33.3959513,278.435446 L32.2626432,286.14708 L18.1568784,286.14708 L16.1366989,299.896565 L28.2768438,299.896565 L29.3128632,292.840203 L38.5359918,292.840203 L36.2274817,308.554584 L0.351891141,308.554584 L1.570713,300.260694 L6.85992941,300.260694 L12.0545295,264.904088 L6.76442232,264.904088 L7.98235341,256.610198 L43.8588347,256.610198 Z M68.8568055,268.832683 C70.8461422,268.832683 72.6842151,269.244747 74.3715812,270.069265 C76.1041538,270.893754 77.5125145,272.081928 78.5956612,273.633925 C79.1908059,274.506934 79.6240535,275.403743 79.8954595,276.325243 C80.2191703,277.198252 80.4040048,278.095952 80.4493783,279.01748 C80.4947518,279.93898 80.4655235,280.908359 80.3611366,281.926869 C80.2638479,282.896888 80.133072,283.939839 79.9691149,285.055331 L77.7360974,300.260472 L82.4149704,300.260472 L81.1970393,308.554334 L63.5639704,308.554334 L64.7827922,300.260472 L69.4616652,300.260472 L71.310845,287.674553 C71.4890543,286.46205 71.5956682,285.273876 71.6310206,284.109864 C71.7187056,282.897361 71.4790889,281.757289 70.9124487,280.690287 C70.3005743,279.623286 69.465618,278.847204 68.4065499,278.362208 C67.3546079,277.828777 66.2181822,277.561825 64.9974396,277.561825 C63.7315184,277.561825 62.4711366,277.828693 61.2172407,278.362208 C59.9633449,278.895695 58.8707059,279.720825 57.9382105,280.836318 C57.005715,281.951838 56.3609378,283.260683 56.0044634,284.764217 C55.6479333,286.267723 55.3736323,287.674664 55.1812819,288.984177 L53.5249257,300.260472 L58.2038265,300.260472 L56.9858954,308.554334 L39.3527987,308.554334 L40.5716205,300.260472 L45.2504935,300.260472 L48.5213398,277.998997 L43.8415761,277.998997 L45.0603979,269.705135 L58.0137031,269.705135 L57.2014614,275.234664 C58.6071776,273.05217 60.3338767,271.450958 62.3824216,270.432475 C64.4380927,269.365446 66.5961742,268.832683 68.8568055,268.832683 Z M130.307,268.541791 C132.838815,268.541791 135.199017,269.099106 137.386188,270.214571 C139.618565,271.33012 141.473619,272.857732 142.951905,274.797742 C144.461145,276.834763 145.418192,279.090411 145.823436,281.563909 C146.281069,283.988914 146.306957,286.584029 145.900822,289.348529 L145.169529,292.476073 L115.871985,292.476073 C115.943776,293.834078 116.23347,295.095796 116.740652,296.25978 C117.254959,297.375328 117.926125,298.344707 118.754456,299.169197 C119.627994,299.993714 120.61722,300.649097 121.721495,301.134093 C122.832896,301.570736 124.04409,301.788418 125.355274,301.788418 C127.163757,301.788418 128.867296,301.424428 130.46617,300.69692 C132.072197,299.920922 133.51257,298.732748 134.787594,297.132232 L143.400379,297.132232 C142.406253,298.97526 141.207446,300.672619 139.803929,302.224644 C138.452744,303.72815 136.949211,305.037969 135.293328,306.15349 C133.644571,307.220463 131.896549,308.044647 130.047787,308.626653 C128.237077,309.25715 126.381885,309.573067 124.482989,309.573067 C121.815443,309.573067 119.403493,309.063825 117.247276,308.045343 C115.098186,306.978341 113.296105,305.546876 111.841647,303.752368 C110.394343,301.909368 109.355819,299.751787 108.724542,297.27829 C108.093238,294.804765 107.987626,292.137052 108.407985,289.275542 C108.828372,286.414004 109.698542,283.721767 111.018494,281.199779 C112.338446,278.677735 113.970222,276.495658 115.913851,274.652658 C117.909785,272.761139 120.116386,271.281601 122.533737,270.214571 C125.003448,269.099106 127.594276,268.541791 130.307,268.541791 Z M104.061118,256.610198 L102.137365,269.705358 L108.308859,269.705358 L107.090928,277.999248 L100.919434,277.999248 L97.6495059,300.260694 L104.227581,300.260694 L103.008731,308.554584 L88.1571426,308.554584 L92.64592,277.999248 L86.9492048,277.999248 L88.1671359,269.705358 L93.8638232,269.705358 L95.7876049,256.610198 L104.061118,256.610198 Z M174.152325,269.268881 L172.816172,278.362208 C171.490764,278.459163 170.185287,278.726031 168.900437,279.162564 C167.66792,279.550577 166.460873,280.229509 165.278489,281.199529 C163.736875,282.460523 162.671014,283.867464 162.081326,285.419489 C161.498735,286.922995 161.072391,288.595858 160.801542,290.438858 L159.358942,300.260472 L164.037815,300.260472 L162.819884,308.554334 L145.186815,308.554334 L146.405637,300.260472 L151.08451,300.260472 L154.355356,277.998997 L149.675565,277.998997 L150.894414,269.705135 L163.237376,269.705135 L162.264128,276.325243 C163.646016,273.99722 165.368651,272.275309 167.431448,271.159816 C169.546578,269.995804 171.787028,269.365752 174.152325,269.268881 Z M128.735267,276.471274 C127.514525,276.471274 126.280949,276.713646 125.03418,277.198642 C123.832616,277.683637 122.69658,278.338074 121.625988,279.162591 C120.555396,279.987081 119.599239,280.957434 118.757184,282.072927 C117.91513,283.188448 117.265398,284.376594 116.808851,285.637616 L138.782468,285.637616 C138.472313,282.824569 137.398241,280.593472 135.560725,278.944465 C133.723209,277.295457 131.447991,276.471274 128.735267,276.471274 Z M218.570691,268.68682 C220.921596,268.68682 222.987261,269.245053 224.767517,270.360574 C226.547774,271.476066 227.914547,273.100856 228.867001,275.234859 L229.679243,269.705302 L242.632548,269.705302 L241.413698,277.999164 L236.870361,277.999164 L233.599515,300.260639 L238.143771,300.260639 L236.924949,308.554529 L223.971644,308.554529 L224.741128,303.316086 C223.109352,305.498608 221.201353,307.098846 219.017161,308.117356 C216.840095,309.087375 214.553381,309.573011 212.15713,309.573011 C209.579998,309.573011 207.239949,309.039274 205.136093,307.972272 C203.032209,306.905243 201.279009,305.4502 199.876912,303.607228 C198.474787,301.7642 197.454578,299.630225 196.816176,297.205191 C196.230217,294.731694 196.140027,292.113002 196.546161,289.348474 C196.959395,286.535455 197.844985,283.891347 199.203018,281.417822 C200.568204,278.895806 202.226787,276.689206 204.177515,274.797687 C206.173448,272.906195 208.402179,271.427575 210.864736,270.360574 C213.334448,269.245053 215.903146,268.68682 218.570691,268.68682 Z M192.278434,256.610198 L190.354652,269.705358 L196.526147,269.705358 L195.308216,277.999248 L189.136721,277.999248 L185.865903,300.260694 L192.444868,300.260694 L191.226019,308.554584 L176.373539,308.554584 L180.862289,277.999248 L175.165602,277.999248 L176.384423,269.705358 L182.081139,269.705358 L184.004892,256.610198 L192.278434,256.610198 Z M257.698923,269.705135 L253.210174,300.260472 L257.889047,300.260472 L256.671115,308.554334 L238.97071,308.554334 L240.188641,300.260472 L244.935713,300.260472 L248.206588,277.998997 L243.526796,277.998997 L244.745618,269.705135 L257.698923,269.705135 Z M288.737418,268.832683 C290.726755,268.832683 292.564828,269.244747 294.252194,270.069265 C295.984794,270.893754 297.393099,272.081928 298.476274,273.633925 C299.071418,274.506934 299.504666,275.403743 299.776072,276.325243 C300.100061,277.198252 300.284617,278.095952 300.329991,279.01748 C300.375643,279.93898 300.346136,280.908359 300.241749,281.926869 C300.14446,282.896888 300.013684,283.939839 299.849727,285.055331 L297.61671,300.260472 L302.295583,300.260472 L301.077652,308.554334 L283.444583,308.554334 L284.663405,300.260472 L289.342278,300.260472 L291.191457,287.674553 C291.369667,286.46205 291.476281,285.273876 291.511633,284.109864 C291.599318,282.897361 291.359701,281.757289 290.793061,280.690287 C290.181187,279.623286 289.34623,278.847204 288.287162,278.362208 C287.235248,277.828777 286.098795,277.561825 284.87808,277.561825 C283.612131,277.561825 282.351749,277.828693 281.097853,278.362208 C279.843957,278.895695 278.751318,279.720825 277.818823,280.836318 C276.886327,281.951838 276.24155,283.260683 275.885048,284.764217 C275.528546,286.267723 275.254245,287.674664 275.061894,288.984177 L273.405538,300.260472 L278.084411,300.260472 L276.866508,308.554334 L259.233383,308.554334 L260.451314,300.260472 L265.131106,300.260472 L268.401952,277.998997 L263.722188,277.998997 L264.940092,269.705135 L277.893397,269.705135 L277.081155,275.234664 C278.486871,273.05217 280.214489,271.450958 282.263034,270.432475 C284.318705,269.365446 286.476787,268.832683 288.737418,268.832683 Z M217.773899,277.343754 C216.236655,277.343754 214.743226,277.659642 213.294224,278.290167 C211.890429,278.920664 210.609782,279.792922 209.451254,280.908442 C208.345031,281.975444 207.391212,283.237162 206.589716,284.692176 C205.833398,286.147163 205.333816,287.699327 205.091638,289.348335 C204.85667,290.948851 204.906859,292.451967 205.24279,293.85849 C205.631026,295.216495 206.244014,296.429165 207.081949,297.496166 C207.919884,298.563196 208.948721,299.411875 210.167237,300.042372 C211.392907,300.624378 212.728948,300.914825 214.175751,300.914825 C215.712967,300.914825 217.205533,300.599882 218.654535,299.969357 C220.103509,299.33886 221.404282,298.490153 222.555711,297.423151 C223.714239,296.307658 224.671843,295.022363 225.428134,293.567376 C226.229658,292.112361 226.751342,290.560197 226.99352,288.911162 C227.228516,287.310646 227.155306,285.807558 226.774168,284.401034 C226.393031,282.994511 225.780071,281.781841 224.93501,280.76333 C224.142309,279.696329 223.110577,278.872145 221.8397,278.290167 C220.621185,277.659642 219.265908,277.343754 217.773899,277.343754 Z M259.622705,256.610198 L258.243767,265.995585 L249.970254,265.995585 L251.348245,256.610198 L259.622705,256.610198 Z M464.948243,256.610198 L463.024489,269.705358 L457.327774,269.705358 L456.109843,277.999248 L461.806558,277.999248 L457.317781,308.554584 L472.170288,308.554584 L473.388191,300.260694 L466.810116,300.260694 L470.080072,277.999248 L476.251567,277.999248 L477.470416,269.705358 L471.298922,269.705358 L473.222703,256.610198 L464.948243,256.610198 Z M393.631891,268.541504 L394.106285,268.548323 C396.459814,268.613636 398.662365,269.168823 400.712838,270.214571 C402.945215,271.33012 404.800241,272.857732 406.278554,274.797742 C407.787795,276.834763 408.744842,279.090411 409.150058,281.563909 C409.607718,283.988914 409.633578,286.584029 409.227444,289.348529 L408.497069,292.476073 L379.198635,292.476073 C379.270425,293.834078 379.560092,295.095796 380.067301,296.25978 C380.581581,297.375328 381.252747,298.344707 382.081078,299.169197 C382.954644,299.993714 383.94387,300.649097 385.048145,301.134093 C386.159518,301.570736 387.37074,301.788418 388.681896,301.788418 C390.490378,301.788418 392.193945,301.424428 393.792819,300.69692 C395.398819,299.920922 396.83922,298.732748 398.114243,297.132232 L406.727947,297.132232 C405.733794,298.97526 404.534986,300.672619 403.131469,302.224644 C401.780285,303.72815 400.276751,305.037969 398.620868,306.15349 C396.972111,307.220463 395.223199,308.044647 393.374409,308.626653 C391.563727,309.25715 389.708534,309.573067 387.809611,309.573067 C385.142065,309.573067 382.730114,309.063825 380.573898,308.045343 C378.424835,306.978341 376.623646,305.546876 375.169188,303.752368 C373.721884,301.909368 372.682468,299.751787 372.051164,297.27829 C371.41986,294.804765 371.314248,292.137052 371.734635,289.275542 C372.155022,286.414004 373.025164,283.721767 374.345116,281.199779 C375.665095,278.677735 377.296872,276.495658 379.240473,274.652658 C381.236407,272.761139 383.443008,271.281601 385.860386,270.214571 C388.175741,269.168823 390.597521,268.613636 393.126438,268.548323 L393.631891,268.541504 Z M438.017639,268.832683 C440.006975,268.832683 441.845939,269.244747 443.533305,270.069265 C445.265906,270.893754 446.67332,272.081928 447.756494,273.633925 C448.351639,274.506934 448.784608,275.403743 449.056293,276.325243 C449.380087,277.198252 449.565757,278.095952 449.61113,279.01748 C449.656504,279.93898 449.626162,280.908359 449.521775,281.926869 C449.424514,282.896888 449.294629,283.939839 449.130672,285.055331 L446.896736,300.260472 L451.576527,300.260472 L450.357705,308.554334 L432.724581,308.554334 L433.94343,300.260472 L438.623222,300.260472 L440.471483,287.674553 C440.649693,286.46205 440.756306,285.273876 440.791659,284.109864 C440.879316,282.897361 440.64059,281.757289 440.074006,280.690287 C439.462131,279.623286 438.626256,278.847204 437.567188,278.362208 C436.515246,277.828777 435.37882,277.561825 434.158106,277.561825 C432.892157,277.561825 431.632693,277.828693 430.378798,278.362208 C429.124902,278.895695 428.031344,279.720825 427.098849,280.836318 C426.166381,281.951838 425.521604,283.260683 425.165102,284.764217 C424.808572,286.267723 424.534271,287.674664 424.34192,288.984177 L422.685592,300.260472 L427.365356,300.260472 L426.146534,308.554334 L408.513437,308.554334 L409.732287,300.260472 L414.411132,300.260472 L417.682006,277.998997 L413.002214,277.998997 L414.221036,269.705135 L427.174341,269.705135 L426.3621,275.234664 C427.767816,273.05217 429.494515,271.450958 431.54306,270.432475 C433.598731,269.365446 435.756812,268.832683 438.017444,268.832683 Z M392.061889,276.471274 C390.841146,276.471274 389.607599,276.713646 388.360801,277.198642 C387.159238,277.683637 386.023202,278.338074 384.952638,279.162591 C383.882045,279.987081 382.925889,280.957434 382.083806,282.072927 C381.241752,283.188448 380.59202,284.376594 380.135501,285.637616 L402.109118,285.637616 C401.798963,282.824569 400.724891,280.593472 398.887375,278.944465 C397.049831,277.295457 394.774641,276.471274 392.061889,276.471274 Z M770.079995,268.541791 C772.611866,268.541791 774.971122,269.099106 777.15832,270.214571 C779.39067,271.33012 781.246642,272.857732 782.724928,274.797742 C784.234168,276.834763 785.191243,279.090411 785.596459,281.563909 C786.054091,283.988914 786.079979,286.584029 785.673845,289.348529 L784.942496,292.476073 L755.645008,292.476073 C755.716798,293.834078 756.006465,295.095796 756.513619,296.25978 C757.027954,297.375328 757.69912,298.344707 758.527424,299.169197 C759.400989,299.993714 760.390188,300.649097 761.494462,301.134093 C762.605891,301.570736 763.817085,301.788418 765.128269,301.788418 C766.936752,301.788418 768.640291,301.424428 770.239192,300.69692 C771.845164,299.920922 773.285593,298.732748 774.560589,297.132232 L783.173374,297.132232 C782.179248,298.97526 780.980413,300.672619 779.576924,302.224644 C778.225739,303.72815 776.722206,305.037969 775.066323,306.15349 C773.417566,307.220463 771.668625,308.044647 769.819863,308.626653 C768.009153,309.25715 766.154879,309.573067 764.255956,309.573067 C761.588438,309.573067 759.176488,309.063825 757.020271,308.045343 C754.871181,306.978341 753.0691,305.546876 751.61467,303.752368 C750.167338,301.909368 749.127923,299.751787 748.496619,297.27829 C747.865314,294.804765 747.760621,292.137052 748.18098,289.275542 C748.601367,286.414004 749.471537,283.721767 750.791489,281.199779 C752.111413,278.677735 753.743189,276.495658 755.686818,274.652658 C757.68278,272.761139 759.889381,271.281601 762.306759,270.214571 C764.776443,269.099106 767.367243,268.541791 770.079995,268.541791 Z M698.996473,268.68682 C701.347322,268.68682 703.413015,269.245053 705.193271,270.360574 C706.9735,271.476066 708.340301,273.100856 709.292727,275.234859 L710.104997,269.705302 L723.058274,269.705302 L721.839424,277.999164 L717.296115,277.999164 L714.025241,300.260639 L718.569552,300.260639 L717.350703,308.554529 L704.39737,308.554529 L705.166882,303.316086 C703.535106,305.498608 701.627079,307.098846 699.442887,308.117356 C697.265849,309.087375 694.979107,309.573011 692.582884,309.573011 C690.005752,309.573011 687.665703,309.039274 685.561819,307.972272 C683.457963,306.905243 681.704763,305.4502 680.302638,303.607228 C678.900513,301.7642 677.880304,299.630225 677.24193,297.205191 C676.655971,294.731694 676.565753,292.113002 676.971915,289.348474 C677.385121,286.535455 678.270767,283.891347 679.628799,281.417822 C680.993958,278.895806 682.652513,276.689206 684.603268,274.797687 C686.59923,272.906195 688.827905,271.427575 691.29049,270.360574 C693.76023,269.245053 696.3289,268.68682 698.996473,268.68682 Z M748.225547,269.268881 L746.889394,278.362208 C745.563986,278.459163 744.2594,278.726031 742.974577,279.162564 C741.74206,279.550577 740.534094,280.229509 739.351738,281.199529 C737.810069,282.460523 736.745127,283.867464 736.155466,285.419489 C735.572876,286.922995 735.145613,288.595858 734.874764,290.438858 L733.432164,300.260472 L738.111928,300.260472 L736.893134,308.554334 L719.260928,308.554334 L720.478887,300.260472 L725.15865,300.260472 L728.428578,277.998997 L723.748842,277.998997 L724.967636,269.705135 L737.310598,269.705135 L736.338296,276.325243 C737.720185,273.99722 739.441873,272.275309 741.504698,271.159816 C743.6198,269.995804 745.860278,269.365752 748.225547,269.268881 Z M636.531387,269.705135 L635.313456,277.998997 L631.311288,277.998997 L633.850814,296.259557 L633.919013,296.259557 L645.201432,271.159816 L651.983242,271.159816 L655.349595,296.259557 L655.416681,296.259557 L663.661161,277.998997 L659.523458,277.998997 L660.742308,269.705135 L677.832342,269.705135 L676.614439,277.998997 L671.799139,277.998997 L657.40869,308.554334 L649.406221,308.554334 L646.183587,285.710603 L635.028493,308.554334 L627.297096,308.554334 L623.105752,277.998997 L618.561524,277.998997 L619.780373,269.705135 L636.531387,269.705135 Z M698.199625,277.343754 C696.662687,277.343754 695.169203,277.659642 693.720228,278.290167 C692.316461,278.920664 691.035814,279.792922 689.87723,280.908442 C688.771035,281.975444 687.816298,283.237162 687.014801,284.692176 C686.258539,286.147163 685.75982,287.699327 685.517642,289.348335 C685.282396,290.948851 685.332613,292.451967 685.668516,293.85849 C686.05678,295.216495 686.669796,296.429165 687.507675,297.496166 C688.34561,298.563196 689.373529,299.411875 690.592072,300.042372 C691.817714,300.624378 693.154702,300.914825 694.601505,300.914825 C696.138721,300.914825 697.631259,300.599882 699.080233,299.969357 C700.529291,299.33886 701.830036,298.490153 702.981437,297.423151 C704.139965,296.307658 705.096679,295.022363 705.852969,293.567376 C706.654493,292.112361 707.177096,290.560197 707.419274,288.911162 C707.65427,287.310646 707.58106,285.807558 707.199922,284.401034 C706.818812,282.994511 706.205797,281.781841 705.360764,280.76333 C704.568063,279.696329 703.53633,278.872145 702.265482,278.290167 C701.046911,277.659642 699.691662,277.343754 698.199625,277.343754 Z M768.508262,276.471274 C767.287519,276.471274 766.053944,276.713646 764.807175,277.198642 C763.605611,277.683637 762.469547,278.338074 761.399011,279.162591 C760.32839,279.987081 759.372206,280.957434 758.530179,282.072927 C757.688125,283.188448 757.038365,284.376594 756.581846,285.637616 L778.555463,285.637616 C778.245281,282.824569 777.171236,280.593472 775.33372,278.944465 C773.496176,277.295457 771.220986,276.471274 768.508262,276.471274 Z M331.38026,268.759751 C329.07445,268.759751 326.947184,269.389664 324.998656,270.650686 C323.102488,271.863161 321.417098,273.487951 319.942319,275.524971 L320.797318,269.705219 L308.589892,269.705219 L307.371961,277.999109 L312.051725,277.999109 L308.780879,300.260555 L304.101087,300.260555 L302.883184,308.554445 L320.516253,308.554445 L321.734184,300.260555 L317.054392,300.260555 L318.818086,288.256893 C319.03883,286.753415 319.332477,285.370997 319.698555,284.109975 C320.116994,282.800462 320.86741,281.539663 321.94975,280.327188 C323.674445,278.435669 325.734987,277.48984 328.131266,277.48984 C329.35198,277.48984 330.458732,277.80481 331.451216,278.435307 C332.450825,279.017313 333.159236,279.890516 333.576005,281.054528 C333.968917,282.073038 334.110744,283.261212 334.001681,284.619217 C333.899799,285.928702 333.7634,287.164977 333.592373,288.328989 L331.839619,300.260555 L327.159827,300.260555 L325.941896,308.554445 L343.574074,308.554445 L344.792924,300.260555 L340.113132,300.260555 L341.9514,287.747679 C342.157947,286.341156 342.414266,285.05586 342.720885,283.891849 C343.027532,282.727837 343.696499,281.563268 344.726534,280.399257 C345.592416,279.429237 346.603606,278.702203 347.759962,278.217208 C348.961526,277.732184 350.126985,277.48984 351.257287,277.48984 C352.432823,277.48984 353.501132,277.756792 354.462633,278.290223 C355.424162,278.823738 356.166033,279.623397 356.687495,280.690399 C357.066127,281.805891 357.215554,282.945964 357.134967,284.109975 C357.054241,285.273987 356.920904,286.486657 356.73568,287.747679 L354.897412,300.260555 L350.218567,300.260555 L348.999717,308.554445 L366.632814,308.554445 L367.850745,300.260555 L363.171872,300.260555 L365.330288,285.564684 C365.494245,284.449163 365.627916,283.382663 365.732331,282.364153 C365.88905,281.297151 365.948899,280.278697 365.910484,279.308705 C365.87207,278.338686 365.717299,277.392857 365.445698,276.471357 C365.226346,275.501366 364.819265,274.579114 364.224148,273.706105 C363.1481,272.105617 361.743525,270.893866 360.010952,270.069348 C358.330712,269.196339 356.495534,268.759751 354.506198,268.759751 C351.974299,268.759751 349.49028,269.511337 347.054028,271.014815 C344.670081,272.46983 342.79905,274.434058 341.44099,276.907611 C340.764479,274.434058 339.539171,272.46983 337.763563,271.014815 C336.040316,269.511337 333.912047,268.759751 331.380149,268.759751 L331.38026,268.759751 Z" id="Combined-Shape"></path>
            </g>
        </g>
    </g>
</svg>