<?xml version="1.0" encoding="UTF-8"?>
<svg width="800px" height="400px" viewBox="0 0 800 400" version="1.1" xmlns="http://www.w3.org/2000/svg" xmlns:xlink="http://www.w3.org/1999/xlink">
    <title>ubisoft_4</title>
    <g id="Page-1" stroke="none" stroke-width="1" fill="none" fill-rule="evenodd">
        <g id="Manufacturer" fill="#000000" fill-rule="nonzero">
            <g id="ubisoft_4">
                <line x1="0" y1="0" x2="800" y2="400" id="Path"></line>
                <path d="M600,0 L599.999102,67.118 L663.553898,67.1186441 L663.553898,231.186441 L599.999102,231.186 L600,400 L200,400 L199.999102,231.186 L136.446102,231.186441 L136.446102,67.1186441 L199.999102,67.118 L200,0 L600,0 Z M466.275254,294.189831 C461.667239,295.776541 458.637565,300.188543 458.811525,305.058983 L458.811525,372.284068 C458.811977,376.186441 460.197062,379.233672 462.96678,381.425763 C465.736497,383.617853 469.91887,384.713898 475.513898,384.713898 C478.65563,384.806892 481.783947,384.266676 484.712542,383.125424 C486.91916,382.289788 488.790201,380.752462 490.037966,378.749831 C491.143012,376.777092 491.700347,374.54471 491.652203,372.284068 L491.652203,305.058305 C491.652655,301.157288 490.294237,298.12904 487.576949,295.973559 C484.859661,293.818079 480.704181,292.740339 475.110508,292.740339 C472.100686,292.666633 469.103755,293.158303 466.275254,294.189831 Z M429.090847,292.745085 C422.850847,292.745085 418.587797,294.565876 416.301695,298.207458 C414.015593,301.84904 412.872542,306.456949 412.872542,312.031186 C412.817424,315.500494 413.238293,318.960975 414.12339,322.315932 C414.98039,325.324796 416.242575,328.203144 417.875254,330.871864 C420.157164,334.4976 422.635197,337.996133 425.298305,341.351864 C425.441152,341.487952 425.604501,341.600741 425.782373,341.686102 C425.983005,341.785545 426.150978,341.940343 426.266441,342.132203 C428.066852,344.317735 429.724309,346.617205 431.228475,349.016271 C432.490839,351.20178 433.403136,353.571509 433.932203,356.039322 C434.66109,359.698903 434.985749,363.427482 434.900339,367.157966 C434.899887,374.924294 432.96339,378.807458 429.090847,378.807458 C427.260791,378.80791 425.99661,378.250621 425.298305,377.135593 C424.532108,375.791244 424.115978,374.275926 424.088136,372.728814 C424.034802,372.319322 423.994576,371.51096 423.967458,370.303729 C423.940339,369.096497 423.92678,367.879322 423.92678,366.652203 L423.92678,362.584407 C423.927337,359.534385 424.616809,356.523882 425.943729,353.777627 L424.975593,353.108475 L412.872542,362.808136 L412.872542,369.107119 C412.872542,372.562938 414.028927,376.028023 416.341695,379.502373 C418.654463,382.976723 422.850395,384.713899 428.929492,384.713899 C440.494689,384.715254 446.277289,377.989153 446.277289,364.535593 C446.278192,358.517966 445.350734,353.604972 443.494915,349.79661 C441.639096,345.988249 438.532429,341.501017 434.174915,336.334915 C431.987642,333.801517 429.953518,331.139836 428.08339,328.364068 C426.691284,326.196756 425.694179,323.79994 425.138305,321.284746 C424.546667,318.683164 424.250847,314.985537 424.250847,310.191864 C424.249944,302.573785 425.971299,298.764746 429.414915,298.764746 C430.671719,298.704735 431.888118,299.216968 432.72339,300.157966 C434.013785,301.60791 434.658983,306.048814 434.658983,313.480678 C434.701585,316.992346 433.986342,320.471898 432.562034,323.682034 L433.368814,324.350508 L445.63322,317.829153 L445.63322,313.035254 C445.63322,299.508475 440.119096,292.745085 429.090847,292.745085 Z M537.027119,293.409492 L504.671186,293.409492 L504.671186,294.300339 C506.104074,294.429909 507.499953,294.827056 508.786441,295.471186 L508.786441,381.762712 C507.506527,382.442674 506.110822,382.877481 504.671186,383.044746 L504.671186,384.048136 L524.115254,384.048136 L524.115254,383.044746 C522.675965,382.875848 521.280556,382.441134 520,381.762712 L520,341.572881 L522.503051,341.572881 C524.118418,341.571525 525.275028,341.961582 525.972881,342.743051 C526.670734,343.52452 527.558418,345.271186 528.635932,347.983051 C528.68209,348.394856 528.850712,348.783348 529.12,349.098305 C529.172881,349.206102 529.252881,349.411525 529.361356,349.708475 C529.422105,349.902488 529.503235,350.089521 529.60339,350.266441 L532.427797,356.787797 L533.395932,356.787797 L533.395932,322.728814 L532.427797,322.728814 L529.60339,329.139661 C528.955739,330.715781 528.14452,332.219606 527.183051,333.626441 C526.710467,334.322299 526.05303,334.872433 525.284746,335.214915 C524.38106,335.476389 523.440934,335.589497 522.501017,335.549831 L520,335.549831 L520,299.094237 L523.149153,299.094237 C524.558332,299.049031 525.944498,299.45965 527.101695,300.265085 C528.284972,301.04565 529.76452,303.006102 531.540339,306.146441 C533.102111,308.857875 534.502951,311.658876 535.735593,314.534915 L539.044068,321.837966 L540.496949,321.837966 L537.027119,293.409492 Z M590.680678,293.408136 L552.27322,293.408136 L550.174915,322.505085 L551.463051,322.505085 C551.947119,320.941243 552.56565,318.952542 553.318644,316.538983 C554.071638,314.125424 555.053333,311.413559 556.263729,308.40339 C557.210046,305.935443 558.356932,303.549159 559.692881,301.268475 C560.768588,299.522034 561.817627,298.648814 562.84,298.648814 L565.823051,298.648814 L565.823051,381.762712 C564.5562,382.473494 563.154184,382.910267 561.707797,383.044746 L561.707797,384.048136 L581.23322,384.048136 L581.23322,383.044746 C579.800606,382.84525 578.410406,382.412158 577.117966,381.762712 L577.117966,298.650847 L579.538983,298.650847 C580.36162,298.755239 581.127069,299.127361 581.717288,299.709831 C583.653107,301.123616 586.96113,308.723164 591.641356,322.508475 L593.094237,322.508475 L590.680678,293.408136 Z M475.110508,298.202712 C478.768362,298.202712 480.597288,300.060791 480.597288,303.776949 L480.597288,373.565424 C480.597288,377.281582 478.84904,379.139661 475.352542,379.139661 C471.587119,379.139661 469.704407,377.282034 469.704407,373.565424 L469.704407,303.776949 C469.704407,300.060791 471.506441,298.202712 475.110508,298.202712 Z M399.999614,30.5721232 L288.135322,142.436416 L399.999614,254.300709 L511.863907,142.436416 L399.999614,30.5721232 Z M303.225763,77.9661017 L147.293559,77.9661017 L147.293559,220.338983 L303.225763,220.338983 L303.225102,172.867 L272.7947,142.436416 L303.225102,112.005 L303.225763,77.9661017 Z M652.706441,77.9661017 L496.774237,77.9661017 L496.774102,112.006 L527.204529,142.436416 L496.774102,172.866 L496.774237,220.338983 L652.706441,220.338983 L652.706441,77.9661017 Z M417.857627,58.1369492 L420.130169,59.5911864 L397.694915,150.107119 C404.419435,141.322938 411.871412,134.385085 420.050847,129.293559 C428.230282,124.202034 435.925198,121.657401 443.135593,121.659661 C446.80906,121.515581 450.264822,123.400755 452.132203,126.567458 C454.190508,129.838418 455.220565,134.59435 455.222895,140.835254 C455.253536,149.71784 453.888404,158.55013 451.176949,167.008814 C448.78749,174.787499 444.982986,182.058415 439.954576,188.456271 C434.259661,195.544633 426.701243,201.512316 417.279322,206.359322 C407.857401,211.206328 399.208814,213.629831 391.333559,213.629831 C384.789831,213.629831 379.685198,211.888136 376.019661,208.404746 C372.354124,204.921356 370.521706,200.089266 370.521706,193.908475 C370.51605,192.330467 370.591858,190.75321 370.749153,189.183051 C370.892082,187.77781 371.119842,186.382496 371.431186,185.004746 L391.957288,90.8549153 C392.684068,87.5830508 393.214237,84.8110734 393.547797,82.5389831 C393.844293,80.6900676 394.011253,78.8226964 394.047458,76.9505085 C394.047458,74.3457627 389.83661,72.800678 381.414915,72.3152542 L379.869831,72.3152542 L381.23322,66.8623729 C387.558294,66.521753 393.839533,65.6091001 400,64.1355932 C406.113775,62.6526238 412.088412,60.645654 417.857627,58.1369492 Z M589.055593,129.093559 C589.897627,130.208588 590.31887,131.826441 590.319322,133.947119 C590.258965,135.813309 590.026797,137.669969 589.625763,139.493559 C589.164294,141.83209 588.525424,144.387797 587.709153,147.160678 L578.492881,177.503051 C577.40452,180.928588 576.548023,184.069831 575.92339,186.92678 C575.415959,188.945089 575.101103,191.006977 574.983051,193.084746 C574.920633,193.846617 575.07605,194.610537 575.431186,195.287458 C575.815346,195.761998 576.414972,196.00788 577.021695,195.939661 C578.16339,195.939661 579.889944,195.32791 582.201356,194.104407 C585.215328,192.432854 588.117079,190.566521 590.888136,188.517288 L592.845424,193.084746 L592.76339,193.084746 C576.344859,204.55774 565.851073,210.293785 561.282034,210.292881 C559.052429,210.292881 557.434576,209.68113 556.428475,208.457627 C555.422373,207.234124 554.919548,205.208588 554.92,202.381017 C554.947148,200.052165 555.192973,197.731011 555.654237,195.448136 C556.143729,192.892203 557.013785,189.493333 558.264407,185.251525 L567.317966,154.827797 C567.807006,153.142825 568.20113,151.565876 568.500339,150.096949 C568.752349,148.998298 568.902589,147.878764 568.949153,146.752542 C568.989725,146.040155 568.864161,145.328086 568.582373,144.672542 C568.386964,144.242174 567.953904,143.969645 567.481356,143.979661 C566.012881,143.979661 563.946441,144.700113 561.282034,146.141017 C557.994047,147.998442 554.857558,150.112105 551.901695,152.462373 L550.107119,147.812881 C560.329944,140.145537 568.038192,134.830282 573.231864,131.867119 C578.425537,128.903955 582.463051,127.422147 585.344407,127.421695 C586.781417,127.333222 588.169713,127.95864 589.055593,129.093559 Z M206.131525,118.027119 C208.425763,118.027119 210.010621,118.495141 210.886102,119.431186 C211.761582,120.367232 212.200678,122.013107 212.20339,124.368814 C212.068457,126.979955 211.689402,129.572733 211.071186,132.11322 C210.31548,135.645424 209.213559,140.037966 207.765424,145.290847 L200.338983,171.648136 C199.070734,175.995254 198.07435,179.724068 197.349831,182.834576 C196.817105,184.807642 196.454199,186.822677 196.265085,188.857627 C196.189809,189.841704 196.427069,190.824433 196.943051,191.665763 C197.45996,192.299753 198.255926,192.638526 199.071186,192.571525 C204.867797,192.571525 212.325424,185.642712 221.444068,171.785085 C230.562712,157.927458 237.144407,141.488362 241.189153,122.467797 C244.690169,122.106215 248.071638,121.592994 251.333559,120.928136 C254.605325,120.260224 257.837981,119.413301 261.016949,118.391186 L262.466441,120.021695 C256.608814,137.290847 251.868701,152.43209 248.246102,165.445424 C244.623503,178.458757 242.813107,186.654915 242.814915,190.033898 C242.757071,190.777027 243.001511,191.51206 243.492881,192.072542 C244.083684,192.572892 244.849663,192.816912 245.621017,192.750508 C246.524972,192.750508 248.049718,192.176949 250.195254,191.029831 C253.271266,189.292443 256.249536,187.387427 259.11661,185.32339 L260.656271,190.214237 C251.658305,197.460791 244.759774,202.48791 239.960678,205.295593 C235.161582,208.103277 231.221469,209.507119 228.140339,209.507119 C226.516221,209.610963 224.913471,209.092711 223.657627,208.057627 C222.572279,207.024975 221.992914,205.569255 222.071864,204.07322 C222.1335,201.421875 222.451363,198.782702 223.021017,196.192542 C223.653785,193.053559 224.635028,189.249492 225.964746,184.780339 L231.311864,165.850847 C223.040678,179.31661 214.39096,190.08 205.362712,198.141017 C196.334463,206.202034 188.650847,210.231864 182.311864,210.231864 C179.654237,210.231864 177.691977,209.431864 176.425085,207.831864 C175.158192,206.231864 174.524068,203.741017 174.522712,200.359322 C174.566369,197.893996 174.838724,195.438042 175.336271,193.023051 C175.878644,190.185989 176.723842,186.714124 177.871864,182.607458 L184.39322,160.505763 C185.781695,155.556158 186.928814,150.982373 187.834576,146.784407 C188.740339,142.586441 189.192316,139.974915 189.190508,138.949831 C189.261675,137.971686 189.04107,136.994414 188.55661,136.141695 C188.091823,135.517974 187.339577,135.176277 186.564068,135.23661 C184.906595,135.366852 183.298346,135.861573 181.854237,136.685424 C178.821816,138.323447 175.888181,140.138094 173.068475,142.12 L171.170169,137.138305 L174.884068,134.511864 C190.643164,123.522486 201.058983,118.027119 206.131525,118.027119 Z M426.595254,134.657627 C423.444068,134.657627 419.597062,136.353898 415.054237,139.746441 C410.267771,143.393347 406.094919,147.781799 402.693559,152.745763 C399.121219,158.226801 396.323029,164.17498 394.378305,170.421695 C392.106667,177.35774 390.970621,183.430508 390.970169,188.64 C390.970169,193.48791 392.030508,197.304859 394.151186,200.090847 C396.190076,202.839914 399.455214,204.404481 402.875254,204.271186 C406.63209,204.271186 410.298079,202.726554 413.87322,199.637288 C417.448362,196.548023 420.750056,192.094689 423.778305,186.277288 C426.856372,180.14745 429.263326,173.703068 430.957288,167.056271 C432.636638,160.815731 433.522045,154.388268 433.592542,147.926102 C433.592542,143.442938 433.017401,140.110508 431.867119,137.928814 C430.926365,135.878523 428.850062,134.590179 426.595254,134.657627 Z M589.177627,90.2928814 C592.603616,90.2928814 595.159548,91.0133333 596.845424,92.4542373 C598.531299,93.8951412 599.374011,96.0838418 599.37356,99.020339 C599.37356,102.990508 598.299661,106.239548 596.151864,108.767458 C594.072292,111.264942 590.957413,112.664173 587.709153,112.56 C584.717966,112.56 582.461469,111.853107 580.939661,110.439322 C579.417853,109.025537 578.656723,106.931977 578.656271,104.158644 C578.656271,100.080904 579.648588,96.7502825 581.63322,94.1667797 C583.360045,91.7157978 586.179525,90.2680524 589.177627,90.2928814 Z" id="Combined-Shape"></path>
            </g>
        </g>
    </g>
</svg>