<?xml version="1.0" encoding="UTF-8"?>
<svg width="800px" height="400px" viewBox="0 0 800 400" version="1.1" xmlns="http://www.w3.org/2000/svg" xmlns:xlink="http://www.w3.org/1999/xlink">
    <title>ubisoft_6</title>
    <g id="Page-1" stroke="none" stroke-width="1" fill="none" fill-rule="evenodd">
        <g id="Manufacturer" fill="#000000" fill-rule="nonzero">
            <g id="ubisoft_6">
                <line x1="0" y1="0" x2="800" y2="400" id="Path"></line>
                <path d="M75.0983812,10.0019417 L75.0986174,288.20034 L118.779729,340.538398 L264.774479,340.538398 L306.671381,299.694942 L306.671486,340.532741 L499.389879,340.532741 L536.588381,303.426942 L536.587154,321.767514 C539.646724,319.018989 542.823302,316.148648 545.995832,313.257193 L545.997599,283.984066 C543.415805,282.389562 541.209659,280.283971 539.617914,277.726128 C537.063243,273.638276 536.124322,268.732346 536.099885,263.187805 L536.099885,258.331154 C536.081079,254.687613 536.758547,250.837943 537.97585,246.666042 C539.200613,242.261794 541.197169,237.546401 543.924567,232.377415 C544.582438,231.097759 545.275101,229.843571 546.002093,228.615062 L546.021581,19.4101835 L694.673743,19.4101835 L694.658427,191.577004 C695.814619,190.563944 697.038906,189.491056 698.322708,188.36573 C706.692674,181.028903 717.594221,171.467424 728.67567,161.748653 L731.23505,159.504009 C743.18377,149.024755 755.12893,138.548325 764.123691,130.651772 C768.621092,126.703495 772.383387,123.398474 775.036527,121.064912 C776.363101,119.898134 777.413114,118.974757 778.13732,118.335523 C778.499426,118.015906 778.778657,117.761752 778.96705,117.594301 C779.04075,117.528692 779.086655,117.489366 779.128246,117.452063 L790,106.539228 L789.810353,111.578608 L790,111.388953 L789.018557,137.579756 L694.655381,223.719 L694.646219,331.122201 L563.199381,331.122 L552.897381,340.532 L703.857845,340.532618 L653.388787,390 L495.469214,390 L496.183379,343.701026 L449.481443,390 L263.138546,390 L262.721253,342.541927 L214.126849,390 L65.2532505,390 L16.2123812,337.688154 L16.2123812,57.9051378 L74.5241293,10.0026057 L75.0983812,10.0019417 Z M566.120157,215.305654 C564.052523,216.287348 561.586805,218.313771 558.723765,221.387125 C557.900807,222.243615 557.095699,223.176726 556.307302,224.184476 C555.518896,225.192234 554.602931,226.483357 553.562102,228.058098 C552.010375,230.322549 550.596418,232.699055 549.318662,235.187397 C546.719065,240.11049 544.886327,244.49158 543.821943,248.331791 C542.71413,252.11841 542.169327,255.441686 542.184621,258.302695 C542.20663,263.136155 543.070565,266.918769 544.776521,269.648562 C546.438402,272.324763 548.985815,274.272882 552.41629,275.494554 C553.134533,275.712441 553.834576,275.85463 554.518259,275.921266 C556.213202,276.234328 557.571819,276.466287 558.592589,276.615079 C559.613399,276.763854 560.536063,276.902571 561.361497,277.032307 C562.186931,277.162034 563.109628,277.300751 564.130406,277.449543 C565.151175,277.59831 566.536779,277.807993 568.285338,278.076971 C569.013121,278.197175 569.665383,278.334678 570.241905,278.489458 C574.980174,279.444182 577.937362,280.963906 579.114408,283.050565 C580.30097,285.039556 579.892618,287.712132 577.88958,291.06648 C577.539465,291.623955 577.12337,292.100083 576.641043,292.496766 C570.640655,298.754435 561.254898,307.5812 551.698888,316.316319 L550.105195,317.770867 C533.632133,332.783003 517.183882,347.084871 517.183882,347.084871 L522.255233,355.430866 L577.25109,305.2018 C579.394869,303.43874 580.954923,302.111762 581.929148,301.220712 C582.956949,300.285586 583.801998,299.455798 584.464148,298.731544 C586.773848,296.294301 588.354544,293.737834 589.207045,291.06016 C590.069118,288.284811 590.324778,285.647426 589.97671,283.148556 C589.682226,280.605603 588.774127,278.297432 587.250478,276.226293 C585.736337,274.057479 583.75708,272.361491 581.312822,271.137327 C580.178832,270.632433 579.181076,270.239326 578.321074,269.958323 C577.417012,269.623736 576.553037,269.392675 575.727603,269.26294 C574.218447,269.066577 572.785126,268.852185 571.427262,268.621287 C570.025305,268.336788 568.765343,268.115809 567.646889,267.95751 C566.386684,267.736111 565.174463,267.519834 564.01191,267.307951 C563.479487,267.206788 562.946522,267.104135 562.4141,267.002931 C561.925753,266.955271 561.367372,266.876546 560.737274,266.765867 C560.160751,266.611087 559.535483,266.451291 558.861309,266.287003 C557.503444,266.05608 556.403934,265.702874 555.562955,265.226536 C554.677917,264.696597 554.007344,263.99131 553.551081,263.108764 C553.094867,262.226219 552.83559,261.090959 552.77351,259.70453 C552.765014,258.274026 552.908974,256.538599 553.206549,254.497028 C553.383864,253.183231 553.894957,251.235783 554.737975,248.655777 C555.590484,245.978103 556.795228,242.965673 558.353987,239.617329 C558.56235,238.996746 558.8415,238.406305 559.191615,237.848831 C559.497662,237.237772 559.776925,236.648909 560.029243,236.081919 L560.190439,235.950743 C560.477463,235.53502 560.796481,235.047903 561.146604,234.490428 C561.487203,234.030629 561.831662,233.522789 562.181777,232.965323 C562.487824,232.354256 562.870274,231.725501 563.327588,231.079874 C564.027851,229.964925 564.979298,229.04752 566.183411,228.326777 C566.968264,227.860966 567.733285,227.859946 568.476612,228.326777 C569.229414,228.695924 569.739471,229.535017 570.006459,230.84281 C570.29841,232.399538 570.531348,234.048569 570.706592,235.791124 C570.891311,237.436004 570.969494,239.16953 570.938915,240.990721 C570.934869,241.532668 570.910432,242.048017 570.863095,242.536372 C570.869568,242.980651 570.852333,243.397385 570.814059,243.788072 C570.775218,244.178751 570.760572,244.597072 570.766641,245.041351 L570.660752,255.236664 L570.692391,256.421988 L570.776157,260.128086 L580.503669,252.127974 C580.489589,251.781363 580.476561,251.385352 580.470492,250.941073 C580.410856,250.54087 580.378626,250.119434 580.372509,249.675155 L580.381976,248.048894 C580.321126,245.134293 580.278426,242.788374 580.253964,241.011266 C580.239318,239.136483 580.208812,237.679624 580.162301,236.639806 C580.168774,235.555913 580.173467,234.743159 580.176542,234.201212 C580.135841,233.605673 580.086044,233.107916 580.026408,232.707713 L579.819371,231.798966 L579.105013,226.997638 C578.474454,222.844365 577.652968,219.879198 576.642718,218.104583 C575.686044,216.285891 574.353142,215.047097 572.642662,214.387423 C572.085811,214.283865 571.531848,214.225556 570.981631,214.212002 C569.330909,214.1713 567.711065,214.53632 566.120157,215.305654 Z M199.694381,19.4069417 L306.669152,19.4071251 L306.669152,286.553466 L260.944376,331.125259 L123.179793,331.125259 L84.5074772,284.788821 L84.5074772,19.4071251 L190.284381,19.4069417 L190.28454,185.215811 L199.694957,185.215811 L199.694381,19.4069417 Z M316.081381,19.4069417 L495.96624,19.4071251 L534.999436,59.4954382 L534.999436,100.629693 L501.563381,144.425942 L432.268953,144.426597 L432.268953,153.837014 L501.177381,153.836942 L534.999436,187.182893 L534.999436,291.718949 L495.49526,331.122201 L316.079569,331.122201 L316.079381,290.523942 L316.081381,19.4069417 Z M783.33692,121.84881 C782.715019,122.473512 687.816067,205.670761 687.049525,206.325676 C686.41831,206.865026 685.723736,207.504033 684.966532,208.244317 C684.154919,208.937758 683.321442,209.65066 682.464717,210.382626 C682.239224,210.575258 682.031645,210.705852 681.842031,210.774575 C681.282298,211.06613 680.793652,210.878158 680.375396,210.208782 L672.315227,190.398157 L677.52273,185.949259 L672.800418,177.242702 L667.254704,181.980817 L660.520518,165.517525 L654.33315,173.184167 L659.949983,188.221915 C657.159065,203.867759 651.479844,210.643262 639.649426,221.707956 L633.604303,205.943219 L625.683207,185.144823 L618.350036,191.790509 L622.645635,203.068421 L625.790682,211.10014 L629.236006,219.675528 L632.668691,228.367867 C626.811451,230.420362 621.353873,234.029707 616.267043,237.45057 C615.807236,237.109971 615.436325,236.876669 615.152837,236.750437 C613.99382,235.996607 612.94015,235.425449 611.991988,235.037254 C611.053358,234.5514 610.122496,234.239324 609.199378,234.100065 C608.276261,233.960789 607.33789,233.96685 606.386224,234.120618 C605.390474,234.220786 604.2568,234.479966 602.983568,234.898189 C600.544302,235.646476 598.291147,237.276572 596.222509,239.786447 C594.153871,242.296305 592.642651,245.649513 591.69143,249.845851 C591.426028,251.052456 591.254353,252.317128 591.174633,253.640448 C591.104477,254.866093 591.126972,256.149595 591.242604,257.491939 C591.61472,261.767925 592.438779,265.447223 593.715976,268.529631 C594.949098,271.558439 596.484051,274.024829 598.319752,275.929179 C600.164951,277.735862 602.235871,278.997524 604.532398,279.714293 C606.882509,280.386995 609.338355,280.47912 611.90034,279.989292 C613.910855,279.593621 615.764292,278.787931 617.460272,277.572821 C619.253911,276.367228 620.761223,274.812887 621.981875,272.910567 C623.256128,270.964171 624.216896,268.691661 624.86457,266.092615 C625.565917,263.449493 625.824465,260.541721 625.640555,257.368669 C625.478299,254.986499 625.119154,252.855724 624.562707,250.977429 C624.006259,249.099142 623.262771,247.376039 622.331149,245.806283 C624.561717,242.272236 627.925415,239.934886 631.356376,237.669256 L632.252234,237.079109 C633.148216,236.48911 634.042469,235.897334 634.916069,235.283811 L636.014462,237.750855 L636.249949,238.234468 C636.284501,238.353369 636.335714,238.530838 636.404826,238.768647 C636.483397,238.92969 636.563295,239.091242 636.641891,239.25226 C637.182599,240.456276 637.726253,241.834969 638.272893,243.388234 C638.873149,244.906841 639.616783,246.861685 640.502873,249.254771 C642.014198,253.36214 643.339833,256.778026 644.480798,259.500666 C645.631303,262.146523 646.637896,264.354412 647.502575,266.125807 C648.926978,268.94766 650.143795,271.269741 651.150193,273.090738 C652.156592,274.911736 653.053614,276.413772 653.843241,277.598108 C654.730545,278.789929 655.548445,279.744063 656.297639,280.460258 C657.0468,281.176453 657.849852,281.858428 658.706204,282.505325 C661.01092,284.193245 663.525148,284.792837 666.24799,284.303851 C669.02448,283.780216 671.406634,282.064064 673.39467,279.154828 C674.070075,278.082716 674.793876,276.626415 675.564601,274.786532 C676.06371,273.545901 676.467069,272.471984 676.776782,271.565625 C677.086527,270.659265 677.299316,269.74491 677.413693,268.823589 C677.625633,267.909752 677.727873,266.891532 677.718721,265.76705 C677.754487,264.684694 677.726003,263.325891 677.633377,261.691134 C677.574954,260.175277 677.487903,258.890085 677.372603,257.834893 C677.310539,256.74506 677.229225,255.809206 677.129219,255.026481 C677.073224,254.285881 676.981398,253.638118 676.852642,253.085717 C676.777793,252.498667 676.654037,251.90859 676.481246,251.314063 C674.428111,244.026149 671.253344,238.627988 666.95602,235.121028 C662.668245,231.537286 656.96822,229.396308 649.857403,228.696604 C647.957616,228.512313 647.60496,228.86361 645.969563,228.932082 C653.720432,222.608028 663.647228,211.296576 665.462521,201.497492 C668.045942,206.81976 669.60831,210.056195 672.400588,215.060691 C675.121439,220.109684 678.993095,221.702356 684.015126,219.838319 C684.584188,219.632124 685.071216,219.35532 685.477026,219.008596 L783.031893,129.953225 L783.33692,121.84881 Z M648.593047,235.364405 C650.474425,235.411661 652.375458,235.76273 654.296802,236.418553 C657.380529,237.391079 660.124523,239.112717 662.529236,241.583379 C663.09261,242.20783 663.64756,242.908917 664.191845,243.686925 C664.692095,244.422808 665.17269,245.313267 665.634771,246.356264 C666.106392,247.322471 666.554158,248.479943 666.978135,249.830031 C667.446147,251.222262 667.890038,252.806259 668.31043,254.582372 C669.254805,258.491306 669.493099,262.927808 669.02478,267.891133 C668.992655,268.547473 668.911373,269.200415 668.781395,269.849278 L668.002246,273.741867 C667.906917,274.509631 667.541112,275.276375 666.903853,276.04138 C666.427401,276.702429 665.674162,277.012409 664.643844,276.97225 C663.71121,276.939559 662.896093,276.548839 662.200508,275.797995 C661.769378,275.299931 661.365874,274.783481 660.98832,274.250759 C660.610774,273.718045 660.186109,272.969604 659.714504,272.003398 C659.286919,271.079309 658.746817,269.874508 658.092985,268.390541 C657.483189,266.948708 656.707843,265.048387 655.768178,262.68995 L648.564604,244.467652 L647.037912,240.68728 L645.228324,235.607789 C646.064148,235.464735 646.903646,235.384165 647.747521,235.364405 C648.028815,235.357931 648.310846,235.357122 648.593047,235.364405 Z M603.340739,245.656132 C603.409851,245.958659 603.505641,246.238464 603.628385,246.496916 C603.751113,246.755367 603.869237,247.063761 603.9824,247.419888 C605.14039,249.70189 606.449769,251.184069 607.91133,251.868787 C609.426482,252.509421 611.301662,252.495729 613.536068,251.826143 C614.141139,251.687895 614.599004,251.534596 614.911031,251.367825 C615.808101,252.786305 616.403349,254.274212 616.695332,255.830941 C617.04094,257.343593 617.059308,259.169453 616.752217,261.308692 C616.508299,263.306188 616.108007,264.894037 615.549521,266.072094 C615.035094,267.303743 614.343013,268.321001 613.476003,269.123891 C612.662553,269.882713 611.798052,270.415096 610.880946,270.720123 C609.963841,271.025159 609.043061,271.107509 608.119944,270.968249 C607.196842,270.828998 606.346987,270.450012 605.569133,269.831921 C604.693603,269.204315 603.930742,268.440314 603.279096,267.538728 C602.636997,266.539475 601.930585,265.188504 601.159746,263.486521 C600.835792,262.764751 600.586687,262.02551 600.41379,261.26918 C600.196849,260.459266 600.038186,259.557656 599.938082,258.561915 C599.68167,255.628282 599.848514,253.154837 600.439077,251.141821 C600.98553,249.075206 601.953282,247.246433 603.340739,245.656132 Z M479.113805,240.509543 L432.268953,240.509543 L432.268953,249.91996 L479.113805,249.91996 L479.113805,240.509543 Z M536.604381,114.034942 L536.598381,175.544942 L509.808146,149.131414 L536.604381,114.034942 Z M479.113805,82.2383113 L432.268953,82.2383113 L432.268953,91.6487277 L479.113805,91.6487277 L479.113805,82.2383113 Z M536.613338,10.0026057 L536.609381,47.6579417 L499.939244,10.0026057 L515.282519,25.7561744 L533.516649,10.0026057 L536.613338,10.0026057 Z" id="Combined-Shape"></path>
            </g>
        </g>
    </g>
</svg>