<?xml version="1.0" encoding="UTF-8"?>
<svg width="800px" height="400px" viewBox="0 0 800 400" version="1.1" xmlns="http://www.w3.org/2000/svg" xmlns:xlink="http://www.w3.org/1999/xlink">
    <title>ubisoft_2</title>
    <g id="Page-1" stroke="none" stroke-width="1" fill="none" fill-rule="evenodd">
        <g id="Manufacturer" fill="#000000" fill-rule="nonzero">
            <g id="ubisoft_2">
                <line x1="0" y1="0" x2="800" y2="400" id="Path"></line>
                <path d="M267.349672,148.990556 L267.349672,208.444986 C267.349672,232.585764 283.805904,247.972967 307.773038,247.972967 C332.983378,247.972967 348.414258,231.746307 348.414258,206.816674 L348.414258,148.990556 L327.076286,148.990556 L327.076286,205.7306 C327.076286,219.323836 320.230664,227.75356 308.00048,227.75356 C294.596867,227.75356 288.688177,218.059324 288.688177,206.816674 L288.688177,148.990556 L267.349672,148.990556 Z M358.788689,149.811903 L358.788689,247.003011 L392.774975,247.003011 C411.598305,247.003011 427.592729,237.402521 427.592729,218.361337 C427.592729,198.486023 410.200631,194.080472 410.200631,194.080472 C410.200631,194.080472 423.079051,190.503192 423.079051,173.498863 C423.079051,156.50572 406.801257,149.811903 392.774975,149.811903 L358.788689,149.811903 L358.788689,149.811903 Z M380.286456,168.272498 L390.60336,168.272498 C397.763246,168.272498 402.344571,172.043663 402.344571,178.605915 C402.344571,184.475721 398.457822,188.905241 391.146131,188.905241 L380.286988,188.905241 L380.286988,168.272498 L380.286456,168.272498 Z M380.286456,204.10868 L391.688901,204.10868 C402.411153,204.10868 406.129052,209.616284 406.129052,216.189189 C406.129052,223.837515 401.319752,228.321366 392.774975,228.321366 L380.286988,228.321366 L380.286988,204.109212 L380.286456,204.10868 Z M435.669306,149.804979 L457.116472,149.804979 L457.116472,246.996086 L435.669306,246.996086 L435.669306,149.804979 Z M669.688163,246.996086 L648.240997,246.996086 L648.240997,149.804979 L715.568531,149.804979 L715.568531,169.894951 L669.688163,169.894951 L669.688163,192.156539 L711.496419,192.156539 L711.496419,208.444986 L669.688163,208.444986 L669.688163,246.996086 Z M723.442168,149.804979 L723.442168,169.894951 L751.133061,169.894951 L751.133061,246.996086 L772.851878,246.996086 L772.851878,169.894951 L800,169.894951 L800,149.804979 L723.442168,149.804979 Z M481.600809,214.679126 L464.562923,227.136219 C464.562923,227.136219 470.450307,248.668608 499.965527,248.668608 C519.620325,248.668608 534.083379,237.198516 534.083379,217.03344 C534.083379,184.535911 488.642979,191.430004 488.642979,174.717567 C488.642979,170.319474 492.554231,166.434322 499.772708,166.434322 C511.354657,166.434322 515.756479,177.795754 515.756479,177.795754 L532.799159,165.83509 C532.799159,165.83509 526.142628,148.09091 500.628677,148.09091 C479.660897,148.09091 468.522646,161.542994 468.522646,175.423862 C468.522646,208.541396 512.639942,201.35328 512.639942,218.73366 C512.639942,224.598673 508.018135,228.908346 500.819899,228.85881 C486.558186,228.85881 481.600809,214.679126 481.600809,214.679126 L481.600809,214.679126 Z M589.464631,148.046167 C564.207951,148.046167 552.950386,161.756054 552.950386,161.756054 L556.208076,165.013744 C556.208076,165.013744 539.867961,176.620194 539.867961,201.545034 C539.867961,230.225591 561.987332,248.647302 589.583412,248.647302 C621.647897,248.647302 639.841634,224.98804 639.841634,198.389081 C639.841634,170.025451 619.070402,148.046167 589.464631,148.046167 L589.464631,148.046167 Z M589.922711,168.220831 C607.047419,168.220831 618.156907,181.309648 618.156907,198.304389 C618.156907,215.122823 607.180049,228.574907 589.922711,228.574907 C572.873106,228.574907 561.67147,216.669107 561.67147,200.866437 C561.67147,186.484346 571.410981,180.216649 571.410981,180.216649 L567.88164,176.687308 C567.88164,176.687308 575.391477,168.220831 589.922711,168.220831 L589.922711,168.220831 Z M115.39915,59 C177.853225,59 246.140801,103.484646 246.140801,191.544365 C246.140801,259.063007 190.808916,313.582773 123.826082,313.582773 C50.0940578,313.582773 0.00712603172,254.310676 0.00712603172,191.389585 C-0.34256298,160.566887 12.2940132,136.536182 12.2940132,136.536182 L2.25239701,129.347493 C2.25239701,129.347493 36.3659933,59 115.398767,59 Z M116.084387,80.4659371 C80.2120271,80.4659371 49.621691,97.6545852 31.9572365,124.890964 L34.058428,126.793043 C47.5606278,116.282118 71.0582007,104.375876 98.7436339,104.375876 C148.798081,104.375876 190.3912,144.379916 190.3912,191.500415 C190.3912,231.999753 163.117368,266.879608 122.22248,266.879608 C90.1183538,266.879608 64.6372989,244.375687 64.6372989,211.882507 C64.6372989,194.37933 75.723396,176.571178 79.61125,173.529075 L77.5322246,171.273103 C63.3252963,180.136096 50.6470632,196.766006 50.6470632,220.619 C50.6470632,261.917846 86.3287185,292.039255 125.882941,292.039255 C179.626893,292.039255 225.747626,249.393629 225.747626,188.071934 C225.747626,130.224964 177.832588,80.4659371 116.084387,80.4659371 Z M118.771,177.808 L118.311949,177.812629 C103.107249,178.074527 86.3906307,191.26761 86.3906307,210.898028 C86.3906307,230.141624 102.070839,244.451739 119.800263,244.451739 C138.334927,244.451739 147.414994,230.196275 147.414994,230.196275 L138.25811,223.793336 C138.25811,223.793336 145.988721,216.657387 145.988721,204.616619 C145.988721,190.066117 133.89445,177.808657 118.771833,177.808657 L118.771,177.808 Z M97.6597891,125.542953 C55.5293333,125.542953 21.3293658,159.896554 21.3293658,201.542031 C21.3293658,215.923231 26.8257891,228.051134 26.8257891,228.051134 L29.7562977,226.97799 C25.9196551,189.210048 52.0542271,143.990099 101.81784,143.990099 C128.861985,143.990099 151.763749,159.28584 165.740227,177.742541 L168.57137,176.669779 C160.787255,146.67487 129.601874,125.542953 97.6597891,125.542953 Z" id="Combined-Shape"></path>
            </g>
        </g>
    </g>
</svg>