<?xml version="1.0" encoding="UTF-8"?>
<svg width="167px" height="29.4705882px" viewBox="0 0 167 29.4705882" version="1.1" xmlns="http://www.w3.org/2000/svg" xmlns:xlink="http://www.w3.org/1999/xlink">
    <title>action max</title>
    <g id="Page-1" stroke="none" stroke-width="1" fill="none" fill-rule="evenodd">
        <g id="System" transform="translate(-16.500000, -0.264706)" fill="#000000">
            <g id="action-max" transform="translate(16.500000, 0.264706)">
                <line x1="83.5" y1="29.4705882" x2="83.5" y2="0" id="Path" stroke="#979797" fill-rule="nonzero"></line>
                <path d="M70.564273,3.01922783 C70.2752965,4.96160001 70.2693193,4.97332459 69.5987193,4.97332459 C67.5455383,4.97332459 64.1909289,6.55591306 62.2894778,8.42173062 C60.9880494,9.69879033 59.6863911,11.951519 59.4004033,13.4219194 L59.2551104,14.169074 L63.9619548,14.169074 L68.6685692,14.169074 L69.4336556,9.68614617 C70.1003474,5.78140107 70.2529968,5.20321832 70.6180681,5.20321832 C71.1603874,5.20321832 71.1585483,5.2333344 70.3474832,9.72361885 C69.9681585,11.823928 69.657802,13.6830787 69.657802,13.855499 C69.657802,14.1102212 70.5493299,14.169074 74.4032685,14.169074 L79.1489648,14.169074 L79.0009133,12.752009 C78.6195196,9.10382534 76.0385026,6.27084483 72.1291596,5.20988524 C71.5284473,5.04689058 71.0371644,4.90113795 71.0371644,4.88596497 C71.0371644,4.87079198 71.1923426,4.04754251 71.382005,3.05647062 C71.5716673,2.06539872 71.7268456,1.21203317 71.7268456,1.1598473 C71.7268456,1.10766142 71.5307462,1.06513108 71.2909671,1.06513108 C70.9199186,1.06513108 70.8116386,1.35617655 70.564273,3.01922783 M106.07159,3.306595 C105.861467,4.03374889 104.42762,8.9474976 102.885493,14.2265475 L100.081479,23.8246109 L103.820471,23.8246109 C107.187035,23.8246109 107.570038,23.7846094 107.666593,23.4222969 C109.586666,16.2169674 110.256576,13.9869982 110.395892,14.3368964 C110.48486,14.5608129 110.823494,16.5542215 111.148564,18.7669487 C111.473633,20.9796759 111.790887,23.0227416 111.853418,23.30735 C111.961008,23.7967938 112.077564,23.8246109 114.030282,23.8246109 L116.093808,23.8246109 L118.025605,19.9738909 C119.088174,17.8558799 120.234424,15.657636 120.573057,15.088649 L121.188483,14.0541272 L121.039282,18.9430473 L120.889851,23.8317376 L127.393545,23.7708158 L133.897238,23.7096641 L134.363233,22.5027219 L134.829458,21.2957798 L137.187478,21.2957798 L139.545498,21.2957798 L139.545498,22.1965035 C139.545498,23.9296724 139.13008,23.8246109 145.98735,23.8246109 L152.149882,23.8246109 L153.701434,21.9645407 L155.252987,20.1042406 L156.269807,21.9645407 L157.286397,23.8246109 L160.84929,23.8246109 L164.412183,23.8246109 L162.08382,19.3361656 C160.72009,16.7073308 159.826263,14.7311642 159.925807,14.5658706 C160.019604,14.4109222 161.60725,12.4736077 163.454446,10.2608805 C165.301642,8.0481533 166.890898,6.10853985 166.986304,5.95037296 C167.122631,5.72461732 166.272484,5.66300579 163.026614,5.66300579 L158.893125,5.66300579 L157.782968,7.02926427 C157.17214,7.78078689 156.618786,8.40149998 156.553266,8.40862668 C156.487517,8.41575339 156.092559,7.80101754 155.675532,7.04236821 L154.917342,5.66300579 L151.369392,5.66300579 C149.418284,5.66300579 147.821672,5.70070837 147.821672,5.74668711 C147.821672,5.79289576 148.752742,7.60583776 149.890716,9.77580473 C151.02869,11.9457717 151.959759,13.8104398 151.959759,13.9194094 C151.959759,14.1295323 146.259314,21.1392222 146.006661,21.2399157 C145.925049,21.2723307 145.307554,18.013587 144.634196,13.998263 C143.960837,9.98270909 143.356906,6.46464525 143.291846,6.1802667 C143.17575,5.67059229 143.121035,5.66300579 139.521359,5.66300579 L135.868577,5.66300579 L132.073951,13.2494991 C129.986976,17.4220704 128.253807,20.8359924 128.222541,20.8362223 C128.162539,20.8364521 128.363926,13.2078883 128.609683,6.1802667 L128.756355,1.98470602 L124.873909,1.98470602 L120.991234,1.98470602 L118.377572,6.93063985 C116.54417,10.3999662 115.72115,11.7554197 115.620457,11.4710411 C115.541373,11.2480442 115.233545,9.02221306 114.936293,6.5251073 L114.396043,1.98470602 L110.424858,1.98470602 L106.453674,1.98470602 L106.07159,3.306595 M7.84098565,8.24931032 L4.85144751,14.0541272 L12.9211774,14.1145892 C17.3595059,14.1479238 21.0407943,14.1251643 21.1014862,14.0644724 C21.1918345,13.9741241 20.1069659,6.01980087 19.6186716,3.19164813 L19.4897012,2.44449349 L15.1601125,2.44449349 L10.8305238,2.44449349 L7.84098565,8.24931032 M29.7457206,5.5308169 C27.1695314,6.1179655 25.5101584,7.17915498 24.176085,9.09256055 C23.0399502,10.7220473 22.6666028,11.4616155 22.2222182,12.9621319 L21.8647334,14.169074 L25.2432518,14.1658555 L28.6217701,14.1624071 L29.2381152,13.0444339 C30.3685027,10.9944714 32.5952534,10.4420368 34.9289048,11.6326564 L35.8321572,12.0933635 L36.0995237,10.7749229 C36.2466557,10.0496082 36.5057459,8.78381326 36.6754075,7.96194315 C36.845069,7.14007305 36.9128877,6.40027501 36.8259879,6.31774315 C36.739088,6.2352113 36.1666526,6.00025991 35.5537559,5.79565448 C33.9681788,5.26597931 31.4175078,5.14965308 29.7457206,5.5308169 M37.8260256,5.95037296 C37.7329187,6.24164833 37.0128915,10.5415808 37.0128915,10.8066482 C37.0128915,10.8857317 37.8487851,10.9505617 38.870203,10.9505617 L40.7277443,10.9505617 L40.6068202,11.5827695 C40.540381,11.9305987 40.4194568,12.6545341 40.3385343,13.1920256 L40.1909425,14.169074 L43.6552112,14.169074 C47.5682325,14.169074 47.1631597,14.3847143 47.5422545,12.1000304 L47.7139851,11.0655086 L49.6531387,10.9505617 L51.5922924,10.8356149 L51.7568963,10.0309868 C51.8472446,9.58844133 52.0718507,8.42471924 52.2557657,7.44468225 L52.590491,5.66300579 L45.2541221,5.66300579 C39.5874714,5.66300579 37.8970628,5.72829562 37.8260256,5.95037296 M53.0033802,5.95037296 C52.9118825,6.2501544 51.7260906,13.7331955 51.7260906,14.0104473 C51.7260906,14.0975771 53.2758042,14.169074 55.1701286,14.169074 C58.5514057,14.169074 58.6164656,14.1596484 58.738999,13.6518131 C58.8077372,13.3674346 59.1576355,11.4535692 59.5162697,9.398779 L60.1687081,5.66300579 L56.629724,5.66300579 C53.99882,5.66300579 53.0684401,5.73680168 53.0033802,5.95037296 M80.8129357,6.17405957 C80.6699418,6.78902531 79.5432326,13.7244595 79.5432326,13.9886074 C79.5432326,14.0879215 80.2784328,14.169074 81.1770874,14.169074 C82.5725424,14.169074 82.7904816,14.2221795 82.6713967,14.5327659 C82.5946122,14.7327735 82.5318512,14.9396778 82.5318512,14.9925534 C82.5318512,15.0454289 81.8076859,15.088649 80.922595,15.088649 C80.0375041,15.088649 79.3133389,15.1458925 79.3133389,15.2160101 C79.3133389,15.4222248 78.1739855,22.5018024 78.0296122,23.1924032 L77.8974233,23.8246109 L81.2143302,23.8246109 L84.531237,23.8246109 L85.0471185,20.6635721 C85.3308074,18.9251156 85.6678316,16.9990659 85.7963422,16.3838703 L86.0296844,15.2654372 L87.9109048,19.4874357 L89.7918953,23.7096641 L93.1324812,23.7731147 L96.4730671,23.8363355 L97.9161101,15.2670465 C98.7097033,10.5537651 99.4117987,6.46464525 99.4763989,6.1802667 L99.5938746,5.66300579 L96.239725,5.66300579 C92.9510951,5.66300579 92.8835063,5.67312112 92.7635018,6.1802667 C92.6963728,6.46464525 92.3542909,8.50426248 92.0034731,10.7123918 L91.3657479,14.7274859 L89.5316556,10.2526043 L87.6975634,5.77795266 L84.3160565,5.7142721 C80.9625965,5.65128121 80.9334,5.65518941 80.8129357,6.17405957 M138.277864,13.3368587 C138.083144,13.8028533 137.667956,14.7626596 137.3553,15.4698128 C137.042645,16.176736 136.786773,16.8457268 136.786773,16.9563057 C136.786773,17.0671145 137.310241,17.1576926 137.950035,17.1576926 L139.113527,17.1576926 L138.954441,14.9162287 C138.867081,13.6835385 138.758571,12.6329241 138.713742,12.5818877 C138.668683,12.5310812 138.472584,12.8706342 138.277864,13.3368587 M1.43683585,14.3391954 C0.371278383,14.3998873 0,14.5072477 0,14.7548433 C0,15.0212901 0.407601594,15.088649 2.02306488,15.088649 C3.91532022,15.088649 4.59787472,14.8936991 4.59787472,14.352989 C4.59787472,14.2518358 4.21004398,14.1890748 3.73577321,14.2134435 C3.26173232,14.2378122 2.22721051,14.2943661 1.43683585,14.3391954 M2.20376135,19.3334069 C0.991531683,21.6679778 0,23.6335692 0,23.7013879 C0,23.7692065 1.8975429,23.8246109 4.2167109,23.8246109 L8.43319191,23.8246109 L8.85895511,22.4185808 L9.28471831,21.0123209 L10.4472909,21.1520962 C11.0866254,21.2288808 12.3078209,21.2927912 13.1614164,21.2937108 L14.7131991,21.2957798 L14.7131991,22.5601954 L14.7131991,23.8246109 L18.6213926,23.8246109 C22.5219996,23.8246109 22.5295861,23.8236914 22.5265285,23.30735 C22.5247583,23.0227416 22.2681969,21.1348542 21.9566909,19.1117893 C21.644955,17.0887245 21.3877039,15.3557855 21.3849452,15.2610693 C21.3824164,15.166353 17.5611227,15.088649 12.8938201,15.088649 L4.40729281,15.088649 L2.20376135,19.3334069 M21.9610589,16.282717 C22.1847455,17.9092152 22.8762659,19.8433112 23.6153742,20.9100181 C24.7131168,22.4942159 27.163784,23.8315077 29.5680127,24.1588764 C30.7390914,24.3184227 33.2587268,23.9924334 33.6157517,23.6354084 C33.718974,23.5321861 33.9555347,22.4721461 34.1415187,21.2799172 C34.3275027,20.0874584 34.5383153,18.7687879 34.6100421,18.3494617 C34.7307364,17.6441477 34.7061377,17.6055256 34.2824436,17.8322008 C33.5196562,18.2404921 31.5041778,18.1225566 30.4399997,17.6073647 C29.545713,17.1744748 28.736717,16.0981124 28.736717,15.3413022 C28.736717,15.1688819 27.6348363,15.088649 25.2667009,15.088649 L21.7966849,15.088649 L21.9610589,16.282717 M40.00151,15.2160101 C40.00151,15.4222248 38.8621567,22.5018024 38.7177834,23.1924032 L38.5855945,23.8246109 L42.0523921,23.8246109 C43.9589008,23.8246109 45.5189597,23.7469068 45.5191896,23.6521906 C45.5191896,23.5574744 45.8279369,21.7728093 46.2051925,19.6865237 C46.5824481,17.600238 46.8928047,15.7123507 46.8946714,15.490963 C46.8980922,15.125432 46.5822182,15.088649 43.4499161,15.088649 C41.5532928,15.088649 40.00151,15.1458925 40.00151,15.2160101 M51.4961968,15.2160101 C51.4961968,15.4222248 50.3568435,22.5018024 50.2124702,23.1924032 L50.0802813,23.8246109 L53.5470788,23.8246109 C55.4535876,23.8246109 57.0136465,23.7469068 57.0138764,23.6521906 C57.0138764,23.5574744 57.3226237,21.7728093 57.6998793,19.6865237 C58.0771349,17.600238 58.3874915,15.7123507 58.3893582,15.490963 C58.392779,15.125432 58.076905,15.088649 54.9446029,15.088649 C53.0479795,15.088649 51.4961968,15.1458925 51.4961968,15.2160101 M59.165222,16.505714 C59.5342014,20.0348127 61.9793512,22.8280216 65.6735136,23.9397877 C66.2790537,24.1220934 66.8390749,24.196579 66.9181583,24.1053112 C66.9970119,24.0140434 67.3441514,22.1808707 67.6892219,20.0313643 C68.0342924,17.8818579 68.3708568,15.8902884 68.4372961,15.6059099 L68.5582202,15.088649 L63.7876953,15.088649 L59.0171704,15.088649 L59.165222,16.505714 M69.3145706,15.6059099 C69.125598,16.4063999 67.8186521,23.7823105 67.8186521,24.0482975 C67.8186521,24.7703938 71.5470687,23.8271398 73.6834712,22.5643335 C76.0927575,21.1403717 78.3031858,18.2140543 78.765732,15.8358036 L78.9110248,15.088649 L74.1738345,15.088649 C69.4506677,15.088649 69.4364143,15.0902582 69.3145706,15.6059099 M66.6792987,25.8361811 C66.5326265,26.6897766 66.3528496,27.6309615 66.2802032,27.9279842 C66.1733026,28.3647823 66.2298565,28.4521419 66.5763063,28.3854728 C66.9105718,28.3211025 67.0650604,27.9514334 67.28231,26.6959837 C67.6499101,24.5724552 67.6480709,24.2843984 67.2675968,24.2843984 C67.0505771,24.2843984 66.8595354,24.7880956 66.6792987,25.8361811" id="Shape"></path>
            </g>
        </g>
    </g>
</svg>