<?xml version="1.0" encoding="UTF-8"?>
<svg width="148.346544px" height="30px" viewBox="0 0 148.346544 30" version="1.1" xmlns="http://www.w3.org/2000/svg" xmlns:xlink="http://www.w3.org/1999/xlink">
    <title>creativision</title>
    <g id="Page-1" stroke="none" stroke-width="1" fill="none" fill-rule="evenodd">
        <g id="System" transform="translate(-25.826728, 0.000000)" fill="#000000" fill-rule="nonzero">
            <g id="creativision" transform="translate(25.826728, 0.000000)">
                <line x1="74.1732719" y1="30" x2="74.1732719" y2="0" id="Path" stroke="#979797"></line>
                <path d="M71.2685996,0.00351683946 C71.5854478,0.0223979272 71.9081964,-0.00297353445 72.2197344,0.0743209185 C72.8274694,0.217699179 73.3838714,0.564639166 73.7827344,1.04492684 C74.070671,1.3741658 74.2010685,1.79722018 74.3444468,2.20139346 C75.1563336,4.53025763 75.8165816,6.90750458 76.5387832,9.26528042 C78.2498818,14.9455377 79.9456395,20.6305152 81.6773892,26.304282 C81.8077867,26.6482719 82.0131186,26.9893115 82.3293768,27.1905131 C82.4751152,27.2949491 82.6503553,27.1952334 82.7618717,27.0890273 C83.0698695,26.8093511 83.2586803,26.4228789 83.3583961,26.0234259 C84.9172659,20.9013408 86.4543044,15.7727653 87.9942932,10.6453699 C88.7046941,8.31001538 89.3861833,5.96640036 90.1207757,3.63871627 C90.3213872,3.00501976 90.5396998,2.37663356 90.7668629,1.75178756 C91.0925617,0.841955142 91.9758425,0.191737683 92.9157667,0.038918879 C93.3104994,0.00587697543 93.7087724,-0.00297353445 94.1058652,0.00587697543 C94.3914417,-0.00120343248 94.6498766,0.25782149 94.6351257,0.545168044 C94.6363058,1.05790758 94.6363058,1.57123716 94.6351257,2.0839767 C94.6475165,2.34949199 94.4297939,2.60025644 94.1636886,2.61618736 C93.8840125,2.65040933 93.5937157,2.69584195 93.3641925,2.87108204 C92.9464485,3.17376948 92.7747486,3.68945919 92.6390407,4.16443655 C91.8371845,6.95588737 90.9527236,9.72255676 90.1142853,12.5027969 C88.6020282,17.5410972 87.1505445,22.5976885 85.5881345,27.6212379 C85.3574312,28.4012629 84.8600326,29.1134339 84.1655626,29.5471089 C83.6675739,29.8639571 83.0763598,30.0391972 82.4845557,29.9919945 C81.5764934,30.0651587 80.6802318,29.6303037 80.0896078,28.9547147 C79.7762997,28.5965641 79.538516,28.1740998 79.3927776,27.7215437 C77.8120766,22.6496115 76.3487923,17.5416872 74.8200142,12.4538241 C74.0647707,9.94676968 73.2699949,7.45210596 72.5348125,4.93915118 C72.3843539,4.46417382 72.2840481,3.97031537 72.0810764,3.51303903 C71.9253074,3.16491897 71.6609722,2.84040027 71.2886607,2.71531307 C71.0797887,2.63919868 70.8532156,2.64332892 70.6408034,2.58432552 C70.4396018,2.5076211 70.303894,2.29461883 70.3127445,2.07984646 C70.3103844,1.56887702 70.3097943,1.05790758 70.3127445,0.54752818 C70.304484,0.333345841 70.4413719,0.126833944 70.6384433,0.0454092529 C70.8408249,-0.0212645882 71.0585475,0.00587697543 71.2685996,0.00351683946 Z M70.6832859,6.09974805 C70.9570616,6.10092812 71.2084161,6.34225202 71.1960254,6.62074806 L71.1960254,23.0349037 C71.2078261,23.3116296 70.9588317,23.5523635 70.6868261,23.5547236 C70.2714421,23.5694745 69.8560582,23.5541336 69.4418543,23.561214 C69.2919857,23.5588539 69.1397569,23.5694745 68.9946086,23.5299422 C68.7827864,23.4656285 68.619347,23.2549864 68.6305576,23.0307735 C68.6293775,17.5611583 68.6293775,12.0909532 68.6305576,6.6213381 C68.620527,6.39771521 68.7845565,6.18884318 68.9951986,6.12511951 C69.0772133,6.10328825 69.1611457,6.09620784 69.2455943,6.09429023 L69.4990876,6.09443774 C69.8938204,6.10033808 70.2885531,6.08617727 70.6832859,6.09974805 Z M96.2948914,6.10505835 C96.5769276,6.12865971 96.7875697,6.40656572 96.7604282,6.68447173 C96.758068,12.1334357 96.7621983,17.5823996 96.7586581,23.0313635 C96.7657385,23.3116296 96.5161541,23.5564937 96.2382481,23.5559037 C95.8216841,23.5682944 95.4045301,23.5547236 94.9885561,23.5613479 C94.8121359,23.5564937 94.6239151,23.5795051 94.4634258,23.4933601 C94.292906,23.4095753 94.1831597,23.2195843 94.1926002,23.0307735 C94.1937803,17.5611583 94.1931903,12.0921333 94.1926002,6.6231082 C94.1813896,6.40361555 94.3318483,6.19179335 94.5424904,6.12865971 C94.744282,6.07319652 94.9572843,6.10033808 95.1649763,6.09502778 C95.541418,6.10269822 95.9190397,6.08027693 96.2948914,6.10505835 Z M137.359487,6.1475408 C138.115911,6.51631205 138.643991,7.24028375 138.928978,8.01617845 C140.074234,11.1173971 141.202379,14.2251062 142.338194,17.329865 C142.751808,18.4273282 143.110548,19.5466227 143.594966,20.6163544 C143.6522,20.7337711 143.691142,20.8736092 143.803838,20.9532638 C143.918305,20.9957462 144.045752,20.9727349 144.168479,20.9804053 C144.17261,17.2980032 144.158449,13.615011 144.18382,9.93260886 C144.1732,8.9507923 144.241054,7.86807992 144.889501,7.0744842 C145.474225,6.36703345 146.456041,6.1770425 147.329882,6.22306515 C147.611328,6.25433695 147.944697,6.1475408 148.17658,6.36231317 C148.355361,6.51336188 148.35005,6.76412632 148.34474,6.97771863 C148.33884,7.4302747 148.34828,7.88283077 148.34179,8.33538684 C148.34533,8.6209633 148.077455,8.85933703 147.796598,8.83986591 C147.524003,8.8605171 147.218365,8.77260203 146.977041,8.93722152 C146.810062,9.05286818 146.77702,9.27059072 146.77938,9.45881156 C146.78056,11.5823439 146.77997,13.7052862 146.77997,15.8282285 C146.768759,17.5387371 146.759319,19.2498356 146.765809,20.9609342 C146.768759,21.8094031 146.365766,22.6484314 145.693127,23.1670713 C144.993347,23.7276036 144.015661,23.8981234 143.161291,23.6402786 C142.374776,23.4072151 141.708038,22.8071506 141.39827,22.0477768 C140.278385,18.9701595 139.134309,15.9013927 137.995544,12.8308558 C137.491655,11.4637471 136.936433,10.1166995 136.403042,8.76139139 C136.269694,8.76316149 136.137527,8.76316149 136.007129,8.76139139 C136.01834,10.2529973 136.008309,11.7451933 136.011849,13.2373893 C136.034271,14.6511107 136.02483,16.0654222 136.0266,17.4797337 C136.01893,18.6397405 136.044891,19.8009274 136.005949,20.9603442 C135.962877,21.7993725 135.536872,22.6384008 134.792839,23.0614552 C134.180974,23.421376 133.449332,23.4998505 132.752502,23.473889 C132.602043,23.4662185 132.439194,23.4933601 132.305846,23.4119354 C132.145947,23.3287406 132.037381,23.1535005 132.044461,22.9729501 C132.042691,22.4389694 132.043281,21.9055786 132.043871,21.3715979 C132.03089,21.113163 132.259823,20.8789195 132.514718,20.8653487 C132.708839,20.8482377 132.905321,20.8741992 133.100622,20.852958 C133.306544,20.8281766 133.489454,20.6517564 133.499485,20.4405242 C133.522496,19.4746386 133.497715,18.509343 133.504205,17.5428673 C133.511875,15.0251922 133.477653,12.5081072 133.489454,9.99043219 C133.501255,9.38210715 133.448152,8.76788176 133.559078,8.16545705 C133.647583,7.65743779 133.850555,7.1594491 134.198085,6.77297683 C134.586327,6.33694171 135.138599,6.07732676 135.704442,5.96227013 C136.256124,5.84072312 136.849698,5.89854646 137.359487,6.1475408 Z M128.160267,7.26565522 C129.77224,8.28287382 131.026652,9.84056356 131.709912,11.6177459 C132.335348,13.2592205 132.531829,15.0800654 132.183119,16.8065049 C131.797827,18.6780927 130.733405,20.3886012 129.263041,21.6011211 C127.643397,22.9522989 125.536386,23.699282 123.427604,23.6792208 C121.394347,23.6845311 119.342209,23.0290034 117.759738,21.7362389 C116.220929,20.5012977 115.170079,18.7040542 114.765905,16.7793633 C114.468528,15.3538412 114.450237,13.8522047 114.8373,12.4414334 C115.338238,10.5733858 116.491165,8.89650917 118.026433,7.7252917 C119.240133,6.78949778 120.699287,6.17055213 122.219805,5.96758043 C124.269583,5.69557476 126.414947,6.15167104 128.160267,7.26565522 Z M122.635189,8.44336306 C120.626123,8.67170622 118.792887,9.95503015 117.847653,11.7351627 C116.768481,13.702336 116.810963,16.2312217 117.96743,18.1553226 C118.912664,19.7785061 120.612552,20.939693 122.47411,21.2075684 C123.914973,21.425881 125.42841,21.1349942 126.678692,20.3832909 C128.238152,19.4628379 129.362166,17.849685 129.694946,16.0701424 C130.062537,14.2239261 129.575169,12.225481 128.37622,10.7704571 C127.028582,9.07823964 124.781142,8.16722716 122.635189,8.44336306 Z M7.90425912,6.13928032 C9.10320819,6.07378655 10.3033373,6.1440006 11.5028764,6.12452947 C11.754821,6.13574012 12.0144359,6.09148757 12.2598901,6.16170162 C12.467582,6.24135621 12.6086001,6.46084885 12.5920792,6.68329167 C12.5903091,7.15649893 12.5944393,7.62970619 12.5903091,8.10291345 C12.5903091,8.36606861 12.3560656,8.60326228 12.0923204,8.60208221 C10.8119466,8.60385231 9.53157287,8.59205163 8.25296921,8.64456466 C6.9560745,8.73838006 5.69517185,9.2546598 4.70568485,10.0978184 C3.61530203,11.0153212 2.85297811,12.3228366 2.62109475,13.7318377 C2.39334163,15.1036668 2.63112533,16.5522002 3.2919634,17.7765208 C3.89084791,18.9034857 4.86027376,19.8262988 6.01438024,20.3709002 C6.75015263,20.7196103 7.55613907,20.9160916 8.36861587,20.956804 C9.39232485,20.9868957 10.4166239,20.9833555 11.4409229,21.0081369 C11.8728278,21.0004665 12.3059127,21.0541596 12.7366375,21.0116771 C13.0281143,20.9804053 13.3190011,20.8222762 13.4434982,20.5473204 C13.6511902,20.1042049 13.5461642,19.6056261 13.5650452,19.135369 C13.5367236,16.7752331 13.5296432,14.413917 13.5367236,12.053191 C13.5733057,11.4419158 13.5154824,10.8276904 13.5927768,10.2193654 C13.6936727,9.28534157 14.0004903,8.34305729 14.6294666,7.62793609 C15.2023896,6.96709802 16.0178165,6.55643436 16.8615652,6.36408328 C17.6551609,6.17586243 18.4758982,6.18176277 19.2860148,6.18353287 C19.9580635,6.1788126 20.6295222,6.19710366 21.3015709,6.22070502 C22.2650965,6.26259743 23.2451429,6.54817388 23.9986163,7.16829961 C24.7367489,7.76128377 25.1999255,8.64928493 25.3604148,9.57445823 C25.5586662,10.6435998 25.4477398,11.8030166 24.8813072,12.7488411 C24.3308055,13.6899453 23.3666899,14.3507834 22.3152493,14.6098083 C21.4142674,14.8534924 20.4749333,14.7443361 19.5538903,14.7685275 C19.5538903,14.8959748 19.5538903,15.0240122 19.5538903,15.1514595 C20.4708031,15.15913 21.4042369,15.1048468 22.3016786,15.33319 C23.1985302,15.5444222 24.0434589,16.0329703 24.6140218,16.7640224 C25.2418179,17.5493577 25.5297545,18.5553656 25.590528,19.5472128 C25.6164895,19.8935627 25.5740071,20.2523034 25.6813933,20.5886228 C25.7592778,20.8393872 25.9734601,21.0281981 26.2183242,21.1113929 C26.4112653,21.1526953 26.6219075,21.0872015 26.8059981,21.1774767 C26.9664873,21.2589014 27.0945247,21.426471 27.0903944,21.6123317 C27.0939347,22.1038301 27.0903944,22.5959184 27.0921645,23.0874167 C27.1104556,23.3558822 26.8685417,23.5913057 26.6071566,23.6007463 C25.9740501,23.6190373 25.3161622,23.6225775 24.721998,23.3688629 C24.0422788,23.0944971 23.5124283,22.5062332 23.2793649,21.8147134 C22.9583864,20.9343827 23.1407069,19.9755774 22.934195,19.0740055 C22.8427397,18.6993339 22.6480285,18.336463 22.3335404,18.1039896 C22.0196423,17.867976 21.6225494,17.7694403 21.2360772,17.7511493 C20.4318608,17.7127971 19.6199741,17.7664902 18.8240182,17.624882 C17.9714191,17.4620326 17.2020148,16.8896997 16.8279332,16.1031844 C16.4756829,15.385703 16.4821733,14.5236634 16.7736501,13.7873009 C17.0350352,13.1128921 17.6238891,12.5924821 18.3095086,12.3771197 C19.3520986,12.0225093 20.4708031,12.348208 21.5316842,12.1133745 C21.9565087,12.017199 22.3813332,11.8047867 22.6261973,11.4312952 C22.9046933,11.010601 22.934195,10.4713099 22.8332992,9.98866209 C22.7689855,9.65883309 22.5978756,9.344935 22.3300002,9.13724304 C22.0214124,8.89060883 21.6178292,8.8050539 21.232537,8.78499275 C20.3687272,8.76552162 19.5055075,8.72716941 18.6422877,8.72244914 C18.0021009,8.73956013 17.2911099,8.75549105 16.77188,9.18267566 C16.285692,9.59274928 16.1889264,10.2701083 16.1694553,10.8689928 C16.1311031,13.0928309 16.1281529,15.3172591 16.1316931,17.5416872 C16.1275629,18.1122501 16.1429038,18.682813 16.1175323,19.2527858 C16.1092718,20.1738289 16.1794859,21.130274 15.8467067,22.0088346 C15.6602559,22.5209841 15.2608029,22.953479 14.7516036,23.1552706 C14.1007961,23.4308165 13.3785945,23.4485175 12.6823544,23.4420271 C10.6125151,23.4314065 8.52143468,23.5234518 6.47755693,23.1287191 C4.74698723,22.7882695 3.16038582,21.8141234 2.04404151,20.4523249 C0.388406128,18.4668605 -0.272431943,15.7479839 0.101649608,13.2084776 C0.408467284,11.2578252 1.48409925,9.46589197 2.97688525,8.18846838 C4.34635415,7.00781036 6.09285477,6.24725655 7.90425912,6.13928032 Z M47.2565762,6.16229165 C47.9516363,6.31216028 48.554061,6.76766653 48.9423033,7.35593042 C49.1987715,7.72214485 49.3818131,8.12769488 49.5482464,8.54041273 L49.7925423,9.1608444 C50.238018,10.3061004 50.6581222,11.4613869 51.0434144,12.6284742 C51.2859184,13.3801775 51.3779637,14.2286464 51.0599353,14.9726792 C50.7985503,15.6004754 50.2262173,16.0536215 49.595471,16.2760643 C48.7062898,16.6047132 47.7433543,16.5280088 46.8140507,16.5386294 C46.8093305,16.7115094 46.8105105,16.8849794 46.8270315,17.0572693 L48.1330717,17.0545404 L49.439112,17.0549092 C50.029736,17.0678899 50.6262604,16.9864652 51.2115741,17.103292 C51.7874473,17.2024177 52.3367689,17.4708831 52.7474326,17.8898073 C53.2477814,18.3954664 53.5339479,19.0704653 53.7133182,19.7490044 C53.849026,20.2180814 53.9965345,20.765633 54.4591212,21.0169874 C54.7193262,21.1945877 55.0432548,21.1037224 55.3359117,21.1267338 C55.5990668,21.114343 55.8551416,21.3426862 55.8545516,21.6093816 C55.8598619,22.0424665 55.8516014,22.4761415 55.8576258,22.9098165 C55.8545516,23.0596851 55.8752028,23.2254847 55.7849276,23.3564722 C55.6822616,23.5299422 55.4769298,23.6149071 55.2816286,23.6048765 C54.8497237,23.6025164 54.4178188,23.6084167 53.9859139,23.6025164 C53.1899581,23.5299422 52.4866375,23.022513 52.0517825,22.3687553 C51.5473034,21.6158719 51.4133657,20.6883385 50.9631698,19.9089036 C50.8009104,19.621557 50.4480701,19.5666839 50.1477428,19.5649138 L48.4679898,19.5621849 L46.7886793,19.5625536 C46.4553101,19.5596035 46.1172206,19.5832048 45.7897517,19.5076805 C44.9861254,19.3477813 44.2739544,18.7984596 43.9045931,18.0691776 C43.5075002,17.3080338 43.5004198,16.358079 43.885122,15.5910348 C44.2786747,14.7726577 45.1047223,14.1826237 46.0068842,14.0764176 C46.6594618,14.0298049 47.3161697,14.0929385 47.9693373,14.0404255 C48.1976805,14.0233145 48.4567054,13.9371696 48.5599613,13.7141367 C48.6708877,13.4474414 48.571172,13.1547845 48.4797167,12.8981197 C48.0950145,11.9227935 47.7451244,10.9333065 47.3309205,9.969781 C47.2447756,9.77034951 47.166301,9.56265755 47.0282331,9.39213772 C46.8329318,9.14609355 46.5809873,8.95315243 46.366805,8.72480928 C46.0942093,9.02808675 45.7277982,9.26469038 45.5631787,9.65116265 C44.1577177,13.4450812 42.8891446,17.2891527 41.4600823,21.0742207 C41.2340993,21.6595345 41.0588592,22.2902808 40.6234141,22.762898 C40.1743982,23.2927485 39.4946791,23.5836353 38.8108297,23.6379184 C38.1842136,23.6727304 37.5564174,23.6626999 36.9292113,23.6626999 C35.553842,23.6933816 34.1767027,23.6709603 32.8007434,23.6786308 C32.150526,23.6520792 31.4932281,23.6927916 30.8518611,23.5594439 C30.0116527,23.4024949 29.2086165,22.9924212 28.6362835,22.3504643 C27.8527184,21.4825243 27.5093186,20.2871154 27.5181691,19.134779 C27.5034182,18.4515196 27.6125745,17.7676702 27.8184964,17.1174528 C27.9483039,16.7008888 28.1778271,16.3096962 28.5111963,16.0241198 C28.8829177,15.7001911 29.3584851,15.5113803 29.8440831,15.4435263 C30.3143402,15.3733123 30.7899076,15.420515 31.2631148,15.3892432 C32.5275577,15.385703 33.7920005,15.3898333 35.0564434,15.3874731 C35.0564434,15.2547155 35.0564434,15.1219578 35.0576234,14.9892002 C33.6161704,14.9880201 32.1747174,14.9951005 30.7338543,14.98625 C29.8299223,14.9036452 28.8481057,14.6859227 28.2144092,13.9849623 C27.6184749,13.3188139 27.5264296,12.3765297 27.53351,11.5209804 C27.5104986,10.2606678 27.724681,8.91244009 28.5342076,7.90230189 C29.2829608,6.9564774 30.502561,6.50982167 31.6779087,6.44904817 L37.1652249,6.4478681 L37.3954119,6.44742558 C37.47219,6.44904817 37.5484519,6.45583356 37.6225012,6.47795984 C37.8307832,6.54522371 37.9847821,6.75645588 37.9771116,6.97653856 C37.9782917,7.45092589 37.9788817,7.92531322 37.9771116,8.39970055 C37.9924525,8.70297802 37.7033359,8.96082288 37.4047787,8.92778097 C35.9686359,8.91362016 34.5319032,8.8970992 33.0957604,8.92778097 C32.429022,8.93250124 31.7274716,8.893559 31.1073459,9.18444576 C30.6772111,9.37561677 30.3196505,9.7319973 30.155621,10.1762929 C29.9703504,10.6624809 30.0028022,11.2035421 30.1308396,11.7003507 C30.1650616,11.8761808 30.3043096,12.0018581 30.4423776,12.103934 C30.7002224,12.2886146 31.0099903,12.4095716 31.3291986,12.4154719 C32.6432043,12.4839158 33.9589801,12.4378932 35.2735759,12.4555942 C35.9863369,12.4856859 36.7315499,12.6963281 37.2460595,13.214968 C37.758209,13.7046962 37.9729814,14.430438 37.9788817,15.124318 C37.9995329,15.7609646 37.8349134,16.4235728 37.4207096,16.9197914 C36.8914491,17.5688288 36.0335397,17.8372943 35.2216529,17.8691561 C33.7324071,17.9405502 32.2402111,17.8957076 30.7503753,17.9145887 C30.4541782,17.9080983 30.1981035,18.1258209 30.1343798,18.4102173 C30.0234534,18.891095 30.0535452,19.4020644 30.1804025,19.8776318 C30.2954591,20.2729546 30.4972507,20.6735877 30.8559914,20.8995707 C31.0276913,21.0128572 31.2365633,21.0482592 31.438945,21.0529795 C33.6822542,21.1609557 35.9296937,21.1420746 38.174183,21.0748108 C38.2969101,21.0736307 38.4278976,21.0529795 38.5187628,20.9615242 C38.8621626,20.6476262 39.0574639,20.2092309 39.2073325,19.776736 C40.5768014,16.0500813 41.9090982,12.3098558 43.2484753,8.57199047 C43.5328717,7.78429509 43.9765773,7.00545023 44.6940586,6.5381433 C45.4422217,6.04605495 46.3980768,5.97938111 47.2565762,6.16229165 Z M66.9578112,6.12865971 C67.2197863,6.13219992 67.4634704,6.35877297 67.4628803,6.62546833 C67.4676006,7.11696665 67.4640604,7.60964503 67.4640604,8.10114335 C67.4764511,8.37078888 67.2368973,8.6245035 66.9660717,8.61624302 C65.8638882,8.61978323 64.7617047,8.61565299 63.6595212,8.61801313 C63.3019606,8.6209633 62.891887,8.68822717 62.6712143,9.00212525 C62.4068791,9.3726666 62.4328405,9.85236424 62.4346106,10.2854492 L62.4346106,16.7174097 C62.4275302,18.1311312 62.4688326,19.5448526 62.4434612,20.9585741 C62.4104193,21.8229739 61.9437024,22.6507916 61.226221,23.1316693 C60.5122799,23.6243477 59.5623252,23.7399943 58.7463082,23.4526478 C57.8388359,23.1411098 57.1237147,22.3250928 56.9449344,21.3810384 C56.8985577,21.1594216 56.8882911,20.9346187 56.8869883,20.7094334 L56.8882911,20.2593838 L56.8882911,10.6961128 L56.8923339,10.515539 L56.9046154,10.1491076 C56.9126136,9.78123236 56.8936014,9.41318227 56.7201314,9.08236988 C56.5319106,8.73779003 56.1165267,8.62332343 55.7495255,8.62037326 C54.6284609,8.61329285 53.5068063,8.61978323 52.3857417,8.61801313 C52.1137361,8.63040384 51.8617915,8.38081946 51.8735922,8.10822376 C51.8718221,7.61377527 51.8712321,7.11991682 51.8735922,6.62546833 C51.8706421,6.3522826 52.1249467,6.12334941 52.3934122,6.12806968 C53.3752287,6.10918859 54.3558652,6.15285111 55.3376818,6.13869029 C56.2327634,6.15698134 57.1744576,6.10741849 58.0052255,6.5015612 C58.5409763,6.74406517 58.9593104,7.20901195 59.1622821,7.75892363 C59.3499129,8.24334154 59.4124565,8.76847179 59.4112765,9.28475154 C59.4401881,11.1309679 59.4189469,12.9777743 59.4254373,14.8239907 C59.4260273,16.7622523 59.4295675,18.701104 59.4106864,20.6387756 C59.5871066,20.6393657 59.7641168,20.6393657 59.941717,20.6387756 C59.9448639,19.4657881 59.9320143,18.2930627 59.9265947,17.12025 L59.9263543,11.465692 C59.927884,10.8165453 59.9320798,10.1674424 59.941717,9.518405 C59.9257861,8.67642649 60.0219617,7.75715353 60.5771836,7.08274468 C61.0804826,6.47323956 61.8888292,6.23722597 62.6499731,6.17763253 C63.5739663,6.1198092 64.5009097,6.14518066 65.426673,6.13869029 C65.9364624,6.1180391 66.4474318,6.12039924 66.9578112,6.12865971 Z M102.672569,6.11390886 C104.613781,6.09738791 106.556173,6.12688961 108.497384,6.09502778 C108.76644,6.10682846 109.086828,6.03661441 109.303961,6.24135621 C109.479791,6.39594511 109.478611,6.64670956 109.476841,6.862662 C109.46858,7.27391569 109.485101,7.68575942 109.46917,8.09701311 C109.46681,8.3814095 109.188904,8.59618187 108.915718,8.57376058 C107.086023,8.57258051 105.256328,8.57376058 103.426632,8.57317054 C102.987057,8.56136986 102.540401,8.58556126 102.120887,8.72598935 C101.4748,8.93014111 100.914267,9.40688857 100.637542,10.0287844 C100.267,10.8536519 100.327184,11.9045025 100.929608,12.6066429 C101.413436,13.1819261 102.162779,13.4645523 102.896192,13.5312262 C103.582991,13.5872794 104.273331,13.5548275 104.961901,13.5908196 C106.005671,13.6433326 107.050621,13.9814221 107.876669,14.6334097 C108.640173,15.229934 109.194805,16.0748627 109.47153,17.0012161 C109.748256,17.9346499 109.823781,18.9512784 109.545285,19.8941528 C109.099219,21.443582 107.833006,22.7304462 106.284167,23.1865424 C105.64575,23.387154 104.970751,23.3901042 104.308733,23.4125254 C102.402923,23.4131155 100.496523,23.4113454 98.5907136,23.4137055 C98.3069073,23.4367168 98.0443421,23.1894926 98.0478824,22.9056862 C98.0378518,22.415368 98.041392,21.9238697 98.0461122,21.4335514 C98.042572,21.1491551 98.2962867,20.8936703 98.5830432,20.9066511 C100.275851,20.9025208 101.969838,20.906061 103.663236,20.904881 C104.271561,20.8989806 104.894047,20.9479535 105.484671,20.765633 C106.107157,20.5974733 106.68185,20.1862196 106.955035,19.5902852 C107.342098,18.7435865 107.250052,17.6561538 106.621076,16.947523 C106.17324,16.4406838 105.510042,16.1769386 104.850974,16.0925637 C104.124642,16.0081889 103.393,16.0866634 102.665488,16.0317902 C101.82587,15.992848 100.985662,15.7757155 100.267,15.3308299 C99.292264,14.7384357 98.5305302,13.8026418 98.1475981,12.7281899 C97.4248065,10.7657369 98.1239967,8.37609919 99.794383,7.11637662 C100.6163,6.48799041 101.642369,6.15285111 102.672569,6.11390886 Z M111.244583,6.13278995 C111.444014,6.07378655 111.656426,6.09915801 111.862938,6.09502778 C112.23879,6.10151815 112.616412,6.0832271 112.992853,6.10269822 C113.257779,6.11508893 113.487892,6.35995304 113.473141,6.6266484 C113.472551,12.0944934 113.472551,17.5617484 113.473141,23.0290034 C113.489662,23.3198901 113.219426,23.5682944 112.93444,23.5570838 C112.436451,23.561804 111.937873,23.5635741 111.440474,23.5564937 C111.157258,23.5647542 110.888792,23.3145798 110.906493,23.0266432 C110.905903,17.5587982 110.905313,12.0903632 110.906493,6.62251816 C110.894102,6.40715576 111.048691,6.20890434 111.244583,6.13278995 Z" id="Combined-Shape"></path>
            </g>
        </g>
    </g>
</svg>