<?xml version="1.0" encoding="UTF-8"?>
<svg width="110.970523px" height="30px" viewBox="0 0 110.970523 30" version="1.1" xmlns="http://www.w3.org/2000/svg" xmlns:xlink="http://www.w3.org/1999/xlink">
    <title>uzebox</title>
    <g id="Page-1" stroke="none" stroke-width="1" fill="none" fill-rule="evenodd">
        <g id="System" transform="translate(-44.514739, 0.000000)" fill="#000000" fill-rule="nonzero">
            <g id="uzebox" transform="translate(44.514739, 0.000000)">
                <line x1="55.4852613" y1="30" x2="55.4852613" y2="0" id="Path" stroke="#979797"></line>
                <path d="M46.7017272,0.135098465 L30.1985989,19.0602441 C30.138415,19.1296871 30.2236756,19.2238209 30.3139515,19.1875563 L40.6057894,15.0248344 C40.6332457,15.0138137 40.6530432,14.9918643 40.659029,14.9658078 L42.4105357,7.68779597 C42.41988,7.64927731 42.4586596,7.62176146 42.5035122,7.62182512 L57.6200953,7.62182512 C57.6487903,7.62186166 57.6759257,7.6332959 57.6939102,7.65292895 C57.7118947,7.672562 57.7187969,7.69828561 57.7126859,7.72290326 L56.9989662,10.6873476 C56.9898321,10.7258954 56.9512171,10.7535695 56.9063756,10.7537043 L46.2476471,10.7537043 C46.2029393,10.7538004 46.1643705,10.7812807 46.1550565,10.8196751 L45.712936,12.6560566 C45.706825,12.6806743 45.7137273,12.7063979 45.7317117,12.7260309 C45.7496962,12.745664 45.7768317,12.7570982 45.8055267,12.7571347 L52.6865561,12.7571347 C52.7153187,12.7570687 52.7425636,12.7684594 52.7606359,12.7881066 C52.7787083,12.8077537 52.7856581,12.8335372 52.7795326,12.8582129 L52.073143,15.7929511 C52.0638289,15.8313455 52.0252602,15.8588258 51.9805523,15.8589219 L45.0185061,15.8589219 C44.9736646,15.8590568 44.9350496,15.8867308 44.9259154,15.9252786 L44.483795,17.7616601 C44.477684,17.7862777 44.4845862,17.8120013 44.5025707,17.8316344 C44.5205552,17.8512674 44.5476907,17.8627017 44.5763857,17.8627382 L55.1548689,17.8627382 C55.1835639,17.8627747 55.2106994,17.874209 55.2286838,17.893842 C55.2466683,17.9134751 55.2535705,17.9391987 55.2474595,17.9638163 L54.5337398,20.9282607 C54.5244258,20.9666552 54.485857,20.9941354 54.4411492,20.9942316 L39.3249519,20.9942316 C39.2962569,20.994195 39.2691214,20.9827608 39.2511369,20.9631277 C39.2331525,20.9434947 39.2262502,20.9177711 39.2323613,20.8931534 L39.8137535,18.4765371 C39.8214531,18.4456031 39.8085206,18.4135102 39.7803774,18.3937118 C39.7522342,18.3739134 39.7137433,18.3698306 39.6810402,18.3831749 L10.9787064,29.9917292 C10.8872731,30.0287655 10.8012409,29.9334742 10.8621964,29.8632597 L27.3626241,10.9404288 C27.422808,10.8709858 27.3375475,10.7768519 27.2472716,10.8131166 L16.9998,14.9588635 C16.9723437,14.9698843 16.9525462,14.9918336 16.9465604,15.0178901 L15.5237505,20.9278749 C15.5142578,20.9661161 15.4757347,20.9934032 15.4311599,20.99346 L0.0946739814,20.99346 C0.0660743338,20.9933985 0.0390312656,20.9820159 0.0210649128,20.9624775 C0.00309856005,20.9429391 -0.00387504457,20.9173286 0.00208331885,20.8927676 L3.18064361,7.68779597 C3.18977778,7.64924822 3.22839276,7.62157414 3.27323427,7.62143933 L7.62499541,7.62143933 C7.65382548,7.62127011 7.68118002,7.63261704 7.69934051,7.65227841 C7.71750101,7.67193977 7.72449818,7.69778353 7.71835766,7.72251747 L5.30174137,17.7597311 C5.29563036,17.7843487 5.30253259,17.8100723 5.32051706,17.8297054 C5.33850153,17.8493384 5.36563703,17.8607727 5.39433203,17.8608092 L11.6384148,17.8608092 C11.6834012,17.8608346 11.7222274,17.8331246 11.7313913,17.7944526 L14.164211,7.68818176 C14.1733748,7.64950972 14.212201,7.62179976 14.2571874,7.62182512 L18.6089486,7.62182512 C18.6377394,7.62183599 18.6649681,7.63332184 18.6829709,7.65304988 C18.7009736,7.67277792 18.7078039,7.698615 18.7015392,7.72328906 L17.7902928,11.5094756 C17.7824903,11.5405 17.7954586,11.5727205 17.8237296,11.5925512 C17.8520006,11.6123819 17.8906542,11.6163715 17.9233919,11.6028378 L46.5863746,0.00817209884 C46.6766505,-0.0284783718 46.7619111,0.0660412629 46.7017272,0.135098465 Z M93.3153388,7.62143933 C93.344233,7.62143933 93.3715565,7.63301457 93.3897371,7.65276638 C93.4079178,7.67251819 93.4150242,7.69841836 93.4090869,7.72328906 L90.2309124,20.9271033 C90.2214141,20.9661954 90.1822053,20.9942316 90.1367786,20.9942316 L74.9025282,20.9942316 C74.8735392,20.9942316 74.8461239,20.9826291 74.8279252,20.9627829 C74.8097266,20.9429366 74.8026911,20.9169237 74.8087802,20.891996 L77.9873405,7.68856756 C77.9968079,7.64959944 78.0358066,7.62167443 78.0810885,7.62143933 L93.3153388,7.62143933 Z M73.4326514,7.62143933 C73.458138,7.62143933 73.4826186,7.63017852 73.5009371,7.64574438 L75.2246666,9.11600694 C75.2488821,9.13649546 75.2593835,9.16654118 75.2524438,9.19548059 L74.5028452,12.3088416 C74.4977499,12.3299 74.483838,12.3484951 74.46388,12.3609239 L71.8709556,13.9882048 C71.8474872,14.0030803 71.8326657,14.0262785 71.8304358,14.0516248 C71.8282059,14.0769712 71.8387939,14.1018943 71.8593818,14.1197607 L73.6521685,15.6490498 C73.6763114,15.6697254 73.6866636,15.6999071 73.6795599,15.7289092 L72.8038065,19.3654075 C72.7988131,19.386607 72.7848909,19.4053537 72.7648413,19.4178755 L70.2783962,20.9780282 C70.2613951,20.9886617 70.241737,20.9942319 70.2216844,20.9942319 L57.1366948,20.9942319 C57.1073132,20.9942319 57.079524,20.982454 57.0610397,20.9623233 C57.0425553,20.9421926 57.0353427,20.9157936 57.0414036,20.8904529 L60.2191923,7.68972494 C60.2286946,7.64999471 60.2684178,7.62143933 60.3144835,7.62143933 L73.4326514,7.62143933 Z M99.9471451,7.62182372 C99.981095,7.62182372 100.012344,7.6372569 100.030477,7.66233354 L102.344086,10.9103368 C102.376878,10.9566322 102.449408,10.964348 102.494546,10.926926 L106.411516,7.64574438 C106.430552,7.6301575 106.454428,7.62182372 106.479031,7.62182372 L110.872457,7.62182372 C110.93457,7.62221092 110.980866,7.67236419 110.96852,7.72598962 L110.563436,9.40998229 C110.55895,9.42746147 110.548937,9.44302329 110.534887,9.45434865 L104.822815,14.259804 C105.738305,15.8647089 107.071997,17.5456152 108.196587,19.1246718 C108.209775,19.1429311 108.214417,19.1660031 108.209319,19.1879421 L107.791117,20.925946 C107.781087,20.9656828 107.740964,20.9942446 107.695055,20.9942446 L103.275008,20.9942446 C103.242476,20.9947524 103.211653,20.9796994 103.192062,20.9537231 L100.878453,17.7061057 C100.84566,17.6598103 100.772745,17.6517086 100.727993,17.6891307 L96.8110222,20.9703123 C96.7919867,20.9858992 96.7681106,20.9942446 96.7435081,20.9942446 L92.3500812,20.9942446 C92.2875825,20.9942446 92.2409014,20.9440783 92.2536326,20.8900671 L92.6652752,19.1798404 C92.6696577,19.1624122 92.679532,19.1468568 92.6934382,19.135474 L98.3993378,14.3562526 C97.485005,12.7428604 96.1551716,11.0530808 95.0321241,9.4651509 C95.0188403,9.44693376 95.0141889,9.42381785 95.0193928,9.40188061 L95.4314213,7.69049653 C95.4410661,7.65037391 95.4811888,7.62221092 95.5274841,7.62182372 L99.9471451,7.62182372 Z M88.0619761,10.7537043 L81.8275382,10.7537043 C81.7828303,10.7538004 81.7442615,10.7812807 81.7349475,10.8196751 L80.0636861,17.7620459 C80.0578897,17.7866066 80.0649521,17.8121626 80.082913,17.8316203 C80.100874,17.8510779 80.1278219,17.8623524 80.1562767,17.8623524 L86.3907147,17.8623524 C86.4355562,17.8622176 86.4741712,17.8345435 86.4833053,17.7959958 L88.1545668,10.8540108 C88.167298,10.8023144 88.1225459,10.7537043 88.0619761,10.7537043 Z M68.9886854,15.8585358 L62.6435245,15.8585358 C62.597447,15.8584265 62.5575587,15.8867343 62.5478475,15.926436 L62.1053413,17.7578021 C62.0991144,17.783258 62.1063037,17.8098299 62.1248939,17.8300693 C62.1434841,17.8503086 62.1714743,17.8620369 62.2010183,17.8619669 L68.5488798,17.8619669 C68.595131,17.8618807 68.6350163,17.8334142 68.6445568,17.793681 L69.0843625,15.9623148 C69.0970937,15.9086894 69.0504125,15.8585358 68.9886854,15.8585358 Z M70.2174407,10.7533185 L63.8718939,10.7533185 C63.8259611,10.7533692 63.7862836,10.7816414 63.7766027,10.8212183 L63.3340965,12.6525845 C63.3278729,12.6779256 63.3349963,12.7043795 63.3534862,12.7245911 C63.3719761,12.7448027 63.3998609,12.7566169 63.4293877,12.756749 L69.7780208,12.756749 C69.8241271,12.7565038 69.863802,12.7280728 69.8733121,12.6884633 L70.3127319,10.8570972 C70.3254631,10.8034718 70.2791678,10.7533185 70.2174407,10.7533185 Z" id="Combined-Shape"></path>
            </g>
        </g>
    </g>
</svg>