<?xml version="1.0" encoding="UTF-8"?>
<svg width="146.511897px" height="30px" viewBox="0 0 146.511897 30" version="1.1" xmlns="http://www.w3.org/2000/svg" xmlns:xlink="http://www.w3.org/1999/xlink">
    <title>v smile</title>
    <g id="Page-1" stroke="none" stroke-width="1" fill="none" fill-rule="evenodd">
        <g id="System" transform="translate(-26.744051, 0.000000)" fill="#000000" fill-rule="nonzero">
            <g id="v-smile" transform="translate(26.744051, 0.000000)">
                <line x1="73.2559486" y1="30" x2="73.2559486" y2="0" id="Path" stroke="#979797"></line>
                <path d="M123.074185,0.0494942309 C124.674498,0.461946155 125.812865,2.01276539 127.528665,2.09525577 C128.683531,2.26023654 129.88789,2.26023654 130.976764,2.68918655 C132.230617,3.11813655 133.220502,4.25650386 134.622839,4.27300193 C135.909689,4.40498655 137.262531,4.24000578 138.483389,4.76794424 C139.423779,5.2298904 140.248683,6.18677886 140.18269,7.29215002 C140.166192,8.36452502 139.489771,9.2389231 138.89584,10.063827 C138.29531,10.8799318 138.542708,11.9259832 138.551537,12.880056 L138.549381,13.066477 C140.043007,12.8038614 141.226376,11.7900981 142.391909,10.9024472 C142.112965,10.4102866 142.16246,9.83285387 142.030475,9.30491541 C141.881992,8.48001156 141.535533,7.63860964 141.766506,6.81370579 C142.129464,5.69183655 143.333823,4.88343078 144.521685,5.04841155 C145.33009,5.03191348 145.907523,5.72483271 146.237485,6.38475579 C146.583944,6.99518463 146.53445,7.7375981 146.45196,8.41401925 C146.18799,9.33791156 145.495071,10.080325 144.719662,10.6247616 C144.125731,11.0537116 143.399815,11.2186923 142.739892,11.4991596 L142.512715,11.6987002 C141.36227,12.6982841 140.026028,13.5676255 138.517395,13.8911642 C138.517685,13.8973661 138.517041,13.9026258 138.516385,13.9078789 C138.169925,14.782277 137.493504,15.5411885 137.477006,16.514575 C137.411014,17.1909962 137.559496,17.8839154 137.707979,18.5438385 C138.021442,19.7646962 137.394515,21.2825193 136.140662,21.6619751 C135.167275,21.9259443 134.127896,21.7774616 133.204004,21.431002 C132.263926,21.0846575 131.274387,20.8372358 130.26835,20.804108 L130.267346,20.787577 C130.343944,22.2123038 130.577022,23.6654813 131.257183,24.9225518 L131.422212,25.2090616 C132.329606,24.7471155 133.335989,25.2090616 134.292877,25.2420578 C134.853812,25.2585558 135.29926,25.7040039 135.497237,26.1989462 C135.827198,27.3868078 135.414746,28.7726462 134.391865,29.4985616 C133.484471,30.2079789 132.03264,30.1749828 131.224235,29.3335808 C130.795285,28.9211289 130.564312,28.3436962 130.514817,27.7662635 C130.448825,27.0733443 130.382833,26.2979347 130.811783,25.6875058 L130.950276,25.5561864 C130.903973,25.5941825 130.857878,25.6325952 130.811783,25.6710078 C129.818016,24.3666892 129.481889,22.6677869 129.473293,21.0694647 L129.475439,20.787577 C127.809133,20.9690558 126.093333,20.9195616 124.476521,20.4081212 L124.307899,20.9529444 C123.896934,22.2563234 123.358499,23.5282284 122.681598,24.7246688 L122.678231,24.7141193 C122.876208,25.3245481 122.991694,25.9679731 122.793717,26.5949001 C122.546246,27.3868078 122.43076,28.294202 121.787335,28.8716347 C120.665465,30.0759943 118.388731,29.6470443 117.679313,28.1787155 C117.28336,27.3703097 117.250363,26.2979347 117.811298,25.5555212 C118.051895,25.2379332 118.415998,25.1056049 118.798815,24.9980714 L119.129082,24.9082295 C119.294063,24.862602 119.456981,24.8131078 119.609588,24.7471155 C120.319006,24.4501501 121.110913,24.0376981 121.869825,24.4006558 L122.141689,23.9038773 C122.762756,22.7022026 123.288232,21.4707622 123.663454,20.1767571 C123.206169,20.0616616 122.727725,19.9461751 122.249281,19.9791712 C121.523365,20.0286654 120.846944,20.3421289 120.104531,20.3751251 C119.114646,20.3421289 118.025773,20.0781597 117.398846,19.2697539 C116.821413,18.6263289 116.837912,17.7024366 116.920402,16.8775327 C117.002892,15.8876481 117.580325,15.0462462 117.844294,14.1223539 C118.174256,13.0334808 118.190754,11.8951135 118.174256,10.7732443 C118.190754,10.509275 118.091765,10.2618039 117.943283,10.0308308 C118.075267,9.8163558 118.190754,9.58538272 118.207252,9.33791156 C118.262246,8.73298207 118.454723,8.16369658 118.6687,7.60176619 L118.92837,6.9291697 C119.013417,6.70494069 119.094482,6.48007801 119.16414,6.25277117 C119.345619,5.04841155 119.032156,3.84405193 119.329121,2.68918655 C119.659083,1.63330962 120.352002,0.659923079 121.30889,0.0989884618 C121.886323,-0.0494942309 122.480254,0 123.074185,0.0494942309 Z M122.975196,4.20700963 C122.034806,4.4379827 121.193404,5.08140771 120.780952,5.95580579 C119.791067,7.93557502 119.263129,10.1628154 119.329121,12.3900558 C119.362117,13.4294347 119.246631,14.4853116 119.494102,15.4916943 C119.758071,16.5475712 120.764454,17.1909962 121.721342,17.5539539 C124.608506,18.659325 127.74314,18.9067962 130.811783,18.7088193 C131.768671,18.659325 132.659567,18.1808808 133.302992,17.4714635 C133.880425,16.8280385 134.474356,16.1516174 134.787819,15.3267135 C135.266264,14.1223539 135.678715,12.8685 135.777704,11.565152 C135.909689,10.3607923 135.843696,9.05744426 135.282762,7.9520731 C134.639337,6.69821925 133.253498,6.17028079 132.065637,5.54335386 C129.211469,4.33899424 126.043839,3.69556924 122.975196,4.20700963 Z M123.668115,8.52950579 C124.031073,8.49650964 124.377533,8.51300772 124.707494,8.66149041 C124.658,9.15643272 124.377533,9.58538272 124.328039,10.080325 C124.526015,11.2351904 125.103448,12.3900558 126.142827,12.9839866 C126.951233,13.4624308 127.941117,13.3304462 128.766021,13.0004847 C129.37645,12.7695116 129.739408,12.1755808 130.201354,11.7466308 C130.448825,11.2351904 130.547814,10.6742558 130.712794,10.1463173 C131.075752,9.55238656 132.181123,10.2288077 131.735675,10.8062404 C131.389215,11.2186923 130.943767,11.5321558 130.531315,11.8786154 C130.135362,12.4725462 129.689914,13.0499789 129.128979,13.495427 C128.337071,13.9738712 127.363685,14.0893577 126.472789,13.9078789 C125.00446,13.4624308 124.22905,11.8621173 124.163058,10.4102866 C124.212552,9.71736733 123.470139,9.2389231 123.668115,8.52950579 Z M112.696894,2.98615193 C114.01674,4.12451924 114.115729,6.00530002 114.742656,7.5231231 L115.128814,7.79862809 C116.083382,8.4207216 117.139001,8.90071252 118.207252,9.30491541 C118.190754,9.56888464 118.075267,9.78335964 117.943283,9.99783464 C116.756124,9.52297118 115.555618,9.03476008 114.52185,8.28108037 L114.184264,8.02 L113.95445,8.05115017 C112.738784,8.1665481 111.572963,7.54787021 110.552144,6.92919233 C109.809731,6.50024233 109.248796,5.77432694 109.067317,4.93292501 C108.918835,4.2235077 108.984827,3.34910962 109.595256,2.87066539 C110.453156,2.0787577 111.855492,2.26023654 112.696894,2.98615193 Z M129.788902,6.02179809 C130.31684,6.40125386 130.267346,7.17666348 130.135362,7.7375981 C129.953883,8.3810231 129.656917,9.20592695 128.881508,9.28841733 C128.386565,8.5954981 128.502052,7.65510771 128.815515,6.89619617 C129.013492,6.5167404 129.310458,6.02179809 129.788902,6.02179809 Z M127.891623,5.95580579 C128.023608,6.86320002 127.677148,7.80359041 127.033723,8.43051733 C126.819248,8.67798848 126.324306,8.8099731 126.192321,8.39752118 C125.928352,7.44063271 126.340804,6.31876348 127.116214,5.67533848 C127.363685,5.37837309 127.875125,5.59284809 127.891623,5.95580579 Z M129.871392,6.36825771 C129.755906,6.38475579 129.491937,6.41775194 129.359952,6.41775194 C128.914504,6.89619617 128.766021,7.62211156 129.046489,8.23254041 C129.145477,8.23254041 129.359952,8.21604233 129.45894,8.19954425 C129.871392,7.67160579 129.986879,7.01168271 129.871392,6.36825771 Z M126.88524,6.12078655 C126.522283,6.58273271 126.340804,7.19316156 126.588275,7.75409617 C127.446175,7.68810387 127.66065,6.58273271 127.57816,5.88981348 C127.31419,5.8733154 127.017225,5.88981348 126.88524,6.12078655 Z M18.061657,3.47652073 L24.3169557,6.70773461 C23.7577071,7.52589453 21.2151975,11.590803 18.5328757,15.8783753 L18.0440506,16.6597143 L17.5546065,17.4419213 C15.1914308,21.2181785 12.8928446,24.8833126 11.9099229,26.3849986 L11.6199422,26.3849986 C10.2638743,24.3008405 8.04402671,20.5970956 5.89870557,16.9658776 L5.4562172,16.216181 C3.17870192,12.353831 1.06029122,8.70770529 0.247119759,7.34470974 L0.106338026,7.10996862 C0.0650488065,7.04159475 0.0295002044,6.98327907 -1.77635684e-15,6.93557661 L6.3588632,3.47652073 C6.68306526,4.1681518 7.99396924,6.93467605 9.30315723,9.7051226 L9.62984647,10.3966175 C10.7148781,12.6938829 11.741518,14.8740243 12.1377649,15.7385631 C13.02842,13.7294109 17.6473988,4.42931457 18.061657,3.47652073 Z M23.4263006,20.4611065 C25.0163805,20.4611065 26.305395,21.750121 26.305395,23.3402009 C26.305395,24.9302808 25.0163805,26.2192953 23.4263006,26.2192953 C21.8362206,26.2192953 20.5472062,24.9302808 20.5472062,23.3402009 C20.5472062,21.750121 21.8362206,20.4611065 23.4263006,20.4611065 Z M32.4985549,20.8960776 C34.8598266,20.9789292 37.4282274,20.3161161 37.4282274,19.1769061 C37.4282274,18.7005092 37.0139692,18.4105284 35.0462428,17.2920313 C33.5134875,16.4220891 31.7528902,15.2000275 31.7528902,13.1701624 C31.7528902,10.4567712 35.3569364,7.49482517 41.5086705,6.95628952 L42.1714836,11.0160198 C39.1473988,11.0160198 37.6146435,11.5338425 37.6146435,12.5280622 C37.6146435,13.1080236 38.3810212,13.480856 39.9759152,14.2472336 C41.2601156,14.8686209 43.3521195,15.9664051 43.3521195,18.1619735 C43.3521195,20.8339388 40.5558767,24.230856 33.1820809,25.0800853 L32.4985549,20.8960776 Z M43.9735067,23.5887558 C44.3877649,22.6152491 49.2760116,9.93894848 50.6844894,6.85272497 L50.9330443,6.85272497 C52.4036609,9.25542247 56.0077071,15.2000275 56.7533719,16.442802 C57.7061657,15.0136113 61.1237958,9.33827411 62.4079961,7.24627025 L62.6565511,7.24627025 C64.3342967,10.8296036 69.2018304,21.8488714 69.8646435,23.1744976 L64.955684,25.3493531 C64.1893064,23.4023396 61.8694605,17.2506055 61.6001927,16.5877924 C61.3102119,17.0227635 58.2032755,21.8074456 56.3805395,24.3551335 L56.1319846,24.3551335 C54.2678227,21.5381778 51.7201349,17.4163088 51.3265896,16.691357 C50.9123314,17.9548444 49.172447,24.2101431 48.7374759,25.3493531 L43.9735067,23.5887558 Z M77.9012524,17.2920313 C77.9012524,19.7154417 77.984104,24.0651527 78.004817,24.6244013 L72.3709056,24.6244013 C72.4123314,23.54733 72.4537572,17.8719928 72.4537572,17.2506055 L72.4537572,14.620066 C72.4537572,14.2058078 72.3709056,7.97122208 72.3709056,7.39126062 L78.004817,7.39126062 C77.984104,7.82623172 77.9012524,11.7616845 77.9012524,14.6614918 L77.9012524,17.2920313 Z M88.4026975,7.39126062 C88.3819846,7.95050917 88.27842,12.9423203 88.27842,16.0078309 L88.27842,20.4403936 C88.8583815,20.4403936 91.716763,20.4403936 93.6637765,20.336829 L93.6844894,24.8522433 C93.1045279,24.8522433 84.6950867,24.6036884 82.7480732,24.6036884 C82.8309249,23.319488 82.8309249,18.1205477 82.8309249,17.5405862 L82.8309249,14.3300853 C82.8309249,13.93654 82.789499,7.84694463 82.7273603,7.39126062 L88.4026975,7.39126062 Z M107.5,24.8522433 C106.630058,24.8522433 97.8684971,24.6036884 96.6050096,24.6036884 C96.6878613,23.319488 96.6878613,18.1205477 96.6878613,17.5612992 L96.6878613,14.3300853 C96.6878613,13.93654 96.6464355,8.09549954 96.6050096,7.39126062 C97.9720617,7.39126062 106.112235,7.01842825 107.00289,6.95628952 L107.106455,10.953881 C106.2158,10.953881 102.404624,11.0781585 101.969653,11.0781585 L101.969653,14.2886595 C102.44605,14.2886595 105.242293,14.164382 106.319364,14.0608175 L106.402216,17.9341315 C105.739403,17.9341315 102.528902,17.830567 101.990366,17.830567 L101.990366,20.7096614 C102.611753,20.7096614 106.277938,20.7510872 107.417148,20.6682356 L107.5,24.8522433 Z" id="Combined-Shape"></path>
            </g>
        </g>
    </g>
</svg>