<?xml version="1.0" encoding="UTF-8"?>
<svg width="800px" height="400px" viewBox="0 0 800 400" version="1.1" xmlns="http://www.w3.org/2000/svg" xmlns:xlink="http://www.w3.org/1999/xlink">
    <title>989studios</title>
    <g id="Page-1" stroke="none" stroke-width="1" fill="none" fill-rule="evenodd">
        <g id="AF150_INCREMENTAL" fill="#000000" transform="translate(-0.000000, 0.000000)">
            <g id="989studios" transform="translate(0.000000, 0.000000)">
                <line x1="0" y1="0" x2="800" y2="400" id="Path" fill-rule="nonzero"></line>
                <path d="M437.253952,0.232881528 C339.950166,7.534706 231.087913,87.743457 181.982597,188.315528 C171.500051,209.783646 164.126499,231.519581 160.376145,252.004466 C156.775769,271.66867 156.377538,291.332408 159.235948,308.250452 C166.772054,352.853202 195.641205,384.431252 239.070223,395.577049 C251.264927,398.707002 262.270528,400.005093 276.564442,399.999985 C290.91844,399.994846 301.23983,398.911939 316.767094,395.781521 C371.211029,384.804797 429.013607,352.17458 475.912587,305.943044 C483.251207,298.708755 483.877198,297.808894 478.008537,302.931396 C453.497099,324.324526 420.471912,344.498745 390.148637,356.602624 C346.189111,374.150384 303.297587,378.765201 267.9608,369.74982 C253.021799,365.937986 239.330587,359.556516 228.219722,351.224882 C223.635181,347.787523 214.854081,339.301254 211.222498,334.799153 C199.832174,320.677107 192.622105,303.329161 189.638404,282.866167 C188.625827,275.92112 188.486097,257.847975 189.386424,250.262498 C192.0902,227.485575 198.320295,207.312288 209.956078,183.657861 C223.738581,155.640131 241.680845,130.828274 265.301272,107.122146 C317.02606,55.2096533 383.028462,22.2650435 444.706219,17.572444 C453.590253,16.8966166 470.300564,17.2613119 478.008537,18.2995059 C501.987604,21.5291321 521.406815,29.289271 537.733801,42.1663228 C545.735673,48.4769958 554.969497,59.0629412 559.867034,67.5403608 C562.417107,71.9548976 562.659771,71.7285349 560.69051,66.77138 C549.772938,39.2878847 528.653679,18.9208386 499.899572,8.14625767 C489.648513,4.30507974 476.972672,1.54913821 464.26842,0.400557538 C459.381596,-0.0414550553 442.320562,-0.147184095 437.253952,0.232881528 M449.106782,33.4467045 C405.678696,36.4611466 357.459267,57.1649419 315.279901,90.9074101 C304.121528,99.8338288 292.996225,110.057408 299.619893,105.298669 C305.122461,101.344776 316.039101,94.3261377 323.168592,90.1579915 C354.969279,71.5664481 386.485848,60.1621506 417.69175,55.9539485 C422.59674,55.2925598 426.949795,55.110445 437.486835,55.1258153 C449.286103,55.1425829 451.75979,55.2767237 457.049036,56.1849688 C482.713247,60.592519 500.642936,71.2469322 512.319241,89.0294388 C530.686751,117.001523 528.462249,158.037432 506.164134,202.567989 C502.590306,209.705398 497.704414,218.332328 494.914005,222.432938 L493.567008,224.412447 L505.480389,224.412447 L517.393303,224.412447 L520.400293,219.778534 C537.611304,193.256847 548.440845,165.317832 552.094785,138.012725 C553.077087,130.672242 553.208899,115.355504 552.345833,108.902306 C549.528876,87.843131 542.14694,72.1258339 528.813437,58.7988515 C519.574023,49.5631637 509.73377,43.5063336 496.801292,39.0931942 C483.203699,34.4532264 465.241872,32.3270014 449.106782,33.4467045 M262.011096,147.36532 C253.434002,148.916323 246.963571,153.2065 243.592352,159.578189 C241.545307,163.446381 238.30264,175.755663 238.022714,180.717942 C237.823366,184.253111 237.927697,185.039325 238.848984,186.941982 C241.988717,193.428249 254.339918,195.643435 278.893275,194.123173 C283.120108,193.861412 289.127567,193.338356 292.243546,192.961085 C300.096373,192.009523 299.740061,191.946179 298.207689,194.02117 C291.594733,202.977398 280.810837,208.565201 266.550458,210.426404 C264.244913,210.72729 257.380909,211.091985 251.296599,211.237304 C245.212754,211.382623 240.23464,211.569862 240.23464,211.6537 C240.23464,212.056122 247.012011,223.292278 247.434461,223.590368 C248.743732,224.513052 264.018084,223.5396 271.804772,222.037037 C288.835997,218.750121 303.109417,210.217275 311.664154,198.207947 C316.184886,191.861875 318.658107,185.715618 322.176043,172.085887 C325.200266,160.370923 325.174649,154.96803 322.078698,151.442176 C320.217494,149.322006 318.03724,148.260989 313.70561,147.366252 C308.801086,146.353209 267.612406,146.352743 262.011096,147.36532 M345.518872,147.130108 C342.53191,147.727221 338.753611,149.70114 337.294364,151.427271 C335.183975,153.923315 332.982762,159.18089 331.692588,164.805954 C330.113639,171.691849 329.997663,175.872105 331.334879,177.681608 C332.69026,179.515798 334.931995,180.94803 337.921752,181.890276 L340.466235,182.692327 L337.089892,183.522789 C329.864919,185.298757 325.64647,188.325775 322.986011,193.643433 C320.68,198.25266 317.825782,210.215878 318.157874,213.879133 C318.564954,218.368192 320.545394,220.295535 325.89519,221.409183 C328.845356,222.023064 333.694919,222.106436 359.197509,221.980213 C388.740158,221.834428 389.079237,221.821852 392.165407,220.783193 C396.252975,219.406852 399.756007,216.264324 401.775571,212.161851 C402.581813,210.524215 404.107665,205.968551 405.166353,202.037946 C407.326113,194.019307 407.401101,191.259639 405.54176,188.250786 C404.173338,186.036531 400.91204,184.021159 397.587397,183.334153 L394.90132,182.779425 L398.727594,181.677421 C400.832393,181.071458 403.410412,180.075649 404.456524,179.464098 C406.775576,178.109648 409.398309,175.27406 410.708976,172.705357 C411.941395,170.288959 414.124909,162.01508 414.890164,156.861371 C415.698735,151.416093 415.072279,149.890707 411.30376,148.12452 L408.6093,146.862292 L378.101581,146.788701 C361.322336,146.748645 346.660001,146.902348 345.518872,147.130108 M441.688051,147.564202 C433.566942,149.29732 427.56647,153.427274 424.33172,159.511118 C422.076012,163.753321 418.622352,177.119428 418.63443,181.561911 C418.650298,187.447339 420.88365,190.484138 426.631676,192.435234 C434.184083,194.998814 453.450988,195.209806 473.053711,192.943386 C476.477097,192.547484 479.388604,192.334629 479.524142,192.470167 C479.998293,192.944783 475.651758,198.052381 472.65222,200.545164 C470.987105,201.928957 467.528787,204.084059 464.96707,205.334177 C456.446334,209.492542 449.121687,210.812059 432.24696,211.227989 C426.035029,211.381226 420.952117,211.588492 420.952117,211.689564 C420.952117,211.790169 422.471914,214.472054 424.328926,217.649514 C426.435123,221.252685 428.055991,223.521901 428.637268,223.680261 C431.338249,224.416173 445.079764,223.473461 452.485454,222.044023 C469.903265,218.682585 484.600999,209.679315 492.807808,197.343484 C497.293142,190.601977 499.273582,185.611752 502.656911,172.525571 C506.842756,156.337384 505.533486,150.854378 496.770086,147.874869 C493.949868,146.915855 492.982005,146.876265 469.85762,146.775659 C447.74721,146.679711 445.543202,146.741608 441.688051,147.564202 M268.13127,159.659698 C263.595168,160.100779 261.033917,161.181358 259.110767,163.466875 C257.65804,165.193472 257.26307,166.096128 255.984075,170.616393 C253.587239,179.083566 255.157339,181.351384 263.914219,182.072857 C269.221164,182.510212 286.749362,181.922414 297.289197,180.954085 L303.342301,180.397494 L304.093117,178.767311 C305.423346,175.880489 306.579845,170.247506 306.593701,166.591238 C306.617106,160.051408 305.480636,159.654109 286.112659,159.431006 C278.427509,159.342511 270.335744,159.445445 268.13127,159.659698 M353.505374,159.681589 C349.519342,160.261934 348.204483,162.099849 346.429446,169.574008 C345.268756,174.462695 345.575696,175.684401 348.155112,176.441737 C349.371694,176.798981 356.312084,176.915888 370.416431,176.816214 C392.813754,176.657853 392.688929,176.673224 394.366154,173.91309 C396.313991,170.708149 398.045246,161.729099 396.9302,160.614054 C396.655398,160.339251 395.188698,159.911212 393.670299,159.662492 C390.45092,159.135244 357.147204,159.15108 353.505374,159.681589 M448.848748,159.692301 C440.805423,160.408651 438.011754,163.424956 435.89531,173.676015 C435.187345,177.105921 435.929777,179.519524 438.077427,180.770573 C441.236257,182.610817 456.944704,182.717478 477.219529,181.03606 C484.985723,180.391905 484.575848,180.715613 486.136166,174.004846 C488.798023,162.553506 487.672731,160.527421 478.172953,159.671342 C472.538108,159.16319 454.641022,159.176232 448.848748,159.692301 M341.449003,190.163224 C339.560785,190.984371 338.517933,193.045389 336.944107,199.065889 C335.350254,205.163706 335.355377,206.454812 336.977177,207.517691 C338.140662,208.279686 339.996742,208.343496 361.080603,208.343496 C386.749937,208.343496 386.055013,208.432457 387.852407,204.909398 C388.874765,202.905204 391.143049,194.378879 391.143049,192.539566 C391.143049,191.881438 390.723859,190.923821 390.211515,190.411478 C389.304668,189.50463 388.671691,189.48041 366.108089,189.498109 C347.393117,189.513014 342.650215,189.640634 341.449003,190.163224 M316.331602,239.724061 C312.421957,240.41293 310.757772,242.379863 309.200248,248.152575 C308.094984,252.248527 307.97994,254.624403 308.831361,255.788354 C309.812266,257.130228 312.626428,257.459059 323.224484,257.470704 L333.322306,257.481882 L332.423376,260.62441 C331.929197,262.35287 331.524912,263.820035 331.524912,263.884777 C331.524912,263.949518 326.704227,264.002616 320.812278,264.002616 C314.920329,264.002616 310.099644,263.949053 310.099644,263.882914 C310.099644,263.817241 310.2948,263.083658 310.532807,262.25273 C311.032109,260.511694 311.097782,260.528462 307.07216,261.360787 L304.27756,261.938338 L303.84626,264.156785 C303.577513,265.538714 303.581239,266.850313 303.856973,267.634199 C304.639927,269.863824 306.547707,270.133969 320.346511,269.97095 C334.102931,269.807932 334.722866,269.679846 336.621331,266.608115 C338.015837,264.351941 340.161158,255.73386 339.741502,254.074333 C339.149513,251.732924 337.502562,251.426915 325.484849,251.426915 C319.584517,251.426915 314.757311,251.312802 314.757311,251.173538 C314.757311,251.033808 315.097321,249.566643 315.512784,247.913171 L316.267792,244.906181 L326.225418,244.906181 C331.701903,244.906181 336.182579,244.959744 336.182579,245.025883 C336.182579,245.091556 335.987423,245.825139 335.749416,246.656067 C335.242662,248.423186 335.425708,248.466502 339.428973,247.53264 C341.870522,246.962541 341.992087,246.862401 342.358645,245.106927 C342.867728,242.671898 342.483936,241.363094 340.970195,240.371011 C339.875177,239.653264 338.362833,239.539617 328.983689,239.467889 C323.080562,239.42271 317.38703,239.537754 316.331602,239.724061 M356.697273,240.425971 C356.462992,241.042181 356.129503,242.302545 355.956238,243.226161 L355.640914,244.906181 L362.446697,244.906181 C366.189598,244.906181 369.252014,245.045446 369.252014,245.21545 C369.252014,245.489321 363.537523,267.139089 362.904546,269.262985 C362.677717,270.024048 362.98,270.085995 366.303245,269.961635 L369.950664,269.824699 L373.219415,257.481882 L376.488166,245.139065 L383.568285,245.010513 L390.647939,244.881961 L391.097869,243.147446 C392.138392,239.137661 394.049899,239.565235 374.482574,239.427833 L357.123449,239.305803 L356.697273,240.425971 M408.198028,240.132073 C407.155642,243.653735 402.186843,262.70825 401.873382,264.386408 C401.352189,267.177282 401.930671,268.544307 403.99821,269.408304 C405.390386,269.990047 407.866402,270.086926 418.323796,269.968156 C432.644259,269.805603 433.271181,269.661215 435.231593,266.074812 C436.731361,263.331446 442.862714,239.760857 442.148228,239.486986 C441.836164,239.366818 440.240448,239.332351 438.602346,239.409668 L435.623768,239.549864 L432.363401,251.775308 L429.103034,264.000287 L418.987048,264.001684 C411.094165,264.00215 408.917172,263.87453 409.078793,263.420407 C409.518477,262.186591 415.362917,240.182841 415.362917,239.761788 C415.362917,239.517261 413.804927,239.316981 411.900873,239.316981 C409.006599,239.316981 408.399705,239.450656 408.198028,240.132073 M464.3993,239.899189 C463.991755,240.4283 456.331755,268.823301 456.34478,269.757629 C456.348057,269.977005 461.957286,270.059912 468.809645,269.941607 C478.892097,269.76741 481.757494,269.57272 483.830621,268.919249 C492.46547,266.198706 498.225607,257.968142 497.723044,249.068272 C497.571204,246.384059 497.324814,245.614612 496.135711,244.117172 C494.248891,241.739899 491.064909,240.223363 486.962436,239.747815 C481.406771,239.104126 464.92748,239.214512 464.3993,239.899189 M523.266156,239.666306 C523.151111,239.858668 521.335553,246.499569 519.231685,254.424589 C517.128282,262.34961 515.301545,269.108816 515.172062,269.445565 C514.990879,269.918319 515.74775,270.057583 518.494842,270.057583 C521.316456,270.057583 522.11152,269.904346 522.336951,269.317479 C523.094753,267.342163 530.237286,239.970452 530.074267,239.666306 C529.970867,239.473944 528.444084,239.316981 526.681157,239.316981 C524.91823,239.316981 523.381666,239.473944 523.266156,239.666306 M557.994652,239.75713 C555.495348,240.163745 553.703078,241.456247 552.621102,243.630912 C551.376107,246.133476 546.723098,263.919244 546.715541,266.204295 C546.710056,267.834013 546.926172,268.31515 547.96949,268.998895 C549.109686,269.745985 550.650908,269.824699 564.154882,269.824699 C578.363561,269.824699 579.158159,269.779054 580.710094,268.869412 C581.606695,268.344027 582.793002,267.086457 583.346333,266.074812 C584.34354,264.251801 588.895012,247.794401 589.395711,244.201942 C589.743173,241.70683 588.608099,240.29742 585.81676,239.758528 C583.372882,239.287172 560.891255,239.285775 557.994652,239.75713 M616.428344,239.78135 C612.169839,240.537755 610.899693,242.187967 609.136767,249.255045 C607.977473,253.900602 608.125121,255.248996 609.922515,256.427852 C611.011012,257.141872 612.622099,257.269027 622.25788,257.402236 C628.353835,257.48654 633.34173,257.653284 633.34173,257.77252 C633.34173,257.891757 633.00172,259.342154 632.586257,260.995626 L631.831249,264.002616 L621.123272,264.002616 L610.415296,264.002616 L610.733415,262.307691 L611.051533,260.6123 L609.504256,260.922501 C608.653766,261.093437 607.175889,261.357992 606.221067,261.51123 C604.723161,261.751565 604.446496,261.992367 604.207558,263.265773 C604.055252,264.07807 603.998428,265.571318 604.080869,266.584826 C604.209421,268.160515 604.467455,268.545238 605.861495,269.24156 C607.283481,269.951854 608.979803,270.05572 619.135846,270.054336 C631.354304,270.052459 633.716207,269.762287 635.59837,268.033361 C637.134934,266.622088 637.796323,265.185197 638.899724,260.864746 C640.156828,255.941592 640.152171,253.696596 638.882957,252.547084 C637.984493,251.733389 636.945367,251.648154 626.330544,251.520534 C617.585309,251.415737 614.800955,251.2448 614.935562,250.821884 C615.032907,250.514478 615.447439,249.05756 615.856383,247.58434 L616.600212,244.906181 L626.419971,244.906181 L636.240196,244.906181 L635.934188,246.536365 C635.588589,248.379404 635.573218,248.373814 639.02455,247.646287 C642.280725,246.960212 642.658461,246.583873 642.650211,244.034266 C642.635639,239.784611 642.039923,239.583399 629.14983,239.473013 C623.385967,239.423641 617.661229,239.56244 616.428344,239.78135 M468.492924,250.56711 C467.663859,253.729666 466.504566,258.046391 465.916768,260.160041 L464.848299,264.002616 L471.755154,264.002616 C475.553481,264.002616 479.728614,263.773924 481.033226,263.493999 C486.022053,262.424132 489.783585,257.763205 490.239105,252.086441 C490.513442,248.670508 489.88093,247.292304 487.436121,245.976047 C486.213018,245.317919 484.414693,245.130681 477.963824,244.990485 L470.001076,244.816754 L468.492924,250.56711 M559.109232,245.27926 C558.8498,245.698916 554.162324,263.107878 554.161858,263.653291 C554.161392,263.845652 559.350499,264.002616 565.692378,264.002616 L577.222898,264.002616 L579.458113,255.502374 C580.687737,250.827007 581.811166,246.53031 581.954622,245.954156 L582.215917,244.906181 L570.778085,244.906181 C564.486974,244.906181 559.23592,245.074323 559.109232,245.27926 M437.253952,287.572274 C424.387612,297.627711 405.18312,309.258837 389.279982,316.627732 C348.423859,335.558353 307.057722,341.529948 273.071192,333.403716 C257.6273,329.710652 243.796823,323.027832 232.336634,313.720416 C230.682231,312.377145 229.513156,311.592328 229.737656,311.976585 C232.441897,316.599786 238.977535,324.282141 243.671998,328.355271 C256.516446,339.499671 272.243524,346.393018 292.029294,349.549985 C299.51463,350.74421 322.203057,350.741416 330.593379,349.544861 C354.353535,346.156408 376.077359,339.257938 399.759733,327.57977 C421.927433,316.648225 442.09187,303.368751 461.167811,287.138645 L464.820819,284.030584 L453.249777,284.072503 L441.678735,284.114422 L437.253952,287.572274" id="Shape"></path>
            </g>
        </g>
    </g>
</svg>