<?xml version="1.0" encoding="UTF-8"?>
<svg width="800px" height="400px" viewBox="0 0 800 400" version="1.1" xmlns="http://www.w3.org/2000/svg" xmlns:xlink="http://www.w3.org/1999/xlink">
    <title>agetec</title>
    <g id="Page-1" stroke="none" stroke-width="1" fill="none" fill-rule="evenodd">
        <g id="Manufacturer" fill="#000000" fill-rule="nonzero">
            <g id="AF150_INCREMENTAL" transform="translate(-0.000000, 0.000000)">
                <g id="agetec" transform="translate(0.000000, 0.000000)">
                    <line x1="0" y1="0" x2="800" y2="400" id="Path"></line>
                    <path d="M252.45101,157.627474 C259.313762,157.627474 262.745106,159.37035 262.745106,162.856242 L262.091314,166.614405 L240.359298,242.758144 C238.289522,250.38344 235.838594,255.884544 233.006338,259.261472 C230.174098,262.638336 225.92573,265.143824 220.26125,266.777792 C212.418098,269.17432 199.346178,270.372576 181.04557,270.372576 L150.653362,269.392176 C146.078243,268.84736 142.755798,268.03048 140.686098,266.941168 C138.616328,265.742912 137.581514,264.054448 137.581514,261.875856 C137.581514,260.350768 137.853923,258.88016 138.398469,257.464048 L142.973658,241.287616 L147.548846,241.287616 C148.420285,244.119856 150.272125,245.917216 153.104368,246.67976 L171.078226,247.986912 L194.444242,245.69936 C198.039026,244.283232 200.59893,240.688448 202.124018,234.915056 L205.065154,224.947728 C199.836386,231.483648 195.479122,235.677536 191.993234,237.52944 C188.398514,239.38128 182.95189,240.3072 175.653426,240.3072 C164.869058,240.3072 156.971496,238.618752 151.960589,235.241824 C146.94968,231.86496 144.444261,226.527232 144.444261,219.228762 C144.444261,210.514173 146.895198,200.328981 151.797211,188.673184 C154.411595,182.137259 156.917014,177.071939 159.313538,173.477152 C161.710274,169.664507 164.488034,166.50544 167.647106,164.000021 C170.588242,161.603498 173.856194,159.915034 177.450978,158.93463 L191.503298,157.627474 L252.45101,157.627474 Z M328.758194,156.483694 C344.989122,156.483694 355.88237,157.899816 361.43789,160.732059 C367.86493,164.21788 371.078466,169.773472 371.078466,177.398693 L369.607874,188.673184 C368.736354,192.70369 367.538098,196.080616 366.013074,198.803963 C364.705922,201.527242 362.962978,203.3246 360.784322,204.196107 L350.000018,205.503266 L305.718946,205.503266 C304.52069,210.514173 303.921586,213.782134 303.921586,215.307221 C303.921586,218.793043 305.50109,221.026189 308.660162,222.006523 L329.73861,223.640504 L347.222258,222.006523 C350.708082,220.917226 352.94117,219.010902 353.92157,216.287624 L358.66013,216.287624 L353.267986,235.405264 C351.742898,240.851888 348.42053,244.337712 343.300658,245.862736 L309.967314,247.986912 C294.825698,247.986912 283.93245,247.115472 277.287618,245.372528 C267.047954,242.649248 261.928146,236.44008 261.928146,226.745088 C261.928146,222.387829 262.854066,216.505483 264.705906,209.098051 C266.448786,201.799584 268.627442,194.773458 271.241826,188.019605 C276.470594,175.274512 282.897634,166.832264 290.522914,162.692795 C298.03925,158.553394 310.784338,156.483694 328.758194,156.483694 Z M528.921618,156.483694 C545.15253,156.483694 556.045778,157.899816 561.601298,160.732059 C568.028338,164.21788 571.241874,169.773472 571.241874,177.398693 L569.771282,188.673184 C568.899778,192.70369 567.701506,196.080616 566.176498,198.803963 C564.76037,201.527242 563.017426,203.3246 560.94773,204.196107 L549.999986,205.503266 L505.882354,205.503266 C504.684098,209.860594 504.08501,213.128557 504.08501,215.307221 C504.08501,218.793043 505.664498,221.026189 508.82357,222.006523 L529.738562,223.640504 L547.385602,222.006523 C550.87149,220.917226 553.104578,219.010902 554.084978,216.287624 L558.823538,216.287624 L553.431394,235.405264 C551.906306,240.851888 548.583938,244.337712 543.464066,245.862736 L510.130722,247.986912 L477.450962,245.372528 C467.102402,242.540288 461.928114,236.331184 461.928114,226.745088 C461.928114,222.387829 462.854034,216.505483 464.705874,209.098051 C466.448818,201.908478 468.68197,194.882354 471.40525,188.019605 C476.633938,175.274512 483.060962,166.832264 490.686258,162.692795 C498.202658,158.553394 510.947746,156.483694 528.921618,156.483694 Z M668.954274,157.627542 L665.196098,170.862838 C664.106802,174.34859 662.908546,176.581738 661.601314,177.56207 L653.43141,178.70592 L638.071938,178.869366 C632.516338,178.869366 628.540322,179.414187 626.143794,180.503347 C623.856242,181.592645 621.841026,183.880274 620.098082,187.366096 C618.79085,190.307234 617.429138,194.555598 616.01309,200.11119 C614.971116,203.810149 614.178319,206.861279 613.63469,209.264587 L613.492606,209.903973 C612.99428,212.189496 612.745122,213.827199 612.745122,214.817088 C612.745122,217.976086 614.21573,220.209234 617.156866,221.51639 C619.989106,222.823618 625.163394,223.477195 632.679794,223.477195 L646.405218,222.170038 C649.019602,221.189635 651.089378,219.392277 652.614386,216.777824 L657.679778,216.777824 L651.960818,236.54912 C650.762546,241.12424 647.766866,244.1744 642.973874,245.699424 L617.647074,247.986976 C597.494546,247.986976 584.477106,246.135136 578.59477,242.431456 C573.039234,238.618816 570.261474,233.281152 570.261474,226.4184 C570.261474,219.22883 572.22221,209.697216 576.143826,197.82363 C580.174338,186.058869 584.368146,177.180902 588.725538,171.189594 C592.538194,166.178754 597.004338,162.63845 602.12421,160.568682 C607.352914,158.607946 614.705858,157.627542 624.182994,157.627542 L668.954274,157.627542 Z M109.967557,157.627336 L122.876027,157.954229 L129.738776,159.751656 C136.056634,162.583899 139.215701,166.832264 139.215701,172.49675 L137.418274,182.137259 L122.875821,233.117632 C122.222035,235.296304 121.895419,236.984768 121.895419,238.183024 C121.895419,240.906304 123.965118,242.540288 128.104589,243.084976 L127.124186,246.843136 L90.8497087,246.843136 C83.9869599,246.843136 80.5555519,245.100256 80.5555519,241.614368 L81.2093375,237.856208 L82.6799407,232.464064 L75.9805695,239.817008 C73.0394319,242.97608 69.9893295,245.045776 66.8302623,246.026176 L52.2878095,247.333328 C34.2049839,247.333328 25.1636399,241.723328 25.1636399,230.503248 C25.1636399,226.799568 25.8174255,222.605688 27.1243759,217.921605 C28.3226383,213.237451 29.9566191,208.880192 32.0263199,204.849686 C36.2746847,196.788677 42.9195727,191.559909 51.9609855,189.163386 L68.4642431,187.856227 L88.5622863,187.856227 C94.3357375,187.856227 97.2224623,185.786528 97.2224623,181.647058 C97.2224623,180.122042 96.7866047,179.141638 95.9152367,178.70592 L90.6864687,178.215581 L63.7256767,178.215581 L56.3727279,176.908354 C54.8477103,176.145811 54.0851679,174.893136 54.0851679,173.15019 C54.0851679,171.843034 54.4665423,170.045606 55.2289471,167.758046 L58.1701551,157.627336 L109.967557,157.627336 Z M444.934722,140.634014 L440.196082,157.627474 L467.156882,157.627474 L463.562098,170.372568 C462.690658,173.313706 461.546802,175.274512 460.130754,176.254914 L452.124226,177.725517 L442.64709,177.725517 C439.270162,177.725517 436.873634,178.161374 435.457522,179.032675 C434.15029,180.013077 433.115474,181.864918 432.35293,184.588266 L424.01965,213.67324 L422.712434,219.555586 C422.712434,221.516322 423.638354,222.823547 425.490194,223.477126 L435.457522,224.457536 L444.607826,223.150302 C446.132914,222.387829 447.712418,220.644883 449.346402,217.921605 L454.575154,217.921605 L448.039234,239.980384 C447.16773,242.594768 446.078434,244.392128 444.771282,245.372528 L437.581698,246.843136 L392.483666,246.843136 C387.254898,246.843136 383.496738,246.135072 381.209186,244.718944 C378.812658,243.302832 377.614402,240.960784 377.614402,237.692832 L377.941282,234.424864 L394.11773,177.725517 L384.313842,177.725517 L389.052402,160.568613 C397.98485,160.132755 405.719042,158.172088 412.254962,154.686267 C418.790962,151.30941 423.747314,146.625256 427.124242,140.634014 L444.934722,140.634014 Z M91.0130863,203.542461 L82.6797343,203.542461 C77.1242111,203.542461 73.2026015,204.904168 70.9150415,207.627448 C68.4095535,210.89541 67.1568783,214.490195 67.1568783,218.411806 C67.1568783,220.590402 67.9738351,222.115486 69.6078159,222.986925 C71.2418655,223.858432 74.0740399,224.294144 78.1045455,224.294144 L85.2941167,224.294144 L91.0130863,203.542461 Z M218.79085,177.235317 L208.823522,177.235317 C204.79301,177.235317 201.634018,177.780138 199.346386,178.869298 C197.058834,180.06756 195.152498,182.028296 193.62749,184.751643 C191.993442,187.366027 190.087186,192.104592 187.908514,198.967341 C186.383426,204.413968 185.620898,208.335509 185.620898,210.732032 C185.620898,215.851835 189.052306,218.411806 195.915042,218.411806 C200.272306,218.411806 203.485858,217.376922 205.555554,215.307221 C207.62525,213.237451 209.531586,209.206947 211.27453,203.215706 L218.79085,177.235317 Z M380.718978,64 C496.514194,64 595.315954,71.7341904 677.124178,87.202632 C759.041362,102.671006 800,121.352928 800,143.248398 C800,156.211352 784.095906,168.466245 752.287586,180.013077 C721.459666,191.12419 679.084978,200.328981 625.163394,207.627448 C667.756002,200.764699 700.817074,192.649206 724.34645,183.28104 C748.747282,173.695013 760.947762,163.618715 760.947762,153.052285 C760.947762,132.573005 720.043602,115.089346 638.235314,100.601306 C556.427026,86.1132656 457.625266,78.86928 341.83005,78.86928 C272.331122,78.86928 207.189538,81.7015232 146.405205,87.3660096 C87.3638175,92.8126368 38.5621055,100.383446 0,110.078437 C33.6601631,96.2440448 84.3137151,85.1329328 151.960795,76.7450992 C221.241858,68.2483696 297.494562,64 380.718978,64 Z M325.000034,176.745115 C320.860562,176.745115 317.59261,177.779931 315.196082,179.849699 C312.799554,181.9194 311.002194,185.459704 309.803938,190.470611 L333.169938,190.470611 L334.477106,183.28104 C334.477106,178.923779 331.318098,176.745115 325.000034,176.745115 Z M525.163442,176.745115 C521.023986,176.745115 517.756018,177.779931 515.35949,179.849699 C512.962962,181.9194 511.111122,185.459704 509.80397,190.470611 L533.333362,190.470611 L534.640514,183.28104 C534.640514,178.923779 531.481506,176.745115 525.163442,176.745115 Z" id="Combined-Shape"></path>
                </g>
            </g>
        </g>
    </g>
</svg>