<?xml version="1.0" encoding="UTF-8"?>
<svg width="160px" height="30px" viewBox="0 0 160 30" version="1.1" xmlns="http://www.w3.org/2000/svg" xmlns:xlink="http://www.w3.org/1999/xlink">
    <title>casio pv-2000</title>
    <g id="Page-1" stroke="none" stroke-width="1" fill="none" fill-rule="evenodd">
        <g id="System" transform="translate(-20.000000, 0.000000)" fill="#000000">
            <g id="casio-pv-2000" transform="translate(20.319316, 0.000000)">
                <line x1="79.6806838" y1="30" x2="79.6806838" y2="0" id="Path" fill-rule="nonzero"></line>
                <g id="Group-2" transform="translate(0.000000, 5.998916)">
                    <path d="M102.168688,0.0685093149 C99.9354691,0.443501683 98.4788921,1.54146308 98.0404248,3.18045586 C97.9612903,3.47631372 97.8894477,4.33699113 97.8809604,5.09307234 L97.8653009,6.46776543 L100.076764,6.46776543 L102.288226,6.46776543 L102.353853,5.51145719 C102.420436,4.53996756 102.56436,4.16354073 102.964934,3.91334659 C103.293426,3.70821847 104.462035,3.61581518 105.498792,3.71300001 C106.266588,3.78484267 106.464664,3.8507084 106.769009,4.13497102 C107.118659,4.46155028 107.129537,4.50434508 107.129537,5.55377383 C107.129537,6.14895617 107.068214,6.77043698 106.993263,6.93504154 C106.798057,7.36346763 106.008863,7.69016643 104.212916,8.08631712 C103.351522,8.27626384 102.485465,8.48689073 102.288226,8.55443 C102.090988,8.62184973 101.462096,8.8128723 100.890702,8.97867224 C99.7011736,9.32401906 99.0046226,9.79009978 98.4528327,10.6096559 C97.9181369,11.4039895 97.8055316,12.1942587 97.8055316,15.1542718 L97.8055316,17.7641565 L104.798536,17.7641565 L111.79154,17.7641565 L111.79154,15.9113093 L111.79154,14.0584621 L107.069768,14.0584621 L102.347996,14.0584621 L102.347996,13.5859263 C102.347996,12.5227506 102.66549,12.2925194 104.809533,11.8008574 C109.730337,10.6724137 110.81742,10.066951 111.443324,8.10639959 C111.827879,6.90169029 111.823456,4.40943148 111.434717,3.24022512 C110.858541,1.50727506 110.216859,0.891651631 108.384691,0.313921916 C107.663874,0.0866791714 107.216681,0.0443625319 105.157151,0.00909866562 C103.842227,-0.013374578 102.497419,0.0134020527 102.168688,0.0685093149 M118.007543,0.0263122139 C117.371479,0.101023795 116.205619,0.432743215 115.730095,0.674330584 C115.059723,1.01477632 114.075323,1.96785701 113.772173,2.56985305 C113.314102,3.4796608 113.213331,4.28714357 113.143999,7.60338146 C113.033904,12.8741939 113.295812,14.8838756 114.243753,16.0407695 C115.124632,17.11566 116.07066,17.5377505 118.23897,17.8232085 C119.932831,18.0462674 120.640379,18.0469846 122.609777,17.8281096 C124.638465,17.6025404 125.343025,17.3285581 126.309135,16.3894634 C127.162999,15.5595074 127.524484,14.8624782 127.688251,13.7300897 C127.870309,12.4706318 127.833849,5.0960608 127.640197,4.01017279 C127.294611,2.07317046 126.241716,0.947237047 124.104008,0.228930022 C123.706662,0.0954054841 122.894637,0.0388637595 120.996006,0.0126848215 C119.582463,-0.00679995884 118.237655,-0.000703493823 118.007543,0.0263122139 M133.786629,0.0263122139 C133.187741,0.0967204079 131.995105,0.427244443 131.575166,0.639305794 C130.959423,0.95022551 129.973828,1.86158726 129.643304,2.42557004 C129.107174,3.34039841 129.005327,4.06910529 128.928225,7.54361219 C128.844906,11.301545 128.990743,13.7596157 129.360476,14.8294856 C129.495794,15.2207352 129.647129,15.5703854 129.696977,15.606486 C129.746824,15.6427062 129.880708,15.8186669 129.994628,15.9976161 C130.292876,16.4664462 131.358204,17.2157137 132.05332,17.4455863 C132.790993,17.6895644 135.113626,18.0035922 136.169749,18.0021626 C137.4622,18.0004842 139.895407,17.6676889 140.636306,17.3914354 C141.518859,17.0622262 142.754051,15.9065277 143.109439,15.0771694 C143.507383,14.1490723 143.584126,13.1484152 143.582248,8.91830529 C143.580182,4.37153777 143.482638,3.47165172 142.877415,2.41373573 C142.460225,1.68443116 141.622619,0.922373033 140.899172,0.613724549 C139.668642,0.0887113264 139.395257,0.0487854575 136.775092,0.0126848215 C135.361549,-0.00679995884 134.016741,-0.000703493823 133.786629,0.0263122139 M149.565715,0.0263122139 C148.966827,0.0967204079 147.774191,0.427244443 147.354252,0.639305794 C146.738509,0.95022551 145.752914,1.86158726 145.42239,2.42557004 C144.88626,3.34039841 144.784413,4.06910529 144.707311,7.54361219 C144.628415,11.0988076 144.773535,13.7657122 145.097006,14.7075563 C145.531648,15.9728716 146.593748,17.0360473 147.832406,17.4455863 C148.570079,17.6895644 150.892712,18.0035922 151.948835,18.0021626 C153.241286,18.0004842 155.674492,17.6676889 156.415392,17.3914354 C157.297945,17.0622262 158.533137,15.9065277 158.888525,15.0771694 C159.286469,14.1490723 159.363212,13.1484152 159.361334,8.91830529 C159.359387,4.47159152 159.258258,3.49101696 158.69547,2.45688914 C158.383953,1.88453866 157.477373,0.988119224 156.917335,0.698716444 C156.785842,0.63069902 156.328607,0.455216459 155.901257,0.308662221 C155.207455,0.070780547 154.84884,0.038744221 152.554178,0.00969635826 C151.140635,-0.00811488267 149.795827,-0.000703493823 149.565715,0.0263122139 M58.4773553,8.91830529 L58.4773553,17.7641565 L60.8681259,17.7641565 L63.2588965,17.7641565 L63.2588965,15.570744 L63.2588965,13.3773315 L66.1691816,13.2928178 C70.101521,13.178778 71.0034392,12.9717373 72.0268086,11.9483679 C72.6354988,11.3396777 72.8925066,10.8110784 73.1805945,9.57600628 C73.6762012,7.4502526 73.3944489,3.69961169 72.6411171,2.39652218 C72.268635,1.75220951 71.3768776,0.943889968 70.7159491,0.651618263 C69.465337,0.0983939473 69.1499943,0.0724540864 63.671424,0.0724540864 L58.4773553,0.0724540864 L58.4773553,8.91830529 M72.7024404,0.216258938 C72.7024404,0.295393444 72.8609485,0.873720851 73.0546009,1.50129813 C73.2482533,2.12899495 73.5394491,3.12666352 73.7017825,3.71837924 C73.8641158,4.31009497 74.1881848,5.46663024 74.4221217,6.28845763 C74.655939,7.11028502 75.0604574,8.53578199 75.3210514,9.45622867 C75.5817649,10.3766753 76.0395975,11.9904455 76.3385634,13.0423846 C76.6376488,14.0943236 77.0534038,15.5870012 77.2625962,16.3595788 L77.6429678,17.7641565 L81.3273844,17.7641565 L85.0116814,17.7641565 L85.1723412,17.3756563 C85.2606801,17.1620409 85.5070491,16.341648 85.7198276,15.5526937 C85.9327258,14.7637394 86.1388102,14.0375428 86.1780188,13.9389235 C86.2564361,13.7414459 86.9129417,11.5396657 87.6394969,9.03784382 C87.897222,8.15027023 88.3289951,6.67098093 88.5989131,5.75053425 C88.8689507,4.83008757 89.2422695,3.53907145 89.4286301,2.88160954 C89.6149906,2.22414762 89.8815615,1.3411165 90.021063,0.91938457 C90.1604449,0.497652637 90.2746042,0.134494583 90.2746042,0.112499494 C90.2746042,0.0905044044 89.1514202,0.0724540864 87.7786397,0.0724540864 L85.2826752,0.0724540864 L84.7983051,1.77587814 C84.5318537,2.71282113 84.0926692,4.23239492 83.8223926,5.1528416 C83.5521159,6.07328828 83.1424574,7.52149757 82.9121067,8.3710579 C82.6817559,9.22061823 82.4729221,9.94872741 82.447819,9.98925097 C82.4228354,10.029655 82.2077856,10.8138278 81.9697844,11.7318837 C81.4582791,13.7054648 81.4428586,13.7537584 81.3555955,13.6664952 C81.318419,13.6293187 81.1354055,13.0164447 80.9490449,12.3045928 C80.4612082,10.4419434 79.7351311,7.80934635 79.15776,5.81030351 C78.8824628,4.85698374 78.4510483,3.35079826 78.199061,2.46322468 C77.9470738,1.5756511 77.677873,0.674689199 77.6007707,0.460954308 L77.460552,0.0724540864 L75.0814962,0.0724540864 C73.3073053,0.0724540864 72.7024404,0.109032876 72.7024404,0.216258938 M118.940183,4.00288094 C118.413735,4.11512762 118.180157,4.2925228 117.91,4.7854997 C117.736908,5.10132049 117.703318,5.64510127 117.670684,8.65878714 C117.637452,11.7207666 117.658849,12.2479315 117.839591,12.8227923 C118.144295,13.791413 118.323723,13.8718624 120.273157,13.9147768 C122.180275,13.9568543 122.57511,13.8290676 122.968392,13.0423846 C123.188582,12.6018851 123.210458,12.2814023 123.245243,8.97807455 C123.288875,4.84156327 123.247754,4.57212342 122.520123,4.21661584 C122.018419,3.97144231 119.729376,3.83480977 118.940183,4.00288094 M134.656989,4.02810357 C133.561538,4.29156649 133.389283,5.07442432 133.458615,9.47559391 C133.528545,13.9202755 133.492325,13.8584741 136.052243,13.9147768 C137.959361,13.9568543 138.354196,13.8290676 138.747478,13.0423846 C138.967668,12.6018851 138.989544,12.2814023 139.024329,8.97807455 C139.067961,4.84156327 139.02684,4.57212342 138.299209,4.21661584 C137.763915,3.95506553 135.45706,3.83564654 134.656989,4.02810357 M150.413721,4.04890328 C149.581733,4.28212295 149.438646,4.57559004 149.314445,6.30411718 C149.170162,8.31164725 149.335484,12.8022317 149.571333,13.2814616 C149.819854,13.7863924 150.338053,13.9243398 152.016255,13.9319903 C154.479107,13.9432269 154.659491,13.7284162 154.84621,10.5630359 C154.985711,8.19975918 154.910761,5.61210863 154.682562,4.91340593 C154.449581,4.19999998 153.940467,3.9949914 152.271589,3.9428726 C151.45012,3.91717182 150.738747,3.95769538 150.413721,4.04890328 M63.2588965,6.59866012 L63.2588965,9.18021421 L65.4459735,9.13885387 C68.0851451,9.08912585 68.1851989,9.05039536 68.4051498,7.99510922 C68.6031056,7.04501699 68.4875118,5.20687302 68.1987067,4.71234212 C67.8659115,4.14250195 67.4034169,4.03659081 65.2013976,4.0263105 L63.2588965,4.01722557 L63.2588965,6.59866012 M89.8492861,8.59435587 C89.8167717,8.67922823 89.8049374,9.6070863 89.8232267,10.6563955 L89.8562194,12.5642304 L93.0239904,12.5642304 L96.1917615,12.5642304 L96.224515,10.5021908 L96.257149,8.44015117 L93.0828034,8.44015117 C90.6009444,8.44015117 89.8955476,8.47374149 89.8492861,8.59435587" id="Shape"></path>
                    <path d="M47.1715814,7.72014305 C46.7060111,7.60840618 46.5942743,7.36630963 46.5384058,6.91936215 C46.426669,6.17444969 46.426669,4.31216855 46.5384058,3.51138766 C46.5942743,3.1016858 46.8363708,2.87821207 47.1715814,2.7664752 C47.5812833,2.65473833 51.2685999,2.5988699 51.6783018,2.7664752 C52.0321352,2.87821207 52.1438721,3.12030862 52.1997405,3.45551922 C52.3673458,4.20043168 52.3673458,6.11858126 52.1997405,6.86349372 C52.1438721,7.21732714 52.0321352,7.38493244 51.6783018,7.55253774 C51.3430912,7.83187991 47.6930201,7.83187991 47.1715814,7.72014305 L47.1715814,7.72014305 Z M52.8887845,0.196527218 C51.7900387,-0.0269465199 47.5626605,-0.101437766 45.8866074,0.196527218 C44.6202562,0.420000955 43.6332472,1.35114153 43.3352823,2.50575584 C43.1118085,3.82797545 43.1118085,6.78900247 43.3352823,7.99948522 C43.558756,9.09823109 44.4898966,10.0852401 45.8866074,10.3087138 C47.3391867,10.6066788 51.6038105,10.5321876 52.944653,10.2528454 C54.5089691,9.89901199 55.1421447,8.74439768 55.30975,7.99948522 C55.5332238,6.84487091 55.5332238,3.9024667 55.30975,2.50575584 C55.0304079,1.29527309 53.9875304,0.438623767 52.8887845,0.196527218 L52.8887845,0.196527218 Z M38.3816144,0.271018463 L41.5661152,0.271018463 L41.5661152,10.2714682 L38.3816144,10.2714682 L38.3816144,0.271018463 Z M33.2975869,6.45379187 C33.8190256,6.56552874 33.9307625,6.97523059 33.9307625,7.32906401 C33.9307625,7.68289742 33.874894,8.07397646 33.2975869,8.1298449 C32.6644113,8.24158177 30.522788,8.24158177 29.7220071,8.1298449 C29.3681737,8.07397646 28.9770946,8.07397646 28.8467349,7.44080087 L28.8467349,7.27319557 L25.6622342,7.27319557 C25.6622342,7.32906401 25.6622342,7.49666931 25.7181026,7.73876586 C25.8298395,9.06098547 26.3512782,9.99212604 27.8597259,10.290091 C29.0702087,10.5135648 33.6327975,10.588056 35.0295083,10.290091 C36.6496929,9.93625761 37.0593948,8.50230113 37.0593948,7.21732714 C37.0593948,5.76474784 36.5379561,4.79636165 35.2716049,4.3866598 C34.9177715,4.27492293 34.1169906,4.21905449 33.7631572,4.21905449 C33.4651922,4.21905449 30.0572177,4.10731762 29.3123052,3.99558075 C28.8467349,3.93971232 28.7349981,3.64174734 28.7349981,3.2506683 C28.7349981,2.84096644 28.7908665,2.56162427 29.3681737,2.4498874 C30.0572177,2.33815053 32.7761482,2.33815053 33.0741131,2.4498874 C33.4279466,2.56162427 33.5396834,2.80372082 33.5396834,3.08306299 L33.5396834,3.30653673 L36.7241842,3.30653673 C36.7241842,3.08306299 36.6683158,2.89683488 36.6683158,2.72922958 C36.5007105,1.16491341 35.6254383,0.308264086 34.0611222,0.177904406 C32.496806,0.0102991031 28.9212262,0.0661675374 27.8224803,0.233772841 C26.7796029,0.457246578 25.7367254,1.10904498 25.7367254,3.23204548 C25.7367254,4.96396695 26.5375063,5.83923909 27.9342172,6.11858126 C28.343919,6.17444969 29.4985333,6.23031813 29.6661386,6.23031813 C30.0572177,6.26756375 33.0741131,6.39792343 33.2975869,6.45379187 L33.2975869,6.45379187 Z M20.745812,6.39792343 L17.2261006,6.39792343 L18.7345483,2.41264178 L19.255987,2.41264178 L20.745812,6.39792343 Z M21.4534788,8.4650555 L22.1425228,10.2528454 L25.5504973,10.2528454 L21.2672507,0.196527218 L16.6487934,0.196527218 L12.4214152,10.2528454 L15.8293897,10.2528454 L16.5184338,8.40918707 L21.4534788,8.4650555 C21.4534788,8.4650555 21.4534788,8.4650555 21.4534788,8.4650555 Z M3.29623763,6.97523059 C3.35210606,7.55253774 3.65007105,7.66427461 3.92941322,7.72014305 C4.3949835,7.83187991 7.69122113,7.83187991 8.26852829,7.72014305 C8.67823014,7.66427461 8.95757231,7.36630963 9.01344074,7.03109902 C9.01344074,6.86349372 9.06930918,6.56552874 9.06930918,6.45379187 L12.3655468,6.45379187 C12.3655468,6.6772656 12.3655468,7.25457276 12.3096784,7.77601148 C12.1420731,8.98649422 11.4344062,9.97350323 9.94458132,10.3273366 C8.90170388,10.5508104 3.87354478,10.5508104 2.71893047,10.3273366 C1.50844773,10.0293717 0.465570286,9.28445921 0.167605303,8.01810803 C-0.0558684344,6.86349372 -0.0558684344,3.84659826 0.167605303,2.58024708 C0.335210606,1.64910651 1.21048274,0.550360635 2.64443923,0.271018463 C3.96665884,0.047544726 8.65960733,-0.0269465199 9.92595851,0.271018463 C11.6020115,0.680720315 12.1234503,2.17054523 12.1793187,2.69198395 C12.2351871,3.26929111 12.2351871,3.67899296 12.2351871,3.9024667 L8.9389495,3.9024667 C8.9389495,3.67899296 8.99481793,3.02719456 8.41751078,2.85958926 C8.06367736,2.74785239 4.84193098,2.74785239 4.02252727,2.80372082 C3.61282542,2.85958926 3.38935168,3.02719456 3.33348325,3.43689641 C3.18450076,4.25630011 3.18450076,6.21169532 3.29623763,6.97523059 L3.29623763,6.97523059 Z" id="path5" fill-rule="nonzero"></path>
                </g>
            </g>
        </g>
    </g>
</svg>