<?xml version="1.0" encoding="UTF-8"?>
<svg width="124px" height="30px" viewBox="0 0 124 30" version="1.1" xmlns="http://www.w3.org/2000/svg" xmlns:xlink="http://www.w3.org/1999/xlink">
    <title>casioloopy</title>
    <g id="Page-1" stroke="none" stroke-width="1" fill="none" fill-rule="evenodd">
        <g id="System" transform="translate(-37.000000, 0.000000)" fill="#000000">
            <g id="casioloopy" transform="translate(37.781269, 0.000000)">
                <line x1="81.625188" y1="30" x2="81.625188" y2="0" id="Path" fill-rule="nonzero"></line>
                <path d="M14.5264123,6.2496039 L15.3436177,8.49503779 L17.5889986,7.67771136 C21.4362325,6.27743276 25.6861147,8.22724264 27.1431406,12.0370528 L27.1864348,12.1530693 C28.6008576,16.0391641 26.5971716,20.3360827 22.7110768,21.7505055 L21.3344696,22.2524192 C20.9284685,21.9120682 20.6073888,21.4886713 20.3878716,21.0179151 C20.0401642,20.2722542 19.9472709,19.4077717 20.175324,18.5662885 L21.4637535,18.097855 C23.7268323,17.2741617 24.8936847,14.7718385 24.0699914,12.5087598 L24.0447789,12.4411972 C23.1962756,10.2225431 20.7213442,9.08706555 18.4808962,9.90252191 L13.9118135,11.5655921 L12.2752048,7.06897643 L12.2647126,7.07284194 C12.2361298,6.97264004 12.2037796,6.87273736 12.1675861,6.7732966 C11.3438928,4.51021787 8.84156968,3.34336543 6.57849095,4.16705872 C4.31541222,4.99075202 3.14855977,7.49307516 3.97225307,9.75615389 C4.00844537,9.85559143 4.0478785,9.95291254 4.09038977,10.0480414 L4.07987172,10.0518337 L8.69934098,22.7437212 L16.0358454,20.0733817 C16.0365892,21.2896113 16.3079707,22.478908 16.8119682,23.5597342 C16.8568675,23.656021 16.9036129,23.751447 16.9521776,23.8459545 L6.39293577,27.6898231 L0.453618158,11.3716821 C-0.960804674,7.48558728 1.04288134,3.18866875 4.92897614,1.77424592 C8.81507093,0.359823089 13.1119895,2.36350911 14.5264123,6.2496039 Z M23.2007853,1.18982311 L39.5189264,7.12914073 C43.4050212,8.54356356 45.4087072,12.8404821 43.9942843,16.7265769 C42.5798615,20.6126717 38.282943,22.6163577 34.3968482,21.2019349 L32.1514566,20.3846134 L31.3342619,22.6300423 C29.9339832,26.4772762 25.7085706,28.4795612 21.8535285,27.1468091 L21.7368257,27.1054003 C17.8507309,25.6909775 15.8470449,21.3940589 17.2614677,17.5079641 L19.8433159,10.4126864 C20.4069576,10.3922952 20.9606729,10.5063685 21.4618816,10.7350588 C21.6729432,10.8313615 21.8746995,10.9479848 22.0639674,11.0834487 L19.5428077,18.0097729 C18.7191144,20.2728516 19.8859669,22.7751748 22.1490456,23.5988681 L22.2170078,23.6229826 C24.4620029,24.3991147 26.9226844,23.2330781 27.7381408,20.9926302 L29.7970594,15.3356328 L35.4540598,17.3946381 L35.4578429,17.3841159 C35.5529746,17.4266287 35.6502988,17.4660632 35.7497396,17.5022567 C38.0128183,18.32595 40.5151415,17.1590976 41.3388348,14.8960188 C42.1625281,12.6329401 40.9956756,10.1306169 38.7325969,9.30692365 C38.6331594,9.27073135 38.5332599,9.23838207 38.4330613,9.20979996 L38.4369171,9.199305 L24.5846285,4.15748427 L23.4917771,7.16051422 C22.7837762,6.84719129 22.0316321,6.63263604 21.2576537,6.52725319 L23.2007853,1.18982311 Z" id="Combined-Shape"></path>
                <path d="M66.969592,10.3155467 C62.7530704,10.7607442 59.4697254,14.1655635 59.2505096,18.3201509 C59.1361135,20.4884722 59.6252375,21.8772554 60.980087,23.2305436 C62.3394125,24.5884118 64.0141339,25.2233674 66.2469917,25.2276861 C67.2716643,25.2295087 67.6831363,25.1804818 68.5369955,24.9542919 C71.5252423,24.1630956 73.706575,22.1338399 74.6785775,19.2412529 C74.9172583,18.5310394 74.9764862,18.1435083 75.0181226,17.0216146 C75.0762054,15.4537948 74.9824194,14.8879556 74.4863213,13.8143602 C74.0701651,12.9134519 73.1395908,11.8767047 72.2859399,11.362703 C71.4421776,10.8546344 70.1786159,10.4352514 69.1290655,10.3150262 C68.1403044,10.2017751 68.0471428,10.2017751 66.969592,10.3155467 M77.7252194,13.8330966 C77.1950835,14.5508046 76.5412874,15.9611347 76.3241534,16.8557975 C76.1091012,17.7415086 76.0851603,19.7418269 76.280227,20.5147032 C76.8296197,22.69156 78.5789744,24.3448386 81.0279253,25.0018615 C82.0837211,25.2850934 84.0026402,25.3085139 85.0657225,25.0512007 C87.6467649,24.4262378 89.6392764,22.9949855 90.7989552,20.9329411 C91.4190257,19.8303043 91.6522939,19.1416377 91.8751529,17.7561854 C92.0252522,16.8233211 92.0325386,16.5342602 91.9251166,15.7912581 C91.7029862,14.2547696 91.2509186,13.2584098 90.3523003,12.3244005 C88.8724374,10.7864547 86.3345928,10.0097271 83.8042426,10.3202308 C81.3080344,10.6266749 79.1896768,11.8507861 77.7252194,13.8330966 Z M48.1893749,10.6551959 C47.9427831,10.7416956 47.7938288,10.8776385 47.7223182,11.0816571 C47.6252012,11.3583311 47.6509117,11.4101685 48.0583242,11.7611636 C48.3703893,12.0299268 48.4994622,12.2216626 48.4994622,12.4166252 C48.4994622,12.5682859 48.3334369,13.6911164 48.1304593,14.9120007 C47.9274817,16.132885 47.6029257,18.1154037 47.4091081,19.3176557 C46.8138112,23.0108073 46.7580184,23.1910931 46.0458272,23.7188349 C45.6886907,23.9835385 45.5849119,24.1270801 45.5849119,24.3566009 C45.5849119,24.952106 45.4508426,24.9385997 51.3518701,24.9385997 C55.4858474,24.9385997 56.8285183,24.9077632 57.0008931,24.8090848 C57.458998,24.5467753 58.3352367,22.6132835 58.2664325,22.0165293 C58.2439488,21.8217749 58.1338205,21.6634524 57.949267,21.5604022 C57.6908088,21.4159238 57.6374101,21.4194629 57.3247205,21.6016222 C57.136732,21.7112302 56.7066276,22.0452584 56.3689562,22.3441039 C55.3193017,23.2728046 55.0438767,23.3665906 53.233941,23.411558 C51.4281689,23.4564212 50.8257938,23.3499361 50.7301341,22.9690668 C50.6964086,22.834477 50.8164256,21.7939826 50.9968154,20.6567875 C51.1772053,19.5194883 51.4859394,17.535096 51.6828798,16.2469688 C51.879716,14.9588417 52.116315,13.5608984 52.2085397,13.1403705 C52.3710259,12.3989297 52.3944464,12.361561 52.9782933,11.9081402 C53.6579039,11.3802944 53.7684487,11.1451526 53.4955219,10.8077934 C53.310552,10.5791053 53.2543428,10.5734844 50.9289481,10.5511048 C49.2712976,10.5351789 48.4418998,10.5666144 48.1893749,10.6551959 M94.9954912,10.6278199 C94.2691437,10.8457867 94.202109,11.2870288 94.8199937,11.7835432 C95.3372222,12.199283 95.3381591,12.2264508 94.9215866,14.7896937 C94.7494199,15.8488204 94.4247598,17.8732879 94.2001313,19.2884061 C93.7052823,22.4052054 93.5423797,23.0315214 93.1280972,23.4088516 C92.4280847,24.0464095 92.3218077,24.178397 92.3218077,24.4101037 C92.3218077,24.8980827 92.5037589,24.9364923 94.9658253,24.9682401 C97.00549,24.9945752 97.3074582,24.9768797 97.6304529,24.8121035 C98.1780761,24.5328271 98.1803661,24.1584115 97.6375311,23.671057 C97.1319607,23.2172199 97.1224884,23.1148984 97.4173784,21.2953863 C97.5287559,20.6083851 97.633992,19.9057703 97.651167,19.7340201 L97.6824984,19.4217468 L98.8275003,19.3550244 C102.555731,19.1377863 105.360985,17.7729441 106.449049,15.6468837 C107.283339,14.0170256 107.035811,12.4693994 105.788591,11.51707 C105.091389,10.9847483 104.343287,10.7448183 103.013627,10.6270913 C101.611,10.5029106 95.4096696,10.5034311 94.9954912,10.6278199 M107.753311,10.6771591 C107.439164,10.8137266 107.358493,10.9701755 107.410435,11.3424052 C107.421468,11.4216185 107.654112,11.7026644 107.927351,11.9669517 C108.311239,12.3383487 108.502975,12.6488524 108.77028,13.3324185 C109.263984,14.5947311 110.075062,16.1860755 111.048314,17.8024018 C111.511727,18.5720513 111.890931,19.2880939 111.890931,19.3935381 C111.890931,19.8049061 111.364126,22.6182798 111.224644,22.952204 C111.107958,23.2313763 110.934334,23.3736688 110.397328,23.6299411 C109.988042,23.82532 109.690966,24.0382904 109.650579,24.1652815 C109.554086,24.4693316 109.842731,24.8464535 110.231407,24.9241055 C110.414191,24.9607456 111.660161,24.9906197 113.00023,24.9906197 C115.614165,24.9906197 116.068731,24.9175478 116.209358,24.4745361 C116.304601,24.1742333 116.036046,23.7854531 115.670166,23.6941653 C114.967135,23.5186677 114.899059,23.2144095 115.17438,21.476817 C115.572424,18.9644747 115.477181,19.2033637 116.538806,18.0565923 C117.872109,16.6163881 119.476256,14.7153726 120.393507,13.4885551 C120.82153,12.9160542 121.442537,12.2291571 121.773443,11.9620594 C122.455447,11.4117299 122.575464,11.1484835 122.299727,10.8077934 C122.122148,10.5883694 122.018785,10.571923 120.617927,10.5403834 C118.783947,10.4990593 118.309083,10.6126226 118.261097,11.1040366 C118.235387,11.3685321 118.295551,11.4760582 118.599393,11.707869 C118.862848,11.9087648 118.968812,12.0706264 118.968084,12.2707936 C118.967251,12.5205081 118.43826,13.4779379 118.002327,14.018691 C117.181673,15.0367018 116.136182,16.2584188 115.552855,16.8811958 L114.844932,17.636897 L114.36986,16.8118711 C113.566902,15.4170506 112.727615,13.67009 112.570125,13.0654249 C112.396293,12.3979929 112.479358,12.1069542 112.917477,11.8481838 C113.650799,11.4149567 113.746979,10.8532812 113.125139,10.6364595 C112.61197,10.4575269 108.181333,10.4911483 107.753311,10.6771591 M66.7154015,12.0036959 C66.146752,12.1916844 65.9179598,12.3471964 65.2811305,12.9793416 C64.1428945,14.108938 63.501173,15.5872395 63.1287351,17.9373039 C62.929713,19.1935792 62.9271107,19.7618124 63.1161401,20.7498449 C63.385736,22.1586136 63.8950537,22.9679218 64.8018952,23.4284207 C65.2360591,23.6488856 65.4543381,23.6867748 66.2990372,23.6880543 C67.1613277,23.689273 67.3658667,23.6529452 67.8969394,23.4041675 C68.6914666,23.0320419 69.5670808,22.1136463 70.0718185,21.1234278 C71.3966898,18.5238571 71.6738843,15.2091807 70.7233246,13.3332512 C70.0307025,11.9664312 68.4321758,11.4361913 66.7154015,12.0036959 M83.8830396,11.9133448 C81.4889447,12.5589177 79.8623134,15.8001058 79.9581813,19.7340201 C79.9906577,21.0646164 80.0186582,21.2452144 80.2807595,21.8114699 C80.6861943,22.6873963 80.973902,23.0255882 81.6139581,23.3786652 C82.122443,23.6590866 82.2622374,23.6870871 83.1617925,23.6882531 C84.0204398,23.689273 84.2296629,23.6524247 84.7510551,23.408123 C86.6345833,22.5254306 87.9670532,19.8180216 88.1247512,16.5529966 C88.1744026,15.5242644 88.1501494,15.0760482 88.0109796,14.4507731 C87.8097716,13.5461175 87.3043053,12.6839311 86.7543921,12.3071214 C86.0165945,11.801551 84.8772135,11.6453103 83.8830396,11.9133448 M98.3605477,15.1364211 C98.1307146,16.500847 97.9427261,17.6988312 97.9427261,17.7987587 C97.9427261,17.9420921 98.0141326,17.9724867 98.2810221,17.9427166 C99.8849616,17.7638881 101.088671,17.2601914 101.935348,16.4135145 C102.643792,15.7049665 102.965745,15.035765 103.016646,14.1651472 C103.085554,12.9888139 102.51347,12.2324881 101.36878,11.9870413 C100.700411,11.8437079 99.9643831,11.8532842 99.5138769,12.0110863 C98.8960963,12.2275958 98.8120948,12.455243 98.3605477,15.1364211 Z M93.7424582,6.24963961 C93.365568,6.15918595 93.2751143,5.96320303 93.2298875,5.60138841 C93.1394338,4.99836404 93.1394338,3.49080311 93.2298875,2.84255191 C93.2751143,2.51088851 93.4710972,2.3299812 93.7424582,2.23952754 C94.0741216,2.14907389 97.0590922,2.10384706 97.3907556,2.23952754 C97.6771922,2.3299812 97.7676459,2.52596412 97.8128727,2.79732508 C97.9485532,3.40034946 97.9485532,4.95313721 97.8128727,5.55616158 C97.7676459,5.84259816 97.6771922,5.97827864 97.3907556,6.11395912 C97.1193947,6.34009326 94.1645753,6.34009326 93.7424582,6.24963961 L93.7424582,6.24963961 Z M98.3706702,0.159093462 C97.4812093,-0.0218138494 94.059046,-0.0821162865 92.7022412,0.159093462 C91.6770997,0.340000773 90.8780924,1.09378124 90.6368827,2.02846901 C90.4559754,3.09883727 90.4559754,5.49585914 90.6368827,6.47577375 C90.81779,7.36523469 91.5715705,8.16424199 92.7022412,8.3451493 C93.8781387,8.58635905 97.3304532,8.52605661 98.4158971,8.29992247 C99.6822482,8.01348589 100.194819,7.07879812 100.330499,6.47577375 C100.511407,5.54108597 100.511407,3.15913971 100.330499,2.02846901 C100.104365,1.04855441 99.2601312,0.355076382 98.3706702,0.159093462 L98.3706702,0.159093462 Z M86.6267706,0.219395899 L89.2046998,0.219395899 L89.2046998,8.31499808 L86.6267706,8.31499808 L86.6267706,0.219395899 Z M82.5111293,5.22449818 C82.9332463,5.31495183 83.0237,5.64661524 83.0237,5.93305181 C83.0237,6.21948839 82.9784732,6.53607618 82.5111293,6.58130301 C81.9985586,6.67175667 80.2648635,6.67175667 79.6166123,6.58130301 C79.3301757,6.53607618 79.0135879,6.53607618 78.9080587,6.02350547 L78.9080587,5.88782499 L76.3301295,5.88782499 C76.3301295,5.93305181 76.3301295,6.0687323 76.3753563,6.26471522 C76.46581,7.33508348 76.887927,8.08886394 78.1090514,8.33007369 C79.088966,8.510981 82.7824903,8.57128344 83.9131609,8.33007369 C85.224739,8.04363711 85.5564024,6.8828152 85.5564024,5.84259816 C85.5564024,4.66670063 85.1342853,3.88276895 84.1091439,3.55110555 C83.8227073,3.46065189 83.1744561,3.41542506 82.8880195,3.41542506 C82.6468098,3.41542506 79.8879733,3.32497141 79.2849489,3.23451775 C78.9080587,3.18929093 78.817605,2.94808118 78.817605,2.63149338 C78.817605,2.29982998 78.8628318,2.07369584 79.3301757,1.98324218 C79.8879733,1.89278853 82.0890122,1.89278853 82.330222,1.98324218 C82.6166586,2.07369584 82.7071122,2.26967876 82.7071122,2.4958129 L82.7071122,2.67672021 L85.2850414,2.67672021 C85.2850414,2.4958129 85.2398146,2.34505681 85.2398146,2.20937632 C85.1041341,0.943025144 84.3955804,0.249547118 83.1292293,0.144017853 C81.8628781,0.00833736914 78.9683611,0.053564197 78.0789002,0.18924468 C77.234666,0.370151992 76.3904319,0.897798316 76.3904319,2.61641777 C76.3904319,4.01844944 77.0386831,4.72700307 78.1693538,4.95313721 C78.5010172,4.99836404 79.435705,5.04359087 79.5713855,5.04359087 C79.8879733,5.07374209 82.330222,5.17927135 82.5111293,5.22449818 L82.5111293,5.22449818 Z M72.3501686,5.17927135 L69.5008785,5.17927135 L70.7220028,1.95309097 L71.1441199,1.95309097 L72.3501686,5.17927135 Z M72.9230418,6.85266398 L73.4808393,8.29992247 L76.2396758,8.29992247 L72.7722857,0.159093462 L69.0335346,0.159093462 L65.6113713,8.29992247 L68.3702078,8.29992247 L68.9280053,6.80743715 L72.9230418,6.85266398 C72.9230418,6.85266398 72.9230418,6.85266398 72.9230418,6.85266398 Z M58.2243227,5.64661524 C58.2695496,6.11395912 58.5107593,6.20441278 58.7368935,6.24963961 C59.1137837,6.34009326 61.7821665,6.34009326 62.2495104,6.24963961 C62.5811738,6.20441278 62.807308,5.96320303 62.8525348,5.69184207 C62.8525348,5.55616158 62.8977616,5.31495183 62.8977616,5.22449818 L65.5661445,5.22449818 C65.5661445,5.40540549 65.5661445,5.87274938 65.5209176,6.29486644 C65.3852372,7.27478104 64.812364,8.07378833 63.6063153,8.36022491 C62.7620811,8.54113222 58.6916666,8.54113222 57.7569789,8.36022491 C56.7770643,8.11901516 55.9328301,7.51599079 55.6916204,6.49084936 C55.5107131,5.55616158 55.5107131,3.11391288 55.6916204,2.08877145 C55.8273009,1.33499099 56.5358545,0.445530038 57.6966764,0.219395899 C58.7670447,0.0384885877 62.5660982,-0.0218138494 63.5912396,0.219395899 C64.9480445,0.551059303 65.3701615,1.75710804 65.4153884,2.1792251 C65.4606152,2.64656899 65.4606152,2.9782324 65.4606152,3.15913971 L62.7922324,3.15913971 C62.7922324,2.9782324 62.8374592,2.45058607 62.3701153,2.31490559 C62.0836787,2.22445193 59.4755983,2.22445193 58.8122715,2.26967876 C58.4806081,2.31490559 58.2997008,2.45058607 58.254474,2.78224948 C58.1338691,3.44557628 58.1338691,5.02851526 58.2243227,5.64661524 L58.2243227,5.64661524 Z" id="Combined-Shape"></path>
            </g>
        </g>
    </g>
</svg>