<?xml version="1.0" encoding="UTF-8"?>
<svg width="164px" height="30px" viewBox="0 0 164 30" version="1.1" xmlns="http://www.w3.org/2000/svg" xmlns:xlink="http://www.w3.org/1999/xlink">
    <title>casio pv-1000</title>
    <g id="Page-1" stroke="none" stroke-width="1" fill="none" fill-rule="evenodd">
        <g id="System" transform="translate(-18.000000, 0.000000)" fill="#000000" fill-rule="nonzero">
            <g id="casio-pv-1000" transform="translate(18.097366, 0.000000)">
                <line x1="81.9026336" y1="30" x2="81.9026336" y2="0" id="Path"></line>
                <path d="M54.0755474,6.00328467 C56.5521898,6.00328467 58.6691606,6.90492701 60.4281022,8.70656934 C62.1854015,10.509854 63.0656934,12.6104015 63.0656934,15.0114964 C63.0656934,17.4125912 62.1886861,19.509854 60.4346715,21.3032847 C58.6806569,23.0967153 56.5620438,23.995073 54.0755474,23.995073 C51.5989051,23.995073 49.4835766,23.0983577 47.729562,21.3032847 C46.8831546,20.4370643 46.2409659,19.5008588 45.8029961,18.4942991 L45.8047445,21.0914234 C45.8047445,21.9093066 45.5731752,22.5678832 45.1083942,23.0655109 C44.6436131,23.564781 44.0490876,23.8144161 43.3264599,23.8144161 C42.6120438,23.8144161 42.0257299,23.564781 41.5642336,23.0655109 C41.1043796,22.5662409 40.8744526,21.9076642 40.8744526,21.0914234 L40.8757595,19.5173792 C40.6147738,20.4515992 40.0815048,21.328497 39.2764599,22.1490876 C38.0857664,23.3627737 36.7062044,23.970438 35.1394161,23.970438 C33.4609489,23.970438 32.0419708,23.530292 30.8808394,22.6467153 C30.754117,22.5504636 30.6342998,22.4521384 30.52139,22.3517396 C30.4034671,22.6177782 30.2324667,22.8704163 30.0104015,23.109854 C29.5275547,23.6304745 28.9379562,23.8899635 28.2416058,23.8899635 C27.2594891,23.8899635 26.5023723,23.3775547 25.9686131,22.3543796 L25.3790146,21.2441606 L19.1266423,21.2441606 L18.5666058,22.3560219 C18.0410584,23.3808394 17.2839416,23.8916058 16.2936131,23.8916058 C15.5972628,23.8916058 15.0027372,23.6288321 14.5116788,23.104927 C14.4143765,23.0011162 14.3267466,22.8950485 14.2487763,22.7867366 C14.084354,22.8821993 13.905276,22.9710508 13.7135036,23.0540146 C12.2633212,23.6830292 10.6866788,23.9967153 8.98357664,23.9967153 C6.53978102,23.9967153 4.4310219,23.109854 2.65894161,21.3377737 C0.886861314,19.5640511 0,17.4569343 0,15.0131387 C0,12.5611314 0.895072993,10.4507299 2.68521898,8.68193431 C4.47536496,6.91313869 6.57427007,6.02956204 8.98357664,6.02956204 C10.7474453,6.02956204 12.3388686,6.3399635 13.7594891,6.95912409 C15.1801095,7.57828467 15.8879562,8.54562044 15.8879562,9.86277372 C15.8879562,10.3538321 15.6514599,10.8580292 15.1768248,11.3786496 C14.7021898,11.8992701 14.1175182,12.1587591 13.4195255,12.1587591 C12.9793796,12.1587591 12.4374088,12.0125912 11.7903285,11.7202555 C10.8427007,11.2899635 9.90328467,11.0748175 8.97372263,11.0748175 C7.90620438,11.0748175 6.96350365,11.4706204 6.15054745,12.2622263 C5.33594891,13.0538321 4.93029197,13.9702555 4.93029197,15.0114964 C4.93029197,16.0363139 5.33430657,16.9478102 6.14562044,17.7476277 C6.95529197,18.5474453 7.8979927,18.9481752 8.97536496,18.9481752 C9.89671533,18.9481752 10.8361314,18.7281022 11.7919708,18.2895985 C12.4472628,17.9890511 12.9892336,17.8395985 13.4211679,17.8395985 C13.9736957,17.8395985 14.4732676,18.0225369 14.9188534,18.3884136 L19.790146,7.92974453 C20.039781,7.38613139 20.3912409,6.95912409 20.8428832,6.64872263 C21.2945255,6.33832117 21.7691606,6.18229927 22.2684307,6.18229927 C22.7759124,6.18229927 23.2571168,6.3399635 23.7087591,6.6520073 C24.1604015,6.96569343 24.5118613,7.38941606 24.7614964,7.92153285 L29.5213189,18.2434891 C29.6198534,18.100564 29.7374312,17.963744 29.8740876,17.8330292 C30.365146,17.3649635 30.9531022,17.1301095 31.6428832,17.1301095 C32.0041971,17.1301095 32.3425182,17.1941606 32.6562044,17.3239051 C32.9698905,17.4536496 33.3558394,17.7689781 33.8124088,18.2731752 C34.2689781,18.7773723 34.6861314,19.0286496 35.0638686,19.0286496 C35.8029197,19.0286496 36.1740876,18.5983577 36.1740876,17.7377737 C36.1740876,17.1613139 35.520438,16.7737226 34.2114964,16.5766423 C32.8434307,16.3779197 31.7479927,15.7899635 30.9268248,14.8078467 C30.1056569,13.8273723 29.695073,12.6186131 29.695073,11.1815693 C29.695073,9.82171533 30.2009124,8.62445255 31.2109489,7.58649635 C32.2226277,6.55018248 33.5578467,6.03120438 35.2182482,6.03120438 C36.7062044,6.03120438 37.8016423,6.26605839 38.5029197,6.73412409 C39.2041971,7.20383212 39.5540146,7.93631387 39.5540146,8.93485401 C39.5540146,9.44233577 39.3125912,9.9399635 38.8313869,10.4260949 C38.3485401,10.9122263 37.7770073,11.155292 37.115146,11.155292 C36.8917883,11.155292 36.5666058,11.0928832 36.1412409,10.9680657 C35.7158759,10.8432482 35.3562044,10.7808394 35.0638686,10.7808394 C34.9604015,10.7808394 34.850365,10.8366788 34.7354015,10.9483577 C34.6171533,11.0583942 34.5596715,11.1782847 34.5596715,11.3080292 C34.5596715,11.5067518 34.625365,11.6364964 34.7600365,11.7021898 C34.8930657,11.7662409 35.2609489,11.8483577 35.8636861,11.9468978 C36.4664234,12.045438 37.0412409,12.2031022 37.5930657,12.4182482 C38.1432482,12.6333942 38.7131387,13.0308394 39.3027372,13.6122263 C39.8923358,14.1936131 40.3324818,14.8620438 40.6248175,15.6191606 C40.7257602,15.8805908 40.8092753,16.1518117 40.8753627,16.4327559 L40.8744526,8.93321168 C40.8744526,8.11532847 41.1060219,7.45346715 41.5708029,6.9459854 C42.0355839,6.43850365 42.6202555,6.18394161 43.3264599,6.18394161 C44.0310219,6.18394161 44.6222628,6.43850365 45.0952555,6.9459854 C45.5682482,7.45346715 45.8047445,8.1169708 45.8047445,8.93321168 L45.8032637,11.526174 C46.2412275,10.5174153 46.8833269,9.57821744 47.729562,8.70821168 C49.4835766,6.90492701 51.5989051,6.00328467 54.0755474,6.00328467 Z M54.0739051,10.9467153 C53.0145985,10.9467153 52.0751825,11.3605839 51.2556569,12.1850365 C50.4377737,13.0111314 50.0271898,13.9538321 50.0271898,15.0114964 C50.0271898,16.095438 50.4213504,17.039781 51.2096715,17.8445255 C52.0012774,18.6509124 52.9554745,19.0516423 54.0755474,19.0516423 C55.2038321,19.0516423 56.1629562,18.6509124 56.9512774,17.8510949 C57.7395985,17.0512774 58.1337591,16.1036496 58.1337591,15.0114964 C58.1337591,13.9620438 57.7346715,13.0209854 56.9381387,12.1916058 C56.1416058,11.3605839 55.1857664,10.9467153 54.0739051,10.9467153 Z M22.2618613,13.9801095 L21.1089416,16.4961679 L23.4180657,16.4961679 L22.2618613,13.9801095 Z" id="Combined-Shape"></path>
                <path d="M154.58379,6 C157.1292,6 159.297019,6.90621915 161.078361,8.7142152 C162.859704,10.5222113 163.752596,12.6233959 163.752596,15.0133268 C163.752596,17.3943731 162.859704,19.4866732 161.078361,21.290227 C159.292576,23.0937808 157.1292,23.9955577 154.58379,23.9955577 C152.038381,23.9955577 149.870562,23.0937808 148.08922,21.290227 C147.340246,20.5319147 146.748335,19.7225571 146.313815,18.8621544 C145.880747,19.7225571 145.288835,20.5319147 144.539862,21.290227 C142.754077,23.0937808 140.590701,23.9955577 138.045291,23.9955577 C135.499881,23.9955577 133.332063,23.0937808 131.55072,21.290227 C130.801458,20.5316219 130.209378,19.7219321 129.774813,18.8611578 C129.342704,19.7219321 128.750625,20.5316219 128.001362,21.290227 C126.215577,23.0937808 124.052201,23.9955577 121.506791,23.9955577 C118.961382,23.9955577 116.793563,23.0937808 115.012221,21.290227 C114.502109,20.7737548 114.064854,20.2336042 113.70056,19.6697752 L113.701757,21.219151 C113.706199,22.0542942 113.47076,22.725074 112.995439,23.2359329 C112.52456,23.7467917 111.920414,24 111.196327,24 C110.472241,24 109.868095,23.7467917 109.388331,23.2359329 C108.913011,22.725074 108.673129,22.0542942 108.673129,21.219151 L108.673129,13.0098717 C108.472016,13.0656017 108.293702,13.1134018 108.138187,13.1534522 L107.857554,13.2232733 C107.607319,13.2828682 107.448279,13.3119447 107.380434,13.3119447 C106.851806,13.3119447 106.340947,13.0809477 105.838973,12.6145114 C105.336999,12.148075 105.088233,11.6105627 105.088233,10.9930898 C105.088233,9.94916091 105.390306,9.22951629 105.994452,8.83415597 L109.770365,6.40868707 C110.17461,6.13770977 110.596624,6 111.031964,6 C111.831569,6 112.475696,6.24876604 112.964343,6.75074038 C113.457433,7.25271471 113.701757,7.78134255 113.701757,8.34550839 L113.701496,10.3344308 C114.064373,9.77109892 114.499766,9.23109576 115.007779,8.7142152 C116.784679,6.90621915 118.952497,6 121.506791,6 C124.052201,6 126.220019,6.90621915 128.001362,8.7142152 C128.749757,9.47380835 129.341333,10.2851519 129.77576,11.1479166 C130.207657,10.2865396 130.798241,9.47531029 131.546278,8.7142152 C133.323178,6.90621915 135.490997,6 138.045291,6 C140.590701,6 142.758519,6.90621915 144.539862,8.7142152 C145.288546,9.47410185 145.88029,10.285779 146.314763,11.1489167 C146.745701,10.2871646 147.336452,9.47560347 148.084778,8.7142152 C149.861678,6.90621915 152.025054,6 154.58379,6 Z M121.511234,10.9664363 C120.320711,10.9664363 119.334531,11.3662389 118.552695,12.1702863 C117.766416,12.9743337 117.375498,13.9205331 117.375498,15.0088845 C117.375498,16.1150049 117.779743,17.0612043 118.592675,17.8474827 C119.396722,18.6382034 120.369575,19.0291214 121.506791,19.0291214 C122.626239,19.0291214 123.594649,18.6337611 124.416466,17.8430405 C125.23384,17.0523198 125.646969,16.1105627 125.646969,15.0088845 C125.646969,13.8849951 125.238282,12.9299112 124.42535,12.1436328 C123.612418,11.3573544 122.639565,10.9664363 121.511234,10.9664363 Z M138.049733,10.9664363 C136.85921,10.9664363 135.87303,11.3662389 135.091194,12.1702863 C134.304916,12.9743337 133.913998,13.9205331 133.913998,15.0088845 C133.913998,16.1150049 134.318243,17.0612043 135.131174,17.8474827 C135.935222,18.6382034 136.908075,19.0291214 138.045291,19.0291214 C139.164738,19.0291214 140.133149,18.6337611 140.954965,17.8430405 C141.772339,17.0523198 142.185469,16.1105627 142.185469,15.0088845 C142.185469,13.8849951 141.776782,12.9299112 140.96385,12.1436328 C140.150918,11.3573544 139.178065,10.9664363 138.049733,10.9664363 Z M154.588233,10.9664363 C153.39771,10.9664363 152.41153,11.3662389 151.629694,12.1702863 C150.843415,12.9743337 150.452497,13.9205331 150.452497,15.0088845 C150.452497,16.1150049 150.856742,17.0612043 151.669674,17.8474827 C152.473721,18.6382034 153.446574,19.0291214 154.58379,19.0291214 C155.703238,19.0291214 156.671648,18.6337611 157.493465,17.8430405 C158.310839,17.0523198 158.723968,16.1105627 158.723968,15.0088845 C158.723968,13.8849951 158.315281,12.9299112 157.502349,12.1436328 C156.689417,11.3573544 155.716564,10.9664363 154.588233,10.9664363 Z M93.5028428,6 C94.3779662,6 95.066515,6.23988154 95.5729316,6.71964462 C96.0793482,7.1994077 96.3281143,7.7946693 96.3281143,8.50542942 C96.3281143,8.84748272 96.270365,9.13622902 96.1548665,9.37611056 L90.1844815,22.245311 C89.9312732,22.8005923 89.5758931,23.2314906 89.1183413,23.5380059 C88.6652317,23.8445212 88.1721419,24 87.6479563,24 C87.1681932,24 86.6973147,23.840079 86.2353206,23.5246792 C85.7777688,23.2092794 85.4223887,22.7828233 85.1780649,22.245311 L80.3527878,11.8577636 C80.2784071,13.0503776 79.7838347,14.1795637 78.8656266,15.248766 C77.8705624,16.4126357 76.7733265,16.9945706 75.5783611,16.9945706 L73.0995851,16.9945706 L73.0995851,21.219151 C73.0995851,22.0542942 72.8641458,22.725074 72.388825,23.2359329 C71.9135042,23.7467917 71.3093581,24 70.5719445,24 C69.8434153,24 69.2437115,23.7467917 68.7728329,23.2359329 C68.3019543,22.725074 68.066515,22.0542942 68.066515,21.219151 L68.066515,8.29664363 C68.066515,7.68361303 68.3241656,7.14610069 68.8350244,6.68854886 C69.3503255,6.23099704 69.9811251,6.00444225 70.7274232,6.00444225 L74.7743137,6.00444225 C76.4268309,6.00444225 77.7683907,6.53751234 78.8078773,7.59921027 C78.9145541,7.70863406 79.0157571,7.82074753 79.1114816,7.93554581 C79.2053171,7.52337771 79.4112041,7.13659427 79.7274232,6.77739388 C80.1849751,6.25765054 80.7580254,6 81.442132,6 C82.663751,6 83.4944519,6.49753208 83.9342347,7.488154 L87.7101478,16.0394867 L91.4549652,7.4970385 C91.6504242,7.07502468 91.9436128,6.71964462 92.3345308,6.43089832 C92.7298912,6.14659427 93.1208092,6 93.5028428,6 Z M101.858716,12.8499506 C103.176466,12.8499506 104.25267,13.8734452 104.336658,15.1697625 L104.341935,15.3331688 C104.341935,16.7058243 103.231372,17.816387 101.858716,17.816387 L97.5941557,17.816387 C96.2764065,17.816387 95.2002019,16.7928924 95.116214,15.4965751 L95.1109376,15.3331688 C95.1109376,13.9605133 96.2215002,12.8499506 97.5941557,12.8499506 L101.858716,12.8499506 Z M74.8542742,10.6910168 L73.0995851,10.6910168 L73.0995851,12.3124383 L74.8542742,12.3124383 C75.0719445,12.3124383 75.2540767,12.2280355 75.3962288,12.0636723 C75.5339385,11.8948667 75.6050146,11.7127345 75.6050146,11.5083909 C75.6050146,11.3084896 75.5339385,11.1219151 75.3962288,10.9486673 C75.2540767,10.7754195 75.0763867,10.6910168 74.8542742,10.6910168 Z" id="Combined-Shape"></path>
            </g>
        </g>
    </g>
</svg>