<?xml version="1.0" encoding="UTF-8"?>
<svg width="800px" height="400px" viewBox="0 0 800 400" version="1.1" xmlns="http://www.w3.org/2000/svg" xmlns:xlink="http://www.w3.org/1999/xlink">
    <title>crystaldynamics</title>
    <g id="Page-1" stroke="none" stroke-width="1" fill="none" fill-rule="evenodd">
        <g id="AF150_INCREMENTAL" fill="#000000" transform="translate(-0.000000, 0.000000)">
            <g id="crystaldynamics" transform="translate(0.000000, 0.000000)">
                <line x1="5.68434189e-14" y1="0" x2="800" y2="400" id="Path" fill-rule="nonzero"></line>
                <path d="M762.12891,205.0785 L763.029832,205.117859 L763.029832,205.117859 L763.910472,205.161374 L763.910472,205.161374 L764.771238,205.209169 L764.771238,205.209169 L765.61254,205.261365 L765.61254,205.261365 L766.434785,205.318084 L766.434785,205.318084 L767.238383,205.379448 L767.238383,205.379448 L768.023741,205.44558 L768.023741,205.44558 L768.791268,205.516601 L768.791268,205.516601 L769.541373,205.592634 C769.664961,205.60573 769.787841,205.619041 769.91002,205.632568 L770.634757,205.716347 C770.754169,205.73075 770.872897,205.745374 770.99095,205.760223 L771.691239,205.852023 L771.691239,205.852023 L772.375739,205.949324 C772.48853,205.966006 772.600679,205.982922 772.712197,206.000075 L773.37378,206.105854 L773.37378,206.105854 L774.020597,206.217439 C774.97995,206.389231 775.890843,206.581028 776.75948,206.794684 L777.332378,206.94038 C777.521303,206.990038 777.708209,207.040797 777.893165,207.092675 L778.442248,207.251691 C780.344034,207.820152 782.038273,208.514354 783.603777,209.357856 L784.047629,209.60294 C785.295671,210.308969 786.464267,211.114309 787.59523,212.031457 L787.992898,212.359819 C788.25706,212.58185 788.51941,212.810151 788.780494,213.044887 C791.32606,215.333577 793.799167,218.600044 794.868634,221.086159 C795.608925,222.806984 796.357183,225.360003 796.979169,228.087943 L797.161843,228.910916 C797.251151,229.324368 797.337316,229.740278 797.419886,230.156426 L797.580095,230.988383 C798.123104,233.896746 798.475101,236.744334 798.480687,238.770271 L798.487168,241.146509 L766.513136,241.146509 L766.512829,235.64045 L766.512829,235.64045 L766.507715,234.921156 L766.507715,234.921156 L766.500178,234.476781 L766.500178,234.476781 L766.48875,234.058711 L766.48875,234.058711 L766.472923,233.665387 L766.472923,233.665387 L766.452191,233.295249 L766.452191,233.295249 L766.426048,232.946739 L766.426048,232.946739 L766.393987,232.618299 C766.259101,231.395749 765.982624,230.581189 765.43622,229.779452 L765.287473,229.570334 L765.287473,229.570334 L765.125972,229.360239 C765.097965,229.325055 765.069405,229.289766 765.040282,229.254338 L764.858703,229.039854 L764.858703,229.039854 L764.663106,228.820496 L764.663106,228.820496 L764.452985,228.594704 L764.452985,228.594704 L764.227833,228.360919 L764.227833,228.360919 L763.987143,228.117583 L763.987143,228.117583 L763.846374,227.977856 L763.846374,227.977856 L763.573248,227.713538 C762.099205,226.314307 761.059996,225.803874 758.988987,225.649367 L758.600743,225.625078 L758.600743,225.625078 L758.187801,225.607922 C758.116811,225.605617 758.044709,225.60358 757.971457,225.601796 L757.517794,225.594003 C757.439772,225.59317 757.360517,225.592561 757.279987,225.592159 L757.034536,225.591564 C751.424127,225.591564 748.365701,228.184366 748.365701,232.940588 L748.369253,233.348967 C748.444731,237.587043 749.750421,240.279961 754.896756,243.949043 L755.398578,244.301511 C755.569779,244.420038 755.744933,244.53963 755.924126,244.660366 L756.473899,245.026092 C756.661251,245.1492 756.852723,245.273533 757.0484,245.399173 L757.648129,245.780092 L757.648129,245.780092 L758.273588,246.169334 C758.380003,246.234929 758.487511,246.30089 758.596122,246.367228 L759.261114,246.769861 L759.261114,246.769861 L759.953088,247.182028 C760.070694,247.251544 760.189444,247.321477 760.30935,247.391837 L761.042738,247.81921 L761.042738,247.81921 L761.80436,248.257326 L761.80436,248.257326 L763.000829,248.935702 L763.000829,248.935702 L764.263646,249.640971 L764.263646,249.640971 L765.594502,250.374767 L765.594502,250.374767 L766.995088,251.138724 L766.995088,251.138724 L768.399973,251.901639 L768.399973,251.901639 L769.307485,252.399063 L769.307485,252.399063 L770.641121,253.137952 L770.641121,253.137952 L771.511772,253.625702 L771.511772,253.625702 L772.367657,254.109566 L772.367657,254.109566 L773.208763,254.589536 L773.208763,254.589536 L774.442687,255.302169 L774.442687,255.302169 L775.246794,255.772365 L775.246794,255.772365 L776.036079,256.238635 L776.036079,256.238635 L777.19219,256.930661 L777.19219,256.930661 L777.944367,257.387079 L777.944367,257.387079 L778.681681,257.839541 L778.681681,257.839541 L779.404117,258.288038 L779.404117,258.288038 L780.111664,258.73256 L780.111664,258.73256 L780.804309,259.173099 L780.804309,259.173099 L781.482041,259.609646 L781.482041,259.609646 L782.144846,260.042192 L782.144846,260.042192 L782.792713,260.470729 L782.792713,260.470729 L783.425629,260.895247 L783.425629,260.895247 L784.043582,261.315737 L784.043582,261.315737 L784.646559,261.732191 C784.745807,261.801264 784.84443,261.870167 784.942428,261.938902 L785.522919,262.349285 L785.522919,262.349285 L786.088404,262.755609 L786.088404,262.755609 L786.63887,263.157866 L786.63887,263.157866 L787.174306,263.556046 C787.262292,263.622069 787.349651,263.687922 787.436383,263.753604 L787.949249,264.145653 C788.033472,264.210653 788.117067,264.275483 788.200035,264.340141 L788.690303,264.726039 L788.690303,264.726039 L789.165492,265.107825 C789.243433,265.171112 789.320745,265.234228 789.397427,265.297173 L789.849973,265.672774 L789.849973,265.672774 L790.287407,266.044241 L790.287407,266.044241 L790.709718,266.411564 C790.778842,266.472439 790.847336,266.533141 790.915198,266.59367 L791.314801,266.954762 C791.380139,267.014597 791.444846,267.074259 791.508921,267.133747 L791.885788,267.488588 C791.947335,267.547381 792.00825,267.605999 792.068533,267.664442 L792.422637,268.013012 C792.480388,268.070758 792.537507,268.12833 792.593993,268.185726 L792.925305,268.528005 C793.141112,268.75479 793.346779,268.978771 793.54229,269.199937 L793.827937,269.529573 L793.827937,269.529573 L794.098338,269.854977 C794.536293,270.393786 794.91067,270.914924 795.221213,271.418207 C798.521259,276.766386 800.513783,286.5989 799.884261,294.42867 C798.611478,310.257926 790.97063,319.307534 775.547837,323.252028 C768.017288,325.178018 754.301807,325.996887 746.000667,325.038221 L745.561209,324.985763 C726.467514,322.576645 717.155611,313.875909 714.726707,296.174615 L714.524011,294.646567 L714.524011,294.646567 L714.366566,293.384375 L714.366566,293.384375 L714.222595,292.161465 L714.222595,292.161465 L714.071641,290.784255 L714.071641,290.784255 L713.967375,289.743842 L713.967375,289.743842 L713.91549,289.178628 L713.91549,289.178628 L713.848789,288.35392 L713.848789,288.35392 L713.814871,287.815459 L713.814871,287.815459 L713.801735,287.491546 L713.801735,287.491546 L713.799178,287.316942 L713.799178,287.316942 L713.799178,285.21906 L745.540988,285.21906 L745.968813,291.198277 C746.498394,298.599761 748.565193,302.445163 752.900745,304.095284 C759.634805,306.658272 767.377278,302.360661 767.377278,296.05982 C767.377278,290.727377 765.387641,286.962644 758.88952,282.294833 L758.286291,281.86793 C758.081028,281.724754 757.871555,281.58068 757.657802,281.435639 L757.003632,280.997547 C756.558864,280.703461 756.096696,280.405232 755.616565,280.102311 L754.882828,279.644342 L754.882828,279.644342 L754.121728,279.178923 L754.121728,279.178923 L753.332843,278.70564 C753.199024,278.626081 753.064029,278.546177 752.92785,278.46592 L752.096502,277.980069 L752.096502,277.980069 L751.236317,277.485323 C751.090527,277.402101 750.943518,277.318492 750.795281,277.234486 L749.891055,276.725624 L749.891055,276.725624 L748.956943,276.206837 L748.956943,276.206837 L747.992523,275.677712 L747.992523,275.677712 L746.997376,275.137835 L746.997376,275.137835 L745.44612,274.30696 L745.44612,274.30696 L743.608135,273.330606 L743.608135,273.330606 L742.764498,272.879307 L742.764498,272.879307 L741.139251,272.002353 L741.139251,272.002353 L739.594668,271.158184 L739.594668,271.158184 L738.487696,270.545554 L738.487696,270.545554 L737.078393,269.754687 L737.078393,269.754687 L735.74303,268.991953 L735.74303,268.991953 L734.479164,268.255659 L734.479164,268.255659 L733.576712,267.719773 L733.576712,267.719773 L732.996147,267.369898 L732.996147,267.369898 L732.156139,266.855628 L732.156139,266.855628 L731.352222,266.353378 L731.352222,266.353378 L730.835818,266.024868 L730.835818,266.024868 L730.089761,265.541062 L730.089761,265.541062 L729.610975,265.224189 L729.610975,265.224189 L729.146702,264.911599 L729.146702,264.911599 L728.696635,264.603083 L728.696635,264.603083 L728.26047,264.298428 L728.26047,264.298428 L727.8379,263.997423 L727.8379,263.997423 L727.228868,263.552296 L727.228868,263.552296 L726.83895,263.259491 L726.83895,263.259491 L726.461558,262.969595 L726.461558,262.969595 L726.096386,262.682398 L726.096386,262.682398 L725.743129,262.397688 L725.743129,262.397688 L725.40148,262.115253 L725.40148,262.115253 L725.071136,261.834882 C725.017003,261.788314 724.963329,261.741823 724.910107,261.695405 L724.596145,261.417734 L724.596145,261.417734 L724.292722,261.141599 C724.243013,261.095692 724.19373,261.049841 724.144867,261.00404 L723.856681,260.729812 L723.856681,260.729812 L723.57827,260.45659 L723.57827,260.45659 L723.309328,260.184163 L723.309328,260.184163 L723.049551,259.91232 L723.049551,259.91232 L722.798633,259.64085 L722.798633,259.64085 L722.556268,259.36954 C722.516569,259.324324 722.477215,259.279105 722.438197,259.23388 L722.208088,258.962416 L722.208088,258.962416 L721.985769,258.690584 C721.949348,258.645236 721.913238,258.599864 721.877434,258.554464 L721.666225,258.281684 C721.631618,258.236152 721.597303,258.190583 721.563274,258.144971 L721.362488,257.870768 L721.362488,257.870768 L721.168269,257.595351 L721.168269,257.595351 C716.536913,250.902143 714.591962,240.388303 716.297432,231.265301 C719.787508,212.595453 734.895702,203.963081 762.12891,205.0785 Z M661.517259,204.873046 C691.901575,204.846012 703.709269,213.8257 704.953276,237.905895 L705.388555,246.33149 L673.183467,246.33149 L673.176986,241.362548 C673.176623,240.933224 673.170517,240.513012 673.158637,240.101871 L673.136484,239.491956 C673.109993,238.888834 673.070478,238.306072 673.017839,237.743529 L672.96082,237.187721 C672.080744,229.317583 668.497306,225.591564 661.912743,225.591564 C656.386849,225.591564 652.345545,228.910134 650.614474,234.869272 C650.396874,235.618358 650.20701,237.103801 650.045007,239.133669 L649.972216,240.10849 C649.960414,240.27717 649.948777,240.448897 649.937305,240.623583 L649.870454,241.706513 L649.870454,241.706513 L649.807566,242.856275 L649.807566,242.856275 L649.748645,244.068676 L649.748645,244.068676 L649.693694,245.339521 L649.693694,245.339521 L649.642714,246.664618 L649.642714,246.664618 L649.59571,248.039773 L649.59571,248.039773 L649.552683,249.460793 L649.552683,249.460793 L649.513636,250.923484 L649.513636,250.923484 L649.478573,252.423654 L649.478573,252.423654 L649.433452,254.735008 L649.433452,254.735008 L649.408359,256.310528 L649.408359,256.310528 L649.387259,257.908849 L649.387259,257.908849 L649.370155,259.525779 L649.370155,259.525779 L649.351996,261.976892 L649.351996,261.976892 L649.344893,263.621997 L649.344893,263.621997 L649.341796,265.271034 L649.341796,265.271034 L649.344666,267.742789 C649.345486,268.016871 649.346474,268.290681 649.347629,268.56413 L649.362538,271.013085 L649.362538,271.013085 L649.386489,273.428429 L649.386489,273.428429 L649.419489,275.79601 L649.419489,275.79601 L649.446522,277.340873 L649.446522,277.340873 L649.477583,278.854024 L649.477583,278.854024 L649.512677,280.331271 L649.512677,280.331271 L649.551805,281.76842 L649.551805,281.76842 L649.594971,283.161278 L649.594971,283.161278 L649.642177,284.50565 L649.642177,284.50565 L649.693427,285.797345 L649.693427,285.797345 L649.748722,287.032168 C649.758275,287.233 649.767997,287.431287 649.777887,287.626943 L649.839257,288.768597 L649.839257,288.768597 L649.904679,289.842896 C650.084543,292.61416 650.307668,294.622246 650.57429,295.509324 C652.807138,302.938281 659.411249,306.623902 665.998055,304.116957 L666.326785,303.988533 C666.38071,303.966898 666.434207,303.945141 666.487278,303.923254 L666.800646,303.790317 L666.800646,303.790317 L667.104025,303.65388 C667.203509,303.607774 667.301362,303.56102 667.397619,303.513551 L667.68163,303.368935 L667.68163,303.368935 L667.956261,303.219641 C668.091265,303.143759 668.222828,303.065975 668.351064,302.986068 L668.603132,302.823359 C668.644416,302.795747 668.685338,302.767883 668.725903,302.739758 L668.965042,302.567821 L668.965042,302.567821 L669.195816,302.389241 C670.064672,301.69145 670.7536,300.838579 671.314005,299.731044 L671.457315,299.436279 C671.66801,298.985271 671.85971,298.493942 672.035494,297.956328 L672.15036,297.590995 C672.169123,297.528941 672.187697,297.4663 672.206088,297.403063 L672.314261,297.016422 C672.331934,296.950768 672.349431,296.884502 672.366757,296.817615 L672.468693,296.408781 C672.50201,296.269978 672.534676,296.128626 672.566725,295.984662 L672.661055,295.544864 C672.67648,295.470236 672.691758,295.394938 672.706896,295.318962 L672.796054,294.854909 L672.796054,294.854909 L672.882018,294.374195 C672.89609,294.292666 672.910038,294.210426 672.923865,294.127467 L673.045173,293.361212 L673.045173,293.361212 L673.12277,292.828158 L673.12277,292.828158 L673.197984,292.276871 L673.197984,292.276871 L673.271017,291.706959 L673.271017,291.706959 L673.342072,291.118029 L673.342072,291.118029 L673.411353,290.509687 L673.411353,290.509687 L673.51239,289.55992 L673.51239,289.55992 L674.398957,280.898032 L706.021706,280.898032 L706.006799,287.163214 C705.976337,299.772286 702.149367,310.88724 695.969647,316.313097 C692.143778,319.672284 685.767936,322.636784 679.489183,323.975845 C677.848183,324.325816 675.558705,324.622085 672.948604,324.853141 L672.014613,324.931964 L672.014613,324.931964 L671.057199,325.005259 L671.057199,325.005259 L670.079566,325.072913 L670.079566,325.072913 L669.084915,325.134815 L669.084915,325.134815 L668.076452,325.190851 C667.907401,325.199696 667.737909,325.208291 667.568041,325.216635 L666.544863,325.263662 C666.37376,325.270991 666.202416,325.278064 666.030896,325.284878 L665.000211,325.322644 C664.656305,325.334187 664.312231,325.344676 663.968525,325.354095 L662.939042,325.379118 C662.596603,325.386376 662.255066,325.392543 661.914963,325.397602 L660.899494,325.409433 L660.899494,325.409433 L659.895836,325.414696 C659.729722,325.414696 659.564234,325.414696 659.399438,325.414696 L658.419504,325.409169 C658.095984,325.406237 657.775768,325.402131 657.459389,325.396831 L656.522298,325.377335 L656.522298,325.377335 L655.611432,325.350569 C655.163089,325.335349 654.725783,325.317361 654.301314,325.29654 L653.470027,325.251105 C652.521408,325.193648 651.649223,325.120543 650.876361,325.030986 L650.551152,324.991596 C627.653872,322.090352 619.937588,312.860787 616.93831,284.786769 L616.897445,284.392486 L616.897445,284.392486 L616.820008,283.574342 L616.820008,283.574342 L616.748252,282.718309 C616.713786,282.281129 616.681431,281.830436 616.651157,281.367273 L616.593376,280.424632 L616.593376,280.424632 L616.541093,279.450595 C616.532835,279.285742 616.524803,279.119658 616.516997,278.952382 L616.472865,277.93473 C616.465958,277.76284 616.459276,277.589835 616.452815,277.415754 L616.416716,276.358661 L616.416716,276.358661 L616.385907,275.277593 L616.385907,275.277593 L616.360335,274.174407 L616.360335,274.174407 L616.33995,273.050958 L616.33995,273.050958 L616.324699,271.909101 L616.324699,271.909101 L616.314529,270.750691 L616.314529,270.750691 L616.309226,269.577584 L616.309226,269.577584 L616.309226,268.391635 L616.309226,268.391635 L616.313989,267.194701 L616.313989,267.194701 L616.323625,265.988635 L616.323625,265.988635 L616.338082,264.775295 L616.338082,264.775295 L616.357308,263.556534 L616.357308,263.556534 L616.381251,262.33421 L616.381251,262.33421 L616.409859,261.110176 L616.409859,261.110176 L616.443079,259.886289 L616.443079,259.886289 L616.48086,258.664404 L616.48086,258.664404 L616.52315,257.446376 L616.52315,257.446376 L616.569895,256.234061 L616.569895,256.234061 L616.621045,255.029315 L616.621045,255.029315 L616.676548,253.833992 L616.676548,253.833992 L616.73635,252.649949 L616.73635,252.649949 L616.8004,251.47904 L616.8004,251.47904 L616.868646,250.323122 L616.868646,250.323122 L616.941035,249.184049 L616.941035,249.184049 L617.017516,248.063677 L617.017516,248.063677 L617.098037,246.963862 L617.098037,246.963862 L617.182545,245.886458 L617.182545,245.886458 L617.270988,244.833322 C617.301119,244.486528 617.331897,244.144087 617.363314,243.806309 L617.459471,242.807274 C617.475813,242.643203 617.492313,242.480375 617.50897,242.318828 L617.610775,241.36524 L617.610775,241.36524 L617.716282,240.444268 C617.752062,240.14292 617.78845,239.847317 617.825437,239.557769 L617.938189,238.707598 C617.957277,238.569033 617.976514,238.432059 617.995897,238.296715 L618.113945,237.504514 L618.113945,237.504514 L618.23546,236.75328 C618.255999,236.631591 618.276679,236.511686 618.297501,236.393605 C622.285633,213.776832 634.460949,204.897298 661.517259,204.873046 Z M0,322.514678 L0,207.256464 L30.6704574,207.715518 L30.6704574,207.715518 L34.9111866,207.78753 L34.9111866,207.78753 L38.7780927,207.863982 L38.7780927,207.863982 L40.8278741,207.910075 L40.8278741,207.910075 L44.1491321,207.995674 L44.1491321,207.995674 L46.7399389,208.074735 L46.7399389,208.074735 L48.7283913,208.14515 L48.7283913,208.14515 L50.2129455,208.204728 L50.2129455,208.204728 L51.9422099,208.283588 L51.9422099,208.283588 L53.5380335,208.367689 L53.5380335,208.367689 L54.4346117,208.420827 L54.4346117,208.420827 L55.8326082,208.514127 L55.8326082,208.514127 L56.6162789,208.573085 L56.6162789,208.573085 L57.600235,208.655347 L57.600235,208.655347 L58.5180851,208.741965 L58.5180851,208.741965 L58.9534264,208.78697 L58.9534264,208.78697 L59.5783154,208.856669 L59.5783154,208.856669 L60.1709042,208.929071 L60.1709042,208.929071 L60.9135915,209.02996 L60.9135915,209.02996 L61.4371444,209.109 L61.4371444,209.109 L61.9338239,209.191026 L61.9338239,209.191026 L62.4052583,209.276122 L62.4052583,209.276122 L62.8530756,209.364373 L62.8530756,209.364373 L63.278904,209.455864 L63.278904,209.455864 L63.4162417,209.487095 C78.8006894,213.03512 84.9605318,219.616508 88.2714472,236.043249 C88.433421,236.84687 88.5780408,238.045042 88.7052249,239.552732 L88.7728685,240.405293 L88.7728685,240.405293 L88.8370508,241.31618 L88.8370508,241.31618 L88.8977689,242.282326 L88.8977689,242.282326 L88.9550199,243.300665 L88.9550199,243.300665 L89.0088009,244.368129 L89.0088009,244.368129 L89.0591089,245.481653 L89.0591089,245.481653 L89.105941,246.638169 L89.105941,246.638169 L89.1492943,247.834612 L89.1492943,247.834612 L89.2077949,249.69743 L89.2077949,249.69743 L89.2584515,251.632833 L89.2584515,251.632833 L89.3012542,253.630471 L89.3012542,253.630471 L89.3361932,255.679995 L89.3361932,255.679995 L89.3632585,257.771055 L89.3632585,257.771055 L89.3769229,259.18306 L89.3769229,259.18306 L89.3908433,261.320348 L89.3908433,261.320348 L89.3968637,263.471574 L89.3968637,263.471574 L89.394974,265.626388 L89.394974,265.626388 L89.3893148,267.059812 L89.3893148,267.059812 L89.3742197,269.197606 L89.3742197,269.197606 L89.351188,271.31139 L89.351188,271.31139 L89.3314196,272.702128 L89.3314196,272.702128 L89.3081164,274.074529 L89.3081164,274.074529 L89.2812757,275.425525 L89.2812757,275.425525 L89.2343752,277.405178 L89.2343752,277.405178 L89.1986776,278.689246 L89.1986776,278.689246 L89.1594321,279.941178 L89.1594321,279.941178 L89.1166358,281.157906 L89.1166358,281.157906 L89.0702858,282.336363 L89.0702858,282.336363 L89.020379,283.473484 L89.020379,283.473484 L88.9669126,284.566201 C88.9577048,284.74445 88.9483485,284.92072 88.9388437,285.09495 L88.8800323,286.115312 C88.8699333,286.281118 88.8596856,286.444755 88.8492892,286.606158 L88.7851263,287.547265 L88.7851263,287.547265 L88.717392,288.431703 C88.6015237,289.856838 88.4707624,291.033072 88.325047,291.896519 C85.5167183,308.536732 79.26656,316.051741 64.5911676,320.43342 L64.3702274,320.497266 L64.3702274,320.497266 L64.140484,320.559392 L64.140484,320.559392 L63.7779423,320.649426 L63.7779423,320.649426 L63.39194,320.73577 L63.39194,320.73577 L63.120489,320.791336 L63.120489,320.791336 L62.6905143,320.871772 L62.6905143,320.871772 L62.3877187,320.923501 L62.3877187,320.923501 L61.9076825,320.998332 L61.9076825,320.998332 L61.3946865,321.069946 L61.3946865,321.069946 L61.0332956,321.115954 L61.0332956,321.115954 L60.6556322,321.160613 L60.6556322,321.160613 L60.2610466,321.203955 L60.2610466,321.203955 L59.6360185,321.266569 L59.6360185,321.266569 L58.9692621,321.326401 L58.9692621,321.326401 L58.2585852,321.383559 L58.2585852,321.383559 L57.5017957,321.438154 L57.5017957,321.438154 L56.4172236,321.507145 L56.4172236,321.507145 L55.5443132,321.55618 L55.5443132,321.55618 L54.9328306,321.58764 L54.9328306,321.58764 L53.9696696,321.633066 L53.9696696,321.633066 L52.9494353,321.676473 L52.9494353,321.676473 L51.8699357,321.717969 L51.8699357,321.717969 L50.3346235,321.770512 L50.3346235,321.770512 L49.1083132,321.807973 L49.1083132,321.807973 L46.9154412,321.867023 L46.9154412,321.867023 L44.5274971,321.922277 L44.5274971,321.922277 L41.3901793,321.984283 L41.3901793,321.984283 L37.3330769,322.051797 L37.3330769,322.051797 L32.138906,322.124284 L32.138906,322.124284 L0,322.514678 Z M329.760677,212.144235 L331.10544,207.416142 L377.004796,207.876206 L407.560884,320.433517 L407.560884,320.433517 L408.072597,322.377885 L388.839131,322.380644 L388.839131,322.380644 L385.2278,322.397103 L385.2278,322.397103 L377.013778,322.474254 L377.013778,322.474254 L376.035387,322.471166 L376.035387,322.471166 L375.591796,322.462876 L375.591796,322.462876 L375.333654,322.454307 L375.333654,322.454307 L374.998588,322.436392 L374.998588,322.436392 L374.807505,322.420787 L374.807505,322.420787 L374.640282,322.40202 C374.614306,322.398618 374.589253,322.395076 374.565089,322.391389 L374.43048,322.367509 L374.43048,322.367509 L374.315497,322.339972 C374.121651,322.286014 374.018215,322.21262 373.95823,322.114294 L373.929538,322.058157 L373.929538,322.058157 L373.907771,321.996875 L373.907771,321.996875 L373.884401,321.894876 L373.884401,321.894876 L373.83616,321.559033 L373.83616,321.559033 L373.80705,321.407242 L373.80705,321.407242 L373.64068,320.753522 L373.64068,320.753522 L373.071662,318.407775 L373.071662,318.407775 L372.155136,314.522963 L372.155136,314.522963 L371.377923,311.154145 L371.377923,311.154145 L371.129862,310.063554 L371.129862,310.063554 L368.828897,299.909629 L339.789791,299.909629 L338.230667,307.077667 L338.230667,307.077667 L337.678424,309.573978 L337.678424,309.573978 L336.970809,312.704626 L336.970809,312.704626 L336.302569,315.592748 L336.302569,315.592748 L335.911673,317.235714 L335.911673,317.235714 L334.756808,321.945801 L314.458612,322.23635 L314.458612,322.23635 L308.405269,322.335551 L308.405269,322.335551 L306.271462,322.358428 L306.271462,322.358428 L305.177403,322.358914 L305.177403,322.358914 L304.614477,322.35293 L304.614477,322.35293 L304.275237,322.346068 L304.275237,322.346068 L303.817709,322.331152 L303.817709,322.331152 L303.418494,322.310312 L303.418494,322.310312 L303.182924,322.292917 L303.182924,322.292917 L302.970536,322.272576 C302.937009,322.268933 302.904402,322.265162 302.872693,322.261261 L302.693025,322.236263 L302.693025,322.236263 L302.533803,322.208005 L302.533803,322.208005 L302.393933,322.17636 L302.393933,322.17636 L302.272319,322.141203 L302.272319,322.141203 L302.167868,322.102408 C301.943322,322.007545 301.850001,321.881948 301.825347,321.718438 L301.818292,321.64602 C301.818292,321.633557 301.818292,321.620895 301.818292,321.608031 L301.822357,321.528414 L301.822357,321.528414 L301.838674,321.399656 L301.838674,321.399656 L301.997927,320.579196 L301.997927,320.579196 L302.147533,319.907192 L302.147533,319.907192 L302.325007,319.156375 L302.325007,319.156375 L302.760261,317.384342 L302.760261,317.384342 L303.521333,314.370538 L303.521333,314.370538 L305.87498,305.22561 L305.87498,305.22561 L310.038648,289.122022 L310.038648,289.122022 L312.811281,278.334741 L312.811281,278.334741 L323.58237,236.061825 L323.58237,236.061825 L328.178032,218.175103 L328.178032,218.175103 L329.314365,213.814113 L329.314365,213.814113 L329.760677,212.144235 L329.760677,212.144235 Z M419.119355,322.377885 L419.119355,207.418411 L470.483916,207.876206 L477.297464,253.491886 L477.297464,253.491886 L478.79342,263.338561 L478.79342,263.338561 L480.042095,271.419232 L480.042095,271.419232 L480.90554,276.89999 L480.90554,276.89999 L481.507581,280.633355 L481.507581,280.633355 L481.937234,283.210331 L481.937234,283.210331 L482.164139,284.50564 L482.164139,284.50564 L482.286133,285.156365 L482.286133,285.156365 L482.342522,285.432074 L482.342522,285.432074 L482.385878,285.619028 L482.385878,285.619028 L482.407369,285.693261 C482.41353,285.711193 482.418682,285.722277 482.422809,285.726404 C482.444838,285.748433 482.490597,285.618765 482.558761,285.345269 L482.622643,285.075803 L482.622643,285.075803 L482.697314,284.736992 L482.697314,284.736992 L482.829144,284.101161 L482.829144,284.101161 L482.929976,283.593803 L482.929976,283.593803 L483.161875,282.383711 L483.161875,282.383711 L483.432852,280.920461 L483.432852,280.920461 L483.824268,278.748812 L483.824268,278.748812 L484.367431,275.663084 L484.367431,275.663084 L485.208098,270.783474 L485.208098,270.783474 L486.04434,265.846922 L486.04434,265.846922 L487.104429,259.506295 L487.104429,259.506295 L488.114424,253.39974 L488.114424,253.39974 L489.35224,245.845837 L489.35224,245.845837 L491.007439,235.644212 L491.007439,235.644212 L492.581828,225.847374 L492.581828,225.847374 L493.667317,219.04388 L493.667317,219.04388 L495.509644,207.444128 L547.015573,207.444128 L547.015573,322.377885 L517.649023,322.377885 L517.201929,229.773317 L500.5802,320.001433 L500.5802,320.001433 L500.134693,322.377885 L477.666576,322.382793 L477.666576,322.382793 L471.106814,322.398687 L471.106814,322.398687 L469.219597,322.396686 L469.219597,322.396686 L467.980868,322.387703 L467.980868,322.387703 L466.954086,322.370048 L466.954086,322.370048 L466.37717,322.352495 L466.37717,322.352495 L465.99665,322.335882 L465.99665,322.335882 L465.553965,322.308671 L465.553965,322.308671 L465.26713,322.284151 L465.26713,322.284151 L465.016167,322.255834 L465.016167,322.255834 L464.798509,322.223477 L464.798509,322.223477 L464.670638,322.19954 L464.670638,322.19954 L464.555668,322.173626 L464.555668,322.173626 L464.452838,322.145663 L464.452838,322.145663 L464.361387,322.115579 C464.347051,322.110384 464.333158,322.105098 464.319691,322.099719 L464.243883,322.066317 L464.243883,322.066317 L464.177552,322.030612 L464.177552,322.030612 L464.119939,321.992533 L464.119939,321.992533 L464.070281,321.952007 L464.070281,321.952007 L464.02782,321.908961 C464.0213,321.901573 464.015049,321.894077 464.009049,321.886471 L463.975955,321.83951 L463.975955,321.83951 L463.948155,321.789849 L463.948155,321.789849 L463.924888,321.737416 L463.924888,321.737416 L463.905393,321.682137 L463.905393,321.682137 L463.874681,321.562754 L463.874681,321.562754 L463.802666,321.169553 L463.802666,321.169553 L463.762939,321.001252 L463.762939,321.001252 L463.713229,320.835095 L463.713229,320.835095 L463.673456,320.675029 L463.673456,320.675029 L463.615719,320.414087 L463.615719,320.414087 L463.480814,319.761911 L463.480814,319.761911 L463.169123,318.179606 L463.169123,318.179606 L462.625354,315.334039 L462.625354,315.334039 L462.002594,312.0211 L462.002594,312.0211 L459.715715,299.667083 L459.715715,299.667083 L455.548477,276.856958 L455.548477,276.856958 L454.139578,269.132118 L454.139578,269.132118 L452.427386,259.832847 L452.427386,259.832847 L450.852401,251.375544 L450.852401,251.375544 L449.743501,245.491489 L449.743501,245.491489 L448.614616,239.589221 L448.614616,239.589221 L447.779776,235.323636 L447.779776,235.323636 L447.498322,233.921888 L447.498322,233.921888 L447.21671,232.55552 L447.21671,232.55552 L447.064796,231.845488 L447.064796,231.845488 L446.942896,231.303272 L446.942896,231.303272 L446.852166,230.934972 L446.852166,230.934972 L446.818852,230.817945 C446.813981,230.802233 446.809453,230.788428 446.805271,230.776546 C446.755065,230.6339 446.706373,230.723262 446.659416,231.032769 L446.633976,231.223353 L446.633976,231.223353 L446.608888,231.457174 L446.608888,231.457174 L446.58416,231.733805 L446.58416,231.733805 L446.54776,232.228084 L446.54776,232.228084 L446.512215,232.816279 L446.512215,232.816279 L446.489005,233.259871 L446.489005,233.259871 L446.432747,234.545851 L446.432747,234.545851 L446.389622,235.753164 L446.389622,235.753164 L446.348237,237.11546 L446.348237,237.11546 L446.29905,239.031064 L446.29905,239.031064 L446.243922,241.632975 L446.243922,241.632975 L446.209629,243.545984 L446.209629,243.545984 L446.177378,245.597723 L446.177378,245.597723 L446.126043,249.51179 L446.126043,249.51179 L446.064566,255.785775 L446.064566,255.785775 L446.03474,259.915878 L446.03474,259.915878 L446.003654,265.825393 L446.003654,265.825393 L445.979463,273.821 L445.979463,273.821 L445.908431,322.377885 L419.119355,322.377885 Z M599.729557,207.444161 L599.729557,322.377918 L567.755499,322.377918 L567.755499,207.444161 L599.729557,207.444161 Z M89.9955314,207.444128 L124.122361,207.444128 L132.909865,238.651413 L132.909865,238.651413 L134.413428,243.919179 L134.413428,243.919179 L135.939788,249.204066 L135.939788,249.204066 L137.199789,253.494366 L137.199789,253.494366 L137.983067,256.096521 L137.983067,256.096521 L138.379372,257.366756 L138.379372,257.366756 L138.542999,257.86776 L138.542999,257.86776 L138.643126,258.157517 L138.643126,258.157517 L138.682587,258.264202 L138.682587,258.264202 L138.739676,258.399044 C138.750247,258.419452 138.75801,258.429777 138.762895,258.429777 C138.766152,258.429777 138.770905,258.425188 138.777129,258.416082 L138.800191,258.375283 L138.800191,258.375283 L138.831936,258.307809 L138.831936,258.307809 L138.920892,258.094546 L138.920892,258.094546 L139.155233,257.47901 L139.155233,257.47901 L139.594903,256.260123 L139.594903,256.260123 L140.177953,254.596452 L140.177953,254.596452 L141.155445,251.753793 L141.155445,251.753793 L143.213129,245.664297 L143.213129,245.664297 L145.289782,239.434726 L145.289782,239.434726 L147.434362,232.936952 L147.434362,232.936952 L155.809747,207.444128 L176.289871,207.448451 L176.289871,207.448451 L178.69703,207.458841 L178.69703,207.458841 L180.490783,207.474569 L180.490783,207.474569 L182.290416,207.502904 L182.290416,207.502904 L183.395311,207.530929 L183.395311,207.530929 L184.177656,207.55866 L184.177656,207.55866 L184.874601,207.591576 L184.874601,207.591576 L185.490653,207.630104 L185.490653,207.630104 L185.90232,207.66294 L185.90232,207.66294 L186.272923,207.699354 L186.272923,207.699354 L186.604365,207.739524 L186.604365,207.739524 L186.898548,207.783633 L186.898548,207.783633 L187.07491,207.815315 L187.07491,207.815315 L187.236121,207.848881 L187.236121,207.848881 L187.382746,207.884384 C187.405999,207.890466 187.428668,207.89663 187.450764,207.902879 L187.576565,207.941387 L187.576565,207.941387 L187.689188,207.981967 L187.689188,207.981967 L187.789197,208.02467 C187.804845,208.031967 187.819991,208.039355 187.834647,208.046835 L187.916791,208.092824 L187.916791,208.092824 L187.98773,208.141071 C187.99865,208.149303 188.009128,208.157632 188.019173,208.166058 L188.074361,208.217791 C188.091093,208.235431 188.106192,208.253469 188.119753,208.271915 L188.155911,208.328484 L188.155911,208.328484 L188.183401,208.38755 L188.183401,208.38755 L188.202785,208.449168 L188.202785,208.449168 L188.214628,208.51339 L188.214628,208.51339 L188.219684,208.580271 C188.219684,208.591642 188.219684,208.603126 188.219684,208.614724 L188.214938,208.685692 L188.214938,208.685692 L188.204822,208.759451 L188.204822,208.759451 L188.189701,208.836055 L188.189701,208.836055 L188.170138,208.915558 L188.170138,208.915558 L188.149554,208.986593 L188.149554,208.986593 L188.117765,209.078066 L188.117765,209.078066 L187.872036,209.715923 L187.872036,209.715923 L187.264117,211.225297 L187.264117,211.225297 L185.722879,214.976962 L185.722879,214.976962 L183.365033,220.657622 L183.365033,220.657622 L177.415388,234.881798 L177.415388,234.881798 L171.206887,249.636015 L171.206887,249.636015 L154.685287,288.803328 L154.685287,322.377885 L122.711236,322.377885 L122.707996,301.229945 L122.707996,301.229945 L122.695813,298.288542 L122.695813,298.288542 L122.681249,296.672032 L122.681249,296.672032 L122.664678,295.491048 L122.664678,295.491048 L122.643006,294.402573 L122.643006,294.402573 L122.623001,293.642904 L122.623001,293.642904 L122.590786,292.700233 L122.590786,292.700233 L122.562102,292.042238 L122.562102,292.042238 L122.517286,291.224893 L122.517286,291.224893 L122.47838,290.653213 L122.47838,290.653213 L122.43462,290.113824 L122.43462,290.113824 L122.385724,289.603905 L122.385724,289.603905 L122.350133,289.278938 L122.350133,289.278938 L122.312048,288.964979 L122.312048,288.964979 L122.271387,288.661193 L122.271387,288.661193 L122.228065,288.366743 L122.228065,288.366743 L122.181998,288.080794 L122.181998,288.080794 L122.133102,287.80251 L122.133102,287.80251 L122.081293,287.531055 L122.081293,287.531055 L122.026488,287.265594 L122.026488,287.265594 L121.938477,286.87681 L121.938477,286.87681 L121.84325,286.496811 L121.84325,286.496811 L121.740525,286.122773 L121.740525,286.122773 L121.667736,285.875334 L121.667736,285.875334 L121.551883,285.504966 L121.551883,285.504966 L121.427775,285.133038 L121.427775,285.133038 L121.29513,284.756729 L121.29513,284.756729 L121.104498,284.243294 L121.104498,284.243294 L120.950828,283.845794 L120.950828,283.845794 L120.673499,283.15127 L120.673499,283.15127 L111.40905,260.338114 L111.40905,260.338114 L104.073936,242.226709 L104.073936,242.226709 L89.9955314,207.444128 Z M198.757631,207.444128 L245.107238,207.444128 L255.231767,256.288653 L255.231767,256.288653 L256.874289,264.132639 L256.874289,264.132639 L258.156317,270.19334 L258.156317,270.19334 L259.750598,277.644571 L259.750598,277.644571 L260.954593,283.194449 L260.954593,283.194449 L262.121251,288.484202 L262.121251,288.484202 L262.678229,290.965287 L262.678229,290.965287 L263.173322,293.134384 L263.173322,293.134384 L263.666606,295.242859 L263.666606,295.242859 L263.959536,296.4532 L263.959536,296.4532 L264.199951,297.403438 L264.199951,297.403438 L264.31789,297.843711 L264.31789,297.843711 L264.3852,298.081505 L264.3852,298.081505 L264.468767,298.352683 L264.468767,298.352683 L264.512633,298.475333 C264.532161,298.52487 264.548062,298.556628 264.560239,298.570174 C264.584529,298.597195 264.608537,298.551572 264.632211,298.436502 L264.655772,298.298402 L264.655772,298.298402 L264.679098,298.114713 L264.679098,298.114713 L264.713624,297.755255 L264.713624,297.755255 L264.736314,297.460702 L264.736314,297.460702 L264.76983,296.938278 L264.76983,296.938278 L264.813489,296.094995 L264.813489,296.094995 L264.855885,295.089245 L264.855885,295.089245 L264.896927,293.926707 L264.896927,293.926707 L264.946183,292.261708 L264.946183,292.261708 L265.010994,289.555186 L265.010994,289.555186 L265.07052,286.438099 L265.07052,286.438099 L265.145398,281.33328 L265.145398,281.33328 L265.201496,276.149049 L265.201496,276.149049 L265.245798,270.473082 L265.245798,270.473082 L265.268258,266.447875 L265.268258,266.447875 L265.290552,260.096156 L265.290552,260.096156 L265.298132,254.18023 L265.298132,254.18023 L265.29823,207.444128 L290.358977,207.444128 L290.358977,322.377885 L262.397133,322.375115 L262.397133,322.375115 L258.003415,322.362943 L258.003415,322.362943 L255.102674,322.344106 L255.102674,322.344106 L252.948684,322.319686 L252.948684,322.319686 L251.372231,322.292492 L251.372231,322.292492 L250.245486,322.265708 L250.245486,322.265708 L249.231577,322.234029 L249.231577,322.234029 L248.32437,322.197063 L248.32437,322.197063 L247.517729,322.154421 L247.517729,322.154421 L246.975056,322.118477 L246.975056,322.118477 L246.482912,322.078955 L246.482912,322.078955 L246.181611,322.050537 L246.181611,322.050537 L245.767933,322.004683 L245.767933,322.004683 L245.397884,321.95481 L245.397884,321.95481 L245.174145,321.919247 C245.138333,321.913162 245.103248,321.906997 245.068876,321.900752 L244.77832,321.842346 L244.77832,321.842346 L244.604701,321.80091 L244.604701,321.80091 L244.446255,321.757419 L244.446255,321.757419 L244.302215,321.711824 C244.279366,321.704047 244.257086,321.69618 244.235358,321.688222 L244.111489,321.639379 L244.111489,321.639379 L244.00011,321.588309 L244.00011,321.588309 L243.900453,321.534963 C243.884778,321.52588 243.869559,321.5167 243.85478,321.507422 L243.771269,321.450572 C243.758189,321.440898 243.745517,321.431125 243.733238,321.42125 L243.664147,321.360785 L243.664147,321.360785 L243.603711,321.297848 C243.584923,321.276452 243.567449,321.254636 243.551163,321.232392 L243.505736,321.164366 L243.505736,321.164366 L243.466664,321.093722 L243.466664,321.093722 L243.43318,321.020412 L243.43318,321.020412 L243.404516,320.944386 L243.404516,320.944386 L243.371637,320.834986 L243.371637,320.834986 L243.250078,320.310884 L243.250078,320.310884 L242.693413,317.73528 L242.693413,317.73528 L241.519644,312.177266 L241.519644,312.177266 L238.872743,299.498797 L238.872743,299.498797 L232.516623,268.801164 L232.516623,268.801164 L230.635963,259.815839 L230.635963,259.815839 L228.803766,251.16989 L228.803766,251.16989 L227.518362,245.188853 L227.518362,245.188853 L226.769122,241.749963 L226.769122,241.749963 L226.043977,238.474125 L226.043977,238.474125 L225.401554,235.649736 L225.401554,235.649736 L225.150789,234.587187 L225.150789,234.587187 L224.986269,233.915529 L224.986269,233.915529 L224.855213,233.408849 L224.855213,233.408849 L224.779651,233.140669 L224.779651,233.140669 L224.740399,233.016522 L224.740399,233.016522 L224.710233,232.936952 L224.710233,232.936952 C224.672634,232.853091 224.635944,232.886378 224.600241,233.032763 L224.57365,233.163694 L224.57365,233.163694 L224.547436,233.336658 L224.547436,233.336658 L224.521606,233.551273 L224.521606,233.551273 L224.483597,233.950463 L224.483597,233.950463 L224.446494,234.441234 L224.446494,234.441234 L224.41032,235.022304 L224.41032,235.022304 L224.363577,235.935313 L224.363577,235.935313 L224.30762,237.294489 L224.30762,237.294489 L224.254517,238.890253 L224.254517,238.890253 L224.204379,240.716671 L224.204379,240.716671 L224.139382,243.649855 L224.139382,243.649855 L224.096822,246.00563 L224.096822,246.00563 L224.05018,249.109866 L224.05018,249.109866 L224.00212,253.100862 L224.00212,253.100862 L223.950861,258.791601 L223.950861,258.791601 L223.91206,265.079683 L223.91206,265.079683 L223.888561,271.142585 L223.888561,271.142585 L223.876864,276.793251 L223.876864,276.793251 L223.818403,322.377885 L198.757631,322.377885 L198.757631,207.444128 Z M31.9740543,227.961989 L31.9740543,301.637959 L38.7575375,301.637959 L38.7575375,301.637959 L39.249415,301.63198 L39.249415,301.63198 L39.7412247,301.621551 L39.7412247,301.621551 L40.231305,301.606191 L40.231305,301.606191 L40.717994,301.58609 L40.717994,301.58609 L41.1996302,301.561439 L41.1996302,301.561439 L41.6745519,301.532431 L41.6745519,301.532431 L42.1410972,301.499256 L42.1410972,301.499256 L42.5976046,301.462106 L42.5976046,301.462106 L43.2599095,301.399345 L43.2599095,301.399345 L43.8902819,301.328716 L43.8902819,301.328716 L44.2900204,301.277577 C44.3551608,301.268796 44.4195367,301.25989 44.4831136,301.250863 L44.8547093,301.195266 L44.8547093,301.195266 L45.2054659,301.136938 L45.2054659,301.136938 L45.5337219,301.076068 C45.5864638,301.065722 45.638199,301.055278 45.6888928,301.04474 L45.980282,300.980418 L45.980282,300.980418 L46.2450163,300.914032 C46.537678,300.835454 46.7725265,300.753053 46.9376877,300.668199 C50.6757334,298.747746 53.6443097,295.146854 55.0146595,290.870813 L55.0783365,290.666454 L55.0783365,290.666454 L55.1710835,290.346985 L55.1710835,290.346985 L55.231102,290.124965 L55.231102,290.124965 L55.2896962,289.895377 L55.2896962,289.895377 L55.3749658,289.536176 L55.3749658,289.536176 L55.4300971,289.28641 L55.4300971,289.28641 L55.4838823,289.02807 L55.4838823,289.02807 L55.5363438,288.760867 L55.5363438,288.760867 L55.612603,288.342818 L55.612603,288.342818 L55.7098577,287.751718 L55.7098577,287.751718 L55.7795782,287.281858 L55.7795782,287.281858 L55.8683884,286.618154 L55.8683884,286.618154 L55.952619,285.909798 L55.952619,285.909798 L56.0128942,285.347845 L56.0128942,285.347845 L56.1080567,284.34993 L56.1080567,284.34993 L56.1969019,283.271462 L56.1969019,283.271462 L56.2797789,282.107948 L56.2797789,282.107948 L56.3420181,281.112884 L56.3420181,281.112884 L56.4290252,279.507806 L56.4290252,279.507806 L56.5216207,277.45535 L56.5216207,277.45535 L56.6168643,274.857402 L56.6168643,274.857402 L56.6920206,272.349609 L56.6920206,272.349609 L56.7511253,270.015991 L56.7511253,270.015991 L56.7970922,267.935578 L56.7970922,267.935578 L56.833298,266.020537 L56.833298,266.020537 L56.8606237,264.167411 L56.8606237,264.167411 L56.8786118,262.375196 C57.0848952,234.769058 53.6850945,229.218821 38.766937,228.355218 L31.9740543,227.961989 Z M347.129859,256.485408 L342.458294,280.033864 L354.119974,280.032903 L354.119974,280.032903 L355.469685,280.022325 L355.469685,280.022325 L356.254981,280.010599 L356.254981,280.010599 L357.019202,279.995029 L357.019202,279.995029 L358.001594,279.968553 L358.001594,279.968553 L358.708119,279.94461 L358.708119,279.94461 L359.60563,279.907529 L359.60563,279.907529 L360.447496,279.864891 L360.447496,279.864891 L361.228525,279.817061 L361.228525,279.817061 L361.771248,279.778001 L361.771248,279.778001 L362.587297,279.707285 L362.587297,279.707285 L363.020261,279.661738 L363.020261,279.661738 L363.283942,279.630169 L363.283942,279.630169 L363.526895,279.59769 L363.526895,279.59769 L363.85104,279.547366 L363.85104,279.547366 L364.039334,279.512812 L364.039334,279.512812 L364.204629,279.477508 L364.204629,279.477508 L364.346274,279.441499 L364.346274,279.441499 L364.463622,279.404832 C364.603598,279.355523 364.677049,279.30458 364.677049,279.252488 C364.677049,279.227033 364.672536,279.183418 364.663689,279.122376 L364.624321,278.887704 L364.624321,278.887704 L364.560007,278.55287 L364.560007,278.55287 L364.471811,278.122275 L364.471811,278.122275 L364.297063,277.306456 L364.297063,277.306456 L364.074562,276.299926 L364.074562,276.299926 L363.607357,274.238905 L363.607357,274.238905 L362.90817,271.217655 L362.90817,271.217655 L361.937724,267.087407 L361.937724,267.087407 L360.680436,261.799722 L360.680436,261.799722 L359.330285,256.17668 L359.330285,256.17668 L357.615693,249.105288 L357.615693,249.105288 L356.463602,244.399871 L356.463602,244.399871 L355.547386,240.691405 L355.547386,240.691405 L354.727282,237.408111 L354.727282,237.408111 L354.032005,234.66879 L354.032005,234.66879 L353.832948,233.8971 L353.832948,233.8971 L353.490267,232.592244 L353.490267,232.592244 L353.34877,232.067879 L353.34877,232.067879 L353.17682,231.453785 L353.17682,231.453785 L353.090601,231.165775 C353.040995,231.00736 353.007369,230.917107 352.991143,230.900882 L352.954618,230.867035 L352.954618,230.867035 L352.918415,230.839676 L352.918415,230.839676 L352.882306,230.819789 C352.834125,230.798694 352.785595,230.800157 352.734306,230.834698 L352.695285,230.86697 L352.695285,230.86697 L352.655003,230.912633 C352.648172,230.921414 352.641279,230.930794 352.634319,230.940794 L352.591723,231.008392 L352.591723,231.008392 L352.547302,231.091846 L352.547302,231.091846 L352.50083,231.192142 L352.50083,231.192142 L352.452081,231.310267 L352.452081,231.310267 L352.400828,231.447207 L352.400828,231.447207 L352.318762,231.690053 L352.318762,231.690053 L352.260263,231.878345 L352.260263,231.878345 L352.166268,232.202842 L352.166268,232.202842 L352.064099,232.580767 L352.064099,232.580767 L351.952994,233.015451 L351.952994,233.015451 L351.873583,233.338415 L351.873583,233.338415 L351.745889,233.875091 L351.745889,233.875091 L351.558435,234.693332 L351.558435,234.693332 L351.293938,235.892237 L351.293938,235.892237 L350.992615,237.301196 L350.992615,237.301196 L350.265366,240.81092 L350.265366,240.81092 L349.245233,245.860399 L349.245233,245.860399 L347.129859,256.485408 L347.129859,256.485408 Z M57.1488725,81.0500235 L57.5540384,81.4227274 L57.5540384,81.4227274 L57.9474882,81.7983584 C62.1470533,85.8851713 64.3160135,90.566345 65.4916199,98.41161 L65.5973463,99.1448499 L65.5973463,99.1448499 L65.6976113,99.8965126 C65.7301428,100.150187 65.7617944,100.407007 65.7925961,100.667047 L65.8824821,101.456902 L65.8824821,101.456902 L65.9674505,102.266528 L65.9674505,102.266528 L66.0476827,103.096373 L66.0476827,103.096373 L66.5887291,108.929477 L49.2573266,108.929477 L49.2573266,103.927603 C49.2573266,94.1323012 43.5246327,87.3253873 35.2751571,87.3253873 C27.1533896,87.3253873 22.0452274,91.2829276 19.3276418,99.6806982 C19.0683289,100.482016 18.8277992,101.975715 18.6099562,103.982542 L18.5179952,104.873504 C18.4878122,105.180615 18.4581035,105.497675 18.4288805,105.824162 L18.3426804,106.831381 L18.3426804,106.831381 L18.259463,107.892025 L18.259463,107.892025 L18.1792967,109.002959 L18.1792967,109.002959 L18.1022498,110.161046 C18.0896724,110.357816 18.0772279,110.55642 18.0649175,110.756792 L17.9926777,111.979731 L17.9926777,111.979731 L17.923728,113.241984 L17.923728,113.241984 L17.8581367,114.540417 L17.8581367,114.540417 L17.795972,115.871893 L17.795972,115.871893 L17.7092993,117.924204 L17.7092993,117.924204 L17.656,119.324569 L17.656,119.324569 L17.6063663,120.747004 L17.6063663,120.747004 L17.5604665,122.188372 L17.5604665,122.188372 L17.518369,123.645537 L17.518369,123.645537 L17.4801419,125.115364 L17.4801419,125.115364 L17.4458537,126.594717 L17.4458537,126.594717 L17.4155724,128.080461 L17.4155724,128.080461 L17.3778132,130.314199 L17.3778132,130.314199 L17.3578484,131.8022 L17.3578484,131.8022 L17.3358838,134.024627 L17.3358838,134.024627 L17.3266621,135.495289 L17.3266621,135.495289 L17.3218572,136.953527 L17.3218572,136.953527 L17.3215373,138.396207 L17.3215373,138.396207 L17.3257708,139.820192 L17.3257708,139.820192 L17.3346258,141.222346 L17.3346258,141.222346 L17.3481707,142.599535 C17.3508228,142.826812 17.3536732,143.052917 17.3567233,143.277787 L17.3774311,144.611648 L17.3774311,144.611648 L17.4029994,145.912703 C17.4076697,146.126638 17.4125453,146.339075 17.4176277,146.54995 L17.450615,147.795919 L17.450615,147.795919 L17.4886337,149.001244 C17.4953932,149.19857 17.5023652,149.394072 17.5095511,149.587685 L17.5552447,150.726164 C17.5713391,151.097751 17.5883005,151.461257 17.6061403,151.816161 L17.6623062,152.854538 C17.6721102,153.023126 17.6821366,153.189431 17.6923869,153.35339 L17.7565863,154.308461 C17.8457977,155.542946 17.9495184,156.618877 18.0684768,157.502807 L18.1212248,157.887168 L18.1212248,157.887168 L18.2310167,158.641997 L18.2310167,158.641997 L18.3466412,159.378434 C18.3861688,159.620865 18.4266895,159.860257 18.4682243,160.096636 L18.5958917,160.796761 L18.5958917,160.796761 L18.7297694,161.478967 C20.7623041,171.466246 24.8860301,175.591704 32.9496242,176.174982 C43.5852432,176.944284 49.2405635,171.191178 49.9534104,158.87717 L50.343555,152.137654 L59.618239,152.135973 L59.618239,152.135973 L62.18861,152.11855 L62.18861,152.11855 L62.95494,152.119575 L62.95494,152.119575 L63.594723,152.129364 L63.594723,152.129364 L63.8922264,152.138431 L63.8922264,152.138431 L64.1751886,152.150791 L64.1751886,152.150791 L64.4438978,152.166829 L64.4438978,152.166829 L64.6986421,152.186928 L64.6986421,152.186928 L64.9397098,152.211473 L64.9397098,152.211473 L65.1673889,152.240848 L65.1673889,152.240848 L65.3819677,152.275437 C65.6247798,152.318982 65.8414336,152.373957 66.0339885,152.443107 L66.1931817,152.505913 C66.8578608,152.793671 67.1981883,153.287802 67.3196811,154.128962 L67.3438812,154.329301 C67.3472832,154.363739 67.3503734,154.398706 67.3531579,154.43421 L67.3662445,154.65375 C67.3678302,154.691436 67.3691221,154.729675 67.3701264,154.768476 L67.3727477,155.008081 L67.3727477,155.008081 L67.3687525,155.261543 L67.3687525,155.261543 L67.3584287,155.529246 L67.3584287,155.529246 L67.3420647,155.811575 L67.3420647,155.811575 L67.3199486,156.108913 L67.3199486,156.108913 L67.2766195,156.583903 L67.2766195,156.583903 L67.2014045,157.273343 L67.2014045,157.273343 L67.1083681,158.029735 L67.1083681,158.029735 L66.5309749,162.344432 C65.5252567,170.089401 63.4553583,174.940639 59.0581003,179.80048 L58.6421605,180.252835 L58.6421605,180.252835 L58.2867539,180.628068 L58.2867539,180.628068 L57.932112,180.991799 C57.8730423,181.051471 57.8139847,181.110672 57.7549291,181.169403 L57.4005421,181.516196 C57.2823688,181.629938 57.1641246,181.741832 57.0457304,181.851907 L56.6900182,182.176703 L56.6900182,182.176703 L56.3329297,182.490752 C54.4835978,184.085867 52.5601074,185.257382 50.2671775,186.109415 L49.8186922,186.270363 C48.6100065,186.689069 47.2978312,187.024459 45.8415679,187.290846 L45.2886358,187.387535 C45.1953283,187.40312 45.1014381,187.418443 45.0069554,187.433506 L44.4328688,187.520807 L44.4328688,187.520807 L43.8440845,187.602057 L43.8440845,187.602057 L43.2401268,187.677426 C43.0362258,187.701588 42.8297166,187.724797 42.6205199,187.747081 L41.9847881,187.81119 C41.8774626,187.821422 41.7694454,187.83143 41.6607266,187.841217 L40.9999152,187.897321 C40.8883504,187.90624 40.7760641,187.914945 40.6630464,187.92344 L39.9760851,187.971917 L39.9760851,187.971917 L39.2710957,188.015518 L39.2710957,188.015518 L38.5476026,188.054412 L38.5476026,188.054412 L37.8051299,188.088767 L37.8051299,188.088767 L37.043202,188.11875 L37.043202,188.11875 L36.2613429,188.144528 L36.2613429,188.144528 L35.0807384,188.176089 L35.0807384,188.176089 L33.9677847,188.20079 L33.9677847,188.20079 L32.9230041,188.218416 L32.9230041,188.218416 L32.2621485,188.226034 L32.2621485,188.226034 L31.3210485,188.23096 L31.3210485,188.23096 L30.4361923,188.227721 L30.4361923,188.227721 L29.8753255,188.220823 L29.8753255,188.220823 L29.3361421,188.209994 L29.3361421,188.209994 L28.8173167,188.195113 L28.8173167,188.195113 L28.3175238,188.176057 L28.3175238,188.176057 L27.835438,188.152706 L27.835438,188.152706 L27.3697336,188.12494 L27.3697336,188.12494 L26.9190853,188.092636 L26.9190853,188.092636 L26.4821675,188.055674 L26.4821675,188.055674 L26.0576548,188.013933 L26.0576548,188.013933 L25.6442216,187.967291 L25.6442216,187.967291 L25.2405425,187.915627 L25.2405425,187.915627 L24.845292,187.858821 L24.845292,187.858821 L24.4571446,187.796751 L24.4571446,187.796751 L24.0747749,187.729297 L24.0747749,187.729297 L23.6968572,187.656336 L23.6968572,187.656336 L23.3220662,187.577749 L23.3220662,187.577749 L22.9490763,187.493413 L22.9490763,187.493413 L22.576562,187.403208 L22.576562,187.403208 L22.203198,187.307012 L22.203198,187.307012 L21.8276586,187.204706 L21.8276586,187.204706 L21.4486184,187.096166 L21.4486184,187.096166 L21.0647519,186.981273 L21.0647519,186.981273 L20.6747337,186.859905 L20.6747337,186.859905 L20.2772381,186.731942 L20.2772381,186.731942 C13.921093,184.654203 8.40462705,180.106896 5.65312355,174.677073 L5.44082074,174.251011 L5.44082074,174.251011 L5.23400198,173.821329 L5.23400198,173.821329 L5.03259112,173.387527 L5.03259112,173.387527 L4.83651202,172.9491 L4.83651202,172.9491 L4.64568856,172.505547 C4.61431839,172.431166 4.58316403,172.356551 4.5522239,172.28169 L4.36914113,171.829503 C4.30896198,171.677738 4.24962705,171.52491 4.19112365,171.370933 L4.01809531,170.905476 C3.98966879,170.827297 3.96144697,170.748812 3.93342828,170.670007 L3.76774091,170.193277 C3.74052837,170.113157 3.71351577,170.032698 3.68670154,169.95189 L3.52818383,169.462756 L3.52818383,169.462756 L3.37435072,168.964724 L3.37435072,168.964724 L3.22512607,168.457291 C3.15165318,168.201141 3.0798799,167.941277 3.00976342,167.677416 L2.87172682,167.144282 C2.84908467,167.05451 2.82662344,166.964274 2.80434153,166.873561 L2.67278936,166.323498 C2.65121842,166.230842 2.62982365,166.13769 2.60860344,166.04403 L2.48336438,165.475907 L2.48336438,165.475907 L2.36223889,164.895114 C2.34238987,164.797232 2.32270908,164.698801 2.30319494,164.59981 L2.18809704,163.999072 C2.16924311,163.897803 2.15055264,163.795953 2.13202406,163.693512 L2.02278244,163.071697 C2.00489504,162.966852 1.98716635,162.861395 1.96959478,162.755316 L1.86603814,162.111292 C1.84908872,162.002682 1.83229325,161.89343 1.81565014,161.783524 L1.71760717,161.11616 L1.71760717,161.11616 L1.6231448,160.432608 C1.60769523,160.317306 1.59239168,160.201308 1.57723256,160.084604 L1.48799835,159.375827 L1.48799835,159.375827 L1.4021544,158.649605 L1.4021544,158.649605 L1.31962457,157.905435 L1.31962457,157.905435 L1.24033273,157.142813 L1.24033273,157.142813 L1.16420275,156.361238 L1.16420275,156.361238 L1.09115847,155.560207 L1.09115847,155.560207 L1.02112377,154.739216 L1.02112377,154.739216 L0.95402251,153.897764 L0.95402251,153.897764 L0.889778547,153.035346 L0.889778547,153.035346 L0.79860349,151.701311 L0.79860349,151.701311 L0.741169676,150.784282 L0.741169676,150.784282 L0.68632668,149.844528 L0.68632668,149.844528 L0.608753421,148.391189 L0.608753421,148.391189 L0.53658123,146.883891 L0.53658123,146.883891 L0.469553143,145.320938 L0.469553143,145.320938 L0.407412197,143.700632 L0.407412197,143.700632 L0.349901428,142.021277 L0.349901428,142.021277 L0.29676387,140.281177 L0.29676387,140.281177 L0.263641499,139.086523 L0.263641499,139.086523 C-0.757510064,100.794669 3.1067866,86.0278269 15.9870268,79.0019154 C28.2504365,72.3124732 48.5981074,73.3249214 57.1488725,81.0500235 Z M429.161913,78.2650315 C436.988273,82.0941116 441.587611,90.4637841 441.587611,100.87677 L441.587611,105.472823 L425.406457,105.472823 L424.839103,100.645494 C424.816611,100.45412 424.792992,100.265077 424.768231,100.078347 L424.690497,99.5250817 C424.676963,99.4340221 424.66314,99.3435367 424.649023,99.2536236 L424.560799,98.7209936 C423.138375,90.5711319 419.148147,87.3337187 410.821557,87.3286176 C406.774115,87.3260899 404.865776,87.7813676 402.612001,89.2869812 C394.028575,95.0210803 394.83762,109.506968 404.118594,116.262443 L404.662403,116.651295 L404.662403,116.651295 L405.670279,117.352866 L405.670279,117.352866 L406.929891,118.213845 L406.929891,118.213845 L409.322452,119.825171 L409.322452,119.825171 L412.084696,121.661942 L412.084696,121.661942 L414.23788,123.080687 L414.23788,123.080687 L416.526712,124.57739 L416.526712,124.57739 L420.043574,126.860228 L420.043574,126.860228 L421.721902,127.956924 L421.721902,127.956924 L423.66616,129.240163 L423.66616,129.240163 L425.104348,130.201573 L425.104348,130.201573 L426.443414,131.109421 L426.443414,131.109421 L427.38548,131.757587 L427.38548,131.757587 L428.276396,132.379602 L428.276396,132.379602 L428.8429,132.780591 L428.8429,132.780591 L429.652956,133.362807 L429.652956,133.362807 L430.167381,133.738843 L430.167381,133.738843 L430.661999,134.105781 L430.661999,134.105781 L431.137394,134.464125 L431.137394,134.464125 L431.594152,134.814382 L431.594152,134.814382 L432.032858,135.157057 L432.032858,135.157057 L432.454097,135.492653 C432.52288,135.548024 432.59096,135.603122 432.658349,135.657955 L433.054484,135.983882 L433.054484,135.983882 L433.434615,136.303994 C433.496669,136.356889 433.55808,136.409564 433.618862,136.462027 L433.976083,136.774363 L433.976083,136.774363 L434.318763,137.082146 L434.318763,137.082146 L434.647486,137.385882 L434.647486,137.385882 L434.962838,137.686075 C435.014315,137.73584 435.065259,137.785478 435.115682,137.835001 L435.412074,138.130827 L435.412074,138.130827 L435.696557,138.424373 C435.789465,138.521898 435.880485,138.619127 435.969716,138.716144 L436.232137,139.006645 L436.232137,139.006645 L436.484404,139.296381 C436.525635,139.344635 436.566467,139.392878 436.606913,139.44112 L436.845047,139.730656 C436.883996,139.778939 436.922582,139.827244 436.960819,139.875579 L437.186136,140.16605 L437.186136,140.16605 L437.403641,140.457777 C437.474905,140.555284 437.544965,140.653085 437.613917,140.751263 L437.817551,141.047015 L437.817551,141.047015 L438.015126,141.345537 L438.015126,141.345537 L438.207229,141.647334 C438.238823,141.697935 438.270213,141.748693 438.301411,141.799619 L438.486402,142.107276 L438.486402,142.107276 L438.667383,142.419471 L438.667383,142.419471 L438.844939,142.736708 L438.844939,142.736708 L439.019655,143.059493 L439.019655,143.059493 L439.192116,143.388331 L439.192116,143.388331 L439.362908,143.723727 L439.362908,143.723727 L439.63886,144.284515 L439.63886,144.284515 L439.842685,144.710879 L439.842685,144.710879 L440.035266,145.125007 L440.035266,145.125007 L440.216974,145.528685 C440.246373,145.595193 440.275334,145.661341 440.303866,145.727164 L440.469959,146.118521 C440.496802,146.183199 440.523231,146.247628 440.549252,146.311845 L440.700566,146.694902 L440.700566,146.694902 L440.842489,147.07466 C441.140087,147.895185 441.37418,148.705069 441.561748,149.586128 L441.645076,149.998123 L441.645076,149.998123 L441.722168,150.422012 C441.734517,150.493751 441.746623,150.56606 441.758491,150.638976 L441.826925,151.08406 C441.837878,151.159555 441.848609,151.235732 441.859128,151.312627 L441.919737,151.782928 L441.919737,151.782928 L441.975595,152.272273 C441.993463,152.438762 442.010602,152.608722 442.027072,152.782452 L442.074538,153.315251 L442.074538,153.315251 L442.118365,153.872458 L442.118365,153.872458 L442.178094,154.757944 L442.178094,154.757944 L442.231721,155.708403 L442.231721,155.708403 L442.264701,156.381117 L442.264701,156.381117 L442.310942,157.453271 L442.310942,157.453271 L442.340092,158.271755 C442.356759,158.81084 442.367858,159.3369 442.373185,159.85064 L442.376822,160.612099 L442.376822,160.612099 L442.371648,161.355608 L442.371648,161.355608 L442.357509,162.081695 C442.155234,169.855187 440.347924,174.654962 436.058967,179.508111 L435.684383,179.925578 L435.684383,179.925578 L435.336587,180.303724 L435.336587,180.303724 L434.990968,180.670403 L434.990968,180.670403 L434.647037,181.025787 C434.589828,181.084086 434.53267,181.141921 434.475551,181.199296 L434.133232,181.538056 C434.076231,181.593606 434.019249,181.648702 433.962277,181.703349 L433.620469,182.025869 C433.563492,182.078733 433.506503,182.131155 433.449493,182.183139 L433.107094,182.489802 C433.049957,182.540045 432.992779,182.589856 432.935548,182.639239 L432.591456,182.930431 C430.75209,184.456362 428.838449,185.55129 426.516213,186.331674 L426.075923,186.474338 C425.92751,186.520683 425.777418,186.565828 425.625568,186.609801 L425.164656,186.738233 C425.009205,186.77989 424.851914,186.820405 424.692699,186.859804 L424.209207,186.974686 C423.964495,187.030482 423.715274,187.083835 423.461268,187.134838 L422.946795,187.233742 L422.946795,187.233742 L422.419072,187.326552 L422.419072,187.326552 L421.87761,187.413441 L421.87761,187.413441 L421.321919,187.494579 L421.321919,187.494579 L420.751509,187.570135 L420.751509,187.570135 L420.165892,187.640281 L420.165892,187.640281 L419.564576,187.705187 L419.564576,187.705187 L418.947072,187.765025 C418.842779,187.774585 418.73779,187.78394 418.632097,187.793096 L417.989393,187.845649 L417.989393,187.845649 L417.329277,187.89356 L417.329277,187.89356 L416.65126,187.936999 L416.65126,187.936999 L415.954851,187.976136 L415.954851,187.976136 L415.23956,188.011142 L415.23956,188.011142 L414.504899,188.042188 L414.504899,188.042188 L413.750377,188.069445 L413.750377,188.069445 L412.580284,188.103597 L412.580284,188.103597 L411.459523,188.128291 L411.459523,188.128291 L410.198835,188.146353 L410.198835,188.146353 L408.940597,188.154143 L408.940597,188.154143 L408.004229,188.154143 L408.004229,188.154143 L406.773092,188.144203 L406.773092,188.144203 L405.570477,188.125707 L405.570477,188.125707 L404.405865,188.098368 L404.405865,188.098368 L403.840774,188.0815 L403.840774,188.0815 L403.017988,188.052336 L403.017988,188.052336 L402.228578,188.018679 L402.228578,188.018679 L401.476545,187.98069 L401.476545,187.98069 L400.765888,187.938529 L400.765888,187.938529 L400.100607,187.892358 L400.100607,187.892358 L399.484701,187.842336 L399.484701,187.842336 L398.922172,187.788625 L398.922172,187.788625 L398.57878,187.750847 L398.57878,187.750847 L398.262074,187.711549 L398.262074,187.711549 L397.973239,187.670777 C397.881737,187.656946 397.795078,187.642878 397.713459,187.62858 L397.48392,187.585004 C397.412578,187.570255 397.346475,187.555284 397.285806,187.540099 C385.073768,184.4835 379.46507,176.764236 377.998763,160.995333 L377.416185,154.730144 L394.672854,154.730144 L395.206778,160.447779 C395.82637,167.082948 397.819671,171.608912 401.215588,174.091371 C404.618025,176.578594 414.10111,177.011138 418.237973,174.867796 C426.943279,170.357497 428.310617,155.948719 420.771466,148.170281 L420.629096,148.028728 L420.629096,148.028728 L420.462197,147.872382 L420.462197,147.872382 L420.271492,147.701749 L420.271492,147.701749 L420.057704,147.517339 L420.057704,147.517339 L419.821559,147.319659 L419.821559,147.319659 L419.427004,146.999374 L419.427004,146.999374 L418.986215,146.652094 L418.986215,146.652094 L418.667878,146.406424 L418.667878,146.406424 L417.975712,145.883416 L417.975712,145.883416 L417.013925,145.17552 L417.013925,145.17552 L416.17429,144.570852 L416.17429,144.570852 L415.278526,143.936503 L415.278526,143.936503 L414.332423,143.276541 L414.332423,143.276541 L413.593294,142.767208 L413.593294,142.767208 L412.831552,142.247473 L412.831552,142.247473 L411.518363,141.362794 L411.518363,141.362794 L410.160456,140.461933 L410.160456,140.461933 L408.769141,139.552837 L408.769141,139.552837 L408.196221,139.182504 L407.042457,138.443832 L407.042457,138.443832 L405.223289,137.294629 L405.223289,137.294629 L404.221659,136.652397 L404.221659,136.652397 L403.209804,135.992498 L403.209804,135.992498 L402.192093,135.318133 L402.192093,135.318133 L401.172896,134.632503 L401.172896,134.632503 L400.494762,134.170738 L400.494762,134.170738 L399.482794,133.473444 L399.482794,133.473444 L398.48099,132.77342 L398.48099,132.77342 L397.820923,132.306801 L397.820923,132.306801 L396.845764,131.609338 L396.845764,131.609338 L396.207507,131.14739 L396.207507,131.14739 L395.580238,130.68897 L395.580238,130.68897 L394.965253,130.235026 L394.965253,130.235026 L394.363845,129.786506 L394.363845,129.786506 L393.77731,129.34436 L393.77731,129.34436 L393.20694,128.909534 L393.20694,128.909534 L392.654032,128.482979 L392.654032,128.482979 L392.119879,128.065641 L392.119879,128.065641 L391.605776,127.658469 L391.605776,127.658469 L391.113017,127.262412 L391.113017,127.262412 L390.642896,126.878417 L390.642896,126.878417 L390.196708,126.507434 L390.196708,126.507434 L389.775748,126.15041 L389.775748,126.15041 L389.381309,125.808293 L389.381309,125.808293 L389.014687,125.482033 C388.955973,125.42903 388.898472,125.376728 388.842211,125.325145 L388.51974,125.024447 L388.51974,125.024447 L387.892318,124.415813 L387.892318,124.415813 L387.441141,123.972032 L387.441141,123.972032 L387.015375,123.547695 L387.015375,123.547695 L386.613858,123.140965 L386.613858,123.140965 L386.235428,122.750006 L386.235428,122.750006 L385.878925,122.372982 L385.878925,122.372982 L385.543187,122.008055 C385.488896,121.94814 385.435422,121.888653 385.382741,121.829555 L385.075971,121.479333 L385.075971,121.479333 L384.787061,121.136618 C384.60015,120.910236 384.424371,120.687635 384.258176,120.466366 L384.015878,120.135155 C383.70188,119.694057 383.42312,119.253391 383.167205,118.79357 L382.979359,118.444806 C382.703435,117.915355 382.452504,117.355462 382.208925,116.73724 L382.047434,116.316144 C382.020636,116.244419 381.99388,116.171897 381.967143,116.098541 L381.806741,115.648077 L381.806741,115.648077 L381.645614,115.175739 L381.645614,115.175739 L381.482598,114.679691 L381.482598,114.679691 L381.231996,113.887145 L381.231996,113.887145 L381.059179,113.323788 L381.059179,113.323788 C376.418297,98.0446576 382.002729,83.2545798 394.500026,77.7264277 C404.256735,73.4105726 419.731229,73.6510274 429.161913,78.2650315 Z M635.695409,77.3875063 L657.29448,76.9062815 L686.482706,180.826805 L686.482706,180.826805 L687.563,184.72068 L687.563,184.72068 L687.661506,185.115956 L687.661506,185.115956 L687.704978,185.32742 L687.704978,185.32742 L687.72062,185.425725 L687.72062,185.425725 L687.731538,185.519239 L687.731538,185.519239 L687.737969,185.650787 L687.737969,185.650787 L687.734901,185.732846 C687.733864,185.746155 687.732559,185.759281 687.730974,185.772228 L687.718023,185.847773 C687.69057,185.970154 687.633079,186.075064 687.535199,186.164996 L687.471542,186.217178 C687.437207,186.242391 687.399051,186.2663 687.356794,186.288973 L687.26673,186.332692 L687.26673,186.332692 L687.165233,186.373236 L687.165233,186.373236 L687.051807,186.410723 L687.051807,186.410723 L686.925955,186.445274 L686.925955,186.445274 L686.787181,186.477008 L686.787181,186.477008 L686.634986,186.506046 L686.634986,186.506046 L686.468876,186.532506 L686.468876,186.532506 L686.288352,186.556508 L686.288352,186.556508 L686.092917,186.578172 L686.092917,186.578172 L685.770722,186.606547 L685.770722,186.606547 L685.412185,186.630334 L685.412185,186.630334 L684.874703,186.655613 L684.874703,186.655613 L684.265656,186.674412 L684.265656,186.674412 L683.209207,186.692556 L683.209207,186.692556 L681.513032,186.703006 L681.513032,186.703006 L680.034939,186.704772 L670.93662,186.704772 L664.138785,160.779294 L627.814872,160.784479 L620.996582,186.704772 L604.297428,186.704772 L635.695409,77.3875063 Z M131.35287,76.8070734 L176.721459,77.3875063 L181.868901,79.9799969 C188.20069,83.168979 191.364696,87.053181 193.103732,93.7721336 C197.151699,109.411841 192.238877,124.171016 181.297659,129.240158 L177.136102,131.168232 L181.097214,132.277275 C186.074044,133.670702 189.584711,137.12917 190.897607,141.931951 L190.943541,142.112149 L190.943541,142.112149 L190.990487,142.320035 L190.990487,142.320035 L191.038371,142.554821 L191.038371,142.554821 L191.087119,142.815722 L191.087119,142.815722 L191.136655,143.101948 L191.136655,143.101948 L191.237798,143.747229 L191.237798,143.747229 L191.315172,144.291816 L191.315172,144.291816 L191.367338,144.682267 L191.367338,144.682267 L191.472734,145.525369 L191.472734,145.525369 L191.579053,146.446156 L191.579053,146.446156 L191.685699,147.43833 L191.685699,147.43833 L191.84498,149.046662 L191.84498,149.046662 L192.027364,151.079786 L192.027364,151.079786 L192.103649,151.994923 L192.103649,151.994923 L192.203,153.249553 L192.203,153.249553 L192.368697,155.522208 L192.368697,155.522208 L192.500393,157.526501 L192.500393,157.526501 L192.571962,158.710673 L192.571962,158.710673 L192.675453,160.581672 L192.675453,160.581672 L192.788736,162.757861 L192.8486,163.86518 L192.8486,163.86518 L193.095701,168.172865 L193.095701,168.172865 L193.28498,171.231875 L193.28498,171.231875 L193.494143,174.390198 L193.494143,174.390198 L193.694467,177.181129 L193.694467,177.181129 L193.843058,179.069994 L193.843058,179.069994 L193.945041,180.246369 L193.945041,180.246369 L194.022458,181.048792 L194.022458,181.048792 L194.065164,181.446008 L194.065164,181.446008 L194.660056,186.704202 L177.291107,186.704202 L176.797371,181.00241 L176.797371,181.00241 L176.715788,179.920117 L176.715788,179.920117 L176.595847,178.103767 L176.595847,178.103767 L176.450521,175.642141 L176.450521,175.642141 L176.249728,171.861579 L176.249728,171.861579 L176.085682,168.453745 L176.085682,168.453745 L175.98983,166.30757 L175.98983,166.30757 L175.923626,164.741173 L175.923626,164.741173 L175.83073,162.411091 L175.83073,162.411091 L175.776129,161.113856 L175.776129,161.113856 L175.71843,159.863359 L175.71843,159.863359 L175.656988,158.658724 C175.6464,158.461724 175.635629,158.266599 175.624662,158.073329 L175.556396,156.935839 C174.576488,141.504596 172.059134,138.607167 160.317555,137.781926 L159.452591,137.725734 C159.305717,137.716921 159.157476,137.708373 159.007857,137.70007 L158.093479,137.653059 C157.938289,137.645667 157.781692,137.638484 157.623675,137.631493 L147.771982,137.22487 L147.771982,186.704202 L131.35287,186.704202 L131.35287,76.8070734 Z M256.935753,76.9554245 L266.813424,76.9554245 L273.977862,95.8228313 L273.977862,95.8228313 L277.093848,104.086686 L277.093848,104.086686 L281.397213,115.573242 L281.397213,115.573242 L282.123039,117.516349 L282.123039,117.516349 L282.706531,119.046729 L282.706531,119.046729 L283.274323,120.504289 L283.274323,120.504289 L283.821057,121.876726 L283.821057,121.876726 L284.256722,122.946522 L284.256722,122.946522 L284.670945,123.941541 L284.670945,123.941541 L285.208937,125.195385 L285.208937,125.195385 L285.491494,125.83228 L285.491494,125.83228 L285.753981,126.406736 L285.753981,126.406736 L285.936722,126.79441 L285.936722,126.79441 L286.106613,127.143374 L286.106613,127.143374 L286.311986,127.545784 L286.311986,127.545784 L286.449288,127.798444 L286.449288,127.798444 L286.571508,128.007266 L286.571508,128.007266 L286.644279,128.121368 L286.644279,128.121368 L286.70985,128.214849 L286.70985,128.214849 L286.768025,128.287251 C286.831502,128.359248 286.879472,128.387281 286.910517,128.368094 C286.920629,128.361844 286.934654,128.345294 286.952494,128.318689 L286.99323,128.252143 L286.99323,128.252143 L287.073026,128.102999 L287.073026,128.102999 L287.21339,127.814348 L287.21339,127.814348 L287.391297,127.426269 L287.391297,127.426269 L287.66434,126.80665 L287.66434,126.80665 L288.062688,125.874786 L288.062688,125.874786 L288.618932,124.542801 L288.618932,124.542801 L289.570263,122.218067 L289.570263,122.218067 L291.04991,118.535167 L291.04991,118.535167 L292.212056,115.605341 L292.212056,115.605341 L293.905712,111.292769 L293.905712,111.292769 L295.263392,107.805125 L295.263392,107.805125 L296.838362,103.728796 L296.838362,103.728796 L307.119365,76.9554245 L316.245169,76.9554245 L316.245169,76.9554245 L317.549911,76.9640019 L317.549911,76.9640019 L318.7145,76.9813226 L318.7145,76.9813226 L319.548902,77.0024487 L319.548902,77.0024487 L320.119783,77.0227756 L320.119783,77.0227756 L320.474868,77.0385478 L320.474868,77.0385478 L320.970109,77.0656526 L320.970109,77.0656526 L321.562463,77.1084677 L321.562463,77.1084677 L321.957269,77.1457873 L321.957269,77.1457873 L322.197572,77.1732334 L322.197572,77.1732334 L322.419958,77.2027866 L322.419958,77.2027866 L322.720701,77.2511676 L322.720701,77.2511676 L322.899812,77.2861896 L322.899812,77.2861896 L323.06222,77.32348 L323.06222,77.32348 L323.208272,77.3630846 C323.254268,77.3766769 323.297596,77.3906627 323.338314,77.4050496 L323.452693,77.449421 C323.47047,77.4570194 323.487609,77.4647199 323.504117,77.4725236 L323.595652,77.5205912 C323.819863,77.6521131 323.886251,77.8105328 323.824403,77.9997824 L323.802157,78.0578552 L323.802157,78.0578552 L319.959468,86.6924803 L319.959468,86.6924803 L308.595996,112.057827 L308.595996,112.057827 L293.815635,144.99982 L293.815635,186.704202 L277.396523,186.704202 L277.396523,145.281714 L259.906906,104.2585 L259.906906,104.2585 L254.826228,92.2574363 L254.826228,92.2574363 L251.803344,85.0592505 L251.803344,85.0592505 L250.038349,80.8048446 L250.038349,80.8048446 L249.36451,79.1415306 L249.36451,79.1415306 L249.16945,78.6365563 L249.16945,78.6365563 L249.120293,78.497014 L249.120293,78.497014 L249.086371,78.376054 L249.086371,78.376054 L249.065613,78.2881381 L249.065613,78.2881381 L249.049442,78.2038862 L249.049442,78.2038862 L249.038295,78.1232214 L249.038295,78.1232214 L249.031953,78.0460667 C249.031953,78.0334959 249.031953,78.0210681 249.031953,78.0087817 L249.035292,77.9367482 L249.035292,77.9367482 L249.045189,77.8680328 C249.04741,77.8568524 249.049922,77.8458071 249.052735,77.8348952 L249.073297,77.7710126 C249.07735,77.7606281 249.081722,77.7503739 249.086422,77.7402483 L249.118636,77.6810255 C249.136785,77.6521731 249.158054,77.6244497 249.182688,77.5978119 L249.236517,77.5459711 C249.246261,77.537568 249.256397,77.5292823 249.266935,77.5211124 L249.33505,77.4734701 C249.34723,77.4657572 249.35983,77.4581568 249.372858,77.4506674 L249.456247,77.4070508 C249.471027,77.3999991 249.486255,77.3930553 249.501938,77.3862176 L249.601589,77.3464535 L249.601589,77.3464535 L249.712629,77.3091618 L249.712629,77.3091618 L249.835497,77.2742654 L249.835497,77.2742654 L249.970634,77.2416875 L249.970634,77.2416875 L250.118476,77.2113513 L250.118476,77.2113513 L250.365025,77.1698818 L250.365025,77.1698818 L250.546554,77.1448134 L250.546554,77.1448134 L250.845691,77.1108851 L250.845691,77.1108851 L251.178355,77.0811356 L251.178355,77.0811356 L251.546028,77.0553054 L251.546028,77.0553054 L251.950192,77.033135 L251.950192,77.033135 L252.392328,77.0143649 L252.392328,77.0143649 L253.217629,76.9899329 L253.217629,76.9899329 L253.768267,76.9789618 L253.768267,76.9789618 L254.783182,76.9659904 L254.783182,76.9659904 L256.935753,76.9554245 L256.935753,76.9554245 Z M562.570518,76.9554245 L562.570518,89.0537147 L537.509778,89.0537147 L537.509778,186.704202 L521.105053,186.704202 L520.658587,89.4857968 L495.165757,89.0075114 L495.165757,76.9554245 L562.570518,76.9554245 Z M763.056504,76.9554245 L763.056504,173.741748 L797.623026,173.741748 L797.623026,186.704202 L746.637352,186.704202 L746.637352,76.9554245 L763.056504,76.9554245 Z M645.608882,91.6859239 L645.55348,91.889544 L645.55348,91.889544 L644.477005,95.9595884 L644.477005,95.9595884 L643.167153,101.077797 L643.167153,101.077797 L638.218712,120.808691 L638.218712,120.808691 L634.09732,137.438827 L634.09732,137.438827 L632.144518,145.439147 L632.144518,145.439147 L631.774346,147.014047 L631.774346,147.014047 L631.707181,147.332845 L631.707181,147.332845 L631.703608,147.361806 L631.703608,147.361806 C631.703608,147.377452 631.728688,147.392921 631.777628,147.408173 L631.847732,147.426369 L631.847732,147.426369 L631.940273,147.444342 L631.940273,147.444342 L632.120131,147.47085 L632.120131,147.47085 L632.34784,147.496773 L632.34784,147.496773 L632.621819,147.522059 L632.621819,147.522059 L633.056368,147.554696 L633.056368,147.554696 L633.848961,147.601102 L633.848961,147.601102 L634.799238,147.644088 L634.799238,147.644088 L635.702467,147.677006 L635.702467,147.677006 L636.908992,147.712675 L636.908992,147.712675 L639.184421,147.761783 L639.184421,147.761783 L641.473339,147.793599 L641.473339,147.793599 L644.516613,147.814501 L644.516613,147.814501 L645.38408,147.816468 L645.38408,147.816468 L648.541549,147.809353 L648.541549,147.809353 L650.451278,147.793674 L650.451278,147.793674 L652.740197,147.761961 L652.740197,147.761961 L654.802349,147.718505 L654.802349,147.718505 L656.410502,147.671118 L656.410502,147.671118 L657.927885,147.609186 L657.927885,147.609186 L658.747636,147.56347 L658.747636,147.56347 L659.201462,147.53126 L659.201462,147.53126 L659.576776,147.497804 L659.576776,147.497804 L659.73382,147.480645 L659.73382,147.480645 L659.984342,147.445541 L659.984342,147.445541 L660.076883,147.427626 L660.076883,147.427626 L660.146986,147.409489 C660.195927,147.394286 660.221007,147.378867 660.221007,147.363271 L660.220014,147.343411 L660.220014,147.343411 L660.205281,147.239883 L660.205281,147.239883 L660.173325,147.071974 L660.173325,147.071974 L660.059864,146.550936 L660.059864,146.550936 L659.848744,145.648727 L659.848744,145.648727 L659.140933,142.761034 L659.140933,142.761034 L657.940095,137.98951 L657.940095,137.98951 L654.577609,124.834222 L654.577609,124.834222 L648.635078,101.662278 L648.635078,101.662278 L647.663723,97.8246071 L647.663723,97.8246071 L646.810865,94.3813353 L646.810865,94.3813353 L646.603282,93.5002864 L646.603282,93.5002864 L646.524935,93.1424936 L646.524935,93.1424936 L646.492426,92.9694637 L646.492426,92.9694637 L646.357523,91.9081738 L646.357523,91.9081738 L646.314513,91.5984774 L646.314513,91.5984774 L646.273779,91.3310389 L646.273779,91.3310389 L646.221808,91.0397739 L646.221808,91.0397739 L646.183684,90.8700037 L646.183684,90.8700037 L646.158289,90.7798704 L646.158289,90.7798704 L646.132671,90.7080916 L646.132671,90.7080916 L646.106624,90.6545963 C646.062739,90.5806339 646.016209,90.5825559 645.962744,90.6588804 L645.929799,90.7135916 L645.929799,90.7135916 L645.894983,90.7860881 L645.894983,90.7860881 L645.858092,90.8762991 L645.858092,90.8762991 L645.798412,91.0446742 L645.798412,91.0446742 L645.732903,91.2525064 L645.732903,91.2525064 L645.608882,91.6859239 L645.608882,91.6859239 Z M147.771982,88.83623 L147.771982,125.608993 L157.289889,125.069519 L157.289889,125.069519 L158.381837,125.00039 L158.381837,125.00039 L159.077693,124.951138 L159.077693,124.951138 L160.075108,124.872189 L160.075108,124.872189 L160.710187,124.81599 L160.710187,124.81599 L161.322212,124.756789 L161.322212,124.756789 L161.911902,124.694458 C162.008362,124.683802 162.103922,124.673009 162.198596,124.662079 L162.756131,124.594812 L162.756131,124.594812 L163.293126,124.524096 L163.293126,124.524096 L163.810301,124.449802 C163.979469,124.424427 164.145454,124.398435 164.308374,124.371803 L164.788063,124.28997 C164.866519,124.276004 164.944239,124.261874 165.021238,124.247576 L165.474699,124.159753 L165.474699,124.159753 L165.911572,124.067776 L165.911572,124.067776 L166.332576,123.971519 L166.332576,123.971519 L166.738429,123.870852 C166.804848,123.8537 166.870667,123.836359 166.935898,123.818826 L167.320372,123.711306 C167.383318,123.692995 167.445708,123.674488 167.507556,123.655781 L167.872268,123.54112 C168.350205,123.384987 168.795404,123.215733 169.215528,123.031993 L169.526038,122.891451 L169.526038,122.891451 L169.857452,122.731427 L169.857452,122.731427 L170.207653,122.55538 L170.207653,122.55538 L170.546373,122.378069 L170.546373,122.378069 L170.873787,122.199096 C170.981059,122.139116 171.086477,122.078794 171.190067,122.018061 L171.495388,121.834564 C171.545371,121.803754 171.594905,121.772825 171.643993,121.741769 L171.933199,121.553832 C172.264434,121.332632 172.574178,121.104369 172.863673,120.86619 L173.106882,120.65954 C174.655879,119.299669 175.587323,117.606665 176.11575,115.087011 L176.193895,114.692783 C176.218903,114.559156 176.24288,114.423288 176.265855,114.285113 L176.331803,113.8636 L176.331803,113.8636 L176.391913,113.427845 L176.391913,113.427845 L176.446357,112.977448 C176.454969,112.90114 176.463352,112.824205 176.47151,112.746635 L176.517783,112.273529 C176.525054,112.193385 176.532108,112.11259 176.538947,112.031135 L176.577438,111.53442 L176.577438,111.53442 L176.61096,111.021466 L176.61096,111.021466 L176.639684,110.491873 L176.639684,110.491873 L176.663785,109.945244 L176.663785,109.945244 L176.683437,109.381178 L176.683437,109.381178 L176.704951,108.501512 L176.704951,108.501512 L176.714238,107.892108 L176.714238,107.892108 L176.721018,106.942562 L176.721018,106.942562 L176.719959,105.660063 L176.719959,105.660063 L176.712656,104.486114 L176.712656,104.486114 L176.702514,103.677291 L176.702514,103.677291 L176.693239,103.170375 L176.693239,103.170375 L176.675162,102.456031 L176.675162,102.456031 L176.660107,102.009077 L176.660107,102.009077 L176.632626,101.38014 L176.632626,101.38014 L176.598799,100.798094 L176.598799,100.798094 L176.57246,100.4345 L176.57246,100.4345 L176.542908,100.089327 L176.542908,100.089327 L176.509988,99.7616077 L176.509988,99.7616077 L176.473541,99.450374 L176.473541,99.450374 L176.433412,99.1546584 C176.426408,99.1066118 176.419244,99.0591716 176.411917,99.0123174 L176.365971,98.7380646 L176.365971,98.7380646 L176.31595,98.4769108 L176.31595,98.4769108 L176.261698,98.2278883 L176.261698,98.2278883 L176.203059,97.9900296 L176.203059,97.9900296 L176.139876,97.762367 L176.139876,97.762367 L176.071993,97.5439329 C176.03685,97.4368616 175.999885,97.3328883 175.961011,97.2314684 L175.88069,97.0318721 L175.88069,97.0318721 L175.79512,96.8381176 L175.79512,96.8381176 L175.704144,96.6492372 L175.704144,96.6492372 L175.607607,96.4642634 L175.607607,96.4642634 L175.50535,96.2822284 L175.50535,96.2822284 L175.397218,96.1021647 L175.397218,96.1021647 L175.283053,95.9231047 L175.283053,95.9231047 L175.100154,95.6542797 L175.100154,95.6542797 L174.9028,95.38227 L174.9028,95.38227 L174.673051,95.0787774 L174.673051,95.0787774 L174.44359,94.7854664 L174.44359,94.7854664 L174.213905,94.5021541 C174.137249,94.4093628 174.06047,94.3182075 173.983482,94.2286577 L173.751807,93.9647945 C173.713062,93.9216099 173.674243,93.8788191 173.63534,93.8364182 L173.400824,93.586662 C173.361541,93.5458057 173.322152,93.5053318 173.282647,93.4652364 L173.044135,93.2291759 C172.684015,92.8818073 172.312737,92.5644828 171.922498,92.2744263 L171.659444,92.0850645 C170.462291,91.2508408 169.078896,90.656476 167.298629,90.2270122 L166.896396,90.1342597 L166.896396,90.1342597 L166.480584,90.0467533 C166.410122,90.032596 166.339072,90.0186495 166.267425,90.0049103 L165.83028,89.9249302 L165.83028,89.9249302 L165.378272,89.8497392 L165.378272,89.8497392 L164.910887,89.7791544 C164.831679,89.767764 164.75181,89.7565579 164.671267,89.7455323 L164.179853,89.6815141 L164.179853,89.6815141 L163.671778,89.6216453 L163.671778,89.6216453 L163.146528,89.5657429 L163.146528,89.5657429 L162.603589,89.5136242 L162.603589,89.5136242 L161.754892,89.4421407 L161.754892,89.4421407 L161.165485,89.3986814 L161.165485,89.3986814 L160.556591,89.358366 L160.556591,89.358366 L159.927698,89.3210117 L159.927698,89.3210117 L158.945734,89.2701325 L158.945734,89.2701325 L158.264594,89.2393812 L158.264594,89.2393812 L157.561655,89.2109513 L157.561655,89.2109513 L147.771982,88.83623 Z" id="Shape"></path>
            </g>
        </g>
    </g>
</svg>