<?xml version="1.0" encoding="UTF-8"?>
<svg width="800px" height="400px" viewBox="0 0 800 400" version="1.1" xmlns="http://www.w3.org/2000/svg" xmlns:xlink="http://www.w3.org/1999/xlink">
    <title>datampolystar</title>
    <g id="Page-1" stroke="none" stroke-width="1" fill="none" fill-rule="evenodd">
        <g id="AF150_INCREMENTAL" fill="#000000" transform="translate(-0.000000, 0.000000)">
            <g id="datampolystar" transform="translate(0.000000, 0.000000)">
                <line x1="0" y1="0" x2="800" y2="400" id="Path" fill-rule="nonzero"></line>
                <path d="M285.923784,110.217022 L285.923784,136.330723 L309.58297,136.89653 L333.242157,137.46435 L333.777761,192.333527 L334.313364,247.202704 L360.425052,247.202704 L386.536739,247.202704 L387.072343,192.333527 L387.607947,137.46435 L412.777294,136.908611 L437.946641,136.350858 L437.330496,110.229103 L436.716363,84.1053343 L361.319067,84.1053343 L285.923784,84.1053343 L285.923784,110.217022 M0,166.69301 L0,247.265124 L56.7015054,246.731534 L113.403011,246.19593 L140.229508,207.112968 L167.056005,168.032019 L162.708755,160.801369 C156.468771,150.423544 147.760176,136.73746 130.238284,109.778068 L114.860819,86.1188821 L57.4304097,86.1188821 L0,86.1188821 L0,166.69301 M210.019074,126.893225 C195.49334,148.212668 174.463847,179.001827 163.286643,195.315591 C152.107426,211.629356 142.961892,225.428198 142.961892,225.977897 C142.961892,226.527596 152.415499,233.319292 163.969236,241.071451 L184.974566,255.164272 L196.230298,239.102201 L207.486031,223.040131 L235.128014,223.066307 L262.767985,223.092483 L272.575976,238.167915 C277.97027,246.459705 283.203481,253.243347 284.202201,253.243347 C285.722429,253.243347 317.923085,234.859656 325.498052,229.666717 C327.098823,228.569333 323.915404,222.117926 315.279297,208.945296 C300.103188,185.797551 278.731391,152.304197 255.720567,115.603262 C246.307232,100.588236 238.116119,88.265324 237.516082,88.218912 C236.918058,88.1706872 224.542794,105.573781 210.019074,126.893225 M477.283311,100.688914 C472.448782,107.625586 458.027753,128.705418 445.233671,147.532089 C432.437574,166.358761 415.370744,191.191846 407.306485,202.71538 C399.240212,214.238913 392.641816,224.411357 392.641816,225.32148 C392.641816,226.231604 402.049111,233.289089 413.548483,241.005004 L434.455149,255.031378 L445.26186,239.102201 L456.068571,223.173025 L484.25824,223.126713 L512.447909,223.080402 L522.656596,239.065958 L532.86327,255.0495 L552.555767,243.072918 C563.38664,236.484589 573.063751,231.094322 574.062471,231.094322 C578.242596,231.094322 576.223008,227.439733 545.691583,179.748854 C536.475574,165.351987 520.37726,139.981285 509.920906,123.369516 C499.464553,106.757747 489.819659,92.0205906 488.490717,90.6211749 C486.571806,88.6036 484.254213,90.6856084 477.283311,100.688914 M616.439597,157.654194 C598.446534,196.163295 584.452377,228.374019 585.338338,229.23179 C586.224299,230.091575 595.236939,236.218801 605.367098,242.851427 L623.783006,254.908551 L634.257482,233.438092 C640.018242,221.628634 647.476423,205.866582 650.826966,198.412428 C654.179523,190.956261 657.620676,185.290137 658.474421,185.815673 C659.328165,186.343223 667.088378,196.747224 675.718444,208.935229 C684.350523,221.123233 692.046303,231.094322 692.819505,231.094322 C693.594721,231.094322 700.732748,220.674212 708.682234,207.938522 C716.633735,195.202833 723.779816,184.782723 724.565099,184.782723 C725.352396,184.782723 728.604276,190.899881 731.795749,198.374171 C739.638518,216.753835 755.493193,252.039246 756.369086,253.066155 C757.130207,253.96017 762.532556,251.415046 772.195572,245.616028 C775.517926,243.620603 783.435196,239.003538 789.789952,235.357003 C799.110665,230.004993 801.001386,228.078027 799.573781,225.37786 C798.599224,223.539491 787.60928,200.287041 775.15146,173.70821 C736.392679,91.025898 734.87245,87.9391292 733.380411,88.8734154 C732.579019,89.3747888 723.3167,102.533324 712.795913,118.11617 C702.275125,133.699016 693.21416,146.430679 692.660435,146.410543 C692.106709,146.388394 688.099749,141.197468 683.754513,134.870901 C672.265209,118.140332 658.045535,98.4397809 653.287522,92.6608988 L649.149681,87.6370971 L616.439597,157.654194 M54.3657899,167.591052 L54.3657899,245.706638 L67.7478285,224.808026 C75.1073456,213.314695 86.1315196,196.217661 92.2446507,186.814393 C98.3597953,177.413138 103.339299,168.805221 103.311228,167.685689 C103.272852,166.066796 58.0807856,93.4763856 55.1450329,90.3131021 C54.7161473,89.8519996 54.3657899,124.62597 54.3657899,167.591052 M294.938438,100.763415 C294.257858,104.385787 293.990057,111.409042 294.342427,116.36841 L294.984749,125.383064 L319.650709,125.948871 L344.31667,126.514678 L344.31667,181.824821 L344.31667,237.134965 L361.431826,237.134965 L378.546982,237.134965 L378.546982,181.762401 L378.546982,126.389838 L403.716329,126.389838 L428.885676,126.389838 L428.885676,110.281455 L428.885676,94.1730732 L362.529209,94.1730732 L296.174756,94.1730732 L294.938438,100.763415 M12.0812867,166.660793 L12.0812867,237.134965 L26.1761211,237.134965 L40.2709555,237.134965 L40.2709555,166.660793 L40.2709555,96.1866209 L26.1761211,96.1866209 L12.0812867,96.1866209 L12.0812867,166.660793 M86.9772097,118.839033 C93.7185677,130.191416 102.729194,145.232618 107.001942,152.267954 C111.276704,159.30329 114.772223,166.324531 114.772223,167.870935 C114.772223,169.41734 107.728833,181.329489 99.1209163,194.345061 C83.5078669,217.951896 74.5012677,232.542063 74.5012677,234.229416 C74.5012677,234.720721 81.9876383,235.121417 91.139213,235.121417 L107.775145,235.121417 L129.624152,203.762424 C141.638991,186.514374 151.877882,170.844945 152.375228,168.942143 C153.222932,165.706371 149.038779,158.485789 121.004154,114.811938 L110.342418,98.2001687 L92.532588,98.2001687 L74.7227579,98.2001687 L86.9772097,118.839033 M230.194822,112.552737 C216.593307,132.48082 191.504502,169.348879 173.904081,195.265253 L155.161978,222.864952 L169.534682,232.507832 C178.142599,238.282687 184.2215,241.216427 184.686629,239.819024 C185.115515,238.534381 189.090258,232.423263 193.520063,226.235631 L201.576268,214.98594 L235.192448,215.068495 L268.808628,215.151051 L277.559507,229.207628 L286.310385,243.266218 L293.667889,238.84044 C299.78102,235.161688 311.000508,227.918957 313.827529,225.822854 C314.534284,225.299331 297.578199,198.068111 268.885143,153.63918 C260.994049,141.420972 252.11229,127.346273 249.148348,122.362742 C246.184405,117.379211 242.058646,111.151308 239.980665,108.525642 L236.203249,103.747493 L230.194822,112.552737 M467.769297,130.962605 C458.698265,144.505727 441.202548,170.307328 428.885676,188.300391 C416.568804,206.295467 407.060832,221.934693 407.755506,223.058253 C408.947526,224.989245 430.07971,239.148513 431.769077,239.148513 C432.204003,239.148513 436.762675,233.258886 441.899235,226.060452 L451.23807,212.972392 L484.401202,212.972392 L517.56232,212.972392 L526.715908,227.121592 L535.867483,241.268779 L545.300954,236.08188 C561.995279,226.902115 563.114812,225.679892 559.703862,220.335936 C558.076915,217.786785 550.203943,205.347086 542.208145,192.691939 C498.914854,124.164867 488.051764,107.522895 486.247625,106.959102 C485.152255,106.616798 476.838316,117.419482 467.769297,130.962605 M648.362384,110.325753 C648.362384,111.459381 637.036177,137.101912 623.193037,167.311169 C609.349896,197.520426 598.039798,223.098524 598.059906,224.149596 C598.106245,226.608137 617.869216,239.581426 620.321717,238.761912 C621.342586,238.421622 629.54578,222.738099 638.552379,203.911427 C647.558978,185.084755 655.627264,168.909926 656.483022,167.965572 C657.336766,167.021218 662.455205,172.457797 667.85554,180.046859 C688.583001,209.1688 691.462374,212.972392 692.769166,212.972392 C693.512165,212.972392 701.264324,202.117356 710.001108,188.848076 C718.735878,175.58081 726.337021,164.733828 726.890747,164.743896 C727.444473,164.755977 734.938897,180.822075 743.546814,200.446111 C752.152717,220.072161 759.943134,237.316185 760.855271,238.765939 C762.127833,240.787541 765.665636,239.428396 775.989096,232.956854 C783.400965,228.309585 789.20401,223.831455 788.883856,223.003887 C785.495055,214.220792 733.984476,108.267908 733.104555,108.271935 C732.456193,108.273948 730.565472,110.47677 728.904295,113.166869 C720.759494,126.359634 693.781981,164.647245 692.630232,164.647245 C691.907368,164.647245 682.471883,151.961894 671.661145,136.457576 C653.660028,110.643894 648.362384,104.701914 648.362384,110.325753 M473.189768,179.291778 C467.100799,188.403082 462.117269,196.654601 462.115255,197.627144 C462.109214,199.294362 505.428681,199.521893 507.087845,197.862729 C508.1067,196.843874 487.105397,162.619603 485.496572,162.679929 C484.815993,162.704172 479.276723,170.178461 473.189768,179.291778 M224.510577,180.075048 C218.973321,188.527922 214.140806,196.217661 213.772327,197.162015 C213.401834,198.104355 223.143378,198.877557 235.417965,198.877557 C247.692553,198.877557 257.734115,198.496997 257.734115,198.029854 C257.734115,195.851195 238.365799,165.903699 236.591864,165.341919 C235.484412,164.991562 230.047833,171.620161 224.510577,180.075048 M232.897003,184.919644 C228.126909,191.729463 228.642377,192.836914 236.591864,192.836914 C244.571553,192.836914 245.234011,191.226076 239.944421,184.694127 L236.251574,180.131428 L232.897003,184.919644 M481.723183,184.754533 C477.865226,190.932098 478.698835,192.836914 485.265014,192.836914 C491.678164,192.836914 492.592314,190.948206 489.221635,184.649829 C486.579861,179.714623 484.85425,179.738786 481.723183,184.754533 M165.221663,264.110465 C156.432527,267.28583 151.024137,274.496344 149.628749,284.896318 C147.095706,303.777356 157.358759,315.641179 176.239796,315.655286 C192.930094,315.667356 201.354778,306.300331 201.354778,287.727367 C201.354778,275.478956 194.802693,266.490478 183.607367,263.38156 C174.679297,260.90087 174.030934,260.927046 165.221663,264.110465 M440.248126,263.367466 C431.950296,265.854197 426.872128,271.184058 426.872128,277.405921 C426.872128,284.767451 431.730819,288.567016 445.815586,292.223619 C460.669528,296.079563 464.187196,300.209349 457.939157,306.459402 C454.701372,309.697186 441.689826,310.744231 437.799652,308.082321 C436.611659,307.268848 435.055187,305.017701 434.338364,303.078655 C432.725512,298.703216 424.858581,298.360912 424.858581,302.665878 C424.858581,304.377393 427.083551,308.001779 429.80184,310.720069 C439.203095,320.123337 465.489961,315.906968 468.343158,304.538477 C470.219785,297.058147 464.612054,290.055028 454.566465,287.330698 C437.847977,282.798202 434.92632,281.167228 434.92632,276.370957 C434.92632,273.854022 436.359966,271.246478 438.111752,270.573953 C443.983257,268.320793 454.544315,269.321526 457.075345,272.372051 C459.453345,275.239343 467.143084,276.675003 467.143084,274.252705 C467.143084,270.04439 461.948131,265.189726 455.541022,263.40975 C447.053918,261.053899 447.962028,261.055913 440.248126,263.367466 M62.419981,289.487207 C62.419981,314.320292 62.6273765,315.663328 66.4470766,315.663328 C69.9788394,315.663328 70.4741721,314.320292 70.4741721,304.733791 L70.4741721,293.804254 L81.8144732,292.386716 C94.8964931,290.751715 100.677389,286.207138 100.677389,277.55291 C100.677389,267.88184 92.8346202,263.311086 76.2429865,263.311086 L62.419981,263.311086 L62.419981,289.487207 M255.720567,289.340218 L255.720567,315.663328 L272.835724,315.663328 C286.707054,315.663328 289.95088,315.091481 289.95088,312.643007 C289.95088,310.269034 287.162116,309.622685 276.929266,309.622685 L263.907653,309.622685 L263.337819,286.994435 C262.842486,267.309992 262.308896,264.277589 259.244276,263.691647 C256.032667,263.075501 255.720567,265.354837 255.720567,289.340218 M328.208287,264.40847 C328.208287,265.012534 332.73877,272.221035 338.276026,280.426242 C347.055095,293.437788 348.343765,296.64537 348.343765,305.50498 C348.343765,314.320292 348.875342,315.663328 352.370861,315.663328 C355.765702,315.663328 356.397956,314.320292 356.397956,307.10575 C356.397956,300.328149 358.405463,295.409051 366.054931,283.446564 C371.36667,275.140679 376.402553,267.213342 377.248243,265.828021 C378.267099,264.15879 377.499937,263.311086 374.972934,263.311086 C372.619097,263.311086 368.23359,267.563699 363.495712,274.441978 C359.279343,280.565177 355.11734,286.013837 354.247487,286.551455 C353.377635,287.089072 348.845139,282.079365 344.173708,275.420563 C338.982782,268.020775 334.226782,263.311086 331.943419,263.311086 C329.8896,263.311086 328.208287,263.804406 328.208287,264.40847 M515.468231,266.331408 C515.468231,268.612758 517.928786,269.35173 525.535969,269.35173 L535.603708,269.35173 L535.603708,292.507529 C535.603708,314.320292 535.83728,315.663328 539.630804,315.663328 C543.424328,315.663328 543.657899,314.320292 543.657899,292.507529 L543.657899,269.35173 L552.718864,269.35173 C559.430019,269.35173 561.779829,268.56846 561.779829,266.331408 C561.779829,263.822527 557.865492,263.311086 538.62403,263.311086 C519.382567,263.311086 515.468231,263.822527 515.468231,266.331408 M612.056104,288.446203 C605.445626,302.432306 600.037237,314.278008 600.037237,314.769313 C600.037237,315.260619 601.682306,315.663328 603.691826,315.663328 C605.88458,315.663328 608.689452,312.846375 610.707027,308.615911 C614.041462,301.624873 614.170329,301.568494 627.220132,301.568494 C640.269935,301.568494 640.398802,301.624873 643.733237,308.615911 C645.817259,312.983296 648.535549,315.663328 650.885359,315.663328 C655.639345,315.663328 655.043335,313.60951 642.132467,285.460112 C628.551087,255.846865 627.411419,255.959623 612.056104,288.446203 M704.741721,289.487207 C704.741721,314.320292 704.949117,315.663328 708.768817,315.663328 C712.348905,315.663328 712.795913,314.320292 712.795913,303.582042 L712.795913,291.500755 L720.707142,291.500755 C729.554671,291.500755 734.930843,295.537918 734.973128,302.214843 C735.02548,310.681811 737.373277,315.663328 741.311776,315.663328 C744.690509,315.663328 745.024758,314.684744 743.875022,308.112524 C743.150145,303.960589 741.327885,297.992433 739.825778,294.851299 C737.371263,289.718765 737.530333,288.550908 741.398359,283.319711 C745.040867,278.390546 745.342899,276.71326 743.367608,272.378092 C740.321111,265.693113 733.579753,263.311086 717.698901,263.311086 L704.741721,263.311086 L704.741721,289.487207 M70.4741721,277.405921 L70.4741721,285.681602 L79.8331422,285.06747 C90.5210538,284.366755 95.1602679,279.878557 91.3989606,273.882212 C89.9270572,271.532402 86.0711132,270.153122 79.8331422,269.744371 L70.4741721,269.130239 L70.4741721,277.405921 M165.57202,270.698793 C161.685873,272.26332 157.056726,282.478048 157.056726,289.487207 C157.056726,297.015863 161.726144,306.652702 166.208301,308.372272 C173.652387,311.227483 183.442257,309.596509 188.357327,304.679425 C192.263609,300.775156 193.300586,297.664225 193.300586,289.849646 C193.300586,275.877638 187.878102,269.297364 176.541828,269.5108 C171.916709,269.597382 166.97949,270.132986 165.57202,270.698793 M712.795913,277.405921 L712.795913,285.460112 L721.713916,285.460112 C730.060071,285.460112 736.958486,281.81559 736.958486,277.405921 C736.958486,272.996251 730.060071,269.35173 721.713916,269.35173 L712.795913,269.35173 L712.795913,277.405921 M621.682876,283.396225 L616.447651,295.527851 L627.258389,295.527851 L638.071141,295.527851 L633.818528,284.956725 C631.478786,279.141599 628.967892,273.682871 628.241001,272.8251 C627.512096,271.965315 624.560235,276.723328 621.682876,283.396225" id="Shape"></path>
            </g>
        </g>
    </g>
</svg>