<?xml version="1.0" encoding="UTF-8"?>
<svg width="158px" height="30px" viewBox="0 0 158 30" version="1.1" xmlns="http://www.w3.org/2000/svg" xmlns:xlink="http://www.w3.org/1999/xlink">
    <title>dirksimple</title>
    <g id="Page-1" stroke="none" stroke-width="1" fill="none" fill-rule="evenodd">
        <g id="System" transform="translate(-21.000000, 0.000000)" fill="#000000" fill-rule="nonzero">
            <g id="dirksimple" transform="translate(21.000000, 0.000000)">
                <line x1="79" y1="30" x2="79" y2="0" id="Path"></line>
                <path d="M1.86423401,16.885662 C1.86423401,18.9427478 1.86423401,20.635558 1.75709412,21.535533 C1.67138222,22.1569444 1.56424233,22.6283599 1.13568279,22.7140718 C0.942830994,22.7569277 0.685695268,22.7997837 0.492843474,22.7997837 C0.364275611,22.7997837 0.321419657,22.8640676 0.321419657,22.9283515 C0.321419657,23.0569194 0.428559543,23.0997754 0.664267291,23.0997754 C0.985686948,23.0997754 1.47853042,23.0569194 1.90708996,23.0569194 C2.35707748,23.0354914 2.7213531,23.0354914 2.76420905,23.0354914 C2.87134894,23.0354914 3.59990016,23.0997754 4.54273115,23.1640593 C5.46413417,23.2283432 6.59981696,23.2926271 7.52121997,23.2926271 C11.1639761,23.2926271 13.092494,21.7926687 14.013897,20.8284098 C15.2138638,19.5641591 16.3281186,17.4856453 16.3281186,14.7857202 C16.3281186,12.235791 15.3210036,10.4572688 14.2496048,9.34301404 C11.6996755,6.70737285 7.7783557,6.90022465 5.65698596,6.90022465 C4.37130733,6.90022465 3.02134478,6.96450858 2.76420905,6.96450858 C2.65706916,6.96450858 1.3071066,6.90022465 0.342847634,6.90022465 C0.107139886,6.90022465 0,6.9430806 0,7.07164846 C0,7.15736037 0.0857119085,7.20021633 0.171423817,7.20021633 C0.364275611,7.20021633 0.728551222,7.2216443 0.899975039,7.26450026 C1.60709828,7.4144961 1.7785221,7.75734373 1.82137806,8.48589495 C1.86423401,9.17159022 1.86423401,9.77157358 1.86423401,13.114338 L1.86423401,16.885662 Z M3.66418409,12.7714904 C3.66418409,11.1215361 3.66418409,8.93588247 3.68561207,8.20733125 C3.68561207,7.9716235 3.749896,7.86448362 3.94274779,7.77877171 C4.11417161,7.6930598 4.90700676,7.62877587 5.3355663,7.62877587 C7.88549558,7.62877587 10.328285,7.92876755 12.3425148,10.0501373 C13.2210619,10.9715403 14.3996006,12.7286344 14.3996006,15.4499875 C14.3996006,17.4213614 13.7996173,19.4784472 12.6853625,20.5712741 C11.4211118,21.8355247 9.57830578,22.5640759 7.5855039,22.5640759 C5.0570026,22.5640759 4.22131149,22.1140884 3.94274779,21.7069568 C3.77132397,21.4712491 3.72846802,20.61413 3.70704004,20.0784306 C3.68561207,19.671299 3.66418409,17.6999251 3.66418409,15.4285595 L3.66418409,12.7714904 Z M24.9886827,13.114338 C24.9886827,9.77157358 24.9886827,9.17159022 25.0315387,8.48589495 C25.0743946,7.73591575 25.2458185,7.37164014 25.8243738,7.26450026 C26.0815096,7.2216443 26.2100774,7.20021633 26.3600733,7.20021633 C26.4457852,7.20021633 26.5314971,7.15736037 26.5314971,7.07164846 C26.5314971,6.9430806 26.4243572,6.90022465 26.1886495,6.90022465 C25.5458101,6.90022465 24.1958476,6.96450858 24.0887077,6.96450858 C23.9815678,6.96450858 22.6316052,6.90022465 21.924482,6.90022465 C21.6887743,6.90022465 21.5816344,6.9430806 21.5816344,7.07164846 C21.5816344,7.15736037 21.6673463,7.20021633 21.7530582,7.20021633 C21.903054,7.20021633 22.1816177,7.2216443 22.4173255,7.28592823 C22.888741,7.39306812 23.1030207,7.75734373 23.1458767,8.48589495 C23.1887327,9.17159022 23.1887327,9.77157358 23.1887327,13.114338 L23.1887327,16.885662 C23.1887327,18.9427478 23.1887327,20.635558 23.0815928,21.535533 C22.9958809,22.1569444 22.888741,22.6283599 22.4601814,22.7140718 C22.2673296,22.7569277 22.0101939,22.7997837 21.8173421,22.7997837 C21.6887743,22.7997837 21.6459183,22.8640676 21.6459183,22.9283515 C21.6459183,23.0569194 21.7530582,23.0997754 21.9887659,23.0997754 C22.6316052,23.0997754 23.9815678,23.0354914 24.0887077,23.0354914 C24.1958476,23.0354914 25.5458101,23.0997754 26.7243489,23.0997754 C26.9600566,23.0997754 27.0671965,23.0354914 27.0671965,22.9283515 C27.0671965,22.8640676 27.0243406,22.7997837 26.8957727,22.7997837 C26.7029209,22.7997837 26.2315054,22.7569277 25.9315137,22.7140718 C25.2886744,22.6283599 25.1601065,22.1569444 25.0958226,21.535533 C24.9886827,20.635558 24.9886827,18.9427478 24.9886827,16.885662 L24.9886827,13.114338 Z M34.506366,16.885662 C34.506366,18.9427478 34.506366,20.635558 34.3992261,21.535533 C34.3135142,22.1569444 34.2063743,22.6283599 33.7778148,22.7140718 C33.584963,22.7569277 33.3278272,22.7997837 33.1349754,22.7997837 C33.0064076,22.7997837 32.9635516,22.8640676 32.9635516,22.9283515 C32.9635516,23.0569194 33.0706915,23.0997754 33.3063993,23.0997754 C33.9492386,23.0997754 35.2992011,23.0354914 35.3206291,23.0354914 C35.427769,23.0354914 36.7777316,23.0997754 37.9562703,23.0997754 C38.191978,23.0997754 38.2991179,23.0354914 38.2991179,22.9283515 C38.2991179,22.8640676 38.256262,22.7997837 38.1276941,22.7997837 C37.9348423,22.7997837 37.4634268,22.7569277 37.1634351,22.7140718 C36.5205958,22.6283599 36.392028,22.1569444 36.327744,21.535533 C36.2206041,20.635558 36.2206041,18.9427478 36.2206041,16.885662 L36.2206041,16.3713905 C36.2206041,16.2642507 36.2634601,16.1999667 36.3706,16.1999667 L39.0062412,16.2428227 C39.134809,16.2428227 39.199093,16.2856786 39.2848049,16.3713905 C39.7133644,16.9285179 40.7204793,18.3641924 41.6204544,19.5427312 C42.8418491,21.1498294 43.5918283,22.1998003 44.5132313,22.6926438 C45.0703587,22.9926355 45.6060581,23.0997754 46.8060249,23.0997754 L48.3274112,23.0997754 C48.7131148,23.0997754 48.8416827,23.0569194 48.8416827,22.9283515 C48.8416827,22.8640676 48.7559708,22.7997837 48.6488309,22.7997837 C48.520263,22.7997837 48.2202713,22.7997837 47.8131398,22.7354997 C47.2774403,22.6497878 46.3560373,22.4140801 45.1989266,21.1926854 C43.9561039,19.8641508 42.4990014,17.9570608 40.7419073,15.7071232 C42.6704253,13.9286011 43.3346926,12.3429308 43.3346926,10.7572605 C43.3346926,9.27873011 42.3918616,8.22875923 41.8561621,7.84305564 C40.7204793,7.02879251 39.2848049,6.90022465 37.9348423,6.90022465 C37.270575,6.90022465 35.6420488,6.96450858 35.406341,6.96450858 C35.2992011,6.96450858 33.9492386,6.90022465 32.9849796,6.90022465 C32.7492719,6.90022465 32.642132,6.9430806 32.642132,7.07164846 C32.642132,7.15736037 32.7278439,7.20021633 32.8135558,7.20021633 C33.0064076,7.20021633 33.3706832,7.2216443 33.542107,7.26450026 C34.2492303,7.4144961 34.4206541,7.75734373 34.46351,8.48589495 C34.506366,9.17159022 34.506366,9.77157358 34.506366,13.114338 L34.506366,16.885662 Z M36.2206041,7.9716235 C36.2206041,7.84305564 36.2848881,7.75734373 36.392028,7.71448778 C36.6063077,7.65020385 37.1848631,7.58591991 37.8277024,7.58591991 C40.120496,7.58591991 41.5347425,9.1930182 41.5347425,11.8715153 C41.5347425,13.5000416 40.9776151,14.6571524 40.2276359,15.1714238 C39.7347924,15.5142715 39.134809,15.5785554 38.6205376,15.5785554 C37.6777066,15.5785554 36.6920196,15.4285595 36.3706,15.2357077 C36.2634601,15.1714238 36.2206041,15.0857119 36.2206041,14.978572 L36.2206041,7.9716235 Z M52.5523841,16.885662 C52.5523841,18.9427478 52.5523841,20.635558 52.4452442,21.535533 C52.3595323,22.1569444 52.2523924,22.6283599 51.8238329,22.7140718 C51.6309811,22.7569277 51.3738454,22.7997837 51.1809936,22.7997837 C51.0524257,22.7997837 51.0095698,22.8640676 51.0095698,22.9283515 C51.0095698,23.0569194 51.1167097,23.0997754 51.3524174,23.0997754 C51.9952567,23.0997754 53.2380794,23.0354914 53.4095032,23.0354914 C53.580927,23.0354914 54.8237497,23.0997754 55.8737206,23.0997754 C56.1094283,23.0997754 56.2165682,23.0354914 56.2165682,22.9283515 C56.2165682,22.8640676 56.1737123,22.7997837 56.0451444,22.7997837 C55.8522926,22.7997837 55.509445,22.7569277 55.2094533,22.7140718 C54.566614,22.6283599 54.4380461,22.1569444 54.3737622,21.535533 C54.2666223,20.635558 54.2666223,18.9427478 54.2666223,16.885662 L54.2666223,14.7857202 L54.3737622,14.7857202 C55.4023051,16.0499709 59.9450362,20.9569776 60.9092952,21.7498128 C61.8306982,22.478364 62.3663976,22.9497795 63.5020804,23.0569194 C63.9734959,23.0997754 64.3806275,23.0997754 64.9806109,23.0997754 L66.0734377,23.0997754 C66.4377133,23.0997754 66.5448532,23.0354914 66.5448532,22.9283515 C66.5448532,22.8426396 66.4162853,22.7997837 66.2662895,22.7997837 C66.1162936,22.7997837 65.4948823,22.7569277 64.9377549,22.52122 C63.909212,22.0926604 63.5449364,21.7498128 61.7449863,20.0784306 C60.8664392,19.2641674 56.40942,14.6571524 55.8522926,14.035741 C56.3022801,13.5000416 60.0307481,9.85728549 60.5664476,9.34301404 C61.5307065,8.42161102 62.002122,7.88591159 62.8806691,7.50020801 C63.3092286,7.30735621 63.7592162,7.20021633 64.0806358,7.20021633 C64.2520596,7.20021633 64.2949156,7.15736037 64.2949156,7.05022049 C64.2949156,6.9430806 64.2092037,6.90022465 63.9734959,6.90022465 C63.4377965,6.90022465 62.02355,6.96450858 61.9164101,6.96450858 C61.4021387,6.96450858 60.7378714,6.90022465 60.3093118,6.90022465 C60.159316,6.90022465 60.0521761,6.9430806 60.0521761,7.05022049 C60.0521761,7.13593239 60.137888,7.17878835 60.2450279,7.2216443 C60.4164517,7.28592823 60.5235916,7.4144961 60.5235916,7.67163182 C60.5235916,8.03590743 59.9664642,8.59303484 59.3664808,9.21444618 C58.5950737,10.0501373 54.7166098,13.9928851 54.3523342,14.4000166 L54.2666223,14.4000166 L54.2666223,13.114338 C54.2666223,9.77157358 54.2666223,9.17159022 54.3094782,8.48589495 C54.3523342,7.73591575 54.523758,7.37164014 55.1023134,7.26450026 C55.3594491,7.2216443 55.488017,7.20021633 55.6380128,7.20021633 C55.7237247,7.20021633 55.8094366,7.15736037 55.8094366,7.07164846 C55.8094366,6.9430806 55.7022968,6.90022465 55.466589,6.90022465 C54.8237497,6.90022465 53.580927,6.96450858 53.3880752,6.96450858 C53.2595074,6.96450858 51.9952567,6.90022465 51.0309977,6.90022465 C50.79529,6.90022465 50.6881501,6.9430806 50.6881501,7.07164846 C50.6881501,7.15736037 50.773862,7.20021633 50.8595739,7.20021633 C51.0524257,7.20021633 51.4167013,7.2216443 51.5881252,7.26450026 C52.2952484,7.4144961 52.4666722,7.75734373 52.5095282,8.48589495 C52.5523841,9.17159022 52.5523841,9.77157358 52.5523841,13.114338 L52.5523841,16.885662 Z M72.1626446,23.399767 C73.3197554,23.399767 74.4768661,23.1426313 75.3982691,22.499792 C76.8767996,21.4498211 77.2196472,19.8212949 77.2196472,18.9427478 C77.2196472,17.2285096 76.6196638,15.899975 74.0911625,13.9071732 L73.4911792,13.4357577 C71.4340934,11.8286594 70.876966,11.0572522 70.876966,9.83585751 C70.876966,8.27161518 72.0340767,7.35021217 73.5126072,7.35021217 C75.4839811,7.35021217 76.0625364,8.2501872 76.1911043,8.48589495 C76.3196722,8.7216027 76.44824,9.30015808 76.469668,9.55729381 C76.491096,9.72871763 76.512524,9.83585751 76.6410918,9.83585751 C76.7482317,9.83585751 76.7910877,9.68586167 76.7910877,9.34301404 C76.7910877,7.88591159 76.8767996,7.17878835 76.8767996,7.07164846 C76.8767996,6.96450858 76.8339436,6.92165262 76.6625198,6.92165262 C76.491096,6.92165262 76.3196722,6.90022465 75.9125406,6.81451274 C75.3768412,6.68594487 74.7554298,6.60023297 73.9197387,6.60023297 C71.1983856,6.60023297 69.4841475,8.1644753 69.4841475,10.4572688 C69.4841475,11.9143713 69.9984189,13.2429059 72.2697845,15.1071399 L73.2340435,15.899975 C75.0768495,17.4213614 75.6982608,18.2784805 75.6982608,19.7570109 C75.6982608,21.1284015 74.6911459,22.6069319 72.6340601,22.6069319 C71.1983856,22.6069319 69.7841391,22.0069485 69.4627195,20.4212782 C69.3984355,20.1212865 69.3984355,19.8212949 69.3984355,19.6284431 C69.3984355,19.4570192 69.3770076,19.3927353 69.2484397,19.3927353 C69.1412998,19.3927353 69.0984439,19.4998752 69.0770159,19.7355829 C69.0555879,20.0784306 68.969876,20.9355497 68.969876,22.0069485 C68.969876,22.5855039 68.991304,22.6712158 69.2912957,22.8212117 C70.1698427,23.2497712 71.1555297,23.399767 72.1626446,23.399767 Z M86.5659066,13.114338 C86.5659066,9.77157358 86.5659066,9.17159022 86.6087626,8.48589495 C86.6516185,7.73591575 86.8230424,7.37164014 87.4015977,7.26450026 C87.6587335,7.2216443 87.7873013,7.20021633 87.9372972,7.20021633 C88.0230091,7.20021633 88.108721,7.15736037 88.108721,7.07164846 C88.108721,6.9430806 88.0015811,6.90022465 87.7658733,6.90022465 C87.123034,6.90022465 85.7730715,6.96450858 85.6659316,6.96450858 C85.5587917,6.96450858 84.2088291,6.90022465 83.5017059,6.90022465 C83.2659981,6.90022465 83.1588583,6.9430806 83.1588583,7.07164846 C83.1588583,7.15736037 83.2445702,7.20021633 83.3302821,7.20021633 C83.4802779,7.20021633 83.7588416,7.2216443 83.9945494,7.28592823 C84.4659649,7.39306812 84.6802446,7.75734373 84.7231006,8.48589495 C84.7659565,9.17159022 84.7659565,9.77157358 84.7659565,13.114338 L84.7659565,16.885662 C84.7659565,18.9427478 84.7659565,20.635558 84.6588167,21.535533 C84.5731048,22.1569444 84.4659649,22.6283599 84.0374053,22.7140718 C83.8445535,22.7569277 83.5874178,22.7997837 83.394566,22.7997837 C83.2659981,22.7997837 83.2231422,22.8640676 83.2231422,22.9283515 C83.2231422,23.0569194 83.3302821,23.0997754 83.5659898,23.0997754 C84.2088291,23.0997754 85.5587917,23.0354914 85.6659316,23.0354914 C85.7730715,23.0354914 87.123034,23.0997754 88.3015728,23.0997754 C88.5372805,23.0997754 88.6444204,23.0354914 88.6444204,22.9283515 C88.6444204,22.8640676 88.6015645,22.7997837 88.4729966,22.7997837 C88.2801448,22.7997837 87.8087293,22.7569277 87.5087376,22.7140718 C86.8658983,22.6283599 86.7373304,22.1569444 86.6730465,21.535533 C86.5659066,20.635558 86.5659066,18.9427478 86.5659066,16.885662 L86.5659066,13.114338 Z M110.59033,7.17878835 C110.547474,6.77165678 110.483191,6.60023297 110.333195,6.60023297 C110.183199,6.60023297 110.097487,6.75022881 110.011775,6.9430806 L103.71195,20.3998502 L97.1549887,6.92165262 C97.0478488,6.68594487 96.9621369,6.60023297 96.8335691,6.60023297 C96.7050012,6.60023297 96.6192893,6.75022881 96.5978613,6.98593655 L95.055047,20.9569776 C94.9693351,21.7712408 94.9050511,22.6069319 94.1979279,22.7354997 C93.8765082,22.7997837 93.7265124,22.7997837 93.5550886,22.7997837 C93.4479487,22.7997837 93.3408088,22.8426396 93.3408088,22.9069236 C93.3408088,23.0569194 93.4908046,23.0997754 93.7050844,23.0997754 C94.2836398,23.0997754 95.3121827,23.0354914 95.5050345,23.0354914 C95.6764583,23.0354914 96.7050012,23.0997754 97.4978364,23.0997754 C97.7549721,23.0997754 97.88354,23.0569194 97.88354,22.9069236 C97.88354,22.8426396 97.797828,22.7997837 97.7121161,22.7997837 C97.5835483,22.7997837 97.2621286,22.7783557 96.897853,22.6926438 C96.5764333,22.6283599 96.3407256,22.3497962 96.3407256,22.0283765 C96.3407256,21.6641009 96.3407256,21.2783973 96.3621536,20.9355497 L97.2192727,10.9929683 L97.3049846,10.9929683 C97.5406923,11.5715237 99.9406258,16.7142382 100.133478,17.0999418 C100.240617,17.3142215 102.083423,21.0212616 102.640551,22.0712325 C103.047682,22.8426396 103.154822,23.0569194 103.304818,23.0569194 C103.49767,23.0569194 103.561954,22.8640676 104.011941,21.9212366 L109.261796,10.7786885 L109.32608,10.7786885 L110.354623,21.8998086 C110.397479,22.2855122 110.376051,22.6497878 110.268911,22.6712158 C110.161771,22.6926438 110.118915,22.7354997 110.118915,22.8212117 C110.118915,22.9283515 110.226055,22.9926355 110.718898,23.0354914 C111.511733,23.0997754 113.825955,23.1212033 114.29737,23.1212033 C114.554506,23.1212033 114.747358,23.0569194 114.747358,22.9283515 C114.747358,22.8426396 114.683074,22.8212117 114.575934,22.8212117 C114.361654,22.8212117 113.804527,22.8212117 113.183116,22.6283599 C112.261713,22.3283682 112.111717,21.1284015 112.026005,20.3569943 L110.59033,7.17878835 Z M120.472289,16.885662 C120.472289,18.9427478 120.472289,20.635558 120.365149,21.535533 C120.279437,22.1569444 120.172298,22.6283599 119.743738,22.7140718 C119.550886,22.7569277 119.293751,22.7997837 119.100899,22.7997837 C118.972331,22.7997837 118.929475,22.8640676 118.929475,22.9283515 C118.929475,23.0569194 119.036615,23.0997754 119.272323,23.0997754 C119.915162,23.0997754 121.265124,23.0354914 121.329408,23.0354914 C121.436548,23.0354914 122.786511,23.0997754 123.96505,23.0997754 C124.200757,23.0997754 124.307897,23.0354914 124.307897,22.9283515 C124.307897,22.8640676 124.265041,22.7997837 124.136473,22.7997837 C123.943622,22.7997837 123.472206,22.7569277 123.172214,22.7140718 C122.529375,22.6283599 122.400807,22.1569444 122.336523,21.535533 C122.229383,20.635558 122.229383,18.9427478 122.229383,16.885662 L122.229383,8.07876339 C122.229383,7.86448362 122.272239,7.71448778 122.400807,7.67163182 C122.593659,7.58591991 122.957935,7.54306396 123.32221,7.54306396 C123.815054,7.54306396 125.12216,7.45735205 126.257843,8.61446282 C127.393526,9.77157358 127.45781,11.207248 127.45781,11.9143713 C127.45781,13.8857452 125.829284,15.4071316 123.75077,15.4071316 C123.300782,15.4071316 123.172214,15.4285595 123.172214,15.5999834 C123.172214,15.7071232 123.300782,15.7499792 123.407922,15.7499792 C123.515062,15.7714072 123.75077,15.7714072 123.85791,15.7714072 C126.900682,15.7714072 129.129192,13.7143214 129.129192,10.6715486 C129.129192,9.53586583 128.529209,8.57160686 128.057793,8.12161934 C127.714946,7.80019968 126.750687,6.90022465 124.072189,6.90022465 C123.086502,6.90022465 121.84368,6.96450858 121.372264,6.96450858 C121.20084,6.96450858 119.915162,6.90022465 118.950903,6.90022465 C118.715195,6.90022465 118.608055,6.9430806 118.608055,7.07164846 C118.608055,7.15736037 118.693767,7.20021633 118.779479,7.20021633 C118.972331,7.20021633 119.336606,7.2216443 119.50803,7.26450026 C120.215154,7.4144961 120.386577,7.75734373 120.429433,8.48589495 C120.472289,9.17159022 120.472289,9.77157358 120.472289,13.114338 L120.472289,16.885662 Z M137.596904,13.114338 C137.596904,9.77157358 137.596904,9.17159022 137.63976,8.48589495 C137.682616,7.73591575 137.85404,7.37164014 138.475451,7.26450026 C138.732587,7.2216443 139.032579,7.20021633 139.182575,7.20021633 C139.268287,7.20021633 139.353998,7.15736037 139.353998,7.07164846 C139.353998,6.9430806 139.246859,6.90022465 139.011151,6.90022465 C138.368312,6.90022465 136.804069,6.96450858 136.696929,6.96450858 C136.589789,6.96450858 135.239827,6.90022465 134.275568,6.90022465 C134.03986,6.90022465 133.93272,6.9430806 133.93272,7.07164846 C133.93272,7.15736037 134.018432,7.20021633 134.104144,7.20021633 C134.296996,7.20021633 134.661272,7.2216443 134.832695,7.26450026 C135.539819,7.4144961 135.711242,7.75734373 135.754098,8.48589495 C135.796954,9.17159022 135.796954,9.77157358 135.796954,13.114338 L135.796954,16.885662 C135.796954,18.9427478 135.796954,20.635558 135.689814,21.535533 C135.604102,22.1569444 135.496963,22.6283599 135.068403,22.7140718 C134.875551,22.7569277 134.618416,22.7997837 134.425564,22.7997837 C134.296996,22.7997837 134.25414,22.8640676 134.25414,22.9283515 C134.25414,23.0569194 134.36128,23.0997754 134.596988,23.0997754 C134.918407,23.0997754 135.389823,23.0783474 135.818382,23.0569194 C136.246942,23.0569194 136.611217,23.0354914 136.696929,23.0354914 C137.318341,23.0354914 137.982608,23.0569194 138.882583,23.0997754 C139.782558,23.1212033 140.896813,23.1640593 142.439627,23.1640593 C143.57531,23.1640593 143.639594,23.0783474 143.78959,22.5855039 C143.961014,21.9640926 144.111009,20.6784139 144.111009,20.4427062 C144.111009,20.2069984 144.089581,20.1212865 143.982442,20.1212865 C143.853874,20.1212865 143.811018,20.2284264 143.78959,20.3998502 C143.725306,20.8069818 143.511026,21.3426812 143.232462,21.6855289 C142.718191,22.3069402 141.77536,22.3283682 140.639677,22.3283682 C138.968295,22.3283682 138.411168,22.1783723 138.06832,21.8355247 C137.682616,21.4498211 137.596904,20.0784306 137.596904,16.9285179 L137.596904,13.114338 Z M150.37164,16.885662 C150.37164,18.9427478 150.37164,20.635558 150.2645,21.535533 C150.178788,22.1569444 150.071648,22.6283599 149.643089,22.7140718 C149.450237,22.7569277 149.193101,22.7997837 149.00025,22.7997837 C148.871682,22.7997837 148.828826,22.8640676 148.828826,22.9283515 C148.828826,23.0569194 148.935966,23.0997754 149.171673,23.0997754 C149.493093,23.0997754 149.985937,23.0569194 150.414496,23.0569194 C150.864484,23.0354914 151.228759,23.0354914 151.271615,23.0354914 C151.593035,23.0354914 152.107306,23.0569194 152.942997,23.0997754 C153.778689,23.1212033 154.957227,23.1640593 156.564326,23.1640593 C157.400017,23.1640593 157.57144,23.1640593 157.721436,22.6069319 C157.828576,22.1569444 158,20.6998419 158,20.5284181 C158,20.3784223 158,20.2069984 157.871432,20.2069984 C157.764292,20.2069984 157.721436,20.2927104 157.67858,20.5284181 C157.528585,21.4069652 157.271449,21.8355247 156.714321,22.0712325 C156.157194,22.3069402 155.214363,22.3069402 154.657236,22.3069402 C152.557294,22.3069402 152.235874,22.0283765 152.17159,20.5498461 C152.150162,20.0998586 152.17159,17.6142132 152.17159,16.885662 L152.17159,15 C152.17159,14.9142881 152.214446,14.8500042 152.321586,14.8500042 C152.685862,14.8500042 154.807231,14.8928601 155.385787,14.957144 C156.221478,15.042856 156.41433,15.4071316 156.500042,15.7071232 C156.585754,15.9856869 156.585754,16.1999667 156.585754,16.4142465 C156.585754,16.5213864 156.628609,16.6070983 156.735749,16.6070983 C156.885745,16.6070983 156.885745,16.3713905 156.885745,16.1999667 C156.885745,16.0499709 156.928601,15.2571357 156.971457,14.8285762 C157.035741,14.1214529 157.142881,13.7571773 157.142881,13.6286095 C157.142881,13.5000416 157.100025,13.4571856 157.035741,13.4571856 C156.950029,13.4571856 156.864317,13.5643255 156.714321,13.7357493 C156.52147,13.9500291 156.221478,13.9928851 155.707206,14.035741 C155.214363,14.078597 152.578722,14.078597 152.300158,14.078597 C152.193018,14.078597 152.17159,14.0143131 152.17159,13.8643172 L152.17159,7.95019552 C152.17159,7.80019968 152.214446,7.73591575 152.300158,7.73591575 C152.535866,7.73591575 154.871515,7.75734373 155.235791,7.80019968 C156.392902,7.92876755 156.607181,8.18590327 156.757177,8.52875091 C156.864317,8.78588663 156.885745,9.15016224 156.885745,9.30015808 C156.885745,9.4715819 156.928601,9.57872179 157.057169,9.57872179 C157.142881,9.57872179 157.185737,9.45015392 157.207165,9.34301404 C157.250021,9.08587831 157.292877,8.14304732 157.314305,7.92876755 C157.378589,7.32878419 157.485729,7.07164846 157.485729,6.92165262 C157.485729,6.81451274 157.464301,6.72880083 157.400017,6.72880083 C157.292877,6.72880083 157.207165,6.81451274 157.100025,6.83594071 C156.928601,6.87879667 156.585754,6.92165262 156.178622,6.9430806 C155.685778,6.96450858 151.421611,6.96450858 151.271615,6.96450858 L150.393068,6.92165262 C149.921653,6.90022465 149.343097,6.90022465 148.850254,6.90022465 C148.614546,6.90022465 148.507406,6.9430806 148.507406,7.07164846 C148.507406,7.15736037 148.593118,7.20021633 148.67883,7.20021633 C148.871682,7.20021633 149.235957,7.2216443 149.407381,7.26450026 C150.114504,7.4144961 150.285928,7.75734373 150.328784,8.48589495 C150.37164,9.17159022 150.37164,9.77157358 150.37164,13.114338 L150.37164,16.885662 Z" id="Combined-Shape"></path>
            </g>
        </g>
    </g>
</svg>