<?xml version="1.0" encoding="UTF-8"?>
<svg width="800px" height="400px" viewBox="0 0 800 400" version="1.1" xmlns="http://www.w3.org/2000/svg" xmlns:xlink="http://www.w3.org/1999/xlink">
    <title>fromsoftware</title>
    <g id="Page-1" stroke="none" stroke-width="1" fill="none" fill-rule="evenodd">
        <g id="Manufacturer" fill="#000000" fill-rule="nonzero">
            <g id="AF150_INCREMENTAL" transform="translate(-0.000000, 0.000000)">
                <g id="fromsoftware" transform="translate(0.000000, 0.000000)">
                    <line x1="0" y1="0" x2="800" y2="400" id="Path"></line>
                    <path d="M313.452493,186.64158 C313.452493,183.819379 318.156162,183.443086 320.037629,183.443086 C324.553151,183.443086 329.444967,184.760113 333.772342,186.829727 L331.514581,167.450611 C325.493885,166.133584 319.473189,165.380997 311.759172,165.380997 C297.271872,165.380997 289.934149,173.847601 289.934149,184.195673 C289.934149,199.43556 311.382879,208.278457 311.382879,213.92286 C311.382879,216.556914 306.67921,216.556914 304.609595,216.556914 C299.341486,216.556914 293.697084,214.863594 288.617121,212.605833 L291.439323,232.737535 L293.393791,232.978363 C299.350894,233.740357 306.039511,234.80715 310.442145,234.80715 C329.444967,234.80715 335.08937,224.270931 335.08937,214.675447 C334.713076,200 313.452493,192.662277 313.452493,186.64158 Z M373.283161,165.380997 C354.092192,165.380997 335.65381,175.352775 335.65381,200.188147 C335.65381,224.835372 354.092192,234.995296 373.283161,234.995296 C392.47413,234.995296 410.912512,225.023518 410.912512,200.188147 C410.912512,175.540922 392.47413,165.380997 373.283161,165.380997 Z M373.283161,216.745061 C365.945437,216.745061 359.360301,209.971778 359.360301,200.188147 C359.360301,190.404516 366.133584,183.443086 373.283161,183.443086 C380.620884,183.443086 387.206021,190.216369 387.206021,200.188147 C387.394167,210.159925 380.620884,216.745061 373.283161,216.745061 Z M414.4873,233.678269 L438.005644,233.678269 L438.005644,209.031044 L459.642521,209.031044 L459.642521,191.533396 L437.817498,191.533396 L437.817498,184.383819 L464.534337,184.383819 L464.534337,166.698024 L414.4873,166.698024 L414.4873,233.678269 Z M659.642521,166.886171 C667.168391,187.017874 674.882408,207.149577 682.972719,227.281279 L682.972719,166.886171 L720.790216,166.886171 C735.465663,166.886171 742.991533,174.788335 742.991533,187.582314 C742.991533,194.731891 739.416745,201.128881 732.267168,205.079962 C735.277516,214.675447 738.852305,224.270931 742.803387,233.866416 L718.156162,233.866416 L707.619944,195.860771 C708.936971,196.048918 710.253998,196.237065 711.571025,196.237065 C715.710254,196.237065 720.790216,194.731891 720.60207,189.651929 C720.419624,185.090795 717.583429,183.891079 713.809038,183.822557 L705.550329,183.819379 L705.550329,233.866416 L660.959548,233.866416 L655.691439,218.438382 L634.242709,218.438382 L628.786453,233.866416 L603.010348,233.866416 C612.982126,212.041392 622.577611,189.087488 631.608655,166.886171 L659.642521,166.886171 Z M527.375353,166.886171 C543.536677,166.239718 546.926411,177.11546 547.561069,180.195834 L547.610806,180.450336 C547.675163,180.79929 547.695202,180.997178 547.695202,180.997178 L552.398871,208.842897 L552.587018,208.842897 L559.172154,166.886171 L582.690499,166.886171 L590.968956,208.842897 L591.157103,208.842897 L597.554092,166.886171 L616.933208,166.886171 C613.797429,181.153967 610.792307,195.55242 607.917843,209.863768 L606.197765,218.483538 C605.959363,219.436475 601.807349,235.137832 587.394167,233.678269 L577.98683,233.678269 L570.649106,195.860771 L570.46096,195.860771 L564.440263,233.678269 L539.981185,233.678269 C536.78269,217.309501 533.396049,200.752587 529.821261,184.383819 L511.194732,184.383819 L511.194732,233.678269 L487.488241,233.678269 L487.488241,184.383819 L468.861712,184.383819 L468.861712,166.886171 L527.375353,166.886171 Z M645.531515,184.571966 L645.343368,184.571966 L639.698965,201.128881 L650.799624,201.128881 L645.531515,184.571966 Z M800,184.383819 L800,166.698024 L746.754468,166.698024 L746.754468,233.678269 L800,233.678269 L800,216.180621 L770.272813,216.180621 L770.272813,209.031044 L794.543744,209.031044 L794.543744,191.533396 L770.272813,191.533396 L770.272813,184.383819 L800,184.383819 Z M0,233.301976 L23.7064911,233.301976 L23.7064911,208.466604 L45.1552211,208.466604 L45.1552211,190.968956 L23.3301976,190.968956 L23.3301976,183.819379 L50.0470367,183.819379 L50.0470367,166.321731 L0,166.321731 L0,233.301976 Z M154.280339,216.368768 C146.942615,216.368768 140.357479,209.595484 140.357479,199.811853 C140.357479,190.028222 147.130762,183.066792 154.280339,183.066792 C161.618062,183.066792 168.203198,189.840075 168.203198,199.811853 C168.391345,209.595484 161.618062,216.368768 154.280339,216.368768 Z M154.867622,165.007824 L154.280339,165.004704 C135.277516,165.004704 116.650988,174.976482 116.650988,199.811853 C116.650988,224.459078 135.277516,234.619003 154.280339,234.619003 C173.471308,234.619003 191.90969,224.647225 191.90969,199.811853 C192.095916,175.229904 173.849482,165.209757 154.867622,165.007824 L154.867622,165.007824 Z M114.393227,187.017874 C114.393227,174.223895 106.867357,166.321731 92.1919097,166.321731 L54.374412,166.321731 L54.374412,233.301976 L76.9520226,233.301976 L76.9520226,183.443086 L84.6660395,183.443086 C88.6171214,183.443086 91.4393227,184.571966 91.8156162,189.275635 C92.0037629,194.355597 86.9238006,195.860771 82.5964252,195.860771 C81.2793979,195.860771 79.9623706,195.672625 78.6453434,195.484478 L89.1815616,233.490122 L113.828786,233.490122 C109.877705,223.894638 106.302916,214.299153 103.292568,204.703669 C110.630292,200.752587 114.393227,194.355597 114.393227,187.017874 Z M233.490122,203.198495 L233.301976,203.198495 L226.528692,166.321731 L195.672625,166.321731 L195.672625,233.301976 L214.111007,233.301976 L214.111007,189.087488 L214.299153,189.087488 L222.953904,233.301976 L242.521167,233.301976 L251.552211,189.087488 L251.740357,189.087488 L251.740357,233.301976 L271.119473,233.301976 L271.119473,166.321731 L240.263405,166.321731 L233.490122,203.198495 Z" id="Shape"></path>
                </g>
            </g>
        </g>
    </g>
</svg>