<?xml version="1.0" encoding="UTF-8"?>
<svg width="800px" height="400px" viewBox="0 0 800 400" version="1.1" xmlns="http://www.w3.org/2000/svg" xmlns:xlink="http://www.w3.org/1999/xlink">
    <title>gust</title>
    <g id="Page-1" stroke="none" stroke-width="1" fill="none" fill-rule="evenodd">
        <g id="AF150_INCREMENTAL" fill="#000000" transform="translate(-0.000000, 0.000000)">
            <g id="gust" transform="translate(0.000000, 0.000000)">
                <line x1="0" y1="0" x2="800" y2="400" id="Path" fill-rule="nonzero"></line>
                <path d="M119.40638,48.4478844 C103.456992,54.1655473 90.7579963,60.3014673 94.520085,60.4727747 C95.7437094,60.528394 90.0260465,64.6064003 81.8144147,69.5320445 C73.6027828,74.4599135 66.1653715,79.6569799 65.2843619,81.0830585 C64.4033524,82.5069123 66.7705093,81.4746183 70.5481715,78.7848694 C79.9723038,72.0749584 113.061331,56.5638511 121.217344,55.035433 C128.879457,53.5982306 129.493494,53.2578405 102.70502,65.2782813 C94.9717137,68.7489249 89.2429269,72.5577338 89.9748767,73.7435371 C90.7068266,74.9315651 89.0271241,77.007277 86.2394853,78.3599381 C81.3850337,80.7159712 81.3538869,80.6737005 85.4897373,77.3587909 C93.5745571,70.8824809 84.3462047,73.8658995 72.1366584,81.6770725 C32.0818711,107.299767 -0.0972247365,165.768988 0.000220730768,212.747264 C0.0362615572,229.962547 4.56812123,252.466111 10.2546373,263.672285 C21.2961786,285.421652 47.5306849,307.046432 72.2723694,314.788637 C101.570386,323.95692 129.402278,320.150336 158.208621,303.037393 C166.433601,298.14957 173.517274,294.151656 173.946655,294.151656 C174.37826,294.151656 174.33599,298.287506 173.853214,303.344412 C173.243627,309.727281 173.735301,312.065516 175.461724,310.999851 C177.052436,310.016502 177.949019,311.564943 177.949019,315.302559 C177.949019,318.512904 179.143721,323.32731 180.605396,326.001485 C182.064846,328.673436 183.023723,333.863828 182.732277,337.534701 C182.316245,342.814084 182.707805,343.512662 184.60331,340.871859 C187.397623,336.982958 200.196734,310.5193 200.196734,308.628244 C200.196734,306.590354 219.356467,258.728843 225.808304,244.650489 C229.031998,237.613536 232.558261,231.858052 233.64395,231.858052 C234.731863,231.858052 240.981247,227.490825 247.533199,222.153598 C254.087376,216.816371 263.071003,211.254443 267.500524,209.792768 C279.418625,205.859372 278.993693,202.362031 266.058872,197.952533 C259.813938,195.823427 257.06412,194.506362 259.947424,195.024734 C262.832953,195.545331 267.513872,195.087028 270.352681,194.008013 C273.189264,192.928999 280.840254,191.834412 287.354385,191.574113 C309.777858,190.679755 308.398499,187.990006 284.733604,186.454914 C263.611623,185.084455 211.765546,188.125717 160.150846,193.761064 C128.619159,197.20501 114.952387,215.22121 131.785009,231.155024 C135.7629,234.919338 141.342627,239.195349 144.18811,240.657024 C151.071553,244.196635 164.769472,241.729363 174.353788,235.226356 C178.525234,232.396447 183.989273,229.428601 186.494366,228.632133 C190.710308,227.295046 190.894964,227.731101 188.954964,234.494406 C183.410833,253.823222 175.419453,265.523295 161.710411,274.38456 C139.035539,289.041356 120.131655,292.69888 99.4768761,286.431698 C86.4997836,282.496078 81.4206301,279.063255 74.3191593,269.436668 C66.8550507,259.322857 64.3410588,248.626155 64.154178,226.22938 C63.9850953,205.861596 65.3177335,201.145081 77.6563166,178.470209 C81.9812725,170.518875 85.6921915,162.858987 85.8990952,161.448482 C86.5843249,156.774237 100.546991,138.417646 103.416947,138.417646 C104.202291,138.417646 109.530619,134.533195 115.257181,129.785533 C126.674708,120.316905 135.435859,115.184357 137.188979,116.937477 C137.80969,117.558188 135.453657,119.547134 131.954091,121.358098 C120.011518,127.531839 94.2931583,154.611759 86.9781094,168.707911 C79.4784045,183.164477 74.9287467,196.283955 77.4338394,196.226111 C78.265904,196.208313 81.4495521,191.031269 84.508613,184.724042 C97.7259809,157.47059 123.942689,132.835695 150.17942,123.020002 C164.9786,117.482546 189.660216,115.867362 193.947351,120.154497 C195.736067,121.943213 195.822833,122.844245 194.205424,122.844245 C192.868337,122.844245 191.195309,124.350416 190.490056,126.190302 C189.388794,129.055808 191.511226,129.331679 205.269213,128.10583 C223.334359,126.49732 233.563858,122.363695 233.577207,116.66828 C233.581656,114.559196 235.583951,109.555685 238.02675,105.548871 C243.584229,96.4339822 243.697693,89.0855618 238.331544,85.7350558 C236.055602,84.3156515 233.552734,79.9350763 232.765165,76.003905 C231.979821,72.0727336 227.959659,65.6720659 223.834932,61.7809404 C219.707981,57.8898149 215.707842,52.7683908 214.94252,50.3990091 C214.177199,48.0274026 210.234904,43.8381577 206.18137,41.0838905 C198.87077,36.1204252 194.674851,35.68437 172.38709,37.5843249 C153.699009,39.1772613 134.005331,43.2152217 119.40638,48.4478844 Z M132.341202,51.7561197 C129.23987,53.1599506 130.588082,53.36018 136.790745,52.4168769 C141.685242,51.6715784 146.108088,50.6926789 146.617561,50.2432751 C148.528639,48.559123 136.612763,49.8205685 132.341202,51.7561197 M593.981301,116.463601 C586.027742,117.264518 559.497342,118.619404 535.024854,119.471492 C510.552367,120.323579 487.172243,122.043328 483.069764,123.291425 C476.359853,125.33599 475.741367,126.210325 476.896023,131.990281 C477.6035,135.525443 477.421069,138.417646 476.493339,138.417646 C475.563385,138.417646 473.049393,141.385492 470.906938,145.014094 L467.009138,151.610542 L478.166368,157.263686 C484.302288,160.371692 494.293737,163.982496 500.371813,165.286213 C510.169707,167.388622 512.630304,167.083828 522.110056,162.607588 C527.990127,159.831073 534.611047,157.755361 536.82247,157.997861 C539.036118,158.238136 540.224146,157.428319 539.463274,156.195796 C537.242952,152.605015 544.749331,150.983156 548.642681,154.213524 C551.630549,156.694145 552.631697,156.558434 554.976606,153.350313 C557.788717,149.508133 562.854522,148.1221 562.810026,151.210083 C562.796678,152.128914 557.766469,177.907342 551.630549,208.497951 C539.449925,269.225315 534.059304,313.622856 537.436507,325.400797 C539.625682,333.029539 546.064171,336.077476 548.204401,330.499974 C548.891856,328.706808 550.462544,327.863619 551.695068,328.626716 C552.927591,329.387588 553.935413,328.982679 553.935413,327.723459 C553.935413,326.466463 555.437134,326.014834 557.27257,326.717862 C559.219245,327.465385 560.6342,326.74011 560.665347,324.980315 C560.898948,312.381434 562.827825,291.19271 563.831197,290.189338 C564.507527,289.513007 565.059271,291.63099 565.059271,294.892505 C565.059271,298.156245 566.080441,300.82597 567.326313,300.82597 C568.66785,300.82597 568.990442,298.418768 568.113882,294.932551 C567.286267,291.633214 567.513194,289.57975 568.627804,290.269429 C569.724616,290.94576 570.721314,286.938946 570.843677,281.361444 C570.997186,274.262198 572.292003,270.322128 575.161958,268.226393 C577.847257,266.259695 578.227693,265.229625 576.26322,265.229625 C574.005077,265.229625 574.171935,264.230703 576.950675,261.160518 C578.975217,258.922398 580.632671,256.085814 580.632671,254.853291 C580.632671,252.010033 587.680748,230.191698 597.525362,202.560035 C602.847016,187.625144 607.447843,178.781677 612.573717,173.638005 C617.617274,168.57665 620.433835,163.228299 621.45723,156.772012 C622.28262,151.572721 623.261519,147.316733 623.633056,147.316733 C624.006818,147.316733 629.751178,146.346732 636.398795,145.158704 C658.212681,141.265354 661.647728,140.72251 679.635006,138.319756 C689.424001,137.011591 711.449239,135.145007 728.57998,134.172782 L759.726782,132.401864 L737.479067,131.752231 C684.881017,130.214914 684.068976,130.132597 691.599827,127.118032 C694.509829,125.954476 720.332752,124.99115 748.985585,124.980026 C777.636193,124.968902 800.589162,124.16576 799.988473,123.195759 C797.180811,118.650551 627.312828,113.099746 593.981301,116.463601 M36.5981574,127.849981 L33.0718945,135.080489 L37.6059789,129.51856 C41.9709807,124.163535 43.3948345,120.619474 41.1834116,120.619474 C40.6027462,120.619474 38.540383,123.87209 36.5981574,127.849981 M664.617798,131.12707 C668.595689,131.620969 675.100922,131.620969 679.078813,131.12707 C683.056705,130.635395 679.801864,130.230487 671.848306,130.230487 C663.894747,130.230487 660.639906,130.635395 664.617798,131.12707 M769.182061,133.21613 C770.712704,133.834617 773.215572,133.834617 774.74399,133.21613 C776.274633,132.599869 775.022087,132.094846 771.963026,132.094846 C768.903965,132.094846 767.653643,132.599869 769.182061,133.21613 M24.7579232,147.634875 C23.1894592,150.144417 22.3952158,152.687331 22.9936793,153.285795 C23.5899181,153.884258 25.2429234,152.197881 26.6645524,149.541504 C30.0261822,143.258749 28.4643926,141.69696 24.7579232,147.634875 M497.203738,181.413582 C487.403619,185.249088 469.61657,196.054803 458.926543,204.669119 C443.967179,216.722931 424.898662,241.678194 424.898662,249.204596 C424.898662,257.789989 436.091488,272.898413 446.561263,278.442544 C451.164315,280.880893 457.435946,284.925528 460.495007,287.432846 L466.056936,291.986953 L461.037851,296.216244 C457.502689,299.197438 456.846382,300.82597 458.81308,301.729228 C460.350397,302.432256 459.464938,302.48565 456.846382,301.844916 C453.500325,301.0262 450.025232,302.737049 445.166331,307.598175 C441.359747,311.404759 438.247291,315.409348 438.247291,316.501711 C438.247291,317.591849 436.905754,317.97006 435.266098,317.34045 C433.626441,316.710839 430.874398,317.994533 429.147976,320.190382 C426.226851,323.912425 426.315842,323.96137 430.460591,320.915658 C433.755478,318.495106 433.512978,319.215932 429.523962,323.687723 C426.562791,327.011532 424.802997,330.393185 425.612814,331.203001 C427.935475,333.525663 422.576001,338.647087 417.821664,338.647087 C414.965057,338.647087 414.075148,339.585941 415.183085,341.428051 C416.509049,343.635025 416.157535,343.646149 413.481134,341.481446 C409.521041,338.277775 404.875718,341.606033 404.875718,347.646288 C404.875718,349.659706 402.779983,353.201543 400.219271,355.519755 C387.048623,367.440081 394.005484,365.629117 413.178565,352.147001 C440.396421,333.007291 473.240723,315.511688 490.086694,311.180057 C505.749085,307.155446 513.393401,302.421132 516.214411,295.003743 C522.118955,279.472613 516.343448,269.76371 493.884379,257.451824 C485.118779,252.648542 474.270793,245.424709 469.776754,241.402322 L461.607393,234.085048 L469.347373,227.379587 C477.518959,220.298139 497.306077,211.835108 505.691241,211.835108 C508.43216,211.835108 512.979593,210.219924 515.798379,208.246551 C522.038863,203.874875 520.9465,196.846822 512.754891,188.655213 C509.706954,185.607276 507.21521,182.067664 507.21521,180.788421 C507.21521,177.960736 505.800255,178.049727 497.203738,181.413582 M590.546254,187.52058 C589.711964,188.871016 590.010084,190.955627 591.209235,192.154779 C592.633089,193.578633 593.84559,193.151476 594.702127,190.920031 C596.257242,186.864272 592.733204,183.980968 590.546254,187.52058 M380.403231,190.005649 C366.160243,195.999184 364.320357,197.785676 356.922992,212.814007 C352.671453,221.452795 345.83473,237.958376 341.732252,249.491591 C332.559518,275.281143 318.171921,294.632206 303.265951,301.224205 C295.463677,304.674825 292.696062,305.039688 290.168721,302.941728 C282.103924,296.247391 291.19879,262.782377 307.70882,238.394431 C319.366623,221.176924 321.615867,218.509423 324.472474,218.509423 C328.170044,218.509423 327.573805,212.716118 323.449079,208.593616 C318.512311,203.656848 305.457351,198.486479 297.928724,198.486479 C289.759363,198.486479 283.496631,206.691436 270.134653,234.899315 C253.424394,270.177517 250.227397,302.567967 261.900774,318.330473 C264.285729,321.551942 269.649653,326.510958 273.818875,329.354216 C280.130552,333.656924 283.073925,334.273186 291.383446,333.031764 C305.014622,330.998322 311.615519,327.191738 322.020775,315.369302 L330.893164,305.291087 L332.261399,313.852008 C333.929978,324.283962 342.684454,333.596856 352.566889,335.452315 C367.710909,338.293348 396.388215,319.267102 413.759231,294.854684 L421.383523,284.140184 L408.673403,295.662276 C398.626335,304.77049 393.362525,307.765033 383.553507,309.960883 C368.709831,313.282466 366.24256,311.304645 367.989006,297.488813 C371.441851,270.161944 387.991927,242.352299 406.014801,233.597823 C412.166294,230.609955 415.999576,227.259449 415.999576,224.872269 C415.999576,222.740938 417.000723,220.378231 418.224347,219.621808 C419.447972,218.865386 420.449119,215.243458 420.449119,211.572585 C420.449119,207.690359 419.519164,205.472261 418.224347,206.273179 C417.000723,207.029601 415.984002,206.337697 415.966204,204.735862 C415.939507,202.451022 415.514576,202.482168 413.988382,204.889371 C411.363152,209.034121 407.109389,206.044028 407.067118,200.023796 C407.038196,196.103748 406.622164,195.798955 404.933562,198.46868 C403.262759,201.111709 402.272735,201.222948 400.074661,199.024873 C397.954454,196.904666 397.93888,196.261707 399.999019,196.261707 C402.08363,196.261707 402.070281,195.271684 399.945624,191.867783 C398.161357,189.013401 396.439384,188.234731 395.031104,189.643012 C393.838626,190.835489 391.809635,191.796591 390.525941,191.778792 C389.240023,191.758769 389.691652,190.773196 391.527089,189.587392 C394.281356,187.807575 394.087801,187.451612 390.414703,187.547277 C387.967454,187.611795 383.462292,188.717507 380.403231,190.005649 M68.0608769,230.928098 C66.296633,235.522251 66.3567018,236.307595 68.4613357,236.307595 C69.4246618,236.307595 70.3635154,234.305301 70.5481715,231.858052 C70.9508551,226.509701 69.9052125,226.118141 68.0608769,230.928098 M565.235027,284.32484 C565.341817,286.916699 565.869087,287.44397 566.578789,285.670827 C567.221748,284.064542 567.141657,282.144564 566.403033,281.405939 C565.664408,280.667315 565.139362,281.979931 565.235027,284.32484 M184.974847,307.500285 C184.974847,310.559346 185.47987,311.811892 186.096132,310.28125 C186.714619,308.752832 186.714619,306.249964 186.096132,304.719321 C185.47987,303.190903 184.974847,304.441224 184.974847,307.500285 M563.268329,308.612671 C563.312825,312.283544 563.811174,313.516067 564.376266,311.351365 C564.941358,309.186662 564.903537,306.18322 564.293949,304.67705 C563.684362,303.17088 563.223834,304.941798 563.268329,308.612671 M352.001797,321.155933 C352.266545,324.962517 353.4301,326.635545 355.307808,325.914719 C357.336799,325.136049 357.737258,326.023733 356.644895,328.871441 C355.256638,332.488919 355.474665,332.57791 358.613818,329.674583 C361.528269,326.980385 361.615035,326.10605 359.109942,324.671072 C357.439139,323.71442 355.065308,321.211552 353.832784,319.109143 C351.959526,315.909922 351.659182,316.245862 352.001797,321.155933 M419.479119,333.545686 C418.273292,336.715985 418.526916,336.971834 420.724991,334.791558 C422.246734,333.280938 422.929739,331.485547 422.24451,330.802543 C421.55928,330.117313 420.315633,331.352061 419.479119,333.545686" id="Shape"></path>
            </g>
        </g>
    </g>
</svg>