<?xml version="1.0" encoding="UTF-8"?>
<svg width="800px" height="400px" viewBox="0 0 800 400" version="1.1" xmlns="http://www.w3.org/2000/svg" xmlns:xlink="http://www.w3.org/1999/xlink">
    <title>imadio</title>
    <g id="Page-1" stroke="none" stroke-width="1" fill="none" fill-rule="evenodd">
        <g id="Manufacturer" fill="#000000" fill-rule="nonzero">
            <g id="AF150_INCREMENTAL" transform="translate(-0.000000, 0.000000)">
                <g id="imadio" transform="translate(0.000000, 0.000000)">
                    <line x1="0" y1="0" x2="800" y2="400" id="Path"></line>
                    <path d="M349.195026,240.528912 C362.808963,240.528912 373.299827,245.323994 379.612441,256.16505 L380.888747,256.16505 L381.33223,243.030694 L435.149826,243.030694 L417.068643,353.73455 L363.251047,353.73455 L367.336373,339.140821 L366.060066,339.140821 L364.358962,340.639171 C353.368742,350.199909 343.578504,356.236332 328.807589,356.236332 C298.17623,356.236332 286.130283,325.797984 290.522887,298.903827 C295.085746,270.96726 317.28736,240.528912 349.195026,240.528912 Z M591.849405,184.65578 L564.233888,353.73455 L512.756187,353.73455 L516.50982,337.264485 L515.233513,337.264485 C504.247885,348.522504 490.012207,356.236332 475.334681,356.236332 C444.703322,356.236332 433.508245,325.797984 437.832747,299.32079 L438.130781,297.614068 C443.165905,270.524904 463.196035,240.528912 494.44581,240.528912 C507.208877,240.528912 519.665073,247.617295 525.654405,257.832905 L527.568865,257.832905 L529.340753,231.355711 L536.96822,184.65578 L591.849405,184.65578 Z M676.744321,47.3361558 C795.139832,102.628587 773.426953,183.332403 761.446206,243.003803 C787.368714,249.508676 804.158407,268.774688 799.101231,299.737754 C793.108221,336.430558 756.689386,356.236332 721.378236,356.236332 C686.067086,356.236332 656.117977,336.430558 662.110987,299.737754 C668.444509,260.960132 703.051038,240.528912 740.276648,240.528912 C747.558364,240.528912 754.484493,241.310681 760.868121,242.858613 C768.039192,171.179464 747.123985,78.7792943 575.081383,98.7946443 C421.643771,116.645499 292.157912,180.474013 200.844326,247.099025 C205.364885,251.098075 208.277461,256.839286 209.456038,264.08736 L210.732345,264.08736 C219.633666,248.659704 231.384834,240.528912 248.827691,240.528912 C275.842848,240.528912 284.418026,260.960132 280.502139,284.935544 L269.265245,353.73455 L216.085802,353.73455 L225.37682,296.789781 C226.279755,290.760955 226.598978,284.101616 219.375625,284.101616 C211.505068,284.101616 210.14302,292.44089 209.087433,298.903827 L200.13197,353.73455 L146.952527,353.73455 L156.17815,297.219241 C157.127002,291.081841 157.637687,284.101616 150.24235,284.101616 C142.371792,284.101616 141.009745,292.44089 139.954158,298.903827 L130.998694,353.73455 L77.8192512,353.73455 L95.9004346,243.030694 L147.803571,243.030694 L142.901016,262.627987 L144.602759,262.627987 C150.280746,251.110081 162.129817,243.206802 174.43949,241.094318 C192.493988,196.179748 210.398813,159.596374 226.097916,121.760968 C367.156779,47.9426885 553.470194,-10.2346603 676.744321,47.3361558 Z M83.9592686,196.539244 L58.2846693,353.73455 L0,353.73455 L25.6745994,196.539244 L83.9592686,196.539244 Z M655.879967,243.030694 L637.798783,353.73455 L582.917598,353.73455 L600.998782,243.030694 L655.879967,243.030694 Z M361.88672,282.642243 C353.165291,282.642243 346.476888,289.730626 345.148892,297.861418 C343.718742,306.617655 346.747254,314.123001 356.74499,314.123001 C367.16816,314.123001 372.750512,305.992209 374.146611,297.444454 C375.54271,288.896699 370.608148,282.642243 361.88672,282.642243 Z M508.626529,282.642243 C499.479665,282.642243 493.361313,290.14759 492.033316,298.278381 C490.671269,306.617655 494.337934,314.123001 503.484799,314.123001 C511.993509,314.123001 519.167039,305.366764 520.392882,297.861418 C521.652776,290.14759 516.922522,282.642243 508.626529,282.642243 Z M733.398307,282.642243 C724.251443,282.642243 716.890835,289.939108 715.426634,298.903827 C713.996484,307.660064 719.747866,314.123001 728.256577,314.123001 C736.765287,314.123001 744.627843,307.660064 746.057993,298.903827 C747.522195,289.939108 742.545171,282.642243 733.398307,282.642243 Z M638.246118,182.987925 C655.476257,182.987925 666.851635,192.786571 664.229693,208.839673 C661.26724,226.977593 645.508486,234.899903 629.767371,234.899903 C614.026256,234.899903 600.855393,226.977593 603.817846,208.839673 C606.439788,192.786571 621.015978,182.987925 638.246118,182.987925 Z M83.3644286,48.4925307 C140.514417,18.1053428 200.767023,19.6577404 217.94239,51.9599079 C235.117757,84.2620753 202.711923,135.081839 145.561935,165.469027 C88.4119463,195.856215 28.1593407,194.303817 10.9839736,162.00165 C-6.19139354,129.699482 26.21444,78.8797187 83.3644286,48.4925307 Z" id="Shape"></path>
                </g>
            </g>
        </g>
    </g>
</svg>