<?xml version="1.0" encoding="UTF-8"?>
<svg width="800px" height="400px" viewBox="0 0 800 400" version="1.1" xmlns="http://www.w3.org/2000/svg" xmlns:xlink="http://www.w3.org/1999/xlink">
    <title>kadokawa</title>
    <g id="Page-1" stroke="none" stroke-width="1" fill="none" fill-rule="evenodd">
        <g id="Manufacturer" fill="#000000" fill-rule="nonzero">
            <g id="AF150_INCREMENTAL" transform="translate(-0.000000, 0.000000)">
                <g id="kadokawa" transform="translate(0.000000, 0.000000)">
                    <line x1="0" y1="0" x2="800" y2="400" id="Path"></line>
                    <path d="M438.595693,218.699284 L437.727499,218.346019 L437.006599,217.845461 L436.571904,217.261077 L436.449758,216.571312 L436.538374,216.257565 L436.970674,215.871967 L438.053222,215.322311 L439.022006,214.662484 L439.789609,213.801475 L440.245859,213.033872 L441.569106,207.846266 L442.130737,206.16736 L442.516335,205.335091 L444.616765,202.343716 L446.199871,200.667204 L447.806927,199.427783 L450.933621,197.467462 L452.196992,196.490295 L453.787283,194.819771 L455.708087,192.059514 L457.045704,189.933937 L458.304285,188.13528 L459.040752,187.249123 L459.622741,186.610851 L460.675351,185.830076 L461.499237,185.430108 L463.629604,184.709208 L469.469852,182.80996 L473.015674,181.649574 L473.153388,181.66634 L473.195301,181.732203 L472.272022,182.627939 L470.826629,183.626661 L468.756137,184.608618 L463.71822,186.292314 L462.245285,187.057522 L460.977123,188.028701 L459.931699,189.222617 L458.962914,190.694355 L457.157072,193.774346 L455.505708,195.994527 L453.863924,197.814739 L451.88085,199.496041 L449.728928,201.007296 L447.927875,202.263483 L447.054892,203.016715 L446.227413,204.020227 L444.907759,206.164965 L444.014418,208.324072 L443.60008,210.235295 L443.443207,212.298602 L443.428837,214.52477 L443.271963,215.792932 L442.967796,216.710223 L442.204983,217.779598 L440.977537,218.591508 L439.843497,218.841788 L438.595693,218.699284 L438.595693,218.699284 Z M354.646768,218.205911 L353.419322,218.009519 L352.536758,217.670625 L351.753588,217.228744 L351.015922,216.543769 L350.574042,215.949805 L350.552487,215.837239 L350.621942,215.800117 L351.959559,216.482696 L352.86727,216.794048 L354.220455,217.00002 L355.597589,216.768901 L356.744802,216.083926 L357.530368,215.244473 L358.107567,214.191863 L358.459634,213.120093 L358.875169,212.71773 L359.402073,212.229147 L360.019987,211.422026 L360.496596,210.472402 L360.781603,209.537148 L361.086967,207.698973 L361.05703,206.665523 L360.943266,205.19618 L360.649877,203.647802 L360.332537,202.480232 L359.808028,200.966581 L358.933847,199.195466 L358.106369,197.960835 L358.094394,197.853059 L358.16864,197.813542 L358.53388,198.029093 L359.423628,198.775141 L360.415165,199.818171 L361.400715,201.277933 L362.146762,202.770029 L362.642531,204.107645 L363.048486,205.735059 L363.307148,207.308585 L363.395763,209.018627 L363.252062,210.849617 L362.982623,212.206394 L362.52757,213.583529 L361.746794,215.043291 L360.919316,216.046803 L359.962507,216.923379 L358.657223,217.655057 L357.280088,218.108913 L355.602379,218.300514 L354.646768,218.205911 L354.646768,218.205911 Z M391.69528,216.863504 L392.071297,217.649069 L392.010225,217.7305 L391.70965,217.74487 L391.034255,217.595182 L390.415143,217.192819 L389.999608,216.59167 L389.749329,215.614503 L389.890635,214.942701 L389.920573,214.439747 L389.526592,213.605084 L389.490667,213.062613 L389.749329,212.500981 L391.121673,210.817284 L391.534814,210.21374 L391.969509,208.817446 L392.201826,208.434243 L394.388476,207.160094 L395.139314,206.488292 L395.594367,205.91708 L395.764413,205.541063 L395.70334,205.506335 L395.363248,205.763799 L394.474697,206.502662 L392.939491,207.415163 L391.770723,208.077385 L391.458173,208.580339 L390.65704,209.204241 L389.639158,209.611394 L389.047589,210.036509 L387.800983,211.435199 L386.965122,212.227949 L386.421453,212.502179 L385.729293,212.624325 L385.233525,212.739285 L384.794039,213.11171 L384.549748,213.885301 L384.475502,215.031316 L384.427602,215.716291 L384.664709,216.29349 L385.067071,216.728186 L385.160477,216.953317 L385.059886,217.026365 L384.463527,217.040735 L383.858785,216.829974 L382.827731,216.027643 L382.432553,215.203757 L382.100843,214.516388 L382.079288,213.721242 L382.214607,212.638695 L381.807454,210.594548 L381.881699,210.064052 L382.893594,209.04138 L383.45762,208.38275 L384.434787,206.915802 L384.732967,206.602055 L385.532902,206.386504 L386.870519,205.890735 L387.741107,205.333894 L388.378182,204.74951 L389.043996,204.192669 L389.538567,204.077708 L390.692965,204.141176 L391.495296,203.930414 L392.682027,203.284957 L393.178993,202.742486 L393.244856,202.477837 L393.16582,202.426344 L392.86764,202.502984 L392.073692,203.148441 L391.522839,203.420276 L391.000725,203.455003 L389.58048,203.027493 L389.049984,203.039468 L388.453625,203.2646 L387.862056,204.101658 L387.313597,204.567489 L384.578488,205.90271 L383.825255,206.57571 L382.136768,207.939672 L377.968242,211.102291 L376.90246,212.077063 L376.815042,212.351293 L376.92162,213.043452 L377.226984,213.551196 L378.258039,214.758284 L378.576576,215.254053 L378.571786,215.742636 L378.672377,216.039618 L379.250773,216.503054 L379.263946,216.618015 L379.16096,216.69226 L378.970557,216.717408 L378.095178,216.555744 L377.212614,216.555744 L376.466567,216.280317 L375.779197,215.742636 L375.243911,215.055266 L374.769697,214.105642 L374.314644,212.527326 L374.279916,211.351373 L374.467925,210.932245 L375.006804,210.453242 L377.892799,208.448613 L378.137091,208.085768 L378.426888,207.561259 L379.78606,206.52781 L379.438782,206.588883 L376.132462,207.573234 L374.063167,208.557586 L371.965133,209.104848 L371.284948,209.446137 L371.021496,209.799402 L370.973596,210.096384 L371.252615,210.837642 L371.389131,211.468729 L371.217888,212.104606 L371.252615,212.460266 L371.613065,213.129673 L371.658571,213.632627 L371.428649,214.189468 L371.332848,214.201443 L371.096939,213.843388 L370.750859,213.372767 L370.227548,213.08297 L369.176136,212.911727 L368.924659,212.757248 L368.786946,212.485414 L368.537864,209.613789 L368.572592,208.156421 L368.755811,207.118181 L368.980942,206.732584 L369.37612,206.512242 L370.113785,206.236815 L371.954355,206.040424 L374.111068,205.55184 L376.039056,205.374609 L378.001772,205.234501 L379.371722,204.974641 L380.642278,204.399837 L380.793164,204.208236 L380.717721,204.168718 L380.257878,204.296852 L378.442455,204.724362 L377.285662,204.790225 L374.409247,204.900396 L373.761395,205.07164 L373.199764,205.321919 L372.683638,205.606926 L372.603405,205.553038 L372.765068,204.956679 L372.779439,203.747195 L372.866857,203.426263 L373.131506,203.286155 L374.07634,203.30771 L374.7685,203.226279 L376.724031,202.534119 L377.829331,202.215582 L378.813683,202.194027 L379.77169,202.458676 L381.129664,202.725721 L381.850564,202.63471 L382.547514,202.318568 L383.137885,201.687481 L383.531866,200.857608 L383.768972,199.875651 L384.80841,191.956529 L386.00951,183.323691 L387.284857,174.419019 L387.223784,173.707699 L387.013022,173.10176 L386.60587,172.493426 L382.383455,168.36801 L377.679643,164.113263 L373.022533,159.811813 L369.574906,156.546208 L366.947573,153.875764 L364.3394,150.984979 L362.454522,148.597148 L360.776813,146.202131 L359.34579,143.767596 L358.097987,141.147448 L357.322001,139.070969 L356.580744,136.553806 L356.023902,133.651046 L355.699377,130.514772 L355.673032,127.69464 L355.944867,124.097325 L356.37118,121.065234 L356.947181,118.589984 L357.775857,116.363816 L358.678778,114.621442 L359.792461,112.885055 L361.217496,111.052867 L362.471287,109.661362 L364.272339,107.999221 L365.83389,106.709504 L369.070755,104.448609 L371.502895,103.013994 L373.506326,101.961384 L376.403099,100.585447 L379.837553,98.9280952 L383.327092,96.9198738 L385.838267,95.1571415 L387.591419,93.6530711 L388.439255,92.8710981 L390.006793,91.1802164 L391.126463,89.6533933 L392.262899,87.7361825 L392.981404,86.012968 L393.455617,84.2466433 L393.659193,82.6192295 L393.673564,81.466029 L393.529863,80.0888944 L393.042477,78.1357583 L392.418575,76.723896 L391.617442,75.4880675 L390.951627,74.9324236 L390.381613,74.6893294 L389.442767,74.5935288 L388.500328,74.7504023 L386.538809,75.4353771 L382.028993,77.6459774 L379.504645,78.7860054 L377.591027,79.3165015 L376.504887,79.45182 L375.824702,79.3212916 L375.330131,79.2901564 L374.918188,79.4925353 L374.278719,79.8697504 L373.551831,80.5667002 L372.805784,81.6516428 L371.767544,83.8778107 L371.584325,84.0945597 L371.477747,84.0897697 L371.110112,83.633519 L370.78439,82.7377828 L370.544888,81.5450645 L370.470642,80.1343997 L370.567641,78.803968 L370.908931,77.3094776 L371.511277,76.0820316 L372.003453,75.5539304 L372.148352,75.3084412 L372.039378,74.8342279 L371.828617,73.4139831 L371.89927,71.8620123 L371.449007,70.674084 L371.110112,69.1819887 L371.021496,67.3845287 L371.332848,66.2696485 L371.775927,65.6948445 L372.051353,65.5511435 L372.384261,65.5930563 L372.616577,65.7750775 L373.410525,67.2396302 L373.537461,67.3007031 L373.68236,67.2743579 L374.176931,66.7390717 L374.918188,64.831441 L375.80674,63.0758938 L376.986285,61.4065672 L377.911959,60.4976584 L379.051987,59.6007247 L380.353679,58.8678496 L382.172694,58.2439477 L383.230094,58.0739016 L383.785737,58.1349745 L384.039609,58.2930456 L384.127027,58.6259529 L384.044399,59.1660291 L383.413312,60.7754803 L383.151058,61.731092 L383.151058,62.3023034 L383.230094,62.6268282 L383.373795,62.6962837 L384.391677,62.6352107 L385.934067,62.7094562 L389.016454,63.2926428 L392.085668,64.2973523 L395.321335,65.7439423 L401.39869,69.0334976 L402.794984,69.6825472 L403.000956,69.8394207 L402.954253,69.9148638 L401.438207,69.9819242 L399.810794,69.8741485 L398.355821,69.4669957 L398.14027,69.4933408 L398.179787,69.5807589 L398.416894,69.7651752 L399.63955,70.7902423 L401.335222,72.756551 L402.198625,74.1336856 L403.054844,75.7215816 L403.822447,77.6016696 L405.150483,81.5630271 L405.812705,83.131763 L405.756422,83.2060085 L405.641462,83.2060085 L405.231914,82.9736919 L404.493051,82.2899147 L402.375856,79.1153201 L401.548378,78.2866444 L401.330432,78.2387441 L401.313667,78.3261622 L401.941161,79.3452417 L402.618951,81.1115665 L403.026104,82.9425567 L403.251235,85.5674949 L403.209322,90.0401885 L403.300333,91.4915686 L403.300333,92.2507888 L403.218902,92.3034792 L403.018918,92.1226554 L402.668049,91.4436682 L402.211798,89.8617598 L401.458565,87.7661202 L401.002314,87.0009124 L400.445473,86.3219252 L400.216749,86.2141494 L400.125738,86.29558 L399.753313,88.7780147 L398.979723,91.4640259 L397.919928,93.8662276 L396.894861,95.6912302 L395.653045,97.5018628 L394.207652,99.3136929 L390.203184,103.654661 L387.121996,107.089114 L384.549748,110.215809 L382.681635,113.033546 L381.818231,114.613059 L381.30929,115.732729 L380.562045,117.63078 L379.923773,120.252126 L379.632779,122.808806 L379.632779,125.250525 L379.707024,126.602512 L379.82917,127.076726 L379.878268,127.049183 L380.195608,124.116485 L380.584798,122.065153 L381.220675,119.647384 L382.434948,116.585355 L383.74622,114.231054 L384.026437,113.900542 L385.890957,113.120964 L388.161433,112.747341 L390.358861,112.834759 L392.476055,113.361663 L393.475975,113.790371 L394.120234,114.163993 L395.184819,114.931596 L395.912904,115.628546 L396.715235,116.659601 L397.222978,117.575695 L397.717549,118.913311 L398.008544,120.453307 L398.021716,122.461529 L397.648094,124.328444 L396.923601,126.045671 L395.843449,127.613209 L395.144104,128.337702 L394.241183,129.062194 L392.08926,130.168692 L390.033138,130.760261 L389.046391,130.860852 L388.192568,130.99138 L388.221308,131.042873 L388.748212,131.131489 L389.93135,131.131489 L391.785093,130.88121 L393.044872,130.513574 L394.472302,129.902845 L395.231522,129.441805 L396.393105,128.560438 L396.69847,128.535291 L397.330754,128.932864 L398.413301,129.48252 L400.377215,130.027386 L402.438127,130.209407 L404.800811,129.917215 L406.520433,129.395102 L408.169402,128.599956 L409.580067,127.568902 L410.667404,126.212125 L411.099705,125.222983 L411.359564,124.096127 L411.401477,122.601637 L411.175148,121.404129 L410.627886,120.1204 L409.921356,119.198318 L408.937005,118.349285 L407.928703,117.936145 L407.656868,117.779271 L407.635313,117.67868 L407.723929,117.590065 L408.71307,117.340983 L412.18824,116.336274 L413.533041,115.848888 L414.971249,115.250134 L415.581978,115.047755 L417.787788,113.792766 L423.010122,110.052947 L424.516588,109.117693 L425.323708,108.898549 L425.868575,108.96082 L426.275727,109.164396 L426.797841,109.660165 L427.094823,110.173896 L427.421743,111.476785 L427.490001,112.834759 L427.367855,114.136451 L426.989442,115.997379 L426.58708,117.020051 L425.96677,118.235522 L425.059059,119.362377 L424.205236,120.13477 L422.37185,121.358623 L421.562335,121.770566 L418.67155,122.948914 L418.257212,123.159676 L418.257212,123.236316 L418.364988,123.263859 L419.260724,123.133331 L421.515632,122.536972 L423.75617,121.51909 L425.397954,120.515578 L426.165557,120.054537 L426.296085,120.072499 L426.384701,120.181473 L426.389491,120.338346 L425.800317,121.593335 L424.82794,123.06627 L423.303512,124.995456 L421.637778,126.590537 L420.470207,127.461126 L419.282279,128.104188 L417.29202,128.764015 L415.746037,128.920888 L414.450333,128.78557 L413.311502,128.474218 L413.105531,128.486193 L413.961749,129.001121 L414.825153,129.361571 L415.789147,129.619036 L416.90283,129.693281 L417.71474,129.592691 L418.381753,129.47773 L418.477553,129.538803 L418.470368,129.653764 L418.32068,129.918413 L417.70037,130.732719 L416.881275,131.539839 L415.627483,132.524191 L413.26959,133.834265 L411.964306,134.359971 L410.364434,134.797062 L408.287955,134.885677 L406.943153,134.797062 L405.625894,134.483315 L404.437966,134.043829 L403.364998,133.486988 L402.258501,132.7601 L401.227446,132.014052 L401.199903,132.070335 L401.256186,132.178111 L402.362684,133.338497 L403.218902,134.110889 L404.182897,134.777902 L405.385195,135.408988 L406.501273,135.713156 L406.734787,135.904757 L406.769514,136.208924 L406.595876,136.459203 L405.943234,136.826838 L404.839131,137.147771 L401.805843,137.572886 L399.726968,137.668687 L397.006229,137.580071 L394.154962,137.199263 L392.371872,136.745408 L390.754038,136.121506 L389.477494,135.363483 L388.549426,134.460562 L387.923129,133.251078 L387.786613,132.382885 L387.719552,132.382885 L387.605789,132.667892 L387.578246,133.87019 L387.700392,134.356379 L387.998572,134.886875 L388.094372,135.151524 L388.020127,135.247325 L387.586629,135.434136 L387.077688,136.147851 L386.731608,136.419685 L386.28374,136.454413 L385.732886,136.189764 L385.184427,135.719143 L384.776077,135.110809 L384.301864,133.751637 L384.074337,131.974535 L384.198878,131.277585 L384.171335,130.997368 L384.070744,130.97222 L383.833638,131.133884 L383.596531,131.718268 L383.4672,132.606819 L383.535458,133.502555 L383.80849,134.655756 L384.307851,135.782611 L384.920975,136.594522 L385.741269,137.198066 L386.324455,137.43158 L386.890876,137.456728 L387.179476,137.334582 L388.184185,136.303527 L388.627264,136.128691 L388.960171,136.147851 L389.693046,136.641225 L390.785174,137.176511 L393.489147,137.939324 L396.407475,138.348871 L398.146257,138.439882 L400.208366,138.4794 L403.082386,138.299774 L405.652239,137.818375 L406.690479,137.432778 L407.426947,136.941799 L407.682016,136.590929 L407.738299,136.235269 L407.804162,135.896374 L407.93469,135.835301 L408.219697,135.870029 L409.166926,135.904757 L410.430297,135.743093 L412.020588,135.291633 L414.190474,134.410267 L415.862195,133.435495 L417.59978,132.115841 L419.057147,130.523155 L419.866663,129.092132 L420.126522,128.738867 L421.048604,128.235914 L422.31916,127.267129 L423.34303,126.256432 L424.653104,124.717634 L426.208667,122.401653 L427.022973,120.975421 L427.343905,120.073697 L427.348695,119.292922 L427.269659,119.165986 L427.134341,119.098925 L426.528402,119.131258 L426.506847,119.030667 L426.941542,118.454666 L427.449286,117.333798 L427.900746,115.950676 L428.225271,114.240634 L428.386935,112.56532 L428.202518,110.705589 L427.770218,109.512871 L427.313967,108.947647 L426.848136,108.601567 L425.814687,108.2016 L425.281796,108.166872 L424.47228,108.386016 L423.07359,109.376355 L423.09275,109.206309 L424.636339,107.460342 L425.693738,106.078417 L427.254092,103.772016 L428.858753,100.895601 L430.058656,98.0251739 L430.849012,95.7606857 L431.616615,92.8627156 L432.308774,89.2797707 L432.699162,85.942315 L432.794963,82.7138326 L432.652459,79.9392059 L432.247701,77.29391 L431.646552,75.0401994 L430.819074,73.0188053 L429.776044,71.2153578 L428.50429,69.6118942 L428.425255,69.3747875 L428.50429,69.3220972 L430.752013,69.4634031 L432.957824,70.0681448 L435.102561,71.1818276 L436.753925,72.5865048 L438.17417,74.2223012 L439.313,76.134722 L440.162034,78.1369559 L440.648222,79.887713 L441.02903,81.7486409 L441.200274,83.409585 L441.214644,85.8369343 L440.983525,88.4570825 L440.522484,91.049688 L439.801584,93.9919659 L439.170497,96.0061749 L438.532225,97.8120174 L437.407765,100.553114 L435.810289,103.639093 L434.421179,105.911964 L432.826098,108.183637 L431.154376,110.178686 L430.681361,110.709182 L430.706508,110.76307 L430.816679,110.74391 L431.908807,109.982294 L433.130265,108.96561 L434.788814,107.364541 L437.129943,104.413881 L437.897546,103.145719 L439.247137,100.832133 L440.488954,98.2071952 L441.372715,95.8313387 L442.15349,93.1513151 L442.728294,90.472489 L443.086349,87.5733214 L443.116287,83.7341097 L442.980968,81.6312851 L442.656444,79.2913539 L442.278031,77.2292445 L441.72119,75.138395 L441.149978,73.4499083 L441.135608,73.2128017 L441.224224,73.192444 L442.846847,74.0127372 L444.350918,75.1527651 L445.43107,76.1083768 L446.46931,77.3094776 L447.426119,78.594404 L448.452384,80.2146328 L449.191247,81.7127157 L450.000762,83.7568624 L450.543233,85.6561106 L450.955176,88.09304 L451.08331,89.9982757 L451.100075,91.5849742 L451.043792,92.9585163 L450.712082,95.6756626 L450.066625,98.6969761 L449.306207,100.987809 L448.084749,103.634303 L446.379497,106.612506 L443.99885,109.931999 L442.497175,111.687546 L441.697239,112.515025 L441.12004,113.160482 L439.417184,114.712452 L437.85683,116.002169 L435.391161,117.812801 L432.593781,119.496498 L431.377113,120.11561 L428.996466,121.199355 L428.711459,121.404129 L429.768859,121.151454 L432.694372,120.207818 L434.724149,119.386327 L437.013784,118.212769 L439.481849,116.6117 L441.852916,114.706465 L444.076689,112.452754 L446.074132,110.172698 L447.49797,108.342906 L449.161309,105.932321 L450.520481,103.62592 L451.546745,101.394962 L452.390989,98.9867731 L452.931065,96.8767635 L453.578917,93.6542686 L453.642385,93.6351084 L453.703458,93.7356991 L453.98128,95.3104226 L454.253114,97.2767312 L454.395618,98.762839 L454.479443,101.327902 L454.369272,103.139732 L454.116598,105.187471 L453.714235,107.231618 L453.171764,109.130866 L451.773074,112.414434 L450.077403,115.195048 L447.967393,117.764901 L445.698115,119.979094 L443.069584,122.032821 L439.935705,123.988352 L436.988637,125.52236 L433.869128,126.876742 L429.972436,128.275431 L425.516507,129.522038 L422.026968,130.309998 L420.897718,130.58782 L420.927655,130.648893 L421.084529,130.674041 L423.346622,130.608178 L425.444657,130.463279 L428.15342,130.121989 L430.562807,129.680109 L432.35428,129.231043 L435.294163,128.300579 L437.885571,127.231204 L439.794399,126.28637 L441.747535,125.187058 L444.579642,123.336907 L447.451267,121.116727 L450.280979,118.653452 L450.811475,118.179239 L450.885721,118.227139 L450.885721,118.354075 L450.223499,119.955144 L449.404403,121.780146 L448.412866,123.639877 L447.17584,125.661271 L445.971147,127.30545 L444.665863,128.849038 L443.451589,130.076484 L441.957099,131.435656 L439.227977,133.388792 L436.315637,134.95633 L433.235646,136.151444 L430.171222,136.958564 L427.40857,137.454333 L424.817162,137.711797 L421.848539,137.866276 L418.457196,137.800413 L415.671791,137.665094 L410.01117,137.218424 L409.690237,137.257941 L409.75131,137.326199 L412.656465,138.098592 L416.391494,138.84464 L420.423504,139.293705 L423.817243,139.293705 L425.643443,139.21946 L428.786902,138.831467 L431.350768,138.347674 L433.769734,137.707007 L436.538374,136.825641 L436.612619,136.874739 L436.577891,136.970539 L434.112222,139.206287 L431.295682,141.276779 L428.336639,142.999994 L425.485372,144.221452 L422.798163,144.995043 L420.290581,145.406985 L418.545811,145.495601 L417.365068,145.535119 L415.262243,145.3998 L413.105531,145.04893 L410.659022,144.435806 L408.535839,143.711314 L405.841446,142.538953 L403.308715,141.201336 L400.77838,139.633798 L400.598754,139.619428 L400.73048,139.825399 L402.071689,141.147448 L403.982913,142.703012 L406.056997,144.084936 L408.778933,145.434528 L411.522425,146.357807 L414.577269,146.968536 L417.156702,147.164928 L418.33026,147.090682 L418.66197,147.15415 L418.66197,147.233186 L418.561379,147.314616 L415.892133,148.337288 L413.209714,149.118064 L410.306954,149.674905 L407.752669,149.849741 L405.333702,149.756336 L403.422479,149.429416 L401.493293,148.914487 L399.197669,147.950493 L397.79419,147.11583 L396.593089,146.283561 L395.049501,144.973487 L393.754994,143.6215 L391.650972,140.840886 L391.033058,139.830189 L390.65225,139.305681 L390.643868,139.389506 L391.019885,140.454091 L391.813833,142.10306 L392.716754,143.644253 L394.018446,145.393813 L395.723698,147.152953 L397.631329,148.703726 L400.026345,150.191031 L400.209564,150.373052 L400.156874,150.447298 L399.998802,150.486816 L398.762974,150.486816 L396.557164,150.044935 L394.250763,149.097706 L391.847363,147.628363 L390.896542,146.952969 L389.354151,145.642895 L387.713565,144.028653 L386.29811,142.386869 L385.130539,140.906749 L383.631259,138.742852 L382.159521,136.347835 L381.284143,134.780297 L381.045838,134.461759 L381.011111,134.522832 L381.30929,135.63412 L382.601402,138.821887 L383.352239,140.309192 L384.256358,141.847991 L385.587987,143.777177 L387.184266,145.641697 L388.960171,147.325394 L390.937257,148.810304 L392.879616,149.921592 L395.274632,150.986177 L397.964236,151.762162 L400.596359,152.183685 L402.626136,152.316608 L405.404355,152.277091 L406.985066,152.122612 L409.510611,151.795692 L413.446821,151.04725 L417.226157,150.144328 L420.85341,149.089323 L424.301036,147.857087 L426.617017,146.912253 L430.059854,145.263284 L432.420143,143.960395 L434.442734,142.725764 L436.973069,140.980995 L439.485442,139.013488 L441.318827,137.38368 L442.15828,136.600509 L444.22997,134.392304 L445.520884,132.831951 L446.84892,131.108736 L448.57453,128.559241 L450.498926,125.193045 L451.865283,122.2831 L453.074766,119.213886 L454.02439,116.297953 L454.873423,113.074261 L455.472178,110.211019 L455.904478,107.389689 L456.365519,103.170867 L456.57628,99.5124793 L456.597835,95.2601272 L456.897213,93.5225427 L457.318735,92.5178332 L458.106696,91.4748035 L458.904236,90.8485066 L460.366394,90.2737026 L461.895612,90.1707169 L463.617629,90.4856616 L465.180378,91.1598588 L466.97664,92.4172425 L468.581301,94.0710015 L470.059026,96.2564541 L471.193067,98.7855917 L471.934324,101.508726 L472.224121,103.048721 L472.455241,105.667672 L472.476796,106.935833 L472.415723,108.896154 L472.190591,111.115137 L471.797808,113.572424 L471.152351,116.386569 L470.464982,118.75524 L469.291424,122.26394 L468.280727,124.715239 L467.120341,127.215637 L465.17918,130.773434 L462.863199,134.358774 L460.49333,137.487863 L457.92707,140.420561 L455.055445,143.247878 L451.858098,145.954247 L448.9254,148.110959 L445.805891,150.08086 L442.78817,151.751384 L439.151337,153.407538 L436.346772,154.472123 L432.759037,155.564251 L429.605998,156.282756 L426.434996,156.783314 L426.172742,156.907855 L426.172742,157.010841 L426.479304,157.324588 L427.964214,158.68855 L430.237085,160.281236 L432.769815,161.618853 L435.58875,162.669068 L438.204108,163.314525 L440.827848,163.73964 L443.796472,164.031832 L445.560401,164.073745 L447.047707,164.120448 L447.317146,164.199483 L447.284813,164.288099 L445.581956,165.260476 L443.407281,166.139447 L441.35116,166.728621 L439.26989,167.089071 L436.806616,167.280672 L434.537337,167.245944 L431.772291,166.953752 L429.737724,166.563365 L427.218166,165.943055 L425.051874,165.260476 L423.117898,164.544366 L420.54565,163.452238 L417.684803,162.034388 L414.801203,160.439307 L410.850623,157.877837 L410.023145,157.332971 L409.997997,157.386859 L410.04949,157.501819 L411.268553,158.750821 L413.329465,160.556663 L416.171152,162.809176 L420.322914,165.781392 L424.437552,168.384775 L428.876715,170.868407 L431.463333,172.166506 L431.475309,172.232369 L431.360348,172.267097 L429.112625,172.056335 L425.819477,171.479136 L423.190946,170.855235 L420.648636,170.13673 L417.31597,168.990714 L414.553319,167.881821 L410.502148,166.031671 L407.162297,164.282111 L403.677548,162.263112 L400.203576,160.041734 L396.776308,157.562892 L393.523875,154.912806 L393.020922,154.596664 L392.729927,154.633787 L392.648496,154.727193 L392.635324,154.851733 L393.402927,156.321076 L394.353748,157.817962 L396.383525,160.470442 L396.674519,160.921903 L396.470943,161.071592 L392.729927,161.817639 L392.118,162.014031 L392.147938,162.070314 L395.649452,162.151744 L396.197911,162.212817 L397.678031,164.193496 L399.998802,166.960938 L402.549495,169.702034 L405.121743,172.018015 L405.958801,172.403613 L407.26169,172.728138 L409.827951,173.013145 L412.95225,173.013145 L414.851498,172.877826 L416.827387,172.613177 L417.973402,172.33296 L418.618859,172.217999 L418.663167,172.292245 L418.226077,172.856271 L417.374648,173.634651 L416.410654,174.301663 L415.19159,174.912393 L412.845672,175.626108 L410.415927,176.047631 L408.313103,176.182949 L406.703652,176.202109 L404.722973,176.073976 L404.217624,176.153011 L403.736226,176.494301 L403.336258,177.315792 L402.578235,179.811399 L401.736387,183.448232 L400.452658,190.118353 L400.457448,190.396175 L400.567619,190.470421 L401.586699,190.681182 L402.767442,190.7207 L403.994888,190.524309 L405.428305,190.102786 L405.725287,190.068058 L405.79594,190.163859 L405.732472,190.488383 L405.44028,191.220061 L404.922957,191.926591 L404.150564,192.579233 L403.083584,193.143259 L401.809435,193.496524 L400.547261,193.662978 L399.92815,193.787519 L399.832349,193.89769 L399.662303,194.947904 L399.065944,199.438561 L399.051573,201.215663 L399.208447,201.465942 L399.473096,201.615631 L400.143701,201.657543 L400.825083,201.725801 L401.688487,201.782084 L404.815181,201.522225 L408.187364,201.350981 L409.110643,201.475522 L409.77526,201.826392 L410.226721,202.397604 L410.83266,203.421473 L411.948738,205.966178 L412.073279,206.459552 L412.024181,207.030763 L411.83737,207.452286 L411.415847,207.847464 L410.674589,208.939591 L409.900999,209.589838 L409.04478,209.957474 L408.35262,210.011361 L408.320288,209.943103 L408.725046,209.570678 L409.169321,208.999467 L409.33817,208.545611 L409.313022,208.000745 L408.800489,207.28224 L408.709478,206.56134 L408.564579,206.289506 L408.307115,206.154187 L407.322763,206.18652 L406.83418,206.060781 L406.652159,205.83565 L406.485705,205.183008 L406.312066,204.748312 L406.09412,204.559106 L405.617512,204.43696 L403.732633,204.640537 L401.676512,205.232106 L400.514929,205.901513 L398.363006,207.417558 L394.969268,210.131112 L394.711803,210.481982 L393.8484,212.675817 L392.919133,214.390649 L392.496413,214.785827 L391.78629,215.092389 L391.575529,215.489962 L391.514456,216.007286 L391.69528,216.863504 L391.69528,216.863504 Z M444.904167,215.99531 L444.665863,215.214535 L444.543717,214.141568 L444.759268,211.307065 L445.058645,209.363509 L445.399935,208.077385 L445.868161,206.917 L446.623789,205.633271 L447.463242,204.644129 L448.358978,203.708875 L450.849796,201.723406 L453.65915,199.644532 L455.235071,198.166807 L456.015846,197.320168 L457.100789,195.759815 L460.819052,189.70641 L461.57947,188.835822 L462.297975,188.332868 L463.33861,187.746089 L465.321684,187.079077 L468.633991,186.115083 L470.60988,185.240902 L472.670792,183.842212 L473.622811,182.963241 L474.661051,181.760943 L478.675099,176.409278 L481.43775,173.265819 L482.387374,172.384453 L483.236408,171.603677 L484.146514,170.86721 L484.2495,170.837272 L484.281833,170.898345 L482.122725,173.819068 L479.956433,177.146943 L476.881231,182.011222 L475.332853,184.128417 L474.088642,185.321135 L473.408457,185.866001 L471.575072,187.08746 L469.638701,188.002356 L469.231548,188.208328 L465.398324,189.462119 L463.375732,190.493173 L462.634475,191.178148 L461.834539,192.412779 L458.665932,197.794382 L457.348673,199.529571 L455.515288,201.362956 L451.780259,204.751905 L450.170808,206.400874 L448.727811,208.419873 L448.239227,209.556308 L448.008108,210.344269 L447.926678,211.483099 L447.905123,214.312811 L447.58419,215.419309 L447.226135,215.873165 L446.704022,216.162962 L445.747213,216.434796 L445.377183,216.409648 L444.904167,215.99531 L444.904167,215.99531 Z M353.25646,216.0001 L352.033804,215.592948 L351.142858,215.055266 L350.370465,214.201443 L349.963313,213.389532 L349.893857,212.6363 L349.995645,212.116581 L350.287837,211.594467 L350.633917,211.332213 L351.287757,211.168154 L353.152277,210.92985 L353.681576,210.644843 L354.027656,210.179013 L354.238417,209.573073 L354.23243,208.983899 L354.068371,208.534834 L353.676786,208.113311 L353.031329,207.739688 L352.04578,207.524137 L350.465069,207.578025 L350.36328,207.531322 L350.37765,207.293018 L350.669843,206.954123 L351.306917,206.57571 L352.142778,206.398479 L353.288793,206.536192 L354.546177,206.908617 L355.449098,207.430731 L356.283761,208.225877 L356.896886,209.040182 L357.378284,209.982621 L357.628563,211.035231 L357.676464,211.710626 L357.513603,212.777606 L357.20704,213.694897 L356.432253,214.955873 L355.787993,215.530677 L354.633595,216.007286 L353.25646,216.0001 L353.25646,216.0001 Z M434.795999,214.983416 L432.923096,215.214535 L431.559134,215.084007 L429.964053,214.644521 L428.747385,214.026607 L427.640887,213.098538 L426.848136,212.060298 L426.364343,210.914283 L426.209864,209.650911 L426.438589,208.462983 L426.948727,207.34451 L427.741478,206.303876 L428.814445,205.344672 L430.208345,204.493243 L431.680082,203.931612 L433.628428,203.632235 L434.423574,203.671752 L435.58396,203.936402 L436.587472,204.357925 L437.721512,205.05727 L438.595693,205.810502 L439.704586,206.963703 L439.778831,207.160094 L439.695006,207.160094 L439.233965,206.799644 L438.323859,206.284716 L437.077252,205.903908 L435.771968,205.77817 L434.665471,205.900315 L433.43084,206.293098 L432.324342,207.019986 L431.414236,208.144446 L431.122044,208.868938 L431.087316,209.44015 L431.244189,209.901191 L431.575899,210.382589 L432.071668,210.701126 L432.684792,210.84363 L433.253608,210.735854 L433.574541,210.438872 L434.455907,208.878519 L434.937305,208.137261 L435.407926,207.791181 L435.908484,207.67622 L436.465326,207.737293 L437.061685,207.95524 L437.849645,208.38754 L438.521447,209.344349 L438.788492,210.296368 L438.671136,211.325028 L438.23165,212.311775 L437.618526,213.123686 L436.776678,213.911646 L435.934829,214.493635 L434.795999,214.983416 L434.795999,214.983416 Z M450.128896,212.330935 L450.103748,211.557345 L450.229486,210.465217 L450.891708,208.884506 L452.049699,207.193624 L453.708248,205.392572 L455.609891,203.626247 L457.482794,201.834775 L458.261174,200.988136 L459.279057,199.564299 L462.69435,193.815061 L463.655949,192.533728 L464.352899,191.80684 L465.370781,190.994929 L466.430576,190.426113 L468.486698,189.630967 L472.025335,188.278981 L473.816807,187.425157 L475.397518,186.360572 L476.607002,185.123546 L480.985092,179.325211 L482.383782,177.487036 L482.449645,177.516973 L482.213736,178.653409 L481.664079,180.135924 L480.480941,182.621951 L478.824787,185.442083 L477.907496,186.76533 L477.163843,187.646696 L475.534034,188.86576 L472.928256,190.129131 L469.15371,191.651164 L467.666405,192.404397 L466.541944,193.106137 L465.1217,194.335978 L464.15052,195.606534 L462.677585,198.202732 L461.943513,199.711592 L461.150762,201.360561 L460.037079,203.095751 L458.149806,205.687159 L455.857775,208.482143 L454.694995,209.763477 L453.200504,211.323831 L451.883245,212.450686 L450.82345,213.02549 L450.455815,213.02549 L450.315707,212.966812 L450.128896,212.330935 L450.128896,212.330935 Z M347.044985,211.150192 L346.522871,210.858 L346.041473,210.322714 L345.633123,209.304831 L345.510977,207.847464 L345.761256,206.870297 L346.168409,206.053596 L347.847315,203.251427 L348.368232,202.147324 L348.701139,201.055197 L348.822087,199.948699 L348.689164,198.856571 L348.298776,197.818332 L347.702417,196.787277 L347.02343,196.043624 L346.168409,195.472413 L344.314666,194.473691 L339.909033,192.567258 L337.64215,191.372144 L336.558405,190.626097 L335.660273,189.892024 L334.661551,188.85618 L333.862813,187.621548 L333.368242,186.487508 L332.35036,183.231483 L331.671373,181.469948 L330.882215,179.811399 L329.987676,178.263021 L328.32314,175.856029 L325.858668,173.026317 L324.862341,171.988077 L323.673215,170.734286 L322.126034,169.024244 L320.598014,167.090268 L319.062808,164.555143 L318.066481,162.295445 L316.300156,157.748506 L315.677452,156.310299 L315.657094,156.17019 L315.709785,156.086365 L315.927731,156.201325 L317.229423,158.177214 L318.540694,160.530318 L320.623161,164.555143 L321.643439,165.978981 L323.218162,167.660282 L325.313801,169.636171 L327.798631,172.035978 L329.869123,174.241788 L332.212647,177.397222 L333.406563,179.460529 L334.160993,180.94544 L335.251923,183.515292 L336.094969,185.728288 L336.691328,186.759342 L337.461326,187.620351 L338.510343,188.401126 L340.538922,189.423798 L343.840453,190.604542 L346.623462,191.691879 L348.680781,192.891783 L349.557357,193.64741 L350.32975,194.501234 L351.381162,196.297496 L351.966744,197.750074 L352.211036,199.131998 L352.17032,200.925866 L351.688922,202.682611 L350.855456,204.289667 L349.29151,206.596068 L349.020874,207.545692 L348.884358,208.633029 L348.865197,210.647238 L348.681979,211.074749 L348.43649,211.238807 L347.664097,211.28551 L347.044985,211.150192 L347.044985,211.150192 Z M358.299168,209.671269 L357.797412,208.546809 L357.076512,207.430731 L356.804678,207.079861 L356.778332,206.768509 L357.518393,204.439355 L357.887225,202.365271 L357.887225,200.980951 L357.892015,200.667204 L357.961471,200.620501 L358.137504,200.795337 L358.957798,202.228755 L359.482306,203.536434 L359.767313,204.675264 L359.881076,205.781762 L359.841559,207.369658 L359.542182,208.697695 L359.088326,209.871253 L358.598545,210.828062 L358.509929,210.884345 L358.435684,210.828062 L358.299168,209.671269 L358.299168,209.671269 Z M385.085034,209.140773 L386.592697,209.215018 L387.04775,209.053355 L387.591419,208.579141 L388.586548,207.337325 L389.511025,206.630795 L390.70494,205.992524 L392.84369,205.075232 L393.602911,204.614191 L394.146579,204.113633 L394.188492,203.890896 L393.976533,203.951969 L393.254436,204.474083 L389.422409,205.931451 L388.83084,206.358961 L388.198556,206.948135 L387.08607,208.278567 L386.72562,208.528846 L386.216679,208.639017 L385.27424,208.564771 L384.778472,208.686917 L384.153372,209.086885 L383.968956,209.312017 L383.964166,209.391052 L385.085034,209.140773 L385.085034,209.140773 Z M439.927322,205.566211 L439.296235,204.974641 L438.108307,204.128003 L437.450875,203.747195 L437.369444,203.63942 L437.376629,203.522064 L437.750252,203.27897 L438.267576,202.979593 L440.573977,200.809708 L441.982246,199.567891 L443.17257,198.728438 L444.645505,197.960835 L446.593851,197.467462 L447.767409,197.457882 L448.494297,197.558472 L448.56016,197.642298 L448.515852,197.742889 L447.342294,198.414691 L446.139995,199.249354 L445.155643,200.098388 L443.857544,201.447979 L443.045634,202.465862 L442.292401,203.543619 L440.797911,206.137422 L440.70211,206.203285 L440.476979,206.117064 L439.927322,205.566211 L439.927322,205.566211 Z M354.457561,205.842835 L353.287596,205.585371 L352.337972,205.560223 L351.617072,205.614111 L351.550011,205.51831 L351.631442,205.221328 L352.527178,203.457398 L352.921158,202.428739 L353.286398,200.959396 L353.436087,199.879244 L353.361841,198.524862 L353.334299,197.940478 L352.751112,195.879566 L351.617072,193.958762 L350.463871,192.667848 L348.569413,191.303887 L346.206729,190.204574 L342.448948,188.876537 L340.268285,187.995171 L340.262298,187.920926 L340.548502,187.89937 L345.449904,188.523272 L348.417329,189.222617 L350.118989,189.96148 L351.407508,190.707527 L353.038514,192.13376 L354.424031,193.801889 L355.36168,195.308354 L356.207121,197.310588 L356.676544,199.487658 L356.759172,201.438399 L356.391537,203.922032 L355.66465,206.047609 L355.564059,206.155385 L355.251509,206.155385 L354.457561,205.842835 L354.457561,205.842835 Z M343.200983,204.939914 L343.065665,204.689634 L343.296784,203.931612 L344.375739,201.958118 L344.743374,200.898323 L344.817619,200.152275 L344.756546,199.595434 L344.417652,198.917644 L343.677591,198.230275 L338.321137,195.238899 L336.813474,194.303645 L335.13816,193.131284 L333.828086,191.997244 L332.468914,190.505148 L331.391156,188.736429 L330.649899,186.418053 L329.938579,183.672166 L329.198518,181.765733 L328.269252,179.640156 L325.628746,174.54835 L325.091065,173.446643 L325.104238,173.353237 L325.274284,173.446643 L327.636968,176.408081 L329.606869,179.325211 L330.643911,181.33942 L331.295356,182.927316 L331.846209,184.615803 L332.661712,187.464675 L333.386205,188.774749 L334.200511,189.792631 L335.251923,190.776983 L336.515294,191.75415 L338.715117,193.017521 L340.330556,193.842604 L344.446392,195.837653 L346.082188,196.84835 L346.822248,197.533325 L347.169526,198.001551 L347.502433,198.897287 L347.603024,200.085215 L347.37909,201.498275 L346.874939,202.826312 L346.155236,203.937599 L345.422361,204.629759 L344.593685,205.024937 L344.071572,205.106367 L343.200983,204.939914 L343.200983,204.939914 Z M417.891972,201.808429 L416.56154,201.646766 L414.770068,201.180935 L414.72576,201.115072 L414.8024,201.053999 L417.533917,200.850423 L419.779245,200.244484 L421.516829,199.336772 L423.065208,198.033883 L424.809977,196.316656 L425.684158,195.767 L427.218166,195.470018 L428.189346,195.42092 L430.523289,195.249676 L432.167468,195.053285 L433.993669,194.775463 L436.224626,194.157549 L437.929878,193.421081 L439.031586,192.687009 L439.763264,191.994849 L440.29855,191.309874 L440.73085,190.524309 L441.0913,189.457329 L441.844533,185.734275 L442.288809,184.749924 L442.810922,184.050579 L445.554414,181.297507 L446.931548,179.810202 L447.017769,179.785054 L447.066867,180.007791 L446.816588,181.200509 L446.482483,182.091455 L444.526952,185.428911 L444.159317,186.486311 L443.418059,190.226129 L442.748652,191.997244 L441.988234,193.273788 L440.861379,194.591047 L439.435146,195.608929 L438.063999,196.271151 L436.691655,196.736982 L435.356433,197.026779 L430.949602,197.512967 L429.443137,197.694988 L427.921104,198.008736 L427.102008,198.411098 L425.703318,199.657705 L424.87584,200.254064 L423.528643,200.946223 L422.029363,201.48151 L420.686956,201.766517 L418.750585,201.874292 L417.891972,201.808429 L417.891972,201.808429 Z M392.967034,200.594156 L393.49753,201.162972 L393.734637,201.273143 L394.947712,201.076752 L395.36205,200.880361 L395.653045,200.355852 L396.129653,196.55496 L396.972699,190.069255 L398.22649,181.284334 L398.727049,178.322896 L399.380888,174.499252 L399.2791,173.799908 L399.046783,173.421495 L395.178832,170.369046 L392.746692,168.317714 L390.957615,166.654375 L387.859661,163.434276 L385.627505,160.781795 L384.379702,159.179528 L384.427602,158.948409 L385.132934,158.202362 L385.20718,158.02034 L385.106589,157.995193 L379.757319,159.363945 L379.030432,159.604644 L379.099887,159.641767 L380.090227,159.629792 L383.299549,159.43819 L383.624074,159.524411 L387.187859,164.120448 L387.276474,164.380307 L387.202229,164.495268 L384.670696,165.638888 L384.397664,165.85923 L386.462169,165.585 L386.72562,165.653258 L388.369799,167.674652 L392.951466,173.274201 L393.671169,173.77476 L394.356143,174.108865 L395.302175,174.277713 L396.170368,174.209455 L397.18825,173.802303 L397.583428,173.563998 L397.807362,173.477778 L397.860053,173.552023 L397.662464,174.344774 L397.153523,175.262065 L396.522436,175.853634 L395.613527,176.368563 L394.480684,176.660755 L393.48316,176.679915 L392.39702,176.544597 L391.169574,176.170974 L391.0606,176.227257 L390.986355,176.349403 L390.653448,177.652292 L389.913387,180.982562 L388.738632,187.971221 L388.764977,188.310116 L388.861975,188.420287 L390.097804,189.023831 L391.611454,189.339973 L394.62678,189.339973 L394.689051,189.438169 L394.606423,189.727966 L393.940608,190.705132 L393.50711,191.08594 L392.769445,191.567338 L391.892869,191.913418 L390.879777,192.12418 L388.45602,192.14334 L388.179395,192.271473 L387.974622,193.29175 L387.627344,195.861603 L387.263302,199.987019 L387.275277,200.316334 L387.36988,200.426505 L387.654887,200.552243 L388.482365,200.75103 L389.819982,200.83246 L392.611374,200.552243 L392.967034,200.594156 L392.967034,200.594156 Z M416.320841,199.624174 L414.321002,199.743925 L412.98578,199.657705 L411.498475,199.30923 L410.230314,198.747598 L409.056755,197.88659 L408.172994,196.735784 L407.691596,195.383797 L407.672436,193.57077 L408.091564,191.936171 L408.216105,191.725409 L408.267597,191.804445 L408.291548,193.021113 L408.630442,194.309632 L409.313022,195.458043 L410.122538,196.279534 L410.978756,196.84835 L411.955923,197.297416 L413.048051,197.629125 L414.322199,197.783604 L416.52322,197.533325 L418.123091,196.897448 L419.355327,195.884356 L420.994716,194.270115 L422.094028,193.332466 L423.520261,192.520555 L424.607598,192.179265 L426.745151,191.867913 L429.731736,191.804445 L431.61901,191.657151 L433.452395,191.252394 L434.671458,190.845241 L436.479696,190.003392 L437.701154,189.186692 L438.917823,188.16402 L439.66387,187.261098 L439.855472,187.190445 L439.880619,187.293431 L439.705783,188.132885 L439.411196,189.060953 L438.94297,190.020158 L438.341821,190.844043 L437.625711,191.555363 L436.811406,192.163697 L434.87743,193.080989 L432.636892,193.691718 L430.160444,194.065341 L426.148792,194.39705 L424.45791,194.74313 L423.159811,195.481993 L421.700048,196.873498 L420.310939,198.127289 L418.75298,199.018235 L417.187837,199.486461 L416.320841,199.624174 L416.320841,199.624174 Z M413.418081,196.238818 L412.129562,195.897528 L411.199098,195.40176 L410.384792,194.589849 L409.938121,193.813864 L409.657905,192.871425 L409.569289,191.949344 L409.728558,191.08115 L410.04949,190.37941 L410.603936,189.717188 L411.17874,189.275307 L411.86611,188.945993 L412.626528,188.882525 L413.304317,189.025028 L413.839604,189.300455 L414.512603,189.852506 L414.978434,190.603344 L415.198776,191.202098 L415.247873,192.11939 L414.877843,193.17679 L414.452728,193.782729 L414.440753,193.883319 L414.663489,193.930022 L415.189195,193.827037 L416.126844,193.338453 L418.858361,191.382922 L420.025932,190.7207 L421.036629,190.303967 L422.498786,189.931542 L425.321313,189.702818 L428.830013,189.717188 L430.209542,189.768681 L431.713613,189.729163 L432.420143,189.729163 L432.466845,189.803409 L432.115975,190.039318 L431.374718,190.324325 L430.324503,190.562629 L428.104323,190.78776 L425.760799,190.956609 L424.168113,191.194913 L422.585007,191.651164 L421.164762,192.266683 L419.47388,193.427069 L417.581817,195.199381 L416.56154,195.807715 L415.48977,196.163375 L414.390457,196.283126 L413.418081,196.238818 Z M371.853765,195.158666 L370.502975,195.232911 L368.740243,195.097593 L367.087682,194.711995 L365.499785,194.059353 L363.878359,193.035484 L362.581458,191.889468 L361.665364,190.7686 L360.938476,189.662103 L359.337408,186.582111 L358.623693,185.463638 L357.824955,184.63616 L356.922033,184.111652 L350.900962,181.784893 L348.321529,180.702345 L346.37438,179.797029 L342.421405,177.640317 L340.074289,176.121876 L337.548744,174.166345 L335.427957,172.210814 L333.454463,170.115174 L331.597128,167.700998 L329.925406,165.09522 L328.478816,162.263112 L328.3423,161.843984 L328.396188,161.816442 L328.844056,162.373283 L330.376867,164.302469 L331.112137,165.19581 L332.726378,167.043566 L334.635206,169.003887 L336.346446,170.547475 L338.280422,172.076693 L340.358098,173.458618 L343.119553,174.972268 L346.059436,176.511066 L349.968103,178.304934 L355.34731,180.461646 L358.386586,181.693882 L359.521824,182.395622 L360.404388,183.345246 L361.279766,184.706813 L362.819762,187.646696 L363.629277,188.874142 L364.681887,190.06207 L365.679412,190.894339 L366.714059,191.490698 L368.042096,191.993651 L369.257567,192.206808 L370.608356,192.279856 L372.530357,191.961319 L373.750618,191.554166 L375.09542,190.862006 L375.930083,190.272832 L377.029396,189.332788 L377.843701,188.317301 L378.602921,187.040757 L379.114257,185.718708 L379.412437,184.1847 L379.431597,181.151411 L379.479498,179.97905 L379.649544,179.130017 L379.825577,178.901293 L380.273446,178.730049 L380.830287,178.730049 L381.29971,178.879738 L381.781109,179.415024 L382.257717,180.568224 L382.575057,182.081875 L382.602599,183.303333 L382.547514,184.470904 L382.160719,186.529421 L381.577532,188.18318 L380.699759,189.750718 L379.547756,191.242814 L378.39216,192.327756 L377.110826,193.28696 L375.52293,194.140784 L374.191301,194.641342 L373.227307,194.901201 L371.853765,195.158666 L371.853765,195.158666 Z M368.591752,191.175753 L367.59303,190.950622 L366.607481,190.511136 L365.759645,189.933937 L365.09383,189.377096 L364.448373,188.598715 L363.555032,187.253913 L361.752782,183.761979 L361.218693,182.873428 L360.157701,181.692685 L359.154189,181.066388 L352.006262,178.035494 L346.712078,175.593775 L342.604624,173.387965 L340.080277,171.839586 L337.440968,170.003806 L334.880695,167.880624 L333.490388,166.420861 L332.543159,165.328734 L330.584036,162.609192 L329.022485,159.895638 L327.765101,157.079099 L326.605913,153.760803 L325.571266,150.111996 L324.180959,144.5831 L323.493589,142.213231 L322.558335,139.690081 L321.294964,137.084303 L318.335921,131.901487 L317.314446,129.840575 L317.322829,129.641788 L317.532392,129.769922 L319.236447,131.343448 L320.631544,132.791235 L322.025444,134.452179 L323.145114,135.979002 L324.170181,137.598034 L325.283864,139.742771 L326.064639,141.612082 L327.457341,145.714745 L329.921813,153.427896 L331.053459,156.56896 L332.161154,158.924459 L333.022162,160.502775 L334.230448,162.350531 L336.132092,164.721597 L338.316347,166.812446 L340.955655,168.856593 L344.107497,170.795359 L347.631764,172.566474 L351.284164,174.208258 L355.925707,176.081161 L358.394969,177.070303 L360.622334,178.101357 L361.817447,178.943206 L362.747911,179.846127 L363.58018,181.048425 L364.423226,183.055449 L364.917796,184.187095 L365.7333,185.814508 L366.575148,187.012017 L367.158334,187.647894 L367.736731,188.089774 L368.858796,188.391546 L370.09223,188.508902 L371.165197,188.366399 L372.027403,188.008344 L372.590232,187.552093 L373.059655,186.801255 L373.187789,186.1067 L373.113543,185.363048 L372.92314,184.93913 L372.509999,184.539162 L372.046563,184.382288 L371.565165,184.417016 L369.109076,184.988228 L368.34746,184.904402 L367.63614,184.59305 L367.153544,184.26134 L366.631431,183.56439 L366.255413,182.301019 L366.365584,180.990945 L366.799082,180.001803 L367.219407,179.403049 L367.906777,178.666581 L369.107878,177.829523 L369.81321,177.515776 L370.790377,177.275077 L371.957948,177.218794 L373.167431,177.43674 L374.483493,177.951669 L375.597176,178.672569 L376.525245,179.57549 L377.292847,180.640075 L377.810171,181.753758 L378.042488,182.539323 L378.210139,184.006271 L378.083203,184.902007 L377.756283,186.202501 L376.895275,187.785607 L375.712136,189.048978 L374.287101,190.06686 L372.612985,190.834463 L370.797562,191.259579 L369.232419,191.271554 L368.591752,191.175753 L368.591752,191.175753 Z M453.814826,180.58499 L452.450864,180.416141 L451.16953,180.084431 L450.136081,179.689253 L449.097841,179.100079 L447.973381,178.189973 L447.145902,177.184066 L446.549543,176.153011 L446.110058,174.960293 L445.862173,173.786735 L445.780743,172.708977 L445.869358,171.794081 L445.943604,171.794081 L446.920771,174.086112 L447.753039,175.286015 L448.169772,175.688378 L449.418773,176.67752 L451.046187,177.491826 L452.119154,177.845091 L452.951423,178.027112 L455.179986,178.097765 L457.528299,177.594811 L458.784486,177.020007 L459.655074,176.463166 L460.637031,175.614133 L461.329191,174.88006 L462.224927,173.537653 L462.72788,172.410798 L463.123058,171.178562 L463.398485,169.625394 L463.529014,168.077015 L463.467941,166.903457 L463.690677,164.419825 L464.146928,162.637933 L465.021109,161.070394 L466.316813,159.720802 L468.741767,157.458709 L470.262603,155.927096 L471.626565,154.439791 L473.275534,152.425582 L474.774814,150.259289 L476.009445,148.035516 L476.949489,145.714745 L477.763795,142.456325 L478.374524,139.813424 L479.148114,137.329792 L480.328858,134.84616 L481.34674,133.419927 L481.653302,133.11576 L481.727547,133.122945 L481.713177,133.354064 L480.653382,137.002872 L479.797164,140.424153 L478.564928,146.921833 L477.627279,149.650955 L476.304032,152.193265 L474.362871,154.934362 L472.272022,157.324588 L469.352496,160.306384 L467.588567,162.004451 L466.626968,163.082208 L465.983906,164.270136 L465.647406,165.762232 L465.591123,167.133379 L465.591123,167.906969 L465.637826,169.07933 L465.618666,170.281628 L465.50131,171.385731 L465.122897,173.041885 L464.551686,174.506437 L463.798453,175.790166 L462.909902,176.936182 L461.761491,178.028309 L460.573563,178.879738 L459.1138,179.658118 L458.082746,180.050901 L456.958285,180.347883 L455.730839,180.544274 L454.160906,180.614927 L453.814826,180.58499 L453.814826,180.58499 Z M362.337166,178.292959 L361.543218,177.661872 L359.540984,176.609262 L353.572603,174.228615 L350.025583,172.689817 L345.756466,170.648066 L342.306444,168.80031 L341.215514,168.063843 L339.742579,166.88789 L338.169053,165.410164 L336.700908,163.824663 L335.635126,162.447529 L333.592176,159.39987 L332.228214,156.693501 L330.773242,152.853092 L328.290807,145.157904 L327.393873,142.390462 L325.718559,138.571608 L323.904334,135.29283 L321.856595,132.252357 L319.962137,129.87171 L318.038938,127.518606 L316.573188,125.319981 L315.398433,123.238711 L315.03918,122.565712 L315.065525,122.465121 L315.174499,122.430393 L316.558818,123.097405 L317.910805,123.983562 L319.274767,125.063714 L320.633939,126.352233 L322.487682,128.366442 L324.73301,131.210524 L326.954388,134.486907 L328.841661,137.691439 L330.190055,140.410981 L331.400736,143.477799 L334.127463,150.927499 L336.241065,156.5498 L337.116443,158.320915 L338.248089,160.038142 L339.462362,161.471559 L341.01074,162.97563 L342.44296,164.189903 L344.587698,165.711936 L345.817539,166.519057 L348.932258,168.290172 L352.347552,169.966683 L357.629761,172.216802 L362.483262,174.09689 L362.646123,174.082519 L365.314172,171.456384 L367.16552,169.851723 L368.410928,169.056577 L369.564129,168.582364 L370.79876,168.44465 L372.034588,168.81468 L372.597417,169.266141 L372.876437,169.803822 L373.100371,170.576215 L372.889609,171.567752 L372.65849,171.94856 L372.041773,172.348527 L369.170148,173.752007 L366.894883,175.143512 L365.551278,176.242824 L364.32982,177.461888 L363.149077,178.934823 L363.031721,178.956378 L362.808984,178.785135 L362.337166,178.292959 L362.337166,178.292959 Z M456.252953,176.523041 L455.193158,176.684705 L454.032773,176.745778 L452.405359,176.542202 L450.651009,175.852437 L449.126581,174.729174 L448.034453,173.381977 L447.300381,171.873117 L447.131532,170.53071 L447.136322,169.784662 L447.421329,168.847013 L447.856025,168.063843 L448.440409,167.423176 L449.252319,166.812446 L450.103748,166.440021 L451.377897,166.297518 L452.551455,166.554982 L453.748963,167.193254 L454.681822,168.08899 L455.042272,168.957184 L455.017124,169.445767 L454.855461,170.037336 L454.521356,170.518735 L453.9717,170.780989 L452.879572,170.89116 L451.773074,170.591783 L450.999484,170.591783 L450.571974,170.776199 L450.387557,171.004923 L450.321694,171.500692 L450.490543,171.942572 L450.892906,172.558091 L451.685656,173.189178 L453.212479,173.902893 L454.786005,174.167543 L456.157152,174.052582 L457.494769,173.556813 L458.692277,172.714965 L459.511373,171.701873 L460.095757,170.455267 L460.387949,168.916469 L460.48375,166.29632 L460.813065,163.576779 L461.154355,162.084684 L461.689641,160.585403 L462.587772,159.037025 L463.549371,157.965255 L466.585055,155.09363 L468.042422,153.70452 L469.080662,152.708194 L470.921232,150.678417 L472.551041,148.442669 L473.832375,146.059627 L474.489807,144.27534 L474.966415,142.714987 L475.546009,139.220657 L476.439351,129.939968 L476.895601,127.544951 L477.47759,125.886402 L478.19849,124.370357 L480.416276,120.479652 L481.910766,117.699038 L483.554945,114.05023 L484.632703,111.056459 L484.848254,110.473273 L484.911722,110.486445 L484.96082,110.608591 L484.918907,111.749817 L484.762033,113.425131 L484.099811,116.221313 L483.17773,118.560046 L481.599414,121.660396 L479.663043,125.22418 L478.645161,127.668295 L478.245193,129.504075 L477.866781,132.38049 L476.860874,141.553404 L476.142369,144.905229 L474.993958,147.828347 L473.634786,150.134748 L471.993002,152.360916 L470.54761,153.967972 L465.434249,159.035828 L464.295419,160.338717 L463.493088,161.573348 L463.112281,162.412801 L462.761411,163.689345 L462.489576,166.877112 L462.379406,169.414632 L462.215347,170.678003 L461.768676,172.059928 L461.104059,173.229894 L460.267001,174.22622 L459.305402,175.096809 L457.776184,176.011705 L456.252953,176.523041 L456.252953,176.523041 Z M458.98926,165.686789 L458.486306,164.559933 L458.04682,162.557699 L458.065981,160.761437 L458.542589,158.791536 L459.310192,157.117419 L460.463392,155.421747 L461.957883,153.861394 L464.534921,151.554993 L466.029411,150.195821 L467.800526,148.303758 L468.357367,147.639141 L469.763242,145.583019 L470.766754,143.330506 L471.547529,140.446906 L472.07563,136.905874 L472.499548,132.237986 L472.899516,127.548544 L473.17135,126.194162 L474.059902,123.824293 L475.330458,121.632853 L477.060858,118.886966 L478.384104,116.545838 L479.756449,113.437106 L480.588717,110.814563 L481.194656,108.363263 L481.805385,105.107238 L482.023332,103.675018 L482.07722,103.551675 L482.145478,103.545687 L482.545446,105.980222 L482.680764,108.085441 L482.695134,108.971597 L482.624481,110.541531 L482.320314,112.677886 L481.768263,114.774723 L481.098856,116.545838 L479.564847,119.694087 L476.666877,124.940371 L475.999865,126.511502 L475.653785,127.589259 L475.417876,128.774792 L474.833492,136.131086 L474.480227,139.440999 L474.033556,141.845596 L473.353372,144.219057 L472.560621,146.275179 L471.318805,148.492964 L469.863833,150.502383 L468.241209,152.340559 L466.030608,154.40147 L463.247599,156.710266 L462.513527,157.402426 L461.591445,158.516109 L460.864558,159.620212 L460.172398,161.16859 L459.77722,162.606797 L459.536521,164.199483 L459.487423,165.598173 L459.541311,166.386134 L459.513768,166.535822 L459.452695,166.568155 L458.98926,165.686789 L458.98926,165.686789 Z M430.271813,151.234061 L429.717366,151.511883 L429.602406,151.668756 L429.695811,151.690312 L431.882461,150.80655 L435.350445,149.185124 L438.283143,147.639141 L441.845731,145.501589 L444.861056,143.425109 L448.397299,140.65168 L451.597041,137.741735 L454.419568,134.661743 L455.172801,133.785167 L456.58586,131.942202 L458.063586,129.755552 L459.43593,127.463521 L460.275383,125.861255 L461.362721,123.487793 L461.97345,121.860379 L462.721893,119.552781 L463.37214,116.9482 L463.80444,114.531629 L464.14573,111.412119 L464.192433,110.238561 L464.213988,109.03746 L464.14573,106.866378 L464.089447,105.876038 L463.984067,105.72156 L463.873896,107.478305 L463.803243,108.835081 L463.592481,111.066039 L463.099108,114.233449 L462.568612,116.55422 L461.862082,119.104913 L461.029814,121.527472 L460.153238,123.70574 L459.034765,126.046868 L457.565422,128.652647 L455.619471,131.590134 L452.637675,135.325163 L449.739705,138.333304 L446.385485,141.292347 L443.962925,143.142497 L440.969154,145.238137 L438.338229,146.882316 L435.901299,148.313338 L432.981774,149.873691 L430.271813,151.234061 L430.271813,151.234061 Z M358.802121,147.896605 L355.216782,147.489452 L352.589448,146.988894 L350.077076,146.221291 L349.968103,146.147046 L349.976485,146.0728 L350.29622,146.004542 L351.05544,146.07759 L352.787037,145.976999 L354.022866,145.787793 L355.360483,145.292025 L355.99636,144.884872 L356.031087,144.798651 L355.752068,144.717221 L352.949898,144.724406 L350.274665,144.547174 L347.635356,144.140022 L345.513372,143.61192 L343.724294,142.961673 L341.945994,142.09348 L340.085067,140.895972 L336.649415,138.225528 L335.158517,136.866356 L333.568226,135.198227 L332.379101,133.738464 L331.205542,132.064348 L330.113415,130.104027 L329.43323,128.536488 L329.460773,128.426317 L329.555376,128.404762 L333.935861,131.776946 L336.405123,133.376817 L338.964199,134.689286 L341.62626,135.692798 L345.394818,136.610089 L347.810193,136.975329 L351.529653,137.328594 L352.256541,137.301052 L351.212314,137.036402 L348.386194,136.405315 L346.521674,135.890387 L343.926673,135.022193 L341.165219,133.913301 L337.417018,131.96256 L334.586108,130.105224 L332.205462,128.215556 L330.507395,126.652808 L329.556573,125.773837 L327.887247,123.979969 L326.738836,122.483084 L325.559291,120.406604 L324.595296,118.112178 L323.849249,115.805777 L323.203792,113.195209 L322.721196,110.419385 L322.475707,108.221957 L322.423016,106.862785 L322.475707,106.782552 L322.64695,106.945413 L324.154613,109.735608 L326.075417,112.699441 L328.572222,115.901578 L330.13497,117.598447 L331.775556,119.212689 L333.405365,120.637723 L335.110617,121.987315 L337.397858,123.568026 L340.722141,125.535532 L344.172162,127.177316 L346.621067,128.188013 L347.362325,128.455058 L347.416212,128.427515 L346.837816,128.041917 L344.132645,126.471984 L341.409511,124.717634 L338.903126,122.945322 L336.2722,120.897583 L333.351477,118.320545 L331.233085,116.161437 L328.875191,113.426328 L326.894512,110.727145 L325.047955,107.685473 L323.500774,104.34682 L322.672098,101.918273 L322.212255,100.141171 L321.869768,98.4443018 L321.593143,96.2804043 L321.523688,94.9224299 L321.462615,93.3704591 L321.618291,91.0149603 L322.025444,88.3708619 L322.481694,86.3829981 L322.872082,84.9447906 L323.043326,84.6945114 L323.152299,84.6454135 L323.266062,84.6861288 L323.415751,84.9579632 L324.318672,89.9575604 L325.010832,92.5226232 L325.84789,94.943985 L326.756799,97.0887224 L327.672893,99.0226984 L328.948239,101.409332 L330.503803,103.926495 L331.658201,105.623364 L333.240109,107.707029 L334.826808,109.578734 L336.408716,111.261233 L338.263656,113.064681 L340.21799,114.77592 L342.173521,116.282386 L343.848835,117.466721 L344.194915,117.604435 L343.773392,117.121839 L342.213039,115.638126 L340.188052,113.582004 L337.425401,110.44094 L335.369279,107.814804 L333.761025,105.556304 L331.866567,102.562533 L330.345731,99.8082638 L328.871599,96.8037154 L327.726781,94.0841741 L326.775959,91.3694227 L325.938901,88.3361342 L325.465885,86.1650516 L325.05035,83.3233644 L324.846773,80.6780685 L324.868328,77.8495539 L325.227581,74.7492048 L325.635931,72.7122432 L325.973629,71.4213292 L327.047794,68.4251634 L328.472828,65.7774725 L329.980491,63.8243365 L331.53366,62.3250561 L333.108383,61.2520886 L334.541801,60.6497419 L335.588423,60.4581406 L335.703384,60.5012509 L335.715359,60.588669 L334.630416,61.957421 L333.713125,63.689018 L332.900017,65.9271611 L332.301262,68.3820531 L331.866567,71.4093541 L331.703706,73.8941839 L331.636645,76.4700243 L331.92764,80.6565133 L332.580282,84.6873263 L333.141913,87.1769461 L333.970589,90.0126458 L334.935781,92.713027 L336.183584,95.5367517 L337.455338,97.9317683 L339.675519,101.411727 L342.173521,104.615062 L343.339894,105.916754 L343.523113,105.996987 L343.46683,105.792213 L341.6071,102.942143 L340.349716,100.736333 L338.850435,97.7593271 L337.975057,95.7846359 L336.990705,93.3081887 L336.120117,90.7155832 L335.415982,88.1672855 L334.568146,84.3316664 L334.110698,81.3211305 L333.880776,78.8446833 L333.813715,77.081951 L333.826888,73.6343246 L333.996934,71.3626513 L334.274756,69.1963588 L335.041162,66.2995862 L336.140474,63.7357209 L337.714,61.2377185 L338.753437,60.0378152 L339.590496,59.2414722 L340.735314,58.355316 L342.251359,57.4248521 L343.50036,56.8416655 L344.702659,56.4129575 L347.654517,55.7016376 L349.698663,55.5052462 L350.845876,55.478901 L350.928504,55.5315914 L350.797976,55.7076251 L349.346596,56.7123346 L348.036522,58.0487539 L346.522871,60.2006763 L345.449904,62.1801576 L344.375739,64.7715656 L343.494373,67.5557724 L342.796225,70.7219844 L342.357937,73.545709 L342.095683,76.5370847 L342.047783,77.7118404 L342.042993,80.5271824 L342.165138,82.6419821 L342.680067,86.6057346 L343.459645,90.0976689 L344.390109,93.0351568 L345.700183,96.0013849 L347.125218,98.4514869 L347.173118,98.7724191 L346.576759,102.249983 L346.237864,105.438948 L346.168409,107.54297 L346.168409,111.139087 L346.237864,112.089909 L346.449823,114.591504 L346.726448,116.756599 L347.216229,119.525238 L347.826958,121.966958 L348.497562,124.146423 L349.428026,126.676758 L350.509376,129.057404 L351.784723,131.442841 L353.228918,133.663021 L354.627607,135.522752 L356.055037,140.202614 L356.536436,141.351025 L357.804597,144.153194 L359.180534,146.43804 L360.091838,147.785237 L360.091838,147.890618 L359.867904,147.972048 L358.802121,147.896605 L358.802121,147.896605 Z M353.498357,131.562592 L352.45892,129.953141 L351.424273,127.934142 L350.402798,125.698394 L349.521432,123.118961 L348.761014,120.419777 L348.122742,117.190097 L347.735947,114.117291 L347.593444,112.020454 L347.525186,110.664874 L347.491655,108.736886 L347.544346,106.341869 L347.785045,103.526527 L348.144297,101.034512 L348.416132,99.4549989 L348.477205,99.332853 L348.576598,99.3065078 L350.985985,102.590076 L352.730754,104.713258 L354.286318,106.212538 L355.65028,107.292691 L356.640619,107.928568 L357.43816,108.363263 L357.531565,108.472236 L357.531565,108.778799 L357.220213,109.29253 L356.772345,109.660165 L354.620422,110.967844 L354.001311,111.572585 L353.703131,112.292288 L353.634873,113.24311 L353.620503,114.611862 L353.940238,116.926645 L354.544979,119.321662 L354.856332,120.432949 L354.409661,123.03753 L354.111481,125.795392 L354.042026,127.152169 L353.994126,129.287326 L354.130642,131.539839 L354.210875,132.239184 L354.165369,132.320615 L353.96778,132.198469 L353.498357,131.562592 L353.498357,131.562592 Z M402.102825,129.118477 L401.113683,129.090935 L398.93302,128.622709 L397.372667,127.930549 L397.270879,127.834748 L397.249323,127.719788 L398.043271,126.688733 L398.342648,126.173804 L398.973735,124.566748 L399.313828,122.665105 L399.28868,120.264101 L398.93302,118.378025 L398.19296,116.471592 L397.561873,115.474068 L396.890071,114.719637 L396.08295,114.102921 L395.715315,113.852641 L395.723698,113.764026 L396.041038,113.716125 L397.737907,113.831086 L400.863403,113.628707 L404.825959,113.111384 L409.171716,112.365336 L412.892375,111.606116 L414.035995,111.501932 L414.803598,111.597733 L415.355649,111.869568 L415.687359,112.352163 L415.809505,112.847932 L415.735259,113.361663 L415.450252,113.890962 L414.928139,114.38673 L412.137944,115.465685 L408.337053,116.54943 L404.533766,117.451154 L404.418806,117.521807 L404.418806,117.58767 L405.756422,117.867887 L407.22337,118.437901 L408.594517,119.307292 L409.453131,120.280866 L409.79442,120.955063 L410.164451,121.806492 L410.351262,123.712925 L410.189598,124.714042 L409.843518,125.587025 L409.281887,126.450429 L408.351423,127.350955 L407.367071,127.994017 L405.313344,128.796348 L403.192557,129.11728 L402.102825,129.11728 L402.102825,129.118477 Z M355.141339,117.163752 L354.65515,114.598689 L354.694668,112.806019 L354.892257,112.1905 L355.325755,111.607313 L356.032285,111.08999 L357.816572,110.025405 L358.406944,109.39312 L358.808109,108.777601 L359.315853,108.673418 L360.233144,108.572827 L361.586328,108.062689 L361.707277,108.062689 L361.753979,108.136934 L361.496515,108.475829 L360.709752,109.317677 L359.251187,110.913956 L357.56749,113.30059 L356.359205,115.755482 L355.597589,118.064278 L355.514961,118.194806 L355.421556,118.221152 L355.298212,117.970872 L355.141339,117.163752 L355.141339,117.163752 Z M473.855128,102.657136 L473.719809,101.36742 L473.251584,99.191547 L472.566609,97.2276334 L471.69602,95.4505311 L470.479352,93.6135533 L469.372854,92.2759365 L468.001707,90.9993927 L466.838927,90.1264091 L465.410299,89.3192885 L463.943351,88.7492745 L462.441676,88.4163672 L460.900483,88.4163672 L460.004747,88.5445006 L458.6815,89.0522441 L457.474412,89.8797224 L456.760697,90.6125975 L456.645736,90.6748679 L456.53796,90.6533127 L456.299656,90.0785088 L455.291354,87.4164478 L454.233954,85.0178386 L452.666416,81.9031195 L450.894103,78.9919768 L449.551697,77.079556 L448.378138,75.6066208 L447.119557,74.2163136 L445.68135,72.8044513 L443.639598,71.1818276 L441.899618,70.0717374 L440.142874,69.1819887 L438.059209,68.4143859 L436.098888,67.9329875 L434.073902,67.7162385 L431.501654,67.7030659 L428.157013,67.5198471 L425.413521,67.1462245 L422.838879,66.4612498 L420.988728,65.6673018 L419.636741,64.7775531 L418.422468,63.5501071 L417.627322,62.103517 L417.308785,60.795838 L417.238132,59.8450164 L417.29202,58.8834172 L417.532719,57.6954889 L418.107523,56.4405002 L419.120615,55.2130542 L420.580378,54.2287024 L422.614945,53.4155942 L425.372806,52.9126407 L428.642004,52.7892974 L430.854999,53.0204165 L433.095537,53.4275693 L435.310928,54.0646437 L436.945526,54.6693854 L440.250649,56.2500964 L443.305493,58.284663 L445.845408,60.4294004 L447.339899,61.9897537 L448.321855,63.0423636 L450.377977,65.6684993 L452.468827,68.869439 L453.941762,71.4668345 L455.48535,74.6102939 L456.699624,77.4663512 L458.248002,81.61931 L458.947347,83.5928037 L459.082665,83.7197396 L458.979679,83.122183 L457.56183,77.8244062 L456.570293,74.7456123 L455.585941,72.0631937 L454.33215,69.2478516 L452.93346,66.5762106 L452.020959,65.0422024 L450.798303,63.2112122 L449.394823,61.3574694 L447.664423,59.4246909 L446.319622,58.1218019 L444.099441,56.270454 L442.200193,54.9124796 L440.305735,53.7532916 L438.030469,52.5665608 L435.310928,51.4205454 L432.881183,50.5930671 L429.847895,49.7596013 L426.537982,49.1273169 L422.400591,48.5848457 L418.393728,48.3824668 L413.783321,48.3944419 L410.860203,48.557303 L406.656949,48.9309256 L402.257303,49.487767 L396.867318,50.4098484 L392.13716,51.3786326 L387.371077,52.5186605 L384.249173,52.9270108 L382.009833,52.9964663 L379.533385,52.8348027 L377.963452,52.5629683 L376.525245,52.1677906 L375.201998,51.6588495 L374.02844,51.00022 L372.962657,50.2326171 L372.133982,49.4314841 L371.283751,48.2471483 L370.735292,47.1669958 L370.306584,45.7611211 L370.13055,44.5133174 L370.171265,42.9266189 L370.293411,42.0308827 L370.701762,40.3998764 L371.217888,39.0850122 L371.911245,37.7426054 L372.866857,36.2553001 L373.743433,35.0973095 L375.425932,33.3178122 L376.830609,32.0759961 L378.562206,30.7527494 L380.164472,29.7085221 L381.854157,28.7529105 L384.327011,27.5589947 L386.532822,26.7099613 L388.675164,26.0070239 L391.419853,25.2885189 L394.507029,24.7089249 L396.470943,24.433498 L399.525787,24.1616636 L402.377054,24.0263452 L404.636752,24 L407.106014,24.0455053 L409.77526,24.2299216 L413.849184,24.7041349 L417.189034,25.302889 L420.494157,26.0668993 L423.801675,27.0392761 L426.95711,28.1577489 L430.119729,29.4738105 L433.55538,31.128767 L436.563521,32.8052786 L438.448399,33.9740467 L441.255359,35.8505423 L443.90784,37.8803189 L446.010664,39.6442486 L447.703941,41.2105895 L448.864327,42.297927 L451.048582,44.5839704 L452.59696,46.2928148 L455.041075,49.3452635 L456.825362,51.8372783 L458.584502,54.5580172 L460.233471,57.3877293 L461.700418,60.1946888 L462.902717,62.8615398 L464.076275,65.7583124 L465.20792,69.1017556 L466.084496,72.0955264 L466.707201,74.7264522 L467.347868,78.160906 L467.747835,81.2181447 L468.044817,84.3999243 L468.093915,84.4837499 L468.162173,84.2238906 L468.137026,80.966668 L468.090323,79.7943074 L467.844834,76.3059656 L467.435286,73.0499405 L466.932332,70.2968689 L466.195865,67.1665822 L465.319288,64.1752064 L464.374454,61.455665 L463.057195,58.2942431 L462.325518,56.7865801 L460.649006,53.5796529 L458.818016,50.5272042 L456.666093,47.3837448 L454.700982,44.8665824 L453.030458,42.8715335 L450.819858,40.4010739 L447.16147,36.7319084 L445.678955,35.3619589 L444.778428,34.2303135 L444.350918,33.4339705 L444.083874,32.6831328 L443.980888,31.7586564 L444.165304,30.919203 L444.532939,30.266561 L445.138878,29.6474492 L445.889716,29.1816185 L446.989029,28.8546987 L448.809241,28.6307646 L451.545548,28.9552894 L454.354902,29.8103103 L457.819294,31.4389216 L461.077714,33.4746858 L464.106213,35.9439479 L465.565975,37.3342551 L467.011368,38.9437062 L469.730909,42.5314412 L470.996675,44.52649 L472.093593,46.4808236 L473.242003,48.7932121 L474.259886,51.2361291 L475.013118,53.3317686 L475.936397,56.2752441 L476.757888,59.5240841 L477.403345,62.9525504 L477.873966,66.5546554 L478.205675,70.3555468 L478.313451,72.8990545 L478.320636,76.6496505 L478.271538,77.8244062 L478.205675,79.1799856 L477.845225,84.0442644 L477.374605,87.9194013 L476.555509,93.0028241 L475.367581,98.7340988 L474.109,103.61155 L474.047927,103.733696 L473.982064,103.742079 L473.879078,103.157695 L473.855128,102.657136 L473.855128,102.657136 Z M387.846488,86.9853448 L387.34593,87.3002895 L386.680115,87.4535705 L386.149619,87.3924976 L385.593975,87.1350333 L385.246698,86.6656101 L384.968876,85.9267474 L384.433589,82.5940818 L384.100682,81.2995753 L383.72706,80.4517394 L383.230094,79.7260494 L382.553501,79.1811831 L381.676925,78.8303132 L381.65058,78.7416975 L381.726023,78.6458969 L382.554699,78.231559 L385.934067,76.5227146 L387.650097,75.7958271 L389.1386,75.4497472 L390.087026,75.5192027 L390.555252,75.6605087 L391.024675,76.0053911 L391.682107,77.1813442 L392.248529,78.8566583 L392.44492,80.4924547 L392.44971,81.6384702 L392.234159,82.7521529 L391.892869,83.633519 L391.589899,83.9400811 L391.152809,84.1280899 L390.65225,84.0538444 L390.283418,83.8035652 L390.142112,83.5413109 L389.797229,81.2396999 L389.25835,79.3308716 L388.954183,78.6195517 L388.512303,78.0411552 L388.05725,77.6819027 L387.561481,77.5465843 L387.407003,77.5944846 L387.34593,77.6819027 L387.395027,77.7860859 L387.623752,77.9752922 L388.154248,78.6734396 L388.623671,79.6302487 L389.003281,80.8804474 L389.233203,83.1736758 L388.996096,85.0813066 L388.772162,85.6704807 L388.254838,86.580587 L387.846488,86.9853448 L387.846488,86.9853448 Z M472.02294,84.210718 L472.00857,85.1675272 L472.038508,85.1543546 L472.272022,83.3700672 L472.564214,79.1823806 L472.613312,78.0112175 L472.632472,73.5516965 L472.497153,71.4500694 L472.420513,70.09928 L471.961867,66.2840186 L471.402631,62.9729081 L470.575152,59.5252816 L469.637503,56.5949788 L468.444785,53.5161849 L466.774261,50.0972987 L465.314498,47.687912 L463.6799,45.4557565 L461.57947,43.0739124 L459.36887,41.0130006 L458.424036,40.351976 L458.362963,40.3867038 L458.390505,40.4825044 L459.114998,41.1938244 L461.041789,43.3385618 L463.071565,45.9910427 L464.83789,48.705794 L466.268913,51.3462999 L467.539469,54.1484693 L468.680694,57.0787722 L469.669836,60.157566 L470.607485,63.9021745 L471.318805,68.075491 L471.775056,71.6907686 L472.072038,75.7347542 L472.086408,80.3343836 L472.02294,84.210718 L472.02294,84.210718 Z M454.500998,79.8697504 L454.991977,80.749919 L455.026705,80.6888461 L454.500998,79.3919446 L453.598077,77.444796 L452.486789,75.3000587 L450.965954,72.751761 L449.539721,70.7159968 L448.101514,68.8969817 L445.736435,66.3714367 L444.101836,64.9547843 L441.981049,63.4135911 L439.757276,62.1729725 L437.470035,61.2029908 L434.9397,60.4761032 L432.315959,60.0497903 L429.85508,59.9192619 L428.309097,59.9899149 L427.913919,60.0905056 L428.000139,60.1312208 L429.126995,60.2473792 L431.789056,60.6401619 L433.968521,61.1083876 L436.628187,61.9095207 L438.807652,62.7837018 L440.819466,63.827929 L442.454065,64.841021 L443.852754,65.8852483 L445.833433,67.5677475 L447.639276,69.4262804 L448.67991,70.6249862 L450.350435,72.8260065 L451.564708,74.6641817 L452.941843,76.9490276 L454.500998,79.8697504 L454.500998,79.8697504 Z M462.803324,78.5584788 L462.925469,78.9788042 L463.129046,79.5679783 L463.175749,79.5548057 L463.185329,79.4278698 L462.738658,77.4052783 L461.705208,73.7564704 L460.542428,70.4381749 L459.310192,67.3977013 L457.740258,64.0806033 L456.145177,61.1958057 L454.557281,58.7121735 L452.670008,56.119568 L450.932424,53.9892007 L448.412866,51.2145739 L446.623789,49.5464449 L444.312598,47.5777412 L442.099602,45.9239822 L439.533342,44.2139403 L437.739475,43.152948 L434.801987,41.6129523 L431.992632,40.3507785 L429.344941,39.3316989 L427.204994,38.6215765 L423.865143,37.6863225 L420.831855,37.0552356 L417.730308,36.5606647 L414.479073,36.2133873 L412.013403,36.0696863 L409.501031,36.0301685 L406.446187,36.099624 L402.91713,36.3690634 L400.36524,36.6672429 L396.915219,37.2384544 L393.575368,37.970132 L393.310719,38.1150305 L393.807685,38.0623401 L397.363087,37.5402265 L401.464553,37.1594189 L404.443953,37.0109278 L407.940678,36.9833851 L410.995521,37.1187036 L413.586929,37.3091074 L417.903947,37.8791214 L420.715696,38.3940499 L423.695097,39.0802222 L427.007405,40.0430189 L429.87903,41.0405433 L433.047637,42.3494199 L435.113339,43.3409568 L438.156207,44.9839382 L440.413511,46.3874179 L442.936661,48.1381751 L445.532859,50.2266296 L448.063194,52.5809309 L449.469068,54.027521 L451.559918,56.414155 L453.604065,59.0546609 L455.653001,62.093937 L457.21575,64.8086883 L458.946149,68.1665016 L460.599908,72.0093058 L461.694431,74.9863115 L462.803324,78.5584788 L462.803324,78.5584788 Z M391.777908,63.2183973 L390.779186,63.0914614 L389.375706,62.6567659 L389.336188,62.5753353 L389.512222,62.459177 L391.515654,62.0867519 L393.08918,61.6221187 L394.098679,61.2101758 L395.363248,60.437783 L396.456573,59.4941464 L397.535528,57.924213 L398.504312,55.6393672 L398.879132,55.1962891 L399.256347,54.967565 L399.910187,54.8526042 L400.426313,54.9412198 L400.901724,55.2801147 L401.220261,55.7746856 L401.355579,56.4536728 L401.308877,57.2188806 L401.016685,58.3541185 L400.352067,59.7228705 L399.392863,61.0065994 L398.1738,62.0244815 L396.954736,62.6423958 L395.706933,63.0196109 L394.092691,63.2387549 L392.755075,63.2878528 L391.777908,63.2183973 L391.777908,63.2183973 Z M387.022602,62.1621949 L385.404769,62.0879494 L384.801224,62.0616042 L384.712609,62.0005313 L384.752127,61.9262858 L387.523161,61.2197559 L388.933826,60.5958541 L390.21037,59.6342549 L391.304892,58.2834655 L392.213801,56.5470785 L393.278386,53.1353773 L393.646021,52.6851141 L394.147777,52.373762 L394.778864,52.1929382 L395.552454,52.2192834 L396.3955,52.597696 L396.973896,53.2419555 L397.18346,54.0562612 L397.202621,54.6059175 L396.850553,56.0932228 L396.340415,57.4164695 L395.451863,58.7660614 L394.229207,59.9875198 L392.897578,60.8952311 L391.520444,61.5526632 L390.116964,61.9825687 L388.732644,62.2268604 L387.760268,62.2460205 L387.022602,62.1621949 Z M343.466667,237.066807 C336.4,237.066807 329.893333,238.133474 323.946667,240.266807 C317.973333,242.400141 312.826667,245.440141 308.506667,249.413474 C304.186667,253.386807 300.773333,258.186807 298.373333,263.840141 C295.946667,269.493474 294.72,275.786807 294.72,282.746807 C294.72,289.706807 295.946667,296.000141 298.373333,301.653474 C300.8,307.306807 304.186667,312.106807 308.506667,316.080141 C312.853333,320.053474 318,323.093474 323.946667,325.226807 C329.893333,327.360141 336.4,328.426807 343.466667,328.426807 C350.533333,328.426807 357.04,327.360141 362.986667,325.226807 C368.96,323.093474 374.08,320.053474 378.426667,316.080141 C382.773333,312.106807 386.133333,307.306807 388.586667,301.653474 C391.013333,296.000141 392.213333,289.706807 392.213333,282.746807 C392.213333,275.786807 391.013333,269.493474 388.586667,263.840141 C386.16,258.186807 382.773333,253.386807 378.426667,249.413474 C374.08,245.440141 368.96,242.373474 362.986667,240.266807 C357.04,238.133474 350.533333,237.066807 343.466667,237.066807 Z M0,239.280141 L0,326.213474 L19.8933333,326.213474 L19.8933333,284.960141 L19.8933333,275.386807 L19.8933333,239.280141 L0,239.280141 Z M62.3733333,239.280141 L24.5866667,279.973474 L64.0266667,326.213474 L91.3066667,326.213474 L91.84,326.213474 L113.253333,326.213474 L120.453333,309.493474 L159.76,309.493474 L167.2,326.213474 L189.653333,326.213474 L148.586667,239.280141 L132.133333,239.280141 L91.52,325.840141 L49.9733333,279.680141 L88.4,239.280141 L62.3733333,239.280141 Z M199.306667,239.280141 L199.306667,326.213474 L231.84,326.213474 C238.56,326.213474 244.986667,325.280141 251.12,323.386807 C257.226667,321.493474 262.64,318.720141 267.306667,315.093474 C271.973333,311.466807 275.706667,306.960141 278.48,301.573474 C281.226667,296.213474 282.613333,290.026807 282.613333,282.960141 C282.613333,275.040141 281.2,268.266807 278.346667,262.693474 C275.493333,257.120141 271.653333,252.613474 266.8,249.120141 C261.946667,245.653474 256.266667,243.120141 249.76,241.573474 C243.253333,240.026807 236.373333,239.226807 229.146667,239.226807 L199.306667,239.226807 L199.306667,239.280141 Z M405.733333,239.280141 L405.733333,326.213474 L425.653333,326.213474 L425.653333,284.960141 L425.653333,275.386807 L425.653333,239.280141 L405.733333,239.280141 Z M468.106667,239.280141 L430.32,279.973474 L469.786667,326.213474 L497.093333,326.213474 L497.6,326.213474 L519.04,326.213474 L526.24,309.493474 L565.546667,309.493474 L572.986667,326.213474 L595.44,326.213474 L554.373333,239.280141 L537.92,239.280141 L497.28,325.866807 L455.733333,279.680141 L494.16,239.280141 L468.133333,239.280141 L468.106667,239.280141 Z M586.026667,239.280141 L612.826667,326.213474 L629.92,326.213474 L648.053333,266.026807 L648.32,266.026807 L666.453333,326.213474 L684.186667,326.213474 L710.613333,239.280141 L690.453333,239.280141 L675.253333,296.506807 L674.986667,296.506807 L658,239.280141 L639.493333,239.280141 L622.373333,295.040141 L622.133333,295.040141 L607.706667,239.280141 L586,239.280141 L586.026667,239.280141 Z M742.453333,239.280141 L701.653333,326.213474 L723.6,326.213474 L730.8,309.493474 L770.106667,309.493474 L777.546667,326.213474 L800,326.213474 L758.933333,239.280141 L742.48,239.280141 L742.453333,239.280141 Z M343.466667,254.746807 C347.733333,254.746807 351.573333,255.440141 355.013333,256.826807 C358.453333,258.213474 361.413333,260.160141 363.893333,262.666807 C366.373333,265.173474 368.24,268.133474 369.573333,271.573474 C370.88,275.013474 371.546667,278.746807 371.546667,282.746807 C371.546667,286.853474 370.88,290.586807 369.573333,293.973474 C368.24,297.360141 366.373333,300.320141 363.893333,302.826807 C361.413333,305.333474 358.453333,307.253474 355.013333,308.640141 C351.573333,310.053474 347.733333,310.746807 343.466667,310.746807 C339.226667,310.746807 335.36,310.053474 331.92,308.640141 C328.48,307.253474 325.52,305.306807 323.04,302.826807 C320.586667,300.346807 318.666667,297.360141 317.36,293.973474 C316.026667,290.586807 315.386667,286.826807 315.386667,282.746807 C315.386667,278.746807 316.053333,275.013474 317.36,271.573474 C318.666667,268.133474 320.586667,265.173474 323.04,262.666807 C325.493333,260.186807 328.453333,258.240141 331.92,256.826807 C335.36,255.440141 339.226667,254.746807 343.466667,254.746807 Z M219.2,256.960141 L230.933333,256.960141 C235.093333,256.960141 239.066667,257.466807 242.88,258.506807 C246.666667,259.520141 249.946667,261.066807 252.773333,263.120141 C255.573333,265.173474 257.813333,267.760141 259.466667,270.906807 C261.12,274.053474 261.946667,277.760141 261.946667,282.026807 C261.946667,286.933474 261.12,291.093474 259.466667,294.506807 C257.813333,297.893474 255.546667,300.640141 252.64,302.746807 C249.76,304.826807 246.32,306.320141 242.373333,307.226807 C238.4,308.133474 234.133333,308.560141 229.546667,308.560141 L219.2,308.560141 L219.2,256.986807 L219.2,256.960141 Z M139.813333,264.560141 L152.586667,293.280141 L127.466667,293.280141 L139.813333,264.560141 Z M545.546667,264.560141 L558.32,293.280141 L533.2,293.280141 L545.546667,264.560141 Z M750.133333,264.560141 L762.88,293.280141 L737.76,293.280141 L750.106667,264.560141 L750.133333,264.560141 Z" id="Combined-Shape"></path>
                </g>
            </g>
        </g>
    </g>
</svg>