<?xml version="1.0" encoding="UTF-8"?>
<svg width="800px" height="400px" viewBox="0 0 800 400" version="1.1" xmlns="http://www.w3.org/2000/svg" xmlns:xlink="http://www.w3.org/1999/xlink">
    <title>mediaentertainment</title>
    <g id="Page-1" stroke="none" stroke-width="1" fill="none" fill-rule="evenodd">
        <g id="AF150_INCREMENTAL" fill="#000000" transform="translate(-0.000000, 0.000000)">
            <g id="mediaentertainment" transform="translate(0.000000, 0.000000)">
                <line x1="0" y1="0" x2="800" y2="400" id="Path" fill-rule="nonzero"></line>
                <path d="M295.773073,286.640759 L291.485842,315.260708 L284.347582,315.260708 L285.484546,309.377503 L273.87953,309.377503 L268.532276,315.260708 L261.65048,315.260708 L288.335604,286.640759 L295.773073,286.640759 Z M573.319731,286.640759 L557.876298,315.260708 L551.336455,315.260708 L566.779888,286.640759 L573.319731,286.640759 Z M547.434777,286.640759 L543.147546,315.260708 L536.009286,315.260708 L537.14625,309.377503 L525.541234,309.377503 L520.19398,315.260708 L513.312184,315.260708 L539.997308,286.640759 L547.434777,286.640759 Z M482.05088,286.640759 C484.233198,286.679592 485.796495,286.925535 486.740769,287.378587 C487.685044,287.831639 488.336022,288.498273 488.693704,289.378489 C488.984912,290.103372 489.092075,290.905921 489.015192,291.786137 C488.938308,292.666352 488.599406,293.669539 487.998483,294.795697 C487.255053,296.154854 486.151666,297.491357 484.68832,298.805209 C483.224975,300.11906 481.476911,301.047816 479.44413,301.591479 C480.606865,302.122197 481.227556,302.876205 481.306203,303.853503 C481.379606,304.765648 480.946667,306.126013 480.007385,307.934597 L478.761594,310.251247 C478.062497,311.558625 477.641682,312.445313 477.499147,312.91131 C477.273468,313.649137 477.37789,314.1928 477.812414,314.542297 L477.44307,315.260708 L470.197949,315.260708 L470.357989,314.558607 C470.43582,314.23707 470.51037,313.959802 470.581637,313.726803 C470.841361,312.924254 471.192512,312.102288 471.63509,311.260906 L473.025768,308.600842 C473.982973,306.77569 474.27322,305.558921 473.896509,304.950537 C473.519799,304.342153 472.362578,304.03796 470.424847,304.03796 L463.62854,304.03796 L457.588448,315.260708 L451.155466,315.260708 L466.598899,286.640759 L482.05088,286.640759 Z M590.95508,286.640759 L592.708828,306.620357 L603.500465,286.640759 L609.634239,286.640759 L594.190806,315.260708 L587.608219,315.260708 L585.704908,294.931613 L574.742254,315.260708 L568.60848,315.260708 L584.051913,286.640759 L590.95508,286.640759 Z M629.941093,286.640759 L623.506683,309.144505 L641.35376,286.640759 L650.821572,286.640759 L635.378139,315.260708 L629.244364,315.260708 L639.674979,295.902439 L641.369624,292.853439 C641.735029,292.187209 642.022835,291.650221 642.233041,291.242474 L623.324311,315.260708 L616.934072,315.260708 L623.95995,291.242474 L622.372391,294.273272 C622.016929,294.941928 621.721924,295.484984 621.487377,295.902439 L611.056762,315.260708 L604.922988,315.260708 L620.366421,286.640759 L629.941093,286.640759 Z M160.538525,286.640759 L154.104115,309.144505 L171.951192,286.640759 L181.419004,286.640759 L165.975571,315.260708 L159.841797,315.260708 L170.272411,295.902439 L172.143292,292.531094 C172.426241,292.011803 172.655301,291.582263 172.830473,291.242474 L153.921743,315.260708 L147.531504,315.260708 L154.557382,291.242474 L153.345437,293.562748 C152.817748,294.565935 152.397539,295.345832 152.084809,295.902439 L141.654194,315.260708 L135.52042,315.260708 L150.963853,286.640759 L160.538525,286.640759 Z M754.742667,286.640759 L751.995772,291.708471 L742.570705,291.708471 L729.874167,315.260708 L723.248836,315.260708 L735.945373,291.708471 L726.477562,291.708471 L729.224457,286.640759 L754.742667,286.640759 Z M215.532192,286.640759 L212.785297,291.708471 L196.115109,291.708471 L192.845669,297.785841 L208.148047,297.785841 L205.452218,302.75647 L190.149841,302.75647 L186.189222,310.115331 L203.628804,310.115331 L200.858153,315.260708 L176.985589,315.260708 L192.429022,286.640759 L215.532192,286.640759 Z M525.653253,286.640759 L522.906357,291.708471 L513.48129,291.708471 L500.784752,315.260708 L494.159421,315.260708 L506.855959,291.708471 L497.388147,291.708471 L500.135042,286.640759 L525.653253,286.640759 Z M702.335017,286.640759 L704.088765,306.620357 L714.880401,286.640759 L721.014176,286.640759 L705.570743,315.260708 L698.988156,315.260708 L697.084844,294.931613 L686.12219,315.260708 L679.988416,315.260708 L695.431849,286.640759 L702.335017,286.640759 Z M239.707384,286.640759 C241.637197,286.666648 243.148255,286.873758 244.240558,287.262088 C246.09035,287.92225 247.223323,289.132546 247.639477,290.892977 C247.973349,292.316855 247.890452,293.857232 247.391006,295.514109 C246.891123,297.170985 246.240675,298.750195 245.439445,300.251739 C243.377789,304.057377 240.796148,307.280519 237.694521,309.921166 C233.499648,313.480861 229.022791,315.260708 224.263951,315.260708 L210.692708,315.260708 L226.136141,286.640759 L239.707384,286.640759 Z M268.477564,286.640759 L253.034131,315.260708 L246.494288,315.260708 L261.937721,286.640759 L268.477564,286.640759 Z M354.189685,286.640759 L351.44279,291.708471 L334.772602,291.708471 L331.503162,297.785841 L346.805539,297.785841 L344.109711,302.75647 L328.807333,302.75647 L324.846715,310.115331 L342.286296,310.115331 L339.515645,315.260708 L315.643082,315.260708 L331.086515,286.640759 L354.189685,286.640759 Z M684.93476,286.640759 L682.187865,291.708471 L665.517677,291.708471 L662.248237,297.785841 L677.550614,297.785841 L674.854786,302.75647 L659.552408,302.75647 L655.59179,310.115331 L673.031371,310.115331 L670.26072,315.260708 L646.388157,315.260708 L661.831589,286.640759 L684.93476,286.640759 Z M371.589942,286.640759 L373.34369,306.620357 L384.135327,286.640759 L390.269101,286.640759 L374.825668,315.260708 L368.243081,315.260708 L366.339769,294.931613 L355.377115,315.260708 L349.243341,315.260708 L364.686774,286.640759 L371.589942,286.640759 Z M423.997593,286.640759 L421.250697,291.708471 L411.82563,291.708471 L399.129092,315.260708 L392.503761,315.260708 L405.200299,291.708471 L395.732487,291.708471 L398.479382,286.640759 L423.997593,286.640759 Z M455.845345,286.640759 L453.09845,291.708471 L436.428262,291.708471 L433.158822,297.785841 L448.4612,297.785841 L445.765371,302.75647 L430.462994,302.75647 L426.502375,310.115331 L443.941957,310.115331 L441.171306,315.260708 L417.298742,315.260708 L432.742175,286.640759 L455.845345,286.640759 Z M235.90021,291.611388 L229.830552,291.611388 L219.757404,310.29008 L225.827062,310.29008 C228.933131,310.29008 231.852159,308.898562 234.584145,306.115528 C236.077198,304.588095 237.388624,302.769415 238.51842,300.659486 C240.093165,297.747008 240.798504,295.510872 240.634437,293.951079 C240.470371,292.391285 238.892295,291.611388 235.90021,291.611388 Z M540.11172,293.184126 L529.977692,304.445707 L537.970833,304.445707 L540.11172,293.184126 Z M288.450016,293.184126 L278.315988,304.445707 L286.309129,304.445707 L288.450016,293.184126 Z M418.654177,84.7392915 C434.578165,84.7392915 465.879,95.0208339 465.879,110.944822 L465.860286,113.164529 L465.867249,113.977579 L465.885254,114.524476 C466.02565,117.596408 466.872815,120.181535 471.204388,120.989338 C475.17098,121.729074 490.92643,113.175311 518.470741,95.3280496 C531.546615,88.3753066 560.719523,84.7392915 575.52895,84.7392915 L583.133172,84.7468761 C601.250078,84.9953965 633.928161,91.3882961 633.928161,109.377323 C633.928161,114.818556 625.600626,128.775293 623.046142,133.579627 L580.708257,213.206416 C578.060235,218.186671 579.950884,224.370611 584.931139,227.018633 C586.4074,227.803567 588.053795,228.214059 589.725761,228.214067 L778.239992,228.214902 C784.894152,228.21493 797.583352,233.609216 797.583352,240.263376 C797.583352,242.160843 797.135182,244.031482 796.275362,245.722957 L791.025814,256.050105 C788.786265,260.455846 775.508597,263.230918 770.566316,263.230901 L548.637589,263.230101 C531.716164,263.230046 503.408707,249.512476 503.408762,232.591051 C503.408779,227.57505 504.640302,222.635764 506.995192,218.206909 L559.26212,119.90822 L384.333833,212.919339 C374.373348,218.215428 359.274925,216.837748 353.978835,206.877262 C350.790958,200.881744 353.521476,191.290427 356.709341,185.294902 L390.901088,120.989338 L61.614009,296.074439 C52.3345047,301.008441 41.9855433,303.588727 31.4758539,303.588727 L13.1309787,303.588727 C5.87893942,303.588727 0,297.709788 0,290.457749 C0,285.602363 2.67929718,281.143259 6.96634568,278.863789 L352.146773,95.3276447 C365.222456,88.3751634 394.395086,84.7392915 409.204221,84.7392915 L418.654177,84.7392915 Z M477.987242,291.611388 L470.336053,291.611388 L466.188985,299.30033 L473.647825,299.30033 C475.12962,299.30033 476.324097,299.144998 477.231257,298.834333 C478.836598,298.290671 480.077092,297.21629 480.952741,295.611191 C481.88223,293.876649 481.875241,292.711658 480.931775,292.116218 C480.393555,291.779665 479.412044,291.611388 477.987242,291.611388 Z M754.530341,181.033135 C763.769243,181.033135 771.639318,190.407002 766.073319,199.270606 C760.507321,208.134209 750.907967,213.131083 741.669066,213.131083 L607.840983,213.131083 L627.997247,181.033135 L754.530341,181.033135 Z M789.323199,134.345211 C798.5621,134.345211 803.14935,144.885096 797.583352,153.7487 C792.017353,162.612303 784.241827,166.443159 775.002926,166.443159 L633.879855,166.443159 L654.036118,134.345211 L789.323199,134.345211 Z" id="Shape"></path>
            </g>
        </g>
    </g>
</svg>