<?xml version="1.0" encoding="UTF-8"?>
<svg width="800px" height="400px" viewBox="0 0 800 400" version="1.1" xmlns="http://www.w3.org/2000/svg" xmlns:xlink="http://www.w3.org/1999/xlink">
    <title>pioneer</title>
    <g id="Page-1" stroke="none" stroke-width="1" fill="none" fill-rule="evenodd">
        <g id="Manufacturer" fill="#000000" fill-rule="nonzero">
            <g id="AF150_INCREMENTAL" transform="translate(-0.000000, 0.000000)">
                <g id="pioneer" transform="translate(0.000000, 0.000000)">
                    <line x1="0" y1="0" x2="800" y2="400" id="Path"></line>
                    <path d="M17.5770031,232.877069 C19.6599317,234.982044 17.7434964,235.680053 16.8702652,235.85538 L7.6214204,236.728267 L10.9359885,248.241816 L43.0453045,248.241816 L43.0809684,232.078423 C26.33865,226.307475 14.3117171,210.410746 14.3117171,191.708183 C14.3117171,177.342305 21.4080424,164.630711 32.2868749,156.894719 C38.5692563,153.058669 38.8581186,158.203824 39.2368193,159.947872 L39.2368193,202.875278 C39.2368193,210.730804 44.3354049,217.397286 51.4062335,219.74208 C52.930185,220.287469 53.7966221,221.00769 53.6842867,222.96831 L53.6451448,248.243166 L60.5833907,248.243166 L60.5751268,222.596358 C60.5751268,221.441209 60.5751268,220.287859 62.5949136,219.711934 C69.5927018,217.324695 74.771377,210.682211 74.771377,202.875128 L74.771377,158.903858 C74.8018215,154.367699 78.2759703,154.350301 80.5610725,156.111671 C91.55449,163.613994 99.6955792,176.510513 99.6955792,191.708033 C99.6955792,210.527581 87.5177661,226.503499 70.6143686,232.186259 L70.6161084,248.243166 L102.897902,248.243166 L106.21412,236.55294 L97.8389112,235.504786 C96.5015354,235.062914 94.6957707,234.111738 97.0504039,232.276757 C107.52069,221.942203 114.007194,207.585474 114.007194,191.708543 C114.007194,164.053647 94.3147604,140.998651 68.1851652,135.800328 L68.1716819,195.197088 C68.1716819,200.920643 62.729941,205.560288 57.0063868,205.560288 C51.2811828,205.560288 45.6645647,200.920643 45.6645647,195.197088 L45.678048,135.756834 C19.446466,140.871467 4.44209748e-13,163.974157 4.4760623e-13,191.708543 C4.49588247e-13,207.892934 6.74627093,222.50253 17.5792094,232.878178 M602.239969,159.645661 L593.337129,171.85827 L550.936154,171.85827 C542.90755,171.85827 538.023437,169.761543 538.023437,196.636541 C538.023437,219.802222 544.315223,221.269778 549.771418,221.395995 L550.133848,221.402645 C550.434711,221.406904 550.732506,221.408419 551.026012,221.41068 L551.376081,221.413976 L551.549424,221.416312 L602.065842,221.416312 L592.815047,233.63147 L537.676232,233.63147 C520.57561,233.63147 511.503142,228.775103 511.503142,195.243972 C511.503142,161.042204 528.255959,159.645661 537.676232,159.645661 L602.239969,159.645661 Z M591.298295,188.022413 L580.220888,200.139334 L539.712667,200.139334 L549.842197,188.022413 L591.298295,188.022413 Z M694.079152,159.646261 L684.045609,171.859169 L642.514521,171.859169 L642.178894,171.856908 L641.842339,171.851116 C641.730033,171.848762 641.617623,171.846069 641.505161,171.843284 L640.998892,171.830974 C635.879786,171.717216 630.808273,172.18556 630.562878,196.637441 C630.325413,220.218838 639.117052,221.402221 643.267724,221.42422 L643.534524,221.424213 C643.794309,221.422974 644.032612,221.418715 644.245515,221.417524 L702.803215,221.417212 L702.803215,159.646261 L770.159438,159.646261 C792.840983,159.646261 794.588255,174.30745 794.240301,183.725623 C793.931506,192.03694 791.452464,198.851152 783.449957,202.383192 C781.762526,203.008176 780.392455,204.178908 781.645092,206.428315 L792.493328,224.208198 C795.289864,228.047698 798.0777,231.537443 800,233.63207 L774.348842,233.63207 C770.508443,233.63207 764.054334,231.537443 760.213934,225.951421 L746.426981,205.014149 C743.987099,202.919072 742.586581,200.126136 738.750681,196.636691 L760.040407,196.636691 C767.107786,196.636691 768.76492,188.264482 768.76492,184.074928 L768.764459,183.6018 C768.752311,179.335273 768.420276,172.205924 759.344648,172.205924 L727.233832,172.205924 L727.233832,233.63207 L630.215974,233.63207 C613.110702,233.63207 604.038385,228.774803 604.038385,195.244422 C604.038385,161.384894 620.457821,159.677474 629.931056,159.646711 L694.079152,159.646261 Z M683.533426,188.022413 L672.369031,200.139334 L631.860809,200.139334 L641.98584,188.022413 L683.533426,188.022413 Z M153.708265,233.63297 L153.708265,168.718429 C153.708265,166.800479 153.35815,160.868152 152.661401,159.645961 L223.507669,159.645961 C237.989182,159.645961 247.237577,165.578288 247.237577,187.564823 C247.237577,209.551958 235.893955,214.088867 220.017624,214.088867 L197.682535,214.088867 L187.212249,202.223763 L212.687929,202.223763 C223.331742,202.308572 223.156415,191.928354 223.331742,187.74045 C223.508314,183.550896 224.204629,171.859019 213.211211,171.859019 L178.489236,171.859019 L178.489236,233.63297 L153.709464,233.63297 M283.186393,159.646111 L283.186393,233.63297 L258.406622,233.63297 L258.406622,169.240361 C257.885155,165.578288 257.885155,160.694174 257.013589,159.646111 L283.186678,159.646111 M347.468017,157.205929 C328.973927,157.553868 296.170201,152.317466 296.170201,193.501199 C296.170201,236.77806 313.965382,236.77806 347.468017,236.77806 C380.973651,236.77806 396.678105,233.286515 396.678105,194.896018 C396.678105,156.50552 375.038924,157.553883 347.468017,157.205929 Z M345.203312,225.171073 C324.610995,225.171073 322.343291,216.185594 322.343291,195.245472 C322.343291,172.209974 330.02094,168.022519 346.076198,168.022519 C362.128607,168.022519 370.506515,171.514964 370.506515,195.594927 C370.506515,219.675789 365.795479,225.171073 345.204812,225.171073 M408.210102,233.63297 L408.210102,169.766792 C408.210102,166.626651 408.03527,163.134206 406.813574,159.646261 L434.035027,159.646261 C440.319658,159.298321 445.90403,160.34214 452.532117,171.510915 L482.89416,217.580412 C484.986088,220.718303 487.782623,220.021644 487.782623,216.532258 L487.782623,159.647671 L500.343037,159.647671 L500.343037,233.63453 L475.91422,233.63453 C469.633938,233.982904 463.005852,232.586376 455.324903,221.419372 L426.359177,177.445102 C423.914946,174.30931 420.773905,173.957006 420.773905,177.796956 L420.773905,224.908817 C420.773905,228.049858 420.600797,230.841144 421.645471,233.63423 L408.210372,233.63423" id="Combined-Shape"></path>
                </g>
            </g>
        </g>
    </g>
</svg>