<?xml version="1.0" encoding="UTF-8"?>
<svg width="800px" height="400px" viewBox="0 0 800 400" version="1.1" xmlns="http://www.w3.org/2000/svg" xmlns:xlink="http://www.w3.org/1999/xlink">
    <title>pioneer 1998</title>
    <g id="Page-1" stroke="none" stroke-width="1" fill="none" fill-rule="evenodd">
        <g id="Manufacturer" fill="#000000" fill-rule="nonzero">
            <g id="AF150_INCREMENTAL" transform="translate(-0.000000, 0.000000)">
                <g id="pioneer-1998" transform="translate(0.000000, 0.000000)">
                    <line x1="0" y1="0" x2="800" y2="400" id="Path"></line>
                    <path d="M283.608224,156.307553 C319.076578,157.797625 342.944249,175.243401 338.782324,194.247205 C334.541669,213.567588 303.047116,228.669484 267.720477,227.166152 C232.250258,225.665928 208.381551,208.231133 212.555493,189.225464 C216.79014,169.913161 248.273504,154.807329 283.608224,156.307553 Z M214.41684,158.918494 L190.675551,224.053202 L155.549259,224.053202 L179.290548,158.918494 L214.41684,158.918494 Z M413.252359,155.967563 C445.289113,155.967563 459.593763,170.991557 452.989752,189.12933 L440.259292,224.053202 L406.332806,224.053202 L418.874107,189.671532 C422.050662,180.947194 413.843249,175.896032 405.27057,175.896032 C396.624133,175.896032 386.749506,180.044697 383.483862,189.005848 L370.710928,224.053202 L336.799567,224.053202 L349.580581,188.965447 C357.372174,167.622735 377.587801,155.967563 413.252359,155.967563 Z M105.142064,111 C132.981672,111 155.025289,120.139122 164.976782,132.744029 C174.38628,144.650101 172.142263,160.211119 160.690546,172.240673 C145.230635,188.471519 118.162997,195.297217 72.4984655,186.997607 L66.5591033,160.02921 C112.223635,170.351978 130.815764,161.656024 133.765659,153.331138 C136.508162,145.659919 126.295616,136.947598 105.142064,136.947598 C84.9689094,136.947598 66.7917717,140.956828 58.143263,165.169462 L37.0616038,224.039114 L0,224.039114 L21.187945,165.831002 C36.9422654,122.537699 65.318896,111 105.142064,111 Z M249.708051,190.470643 C247.754507,199.42765 258.792683,206.356526 272.499398,206.925041 C286.367095,207.516967 299.728847,201.634166 301.617542,192.994774 C303.587247,184.033623 292.539126,177.134168 278.828267,176.556537 C264.964714,175.953629 251.607934,181.847411 249.708051,190.470643 Z M500.727166,178.879284 L499.29262,178.261252 C507.586014,174.955207 516.587772,173.166582 525.530691,173.166582 C530.959135,173.166582 543.030127,174.087103 548.116717,176.997633 C549.35506,177.693566 550.487946,178.786258 549.881102,180.145804 C547.63522,185.209189 514.576631,184.925968 500.727166,178.879284 Z M568.426407,165.267667 C559.665604,160.584672 545.223384,156.849755 531.10085,156.27316 C501.799554,155.065274 468.39911,165.061311 461.744547,188.682225 C457.902307,202.269602 471.069927,220.623882 505.3565,225.830847 C522.514082,228.462092 549.769637,227.795371 569.387536,221.313807 L576.711928,201.147697 C536.928125,214.818983 484.933481,210.849325 486.673625,190.372645 C505.92315,202.719814 534.006407,201.549221 554.801737,198.142069 C590.82431,192.263412 590.298268,176.954124 568.426407,165.267667 Z M590.172714,188.682225 C596.843646,165.061311 630.245954,155.065274 659.531089,156.27316 C673.653624,156.849755 688.10786,160.584672 696.856646,165.267667 C718.744668,176.954124 719.250406,192.263412 683.231977,198.142069 C662.448664,201.549221 634.365406,202.719814 615.115881,190.372645 C613.381953,210.849325 665.372453,214.818983 705.156256,201.147697 L697.825856,221.313807 C678.214172,227.795371 650.940178,228.462092 633.78674,225.830847 C599.514256,220.623882 586.342699,202.269602 590.172714,188.682225 Z M800,158.918494 L793.319124,178.01636 L769.480666,178.01636 C759.58677,178.01636 757.227559,184.06698 754.447555,192.158162 L743.137345,224.053202 L709.208788,224.053202 L723.906052,182.603221 C729.557013,166.203313 741.397409,158.918494 756.086593,158.918494 L800,158.918494 Z M653.958858,173.166582 C645.030029,173.166582 636.022262,174.955207 627.736948,178.261252 L629.155334,178.879284 C643.020959,184.925968 676.065253,185.209189 678.311134,180.145804 C678.920257,178.786258 677.787164,177.693566 676.550894,176.997633 C671.460367,174.087103 659.407607,173.166582 653.958858,173.166582 Z" id="Combined-Shape"></path>
                </g>
            </g>
        </g>
    </g>
</svg>