<?xml version="1.0" encoding="UTF-8"?>
<svg width="800px" height="400px" viewBox="0 0 800 400" version="1.1" xmlns="http://www.w3.org/2000/svg" xmlns:xlink="http://www.w3.org/1999/xlink">
    <title>playlogic</title>
    <g id="Page-1" stroke="none" stroke-width="1" fill="none" fill-rule="evenodd">
        <g id="AF150_INCREMENTAL" fill="#000000" transform="translate(-0.000000, 0.000000)">
            <g id="playlogic" transform="translate(0.000000, 0.000000)">
                <line x1="0" y1="0" x2="800" y2="400" id="Path" fill-rule="nonzero"></line>
                <path d="M1.19373602,162.703356 C0.536912752,163.358389 0,166.177181 0,168.967338 L0,174.037584 L34.8993289,174.037584 C67.8961969,174.037584 70.0026846,174.241611 73.5337808,177.772707 C77.4782998,181.717226 77.0738255,189.609843 72.7892617,192.33736 C71.636689,193.069351 54.7865772,193.681432 35.3467562,193.697539 L0,193.724385 L0,216.095749 L0,238.467114 L6.2639821,238.467114 L12.5279642,238.467114 L12.5279642,222.359732 L12.5279642,206.252349 L43.9373602,206.252349 C79.9302013,206.252349 84.239821,205.090828 87.7548098,194.438479 C90.5932886,185.838926 89.0040268,172.761521 84.5834452,168.34094 C82.6559284,166.411633 77.9346756,164.104698 74.0957494,163.215213 C66.0653244,161.352125 2.98702461,160.908277 1.19373602,162.703356 M99.1516779,164.008054 C98.6255034,165.38255 98.4483221,180.265772 98.7615213,197.081879 L99.3288591,227.657271 L104.288143,232.614765 L109.247427,237.57226 L148.583445,238.144966 L187.919463,238.717673 L187.919463,232.434004 L187.919463,226.152125 L153.079195,225.597315 C122.500224,225.112304 117.850559,224.654139 115.047875,221.853244 C112.30604,219.111409 111.776286,214.635347 111.285906,190.085906 L110.714989,161.50962 L105.41387,161.50962 C102.496644,161.50962 99.6796421,162.633557 99.1516779,164.008054 M238.417897,163.823714 C235.557942,165.130201 228.970022,176.330201 216.49396,201.092617 C206.684564,220.564653 198.657718,236.938702 198.657718,237.480984 C198.657718,238.023266 218.389262,238.467114 242.505593,238.467114 C266.621924,238.467114 286.353468,238.055481 286.353468,237.552573 C286.353468,235.689485 255.370022,174.757047 252.007159,170.007159 C247.278747,163.327964 243.38255,161.554362 238.417897,163.823714 M297.091723,178.298881 C297.091723,193.701119 297.501566,195.791499 301.406711,200.33557 L305.72349,205.357494 L338.990604,205.915884 L372.259508,206.474273 L372.259508,214.354362 C372.259508,220.312304 371.414765,222.685459 368.79821,224.086801 C366.757942,225.178523 351.312752,225.93915 331.214318,225.93915 L297.091723,225.93915 L297.091723,232.203132 L297.091723,238.467114 L332.943177,238.467114 C371.058613,238.467114 378.942282,237.096197 382.854586,229.787025 C384.035794,227.580313 384.787472,213.547204 384.787472,193.727964 L384.787472,161.282327 L378.970917,161.844295 L373.154362,162.404474 L372.637136,178.06443 L372.119911,193.724385 L342.879642,193.724385 C321.131096,193.724385 313.145414,193.130201 311.713647,191.406711 C310.655928,190.132438 309.551678,183.086353 309.258166,175.746756 L308.724832,162.404474 L302.908277,161.844295 L297.091723,161.282327 L297.091723,178.298881 M395.525727,192.919016 C395.525727,229.25906 396.703356,233.523937 407.617002,236.700671 C411.75481,237.905145 427.663535,238.445638 449.217002,238.112752 L484.116331,237.57226 L484.669351,231.863087 L485.222371,226.153915 L450.4,225.599105 C404.893065,224.874273 408.053691,227.54094 408.053691,189.867562 L408.053691,161.50962 L401.789709,161.50962 L395.525727,161.50962 L395.525727,192.919016 M524.778523,163.310067 C504.459955,167.582103 494.847427,179.381655 494.90267,199.988367 C494.961969,222.443848 504.30962,233.302013 526.911857,237.174944 C550.212081,241.165996 572.068009,233.717226 579.097987,219.387025 C584.259508,208.867114 583.806711,189.683221 578.163758,179.812975 C570.455481,166.331096 546.15123,158.817897 524.778523,163.310067 M623.402237,163.378076 C603.375391,167.338702 594.120805,178.535123 593.827293,199.157942 C593.634004,212.82953 596.708725,220.990604 604.812528,228.312304 C613.870246,236.494855 623.812081,238.467114 656.016107,238.467114 L681.879195,238.467114 L681.879195,216.095749 L681.879195,193.724385 L675.615213,193.724385 L669.35123,193.724385 L669.35123,210.042953 L669.35123,226.361521 L646.532438,225.599105 C621.830872,224.774049 614.664877,222.597763 609.206264,214.266667 C605.41745,208.484116 605.311857,194.320358 609.007606,187.254586 C614.072483,177.56868 621.898881,175.315436 653.691275,174.388367 L681.879195,173.565101 L681.879195,167.53736 L681.879195,161.50962 L656.375839,161.706488 C642.349888,161.81387 627.511409,162.565548 623.402237,163.378076 M690.231767,162.703356 C689.574944,163.358389 689.038031,180.673826 689.038031,201.182103 L689.038031,238.467114 L695.302013,238.467114 L701.565996,238.467114 L701.565996,199.988367 L701.565996,161.50962 L696.495749,161.50962 C693.705593,161.50962 690.886801,162.046532 690.231767,162.703356 M741.523043,163.378076 C731.421924,165.375391 724.382998,169.242953 718.82774,175.84519 C706.009843,191.077405 709.129306,220.27651 724.663982,230.485011 C734.176286,236.736465 744.279195,238.374049 773.60179,238.424161 L800,238.467114 L800,232.387472 L800,226.30783 L770.917226,225.676063 C745.628635,225.126622 741.016555,224.570022 735.57047,221.404027 C727.2,216.539597 722.629083,207.505145 723.617002,197.776286 C725.3566,180.641611 733.707383,175.90604 764.692617,174.477852 C785.258166,173.531096 785.90604,173.613423 786.883221,177.348546 C787.663535,180.330201 789.254586,181.196421 793.945414,181.196421 L800,181.196421 L800,171.35302 L800,161.50962 L774.496644,161.706488 C760.470694,161.81387 745.632215,162.565548 741.523043,163.378076 M527.967785,176.056376 C517.365548,178.066219 511.491723,182.660403 508.592394,191.211633 C504.30604,203.852349 508.642506,216.02953 519.479195,221.787025 C528.102013,226.36689 550.160179,226.137808 558.392841,221.380761 C570.374944,214.458166 574.145861,197.176734 566.292617,185.189262 C561.141834,177.330649 543.466667,173.117673 527.967785,176.056376 M240.241611,179.854139 C237.549888,183.188367 218.344519,222.010738 218.344519,224.119016 C218.344519,225.26264 227.327069,225.93915 242.505593,225.93915 C255.794183,225.93915 266.666667,225.525727 266.666667,225.019239 C266.666667,223.560626 243.44877,177.617002 242.711409,177.617002 C242.348098,177.617002 241.236689,178.624609 240.241611,179.854139" id="Shape"></path>
            </g>
        </g>
    </g>
</svg>