<?xml version="1.0" encoding="UTF-8"?>
<svg width="800px" height="400px" viewBox="0 0 800 400" version="1.1" xmlns="http://www.w3.org/2000/svg" xmlns:xlink="http://www.w3.org/1999/xlink">
    <title>polyphonydigital</title>
    <g id="Page-1" stroke="none" stroke-width="1" fill="none" fill-rule="evenodd">
        <g id="Manufacturer" fill="#000000" fill-rule="nonzero">
            <g id="AF150_INCREMENTAL" transform="translate(-0.000000, 0.000000)">
                <g id="polyphonydigital" transform="translate(0.000000, 0.000000)">
                    <line x1="0" y1="0" x2="800" y2="400" id="Path"></line>
                    <path d="M50.0930668,261.671268 L50.0930668,273.387506 L38.3749511,273.387506 L50.0930668,261.671268 Z M50.0930668,239.891347 L50.0930668,251.609463 L28.313146,273.387506 L16.5959692,273.387506 L50.0930668,239.891347 Z M50.0921279,217.646645 L61.8149384,229.368517 L64.9792052,229.368517 L64.9792052,273.387506 L56.7577451,273.387506 L56.7577451,230.56568 L57.2553895,230.56568 L57.2553895,229.576025 L50.0930668,229.376967 L6.08065044,273.387506 L0.0751161265,273.387506 L0.0741771749,267.645817 L50.0921279,217.646645 Z M50.0930668,196.04043 L81.9075632,227.853049 C81.4099189,227.93286 80.9949023,227.978869 80.4916243,228.050229 L80.4916243,273.387506 L72.3255624,273.387506 L72.371571,228.730969 C71.8833162,228.74787 71.382855,228.759137 70.8917833,228.76571 L50.0930668,207.967932 L1.42108547e-14,258.062877 L1.42108547e-14,246.133497 L50.0930668,196.04043 Z M105.994488,96.0674388 C108.566265,97.4136747 111.058022,98.9075376 113.457275,100.541543 L56.0591652,157.967822 L113.466665,215.373444 C112.846018,215.799728 112.30706,216.136811 111.672328,216.546194 L111.672328,273.387506 L103.349462,273.387506 L103.349462,221.213722 C104.312684,220.754862 105.268049,220.279684 106.215142,219.788394 L50.0921279,163.663502 L0.151171204,213.602581 L0.151171204,202.062866 L44.1448086,158.069229 L0.0741771749,113.997658 L0.0741771749,102.191281 L49.9888432,152.105008 L105.994488,96.0674388 Z M119.765152,104.66448 C121.889999,106.427831 123.742551,108.190243 125.642989,110.168614 L77.5930807,158.052327 L125.056144,205.51633 C125.756256,204.788453 126.440598,204.045569 127.108692,203.288198 L127.108692,273.387506 L118.907889,273.387506 L118.907889,210.504041 L66.3857547,157.981906 L119.765152,104.66448 Z M50.0921279,173.656764 L99.4068038,222.970501 C98.3956793,223.388879 97.374083,223.781488 96.3430048,224.147946 L96.3430048,273.386567 L87.748781,273.386567 L87.748781,226.704711 L88.0445835,226.635263 C88.8978653,226.434322 89.8690819,226.199753 90.676432,225.977963 L50.0921279,185.430278 L0.000938951581,235.522406 L0.000938951581,223.747953 L50.0921279,173.656764 Z M130.103009,115.846454 C131.811901,118.038906 133.539572,120.604122 134.971473,122.97873 L99.8828523,158.069229 L133.787455,191.971953 C135.055724,189.780201 136.200831,187.519454 137.217445,185.200234 L110.142776,158.127444 L138.0456,130.417105 C138.992064,133.030207 139.865289,136.266773 140.495325,138.968137 L121.491884,157.972517 L139.907541,176.386296 C140.711284,173.553479 141.081231,170.351654 141.511271,167.39114 L131.946171,157.791299 L142.171354,147.566116 L142.171354,273.18657 L134.117966,273.18657 L134.117966,193.325921 L133.97065,193.566054 C132.582745,195.822275 131.514524,197.379805 129.836347,199.506101 L88.1619197,157.789421 L130.103009,115.846454 Z M0.0751161265,124.027539 L34.2294799,158.181903 L0.0751161265,192.335328 L0.0751161265,180.355244 L22.3968121,158.05045 L0.0751161265,135.729693 L0.0751161265,124.027539 Z M0.0741771749,145.734222 L12.3622365,158.021342 L0.0751161265,170.308462 L0.0741771749,145.734222 Z M6.09661261,86.039436 L50.1259301,130.069692 L90.0154101,90.208381 C92.969082,90.9969079 95.8725711,91.9626472 98.7101018,93.1003519 L50.0235844,141.786869 L0.0741771749,91.8384009 L0.0741771749,86.039436 L6.09661261,86.039436 Z M28.1328673,86 L50.167244,108.034377 L70.5218364,87.5821334 C74.2119161,87.6159357 77.8259407,87.9032549 81.3667271,88.4281288 L50.0602035,119.734652 L16.327429,86 L28.1328673,86 Z M38.3730732,86.0075116 L49.1381531,86.0075116 L49.6404398,86.0180547 C51.4593259,86.0594826 57.7632684,86.2318741 60.9764546,86.6891905 L50.0930668,97.6880693 L38.3730732,86.0075116 Z M266.016164,135.922061 C289.447888,135.922061 308.437389,153.831021 308.437389,175.928744 C308.437389,198.019797 289.447888,215.925422 266.016164,215.925422 C242.587776,215.925422 223.59494,198.016462 223.59494,175.928744 C223.59494,153.827686 242.587776,135.922061 266.016164,135.922061 Z M266.016164,143.37579 C252.906272,143.37579 242.267615,157.943079 242.267615,175.928744 C242.267615,193.90774 252.899602,208.481698 266.016164,208.481698 C279.136062,208.481698 289.768048,193.904405 289.768048,175.928744 C289.768048,157.943079 279.132727,143.37579 266.016164,143.37579 Z M335.490925,137.252727 L335.40755,205.140026 L359.813094,205.140026 L359.813094,213.680966 L317.782064,213.680966 L317.782064,137.252727 L335.490925,137.252727 Z M421.45727,137.252727 L398.432416,179.557226 L398.319026,213.680966 L380.866961,213.680966 L380.866961,179.310436 L357.972173,137.256062 L375.681033,137.256062 L393.509953,170.412651 L411.518964,137.252727 L421.45727,137.252727 Z M195.187393,137.252727 C208.033821,137.312757 218.535742,147.147677 218.535742,159.273745 C218.535742,171.393142 208.143876,181.241402 195.297448,181.284757 L184.658792,181.284757 L184.658792,213.680966 L167.049982,213.680966 L167.049982,137.252727 L195.187393,137.252727 Z M188.253924,144.969921 L184.658792,144.969921 L184.658792,174.064478 L188.113854,174.064478 C195.487543,174.064478 201.467202,167.547884 201.467202,159.51053 C201.467202,151.48318 195.627613,144.969921 188.253924,144.969921 Z M459.286197,137.252727 C472.132624,137.312757 482.634545,147.147677 482.634545,159.273745 C482.634545,171.393142 472.236009,181.241402 459.389582,181.284757 L448.750926,181.284757 L448.754261,213.680966 L431.148785,213.680966 L431.148785,137.252727 L459.286197,137.252727 Z M452.352728,144.969921 L448.754261,144.969921 L448.754261,174.064478 L452.212658,174.064478 C459.589682,174.064478 465.566005,167.547884 465.566005,159.51053 C465.566005,151.48318 459.723082,144.969921 452.352728,144.969921 Z M610.44516,135.922061 C633.880218,135.922061 652.869719,153.831021 652.869719,175.928744 C652.869719,198.019797 633.880218,215.925422 610.44516,215.925422 C587.016771,215.925422 568.023935,198.016462 568.023935,175.928744 C568.023935,153.827686 587.016771,135.922061 610.44516,135.922061 Z M610.43849,143.37579 C597.325262,143.37579 586.693276,157.943079 586.693276,175.928744 C586.693276,193.90774 597.325262,208.481698 610.43849,208.481698 C623.551717,208.481698 634.190374,193.904405 634.190374,175.928744 C634.190374,157.943079 623.551717,143.37579 610.43849,143.37579 Z M776.968477,179.557226 L776.858422,213.680966 L759.403021,213.680966 L759.403021,179.310436 L736.511568,137.256062 L754.220428,137.256062 L772.052684,170.412651 L790.058359,137.252727 L800,137.252727 L776.968477,179.557226 Z M509.304556,176.112169 L509.271206,213.680966 L491.652391,213.680966 L491.652391,137.252727 L509.354581,137.252727 L509.314561,167.324439 L541.253874,167.334444 L541.250539,137.252727 L558.9594,137.252727 L558.87269,213.680966 L541.250539,213.680966 L541.250539,176.112169 L509.304556,176.112169 Z M671.79252,163.682617 L671.78585,213.680966 L662.961435,213.680966 L662.961435,137.252727 L672.786351,137.252727 L720.773694,187.254411 L720.773694,137.249392 L729.591439,137.249392 L729.591439,213.677631 L719.773193,213.677631 L671.79252,163.682617 Z M277.161741,232.977287 L288.357342,232.977287 L288.357342,272.850571 L277.158406,272.850571 L277.161741,232.977287 Z M476.885002,232.977287 L488.083939,232.977287 L488.083939,272.850571 L476.885002,272.850571 L476.885002,232.977287 Z M183.047986,232.977287 C194.733833,233.027312 203.915093,242.085178 203.915093,253.043994 C203.915093,264.00281 194.343638,272.800546 182.737831,272.850571 L167.046647,272.850571 L167.046647,232.977287 L183.047986,232.977287 Z M180.480035,239.023646 L177.085003,239.023646 L177.225073,266.784202 L180.283269,266.784202 C187.740334,266.754187 193.883407,260.627788 193.883407,252.997304 C193.883407,245.37349 187.990459,239.063666 180.480035,239.023646 Z M775.757871,267.184402 L790.315154,267.184402 L790.315154,273.387506 L765.245945,273.387506 L765.245945,232.977287 L775.814566,232.977287 L775.757871,267.184402 Z M399.639687,235.701984 C395.80803,233.899012 391.624878,232.966259 387.390225,232.970602 C374.156937,232.970602 363.431571,241.898418 363.431571,252.900589 C363.431571,263.919435 374.156937,272.840566 387.390225,272.840566 C391.809102,272.840566 396.077905,271.853405 399.636352,270.109199 L399.636352,254.337975 L391.652357,254.337975 L391.642352,268.344983 C390.728548,268.596851 389.785482,268.726929 388.837616,268.731843 C381.200461,268.731843 375.017368,261.945114 375.017368,253.580929 C375.017368,245.21341 381.203796,238.430016 388.837616,238.430016 C393.059728,238.430016 396.96835,240.511057 399.643022,243.782694 L399.639687,235.701984 Z M583.268229,239.874071 L583.268229,272.850571 L572.072627,272.850571 L572.072627,239.874071 L562.948062,239.864066 L562.948062,232.977287 L592.419474,232.977287 L592.419474,239.864066 L583.268229,239.874071 Z M678.669294,232.977287 L694.623944,272.850571 L683.064827,272.850571 L679.21957,261.871744 L668.767674,261.871744 L664.638941,272.850571 L658.035637,272.850571 L673.996957,232.977287 L678.669294,232.977287 Z M674.043647,246.44736 L670.29844,257.042661 L677.608764,257.122701 L674.043647,246.44736 Z" id="Combined-Shape"></path>
                </g>
            </g>
        </g>
    </g>
</svg>