<?xml version="1.0" encoding="UTF-8"?>
<svg width="800px" height="400px" viewBox="0 0 800 400" version="1.1" xmlns="http://www.w3.org/2000/svg" xmlns:xlink="http://www.w3.org/1999/xlink">
    <title>polygram</title>
    <g id="Page-1" stroke="none" stroke-width="1" fill="none" fill-rule="evenodd">
        <g id="AF150_INCREMENTAL" fill="#000000" transform="translate(-0.000000, 0.000000)">
            <g id="polygram" transform="translate(0.000000, 0.000000)">
                <line x1="0" y1="0" x2="800" y2="400" id="Path" fill-rule="nonzero"></line>
                <path d="M570.943948,135.305134 C569.539617,135.305134 568.135372,135.348174 566.774511,135.438556 C564.029719,135.632233 561.443828,136.006676 559.377122,136.380257 C555.479951,137.09428 553.171836,137.831975 550.365757,138.935934 C549.009802,139.485977 547.612099,140.149214 546.330817,140.818476 C544.525402,141.833774 542.733286,143.046193 541.219894,144.450137 C539.71046,145.845042 538.440154,147.446967 537.319452,149.157781 C533.898254,154.293668 532.947945,160.061802 533.015516,165.431822 L533.015516,167.58379 L535.167484,167.58379 L545.254833,167.58379 L547.675797,167.58379 L547.406801,165.29754 C547.174819,162.354508 547.428321,159.457529 548.751781,156.554955 C549.273159,155.409678 550.040551,154.424507 550.903748,153.461717 C551.758123,152.498066 552.738258,151.585631 553.862704,150.90604 C556.981852,148.986915 561.05118,148.50057 565.160535,147.947084 C565.203574,147.947084 565.252639,147.951388 565.294818,147.947084 C570.671983,147.401345 576.421008,147.51583 582.107066,149.292064 C583.562356,149.748281 584.966773,150.390859 586.142005,151.309749 C587.317195,152.223044 588.353066,153.422551 589.100961,154.671983 C591.327688,158.456864 590.99168,163.206688 590.983933,168.256065 C590.983718,168.393791 590.983632,168.518605 590.983933,168.660635 C590.875904,169.414684 590.810915,170.090833 590.714937,170.408893 C590.609491,170.757512 590.366318,171.058357 589.638953,171.61959 C589.553735,171.684149 589.608826,171.679846 589.50467,171.753012 C589.034939,172.006945 588.518897,172.262598 588.025192,172.425287 C587.637838,172.554405 585.772383,172.952519 583.990253,173.232275 L583.85597,173.232275 C572.232934,174.701208 560.247894,175.431586 548.079506,179.150186 L547.945223,179.150186 C544.630547,180.40091 541.038138,181.912022 537.319882,185.202811 C536.270411,186.159576 535.3331,187.162393 534.495425,188.296049 C533.663345,189.422389 532.797135,190.744558 532.074461,192.330989 L532.208744,192.330989 C530.657433,195.665678 529.354374,199.962727 529.383781,204.166812 C529.375678,206.269284 529.556874,208.383808 529.922278,210.219006 C530.286821,212.047748 530.873276,213.6798 531.536254,215.195647 C532.199232,216.711493 532.988488,218.139108 533.957217,219.499582 C534.923709,220.857043 536.102385,222.120679 537.319667,223.265526 C542.803484,228.04892 548.731509,229.314707 554.266413,230.124708 L554.400696,230.124708 C562.621256,231.04618 571.238251,230.253826 579.820815,226.224481 C583.15516,224.551542 586.566115,222.215365 589.50467,219.364869 C590.559091,218.369369 591.630126,217.303284 592.732622,216.136917 C592.88326,218.192046 592.767053,220.135704 593.53961,222.324255 C593.875317,223.240993 594.437023,224.10178 595.019088,224.879501 C597.880904,228.475009 601.644437,228.938113 604.433947,229.31815 L604.568229,229.31815 C607.730417,229.606514 611.032698,229.171816 614.252084,227.838457 L615.597064,227.300465 L615.597064,225.955485 L615.597064,219.768578 L615.597064,216.674909 L612.772607,217.61661 C610.479642,218.422737 609.328038,219.01668 607.392687,217.883454 C606.256534,217.177178 605.986721,216.31467 605.644213,215.058781 C605.639909,215.058781 605.648517,214.946879 605.644213,214.925359 C605.490132,214.189386 605.308506,212.329225 605.240935,210.352428 C605.240762,210.309389 605.241107,210.262045 605.240935,210.219006 C605.172932,194.213961 605.406206,178.124989 605.240935,162.069157 L605.240935,161.935735 C605.03908,158.502916 604.888012,154.824773 603.357963,150.906901 L603.357963,150.773479 L603.22368,150.773479 C602.632448,149.383738 601.942484,148.105039 601.071712,146.872822 C596.961712,141.279427 591.598148,138.972948 587.21842,137.457963 L587.084137,137.457963 C585.811592,137.044785 584.508318,136.600189 582.511205,136.247696 C579.380609,135.666235 575.157372,135.288779 570.944379,135.305134 L570.943948,135.305134 Z M591.522355,182.379429 L591.522355,190.449308 C591.51831,196.85959 590.956904,202.820971 585.873225,208.337756 C584.478879,209.789473 582.845664,211.208911 581.165795,212.372265 C575.876,216.005647 570.564944,217.511594 565.429531,218.021611 C565.383479,218.023763 565.34087,218.019028 565.295248,218.021611 C558.906658,218.314278 552.919626,217.672992 547.541514,212.910257 C543.876756,209.255785 543.431126,206.156091 543.506574,202.823123 C543.507607,202.780084 543.505369,202.73274 543.506574,202.689701 C543.860358,198.683598 544.453139,195.490938 549.424486,192.064575 C550.1905,191.567901 551.145716,191.058746 552.114446,190.585313 C554.40599,189.506746 555.730741,188.901613 558.973843,188.163919 C560.699204,187.763653 563.168544,187.347032 565.564244,186.953652 C570.170273,186.206489 574.570573,185.728321 578.745047,185.205393 C580.75705,184.947157 582.723045,184.757354 584.124966,184.532688 C585.519011,184.313187 586.428863,184.058825 587.21842,183.859983 C587.996614,183.662002 588.727681,183.464021 589.504885,183.187708 C590.252953,182.91656 590.90035,182.641539 591.522355,182.38072 L591.522355,182.379429 Z M523.331661,136.650114 C518.910917,136.581251 514.339965,137.118813 510.150859,138.398803 C508.781002,138.824893 507.283362,139.414102 505.846923,140.147062 C504.409194,140.872275 503.04872,141.696479 501.811984,142.702739 L501.811984,142.836161 C498.97087,145.275631 496.871195,147.843359 495.087084,150.502331 L495.490363,139.877205 L495.624646,137.725237 L493.33818,137.725237 L483.923321,137.725237 L481.771354,137.725237 L481.771354,139.877205 L481.771354,225.955916 L481.771354,228.107884 L483.923321,228.107884 L493.33818,228.107884 L495.490148,228.107884 L495.490148,225.955916 L495.490148,181.302585 C495.486447,178.966839 495.648963,176.531242 496.02814,174.173976 C496.373746,171.846838 497.274689,168.658483 498.852598,165.29754 C499.69023,163.541534 500.746458,161.890114 501.946051,160.320899 C504.260364,157.333968 506.821894,155.009842 508.670951,153.864996 C511.260629,152.177853 514.836381,150.806189 517.547818,150.502331 C519.399887,150.252702 521.220839,150.093457 523.062235,150.235487 L525.348701,150.502331 L525.348701,148.21608 L525.348701,138.801221 L525.348701,136.649253 L523.331231,136.649253 L523.331661,136.650114 Z M713.511813,135.305134 C708.665452,135.58489 703.710719,136.746522 698.851532,139.071078 C697.2614,139.869888 695.702945,140.863237 694.278601,141.89532 C690.933927,144.293043 689.116289,147.099209 687.284706,149.830917 C686.653577,148.548774 686.225335,147.316988 685.267236,146.064973 C684.187766,144.602065 683.027769,143.246326 681.63579,142.030034 C676.661388,137.718781 671.070963,136.1203 665.765028,135.439417 C661.593395,134.929831 656.590243,135.258652 651.508242,136.650114 C648.808082,137.407607 646.267727,138.529212 643.841856,139.878066 C640.325068,141.809242 637.361033,144.447985 634.426997,147.544666 L634.695993,139.878066 L634.830276,137.726098 L632.54381,137.726098 L623.666943,137.726098 L621.514976,137.726098 L621.514976,139.878066 L621.514976,225.956777 L621.514976,228.108744 L623.666943,228.108744 L633.2163,228.108744 L635.368268,228.108744 L635.368268,225.956777 L635.368268,173.368279 C635.42465,168.732941 636.066969,164.184111 638.865216,159.514772 C639.747178,158.041104 640.78206,156.6363 641.958669,155.345119 C643.128307,154.060825 644.439027,152.891445 645.859111,151.848602 L645.859111,151.982024 C652.060566,147.641074 659.401186,146.57542 666.840797,149.157781 C667.917383,149.566655 668.977873,150.013404 669.93425,150.637044 C670.938014,151.295116 671.945695,152.071546 672.758708,152.923725 C675.418454,155.760449 676.384343,158.721556 676.793648,161.934875 C677.197787,165.106445 676.936969,168.55734 677.062644,172.156722 C677.064279,172.204065 677.060879,172.2428 677.062644,172.290144 L677.062644,225.954625 L677.062644,228.106592 L679.214611,228.106592 L688.62947,228.106592 L690.781438,228.106592 L690.781438,225.954625 C690.802958,208.141066 690.670827,190.219909 690.781438,172.424426 C690.781696,172.381387 690.781137,172.334044 690.781438,172.291004 C690.941975,169.082851 691.411319,165.246753 692.798908,161.665448 C693.767853,159.21737 695.267559,156.904865 697.102843,154.940549 C698.889106,153.02831 701.156204,151.425955 703.558747,150.233335 C710.349625,147.10093 717.883751,146.484176 725.616416,150.366757 C726.515552,150.86257 727.283072,151.451348 728.03738,152.115015 C731.879891,155.590013 732.49587,159.25008 732.475814,163.412846 L732.475814,225.954625 L732.475814,228.106592 L734.627781,228.106592 L744.04264,228.106592 L746.194608,228.106592 L746.194608,225.954625 L746.194608,163.816555 C746.146834,159.843592 746.142961,155.6748 744.311636,151.173745 C743.287644,148.759237 741.708315,146.38949 739.469709,144.179849 C735.79574,140.598114 731.713888,138.314016 727.633886,137.051241 C723.101842,135.627499 718.357958,135.023227 713.511598,135.302982 L713.511813,135.305134 Z M48.9572667,104.235329 L48.9572667,106.388067 L48.9572667,225.956777 L48.9572667,228.108744 L51.1092345,228.108744 L61.6000773,228.108744 L63.7520451,228.108744 L63.7520451,225.956777 L63.7520451,175.385534 L91.1896341,175.385534 C94.457225,175.389408 97.7290295,175.161729 101.007987,174.712829 C105.243271,174.117164 109.146303,173.283922 112.978308,171.61959 C114.121993,171.130663 115.139977,170.595254 116.206259,170.005615 L116.340757,170.005615 C119.328937,168.268546 122.060227,166.164783 124.410637,163.684424 C126.753962,161.204497 128.692936,158.370355 130.19405,155.345119 C134.433749,146.754894 134.43183,137.083951 132.077022,128.176956 C132.031486,128.004799 132.124451,127.811122 132.077022,127.638964 C131.463896,125.60019 130.594781,123.452096 129.52156,121.451627 C128.447633,119.461917 127.134864,117.648239 125.621118,115.937424 C122.557711,112.486529 119.136465,110.067717 115.937263,108.540035 C114.338153,107.756375 112.801351,107.053671 111.095336,106.522565 C109.382766,105.9841 107.516347,105.648479 105.446421,105.312084 C101.215101,104.617816 96.107935,104.215269 91.3241321,104.235329 L51.1092345,104.235329 L48.9572667,104.235329 Z M63.7520451,117.282404 L91.8621241,117.282404 C97.2598532,117.325444 102.666853,118.008909 108.001882,120.375643 L108.13638,120.375643 C109.352625,120.958826 110.58207,121.70685 111.633328,122.527611 C112.712062,123.375916 113.625194,124.300832 114.457786,125.352283 C118.720584,131.031326 119.210966,137.151092 118.358227,143.644009 C118.088284,145.264441 117.611731,146.814288 117.013247,148.351224 C116.413993,149.886007 115.698081,151.392815 114.995778,152.520876 C114.290401,153.66185 113.684721,154.477446 112.978308,155.210836 C110.125005,158.197337 107.132173,159.546621 103.832445,160.590756 L103.697947,160.590756 C100.156182,161.613371 94.5441473,162.410029 89.8446543,162.339014 L63.7520451,162.339014 L63.7520451,117.282404 Z M261.329586,137.725668 L262.540068,140.685054 L297.240548,225.822063 C294.934297,231.282897 293.030597,236.547471 290.246653,241.961822 C289.275685,243.617115 286.957727,246.038079 285.808219,246.535184 L285.673721,246.535184 C282.686209,248.076423 279.103501,247.365843 275.04838,246.535184 L272.492919,245.997192 L272.492919,248.687151 L272.492919,257.295022 L272.492919,259.312277 L274.510388,259.445699 C280.112701,259.768494 286.668339,260.017262 292.936612,257.428014 L293.07111,257.428014 C294.164065,256.948986 295.186228,256.381297 296.164564,255.679755 C298.265091,254.169504 299.693283,252.25124 300.737495,250.434119 L300.871993,250.434119 C300.887057,250.391079 300.85736,250.32652 300.871993,250.300697 C302.498946,247.466555 303.879011,244.616059 305.041431,241.692826 L346.466811,140.684623 L347.677292,137.725668 L344.449341,137.725668 L334.361992,137.725668 L332.882514,137.725668 L332.344522,139.070648 L304.637937,208.067899 L277.06585,139.071078 L276.527858,137.725668 L275.04838,137.725668 L264.557537,137.725668 L261.329586,137.725668 Z M411.832831,101.54614 C406.463414,101.401528 401.021479,101.784148 395.558575,102.756622 C392.030308,103.425669 388.62181,104.450436 385.336728,105.850076 C382.048801,107.251007 378.872751,108.959884 376.056367,111.095497 C373.238611,113.237135 370.710027,115.759241 368.52448,118.493101 C366.193146,121.239443 364.22963,124.119206 362.472071,127.235255 C360.708021,130.353457 359.141677,133.674373 358.033637,137.053393 C354.578765,147.737913 354.54794,159.511759 354.671188,170.812602 C354.972377,180.762441 355.773684,190.964059 360.051107,201.34386 L360.051107,201.477282 C361.296249,204.326488 362.89331,207.044423 364.893035,209.816157 C367.000173,212.834077 369.374512,215.683282 372.155926,218.155033 C374.930893,220.625492 378.003997,222.816625 381.301789,224.610936 C390.381139,229.603071 400.549277,231.1116 410.218856,230.797843 C416.671961,230.655813 423.400347,229.384 429.855562,226.762904 C434.466023,224.835601 438.734064,222.608315 443.170862,218.693025 C444.633813,217.411313 445.58481,216.007799 446.802308,214.658085 L446.802308,226.762904 L446.802308,228.914871 L448.954275,228.914871 L458.234636,229.048293 L460.386819,229.048293 L460.386819,226.896326 L460.252321,168.255204 L460.252321,166.103236 L458.100354,166.103236 L412.505537,166.103236 L410.353569,166.103236 L410.353569,168.255204 L410.219286,176.863075 L410.219286,179.015043 L412.371254,179.015043 L446.533742,179.015043 C446.436043,182.964764 446.171781,186.910182 445.32326,190.850866 C444.826328,193.156484 444.223777,195.499977 443.574786,197.441482 C442.931563,199.380835 442.228515,200.897112 441.422819,202.418123 C440.617122,203.939134 439.671074,205.482094 438.598361,206.856341 C437.518547,208.228005 436.404215,209.44688 435.101413,210.622285 C432.334155,213.010108 429.191249,215.011868 425.821052,216.540196 C419.173495,219.596421 411.415608,220.712001 404.032379,219.768148 C400.371606,219.309348 396.819082,218.346127 393.541536,216.943905 C390.258545,215.539961 387.218925,213.70089 384.530171,211.429273 C381.843671,209.164542 379.518135,206.546027 377.670774,203.628389 L377.670774,203.494967 C373.822332,197.640754 372.559377,190.568527 371.349368,183.454552 C371.342912,183.411513 371.355824,183.36417 371.349368,183.32113 C369.804488,172.885808 369.59455,162.388509 370.811376,151.849032 C371.63196,145.688379 373.185845,139.396455 375.653304,133.28788 C375.670089,133.24484 375.636518,133.193193 375.653304,133.154458 C376.92191,130.125348 378.75812,127.242572 380.898725,124.680869 C383.066618,122.088609 385.684422,119.831195 388.56511,117.956401 C395.925417,113.167412 404.516726,111.439381 412.909246,112.307055 C420.067853,113.002571 427.181569,114.075112 434.294425,119.032384 C434.348225,119.075424 434.374909,119.127071 434.428708,119.165806 C441.099421,125.160758 443.423245,131.409212 444.381559,137.861242 C444.592452,139.409367 444.660885,141.010431 444.650555,142.568456 L444.650555,144.720424 L446.802523,144.720424 L458.234852,144.720424 L460.386819,144.720424 L460.386819,142.433743 C460.313653,139.250982 459.860534,136.113413 459.04184,133.019314 C458.229127,129.926506 457.061039,126.979601 455.544892,124.142017 C454.029347,121.300989 452.176072,118.651056 450.030475,116.206851 L450.030475,116.073429 L449.896192,116.073429 C447.917414,114.044554 445.784599,112.189127 443.440288,110.559227 C438.517146,107.130109 433.211168,104.878118 427.838522,103.565331 L427.704239,103.565331 C422.46777,102.418935 417.202895,101.692474 411.833477,101.547862 L411.832831,101.54614 L411.832831,101.54614 Z M239.67541,104.2361 L239.67541,106.388067 L239.67541,225.956777 L241.827378,225.956777 L241.827378,228.108744 L251.242237,228.108744 L253.394205,228.108744 L253.394205,225.956777 L253.394205,106.388067 L253.394205,104.2361 L251.242237,104.2361 L241.827378,104.2361 L239.67541,104.2361 Z M184.531236,133.691159 C179.71116,133.781541 173.501252,134.728837 167.853486,137.188106 C165.160505,138.325636 162.592519,139.659856 160.187101,141.357328 C157.782965,143.055231 155.564304,145.090132 153.596699,147.27524 C151.628092,149.462069 149.900957,151.861514 148.485776,154.403848 C147.065111,156.947044 145.987582,159.702423 144.988828,163.280715 C143.984884,166.852551 143.127927,171.254186 142.702363,175.788813 C142.2711,180.325591 142.346126,184.854192 142.836861,189.373324 C143.327746,193.898913 144.179499,198.461945 145.52682,202.554127 C146.873053,206.648461 148.681308,210.338655 151.041238,213.717675 C153.399687,217.093252 156.30109,220.102563 159.649109,222.594112 C162.996774,225.08566 166.696941,227.034912 170.27445,228.37774 C177.32891,230.984204 184.090763,231.47227 190.852641,230.933417 C194.24614,230.61923 197.693855,229.977944 201.208986,228.781449 C204.71588,227.590981 208.267006,225.770847 211.565331,223.535813 C214.863609,221.306374 217.89206,218.69905 220.3077,215.600216 C222.712399,212.496218 224.457847,209.043171 225.68762,206.320071 C228.026301,201.007293 228.662758,197.382518 229.319065,193.273981 C229.609753,191.177104 229.695186,189.038478 229.722559,186.280086 C229.738484,183.516529 229.61948,180.020873 229.319065,176.596231 C229.03096,173.315341 228.626429,170.194557 228.108583,167.450368 L228.108583,167.17922 L228.108583,167.045798 C227.556638,164.231024 226.910286,161.950799 226.091114,159.782907 C225.277433,157.615015 224.176099,155.469503 222.99766,153.461717 C221.81703,151.449627 220.503258,149.564934 219.097218,147.812371 C217.693029,146.058087 216.228477,144.473808 214.524287,142.970444 C207.348163,136.625582 198.463971,134.788232 190.987139,133.959294 C189.031793,133.761313 186.988349,133.627891 184.531236,133.69245 L184.531236,133.691159 Z M184.531236,144.719993 C187.192067,144.616699 189.381302,144.595179 192.332119,144.986837 C193.820011,145.193426 195.564185,145.50331 197.174047,146.062821 C198.789985,146.618459 200.337797,147.400915 201.746978,148.349072 C203.155833,149.302393 204.416318,150.475646 205.64742,151.84645 C206.872518,153.210367 208.004371,154.857913 209.009869,156.553664 C210.017954,158.258883 210.901643,159.965394 211.565331,161.79887 C212.225266,163.640955 212.745608,165.553624 213.179307,168.254774 C213.617887,170.950759 213.878778,174.421452 214.120793,177.938629 C214.357638,181.448918 214.447419,185.061211 214.389789,187.89191 C214.33302,190.718735 214.222753,192.774725 213.851797,194.885805 C213.476149,196.99129 212.928198,199.01371 212.237821,201.072282 L212.237821,201.205704 C210.955485,205.176515 208.53434,209.472703 204.571436,213.17624 C202.634011,214.952905 200.304734,216.493283 197.846537,217.614458 C195.355909,218.755001 192.71906,219.549508 189.64216,219.900709 C186.559918,220.249328 183.089379,220.189073 179.823807,219.496139 C176.560287,218.806648 173.441445,217.547317 170.677944,215.730195 C167.914843,213.913504 165.604688,211.498566 163.818546,208.871013 C162.03274,206.24303 160.771575,203.291822 159.918105,200.397425 C159.059461,197.502168 158.503397,194.707622 158.169631,191.923837 C157.476766,186.542626 157.58959,180.440506 158.035133,175.784078 C158.239139,173.476308 158.536464,171.647996 158.842121,169.866167 C159.1477,168.091224 159.484195,166.398056 159.918105,164.620961 L159.918105,164.487539 C160.943952,159.663257 163.402536,154.560081 168.391478,150.499748 C169.893672,149.286899 171.573442,148.229853 172.829911,147.541223 C174.089914,146.850872 174.817163,146.622333 175.654369,146.330526 L175.654369,146.197104 C178.345418,145.240339 181.153727,144.921417 184.531236,144.717841 L184.531236,144.719993 Z M0,291.267707 L800,291.267707 L800,308.483449 L0,308.483449 Z" id="Combined-Shape"></path>
            </g>
        </g>
    </g>
</svg>