<?xml version="1.0" encoding="UTF-8"?>
<svg width="800px" height="400px" viewBox="0 0 800 400" version="1.1" xmlns="http://www.w3.org/2000/svg" xmlns:xlink="http://www.w3.org/1999/xlink">
    <title>prismarts</title>
    <g id="Page-1" stroke="none" stroke-width="1" fill="none" fill-rule="evenodd">
        <g id="AF150_INCREMENTAL" fill="#000000" transform="translate(-0.000000, 0.000000)">
            <g id="prismarts" transform="translate(0.000000, 0.000000)">
                <line x1="0" y1="0" x2="800" y2="400" id="Path" fill-rule="nonzero"></line>
                <path d="M24.7183779,210.299324 L24.7183779,274.155134 L0,274.155134 L0,125.844866 L67.9755391,125.844866 C77.0765945,125.844866 84.4544577,133.22273 84.4544577,142.323785 L84.4544577,193.820406 C84.4544577,202.921461 77.0765945,210.299324 67.9755391,210.299324 L24.7183779,210.299324 Z M59.7360798,150.563244 L24.7183779,150.563244 L24.7183779,185.580946 L59.7360798,185.580946 L59.7360798,150.563244 Z M142.130673,274.155134 L117.412295,274.155134 L117.412295,125.844866 L183.327969,125.844866 C193.566656,125.844866 201.866752,134.144962 201.866752,144.38365 L201.866752,185.580946 C201.866752,192.036643 199.391941,197.914317 195.33929,202.316996 C199.391565,206.719485 201.866752,212.597562 201.866752,219.05375 L201.866752,274.155134 L177.148375,274.155134 L177.148375,210.299324 L142.130673,210.299324 L142.130673,274.155134 Z M177.148375,150.563244 L142.130673,150.563244 L142.130673,185.580946 L177.148375,185.580946 L177.148375,150.563244 Z M625.025927,274.155134 L613.010049,274.155134 L613.009591,243.114001 L595.986868,243.114001 L595.987555,274.155134 L583.971677,274.155134 L583.971677,212.359189 C583.971677,206.671029 588.582841,202.059865 594.271001,202.059865 L614.726603,202.059865 C620.414763,202.059865 625.025927,206.671029 625.025927,212.359189 L625.025927,274.155134 Z M613.009591,214.075056 L595.986868,214.075056 L595.986868,231.097779 L613.009591,231.097779 L613.009591,214.075056 Z M671.086793,202.059865 L671.086793,214.075743 L654.063613,214.075056 L654.063613,231.097779 L671.086793,231.098237 L671.086793,243.114115 L654.063613,243.114001 L654.064299,274.155134 L642.048421,274.155134 L642.048421,202.059865 L671.086793,202.059865 Z M671.086793,202.059865 L671.773415,202.059865 C678.03039,202.059865 683.102671,207.132146 683.102671,213.389121 L683.102671,231.098237 C683.102671,233.287328 682.517278,235.339692 681.494494,237.107328 C682.517506,238.873457 683.102671,240.92545 683.102671,243.114115 L683.102671,274.155134 L671.086793,274.155134 L671.086793,202.059865 Z M758.94575,274.155134 L758.94575,262.139255 L787.983664,262.138912 L787.983664,243.114001 L768.215141,243.114079 C763.187215,243.114134 759.094259,239.110996 758.949666,234.118065 L758.94575,233.844723 L758.94575,211.329257 C758.94575,206.209913 763.095798,202.059865 768.215141,202.059865 L800,202.059865 L800,214.075743 L770.960941,214.075056 L770.960941,231.097779 L790.730608,231.098091 C795.849895,231.098318 800,235.248342 800,240.367629 L800,264.885742 C800,270.005086 795.849952,274.155134 790.730608,274.155134 L758.94575,274.155134 Z M746.586561,202.059865 L746.586561,214.075743 L728.133262,214.075056 L728.133605,274.155134 L716.117727,274.155134 L716.11704,214.075056 L697.664771,214.075743 L697.664771,202.059865 L746.586561,202.059865 Z M292.500805,274.155134 L292.500805,249.436756 L352.236884,249.436756 L352.236884,210.299324 L311.039588,210.299324 C300.800901,210.299324 292.500805,201.999228 292.500805,191.760541 L292.500805,144.38365 C292.500805,134.144962 300.800901,125.844866 311.039588,125.844866 L376.955262,125.844866 L376.955262,150.563244 L317.219182,150.563244 L317.218153,185.580946 L358.416479,185.580946 C368.655166,185.580946 376.955262,193.881042 376.955262,204.11973 L376.955262,255.61635 C376.955262,265.855038 368.655166,274.155134 358.416479,274.155134 L292.500805,274.155134 Z M548.953975,144.38365 L548.953975,274.155134 L524.235597,274.155134 L524.235597,150.563244 L494.367557,150.563244 L494.367557,274.155134 L469.649179,274.155134 L469.649179,150.563244 L434.631477,150.563244 L434.631477,274.155134 L409.913099,274.155134 L409.913099,125.844866 L530.415192,125.844866 C540.653879,125.844866 548.953975,134.144962 548.953975,144.38365 Z M259.542967,125.844866 L259.542967,274.155134 L234.82459,274.155134 L234.82459,125.844866 L259.542967,125.844866 Z" id="Shape"></path>
            </g>
        </g>
    </g>
</svg>