<?xml version="1.0" encoding="UTF-8"?>
<svg width="800px" height="400px" viewBox="0 0 800 400" version="1.1" xmlns="http://www.w3.org/2000/svg" xmlns:xlink="http://www.w3.org/1999/xlink">
    <title>produce</title>
    <g id="Page-1" stroke="none" stroke-width="1" fill="none" fill-rule="evenodd">
        <g id="AF150_INCREMENTAL" fill="#000000" transform="translate(-0.000000, 0.000000)">
            <g id="produce" transform="translate(0.000000, 0.000000)">
                <line x1="0" y1="0" x2="800" y2="400" id="Path" fill-rule="nonzero"></line>
                <path d="M311.781652,71.5028506 C335.396678,71.5028506 354.540439,90.6466113 354.540439,114.261637 L354.540439,285.296782 C354.540439,308.911808 335.396678,328.055568 311.781652,328.055568 C288.166627,328.055568 269.022866,308.911808 269.022866,285.296782 L269.022866,176.971673 L304.655188,176.971673 L304.655188,278.170318 C304.655188,281.948722 307.59567,285.040339 311.313085,285.281623 L311.781652,285.296782 C315.71749,285.296782 318.908117,282.106155 318.908117,278.170318 L318.908117,121.388101 C318.908117,117.452264 315.71749,114.261637 311.781652,114.261637 C307.845815,114.261637 304.655188,117.452264 304.655188,121.388101 L304.655188,166.424506 L269.022866,166.424506 L269.022866,114.261637 C269.022866,90.6466113 288.166627,71.5028506 311.781652,71.5028506 Z M260.471109,328.055568 L224.838787,328.055568 L224.838787,219.448251 L210.585858,219.448251 L210.585858,328.055568 L174.953536,328.055568 L174.953536,176.971673 L224.838787,176.974523 L224.838787,125.66398 C224.838787,119.36664 219.733784,114.261637 213.436444,114.261637 L210.585858,114.261637 L210.585858,166.424506 L174.953536,166.424506 L174.953536,71.5028506 L217.712322,71.5028506 C241.327348,71.5028506 260.471109,90.6466113 260.471109,114.261637 L260.471109,183.815929 C260.471109,190.720738 258.507138,197.166838 255.107345,202.626078 C258.507484,208.082835 260.471109,214.528406 260.471109,221.432606 L260.471109,328.055568 Z M0,166.427356 L69.4818634,114.261637 L69.4818634,128.514566 L80.8796695,128.514566 L80.8842064,71.5028506 L123.642993,71.5028506 C147.258018,71.5028506 166.401779,90.6466113 166.401779,114.261637 L166.401779,176.689465 C166.401779,200.30449 147.258018,219.448251 123.642993,219.448251 L116.516528,219.448251 L116.516528,328.055568 L80.8842064,328.055568 L80.8813558,176.971673 L122.360229,176.974523 C127.01757,176.897177 130.769457,173.098122 130.769457,168.422766 L130.769457,122.813394 C130.769457,118.090389 126.940705,114.261637 122.2177,114.261637 L116.516528,114.261637 L116.513678,166.424506 L0,166.427356 Z M405.850982,71.5028506 C429.466008,71.5028506 448.609768,90.6466113 448.609768,114.261637 L448.609768,285.296782 C448.609768,308.911808 429.466008,328.055568 405.850982,328.055568 L363.092196,328.055568 L363.092196,176.971673 L398.724518,176.971673 L398.724518,285.296782 L404.425689,285.296782 C409.148694,285.296782 412.977446,281.46803 412.977446,276.745025 L412.977446,122.813394 C412.977446,118.090389 409.148694,114.261637 404.425689,114.261637 L398.724518,114.261637 L398.724518,166.424506 L363.092196,166.424506 L363.092196,71.5028506 L405.850982,71.5028506 Z M542.679098,71.5028506 L542.679098,285.296782 C542.679098,308.911808 523.535337,328.055568 499.920312,328.055568 C476.305286,328.055568 457.161526,308.911808 457.161526,285.296782 L457.161526,176.971673 L492.793847,176.971673 L492.793847,278.170318 C492.793847,281.948722 495.734329,285.040339 499.451745,285.281623 L499.920312,285.296782 C503.856149,285.296782 507.046776,282.106155 507.046776,278.170318 L507.046776,71.5 L542.679098,71.5028506 Z M492.793847,166.424506 L457.161526,166.424506 L457.161526,71.5028506 L492.793847,71.5 L492.793847,166.424506 Z M636.748428,232.273036 L636.748428,285.296782 C636.748428,308.911808 617.604667,328.055568 593.989642,328.055568 C570.374616,328.055568 551.230855,308.911808 551.230855,285.296782 L551.230855,176.971673 L586.863177,176.971673 L586.863177,279.59561 C586.863177,282.601159 589.188907,285.063505 592.138864,285.281144 L592.564349,285.296782 L595.414935,285.296782 C598.563605,285.296782 601.116106,282.744281 601.116106,279.59561 L601.116106,232.273036 L636.748428,232.273036 Z M593.989642,71.5028506 C617.604667,71.5028506 636.748428,90.6466113 636.748428,114.261637 L636.748428,166.424506 L601.116106,166.424506 L601.116106,119.962808 C601.116106,116.95726 598.790376,114.494914 595.84042,114.277274 L595.414935,114.261637 L592.564349,114.261637 C589.415679,114.261637 586.863177,116.814138 586.863177,119.962808 L586.863177,166.424506 L551.230855,166.424506 L551.230855,114.261637 C551.230855,90.6466113 570.374616,71.5028506 593.989642,71.5028506 Z M718.27233,176.971673 L718.27518,211.60914 L682.642859,211.60914 L682.642859,288.147368 L718.27518,288.147368 L718.27518,328.055568 L645.300185,328.055568 L645.300185,176.971673 L718.27233,176.971673 Z M718.27518,71.5028506 L718.27518,111.411051 L682.642859,111.411051 L682.642859,166.424506 L645.300185,166.424506 L645.300185,71.5028506 L718.27518,71.5028506 Z M730.817758,71.5028506 L773.576544,71.5028506 L773.576544,249.66446 C773.576544,261.471973 764.004664,271.043853 752.197151,271.043853 C740.389638,271.043853 730.817758,261.471973 730.817758,249.66446 L730.817758,71.5028506 Z M752.197151,328.5 C764.004664,328.5 773.576544,318.92812 773.576544,307.120607 C773.576544,295.313094 764.004664,285.741214 752.197151,285.741214 C740.389638,285.741214 730.817758,295.313094 730.817758,307.120607 C730.817758,318.92812 740.389638,328.5 752.197151,328.5 Z" id="Shape"></path>
            </g>
        </g>
    </g>
</svg>