<?xml version="1.0" encoding="UTF-8"?>
<svg width="800px" height="400px" viewBox="0 0 800 400" version="1.1" xmlns="http://www.w3.org/2000/svg" xmlns:xlink="http://www.w3.org/1999/xlink">
    <title>rebellion</title>
    <g id="Page-1" stroke="none" stroke-width="1" fill="none" fill-rule="evenodd">
        <g id="Manufacturer" fill="#000000" fill-rule="nonzero">
            <g id="AF150_INCREMENTAL" transform="translate(-0.000000, 0.000000)">
                <g id="rebellion" transform="translate(0.000000, 0.000000)">
                    <line x1="0" y1="0" x2="800" y2="400" id="Path"></line>
                    <path d="M294.445272,193.879493 C296.185694,196.300949 297.774774,199.630452 298.53148,197.965701 C304.282439,190.54999 304.282439,180.712823 306.779566,171.63236 C313.362901,143.634269 310.109069,115.636177 319.946236,89.3028373 C319.946236,88.4704616 321.610988,86.8057102 323.200068,85.2166294 C327.286276,82.7195023 332.280531,82.7195023 336.366738,82.7195023 C350.365784,81.8871266 365.197206,82.7195023 379.196251,82.7195023 C387.444338,82.7195023 395.616754,86.0490051 401.443384,93.3890453 C403.940511,96.718548 406.361967,100.804756 403.108135,104.890964 C402.275759,105.72334 403.108135,108.144796 403.108135,108.977172 C398.946257,116.392883 392.438592,125.473345 383.35813,123.808593 C379.271922,123.808593 375.110043,122.143842 370.19146,121.311466 C365.272876,120.479091 361.110998,121.311466 357.02479,121.311466 C352.106206,122.143842 352.106206,127.894801 353.695287,131.981009 C354.527663,134.478136 357.781495,136.899593 360.278622,137.731969 C363.532454,139.39672 367.694333,137.731969 371.780541,136.899593 C377.5315,135.234842 383.282459,136.899593 389.033419,137.731969 C392.362922,137.731969 396.449129,141.818177 398.113881,145.980055 C401.367713,155.892893 399.778632,167.394812 393.195297,174.810522 C384.114835,185.480065 369.359084,175.642898 356.192414,178.89673 C353.695287,178.89673 350.441455,178.89673 350.441455,181.393857 C349.609079,190.474319 348.776703,200.311487 351.27383,209.391949 C352.106206,213.478157 358.689541,212.645781 362.775749,211.889076 C374.277668,210.224324 384.190506,209.391949 395.692424,206.970492 C396.5248,206.970492 398.189551,206.138117 399.778632,205.305741 C402.275759,205.305741 403.86484,205.305741 406.361967,206.138117 C407.194343,206.138117 408.859094,204.473365 408.859094,203.640989 C407.194343,192.139071 408.026719,181.393857 410.523846,169.891939 C410.523846,168.227187 412.188597,166.562436 412.188597,165.805731 C417.107181,134.553807 417.107181,104.890964 414.685724,73.6390402 C412.188597,55.5537864 417.182851,38.2252379 417.939556,20.1399842 C417.939556,18.4752328 420.436684,15.2214006 422.85814,15.2214006 C426.111972,14.3890249 429.441475,16.0537762 431.938602,17.7185276 C434.435729,21.8047356 439.354313,22.6371113 441.77577,26.7989897 C442.608145,28.4637411 442.608145,30.8851977 444.272897,31.7175734 C445.105272,31.7175734 445.937648,32.5499491 446.770024,33.3823248 C451.688607,42.4627869 450.099526,52.2999542 452.520983,61.3804163 C454.185734,69.6285027 452.520983,78.6332943 454.185734,87.7137564 C456.682862,99.2156751 455.01811,109.128513 456.682862,120.630432 C459.179989,134.629477 457.515237,147.796147 456.682862,161.795193 C456.682862,161.795193 457.515237,164.29232 455.850486,164.29232 C457.515237,169.210904 456.682862,174.961863 456.682862,179.956117 C456.682862,188.204204 457.515237,195.619915 457.515237,203.79233 C456.682862,212.872793 456.682862,222.70996 459.179989,231.790422 C464.098572,230.958046 471.514283,231.790422 473.179034,227.704214 C474.843786,224.374711 473.179034,218.623752 472.346659,213.705168 C470.681907,196.45229 474.843786,179.123742 474.843786,162.703239 C474.843786,154.455153 472.346659,145.450361 474.01141,137.202275 C474.843786,125.700356 477.265242,115.787518 478.929994,104.2856 C479.762369,88.6218027 477.265242,73.8660517 480.594745,58.2022546 C480.594745,56.5375032 482.259496,52.4512952 483.091872,52.4512952 C491.339959,49.9541681 500.34475,45.0355845 507.760461,49.197463 C511.089964,50.8622144 512.679045,55.780798 513.51142,59.867006 C516.840923,71.3689246 516.840923,82.1141381 516.840923,93.6160568 C517.673299,102.696519 518.505674,111.701311 516.840923,120.781773 C516.840923,123.2789 516.840923,126.532732 516.840923,129.029859 C516.840923,131.526986 518.505674,134.780818 519.33805,137.277945 C522.667553,150.444616 524.256634,162.77891 525.921385,175.94558 C526.753761,177.610331 527.586137,180.031788 529.175217,180.031788 C535.758552,179.199412 545.67139,182.528915 548.092847,176.777956 C550.589974,169.362245 548.092847,161.946534 545.59572,153.698448 C543.930968,146.282737 545.59572,139.699402 547.260471,133.116067 C548.092847,131.451316 550.589974,131.451316 551.346679,129.862235 C551.346679,128.197483 551.346679,126.532732 553.01143,125.776027 C562.091893,121.689819 570.264308,128.273154 578.512395,132.359362 C579.344771,132.359362 580.177146,134.856489 579.344771,136.44557 C579.344771,138.110321 579.344771,140.531778 579.344771,142.196529 C581.841898,148.779864 578.512395,155.363199 583.430979,161.114159 C586.684811,147.947488 588.349562,134.780818 594.100522,122.446524 C598.186729,112.533686 604.770065,105.193646 613.850527,98.610311 C617.936735,95.2808082 623.763364,92.8593516 629.514324,91.1946003 C635.265283,90.3622246 640.183867,89.5298489 645.178121,90.3622246 C651.761456,90.3622246 657.512415,93.6160568 660.009542,99.4426867 C663.339045,109.355524 674.008588,114.274108 676.505715,125.776027 C676.505715,127.440778 676.505715,128.273154 676.505715,129.862235 C676.505715,130.69461 677.338091,130.69461 678.170467,130.69461 C682.256675,120.857443 682.256675,110.11223 683.08905,99.4426867 C683.08905,98.610311 683.921426,96.9455596 684.753802,96.1888544 C689.672385,92.8593516 691.337137,87.940768 696.25572,84.6869357 C706.168558,79.7683521 720.091933,79.7683521 725.918563,89.6055194 C731.669523,97.8536058 734.999025,106.858397 736.588106,115.93886 C739.085233,131.602657 744.003817,146.358408 750.587152,160.357453 C754.67336,157.027951 753.916655,151.276991 754.67336,147.190783 C758.759568,128.273154 757.170487,110.944605 762.089071,92.8593516 C762.921446,87.1083923 762.921446,81.357433 765.418573,75.6064736 C769.504781,69.0231386 774.499036,61.6074279 783.503827,63.2721792 C786.757659,64.1045549 790.087162,65.7693063 793.416665,67.3583872 C797.502873,69.0231386 797.502873,76.4388493 800,80.5250573 C797.502873,81.357433 798.335249,84.6112652 798.335249,86.2760166 C796.746168,96.1888544 796.746168,106.858397 794.249041,116.695565 C793.416665,120.025067 791.751914,123.2789 791.751914,126.608403 C789.254786,135.688865 788.422411,144.693656 791.751914,153.774118 C793.416665,159.525078 795.005746,165.276037 795.838122,171.859372 C795.838122,184.193666 796.670497,195.695585 796.670497,208.10555 C795.838122,211.359382 798.335249,215.521261 797.502873,218.775093 C795.838122,223.693677 796.670497,227.855555 795.005746,232.774139 C793.340994,240.189849 790.919538,248.437936 790.087162,255.853647 C788.422411,270.685068 785.168579,284.684114 779.417619,297.850784 C778.585244,299.515535 776.920492,300.347911 775.331411,301.104616 C770.412828,301.936992 765.494244,301.936992 760.49999,301.104616 C753.084279,299.439865 750.662823,293.688905 748.165695,287.937946 C746.500944,282.186987 746.500944,275.603652 744.836193,269.852692 C741.58236,261.604606 736.588106,254.264566 734.16665,246.016479 C731.669523,236.103642 730.080442,226.266474 727.583315,216.353636 C726.750939,212.267428 725.918563,205.684093 721.832355,204.851718 C718.578523,204.019342 719.335228,210.602677 718.578523,213.099804 C715.24902,227.931226 720.243274,242.762647 716.081396,257.518398 C714.416645,264.101733 710.330437,269.852692 704.579477,273.9389 C698.828518,277.268403 692.245183,279.68986 685.661848,281.354611 C674.992305,283.019362 666.744218,270.685068 664.247091,261.604606 C658.496132,264.101733 655.999005,269.852692 650.248046,272.274149 C646.161838,273.106525 642.832335,273.9389 638.746127,274.771276 C627.244208,275.603652 615.666619,274.771276 604.997076,268.187941 C599.246117,264.934109 595.084238,259.939855 590.99803,255.021271 C590.165655,255.853647 589.333279,255.853647 589.333279,256.686022 C588.500903,269.020317 593.495157,280.522235 590.165655,292.85653 C589.333279,296.942738 585.247071,300.27224 581.917568,303.526073 C575.334233,308.444656 567.086147,307.612281 558.83806,308.444656 C552.254725,310.109408 546.503766,305.947529 543.174263,301.861321 C539.84476,298.607489 539.84476,293.613235 539.088055,289.527027 C539.088055,284.608443 540.752807,279.614189 539.920431,274.695606 C537.423304,263.193687 543.249934,252.448473 543.249934,240.946555 C535.001847,236.860347 525.997056,238.449428 516.916594,236.860347 C515.251842,236.860347 512.830386,237.692722 512.830386,238.525098 C509.500883,244.276057 511.165634,250.027017 510.333259,256.610352 C509.500883,257.442727 508.668507,259.107479 508.668507,259.939855 C507.836131,269.852692 502.917548,278.025108 494.669461,283.019362 C492.172334,284.684114 488.918502,283.851738 486.421375,285.51649 C482.335167,286.348865 478.173289,285.51649 474.087081,284.684114 C460.088035,283.019362 446.921365,280.597906 432.922319,279.76553 C428.836111,278.933154 424.674233,278.100779 420.588025,278.933154 C415.669441,279.76553 410.675187,278.100779 406.588979,276.436027 C400.838019,273.106525 401.670395,265.766484 400.005644,259.939855 C389.336101,261.604606 380.255639,264.858438 369.586096,268.187941 C365.499888,269.020317 362.170385,265.690814 358.916553,266.52319 C356.419426,266.52319 353.997969,268.187941 351.500842,267.355565 C339.166548,267.355565 326.832253,269.020317 315.254664,272.274149 C309.503705,274.771276 304.585121,270.609398 302.92037,267.355565 C302.087994,265.690814 299.590867,262.436982 302.087994,259.939855 C301.255618,259.107479 301.255618,256.686022 299.590867,257.442727 C294.672283,260.77223 292.175156,264.858438 288.088948,268.944646 C282.337989,273.86323 274.922278,276.360357 268.338943,278.857484 C260.923232,282.943692 252.675146,281.354611 244.50273,282.943692 C237.919395,282.943692 231.33606,280.446565 225.585101,282.943692 C222.331268,283.776068 219.001766,282.943692 215.747933,283.776068 C209.996974,285.440819 203.413639,285.440819 200.084136,280.446565 C196.830304,277.117062 196.830304,271.366103 196.830304,266.447519 C195.997928,261.528935 197.66268,256.610352 195.997928,252.448473 C195.165553,247.52989 199.251761,241.77893 195.165553,239.281803 C192.668425,237.617052 188.582218,239.281803 185.328385,240.114179 C177.080299,241.77893 170.496964,239.281803 162.248877,237.617052 C156.497918,235.9523 149.082207,235.119925 145.828375,239.281803 C143.331248,241.77893 149.914583,246.697514 150.746959,250.783722 C152.41171,254.113225 152.41171,258.199433 151.579334,262.285641 C150.746959,263.118016 149.914583,264.782768 149.914583,265.615143 C149.082207,268.944646 148.249832,272.198478 146.660751,274.695606 C140.077416,281.278941 130.164578,285.365148 121.159786,282.943692 C114.576451,280.446565 108.825492,275.527981 104.663613,269.777022 C96.4155271,255.777976 88.9998163,241.77893 81.6597761,226.947509 C79.9950247,223.693677 79.162649,218.699422 75.0764411,216.277966 C75.0764411,216.277966 73.4116897,217.110342 73.4116897,217.942717 C72.579314,232.774139 79.162649,245.940809 76.665522,260.77223 C75.8331463,263.269357 74.1683949,265.690814 73.4116897,269.020317 C70.9145626,273.9389 66.8283547,278.100779 61.909771,279.68986 C50.4078523,282.186987 37.2411823,277.192733 33.0793038,268.187941 C31.4145524,263.269357 33.9116795,256.686022 33.0793038,250.935063 C32.2469281,245.184104 34.7440552,239.433144 33.9116795,233.682185 C31.4145524,222.180266 31.4145524,211.435053 29.8254715,199.933134 C28.9930958,191.685048 27.3283445,183.436961 26.5716393,175.264545 C24.0745122,157.179292 23.2421365,139.850743 19.9883042,120.933114 C18.3235529,115.182154 19.9883042,110.263571 19.9883042,104.436941 C19.1559286,102.772189 18.3235529,100.350733 16.734472,99.5183572 C12.648264,99.5183572 8.48638556,101.183109 4.40017761,98.6859815 C1.90305053,97.0212301 1.90305053,93.7673979 1.14634535,91.2702708 C0.31396966,85.5193114 4.40017761,79.7683521 3.64347244,74.0173928 C2.88676726,70.7635605 -1.27511121,67.4340577 0.389640178,64.1802255 C2.05439157,58.4292661 5.30822382,53.5106825 10.2268075,50.1811797 C20.3666568,43.2951626 31.1118703,38.3009084 41.7814133,34.2147005 C47.5323727,31.7175734 54.1157077,30.1284925 59.866667,29.2961168 C63.952875,29.2961168 68.1147535,30.1284925 73.0333371,29.2961168 C81.2814235,28.4637411 89.5295099,31.7932439 93.6157179,38.3765789 C101.031429,49.8784976 105.117637,61.3804163 110.868596,72.9580055 C114.198099,81.2060919 112.533347,89.3785078 114.954804,98.4589699 C115.78718,105.874681 115.78718,112.458016 113.290052,119.041351 C111.625301,121.538478 109.203845,123.127559 109.203845,125.624686 C107.539093,129.710894 106.706717,134.705148 103.452885,137.95898 C103.452885,138.791356 103.452885,140.456107 103.452885,141.212812 C101.788134,145.29902 96.0371745,148.628523 97.7019259,153.547107 C103.452885,165.881401 110.868596,176.626615 119.116682,187.296158 C124.035266,165.049025 119.116682,142.045188 122.446185,118.96568 C123.278561,114.047097 123.278561,108.296137 124.943312,103.301883 C127.440439,95.8861723 127.440439,87.6380859 126.608064,80.2223752 C124.110937,68.7204565 125.775688,53.0566594 136.520901,47.3057 C137.353277,48.9704514 139.018028,50.5595323 139.850404,50.5595323 C142.271861,49.7271566 143.936612,49.7271566 146.433739,49.7271566 C158.768034,51.391908 171.102328,56.3104916 184.268998,53.8133645 C191.684709,52.9809888 199.100419,51.3162375 205.683755,54.6457402 C215.596592,59.5643239 218.018049,74.3957453 213.931841,85.0652883 C210.602338,93.3133747 201.597547,97.3995827 192.517084,97.3995827 C182.604247,96.567207 169.513247,90.8162477 162.097536,98.2319584 C162.097536,99.0643341 162.097536,101.485791 162.097536,103.150542 C162.097536,108.901501 160.432785,114.652461 161.265161,120.40342 C162.097536,121.235796 161.265161,122.900547 162.929912,122.900547 C171.177998,124.565299 178.593709,122.900547 186.766125,122.900547 C192.517084,122.900547 198.268044,123.732923 204.019003,122.900547 C204.019003,122.900547 206.51613,123.732923 206.51613,122.068171 C206.51613,114.652461 206.51613,108.069126 210.602338,101.485791 C210.602338,101.485791 213.099465,99.8210393 213.931841,99.8210393 C225.43376,100.653415 236.935678,100.653415 249.345643,103.150542 C257.59373,104.815293 265.00944,108.901501 269.928024,116.317212 C274.846608,124.565299 281.429943,131.981009 284.759445,140.985801 C286.424197,145.904385 287.256573,150.822968 286.424197,155.817222 C285.591821,164.065309 279.840862,169.816268 273.257527,174.734852 C277.949099,183.20995 288.694312,185.631406 294.445272,193.879493 Z M575.939597,65.4666243 C573.44247,61.3804163 570.188638,60.5480406 566.026759,60.5480406 C556.946297,59.7156649 545.444379,61.3804163 543.022922,70.4608784 C541.358171,81.1304214 541.358171,92.7080106 545.520049,102.545178 C546.352425,104.209929 548.849552,106.631386 550.438633,108.296137 C556.189592,111.549969 561.940552,114.047097 568.523887,113.214721 C573.44247,112.382345 577.604349,109.128513 580.858181,104.966634 C584.112013,100.048051 584.112013,95.0537967 586.60914,90.135213 C586.60914,88.4704616 587.517186,85.897664 585.776765,84.3842537 C580.025805,79.46567 579.19343,72.0499593 575.939597,65.4666243 L575.939597,65.4666243 Z M487.859115,337.880488 C511.695328,333.79428 534.774836,329.632401 558.611049,328.800026 C561.108176,328.800026 563.529632,327.135274 565.194384,327.96765 C590.695348,328.800026 617.028688,325.470523 642.529653,327.135274 C647.448236,327.135274 652.36682,328.800026 657.361074,329.632401 C671.36012,329.632401 684.52679,328.800026 698.525836,327.96765 C701.022963,327.96765 705.109171,328.800026 706.773922,330.464777 C712.524882,337.880488 719.108217,342.799071 728.188679,341.966696 C744.609181,341.966696 761.105354,341.966696 777.601527,343.631447 C784.184862,344.463823 792.432948,347.717655 795.68678,341.966696 C800.605364,333.718609 793.189653,324.713818 785.017238,323.049066 C769.35344,320.551939 754.522019,318.130483 739.766268,318.962858 C701.931009,319.795234 663.263375,318.962858 625.352445,317.298107 C607.267192,316.465731 589.106267,317.298107 571.021014,315.633356 C538.936714,312.303853 507.60912,316.465731 476.357196,309.050021 C415.442429,308.217645 354.527663,309.050021 293.612896,312.379523 C259.031469,314.044275 225.282419,314.87665 189.944287,319.795234 C186.690455,320.62761 182.528576,319.795234 178.442368,320.62761 C175.945241,321.459985 172.691409,321.459985 170.194282,321.459985 C143.028566,322.292361 115.86285,324.713818 87.8647586,328.04332 C76.3628399,329.708072 65.6176264,328.875696 54.1157077,331.372823 C45.8676213,332.205199 37.6195349,336.291407 32.7009512,342.874742 C30.2038241,345.371869 33.5333269,349.458077 32.7009512,352.78758 C31.8685755,354.452331 29.4471189,356.873788 28.6147433,358.538539 C26.9499919,363.457123 31.1118703,368.451377 31.1118703,373.369961 C31.1118703,376.699463 30.2794946,379.12092 31.1118703,382.450423 C31.944246,384.94755 35.1980783,386.612301 36.8628297,385.779925 C45.1109161,385.779925 53.3590025,385.779925 61.5314184,383.282798 C80.4490478,378.364215 98.5343015,375.867088 117.527601,372.613255 C128.197144,370.116128 138.942358,370.948504 149.611901,368.527047 C152.109028,367.694672 155.36286,367.694672 157.859987,367.694672 C194.106165,365.197545 229.444297,362.776088 265.690475,360.278961 C297.774774,357.781834 328.269993,353.695626 360.354293,348.777042 C395.768095,343.858459 429.592816,344.0098 464.022902,340.528956 C472.195318,339.545239 479.611028,338.712863 487.859115,337.880488 L487.859115,337.880488 Z M77.1952156,74.5470864 C75.5304642,71.2932541 71.4442562,71.2932541 68.9471292,68.796127 C68.1147535,68.796127 66.4500021,68.796127 65.6932969,68.796127 C60.7747132,71.2932541 57.4452105,74.5470864 52.5266268,76.2118378 C53.3590025,88.5461321 56.6128348,100.880427 59.1099619,113.214721 C64.0285455,113.214721 65.6932969,109.128513 69.7795048,107.463762 C75.5304642,104.209929 75.5304642,96.7942186 77.1952156,90.9675887 C78.0275913,90.135213 78.859967,88.4704616 79.6923427,87.7137564 C80.5247184,85.2166294 79.5410016,82.4168202 78.0275913,79.46567 C77.1952156,77.8009186 77.1952156,76.2118378 77.1952156,74.5470864 Z M200.61383,164.21665 C189.111911,166.713777 178.366698,174.886193 166.864779,169.135233 C156.951941,164.21665 156.195236,177.38332 158.616693,184.799031 C166.864779,183.134279 175.112865,184.799031 184.117657,182.301903 C190.700992,181.469528 195.619576,185.555736 200.61383,188.052863 C200.61383,184.799031 200.61383,182.301903 200.61383,178.972401 C200.61383,174.129488 200.61383,169.210904 200.61383,164.21665 L200.61383,164.21665 Z M252.448134,137.050934 C249.194302,137.050934 245.032424,135.386183 244.200048,137.050934 C241.702921,141.969518 245.864799,147.720477 245.032424,152.714731 C249.951007,151.882355 259.18281,151.731014 257.366718,144.466645 C256.610013,141.212812 255.777637,137.050934 252.448134,137.050934 L252.448134,137.050934 Z M264.782429,213.629498 C260.696221,207.046163 249.118632,204.549036 245.864799,211.964746 C242.610967,219.380457 244.200048,230.05 243.367672,239.130462 C249.118632,239.962838 250.253689,234.43889 254.037215,231.714751 C259.863845,227.628544 268.944307,221.877584 264.782429,213.629498 Z M640.940572,146.131396 C640.108196,142.045188 636.854364,131.299975 633.524861,133.797102 C626.941526,138.715685 622.022943,147.796147 622.022943,156.044234 C621.190567,160.130442 622.022943,165.124696 622.022943,169.210904 C622.855318,177.45899 622.022943,185.707077 624.52007,193.047117 C625.352445,194.711868 626.184821,197.965701 627.849572,199.630452 C627.849572,201.295203 628.681948,203.71666 628.681948,205.381411 C630.346699,208.710914 632.768156,212.797122 636.097659,215.294249 C639.427162,211.208041 641.848618,207.046163 642.680994,202.959955 C645.178121,193.879493 641.016242,184.874701 641.016242,175.794239 C640.940572,165.881401 642.605323,156.044234 640.940572,146.131396 L640.940572,146.131396 Z" id="path48"></path>
                </g>
            </g>
        </g>
    </g>
</svg>