<?xml version="1.0" encoding="UTF-8"?>
<svg width="800px" height="400px" viewBox="0 0 800 400" version="1.1" xmlns="http://www.w3.org/2000/svg" xmlns:xlink="http://www.w3.org/1999/xlink">
    <title>romhackingnet</title>
    <g id="Page-1" stroke="none" stroke-width="1" fill="none" fill-rule="evenodd">
        <g id="AF150_INCREMENTAL" fill="#000000" transform="translate(-0.000000, 0.000000)">
            <g id="romhackingnet" transform="translate(0.000000, 0.000000)">
                <line x1="0" y1="0" x2="800" y2="400" id="Path" fill-rule="nonzero"></line>
                <path d="M-4.61852778e-14,189.803922 L-4.61852778e-14,223.529412 L5.49019608,223.529412 L10.9803922,223.529412 L10.9803922,195.294118 L10.9803922,167.058824 L29.8039216,167.058824 L48.627451,167.058824 L48.627451,181.176471 L48.627451,195.294118 L34.5098039,195.294118 L20.3921569,195.294118 L20.3921569,200 L20.3921569,204.705882 L34.5098039,204.705882 L48.627451,204.705882 L48.627451,214.117647 L48.627451,223.529412 L53.3333333,223.529412 L58.0392157,223.529412 L58.0392157,214.117647 L58.0392157,204.705882 L53.3333333,204.705882 C49.1498039,204.705882 48.627451,204.183529 48.627451,200 C48.627451,195.816471 49.1498039,195.294118 53.3333333,195.294118 L58.0392157,195.294118 L58.0392157,181.176471 L58.0392157,167.058824 L53.3333333,167.058824 C49.0007843,167.058824 48.627451,166.622745 48.627451,161.568627 L48.627451,156.078431 L24.3137255,156.078431 L-4.61852778e-14,156.078431 L-4.61852778e-14,189.803922 M76.8627451,161.568627 C76.8627451,166.622745 76.4894118,167.058824 72.1568627,167.058824 L67.4509804,167.058824 L67.4509804,190.588235 L67.4509804,214.117647 L72.1568627,214.117647 C76.3403922,214.117647 76.8627451,214.64 76.8627451,218.823529 L76.8627451,223.529412 L95.6862745,223.529412 L114.509804,223.529412 L114.509804,218.823529 C114.509804,214.64 115.032157,214.117647 119.215686,214.117647 L123.921569,214.117647 L123.921569,190.588235 L123.921569,167.058824 L119.215686,167.058824 C114.883137,167.058824 114.509804,166.622745 114.509804,161.568627 L114.509804,156.078431 L95.6862745,156.078431 L76.8627451,156.078431 L76.8627451,161.568627 M142.745098,161.568627 C142.745098,166.622745 142.371765,167.058824 138.039216,167.058824 L133.333333,167.058824 L133.333333,195.294118 L133.333333,223.529412 L138.039216,223.529412 L142.745098,223.529412 L142.745098,195.294118 L142.745098,167.058824 L152.156863,167.058824 L161.568627,167.058824 L161.568627,195.294118 L161.568627,223.529412 L166.27451,223.529412 L170.980392,223.529412 L170.980392,195.294118 L170.980392,167.058824 L180.392157,167.058824 L189.803922,167.058824 L189.803922,195.294118 L189.803922,223.529412 L194.509804,223.529412 L199.215686,223.529412 L199.215686,195.294118 L199.215686,167.058824 L194.509804,167.058824 C190.177255,167.058824 189.803922,166.622745 189.803922,161.568627 L189.803922,156.078431 L180.392157,156.078431 L170.980392,156.078431 L170.980392,161.568627 C170.980392,166.622745 170.607059,167.058824 166.27451,167.058824 C161.941961,167.058824 161.568627,166.622745 161.568627,161.568627 L161.568627,156.078431 L152.156863,156.078431 L142.745098,156.078431 L142.745098,161.568627 M208.627451,189.803922 L208.627451,223.529412 L213.333333,223.529412 L218.039216,223.529412 L218.039216,204.705882 L218.039216,185.882353 L236.862745,185.882353 L255.686275,185.882353 L255.686275,204.705882 L255.686275,223.529412 L260.392157,223.529412 L265.098039,223.529412 L265.098039,204.705882 L265.098039,185.882353 L260.392157,185.882353 C256.208627,185.882353 255.686275,185.36 255.686275,181.176471 L255.686275,176.470588 L236.862745,176.470588 L218.039216,176.470588 L218.039216,166.27451 L218.039216,156.078431 L213.333333,156.078431 L208.627451,156.078431 L208.627451,189.803922 M396.862745,189.803922 L396.862745,223.529412 L401.568627,223.529412 L406.27451,223.529412 L406.27451,214.117647 L406.27451,204.705882 L415.686275,204.705882 L425.098039,204.705882 L425.098039,209.411765 C425.098039,213.595294 425.620392,214.117647 429.803922,214.117647 C433.987451,214.117647 434.509804,214.64 434.509804,218.823529 C434.509804,223.007059 435.032157,223.529412 439.215686,223.529412 C443.399216,223.529412 443.921569,223.007059 443.921569,218.823529 C443.921569,214.64 443.399216,214.117647 439.215686,214.117647 C435.032157,214.117647 434.509804,213.595294 434.509804,209.411765 C434.509804,205.228235 433.987451,204.705882 429.803922,204.705882 C425.620392,204.705882 425.098039,204.183529 425.098039,200 C425.098039,195.816471 425.620392,195.294118 429.803922,195.294118 C433.987451,195.294118 434.509804,194.771765 434.509804,190.588235 C434.509804,186.404706 435.032157,185.882353 439.215686,185.882353 C443.399216,185.882353 443.921569,185.36 443.921569,181.176471 C443.921569,176.992941 443.399216,176.470588 439.215686,176.470588 C435.032157,176.470588 434.509804,176.992941 434.509804,181.176471 C434.509804,185.36 433.987451,185.882353 429.803922,185.882353 C425.620392,185.882353 425.098039,186.404706 425.098039,190.588235 L425.098039,195.294118 L415.686275,195.294118 L406.27451,195.294118 L406.27451,175.686275 L406.27451,156.078431 L401.568627,156.078431 L396.862745,156.078431 L396.862745,189.803922 M773.333333,166.27451 L773.333333,176.470588 L763.921569,176.470588 L754.509804,176.470588 L754.509804,181.176471 L754.509804,185.882353 L763.921569,185.882353 L773.333333,185.882353 L773.333333,204.705882 L773.333333,223.529412 L778.039216,223.529412 L782.745098,223.529412 L782.745098,204.705882 L782.745098,185.882353 L791.372549,185.882353 C799.912157,185.882353 800,185.835294 800,181.176471 C800,176.517647 799.912157,176.470588 791.372549,176.470588 L782.745098,176.470588 L782.745098,166.27451 L782.745098,156.078431 L778.039216,156.078431 L773.333333,156.078431 L773.333333,166.27451 M76.8627451,190.588235 L76.8627451,214.117647 L95.6862745,214.117647 L114.509804,214.117647 L114.509804,190.588235 L114.509804,167.058824 L95.6862745,167.058824 L76.8627451,167.058824 L76.8627451,190.588235 M453.333333,171.764706 C453.333333,175.948235 453.855686,176.470588 458.039216,176.470588 C462.222745,176.470588 462.745098,175.948235 462.745098,171.764706 C462.745098,167.581176 462.222745,167.058824 458.039216,167.058824 C453.855686,167.058824 453.333333,167.581176 453.333333,171.764706 M283.921569,181.176471 L283.921569,185.882353 L302.745098,185.882353 L321.568627,185.882353 L321.568627,190.588235 L321.568627,195.294118 L302.745098,195.294118 L283.921569,195.294118 L283.921569,200 C283.921569,204.183529 283.399216,204.705882 279.215686,204.705882 C275.032157,204.705882 274.509804,205.228235 274.509804,209.411765 C274.509804,213.595294 275.032157,214.117647 279.215686,214.117647 C283.399216,214.117647 283.921569,214.64 283.921569,218.823529 L283.921569,223.529412 L307.45098,223.529412 L330.980392,223.529412 L330.980392,204.705882 L330.980392,185.882353 L326.27451,185.882353 C322.09098,185.882353 321.568627,185.36 321.568627,181.176471 L321.568627,176.470588 L302.745098,176.470588 L283.921569,176.470588 L283.921569,181.176471 M349.803922,181.176471 C349.803922,185.36 349.281569,185.882353 345.098039,185.882353 L340.392157,185.882353 L340.392157,200 L340.392157,214.117647 L345.098039,214.117647 C349.281569,214.117647 349.803922,214.64 349.803922,218.823529 L349.803922,223.529412 L368.627451,223.529412 L387.45098,223.529412 L387.45098,218.823529 L387.45098,214.117647 L368.627451,214.117647 L349.803922,214.117647 L349.803922,200 L349.803922,185.882353 L368.627451,185.882353 L387.45098,185.882353 L387.45098,181.176471 L387.45098,176.470588 L368.627451,176.470588 L349.803922,176.470588 L349.803922,181.176471 M481.568627,181.176471 C481.568627,185.36 481.046275,185.882353 476.862745,185.882353 L472.156863,185.882353 L472.156863,204.705882 L472.156863,223.529412 L476.862745,223.529412 L481.568627,223.529412 L481.568627,204.705882 L481.568627,185.882353 L500.392157,185.882353 L519.215686,185.882353 L519.215686,204.705882 L519.215686,223.529412 L523.921569,223.529412 L528.627451,223.529412 L528.627451,204.705882 L528.627451,185.882353 L523.921569,185.882353 C519.738039,185.882353 519.215686,185.36 519.215686,181.176471 L519.215686,176.470588 L500.392157,176.470588 L481.568627,176.470588 L481.568627,181.176471 M547.45098,181.176471 C547.45098,185.36 546.928627,185.882353 542.745098,185.882353 L538.039216,185.882353 L538.039216,200 L538.039216,214.117647 L542.745098,214.117647 C546.928627,214.117647 547.45098,214.64 547.45098,218.823529 L547.45098,223.529412 L566.27451,223.529412 L585.098039,223.529412 L585.098039,228.235294 L585.098039,232.941176 L566.27451,232.941176 L547.45098,232.941176 L547.45098,238.431373 L547.45098,243.921569 L566.27451,243.921569 L585.098039,243.921569 L585.098039,238.431373 C585.098039,233.377255 585.471373,232.941176 589.803922,232.941176 L594.509804,232.941176 L594.509804,204.705882 L594.509804,176.470588 L570.980392,176.470588 L547.45098,176.470588 L547.45098,181.176471 M632.156863,181.176471 C632.156863,185.36 631.63451,185.882353 627.45098,185.882353 L622.745098,185.882353 L622.745098,204.705882 L622.745098,223.529412 L627.45098,223.529412 L632.156863,223.529412 L632.156863,204.705882 L632.156863,185.882353 L650.980392,185.882353 L669.803922,185.882353 L669.803922,204.705882 L669.803922,223.529412 L674.509804,223.529412 L679.215686,223.529412 L679.215686,204.705882 L679.215686,185.882353 L674.509804,185.882353 C670.326275,185.882353 669.803922,185.36 669.803922,181.176471 L669.803922,176.470588 L650.980392,176.470588 L632.156863,176.470588 L632.156863,181.176471 M698.039216,181.176471 C698.039216,185.36 697.516863,185.882353 693.333333,185.882353 L688.627451,185.882353 L688.627451,200 L688.627451,214.117647 L693.333333,214.117647 C697.516863,214.117647 698.039216,214.64 698.039216,218.823529 L698.039216,223.529412 L721.568627,223.529412 L745.098039,223.529412 L745.098039,218.823529 L745.098039,214.117647 L721.568627,214.117647 L698.039216,214.117647 L698.039216,209.411765 L698.039216,204.705882 L721.568627,204.705882 L745.098039,204.705882 L745.098039,195.294118 L745.098039,185.882353 L740.392157,185.882353 C736.208627,185.882353 735.686275,185.36 735.686275,181.176471 L735.686275,176.470588 L716.862745,176.470588 L698.039216,176.470588 L698.039216,181.176471 M453.333333,204.705882 L453.333333,223.529412 L458.039216,223.529412 L462.745098,223.529412 L462.745098,204.705882 L462.745098,185.882353 L458.039216,185.882353 L453.333333,185.882353 L453.333333,204.705882 M547.45098,200 L547.45098,214.117647 L566.27451,214.117647 L585.098039,214.117647 L585.098039,200 L585.098039,185.882353 L566.27451,185.882353 L547.45098,185.882353 L547.45098,200 M698.039216,190.588235 L698.039216,195.294118 L716.862745,195.294118 L735.686275,195.294118 L735.686275,190.588235 L735.686275,185.882353 L716.862745,185.882353 L698.039216,185.882353 L698.039216,190.588235 M283.921569,209.411765 L283.921569,214.117647 L302.745098,214.117647 L321.568627,214.117647 L321.568627,209.411765 L321.568627,204.705882 L302.745098,204.705882 L283.921569,204.705882 L283.921569,209.411765 M603.921569,218.823529 C603.921569,223.007059 604.443922,223.529412 608.627451,223.529412 C612.81098,223.529412 613.333333,223.007059 613.333333,218.823529 C613.333333,214.64 612.81098,214.117647 608.627451,214.117647 C604.443922,214.117647 603.921569,214.64 603.921569,218.823529 M-5.68434189e-14,238.431373 L-5.68434189e-14,243.921569 L269.019608,243.921569 L538.039216,243.921569 L538.039216,238.431373 L538.039216,232.941176 L269.019608,232.941176 L-5.68434189e-14,232.941176 L-5.68434189e-14,238.431373 M603.921569,238.431373 L603.921569,243.921569 L701.960784,243.921569 L800,243.921569 L800,238.431373 L800,232.941176 L701.960784,232.941176 L603.921569,232.941176 L603.921569,238.431373" id="Shape"></path>
            </g>
        </g>
    </g>
</svg>