<?xml version="1.0" encoding="UTF-8"?>
<svg width="800px" height="400px" viewBox="0 0 800 400" version="1.1" xmlns="http://www.w3.org/2000/svg" xmlns:xlink="http://www.w3.org/1999/xlink">
    <title>romhack</title>
    <g id="Page-1" stroke="none" stroke-width="1" fill="none" fill-rule="evenodd">
        <g id="Manufacturer" fill="#000000" fill-rule="nonzero">
            <g id="AF150_INCREMENTAL" transform="translate(-0.000000, 0.000000)">
                <g id="romhack" transform="translate(0.000000, 0.000000)">
                    <line x1="0" y1="0" x2="800" y2="400" id="Path"></line>
                    <path d="M147.395406,175.884105 L147.395406,190.490857 L132.862425,190.490857 L132.862425,175.884105 L147.395406,175.884105 Z M132.862425,175.884105 L132.862425,161.424896 L147.395406,161.424896 L147.395406,175.884105 L132.862425,175.884105 Z M132.862425,161.424896 L132.862425,146.59683 L147.395406,146.59683 L147.395406,161.424896 L132.862425,161.424896 Z M132.862425,146.59683 L132.862425,131.842535 L147.395406,131.842535 L147.395406,146.59683 L132.862425,146.59683 Z M132.862425,131.842535 L132.862425,117.014468 L147.395406,117.014468 L147.395406,131.842535 L132.862425,131.842535 Z M132.862425,117.014468 L132.862425,102.260174 L147.395406,102.260174 L147.395406,117.014468 L132.862425,117.014468 Z M132.862425,102.260174 L132.862425,87.4321072 L147.395406,87.4321072 L147.395406,102.260174 L132.862425,102.260174 Z M132.862425,87.4321072 L132.862425,72.6040408 L147.395406,72.6040408 L147.395406,87.4321072 L132.862425,87.4321072 Z M132.862425,175.884105 L132.862425,190.490857 L118.108131,190.490857 L118.108131,175.884105 L132.862425,175.884105 Z M118.108131,175.884105 L118.108131,161.424896 L132.862425,161.424896 L132.862425,175.884105 L118.108131,175.884105 Z M118.108131,161.424896 L118.108131,146.59683 L132.862425,146.59683 L132.862425,161.424896 L118.108131,161.424896 Z M118.108131,146.59683 L118.108131,131.842535 L132.862425,131.842535 L132.862425,146.59683 L118.108131,146.59683 Z M118.108131,131.842535 L118.108131,117.014468 L132.862425,117.014468 L132.862425,131.842535 L118.108131,131.842535 Z M118.108131,117.014468 L118.108131,102.260174 L132.862425,102.260174 L132.862425,117.014468 L118.108131,117.014468 Z M118.108131,102.260174 L118.108131,87.4321072 L132.862425,87.4321072 L132.862425,102.260174 L118.108131,102.260174 Z M118.108131,87.4321072 L118.108131,72.6040408 L132.862425,72.6040408 L132.862425,87.4321072 L118.108131,87.4321072 Z M118.108131,72.6040408 L118.108131,58.1448318 L132.862425,58.1448318 L132.862425,72.6040408 L118.108131,72.6040408 Z M103.280064,58.1448318 L103.280064,43.3167655 L118.108131,43.3167655 L118.108131,58.1448318 L103.280064,58.1448318 Z M118.108131,175.884105 L118.108131,190.490857 L103.280064,190.490857 L103.280064,175.884105 L118.108131,175.884105 Z M103.280064,175.884105 L103.280064,161.424896 L118.108131,161.424896 L118.108131,175.884105 L103.280064,175.884105 Z M103.280064,117.014468 L103.280064,102.260174 L118.108131,102.260174 L118.108131,117.014468 L103.280064,117.014468 Z M103.280064,72.6040408 L103.280064,58.1448318 L118.108131,58.1448318 L118.108131,72.6040408 L103.280064,72.6040408 Z M88.5257693,58.1448318 L88.5257693,43.3167655 L103.280064,43.3167655 L103.280064,58.1448318 L88.5257693,58.1448318 Z M103.280064,175.884105 L103.280064,190.490857 L88.5257693,190.490857 L88.5257693,175.884105 L103.280064,175.884105 Z M88.5257693,175.884105 L88.5257693,161.424896 L103.280064,161.424896 L103.280064,175.884105 L88.5257693,175.884105 Z M73.6977029,58.1448318 L73.6977029,43.3167655 L88.5257693,43.3167655 L88.5257693,58.1448318 L73.6977029,58.1448318 Z M73.6977029,175.884105 L73.6977029,161.424896 L88.5257693,161.424896 L88.5257693,175.884105 L73.6977029,175.884105 Z M73.6977029,161.424896 L73.6977029,146.59683 L88.5257693,146.59683 L88.5257693,161.424896 L73.6977029,161.424896 Z M73.6977029,146.59683 L73.6977029,131.842535 L88.5257693,131.842535 L88.5257693,146.59683 L73.6977029,146.59683 Z M73.6977029,131.842535 L73.6977029,117.014468 L88.5257693,117.014468 L88.5257693,131.842535 L73.6977029,131.842535 Z M73.6977029,102.260174 L73.6977029,87.4321072 L88.5257693,87.4321072 L88.5257693,102.260174 L73.6977029,102.260174 Z M73.6977029,87.4321072 L73.6977029,72.6040408 L88.5257693,72.6040408 L88.5257693,87.4321072 L73.6977029,87.4321072 Z M58.8696366,58.1448318 L58.8696366,43.3167655 L73.6977029,43.3167655 L73.6977029,58.1448318 L58.8696366,58.1448318 Z M73.6977029,175.884105 L73.6977029,190.490857 L58.8696366,190.490857 L58.8696366,175.884105 L73.6977029,175.884105 Z M58.8696366,175.884105 L58.8696366,161.424896 L73.6977029,161.424896 L73.6977029,175.884105 L58.8696366,175.884105 Z M58.8696366,161.424896 L58.8696366,146.59683 L73.6977029,146.59683 L73.6977029,161.424896 L58.8696366,161.424896 Z M58.8696366,146.59683 L58.8696366,131.842535 L73.6977029,131.842535 L73.6977029,146.59683 L58.8696366,146.59683 Z M58.8696366,131.842535 L58.8696366,117.014468 L73.6977029,117.014468 L73.6977029,131.842535 L58.8696366,131.842535 Z M58.8696366,102.260174 L58.8696366,87.4321072 L73.6977029,87.4321072 L73.6977029,102.260174 L58.8696366,102.260174 Z M58.8696366,87.4321072 L58.8696366,72.6040408 L73.6977029,72.6040408 L73.6977029,87.4321072 L58.8696366,87.4321072 Z M44.4104276,58.1448318 L44.4104276,43.3167655 L58.8696366,43.3167655 L58.8696366,58.1448318 L44.4104276,58.1448318 Z M58.8696366,175.884105 L58.8696366,190.490857 L44.4104276,190.490857 L44.4104276,175.884105 L58.8696366,175.884105 Z M44.4104276,175.884105 L44.4104276,161.424896 L58.8696366,161.424896 L58.8696366,175.884105 L44.4104276,175.884105 Z M44.4104276,161.424896 L44.4104276,146.59683 L58.8696366,146.59683 L58.8696366,161.424896 L44.4104276,161.424896 Z M44.4104276,146.59683 L44.4104276,131.842535 L58.8696366,131.842535 L58.8696366,146.59683 L44.4104276,146.59683 Z M44.4104276,131.842535 L44.4104276,117.014468 L58.8696366,117.014468 L58.8696366,131.842535 L44.4104276,131.842535 Z M44.4104276,102.260174 L44.4104276,87.4321072 L58.8696366,87.4321072 L58.8696366,102.260174 L44.4104276,102.260174 Z M44.4104276,87.4321072 L44.4104276,72.6040408 L58.8696366,72.6040408 L58.8696366,87.4321072 L44.4104276,87.4321072 Z M29.5823612,58.1448318 L29.5823612,43.3167655 L44.4104276,43.3167655 L44.4104276,58.1448318 L29.5823612,58.1448318 Z M44.4104276,175.884105 L44.4104276,190.490857 L29.5823612,190.490857 L29.5823612,175.884105 L44.4104276,175.884105 Z M29.5823612,175.884105 L29.5823612,161.424896 L44.4104276,161.424896 L44.4104276,175.884105 L29.5823612,175.884105 Z M14.8280664,58.1448318 L14.8280664,43.3167655 L29.5823612,43.3167655 L29.5823612,58.1448318 L14.8280664,58.1448318 Z M29.5823612,175.884105 L29.5823612,190.490857 L14.8280664,190.490857 L14.8280664,175.884105 L29.5823612,175.884105 Z M14.8280664,175.884105 L14.8280664,161.424896 L29.5823612,161.424896 L29.5823612,175.884105 L14.8280664,175.884105 Z M1.11022302e-16,58.1448318 L1.11022302e-16,43.3167655 L14.8280664,43.3167655 L14.8280664,58.1448318 L1.11022302e-16,58.1448318 Z M1.11022302e-16,175.884105 L1.11022302e-16,161.424896 L14.8280664,161.424896 L14.8280664,175.884105 L1.11022302e-16,175.884105 Z M1.11022302e-16,161.424896 L1.11022302e-16,146.59683 L14.8280664,146.59683 L14.8280664,161.424896 L1.11022302e-16,161.424896 Z M1.11022302e-16,146.59683 L1.11022302e-16,131.842535 L14.8280664,131.842535 L14.8280664,146.59683 L1.11022302e-16,146.59683 Z M1.11022302e-16,131.842535 L1.11022302e-16,117.014468 L14.8280664,117.014468 L14.8280664,131.842535 L1.11022302e-16,131.842535 Z M1.11022302e-16,117.014468 L1.11022302e-16,102.260174 L14.8280664,102.260174 L14.8280664,117.014468 L1.11022302e-16,117.014468 Z M1.11022302e-16,102.260174 L1.11022302e-16,87.4321072 L14.8280664,87.4321072 L14.8280664,102.260174 L1.11022302e-16,102.260174 Z M1.11022302e-16,87.4321072 L1.11022302e-16,72.6040408 L14.8280664,72.6040408 L14.8280664,87.4321072 L1.11022302e-16,87.4321072 Z M1.11022302e-16,72.6040408 L1.11022302e-16,58.1448318 L14.8280664,58.1448318 L14.8280664,72.6040408 L1.11022302e-16,72.6040408 Z M295.941647,175.884105 L295.941647,161.424896 L310.474627,161.424896 L310.474627,175.884105 L295.941647,175.884105 Z M295.941647,161.424896 L295.941647,146.59683 L310.474627,146.59683 L310.474627,161.424896 L295.941647,161.424896 Z M295.941647,146.59683 L295.941647,131.842535 L310.474627,131.842535 L310.474627,146.59683 L295.941647,146.59683 Z M295.941647,131.842535 L295.941647,117.014468 L310.474627,117.014468 L310.474627,131.842535 L295.941647,131.842535 Z M295.941647,117.014468 L295.941647,102.260174 L310.474627,102.260174 L310.474627,117.014468 L295.941647,117.014468 Z M295.941647,102.260174 L295.941647,87.4321072 L310.474627,87.4321072 L310.474627,102.260174 L295.941647,102.260174 Z M295.941647,87.4321072 L295.941647,72.6040408 L310.474627,72.6040408 L310.474627,87.4321072 L295.941647,87.4321072 Z M295.941647,175.884105 L295.941647,190.490857 L281.187352,190.490857 L281.187352,175.884105 L295.941647,175.884105 Z M281.187352,175.884105 L281.187352,161.424896 L295.941647,161.424896 L295.941647,175.884105 L281.187352,175.884105 Z M281.187352,161.424896 L281.187352,146.59683 L295.941647,146.59683 L295.941647,161.424896 L281.187352,161.424896 Z M281.187352,146.59683 L281.187352,131.842535 L295.941647,131.842535 L295.941647,146.59683 L281.187352,146.59683 Z M281.187352,131.842535 L281.187352,117.014468 L295.941647,117.014468 L295.941647,131.842535 L281.187352,131.842535 Z M281.187352,117.014468 L281.187352,102.260174 L295.941647,102.260174 L295.941647,117.014468 L281.187352,117.014468 Z M281.187352,102.260174 L281.187352,87.4321072 L295.941647,87.4321072 L295.941647,102.260174 L281.187352,102.260174 Z M281.187352,87.4321072 L281.187352,72.6040408 L295.941647,72.6040408 L295.941647,87.4321072 L281.187352,87.4321072 Z M281.187352,72.6040408 L281.187352,58.1448318 L295.941647,58.1448318 L295.941647,72.6040408 L281.187352,72.6040408 Z M266.359286,58.1448318 L266.359286,43.3167655 L281.187352,43.3167655 L281.187352,58.1448318 L266.359286,58.1448318 Z M281.187352,175.884105 L281.187352,190.490857 L266.359286,190.490857 L266.359286,175.884105 L281.187352,175.884105 Z M266.359286,175.884105 L266.359286,161.424896 L281.187352,161.424896 L281.187352,175.884105 L266.359286,175.884105 Z M266.359286,161.424896 L266.359286,146.59683 L281.187352,146.59683 L281.187352,161.424896 L266.359286,161.424896 Z M266.359286,72.6040408 L266.359286,58.1448318 L281.187352,58.1448318 L281.187352,72.6040408 L266.359286,72.6040408 Z M251.604991,58.1448318 L251.604991,43.3167655 L266.359286,43.3167655 L266.359286,58.1448318 L251.604991,58.1448318 Z M266.359286,175.884105 L266.359286,190.490857 L251.604991,190.490857 L251.604991,175.884105 L266.359286,175.884105 Z M251.604991,175.884105 L251.604991,161.424896 L266.359286,161.424896 L266.359286,175.884105 L251.604991,175.884105 Z M236.776924,58.1448318 L236.776924,43.3167655 L251.604991,43.3167655 L251.604991,58.1448318 L236.776924,58.1448318 Z M251.604991,175.884105 L251.604991,190.490857 L236.776924,190.490857 L236.776924,175.884105 L251.604991,175.884105 Z M236.776924,175.884105 L236.776924,161.424896 L251.604991,161.424896 L251.604991,175.884105 L236.776924,175.884105 Z M236.776924,146.59683 L236.776924,131.842535 L251.604991,131.842535 L251.604991,146.59683 L236.776924,146.59683 Z M236.776924,131.842535 L236.776924,117.014468 L251.604991,117.014468 L251.604991,131.842535 L236.776924,131.842535 Z M236.776924,117.014468 L236.776924,102.260174 L251.604991,102.260174 L251.604991,117.014468 L236.776924,117.014468 Z M236.776924,102.260174 L236.776924,87.4321072 L251.604991,87.4321072 L251.604991,102.260174 L236.776924,102.260174 Z M236.776924,87.4321072 L236.776924,72.6040408 L251.604991,72.6040408 L251.604991,87.4321072 L236.776924,87.4321072 Z M221.948858,58.1448318 L221.948858,43.3167655 L236.776924,43.3167655 L236.776924,58.1448318 L221.948858,58.1448318 Z M236.776924,175.884105 L236.776924,190.490857 L221.948858,190.490857 L221.948858,175.884105 L236.776924,175.884105 Z M221.948858,175.884105 L221.948858,161.424896 L236.776924,161.424896 L236.776924,175.884105 L221.948858,175.884105 Z M221.948858,146.59683 L221.948858,131.842535 L236.776924,131.842535 L236.776924,146.59683 L221.948858,146.59683 Z M221.948858,131.842535 L221.948858,117.014468 L236.776924,117.014468 L236.776924,131.842535 L221.948858,131.842535 Z M221.948858,117.014468 L221.948858,102.260174 L236.776924,102.260174 L236.776924,117.014468 L221.948858,117.014468 Z M221.948858,102.260174 L221.948858,87.4321072 L236.776924,87.4321072 L236.776924,102.260174 L221.948858,102.260174 Z M221.948858,87.4321072 L221.948858,72.6040408 L236.776924,72.6040408 L236.776924,87.4321072 L221.948858,87.4321072 Z M207.489649,58.1448318 L207.489649,43.3167655 L221.948858,43.3167655 L221.948858,58.1448318 L207.489649,58.1448318 Z M221.948858,175.884105 L221.948858,190.490857 L207.489649,190.490857 L207.489649,175.884105 L221.948858,175.884105 Z M207.489649,175.884105 L207.489649,161.424896 L221.948858,161.424896 L221.948858,175.884105 L207.489649,175.884105 Z M207.489649,146.59683 L207.489649,131.842535 L221.948858,131.842535 L221.948858,146.59683 L207.489649,146.59683 Z M207.489649,131.842535 L207.489649,117.014468 L221.948858,117.014468 L221.948858,131.842535 L207.489649,131.842535 Z M207.489649,117.014468 L207.489649,102.260174 L221.948858,102.260174 L221.948858,117.014468 L207.489649,117.014468 Z M207.489649,102.260174 L207.489649,87.4321072 L221.948858,87.4321072 L221.948858,102.260174 L207.489649,102.260174 Z M207.489649,87.4321072 L207.489649,72.6040408 L221.948858,72.6040408 L221.948858,87.4321072 L207.489649,87.4321072 Z M192.661583,58.1448318 L192.661583,43.3167655 L207.489649,43.3167655 L207.489649,58.1448318 L192.661583,58.1448318 Z M207.489649,175.884105 L207.489649,190.490857 L192.661583,190.490857 L192.661583,175.884105 L207.489649,175.884105 Z M192.661583,175.884105 L192.661583,161.424896 L207.489649,161.424896 L207.489649,175.884105 L192.661583,175.884105 Z M177.907288,58.1448318 L177.907288,43.3167655 L192.661583,43.3167655 L192.661583,58.1448318 L177.907288,58.1448318 Z M177.907288,175.884105 L177.907288,161.424896 L192.661583,161.424896 L192.661583,175.884105 L177.907288,175.884105 Z M177.907288,161.424896 L177.907288,146.59683 L192.661583,146.59683 L192.661583,161.424896 L177.907288,161.424896 Z M177.907288,72.6040408 L177.907288,58.1448318 L192.661583,58.1448318 L192.661583,72.6040408 L177.907288,72.6040408 Z M163.079221,161.424896 L163.079221,146.59683 L177.907288,146.59683 L177.907288,161.424896 L163.079221,161.424896 Z M163.079221,146.59683 L163.079221,131.842535 L177.907288,131.842535 L177.907288,146.59683 L163.079221,146.59683 Z M163.079221,131.842535 L163.079221,117.014468 L177.907288,117.014468 L177.907288,131.842535 L163.079221,131.842535 Z M163.079221,117.014468 L163.079221,102.260174 L177.907288,102.260174 L177.907288,117.014468 L163.079221,117.014468 Z M163.079221,102.260174 L163.079221,87.4321072 L177.907288,87.4321072 L177.907288,102.260174 L163.079221,102.260174 Z M163.079221,87.4321072 L163.079221,72.6040408 L177.907288,72.6040408 L177.907288,87.4321072 L163.079221,87.4321072 Z M163.079221,72.6040408 L163.079221,58.1448318 L177.907288,58.1448318 L177.907288,72.6040408 L163.079221,72.6040408 Z M473.553849,175.884105 L473.553849,190.490857 L459.020868,190.490857 L459.020868,175.884105 L473.553849,175.884105 Z M459.020868,175.884105 L459.020868,161.424896 L473.553849,161.424896 L473.553849,175.884105 L459.020868,175.884105 Z M459.020868,161.424896 L459.020868,146.59683 L473.553849,146.59683 L473.553849,161.424896 L459.020868,161.424896 Z M459.020868,146.59683 L459.020868,131.842535 L473.553849,131.842535 L473.553849,146.59683 L459.020868,146.59683 Z M459.020868,131.842535 L459.020868,117.014468 L473.553849,117.014468 L473.553849,131.842535 L459.020868,131.842535 Z M459.020868,117.014468 L459.020868,102.260174 L473.553849,102.260174 L473.553849,117.014468 L459.020868,117.014468 Z M459.020868,102.260174 L459.020868,87.4321072 L473.553849,87.4321072 L473.553849,102.260174 L459.020868,102.260174 Z M459.020868,87.4321072 L459.020868,72.6040408 L473.553849,72.6040408 L473.553849,87.4321072 L459.020868,87.4321072 Z M459.020868,72.6040408 L459.020868,58.1448318 L473.553849,58.1448318 L473.553849,72.6040408 L459.020868,72.6040408 Z M444.266573,58.1448318 L444.266573,43.3167655 L459.020868,43.3167655 L459.020868,58.1448318 L444.266573,58.1448318 Z M459.020868,175.884105 L459.020868,190.490857 L444.266573,190.490857 L444.266573,175.884105 L459.020868,175.884105 Z M444.266573,175.884105 L444.266573,161.424896 L459.020868,161.424896 L459.020868,175.884105 L444.266573,175.884105 Z M444.266573,161.424896 L444.266573,146.59683 L459.020868,146.59683 L459.020868,161.424896 L444.266573,161.424896 Z M444.266573,146.59683 L444.266573,131.842535 L459.020868,131.842535 L459.020868,146.59683 L444.266573,146.59683 Z M444.266573,131.842535 L444.266573,117.014468 L459.020868,117.014468 L459.020868,131.842535 L444.266573,131.842535 Z M444.266573,117.014468 L444.266573,102.260174 L459.020868,102.260174 L459.020868,117.014468 L444.266573,117.014468 Z M444.266573,102.260174 L444.266573,87.4321072 L459.020868,87.4321072 L459.020868,102.260174 L444.266573,102.260174 Z M444.266573,87.4321072 L444.266573,72.6040408 L459.020868,72.6040408 L459.020868,87.4321072 L444.266573,87.4321072 Z M444.266573,72.6040408 L444.266573,58.1448318 L459.020868,58.1448318 L459.020868,72.6040408 L444.266573,72.6040408 Z M429.438507,58.1448318 L429.438507,43.3167655 L444.266573,43.3167655 L444.266573,58.1448318 L429.438507,58.1448318 Z M444.266573,175.884105 L444.266573,190.490857 L429.438507,190.490857 L429.438507,175.884105 L444.266573,175.884105 Z M429.438507,175.884105 L429.438507,161.424896 L444.266573,161.424896 L444.266573,175.884105 L429.438507,175.884105 Z M414.684212,58.1448318 L414.684212,43.3167655 L429.438507,43.3167655 L429.438507,58.1448318 L414.684212,58.1448318 Z M429.438507,175.884105 L429.438507,190.490857 L414.684212,190.490857 L414.684212,175.884105 L429.438507,175.884105 Z M414.684212,175.884105 L414.684212,161.424896 L429.438507,161.424896 L429.438507,175.884105 L414.684212,175.884105 Z M399.856146,58.1448318 L399.856146,43.3167655 L414.684212,43.3167655 L414.684212,58.1448318 L399.856146,58.1448318 Z M399.856146,175.884105 L399.856146,161.424896 L414.684212,161.424896 L414.684212,175.884105 L399.856146,175.884105 Z M399.856146,161.424896 L399.856146,146.59683 L414.684212,146.59683 L414.684212,161.424896 L399.856146,161.424896 Z M399.856146,146.59683 L399.856146,131.842535 L414.684212,131.842535 L414.684212,146.59683 L399.856146,146.59683 Z M399.856146,131.842535 L399.856146,117.014468 L414.684212,117.014468 L414.684212,131.842535 L399.856146,131.842535 Z M399.856146,117.014468 L399.856146,102.260174 L414.684212,102.260174 L414.684212,117.014468 L399.856146,117.014468 Z M399.856146,72.6040408 L399.856146,58.1448318 L414.684212,58.1448318 L414.684212,72.6040408 L399.856146,72.6040408 Z M399.856146,175.884105 L399.856146,190.490857 L385.028079,190.490857 L385.028079,175.884105 L399.856146,175.884105 Z M385.028079,175.884105 L385.028079,161.424896 L399.856146,161.424896 L399.856146,175.884105 L385.028079,175.884105 Z M385.028079,161.424896 L385.028079,146.59683 L399.856146,146.59683 L399.856146,161.424896 L385.028079,161.424896 Z M385.028079,146.59683 L385.028079,131.842535 L399.856146,131.842535 L399.856146,146.59683 L385.028079,146.59683 Z M385.028079,131.842535 L385.028079,117.014468 L399.856146,117.014468 L399.856146,131.842535 L385.028079,131.842535 Z M385.028079,87.4321072 L385.028079,72.6040408 L399.856146,72.6040408 L399.856146,87.4321072 L385.028079,87.4321072 Z M385.028079,72.6040408 L385.028079,58.1448318 L399.856146,58.1448318 L399.856146,72.6040408 L385.028079,72.6040408 Z M370.56887,58.1448318 L370.56887,43.3167655 L385.028079,43.3167655 L385.028079,58.1448318 L370.56887,58.1448318 Z M385.028079,175.884105 L385.028079,190.490857 L370.56887,190.490857 L370.56887,175.884105 L385.028079,175.884105 Z M370.56887,175.884105 L370.56887,161.424896 L385.028079,161.424896 L385.028079,175.884105 L370.56887,175.884105 Z M370.56887,161.424896 L370.56887,146.59683 L385.028079,146.59683 L385.028079,161.424896 L370.56887,161.424896 Z M370.56887,146.59683 L370.56887,131.842535 L385.028079,131.842535 L385.028079,146.59683 L370.56887,146.59683 Z M370.56887,131.842535 L370.56887,117.014468 L385.028079,117.014468 L385.028079,131.842535 L370.56887,131.842535 Z M370.56887,117.014468 L370.56887,102.260174 L385.028079,102.260174 L385.028079,117.014468 L370.56887,117.014468 Z M370.56887,72.6040408 L370.56887,58.1448318 L385.028079,58.1448318 L385.028079,72.6040408 L370.56887,72.6040408 Z M355.740804,58.1448318 L355.740804,43.3167655 L370.56887,43.3167655 L370.56887,58.1448318 L355.740804,58.1448318 Z M370.56887,175.884105 L370.56887,190.490857 L355.740804,190.490857 L355.740804,175.884105 L370.56887,175.884105 Z M355.740804,175.884105 L355.740804,161.424896 L370.56887,161.424896 L370.56887,175.884105 L355.740804,175.884105 Z M340.986509,58.1448318 L340.986509,43.3167655 L355.740804,43.3167655 L355.740804,58.1448318 L340.986509,58.1448318 Z M355.740804,175.884105 L355.740804,190.490857 L340.986509,190.490857 L340.986509,175.884105 L355.740804,175.884105 Z M340.986509,175.884105 L340.986509,161.424896 L355.740804,161.424896 L355.740804,175.884105 L340.986509,175.884105 Z M326.158443,58.1448318 L326.158443,43.3167655 L340.986509,43.3167655 L340.986509,58.1448318 L326.158443,58.1448318 Z M326.158443,175.884105 L326.158443,161.424896 L340.986509,161.424896 L340.986509,175.884105 L326.158443,175.884105 Z M326.158443,161.424896 L326.158443,146.59683 L340.986509,146.59683 L340.986509,161.424896 L326.158443,161.424896 Z M326.158443,146.59683 L326.158443,131.842535 L340.986509,131.842535 L340.986509,146.59683 L326.158443,146.59683 Z M326.158443,131.842535 L326.158443,117.014468 L340.986509,117.014468 L340.986509,131.842535 L326.158443,131.842535 Z M326.158443,117.014468 L326.158443,102.260174 L340.986509,102.260174 L340.986509,117.014468 L326.158443,117.014468 Z M326.158443,102.260174 L326.158443,87.4321072 L340.986509,87.4321072 L340.986509,102.260174 L326.158443,102.260174 Z M326.158443,87.4321072 L326.158443,72.6040408 L340.986509,72.6040408 L340.986509,87.4321072 L326.158443,87.4321072 Z M326.158443,72.6040408 L326.158443,58.1448318 L340.986509,58.1448318 L340.986509,72.6040408 L326.158443,72.6040408 Z M310.474627,342.076483 L310.474627,356.683235 L295.941647,356.683235 L295.941647,342.076483 L310.474627,342.076483 Z M295.941647,342.076483 L295.941647,327.617274 L310.474627,327.617274 L310.474627,342.076483 L295.941647,342.076483 Z M295.941647,327.617274 L295.941647,312.789207 L310.474627,312.789207 L310.474627,327.617274 L295.941647,327.617274 Z M295.941647,312.789207 L295.941647,298.034912 L310.474627,298.034912 L310.474627,312.789207 L295.941647,312.789207 Z M295.941647,298.034912 L295.941647,283.206846 L310.474627,283.206846 L310.474627,298.034912 L295.941647,298.034912 Z M295.941647,283.206846 L295.941647,268.452551 L310.474627,268.452551 L310.474627,283.206846 L295.941647,283.206846 Z M295.941647,268.452551 L295.941647,253.624485 L310.474627,253.624485 L310.474627,268.452551 L295.941647,268.452551 Z M295.941647,253.624485 L295.941647,238.796418 L310.474627,238.796418 L310.474627,253.624485 L295.941647,253.624485 Z M295.941647,238.796418 L295.941647,224.337209 L310.474627,224.337209 L310.474627,238.796418 L295.941647,238.796418 Z M281.187352,224.337209 L281.187352,209.509143 L295.941647,209.509143 L295.941647,224.337209 L281.187352,224.337209 Z M295.941647,342.076483 L295.941647,356.683235 L281.187352,356.683235 L281.187352,342.076483 L295.941647,342.076483 Z M281.187352,342.076483 L281.187352,327.617274 L295.941647,327.617274 L295.941647,342.076483 L281.187352,342.076483 Z M281.187352,327.617274 L281.187352,312.789207 L295.941647,312.789207 L295.941647,327.617274 L281.187352,327.617274 Z M281.187352,312.789207 L281.187352,298.034912 L295.941647,298.034912 L295.941647,312.789207 L281.187352,312.789207 Z M281.187352,298.034912 L281.187352,283.206846 L295.941647,283.206846 L295.941647,298.034912 L281.187352,298.034912 Z M281.187352,283.206846 L281.187352,268.452551 L295.941647,268.452551 L295.941647,283.206846 L281.187352,283.206846 Z M281.187352,268.452551 L281.187352,253.624485 L295.941647,253.624485 L295.941647,268.452551 L281.187352,268.452551 Z M281.187352,253.624485 L281.187352,238.796418 L295.941647,238.796418 L295.941647,253.624485 L281.187352,253.624485 Z M281.187352,238.796418 L281.187352,224.337209 L295.941647,224.337209 L295.941647,238.796418 L281.187352,238.796418 Z M266.359286,224.337209 L266.359286,209.509143 L281.187352,209.509143 L281.187352,224.337209 L266.359286,224.337209 Z M281.187352,342.076483 L281.187352,356.683235 L266.359286,356.683235 L266.359286,342.076483 L281.187352,342.076483 Z M266.359286,342.076483 L266.359286,327.617274 L281.187352,327.617274 L281.187352,342.076483 L266.359286,342.076483 Z M251.604991,224.337209 L251.604991,209.509143 L266.359286,209.509143 L266.359286,224.337209 L251.604991,224.337209 Z M266.359286,342.076483 L266.359286,356.683235 L251.604991,356.683235 L251.604991,342.076483 L266.359286,342.076483 Z M251.604991,342.076483 L251.604991,327.617274 L266.359286,327.617274 L266.359286,342.076483 L251.604991,342.076483 Z M236.776924,224.337209 L236.776924,209.509143 L251.604991,209.509143 L251.604991,224.337209 L236.776924,224.337209 Z M236.776924,342.076483 L236.776924,327.617274 L251.604991,327.617274 L251.604991,342.076483 L236.776924,342.076483 Z M236.776924,327.617274 L236.776924,312.789207 L251.604991,312.789207 L251.604991,327.617274 L236.776924,327.617274 Z M236.776924,312.789207 L236.776924,298.034912 L251.604991,298.034912 L251.604991,312.789207 L236.776924,312.789207 Z M236.776924,298.034912 L236.776924,283.206846 L251.604991,283.206846 L251.604991,298.034912 L236.776924,298.034912 Z M236.776924,268.452551 L236.776924,253.624485 L251.604991,253.624485 L251.604991,268.452551 L236.776924,268.452551 Z M236.776924,253.624485 L236.776924,238.796418 L251.604991,238.796418 L251.604991,253.624485 L236.776924,253.624485 Z M236.776924,238.796418 L236.776924,224.337209 L251.604991,224.337209 L251.604991,238.796418 L236.776924,238.796418 Z M236.776924,342.076483 L236.776924,356.683235 L221.948858,356.683235 L221.948858,342.076483 L236.776924,342.076483 Z M221.948858,342.076483 L221.948858,327.617274 L236.776924,327.617274 L236.776924,342.076483 L221.948858,342.076483 Z M221.948858,327.617274 L221.948858,312.789207 L236.776924,312.789207 L236.776924,327.617274 L221.948858,327.617274 Z M221.948858,312.789207 L221.948858,298.034912 L236.776924,298.034912 L236.776924,312.789207 L221.948858,312.789207 Z M221.948858,298.034912 L221.948858,283.206846 L236.776924,283.206846 L236.776924,298.034912 L221.948858,298.034912 Z M221.948858,268.452551 L221.948858,253.624485 L236.776924,253.624485 L236.776924,268.452551 L221.948858,268.452551 Z M221.948858,253.624485 L221.948858,238.796418 L236.776924,238.796418 L236.776924,253.624485 L221.948858,253.624485 Z M221.948858,238.796418 L221.948858,224.337209 L236.776924,224.337209 L236.776924,238.796418 L221.948858,238.796418 Z M207.489649,224.337209 L207.489649,209.509143 L221.948858,209.509143 L221.948858,224.337209 L207.489649,224.337209 Z M221.948858,342.076483 L221.948858,356.683235 L207.489649,356.683235 L207.489649,342.076483 L221.948858,342.076483 Z M207.489649,342.076483 L207.489649,327.617274 L221.948858,327.617274 L221.948858,342.076483 L207.489649,342.076483 Z M207.489649,327.617274 L207.489649,312.789207 L221.948858,312.789207 L221.948858,327.617274 L207.489649,327.617274 Z M207.489649,312.789207 L207.489649,298.034912 L221.948858,298.034912 L221.948858,312.789207 L207.489649,312.789207 Z M207.489649,298.034912 L207.489649,283.206846 L221.948858,283.206846 L221.948858,298.034912 L207.489649,298.034912 Z M207.489649,268.452551 L207.489649,253.624485 L221.948858,253.624485 L221.948858,268.452551 L207.489649,268.452551 Z M207.489649,253.624485 L207.489649,238.796418 L221.948858,238.796418 L221.948858,253.624485 L207.489649,253.624485 Z M207.489649,238.796418 L207.489649,224.337209 L221.948858,224.337209 L221.948858,238.796418 L207.489649,238.796418 Z M192.661583,224.337209 L192.661583,209.509143 L207.489649,209.509143 L207.489649,224.337209 L192.661583,224.337209 Z M207.489649,342.076483 L207.489649,356.683235 L192.661583,356.683235 L192.661583,342.076483 L207.489649,342.076483 Z M192.661583,342.076483 L192.661583,327.617274 L207.489649,327.617274 L207.489649,342.076483 L192.661583,342.076483 Z M177.907288,224.337209 L177.907288,209.509143 L192.661583,209.509143 L192.661583,224.337209 L177.907288,224.337209 Z M192.661583,342.076483 L192.661583,356.683235 L177.907288,356.683235 L177.907288,342.076483 L192.661583,342.076483 Z M177.907288,342.076483 L177.907288,327.617274 L192.661583,327.617274 L192.661583,342.076483 L177.907288,342.076483 Z M163.079221,224.337209 L163.079221,209.509143 L177.907288,209.509143 L177.907288,224.337209 L163.079221,224.337209 Z M163.079221,342.076483 L163.079221,327.617274 L177.907288,327.617274 L177.907288,342.076483 L163.079221,342.076483 Z M163.079221,327.617274 L163.079221,312.789207 L177.907288,312.789207 L177.907288,327.617274 L163.079221,327.617274 Z M163.079221,312.789207 L163.079221,298.034912 L177.907288,298.034912 L177.907288,312.789207 L163.079221,312.789207 Z M163.079221,298.034912 L163.079221,283.206846 L177.907288,283.206846 L177.907288,298.034912 L163.079221,298.034912 Z M163.079221,283.206846 L163.079221,268.452551 L177.907288,268.452551 L177.907288,283.206846 L163.079221,283.206846 Z M163.079221,268.452551 L163.079221,253.624485 L177.907288,253.624485 L177.907288,268.452551 L163.079221,268.452551 Z M163.079221,253.624485 L163.079221,238.796418 L177.907288,238.796418 L177.907288,253.624485 L163.079221,253.624485 Z M163.079221,238.796418 L163.079221,224.337209 L177.907288,224.337209 L177.907288,238.796418 L163.079221,238.796418 Z M473.553849,342.076483 L473.553849,356.683235 L459.020868,356.683235 L459.020868,342.076483 L473.553849,342.076483 Z M459.020868,342.076483 L459.020868,327.617274 L473.553849,327.617274 L473.553849,342.076483 L459.020868,342.076483 Z M459.020868,327.617274 L459.020868,312.789207 L473.553849,312.789207 L473.553849,327.617274 L459.020868,327.617274 Z M459.020868,312.789207 L459.020868,298.034912 L473.553849,298.034912 L473.553849,312.789207 L459.020868,312.789207 Z M459.020868,298.034912 L459.020868,283.206846 L473.553849,283.206846 L473.553849,298.034912 L459.020868,298.034912 Z M459.020868,283.206846 L459.020868,268.452551 L473.553849,268.452551 L473.553849,283.206846 L459.020868,283.206846 Z M459.020868,268.452551 L459.020868,253.624485 L473.553849,253.624485 L473.553849,268.452551 L459.020868,268.452551 Z M459.020868,253.624485 L459.020868,238.796418 L473.553849,238.796418 L473.553849,253.624485 L459.020868,253.624485 Z M459.020868,342.076483 L459.020868,356.683235 L444.266573,356.683235 L444.266573,342.076483 L459.020868,342.076483 Z M444.266573,342.076483 L444.266573,327.617274 L459.020868,327.617274 L459.020868,342.076483 L444.266573,342.076483 Z M444.266573,327.617274 L444.266573,312.789207 L459.020868,312.789207 L459.020868,327.617274 L444.266573,327.617274 Z M444.266573,312.789207 L444.266573,298.034912 L459.020868,298.034912 L459.020868,312.789207 L444.266573,312.789207 Z M444.266573,298.034912 L444.266573,283.206846 L459.020868,283.206846 L459.020868,298.034912 L444.266573,298.034912 Z M444.266573,283.206846 L444.266573,268.452551 L459.020868,268.452551 L459.020868,283.206846 L444.266573,283.206846 Z M444.266573,268.452551 L444.266573,253.624485 L459.020868,253.624485 L459.020868,268.452551 L444.266573,268.452551 Z M444.266573,253.624485 L444.266573,238.796418 L459.020868,238.796418 L459.020868,253.624485 L444.266573,253.624485 Z M444.266573,238.796418 L444.266573,224.337209 L459.020868,224.337209 L459.020868,238.796418 L444.266573,238.796418 Z M429.438507,224.337209 L429.438507,209.509143 L444.266573,209.509143 L444.266573,224.337209 L429.438507,224.337209 Z M444.266573,342.076483 L444.266573,356.683235 L429.438507,356.683235 L429.438507,342.076483 L444.266573,342.076483 Z M429.438507,342.076483 L429.438507,327.617274 L444.266573,327.617274 L444.266573,342.076483 L429.438507,342.076483 Z M429.438507,238.796418 L429.438507,224.337209 L444.266573,224.337209 L444.266573,238.796418 L429.438507,238.796418 Z M414.684212,224.337209 L414.684212,209.509143 L429.438507,209.509143 L429.438507,224.337209 L414.684212,224.337209 Z M429.438507,342.076483 L429.438507,356.683235 L414.684212,356.683235 L414.684212,342.076483 L429.438507,342.076483 Z M414.684212,342.076483 L414.684212,327.617274 L429.438507,327.617274 L429.438507,342.076483 L414.684212,342.076483 Z M399.856146,224.337209 L399.856146,209.509143 L414.684212,209.509143 L414.684212,224.337209 L399.856146,224.337209 Z M399.856146,342.076483 L399.856146,327.617274 L414.684212,327.617274 L414.684212,342.076483 L399.856146,342.076483 Z M399.856146,327.617274 L399.856146,312.789207 L414.684212,312.789207 L414.684212,327.617274 L399.856146,327.617274 Z M399.856146,312.789207 L399.856146,298.034912 L414.684212,298.034912 L414.684212,312.789207 L399.856146,312.789207 Z M399.856146,283.206846 L399.856146,268.452551 L414.684212,268.452551 L414.684212,283.206846 L399.856146,283.206846 Z M399.856146,268.452551 L399.856146,253.624485 L414.684212,253.624485 L414.684212,268.452551 L399.856146,268.452551 Z M399.856146,253.624485 L399.856146,238.796418 L414.684212,238.796418 L414.684212,253.624485 L399.856146,253.624485 Z M385.028079,224.337209 L385.028079,209.509143 L399.856146,209.509143 L399.856146,224.337209 L385.028079,224.337209 Z M399.856146,342.076483 L399.856146,356.683235 L385.028079,356.683235 L385.028079,342.076483 L399.856146,342.076483 Z M385.028079,342.076483 L385.028079,327.617274 L399.856146,327.617274 L399.856146,342.076483 L385.028079,342.076483 Z M385.028079,327.617274 L385.028079,312.789207 L399.856146,312.789207 L399.856146,327.617274 L385.028079,327.617274 Z M385.028079,312.789207 L385.028079,298.034912 L399.856146,298.034912 L399.856146,312.789207 L385.028079,312.789207 Z M385.028079,283.206846 L385.028079,268.452551 L399.856146,268.452551 L399.856146,283.206846 L385.028079,283.206846 Z M385.028079,268.452551 L385.028079,253.624485 L399.856146,253.624485 L399.856146,268.452551 L385.028079,268.452551 Z M385.028079,253.624485 L385.028079,238.796418 L399.856146,238.796418 L399.856146,253.624485 L385.028079,253.624485 Z M370.56887,224.337209 L370.56887,209.509143 L385.028079,209.509143 L385.028079,224.337209 L370.56887,224.337209 Z M385.028079,342.076483 L385.028079,356.683235 L370.56887,356.683235 L370.56887,342.076483 L385.028079,342.076483 Z M370.56887,342.076483 L370.56887,327.617274 L385.028079,327.617274 L385.028079,342.076483 L370.56887,342.076483 Z M370.56887,327.617274 L370.56887,312.789207 L385.028079,312.789207 L385.028079,327.617274 L370.56887,327.617274 Z M370.56887,312.789207 L370.56887,298.034912 L385.028079,298.034912 L385.028079,312.789207 L370.56887,312.789207 Z M370.56887,283.206846 L370.56887,268.452551 L385.028079,268.452551 L385.028079,283.206846 L370.56887,283.206846 Z M370.56887,268.452551 L370.56887,253.624485 L385.028079,253.624485 L385.028079,268.452551 L370.56887,268.452551 Z M370.56887,253.624485 L370.56887,238.796418 L385.028079,238.796418 L385.028079,253.624485 L370.56887,253.624485 Z M355.740804,224.337209 L355.740804,209.509143 L370.56887,209.509143 L370.56887,224.337209 L355.740804,224.337209 Z M370.56887,342.076483 L370.56887,356.683235 L355.740804,356.683235 L355.740804,342.076483 L370.56887,342.076483 Z M355.740804,342.076483 L355.740804,327.617274 L370.56887,327.617274 L370.56887,342.076483 L355.740804,342.076483 Z M340.986509,224.337209 L340.986509,209.509143 L355.740804,209.509143 L355.740804,224.337209 L340.986509,224.337209 Z M355.740804,342.076483 L355.740804,356.683235 L340.986509,356.683235 L340.986509,342.076483 L355.740804,342.076483 Z M340.986509,342.076483 L340.986509,327.617274 L355.740804,327.617274 L355.740804,342.076483 L340.986509,342.076483 Z M340.986509,238.796418 L340.986509,224.337209 L355.740804,224.337209 L355.740804,238.796418 L340.986509,238.796418 Z M326.158443,342.076483 L326.158443,327.617274 L340.986509,327.617274 L340.986509,342.076483 L326.158443,342.076483 Z M326.158443,327.617274 L326.158443,312.789207 L340.986509,312.789207 L340.986509,327.617274 L326.158443,327.617274 Z M326.158443,312.789207 L326.158443,298.034912 L340.986509,298.034912 L340.986509,312.789207 L326.158443,312.789207 Z M326.158443,298.034912 L326.158443,283.206846 L340.986509,283.206846 L340.986509,298.034912 L326.158443,298.034912 Z M326.158443,283.206846 L326.158443,268.452551 L340.986509,268.452551 L340.986509,283.206846 L326.158443,283.206846 Z M326.158443,268.452551 L326.158443,253.624485 L340.986509,253.624485 L340.986509,268.452551 L326.158443,268.452551 Z M326.158443,253.624485 L326.158443,238.796418 L340.986509,238.796418 L340.986509,253.624485 L326.158443,253.624485 Z M326.158443,238.796418 L326.158443,224.337209 L340.986509,224.337209 L340.986509,238.796418 L326.158443,238.796418 Z M622.100089,342.076483 L622.100089,327.617274 L636.63307,327.617274 L636.63307,342.076483 L622.100089,342.076483 Z M622.100089,327.617274 L622.100089,312.789207 L636.63307,312.789207 L636.63307,327.617274 L622.100089,327.617274 Z M622.100089,312.789207 L622.100089,298.034912 L636.63307,298.034912 L636.63307,312.789207 L622.100089,312.789207 Z M622.100089,283.206846 L622.100089,268.452551 L636.63307,268.452551 L636.63307,283.206846 L622.100089,283.206846 Z M622.100089,268.452551 L622.100089,253.624485 L636.63307,253.624485 L636.63307,268.452551 L622.100089,268.452551 Z M622.100089,253.624485 L622.100089,238.796418 L636.63307,238.796418 L636.63307,253.624485 L622.100089,253.624485 Z M622.100089,342.076483 L622.100089,356.683235 L607.345795,356.683235 L607.345795,342.076483 L622.100089,342.076483 Z M607.345795,342.076483 L607.345795,327.617274 L622.100089,327.617274 L622.100089,342.076483 L607.345795,342.076483 Z M607.345795,327.617274 L607.345795,312.789207 L622.100089,312.789207 L622.100089,327.617274 L607.345795,327.617274 Z M607.345795,312.789207 L607.345795,298.034912 L622.100089,298.034912 L622.100089,312.789207 L607.345795,312.789207 Z M607.345795,298.034912 L607.345795,283.206846 L622.100089,283.206846 L622.100089,298.034912 L607.345795,298.034912 Z M607.345795,283.206846 L607.345795,268.452551 L622.100089,268.452551 L622.100089,283.206846 L607.345795,283.206846 Z M607.345795,268.452551 L607.345795,253.624485 L622.100089,253.624485 L622.100089,268.452551 L607.345795,268.452551 Z M607.345795,253.624485 L607.345795,238.796418 L622.100089,238.796418 L622.100089,253.624485 L607.345795,253.624485 Z M607.345795,238.796418 L607.345795,224.337209 L622.100089,224.337209 L622.100089,238.796418 L607.345795,238.796418 Z M592.517728,224.337209 L592.517728,209.509143 L607.345795,209.509143 L607.345795,224.337209 L592.517728,224.337209 Z M607.345795,342.076483 L607.345795,356.683235 L592.517728,356.683235 L592.517728,342.076483 L607.345795,342.076483 Z M592.517728,342.076483 L592.517728,327.617274 L607.345795,327.617274 L607.345795,342.076483 L592.517728,342.076483 Z M592.517728,327.617274 L592.517728,312.789207 L607.345795,312.789207 L607.345795,327.617274 L592.517728,327.617274 Z M592.517728,298.034912 L592.517728,283.206846 L607.345795,283.206846 L607.345795,298.034912 L592.517728,298.034912 Z M592.517728,283.206846 L592.517728,268.452551 L607.345795,268.452551 L607.345795,283.206846 L592.517728,283.206846 Z M592.517728,268.452551 L592.517728,253.624485 L607.345795,253.624485 L607.345795,268.452551 L592.517728,268.452551 Z M592.517728,238.796418 L592.517728,224.337209 L607.345795,224.337209 L607.345795,238.796418 L592.517728,238.796418 Z M577.763433,224.337209 L577.763433,209.509143 L592.517728,209.509143 L592.517728,224.337209 L577.763433,224.337209 Z M592.517728,342.076483 L592.517728,356.683235 L577.763433,356.683235 L577.763433,342.076483 L592.517728,342.076483 Z M577.763433,342.076483 L577.763433,327.617274 L592.517728,327.617274 L592.517728,342.076483 L577.763433,342.076483 Z M577.763433,298.034912 L577.763433,283.206846 L592.517728,283.206846 L592.517728,298.034912 L577.763433,298.034912 Z M577.763433,283.206846 L577.763433,268.452551 L592.517728,268.452551 L592.517728,283.206846 L577.763433,283.206846 Z M577.763433,268.452551 L577.763433,253.624485 L592.517728,253.624485 L592.517728,268.452551 L577.763433,268.452551 Z M562.935367,224.337209 L562.935367,209.509143 L577.763433,209.509143 L577.763433,224.337209 L562.935367,224.337209 Z M577.763433,342.076483 L577.763433,356.683235 L562.935367,356.683235 L562.935367,342.076483 L577.763433,342.076483 Z M562.935367,342.076483 L562.935367,327.617274 L577.763433,327.617274 L577.763433,342.076483 L562.935367,342.076483 Z M562.935367,312.789207 L562.935367,298.034912 L577.763433,298.034912 L577.763433,312.789207 L562.935367,312.789207 Z M562.935367,298.034912 L562.935367,283.206846 L577.763433,283.206846 L577.763433,298.034912 L562.935367,298.034912 Z M562.935367,283.206846 L562.935367,268.452551 L577.763433,268.452551 L577.763433,283.206846 L562.935367,283.206846 Z M562.935367,268.452551 L562.935367,253.624485 L577.763433,253.624485 L577.763433,268.452551 L562.935367,268.452551 Z M562.935367,253.624485 L562.935367,238.796418 L577.763433,238.796418 L577.763433,253.624485 L562.935367,253.624485 Z M548.107301,224.337209 L548.107301,209.509143 L562.935367,209.509143 L562.935367,224.337209 L548.107301,224.337209 Z M562.935367,342.076483 L562.935367,356.683235 L548.107301,356.683235 L548.107301,342.076483 L562.935367,342.076483 Z M548.107301,342.076483 L548.107301,327.617274 L562.935367,327.617274 L562.935367,342.076483 L548.107301,342.076483 Z M548.107301,312.789207 L548.107301,298.034912 L562.935367,298.034912 L562.935367,312.789207 L548.107301,312.789207 Z M548.107301,298.034912 L548.107301,283.206846 L562.935367,283.206846 L562.935367,298.034912 L548.107301,298.034912 Z M548.107301,283.206846 L548.107301,268.452551 L562.935367,268.452551 L562.935367,283.206846 L548.107301,283.206846 Z M548.107301,268.452551 L548.107301,253.624485 L562.935367,253.624485 L562.935367,268.452551 L548.107301,268.452551 Z M548.107301,253.624485 L548.107301,238.796418 L562.935367,238.796418 L562.935367,253.624485 L548.107301,253.624485 Z M533.648092,224.337209 L533.648092,209.509143 L548.107301,209.509143 L548.107301,224.337209 L533.648092,224.337209 Z M548.107301,342.076483 L548.107301,356.683235 L533.648092,356.683235 L533.648092,342.076483 L548.107301,342.076483 Z M533.648092,342.076483 L533.648092,327.617274 L548.107301,327.617274 L548.107301,342.076483 L533.648092,342.076483 Z M533.648092,312.789207 L533.648092,298.034912 L548.107301,298.034912 L548.107301,312.789207 L533.648092,312.789207 Z M533.648092,298.034912 L533.648092,283.206846 L548.107301,283.206846 L548.107301,298.034912 L533.648092,298.034912 Z M533.648092,283.206846 L533.648092,268.452551 L548.107301,268.452551 L548.107301,283.206846 L533.648092,283.206846 Z M533.648092,268.452551 L533.648092,253.624485 L548.107301,253.624485 L548.107301,268.452551 L533.648092,268.452551 Z M533.648092,253.624485 L533.648092,238.796418 L548.107301,238.796418 L548.107301,253.624485 L533.648092,253.624485 Z M518.820025,224.337209 L518.820025,209.509143 L533.648092,209.509143 L533.648092,224.337209 L518.820025,224.337209 Z M533.648092,342.076483 L533.648092,356.683235 L518.820025,356.683235 L518.820025,342.076483 L533.648092,342.076483 Z M518.820025,342.076483 L518.820025,327.617274 L533.648092,327.617274 L533.648092,342.076483 L518.820025,342.076483 Z M504.06573,224.337209 L504.06573,209.509143 L518.820025,209.509143 L518.820025,224.337209 L504.06573,224.337209 Z M504.06573,342.076483 L504.06573,327.617274 L518.820025,327.617274 L518.820025,342.076483 L504.06573,342.076483 Z M504.06573,327.617274 L504.06573,312.789207 L518.820025,312.789207 L518.820025,327.617274 L504.06573,327.617274 Z M504.06573,238.796418 L504.06573,224.337209 L518.820025,224.337209 L518.820025,238.796418 L504.06573,238.796418 Z M489.237664,327.617274 L489.237664,312.789207 L504.06573,312.789207 L504.06573,327.617274 L489.237664,327.617274 Z M489.237664,312.789207 L489.237664,298.034912 L504.06573,298.034912 L504.06573,312.789207 L489.237664,312.789207 Z M489.237664,298.034912 L489.237664,283.206846 L504.06573,283.206846 L504.06573,298.034912 L489.237664,298.034912 Z M489.237664,283.206846 L489.237664,268.452551 L504.06573,268.452551 L504.06573,283.206846 L489.237664,283.206846 Z M489.237664,268.452551 L489.237664,253.624485 L504.06573,253.624485 L504.06573,268.452551 L489.237664,268.452551 Z M489.237664,253.624485 L489.237664,238.796418 L504.06573,238.796418 L504.06573,253.624485 L489.237664,253.624485 Z M489.237664,238.796418 L489.237664,224.337209 L504.06573,224.337209 L504.06573,238.796418 L489.237664,238.796418 Z M799.712291,342.076483 L799.712291,356.683235 L785.179311,356.683235 L785.179311,342.076483 L799.712291,342.076483 Z M785.179311,342.076483 L785.179311,327.617274 L799.712291,327.617274 L799.712291,342.076483 L785.179311,342.076483 Z M785.179311,327.617274 L785.179311,312.789207 L799.712291,312.789207 L799.712291,327.617274 L785.179311,327.617274 Z M785.179311,268.452551 L785.179311,253.624485 L799.712291,253.624485 L799.712291,268.452551 L785.179311,268.452551 Z M785.179311,253.624485 L785.179311,238.796418 L799.712291,238.796418 L799.712291,253.624485 L785.179311,253.624485 Z M785.179311,238.796418 L785.179311,224.337209 L799.712291,224.337209 L799.712291,238.796418 L785.179311,238.796418 Z M770.425016,224.337209 L770.425016,209.509143 L785.179311,209.509143 L785.179311,224.337209 L770.425016,224.337209 Z M785.179311,342.076483 L785.179311,356.683235 L770.425016,356.683235 L770.425016,342.076483 L785.179311,342.076483 Z M770.425016,342.076483 L770.425016,327.617274 L785.179311,327.617274 L785.179311,342.076483 L770.425016,342.076483 Z M770.425016,327.617274 L770.425016,312.789207 L785.179311,312.789207 L785.179311,327.617274 L770.425016,327.617274 Z M770.425016,312.789207 L770.425016,298.034912 L785.179311,298.034912 L785.179311,312.789207 L770.425016,312.789207 Z M770.425016,283.206846 L770.425016,268.452551 L785.179311,268.452551 L785.179311,283.206846 L770.425016,283.206846 Z M770.425016,268.452551 L770.425016,253.624485 L785.179311,253.624485 L785.179311,268.452551 L770.425016,268.452551 Z M770.425016,253.624485 L770.425016,238.796418 L785.179311,238.796418 L785.179311,253.624485 L770.425016,253.624485 Z M770.425016,238.796418 L770.425016,224.337209 L785.179311,224.337209 L785.179311,238.796418 L770.425016,238.796418 Z M755.59695,224.337209 L755.59695,209.509143 L770.425016,209.509143 L770.425016,224.337209 L755.59695,224.337209 Z M770.425016,342.076483 L770.425016,356.683235 L755.59695,356.683235 L755.59695,342.076483 L770.425016,342.076483 Z M755.59695,342.076483 L755.59695,327.617274 L770.425016,327.617274 L770.425016,342.076483 L755.59695,342.076483 Z M755.59695,312.789207 L755.59695,298.034912 L770.425016,298.034912 L770.425016,312.789207 L755.59695,312.789207 Z M755.59695,298.034912 L755.59695,283.206846 L770.425016,283.206846 L770.425016,298.034912 L755.59695,298.034912 Z M755.59695,283.206846 L755.59695,268.452551 L770.425016,268.452551 L770.425016,283.206846 L755.59695,283.206846 Z M755.59695,268.452551 L755.59695,253.624485 L770.425016,253.624485 L770.425016,268.452551 L755.59695,268.452551 Z M755.59695,253.624485 L755.59695,238.796418 L770.425016,238.796418 L770.425016,253.624485 L755.59695,253.624485 Z M740.842655,224.337209 L740.842655,209.509143 L755.59695,209.509143 L755.59695,224.337209 L740.842655,224.337209 Z M755.59695,342.076483 L755.59695,356.683235 L740.842655,356.683235 L740.842655,342.076483 L755.59695,342.076483 Z M740.842655,342.076483 L740.842655,327.617274 L755.59695,327.617274 L755.59695,342.076483 L740.842655,342.076483 Z M740.842655,298.034912 L740.842655,283.206846 L755.59695,283.206846 L755.59695,298.034912 L740.842655,298.034912 Z M740.842655,283.206846 L740.842655,268.452551 L755.59695,268.452551 L755.59695,283.206846 L740.842655,283.206846 Z M740.842655,268.452551 L740.842655,253.624485 L755.59695,253.624485 L755.59695,268.452551 L740.842655,268.452551 Z M726.014588,224.337209 L726.014588,209.509143 L740.842655,209.509143 L740.842655,224.337209 L726.014588,224.337209 Z M726.014588,342.076483 L726.014588,327.617274 L740.842655,327.617274 L740.842655,342.076483 L726.014588,342.076483 Z M726.014588,327.617274 L726.014588,312.789207 L740.842655,312.789207 L740.842655,327.617274 L726.014588,327.617274 Z M726.014588,283.206846 L726.014588,268.452551 L740.842655,268.452551 L740.842655,283.206846 L726.014588,283.206846 Z M726.014588,238.796418 L726.014588,224.337209 L740.842655,224.337209 L740.842655,238.796418 L726.014588,238.796418 Z M726.014588,342.076483 L726.014588,356.683235 L711.186522,356.683235 L711.186522,342.076483 L726.014588,342.076483 Z M711.186522,342.076483 L711.186522,327.617274 L726.014588,327.617274 L726.014588,342.076483 L711.186522,342.076483 Z M711.186522,327.617274 L711.186522,312.789207 L726.014588,312.789207 L726.014588,327.617274 L711.186522,327.617274 Z M711.186522,312.789207 L711.186522,298.034912 L726.014588,298.034912 L726.014588,312.789207 L711.186522,312.789207 Z M711.186522,253.624485 L711.186522,238.796418 L726.014588,238.796418 L726.014588,253.624485 L711.186522,253.624485 Z M711.186522,238.796418 L711.186522,224.337209 L726.014588,224.337209 L726.014588,238.796418 L711.186522,238.796418 Z M696.727313,224.337209 L696.727313,209.509143 L711.186522,209.509143 L711.186522,224.337209 L696.727313,224.337209 Z M711.186522,342.076483 L711.186522,356.683235 L696.727313,356.683235 L696.727313,342.076483 L711.186522,342.076483 Z M696.727313,342.076483 L696.727313,327.617274 L711.186522,327.617274 L711.186522,342.076483 L696.727313,342.076483 Z M696.727313,327.617274 L696.727313,312.789207 L711.186522,312.789207 L711.186522,327.617274 L696.727313,327.617274 Z M696.727313,312.789207 L696.727313,298.034912 L711.186522,298.034912 L711.186522,312.789207 L696.727313,312.789207 Z M696.727313,298.034912 L696.727313,283.206846 L711.186522,283.206846 L711.186522,298.034912 L696.727313,298.034912 Z M696.727313,268.452551 L696.727313,253.624485 L711.186522,253.624485 L711.186522,268.452551 L696.727313,268.452551 Z M696.727313,253.624485 L696.727313,238.796418 L711.186522,238.796418 L711.186522,253.624485 L696.727313,253.624485 Z M696.727313,238.796418 L696.727313,224.337209 L711.186522,224.337209 L711.186522,238.796418 L696.727313,238.796418 Z M681.899247,224.337209 L681.899247,209.509143 L696.727313,209.509143 L696.727313,224.337209 L681.899247,224.337209 Z M696.727313,342.076483 L696.727313,356.683235 L681.899247,356.683235 L681.899247,342.076483 L696.727313,342.076483 Z M681.899247,342.076483 L681.899247,327.617274 L696.727313,327.617274 L696.727313,342.076483 L681.899247,342.076483 Z M667.144952,224.337209 L667.144952,209.509143 L681.899247,209.509143 L681.899247,224.337209 L667.144952,224.337209 Z M681.899247,342.076483 L681.899247,356.683235 L667.144952,356.683235 L667.144952,342.076483 L681.899247,342.076483 Z M667.144952,342.076483 L667.144952,327.617274 L681.899247,327.617274 L681.899247,342.076483 L667.144952,342.076483 Z M652.316885,224.337209 L652.316885,209.509143 L667.144952,209.509143 L667.144952,224.337209 L652.316885,224.337209 Z M652.316885,342.076483 L652.316885,327.617274 L667.144952,327.617274 L667.144952,342.076483 L652.316885,342.076483 Z M652.316885,327.617274 L652.316885,312.789207 L667.144952,312.789207 L667.144952,327.617274 L652.316885,327.617274 Z M652.316885,312.789207 L652.316885,298.034912 L667.144952,298.034912 L667.144952,312.789207 L652.316885,312.789207 Z M652.316885,298.034912 L652.316885,283.206846 L667.144952,283.206846 L667.144952,298.034912 L652.316885,298.034912 Z M652.316885,283.206846 L652.316885,268.452551 L667.144952,268.452551 L667.144952,283.206846 L652.316885,283.206846 Z M652.316885,268.452551 L652.316885,253.624485 L667.144952,253.624485 L667.144952,268.452551 L652.316885,268.452551 Z M652.316885,253.624485 L652.316885,238.796418 L667.144952,238.796418 L667.144952,253.624485 L652.316885,253.624485 Z M652.316885,238.796418 L652.316885,224.337209 L667.144952,224.337209 L667.144952,238.796418 L652.316885,238.796418 Z M489.237664,177.607646 L800,177.607646 L800,190.490857 L489.237664,190.490857 Z M0,209.368977 L148.088076,209.368977 L148.088076,222.252188 L0,222.252188 Z" id="Combined-Shape"></path>
                </g>
            </g>
        </g>
    </g>
</svg>