<?xml version="1.0" encoding="UTF-8"?>
<svg width="800px" height="400px" viewBox="0 0 800 400" version="1.1" xmlns="http://www.w3.org/2000/svg" xmlns:xlink="http://www.w3.org/1999/xlink">
    <title>shoeisha</title>
    <g id="Page-1" stroke="none" stroke-width="1" fill="none" fill-rule="evenodd">
        <g id="Manufacturer" fill="#000000" fill-rule="nonzero">
            <g id="AF150_INCREMENTAL" transform="translate(-0.000000, 0.000000)">
                <g id="shoeisha" transform="translate(0.000000, 0.000000)">
                    <line x1="0" y1="0" x2="800" y2="400" id="Path"></line>
                    <path d="M117.659612,159.087359 C117.659612,159.087359 121.289542,137.8593 91.457946,137.8593 C61.6263575,137.8593 62.5288266,157.693552 76.1059628,161.804797 C91.0067151,166.327166 130.645128,173.737431 161.058314,189.360163 C176.881596,197.512462 182.757664,213.335736 182.757664,213.335736 L182.757664,99.8754132 L351.779965,99.8754132 L351.779965,151.857591 L242.410826,151.857591 L242.410826,174.459403 L336.417944,174.459403 L336.417944,222.36042 L242.410826,222.36042 L242.410826,247.669647 L352.672404,247.669647 L352.672404,301.466786 L182.286373,301.466786 L182.286373,264.84663 C182.286373,264.84663 169.621736,310.080346 92.3604151,308.686532 C-7.97401007,306.87157 0.15823492,231.415188 0.15823492,231.415188 L62.5288266,231.415188 C62.5288266,231.415188 58.006458,257.145562 96.4315528,257.145562 C138.456494,257.145562 122.653272,232.758865 113.157297,229.138965 C76.7677672,215.271034 6.5055953,218.740521 6.05435711,155.016229 C5.64363341,97.1379226 65.7075183,91.2819061 92.8116533,91.2819061 C188.162449,91.2819061 178.235296,159.087359 178.235296,159.087359 L117.659612,159.087359 Z M407.062074,114.300821 C406.031398,104.928888 399.787441,100.89009 390.799016,100.89009 C383.440492,100.89009 376.069989,103.550668 376.069989,112.095662 C376.069989,120.173257 386.556481,121.359728 397.138851,123.780612 C407.577408,126.141573 418.0639,129.820831 418.0639,142.692251 C418.0639,156.642292 404.36554,162.239079 392.428917,162.239079 C377.759814,162.239079 365.331816,155.072314 365.331816,139.108873 L373.613149,139.108873 C373.613149,150.110698 382.793324,154.880556 392.716546,154.880556 C400.602392,154.880556 409.327156,152.399748 409.327156,142.943933 C409.327156,133.955508 398.864632,132.385529 388.402099,130.09648 C377.89164,127.807422 367.369193,124.787312 367.369193,112.730843 C367.369193,99.404003 379.209945,93.5315663 391.146568,93.5315663 C404.557299,93.5315663 414.744173,99.8833899 415.307451,114.300821 L407.062074,114.300821 M424.008248,95.1015443 L432.744991,95.1015443 L432.744991,123.313213 L467.26054,123.313213 L467.26054,95.1015443 L475.997292,95.1015443 L475.997292,160.669101 L467.26054,160.669101 L467.26054,130.659749 L432.744991,130.659749 L432.744991,160.669101 L424.008248,160.669101 L424.008248,95.1015443 M537.046665,127.867345 C537.046665,114.67234 530.347289,100.89009 514.359881,100.89009 C498.396439,100.89009 491.673096,114.67234 491.673096,127.867345 C491.673096,141.098305 498.396439,154.880556 514.359881,154.880556 C530.347289,154.880556 537.046665,141.098305 537.046665,127.867345 L545.771429,127.867345 C545.771429,145.736337 535.213026,162.239079 514.359881,162.239079 C493.530703,162.239079 482.972308,145.736337 482.972308,127.867345 C482.972308,110.082253 493.530703,93.5315663 514.359881,93.5315663 C535.213026,93.5315663 545.771429,110.082253 545.771429,127.867345 L537.046665,127.867345 M552.722469,95.1015443 L598.012146,95.1015443 L598.012146,102.448089 L561.459221,102.448089 L561.459221,123.313213 L595.531339,123.313213 L595.531339,130.659749 L561.459221,130.659749 L561.459221,153.334545 L598.275807,153.334545 L598.275807,160.669101 L552.722469,160.669101 L552.722469,95.1015443 M607.827502,95.1015443 L616.540278,95.1015443 L616.540278,160.669101 L607.827502,160.669101 L607.827502,95.1015443 Z M665.473257,114.300821 C664.466557,104.928888 658.222601,100.89009 649.210208,100.89009 C641.863664,100.89009 634.50514,103.550668 634.50514,112.095662 C634.50514,120.173257 644.99164,121.359728 655.550043,123.780612 C665.9886,126.141573 676.499059,129.820831 676.499059,142.692251 C676.499059,156.642292 662.8007,162.239079 650.852089,162.239079 C636.170997,162.239079 623.766975,155.072314 623.766975,139.108873 L632.024341,139.108873 C632.024341,150.110698 641.228483,154.880556 651.151705,154.880556 C659.037551,154.880556 667.750327,152.399748 667.750327,142.943933 C667.750327,133.955508 657.287803,132.385529 646.825279,130.09648 C636.350767,127.807422 625.804352,124.787312 625.804352,112.730843 C625.804352,99.404003 637.645096,93.5315663 649.581727,93.5315663 C662.992458,93.5315663 673.2033,99.8833899 673.742611,114.300821 L665.473257,114.300821 M683.354228,95.1015443 L692.090981,95.1015443 L692.090981,123.313213 L726.618509,123.313213 L726.618509,95.1015443 L735.319305,95.1015443 L735.319305,160.669101 L726.618509,160.669101 L726.618509,130.659749 L692.090981,130.659749 L692.090981,160.669101 L683.354228,160.669101 L683.354228,95.1015443 M758.209818,133.583988 L780.405236,133.583988 L769.499281,102.98739 L769.307532,102.98739 L758.209818,133.583988 L755.45337,140.930524 L748.082867,160.669101 L739.094442,160.669101 L764.717445,95.1015443 L774.365018,95.1015443 L800,160.669101 L790.328459,160.669101 L783.161685,140.930524 L755.45337,140.930524 L758.209818,133.583988 M490.797772,285.259485 L488.223469,284.87348 C480.718838,283.649152 458.551908,279.32695 444.953333,269.275943 L480.79656,269.275943 C483.316523,269.277493 485.651039,267.951749 486.94066,265.786779 C487.153976,265.419834 487.211308,264.982697 487.099831,264.573154 C486.988355,264.163612 486.717372,263.815841 486.347503,263.607638 L484.003419,262.278584 C483.314517,261.886491 482.459395,262.046468 481.954817,262.623416 L481.783042,262.859054 C481.577127,263.204032 481.204663,263.414974 480.802904,263.414148 L436.98218,263.414148 L436.98218,253.412936 L467.023879,253.412936 C469.543675,253.41385 471.877898,252.088272 473.16798,249.923772 C473.381295,249.556827 473.438627,249.11969 473.32715,248.710147 C473.215674,248.300605 472.944691,247.952834 472.574822,247.744631 L470.227566,246.412405 C469.537729,246.022401 468.683356,246.183498 468.178937,246.760457 L468.007189,246.996047 C467.800816,247.340555 467.428643,247.551332 467.027051,247.551141 L436.98218,247.551141 L436.98218,238.850435 L462.326196,238.850435 C464.845991,238.85135 467.180215,237.525771 468.470296,235.361272 C468.688532,234.996879 468.748132,234.559048 468.635239,234.14958 C468.522849,233.738308 468.249604,233.389606 467.877139,233.18213 L465.529883,231.849904 C464.839842,231.461485 463.986478,231.622487 463.48153,232.198395 L463.309506,232.433546 C463.103591,232.778524 462.731127,232.989466 462.329368,232.98864 L436.98218,232.98864 L436.98218,224.287935 L462.326196,224.287935 C464.845991,224.288849 467.180215,222.96327 468.470296,220.798771 C468.688175,220.434253 468.747755,219.996572 468.635239,219.58708 C468.522849,219.175807 468.249604,218.827106 467.877139,218.61963 L465.529883,217.287403 C464.839842,216.898985 463.986478,217.059986 463.48153,217.635894 L463.309506,217.871045 C463.103591,218.216023 462.731127,218.426966 462.329368,218.42614 L436.98218,218.42614 L436.98218,209.725434 L467.023879,209.725434 C469.543675,209.726349 471.877898,208.40077 473.16798,206.23627 C473.381295,205.869325 473.438627,205.432188 473.32715,205.022646 C473.215674,204.613103 472.944691,204.265332 472.574822,204.057129 L470.227566,202.724903 C469.979478,202.58589 469.699923,202.512725 469.415543,202.512381 C468.934073,202.511347 468.481635,202.721108 468.171856,203.077573 L468.004017,203.308545 C467.798102,203.653523 467.425638,203.864465 467.023879,203.863639 L436.747454,203.863639 C436.672244,203.787677 436.582775,203.727313 436.484181,203.686009 C439.27753,202.480149 441.656994,200.483296 443.329286,197.941577 C444.79771,195.597742 445.585165,192.891621 445.603586,190.12585 C445.609071,189.843132 445.464186,189.578718 445.22295,189.431189 L434.812554,183.046019 C434.431368,182.812177 433.933265,182.924743 433.689678,183.299777 L420.709989,203.619398 L419.891621,203.619398 C419.673686,203.618932 419.464639,203.705749 419.311152,203.860467 L404.555161,203.860467 L404.555161,197.456266 C404.550318,197.397995 404.538606,197.340501 404.520269,197.284979 C407.099078,194.461929 409.804766,191.353401 412.630989,187.899129 C412.794037,187.700992 412.849728,187.435572 412.780071,187.188608 C412.709283,186.93953 412.522659,186.739913 412.278901,186.652546 L392.977481,179.626639 C392.886982,179.593673 392.791491,179.575866 392.695176,179.575866 C392.54435,179.575866 392.396156,179.615415 392.266961,179.69325 C392.054713,179.820986 391.914015,180.04024 391.886325,180.286408 C389.23146,195.847268 382.010755,210.2677 371.14166,221.715469 C370.890541,221.977685 370.852471,222.378076 371.049673,222.682919 C371.201343,222.915335 371.460466,223.055047 371.73799,223.054039 C371.820839,223.053504 371.903149,223.040676 371.982232,223.015976 C377.857344,220.635217 383.279885,217.263028 388.013353,213.046484 L388.013353,255.081391 C388.013353,255.33099 388.13087,255.566024 388.33055,255.715784 C388.475981,255.8307 388.655883,255.893275 388.841236,255.893414 L389.009351,255.874382 L401.043793,253.365356 L419.095458,253.365356 L419.095458,263.366568 L367.801579,263.366568 C366.915996,263.359471 366.189991,264.067079 366.17436,264.952552 L366.17436,267.61066 C366.189991,268.496134 366.915996,269.203741 367.801579,269.196644 L402.594885,269.196644 C393.066809,282.923377 380.124748,293.914609 365.059187,301.094258 L363.436952,301.848872 C363.036919,301.980862 362.793069,302.385033 362.862826,302.800462 C362.946009,303.171518 363.275553,303.435153 363.655818,303.434856 L363.795385,303.434856 C383.929081,299.27519 402.838789,290.547966 419.06691,277.925897 L419.06691,304.681439 C419.06744,304.920543 419.175828,305.146643 419.361903,305.2968 C419.50874,305.413985 419.691068,305.477603 419.878934,305.477603 L420.03436,305.477603 L436.309723,302.365903 C436.688801,302.297107 436.964868,301.967695 436.96632,301.582427 L436.96632,272.000663 C446.263738,286.983693 460.45696,298.290082 477.139282,304.002638 C477.471479,304.115068 477.838417,304.004222 478.052809,303.726677 L491.330663,286.496552 C491.505094,286.271113 491.543926,285.968951 491.432166,285.706732 C491.3098,285.460082 491.071197,285.291866 490.797772,285.259485 Z M419.079598,233.029876 L404.555161,233.029876 L404.555161,224.32917 L419.079598,224.32917 L419.079598,233.029876 Z M419.079598,209.782529 L419.079598,218.483235 L404.555161,218.483235 L404.555161,209.782529 L419.079598,209.782529 Z M404.555161,247.579689 L404.555161,238.878983 L419.079598,238.878983 L419.079598,247.579689 L404.555161,247.579689 Z M713.612596,182.433719 C713.826824,182.431293 714.033241,182.514185 714.186214,182.664183 C714.339188,182.81418 714.426119,183.018929 714.427791,183.233165 L714.427791,206.813568 L715.832973,206.813568 L716.964504,204.417227 C718.03715,202.107028 718.607884,200.758097 718.636992,200.685328 C718.734043,200.458503 718.928953,200.288103 719.16671,200.222221 C719.240012,200.20157 719.315765,200.190901 719.39192,200.190501 C719.562478,200.190633 719.728766,200.243845 719.867715,200.342756 L734.7601,210.883202 C735.11263,211.128713 735.203003,211.611641 734.963106,211.968015 C729.031014,220.737584 722.352459,228.978325 715.001917,236.598339 C715.71561,236.569791 716.426131,236.550759 717.114447,236.550759 C727.382105,236.550759 734.779132,239.630739 738.503021,245.460815 C740.117334,248.04121 740.982707,251.019498 741.002824,254.063189 C741.008016,254.345907 740.863131,254.610321 740.621895,254.75785 L729.104483,261.82182 C728.974494,261.900873 728.825235,261.942578 728.673095,261.942355 C728.612168,261.942038 728.551487,261.934586 728.492293,261.920151 C728.283346,261.874225 728.100965,261.747698 727.984778,261.568063 L714.415104,240.344432 L714.415104,300.170902 C714.412285,300.562951 714.126604,300.895574 713.739475,300.95755 L697.464112,303.694957 L697.327717,303.694957 C697.13686,303.694957 696.95189,303.628874 696.804343,303.507811 C696.621632,303.358389 696.515671,303.134823 696.515694,302.898793 L696.515694,253.362184 C689.832146,258.782734 682.652949,263.561785 675.073197,267.636036 C674.959487,267.69099 674.834711,267.7192 674.70842,267.718507 C674.444662,267.719328 674.196677,267.592974 674.042307,267.379107 C673.811,267.055781 673.857278,266.610697 674.150154,266.341873 C692.363589,249.552652 705.94278,226.24821 713.047986,212.389886 L679.716956,212.389886 C679.273212,212.393411 678.91016,212.03745 678.904933,211.593723 L678.904933,207.60656 C678.91016,207.162833 679.273212,206.806871 679.716956,206.810396 L696.52521,206.810396 L696.52521,185.45037 C696.527718,185.236686 696.615018,185.032752 696.7679,184.883439 C696.920782,184.734127 697.126721,184.651668 697.340405,184.654207 L713.612596,182.433719 Z M772.474788,182.433719 C772.689016,182.431293 772.895433,182.514185 773.048406,182.664183 C773.20138,182.81418 773.288312,183.018929 773.289983,183.233165 L773.289983,227.685111 L791.160846,227.685111 C791.482253,227.685772 791.784911,227.550901 791.998547,227.320298 L792.140983,227.130017 C792.600986,226.366354 793.585294,226.107621 794.36136,226.546375 L796.711788,227.878601 C797.081658,228.086805 797.35264,228.434575 797.464117,228.844118 C797.575593,229.25366 797.518261,229.690798 797.304946,230.057743 C796.015325,232.222712 793.680809,233.548457 791.160846,233.546906 L773.289983,233.546906 L773.289983,295.057691 L793.08623,295.057691 C793.407637,295.058352 793.710295,294.923481 793.923931,294.692877 L794.066367,294.502597 C794.527425,293.740079 795.511494,293.482815 796.286744,293.922127 L798.634,295.254353 C799.376316,295.683399 799.643257,296.624717 799.236674,297.379571 C797.946592,299.54407 795.612369,300.86884 793.092574,300.86884 L726.798463,300.86884 C725.91288,300.875832 725.186874,300.168224 725.171244,299.282751 L725.171244,296.624643 C725.186874,295.739169 725.91288,295.031562 726.798463,295.038659 L755.38423,295.038659 L755.38423,233.524703 L731.626197,233.524703 C730.740614,233.5318 730.014608,232.824192 729.998978,231.938719 L729.998978,229.280611 C730.014608,228.395137 730.740614,227.68753 731.626197,227.694627 L755.38423,227.694627 L755.38423,185.45037 C755.386739,185.236686 755.474038,185.032752 755.62692,184.883439 C755.779802,184.734127 755.985741,184.651668 756.199425,184.654207 L772.474788,182.433719 Z M588.890853,211.650707 C589.334597,211.647293 589.697649,212.003255 589.702876,212.446982 L589.702876,225.851714 L605.362877,225.851714 C605.421807,225.535768 605.664234,225.285844 605.978239,225.217321 L620.886484,222.016806 C620.943745,222.003975 621.002262,221.997592 621.060942,221.997774 C621.245878,221.997255 621.425664,222.058672 621.571629,222.172233 C621.771309,222.321993 621.888825,222.557026 621.888825,222.806626 L621.888825,257.647512 L637.276037,257.647512 C637.597445,257.648173 637.900103,257.513302 638.113738,257.282698 L638.256175,257.092418 C638.717233,256.3299 639.701302,256.072636 640.476552,256.511948 L642.820636,257.841002 C643.193101,258.048478 643.466346,258.397179 643.578736,258.808452 C643.691629,259.21792 643.632029,259.65575 643.413794,260.020143 C642.123712,262.184643 639.789489,263.510221 637.269694,263.509307 L592.484691,263.509307 C603.510449,281.909888 642.731821,287.613084 643.049017,287.651148 C643.321119,287.682221 643.559434,287.84785 643.683411,288.092051 C643.794482,288.354365 643.755697,288.656166 643.581908,288.881871 L631.569669,306.181779 C631.417389,306.378417 631.183953,306.495135 630.935275,306.498976 C630.84579,306.497428 630.757044,306.482458 630.672002,306.454568 C605.46438,298.749861 591.269828,276.355773 585.969471,266.230855 C573.047448,297.828023 534.86384,303.513768 524.084735,304.50463 L521.182044,304.706815 C520.81043,304.708453 520.485125,304.457615 520.392225,304.097797 C520.299836,303.722524 520.491436,303.335306 520.845816,303.181098 C556.873017,287.146805 567.388088,270.719188 570.401457,263.461727 L522.60943,263.461727 C521.723847,263.468825 520.997841,262.761217 520.982211,261.875744 L520.982211,259.217636 C520.997841,258.332162 521.723847,257.624554 522.60943,257.631652 L539.620689,257.631652 L539.620689,225.994453 C539.622755,225.617677 539.88666,225.293074 540.255082,225.214149 L555.163327,222.013634 C555.220588,222.000803 555.279105,221.99442 555.337785,221.994603 C555.522762,221.993837 555.702625,222.055281 555.848472,222.169061 C556.048152,222.318821 556.165669,222.553854 556.165669,222.803454 L556.165669,225.851714 L571.800294,225.851714 L571.800294,212.446982 C571.802803,212.233298 571.890103,212.029364 572.042985,211.880051 C572.195867,211.730738 572.401806,211.648279 572.61549,211.650707 L588.890853,211.650707 Z M605.337502,231.719853 L589.702876,231.719853 L589.702876,257.6602 L605.337502,257.6602 L605.337502,231.719853 Z M571.806638,231.719853 L556.172013,231.719853 L556.172013,257.6602 L571.806638,257.6602 L571.806638,231.719853 Z M566.696599,181.799436 C566.881995,181.799436 567.061976,181.86193 567.207286,181.977067 C567.406966,182.126827 567.524483,182.36186 567.524483,182.61146 L567.524483,199.165956 L593.585364,199.165956 L593.585364,185.811975 C593.587718,185.435961 593.851827,185.112427 594.219757,185.034843 L609.128002,181.834328 C609.185288,181.821651 609.243788,181.815269 609.30246,181.815296 C609.487856,181.815187 609.667837,181.87779 609.813147,181.992926 C610.012827,182.142686 610.130344,182.37772 610.130344,182.62732 L610.130344,199.181816 L637.272866,199.181816 C637.594273,199.182477 637.896931,199.047606 638.110566,198.817002 L638.253003,198.626721 C638.714061,197.864204 639.69813,197.60694 640.47338,198.046251 L642.820636,199.378478 C643.193101,199.585954 643.466346,199.934655 643.578736,200.345928 C643.691629,200.755395 643.632029,201.193226 643.413794,201.557619 C642.123712,203.722119 639.789489,205.047697 637.269694,205.046783 L610.127172,205.046783 L610.127172,216.465864 C610.124818,216.841878 609.860708,217.165412 609.492778,217.242996 L594.584533,220.443511 L594.410075,220.462543 C594.224722,220.462543 594.044819,220.399828 593.899388,220.284912 C593.699708,220.135152 593.582192,219.900119 593.582192,219.650519 L593.582192,205.018235 L567.508623,205.018235 L567.508623,216.437316 C567.506269,216.81333 567.242159,217.136864 566.874229,217.214448 L551.965984,220.414963 L551.791526,220.433995 C551.606173,220.433855 551.426271,220.371281 551.28084,220.256365 C551.08116,220.106605 550.963643,219.871571 550.963643,219.621971 L550.963643,204.989687 L522.606258,204.989687 C521.723192,204.988014 521.005306,204.277193 520.994898,203.394188 L520.994898,200.73608 C521.010529,199.850606 521.736535,199.142998 522.622117,199.150096 L550.979503,199.150096 L550.979503,185.796115 C550.981857,185.420101 551.245966,185.096567 551.613896,185.018983 L566.522141,181.818468 C566.579419,181.80574 566.637924,181.799436 566.696599,181.799436 Z" id="Combined-Shape"></path>
                </g>
            </g>
        </g>
    </g>
</svg>