<?xml version="1.0" encoding="UTF-8"?>
<svg width="800px" height="400px" viewBox="0 0 800 400" version="1.1" xmlns="http://www.w3.org/2000/svg" xmlns:xlink="http://www.w3.org/1999/xlink">
    <title>southpeakgames</title>
    <g id="Page-1" stroke="none" stroke-width="1" fill="none" fill-rule="evenodd">
        <g id="AF150_INCREMENTAL" fill="#000000" transform="translate(-0.000000, 0.000000)">
            <g id="southpeakgames" transform="translate(0.000000, 0.000000)">
                <line x1="0" y1="0" x2="800" y2="400" id="Path" fill-rule="nonzero"></line>
                <path d="M29.6757353,60.5138775 C10.2590325,64.7185641 -1.04597952,84.9773371 1.97615865,110.15385 C4.01902839,127.173359 8.41440802,136.628082 27.4125931,164.863236 C44.1482654,189.737032 46.7965697,196.337024 46.8878255,213.403734 C46.9218104,219.743805 46.6524486,224.451972 46.160297,226.114714 C43.3634661,235.568179 30.4655694,235.356088 27.8153771,225.813885 C27.4276975,224.417987 27.1639999,214.901587 27.1621119,202.232774 L27.1583358,180.992215 L13.5788532,180.992215 L0,180.992215 L0.255516055,203.806148 C0.472641767,223.208376 0.678439181,227.23181 1.63379231,230.710856 C5.33436966,244.190272 13.3258546,252.408323 25.899636,255.664579 C31.4549075,257.103273 43.7052031,257.12593 49.0125107,255.707375 C64.8954138,251.46241 74.2066455,238.276901 76.1525953,217.277383 C77.2036096,205.937127 75.7712093,194.802669 71.896302,184.184907 C68.3826416,174.556483 64.775208,168.478851 46.1905058,140.868642 C33.6016199,122.165622 30.8110825,114.830549 30.6915061,100.120754 C30.626683,92.1947216 30.7607345,91.0241308 32.0225811,88.4639354 C32.794164,86.8987423 34.2536264,85.1290104 35.2662504,84.5304986 C37.3248539,83.3145947 42.8857895,83.0584492 44.8147469,84.0912124 C47.7374478,85.6551469 47.9268821,87.1448181 47.9268821,108.58551 L47.9268821,128.756174 L61.5063647,128.756174 L75.0864766,128.756174 L74.8378834,106.256916 C74.6232751,86.7697255 74.4388756,83.2944555 73.4602365,80.2962326 C69.8635019,69.2725399 63.9067052,63.5051775 53.3216694,60.7977143 C47.3705368,59.2759463 36.0214703,59.1393774 29.6757353,60.5138775 M457.78911,158.139262 L457.948335,253.052777 L471.794033,253.052777 L485.63973,253.052777 L485.802732,218.972222 L485.965104,184.892296 L502.165829,184.621046 C521.461067,184.29819 523.393171,183.870861 528.463843,178.810888 C534.57609,172.712488 534.999642,169.150997 535.024187,123.646482 C535.045585,84.9137727 534.719581,80.1936486 531.596747,74.0316838 C529.593527,70.0787371 525.76645,66.8621298 520.96514,65.0961741 C517.201627,63.7122336 516.379067,63.6719553 487.368554,63.4516828 L457.629884,63.2257462 L457.78911,158.139262 M485.954405,124.350725 L485.954405,158.964969 L493.727506,158.964969 C502.696371,158.964969 505.263489,158.323661 505.94004,155.912622 C506.544216,153.760875 506.554915,94.9764481 505.951369,92.8335117 C505.238944,90.3041545 503.068317,89.7364809 494.106374,89.7364809 L485.954405,89.7364809 L485.954405,124.350725 M125.022244,93.2941959 C108.87879,95.8600554 98.7494031,104.93591 95.2772798,119.945276 C94.2885711,124.219191 94.1847254,129.511394 94.1847254,175.957416 C94.1847254,222.564551 94.2829069,227.607532 95.2684689,231.167135 C98.7374455,243.701267 107.02976,251.82051 118.940836,254.344833 C124.395411,255.500948 132.173546,255.491508 138.28831,254.321547 C151.072294,251.875893 159.407404,244.301667 162.887709,231.969556 C163.966415,228.147514 164.041307,224.387148 164.033096,174.698716 L164.023056,121.51865 L162.604502,116.49518 C159.408033,105.171916 151.621087,97.2899383 140.755991,94.3810831 C137.313447,93.4597149 128.020466,92.8171486 125.022244,93.2941959 M185.28753,161.311815 C185.473818,223.754022 185.567591,228.772458 186.615459,232.244582 C190.304078,244.465298 197.77635,252.031342 209.040454,254.950896 C214.912918,256.473294 227.883819,256.000652 233.5851,254.05659 C244.468447,250.345943 251.008651,242.260685 254.251062,228.508132 C255.180612,224.563996 255.290118,217.313256 255.293265,159.279644 L255.297671,94.4566051 L242.252506,94.2866806 L229.207342,94.1154975 L229.036159,160.997769 C228.870639,225.616269 228.824068,227.946122 227.65977,229.870674 C226.095206,232.455414 224.285196,233.228256 219.794785,233.228256 C215.741142,233.228256 213.325697,231.888999 211.982665,228.897699 C211.437648,227.683054 211.160104,209.769239 210.928503,160.853018 L210.613829,94.4566051 L197.850613,94.2860513 L185.086768,94.1154975 L185.28753,161.311815 M274.492842,106.099578 L274.492842,118.057226 L286.135815,118.057226 L297.778788,118.057226 L297.778788,186.039601 L297.778788,254.022605 L310.837798,253.852052 L323.896809,253.682127 L324.056664,185.869677 L324.217148,118.057226 L336.171649,118.057226 L348.126779,118.057226 L348.126779,106.099578 L348.126779,94.1419302 L311.309811,94.1419302 L274.492842,94.1419302 L274.492842,106.099578 M366.668056,94.9286175 C366.503796,95.3616102 366.441491,131.25784 366.530858,174.698716 L366.692601,253.682127 L379.594274,253.682127 L392.495947,253.682127 L392.658319,217.966521 L392.82132,182.250915 L399.10412,182.250915 L405.38692,182.250915 L405.549922,217.966521 L405.712294,253.682127 L418.771304,253.852052 L431.830315,254.022605 L431.830315,174.081953 L431.830315,94.1419302 L418.928642,94.1419302 L406.026969,94.1419302 L406.026969,125.29475 L406.026969,156.447569 L399.418795,156.447569 L392.810622,156.447569 L392.810622,125.29475 L392.810622,94.1419302 L379.889439,94.1419302 C370.131369,94.1419302 366.894622,94.3345112 366.668056,94.9286175 M555.182893,174.069366 L555.182893,253.996802 L583.503638,253.996802 L611.824383,253.996802 L611.824383,241.095129 L611.824383,228.193457 L596.719986,228.193457 L581.615588,228.193457 L581.615588,205.851536 L581.615588,183.509614 L595.146611,183.509614 L608.677634,183.509614 L608.677634,170.922617 L608.677634,158.335619 L595.146611,158.335619 L581.615588,158.335619 L581.615588,138.825772 L581.615588,119.315926 L596.719986,119.315926 L611.824383,119.315926 L611.824383,106.728928 L611.824383,94.1419302 L583.503638,94.1419302 L555.182893,94.1419302 L555.182893,174.069366 M652.712616,94.2992676 C652.701917,94.3861179 647.660824,130.220671 641.510188,173.932797 C635.358922,217.644294 630.458804,253.541153 630.620547,253.702896 C631.158641,254.24099 655.169598,254.007182 655.507559,253.459337 C655.69007,253.163543 658.463615,228.932313 661.670782,199.612161 C664.877949,170.292637 667.70373,146.815998 667.950436,147.442202 C668.196511,148.068405 671.260816,172.067404 674.758743,200.773311 C678.257299,229.478589 681.262444,253.197528 681.438033,253.481365 C681.874173,254.187495 706.856216,254.140294 706.856216,253.432905 C706.856216,253.122635 704.460911,237.333505 701.533804,218.346648 C698.606069,199.359162 693.223239,164.424579 689.571122,140.713822 C685.919004,117.003065 682.769108,96.8248487 682.570863,95.8726423 L682.211504,94.1419302 L667.47213,94.1419302 C659.364844,94.1419302 652.723315,94.2124173 652.712616,94.2992676 M725.891533,173.912029 L726.051388,253.682127 L738.953061,253.682127 L751.854733,253.682127 L752.169408,225.737104 L752.484083,197.791451 L761.227641,221.01698 C766.036504,233.790895 770.805088,246.436422 771.824635,249.11934 L773.677441,253.996802 L786.839035,253.996802 C797.587073,253.996802 800,253.838206 800,253.131446 C800,252.655028 793.101067,234.478145 784.669037,212.737882 L769.338073,173.209045 L777.760663,147.993512 C782.393307,134.124529 788.269547,116.334695 790.819673,108.45964 L795.456094,94.1419302 L782.149749,94.1419302 L768.842775,94.1419302 L760.663744,120.534347 L752.484083,146.926764 L752.319823,120.534347 L752.155563,94.1419302 L738.94362,94.1419302 L725.731678,94.1419302 L725.891533,173.912029 M124.342546,117.984851 C120.493442,120.332326 120.616794,118.43106 120.616794,175.328066 C120.616794,233.563699 120.370089,230.433942 125.084549,231.990324 C128.395559,233.082876 133.22519,232.464225 135.094359,230.708968 C138.266912,227.728367 138.238596,228.229959 138.238596,174.698716 C138.238596,120.842099 138.226634,120.635672 134.991775,118.091211 C132.794715,116.363016 127.095951,116.306375 124.342546,117.984851 M201.364903,284.790263 C189.176283,288.687197 182.362941,301.984731 184.512171,317.681976 C186.522944,332.365968 194.70701,340.236617 208.096429,340.361229 C214.313147,340.4185 217.439757,339.577688 221.569551,336.737432 L224.774201,334.532819 L224.774201,336.745614 L224.774201,338.959037 L229.809,338.959037 L234.843799,338.959037 L234.843799,323.85464 L234.843799,308.750242 L223.200826,308.750242 L211.557853,308.750242 L211.557853,314.099717 L211.557853,319.449191 L217.536677,319.449191 C224.314776,319.449191 224.789305,319.908616 222.099464,323.860933 C218.99614,328.420573 213.948124,330.253869 208.100205,328.945451 C201.050228,327.367671 197.712156,321.755129 197.712156,311.480992 C197.712156,300.327653 202.317738,294.885035 211.727778,294.918391 C216.471817,294.935383 219.947717,296.374077 222.632523,299.432088 L224.570921,301.639847 L229.710822,299.317546 C232.537861,298.040595 234.975963,296.870005 235.129524,296.716443 C235.527903,296.318694 231.650478,291.537523 229.381672,289.628075 C226.813295,287.467517 221.888002,285.04515 218.454269,284.253427 C213.987773,283.22444 205.421063,283.493173 201.364903,284.790263 M577.4323,284.873337 C567.990163,287.865896 562.925785,296.926017 565.584159,306.069212 C567.534514,312.778082 571.736054,315.175905 585.626435,317.507646 C594.543694,319.00424 597.149832,320.009312 597.689814,322.159801 C598.752786,326.394696 594.113848,329.75983 587.264004,329.723957 C582.761005,329.700671 579.204549,328.434419 574.444146,325.158653 L571.636617,323.227178 L566.885025,326.215331 C564.271964,327.859193 562.132174,329.487321 562.130914,329.833464 C562.127769,330.564139 565.715063,333.620262 569.343266,335.979065 C578.21647,341.746428 594.43167,341.948449 603.080196,336.398842 C612.293878,330.486729 613.360626,315.874483 604.968245,310.541372 C601.503045,308.339277 598.077493,307.290151 588.853112,305.605381 C579.821312,303.955855 576.847634,301.726698 578.689111,297.985213 C581.266929,292.745875 593.321496,293.32173 598.560205,298.934272 C599.399758,299.832984 600.340006,300.568694 600.650276,300.568694 C601.355148,300.568694 608.889095,295.222367 609.899202,294.005204 C610.506524,293.273899 610.033883,292.62504 607.344671,290.499725 C605.529625,289.064807 603.016631,287.366821 601.760449,286.726143 C595.374436,283.467999 584.482277,282.638516 577.4323,284.873337 M296.206043,285.600865 C295.721443,286.945786 285.293745,315.405618 281.95882,324.48399 C280.242583,329.156913 278.301039,334.325763 277.643997,335.969625 L276.45075,338.959037 L283.602053,338.959037 L290.753355,338.959037 L292.114639,334.868263 L293.475923,330.777489 L303.687754,330.777489 L313.899586,330.777489 L315.156397,334.710925 L316.413838,338.644362 L323.45941,338.822468 C327.334318,338.920017 330.504982,338.78156 330.504982,338.514087 C330.504982,338.09431 322.330986,316.193564 313.289116,292.387145 L310.540116,285.149622 L303.518459,284.971516 C298.245766,284.838093 296.423798,284.994802 296.206043,285.600865 M373.300775,311.896992 L373.300775,338.959037 L379.279599,338.959037 L385.258423,338.959037 L385.258423,318.064621 C385.258423,306.572692 385.497576,297.438937 385.789594,297.768087 C386.082242,298.096608 388.507756,306.720589 391.179976,316.931791 C393.852196,327.142993 396.255683,336.205631 396.520639,337.070987 C396.985729,338.585833 397.223623,338.650656 402.931197,338.821839 L408.859044,338.999316 L413.844124,319.311992 C416.586202,308.484027 419.04633,299.058254 419.311287,298.365969 C419.576243,297.673684 419.81099,306.523603 419.833018,318.033153 L419.872667,338.959037 L426.166166,338.959037 L432.459665,338.959037 L432.459665,311.896992 L432.459665,284.834947 L422.768306,284.834947 L413.076947,284.834947 L408.221512,304.713592 C405.551181,315.646659 403.16091,324.355602 402.909799,324.066101 C402.658689,323.7766 401.30244,318.725438 399.895843,312.841017 C398.488616,306.956595 396.402951,298.248281 395.260681,293.488508 L393.184455,284.834947 L383.242615,284.834947 L373.300775,284.834947 L373.300775,311.896992 M480.290256,311.896992 L480.290256,338.959037 L501.058803,338.959037 L521.827349,338.959037 L521.827349,333.924238 L521.827349,328.889439 L507.666976,328.889439 L493.506604,328.889439 L493.506604,322.281265 L493.506604,315.673091 L505.778927,315.673091 L518.05125,315.673091 L518.05125,310.638292 L518.05125,305.603493 L505.778927,305.603493 L493.506604,305.603493 L493.506604,300.254019 L493.506604,294.904545 L506.722952,294.904545 L519.939299,294.904545 L519.939299,289.869746 L519.939299,284.834947 L500.114778,284.834947 L480.290256,284.834947 L480.290256,311.896992 M300.046965,308.916391 C298.352126,314.536485 296.834763,319.48884 296.675538,319.921203 C296.454636,320.520973 298.04815,320.70789 303.375597,320.70789 C308.281379,320.70789 310.365786,320.488877 310.365786,319.974068 C310.365786,319.570026 309.073101,315.109194 307.494062,310.061808 C305.914394,305.013792 304.478847,300.387441 304.304517,299.782007 C304.130187,299.176572 303.794114,298.68442 303.558108,298.689417 C303.321473,298.69449 301.741804,303.296926 300.046965,308.916391" id="Shape"></path>
            </g>
        </g>
    </g>
</svg>