<?xml version="1.0" encoding="UTF-8"?>
<svg width="800px" height="400px" viewBox="0 0 800 400" version="1.1" xmlns="http://www.w3.org/2000/svg" xmlns:xlink="http://www.w3.org/1999/xlink">
    <title>southpeakinteractive</title>
    <g id="Page-1" stroke="none" stroke-width="1" fill="none" fill-rule="evenodd">
        <g id="AF150_INCREMENTAL" fill="#000000" transform="translate(-0.000000, 0.000000)">
            <g id="southpeakinteractive" transform="translate(0.000000, 0.000000)">
                <line x1="0" y1="0" x2="800" y2="400" id="Path" fill-rule="nonzero"></line>
                <path d="M392.649902,8.38933956 C374.663506,9.63544455 359.007957,13.7316474 343.625762,21.2164658 C316.916631,34.2126617 295.832554,55.3439433 282.931249,82.0468122 C275.567091,97.2888389 271.453548,113.032535 270.28403,130.450067 C269.932645,135.682552 270.120982,146.492886 270.651311,151.529809 C272.267105,166.873952 276.281904,181.365522 282.528083,194.399289 L284.086076,197.650626 L284.48009,196.79733 C284.696845,196.328174 293.002446,178.040247 302.937086,156.158027 C312.871727,134.275566 321.054258,116.373223 321.120489,116.37515 C321.18672,116.376836 324.546435,124.50277 328.586522,134.432594 C332.626609,144.362417 335.987288,152.488351 336.054964,152.490037 C336.122399,152.491723 338.451319,147.941297 341.23061,142.377898 C344.009901,136.814499 346.352068,132.262627 346.435639,132.262627 C346.519211,132.262627 348.837053,134.979782 351.586721,138.300962 C354.336147,141.621902 356.664105,144.250186 356.759718,144.141327 C356.855331,144.032467 365.580234,122.863855 376.148765,97.1000205 C386.717055,71.3361859 395.484827,50.0259603 395.632461,49.7441777 C395.865113,49.3007917 397.590007,53.238522 408.424907,78.9450368 C415.312924,95.2872196 421.00734,108.658644 421.079351,108.659366 C421.151121,108.659848 423.963648,104.651311 427.329384,99.7514256 L433.448641,90.8425216 L435.38716,94.5427838 C436.453358,96.5778799 441.985929,107.19506 447.68179,118.136411 C453.37765,129.077762 458.119545,138.005693 458.219252,137.976069 C458.318719,137.946205 460.283731,135.158485 462.585677,131.780707 C464.887624,128.40317 466.8654,125.651576 466.980522,125.666508 C467.095643,125.681199 477.891527,142.527941 490.971535,163.103605 C504.051302,183.67951 514.85706,200.618012 514.983982,200.744935 C515.280215,201.041168 519.466492,192.483408 521.494604,187.435647 C525.394041,177.729564 528.271113,166.938497 529.655219,156.828284 C530.601478,149.915219 530.765978,147.206254 530.765978,138.644881 C530.765978,129.801245 530.583175,126.974749 529.553585,119.790017 C524.297497,83.1091565 503.487737,50.3556699 472.367866,29.7826549 C453.531065,17.3297936 432.326568,10.1289252 409.629106,8.47748692 C406.600546,8.25711853 395.398365,8.19907614 392.649902,8.38933956 M25.3306766,211.720981 C14.6898279,214.029392 6.11365121,221.060455 2.88187583,230.125102 C2.14933567,232.179191 1.99918974,233.243441 1.88046201,237.224293 C1.66946399,244.27619 2.77207749,248.826869 5.72406552,253.08883 C9.21247799,258.124672 11.7937312,260.081199 24.6695715,267.448271 C34.5358788,273.093295 36.5129104,274.416167 38.9572464,277.007011 C42.0898064,280.327749 43.2281375,283.870069 42.48303,287.978908 C41.6893071,292.356621 38.8292586,296.127136 34.8851169,297.996353 C32.8445874,298.963373 32.5310668,299.014634 28.7658435,298.998429 C25.3280308,298.983216 24.498921,298.867134 22.5675285,298.130956 C19.2302541,296.858353 16.8758733,295.32283 14.0052419,292.547115 L11.4203507,290.047218 L9.98900363,291.72032 C9.20189501,292.640377 6.63221688,295.683312 4.27882827,298.481847 L0,303.570604 L1.98100026,305.375001 C8.15285782,310.997205 15.1935113,314.009053 23.8044134,314.710836 C32.3574399,315.40799 40.3088905,313.447825 46.6642965,309.075403 C51.2897172,305.892905 56.0722288,299.918486 58.0022985,294.912409 C60.4922736,288.453158 60.6811135,280.587694 58.502344,274.097024 C56.4578459,268.006192 52.2454919,263.437986 43.8135082,258.166673 C42.267402,257.199985 37.6866282,254.503311 33.634011,252.173403 C24.700659,247.038346 23.8702263,246.476787 21.7079926,244.110831 C16.2071617,238.092427 19.6892905,229.090286 28.2836567,227.109616 C30.4419218,226.612216 34.1300879,226.680675 36.385584,227.259762 C39.2975552,228.007846 41.4366386,229.155437 44.1263673,231.41391 C45.4475853,232.523138 46.6361855,233.305285 46.7678112,233.151502 C46.899437,232.997718 49.1906506,230.391661 51.8592134,227.35997 C54.5281069,224.328609 56.7115065,221.701717 56.7115065,221.522468 C56.7115065,221.018123 53.1857229,218.091931 50.3584155,216.250824 C44.8248435,212.64633 39.5644445,211.205061 32.0730225,211.240132 C29.4520831,211.253015 26.5262218,211.461368 25.3306766,211.720981 M470.108889,263.62881 L470.108889,313.071137 L478.542195,313.071137 L486.975502,313.071137 L486.975502,298.075726 L486.975502,283.080314 L493.176463,282.867001 C496.587157,282.749597 500.683759,282.422517 502.280465,282.140414 C510.571563,280.675334 517.936651,276.880015 523.709332,271.098405 C529.395696,265.403112 532.463435,259.108227 533.260796,251.499731 C535.176645,233.217314 520.534771,217.093824 499.708141,214.551596 C498.000314,214.343243 491.057553,214.187806 483.420285,214.187475 L470.108889,214.186483 L470.108889,263.62881 M116.736806,226.226599 C110.011989,227.532935 104.418226,230.632093 99.4660559,235.79493 C88.8678699,246.844215 84.3376961,264.667595 87.8039504,281.677409 C91.3803339,299.226955 102.224574,311.499235 116.736806,314.420466 C119.563783,314.989632 125.823942,314.895377 128.942943,314.236587 C138.998421,312.113047 147.287865,305.184838 152.700725,294.380615 C158.901686,282.003166 159.931872,266.992542 155.525387,253.211196 C151.16421,239.570405 141.78505,229.725264 130.296241,226.728629 C126.8872,225.839329 120.036379,225.585668 116.736806,226.226599 M766.65206,245.328535 L751.549827,264.209551 L751.549827,245.977734 L751.549827,227.745917 L743.11652,227.745917 L734.683214,227.745917 L734.683214,270.243168 L734.683214,312.740419 L743.113874,312.740419 L751.544535,312.740419 L751.629861,293.766471 L751.715186,274.792193 L768.581799,294.750357 C777.858436,305.727215 785.597235,314.711167 785.77913,314.714154 C786.386328,314.725057 800,306.237182 800,305.847597 C800,305.636929 792.38522,297.316397 783.078157,287.35782 C773.771094,277.398912 766.126549,269.12435 766.08984,268.969574 C766.053461,268.814467 772.626479,261.024076 780.696657,251.657153 C788.767166,242.29056 795.369949,234.470735 795.369949,234.279911 C795.369949,233.969036 792.760916,232.449057 784.428147,227.905654 L781.753962,226.44785 L766.65206,245.328535 M185.250643,227.966506 C184.862711,228.354438 184.997313,278.675483 185.396159,282.384153 C187.078521,298.024795 196.412372,310.124771 209.572961,313.725628 C214.983505,315.205921 221.552224,315.205921 226.961447,313.725959 C237.232222,310.915187 245.595416,302.486841 249.195611,291.317836 C251.356853,284.613523 251.33701,284.945894 251.338002,255.030145 L251.338994,227.911276 L243.011848,227.822975 L234.685033,227.734673 L234.542824,253.122894 C234.419797,275.07165 234.325873,278.891772 233.849308,281.322218 C231.81407,291.70643 227.73698,296.782619 220.560401,297.867704 C215.875452,298.575771 210.988433,297.034295 208.087376,293.932823 C206.396084,292.124788 204.548363,288.700535 203.712639,285.825604 C202.182738,280.563221 202.142721,279.802569 201.995883,253.128517 L201.855989,227.745917 L193.663445,227.745917 C189.157744,227.745917 185.371686,227.845133 185.250643,227.966506 M277.961786,236.179224 L277.961786,244.612531 L288.544759,244.612531 L299.127732,244.612531 L299.127732,278.676475 L299.127732,312.740419 L307.561038,312.740419 L315.994345,312.740419 L315.994345,278.676475 L315.994345,244.612531 L326.577318,244.612531 L337.160291,244.612531 L337.160291,236.179224 L337.160291,227.745917 L307.561038,227.745917 L277.961786,227.745917 L277.961786,236.179224 M366.924902,270.243168 L366.924902,312.740419 L375.358209,312.740419 L383.791515,312.740419 L383.791515,295.377729 L383.791515,278.015039 L397.35095,278.015039 L410.910384,278.015039 L410.910384,295.377729 L410.910384,312.740419 L419.178331,312.740419 L427.446279,312.740419 L427.446279,270.243168 L427.446279,227.745917 L419.178331,227.745917 L410.910384,227.745917 L410.910384,244.447172 L410.910384,261.148426 L397.35095,261.148426 L383.791515,261.148426 L383.791515,244.447172 L383.791515,227.745917 L375.358209,227.745917 L366.924902,227.745917 L366.924902,270.243168 M561.717749,270.243168 L561.717749,312.740419 L585.038983,312.740419 L608.360218,312.740419 L608.271916,304.389792 L608.183615,296.039165 L593.383988,295.953178 L578.584362,295.866861 L578.584362,286.27968 L578.584362,276.692167 L590.490207,276.692167 L602.396051,276.692167 L602.396051,268.258861 L602.396051,259.825554 L590.490207,259.825554 L578.584362,259.825554 L578.584362,252.219042 L578.584362,244.612531 L592.639873,244.612531 L606.695384,244.612531 L606.695384,236.179224 L606.695384,227.745917 L584.206566,227.745917 L561.717749,227.745917 L561.717749,270.243168 M648.146574,269.333694 C639.77412,292.206806 632.962984,310.970748 633.01036,311.031269 C633.145871,311.203573 648.712102,314.724727 649.337489,314.724727 C649.776021,314.724727 650.48938,312.881305 652.665173,306.126061 L655.434605,297.527395 L670.198183,297.527395 L684.961761,297.527395 L686.696376,302.901561 C687.650828,305.857518 688.898627,309.726918 689.469446,311.500227 C690.338903,314.200208 690.617368,314.722412 691.181572,314.710175 C692.554382,314.68008 707.032551,311.193982 707.141638,310.867233 C707.246525,310.55239 677.780221,229.606867 677.093982,228.324674 C676.814525,227.802801 676.126632,227.745917 670.076479,227.745917 L663.368858,227.745917 L648.146574,269.333694 M486.975502,248.586437 L486.975502,265.85818 L493.176463,265.685214 C500.154611,265.490752 501.769837,265.16731 506.070162,263.102638 C510.882769,260.792573 514.418143,256.8018 515.570034,252.379441 C517.811309,243.774161 512.752317,235.969218 502.684603,232.500318 C500.223731,231.652357 499.582469,231.579269 493.507181,231.451942 L486.975502,231.314694 L486.975502,248.586437 M118.707554,242.758857 C116.00592,243.415001 113.896932,244.607239 111.661279,246.742023 C110.506743,247.844637 109.07771,249.572307 108.485725,250.581989 C101.1676,263.063613 102.544709,284.74118 111.213817,293.527693 C118.817022,301.23342 130.733119,299.521294 136.448586,289.902033 C139.358573,285.004101 141.044573,277.910863 141.044573,270.564957 C141.044573,263.235587 139.98859,258.095238 137.356406,252.608959 C136.073221,249.935105 135.267923,248.745182 133.639137,247.116065 C129.576929,243.054188 124.086681,241.45186 118.707554,242.758857 M665.526462,266.687951 L661.048872,280.495423 L665.621047,280.587032 C668.135826,280.637632 672.249295,280.637632 674.762421,280.587032 L679.331619,280.495423 L674.8451,266.695557 C672.377614,259.105912 670.278878,252.892384 670.181316,252.888083 C670.083754,252.884116 667.988987,259.094006 665.526462,266.687951 M452.169096,344.508189 C443.260548,345.534076 436.914733,351.757526 434.917527,361.427056 C434.258076,364.618153 434.230626,371.041356 434.862297,374.34159 C435.84949,379.502443 438.53062,384.553497 441.745529,387.30937 C445.611291,390.623163 449.939396,391.964886 455.879751,391.690721 C461.23242,391.443674 464.735715,390.135354 467.89341,387.203871 C470.878139,384.432785 472.846241,380.669877 473.563899,376.361946 L473.791102,374.997073 L471.701957,374.800957 C470.553043,374.692812 468.168898,374.508272 466.404187,374.391198 L463.195562,374.177554 L462.984564,375.125391 C462.18588,378.713019 460.782313,380.843504 458.451413,382.004985 C454.099496,384.173503 449.421492,382.186549 447.650828,377.417597 C446.662974,374.75631 446.239655,369.580906 446.638501,365.036511 C447.32011,357.271585 449.568,353.677012 454.059149,353.170683 C458.540707,352.665677 462.171659,356.44909 462.171659,361.624164 L462.171659,363.094866 L464.404005,362.894782 C465.631961,362.784653 468.247278,362.595813 470.216041,362.47477 L473.796063,362.254512 L473.56886,360.565205 C472.724206,354.281234 469.185524,348.689456 464.575648,346.353264 C461.37959,344.733739 456.504808,344.008805 452.169096,344.508189 M165.517698,367.962042 L165.517698,391.120563 L170.976858,391.120563 L176.436018,391.120563 L176.351024,368.052989 L176.266029,344.985415 L170.891864,344.894468 L165.517698,344.80352 L165.517698,367.962042 M192.636566,367.970309 L192.636566,391.120563 L196.935899,391.120563 L201.235231,391.120563 L201.236224,375.659501 L201.236885,360.198439 L210.069368,375.659501 L218.90152,391.120563 L223.62781,391.120563 L228.3541,391.120563 L228.3541,367.970309 L228.3541,344.820056 L224.058405,344.820056 L219.76271,344.820056 L219.676393,358.204871 L219.590075,371.590017 L211.983563,358.206194 L204.377051,344.822371 L198.506809,344.821048 L192.636566,344.820056 L192.636566,367.970309 M241.252098,349.612489 L241.252098,354.410875 L247.039661,354.410875 L252.827225,354.410875 L252.827225,372.765719 L252.827225,391.120563 L258.28407,391.120563 L263.740916,391.120563 L263.740916,372.773656 L263.740916,354.426419 L269.445799,354.336133 L275.150683,354.245516 L275.150683,349.615466 L275.150683,344.985415 L258.201391,344.899759 L241.252098,344.814103 L241.252098,349.612489 M288.103912,345.040645 C287.982538,345.161688 287.883323,355.579302 287.883323,368.190898 L287.883323,391.120563 L304.419218,391.120563 L320.955113,391.120563 L320.955113,386.66017 L320.955113,382.200109 L309.958743,382.112799 L298.962373,382.02582 L298.962373,377.065052 L298.962373,372.104283 L307.643718,372.015982 L316.325063,371.928011 L316.325063,367.639592 L316.325063,363.351172 L307.643718,363.263201 L298.962373,363.1749 L298.870433,358.627529 L298.778493,354.080157 L309.866803,354.080157 L320.955113,354.080157 L320.955113,349.450107 L320.955113,344.820056 L304.639807,344.820056 C295.666107,344.820056 288.224954,344.919271 288.103912,345.040645 M334.514547,367.930623 L334.514547,391.120563 L339.971393,391.120563 L345.428238,391.120563 L345.428238,382.015237 L345.428238,372.910243 L349.294661,373.003175 L353.161084,373.096437 L356.63263,382.1085 L360.104176,391.120563 L366.160282,391.120563 C369.491273,391.120563 372.216389,391.057396 372.216389,390.980338 C372.216389,390.90295 370.356101,386.418085 368.082415,381.013824 C365.808729,375.609562 363.948441,371.096255 363.948441,370.984142 C363.948441,370.872028 364.618476,370.424898 365.437002,369.990665 C368.520947,368.354604 371.019521,364.58012 371.545031,360.763966 C372.308328,355.218158 369.423807,349.091609 364.982265,346.825529 C361.830854,345.21791 360.564535,345.081323 347.164507,344.906373 L334.514547,344.741014 L334.514547,367.930623 M396.238415,347.376175 C395.776071,348.789663 392.780759,358.131452 389.582717,368.135668 C386.384344,378.139885 383.410859,387.404286 382.975304,388.722858 L382.183234,391.120563 L387.085466,391.120563 L391.987697,391.120563 L392.20994,390.211089 C392.331975,389.710712 392.95174,387.62752 393.587049,385.581038 L394.741916,381.860462 L402.132469,381.860462 L409.523022,381.860462 L410.216868,384.175487 C410.598186,385.448751 411.222581,387.532274 411.603899,388.805538 L412.297745,391.120563 L418.200729,391.120563 L424.103382,391.120563 L423.62781,389.549653 C423.365881,388.685818 420.115255,378.305244 416.403608,366.482079 L409.655309,344.985415 L403.36737,344.89579 L397.079099,344.805835 L396.238415,347.376175 M484.660477,349.615466 L484.660477,354.410875 L490.613399,354.410875 L496.566321,354.410875 L496.566321,372.765719 L496.566321,391.120563 L501.857808,391.120563 L507.149294,391.120563 L507.149294,372.765719 L507.149294,354.410875 L512.936858,354.410875 L518.724421,354.410875 L518.724421,349.615466 L518.724421,344.820056 L501.692449,344.820056 L484.660477,344.820056 L484.660477,349.615466 M530.630266,367.962042 L530.630266,391.120563 L536.089426,391.120563 L541.548587,391.120563 L541.463592,368.052989 L541.378598,344.985415 L536.004432,344.894468 L530.630266,344.80352 L530.630266,367.962042 M552.799269,345.068094 C552.805563,345.20435 555.897775,355.584924 559.670936,368.135668 L566.531348,390.955204 L572.475341,391.04086 L578.419003,391.126516 L585.177223,368.717401 C588.894162,356.392537 592.000595,345.96897 592.079968,345.554581 L592.224491,344.800874 L587.636773,344.893145 L583.049054,344.985415 L578.424956,360.942554 C575.881405,369.718815 573.713549,376.899693 573.607388,376.899693 C573.500897,376.899693 571.583395,370.39381 569.345757,362.44236 C567.108451,354.490578 565.066268,347.27266 564.807646,346.402541 L564.338027,344.820056 L558.563031,344.820056 C555.387147,344.820056 552.793326,344.931839 552.799269,345.068094 M604.049641,367.970309 L604.049641,391.120563 L620.585536,391.120563 L637.121431,391.120563 L637.121431,386.655871 L637.121431,382.191179 L626.042381,382.191179 L614.963332,382.191179 L614.963332,377.065052 L614.963332,371.938924 L623.727356,371.938924 L632.491381,371.938924 L632.491381,367.639592 L632.491381,363.340259 L623.727356,363.340259 L614.963332,363.340259 L614.963332,358.710208 L614.963332,354.080157 L626.042381,354.080157 L637.121431,354.080157 L637.121431,349.450107 L637.121431,344.820056 L620.585536,344.820056 L604.049641,344.820056 L604.049641,367.970309 M345.428238,359.185119 L345.428238,364.993848 L349.711366,364.993848 C356.436184,364.993848 358.282251,364.365815 359.694417,361.597706 C360.550976,359.918982 360.426626,357.151204 359.434803,355.823041 C357.850995,353.701485 357.470669,353.593341 351.192651,353.480235 L345.428238,353.376059 L345.428238,359.185119 M399.800246,365.191618 L397.453803,372.931078 L402.187368,372.931078 C405.82725,372.931078 406.889185,372.835501 406.783355,372.517681 C406.707951,372.290477 405.656599,368.830176 404.447164,364.828489 C403.238059,360.826803 402.225401,357.530207 402.19729,357.502426 C402.169509,357.474977 401.090708,360.935278 399.800246,365.191618" id="Shape"></path>
            </g>
        </g>
    </g>
</svg>