<?xml version="1.0" encoding="UTF-8"?>
<svg width="800px" height="400px" viewBox="0 0 800 400" version="1.1" xmlns="http://www.w3.org/2000/svg" xmlns:xlink="http://www.w3.org/1999/xlink">
    <title>warnerbros</title>
    <g id="Page-1" stroke="none" stroke-width="1" fill="none" fill-rule="evenodd">
        <g id="AF150_INCREMENTAL" fill="#000000" transform="translate(-0.000000, 0.000000)">
            <g id="warnerbros" transform="translate(0.000000, 0.000000)">
                <line x1="0" y1="0" x2="800" y2="400" id="Path" fill-rule="nonzero"></line>
                <path d="M314.093727,15.6296931 C310.329839,16.7285531 305.637198,18.0600898 303.665638,18.5880118 C301.694077,19.1165856 297.294726,20.4083653 293.889303,21.4596471 C290.48388,22.5109289 286.08453,23.7974945 284.112969,24.3182472 C279.870692,25.4399186 236.867205,39.4259423 235.985379,39.9714617 C235.651029,40.1780683 235.165471,44.1537775 234.906724,48.8060091 C234.629728,53.7951983 234.131787,57.5121606 233.693155,57.8667156 C233.284504,58.1971557 231.630348,58.9251667 230.017253,59.484373 C221.78558,62.3377591 201.683482,70.4371261 201.302205,71.0536869 C201.061707,71.4434368 200.716276,75.1336771 200.534436,79.2547278 C200.170105,87.5098644 200.021505,87.8207518 195.800084,89.1555473 C194.366221,89.6091692 192.606481,90.2394169 191.88955,90.5561701 C191.172619,90.8729234 186.479978,92.6267977 181.46146,94.4536687 C162.456266,101.371403 157.983268,103.120715 157.493799,103.829173 C156.233956,105.652134 158.280468,130.025838 160.974826,145.293214 C163.138655,157.552085 167.69964,175.231608 168.896264,176.000027 C169.239087,176.220321 171.766595,175.706737 174.513094,174.859455 C177.259592,174.012173 179.987189,173.318705 180.574421,173.318705 C181.162304,173.318705 182.28202,172.801211 183.062824,172.169008 L184.482999,171.018659 L183.182747,166.140269 C179.56811,152.574627 177.625227,137.545143 177.582863,122.817421 L177.550926,111.7467 L180.092773,110.545515 C181.490789,109.884635 186.036785,108.079272 190.194985,106.532655 C208.31705,99.7941542 214.075963,97.5032332 214.478748,96.8736373 C214.714683,96.5040919 215.116165,92.5896476 215.371001,88.1753069 C215.636917,83.5543596 216.14659,79.8927965 216.570883,79.544759 C216.976275,79.2130154 220.094274,77.8736577 223.499697,76.5688429 C237.675382,71.1364599 246.725008,67.5876506 248.103472,66.9202528 C249.513871,66.2378647 249.569922,65.8826579 249.569922,57.6464222 C249.569922,51.7767112 249.826062,48.7597344 250.384616,48.0564901 C250.833024,47.4927215 257.065111,45.2128804 264.234423,42.9903937 C271.403735,40.7679071 278.442695,38.5630179 279.876558,38.0898433 C291.866906,34.1343385 337.391384,22.5937018 351.895553,19.8328651 C375.479982,15.3435724 380.005121,14.7798038 394.911423,14.4754339 C411.104292,14.1449938 420.545623,14.9733752 437.601416,18.2230287 C439.75221,18.632983 442.831755,19.2176078 444.44485,19.5226294 C448.150732,20.2232667 483.421791,28.9561401 487.786598,30.2531338 C508.762049,36.4884798 514.202905,38.202597 534.387125,44.9345807 C543.169531,47.8642222 550.648427,50.5409825 551.006893,50.8831542 C551.365358,51.2253259 551.951938,55.766759 552.310404,60.9749381 L552.96216,70.4449472 L557.524449,72.2320611 C560.033708,73.2149085 563.259898,74.6715823 564.693761,75.4686794 C567.131978,76.8243311 582.854924,83.2974678 583.814848,83.7949015 C584.774771,84.2923352 586.240801,90.9628656 586.697682,93.8045201 C586.957081,95.4176152 587.244505,97.5807921 587.337054,98.6112177 C587.498038,100.407456 587.954918,100.65382 598.306101,104.525248 C604.246853,106.747083 612.397057,109.716482 616.418389,111.124274 C622.245736,113.163617 623.801477,113.970491 624.086946,115.099331 C624.631814,117.253384 623.196648,135.465391 621.758223,144.641458 C620.345217,153.661104 618.417976,162.797414 616.877877,167.778782 C616.323885,169.57111 615.867656,171.225918 615.863745,171.456639 C615.854621,172.009328 616.993238,172.443397 624.14039,174.611788 C628.772417,176.016973 630.36596,176.263337 631.117434,175.690444 C632.362939,174.741487 637.185279,156.126695 639.414283,143.663824 C640.709973,136.417606 642.490569,120.335536 642.919424,112.006099 L643.375002,103.159168 L632.059872,99.0922134 C625.83691,96.8553881 619.278293,94.4816942 617.485965,93.818207 C615.693637,93.1547198 612.320802,91.9137771 609.990776,91.060629 L605.754364,89.5094506 L605.330071,85.9541237 C605.096743,83.9988569 604.876449,80.7576762 604.841255,78.7522242 C604.79498,76.147157 604.450853,74.8253967 603.636158,74.1234559 C603.00917,73.5831505 598.096236,71.3176479 592.719252,69.0892955 C587.342268,66.8609431 582.063048,64.6430187 580.987651,64.1600678 C579.912254,63.6771169 577.049743,62.4915734 574.627168,61.5256716 C572.204592,60.5597698 570.004917,59.4354914 569.739001,59.0268406 C569.473084,58.6181898 569.109405,54.3244239 568.930172,49.4851384 L568.604294,40.6864377 L554.917426,36.0511517 C538.102783,30.3574147 515.845329,23.3529971 503.428733,19.849159 C500.202543,18.9386564 496.096482,17.7654963 494.304154,17.2414847 C486.251062,14.8873435 467.837662,10.2142557 458.457596,8.1442799 C454.156009,7.19532373 448.876788,5.99674516 446.725995,5.48055471 C440.338138,3.94892902 432.360649,2.5997949 421.633404,1.23632216 C410.794708,-0.141489205 389.74235,-0.432172208 382.202189,0.692106224 C358.895408,4.16726715 336.59559,9.05804127 314.093727,15.6296931 Z M423.739226,97.8779927 L423.914548,144.967336 L393.282034,144.967336 C365.670408,144.967336 360.39966,145.146569 339.838074,146.781823 C318.971466,148.441845 312.343112,149.156821 289.97877,152.161414 C274.814372,154.198802 255.390099,157.371549 242.074732,159.986392 C208.696372,166.541098 158.512493,179.689616 151.208268,183.795025 C149.75746,184.610371 147.832174,186.392922 146.930144,187.757047 L145.289024,190.236325 L145.289024,208.825699 C145.289024,219.172971 145.544512,227.414421 145.865827,227.414421 C146.183232,227.414421 146.921671,226.683151 147.506948,225.790246 C148.092225,224.896689 149.958853,223.466737 151.655372,222.611634 C158.133172,219.347642 181.837523,211.793142 199.710617,207.296028 C207.003111,205.460685 209.875398,204.776993 220.403858,202.367453 C231.851945,199.746743 255.96951,195.342831 265.212056,194.185313 C267.542083,193.893326 279.713619,192.273713 292.259914,190.586318 C311.467804,188.002759 316.887152,187.503514 326.564419,187.424652 C336.237776,187.346441 338.250397,187.496345 339.273654,188.371653 C340.66059,189.557196 346.144461,189.566321 347.567896,188.385339 C348.044981,187.989072 349.433872,187.469623 350.653958,187.230428 C351.874697,186.991886 353.459766,186.433983 354.176698,185.990789 C357.193674,184.12742 368.977416,183.485441 400.777224,183.452853 C443.8322,183.409185 462.572129,184.524991 503.428733,189.564365 C516.463845,191.172246 520.94271,191.818788 531.147899,193.565493 C535.618291,194.330654 541.621612,195.337616 544.489337,195.80297 C550.701871,196.811236 557.8777,198.213814 566.32315,200.071969 C569.728573,200.820836 574.421213,201.829754 576.751239,202.314009 C585.52778,204.137621 600.363042,207.94257 608.771993,210.526129 C613.565003,211.999097 618.51248,213.445994 619.76711,213.741891 C623.083242,214.523346 637.899603,219.300715 640.949167,220.571639 C647.059376,223.118699 650.267317,224.970989 652.30275,227.128952 C653.494811,228.392706 654.564342,229.332538 654.679051,229.217829 C654.794412,229.102468 654.587153,227.696631 654.21826,226.093312 C653.816778,224.349214 653.63559,216.324799 653.765941,206.117003 L653.98428,189.055996 L652.107875,187.092256 C651.046817,185.982968 648.070901,184.279279 645.264441,183.175205 C635.289322,179.252288 623.635931,175.293524 616.089253,173.264609 C611.839155,172.122082 606.308356,170.618481 603.799097,169.92371 C592.005579,166.656459 565.818039,160.911233 552.636282,158.698523 C549.084214,158.102167 544.473694,155.525125 544.584493,154.197499 C544.645106,153.472746 544.288596,153.119495 543.606859,153.231597 C542.162569,153.468836 540.904681,152.608519 540.904681,151.38387 C540.904681,150.833136 541.952052,148.175277 543.2321,145.478312 C545.980553,139.684856 549.377504,130.288496 549.377504,128.476615 C549.377504,127.773371 547.911054,124.252587 546.118726,120.652941 C544.326398,117.053295 542.859948,113.935947 542.859948,113.726734 C542.859948,113.516869 541.173856,110.783406 539.112353,107.652372 C533.044508,98.4352437 523.013337,88.6680341 512.879189,82.1100691 C506.570195,78.0281237 489.707974,69.7664696 478.987897,65.5059431 C473.790146,63.4398779 468.312141,61.0433725 466.814406,60.1797963 C465.316672,59.3162201 463.208894,58.609717 462.13089,58.609717 C461.052235,58.609717 457.14496,57.8504217 453.448202,56.92167 C444.97929,54.7956432 443.428111,54.4436951 436.623783,53.1069444 C433.576825,52.507981 429.853997,51.7415164 428.351049,51.4032552 C426.8481,51.0656458 425.156143,50.7886497 424.59107,50.7886497 C423.663622,50.7886497 423.580849,55.3665811 423.739226,97.8779927 M354.502575,57.2325574 L352.221431,58.2942673 L352.221431,101.304924 L352.221431,144.31558 L357.109598,144.224334 C359.79809,144.174801 365.517245,143.881511 369.818832,143.572579 L377.6399,143.012069 L377.992499,125.414667 C378.186723,115.736096 378.268192,83.6293115 378.075272,69.9163734 C377.928627,59.4876318 378.0857,54.3185581 378.564089,53.8401694 C380.49133,51.9129281 379.346848,51.7969156 371.122344,53.0847847 C364.407957,54.1367182 357.395067,55.8866821 354.502575,57.2325574 Z M302.362126,83.7616179 C287.326776,86.9773801 283.433188,88.0775435 282.782736,89.292416 C281.772515,91.1792485 282.001933,115.047191 283.11448,123.785278 C284.51054,134.758888 287.181435,149.925892 287.832538,150.576996 C288.149943,150.894401 290.949886,150.740587 294.238644,150.225048 C297.4518,149.721241 303.307172,148.959339 307.250293,148.531135 C311.193415,148.103584 314.576678,147.661693 314.768946,147.54894 C314.961214,147.436186 314.608614,143.289717 313.985536,138.334419 C311.44043,118.083068 309.141036,88.593734 309.824076,84.9536789 C310.220996,82.8380802 310.149302,82.7279335 308.420195,82.7898502 C307.418446,82.8263486 304.692153,83.2630248 302.362126,83.7616179 M448.518323,83.1561369 C447.882861,83.4129286 447.703628,90.2081326 447.703628,114.050656 L447.703628,144.616691 L446.203938,144.992754 C445.378816,145.200012 441.346404,145.085303 437.242299,144.738569 C433.138194,144.391184 428.607189,144.340347 427.173326,144.625164 C425.739464,144.909981 424.712949,145.185674 424.892182,145.236511 C425.071414,145.287999 430.49728,145.613877 436.94966,145.960611 C454.700876,146.913478 485.120918,149.546571 504.080489,151.771664 C513.400594,152.864658 521.734593,153.760822 522.601428,153.762832 C525.696615,153.769295 523.517796,153.19184 517.75758,152.479471 C508.077054,151.282196 508.603672,151.646527 511.359947,148.053399 C515.709112,142.38508 517.071281,138.55406 517.094745,131.918537 C517.114949,126.137464 517.068023,125.95758 514.264822,121.164569 C508.981039,112.128629 497.944209,102.759642 484.012933,95.4827908 C476.645488,91.6348257 472.354329,89.8809513 460.657923,85.9378299 C451.253741,82.7676906 450.123597,82.5089436 448.518323,83.1561369 M238.490076,118.0205 C232.694014,119.008561 223.379122,121.143713 220.566797,122.127864 L217.959774,123.040322 L218.092081,127.486598 C218.256975,133.05194 218.977817,136.963125 222.362384,150.670197 C224.409548,158.960529 225.301801,161.586452 226.071525,161.583847 C226.628124,161.58189 230.897123,160.81738 235.557176,159.88537 C240.217229,158.953359 245.608551,157.948352 247.537748,157.652455 C249.466293,157.356558 251.279477,156.874259 251.566901,156.580317 C251.853673,156.287027 251.357687,153.554216 250.465434,150.507258 C248.197324,142.766357 244.335672,124.76226 244.104951,120.852378 C243.887265,117.160182 243.797322,117.115211 238.490076,118.0205 M383.514825,150.367783 C379.576266,150.47076 376.115443,150.793379 375.822805,151.086017 C375.530818,151.378004 376.03984,152.107318 376.954904,152.706282 L378.617533,153.796017 L378.617533,165.107236 C378.617533,174.328926 378.4383,176.566403 377.647069,177.223373 C375.86908,178.698947 377.336182,179.184505 383.573483,179.184505 C389.269175,179.184505 389.882477,179.058717 391.356097,177.584445 C392.370228,176.570314 392.956157,175.241384 392.956157,173.953515 L392.956157,171.922644 L390.723242,174.289821 C388.72887,176.404768 388.189868,176.635489 385.672136,176.454301 L382.853945,176.251605 L382.665587,171.301521 C382.454418,165.75834 383.01949,164.742905 385.998014,165.314494 C387.15488,165.536743 388.122085,166.302556 388.599822,167.375345 C389.285469,168.912837 389.380625,168.638448 389.56051,164.606036 C389.74626,160.440666 389.255488,158.217527 388.572448,160.132385 C387.654776,162.704213 383.710351,163.909961 382.923682,161.859538 C382.341665,160.343554 382.460936,154.229435 383.091184,153.234856 C383.44248,152.680863 384.649531,152.450794 386.503124,152.5831 C388.741905,152.743432 389.512932,153.11037 390.014783,154.254853 C390.368687,155.061727 390.88227,155.721303 391.155356,155.721303 C391.79929,155.721303 391.807111,150.648038 391.163829,150.382773 C390.894654,150.271975 387.452732,150.265457 383.514825,150.367783 M395.563179,150.507258 C395.563179,150.865724 396.149759,151.745594 396.86669,152.462525 C398.060707,153.656542 398.170201,154.634827 398.170201,164.106139 C398.170201,173.459484 398.045716,174.604619 396.86669,176.103657 C396.149759,177.014811 395.563179,177.934438 395.563179,178.14691 C395.563179,178.358731 397.322919,178.53275 399.473713,178.53275 C401.624506,178.53275 403.384246,178.292252 403.384246,177.99831 C403.384246,177.70502 402.651021,176.826454 401.754857,176.047606 C400.173046,174.672401 400.125468,174.383674 400.125468,166.153955 C400.125468,161.491296 400.257775,157.67657 400.420062,157.67657 C400.582349,157.67657 401.668174,159.069372 402.832861,160.772409 C403.9982,162.475447 405.258695,164.201296 405.634107,164.607991 C406.01017,165.014687 408.308912,168.313874 410.743871,171.940242 C413.17883,175.565958 415.405227,178.53275 415.691999,178.53275 C415.978772,178.53275 416.398502,172.771882 416.625313,165.730966 C416.951191,155.594863 417.243829,152.699764 418.031802,151.829671 C419.59406,150.10317 419.268834,149.855503 415.441725,149.855503 C411.607447,149.855503 410.998055,150.483143 413.281155,152.082552 C414.571631,152.986537 414.731312,153.780375 414.992014,160.591873 C415.180371,165.503503 415.047413,168.10466 414.607478,168.10466 C413.873601,168.10466 409.252654,162.010093 404.353407,154.580731 C401.27712,149.915464 401.201517,149.855503 398.400271,149.855503 C396.839968,149.855503 395.563179,150.148793 395.563179,150.507258 M354.503227,150.994772 C348.980902,151.252215 347.635678,151.964584 349.804069,153.483175 C351.149293,154.425613 351.247708,155.011541 351.298545,162.438948 C351.329177,166.809622 351.564461,172.071245 351.821905,174.132096 C352.079348,176.192295 352.038939,178.128661 351.733266,178.434335 C350.859262,179.308339 361.037729,179.872108 362.606505,179.036557 C364.515497,178.02047 365.53745,176.505138 365.561565,174.657411 C365.582421,173.083421 365.553744,173.09059 363.324739,175.25116 C361.511555,177.008945 360.517628,177.450835 358.273633,177.49711 L355.480209,177.555116 L355.480209,171.689316 L355.480209,165.823515 L357.41853,165.603222 C358.916264,165.433114 359.693157,165.803311 360.836988,167.232611 L362.317125,169.082293 L362.320384,165.047274 C362.323643,160.980319 361.467888,159.149538 360.697512,161.576024 C360.253015,162.976647 357.748318,163.926906 356.133268,163.307087 C355.39157,163.02227 355.154331,161.825646 355.154331,158.360914 C355.154331,154.091914 355.256657,153.765385 356.704858,153.401705 C359.745298,152.638499 361.935848,153.335878 362.970836,155.395426 L363.953032,157.350692 L364.159638,154.838174 C364.456839,151.21702 363.999958,150.487054 361.529153,150.636958 C360.353386,150.707999 357.191719,150.868983 354.503227,150.994772 M420.594505,151.410592 C420.403541,151.907229 420.354007,153.593321 420.483707,155.158186 L420.71899,158.002448 L421.567576,155.880332 C422.420724,153.744529 424.273014,152.774716 426.633021,153.227686 C427.725363,153.437552 427.840072,154.408668 428.004315,164.839364 C428.179637,176.009152 428.155522,176.243132 426.700803,177.372625 C424.665371,178.951829 425.842441,179.59837 431.062352,179.767175 C435.614213,179.914472 436.78607,179.176033 434.516657,177.589008 C433.112775,176.607464 433.020878,176.029356 432.677402,165.975374 C432.477965,160.1565 432.436253,155.029139 432.584201,154.580731 C432.737364,154.115377 433.935291,153.766036 435.375019,153.766036 C437.343973,153.766036 438.130642,154.122547 438.960978,155.38956 C439.546255,156.283117 440.267096,156.863831 440.562994,156.681339 C441.286442,156.234235 440.516719,151.608074 439.6186,151.005851 C439.226243,150.742542 434.862739,150.522901 429.923083,150.516806 C422.862615,150.509214 420.866287,150.700178 420.594505,151.410592 M342.282158,151.636099 C339.280171,151.906578 338.758115,152.665221 340.815708,153.766036 C342.55785,154.698047 342.471819,155.943552 340.102035,164.097015 C338.157848,170.783376 337.311218,172.666949 336.247552,172.666949 C335.606225,172.666949 331.689825,158.55644 331.690477,156.248574 C331.691129,155.283975 331.984419,154.313511 332.342885,154.091914 C333.906446,153.125361 332.73459,152.462525 329.463428,152.462525 C324.258508,152.462525 323.626957,152.832071 325.181394,154.96657 C325.874862,155.919437 327.639164,160.187785 329.101704,164.45157 C332.443907,174.195316 334.033539,177.375884 335.425689,177.10736 C336.560395,176.889022 340.176987,168.884811 343.176366,159.957715 C344.139661,157.08999 345.323249,154.133627 345.806852,153.388018 C346.602646,152.161414 346.394084,150.984995 345.432093,151.273071 C345.223531,151.33564 343.805311,151.49923 342.282158,151.636099 M441.837828,151.47316 C441.837828,151.756022 442.571053,152.666525 443.467217,153.497513 C445.082267,154.993944 445.096606,155.106046 445.096606,166.081611 C445.096606,176.736511 445.04251,177.193392 443.669261,178.154732 C442.884547,178.704813 442.468075,179.381336 442.74442,179.658332 C443.020764,179.935328 446.267159,180.261206 449.958702,180.382432 C456.248796,180.588387 456.757817,180.508873 458.052855,179.118678 C458.813454,178.30268 459.435229,176.779527 459.435229,175.734111 L459.435229,173.832288 L457.509943,175.893791 C455.78996,177.735001 455.25161,177.933786 452.458837,177.755205 L449.333017,177.555116 L449.140749,172.397774 C449.018871,169.124006 449.212442,167.076841 449.67193,166.793328 C451.025626,165.956473 453.656764,166.945838 454.253772,168.515918 C455.297233,171.261112 456.176451,170.197447 456.176451,166.187847 C456.176451,161.869966 455.628976,161.042236 454.017836,162.923855 C452.752779,164.402036 451.66174,164.523263 450.074715,163.362486 C449.154436,162.689874 448.975203,161.724624 449.134883,158.31138 L449.333017,154.091914 L452.111451,153.891174 C454.62071,153.709986 455.000032,153.883352 456.021985,155.679591 C456.644412,156.773237 457.373726,157.670053 457.642901,157.67266 C458.364395,157.678525 458.237954,152.60526 457.506032,152.15229 C456.513409,151.538988 441.837828,150.902874 441.837828,151.47316 M460.086985,152.788403 C460.086985,152.967636 460.673565,153.700861 461.390496,154.417792 C462.59494,155.622236 462.694007,156.590094 462.694007,167.147231 C462.694007,176.70262 462.533675,178.635075 461.716374,178.94857 C461.178675,179.155176 460.73874,179.732632 460.73874,180.231877 C460.73874,180.914917 461.788719,181.139772 464.975152,181.139772 C469.489211,181.139772 469.979331,180.783262 467.908052,179.009835 C466.860029,178.112367 466.606496,177.094977 466.614317,173.814039 C466.633218,166.102467 468.930657,166.193713 472.139901,174.033681 C473.225726,176.68763 474.486221,179.514945 474.940495,180.317257 C475.968965,182.1337 478.648333,182.884522 480.024841,181.742646 C480.939254,180.983351 480.908621,180.791083 479.724381,179.877322 C478.611183,179.018308 474.425608,169.580886 474.425608,167.929989 C474.425608,167.638655 475.050642,166.554785 475.813848,165.522404 C476.955072,163.979047 477.148643,162.998155 476.901628,160.01898 C476.551635,155.797559 475.429964,154.273102 471.895493,153.213999 C469.443588,152.479471 460.086985,152.142513 460.086985,152.788403 M314.582544,154.232694 C312.468901,154.553357 312.275329,155.399988 314.093727,156.373059 C315.324894,157.031984 315.397239,157.737835 315.397239,169.066651 C315.397239,176.3611 315.14175,181.22059 314.745483,181.46565 C314.387017,181.687247 314.093727,182.159118 314.093727,182.514325 C314.093727,183.093084 321.789006,182.665532 322.496161,182.047016 C322.636288,181.924486 322.074475,181.276641 321.248049,180.606636 C319.768564,179.408709 319.747056,179.206013 319.894352,167.718169 C319.977777,161.212996 320.313431,155.950721 320.653648,155.830147 C320.98865,155.710223 321.263039,155.197292 321.263039,154.689574 C321.263039,153.764081 318.791582,153.595277 314.582544,154.232694 M300.100534,155.701099 L290.994857,156.698937 L290.438257,159.522994 C289.574029,163.900836 290.391983,165.034891 292.148464,161.894732 C293.378979,159.694406 293.960345,159.275327 296.023803,159.103915 L298.451593,158.901219 L298.451593,170.271747 L298.451593,181.641624 L296.801347,182.722887 C294.431564,184.27602 295.423536,185.181309 298.998416,184.727035 C307.033911,183.706386 307.634829,183.39224 304.628932,181.783707 L302.984553,180.903837 L303.162482,169.453142 L303.33976,158.002448 L305.779933,157.800404 C307.862292,157.627688 308.331556,157.842768 308.980705,159.266854 C309.39848,160.184526 309.987015,160.935348 310.288126,160.935348 C311.184942,160.935348 310.929454,155.238352 310.020255,154.956142 C309.572499,154.816667 305.107973,155.152321 300.100534,155.701099 M466.877626,155.29701 C466.692528,155.780613 466.628004,158.197323 466.735544,160.667477 C466.946061,165.512628 467.462251,166.0777 470.892441,165.217383 C472.315875,164.859569 472.470341,164.479595 472.470341,161.33683 C472.470341,158.798893 472.103403,157.385887 471.119252,156.135168 C469.673658,154.297217 467.431619,153.854675 466.877626,155.29701 M481.304889,155.232487 C479.905569,159.809766 480.796519,162.414833 482.581026,158.964439 C483.498698,157.189709 483.908001,156.973978 486.030117,157.150603 L488.438354,157.350692 L488.615631,169.197002 C488.786391,180.592949 488.743375,181.058303 487.475059,181.461088 C484.950158,182.262095 485.94604,183.746795 489.00864,183.746795 C490.576764,183.746795 492.776439,183.929938 493.896807,184.154142 C496.300482,184.635138 496.743676,183.263192 494.615042,181.933611 C493.360412,181.1502 493.305013,180.549282 493.474469,169.55612 C493.651747,158.042857 493.657613,158.001796 495.157302,157.789324 C496.211191,157.640072 497.334818,158.288569 498.904897,159.953804 L501.147588,162.331409 L501.147588,159.716565 C501.147588,158.278792 500.824969,156.902284 500.430657,156.658528 C499.78216,156.257698 485.521096,154.46537 482.715288,154.431374 C482.076567,154.42431 481.441757,154.784731 481.304889,155.232487 M274.356839,160.017025 C270.312044,163.670767 267.845801,169.248491 267.828803,174.777986 C267.817124,178.48452 269.800416,184.029005 271.738737,185.709883 C275.836976,189.264558 283.31522,187.251285 287.020451,181.595349 C288.901418,178.725018 287.487108,178.460405 284.913977,181.201037 C278.590644,187.93628 271.826724,181.836499 272.495425,170.002572 C272.694211,166.485699 273.083309,165.229114 274.582999,163.262768 C275.596479,161.933838 277.115721,160.531912 277.959093,160.148027 C280.180928,159.135851 283.218109,160.595784 285.236596,163.646 C286.14775,165.023159 287.147543,166.149393 287.458431,166.149393 C288.142774,166.149393 288.199477,160.250353 287.52491,159.241435 C286.993729,158.447597 286.790381,158.405233 281.079699,157.913157 C277.160692,157.574896 277.006226,157.623126 274.356839,160.017025 M506.407256,165.334699 C502.419815,176.484934 499.771732,183.062451 499.104986,183.475013 C497.801475,184.280583 499.455631,185.050306 502.489553,185.050306 C505.94451,185.050306 506.483511,184.54324 504.406366,183.246246 C502.444582,182.020946 502.973156,177.313967 505.238658,175.835785 C506.342732,175.115595 511.213302,176.031963 512.07753,177.122351 C513.439047,178.839075 514.386048,183.152394 513.578523,183.959919 C512.190935,185.347506 512.934589,186.214341 515.895514,186.658187 C517.554232,186.907158 519.313972,187.264971 519.806048,187.453329 C520.32289,187.652114 520.700257,187.377725 520.700257,186.803529 C520.700257,186.257357 520.395887,185.709231 520.023083,185.584746 C519.65093,185.460912 517.284405,179.131061 514.764067,171.517904 C512.243728,163.905399 509.948244,157.67657 509.663427,157.67657 C509.37861,157.67657 507.913463,161.123054 506.407256,165.334699 M522.655524,159.20233 C522.655524,159.401767 523.399177,160.367017 524.308376,161.34791 C525.217575,162.328802 525.831529,163.469374 525.673152,163.881935 C525.514775,164.295148 525.175862,169.29998 524.920374,175.004797 C524.579506,182.60166 524.202791,185.664911 523.509975,186.454839 C522.486719,187.623437 522.474987,187.618223 528.609311,188.67146 C531.211771,189.117913 532.940227,187.838516 530.571747,187.219349 C528.932582,186.790493 528.673835,185.0666 528.292558,172.015194 C527.997313,161.918847 527.745083,160.59057 526.032269,160.095887 C525.429395,159.921868 524.423085,159.568617 523.796096,159.30987 C523.169107,159.051775 522.655524,159.003545 522.655524,159.20233 M254.925398,169.245232 C253.485018,173.456877 251.514109,179.542971 250.546252,182.769161 C249.578395,185.995352 248.428046,189.012328 247.990066,189.473771 C246.540562,191.000835 244.860987,189.478334 242.602002,184.588863 L240.377561,179.774344 L241.630887,177.687423 C243.352173,174.822305 243.739968,172.76732 243.097337,169.925665 C242.029761,165.205651 239.508119,164.543467 231.022912,166.754222 C226.353083,167.97105 225.05609,168.981271 227.383509,169.590011 C228.658995,169.92371 228.713742,170.409268 228.713742,181.41351 C228.713742,189.272379 228.464771,193.287845 227.923814,194.154028 C226.81974,195.92159 227.272059,196.107992 230.995538,195.422345 C236.164612,194.47013 236.441608,194.275907 234.610175,192.894836 C233.279942,191.891133 232.976224,191.011914 232.753323,187.510032 C232.546065,184.24995 232.722691,183.089825 233.552376,182.26014 C235.20588,180.606636 236.155488,181.463695 238.448364,186.68165 C239.61631,189.338858 240.985649,191.85659 241.491411,192.27632 C242.19661,192.861597 243.728888,192.830313 248.055242,192.140755 C253.604941,191.256975 255.502201,190.135303 252.864546,189.297797 C251.268397,188.791383 251.110672,186.652973 252.434388,183.484137 C253.23344,181.571234 253.722908,181.251222 256.485049,180.837358 C259.252403,180.422189 259.765335,180.53755 260.789895,181.802608 C262.041265,183.34792 262.370402,187.322978 261.301523,187.983206 C260.943057,188.204803 260.649767,188.700137 260.649767,189.08337 C260.649767,189.553285 261.972179,189.631496 264.700428,189.322564 C269.690269,188.758144 270.305527,188.408803 268.65854,187.075311 C267.877085,186.441804 265.899007,181.776537 263.656316,175.273972 C259.207432,162.377032 258.888723,161.587104 258.13399,161.587104 C257.810068,161.587104 256.366429,165.033588 254.925398,169.245232 M551.534815,166.121368 C553.203961,168.10466 553.288037,168.547202 553.288037,175.324157 C553.288037,182.972509 552.707975,184.088315 550.519379,180.649 C547.710313,176.235963 541.542749,167.020139 540.698074,165.975374 C539.630498,164.654266 537.933327,165.046623 536.975898,166.83504 C536.627209,167.486144 536.342391,172.274592 536.342391,177.475602 C536.342391,186.541523 536.281778,186.974288 534.875941,187.964305 C533.042553,189.256085 533.912646,189.932607 538.152968,190.513973 C541.755873,191.008004 542.377648,190.55373 540.348081,188.908047 C539.504058,188.224356 538.557709,186.563031 538.245518,185.216504 C537.488829,181.957726 537.486874,170.235249 538.243562,169.76794 C538.752584,169.453142 541.527107,173.684992 551.346457,189.756633 C554.374514,194.711931 554.591549,194.105798 554.591549,180.687454 C554.591549,170.776858 554.782513,168.122257 555.576351,166.988854 C556.73061,165.340564 556.509665,165.152207 552.675387,164.516745 L549.781592,164.037705 L551.534815,166.121368 M507.125491,167.140713 C506.70576,168.062948 506.361633,169.683864 506.361633,170.742315 C506.361633,172.437531 506.589748,172.666949 508.278446,172.666949 C510.73361,172.666949 510.900459,172.296752 510.021241,168.804645 C509.161575,165.393357 508.17938,164.828285 507.125491,167.140713 M560.193388,167.527204 C561.332005,168.790959 561.416733,169.829857 561.215993,180.0735 C561.036108,189.247612 560.807994,191.452501 559.938552,192.422314 C559.020228,193.44557 559.006541,193.682809 559.831664,194.204865 C561.086293,194.998052 565.671394,195.000007 565.671394,194.207472 C565.671394,193.866604 565.172801,193.308701 564.564061,192.967833 C563.673763,192.469892 563.401981,191.109026 563.180384,186.041626 C562.771733,176.70262 563.775437,176.721521 566.641206,186.10615 C570.238897,197.887936 570.372507,197.970709 573.356244,190.264351 C574.535922,187.217393 575.981516,183.697913 576.568096,182.443283 L577.634368,180.162139 L578.093204,182.117406 C578.346085,183.192802 578.587235,186.602788 578.629599,189.69602 C578.687605,193.951984 578.470571,195.514894 577.736042,196.124286 C576.328902,197.29158 576.905705,197.758237 580.960929,198.730656 C585.005072,199.70112 585.97684,199.345914 584.311604,197.506007 C582.952694,196.003711 581.716965,185.192389 582.080645,177.984623 C582.271609,174.205744 582.585756,172.998041 583.562737,172.283717 C584.981609,171.246122 584.87407,171.04473 582.611826,170.504424 C579.942235,169.867007 579.76235,170.125102 575.478361,180.740898 C572.590432,187.898478 572.553933,187.959743 571.596504,187.367949 C570.918678,186.94887 565.019638,169.386663 565.019638,167.785951 C565.019638,166.73467 563.566223,166.149393 560.954639,166.149393 C558.958963,166.149393 558.956356,166.153955 560.193388,167.527204 M233.671647,168.483982 C233.037489,170.136834 233.21607,177.766937 233.89911,178.189275 C234.241933,178.401095 235.561738,178.139741 236.83201,177.609212 C239.078612,176.670032 239.141832,176.54685 239.141832,173.072341 C239.141832,169.117488 238.08664,167.452904 235.580639,167.452904 C234.748347,167.452904 233.889333,167.916954 233.671647,168.483982 M214.425304,170.417089 C211.047254,171.300869 208.114354,172.200292 207.907748,172.416675 C207.701141,172.632406 208.191261,173.252878 208.998135,173.795138 C210.42548,174.755174 210.464585,175.084311 210.464585,186.218904 C210.464585,195.94766 210.303601,197.835144 209.385929,198.848624 C208.369191,199.972251 208.397216,200.03873 209.874746,200.000928 C210.737019,199.97942 213.928666,199.319843 216.967151,198.534478 C221.808391,197.284411 222.675226,196.833396 223.973524,194.893119 C225.483641,192.635438 225.93596,190.264351 224.856652,190.264351 C224.526864,190.264351 223.64178,191.261537 222.88835,192.479668 C221.451229,194.805784 216.611944,197.324168 215.574349,196.286573 C214.971475,195.683699 214.483962,186.027939 215.028829,185.483072 C215.208714,185.303187 216.141376,184.95906 217.102064,184.717911 C218.4147,184.388122 219.130979,184.609719 219.986734,185.609512 C221.606999,187.501559 222.197489,186.772244 222.18641,182.893647 C222.173375,178.558168 221.252444,176.849265 220.291104,179.377425 C219.544844,181.341165 216.979534,182.83173 215.394464,182.223642 C214.164602,181.751771 213.974289,176.215107 215.10313,173.737784 C216.282156,171.150314 221.772545,170.976947 222.434077,173.507062 C223.007622,175.70022 224.288321,173.922882 224.036092,171.283272 C223.762355,168.422065 222.492735,168.307356 214.425304,170.417089 M256.133101,172.463602 C255.108541,176.153842 255.233678,176.577483 257.352535,176.577483 C259.850715,176.577483 260.106203,176.035222 259.052966,172.972623 C257.894144,169.600439 256.972562,169.439455 256.133101,172.463602 M587.179329,173.412558 C588.787862,174.749308 588.811325,174.912899 589.014673,186.213038 C589.192602,196.068235 589.079197,197.738684 588.199978,198.23076 C587.638817,198.544906 587.180633,199.154297 587.181936,199.584456 C587.184543,200.521681 595.578504,202.856269 599.19314,202.924704 C601.426707,202.967068 601.919434,202.696589 603.018946,200.824747 C604.402623,198.46865 604.042854,197.353497 602.301363,198.599002 C600.288742,200.038078 598.004338,200.77 596.655204,200.408275 C593.786176,199.639204 593.406202,198.9327 593.151366,193.888112 C592.942804,189.750767 593.075762,188.908047 593.993434,188.556099 C595.650849,187.919986 598.172491,189.366883 598.637845,191.219825 C599.391926,194.225721 600.214441,192.934594 600.214441,188.743805 C600.214441,183.976213 599.833164,183.267754 598.293066,185.170229 C597.361055,186.321881 596.882015,186.438545 595.278044,185.905409 C593.460298,185.301884 593.361883,185.073769 593.180695,181.02767 C592.935635,175.565306 593.820067,174.59028 597.424276,176.351324 C598.779927,177.013507 600.328499,178.434986 600.866197,179.510383 L601.84383,181.46565 L602.051089,178.935535 C602.165146,177.544037 601.970923,176.117995 601.618975,175.766047 C600.821878,174.96895 589.391388,172.021711 587.179329,172.043102 L585.54994,172.058861 L587.179329,173.412558 M195.800084,175.620054 C191.498497,176.827105 187.469995,178.122795 186.847569,178.49951 C186.225142,178.876225 185.051982,179.192326 184.240546,179.201451 C183.42911,179.211227 181.591811,179.761309 180.157949,180.424796 L177.550926,181.631196 L179.343254,182.346824 L181.135582,183.062451 L181.135582,190.573935 C181.135582,194.705414 180.868363,198.085418 180.542485,198.085418 C180.215955,198.085418 177.943283,195.830344 175.491379,193.073418 C167.55104,184.146973 167.839116,184.344455 164.474754,185.490893 C162.88447,186.033153 161.582914,186.621689 161.582914,186.799618 C161.582914,186.976895 162.23858,187.653418 163.039588,188.301915 C164.4363,189.432711 164.496913,189.910448 164.506038,199.840596 C164.514511,208.594326 164.340492,210.468123 163.382411,211.930011 C161.915309,214.168791 162.542298,214.473813 166.145203,213.274583 C170.024453,211.983455 170.638406,211.30954 168.630999,210.546334 C167.199744,210.002118 166.940345,209.413582 166.569496,205.864121 C165.96597,200.091522 166.044181,193.010849 166.716141,192.595029 C167.222555,192.282838 176.461843,201.799773 179.919406,206.195213 C180.640248,207.111582 181.648514,207.861752 182.160794,207.861752 C182.934428,207.861752 183.090849,205.747457 183.090849,195.297859 C183.090849,184.980568 183.272037,182.473916 184.105633,181.285114 C185.703737,179.003317 186.521691,179.497348 186.023749,182.443283 C185.478882,185.667518 186.391991,185.821985 187.854531,182.754171 C188.950784,180.456081 191.6484,178.827343 193.305163,179.463457 C193.977123,179.7209 194.170695,182.253623 194.170695,190.79488 C194.170695,200.92251 194.068369,201.886457 192.882826,202.959898 C191.134165,204.542361 191.778752,205.264506 194.338848,204.590591 C195.500928,204.284918 197.768386,203.692472 199.378222,203.274045 L202.303953,202.513446 L200.407996,201.001373 L198.512039,199.489952 L198.459898,188.958884 C198.411017,179.25294 198.506173,178.355472 199.672164,177.502976 C201.473616,176.185126 203.79908,176.358493 204.749992,177.880994 C206.021567,179.916427 206.554051,179.435431 206.554051,176.251605 C206.554051,172.617416 206.507125,172.614809 195.800084,175.620054 M605.428486,177.542733 C605.428486,177.794962 606.015066,178.747177 606.731998,179.658332 C607.917541,181.165842 608.035509,182.302504 608.035509,192.22809 C608.035509,202.815209 607.991841,203.170415 606.569059,204.135014 L605.102609,205.129593 L607.057875,205.901271 C609.736591,206.957767 613.249554,207.495466 613.249554,206.848272 C613.249554,206.555634 612.60236,205.627534 611.811781,204.786118 C610.525215,203.416779 610.345982,202.403299 610.104181,195.13101 C609.936028,190.085118 610.074852,187.005573 610.47112,187.005573 C611.170453,187.005573 615.015811,193.341289 622.334375,206.551724 C623.622896,208.877839 625.185806,210.878729 625.806929,210.998652 C626.846479,211.198741 626.936422,210.231536 626.936422,198.864918 C626.936422,188.680585 627.107833,186.370763 627.914055,185.702062 C629.199317,184.635789 629.149132,183.977516 627.751116,183.549964 C627.124127,183.357697 625.661588,182.905378 624.500811,182.544306 C621.735412,181.683336 621.327413,182.526056 623.347203,184.926472 C624.854062,186.716845 624.981155,187.377725 624.981155,193.415589 C624.981155,197.017191 624.721756,200.12411 624.405655,200.319636 C623.865349,200.653335 618.640876,192.220921 613.936504,183.420917 C612.786807,181.270123 611.502197,179.164953 611.081163,178.743267 C610.205203,177.8647 605.428486,176.849917 605.428486,177.542733 M629.93906,186.081383 C629.319892,187.694478 629.475661,190.916106 630.172388,190.916106 C630.517819,190.916106 631.128514,190.303456 631.529343,189.555241 C632.098326,188.492879 632.638631,188.288228 633.996238,188.620623 C637.165726,189.396864 637.305853,189.914358 637.366467,201.018318 C637.397751,206.753768 637.410134,211.778804 637.39384,212.184847 C637.377546,212.591543 636.709497,213.094698 635.909141,213.304563 C634.968006,213.550275 634.680582,213.90483 635.094447,214.308267 C635.985396,215.175754 642.646339,217.637436 644.103013,217.637436 C645.16016,217.638087 645.102806,217.402151 643.614196,215.632635 C641.94896,213.653904 641.926801,213.488359 641.926801,202.9234 L641.926801,192.219618 L643.585519,192.219618 C645.199917,192.219618 647.318775,193.925262 648.89472,196.494483 C649.567332,197.590084 649.676175,197.35089 649.709414,194.710628 L649.747868,191.661715 L646.000273,190.242843 C638.037775,187.228473 631.793304,185.056823 631.079632,185.053559 C630.669678,185.051609 630.156746,185.514356 629.93906,186.081383 M155.065358,188.96084 C153.810728,189.64779 152.271282,190.221987 151.643641,190.236977 C150.073562,190.274779 150.202609,191.988896 151.80658,192.408627 C153.042308,192.731246 153.110091,193.297621 153.110091,203.259054 C153.110091,210.962806 152.857862,214.372791 152.165697,216.029554 C151.646248,217.272452 151.395974,218.289842 151.60975,218.289842 C152.537198,218.289842 159.627647,215.469696 159.627647,215.100802 C159.627647,214.876598 159.041067,214.326516 158.324136,213.87876 C157.111219,213.12142 157.02258,212.375812 157.049302,203.13131 C157.069506,196.185551 157.360189,192.413189 158.017159,190.590229 C158.533349,189.156366 158.960901,187.909558 158.966115,187.820267 C158.996748,187.306684 157.042133,187.878274 155.065358,188.96084 M423.58867,269.12678 C423.58867,316.459228 423.820044,344.730431 424.207838,344.730431 C424.548706,344.730431 425.061638,344.321129 425.348411,343.82058 C425.635183,343.320684 427.7762,341.80079 430.106226,340.443183 C432.436253,339.086227 435.732833,337.002565 437.43196,335.813111 C439.131086,334.623657 440.671837,333.650586 440.855632,333.650586 C441.274711,333.650586 463.103961,319.334774 470.400365,314.275195 C477.032631,309.675755 476.654612,309.95601 485.459179,303.123004 C498.320924,293.140716 516.865327,275.288478 524.834994,265.216246 C527.245838,262.169289 529.649513,259.158178 530.176132,258.525323 C532.142478,256.161406 538.879676,245.647284 540.780847,241.975293 C543.188432,237.325017 543.946424,234.801419 544.502372,229.586722 C545.092862,224.043541 544.701157,223.865611 531.802262,223.797829 L521.722209,223.744385 L520.874927,218.247478 C520.056974,212.938277 517.33068,205.906486 516.089737,205.906486 C515.261356,205.906486 515.324576,206.310574 516.515334,208.612575 C519.407174,214.20529 520.227734,222.659212 518.498626,229.04381 C513.845743,246.225391 497.50623,266.71007 474.751486,283.891 C466.398586,290.197387 451.101882,300.411049 450.009539,300.411049 C449.123804,300.411049 449.007139,297.281319 449.007139,273.468124 C449.007139,258.649808 449.198755,240.375885 449.432736,232.859839 L449.858332,219.194479 L453.633301,216.341093 C455.709142,214.771014 457.305292,213.320857 457.180155,213.118161 C456.768245,212.453371 439.020288,212.885485 433.761924,213.688448 C425.161357,215.002387 425.543937,215.470999 425.543937,203.612958 C425.543937,195.07887 425.393382,193.523129 424.566304,193.523129 C423.702728,193.523129 423.58867,202.358328 423.58867,269.12678 M351.119312,261.708498 C350.692412,261.972459 350.233576,261.859053 350.099314,261.456268 C349.965053,261.053483 348.678487,258.903341 347.239411,256.677596 C344.182025,251.947154 337.693798,239.08606 335.76395,233.931977 C335.025511,231.960416 334.198433,229.760741 333.924695,229.04381 C333.65161,228.326879 332.491485,225.100688 331.347002,221.874498 L329.266598,216.008698 L326.405391,216.052365 C324.831401,216.07648 319.441382,216.222473 314.426775,216.376288 L305.309365,216.657194 L304.188997,213.400372 C303.573088,211.608695 302.457283,208.01687 301.710371,205.417669 C300.962807,202.818467 300.036662,200.692441 299.651475,200.692441 C298.812014,200.692441 298.950186,201.339634 301.971073,211.56959 C303.261549,215.93896 304.317393,219.994183 304.317393,220.581415 C304.317393,221.168647 302.739493,224.486083 300.8116,227.953423 C295.511523,237.484697 294.904087,238.485793 294.421788,238.490356 C293.414825,238.49948 281.670841,222.239481 280.686038,219.472779 C280.517885,219.001559 280.173758,218.807336 279.920877,219.041316 C279.667344,219.275297 279.840059,220.074349 280.304109,220.81735 C281.91199,223.391785 278.245865,224.765034 269.693528,224.791756 C266.960065,224.800229 263.477083,225.247333 261.953278,225.785032 C260.429474,226.32273 257.94433,226.762665 256.430953,226.762665 C253.744416,226.762665 253.633618,226.674678 251.710939,223.01507 C246.253137,212.626738 244.862291,210.09206 244.307647,209.523729 C242.760379,207.936704 244.095175,211.293897 248.900569,221.074794 C258.023844,239.642008 263.199435,248.188479 273.100906,261.036538 C278.225661,267.685097 288.825162,278.892034 291.184518,280.154485 C292.299671,280.750841 292.972283,280.266587 296.329476,276.449906 C298.453548,274.035151 300.795306,271.326455 301.532441,270.430291 C308.424105,262.055232 313.909281,255.819234 314.576027,255.600244 C315.33467,255.351925 318.333398,261.157112 322.257618,270.473959 C328.214664,284.614449 341.615412,307.485205 352.218172,321.606142 C359.680122,331.544112 375.138462,347.337454 377.403964,347.337454 C377.712896,347.337454 377.967733,335.678849 377.969688,321.430168 C377.972947,296.991939 378.17108,255.422966 377.982723,240.665916 C377.794366,225.908214 377.39484,213.590032 377.095032,213.29218 C376.795224,212.993676 373.715679,212.681485 370.251598,212.59806 C366.787517,212.514636 361.753357,212.310636 359.064865,212.14509 L354.176698,211.844631 L353.99551,203.009432 C353.846257,195.748223 353.64291,194.174884 352.854937,194.174884 C352.022645,194.174884 351.895553,198.62051 351.895553,227.701845 C351.895553,252.934564 351.703285,261.347425 351.119312,261.708498 Z M278.256945,216.459061 C278.251731,217.065193 278.540459,217.742367 278.898924,217.963964 C279.724047,218.473637 279.724047,217.610713 278.898924,216.334575 C278.354708,215.491855 278.26607,215.509453 278.256945,216.459061 M593.18265,226.739854 C592.927814,226.93147 592.179598,228.261703 591.51937,229.695565 C587.470012,238.496221 573.764243,259.012185 563.436524,271.733802 C537.698043,303.438454 503.210395,332.181528 463.997518,354.611046 C446.724691,364.490358 426.203514,374.479816 409.409075,381.183774 C401.050961,384.519459 400.699665,384.600277 398.655108,383.65849 C397.492376,383.122747 393.167977,381.261985 389.045623,379.523101 C372.835157,372.686185 348.890308,360.195288 332.342885,349.943824 C314.253408,338.736886 286.641528,317.458948 281.505295,313.094865 C275.68294,308.147808 258.78858,292.195313 252.82153,286.398304 C246.826682,280.574288 225.400217,255.634787 218.605664,244.685944 C214.397278,237.904427 210.963178,232.628466 210.757875,232.628466 C210.640559,232.628466 210.60015,233.408617 210.667933,234.361484 C210.777428,235.906796 210.463281,236.180534 207.7787,236.879868 C206.122589,237.31133 203.561841,238.341755 202.088874,239.169485 C199.484458,240.633328 199.374311,240.641801 198.090353,239.479721 C196.220466,237.788415 195.844403,238.608323 197.306291,241.18732 C206.399585,257.226374 219.801636,275.6124 232.87455,289.98296 C237.76011,295.354078 253.473286,311.404211 257.123118,314.752932 C262.797302,319.957852 269.473886,325.539487 280.306065,334.13093 C287.569881,339.892449 318.360771,361.024321 319.492219,361.024321 C319.676014,361.024321 321.689287,362.147948 323.966521,363.521197 C326.243756,364.893794 330.306148,367.197751 332.99464,368.640086 C335.683132,370.082421 339.789192,372.326415 342.119219,373.626016 C355.187571,380.915251 388.759502,396.623213 397.03745,399.321481 C399.722032,400.196137 400.515218,400.212431 402.903251,399.444011 C405.550682,398.592167 411.305684,396.376198 415.441725,394.616457 C416.517122,394.159577 421.063117,392.234291 425.543937,390.338985 C436.183848,385.839265 455.63419,376.383594 462.908435,372.174556 C466.07336,370.343775 468.763807,368.845389 468.886989,368.845389 C469.623473,368.845389 491.089696,355.41075 499.443899,349.720924 C507.797451,344.031749 519.514713,335.529597 520.700257,334.297127 C520.879489,334.110725 522.63923,332.654703 524.61079,331.061161 C548.987754,311.357285 571.284965,288.332714 585.559716,268.123076 C587.322064,265.628156 588.944283,263.440212 589.165229,263.260979 C589.812422,262.734361 595.851589,253.582409 599.195747,248.059432 C602.161235,243.16214 602.238794,242.90991 601.147755,241.703511 C599.865752,240.287898 593.662994,237.190755 592.107905,237.190755 C590.501979,237.190755 590.851972,235.904189 594.674519,227.769628 C596.646079,223.573625 598.259175,219.724356 598.259175,219.215335 C598.259175,217.766482 596.983689,218.130814 596.365173,219.756292 C594.954122,223.462826 593.606291,226.421145 593.18265,226.739854 Z" id="Shape"></path>
            </g>
        </g>
    </g>
</svg>