<?xml version="1.0" encoding="UTF-8"?>
<svg width="800px" height="400px" viewBox="0 0 800 400" version="1.1" xmlns="http://www.w3.org/2000/svg" xmlns:xlink="http://www.w3.org/1999/xlink">
    <title>xing</title>
    <g id="Page-1" stroke="none" stroke-width="1" fill="none" fill-rule="evenodd">
        <g id="Manufacturer" fill="#000000" fill-rule="nonzero">
            <g id="AF150_INCREMENTAL" transform="translate(-0.000000, 0.000000)">
                <g id="xing" transform="translate(0.000000, 0.000000)">
                    <line x1="0" y1="0" x2="800" y2="400" id="Path"></line>
                    <path d="M38.2918751,328.015509 L0.00202967641,289.725663 L80.9861183,208.741575 C88.3436953,201.383998 94.4020876,201.072363 101.819724,208.081682 L105.182673,211.303132 C105.953274,212.053243 106.932277,213.013936 108.165555,214.235845 L113.791171,219.861461 C118.167414,224.278443 119.184628,225.425515 119.184628,225.425515 C126.866953,233.10784 126.958289,239.349095 119.275964,247.03142 L38.2918751,328.015509 Z M0,109.673069 L38.2898454,71.3832239 L119.273934,152.367312 C126.631511,159.724889 126.943145,165.783282 119.933827,173.200918 L119.091104,174.074092 C118.760178,174.435556 117.44539,175.846916 113.779664,179.546749 L109.127002,184.206562 C103.902705,189.40172 102.589994,190.565822 102.589994,190.565822 C94.9076688,198.258296 88.6664138,198.339483 80.9840886,190.657158 L0,109.673069 Z M218.343454,71.3811942 L256.6333,109.67104 L175.649211,190.655128 C168.291634,198.012705 162.233242,198.324339 154.815605,191.315021 L151.452657,188.093571 C150.810489,187.468479 150.023598,186.697148 149.065436,185.750279 L143.809961,180.508196 C138.614804,175.2839 137.450701,173.971188 137.450701,173.971188 C129.768376,166.288863 129.67704,160.047608 137.359366,152.365283 L218.343454,71.3811942 Z M256.6333,289.723634 L218.343454,328.013479 L137.359366,247.02939 C130.001789,239.671813 129.690154,233.613421 136.699473,226.195784 L139.920923,222.832836 C140.733543,221.998018 141.793305,220.918617 143.164584,219.53631 L149.62872,213.088376 C153.099717,209.667648 154.043306,208.83088 154.043306,208.83088 C161.725631,201.138407 167.966886,201.05722 175.649211,208.739545 L256.6333,289.723634 Z M750.049664,198.153768 L750.049664,273.941885 C739.079263,277.158922 727.124469,278.772515 714.51003,278.468063 C669.085872,278.468063 641.137228,248.905826 641.137228,198.133471 L641.141841,197.298847 C641.301266,182.719633 646.007436,122.456986 718.061963,122.456986 C750.810792,122.456986 777.724301,132.798187 799.786884,147.58438 L799.786884,90.6316601 C775.28869,78.3115243 746.294762,71.6947792 716.184513,72.7908045 C641.979543,72.7908045 591.044814,123.370341 591.044814,198.153768 C591.044814,275.941116 638.031823,328.580774 714.723146,328.580774 C744.934879,329.189676 774.334742,322.461299 800,310.252796 L800,198.153768 L750.049664,198.153768 Z M515.780353,75.6678708 L515.780353,235.504888 L419.167757,75.6678708 L364.559313,75.6678708 L364.559313,324.455456 L414.286385,324.455456 L414.286385,165.338974 L510.462601,324.455456 L565.507425,324.455456 L565.507425,75.6678708 L515.780353,75.6678708 Z M326.285134,142.119698 L326.31084,213.146806 C326.29527,293.435227 326.139568,324.456471 326.139568,324.456471 L275.296174,324.456471 L275.186874,284.242459 C275.165173,271.776658 275.145571,256.133492 275.134132,236.933394 L275.148694,147.352644 C275.196525,103.891763 275.296174,94.4726197 275.296174,75.6688856 L326.139568,75.6688856 L326.251363,116.846555 C326.263784,124.159783 326.27543,132.556022 326.285134,142.119698 L326.285134,142.119698 Z" id="Shape"></path>
                </g>
            </g>
        </g>
    </g>
</svg>