<?xml version="1.0" encoding="UTF-8"?>
<svg width="800px" height="400px" viewBox="0 0 800 400" version="1.1" xmlns="http://www.w3.org/2000/svg" xmlns:xlink="http://www.w3.org/1999/xlink">
    <title>xseedgames</title>
    <g id="Page-1" stroke="none" stroke-width="1" fill="none" fill-rule="evenodd">
        <g id="xseedgames" fill="#000000" transform="translate(-0.000000, 0.000000)">
            <line x1="1.13686838e-13" y1="0" x2="800" y2="400" id="Path" fill-rule="nonzero"></line>
            <path d="M6.37289937,98.0564948 C14.7839552,107.245629 82.269943,182.775479 82.269943,182.999514 C82.269943,183.170561 63.7592058,205.301175 41.1349715,232.178812 C18.5107372,259.056449 0,281.157781 0,281.292109 C0,281.426902 12.6017101,281.53706 28.0043167,281.5352 L56.0086335,281.533341 L83.3622275,249.017192 C98.4069366,231.133473 110.961237,216.297925 111.261034,216.048791 C111.650538,215.725753 119.93145,224.652739 140.24097,247.288594 C155.880161,264.719131 169.217653,279.556074 169.88046,280.258854 L171.084762,281.53706 L198.992865,281.53706 C215.334836,281.53706 226.836825,281.363689 226.746261,281.118738 C226.660665,280.888661 206.929823,258.785005 182.899562,231.999399 C158.869302,205.213328 139.20818,183.154293 139.20818,182.978598 C139.20818,182.802902 155.104407,163.772982 174.533128,140.689988 C193.961849,117.606994 210.131378,98.3363056 210.465571,97.865926 C211.053081,97.0381138 210.167633,97.0106904 182.979973,97.0106904 L154.887344,97.0106904 L133.103936,122.901088 C121.122737,137.141225 110.992844,149.195398 110.592184,149.688553 C109.900559,150.541 108.684172,149.269767 85.8247482,123.797691 L61.7847272,97.0106904 L33.6000673,97.0106904 L5.41540738,97.0106904 L6.37289937,98.0564948 M198.157151,139.86264 C177.494846,163.437395 160.523068,182.88006 160.441931,183.068769 C160.228848,183.57122 207.328158,234.592064 208.005839,234.592064 C208.32144,234.592064 213.255777,232.605036 218.970517,230.176446 C224.685257,227.747855 229.51176,225.760827 229.695822,225.760827 C229.879883,225.760827 231.007028,227.695798 232.200174,230.060245 C239.439929,244.406357 247.712474,250.532911 260.711125,251.176197 C269.344356,251.602885 275.977545,249.390428 281.471969,244.251113 C286.671243,239.38789 288.842798,233.739617 288.570889,225.786856 C288.410997,221.125357 288.289219,220.588511 286.621509,217.214514 C283.789006,211.483041 278.863965,207.172003 270.152182,202.799147 C268.291115,201.864895 262.434611,199.253173 257.137728,196.995165 C239.396703,189.432837 232.22109,185.219408 226.29719,178.887876 C218.678621,170.744081 215.689945,162.096441 216.266764,149.862854 C216.580505,143.218975 217.716016,138.482643 220.340753,132.872949 C227.539141,117.491258 242.588033,107.788053 261.244253,106.500087 C274.613351,105.57699 289.219287,112.022863 298.720304,123.039599 C301.864224,126.684576 305.289814,131.834116 306.502018,134.73634 L307.21363,136.440304 L295.720007,142.459954 L284.226385,148.480068 L282.636297,145.636875 C280.322978,141.500138 274.603126,135.930881 270.877738,134.187873 C264.68983,131.292157 259.425948,131.338638 253.106036,134.345441 C242.687036,139.30116 239.298165,150.733428 245.672923,159.422435 C249.15336,164.166669 257.053599,168.68036 273.53594,175.340972 C290.074058,182.023894 297.523439,186.275903 304.367647,192.939768 C310.35662,198.770243 313.439187,203.956039 315.726477,212.04917 C317.148306,217.079721 317.375594,228.752757 316.16525,234.592064 C313.953258,245.261128 309.965722,252.714227 302.35366,260.406699 C295.574059,267.257879 289.51862,271.111552 281.227948,273.851095 C270.783383,277.302714 257.784732,277.82794 247.571639,275.211105 C246.073583,274.827179 244.779109,274.581764 244.69498,274.665428 C244.611316,274.749557 246.669459,277.168851 249.268631,280.041327 L253.995202,285.264771 L481.757448,285.13788 L709.520158,285.010989 L716.027385,283.962861 C748.035041,278.808208 770.677402,265.841163 785.108108,244.402638 C792.758748,233.036372 797.569448,219.246628 799.474671,203.217933 C800.167691,197.388852 800.176987,183.182646 799.490939,177.653827 C796.789046,155.869954 788.871609,139.267694 774.53154,125.316664 C759.815446,110.999834 741.71327,102.730543 715.330182,98.2740221 L709.520158,97.2923604 L472.622695,97.1464126 L235.725232,97 L198.157151,139.86264 M393.545477,106.826378 C371.19594,108.97934 351.906195,120.355368 339.682369,138.592801 C324.070137,161.885421 319.827889,196.251482 329.123928,224.13402 C338.378599,251.893851 359.952846,270.611425 388.57442,275.712627 C394.555026,276.778417 406.648708,277.152118 412.750628,276.459563 C433.742943,274.076989 451.060998,265.326163 464.791712,250.162929 C469.327249,245.154223 474.447043,237.980005 476.856111,233.257618 L477.802913,231.401663 L466.36925,224.86283 C460.08048,221.266657 454.773836,218.323996 454.576295,218.323996 C454.379219,218.323996 453.338063,219.80439 452.262976,221.613864 C449.197607,226.773166 443.846342,233.604825 440.031713,237.228421 C430.620868,246.167956 420.275306,250.61797 407.631299,251.165971 C386.405189,252.085815 367.904678,241.475316 358.643034,223.070089 C355.216979,216.262135 352.784671,206.836416 352.784671,200.368233 L352.784671,197.407909 L415.997734,197.407909 L479.210798,197.407909 L479.210798,189.994783 C479.210798,168.660374 473.100511,149.354825 461.552043,134.204606 C457.900094,129.412963 450.019842,121.953822 445.268171,118.79038 C430.742181,109.119711 412.806869,104.971353 393.545477,106.826378 M559.907851,106.783151 C541.144726,108.935184 526.238528,115.931848 514.222933,128.226789 C498.279297,144.542266 489.512668,170.014807 490.507809,197.136929 C491.429046,222.237164 500.517783,242.819058 517.43332,258.111042 C528.212542,267.85515 542.290463,274.077453 558.459528,276.243895 C565.830357,277.231599 578.111354,276.90066 585.593271,275.513227 C596.804758,273.433703 608.847312,268.415236 617.721775,262.124142 C623.093026,258.316949 631.815035,249.741818 635.878333,244.273424 C639.414082,239.515246 643.351419,233.12236 643.449027,231.980342 C643.499691,231.387255 640.547269,229.464369 632.363036,224.761038 C626.227651,221.234586 620.998629,218.351419 620.742988,218.353279 C620.487347,218.355138 619.298383,219.986128 618.101054,221.977339 C608.528458,237.894947 596.563991,247.144505 581.234823,250.477135 C576.670003,251.469487 564.470812,251.2171 559.251551,250.022094 C547.779774,247.395498 537.839055,241.202477 530.600694,232.172305 C527.018931,227.704164 522.483393,218.929633 521.039254,213.675977 C519.924194,209.618721 518.72547,202.226975 518.721751,199.383317 L518.718962,197.407909 L582.164427,197.407909 L645.609891,197.407909 L645.609891,191.946486 C645.596412,150.28257 623.959417,118.01602 590.06606,109.117851 C581.425857,106.849153 568.235242,105.827983 559.907851,106.783151 M659.55395,190.900682 L659.55395,275.494635 L680.353836,275.494635 C702.038241,275.491381 708.111343,275.174386 717.421791,273.559664 C745.140719,268.751288 766.267826,255.420768 778.443313,235.056866 C792.368779,211.765176 793.514051,175.646347 781.109882,150.948167 C775.108359,138.998109 765.477198,128.626983 753.425814,121.13577 C741.700255,113.847676 726.677392,108.965396 709.958001,107.00951 C705.395041,106.475917 698.604749,106.306729 681.751031,106.306729 L659.55395,106.306729 L659.55395,190.900682 M397.173256,132.374216 C380.709971,134.604801 365.441227,145.751681 358.126175,160.880984 C356.117301,165.035848 354.179077,171.042019 354.179077,173.112712 L354.179077,174.167812 L402.053676,174.167812 L449.928276,174.167812 L449.928276,173.112712 C449.928276,169.315745 445.16638,157.907181 441.348032,152.556381 C434.121291,142.429277 423.765969,135.477699 412.279319,133.043531 C408.104468,132.158548 401.065507,131.846666 397.173256,132.374216 M563.761059,132.351441 C546.872945,134.325455 531.27977,145.817683 523.809008,161.795249 C522.301191,165.020975 520.113368,172.046456 520.113368,173.664432 C520.113368,174.022329 533.996537,174.167812 568.241285,174.167812 L616.369666,174.167812 L616.056855,172.424805 C615.040333,166.761193 611.566868,158.583933 607.814057,153.019324 C601.874818,144.213186 591.178796,136.404979 581.447702,133.771876 C575.192863,132.079532 569.795118,131.645872 563.761059,132.351441 M685.582858,190.727311 L685.582858,249.119449 L696.157102,248.873568 C707.447141,248.61142 713.829801,247.79058 722.23528,245.519558 C742.836231,239.95309 756.513958,227.314195 761.494775,209.241302 C763.52596,201.872332 764.251516,189.812116 763.186654,181.127756 C761.570073,167.944114 755.219949,155.554819 746.27809,148.138904 C737.708071,141.031152 726.081051,136.219988 712.076569,133.986614 C707.308165,133.226663 695.005788,132.339821 689.185073,132.337497 L685.582858,132.335638 L685.582858,190.727311 M269.178422,299.079614 C270.34554,300.296001 282.224018,312.951628 295.575454,327.20385 L319.8502,353.116558 L483.610613,353.116558 C594.36083,353.116558 648.905802,352.95899 652.112935,352.62991 C666.141123,351.190419 675.233113,344.281603 678.434669,332.628089 C679.000798,330.566692 679.251791,327.991225 679.245855,324.298838 C679.238312,319.709848 679.058433,318.434897 677.975445,315.285864 C675.01884,306.689352 669.027078,301.266508 659.081711,298.185336 L655.603133,297.107925 L461.329402,296.988006 L267.056137,296.868087 L269.178422,299.079614 M367.425932,302.754803 C361.253362,304.039981 356.891196,306.288228 353.535791,309.912753 C350.746049,312.925599 349.44321,315.327231 348.389039,319.399826 C345.491463,330.592256 352.6694,341.899958 364.618528,344.96858 C368.143121,345.87355 374.5876,345.881916 378.02667,344.986243 C385.936204,342.92624 391.129901,337.643302 392.98632,329.769092 C393.364204,328.166455 393.676551,325.966083 393.680269,324.87984 L393.687241,322.904432 L382.996797,322.904432 L372.306352,322.904432 L372.306352,326.158046 L372.306352,329.411659 L377.419173,329.411659 C382.446936,329.411659 382.531995,329.429322 382.531995,330.482563 C382.531995,332.457042 380.079235,335.59306 377.385243,337.063229 C374.081431,338.866196 369.6356,338.974494 365.919044,337.342575 C355.633442,332.825165 355.247191,316.629606 365.300392,311.400584 C370.8571,308.509981 377.48471,309.660366 381.360229,314.187537 L382.979134,316.079281 L387.171183,314.283751 C389.477065,313.296511 391.363232,312.344597 391.363232,312.168902 C391.363232,311.356893 387.0257,307.179253 384.782101,305.831327 C380.488261,303.251212 372.144136,301.772212 367.425932,302.754803 M422.802435,303.963753 C422.448256,304.794819 418.241798,314.049955 413.454803,324.531239 C408.667808,335.012523 404.644947,343.849802 404.514802,344.169121 C404.333994,344.613007 405.488562,344.750123 409.411026,344.750123 L414.544299,344.750123 L416.64102,340.323814 L418.737742,335.897506 L427.195743,336.024396 L435.653279,336.151287 L437.501331,340.450705 L439.349384,344.750123 L444.406429,344.750123 C447.187803,344.750123 449.466263,344.593485 449.469518,344.401522 C449.47277,344.209559 445.342075,334.693669 440.289678,323.254893 L431.103797,302.456401 L427.275224,302.455006 L423.447115,302.453147 L422.802435,303.963753 M469.682823,303.034149 C469.454605,303.68859 461.548324,343.916269 461.548324,344.423832 C461.548324,344.603246 463.744513,344.750123 466.428744,344.750123 C469.112976,344.750123 471.309165,344.658557 471.309165,344.546075 C471.309165,344.053385 475.56768,319.885544 475.67319,319.780034 C475.737333,319.715426 478.171501,325.421799 481.081626,332.46076 L486.372931,345.259081 L488.177292,345.121035 L489.982118,344.982524 L495.385905,332.338517 C498.358314,325.38415 500.847793,319.752145 500.918907,319.822795 C501.053235,319.957123 504.774904,343.618331 504.774904,344.338309 C504.774904,344.835647 514.529238,344.89886 514.551116,344.401522 C514.55945,344.209559 512.942404,334.693204 510.957235,323.253034 L507.347583,302.453147 L503.816948,302.453147 L500.286312,302.453147 L494.853242,315.119 C491.865031,322.085451 489.240759,328.069311 489.020907,328.416518 C488.572838,329.125341 488.859156,329.703555 481.515751,313.259792 L476.689712,302.453147 L473.287827,302.453147 C470.983803,302.453147 469.819939,302.640927 469.682823,303.034149 M584.124962,302.960711 C574.637889,305.194549 570.718679,316.408825 577.380221,322.257893 C578.875024,323.570029 582.21509,325.137805 588.108779,327.294022 C592.772602,328.999845 594.440311,331.81515 592.815363,335.239346 C592.214374,336.505931 591.428859,337.223121 589.904774,337.897083 C586.888674,339.23153 583.573242,338.453916 580.799304,335.761783 C579.702836,334.697852 578.706301,333.513536 578.584987,333.130075 C578.379545,332.482606 577.40439,333.156104 572.466335,337.357448 C571.825373,337.902196 574.327866,340.806744 576.960504,342.57485 C580.699836,345.085245 583.629018,345.839154 588.628892,345.577471 C593.697093,345.312534 596.603499,344.191896 599.451341,341.404014 C604.612501,336.351617 604.847691,327.808093 599.940312,323.607677 C598.231236,322.144481 595.149134,320.678496 589.234529,318.514843 C585.986958,317.327274 584.256036,315.718129 584.256036,313.887275 C584.256036,309.158844 591.960593,307.852751 596.224686,311.857949 C596.850309,312.445924 597.43503,312.674606 597.654881,312.417106 C601.544344,307.864371 601.910143,307.237353 601.095345,306.521558 C597.62281,303.469669 589.341434,301.732239 584.124962,302.960711 M530.656006,303.685337 C530.481705,303.859638 530.339011,313.17055 530.339011,324.37646 L530.339011,344.750123 L543.353465,344.750123 L556.367919,344.750123 L556.367919,341.264109 L556.367919,337.778094 L548.233886,337.778094 L540.099852,337.778094 L540.099852,332.200471 L540.099852,326.622848 L547.769084,326.622848 L555.438316,326.622848 L555.438316,323.136833 L555.438316,319.650819 L547.769084,319.650819 L540.099852,319.650819 L540.099852,315.246355 L540.099852,310.841427 L548.117685,310.714537 L556.135518,310.587181 L556.135518,307.101166 L556.135518,303.615152 L543.55426,303.491514 C536.634753,303.423653 530.830771,303.511036 530.656006,303.685337 M426.295886,315.983996 C425.035343,319.328711 421.575357,329.012859 421.575357,329.196456 C421.575357,329.31498 424.107598,329.411659 427.202715,329.411659 C431.516077,329.411659 432.777084,329.275937 432.602783,328.830657 C431.442638,325.863361 427.012146,315.194762 426.882001,315.054392 C426.789506,314.955389 426.525963,315.373711 426.295886,315.983996" id="Shape"></path>
        </g>
    </g>
</svg>