<?xml version="1.0" encoding="UTF-8"?>
<svg width="800px" height="400px" viewBox="0 0 800 400" version="1.1" xmlns="http://www.w3.org/2000/svg" xmlns:xlink="http://www.w3.org/1999/xlink">
    <title>yumedia</title>
    <g id="Page-1" stroke="none" stroke-width="1" fill="none" fill-rule="evenodd">
        <g id="AF150_INCREMENTAL" fill="#000000" transform="translate(-0.000000, 0.000000)">
            <g id="yumedia" transform="translate(0.000000, 0.000000)">
                <line x1="0" y1="0" x2="800" y2="400" id="Path" fill-rule="nonzero"></line>
                <path d="M725.723052,126.956304 L797.89572,251.964355 C802.227608,259.467485 799.656808,269.061663 792.153678,273.393551 C789.768925,274.770375 787.063769,275.495212 784.310101,275.495212 L80.0895675,275.495212 C77.8492295,275.495212 76.0330767,273.679059 76.0330767,271.438721 L76.0330767,268.92792 C76.0330767,267.921872 76.3426036,266.940183 76.9196517,266.116079 L91.5438949,245.230631 C92.4612963,243.920455 93.9601614,243.140198 95.5595948,243.140198 L741.854807,243.140198 C745.103749,243.140198 747.737537,240.50641 747.737537,237.257468 C747.737537,236.224836 747.465719,235.210396 746.949404,234.316104 L707.526474,166.033415 C706.984985,165.095526 705.785711,164.77418 704.847822,165.315669 C704.241113,165.665952 703.867365,166.313302 703.867365,167.013868 L703.867365,231.374739 C703.867365,234.08219 701.672542,236.277013 698.96509,236.277013 L673.473261,236.277013 C670.765809,236.277013 668.570986,234.08219 668.570986,231.374739 L668.570986,143.20347 C668.570986,141.903306 669.087474,140.656393 670.006829,139.737038 L683.802878,125.94099 C684.722233,125.021635 685.969145,124.505147 687.269309,124.505147 L721.477546,124.505147 C723.228968,124.505147 724.847347,125.439524 725.723052,126.956304 Z M95.4239536,129.407063 L95.4239536,134.479329 C95.4239536,135.114439 95.300543,135.743497 95.060583,136.33153 L92.7292373,142.044602 C91.9765437,143.889113 90.1824727,145.094691 88.190296,145.094676 L52.5245279,145.094406 C49.8170763,145.094386 47.6222365,147.289192 47.622216,149.996644 C47.6222095,150.85718 47.8487226,151.702557 48.278988,152.447804 L68.4613144,187.40489 C69.8150323,189.749616 72.8132139,190.552987 75.1579403,189.199269 C75.7778951,188.841341 76.3119384,188.35198 76.7225369,187.76558 L119.554097,126.595249 C120.471496,125.285056 121.970371,124.504788 123.569817,124.504788 L152.592969,124.504788 C155.2423,124.504788 157.390008,126.652495 157.390008,129.301827 L157.390008,132.553185 C157.390008,133.559228 157.080484,134.540913 156.503441,135.365015 L59.8471822,273.404408 C58.9297818,274.714591 57.4309126,275.494853 55.8314742,275.494853 L25.3373865,275.494853 C23.0265136,275.494853 21.1531809,273.621521 21.1531809,271.310648 L21.1531809,268.672153 C21.1531809,267.666091 21.4627159,266.68439 22.0397778,265.86028 L48.1797421,228.529404 C49.2725392,226.968764 49.3621573,224.916326 48.4095481,223.266375 L1.57826269,142.153021 C-1.67070366,136.525703 0.257331679,129.330052 5.88465016,126.081086 C7.67323654,125.048435 9.70213732,124.504788 11.7674241,124.504788 L90.5216787,124.504788 C93.2291304,124.504788 95.4239536,126.699611 95.4239536,129.407063 Z M186.677368,157.840616 L186.677368,210.785184 C186.677368,213.492636 188.872191,215.687459 191.579643,215.687459 L203.345103,215.687459 C206.052554,215.687459 208.247377,213.492636 208.247377,210.785184 L208.247377,157.840616 C208.247377,155.133164 210.442201,152.938341 213.149652,152.938341 L238.641482,152.938341 C241.348933,152.938341 243.543756,155.133164 243.543756,157.840616 L243.543756,231.374739 C243.543756,234.08219 241.348933,236.277013 238.641482,236.277013 L170.079312,236.277013 C168.779148,236.277013 167.532235,235.760525 166.612881,234.84117 L152.816832,221.045122 C151.897477,220.125767 151.380989,218.878854 151.380989,217.57869 L151.380989,157.840616 C151.380989,155.133164 153.575812,152.938341 156.283264,152.938341 L181.775093,152.938341 C184.482545,152.938341 186.677368,155.133164 186.677368,157.840616 Z M496.991366,129.407422 L496.991366,140.192426 C496.991366,142.899878 494.796543,145.094701 492.089092,145.094701 L452.870893,145.094701 C450.163441,145.094701 447.968618,147.289524 447.968618,149.996976 L447.968618,165.194028 C447.968618,167.90148 450.163441,170.096303 452.870893,170.096303 L492.089092,170.096303 C494.796543,170.096303 496.991366,172.291126 496.991366,174.998578 L496.991366,185.783582 C496.991366,188.491034 494.796543,190.685857 492.089092,190.685857 L452.870893,190.685857 C450.163441,190.685857 447.968618,192.880681 447.968618,195.588132 L447.968618,210.785184 C447.968618,213.492636 450.163441,215.687459 452.870893,215.687459 L492.089092,215.687459 C494.796543,215.687459 496.991366,217.882282 496.991366,220.589734 L496.991366,231.374739 C496.991366,234.08219 494.796543,236.277013 492.089092,236.277013 L431.370562,236.277013 C430.070398,236.277013 428.823485,235.760525 427.90413,234.84117 L414.108082,221.045122 C413.188727,220.125767 412.672239,218.878854 412.672239,217.57869 L412.672239,129.407422 C412.672239,126.69997 414.867062,124.505147 417.574514,124.505147 L492.089092,124.505147 C494.796543,124.505147 496.991366,126.69997 496.991366,129.407422 Z M545.523887,124.505147 C580.720759,124.505147 609.253461,149.526131 609.253461,180.39108 C609.253461,211.256029 580.720759,236.277013 545.523887,236.277013 L515.129783,236.277013 C512.422332,236.277013 510.227508,234.08219 510.227508,231.374739 L510.227508,157.840616 C510.227508,155.133164 512.422332,152.938341 515.129783,152.938341 L540.621613,152.938341 C543.329064,152.938341 545.523887,155.133164 545.523887,157.840616 L545.523887,215.446138 C562.310088,215.446138 575.917992,199.709984 575.917992,180.298453 C575.917992,160.886923 562.310088,145.150769 545.523887,145.150769 L515.121996,145.102476 C512.417589,145.09818 510.227508,142.904618 510.227508,140.200207 L510.227508,129.407422 C510.227508,126.69997 512.422332,124.505147 515.129783,124.505147 L545.523887,124.505147 Z M396.004504,129.407422 L396.004504,231.374739 C396.004504,234.08219 393.809681,236.277013 391.10223,236.277013 L365.6104,236.277013 C362.902949,236.277013 360.708125,234.08219 360.708125,231.374739 L360.708125,149.996976 C360.708125,147.289524 358.513302,145.094701 355.805851,145.094701 L348.942666,145.094701 C346.235214,145.094701 344.040391,147.289524 344.040391,149.996976 L344.040391,231.374739 C344.040391,234.08219 341.845568,236.277013 339.138116,236.277013 L313.646287,236.277013 C310.938835,236.277013 308.744012,234.08219 308.744012,231.374739 L308.744012,149.996976 C308.744012,147.289524 306.549189,145.094701 303.841737,145.094701 L296.978552,145.094701 C294.271101,145.094701 292.076277,147.289524 292.076277,149.996976 L292.076277,231.374739 C292.076277,234.08219 289.881454,236.277013 287.174003,236.277013 L261.682173,236.277013 C258.974722,236.277013 256.779899,234.08219 256.779899,231.374739 L256.779899,143.20347 C256.779899,141.903306 257.296387,140.656393 258.215742,139.737038 L272.01179,125.94099 C272.931145,125.021635 274.178058,124.505147 275.478222,124.505147 L391.10223,124.505147 C393.809681,124.505147 396.004504,126.69997 396.004504,129.407422 Z M655.334844,129.407422 L655.334844,231.374739 C655.334844,234.08219 653.140021,236.277013 650.432569,236.277013 L624.94074,236.277013 C622.233288,236.277013 620.038465,234.08219 620.038465,231.374739 L620.038465,143.20347 C620.038465,141.903306 620.554953,140.656393 621.474308,139.737038 L635.270357,125.94099 C636.189712,125.021635 637.436624,124.505147 638.736788,124.505147 L650.432569,124.505147 C653.140021,124.505147 655.334844,126.69997 655.334844,129.407422 Z M713.898885,187.855615 L737.035775,227.93036 C737.465958,228.675468 737.692467,229.52067 737.692744,230.381044 L737.692744,232.672371 C737.692744,234.598771 736.181772,236.172327 734.280158,236.272001 L734.088419,236.277013 L715.142597,236.277013 C712.435168,236.277013 710.240354,234.082168 710.240266,231.374739 L710.239772,188.836084 C710.239772,187.753103 711.117679,186.875151 712.20066,186.875151 C712.901237,186.875151 713.5486,187.248895 713.898885,187.855615 Z M240.644433,126.317049 L200.487378,151.412778 C198.980265,152.354633 197.081437,152.407053 195.524656,151.549782 L167.644931,136.197286 C166.07965,135.335334 165.107359,133.689963 165.107359,131.903048 L165.107359,129.407422 C165.107359,126.69997 167.302182,124.505147 170.009634,124.505147 L240.124829,124.505147 C240.666319,124.505147 241.105284,124.944111 241.105284,125.485602 C241.105284,125.823668 240.93112,126.137886 240.644433,126.317049 Z" id="Shape"></path>
            </g>
        </g>
    </g>
</svg>