<?xml version="1.0" encoding="UTF-8"?>
<svg width="169.547193px" height="30px" viewBox="0 0 169.547193 30" version="1.1" xmlns="http://www.w3.org/2000/svg" xmlns:xlink="http://www.w3.org/1999/xlink">
    <title>zemmix v super</title>
    <g id="Page-1" stroke="none" stroke-width="1" fill="none" fill-rule="evenodd">
        <g id="System" transform="translate(-15.226404, 0.000000)" fill="#000000">
            <g id="zemmix-v-super" transform="translate(15.226404, 0.000000)">
                <line x1="84.7735963" y1="30" x2="84.7735963" y2="0" id="Path" stroke="#979797" fill-rule="nonzero"></line>
                <g id="Group" transform="translate(0.000000, 1.000000)">
                    <path d="M30.4508991,15.412844 C30.7743119,14.5140183 31.6256147,13.8715596 32.6238532,13.8715596 C33.6220917,13.8715596 34.4733945,14.5140183 34.7968073,15.412844 L30.4508991,15.412844 Z M0,23.8971009 L0,24.9174312 L17.9816514,24.9174312 L17.9816514,22.8623853 L10.0830826,22.8623853 L19.0721101,8.47706422 L0.256880734,8.47706422 L0.256880734,10.5321101 L8.35119266,10.5321101 L0,23.8971009 Z M52.9174312,24.9174312 L42.8990826,24.9174312 L42.8990826,15.1559633 C42.8990826,14.3054312 41.9781651,13.6146789 40.8440367,13.6146789 C39.7099083,13.6146789 38.7889908,14.3054312 38.7889908,15.1559633 L38.7889908,24.9174312 L36.733945,24.9174312 L36.733945,8.99082569 L38.7889908,8.99082569 L38.7889908,11.3048073 C41.0551927,9.79640367 42.7228624,8.73394495 46.2385321,8.73394495 C50.1400367,8.73394495 51.8857982,11.6559633 52.4036697,12.3302752 C53.2464954,11.4152661 56.3894312,8.73394495 60.1100917,8.73394495 C63.8307523,8.73394495 68.3302752,12.0471927 68.3302752,16.440367 L68.3302752,24.9174312 L57.0275229,24.9174312 L57.0275229,15.1559633 C57.0275229,14.3054312 56.1066055,13.6146789 54.9724771,13.6146789 C53.8383486,13.6146789 52.9174312,14.3054312 52.9174312,15.1559633 L52.9174312,24.9174312 Z M85.7981651,24.9174312 L75.7798165,24.9174312 L75.7798165,15.1559633 C75.7798165,14.3054312 74.8588991,13.6146789 73.7247706,13.6146789 C72.5906422,13.6146789 71.6697248,14.3054312 71.6697248,15.1559633 L71.6697248,24.9174312 L69.6146789,24.9174312 L69.6146789,8.99082569 L71.6697248,8.99082569 L71.6697248,11.3048073 C73.9359266,9.79640367 75.6035963,8.73394495 79.1192661,8.73394495 C83.0207706,8.73394495 84.7665321,11.6559633 85.2844037,12.3302752 C86.1272294,11.4152661 89.2701651,8.73394495 92.9908257,8.73394495 C96.7114862,8.73394495 101.211009,12.0471927 101.211009,16.440367 L101.211009,24.9174312 L89.9082569,24.9174312 L89.9082569,15.1559633 C89.9082569,14.3054312 88.9873394,13.6146789 87.853211,13.6146789 C86.7190826,13.6146789 85.7981651,14.3054312 85.7981651,15.1559633 L85.7981651,24.9174312 Z M104.293578,8.73394495 L104.293578,24.9174312 L102.495413,24.9174312 L102.495413,8.73394495 L104.293578,8.73394495 Z M104.293578,0 L104.293578,5.90825688 L102.495413,5.90825688 L102.495413,0 L104.293578,0 Z M30.4298349,16.9541284 C30.7357798,17.8850642 31.6030092,18.5568073 32.6238532,18.5568073 C33.3449174,18.5568073 33.9894312,18.221578 34.4135413,17.6967706 L35.5921101,17.6967706 C34.9090642,21.7888807 31.2497982,24.9174312 26.8440367,24.9174312 C21.9527706,24.9174312 17.9816514,21.3182752 17.9816514,16.5688073 L17.9816514,16.0550459 C17.9816514,11.305578 21.9527706,7.70642202 26.8440367,7.70642202 C31.7353028,7.70642202 35.706422,11.5624587 35.706422,16.3119266 C35.706422,16.5279633 35.6982018,16.7422018 35.6820183,16.9541284 L30.4298349,16.9541284 Z M125.374752,24.9174312 L118.652183,14.6445138 L124.945248,8.73394495 L122.073064,8.73394495 L117.558899,12.9737615 L115.041468,8.73394495 L105.090936,8.73394495 L111.555339,18.6125505 L104.842789,24.9174312 L107.714716,24.9174312 L112.648624,20.2833028 L115.681101,24.9174312 L125.374752,24.9174312 Z" id="Shape"></path>
                    <path d="M155.197752,18.35 L149.36022,28 L140.801725,28 L135.662752,18.35 L137.191752,18.35 L141.611413,26.6506055 L148.597798,26.6506055 L153.618752,18.35 L155.197752,18.35 Z M151.014752,18.35 L148.236881,22.882422 L145.909752,18.35 L147.426752,18.35 L148.341431,20.1296881 L149.431752,18.35 L151.014752,18.35 Z M141.219927,0 L141.219927,4.72300917 L140.430532,4.72300917 L142.291752,8.35 L140.775752,8.35 L138.221101,3.37361468 L139.870532,3.37361468 L139.870532,1.3493945 L126.724147,1.3493945 L126.724147,3.37361468 L129.217174,3.37361468 L131.866752,8.35 L130.337752,8.35 L128.407486,4.72300917 L125.374752,4.72300917 L125.374752,0 L141.219927,0 Z M169.547193,0 L169.547193,4.72300917 L163.441138,4.72300917 L161.246752,8.35 L159.666752,8.35 L162.678716,3.37361468 L168.197798,3.37361468 L168.197798,1.3493945 L155.051413,1.3493945 L155.051413,3.37361468 L160.195963,3.37361468 L157.144752,8.35 L155.562752,8.35 L157.787193,4.72300917 L153.702018,4.72300917 L153.702018,0 L169.547193,0 Z" id="Combined-Shape"></path>
                    <path d="M125.402876,14.5200422 L127.507479,14.5153549 L127.507479,14.6419123 C127.507479,14.9044017 127.571539,15.0817383 127.699659,15.1739221 C127.827778,15.2661059 128.096518,15.3121978 128.505876,15.3121978 L131.182331,15.3121978 C131.44482,15.3121978 131.632312,15.2676683 131.744808,15.1786094 C131.857303,15.0895505 131.913551,14.9419002 131.913551,14.7356585 C131.913551,14.526292 131.84871,14.376298 131.719028,14.2856767 C131.589345,14.1950553 131.31045,14.1341203 130.882343,14.1028715 L127.535603,14.0278746 C126.698136,14.0028756 126.131753,13.843507 125.836452,13.5497688 C125.541152,13.2560307 125.393502,12.7216772 125.393502,11.9467085 C125.393502,11.5467246 125.432562,11.2170504 125.510684,10.9576859 C125.588806,10.6983213 125.713801,10.482705 125.885669,10.310837 C126.088786,10.1170948 126.3544,9.97960032 126.682512,9.8983536 C127.010624,9.81710687 127.544977,9.77648351 128.285572,9.77648351 L131.538566,9.77648351 C132.344784,9.77648351 132.925229,9.92335259 133.279902,10.2170907 C133.634575,10.5108289 133.811912,10.9873722 133.811912,11.6467206 C133.811912,11.6904688 133.811131,11.7373419 133.809568,11.7873399 C133.808006,11.8373379 133.802537,11.9185846 133.793163,12.0310801 L131.740121,12.0310801 L131.740121,12.0029562 C131.740121,11.7717156 131.681529,11.598285 131.564346,11.4826647 C131.447164,11.3670444 131.27139,11.3092342 131.037024,11.3092342 L128.580873,11.3092342 C128.171515,11.3092342 127.901213,11.3498576 127.769968,11.4311043 C127.638723,11.512351 127.573101,11.6545328 127.573101,11.8576496 C127.573101,12.0576415 127.632474,12.2021669 127.751219,12.2912259 C127.869964,12.3802848 128.088705,12.4373137 128.407442,12.4623127 L131.913551,12.5185604 C132.713519,12.5404346 133.276777,12.7201148 133.603327,13.0576012 C133.929876,13.3950876 134.093151,13.9716268 134.093151,14.7872189 C134.093151,15.2715744 134.032997,15.6465593 133.912689,15.9121736 C133.792382,16.1777879 133.590046,16.4043412 133.305682,16.5918337 C133.11819,16.7105789 132.863513,16.7957317 132.541651,16.8472921 C132.219789,16.8988525 131.754183,16.9246328 131.144832,16.9246328 L128.304322,16.9246328 C127.138744,16.9246328 126.359088,16.7941693 125.965353,16.5332423 C125.571619,16.2723153 125.374752,15.7856162 125.374752,15.0731449 C125.374752,15.0325216 125.377096,14.9645555 125.381783,14.8692469 C125.386471,14.7739382 125.393502,14.6575367 125.402876,14.5200422 Z M134.650746,9.86085511 L136.778785,9.86085511 L136.778785,13.9997507 C136.778785,14.4716067 136.885812,14.7880002 137.099866,14.9489312 C137.31392,15.1098622 137.780307,15.1903277 138.499028,15.1903277 L139.708355,15.1903277 C140.305206,15.1903277 140.705189,15.1051749 140.908306,14.9348692 C141.111423,14.7645636 141.212982,14.4528574 141.212982,13.9997507 L141.212982,9.86085511 L143.345708,9.86085511 L143.345708,14.6606615 C143.345708,15.4825034 143.124623,16.0652924 142.682454,16.4090285 C142.240284,16.7527647 141.475471,16.9246328 140.388015,16.9246328 L138.006861,16.9246328 C136.728787,16.9246328 135.849917,16.7605769 135.370248,16.4324651 C134.89058,16.1043533 134.650746,15.5137521 134.650746,14.6606615 L134.650746,9.86085511 Z M149.373395,11.5998475 L146.232897,11.5998475 L146.232897,13.3669637 L149.373395,13.3669637 C149.657759,13.3669637 149.85697,13.2974353 149.971028,13.1583784 C150.085085,13.0193215 150.142114,12.7716752 150.142114,12.4154396 C150.142114,12.1310761 150.081179,11.9240532 149.959309,11.7943709 C149.837439,11.6646886 149.642135,11.5998475 149.373395,11.5998475 Z M149.448392,9.86085511 C149.923373,9.86085511 150.302264,9.88351045 150.585065,9.92882112 C150.867866,9.97413179 151.1077,10.0483475 151.304567,10.1514684 C151.657678,10.335836 151.913918,10.6100436 152.073286,10.9740915 C152.232655,11.3381393 152.312339,11.8404628 152.312339,12.4810619 C152.312339,13.4372734 152.152971,14.1130274 151.834234,14.5083239 C151.515496,14.9036205 150.976456,15.1012688 150.217111,15.1012688 L146.232897,15.1012688 L146.232897,16.8402612 L144.095483,16.8402612 L144.095483,9.86085511 L149.448392,9.86085511 Z M160.388382,11.562349 L154.894853,11.562349 L154.894853,12.616994 L160.069644,12.616994 L160.069644,14.0841223 L154.894853,14.0841223 L154.894853,15.1528292 L160.472753,15.1528292 L160.472753,16.8402612 L152.766814,16.8402612 L152.766814,9.86085511 L160.388382,9.86085511 L160.388382,11.562349 Z M166.608249,11.5998475 L163.219323,11.5998475 L163.219323,13.3060287 L166.608249,13.3060287 C166.892612,13.3060287 167.091823,13.2396251 167.205881,13.106818 C167.319939,12.9740108 167.376968,12.7341767 167.376968,12.3873157 C167.376968,12.1123268 167.316033,11.9123349 167.194163,11.7873399 C167.072292,11.662345 166.876988,11.5998475 166.608249,11.5998475 Z M166.687933,9.86085511 C167.794138,9.86085511 168.547233,10.024911 168.947217,10.3530228 C169.347201,10.6811345 169.547193,11.2795479 169.547193,12.1482629 C169.547193,12.7513635 169.458134,13.199783 169.280016,13.4935211 C169.101898,13.7872593 168.803473,13.9841263 168.38474,14.0841223 C168.753475,14.1716188 169.030026,14.3263 169.214394,14.5481661 C169.398761,14.7700321 169.490945,15.0575205 169.490945,15.4106313 L169.490945,16.8402612 L167.358218,16.8402612 L167.358218,15.7762416 C167.358218,15.5012527 167.293377,15.3121978 167.163695,15.2090769 C167.034013,15.1059561 166.778554,15.0543957 166.39732,15.0543957 L163.219323,15.0543957 L163.219323,16.8402612 L161.081909,16.8402612 L161.081909,9.86085511 L166.687933,9.86085511 Z" id="Combined-Shape" fill-rule="nonzero"></path>
                </g>
            </g>
        </g>
    </g>
</svg>