<?xml version="1.0" encoding="UTF-8"?>
<svg width="187.728049px" height="30px" viewBox="0 0 187.728049 30" version="1.1" xmlns="http://www.w3.org/2000/svg" xmlns:xlink="http://www.w3.org/1999/xlink">
    <title>zemmix neo</title>
    <g id="Page-1" stroke="none" stroke-width="1" fill="none" fill-rule="evenodd">
        <g id="System" transform="translate(-6.135975, 0.000000)" fill="#000000">
            <g id="zemmix-neo" transform="translate(6.135975, 0.000000)">
                <line x1="93.8640247" y1="30" x2="93.8640247" y2="0" id="Path" stroke="#979797" fill-rule="nonzero"></line>
                <path d="M30.4508991,16.412844 C30.7743119,15.5140183 31.6256147,14.8715596 32.6238532,14.8715596 C33.6220917,14.8715596 34.4733945,15.5140183 34.7968073,16.412844 L30.4508991,16.412844 Z M0,24.8971009 L0,25.9174312 L17.9816514,25.9174312 L17.9816514,23.8623853 L10.0830826,23.8623853 L19.0721101,9.47706422 L0.256880734,9.47706422 L0.256880734,11.5321101 L8.35119266,11.5321101 L0,24.8971009 Z M52.9174312,25.9174312 L42.8990826,25.9174312 L42.8990826,16.1559633 C42.8990826,15.3054312 41.9781651,14.6146789 40.8440367,14.6146789 C39.7099083,14.6146789 38.7889908,15.3054312 38.7889908,16.1559633 L38.7889908,25.9174312 L36.733945,25.9174312 L36.733945,9.99082569 L38.7889908,9.99082569 L38.7889908,12.3048073 C41.0551927,10.7964037 42.7228624,9.73394495 46.2385321,9.73394495 C50.1400367,9.73394495 51.8857982,12.6559633 52.4036697,13.3302752 C53.2464954,12.4152661 56.3894312,9.73394495 60.1100917,9.73394495 C63.8307523,9.73394495 68.3302752,13.0471927 68.3302752,17.440367 L68.3302752,25.9174312 L57.0275229,25.9174312 L57.0275229,16.1559633 C57.0275229,15.3054312 56.1066055,14.6146789 54.9724771,14.6146789 C53.8383486,14.6146789 52.9174312,15.3054312 52.9174312,16.1559633 L52.9174312,25.9174312 Z M85.7981651,25.9174312 L75.7798165,25.9174312 L75.7798165,16.1559633 C75.7798165,15.3054312 74.8588991,14.6146789 73.7247706,14.6146789 C72.5906422,14.6146789 71.6697248,15.3054312 71.6697248,16.1559633 L71.6697248,25.9174312 L69.6146789,25.9174312 L69.6146789,9.99082569 L71.6697248,9.99082569 L71.6697248,12.3048073 C73.9359266,10.7964037 75.6035963,9.73394495 79.1192661,9.73394495 C83.0207706,9.73394495 84.7665321,12.6559633 85.2844037,13.3302752 C86.1272294,12.4152661 89.2701651,9.73394495 92.9908257,9.73394495 C96.7114862,9.73394495 101.211009,13.0471927 101.211009,17.440367 L101.211009,25.9174312 L89.9082569,25.9174312 L89.9082569,16.1559633 C89.9082569,15.3054312 88.9873394,14.6146789 87.853211,14.6146789 C86.7190826,14.6146789 85.7981651,15.3054312 85.7981651,16.1559633 L85.7981651,25.9174312 Z M104.293578,9.73394495 L104.293578,25.9174312 L102.495413,25.9174312 L102.495413,9.73394495 L104.293578,9.73394495 Z M104.293578,1 L104.293578,6.90825688 L102.495413,6.90825688 L102.495413,1 L104.293578,1 Z M30.4298349,17.9541284 C30.7357798,18.8850642 31.6030092,19.5568073 32.6238532,19.5568073 C33.3449174,19.5568073 33.9894312,19.221578 34.4135413,18.6967706 L35.5921101,18.6967706 C34.9090642,22.7888807 31.2497982,25.9174312 26.8440367,25.9174312 C21.9527706,25.9174312 17.9816514,22.3182752 17.9816514,17.5688073 L17.9816514,17.0550459 C17.9816514,12.305578 21.9527706,8.70642202 26.8440367,8.70642202 C31.7353028,8.70642202 35.706422,12.5624587 35.706422,17.3119266 C35.706422,17.5279633 35.6982018,17.7422018 35.6820183,17.9541284 L30.4298349,17.9541284 Z M125.374752,25.9174312 L118.652183,15.6445138 L124.945248,9.73394495 L122.073064,9.73394495 L117.558899,13.9737615 L115.041468,9.73394495 L105.090936,9.73394495 L111.555339,19.6125505 L104.842789,25.9174312 L107.714716,25.9174312 L112.648624,21.2833028 L115.681101,25.9174312 L125.374752,25.9174312 Z" id="Shape"></path>
                <path d="M181.661525,10.6362706 C182.724058,10.6362706 183.736666,10.9051428 184.684785,11.4371189 C185.645744,11.9762998 186.400505,12.7354485 186.935141,13.7004012 C187.460285,14.6482225 187.728049,15.623495 187.728049,16.6149219 C187.728049,18.6537536 187.084282,20.6830212 185.814465,22.6902785 C184.557948,24.6765117 183.124821,26.1353718 181.503703,27.0547922 C180.241473,27.7606444 178.722933,28.1076227 176.960303,28.1076227 C175.587267,28.1076227 174.4386,27.8172049 173.531575,27.2155154 C172.639675,26.6238588 171.967461,25.8118778 171.526354,24.7986422 C171.1069,23.8351437 170.893779,22.8813718 170.893779,21.9422406 C170.893779,20.1485754 171.403214,18.3535164 172.409333,16.5670624 C173.415493,14.7805342 174.778448,13.3439598 176.489048,12.268385 C178.209695,11.1864931 179.937516,10.6362706 181.661525,10.6362706 Z M144.620231,0 L144.873068,0.539067533 L151.911951,15.5467946 L154.860723,5.41979345 C155.02136,4.84149866 155.103919,4.33679977 155.112164,3.90880235 L155.112851,3.83818017 C155.112851,3.44902243 155.009741,3.18715613 154.802371,2.98966139 C154.590193,2.78758714 154.098036,2.62882655 153.316848,2.57810007 L152.144778,2.50199162 L152.479486,1.37615382 L152.689446,0.669926197 L152.888613,0 L163.018787,0 L162.699498,1.18137184 L162.508625,1.88759946 L162.333012,2.53736681 L161.66118,2.57833223 C160.795225,2.63113432 160.111938,2.86309887 159.587742,3.26481922 C159.096585,3.64122053 158.607801,4.53237243 158.189138,5.9354419 L151.871264,27.3704046 L151.673185,28.042438 L149.652677,28.042438 L149.399509,27.5044553 L140.069585,7.67853405 L135.74687,22.4880428 C135.611117,22.9788422 135.541133,23.4083175 135.53337,23.7738191 L135.532642,23.8416004 C135.532642,24.2739821 135.654801,24.5716365 135.905978,24.8015871 C136.157927,25.0322448 136.660175,25.1760603 137.439719,25.1760603 L138.631859,25.1760603 L138.350095,26.3344238 L138.17831,27.0406514 L138.004274,27.7561295 L127.639238,27.7561295 L127.921002,26.597766 L128.092787,25.8915384 L128.266822,25.1760603 L129.003162,25.1760603 C129.614419,25.1760603 130.025574,25.1253005 130.188874,25.0572588 L130.215689,25.0465678 C130.595236,24.9019784 130.995923,24.6014632 131.410715,24.1296367 C131.818429,23.6658619 132.172693,22.94916 132.455536,21.9761805 L137.78428,3.68740779 L137.771453,3.67399808 C137.357039,3.25134657 137.014722,2.97534027 136.763909,2.84844006 L136.734252,2.8339279 C136.419363,2.68523023 135.854033,2.59100853 135.059891,2.57997878 L133.822047,2.5627865 L134.17483,1.37615382 L134.384789,0.669926197 L134.583957,0 L144.620231,0 Z M172.126746,10.9877638 L171.826526,12.1575858 L170.870904,15.8812168 L170.690226,16.5852363 L168.698761,16.5852151 L167.085195,22.1904496 L166.890092,22.8681772 L164.690961,22.8681772 L164.876697,21.7744021 C164.934527,21.4338437 164.962331,21.1681648 164.962331,20.9866185 C164.962331,20.8118033 164.926053,20.7113402 164.855697,20.6355726 C164.737549,20.5083363 164.57673,20.4131771 164.349737,20.3476852 C164.305706,20.3347347 164.180627,20.316381 163.99539,20.3025894 C163.774564,20.2861483 163.487658,20.2771043 163.140215,20.2760292 L162.915305,20.2759021 L161.682069,24.592195 C161.645213,24.7222751 161.614982,24.8391763 161.591356,24.9422754 L161.584253,24.9737789 L161.620337,24.978119 C161.753578,24.9930207 161.914438,25.0017025 162.101365,25.0032898 L162.164637,25.003555 C163.277193,25.003555 164.317511,24.7693219 165.296011,24.2995119 C166.273546,23.8301658 167.158055,23.1137464 167.952449,22.1406136 L168.233619,21.7961796 L170.485683,21.7961796 L170.004695,23.0651702 L168.455928,27.1512786 L168.22667,27.7561295 L153.54937,27.7561295 L153.94698,26.5301643 L154.07879,26.1237503 L154.288912,25.475874 L154.97001,25.475874 C155.520273,25.475874 155.864097,25.3870333 156.012937,25.2651115 C156.06968,25.2186302 156.159235,25.0953048 156.260679,24.8930138 C156.388054,24.6390128 156.516111,24.2958051 156.640964,23.8653951 L159.440861,14.2798946 C159.548585,13.9054239 159.610003,13.6082639 159.628775,13.4007022 L159.631085,13.3703276 L159.61374,13.366074 L159.584884,13.359406 C159.410098,13.3203276 159.165342,13.288082 158.856172,13.2655384 L157.694241,13.1808143 L158.026236,12.064104 L158.147062,11.65769 L158.346229,10.9877638 L172.126746,10.9877638 Z M181.661525,11.5731913 C180.123742,11.5731913 178.565822,12.0693093 176.987764,13.0615453 C175.409706,14.0537813 174.155681,15.3755422 173.225688,17.0268279 C172.295696,18.6781137 171.8307,20.3165846 171.8307,21.9422406 C171.8307,22.7477459 172.0156,23.5752194 172.3854,24.4246613 C172.7552,25.2741032 173.3099,25.9441371 174.0495,26.434763 C174.789101,26.925389 175.759368,27.1707019 176.960303,27.1707019 C178.571314,27.1707019 179.93335,26.859484 181.046412,26.2370481 C182.51829,25.4022518 183.843712,24.0530305 185.022679,22.1893843 C186.201645,20.3257381 186.791129,18.4675839 186.791129,16.6149219 C186.791129,15.7874483 186.565953,14.9672975 186.115603,14.1544695 C185.665252,13.3416415 185.035493,12.7082214 184.226327,12.2542094 C183.41716,11.8001973 182.562226,11.5731913 181.661525,11.5731913 Z M144.024815,0.936920756 L135.282862,0.936920756 L135.072902,1.64314838 C135.98909,1.6558732 136.67623,1.7703966 137.134323,1.98671857 C137.592417,2.20304055 138.158672,2.68658378 138.833087,3.43734828 L133.355051,22.2382728 C133.036931,23.3326075 132.623374,24.1692645 132.114381,24.7482439 C131.605388,25.3272233 131.083671,25.7185116 130.549228,25.9221088 C130.243832,26.049357 129.728477,26.1129811 129.003162,26.1129811 L128.831377,26.8192087 L137.267934,26.8192087 L137.439719,26.1129811 C136.447183,26.1129811 135.725049,25.9062027 135.273318,25.492646 C134.821587,25.0790893 134.595721,24.5287408 134.595721,23.8416004 C134.595721,23.370782 134.678433,22.8363394 134.843856,22.2382728 L139.863798,5.04067585 L150.247253,27.1055172 L150.972567,27.1055172 L157.290442,5.67055454 C157.76126,4.09267661 158.337058,3.0428788 159.017836,2.5211611 C159.698614,1.99944339 160.560721,1.70677249 161.604156,1.64314838 L161.795029,0.936920756 L153.587518,0.936920756 L153.377559,1.64314838 C154.35737,1.70677249 155.047692,1.92945687 155.448524,2.31120153 C155.849355,2.69294619 156.049771,3.20193907 156.049771,3.83818017 C156.049771,4.3726227 155.954335,4.98341415 155.763463,5.67055454 L152.117801,18.1917794 L144.024815,0.936920756 Z M170.919014,11.9246845 L159.045134,11.9246845 L158.924309,12.3310985 C159.627295,12.3823579 160.077646,12.4830461 160.275361,12.633163 C160.473076,12.7832799 160.571933,12.997471 160.571933,13.2757365 C160.571933,13.583293 160.495044,14.0043526 160.341266,14.5389152 L157.540304,24.1280889 C157.262039,25.0873724 156.950821,25.7079776 156.60665,25.9899045 C156.26248,26.2718313 155.716933,26.4127947 154.97001,26.4127947 L154.8382,26.8192087 L167.579829,26.8192087 L169.128596,22.7331003 L168.678245,22.7331003 C167.799512,23.8095482 166.807276,24.6132228 165.701537,25.144124 C164.595798,25.6750251 163.416831,25.9404757 162.164637,25.9404757 C161.51291,25.9404757 161.069882,25.867248 160.835553,25.7207925 C160.674452,25.6182736 160.593901,25.4828023 160.593901,25.3143785 C160.593901,25.102018 160.656145,24.7761545 160.780632,24.336788 L162.208573,19.3389941 L163.14033,19.3391084 C163.881904,19.3413944 164.373162,19.3779702 164.614105,19.4488358 C164.994889,19.5586774 165.304276,19.7417468 165.542267,19.9980439 C165.780257,20.254341 165.899252,20.5838659 165.899252,20.9866185 C165.899252,21.2282701 165.866299,21.5431494 165.800394,21.9312565 L166.18484,21.9312565 L167.854433,16.1316187 L167.448019,16.1316187 C167.023298,17.0249973 166.505211,17.6474331 165.89376,17.9989263 C165.282308,18.3504195 164.31021,18.5261661 162.977465,18.5261661 L162.472193,18.5261661 L164.130802,12.7484967 L165.52579,12.7484967 C166.668143,12.7484967 167.493786,12.8565076 168.002719,13.0725295 C168.511652,13.2885513 168.919896,13.6308911 169.227453,14.0995487 C169.425168,14.3997824 169.538671,14.9160381 169.567962,15.6483156 L169.963392,15.6483156 L170.919014,11.9246845 Z M181.299047,12.4738926 C181.855578,12.4738926 182.322405,12.699068 182.699528,13.1494186 C183.076651,13.5997693 183.265213,14.3265547 183.265213,15.3297749 C183.265213,16.9334626 182.911889,18.7623256 182.205241,20.816364 C181.498593,22.8704023 180.585077,24.4283227 179.464692,25.4901251 C178.900839,26.0246876 178.216159,26.2919689 177.410654,26.2919689 C176.802864,26.2919689 176.304915,26.0631322 175.916808,25.6054588 C175.528701,25.1477853 175.334647,24.4722594 175.334647,23.5788808 C175.334647,22.531724 175.534193,21.2246087 175.933284,19.6575348 C176.332375,18.090461 176.758927,16.8510813 177.212939,15.9393959 C177.666951,15.0277104 178.11364,14.3265547 178.553007,13.8359288 C178.992373,13.3453028 179.415264,12.9956403 179.821678,12.7869413 C180.228092,12.5782422 180.720548,12.4738926 181.299047,12.4738926 Z M181.299047,13.4108134 C180.861498,13.4108134 180.514696,13.4842995 180.249667,13.6203951 C179.956141,13.7711247 179.619379,14.0495735 179.250966,14.4609672 C178.874746,14.8810803 178.47118,15.5145458 178.051619,16.3570517 C177.631265,17.2011507 177.225235,18.3809018 176.841224,19.8887624 C176.459862,21.3862198 176.271568,22.6196311 176.271568,23.5788808 C176.271568,24.2683828 176.404847,24.7323446 176.631389,24.9994936 C176.84082,25.2464631 177.077101,25.3550482 177.410654,25.3550482 C177.978683,25.3550482 178.432067,25.1780586 178.820207,24.8100817 C179.819977,23.8625872 180.658276,22.4329428 181.319283,20.5115693 C181.994323,18.5494066 182.328292,16.8207303 182.328292,15.3297749 C182.328292,14.5261405 182.192695,14.0034993 181.981204,13.7509422 C181.7794,13.5099529 181.573867,13.4108134 181.299047,13.4108134 Z M165.52579,13.6854174 L164.836617,13.6852892 L163.722306,17.5669519 L163.779135,17.5632837 C164.540596,17.5103003 165.093415,17.3783112 165.426823,17.1866513 C165.856172,16.9398402 166.25306,16.4630132 166.601854,15.7293435 L166.856029,15.194698 L168.592889,15.1946685 L168.589884,15.1692173 C168.579896,15.0939912 168.56846,15.0242653 168.555658,14.9601414 L168.545801,14.9131004 C168.511821,14.7585456 168.473652,14.6584098 168.444142,14.6135963 C168.237809,14.2991842 167.974495,14.0783778 167.636645,13.934974 C167.269592,13.7791746 166.552906,13.6854174 165.52579,13.6854174 Z" id="Combined-Shape" fill-rule="nonzero"></path>
            </g>
        </g>
    </g>
</svg>