<?xml version="1.0" encoding="UTF-8"?>
<svg width="130.821814px" height="30px" viewBox="0 0 130.821814 30" version="1.1" xmlns="http://www.w3.org/2000/svg" xmlns:xlink="http://www.w3.org/1999/xlink">
    <title>zemmix</title>
    <g id="Page-1" stroke="none" stroke-width="1" fill="none" fill-rule="evenodd">
        <g id="System" transform="translate(-34.589093, 0.000000)" fill="#000000">
            <g id="zemmix" transform="translate(34.589093, 0.000000)">
                <line x1="65.4109072" y1="30" x2="65.4109072" y2="0" id="Path" stroke="#979797" fill-rule="nonzero"></line>
                <path d="M31.7738763,16.0824742 C32.1113402,15.1445979 32.9996289,14.4742268 34.0412371,14.4742268 C35.0828454,14.4742268 35.971134,15.1445979 36.3085979,16.0824742 L31.7738763,16.0824742 Z M0,24.9353402 L0,26 L18.7628866,26 L18.7628866,23.8556701 L10.5211546,23.8556701 L19.9007216,8.84536082 L0.268041237,8.84536082 L0.268041237,10.9896907 L8.71402062,10.9896907 L0,24.9353402 Z M55.2164948,26 L44.7628866,26 L44.7628866,15.814433 C44.7628866,14.9269485 43.8019588,14.2061856 42.6185567,14.2061856 C41.4351546,14.2061856 40.4742268,14.9269485 40.4742268,15.814433 L40.4742268,26 L38.3298969,26 L38.3298969,9.3814433 L40.4742268,9.3814433 L40.4742268,11.7959588 C42.8388866,10.2220206 44.5790103,9.11340206 48.2474227,9.11340206 C52.318433,9.11340206 54.1400412,12.1623711 54.6804124,12.8659794 C55.5598557,11.9112165 58.8393402,9.11340206 62.7216495,9.11340206 C66.6039588,9.11340206 71.2989691,12.5705979 71.2989691,17.1546392 L71.2989691,26 L59.5051546,26 L59.5051546,15.814433 C59.5051546,14.9269485 58.5442268,14.2061856 57.3608247,14.2061856 C56.1774227,14.2061856 55.2164948,14.9269485 55.2164948,15.814433 L55.2164948,26 Z M89.5257732,26 L79.0721649,26 L79.0721649,15.814433 C79.0721649,14.9269485 78.1112371,14.2061856 76.9278351,14.2061856 C75.744433,14.2061856 74.7835052,14.9269485 74.7835052,15.814433 L74.7835052,26 L72.6391753,26 L72.6391753,9.3814433 L74.7835052,9.3814433 L74.7835052,11.7959588 C77.1481649,10.2220206 78.8882887,9.11340206 82.556701,9.11340206 C86.6277113,9.11340206 88.4493196,12.1623711 88.9896907,12.8659794 C89.869134,11.9112165 93.1486186,9.11340206 97.0309278,9.11340206 C100.913237,9.11340206 105.608247,12.5705979 105.608247,17.1546392 L105.608247,26 L93.814433,26 L93.814433,15.814433 C93.814433,14.9269485 92.8535052,14.2061856 91.6701031,14.2061856 C90.486701,14.2061856 89.5257732,14.9269485 89.5257732,15.814433 L89.5257732,26 Z M108.824742,9.11340206 L108.824742,26 L106.948454,26 L106.948454,9.11340206 L108.824742,9.11340206 Z M108.824742,0 L108.824742,6.16494845 L106.948454,6.16494845 L106.948454,0 L108.824742,0 Z M31.7518969,17.6907216 C32.071134,18.6621031 32.9760412,19.3630309 34.0412371,19.3630309 C34.7936289,19.3630309 35.4661443,19.0132371 35.9086804,18.4656289 L37.1384536,18.4656289 C36.425732,22.7355258 32.6074845,26 28.0103093,26 C22.9065361,26 18.7628866,22.2444742 18.7628866,17.2886598 L18.7628866,16.7525773 C18.7628866,11.7967629 22.9065361,8.04123711 28.0103093,8.04123711 C33.1140825,8.04123711 37.257732,12.0648041 37.257732,17.0206186 C37.257732,17.2460412 37.2491546,17.4695876 37.232268,17.6907216 L31.7518969,17.6907216 Z M130.821814,26 L123.807175,15.2807629 L130.373649,9.11340206 L127.37668,9.11340206 L122.666392,13.5374227 L120.039588,9.11340206 L109.656742,9.11340206 L116.402,19.4211959 L109.397814,26 L112.394515,26 L117.542784,21.1645361 L120.70701,26 L130.821814,26 Z" id="Shape"></path>
            </g>
        </g>
    </g>
</svg>