<?xml version="1.0" encoding="UTF-8"?>
<svg width="169.547193px" height="30px" viewBox="0 0 169.547193 30" version="1.1" xmlns="http://www.w3.org/2000/svg" xmlns:xlink="http://www.w3.org/1999/xlink">
    <title>zemmix v</title>
    <g id="Page-1" stroke="none" stroke-width="1" fill="none" fill-rule="evenodd">
        <g id="System" transform="translate(-15.226404, 0.000000)" fill="#000000">
            <g id="zemmix-v" transform="translate(15.226404, 0.000000)">
                <line x1="84.7735963" y1="30" x2="84.7735963" y2="0" id="Path" stroke="#979797" fill-rule="nonzero"></line>
                <g id="Group" transform="translate(0.000000, 1.000000)">
                    <path d="M30.4508991,15.412844 C30.7743119,14.5140183 31.6256147,13.8715596 32.6238532,13.8715596 C33.6220917,13.8715596 34.4733945,14.5140183 34.7968073,15.412844 L30.4508991,15.412844 Z M0,23.8971009 L0,24.9174312 L17.9816514,24.9174312 L17.9816514,22.8623853 L10.0830826,22.8623853 L19.0721101,8.47706422 L0.256880734,8.47706422 L0.256880734,10.5321101 L8.35119266,10.5321101 L0,23.8971009 Z M52.9174312,24.9174312 L42.8990826,24.9174312 L42.8990826,15.1559633 C42.8990826,14.3054312 41.9781651,13.6146789 40.8440367,13.6146789 C39.7099083,13.6146789 38.7889908,14.3054312 38.7889908,15.1559633 L38.7889908,24.9174312 L36.733945,24.9174312 L36.733945,8.99082569 L38.7889908,8.99082569 L38.7889908,11.3048073 C41.0551927,9.79640367 42.7228624,8.73394495 46.2385321,8.73394495 C50.1400367,8.73394495 51.8857982,11.6559633 52.4036697,12.3302752 C53.2464954,11.4152661 56.3894312,8.73394495 60.1100917,8.73394495 C63.8307523,8.73394495 68.3302752,12.0471927 68.3302752,16.440367 L68.3302752,24.9174312 L57.0275229,24.9174312 L57.0275229,15.1559633 C57.0275229,14.3054312 56.1066055,13.6146789 54.9724771,13.6146789 C53.8383486,13.6146789 52.9174312,14.3054312 52.9174312,15.1559633 L52.9174312,24.9174312 Z M85.7981651,24.9174312 L75.7798165,24.9174312 L75.7798165,15.1559633 C75.7798165,14.3054312 74.8588991,13.6146789 73.7247706,13.6146789 C72.5906422,13.6146789 71.6697248,14.3054312 71.6697248,15.1559633 L71.6697248,24.9174312 L69.6146789,24.9174312 L69.6146789,8.99082569 L71.6697248,8.99082569 L71.6697248,11.3048073 C73.9359266,9.79640367 75.6035963,8.73394495 79.1192661,8.73394495 C83.0207706,8.73394495 84.7665321,11.6559633 85.2844037,12.3302752 C86.1272294,11.4152661 89.2701651,8.73394495 92.9908257,8.73394495 C96.7114862,8.73394495 101.211009,12.0471927 101.211009,16.440367 L101.211009,24.9174312 L89.9082569,24.9174312 L89.9082569,15.1559633 C89.9082569,14.3054312 88.9873394,13.6146789 87.853211,13.6146789 C86.7190826,13.6146789 85.7981651,14.3054312 85.7981651,15.1559633 L85.7981651,24.9174312 Z M104.293578,8.73394495 L104.293578,24.9174312 L102.495413,24.9174312 L102.495413,8.73394495 L104.293578,8.73394495 Z M104.293578,0 L104.293578,5.90825688 L102.495413,5.90825688 L102.495413,0 L104.293578,0 Z M30.4298349,16.9541284 C30.7357798,17.8850642 31.6030092,18.5568073 32.6238532,18.5568073 C33.3449174,18.5568073 33.9894312,18.221578 34.4135413,17.6967706 L35.5921101,17.6967706 C34.9090642,21.7888807 31.2497982,24.9174312 26.8440367,24.9174312 C21.9527706,24.9174312 17.9816514,21.3182752 17.9816514,16.5688073 L17.9816514,16.0550459 C17.9816514,11.305578 21.9527706,7.70642202 26.8440367,7.70642202 C31.7353028,7.70642202 35.706422,11.5624587 35.706422,16.3119266 C35.706422,16.5279633 35.6982018,16.7422018 35.6820183,16.9541284 L30.4298349,16.9541284 Z M125.374752,24.9174312 L118.652183,14.6445138 L124.945248,8.73394495 L122.073064,8.73394495 L117.558899,12.9737615 L115.041468,8.73394495 L105.090936,8.73394495 L111.555339,18.6125505 L104.842789,24.9174312 L107.714716,24.9174312 L112.648624,20.2833028 L115.681101,24.9174312 L125.374752,24.9174312 Z" id="Shape"></path>
                    <path d="M148.341431,20.1296881 L157.787193,4.72300917 L153.702018,4.72300917 L153.702018,0 L169.547193,0 L169.547193,4.72300917 L163.441138,4.72300917 L149.36022,28 L140.801725,28 L128.407486,4.72300917 L125.374752,4.72300917 L125.374752,0 L141.219927,0 L141.219927,4.72300917 L140.430532,4.72300917 L148.341431,20.1296881 Z M148.236881,22.882422 L160.195963,3.37361468 L155.051413,3.37361468 L155.051413,1.3493945 L168.197798,1.3493945 L168.197798,3.37361468 L162.678716,3.37361468 L148.597798,26.6506055 L141.611413,26.6506055 L129.217174,3.37361468 L126.724147,3.37361468 L126.724147,1.3493945 L139.870532,1.3493945 L139.870532,3.37361468 L138.221101,3.37361468 L148.236881,22.882422 Z" id="Shape"></path>
                </g>
            </g>
        </g>
    </g>
</svg>