<?xml version="1.0" encoding="UTF-8"?>
<svg width="163.076135px" height="30px" viewBox="0 0 163.076135 30" version="1.1" xmlns="http://www.w3.org/2000/svg" xmlns:xlink="http://www.w3.org/1999/xlink">
    <title>namco system 12</title>
    <g id="Page-1" stroke="none" stroke-width="1" fill="none" fill-rule="evenodd">
        <g id="System" transform="translate(-18.461932, 0.000000)" fill="#000000">
            <g id="namco-system-12" transform="translate(18.461932, 0.000000)">
                <line x1="81.5380677" y1="30" x2="81.5380677" y2="0" id="Path" stroke="#979797" fill-rule="nonzero"></line>
                <path d="M76.9974766,12.3979813 L85.6016583,12.3979813 L85.6016583,17.5890411 L76.9974766,17.5890411 L76.9974766,12.3979813 L76.9974766,12.3979813 L76.9974766,12.3979813 L76.9974766,12.3979813 L76.9974766,12.3979813 Z M0,9.23900505 L0,21 L3.92357606,21 L3.92357606,12.6369863 L11.331651,12.6369863 L11.331651,21 L15.1806056,21 L15.1806056,12.4379957 C15.1806056,10.6935833 13.7260274,9.23900505 11.981615,9.23900505 L0,9.23900505 L0,9.23900505 L0,9.23900505 L0,9.23900505 Z M20.981615,16.3010094 L28.4956741,16.3010094 L28.4956741,17.9740447 L20.981615,17.9740447 L20.981615,16.3010094 L20.981615,16.3010094 L20.981615,16.3010094 L20.981615,16.3010094 Z M34.7617159,9.23900505 L34.7617159,21 L38.6906994,21 L38.6906994,12.6369863 L42.7267484,12.6369863 L42.7267484,21 L46.6557318,21 L46.6557318,12.6369863 L50.7707282,12.6369863 L50.7707282,21 L54.6207642,21 L54.6207642,12.4379957 C54.6207642,10.6935833 53.166186,9.23900505 51.4217736,9.23900505 L34.7617159,9.23900505 L34.7617159,9.23900505 Z M76.2728911,9 C74.5284787,9 73.072819,10.4545782 73.072819,12.1989906 L73.072819,17.7880317 C73.072819,19.5313627 74.5284787,20.9870224 76.2728911,20.9870224 L86.4008652,20.9870224 C88.1452776,20.9870224 89.6009373,19.5313627 89.6009373,17.7880317 L89.6009373,12.1989906 C89.6009373,10.4545782 88.1452776,9 86.4008652,9 L76.2728911,9 L76.2728911,9 L76.2728911,9 L76.2728911,9 L76.2728911,9 Z M17.8356164,9.23900505 L17.8356164,12.3320115 L28.4956741,12.3320115 L28.4956741,13.1679885 L20.1726748,13.1679885 C18.4282624,13.1679885 16.9726027,14.6366258 16.9726027,16.3810382 L16.9726027,17.8010094 C16.9726027,19.5454218 18.4282624,21 20.1726748,21 L28.4956741,21 L30.2346792,21 L32.3457102,21 L32.3457102,12.4379957 C32.3457102,10.6935833 30.8900505,9.23900505 29.1467195,9.23900505 L17.8356164,9.23900505 L17.8356164,9.23900505 L17.8356164,9.23900505 L17.8356164,9.23900505 Z M60.1038212,9 C58.3594088,9 56.9037491,10.4545782 56.9037491,12.1989906 L56.9037491,17.7880317 C56.9037491,19.5313627 58.3594088,20.9870224 60.1038212,20.9870224 L70.8558039,20.9870224 L70.8558039,17.5890411 L60.9030281,17.5890411 L60.9030281,12.3979813 L70.8558039,12.3979813 L70.8558039,9 L60.1038212,9 Z" id="Shape"></path>
                <path d="M96.8354645,11.4221904 C96.7774645,11.3351904 96.6179645,11.1611904 96.6179645,11.0306904 C96.6179645,10.7841904 96.9514645,10.8276904 97.1109645,10.8276904 L100.184964,10.8276904 C100.634464,10.8276904 100.880964,10.9001904 100.880964,11.3931904 C100.880964,11.7991904 101.141964,12.0746904 101.576964,12.0746904 C102.098964,12.0746904 102.330964,11.6976904 102.330964,11.2336904 C102.330964,10.7261904 102.026464,10.1896904 101.649464,9.85619044 C101.228964,9.49369044 100.764964,9.37769044 100.213964,9.37769044 L97.1399645,9.37769044 C96.6759645,9.37769044 96.3424645,9.37769044 95.9364645,9.63869044 C95.4434645,9.95769044 95.1679645,10.4506904 95.1679645,11.0306904 C95.1679645,11.5381904 95.3419645,11.8281904 95.6464645,12.2196904 L100.619964,18.6141904 C100.677964,18.7011904 100.880964,18.9186904 100.880964,19.0346904 C100.880964,19.2521904 100.518464,19.2086904 100.402464,19.2086904 L97.2559645,19.2086904 C96.8499645,19.2086904 96.6179645,19.1506904 96.6179645,18.7156904 C96.6179645,18.3241904 96.3569645,17.9761904 95.9364645,17.9761904 C95.4289645,17.9761904 95.1679645,18.3821904 95.1679645,18.8461904 C95.1679645,19.3536904 95.4579645,19.8756904 95.8494645,20.1946904 C96.2844645,20.5571904 96.7629645,20.6586904 97.3139645,20.6586904 L100.503964,20.6586904 C101.504464,20.6586904 102.330964,20.1076904 102.330964,19.0201904 C102.330964,18.5271904 102.113464,18.1936904 101.823464,17.8166904 L96.8354645,11.4221904 Z M107.544584,15.2936904 L110.401084,11.5816904 L110.401084,10.1026904 C110.401084,9.63869044 110.198084,9.37769044 109.676084,9.37769044 C109.154084,9.37769044 108.951084,9.63869044 108.951084,10.1026904 L108.951084,11.0886904 L106.819584,13.8581904 L104.688084,11.0886904 L104.688084,10.1026904 C104.688084,9.63869044 104.485084,9.37769044 103.963084,9.37769044 C103.441084,9.37769044 103.238084,9.63869044 103.238084,10.1026904 L103.238084,11.5816904 L106.094584,15.2936904 L106.094584,19.9336904 C106.094584,20.3976904 106.297584,20.6586904 106.819584,20.6586904 C107.341584,20.6586904 107.544584,20.3976904 107.544584,19.9336904 L107.544584,15.2936904 Z M112.975704,11.4221904 C112.917704,11.3351904 112.758204,11.1611904 112.758204,11.0306904 C112.758204,10.7841904 113.091704,10.8276904 113.251204,10.8276904 L116.325204,10.8276904 C116.774704,10.8276904 117.021204,10.9001904 117.021204,11.3931904 C117.021204,11.7991904 117.282204,12.0746904 117.717204,12.0746904 C118.239204,12.0746904 118.471204,11.6976904 118.471204,11.2336904 C118.471204,10.7261904 118.166704,10.1896904 117.789704,9.85619044 C117.369204,9.49369044 116.905204,9.37769044 116.354204,9.37769044 L113.280204,9.37769044 C112.816204,9.37769044 112.482704,9.37769044 112.076704,9.63869044 C111.583704,9.95769044 111.308204,10.4506904 111.308204,11.0306904 C111.308204,11.5381904 111.482204,11.8281904 111.786704,12.2196904 L116.760204,18.6141904 C116.818204,18.7011904 117.021204,18.9186904 117.021204,19.0346904 C117.021204,19.2521904 116.658704,19.2086904 116.542704,19.2086904 L113.396204,19.2086904 C112.990204,19.2086904 112.758204,19.1506904 112.758204,18.7156904 C112.758204,18.3241904 112.497204,17.9761904 112.076704,17.9761904 C111.569204,17.9761904 111.308204,18.3821904 111.308204,18.8461904 C111.308204,19.3536904 111.598204,19.8756904 111.989704,20.1946904 C112.424704,20.5571904 112.903204,20.6586904 113.454204,20.6586904 L116.644204,20.6586904 C117.644704,20.6586904 118.471204,20.1076904 118.471204,19.0201904 C118.471204,18.5271904 118.253704,18.1936904 117.963704,17.8166904 L112.975704,11.4221904 Z M122.234824,10.8276904 L122.234824,19.9336904 C122.234824,20.3976904 122.437824,20.6586904 122.959824,20.6586904 C123.481824,20.6586904 123.684824,20.3976904 123.684824,19.9336904 L123.684824,10.8276904 L125.091324,10.8276904 L125.091324,11.3496904 C125.091324,11.8136904 125.294324,12.0746904 125.816324,12.0746904 C126.338324,12.0746904 126.541324,11.8136904 126.541324,11.3496904 L126.541324,9.37769044 L119.378324,9.37769044 L119.378324,11.3496904 C119.378324,11.8136904 119.581324,12.0746904 120.103324,12.0746904 C120.625324,12.0746904 120.828324,11.8136904 120.828324,11.3496904 L120.828324,10.8276904 L122.234824,10.8276904 Z M128.898444,19.2086904 L128.898444,15.7431904 L131.029944,15.7431904 C131.406944,15.7431904 131.754944,15.5401904 131.754944,15.0181904 C131.754944,14.4961904 131.406944,14.2931904 131.029944,14.2931904 L128.898444,14.2931904 L128.898444,10.8276904 L133.886444,10.8276904 C134.263444,10.8276904 134.611444,10.6246904 134.611444,10.1026904 C134.611444,9.58069044 134.263444,9.37769044 133.886444,9.37769044 L127.448444,9.37769044 L127.448444,20.6586904 L133.886444,20.6586904 C134.263444,20.6586904 134.611444,20.4556904 134.611444,19.9336904 C134.611444,19.4116904 134.263444,19.2086904 133.886444,19.2086904 L128.898444,19.2086904 Z M139.100064,11.9296904 L137.331064,9.37769044 L135.518564,9.37769044 L135.518564,19.9336904 C135.518564,20.3976904 135.721564,20.6586904 136.243564,20.6586904 C136.765564,20.6586904 136.968564,20.3976904 136.968564,19.9336904 L136.968564,11.3786904 L136.997564,11.3786904 L138.375064,13.4231904 L138.375064,13.6551904 C138.375064,14.1046904 138.578064,14.5251904 139.100064,14.5251904 C139.651064,14.5251904 139.825064,14.1046904 139.825064,13.6551904 L139.825064,13.4231904 L141.202564,11.3786904 L141.231564,11.3786904 L141.231564,19.9336904 C141.231564,20.3976904 141.434564,20.6586904 141.956564,20.6586904 C142.478564,20.6586904 142.681564,20.3976904 142.681564,19.9336904 L142.681564,9.37769044 L140.869064,9.37769044 L139.100064,11.9296904 Z M152.149515,19.2086904 L152.149515,9.37769044 L148.568015,9.37769044 C148.191015,9.37769044 147.843015,9.58069044 147.843015,10.1026904 C147.843015,10.6246904 148.191015,10.8276904 148.568015,10.8276904 L150.699515,10.8276904 L150.699515,19.2086904 L148.568015,19.2086904 C148.191015,19.2086904 147.843015,19.4116904 147.843015,19.9336904 C147.843015,20.4556904 148.191015,20.6586904 148.568015,20.6586904 L154.281015,20.6586904 C154.658015,20.6586904 155.006015,20.4556904 155.006015,19.9336904 L155.006015,16.2796904 C155.006015,15.8591904 154.817515,15.5546904 154.281015,15.5546904 C153.744515,15.5546904 153.556015,15.8591904 153.556015,16.2796904 L153.556015,19.2086904 L152.149515,19.2086904 Z M157.363135,15.7431904 L161.452135,15.7431904 C161.930635,15.7431904 162.264135,15.6706904 162.626635,15.3371904 C163.032635,14.9601904 163.076135,14.5686904 163.076135,14.0466904 L163.076135,11.0741904 C163.076135,10.5521904 163.032635,10.1606904 162.626635,9.78369044 C162.264135,9.45019044 161.930635,9.37769044 161.452135,9.37769044 L156.638135,9.37769044 C156.261135,9.37769044 155.913135,9.58069044 155.913135,10.1026904 C155.913135,10.6246904 156.261135,10.8276904 156.638135,10.8276904 L161.626135,10.8276904 L161.626135,14.2931904 L157.551635,14.2931904 C156.464135,14.2931904 155.913135,14.8441904 155.913135,15.9316904 L155.913135,20.6586904 L162.351135,20.6586904 C162.728135,20.6586904 163.076135,20.4556904 163.076135,19.9336904 C163.076135,19.4116904 162.728135,19.2086904 162.351135,19.2086904 L157.363135,19.2086904 L157.363135,15.7431904 Z" id="Combined-Shape" fill-rule="nonzero"></path>
            </g>
        </g>
    </g>
</svg>