<?xml version="1.0" encoding="UTF-8"?>
<svg width="171.456938px" height="30px" viewBox="0 0 171.456938 30" version="1.1" xmlns="http://www.w3.org/2000/svg" xmlns:xlink="http://www.w3.org/1999/xlink">
    <title>gamate</title>
    <g id="Page-1" stroke="none" stroke-width="1" fill="none" fill-rule="evenodd">
        <g id="System" transform="translate(-14.271531, 0.000000)" fill="#000000" fill-rule="nonzero">
            <g id="gamate" transform="translate(14.271531, 0.000000)">
                <line x1="85.7284689" y1="30" x2="85.7284689" y2="0" id="Path" stroke="#979797"></line>
                <path d="M14.7992999,5.50032214 C16.4486199,5.49238963 17.7434181,5.6309565 18.683699,5.91602413 C19.6239363,6.20112719 20.3392024,6.68043378 20.8295001,7.35394457 L21.7501891,5.90920925 L25.5279477,5.90920925 L23.9009259,12.8330333 L20.1231672,12.8330333 C20.2103474,12.0368514 20.2219896,11.4076196 20.1581029,10.9453372 C20.0941653,10.4830814 19.9306325,10.0582939 19.6675046,9.67097243 C19.3447027,9.16385366 18.8580821,8.77427513 18.2076426,8.50223619 C17.5571604,8.23022859 16.7751796,8.09280389 15.8616985,8.08994164 C13.9095018,8.09847591 12.2814102,8.70839845 10.977419,9.919712 C9.67339973,11.1310535 8.74635569,12.8926744 8.19628419,15.2045795 C7.88359704,16.5158659 7.81460755,17.6209955 7.98931754,18.5199731 C8.16400482,19.4189622 8.59441971,20.1765386 9.28056494,20.7927056 C9.68735128,21.1612753 10.1698563,21.439545 10.728081,21.627517 C11.2862784,21.8154938 11.902833,21.9097647 12.5777474,21.910331 C13.589477,21.9137405 14.3741658,21.7433706 14.9318138,21.3992214 C15.4894264,21.0550777 15.852046,20.51671 16.0196744,19.7841169 L16.0645177,19.5933031 C16.2728048,18.6585468 16.3872887,18.074747 16.4079667,17.8419025 C16.4286066,17.6090709 16.3802362,17.4477873 16.2628535,17.3580524 C16.1875825,17.2370972 16.0335442,17.1519133 15.8007386,17.1024987 C15.5678949,17.0530983 15.2269033,17.0292394 14.7777619,17.0309431 L13.2521288,17.0309431 L13.8350363,14.5503603 L27.0571916,14.5503603 L26.474284,17.0309431 L25.3845463,17.0309431 C24.9357573,17.0309499 24.5827548,17.0582081 24.3255369,17.1127203 C24.0682637,17.1672454 23.8749925,17.2490226 23.7457216,17.3580524 C23.5861219,17.4477866 23.461951,17.6090702 23.3732088,17.8419025 C23.284414,18.074747 23.1245246,18.6585468 22.8935426,19.5933031 L21.8366228,24.0910627 L18.6400581,24.0910627 L18.2658726,22.5918097 C17.4073485,23.2437583 16.3709342,23.7253356 15.1566251,24.0365444 C13.9422797,24.3477532 12.5286759,24.5021987 10.9158081,24.499975 C7.47599974,24.5044926 4.83417429,23.8957054 2.99032262,22.6735869 C1.74409651,21.8291236 0.881916342,20.7512528 0.403779384,19.4399698 C-0.0743648396,18.128697 -0.127855327,16.6623831 0.243307921,15.0410245 C0.975177337,12.1390732 2.64304311,9.83340568 5.24691068,8.12401534 C7.8507619,6.41465702 11.034888,5.54009376 14.7992999,5.50032214 Z M47.5813224,5.90920925 L49.9960371,19.5933031 C50.0694447,20.0118483 50.17492,20.3809822 50.312463,20.7007055 C50.4499562,21.0204356 50.5831829,21.2328294 50.7121424,21.3378889 C50.8447416,21.4208048 51.0517491,21.4866822 51.3331649,21.5355176 C51.6145299,21.5843584 51.9310393,21.6093213 52.2826942,21.6104799 L53.4814071,21.6104799 L52.8984986,24.0910627 L39.0951494,24.0910627 L39.678057,21.6104799 L41.3171109,21.6108591 C41.8890329,21.6073271 42.2919215,21.5674475 42.5257775,21.4912209 C42.7888328,21.4054707 42.9421173,21.2362375 42.9856257,20.9835194 C43.0174828,20.8898197 43.0258103,20.7705614 43.0106718,20.6257432 C42.9954943,20.4809326 42.9386338,20.1367861 42.8400902,19.5933031 L42.5556621,18.1758273 L35.1091183,18.1758273 L34.1585101,19.5933031 C33.9933263,19.835356 33.8563903,20.0373606 33.7477013,20.199317 L33.6058529,20.4122154 C33.5455213,20.5036465 33.5010784,20.5725506 33.4725238,20.6189277 C33.3868475,20.7580663 33.3413594,20.8614248 33.3360923,20.9290011 C33.2729139,21.1720652 33.3619739,21.3469779 33.6032741,21.4537397 C33.8445571,21.5605064 34.2712023,21.6127288 34.883209,21.6104799 L36.4451672,21.6104799 L35.8622596,24.0910627 L24.8195806,24.0910627 L25.4024882,21.6104799 L26.5648751,21.6104799 C27.2931048,21.6320626 27.8718731,21.5071248 28.3011801,21.2356664 C28.7304825,20.9642136 29.2178324,20.4167596 29.7632334,19.5933031 L39.1540142,5.90920925 L47.5813224,5.90920925 Z M71.7874735,5.90920925 L73.0072967,16.9491653 L79.4519642,5.90920925 L93.5822363,5.90920925 L92.9993279,8.3897921 L90.965151,8.3897921 C90.5163547,8.38980777 90.1633476,8.41706387 89.9061388,8.47156925 C89.6488574,8.52610325 89.4555808,8.60788108 89.3263271,8.71690206 C89.1667147,8.80664511 89.0425374,8.96792801 88.9538135,9.20075144 C88.8650077,9.43360485 88.7051138,10.0174046 88.4741409,10.9521521 L86.5716878,19.0481199 C86.366551,19.969256 86.2536527,20.5462409 86.2330382,20.7790759 C86.212351,21.011917 86.2591196,21.1800155 86.3733529,21.2833706 C86.45137,21.39241 86.6062147,21.4741905 86.8378688,21.5287027 C87.0694593,21.5832272 87.4096527,21.6104826 87.8584399,21.6104799 L89.8926259,21.6104799 L89.3097174,24.0910627 L75.1794453,24.0910627 L75.7623538,21.6104799 L76.9973881,21.6104799 C77.4461208,21.6104826 77.7991279,21.5832217 78.0563912,21.5287027 C78.3136181,21.4741871 78.5068857,21.39241 78.636212,21.2833706 C78.7957608,21.1936452 78.9199108,21.0323617 79.0087256,20.7995205 C79.0974678,20.5666855 79.2573526,19.9828857 79.4883892,19.0481199 L81.8840732,8.85319753 L72.7456926,24.0910627 L67.0427377,24.0910627 L64.9931408,8.85319753 L62.5974477,19.0481199 C62.3891325,19.9828851 62.2746177,20.5666848 62.2540032,20.7995198 C62.2333343,21.0323617 62.2817011,21.1936452 62.3991128,21.2833706 C62.4771573,21.39241 62.6319929,21.4741905 62.8636288,21.5287027 C63.0952465,21.5832272 63.4354309,21.6104826 63.884209,21.6104799 L65.1192433,21.6104799 L64.5363349,24.0910627 L53.3846825,24.0910627 L53.967591,21.6104799 L56.0017678,21.6104799 C56.4505187,21.6104826 56.8035258,21.5832217 57.0607709,21.5287027 C57.318016,21.4741871 57.5112835,21.39241 57.6405917,21.2833706 C57.8033644,21.1800155 57.9290945,21.011917 58.0179093,20.7790759 C58.1066697,20.5462409 58.2649562,19.969256 58.4927689,19.0481199 L60.395231,10.9521521 C60.6035281,10.0174046 60.7179702,9.43360485 60.7386755,9.20075212 C60.7593263,8.9679287 60.7109595,8.80664511 60.593566,8.71690206 C60.5155034,8.60788108 60.3606587,8.52610188 60.12905,8.47156925 C59.8974141,8.41706523 59.5572207,8.38980777 59.1084698,8.3897921 L57.0742929,8.3897921 L57.6572014,5.90920925 L71.7874735,5.90920925 Z M112.569125,5.90920925 L114.983844,19.5933031 C115.057248,20.0118483 115.162727,20.3809822 115.300272,20.7007055 C115.437762,21.0204356 115.570984,21.2328294 115.699947,21.3378889 C115.832552,21.4208048 116.039559,21.4866822 116.32097,21.5355176 C116.602335,21.5843584 116.918844,21.6093213 117.270498,21.6104799 L118.469207,21.6104799 L117.886308,24.0910627 L104.082952,24.0910627 L104.665861,21.6104799 L106.304916,21.6108591 C106.876841,21.6073271 107.27973,21.5674475 107.513583,21.4912209 C107.77664,21.4054707 107.929932,21.2362375 107.973431,20.9835194 C108.004853,20.8898197 108.013661,20.7705614 107.998496,20.6257432 C107.983321,20.4809326 107.926454,20.1367861 107.827913,19.5933031 L107.543488,18.1758273 L100.096939,18.1758273 L99.1463386,19.5933031 C98.9811523,19.835356 98.8442099,20.0373606 98.735517,20.199317 L98.5936654,20.4122154 C98.5333338,20.5036465 98.4888941,20.5725506 98.4603487,20.6189277 C98.374685,20.7580663 98.3293695,20.8614248 98.3239208,20.9290011 C98.2607333,21.1720652 98.3498024,21.3469779 98.5911008,21.4537397 C98.832381,21.5605064 99.2590281,21.6127288 99.8710329,21.6104799 L101.432993,21.6104799 L100.850084,24.0910627 L89.8074073,24.0910627 L90.3903157,21.6104799 L91.5526999,21.6104799 C92.2809269,21.6320626 92.8596943,21.5071248 93.2890022,21.2356664 C93.71831,20.9642136 94.2056563,20.4167596 94.7510591,19.5933031 L104.141835,5.90920925 L112.569125,5.90920925 Z M40.9153353,9.69823126 L36.6407623,15.8315399 L42.1257767,15.8315399 L40.9153353,9.69823126 Z M105.903157,9.69823126 L101.628585,15.8315399 L107.113599,15.8315399 L105.903157,9.69823126 Z M143.048659,5.82032487 L144.133145,12.2202199 L140.158964,12.9965883 L140.3127,12.3423691 C140.618893,11.0328068 140.508502,10.0469348 139.981534,9.38475105 C139.454511,8.72259588 138.518387,8.39095062 137.173151,8.3897921 L136.410334,8.3897921 L133.905756,19.0481199 C133.697432,19.9828851 133.582917,20.5666848 133.562303,20.7995198 C133.541625,21.0323617 133.590001,21.1936452 133.707422,21.2833706 C133.785457,21.39241 133.940292,21.4741905 134.171928,21.5287027 C134.403537,21.5832272 134.74373,21.6104826 135.192509,21.6104799 L137.226685,21.6104799 L136.643777,24.0910627 L121.569071,24.0910627 L122.15198,21.6104799 L124.186156,21.6104799 C124.634907,21.6104826 124.987905,21.5832217 125.24516,21.5287027 C125.502396,21.4741871 125.695672,21.39241 125.82498,21.2833706 C125.984538,21.1936452 126.108679,21.0323617 126.197494,20.7995205 C126.286245,20.5666855 126.446139,19.9828857 126.677158,19.0481199 L129.181735,8.3897921 C127.574133,8.35857315 126.287253,8.72089285 125.321097,9.47675119 C124.354923,10.2326388 123.694778,11.4059165 123.340672,12.9965883 L119.8379,11.7591172 L122.740827,5.90920925 L143.048659,5.82032487 Z M170.77617,5.90920925 L171.456938,12.1642705 L166.184471,12.94207 C166.359567,12.1981343 166.420049,11.553002 166.366832,11.0066704 C166.313562,10.4603654 166.154294,9.97878743 165.88903,9.56193578 C165.711119,9.30128517 165.460458,9.07980443 165.137047,8.89749423 C164.81359,8.71521401 164.43314,8.58232529 163.995695,8.49882875 C163.803844,8.45852012 163.559276,8.43012935 163.261974,8.41364416 C162.964635,8.39719305 162.515466,8.38924009 161.914486,8.3897921 L157.11964,8.3897921 L155.908989,13.5417716 L157.144023,13.5417716 C157.797584,13.5429178 158.35472,13.4520544 158.81544,13.26918 C159.276132,13.086328 159.641999,12.8046501 159.913047,12.4241462 C160.040721,12.264011 160.152239,12.0663823 160.247619,11.8312602 C160.342954,11.596162 160.450704,11.2213492 160.570876,10.70682 L163.767437,10.70682 L161.845768,18.8845649 L158.649198,18.8845649 L158.777317,18.3393823 C158.981836,17.5011696 158.900359,16.8946545 158.532876,16.5198336 C158.165366,16.1450283 157.476062,15.9610212 156.464953,15.9678361 L155.338894,15.9678361 L154.012938,21.6104799 L158.270879,21.6109844 C159.290149,21.6123979 159.953267,21.6065524 160.260233,21.5934427 C160.592744,21.579248 160.906302,21.5394913 161.200916,21.4741844 C161.828487,21.328237 162.420939,21.0613242 162.978275,20.673446 C163.535565,20.2855746 163.971475,19.8346635 164.285996,19.3207115 C164.483123,19.0066684 164.652225,18.6670654 164.793303,18.3019005 C164.934326,17.9367472 165.107669,17.3858864 165.313314,16.6493148 L170.294109,17.6215639 L166.503651,24.0910627 L142.423677,24.0910627 L143.006586,21.6104799 L145.040763,21.6104799 C145.489514,21.6104826 145.842521,21.5832217 146.099766,21.5287027 C146.357011,21.4741871 146.550279,21.39241 146.679587,21.2833706 C146.839154,21.1936452 146.963286,21.0323617 147.0521,20.7995205 C147.140861,20.5666855 147.300745,19.9828857 147.531764,19.0481199 L149.434217,10.9521521 C149.642514,10.0174046 149.756965,9.43360485 149.777671,9.20075212 C149.798321,8.9679287 149.749945,8.80664511 149.632552,8.71690206 C149.554489,8.60788108 149.399654,8.52610188 149.168036,8.47156925 C148.936409,8.41706523 148.596216,8.38980777 148.147465,8.3897921 L146.113288,8.3897921 L146.696196,5.90920925 L170.77617,5.90920925 Z" id="Combined-Shape"></path>
            </g>
        </g>
    </g>
</svg>