<?xml version="1.0" encoding="UTF-8"?>
<svg width="200px" height="30px" viewBox="0 0 200 30" version="1.1" xmlns="http://www.w3.org/2000/svg" xmlns:xlink="http://www.w3.org/1999/xlink">
    <title>game pocket computer</title>
    <g id="Page-1" stroke="none" stroke-width="1" fill="none" fill-rule="evenodd">
        <g id="System" transform="translate(-0.000000, 0.000000)" fill="#000000">
            <g id="game-pocket-computer" transform="translate(0.000000, 0.000000)">
                <line x1="100" y1="30" x2="100" y2="0" id="Path" stroke="#979797" fill-rule="nonzero"></line>
                <path d="M177.708747,12.5532635 C177.708747,16.3988705 177.719966,16.5359349 178.074577,17.0570397 C178.757623,18.0607151 179.151419,18.2341999 180.942036,18.3203733 C182.56876,18.3987422 182.569573,18.3985796 182.671356,17.993565 C182.727287,17.7706524 182.749399,17.3402735 182.720458,17.0372035 C182.668591,16.4947993 182.653308,16.4847187 181.734993,16.3860258 C180.313621,16.2333527 180.292971,16.1964445 180.345976,13.9016323 L180.391502,11.9337911 L181.578255,11.8858267 L182.764845,11.8378623 L182.716393,10.9102795 L182.667779,9.98269673 L181.52964,9.90140113 L180.391502,9.82010553 L180.310206,9.25103635 L180.228911,8.68196716 L178.968829,8.63449053 L177.708747,8.5870139 L177.708747,12.5532635 M118.440191,9.89928745 C118.16964,9.98464782 117.69406,10.3164965 117.383349,10.6368011 L116.818344,11.2192028 L116.765665,13.6681514 C116.708758,16.3177375 116.795256,16.7479538 117.521226,17.4205936 C118.25874,18.1042896 118.837564,18.1935521 122.533262,18.1935521 L126.004747,18.1935521 L126.004747,17.218005 L126.004747,16.2424578 L123.167043,16.2424578 C120.040576,16.2424578 119.612636,16.1462038 119.346637,15.3828381 C119.000481,14.3900563 119.247294,12.4402627 119.767098,12.0601244 C119.972939,11.909565 120.869792,11.8524955 123.027864,11.8524955 L126.004747,11.8524955 L126.004747,10.8769483 C126.004747,9.92156244 125.995479,9.90140113 125.557621,9.89945004 C125.31162,9.8983119 123.72034,9.86286702 122.021262,9.82091849 C120.275196,9.77766923 118.718222,9.81181338 118.440191,9.89928745 M138.605402,9.92465167 C138.557437,10.0493591 138.537926,11.942571 138.56199,14.1318615 L138.605564,18.1122565 L139.824998,18.1122565 L141.044432,18.1122565 L141.085568,15.2669106 C141.135483,11.8242046 141.119549,11.8524955 143.013574,11.8524955 C144.646803,11.8524955 144.905973,12.0996341 144.861261,13.6143337 C144.843701,14.2102304 144.83736,15.484295 144.847278,16.4456968 L144.865325,18.1935521 L146.060858,18.1935521 L147.256554,18.1935521 L147.361588,16.9495669 C147.419471,16.2653831 147.466785,14.957337 147.466785,14.0429241 C147.466785,12.7639817 147.523041,12.3334402 147.710346,12.1778405 C148.013254,11.9266371 150.520735,11.9459854 150.829333,12.2020666 C150.992249,12.3373424 151.043791,13.0785957 151.043791,15.2867467 L151.043791,18.1935521 L152.353626,18.1935521 L153.66346,18.1935521 L153.613707,14.8197848 C153.56558,11.5588558 153.550947,11.4276447 153.173898,10.8992233 C152.95944,10.5984296 152.557027,10.258614 152.279647,10.1441498 C151.916743,9.9942407 149.941748,9.90253927 145.23392,9.81685371 C139.708908,9.71637235 138.678893,9.73311924 138.605402,9.92465167 M127.955841,10.1978049 C127.642853,10.366412 127.223368,10.7893117 127.023543,11.1377446 C126.696247,11.7089275 126.660152,11.9929743 126.657624,14.0253642 C126.655437,16.0149927 126.695109,16.3505809 126.995577,16.8853434 C127.660413,18.0681943 127.853734,18.1122565 132.374419,18.1122565 C136.198889,18.1122565 136.407819,18.0963226 136.845677,17.7700021 C137.815046,17.047772 137.9552,16.5635754 137.9552,13.9374024 C137.9552,11.3296022 137.884635,11.1014867 136.836084,10.3179598 C136.416437,10.0043214 136.134341,9.97977009 132.456203,9.9370086 C128.862937,9.89538526 128.47597,9.91782284 127.955841,10.1978049 M155.668697,10.2158525 C155.484969,10.292433 155.10662,10.6148513 154.827938,10.9323919 C154.17985,11.6703933 154.100993,12.3123034 154.165054,16.3237534 L154.214319,19.4129861 L155.433753,19.4129861 L156.653187,19.4129861 L156.734483,16.0432836 C156.837403,11.7798172 156.738548,11.9383436 159.300172,11.9240356 C161.555149,11.9113535 162.586465,12.0588237 162.859943,12.4327835 C162.999934,12.6241533 163.075539,13.2241148 163.075539,14.1417795 C163.075539,16.312372 163.069686,16.3164368 159.960129,16.3531824 L157.466143,16.382774 L157.417041,17.297512 L157.368101,18.2122501 L160.698131,18.1623346 C163.764276,18.1161587 164.063769,18.0857542 164.47675,17.7769935 C165.491645,17.0185056 165.590825,16.7300688 165.652285,14.3638791 C165.703013,12.4046552 165.673909,12.1129666 165.365311,11.4895919 C164.706166,10.1576449 164.67625,10.1498405 160.067602,10.1109812 C157.831973,10.091958 155.852425,10.1392721 155.668697,10.2158525 M166.263465,10.3212116 C166.101362,10.7437861 166.153716,15.7894787 166.326713,16.412203 C166.414675,16.7292558 166.738882,17.2329633 167.046992,17.5314808 C167.558829,18.0275465 167.724509,18.0852664 168.962154,18.1981047 C171.036655,18.3871982 174.633335,18.3714269 175.269879,18.1704642 C175.582867,18.0717713 176.012921,17.8353637 176.225753,17.645132 C176.962941,16.9859873 177.058382,16.4712236 177.058382,13.1515991 L177.058382,10.0503347 L175.7983,10.0978113 L174.538219,10.1452879 L174.456923,12.9255974 C174.397903,14.9446548 174.314493,15.779398 174.152552,15.9741823 C173.964922,16.1995337 173.572752,16.2424578 171.698238,16.2424578 C168.70965,16.2424578 168.863786,16.4247225 168.796148,12.8114584 L168.744769,10.0639923 L167.553464,10.0639923 C166.617101,10.0639923 166.341021,10.1191107 166.263465,10.3212116 M184.579201,10.3314548 C183.57894,10.8245939 183.32546,11.502274 183.260749,13.8583831 C183.190184,16.4260232 183.405455,17.164675 184.420186,17.8365019 L185.082095,18.2748477 L189.56571,18.2748477 L194.049162,18.2748477 L194.099728,17.5718034 C194.184276,16.3959439 194.214843,16.405049 190.200954,16.405049 L186.636467,16.405049 L186.237468,16.0058876 C185.872451,15.6410329 185.838307,15.4808806 185.838307,14.1360888 C185.838307,12.0056564 185.824487,12.0150867 188.938271,12.0150867 C191.464613,12.0150867 192.016772,12.1292257 192.016772,12.651306 C192.016772,13.2195623 191.642975,13.3062234 188.997291,13.3522367 L186.407376,13.3971118 L186.407376,14.1287722 L186.407376,14.8604326 L189.171426,14.9766853 C190.691654,15.0405837 192.226515,15.0495262 192.582264,14.996684 C193.846248,14.8088912 194.455803,14.0661746 194.455315,12.7142288 C194.45499,11.6092591 194.036968,10.8715828 193.161089,10.4298225 C192.472028,10.0823651 192.251879,10.0641549 188.771127,10.0677319 C185.746443,10.0708212 185.01462,10.1168345 184.579201,10.3314548 M197.116608,10.1812206 C196.464292,10.2620284 195.321438,11.2357871 195.200308,11.8137988 C195.064869,12.4602614 194.933333,17.815365 195.045684,18.1081917 C195.119012,18.299399 195.415579,18.3561433 196.342836,18.3561433 C197.003932,18.3561433 197.546661,18.3379331 197.548938,18.3154955 C197.551214,18.2930579 197.595927,16.9944421 197.648281,15.4295018 C197.700798,13.8645615 197.814774,12.496194 197.901598,12.3885587 C197.988584,12.2810859 198.474244,12.1713368 198.981041,12.1446719 L199.902445,12.0963823 L199.951223,11.1614829 L200,10.2265835 L199.029656,10.2265835 C198.495869,10.2265835 197.961757,10.2021948 197.84274,10.1722781 C197.723561,10.1423613 197.396915,10.1464261 197.116608,10.1812206 M129.563218,12.1599554 C129.239986,12.4217273 129.174299,12.6470787 129.122595,13.6714032 C129.08081,14.5001305 129.138692,15.0591191 129.308437,15.465597 C129.525659,15.9852385 129.641424,16.0688104 130.274554,16.1637636 C130.670138,16.2231094 131.853477,16.2468477 132.903979,16.2164432 C135.349676,16.145716 135.435036,16.0694607 135.435036,13.9600026 C135.435036,12.6049675 135.411623,12.5080632 135.006608,12.189547 C134.618666,11.8843634 134.359008,11.8524955 132.260606,11.8524955 C130.229516,11.8524955 129.896042,11.8905418 129.563218,12.1599554 M85.8447213,13.3158162 L85.8447213,18.0309609 L87.1454508,18.0309609 L88.4461804,18.0309609 L88.4461804,13.5730355 C88.4461804,11.1211603 88.401793,8.99934518 88.3474876,8.85789083 C88.269769,8.6554648 87.9928762,8.60067156 87.046758,8.60067156 L85.8447213,8.60067156 L85.8447213,13.3158162 M108.282957,12.4553836 C108.283444,16.0286504 108.308158,16.3642386 108.606676,16.8536381 C109.198345,17.8241449 109.772455,18.0415294 111.615426,17.992752 L113.241338,17.9496653 L113.241338,17.1367094 L113.241338,16.3237534 L112.271481,16.2740005 C111.73802,16.2465226 111.207485,16.1462038 111.092695,16.0507628 C110.944087,15.9275186 110.883765,15.3226794 110.883765,13.9572385 C110.883765,11.7573796 110.867669,11.779492 112.397977,11.8789978 L113.241338,11.9337911 L113.241338,10.9582439 L113.241338,9.98269673 L112.071982,9.93505751 L110.902626,9.88758088 L110.852548,9.28469272 L110.80247,8.68196716 L109.542388,8.63449053 L108.282306,8.5870139 L108.282957,12.4553836 M54.6761516,9.91440843 C54.1885406,10.1556938 53.8979901,10.4493335 53.6599566,10.9411718 C53.3594881,11.561945 53.3264821,11.9367177 53.3264821,14.7355626 C53.3264821,16.6432451 53.3885919,17.8621913 53.4876099,17.8955225 C53.5763847,17.9252767 54.1433402,17.9130823 54.7476917,17.8683697 L55.8466456,17.7870741 L55.8911956,14.9501829 C55.9477773,11.3577305 55.8297361,11.5273131 58.2744573,11.5273131 C60.3774119,11.5273131 60.807303,11.7016109 60.8032382,12.5527758 C60.7986857,13.4912521 60.6743034,13.5520613 58.5763892,13.6409986 L56.6596016,13.7222942 L56.6108242,14.7523095 L56.5620469,15.7823247 L59.293579,15.7278566 C62.7718924,15.6584302 63.0196814,15.5210406 63.4138025,13.4432877 C63.7315057,11.7679481 62.9591975,10.1595959 61.6482247,9.76693821 C61.2672735,9.65279919 59.8772814,9.57621874 58.1853574,9.57638107 C55.6507232,9.57638107 55.2883074,9.61133844 54.6761516,9.91440843 M68.7222435,9.66150399 C69.1789319,9.66286448 69.6647765,9.66891693 70.1546709,9.68011451 C73.938168,9.76645044 74.2131097,9.83522651 74.9099756,10.8691439 C75.2224508,11.332904 75.2701776,11.5572684 75.2756712,13.3166049 L75.2757181,14.055989 C75.2643265,16.5626235 75.0761817,17.0645297 74.0399501,17.6683826 C73.5953715,17.9274265 73.4072535,18.0041324 71.9682215,18.0107112 L71.6132455,18.0110356 C71.1085071,18.0099445 70.4743613,18.0030314 69.6668973,17.993565 C66.092655,17.9516164 65.9007974,17.9332436 65.3291267,17.5776567 C64.3280528,16.9552576 64.057501,16.1593737 64.057501,13.836921 C64.057501,10.9922255 64.4843029,10.1443124 66.1136293,9.75263019 C66.3384293,9.69865698 67.1900506,9.66598352 68.2762038,9.6616907 Z M67.5294734,11.6339729 C66.8906526,11.7697366 66.6210764,12.2628757 66.5360412,13.4512547 C66.4890523,14.1082857 66.5362038,14.8137689 66.6503428,15.1594378 C66.9124398,15.9538584 67.5762997,16.1210022 70.1935302,16.0519009 C72.7323917,15.9849133 72.8374256,15.9018292 72.8374256,13.9587018 C72.8374256,12.4557088 72.659063,11.8897289 72.1521037,11.7842072 C71.5944159,11.6679545 67.9299355,11.5487751 67.5294734,11.6339729 Z M77.2608817,10.0830155 C76.1290844,10.6459062 75.9266583,11.2291208 75.9266583,13.9271591 C75.9266583,16.0857199 75.9442182,16.2044114 76.357525,16.8417689 C77.0815436,17.9582827 77.3920928,18.0309609 81.4445157,18.0309609 L85.0003852,18.0309609 L85.0566417,17.2023962 C85.0876967,16.7466531 85.0750146,16.312372 85.0286761,16.2372549 C84.982175,16.1621377 83.5772245,16.0777529 81.9064373,16.0496246 C79.7098303,16.0127164 78.8111887,15.9408511 78.6606293,15.7901291 C78.3824357,15.5112852 78.2826047,13.3280106 78.5157605,12.6217144 C78.7936289,11.779492 79.1640116,11.6899043 82.3647819,11.6899043 L85.2106156,11.6899043 L85.1618382,10.7550049 L85.1130609,9.82010553 L81.5360546,9.77799441 C78.1632628,9.73815957 77.9192134,9.75555683 77.2608817,10.0830155 M100.698701,9.92194174 C101.145342,9.923961 101.671659,9.92920423 102.295536,9.93668342 C106.672328,9.98903779 106.73265,10.0057847 107.428703,11.3679737 C107.870463,12.2324711 107.882657,12.6995956 107.486422,13.57206 C106.980113,14.6869478 106.559815,14.7937702 102.884766,14.7420662 L99.7462685,14.6978414 L99.6966782,13.9255332 L99.6470879,13.1532251 L102.216842,13.1507862 C103.630247,13.1493229 104.883988,13.0865627 105.002842,13.0111203 C105.125761,12.9332392 105.196,12.6709796 105.165433,12.4038422 L105.111778,11.9337911 L102.838265,11.7975397 C99.2981672,11.5851956 98.9040461,11.8458292 99.0430616,14.3071348 C99.0936275,15.2018741 99.1811015,15.5055945 99.4713268,15.7961449 C99.8249627,16.150106 99.9493449,16.1626255 103.571389,16.2102647 L107.306759,16.2595299 L107.306759,18.0309609 L102.031923,18.0304336 C98.7687529,18.0257455 98.4226011,17.9844724 97.8722424,17.7036649 C96.792962,17.1529685 96.5757402,16.5045548 96.5757402,13.834157 L96.5764519,13.3700022 C96.5824582,11.7186759 96.632491,11.4904049 96.9448222,11.0229552 C97.147736,10.7190723 97.5685221,10.3399096 97.8797216,10.1805702 C98.2465273,9.99255567 98.6005193,9.92726119 100.086261,9.92145433 Z M95.4305399,10.0649257 C96.3132848,10.0722809 96.7383314,10.132324 96.7383314,10.2490211 C96.7383314,10.3508032 96.1895861,11.3991912 95.5188974,12.5789529 C94.8482088,13.7585521 94.3001138,14.8277518 94.3009268,14.9547355 C94.3017397,15.0817192 94.777319,15.7875276 95.3577696,16.5232528 C95.9382201,17.2589779 96.413149,17.8992621 96.413149,17.9459257 C96.413149,17.992752 95.6530352,18.0309609 94.7241517,18.0309609 L93.0351543,18.0309609 L92.4813687,17.0960616 L91.9277457,16.1611622 L90.6822971,16.0798666 C89.9973004,16.035154 89.3557156,15.9172754 89.2568601,15.8180948 C89.1578421,15.7187515 89.0996344,15.2797553 89.1274375,14.8425476 L89.1778408,14.0474766 L90.3055733,14.0016259 C90.9258587,13.9764243 91.5284217,13.8769185 91.6446744,13.7803393 C91.7609271,13.6837601 92.2778045,12.8082065 92.7932186,11.8346105 L93.7303943,10.0643175 Z M23.4474232,13.8066791 L23.4909976,17.7870741 L24.7510794,17.8345508 L26.0111611,17.8820274 L26.0111611,15.0661105 C26.0111611,11.4944697 25.9944142,11.5273131 27.8195004,11.5273131 C29.8564429,11.5273131 29.7507586,11.3442354 29.7507586,14.8729521 L29.7507586,17.8820274 L31.0108404,17.8345508 C31.9925661,17.7976426 32.2744992,17.7332565 32.2868561,17.5431873 C32.2954735,17.4090496 32.3149844,16.1286439 32.3299428,14.6978414 C32.3449012,13.2670389 32.426522,11.9866332 32.5113946,11.8524955 C32.7369086,11.4957704 35.2370734,11.4118733 35.6853373,11.7459982 C36.0142593,11.9911858 36.0695403,12.7247972 36.0884009,17.0960616 L36.0918153,17.8683697 L37.3112493,17.8683697 L38.5306832,17.8683697 L38.5306832,15.6733886 C38.5306832,14.2747791 38.5188141,13.0052671 38.4950758,11.8648524 C38.4025614,10.9008492 38.0245368,10.2981236 37.2128816,9.82010553 C36.6895005,9.51183262 36.3215566,9.49248427 30.11415,9.44728392 C24.8291231,9.4089124 23.5516441,9.44078027 23.4856321,9.61296435 C23.4405943,9.73035519 23.4233597,11.6173886 23.4474232,13.8066791 Z M1.16592565,9.90400259 C0.261593422,10.4576256 0.00421155883,11.2839141 0.00014677893,13.6471771 C-0.00294245379,15.4421839 0.0403068043,15.7724066 0.362399964,16.4112274 C0.987563112,17.6511479 1.32607798,17.7363457 5.73603899,17.763661 C9.24004186,17.7854482 9.54733922,17.7639862 10.0588511,17.4618917 C10.899285,16.9656634 11.2464172,16.1990459 11.177316,14.9916437 C11.0732576,13.1689964 10.4381764,12.8280427 7.1468428,12.8280427 L4.85642062,12.8280427 L4.90601094,13.6003508 L4.95560125,14.372659 L6.69614,14.4539546 C7.66713463,14.4993176 8.51781176,14.616871 8.62024422,14.7197912 C8.72137594,14.8212481 8.77958359,15.0729393 8.74966681,15.2792675 C8.67081008,15.8218344 7.9336216,15.9569476 5.40776737,15.891586 C3.47829764,15.8416705 3.22172874,15.8006975 2.91426879,15.4929124 C2.32227424,14.9007552 2.26926951,12.5274115 2.83053432,11.758843 C3.04190287,11.4695932 3.35017578,11.439839 6.93401092,11.3647219 L10.8088843,11.2834263 L10.8027058,10.4704703 L10.7965274,9.65751434 L6.25015235,9.61605358 C1.93042946,9.57670651 1.67694978,9.59101454 1.16592565,9.90400259 M12.2993578,9.68466707 C12.2396868,9.74417544 12.1909095,10.1465887 12.1909095,10.5789186 L12.1909095,11.3647219 L13.2884,11.3741522 C17.1058787,11.4071582 19.6104335,11.5595061 19.9469973,11.7790043 C20.3881072,12.0666281 20.5424063,12.8168239 20.4520056,14.2351069 C20.3485976,15.8587426 20.2342959,15.9172754 17.1644116,15.9172754 C14.5731957,15.9172754 14.304595,15.8484993 14.304595,15.185615 C14.304595,14.5191537 14.5683179,14.4539546 17.2637548,14.4539546 L19.8326957,14.4539546 L19.8326957,13.7476585 L19.8326957,13.0415249 L17.2718844,12.9490105 C12.7581902,12.7862567 12.0338464,13.0519307 11.8987331,14.9201036 C11.807682,16.1785594 12.2648885,17.0674455 13.2477522,17.5431873 C13.8563311,17.8378026 14.2517529,17.8683697 17.4531735,17.8683697 C20.3954238,17.8683697 21.0740795,17.8241449 21.507385,17.6038339 C22.6434097,17.0263099 22.9498941,16.4130159 23.0489121,14.5194789 C23.1687418,12.2288941 23.0019233,11.2915559 22.3452174,10.5647732 C22.0320668,10.2179662 21.5228312,9.87473617 21.1612284,9.76628785 C20.4789957,9.56191071 12.4956054,9.48841949 12.2993578,9.68466707 M40.8882556,9.76173529 C40.1830976,10.0222064 39.525091,10.6950088 39.326242,11.3585434 C39.2283621,11.6853517 39.1771458,12.862512 39.2080382,14.0773934 C39.2680343,16.446022 39.3831489,16.7559208 40.4801517,17.5025395 C41.0051586,17.859915 41.1205984,17.8683697 45.4648726,17.8683697 L49.912067,17.8683697 L49.912067,16.9874506 L49.912067,16.1065315 L46.1766968,16.0525513 C42.5414829,16.0000343 42.4314086,15.9886529 42.0712691,15.6281882 C41.7407212,15.2974777 41.7012116,15.1005798 41.7012116,13.7850544 C41.7012116,12.3727873 41.7200721,12.2958817 42.1574424,11.9196456 C42.5920487,11.5458485 42.719195,11.5274757 44.8401972,11.529752 C47.1330582,11.5321908 47.8269975,11.6834006 47.926991,12.2027169 C47.9546315,12.3461224 47.8585401,12.5820422 47.7136714,12.7270735 C47.4925474,12.9481976 47.030951,12.9906339 44.8512534,12.9906339 L42.2523957,12.9906339 L42.301986,13.762942 L42.3515763,14.5352502 L45.2782179,14.583052 C48.6563751,14.6381704 49.1192723,14.5815887 49.6528966,14.0479644 C50.7842061,12.9166549 50.4510568,10.6676934 49.0558617,10.0153776 C48.368101,9.69393476 41.6376384,9.48484249 40.8882556,9.76173529" id="Combined-Shape"></path>
            </g>
        </g>
    </g>
</svg>