<?xml version="1.0" encoding="UTF-8"?>
<svg width="166.546286px" height="30px" viewBox="0 0 166.546286 30" version="1.1" xmlns="http://www.w3.org/2000/svg" xmlns:xlink="http://www.w3.org/1999/xlink">
    <title>nokia ngage</title>
    <g id="Page-1" stroke="none" stroke-width="1" fill="none" fill-rule="evenodd">
        <g id="System" transform="translate(-16.726857, 0.000000)" fill="#000000" fill-rule="nonzero">
            <g id="nokia-ngage" transform="translate(16.726857, 0.000000)">
                <line x1="83.2731431" y1="30" x2="83.2731431" y2="0" id="Path" stroke="#979797"></line>
                <path d="M2.65336658,5.5 C1.64982544,5.5 0,6.7963591 0,8.03491272 L0,24.1682913 L5.59102244,24.1682913 L5.59102244,10.7119322 C7.04838025,12.1229546 21.605985,23.3865337 21.605985,23.3865337 C22.6091396,24.0931783 23.0018454,24.5 23.7381546,24.5 L25.467581,24.5 C27.1292481,24.5 28.3104738,23.3209576 28.3104738,22.0361596 L28.3104738,5.71325486 L22.7194514,5.71325486 L22.7194514,19.4775561 L6.20694464,6.04484988 C5.658001,5.65351621 4.57785337,5.5 4.31168279,5.5 L2.65332868,5.5 L2.65336658,5.5 Z M35.085997,12.5835411 C33.2362214,12.5835411 31.7219072,13.6524688 31.7219072,15 C31.7219072,16.3484788 33.2362214,17.4638404 35.085997,17.4638404 C36.9512152,17.4638404 38.4500868,16.3484788 38.4500868,15 C38.4500868,13.6524688 36.9512152,12.5835411 35.085997,12.5835411 Z M44.5623062,5.68945037 C42.979103,5.68945037 41.7904858,6.56987531 41.7904858,8.15336658 L41.7904858,21.8466334 C41.8216591,22.8193728 43.0072439,24.1757207 44.1358723,24.19202 L70.5036648,24.19202 C71.3031848,23.7677618 72.9197446,23.6302643 72.8253606,20.3541147 L72.8253606,13.1284289 L53.3989267,13.1284289 L53.3989267,16.7057357 L67.2817197,16.7057357 L67.2817197,20.3304239 L47.3340888,20.3304239 L47.3340888,9.55108429 L94.4076928,9.55108429 C94.6739771,9.56814165 95.0710344,9.56245586 95.0710344,9.95382743 L95.0710344,13.128391 L78.9139272,13.128391 L78.9139272,16.7056978 L95.0947631,16.7056978 L95.0947631,24.1682913 L100.614713,24.1682913 L100.614713,8.55603392 C100.614713,6.5972808 98.7554613,5.68945037 97.1084788,5.68945037 L44.5623441,5.68945037 L44.5623062,5.68945037 Z M106.726895,5.71317905 C104.768142,5.71317905 103.860311,6.89491272 103.860311,8.55610973 L103.860311,21.2307112 C103.860311,23.2689668 105.329139,24.1920579 106.347842,24.1920579 L132.455074,24.1920579 C133.897369,24.1920579 134.989987,23.092715 134.989987,21.6334544 L134.989987,13.1284289 L115.46879,13.1284289 L115.46879,16.7057357 L129.470075,16.7057357 L129.470075,20.3304239 L109.522444,20.3304239 L109.522444,9.55108429 L165.598542,9.55108429 L165.598542,5.71317905 L106.727008,5.71317905 L106.726895,5.71317905 Z M138.259503,13.128391 L138.259503,24.286783 L166.546286,24.286783 L166.546286,20.3304239 L144.016323,20.3304239 L144.016323,16.8478803 L160.268194,16.8478803 L160.268194,13.128391 L138.259503,13.128391 L138.259503,13.128391 Z" id="Combined-Shape"></path>
            </g>
        </g>
    </g>
</svg>