<?xml version="1.0" encoding="UTF-8"?>
<svg width="175.455843px" height="30px" viewBox="0 0 175.455843 30" version="1.1" xmlns="http://www.w3.org/2000/svg" xmlns:xlink="http://www.w3.org/1999/xlink">
    <title>pocket challenge v2</title>
    <g id="Page-1" stroke="none" stroke-width="1" fill="none" fill-rule="evenodd">
        <g id="System" transform="translate(-12.272079, 0.000000)" fill="#000000">
            <g id="pocket-challenge-v2" transform="translate(12.272079, 0.000000)">
                <line x1="87.7279213" y1="30" x2="87.7279213" y2="0" id="Path" stroke="#979797" fill-rule="nonzero"></line>
                <path d="M9.96502578,1.16650881 C9.25603234,1.50457191 8.68404989,2.35904334 8.46082972,3.41395108 C8.32874495,4.037736 8.34729532,5.44194482 8.49677586,6.13400433 C8.99363317,8.43501943 10.311017,10.4162909 11.8470027,11.1725454 C12.2514161,11.3715962 12.4633213,11.4243994 12.9477091,11.4465674 C13.4723535,11.4705828 13.599589,11.4485687 13.9623602,11.2710702 C14.994946,10.7658999 15.568083,9.54095992 15.5678522,7.83986827 C15.5675442,5.63576151 14.6394101,3.41456686 13.1376002,2.02421308 C12.3837318,1.32622669 11.7617172,1.03419313 10.9675153,1.00540543 C10.4464116,0.986547171 10.2896957,1.01171717 9.96502578,1.16650881 M33.2491989,2.87552863 C33.2491989,2.89692698 33.6188207,3.46906337 34.0704951,4.14703691 L34.8917914,5.37959712 L34.7143699,6.39801991 C34.6168458,6.95822557 34.5206302,7.45985517 34.5006173,7.51273526 C34.4729842,7.58601306 34.0118421,7.60972058 32.5674537,7.61210673 L30.670621,7.61518562 L29.362089,8.87938152 L28.0535569,10.1435774 L30.9592678,10.1462715 C33.6743948,10.1488885 33.8649786,10.1578943 33.8646707,10.2837443 C33.8644398,10.3578688 33.6912518,11.3865289 33.4798084,12.5697498 C33.268288,13.7529706 33.0952539,14.7625416 33.0952539,14.8132664 C33.0952539,14.8639913 33.9005399,14.5245427 34.8848639,14.0590132 C35.8691879,13.5934837 36.74398,13.1854526 36.8288807,13.1523544 C36.9638904,13.0996283 37.0114594,12.907351 37.2078931,11.6206022 L37.4324988,10.1490425 L40.7096788,10.1485806 C42.7793916,10.1483497 44.0950821,10.1181765 44.2805088,10.0666049 C44.7311826,9.94152467 45.129977,9.49469947 45.2405865,8.99099161 C45.4343262,8.10842523 46.0266294,4.52089221 46.0266294,4.22962837 C46.0266294,3.8366839 45.9138647,3.54434245 45.6592397,3.27740191 C45.2398937,2.83796606 45.2205736,2.83665753 38.9696391,2.83665753 C35.8233893,2.83665753 33.2491989,2.85413028 33.2491989,2.87552863 M46.6972905,3.08512467 C46.950299,3.54842199 46.8698628,4.4266779 46.2937238,7.49349214 C45.7301314,10.4931094 45.6477709,11.1984852 45.7980981,11.7354451 C45.9309526,12.2100574 46.2692466,12.6511866 46.6606516,12.8602439 L46.9887853,13.0355102 L51.7400651,13.0569855 L56.491345,13.0784608 L56.3303185,12.7106094 C56.0202734,12.0021547 56.0447507,11.6303777 56.6464445,7.92092029 C57.0339239,5.5317717 57.1864064,4.40520258 57.1526924,4.18028902 C57.0917302,3.77410528 56.793231,3.30919154 56.4360787,3.06441908 L56.1599015,2.87514377 L51.3598211,2.85420725 L46.5597407,2.83327074 L46.6972905,3.08512467 M59.4582489,2.94349532 C58.7714235,3.15878733 58.2450858,3.66772932 58.0053935,4.34847387 C57.9058681,4.63103982 57.2688439,8.35181219 57.0279201,10.0579071 C56.9781958,10.4099791 56.9533337,10.9714933 56.9727308,11.3057848 C57.0183755,12.0945217 57.2748478,12.5477356 57.8404415,12.8388455 L58.2224559,13.0355102 L62.2464228,13.0567546 C64.4596123,13.0684544 66.2703897,13.0553691 66.2703897,13.027659 C66.2703897,13.0000259 65.9846679,12.4279665 65.6353668,11.7565356 L65.0003439,10.5356752 L62.8836009,10.5345206 C60.9101037,10.533443 60.749924,10.5229747 60.5166974,10.3808066 C60.1837145,10.1777532 60.1872552,10.0726088 60.604369,7.7752114 C60.9521307,5.86021324 61.0464989,5.58149592 61.3916435,5.45025785 C61.5071792,5.40638354 63.5504904,5.37674914 66.4662077,5.37674914 L71.3474171,5.37674914 L72.2449931,4.24140516 C72.7386176,3.61700446 73.1949874,3.04540688 73.2591054,2.97135936 C73.3700228,2.84320019 73.045045,2.83688845 66.5709673,2.84181469 C61.3425351,2.84574028 59.6948623,2.86929386 59.4582489,2.94349532 M73.7341026,5.38660161 L71.5570901,7.9365457 L71.6877124,8.17685376 C71.7595277,8.3090155 72.4844545,9.4562902 73.2985923,10.726336 L74.7789269,13.0355102 L76.9133736,13.0559849 C78.0873577,13.0672229 79.0478203,13.0546763 79.0478203,13.0280439 C79.0478203,13.0014884 78.2993399,11.8387422 77.3845991,10.4442319 C75.880403,8.15122193 75.732231,7.89636607 75.8346044,7.77813635 C76.4570808,7.05944437 79.8751974,3.14200733 79.9951205,3.00984559 L80.1522983,2.83665753 L78.0317066,2.83665753 L75.911038,2.83665753 L73.7341026,5.38660161 M80.8906182,2.85590065 C80.8672186,2.95442541 79.767282,13.0404364 79.778207,13.0552152 C79.7862942,13.0661452 82.3383935,13.0661452 85.4495439,13.0552152 L91.1062509,13.0355102 L90.4074178,11.7852463 L89.7085078,10.5349824 L86.371905,10.5344436 L83.0353022,10.5339048 L83.0898757,10.0528269 C83.119895,9.78827248 83.167541,9.43319846 83.1957129,9.26385902 L83.2470535,8.95596913 L85.4405381,8.93557143 L87.6340226,8.91517372 L88.1517395,7.87650717 C88.4364607,7.30521748 88.6693794,6.81213181 88.6693794,6.78080402 C88.6694564,6.74939925 87.5217968,6.73338897 86.1191274,6.74508879 L83.5688754,6.76633319 L83.6233719,6.28325395 C83.6533912,6.01754498 83.6969576,5.70480582 83.7201263,5.58842344 L83.7623842,5.37674914 L86.5430148,5.37667217 L89.3236454,5.37651822 L89.9394252,4.40266249 C90.2781041,3.86693408 90.6366418,3.29549044 90.7362442,3.13269366 L90.9172065,2.83665753 L85.9062215,2.83665753 C83.1501452,2.83665753 80.8930814,2.84535542 80.8906182,2.85590065 M91.0858532,3.62562538 C90.8074438,4.05959618 90.4450574,4.6224189 90.2804902,4.87642806 L89.9812212,5.3382629 L92.1733203,5.35866061 C94.0708457,5.37636428 94.3653424,5.3947607 94.3653424,5.49567161 C94.3653424,5.60150876 93.7280873,9.21336508 93.2414673,11.8655286 C93.1342446,12.4497497 93.0575031,12.9552279 93.0708963,12.9887879 C93.0842895,13.0224249 93.8573241,12.6407184 94.788691,12.1405513 C95.7200579,11.6403841 96.5120277,11.2201914 96.5486666,11.2067212 C96.5852285,11.193328 96.8520921,9.88471899 97.1415855,8.29877816 C97.431156,6.71283732 97.6696167,5.40661446 97.671541,5.39599226 C97.6735423,5.38537006 98.5150823,5.37651822 99.5417412,5.3762873 L101.408324,5.3757485 L102.485938,4.16751159 C103.078626,3.50300823 103.575099,2.93171853 103.58924,2.89800459 C103.603348,2.86421368 100.909696,2.83665753 97.6034204,2.83665753 L91.5919472,2.83665753 L91.0858532,3.62562538 M132.851579,2.89438689 C132.851579,2.92617652 132.537762,4.23370791 132.154285,5.80009774 C131.770808,7.36648756 131.150179,9.91535403 130.775169,11.4643481 C130.400083,13.0132652 130.054553,14.4242476 130.007292,14.5998218 L129.921314,14.9191036 L119.821294,14.9394243 L109.721351,14.959822 L109.31432,15.1437093 C108.837091,15.3593861 108.362633,15.8624782 108.235089,16.288059 C108.134178,16.6248906 107.981696,17.6642499 107.521477,21.1520266 C107.237834,23.3013289 107.212279,23.6183785 107.293562,23.9816116 C107.40294,24.4701559 107.677886,24.8214583 108.101773,25.0139664 C108.390651,25.1452045 108.697694,25.1553649 112.415387,25.1562116 L116.417956,25.1571352 L116.802818,24.9747105 C117.664987,24.5659097 118.071094,23.8540682 118.256674,22.4261519 C118.380831,21.4708465 118.611671,19.1082535 118.611671,18.7928203 L118.611671,18.6135514 L116.517943,18.634026 L114.424215,18.6545007 L113.679198,19.6166566 L112.934182,20.5788125 L114.124484,20.6000569 L115.314709,20.6213014 L115.271836,20.9079468 C115.248282,21.0655865 115.207333,21.3555418 115.180931,21.5522834 C115.117198,22.026126 114.896595,22.3718863 114.571386,22.5077427 C114.246024,22.6436761 111.437067,22.6671527 111.094155,22.5367613 C110.811358,22.4292308 110.762865,22.3398658 110.762788,21.9258308 C110.762634,21.3886399 111.202147,17.9508184 111.292513,17.7819408 C111.453462,17.4812863 111.721634,17.4614274 115.621214,17.4614274 L119.381396,17.4614274 L119.378548,17.7115879 C119.377009,17.8491377 119.208978,19.5723975 119.005078,21.5409685 C118.801255,23.5095395 118.641152,25.1291173 118.649311,25.1399704 C118.657393,25.1508235 121.075252,25.1508235 124.022297,25.1399704 L129.380505,25.1201885 L128.660197,23.8886289 L127.939888,22.6570693 L124.853677,22.6369795 C122.458679,22.6213541 121.768697,22.5954913 121.772623,22.5215208 C121.775394,22.4690256 121.81896,22.0451382 121.869377,21.5794547 L121.961129,20.7327575 L123.894446,20.7122058 L125.827764,20.6916542 L126.100785,19.9809673 C126.250958,19.5901011 126.397591,19.2097032 126.42661,19.1355787 C126.476103,19.0091899 126.343017,19.0008769 124.272227,19.0008769 C122.20721,19.0008769 122.067428,18.992179 122.10245,18.866175 C122.123002,18.7920505 122.162489,18.5236475 122.190276,18.2696384 C122.218063,18.0156292 122.25932,17.7299074 122.28195,17.6346155 L122.323053,17.4614274 L125.893883,17.4614274 C127.857913,17.4614274 129.46479,17.4762831 129.46479,17.4944486 C129.46479,17.5126141 129.292218,18.3605428 129.08139,19.3788117 L128.697913,21.2302306 L129.935015,23.1950299 L131.172116,25.1597523 L136.303102,25.1399704 L141.43401,25.1201885 L141.481963,24.6736711 C141.560321,23.94428 141.99968,23.1543115 142.735306,22.420225 C143.695538,21.4619177 144.966815,20.6966574 147.553321,19.5198253 C148.087279,19.2769001 148.178569,19.1983882 148.768947,18.47477 L149.40728,17.6923448 L147.479659,17.6923448 C146.41944,17.6923448 145.552037,17.6790286 145.552037,17.6627874 C145.552037,17.59128 146.197143,16.0776932 146.37595,15.7295468 C147.049921,14.4178588 148.280095,13.1054012 149.746421,12.1337007 C151.26401,11.1280553 153.005512,10.4850273 155.031659,10.1820637 C155.784219,10.0695299 155.851185,10.0415889 158.257421,8.8380473 L160.71469,7.60895085 L164.583019,7.60795021 L168.451348,7.60702654 L171.953595,5.24104667 L175.455843,2.87514377 L166.400339,2.85559276 L157.344759,2.83604175 L154.623551,3.94444536 L151.902266,5.05284897 L150.555248,6.8932608 C149.814388,7.90552579 148.049024,10.3217687 146.632269,12.2627066 L144.056231,15.7918175 L140.379025,18.5508958 L136.701896,21.310051 L135.090554,21.310051 L133.479289,21.310051 L133.042625,20.4959132 L132.60596,19.6818523 L133.474517,17.705661 C133.952208,16.6188097 134.539508,15.2792578 134.779662,14.7289046 C135.235801,13.6833875 137.492018,8.53200475 139.069569,4.93415742 L139.989313,2.83665753 L136.420408,2.83665753 C134.457533,2.83665753 132.851579,2.86259725 132.851579,2.89438689 M3.49125595,3.68666455 C2.33897803,3.80066078 1.58310834,4.10208499 0.949547916,4.70046899 C-0.546027233,6.11299084 -0.246373396,9.31181287 1.64707247,12.1460163 C4.40661259,16.2765131 10.7890161,19.9997486 20.1253922,22.9253954 C22.5821226,23.6951971 27.6509139,25.0841653 27.9927487,25.0811683 C28.0261547,25.0808555 27.6843969,24.875416 27.2332613,24.6246397 C25.1870251,23.4872174 23.6333357,22.3887433 22.446805,21.2405449 C21.27513,20.1068173 20.7288564,19.2407231 20.5864573,18.2912676 C20.5268037,17.8933199 20.5815311,17.9180281 19.5096124,17.8058022 C17.7391686,17.6204525 15.8474931,16.9892782 13.655548,15.8525488 C9.22570518,13.5554593 5.77272004,10.7485811 4.43601608,8.35827788 C3.88573987,7.37433876 3.59285961,6.10675607 3.76674043,5.46126491 C3.93461739,4.83778788 4.59111561,4.32222626 5.44450942,4.14372709 C5.64471482,4.1017771 6.10293195,4.04043004 6.46277826,4.0072549 L7.11704428,3.94698545 L6.27034708,3.8199039 C5.16309806,3.65372033 4.26151948,3.6104618 3.49125595,3.68666455 M38.0619797,5.5499372 C38.0054049,5.7982504 37.7136023,7.46970765 37.7136023,7.54544856 C37.7136023,7.636507 42.2374285,7.6236526 42.568564,7.53167049 C43.0163899,7.40728297 43.155941,7.19114427 43.2540039,6.47029706 C43.3539912,5.73536389 43.3172753,5.55032206 43.0515663,5.44933418 C42.9466528,5.40938547 41.7899105,5.37674914 40.4810706,5.37674914 L38.1013896,5.37674914 L38.0619797,5.5499372 M49.4946241,5.47427326 C49.3910962,5.52669152 49.2473116,5.67332408 49.1751884,5.80025168 C49.0508009,6.01900745 48.4093892,9.48731011 48.4116922,9.92882422 C48.4123142,10.0405882 48.4789724,10.2137763 48.5597934,10.3136866 L48.7068878,10.4954186 L50.9651832,10.5162012 C53.0987832,10.5359061 53.2371797,10.5286707 53.4695596,10.385194 C53.6048002,10.3016789 53.7670582,10.1537378 53.8300987,10.0565215 C53.9430173,9.88225587 54.4936014,6.47252926 54.4936014,5.947577 C54.4936014,5.78724334 54.4334859,5.62452353 54.3396564,5.53069408 C54.192639,5.38367666 54.0838769,5.37682611 51.9342667,5.37790373 C50.2999101,5.37867345 49.6312503,5.40515198 49.4946241,5.47427326 M68.006273,6.3966344 C67.9899548,6.44959147 67.9544705,6.64871925 67.9273762,6.83922612 C67.8193068,7.59879049 67.0341876,12.6643489 66.9936231,12.8638616 L66.9502106,13.0770753 L68.5923414,13.0562928 L70.2344721,13.0355102 L70.6328047,10.1105562 C70.8518683,8.50183154 71.0544599,6.98639749 71.0829397,6.74301053 L71.1347422,6.30041881 L69.5853632,6.30041881 C68.4129185,6.30041881 68.0286719,6.32381845 68.006273,6.3966344 M16.8026445,7.32592307 C17.7177702,7.91391579 18.7532809,8.62452566 19.1296763,8.92287097 C19.7579256,9.42080589 20.6374901,10.3565602 20.8008257,10.7007042 C21.2650466,11.6789473 20.6081636,12.3135084 18.7398877,12.6918281 C17.911433,12.8595511 16.4722786,12.9938681 15.3783459,13.0054909 C14.3493009,13.0163441 14.6497244,13.0773832 16.8925483,13.312919 C18.9045318,13.5242854 22.645394,13.5718544 23.5891535,13.3981275 C25.2476024,13.0928547 25.9036388,12.5593585 25.6321569,11.7366767 C25.4601234,11.2154191 24.2537338,10.2691965 22.8899356,9.5857579 C22.270615,9.27540489 20.562288,8.5609464 19.6108312,8.21433935 C18.4273795,7.78329351 16.6289176,7.21423601 16.8026445,7.32592307 M106.590341,11.3295693 C105.672907,11.7603842 104.90526,12.130006 104.884478,12.1508656 C104.863695,12.1717251 104.600141,13.9899689 104.298717,16.1913816 C103.99737,18.3927943 103.725965,20.2843928 103.695638,20.3949253 C103.645683,20.5771192 103.447094,20.3308842 101.570043,17.7586181 L99.4994833,14.9213358 L98.0263841,14.9213358 L96.5532079,14.9213358 L95.1228285,21.9450739 C94.3360928,25.8081684 93.7046876,28.9826671 93.7196203,28.9995241 C93.7346299,29.0164581 94.6595312,28.5793314 95.7749393,28.0281315 L97.80301,27.0260269 L97.8865251,26.5349425 C98.0619454,25.5027416 98.9204964,20.8048037 98.9518242,20.7059711 C98.9698357,20.6489345 99.7724277,21.6268697 100.735276,22.8791349 L102.485938,25.1560576 L104.391007,25.1573662 C105.438756,25.1580589 106.296076,25.1459742 106.296076,25.1304258 C106.296076,25.1149543 106.398757,24.3615478 106.524299,23.4562745 C107.97423,12.9980246 108.302671,10.5904796 108.282273,10.5700819 C108.269111,10.5569966 107.507776,10.8987543 106.590341,11.3295693 M156.251211,11.1479142 C153.067552,11.4223211 150.470116,12.5608979 148.659724,14.4755882 C147.970281,15.2046715 147.245431,16.2596562 147.245431,16.5339091 C147.245431,16.5890214 148.225907,16.6147302 150.32433,16.6147302 C152.017725,16.6147302 153.403229,16.6002594 153.403229,16.5826327 C153.403229,16.565006 153.333954,16.388893 153.249284,16.1913816 C152.684845,14.8746135 153.61983,14.1255174 155.827862,14.1255174 C156.805874,14.1254404 157.182962,14.2186541 157.53211,14.5466338 C157.927055,14.9177181 157.780115,15.644954 157.208825,16.1465836 C156.263757,16.9762699 155.006027,17.5868156 149.015798,20.1234434 C147.936259,20.5805829 146.655668,21.1577225 146.169972,21.4060357 C143.931843,22.5500776 142.761477,23.6672561 142.581053,24.8318496 L142.530329,25.1593674 L151.170027,25.1397395 L159.809725,25.1201885 L160.763029,23.0427014 C161.287289,21.900045 161.716256,20.9561316 161.716256,20.9452015 C161.716256,20.9341945 161.626583,20.9251887 161.516974,20.9251887 C161.390124,20.9251887 161.173446,21.0522702 160.920438,21.2751825 C160.70199,21.4676137 160.265248,21.7534125 159.950046,21.9102054 L159.376832,22.1952345 L155.331697,22.2157092 L151.286486,22.2361838 L151.533106,22.0843171 C151.668731,22.000802 153.539163,21.0502689 155.689619,19.9721155 C158.085926,18.7707292 159.912406,17.8041088 160.407724,17.4752055 C162.241824,16.257347 162.966212,15.2691744 162.962914,13.9892761 C162.959823,12.7765748 162.273922,11.9486589 160.908045,11.5086842 C159.911098,11.1875551 157.741629,11.0194472 156.251211,11.1479142 M34.6731896,15.0292512 C34.1293791,15.2016695 33.7546001,15.4361277 33.3765883,15.8402332 C32.7309432,16.5304453 32.7449522,16.4730239 32.1745092,20.7581584 C32.0035533,22.0422132 31.8636943,23.2049594 31.8636943,23.3420474 C31.8636943,23.7516949 32.0858369,24.3735555 32.3324567,24.654428 C32.7819759,25.1664489 32.765042,25.1647555 37.1434672,25.1412789 L41.0762217,25.1201885 L40.5015453,23.8693858 L39.9268688,22.6185831 L37.932589,22.6185831 C35.7668915,22.6185831 35.4707014,22.5719378 35.3328437,22.2094744 C35.2582574,22.0131176 35.2691105,21.900276 35.5928567,19.5189786 C35.7009261,18.7243917 35.7892905,18.0214021 35.7892905,17.9568222 C35.7892905,17.8921654 35.874345,17.7543077 35.9782579,17.6503948 L36.1671483,17.4614274 L41.4830213,17.4614274 L46.7988942,17.4614274 L47.6057966,16.2279435 C48.0496199,15.5495081 48.412776,14.9779875 48.412776,14.9578977 C48.412776,14.9378079 45.3906058,14.923645 41.6969278,14.9264929 C36.4973602,14.9304955 34.9115734,14.9536642 34.6731896,15.0292512 M52.3790906,15.0175514 C52.3618487,15.0705084 52.1524836,16.0836201 51.9139459,17.2689962 C51.6753313,18.4543723 51.4630412,19.4848028 51.4421816,19.5589273 C51.4070822,19.6838536 51.2141892,19.6936291 48.7924812,19.6936291 C47.355944,19.6936291 46.1811901,19.6849312 46.1818828,19.674386 C46.1826526,19.6638408 46.251312,19.3953608 46.3345193,19.0778493 C46.4177265,18.7603379 46.4863859,18.4745391 46.4871557,18.4428264 C46.4878484,18.4111138 45.7633835,18.3850971 44.8771994,18.3850971 C43.4096423,18.3850971 43.2623169,18.3971048 43.2249853,18.5197989 C43.2024324,18.5939234 42.9877561,19.5897163 42.747756,20.7327575 C42.5078328,21.8757987 42.2003277,23.3392763 42.0643174,23.9848445 L41.8171588,25.1586747 L43.4505916,25.1586747 L45.0839475,25.1586747 L45.2468212,24.4466793 C45.3364172,24.0551203 45.465731,23.4835997 45.5340825,23.1766335 L45.65847,22.6185831 L48.3493507,22.6185831 C50.8765879,22.6185831 51.0376913,22.6267422 50.9986663,22.7532849 C50.9758054,22.8273324 50.8404878,23.3995458 50.6978578,24.0247162 L50.4386145,25.1615227 L52.1731892,25.1408171 L53.9077639,25.1201885 L54.8094964,20.2382094 C55.305507,17.5531016 55.7308569,15.2583213 55.7547954,15.138783 L55.7982848,14.9213358 L54.1044286,14.9213358 C52.8173718,14.9213358 52.402952,14.9444275 52.3790906,15.0175514 M60.3810719,15.4409 C60.2148114,15.7266988 58.8740279,18.0173226 57.4016214,20.5312436 C55.929215,23.0452415 54.7245188,25.1148004 54.7245188,25.1303488 C54.7245188,25.1459742 55.599234,25.1586747 56.6683816,25.1586747 L58.6121675,25.1586747 L59.3066131,23.907872 L60.0010588,22.6570693 L61.7302454,22.6570693 L63.459432,22.6570693 L63.8055772,23.907872 L64.1517224,25.1586747 L66.096201,25.1586747 C67.1657336,25.1586747 68.0407566,25.1319652 68.0407566,25.0994059 C68.0407566,25.0667696 67.9689413,24.7810477 67.8811157,24.464383 C67.7933671,24.1477182 67.220384,22.0528354 66.607914,19.8090878 C65.9954441,17.5653402 65.4427817,15.5476608 65.3798952,15.3254413 L65.2654371,14.9213358 L62.9744285,14.9213358 L60.6834198,14.9213358 L60.3810719,15.4409 M70.3499308,14.9642095 C70.3499308,14.98784 70.2126889,15.8624782 70.0449659,16.9077644 C69.8773198,17.9531275 69.5315595,20.124675 69.2767036,21.7333996 C69.0219247,23.3421243 68.7938553,24.7708874 68.7699938,24.9085142 L68.7265044,25.1586747 L72.3175012,25.1586747 C75.1580933,25.1586747 75.9008777,25.1385849 75.8724748,25.0624591 C75.8526929,25.009579 75.6346299,24.4379814 75.3878561,23.7924133 L74.9392606,22.6185831 L73.5262769,22.6185831 L72.1132932,22.6185831 L72.1573984,22.3684225 C72.2428379,21.883265 73.2748848,15.0785905 73.2748848,15.0004635 C73.2748848,14.9490459 72.7629409,14.9213358 71.8124078,14.9213358 C71.0080455,14.9213358 70.3499308,14.9406559 70.3499308,14.9642095 M78.1689486,15.1330101 C78.1445483,15.2493925 77.932874,16.5570008 77.6986468,18.0387209 C77.4644195,19.520441 77.1179664,21.7092303 76.9287681,22.9026115 C76.7394928,24.0960697 76.5847011,25.0918626 76.5847011,25.1155701 C76.5847011,25.1392776 78.2299877,25.1586747 80.2408936,25.1586747 C82.2517994,25.1586747 83.8970861,25.132735 83.8970861,25.1009453 C83.8970861,25.0691557 83.6926472,24.506333 83.4427175,23.8501426 L82.988426,22.6570693 L81.4799965,22.6362098 C80.6503102,22.6247409 79.9714899,22.5977235 79.9714899,22.5762482 C79.9714899,22.5547729 80.231272,20.8396723 80.5487835,18.7648792 C80.8662949,16.6900862 81.126077,14.976525 81.126077,14.956974 C81.126077,14.9373461 80.4707334,14.9213358 79.6696809,14.9213358 L78.2133617,14.9213358 L78.1689486,15.1330101 M85.9403204,15.1714963 C85.9172286,15.3090461 85.7586653,16.4781041 85.5878634,17.7693173 C84.8623209,23.2556842 84.6613457,24.7471029 84.6206273,24.9470004 L84.5775997,25.1586747 L89.1562303,25.1586747 L93.7347839,25.1586747 L93.1901267,23.8886289 L92.6454694,22.6185831 L90.1857371,22.6185831 L87.7260048,22.6185831 L87.7718034,22.3299363 C87.7969734,22.1712191 87.8408477,21.8421617 87.8692505,21.5986978 L87.9208221,21.1561061 L90.1094574,21.1561061 L92.2980927,21.1561061 L92.7852515,20.1362208 L93.2724102,19.1163356 L90.731395,19.0960148 L88.1903797,19.0757711 L88.2353316,18.7496387 C88.2600398,18.5702928 88.3030674,18.2071367 88.3308544,17.9425053 L88.3813484,17.4614274 L91.3925885,17.4603498 L94.4038286,17.4591952 L94.6024176,17.0947305 C94.7115646,16.8942172 95.0169913,16.3232354 95.2810839,15.8257623 L95.7611612,14.9213358 L90.8717158,14.9213358 L85.9823473,14.9213358 L85.9403204,15.1714963 M62.4058328,17.8870852 C62.3805858,17.9281115 62.0594567,18.54189 61.692298,19.2510374 L61.0246387,20.5403263 L62.061227,20.5403263 L63.0978153,20.5403263 L62.9479499,19.8668172 C62.6616123,18.5798374 62.4515544,17.8128067 62.4058328,17.8870852" id="Shape"></path>
            </g>
        </g>
    </g>
</svg>