<?xml version="1.0" encoding="UTF-8"?>
<svg width="135.419554px" height="30px" viewBox="0 0 135.419554 30" version="1.1" xmlns="http://www.w3.org/2000/svg" xmlns:xlink="http://www.w3.org/1999/xlink">
    <title>commodore 65</title>
    <g id="Page-1" stroke="none" stroke-width="1" fill="none" fill-rule="evenodd">
        <g id="System" transform="translate(-33.505803, 0.000000)">
            <g id="commodore-65" transform="translate(33.505803, 0.000000)">
                <line x1="67.7097772" y1="30" x2="67.7097772" y2="0" id="Path" stroke="#979797" fill-rule="nonzero"></line>
                <polygon id="Path" fill="#000000" points="26.158 5.325 26.158 5.325 93.02 5.325 93.02 7.547 26.158 7.547"></polygon>
                <polygon id="Path" fill="#000000" points="26.158 9.77 26.158 9.77 93.02 9.77 93.02 11.992 26.158 11.992"></polygon>
                <polygon id="Path" fill="#000000" points="26.158 14.214 26.158 14.214 93.02 14.214 93.02 16.436 26.158 16.436"></polygon>
                <polygon id="Path" fill="#000000" points="26.158 18.658 26.158 18.658 93.02 18.658 93.02 20.88 26.158 20.88"></polygon>
                <polygon id="Path" fill="#000000" points="26.158 23.103 26.158 23.103 93.02 23.103 93.02 25.325 26.158 25.325"></polygon>
                <path d="M17.843,15.782 L13.045,15.782 L13.045,19.718 L21.67,19.718 L17.843,15.782 L17.843,15.782 Z M21.669,11.04 L13.044,11.04 L13.044,14.974 L17.788,14.974 L21.669,11.04 L21.669,11.04 Z M12.775,10.77 L12.775,5.703 C11.751,5.433 11.049,5.325 10.026,5.325 C4.689,5.325 0,9.8 0,15.352 C0,21.066 4.743,25.325 10.08,25.325 C11.05,25.325 11.589,25.217 12.775,24.892 L12.775,19.718 C11.588,20.31 10.997,20.472 10.026,20.472 C7.061,20.472 4.796,17.993 4.796,15.244 C4.796,12.387 7.006,9.96 9.972,9.96 C10.997,9.96 11.859,10.231 12.775,10.77 L12.775,10.77 Z" id="Shape" fill="#000000" fill-rule="nonzero"></path>
                <path d="M111.688702,7.43783774 C112.430867,7.54614417 113.190787,7.65711386 113.877912,7.97759435 C114.471822,8.25368695 114.761231,8.8990867 114.924578,9.49743531 C115.154507,10.3647745 115.204222,11.2685117 115.198007,12.1624835 L110.649138,12.1624835 C110.623393,11.9130237 110.583443,11.6431454 110.396127,11.4602673 C110.104942,11.1504399 109.657512,11.1051643 109.258909,11.0607764 C107.929936,10.9391536 106.592973,10.9533577 105.259561,10.95247 C104.457028,10.9666741 103.641179,10.9702251 102.859953,11.1735216 C102.584748,11.2321136 102.372574,11.4442877 102.286461,11.7070639 C102.02546,12.4350251 102.078726,13.2233538 102.056532,13.9841621 C102.78982,13.4985587 103.6687,13.3174561 104.528049,13.2100375 C105.623542,13.0795371 106.729688,13.0449146 107.833171,13.0493533 C109.12397,13.0422513 110.420096,13.0857514 111.696691,13.2890479 C112.367836,13.4062319 113.050522,13.5544874 113.650646,13.8918353 C114.160219,14.1776932 114.517097,14.6748374 114.73371,15.2083797 C115.051527,15.9842799 115.152732,16.8285373 115.191793,17.6594784 C115.219313,18.8215531 115.198007,20.0102604 114.839353,21.1261717 C114.633393,21.7573673 114.274739,22.3876752 113.673728,22.71437 C113.129532,23.0064422 112.516979,23.1342793 111.914192,23.238147 C110.857761,23.4068209 109.788013,23.4583108 108.72004,23.4805048 C106.327534,23.4893824 103.924374,23.4787293 101.549622,23.1529222 C100.742651,23.0224219 99.9125975,22.8910338 99.1846363,22.5004204 C98.4664404,22.0885009 98.1814702,21.2477945 97.9755105,20.4940883 C97.5032234,18.5561135 97.5023357,16.5444549 97.5094377,14.5612045 C97.5298562,13.2810581 97.5893359,11.9964729 97.7952957,10.7305306 C97.9293471,9.99635506 98.0855924,9.23909785 98.4904099,8.5999124 C98.8472884,8.03884962 99.5237597,7.82756332 100.130986,7.65800162 C101.687225,7.27271484 103.301168,7.21678611 104.896468,7.17239823 C107.162026,7.15819411 109.436461,7.15819411 111.688702,7.43783774 Z M103.348219,16.9421703 C102.992228,16.9865582 102.589187,17.0380481 102.345053,17.3327836 C102.029012,17.7145194 102.030787,18.2533882 102.107134,18.7176854 C102.167502,19.0878803 102.435604,19.4287792 102.816452,19.4997998 C103.614547,19.6746881 104.438386,19.6649227 105.251571,19.6942187 C105.640663,19.6937115 106.030262,19.6968277 106.419954,19.6978112 L107.00451,19.6969674 C107.783873,19.691791 108.56278,19.6665714 109.33792,19.5752592 C109.704563,19.5228815 110.125361,19.455412 110.362392,19.1358192 C110.627831,18.7647366 110.625168,18.2738066 110.559474,17.8405809 C110.500882,17.4535186 110.2168,17.0975279 109.819972,17.0265072 C109.02099,16.8587211 108.198039,16.8649354 107.385741,16.8374149 C107.161286,16.8374149 106.936733,16.8364038 106.712142,16.8353722 L106.038322,16.8332063 C105.139911,16.8328775 104.241895,16.848068 103.348219,16.9421703 Z M117.23985,7.37924575 C123.003172,7.3801335 128.765606,7.37924575 134.528928,7.3801335 C134.528041,8.56706537 134.528928,9.75399724 134.528928,10.9418169 C130.20111,10.9418169 125.873292,10.9418169 121.545474,10.9418169 C121.543698,11.7425742 121.546362,12.5433315 121.544586,13.3440889 C122.466966,12.8478324 123.513632,12.65874 124.542543,12.5309029 C126.213303,12.3391473 127.900043,12.369331 129.578792,12.4101679 C130.889122,12.4705354 132.220759,12.51226 133.49114,12.8718018 C134.020243,13.006741 134.472112,13.3716093 134.731337,13.8509984 C135.217828,14.7307662 135.329686,15.7570139 135.397155,16.7433126 C135.442431,17.8973974 135.43888,19.0656864 135.194747,20.1993528 C135.031399,20.9299773 134.763296,21.6774692 134.217325,22.2136747 C133.726396,22.6975026 133.032169,22.8750541 132.381443,23.0277484 C130.673397,23.3819637 128.921852,23.4370047 127.183622,23.4787293 C125.131127,23.4920456 123.073305,23.4769537 121.033238,23.2354837 C120.24846,23.1271773 119.444152,23.0144321 118.72418,22.6646556 C118.117842,22.3681445 117.662422,21.806194 117.460901,21.1661208 C117.18836,20.3245266 117.24784,19.426116 117.23985,18.554338 C118.718854,18.554338 120.197858,18.5534503 121.676862,18.5552258 C121.72924,18.9156554 121.864179,19.3639729 122.273435,19.4518609 C123.128346,19.6267492 124.009001,19.5956777 124.877228,19.6276369 C126.309181,19.6285247 127.746461,19.6631472 129.173087,19.5113407 C129.557486,19.4571875 130.027997,19.4199017 130.250825,19.0497067 C130.581958,18.4833174 130.541121,17.7882032 130.495846,17.1578954 C130.446131,16.7655065 130.320957,16.2683623 129.892171,16.1396374 C129.177526,15.9754023 128.438024,15.9878309 127.710062,15.9558716 C126.112099,15.9230246 124.513247,15.9221368 122.916172,15.9958207 C122.60013,16.02778 122.256568,16.0064738 121.975149,16.1733722 C121.718587,16.3376074 121.675974,16.6598634 121.652893,16.9368437 C120.181878,16.9315172 118.710864,16.935956 117.23985,16.9341805 C117.23985,13.7489063 117.23985,10.5645199 117.23985,7.37924575 Z" id="Combined-Shape" fill="#000000" fill-rule="nonzero"></path>
            </g>
        </g>
    </g>
</svg>