<?xml version="1.0" encoding="UTF-8"?>
<svg width="141.816076px" height="30px" viewBox="0 0 141.816076 30" version="1.1" xmlns="http://www.w3.org/2000/svg" xmlns:xlink="http://www.w3.org/1999/xlink">
    <title>gameking</title>
    <g id="Page-1" stroke="none" stroke-width="1" fill="none" fill-rule="evenodd">
        <g id="System" transform="translate(-29.091962, 0.000000)" fill="#000000">
            <g id="gameking" transform="translate(29.091962, 0.000000)">
                <line x1="70.9080381" y1="30" x2="70.9080381" y2="0" id="Path" stroke="#979797" fill-rule="nonzero"></line>
                <path d="M7.99124288,5.12859893 C4.08391638,5.84971752 0.981473649,8.91435968 0.172116449,12.8522174 C-0.0568118618,13.9662159 -0.0574828778,16.0480432 0.170774417,17.167298 C0.92343076,20.8588928 3.62840832,23.7145135 7.32022682,24.7151103 C8.53979851,25.0455857 10.9512065,25.0620256 12.1850932,24.7482137 C15.7740226,23.8355201 18.470948,21.2064791 19.3540051,17.7598052 C19.5213118,17.1067947 19.5662698,16.5319576 19.5662698,15.0477819 L19.5662698,13.1644635 L14.7573214,13.1644635 L9.94837304,13.1644635 L9.94837304,15.0097577 L9.94837304,16.8550519 L12.6319899,16.8550519 L15.3156068,16.8550519 L15.0935005,17.4396187 C14.5881136,18.7695725 13.6200611,19.7523874 12.1267148,20.4515861 C11.4673297,20.7603653 11.1884107,20.8238882 10.3279445,20.8616887 C8.63452361,20.9360597 7.15079527,20.3552953 5.97819471,19.1592092 C3.34646974,16.4746976 3.81774668,11.9046309 6.94132642,9.81877749 C9.09920222,8.37777051 12.272549,8.63320396 14.4723633,10.4249287 L15.1363337,10.9657676 L15.625057,10.4155344 C15.8939108,10.1129062 16.4694189,9.44871214 16.9041255,8.93963462 C17.6877604,8.02179649 17.6925693,8.01206676 17.4839952,7.78011888 C16.8697918,7.09702453 15.0948425,6.07383688 13.6948794,5.59596161 C12.0980848,5.0508729 9.54576341,4.84173957 7.99124288,5.12859893 M27.1152005,5.16516931 C25.1434198,5.59696814 23.5612758,6.86641868 22.6995793,8.70791041 C22.0463452,10.1037356 22.0306882,10.3161122 22.0285633,17.8336169 L22.0266621,24.6835725 L24.1515462,24.6835725 L26.2764304,24.6835725 L26.2764304,17.9886216 C26.2764304,13.9181264 26.321053,11.0587033 26.3901676,10.6940061 C26.6373252,9.39100476 27.4245389,8.79044539 28.8855645,8.79044539 C30.1707839,8.79044539 30.9019678,9.18019388 31.3213528,10.0889733 C31.4930211,10.4610517 31.5282494,10.8234004 31.5302625,12.2418165 L31.5327228,13.9473156 L29.4637567,13.9473156 L27.3947905,13.9473156 L27.3947905,15.8485278 L27.3947905,17.7497399 L29.4637567,17.7497399 L31.5327228,17.7497399 L31.5327228,21.2166562 L31.5327228,24.6835725 L33.7182221,24.6835725 L35.9036096,24.6835725 L35.870618,17.5540269 L35.8376264,10.4244813 L35.531643,9.52107003 C34.5527424,6.63022103 32.138203,4.98388313 28.9146419,5.00926991 C28.2940639,5.01419069 27.4842593,5.08431187 27.1152005,5.16516931 M41.9334717,5.2331656 C41.0218964,5.64584047 40.4954843,6.34593389 40.1034991,7.66738818 C40.0058663,7.99629788 39.4970124,11.7959263 38.9727252,16.1110069 C38.448438,20.4260875 37.9920352,24.1202545 37.9583726,24.3201055 L37.8971983,24.6835725 L40.0588765,24.6835725 L42.2205548,24.6835725 L42.9236677,17.4421909 C43.3102848,13.4594869 43.6608907,10.1124589 43.7027174,10.0044253 C43.7472281,9.88945785 44.4223821,12.6475575 45.3316089,16.6586678 C46.1855886,20.4265348 46.9908079,23.7357623 47.120985,24.0125565 C47.4194753,24.6475613 47.7656078,24.8150917 48.7794012,24.8150917 C49.6509392,24.8150917 50.0314053,24.632799 50.2992526,24.0865919 C50.379439,23.9230876 51.2415828,20.6311947 52.2150034,16.7713985 C53.3776506,12.1616301 54.0069518,9.84942056 54.049114,10.0330553 C54.0843423,10.1868298 54.3978186,13.5335224 54.7457405,17.4701499 C55.0935504,21.4067774 55.3905869,24.6412985 55.4056848,24.6580739 C55.4207826,24.6747375 56.4112023,24.6747375 57.6066174,24.6580739 L59.7801503,24.6276545 L58.8080717,16.6313798 C58.2734955,12.2334288 57.7759371,8.35831105 57.702349,8.02000712 C57.4229827,6.7347877 56.8696181,5.84826365 56.0456104,5.36535576 C55.3317611,4.94708909 53.9981167,4.87842178 53.1082376,5.21415348 C52.2847891,5.52483391 51.6295419,6.10201956 51.284416,6.82067775 C51.1013404,7.20192671 50.6425891,9.06343708 49.9635209,12.1798593 C49.3913678,14.8059925 48.8942568,16.9196931 48.8589166,16.8769717 C48.8235764,16.8341385 48.3293731,14.7105964 47.760687,12.1579395 C47.1920009,9.60528255 46.6095589,7.25762104 46.4664089,6.9410133 C45.8972754,5.68241085 44.7595677,4.99830998 43.2432951,5.00289526 C42.67528,5.0045728 42.28788,5.07268093 41.9334717,5.2331656 M106.028553,5.23350111 C105.402495,5.5173409 105.068888,5.82354789 104.75955,6.39838498 C104.51955,6.84416331 104.518655,6.87659576 104.488236,15.7646508 L104.457705,24.6835725 L106.528348,24.6835725 L108.599104,24.6835725 L108.627846,17.7952572 L108.656699,10.9069419 L111.562982,16.9285281 C113.161454,20.2404397 114.674819,23.2520716 114.926002,23.6211304 C115.530476,24.509332 116.181026,24.91306 117.130961,24.9893322 C118.319443,25.0847283 119.18606,24.5374028 119.545277,23.4646718 C119.6362,23.193134 119.672546,20.547094 119.672546,14.2102421 L119.672546,5.33594289 L117.659498,5.33594289 L115.64645,5.33594289 L115.64645,11.5652086 C115.64645,15.1975304 115.605071,17.7501873 115.54714,17.6882301 C115.492564,17.6298517 114.480448,15.5437746 113.298118,13.0526275 C112.115675,10.5614804 110.918024,8.07469493 110.636532,7.52636297 C110.010698,6.3071268 109.198545,5.44632503 108.425311,5.1828394 C107.680818,4.92919533 106.651815,4.95089151 106.028553,5.23350111 M130.241049,5.12155326 C126.534021,5.8530726 123.670572,8.49922442 122.566303,12.2138575 C122.2299,13.3454142 122.149602,15.8138586 122.40772,17.0896838 C123.159705,20.8071128 125.881122,23.7211118 129.515457,24.7003479 C130.286678,24.9081392 130.758291,24.9567879 132.030425,24.9596521 C133.735365,24.963498 134.629159,24.8002175 136.005972,24.2334326 C138.707594,23.1214471 140.871174,20.6254911 141.598443,17.7820605 C141.771789,17.1043343 141.816076,16.5476147 141.816076,15.0477819 L141.816076,13.1644635 L137.007128,13.1644635 L132.198179,13.1644635 L132.198179,15.0097577 L132.198179,16.8550519 L134.877323,16.8550519 L137.556354,16.8550519 L137.403027,17.2896466 C136.847426,18.8644094 135.575962,20.0856587 133.907257,20.6471873 C132.058944,21.2691073 129.735103,20.6675414 128.267256,19.1871682 C125.607683,16.5047815 126.060955,11.9091043 129.191133,9.81877749 C131.078477,8.5584975 133.794638,8.57851615 135.944686,9.86854452 C136.313745,10.0899798 136.783568,10.431527 136.988787,10.6274637 L137.36176,10.9836614 L137.827557,10.4717879 C138.083661,10.1902967 138.664649,9.52218839 139.118704,8.98705309 C139.937343,8.02202016 139.942376,8.0121786 139.733802,7.78011888 C138.991658,6.95465729 136.710762,5.75018347 135.105916,5.33616656 C134.018422,5.05568185 131.203957,4.93143205 130.241049,5.12155326 M68.88595,5.4657845 C67.8832283,5.61072397 66.2862101,6.16319385 65.5139825,6.63234591 C63.5583062,7.820268 62.2717447,9.52576715 61.5385478,11.9020587 C61.2538134,12.8245939 61.2352486,13.0151625 61.2352486,15.0097577 C61.2352486,17.0043529 61.2538134,17.1949215 61.5385478,18.1174567 C62.5448482,21.3788184 64.699369,23.5157809 67.8371519,24.3645044 C68.5325482,24.5526125 69.1488764,24.6140105 70.7618872,24.6555017 L72.8055784,24.7081764 L72.7749354,22.7667033 L72.7442923,20.8252302 L70.7871621,20.7693122 C68.8728652,20.7146244 68.8135921,20.7055657 68.0781585,20.3571965 C66.7978598,19.7507098 65.7916713,18.5758725 65.439276,17.2758908 L65.326098,16.8580714 L69.0351392,16.8285467 L72.7442923,16.7991339 L72.7750472,15.0392824 L72.8059139,13.2793191 L69.0844589,13.2499063 L65.3631157,13.2203816 L65.3995742,12.9407915 C65.4507951,12.547688 65.9334793,11.5108563 66.2715596,11.0674265 C66.7035821,10.501089 67.5814948,9.85445318 68.2985873,9.57452765 C68.8416629,9.36248657 69.2380097,9.31327873 70.8430801,9.25881459 L72.7442923,9.19428521 L72.7442923,7.29307306 L72.7442923,5.3918609 L71.1785882,5.37620386 C70.3174509,5.36770432 69.2857637,5.40796528 68.88595,5.4657845 M81.3127952,15.0097577 L81.3127952,24.6835725 L83.3817614,24.6835725 L85.4507275,24.6835725 L85.4507275,20.4782031 L85.4507275,16.2728336 L87.2680627,16.3134301 C88.8242608,16.3480992 89.1374016,16.3852288 89.4470755,16.5716594 C90.1261437,16.9803082 90.1478399,17.1203269 90.1478399,21.0937484 L90.1478399,24.6835725 L92.2219506,24.6835725 L94.2960612,24.6835725 L94.2629577,20.5735992 C94.2306371,16.5589101 94.223927,16.4506528 93.9729669,15.9044458 C93.4533768,14.7731127 92.0802543,13.7753118 90.8525186,13.6369707 C90.2871876,13.5732242 90.2443544,13.4679865 90.7057898,13.2767469 C91.107281,13.1104468 91.6879336,12.4881912 92.1039636,11.778368 C92.3534697,11.3524965 95.0686243,5.47954033 95.0686243,5.36557943 C95.0686243,5.34667915 94.0582978,5.34488977 92.8235164,5.36155334 L90.5784086,5.3918609 L89.2883802,8.41143315 C88.5787807,10.0721979 87.871418,11.5998778 87.7163014,11.806327 C87.3814644,12.2519935 86.9646516,12.443345 86.0937846,12.5513785 L85.4507275,12.6310058 L85.4507275,8.98347434 L85.4507275,5.33594289 L83.3817614,5.33594289 L81.3127952,5.33594289 L81.3127952,15.0097577 M96.9698365,15.0097577 L96.9698365,24.6835725 L99.0388027,24.6835725 L101.107769,24.6835725 L101.107769,15.0097577 L101.107769,5.33594289 L99.0388027,5.33594289 L96.9698365,5.33594289 L96.9698365,15.0097577" id="Shape"></path>
            </g>
        </g>
    </g>
</svg>