<?xml version="1.0" encoding="UTF-8"?>
<svg width="196px" height="30px" viewBox="0 0 196 30" version="1.1" xmlns="http://www.w3.org/2000/svg" xmlns:xlink="http://www.w3.org/1999/xlink">
    <title>gameking iii</title>
    <g id="Page-1" stroke="none" stroke-width="1" fill="none" fill-rule="evenodd">
        <g id="System" transform="translate(-2.000000, 0.000000)" fill="#000000" fill-rule="nonzero">
            <g id="gameking-iii" transform="translate(2.000000, 0.000000)">
                <line x1="98" y1="30" x2="98" y2="0" id="Path" stroke="#979797"></line>
                <path d="M196,8.875 L174.5625,8.875 L174.5625,11.325 L193.55,11.325 L193.55,13.775 L174.5625,13.775 L174.5625,16.225 L193.55,16.225 L193.55,18.675 L174.5625,18.675 L174.5625,21.125 L196,21.125 L196,8.875 Z M74.1125,18.675 L74.1125,16.225 L93.1,16.225 L93.1,13.775 L74.1125,13.775 L74.1125,11.325 L93.1,11.325 L93.1,8.875 L71.6625,8.875 L71.6625,21.125 L93.1,21.125 L93.1,18.675 L74.1125,18.675 Z M167.2125,16.225 L162.822917,16.225 L162.822917,13.775 L169.6625,13.775 L169.6625,21.125 L148.225,21.125 L148.225,8.875 L169.6625,8.875 L169.6625,11.325 L150.675,11.325 L150.675,18.675 L167.2125,18.675 L167.2125,16.225 Z M18.9875,16.225 L14.5979167,16.225 L14.5979167,13.775 L21.4375,13.775 L21.4375,21.125 L0,21.125 L0,8.875 L21.4375,8.875 L21.4375,11.325 L2.45,11.325 L2.45,18.675 L18.9875,18.675 L18.9875,16.225 Z M112.0875,8.875 L109.6375,8.875 L109.6375,13.775 L98,13.775 L98,8.875 L95.55,8.875 L95.55,21.125 L98,21.125 L98,16.225 L114.5375,16.225 L114.5375,21.125 L116.9875,21.125 L116.9875,13.775 L112.0875,13.775 L112.0875,8.875 Z M45.325,8.875 L45.325,21.125 L42.875,21.125 L42.875,16.225 L26.3375,16.225 L26.3375,21.125 L23.8875,21.125 L23.8875,8.875 L45.325,8.875 Z M42.875,11.325 L26.3375,11.325 L26.3375,13.775 L42.875,13.775 L42.875,11.325 Z M124.3375,8.875 L124.3375,21.125 L126.7875,21.125 L126.7875,11.325 L143.325,11.325 L143.325,21.125 L145.775,21.125 L145.775,8.875 L124.3375,8.875 Z M47.775,8.875 L47.775,21.125 L50.225,21.125 L50.225,11.325 L57.26875,11.325 L57.26875,21.125 L59.71875,21.125 L59.71875,11.325 L66.7625,11.325 L66.7625,21.125 L69.2125,21.125 L69.2125,8.875 L47.775,8.875 Z M121.8875,21.125 L119.4375,21.125 L119.4375,8.875 L121.8875,8.875 L121.8875,21.125 Z" id="Combined-Shape"></path>
            </g>
        </g>
    </g>
</svg>