<?xml version="1.0" encoding="UTF-8"?>
<svg width="182px" height="30px" viewBox="0 0 182 30" version="1.1" xmlns="http://www.w3.org/2000/svg" xmlns:xlink="http://www.w3.org/1999/xlink">
    <title>gmaeking ii</title>
    <g id="Page-1" stroke="none" stroke-width="1" fill="none" fill-rule="evenodd">
        <g id="System" transform="translate(-9.000000, 0.000000)" fill="#000000" fill-rule="nonzero">
            <g id="gmaeking-ii" transform="translate(9.000000, 0.000000)">
                <line x1="91" y1="30" x2="91" y2="0" id="Path" stroke="#979797"></line>
                <path d="M177.097643,8.87205387 L177.097643,21.1279461 L174.646465,21.1279461 L174.646465,8.87205387 L177.097643,8.87205387 Z M182,8.87205387 L182,21.1279461 L179.548822,21.1279461 L179.548822,8.87205387 L182,8.87205387 Z M74.1481481,18.6767677 L74.1481481,16.2255892 L93.1447811,16.2255892 L93.1447811,13.7744108 L74.1481481,13.7744108 L74.1481481,11.3232323 L93.1447811,11.3232323 L93.1447811,8.87205387 L71.6969697,8.87205387 L71.6969697,21.1279461 L93.1447811,21.1279461 L93.1447811,18.6767677 L74.1481481,18.6767677 Z M167.292929,16.2255892 L162.901235,16.2255892 L162.901235,13.7744108 L169.744108,13.7744108 L169.744108,21.1279461 L148.296296,21.1279461 L148.296296,8.87205387 L169.744108,8.87205387 L169.744108,11.3232323 L150.747475,11.3232323 L150.747475,18.6767677 L167.292929,18.6767677 L167.292929,16.2255892 Z M18.996633,16.2255892 L14.6049383,16.2255892 L14.6049383,13.7744108 L21.4478114,13.7744108 L21.4478114,21.1279461 L0,21.1279461 L0,8.87205387 L21.4478114,8.87205387 L21.4478114,11.3232323 L2.45117845,11.3232323 L2.45117845,18.6767677 L18.996633,18.6767677 L18.996633,16.2255892 Z M112.141414,8.87205387 L109.690236,8.87205387 L109.690236,13.7744108 L98.047138,13.7744108 L98.047138,8.87205387 L95.5959596,8.87205387 L95.5959596,21.1279461 L98.047138,21.1279461 L98.047138,16.2255892 L114.592593,16.2255892 L114.592593,21.1279461 L117.043771,21.1279461 L117.043771,13.7744108 L112.141414,13.7744108 L112.141414,8.87205387 Z M45.3468013,8.87205387 L45.3468013,21.1279461 L42.8956229,21.1279461 L42.8956229,16.2255892 L26.3501684,16.2255892 L26.3501684,21.1279461 L23.8989899,21.1279461 L23.8989899,8.87205387 L45.3468013,8.87205387 Z M42.8956229,11.3232323 L26.3501684,11.3232323 L26.3501684,13.7744108 L42.8956229,13.7744108 L42.8956229,11.3232323 Z M124.397306,8.87205387 L124.397306,21.1279461 L126.848485,21.1279461 L126.848485,11.3232323 L143.393939,11.3232323 L143.393939,21.1279461 L145.845118,21.1279461 L145.845118,8.87205387 L124.397306,8.87205387 Z M47.7979798,8.87205387 L47.7979798,21.1279461 L50.2491582,21.1279461 L50.2491582,11.3232323 L57.2962963,11.3232323 L57.2962963,21.1279461 L59.7474747,21.1279461 L59.7474747,11.3232323 L66.7946128,11.3232323 L66.7946128,21.1279461 L69.2457912,21.1279461 L69.2457912,8.87205387 L47.7979798,8.87205387 Z M121.946128,21.1279461 L119.494949,21.1279461 L119.494949,8.87205387 L121.946128,8.87205387 L121.946128,21.1279461 Z" id="Combined-Shape"></path>
            </g>
        </g>
    </g>
</svg>