<?xml version="1.0" encoding="UTF-8"?>
<svg width="126.222077px" height="30px" viewBox="0 0 126.222077 30" version="1.1" xmlns="http://www.w3.org/2000/svg" xmlns:xlink="http://www.w3.org/1999/xlink">
    <title>luxor abc 80</title>
    <g id="Page-1" stroke="none" stroke-width="1" fill="none" fill-rule="evenodd">
        <g id="System" transform="translate(-36.888961, 0.000000)" fill="#000000" fill-rule="nonzero">
            <g id="luxor-abc-80" transform="translate(36.888961, 0.000000)">
                <line x1="63.1110386" y1="30" x2="63.1110386" y2="0" id="Path" stroke="#979797"></line>
                <path d="M71.5969255,3.69029145 L80.2383564,25.7740885 L79.7019743,25.7740885 L78.1483594,21.820006 L68.8569596,21.820006 L67.3323724,25.7740885 L66.7959903,25.7740885 L73.2060717,9.28254797 L72.9523946,8.52025437 L66.2305805,25.7740885 L65.6651706,25.7740885 L72.6684276,7.84251983 L72.4147504,7.13701963 L65.1578163,25.7753506 L64.5924065,25.7753506 L72.1320455,6.45928509 L71.8783683,5.78155055 L64.0850521,25.7740885 L63.54867,25.7740885 L71.5969255,5.04576053 L71.3432483,4.36802599 L62.9832602,25.7740885 L62.4178504,25.7740885 L71.0315156,3.69029145 L71.5969255,3.69029145 Z M76.0015689,3.69029145 L84.6152342,25.7740885 L84.0498244,25.7740885 L75.4651869,3.69029145 L76.0015689,3.69029145 Z M74.899777,3.69029145 L83.5134423,25.7740885 L82.9480325,25.7740885 L74.3066016,3.69029145 L74.899777,3.69029145 Z M73.7702195,3.69029145 L82.4394161,25.7740885 L81.8740062,25.7740885 L73.2325753,3.69029145 L73.7702195,3.69029145 Z M72.6974553,3.69029145 L81.3666519,25.7740885 L80.8012421,25.7740885 L72.1598111,3.69029145 L72.6974553,3.69029145 Z M84.779304,3.69029145 L84.779304,24.9247117 L84.7338693,24.8161732 L84.2706876,23.6272981 L84.2706876,3.69029145 L84.779304,3.69029145 Z M83.7620712,3.69029145 L83.7620712,22.3235741 L83.2534548,21.0198501 L83.2534548,3.69029145 L83.7620712,3.69029145 Z M77.7520677,20.8330629 L69.2519892,20.8330629 L69.0538433,21.3126516 L77.9502135,21.3126516 L77.7520677,20.8330629 Z M77.357038,19.8158301 L69.6760466,19.8158301 L69.4779007,20.3244465 L77.5829495,20.3244465 L77.357038,19.8158301 Z M82.7461004,3.69029145 L82.7461004,19.7173882 L82.237484,18.4136642 L82.237484,3.69029145 L82.7461004,3.69029145 Z M76.9897741,18.7985972 L70.0433105,18.7985972 L69.8741924,19.3072136 L77.1879199,19.3072136 L76.9897741,18.7985972 Z M76.5657167,17.7826264 L70.4383402,17.7826264 L70.269222,18.2912429 L76.7638625,18.2912429 L76.5657167,17.7826264 Z M73.5165423,9.96028252 L70.636486,17.27401 L76.3688329,17.27401 L73.5165423,9.96028252 Z M105.17823,3.43661428 C105.630053,3.43661428 106.081876,3.46437994 106.534961,3.52117333 L106.534961,4.02978976 C106.083138,3.97299636 105.631315,3.9452307 105.179492,3.9452307 C102.214877,3.9452307 99.673057,4.99022921 97.5552943,7.10799189 C96.2477605,8.41552568 95.3503301,9.88499773 94.8543646,11.5154482 C94.7391314,12.3934388 94.4485725,13.2316887 93.9848827,14.0544554 C94.3981147,14.6306284 94.72266,15.2346247 94.9558736,15.8664442 C94.9167713,15.4971257 94.8986254,15.118528 94.8986254,14.73219 C94.8986254,11.8811614 95.8868305,9.48069383 97.8922684,7.47525586 C99.8977064,5.4698179 102.32594,4.45258505 105.17823,4.45258505 C105.630053,4.45258505 106.081876,4.48035071 106.533699,4.53714411 L106.533699,5.04576053 C106.081876,4.98896714 105.630053,4.96120148 105.17823,4.96120148 C102.495058,4.96120148 100.180411,5.92037885 98.2595324,7.84125776 C96.3676812,9.734371 95.4072418,12.0490175 95.4072418,14.73219 C95.4072418,17.4153625 96.3676812,19.731271 98.2595324,21.6508878 C100.180411,23.542739 102.495058,24.5031785 105.17823,24.5031785 C105.488701,24.5031785 105.940524,24.4741507 106.533699,24.3895917 L106.533699,24.8982081 C105.940524,24.9840292 105.488701,25.0117949 105.17823,25.0117949 C102.32594,25.0117949 99.8977064,24.0235898 97.8922684,22.0181518 C96.6968826,20.822766 95.8629218,19.4767118 95.3842382,17.9805237 L95.3907428,18.0601484 L95.3971452,18.3745399 C95.3971452,18.6679059 95.3822806,18.9549634 95.352635,19.235716 C95.8702807,20.3491841 96.6029769,21.3788291 97.5527701,22.3286224 C99.6705328,24.4463851 102.212353,25.4913836 105.176968,25.4913836 C105.628791,25.4913836 106.080614,25.4636179 106.532437,25.4068245 L106.532437,25.9154409 C106.080614,25.9722343 105.628791,26 105.176968,26 C102.043235,26 99.3878279,24.8982081 97.1855062,22.723652 C96.3790738,21.9065667 95.7210104,21.0274362 95.2105567,20.0847426 C94.9136064,21.4227305 94.246405,22.6034822 93.2225891,23.6272981 C91.782561,25.0685883 90.0308002,25.7740885 87.9698309,25.7740885 L86.3038912,25.7740885 L86.3038912,3.69029145 L87.9698309,3.69029145 C89.8894477,3.69029145 91.5276217,4.36802599 92.8830908,5.72349507 C94.0977319,6.9381362 94.7681507,8.37978999 94.8943472,10.0275689 C95.4336409,8.83662759 96.1986158,7.74218244 97.1867682,6.74072792 C99.38909,4.53840618 102.043235,3.43661428 105.17823,3.43661428 Z M87.9698309,4.1976458 L86.8125077,4.1976458 L86.8125077,4.70626222 L87.9698309,4.70626222 C89.6080049,4.70626222 90.9925017,5.29943771 92.1498249,6.45676094 C93.3071482,7.61408417 93.9003236,8.99858099 93.9003236,10.6077272 C93.9003236,11.7372848 93.5330597,12.8958701 92.7707661,14.1099867 C93.8435302,15.3808968 94.3799123,16.7931593 94.3799123,18.3745399 C94.3799123,20.1540663 93.7589712,21.6496258 92.4880612,22.8927701 C91.2461789,24.1359145 89.7493573,24.7568556 87.9698309,24.7568556 L86.8125077,24.7568556 L86.8125077,25.2654721 L87.9698309,25.2654721 C89.8894477,25.2654721 91.5276217,24.5877375 92.8830908,23.2600341 C94.2385599,21.904565 94.9162944,20.2676531 94.9162944,18.3732778 C94.9162944,16.7351038 94.407678,15.2950756 93.3917072,14.080959 C94.0681797,13.0359605 94.407678,11.8786373 94.407678,10.6077272 C94.407678,8.8282008 93.7867368,7.33264133 92.5158268,6.08949697 C91.2739445,4.81858694 89.7493573,4.1976458 87.9698309,4.1976458 Z M87.9698309,5.21361657 L86.8125077,5.21361657 L86.8125077,5.722233 L87.9698309,5.722233 C89.3530656,5.722233 90.5116509,6.20182169 91.4430626,7.16226114 C92.4035021,8.09493493 92.8830908,9.25225816 92.8830908,10.6077272 C92.8830908,11.4268142 92.686207,12.2181356 92.2621496,12.9804292 C91.9807068,13.5168113 91.6702362,13.913103 91.3307379,14.1667801 C92.7139727,15.2685721 93.3917072,16.6518068 93.3917072,18.3745399 C93.3917072,19.8713614 92.8553251,21.1422714 91.8103266,22.1872699 C90.7653281,23.2322684 89.4666524,23.7408849 87.9698309,23.7408849 L86.8112456,23.7408849 L86.8112456,24.2469771 L87.9685688,24.2469771 C89.6067428,24.2469771 90.9912396,23.6815673 92.1485629,22.5242441 C93.3058861,21.3669209 93.8990616,19.982424 93.8990616,18.3732778 C93.8990616,16.7363659 93.2781204,15.3241034 92.0640038,14.1377524 C92.9398842,13.0649882 93.3917072,11.8786373 93.3917072,10.6077272 C93.3917072,9.11090571 92.8553251,7.83999568 91.782561,6.79499717 C90.7375624,5.74999866 89.4666524,5.21361657 87.9698309,5.21361657 Z M105.17823,5.47107866 C105.630053,5.47107866 106.081876,5.49884564 106.533699,5.55563903 L106.533699,6.09202112 C106.166435,6.00619999 105.714612,5.97843433 105.17823,5.97843433 C102.777763,5.97843433 100.716793,6.82528698 98.9940603,8.54802004 C97.2713273,10.2707531 96.4244746,12.3317224 96.4244746,14.73219 C96.4244746,17.1326576 97.2713273,19.1936268 98.9940603,20.9163599 C100.716793,22.639093 102.777763,23.4859456 105.17823,23.4859456 C105.686847,23.4859456 106.13867,23.45818 106.533699,23.3736209 L106.533699,23.8822373 C106.13867,23.9667964 105.686847,23.994562 105.17823,23.994562 C102.608645,23.994562 100.434088,23.090916 98.6267964,21.2836239 C96.8195043,19.4763318 95.9158582,17.3017757 95.9158582,14.73219 C95.9158582,12.1626043 96.8195043,9.98804818 98.6267964,8.18075607 C100.434088,6.37346396 102.608645,5.4698179 105.17823,5.47107866 Z M87.9698309,6.2321115 L86.8125077,6.2321115 L86.8125077,6.74072792 L87.9698309,6.74072792 C89.0425951,6.74072792 89.9462411,7.13575756 90.7085347,7.89805116 C91.4708283,8.66034475 91.8658579,9.56399081 91.8658579,10.6089893 C91.8658579,11.540401 91.5553874,12.3885158 90.9344462,13.094016 C90.4826232,13.6303981 89.9740068,14.0254277 89.3808313,14.2235735 C91.1603577,14.816749 92.3744744,16.4826887 92.3744744,18.3745399 C92.3744744,19.5886565 91.9516791,20.6058893 91.0757987,21.452742 C90.228946,22.2995946 89.1839475,22.723652 87.9698309,22.723652 L86.8112456,22.723652 L86.8112456,23.2335305 L87.9685688,23.2335305 C89.3240379,23.2335305 90.4826232,22.7526797 91.4140349,21.821268 C92.3744744,20.8608286 92.8540631,19.7035053 92.8540631,18.3758019 C92.8540631,16.5394821 92.0640038,15.1272196 90.5103889,14.1958079 C91.7535332,13.3476931 92.3744744,12.1626043 92.3744744,10.6089893 C92.3744744,9.39487269 91.9516791,8.37763984 91.0757987,7.53078719 C90.228946,6.65616887 89.1839475,6.2321115 87.9698309,6.2321115 Z M105.17823,6.48704929 C105.686847,6.48704929 106.13867,6.51607849 106.533699,6.60063754 L106.533699,7.10925397 C106.13867,7.02343284 105.686847,6.99566718 105.17823,6.99566718 C103.060468,6.99566718 101.224148,7.75796078 99.6995605,9.28254797 C98.202739,10.7781074 97.4404454,12.6144273 97.4404454,14.73219 C97.4404454,16.8499527 98.202739,18.6862725 99.6995605,20.2108597 C101.224148,21.7076812 103.060468,22.4699748 105.17823,22.4699748 C105.714612,22.4699748 106.166435,22.4131814 106.533699,22.3286224 L106.533699,22.8372388 C106.166435,22.9217979 105.714612,22.9785913 105.17823,22.9785913 C102.890087,22.9785913 100.942705,22.188532 99.3322966,20.5781237 C97.7218882,18.9677153 96.931829,17.0190708 96.931829,14.73219 C96.931829,12.4453092 97.7231503,10.5244303 99.3322966,8.91528401 C100.941443,7.30487567 102.890087,6.48578867 105.17823,6.48704929 Z M87.9698309,14.4772507 L86.8125077,14.4772507 L86.8125077,14.9858671 L87.9698309,14.9858671 C88.9012426,14.9858671 89.7203296,15.3241034 90.3702985,15.9740723 C91.0190053,16.6240411 91.3585036,17.4418661 91.3585036,18.3745399 C91.3585036,19.3072136 91.0202674,20.0972729 90.3702985,20.7472418 C89.7203296,21.3972107 88.9012426,21.7076812 87.9698309,21.7076812 L86.8125077,21.7076812 L86.8125077,22.2137735 L87.9698309,22.2137735 C89.0148294,22.2137735 89.9184754,21.8465095 90.680769,21.0842159 C91.4430626,20.3219223 91.8380923,19.4170142 91.8380923,18.3732778 C91.8380923,17.3295413 91.4430626,16.3968675 90.680769,15.6345739 C89.9184754,14.8722803 89.0148294,14.4772507 87.9698309,14.4772507 Z M105.17823,7.50175945 C105.686847,7.50175945 106.13867,7.53078719 106.533699,7.61534624 L106.533699,8.12396267 C105.96829,8.03940361 105.517729,8.01163795 105.17823,8.01163795 C103.343173,8.01163795 101.761792,8.66034475 100.434088,9.98804818 C99.1076471,11.3157516 98.4576783,12.8971322 98.4576783,14.73219 C98.4576783,16.5672477 99.1063851,18.1486283 100.434088,19.4763318 C101.761792,20.8027731 103.343173,21.452742 105.17823,21.452742 C105.630053,21.452742 106.081876,21.3972107 106.533699,21.2836239 L106.533699,21.820006 C106.166435,21.904565 105.714612,21.9613584 105.17823,21.9613584 C103.172792,21.9613584 101.479087,21.2558582 100.066825,19.8435957 C98.654562,18.4313332 97.9490618,16.7376279 97.9490618,14.73219 C97.9490618,12.726752 98.654562,11.004019 100.066825,9.62078421 C101.479087,8.20852173 103.172792,7.50302152 105.17823,7.50175945 Z M87.9698309,15.4944836 L86.8125077,15.4944836 L86.8125077,21.1990648 L87.9698309,21.1990648 C89.5512115,21.1990648 90.8498872,19.9559204 90.8498872,18.3745399 C90.8498872,16.7931593 89.5512115,15.4944836 87.9698309,15.4944836 Z M107.447442,8.89256665 C111.454532,8.89256665 113.221437,10.186194 113.221437,11.9530997 C113.221437,12.9640222 112.639621,13.7212675 111.684229,14.2412426 C111.602195,14.2854152 111.607243,14.4040503 111.691802,14.4419126 C112.995526,15.0262536 113.601322,15.9311617 113.600062,16.9976155 C113.600062,19.2832342 110.802039,20.3585225 107.349,20.3585225 C103.895962,20.3585225 101.23172,18.87937 101.23172,16.9976155 C101.23172,16.0182449 101.630536,15.0262536 103.094544,14.39774 C103.219489,14.3447328 103.225799,14.1718284 103.109689,14.1024143 C102.173229,13.5433149 101.610343,12.7911179 101.610343,11.9530997 C101.610343,10.4386091 102.620003,8.89256665 107.447442,8.89256665 Z M107.417152,15.234496 C105.814316,15.234496 104.514379,15.9967896 104.514379,16.9382979 C104.514379,17.8798063 105.814316,18.6420999 107.417152,18.6420999 C109.019988,18.6420999 110.319926,17.8798063 110.319926,16.9382979 C110.319926,15.9967896 109.019988,15.234496 107.417152,15.234496 Z M87.9698309,7.24808227 L86.8125077,7.24808227 L86.8125077,7.7566987 L87.9698309,7.7566987 C89.5512115,7.7566987 90.8498872,9.02760872 90.8498872,10.6089893 C90.8498872,12.1903699 89.5512115,13.4612799 87.9698309,13.4612799 L86.8125077,13.4612799 L86.8125077,13.9698964 L87.9698309,13.9698964 C88.9012426,13.9698964 89.7203296,13.6316601 90.3702985,12.9816913 C91.0190053,12.3317224 91.3585036,11.5416631 91.3585036,10.6089893 C91.3585036,9.67631553 91.0202674,8.88625627 90.3702985,8.23628739 C89.7203296,7.58631851 88.9012426,7.24808227 87.9698309,7.24808227 Z M107.417152,10.5648167 C106.022559,10.5648167 104.893001,11.1857578 104.893001,11.9530997 C104.893001,12.7204416 106.022559,13.3413828 107.417152,13.3413828 C108.811746,13.3413828 109.941303,12.7204416 109.941303,11.9530997 C109.941303,11.1857578 108.811746,10.5648167 107.417152,10.5648167 Z M87.9698309,8.23754946 L86.8125077,8.23754946 L86.8125077,12.9829533 L87.9698309,12.9829533 C89.2975343,12.9829533 90.3425328,11.8811614 90.3425328,10.6102514 C90.3425328,9.33934137 89.2407409,8.23754946 87.9698309,8.23754946 Z M85.7952748,3.69029145 L85.2866584,3.69029145 L85.2866584,25.7740885 L85.7952748,25.7740885 L85.7952748,3.69029145 Z M120.037907,9.05032608 C115.999266,9.05032608 113.853737,11.5934082 113.853737,14.7296658 C113.853737,17.8659234 116.251681,20.4090056 120.037907,20.4090056 C123.950341,20.4090056 126.222077,17.8659234 126.222077,14.7296658 C126.222077,11.5934082 124.076549,9.05032608 120.037907,9.05032608 Z M120.037907,18.5158923 C118.144794,18.5158923 117.135134,16.8209249 117.135134,14.7296658 C117.135134,12.6384067 118.144794,10.9434393 120.037907,10.9434393 C121.93102,10.9434393 122.940681,12.6384067 122.940681,14.7296658 C122.940681,16.8209249 121.93102,18.5158923 120.037907,18.5158923 Z M13.5492814,4.31792413 C13.8955495,4.40552173 14.2469705,4.47663037 14.5911775,4.57041133 C14.892101,4.65285612 14.9219872,4.72602588 14.7766783,4.98572699 C14.3644543,5.72257737 13.9532609,6.45942774 13.5245479,7.18700308 C13.475081,7.27047843 13.3246193,7.33952595 13.2205327,7.33952595 C13.002054,7.33849539 12.7846059,7.27666179 12.5650966,7.26017283 C11.8725603,7.20864484 11.2707133,7.44567363 10.7193637,7.84140865 C9.8258682,8.48241695 9.28173254,9.37900412 8.87260023,10.3580361 C8.42430665,11.4329101 8.0368161,12.5325176 7.59573644,13.6104833 C6.89804734,15.3181212 6.09421057,16.9742311 5.0378866,18.5004904 C4.90700549,18.6890828 4.78849109,18.8848892 4.66070166,19.0755428 C4.56073734,19.2239435 4.60711254,19.3094799 4.77509381,19.3352439 C4.87814981,19.3517329 4.98429748,19.3568857 5.0894146,19.3568857 C6.196236,19.3579163 7.30408797,19.3579163 8.41090937,19.3579163 L11.6685094,19.353794 C11.7633209,19.353794 11.8581325,19.353794 11.952944,19.3620385 C12.0972224,19.3744052 12.1549337,19.4455139 12.1178336,19.5939145 C12.0312665,19.9360604 11.9570662,20.281298 11.8704992,20.6244745 C11.7849627,20.9666204 11.6777845,21.304644 11.6066758,21.6488511 C11.5561784,21.8920632 11.4252973,21.9672941 11.1882685,21.9672941 C9.93304644,21.9642024 8.67885496,21.9672941 7.42363292,21.9765691 C5.09559796,21.9930581 2.767563,22.016761 0.440557567,22.0344325 C-0.021133503,22.0373722 -0.0541114219,21.9971803 0.0468834546,21.553009 C0.164367497,21.0366984 0.289065253,20.5214185 0.420976928,20.0092302 C0.448802047,19.9030825 0.505482845,19.7928126 0.579683163,19.7113983 C1.61539696,18.5777824 2.43675325,17.2988575 3.1870009,15.9714962 C3.95785976,14.6101265 4.63493766,13.2044427 5.21617348,11.7534143 C5.59851122,10.7980852 5.98703233,9.84481723 6.39513408,8.89979374 C6.93411694,7.65075506 7.67715067,6.54599478 8.7551164,5.67414105 C9.49402789,5.07641627 10.3359954,4.66728396 11.2377354,4.40655229 C11.9859219,4.19013439 12.7691475,4.12005631 13.5492814,4.31792413 Z M37.5778175,13.0972645 C37.4015917,13.7918619 37.2202132,14.4864593 37.0491402,15.1820873 C37.0120401,15.3335796 36.9409314,15.4149938 36.7853169,15.4479718 C36.4359571,15.5221721 36.082475,15.5881279 35.7434208,15.6973673 C35.0663429,15.9148154 34.5211766,16.3404367 34.0368135,16.8402583 C33.8193653,17.0649203 33.6297423,17.3153464 33.4318748,17.5585586 C33.2783213,17.7461205 33.297902,17.934713 33.4298136,18.1315499 C33.7049732,18.5406822 34.0718525,18.855003 34.5129322,19.0631761 C34.8705365,19.2311574 35.2559659,19.3465801 35.6383036,19.4537583 C35.824835,19.5063169 35.918616,19.5557838 35.8629657,19.766018 C35.7001372,20.3874457 35.5465838,21.011965 35.3940609,21.6364843 C35.3136773,21.9549274 35.0508845,21.8291991 34.8375586,21.8662992 C34.1099832,21.8075573 33.4349664,21.5571312 32.7980804,21.1964352 C32.2910449,20.9099396 31.8468735,20.5461519 31.4562913,20.117439 C31.2295681,19.8680434 31.0914731,19.8494934 30.8451692,20.0793082 C30.3360726,20.5543964 29.7641118,20.9398258 29.1581426,21.2809412 C28.5841207,21.6035064 27.9699069,21.810649 27.3082874,21.8611464 C26.784763,21.9013383 26.260208,21.9343162 25.7356529,21.965233 C25.6315664,21.9714163 25.5254187,21.9559579 25.4203016,21.9477135 C25.2244952,21.9322551 25.1812117,21.8374435 25.229648,21.6509122 C25.3965987,21.0068122 25.5522133,20.3606511 25.702675,19.7124289 C25.7521419,19.5021947 25.8727174,19.4259332 26.0829516,19.4228415 C26.6878903,19.4125359 27.274279,19.3074188 27.8400564,19.0889401 C28.461484,18.8477891 28.9726418,18.4541152 29.4271187,17.9841798 C29.6002528,17.8048624 29.6476586,17.6152394 29.5157469,17.3648133 C29.1900899,16.7475079 28.6943906,16.3126116 28.082238,16.0065353 C27.7751311,15.8529818 27.4391686,15.7509564 27.1093894,15.6437782 C26.8424743,15.5572111 26.8084659,15.5335082 26.8672078,15.2820516 C26.9640804,14.8667359 27.0712587,14.454512 27.1774063,14.0412574 C27.2464538,13.7691896 27.3206542,13.4991829 27.3917628,13.227115 C27.4360769,13.0581032 27.5370718,12.9942085 27.7174198,13.0158502 C28.5696928,13.1158146 29.3766213,13.3425377 30.0392714,13.906254 C30.531879,14.3246614 31.0028449,14.7688327 31.4696886,15.2171263 C31.7974067,15.5324777 31.8303846,15.5417527 32.1539804,15.2408292 C32.8289972,14.6121876 33.5349308,14.0206462 34.3315536,13.5434969 C34.9643174,13.1642509 35.6661288,12.9818418 36.3895819,12.8787858 C36.7018415,12.8344717 37.0182234,12.8159216 37.3335748,12.805616 C37.5984287,12.7973715 37.6386205,12.8561134 37.5778175,13.0972645 Z M25.1997618,12.9745619 C25.4367906,12.9745619 25.4759518,13.0385226 25.4161794,13.2683374 C25.0029248,14.8461247 24.5937925,16.423912 24.1702324,17.9986077 C23.9599981,18.7797721 23.7373972,19.5578449 23.4931545,20.3297343 C23.4004041,20.6234439 23.2633396,20.9130313 23.0922666,21.1696407 C22.8047404,21.6024759 22.3688135,21.8343519 21.8442585,21.8508408 C20.8023624,21.8848493 19.7594357,21.9003077 18.716509,21.9219495 C18.5691389,21.9250411 18.4217689,21.9219495 18.2743988,21.9219495 C17.3602921,21.9157661 16.4430937,21.9332856 15.5269259,21.9075216 C15.1229464,21.8961855 14.711753,21.8869104 14.3191096,21.7189291 C13.8491743,21.51797 13.4328281,20.925398 13.5297007,20.3204593 C13.6172983,19.7794153 13.7347821,19.241463 13.8697855,18.709694 C14.093417,17.8337181 14.3448736,16.964956 14.5798413,16.0931023 C14.831298,15.1614761 15.0806935,14.2288193 15.3269973,13.295132 C15.3774947,13.105509 15.5021925,13.0096669 15.6897544,13.0076058 C16.5121413,12.9993613 17.3345281,12.9983307 18.156915,12.995239 C18.4021882,12.9942085 18.3970354,13.1590981 18.3589047,13.3198654 C18.2733682,13.6836531 18.1775262,14.0443491 18.0816841,14.4060756 C17.9827503,14.7770772 17.8766026,15.1449871 17.77973,15.5159887 C17.5035399,16.569221 17.2283804,17.6234838 16.9563126,18.6787772 C16.9336403,18.768436 16.9181819,18.8632475 16.920243,18.9549673 C16.9274569,19.2394019 17.0449408,19.370283 17.3283447,19.4228415 C17.4107895,19.4382999 17.4952955,19.4516972 17.5798014,19.4516972 L18.8285824,19.4522125 C19.244671,19.4511819 19.6605019,19.4455139 20.0758176,19.4249027 C20.7209482,19.3929553 20.8209125,19.1682932 20.9363352,18.7364886 C21.2960006,17.3916079 21.6865828,16.0560021 22.0627372,14.7152436 C22.2008323,14.2257276 22.3368662,13.7351811 22.4615639,13.2415429 C22.5038169,13.0735616 22.5883228,12.9900862 22.7645486,12.9890557 C23.5766298,12.9849334 24.3876805,12.9735973 25.1997618,12.9745619 Z M60.6994609,13.9546904 C60.6324745,14.2710723 60.5510602,14.7533743 60.4263625,15.2243402 C60.1986087,16.0879495 59.9502438,16.9453754 59.6998177,17.8028013 C59.549356,18.3170507 59.2340046,18.658166 58.6558605,18.6901134 C58.3508147,18.7066024 58.045769,18.716908 57.7417538,18.7437025 C57.659309,18.7509164 57.5541919,18.7911083 57.5109083,18.8508808 C57.4841138,18.8879809 57.5377029,19.0054648 57.5840781,19.0652372 C58.303409,20.0009857 59.2030878,20.7223777 60.2738396,21.2335354 C60.4614015,21.3231941 60.5665186,21.4324335 60.5180823,21.6416371 C60.3655594,22.30944 60.2202505,22.9782734 60.0522692,23.641954 C59.9986801,23.8542494 59.7966903,23.8109659 59.6585953,23.7429489 C59.18866,23.5090118 58.7042968,23.2905331 58.2724922,22.9988846 C57.7025925,22.6134552 57.1502124,22.1929867 56.6411157,21.7323264 C56.1773637,21.3128885 55.778537,20.8233725 55.3580686,20.3596206 C54.8685526,19.8196071 54.3306003,19.3465801 53.6432168,19.0631761 C53.242329,18.8982865 53.1557619,18.9405395 53.0413698,19.3517329 C52.8517467,20.0319025 52.6621237,20.7120721 52.4673479,21.3912111 C52.3745975,21.7137763 52.2962749,21.7735488 51.9500068,21.7766405 C51.2121258,21.7828239 50.4742449,21.7828239 49.7353334,21.7797322 C49.4550211,21.7787016 49.4241043,21.7436626 49.4910907,21.4633503 C49.6528886,20.7862724 49.8249921,20.1122862 49.9960651,19.4372694 C50.1691992,18.751947 50.3443943,18.0676552 50.5226812,17.3843939 C50.8122686,16.2682975 51.1049476,15.1532316 51.3965961,14.0371352 C51.4759492,13.7351811 51.5614857,13.4352881 51.6367165,13.1323035 C51.6923668,12.9076414 51.8191257,12.8087077 52.0623378,12.8087077 C52.8744191,12.8107688 53.6854698,12.7984021 54.497551,12.789127 C56.0042297,12.7726381 57.5109083,12.7509963 59.017587,12.7385253 C59.2793492,12.7365685 59.5431726,12.7654242 59.8039043,12.7922187 C60.3975068,12.8509606 60.7149193,13.2054733 60.6994609,13.9546904 Z M55.3601297,16.7959442 C55.3601297,16.7969748 55.3601297,16.7980053 55.3601297,16.7990359 C55.6229225,16.7990359 55.8867458,16.8052192 56.1495386,16.7969748 C56.4123314,16.7887303 56.6761548,16.7835775 56.9348253,16.7433856 C57.0564314,16.723805 57.2068932,16.6526964 57.272849,16.5578848 C57.4954499,16.2353196 57.6108727,15.8663791 57.6160255,15.4727052 C57.6201477,15.1377732 57.478961,14.9965865 57.1409373,14.9924643 C56.5834044,14.9873115 56.0248409,14.988342 55.4673079,14.9945254 C55.141651,14.9986476 54.815994,15.0161671 54.4903371,15.0326561 C54.2790723,15.0429617 54.1440689,15.1377732 54.0925409,15.3572825 C54.0100961,15.7107645 53.9091013,16.0590938 53.8091369,16.4084536 C53.7266922,16.6990716 53.7802813,16.7856386 54.0987243,16.7928525 C54.5181622,16.8021276 54.9396612,16.7959442 55.3601297,16.7959442 Z M44.993727,12.8025243 C45.6790494,12.8025243 46.3654023,12.7860354 47.0496941,12.8076771 C47.553638,12.8241661 48.0658263,12.857144 48.5038142,13.1539453 C48.886152,13.4126158 49.1262725,13.7413645 49.1396697,14.2329416 C49.1571893,14.8801332 48.9902386,15.4891942 48.8325629,16.1023773 C48.5646173,17.1483957 48.2966717,18.1944141 47.9947176,19.2311574 C47.8360114,19.7773542 47.6257772,20.3122148 47.4031762,20.8367698 C47.2351949,21.234566 46.8693461,21.4540752 46.4756722,21.5859869 C46.1706265,21.6880123 45.8408473,21.7632432 45.5203432,21.7704571 C43.7817885,21.810649 42.0422033,21.8415658 40.302618,21.8395047 C39.7626046,21.8384741 39.2205301,21.7457237 38.6856695,21.656065 C38.3373402,21.5983536 38.0982503,21.3448359 38.0188972,21.0160872 C37.9477885,20.7203165 37.9034744,20.3946596 37.9508802,20.0978583 C38.0817613,19.2785631 38.2291314,18.4582374 38.4373045,17.6564618 C38.7196779,16.5723127 39.0236931,15.4912553 39.3957253,14.4349313 C39.6791293,13.6310945 40.2850985,13.098295 41.1755023,12.9797806 C41.7587993,12.9014581 42.347249,12.8437467 42.9356988,12.8200438 C43.6199906,12.7932493 44.3063435,12.8138605 44.9916659,12.8138605 C44.993727,12.8107688 44.993727,12.8066466 44.993727,12.8025243 Z M42.9573405,19.4135665 C42.9573405,19.4115054 42.9573405,19.4104748 42.9573405,19.4084137 C43.4313981,19.4084137 43.9064862,19.4197499 44.3795133,19.405322 C44.7896761,19.3929553 45.0163993,19.2342491 45.1070886,18.880767 C45.3750342,17.8450542 45.6326742,16.8062498 45.8810391,15.7664148 C45.972759,15.3830465 45.8047777,15.1717817 45.405951,15.1212842 C45.31217,15.1089175 45.216328,15.1068564 45.1215164,15.1089175 C44.2476016,15.1315898 43.3747173,15.1583844 42.5008025,15.177965 C42.2709876,15.1831178 42.1194953,15.3088462 42.0185004,15.4809497 C41.9195666,15.6499615 41.8463969,15.8395845 41.79693,16.0292076 C41.565054,16.9227031 41.3486364,17.8203208 41.1198521,18.7148468 C40.9910321,19.2177601 41.127066,19.405322 41.6598655,19.4125359 C42.0937313,19.4187193 42.5255359,19.4135665 42.9573405,19.4135665 Z" id="Combined-Shape"></path>
            </g>
        </g>
    </g>
</svg>