<?xml version="1.0" encoding="UTF-8"?>
<svg width="96.1172108px" height="30px" viewBox="0 0 96.1172108 30" version="1.1" xmlns="http://www.w3.org/2000/svg" xmlns:xlink="http://www.w3.org/1999/xlink">
    <title>matra alice</title>
    <g id="Page-1" stroke="none" stroke-width="1" fill="none" fill-rule="evenodd">
        <g id="System" transform="translate(-51.941395, 0.000000)" fill="#000000" fill-rule="nonzero">
            <g id="matra-alice" transform="translate(51.941395, 0.000000)">
                <line x1="48.0586054" y1="30" x2="48.0586054" y2="0" id="Path" stroke="#979797"></line>
                <path d="M14.6753247,18.3376623 C15.5194805,21.5194805 15.8441558,22.2987013 15.8441558,22.7857143 C15.8441558,23.3376623 14.5779221,23.4350649 14.5779221,24.4415584 C14.5779221,25.2207792 15.3896104,25.6753247 16.8181818,25.6753247 L23.5064935,25.6753247 C24.7402597,25.6753247 25.4545455,25.3506494 25.4545455,24.4415584 C25.4545455,23.0779221 24.2857143,23.5 23.9285714,22.2987013 C23.6038961,21.0974026 17.2402597,5.35064935 16.7207792,4.31168831 C15.5844156,2.07142857 15.4220779,1.90909091 12.5324675,1.90909091 C10,1.90909091 9.38311688,2.62337662 8.31168831,4.83116883 C6.85064935,7.85064935 2.33766234,20.4155844 1.75324675,22.2987013 C1.55844156,23.012987 -7.10542736e-15,23.2402597 -7.10542736e-15,24.3766234 C-7.10542736e-15,25.2857143 0.519480519,25.6753247 1.55844156,25.6753247 L5.19480519,25.6753247 C6.55844156,25.6753247 7.11038961,25.2207792 7.11038961,24.3441558 C7.11038961,22.9805195 5.45454545,23.4675325 5.45454545,22.1688312 C5.45454545,21.4545455 5.87662338,20.3506494 6.55844156,18.3376623 L14.6753247,18.3376623 Z M7.5974026,15.0909091 L10.6493506,7.62337662 L13.474026,15.0909091 L7.5974026,15.0909091 Z M30.5965907,21.9090909 C30.5965907,23.6298701 28.9082791,23.1103896 28.9082791,24.4090909 C28.9082791,24.961039 29.4926946,25.6753247 30.5965907,25.6753247 L37.7394479,25.6753247 C38.843344,25.6753247 39.4277596,24.961039 39.4277596,24.4090909 C39.4277596,23.1103896 37.7394479,23.6298701 37.7394479,21.9090909 L37.7394479,3.98701299 C37.7394479,1.64935065 37.0900972,1 36.1160713,1 C35.4667206,1 32.5446427,1.77922078 30.9537336,1.94155844 C29.6874998,2.07142857 28.7134739,2.62337662 28.7134739,3.46753247 C28.7134739,4.96103896 30.5965907,4.24675325 30.5965907,6.06493506 L30.5965907,21.9090909 Z M45.5792168,21.9090909 C45.5792168,23.6298701 44.3454506,23.1103896 44.3454506,24.4090909 C44.3454506,24.961039 44.9298661,25.6753247 46.0337623,25.6753247 L52.2675285,25.6753247 C53.3714246,25.6753247 53.9558402,24.961039 53.9558402,24.4090909 C53.9558402,23.1103896 52.7220739,23.6298701 52.7220739,21.9090909 L52.7220739,13.37925 C52.7220739,11.0415876 52.0727233,10.392237 51.0986973,10.392237 C50.4493467,10.392237 47.5272687,11.1714578 45.9363597,11.3337954 C44.6701259,11.4636655 43.6960999,12.0156136 43.6960999,12.8597694 C43.6960999,14.3532759 45.5792168,13.6389902 45.5792168,15.457172 L45.5792168,21.9090909 Z M48.6960999,9.41967022 C51.2285674,9.41967022 52.7545415,7.92616372 52.7545415,6.3027871 C52.7545415,4.67941048 51.2285674,3.18590398 48.6960999,3.18590398 C46.1636324,3.18590398 44.6376584,4.67941048 44.6376584,6.3027871 C44.6376584,7.92616372 46.1636324,9.41967022 48.6960999,9.41967022 Z M74.7118502,13.5324675 C74.7118502,11.3246753 71.6599021,9.57142857 66.9196424,9.57142857 C61.9845774,9.57142857 57.568993,12.461039 57.568993,17.7857143 C57.568993,23.0779221 62.2443177,26 67.1144476,26 C70.4261359,26 75.0365255,23.987013 75.0365255,21.6168831 C75.0365255,20.9675325 74.517045,20.3506494 73.8676943,20.3506494 C72.6339281,20.3506494 71.4001618,22.6883117 68.8027592,22.6883117 C66.9845774,22.6883117 64.9715904,21.1948052 65.0365255,17.7207792 C65.1014605,14.1818182 66.2053566,12.3636364 67.7962657,12.3636364 C69.58198,12.3636364 69.58198,15.512987 72.2443177,15.512987 C73.4780839,15.512987 74.7118502,14.8961039 74.7118502,13.5324675 Z M77.9678601,18.012987 C77.9678601,23.2727273 82.7730549,26 87.5457822,26 C91.4094186,26 96.1172108,23.6948052 96.1172108,21.4545455 C96.1172108,20.7402597 95.5003277,20.3506494 94.850977,20.3506494 C93.4873406,20.3506494 92.2860419,22.9480519 89.2665614,22.9480519 C87.4483796,22.9480519 86.1496783,21.7142857 85.6951329,20.1558442 C90.9548731,19.2467532 95.889938,18.2077922 95.889938,14.3441558 C95.889938,12.1038961 93.2925355,9.57142857 88.325003,9.57142857 C83.389938,9.57142857 77.9678601,12.4935065 77.9678601,18.012987 Z M89.3314965,14.0519481 C89.3314965,16.1298701 87.3185095,17.2987013 85.4353926,17.3636364 C85.4353926,14.6363636 86.4743536,12.3636364 88.0977303,12.3636364 C89.0068212,12.3636364 89.3314965,13.3051948 89.3314965,14.0519481 Z" id="Combined-Shape"></path>
            </g>
        </g>
    </g>
</svg>