<?xml version="1.0" encoding="UTF-8"?>
<svg width="160px" height="30px" viewBox="0 0 160 30" version="1.1" xmlns="http://www.w3.org/2000/svg" xmlns:xlink="http://www.w3.org/1999/xlink">
    <title>mega 65</title>
    <g id="Page-1" stroke="none" stroke-width="1" fill="none" fill-rule="evenodd">
        <g id="System" transform="translate(-20.000000, 0.000000)" fill-rule="nonzero">
            <g id="mega-65" transform="translate(20.000000, 0.000000)">
                <line x1="81.2155798" y1="30" x2="81.2155798" y2="0" id="Path" stroke="#979797"></line>
                <path d="M55.3773328,6.62714942 C57.2920382,6.31265213 59.2373329,6.24573781 61.1740245,6.20845698 C63.793242,6.19794187 66.4201069,6.19220636 69.0278534,6.4636873 C69.8671502,6.56692653 70.7217416,6.66634209 71.5151542,6.97510387 C72.2196664,7.24945257 72.6890225,7.90521287 72.9576357,8.58678299 C73.4030938,9.71954678 73.5015535,10.9507702 73.5378784,12.1561838 C71.7780319,12.1580957 70.0181853,12.1571398 68.2583388,12.1561838 C68.1904686,11.706902 68.0891412,11.1763671 67.6589777,10.92974 C67.3397008,10.7806167 66.9764517,10.7787048 66.6332768,10.7395122 C64.9135789,10.6152427 63.1881454,10.6420084 61.4655797,10.6410525 C60.3624494,10.6659064 59.2535836,10.6917162 58.165748,10.8867237 C57.7317608,10.9718004 57.2126969,11.0960699 57.0282046,11.5520431 C56.6706909,12.3368525 56.6420134,13.2220333 56.5903938,14.0699333 C56.5684076,15.30976 56.5378182,16.5677492 56.7959163,17.7884575 C56.9020233,18.2119295 57.0387197,18.7185665 57.4746187,18.9145298 C57.8847078,19.0951985 58.3349456,19.1515977 58.7756242,19.2108647 C59.9858174,19.3466052 61.2055698,19.3676354 62.4234104,19.3618999 C63.9184674,19.3628558 65.4173481,19.3695472 66.9095373,19.253881 C67.2651391,19.2118206 67.6886112,19.2108647 67.9371501,18.9059266 C68.2353967,18.5407656 68.2497355,18.0436878 68.2812808,17.594406 C66.1123011,17.59345 63.9442772,17.5953619 61.7762533,17.59345 C61.7762533,16.3115629 61.7752974,15.0287199 61.7762533,13.7458768 C65.7003,13.7468327 69.6233909,13.7458768 73.5474376,13.7468327 C73.5178041,15.8641929 73.5445698,17.9911123 73.2750007,20.0960455 C73.166026,20.9974769 72.812336,21.903688 72.1192949,22.5145201 C71.3316178,23.2314592 70.2514295,23.4905132 69.2180813,23.5803696 C66.5453323,23.8279525 63.8572886,23.7935395 61.1749804,23.7935395 C58.9983532,23.7447876 56.8026077,23.6912562 54.6642173,23.2410184 C53.8669811,23.046011 52.9655496,22.82137 52.4770751,22.0986954 C51.9522757,21.3215334 51.7524886,20.3809093 51.5928502,19.4708746 C51.277397,17.4653569 51.2802647,15.4254262 51.3309284,13.4007901 C51.3930632,11.9554409 51.4934346,10.4928851 51.9083034,9.09915547 C52.1224292,8.41758536 52.4359706,7.68726338 53.090775,7.32401423 C53.7933753,6.93399936 54.5944353,6.77149316 55.3773328,6.62714942 Z M134.447113,6.49618854 C135.246261,6.61281064 136.064528,6.73230049 136.804409,7.07738718 C137.443919,7.37467793 137.755548,8.06963091 137.931437,8.71392019 C138.17902,9.64785287 138.232552,10.6209782 138.22586,11.5835885 L133.327732,11.5835885 C133.300011,11.3149753 133.256994,11.024376 133.055296,10.8274567 C132.741754,10.493841 132.259971,10.4450892 131.830764,10.3972932 C130.399753,10.2663323 128.960139,10.281627 127.524349,10.2806711 C126.660199,10.2959658 125.781709,10.2997895 124.940501,10.5186949 C124.644166,10.5817856 124.415701,10.8102501 124.322977,11.0932021 C124.041937,11.8770555 124.099292,12.7259114 124.075394,13.5451339 C124.864983,13.0222463 125.811343,12.8272388 126.736672,12.7115727 C127.916276,12.5710526 129.107351,12.5337718 130.295558,12.5385514 C131.685464,12.530904 133.081105,12.577744 134.455717,12.7966494 C135.178391,12.9228307 135.913493,13.0824692 136.559694,13.4457183 C137.108391,13.7535242 137.492671,14.2888387 137.725915,14.8633459 C138.068134,15.698819 138.177109,16.6078978 138.219169,17.5026378 C138.248802,18.7539355 138.22586,20.0339108 137.839669,21.2355007 C137.617896,21.915159 137.231705,22.5938614 136.584548,22.9456395 C135.99857,23.2601368 135.338986,23.3977891 134.689917,23.5096316 C133.552373,23.6912562 132.400491,23.7466994 131.250521,23.7705974 C128.67432,23.7801566 126.086647,23.7686856 123.529565,23.4178634 C122.660634,23.2773433 121.76685,23.1358673 120.982997,22.7152631 C120.209659,22.2717167 119.902809,21.3664616 119.681035,20.5548865 C119.172487,18.4681158 119.171531,16.3020037 119.179178,14.1664811 C119.201164,12.7880462 119.265211,11.4048316 119.486984,10.0416914 C119.631328,9.25114656 119.799569,8.43574781 120.235468,7.74748627 C120.619748,7.14334558 121.348158,6.9158369 122.002006,6.73325641 C123.677732,6.31838764 125.415592,6.25816476 127.133379,6.21036882 C129.572883,6.19507412 132.021947,6.19507412 134.447113,6.49618854 Z M125.466256,16.7302554 C125.082933,16.7780513 124.648946,16.8334946 124.386068,17.1508596 C124.045761,17.5619047 124.047673,18.1421474 124.129882,18.642093 C124.194884,19.0407111 124.483572,19.407784 124.893661,19.4842575 C125.753032,19.6725735 126.640124,19.6620584 127.515746,19.6936037 C127.934712,19.6930574 128.354223,19.6964129 128.773836,19.6974719 L129.403273,19.6965634 C130.242475,19.6909895 131.081187,19.6638336 131.91584,19.5655106 C132.310635,19.5091113 132.76374,19.4364615 133.018971,19.0923307 C133.30479,18.6927567 133.301923,18.1641336 133.231185,17.6976452 C133.168094,17.2808646 132.8622,16.8975412 132.434904,16.8210676 C131.574577,16.640399 130.688441,16.6470904 129.813775,16.6174569 C129.572087,16.6174569 129.330292,16.6163683 129.088458,16.6152574 L128.362903,16.6129252 C127.395513,16.6125711 126.428548,16.628928 125.466256,16.7302554 Z M30.7566878,6.43405382 C36.8946425,6.4330979 43.0325972,6.4330979 49.1705519,6.43405382 C49.169596,7.81535651 49.1705519,9.19761511 49.1705519,10.5798737 C44.7847964,10.5808296 40.3999968,10.5789178 36.0142413,10.5808296 C36.0142413,11.3646831 36.0142413,12.1485365 36.0142413,12.9333369 C38.9383969,12.9343018 41.8615967,12.9323899 44.7847964,12.9343018 C44.7847964,14.3079571 44.7847964,15.6816124 44.7847964,17.0562237 C41.8606408,17.0571796 38.937441,17.0552678 36.0142413,17.0571796 C36.0142413,17.8372093 36.0142413,18.6172391 36.0142413,19.3972688 C40.3999968,19.3991807 44.7847964,19.3972688 49.169596,19.3982248 C49.1705519,20.7766597 49.169596,22.1541387 49.1705519,23.5325736 C43.0325972,23.5325736 36.8946425,23.5325736 30.7566878,23.5325736 C30.7566878,17.8324298 30.7566878,12.1332418 30.7566878,6.43405382 Z M91.2032581,6.45795179 C94.0165271,12.1523602 96.844135,17.8391212 99.6621837,23.5316177 C97.6107819,23.5344855 95.5593801,23.5316177 93.5079783,23.5325736 C92.9650164,22.586214 92.4210986,21.6398544 91.8819604,20.690627 C88.413887,20.6858474 84.9458135,20.690627 81.4767841,20.6887152 C80.93669,21.6360307 80.39564,22.5833463 79.8555458,23.5316177 C77.8012763,23.5325736 75.7470068,23.5335296 73.6927372,23.5306618 C76.5126977,17.8400771 79.3383938,12.1514042 82.1535747,6.45795179 C85.1694985,6.45684799 88.1863783,6.45603995 91.2032581,6.45795179 Z M115.140421,20.5701812 L115.140421,23.5316177 C111.398955,23.5335296 107.657489,23.5325736 103.916022,23.5325736 C103.428504,22.5441536 102.939073,21.5586013 102.452511,20.5701812 C106.681495,20.5682694 110.911436,20.5682694 115.140421,20.5701812 Z M115.140421,15.8374272 L115.140421,18.8007755 L101.578801,18.8007755 L100.11051,15.8383831 C105.12048,15.8364713 110.130451,15.8374272 115.140421,15.8374272 Z M86.2774084,10.3303789 C85.3339166,12.307219 84.386601,14.2811914 83.4421532,16.2561196 C85.599662,16.2542078 87.7571707,16.2551637 89.9146795,16.2561196 L88.4978883,13.2931298 L87.083248,10.329423 C86.8136789,10.3284671 86.5450657,10.3284671 86.2774084,10.3303789 Z M115.139465,11.1543809 C115.140421,12.1418451 115.140421,13.1283533 115.139465,14.1158174 C109.846543,14.1177292 104.55362,14.1167733 99.2606977,14.1167733 C98.775091,13.1283533 98.280881,12.1437569 97.7990979,11.153425 C103.579539,11.153425 109.359024,11.1524691 115.139465,11.1543809 Z M115.139465,6.47037873 C115.140421,7.45784287 115.140421,8.44435108 115.140421,9.43181522 C109.077028,9.43468298 103.013635,9.43181522 96.950242,9.43372706 C96.4522083,8.44913068 95.9713811,7.45688695 95.4800388,6.47037873 C102.032862,6.46942282 108.586642,6.4684669 115.139465,6.47037873 Z M140.424474,6.4330979 C146.630299,6.43405382 152.835168,6.4330979 159.040993,6.43405382 C159.040037,7.71211727 159.040993,8.99018073 159.040993,10.2692001 C154.380888,10.2692001 149.720784,10.2692001 145.06068,10.2692001 C145.058768,11.1314389 145.061636,11.9936776 145.059724,12.8559164 C146.052924,12.3215578 147.179952,12.1179471 148.287862,11.9802948 C150.086901,11.7738163 151.903147,11.8063176 153.710789,11.8502898 C155.121725,11.9152923 156.555604,11.9602205 157.923523,12.3473676 C158.493251,12.4926673 158.979814,12.8855499 159.258942,13.4017461 C159.782786,14.3490616 159.903231,15.4541037 159.975881,16.5161295 C160.024633,17.758824 160.020809,19.0168132 159.757932,20.2375215 C159.582043,21.0242427 159.293355,21.8291263 158.705465,22.4065013 C158.176842,22.927477 157.429313,23.1186608 156.728625,23.2830788 C154.889437,23.6644904 153.003409,23.7237574 151.13172,23.7686856 C148.921636,23.7830244 146.705816,23.7667737 144.509115,23.5067638 C143.664083,23.3901417 142.79802,23.26874 142.02277,22.892108 C141.369877,22.5728311 140.879491,21.9677345 140.662497,21.2785171 C140.36903,20.372306 140.433077,19.4049162 140.424474,18.4662039 C142.017034,18.4662039 143.609595,18.465248 145.202156,18.4671598 C145.258555,18.8552629 145.403855,19.3380019 145.844533,19.4326378 C146.765083,19.6209539 147.713355,19.5874967 148.648243,19.6219098 C150.19014,19.6228657 151.737773,19.6601465 153.273934,19.4966844 C153.687847,19.4383734 154.194484,19.3982248 154.43442,18.9996066 C154.790978,18.3897304 154.747005,17.641246 154.698253,16.9625436 C154.644722,16.5400275 154.509937,16.004713 154.048229,15.8661048 C153.278714,15.6892598 152.482434,15.7026426 151.69858,15.6682296 C149.977926,15.6328606 148.256317,15.6319046 146.536619,15.7112459 C146.196311,15.745659 145.826371,15.7227169 145.523345,15.9024297 C145.247084,16.0792746 145.2012,16.4262732 145.176346,16.7245198 C143.592389,16.7187843 142.008431,16.7235639 140.424474,16.7216521 C140.424474,13.2918154 140.424474,9.8629346 140.424474,6.4330979 Z M0,6.49332079 C3.14879657,6.49332079 6.29759314,6.49332079 9.44734563,6.49332079 C11.0781431,9.96712975 12.7012933,13.4447624 14.3349585,16.9166595 C15.977227,13.4476302 17.6003772,9.96904159 19.2302188,6.49332079 C22.2203328,6.49332079 25.2094909,6.49332079 28.199605,6.49332079 C28.199605,12.1810377 28.199605,17.8687547 28.199605,23.5564716 C26.4464499,23.5564716 24.6942507,23.5564716 22.9420515,23.5564716 C22.936316,19.0961544 22.9535225,14.6367932 22.9334483,10.176476 C22.7317494,10.4909733 22.6017444,10.8408395 22.4411501,11.1763671 C20.4604863,15.3030686 18.4817343,19.430726 16.5001146,23.5564716 C15.059545,23.5564716 13.6189753,23.5564716 12.1784057,23.5564716 C10.4233387,20.1591361 8.67209548,16.7589329 6.91894037,13.3606415 C6.3664193,12.2852329 5.80147128,11.2165156 5.27284817,10.12868 C5.26424491,14.6042919 5.27284817,19.0799038 5.2690245,23.5564716 C3.51300164,23.5564716 1.75697878,23.5564716 0,23.5564716 C0,17.8687547 0,12.1810377 0,6.49332079 Z" id="Combined-Shape" fill="#000000"></path>
            </g>
        </g>
    </g>
</svg>