<?xml version="1.0" encoding="UTF-8"?>
<svg width="127.570402px" height="30px" viewBox="0 0 127.570402 30" version="1.1" xmlns="http://www.w3.org/2000/svg" xmlns:xlink="http://www.w3.org/1999/xlink">
    <title>microbee</title>
    <g id="Page-1" stroke="none" stroke-width="1" fill="none" fill-rule="evenodd">
        <g id="System" transform="translate(-36.214799, 0.000000)" fill="#000000" fill-rule="nonzero">
            <g id="microbee" transform="translate(36.214799, 0.000000)">
                <line x1="63.7852008" y1="30" x2="63.7852008" y2="0" id="Path" stroke="#979797"></line>
                <path d="M5.29580078,11.8055664 L5.29580078,13.5152344 C6.00932075,12.736849 6.66955838,12.1924425 7.27651367,11.882015 C7.88346897,11.5715875 8.54833984,11.4163737 9.2711263,11.4163737 C10.1051107,11.4163737 10.8047309,11.6109701 11.369987,12.0001628 C11.9352431,12.3893555 12.3707682,12.982411 12.6765625,13.7793294 C13.4178819,12.9453451 14.1290853,12.343023 14.8101725,11.9723633 C15.4912598,11.6017036 16.2024631,11.4163737 16.9437826,11.4163737 C17.8426324,11.4163737 18.558469,11.6225532 19.0912923,12.0349121 C19.6241157,12.4472711 19.9947754,12.9708279 20.2032715,13.6055827 C20.4117676,14.2403375 20.5160156,15.2527018 20.5160156,16.6426758 L20.5160156,21.966276 C20.5160156,22.9670573 20.6063639,23.5879123 20.7870605,23.8288411 C20.9677572,24.06977 21.3453668,24.2273003 21.9198893,24.3014323 L21.9198893,24.8018229 L15.2063151,24.8018229 L15.2063151,24.3014323 C15.7345052,24.2550998 16.1236979,24.051237 16.3738932,23.6898437 C16.5368993,23.4453347 16.6202546,22.891073 16.6239593,22.0270587 L16.6238829,16.2468005 C16.620456,15.1642246 16.574192,14.4714652 16.4850911,14.1685221 C16.3924262,13.8534614 16.2464789,13.6194824 16.0472493,13.4665853 C15.8480197,13.3136882 15.6140408,13.2372396 15.3453125,13.2372396 C14.9468533,13.2372396 14.5437609,13.3831868 14.1360352,13.6750814 C13.7283095,13.9669759 13.3159505,14.4048177 12.8989583,14.9886068 L12.8989583,21.966276 C12.8989583,22.9021918 12.9777235,23.4906141 13.1352539,23.731543 C13.3483832,24.0744032 13.7561089,24.2643663 14.358431,24.3014323 L14.358431,24.8018229 L7.63095703,24.8018229 L7.63095703,24.3014323 C7.99235026,24.2828993 8.27729492,24.192551 8.48579102,24.0303874 C8.69428711,23.8682237 8.83328451,23.6736274 8.9027832,23.4465983 C8.97040356,23.2257051 9.00512752,22.7526063 9.0069551,22.0273019 L9.00684058,16.2496316 C9.00353566,15.1477705 8.95726675,14.4540674 8.86803385,14.1685221 C8.77536892,13.8719944 8.62015516,13.640332 8.40239258,13.4735352 C8.18462999,13.3067383 7.95065104,13.2233398 7.70045573,13.2233398 C7.32979601,13.2233398 6.99156901,13.320638 6.68577474,13.5152344 C6.25024957,13.8024957 5.78692491,14.2936198 5.29580078,14.9886068 L5.29580078,21.966276 C5.29580078,22.8836589 5.38614909,23.4882975 5.5668457,23.7801921 C5.74754232,24.0720866 6.12515191,24.2458333 6.69967448,24.3014323 L6.69967448,24.8018229 L0,24.8018229 L0,24.3014323 C0.54672309,24.2458333 0.935915799,24.06977 1.16757812,23.7732422 C1.3219579,23.5734566 1.40069158,22.9909908 1.40377918,22.0258448 L1.4038737,14.6272135 C1.4038737,13.6449653 1.31352539,13.0333767 1.13282878,12.7924479 C0.952132161,12.5515191 0.574522569,12.3939887 0,12.3198568 L0,11.8055664 L5.29580078,11.8055664 Z M25.7390307,5.50898437 C26.3413528,5.50898437 26.8510099,5.71979709 27.2680021,6.14142253 C27.6849943,6.56304796 27.8934904,7.07038845 27.8934904,7.66344401 C27.8934904,8.25649957 27.6826777,8.76152344 27.2610522,9.17851562 C26.8394268,9.59550781 26.3320863,9.80400391 25.7390307,9.80400391 C25.1459752,9.80400391 24.6409513,9.59550781 24.2239591,9.17851562 C23.8069669,8.76152344 23.5984708,8.25649957 23.5984708,7.66344401 C23.5984708,7.07038845 23.8069669,6.56304796 24.2239591,6.14142253 C24.6409513,5.71979709 25.1459752,5.50898437 25.7390307,5.50898437 Z M27.6849943,11.8055664 L27.6849943,22.1052734 L27.6856258,22.225628 C27.6946772,23.0741002 27.8010314,23.6200876 28.0046883,23.8635905 C28.2178176,24.1184191 28.6348098,24.2643663 29.2556649,24.3014323 L29.2556649,24.8018229 L22.2362964,24.8018229 L22.2362964,24.3014323 C22.8108189,24.2828993 23.2370776,24.1161024 23.5150724,23.8010417 C23.7004023,23.5879123 23.7930672,23.0226562 23.7930672,22.1052734 L23.7930672,14.5160156 C23.7930672,13.5986328 23.6865025,13.0125271 23.4733732,12.7576986 C23.2602438,12.50287 22.8478849,12.3569227 22.2362964,12.3198568 L22.2362964,11.8055664 L27.6849943,11.8055664 Z M35.5380224,11.4163737 C36.8816639,11.4163737 37.9496272,11.7546007 38.7419124,12.4310547 C39.5341976,13.1075087 39.9303401,13.8627279 39.9303401,14.6967122 C39.9303401,15.2249023 39.7704931,15.6465278 39.4507991,15.9615885 C39.1311051,16.2766493 38.7117963,16.4341797 38.1928727,16.4341797 C37.6461496,16.4341797 37.1944081,16.2534831 36.8376481,15.8920898 C36.4808881,15.5306966 36.2608089,14.8866753 36.1774104,13.960026 C36.1218115,13.376237 35.9874473,12.9685113 35.774318,12.736849 C35.5611887,12.5051866 35.3109933,12.3893555 35.0237321,12.3893555 C34.5789404,12.3893555 34.1990142,12.625651 33.8839534,13.0982422 C33.4020958,13.8117622 33.161167,14.9052083 33.161167,16.3785807 C33.161167,17.6017578 33.3557633,18.7716526 33.744956,19.888265 C34.1341487,21.0048774 34.6669721,21.8365451 35.3434261,22.3832682 C35.8530832,22.7817274 36.4554052,22.980957 37.1503922,22.980957 C37.6044504,22.980957 38.0353423,22.8743924 38.443068,22.661263 C38.8507937,22.4481337 39.3326513,22.0450412 39.8886409,21.4519857 L40.3195328,21.7855794 C39.7079443,22.9346246 38.9457752,23.7894586 38.0330257,24.3500814 C37.1202761,24.9107042 36.149611,25.1910156 35.1210302,25.1910156 C33.388196,25.1910156 32.0028553,24.5377279 30.9650081,23.2311523 C29.9271609,21.9245768 29.4082373,20.3539062 29.4082373,18.5191406 C29.4082373,16.7492405 29.8808284,15.1924696 30.8260107,13.8488281 C31.9657893,12.2271918 33.5364599,11.4163737 35.5380224,11.4163737 Z M55.3602245,11.4163737 C56.4907367,11.4163737 57.5424836,11.7082682 58.5154654,12.2920573 C59.4884472,12.8758464 60.22745,13.7051975 60.7324739,14.7801107 C61.2374977,15.8550239 61.4900097,17.0318685 61.4900097,18.3106445 C61.4900097,20.1546766 61.0220518,21.6975477 60.086136,22.9392578 C58.9556238,24.4404297 57.3942198,25.1910156 55.4019237,25.1910156 C53.4466937,25.1910156 51.9408886,24.5052951 50.8845084,23.1338542 C49.8281282,21.7624132 49.2999381,20.1732096 49.2999381,18.3662435 C49.2999381,17.2248553 49.5026387,16.1730731 49.90804,15.2108967 L49.9159529,15.2110026 C49.4248288,15.2110026 48.9985701,15.0534722 48.6371769,14.7384115 L48.4150414,14.546245 C48.1870914,14.3509255 48.0480073,14.2389176 47.9977888,14.2102214 C47.9051239,14.1546224 47.7985592,14.1268229 47.6780948,14.1268229 C47.4093665,14.1268229 47.154538,14.2287543 46.9136092,14.4326172 C46.5336829,14.747678 46.2464217,15.1971029 46.0518253,15.7808919 C45.7552975,16.6797418 45.6070336,17.6712565 45.6070336,18.7554362 L45.6070336,21.7438802 L45.6209334,22.5222656 L45.6219064,22.6750238 C45.6277442,23.1162015 45.6598526,23.4035091 45.7182315,23.5369466 C45.8294295,23.7871419 45.9939097,23.9701552 46.2116723,24.0859863 C46.4294349,24.2018175 46.797778,24.2736328 47.3167016,24.3014323 L47.3167016,24.8018229 L40.2973331,24.8018229 L40.2973331,24.3014323 C40.8625892,24.2550998 41.244832,24.0998861 41.4440616,23.835791 C41.6396018,23.5765866 41.7391824,22.9000699 41.7428035,21.8062408 L41.742906,14.5577148 C41.742906,13.8163954 41.7058401,13.3438043 41.6317081,13.1399414 C41.5390432,12.8804796 41.404679,12.6905165 41.2286157,12.5700521 C41.0525523,12.4495877 40.7421248,12.3661892 40.2973331,12.3198568 L40.2973331,11.8055664 L45.6070336,11.8055664 L45.6070336,14.7523112 L45.7006237,14.6075242 C46.5236016,13.3444016 47.2476241,12.500764 47.8726912,12.0766113 C48.5213457,11.6364529 49.146834,11.4163737 49.749156,11.4163737 C50.2680796,11.4163737 50.6827552,11.5762207 50.9931827,11.8959147 C51.240334,12.1504437 51.3890988,12.4886746 51.4394771,12.9106075 C52.4581704,11.9144419 53.7651075,11.4163737 55.3602245,11.4163737 Z M66.2080769,5.95377604 L66.2080769,13.1121419 C67.3015231,11.9816298 68.4969007,11.4163737 69.7942097,11.4163737 C70.683793,11.4163737 71.5224107,11.6781521 72.3100626,12.201709 C73.0977145,12.7252658 73.7139363,13.4689019 74.1587279,14.4326172 C74.6035196,15.3963325 74.8259154,16.5083116 74.8259154,17.7685547 C74.8259154,19.1863281 74.5432874,20.4743707 73.9780313,21.6326823 C73.4127752,22.7909939 72.6575561,23.6736274 71.7123738,24.2805827 C70.7671915,24.887538 69.687645,25.1910156 68.4737344,25.1910156 C67.769481,25.1910156 67.1439927,25.0798177 66.5972696,24.8574219 C66.0505465,24.635026 65.5130899,24.2736328 64.9848998,23.7732422 L62.8304402,25.1771159 L62.357849,25.1771159 L62.357849,8.65032552 C62.357849,7.91850423 62.3270177,7.4597607 62.2653549,7.27409493 L62.2605508,7.26035156 C62.1678859,7.00088976 62.0219386,6.80861003 61.822709,6.68351237 C61.6234794,6.55841471 61.2875691,6.48659939 60.8149779,6.46806641 L60.8149779,5.95377604 L66.2080769,5.95377604 Z M55.4158235,12.4032552 C54.9432323,12.4032552 54.5378233,12.5816352 54.1995963,12.9383952 C53.8685656,13.2875645 53.6484895,13.9695977 53.5393681,14.9844947 L53.5201176,15.1767823 C53.421747,16.2181833 53.3725618,17.638097 53.3725618,19.4365234 C53.3725618,20.4280382 53.4374272,21.3546875 53.5671581,22.2164714 C53.6690895,22.8743924 53.8868521,23.374783 54.2204459,23.7176432 C54.5540396,24.0605035 54.9339658,24.2319336 55.3602245,24.2319336 C55.7772167,24.2319336 56.1247102,24.1161024 56.402705,23.8844401 C56.7640982,23.5693793 57.005027,23.1292209 57.1254915,22.5639648 L57.1447683,22.4673958 C57.3151435,21.5680432 57.40137,19.8524479 57.4034478,17.3206098 L57.4031611,17.0624659 C57.3972002,15.5758483 57.3092769,14.5486516 57.1393912,13.9808757 C56.9633278,13.3924533 56.703866,12.963878 56.3610058,12.6951497 C56.120077,12.5005534 55.8050162,12.4032552 55.4158235,12.4032552 Z M68.5015339,13.000944 C67.7046155,13.000944 66.9401298,13.4503689 66.2080769,14.3492187 L66.2082003,20.2654085 C66.2102564,21.3654619 66.2380148,22.0714151 66.2914753,22.3832682 C66.3841403,22.9299913 66.6065361,23.3724664 66.9586628,23.7106934 C67.3107896,24.0489204 67.7602145,24.2180339 68.3069376,24.2180339 C68.7795287,24.2180339 69.1849378,24.0836697 69.5231648,23.8149414 C69.8613918,23.5462131 70.1440198,23.0133898 70.3710489,22.2164714 L70.391683,22.1410936 C70.604956,21.3305595 70.7115925,19.919379 70.7115925,17.9075521 L70.7109033,17.7281574 C70.6961994,15.8329936 70.4462338,14.5259841 69.9610066,13.8071289 C69.5996133,13.2696723 69.1131225,13.000944 68.5015339,13.000944 Z M86.0793667,17.8380534 L78.9488003,17.8380534 C79.0321988,19.5616211 79.4908902,20.9237956 80.3248746,21.9245768 C80.9642626,22.6936957 81.7333815,23.0782552 82.6322313,23.0782552 C83.1882209,23.0782552 83.6932448,22.9230414 84.1473029,22.6126139 C84.6013611,22.3021864 85.087852,21.7438802 85.6067756,20.9376953 L86.0793667,21.2434896 C85.3751133,22.679796 84.5967279,23.6967936 83.7442105,24.2944824 C82.8916931,24.8921712 81.9048116,25.1910156 80.783566,25.1910156 C78.8561354,25.1910156 77.3966627,24.4496962 76.405148,22.9670573 C75.6082296,21.7716797 75.2097704,20.2890408 75.2097704,18.5191406 C75.2097704,16.3507812 75.7958761,14.6248969 76.9680874,13.3414876 C78.1402988,12.0580783 79.5140564,11.4163737 81.0893602,11.4163737 C82.4052022,11.4163737 83.5472975,11.9561469 84.515646,13.0356934 C85.4839946,14.1152398 86.0052348,15.7160265 86.0793667,17.8380534 Z M78.8793016,16.9067708 L82.6600308,16.9067708 L82.6593071,16.6668177 C82.6509443,15.3045544 82.5701037,14.3605913 82.4167854,13.8349284 C82.2546217,13.2789388 82.0021098,12.8573134 81.6592496,12.5700521 C81.4646532,12.4032552 81.2051914,12.3198568 80.8808641,12.3198568 C80.4127739,12.3198568 80.0277567,12.5428426 79.7258128,12.9888144 L79.6993863,13.0287435 C79.1526632,13.8534614 78.8793016,14.9839735 78.8793016,16.4202799 L78.8793016,16.9067708 Z M97.8268285,17.8380534 L90.6962621,17.8380534 C90.7796605,19.5616211 91.2383519,20.9237956 92.0723363,21.9245768 C92.7117243,22.6936957 93.4808432,23.0782552 94.3796931,23.0782552 C94.9356826,23.0782552 95.4407065,22.9230414 95.8947647,22.6126139 C96.3488228,22.3021864 96.8353137,21.7438802 97.3542373,20.9376953 L97.8268285,21.2434896 C97.122575,22.679796 96.3441896,23.6967936 95.4916722,24.2944824 C94.6391549,24.8921712 93.6522734,25.1910156 92.5310277,25.1910156 C90.6035971,25.1910156 89.1441245,24.4496962 88.1526097,22.9670573 C87.3556913,21.7716797 86.9572321,20.2890408 86.9572321,18.5191406 C86.9572321,16.3507812 87.5433378,14.6248969 88.7155492,13.3414876 C89.8877605,12.0580783 91.2615181,11.4163737 92.836822,11.4163737 C94.152664,11.4163737 95.2947592,11.9561469 96.2631078,13.0356934 C97.2314563,14.1152398 97.7526965,15.7160265 97.8268285,17.8380534 Z M90.6267634,16.9067708 L94.4074925,16.9067708 L94.4071709,16.7458739 C94.4014885,15.3410153 94.3205139,14.3707002 94.1642471,13.8349284 C94.0020835,13.2789388 93.7495715,12.8573134 93.4067113,12.5700521 C93.2121149,12.4032552 92.9526531,12.3198568 92.6283259,12.3198568 C92.1602356,12.3198568 91.7752185,12.5428426 91.4732745,12.9888144 L91.446848,13.0287435 C90.9001249,13.8534614 90.6267634,14.9839735 90.6267634,16.4202799 L90.6267634,16.9067708 Z M117.905065,1.00001944 C118.434312,0.998872533 118.96181,1.04847128 119.481721,1.1488358 C119.992297,1.24744978 120.490618,1.40091413 120.968517,1.60689481 C121.445248,1.813459 121.895721,2.0760406 122.310017,2.38997148 C122.730731,2.70973752 123.108848,3.08201987 123.43445,3.49864934 C123.889008,4.07749588 124.240867,4.73044879 124.474273,5.42891584 C124.587475,5.76852137 124.672084,6.11687962 124.726935,6.47107302 C124.781785,6.82234885 124.80921,7.17770928 124.808627,7.53365322 C124.808627,7.88201147 124.783535,8.2292027 124.73452,8.57405986 C124.684922,8.92241811 124.613149,9.26727528 124.519203,9.60629729 C124.423507,9.95115446 124.307971,10.289593 124.172596,10.6210293 C124.034303,10.9588843 123.877921,11.2891536 123.70345,11.6106702 C123.524894,11.9391889 123.33,12.2583714 123.119352,12.5670507 C122.902868,12.8833156 122.671796,13.1890773 122.426136,13.4831687 L122.327872,13.5994632 C122.85502,13.8500827 123.364253,14.137522 123.851079,14.4593887 C124.12358,14.6408618 124.387329,14.8340051 124.642325,15.0394023 C124.890902,15.2395478 125.12956,15.4513637 125.35713,15.6754333 C125.580033,15.8942513 125.790682,16.1253231 125.988493,16.3674817 C126.183387,16.6055557 126.364277,16.8547164 126.529411,17.1143804 C126.692795,17.3711269 126.839841,17.6377931 126.969381,17.913212 C127.097755,18.1880474 127.206872,18.471052 127.296733,18.7604753 C127.477623,19.3457405 127.569818,19.9555133 127.570402,20.5682037 C127.569818,21.1808941 127.477623,21.7906669 127.296733,22.3759321 C127.206872,22.6653554 127.097755,22.94836 126.969381,23.2231954 C126.839841,23.4986143 126.692795,23.7652805 126.529411,24.022027 C126.364277,24.281691 126.183387,24.5308518 125.988493,24.7689258 C125.790682,25.0110843 125.580033,25.2421561 125.35713,25.4609741 C125.12956,25.6850438 124.890902,25.8968596 124.642325,26.0970051 C124.387329,26.3024023 124.12358,26.4955456 123.851079,26.6770187 C123.284486,27.0516351 122.687551,27.3795703 122.067275,27.6567398 C121.414322,27.9490807 120.740946,28.1924063 120.052399,28.3855496 C119.328257,28.5886127 118.591278,28.7409101 117.84613,28.8418581 C117.065971,28.9474742 116.279393,29.0005741 115.491648,28.9999953 C114.4421,28.9649797 113.657272,28.9122689 113.137166,28.8418581 C112.392018,28.7409101 111.655039,28.5886127 110.930897,28.3855496 C110.24235,28.1924063 109.568974,27.9490807 108.916021,27.6567398 C108.295745,27.3795703 107.69881,27.0516351 107.132217,26.6770187 C106.859716,26.4955456 106.595967,26.3024023 106.340971,26.0970051 C106.154597,25.9469252 105.973765,25.7902515 105.799003,25.626809 L109.366786,17.502301 C109.206787,17.4057877 109.051864,17.3008717 108.902659,17.1879616 C108.809958,17.3716131 108.741473,17.5098867 108.697203,17.6027822 C108.581667,17.8437738 108.467882,18.0847653 108.355264,18.3269239 C108.062923,18.9588703 107.774083,19.5925672 107.490495,20.2285982 C107.16431,20.9568245 106.841627,21.6873848 106.522444,22.4191122 C106.070804,23.4525167 105.627333,24.4894222 105.193198,25.5304124 C104.340099,25.3057592 103.533099,24.9323099 102.810124,24.4264027 C102.612896,24.2881097 102.423254,24.1381464 102.242948,23.9770964 C102.062642,23.8166298 101.892839,23.6439095 101.734706,23.4606859 C101.574823,23.2757117 101.429528,23.0784838 101.299988,22.8713361 C101.16753,22.6595203 101.053745,22.4372012 100.959799,22.2061294 C100.763738,21.7235627 100.66279,21.2071523 100.66279,20.6860737 C100.663373,20.3517198 100.703636,20.0185329 100.781243,19.6935152 C100.84295,19.4361853 100.924679,19.1841069 101.025444,18.9394958 L101.132519,18.6974557 C101.381096,18.1722925 101.712533,17.6908929 102.114574,17.2719294 C102.514865,16.8547164 102.972341,16.4976054 103.47358,16.2110997 C103.768663,16.0419388 104.076059,15.8958851 104.392966,15.7740473 C104.22468,15.719722 104.058203,15.6597951 103.893711,15.5943247 C102.966506,15.22496 102.120993,14.6776232 101.405021,13.9826573 C100.677961,13.2754375 100.102032,12.4281742 99.7110775,11.4922167 C99.5074309,11.0055655 99.3539666,10.4996582 99.2518515,9.98208074 C99.1456518,9.43999562 99.092552,8.88915778 99.0937002,8.33715291 L99.0943725,8.24645285 C99.0945202,8.22678354 99.0946916,8.20391706 99.0948861,8.17785341 C99.1036388,7.68069891 99.1649078,7.18587848 99.2781097,6.70156131 C99.3878104,6.23183201 99.5476934,5.77494003 99.7542576,5.33905458 C99.9573207,4.9101713 100.204147,4.50346159 100.490653,4.12534409 C100.776575,3.74839361 101.098675,3.40120239 101.452285,3.08785502 C101.808813,2.77217359 102.195099,2.49150304 102.604727,2.24876094 C103.021356,2.00193423 103.459576,1.7936195 103.914717,1.62673431 C104.381529,1.45576451 104.862345,1.32622426 105.351914,1.2404476 C105.857821,1.15175337 106.37073,1.10740626 106.884223,1.10798977 C107.90479,1.10623923 108.917772,1.28946283 109.873569,1.64890787 C110.330461,1.8216282 110.771014,2.03519457 111.189394,2.28785642 C111.491072,2.46956288 111.779561,2.67169236 112.052354,2.89377804 C112.052354,2.89377804 112.071805,2.87432755 112.110706,2.83542658 C112.414017,2.63008777 112.668487,2.49745488 112.989537,2.32111675 C113.508865,2.03577809 114.050367,1.79186896 114.608207,1.59230694 C115.145624,1.3997471 115.698212,1.25153438 116.260137,1.15000283 C116.802805,1.05138885 117.353643,1.00120659 117.905065,1.00001944 Z M121.481776,14.4962085 C121.242068,14.7277471 120.993374,14.9499495 120.736278,15.1625239 C120.566475,15.3036177 120.393638,15.4410354 120.218,15.5746603 L114.840504,27.8202406 C115.055938,27.8286432 115.273063,27.8329612 115.491648,27.8329612 C116.125753,27.8329612 116.747313,27.7969 117.351893,27.7276368 L122.850585,15.2060541 C122.423919,14.9463317 121.96621,14.7088412 121.481776,14.4962085 Z M115.552392,17.9574424 C115.290744,18.0318989 115.026704,18.0970775 114.760504,18.1530365 C114.429068,18.2224748 114.09413,18.2761581 113.758026,18.3129195 C113.431258,18.3490975 113.103323,18.3671864 112.774804,18.3677699 C112.718786,18.3680033 112.662769,18.3675949 112.606752,18.3665445 C112.606713,18.3665445 111.425348,21.0565082 109.062659,26.4364356 C109.792635,26.7919711 110.591292,27.0885132 111.442932,27.3155588 Z M125.431937,17.5695219 L121.44093,26.6577627 C124.427592,25.3610181 126.403372,23.1169958 126.403372,20.5682037 C126.403372,19.4992049 126.055831,18.483831 125.431937,17.5695219 Z M107.905957,16.5711283 C105.469784,16.1480802 103.0828,17.2850585 102.187514,19.1969443 C101.128843,21.4577135 102.569891,23.1873676 104.541529,24.0694084 C104.845616,23.3505988 105.194917,22.5407226 105.553221,21.7218374 L105.82307,21.1072664 C106.679355,19.163896 107.535353,17.2854227 107.905957,16.5711283 Z M122.515822,4.21835632 C120.355126,1.45599792 115.732056,1.49841943 112.158379,4.25651818 C108.110188,7.38077238 106.506631,12.1831564 108.781229,15.404099 C110.779767,18.2341451 115.943872,17.6214547 119.991946,14.2636779 C123.465551,11.3823409 124.784119,7.11819078 122.515822,4.21835632 Z M106.884807,2.2750191 C103.229554,2.2750191 100.323593,4.79901176 100.261915,8.1976929 L100.261388,8.44724927 C100.315934,12.3312352 103.305705,14.9956387 106.884807,14.9956387 C106.990715,14.9956387 107.096097,14.9926628 107.20043,14.9852521 C107.074507,14.7103 106.967141,14.4268286 106.878972,14.1367051 C106.77569,13.7965161 106.699249,13.4487413 106.649067,13.096882 C106.598885,12.7450227 106.573793,12.3902457 106.574377,12.0348853 C106.57496,11.6386789 106.604136,11.2424724 106.661904,10.8503506 C106.720839,10.45181 106.806616,10.0579376 106.917484,9.67106742 C107.031269,9.27544448 107.168395,8.88740723 107.329445,8.50870622 C107.493996,8.12066897 107.680721,7.74196795 107.887868,7.37493723 C108.100851,6.99740325 108.333674,6.63212307 108.585169,6.27968021 C108.844249,5.91673409 109.121418,5.56720881 109.41551,5.2322714 C109.927544,4.65068233 110.400074,4.16689033 110.998585,3.67545428 C111.055458,3.63865396 111.083895,3.6202538 111.083895,3.6202538 C109.941432,2.77946752 108.478444,2.2750191 106.884807,2.2750191 Z" id="Combined-Shape"></path>
            </g>
        </g>
    </g>
</svg>