<?xml version="1.0" encoding="UTF-8"?>
<svg width="101.059143px" height="30px" viewBox="0 0 101.059143 30" version="1.1" xmlns="http://www.w3.org/2000/svg" xmlns:xlink="http://www.w3.org/1999/xlink">
    <title>pippin</title>
    <g id="Page-1" stroke="none" stroke-width="1" fill="none" fill-rule="evenodd">
        <g id="System" transform="translate(-49.470429, 0.000000)" fill="#000000" fill-rule="nonzero">
            <g id="pippin" transform="translate(49.470429, 0.000000)">
                <line x1="50.5295714" y1="30" x2="50.5295714" y2="0" id="Path" stroke="#979797"></line>
                <path d="M77.5744549,25.6630155 C79.1378999,24.8761105 79.4679842,22.8022222 78.2504912,21.4155758 C76.7956764,19.758637 74.2947476,20.4261876 73.6287097,22.6492272 C73.4533128,23.2346636 73.470671,23.5014306 73.7280173,24.175295 C74.0992892,25.1474564 74.4994082,25.5426891 75.4492695,25.8755229 C76.1886101,26.1345893 76.748823,26.0785708 77.5744549,25.6630155 L77.5744549,25.6630155 Z M89.8080787,19.7294177 C89.8423878,16.1584142 89.9199954,14.585854 90.0642771,14.5378138 C90.1781193,14.499909 91.6601982,16.8051183 93.3577876,19.6605014 L96.4443047,24.8521053 L98.7517191,24.8521053 L101.059143,24.8521053 L101.059143,14.7554834 L101.059143,4.65886151 L98.7909997,4.7108492 L96.5228565,4.7628369 L96.473772,10.1786074 C96.4361393,14.3307111 96.3713353,15.5927023 96.1960402,15.5871939 C96.0702832,15.5832501 94.4816665,13.1253161 92.6657818,10.1251348 L89.3641614,4.67025962 L87.3425885,4.67025962 L85.3210064,4.67025962 L85.3210064,14.7611824 L85.3210064,24.8521053 L87.5399355,24.8521053 L89.7588554,24.8521053 L89.8080787,19.7294177 L89.8080787,19.7294177 Z M78.6554427,11.1506688 L78.6554427,4.67025962 L76.2484336,4.67025962 L73.8414245,4.67025962 L73.8414245,11.1506688 L73.8414245,17.6310779 L76.2484336,17.6310779 L78.6554427,17.6310779 L78.6554427,11.1506688 Z M25.5513256,18.6580487 L25.5513256,12.3627941 L23.1443165,12.3627941 L20.7373074,12.3627941 L20.7373074,18.6580487 L20.7373074,24.9533033 L23.1443165,24.9533033 L25.5513256,24.9533033 L25.5513256,18.6580487 Z M-7.10542736e-15,4.75143878 L5.60092597,4.80904962 C10.0372847,4.8546819 11.0008199,4.87759973 11.7780059,5.11672748 L11.896546,5.15525438 L12.0148051,5.19738622 C12.0941417,5.22671872 12.1750639,5.25858339 12.2611174,5.29323802 C14.2556114,6.096444 15.5678665,7.84435847 15.9619772,10.2227797 C16.4963888,13.447809 14.9566529,16.5061622 12.2611174,17.5737615 C11.3444358,17.9368236 10.7843803,18.0027535 8.10051236,18.0635471 L4.9991737,18.1337984 L4.9991737,24.9533033 L-7.10542736e-15,24.9533033 L-7.10542736e-15,4.75143878 Z M7.44395969,8.7392789 L4.90669826,8.73905301 L4.90669826,14.1085349 L7.1377476,14.1085349 C8.723787,14.1085349 9.51877767,14.0309773 9.88757035,13.8402663 C11.4770703,13.0183042 11.6123035,10.1734175 10.1099336,9.16242 C9.53893175,8.77817247 9.26947263,8.73905301 7.19374944,8.73905301 Z M53.104117,4.73821152 L58.705043,4.79582236 C63.1414018,4.84145464 64.104937,4.86437246 64.882123,5.10350022 L65.0006631,5.14202712 L65.1189221,5.18415896 C65.1982587,5.21349146 65.2791809,5.24535613 65.3652345,5.28001076 C67.3597285,6.08321674 68.6719836,7.83113121 69.0660943,10.2095525 C69.6005059,13.4345818 68.0607699,16.4929349 65.3652345,17.5605342 C64.4485528,17.9235964 63.8884973,17.9895262 61.2046294,18.0503198 L58.1032907,18.1205712 L58.1032907,24.9400761 L53.104117,24.9400761 L53.104117,4.73821152 Z M60.5480767,8.72605164 L58.0108153,8.72582575 L58.0108153,14.0953076 L60.2418646,14.0953076 C61.827904,14.0953076 62.6228947,14.0177501 62.9916874,13.827039 C64.5811873,13.0050769 64.7164205,10.1601903 63.2140506,9.14919273 C62.6430488,8.76494521 62.3735897,8.72582575 60.2978665,8.72582575 Z M24.6691198,8.9249704 C25.3904449,8.38793149 25.7673455,7.62700184 25.7673455,6.70771322 C25.7673455,4.88411868 24.1603429,3.60111802 22.4535419,4.06203434 C20.1074487,4.69559062 19.6573195,7.75347721 21.7194319,9.04915911 C22.4640958,9.51705205 23.958367,9.45414024 24.6691198,8.9249704 L24.6691198,8.9249704 Z M32.144885,4.75143878 L37.745811,4.80904962 C42.1821698,4.8546819 43.145705,4.87759973 43.922891,5.11672748 L44.0414311,5.15525438 L44.1596901,5.19738622 C44.2390267,5.22671872 44.3199489,5.25858339 44.4060024,5.29323802 C46.4004965,6.096444 47.7127516,7.84435847 48.1068623,10.2227797 C48.6412738,13.447809 47.1015379,16.5061622 44.4060024,17.5737615 C43.4893208,17.9368236 42.9292653,18.0027535 40.2453974,18.0635471 L37.1440587,18.1337984 L37.1440587,24.9533033 L32.144885,24.9533033 L32.144885,4.75143878 Z M39.5888447,8.7392789 L37.0515833,8.73905301 L37.0515833,14.1085349 L39.2826326,14.1085349 C40.868672,14.1085349 41.6636627,14.0309773 42.0324554,13.8402663 C43.6219553,13.0183042 43.7571885,10.1734175 42.2548186,9.16242 C41.6838168,8.77817247 41.4143577,8.73905301 39.3386345,8.73905301 Z" id="Combined-Shape"></path>
            </g>
        </g>
    </g>
</svg>