<?xml version="1.0" encoding="UTF-8"?>
<svg width="95.8957159px" height="30px" viewBox="0 0 95.8957159 30" version="1.1" xmlns="http://www.w3.org/2000/svg" xmlns:xlink="http://www.w3.org/1999/xlink">
    <title>sinclair zx80</title>
    <g id="Page-1" stroke="none" stroke-width="1" fill="none" fill-rule="evenodd">
        <g id="System" transform="translate(-52.052142, 0.000000)" fill="#000000">
            <g id="sinclair-zx80" transform="translate(52.052142, 0.000000)">
                <line x1="47.947858" y1="30" x2="47.947858" y2="0" id="Path" stroke="#979797" fill-rule="nonzero"></line>
                <path d="M27.2515723,5 L33.6654598,11.9680235 L40.3942138,5 L48.2983648,5 L38.7457113,14.8920486 L48.8533333,25 L40.8130818,25 L33.9140132,18.1011052 L27.2515723,25 L-1.0658141e-14,25 L-1.0658141e-14,20.2085535 L14.6996736,9.52827505 L-1.0658141e-14,9.52830189 L-1.0658141e-14,5 L27.2515723,5 Z M65.9931387,5 C68.3263876,5 71.0155222,6.75527529 71.6141703,9.07828868 C72.2426065,6.75524117 75.0696197,5 77.5225033,5 L89.8579801,5 C92.6367712,5 95.8957159,7.25265535 95.8957159,10.0314465 L95.8957159,19.9685535 C95.8957159,22.7473447 92.6367712,25 89.8579801,25 L77.5225033,25 C75.0696197,25 72.2426065,23.2447588 71.6132206,20.9217791 C71.0155222,23.2447247 68.3263876,25 65.9931387,25 L54.2594151,25 C51.6161798,25 48.516214,22.7473447 48.516214,19.9685535 L48.516214,19.0880503 C48.516214,17.4035652 49.6553601,15.9124195 51.1413688,14.9992097 C49.6553601,14.0875805 48.516214,12.5964348 48.516214,10.9119497 L48.516214,10.0314465 C48.516214,7.25265535 51.6161798,5 54.2594151,5 L65.9931387,5 Z M63.8871738,16.7119497 L56.3652555,16.7119497 C55.0436378,16.7119497 53.732955,17.3351327 53.732955,18.7245283 L53.732955,18.8228931 C53.732955,20.2122887 55.0436378,20.8354717 56.3652555,20.8354717 L63.8871738,20.8354717 C65.2087915,20.8354717 66.5194743,20.2122887 66.5194743,18.8228931 L66.5194743,18.7245283 C66.5194743,17.3351327 65.2087915,16.7119497 63.8871738,16.7119497 Z M23.3248308,9.66789769 L8.45464215,20.4716713 L23.7208057,20.4716713 L28.8337617,15.1768285 L23.3248308,9.66789769 Z M87.6440127,9.66767296 L79.7363398,9.66767296 C78.3469442,9.66767296 76.9690442,10.7940006 76.9690442,12.1833962 L76.9690442,17.8163522 C76.9690442,19.2057478 78.3469442,20.3320755 79.7363398,20.3320755 L87.6440127,20.3320755 C89.0334083,20.3320755 90.4113083,19.2057478 90.4113083,17.8163522 L90.4113083,12.1833962 C90.4113083,10.7940006 89.0334083,9.66767296 87.6440127,9.66767296 Z M71.48518,12.2746775 C71.0901365,13.3340149 70.2644517,14.2519222 69.2630935,14.9046308 L69.1111849,14.9992097 C70.1805741,15.6563907 71.0703301,16.6128729 71.48518,17.7253225 L71.48518,12.2746775 Z M63.8871738,8.66138365 L56.3652555,8.66138365 C55.0436378,8.66138365 53.732955,9.28456667 53.732955,10.6739623 L53.732955,10.772327 C53.732955,12.1617226 55.0436378,12.7849057 56.3652555,12.7849057 L63.8871738,12.7849057 C65.2087915,12.7849057 66.5194743,12.1617226 66.5194743,10.772327 L66.5194743,10.6739623 C66.5194743,9.28456667 65.2087915,8.66138365 63.8871738,8.66138365 Z" id="Combined-Shape"></path>
            </g>
        </g>
    </g>
</svg>