<?xml version="1.0" encoding="UTF-8"?>
<svg width="184.596114px" height="30px" viewBox="0 0 184.596114 30" version="1.1" xmlns="http://www.w3.org/2000/svg" xmlns:xlink="http://www.w3.org/1999/xlink">
    <title>videoton tvc</title>
    <g id="Page-1" stroke="none" stroke-width="1" fill="none" fill-rule="evenodd">
        <g id="System" transform="translate(-7.701943, 0.000000)" fill="#000000" fill-rule="nonzero">
            <g id="videoton-tvc" transform="translate(7.701943, 0.000000)">
                <line x1="92.2980571" y1="30" x2="92.2980571" y2="0" id="Path" stroke="#979797"></line>
                <path d="M141.975658,8.72161627 L136.241227,8.72161627 L136.241227,5.81476203 L151.039758,5.81476203 L151.039758,8.72161627 L145.305327,8.72161627 L145.305327,24.5243329 L141.975658,24.5243329 L141.975658,8.72161627 Z M177.51396,5.33909498 C178.112948,5.33909498 178.738362,5.3963512 179.390203,5.51086364 C180.042043,5.62537608 180.667457,5.80154906 181.266445,6.03938259 C181.865433,6.27721612 182.429187,6.57230586 182.957705,6.92465183 C183.486224,7.2769978 183.935466,7.69981296 184.305429,8.19309732 L181.768538,10.2014693 C181.275253,9.532012 180.632222,9.04313197 179.839444,8.73482924 C179.046665,8.42652652 178.271504,8.27237516 177.51396,8.27237516 C176.545009,8.27237516 175.664144,8.44854815 174.871365,8.80089411 C174.078587,9.15324008 173.395917,9.63771579 172.823355,10.2543212 C172.250792,10.8709267 171.81036,11.5932359 171.502057,12.4212489 C171.193754,13.249262 171.039603,14.1477442 171.039603,15.1166956 C171.039603,16.1384989 171.18935,17.0722157 171.488844,17.917846 C171.788338,18.7634764 172.215558,19.4901899 172.770503,20.0979867 C173.325448,20.7057835 173.990501,21.1770462 174.765662,21.5117749 C175.540823,21.8465036 176.412879,22.0138679 177.381831,22.0138679 C178.386017,22.0138679 179.27569,21.8156733 180.050851,21.4192841 C180.826012,21.0228949 181.451426,20.4987803 181.927094,19.8469402 L184.596114,21.7231825 C183.768101,22.7626031 182.755107,23.5685945 181.55713,24.1411567 C180.359154,24.7137189 178.958579,25 177.355405,25 C175.893169,25 174.54985,24.7577621 173.325448,24.2732864 C172.101045,23.7888107 171.048412,23.1105447 170.167547,22.2384885 C169.286682,21.3664322 168.599607,20.3270116 168.106323,19.1202267 C167.613039,17.9134417 167.366396,16.5789314 167.366396,15.1166956 C167.366396,13.6192252 167.626252,12.2670976 168.145962,11.0603126 C168.665672,9.85352769 169.379173,8.82732006 170.286464,7.98168974 C171.193754,7.13605941 172.264005,6.48421937 173.497216,6.02616961 C174.730427,5.56811986 176.069342,5.33909498 177.51396,5.33909498 Z M155.191415,5.81476203 L160.344475,20.2169035 L160.450178,20.2169035 L165.65609,5.81476203 L169.250019,5.81476203 L161.74505,24.5243329 L158.864622,24.5243329 L151.465356,5.81476203 L155.191415,5.81476203 Z M3.72605861,5.47566706 L8.8791184,19.8778085 L8.98482219,19.8778085 L14.1907339,5.47566706 L17.7846627,5.47566706 L10.2796936,24.185238 L7.39926533,24.185238 L0,5.47566706 L3.72605861,5.47566706 Z M3.14043744,6.30725282 L1.22307786,6.30725282 L7.96455885,23.3535598 L9.71717205,23.3535598 L16.5550246,6.30725282 L14.7744147,6.30725282 L9.76688425,20.1604988 L9.56847617,20.7093943 L8.29344546,20.7093943 L8.09614188,20.1579561 L3.14043744,6.30725282 Z M23.0334588,5.47566706 L23.0334588,24.185238 L19.7037894,24.185238 L19.7037894,5.47566706 L23.0334588,5.47566706 Z M22.2018731,6.30725282 L20.5353752,6.30725282 L20.5353752,23.3535598 L22.2018731,23.3535598 L22.2018731,6.30725282 Z M32.3402087,5.47566706 C33.5558022,5.47566706 34.7802045,5.63422274 36.0134154,5.95133411 C37.2466263,6.26844549 38.3565161,6.79256011 39.3430848,7.523678 C40.3296535,8.25479588 41.1312406,9.21493864 41.747846,10.4041063 C42.3644514,11.5932739 42.6727542,13.0687227 42.6727542,14.8304525 C42.6727542,16.4688613 42.3644514,17.8782451 41.747846,19.0586041 C41.1312406,20.2389631 40.3296535,21.2079145 39.3430848,21.9654584 C38.3565161,22.7230022 37.2466263,23.2823514 36.0134154,23.643506 C34.7802045,24.0046607 33.5558022,24.185238 32.3402087,24.185238 L25.7072958,24.185238 L25.7072958,5.47566706 L32.3402087,5.47566706 Z M32.3402087,6.30725282 L26.5388816,6.30725282 L26.5388816,23.3536522 L32.3402087,23.3536522 C33.4755532,23.3536522 34.6213614,23.1846661 35.7796959,22.8454396 C36.9150229,22.512951 37.9323174,22.0002668 38.8366274,21.3058859 C39.7255247,20.6233398 40.4492066,19.7485595 41.0107709,18.6735649 C41.5616289,17.6190653 41.8411684,16.3411705 41.8411684,14.8304525 C41.8411684,13.1939801 41.5599975,11.8483766 41.009602,10.7868995 C40.4500076,9.70768183 39.7304358,8.8457771 38.8479594,8.19179903 C37.9484587,7.52520477 36.9365107,7.04734044 35.8063164,6.75671905 C34.6399887,6.4568062 33.4851042,6.30725282 32.3402087,6.30725282 Z M31.8116897,7.49808364 C32.7310786,7.49808364 33.6500239,7.59185356 34.5677165,7.77913777 C35.5382861,7.97721321 36.4210075,8.34626054 37.2094005,8.88516208 C38.0220654,9.44065459 38.6804245,10.2061884 39.1821477,11.1694969 C39.6905669,12.1456618 39.936837,13.3671616 39.936837,14.8304525 C39.936837,16.2262938 39.6888387,17.406766 39.1787867,18.3656637 C38.6779325,19.3072696 38.0224215,20.0644102 37.2152711,20.6263503 C36.4322079,21.1715209 35.5557565,21.5577537 34.5914379,21.7840734 C33.6663279,22.0011911 32.7393465,22.1099695 31.8116897,22.1099695 L28.2053794,22.1099695 L28.2053794,7.49808364 L31.8116897,7.49808364 Z M31.8116897,8.3296694 L29.0369652,8.3296694 L29.0369652,21.2783837 L31.8116897,21.2783837 C32.6749373,21.2783837 33.5381849,21.1770843 34.4014326,20.9744853 C35.2646802,20.7718864 36.0442456,20.4283491 36.7401289,19.9438734 C37.4360122,19.4593977 38.0041701,18.8031533 38.4446026,17.9751403 C38.885035,17.1471273 39.1052512,16.098898 39.1052512,14.8304525 C39.1052512,13.4915378 38.885035,12.3992653 38.4446026,11.553635 C38.0041701,10.7080047 37.4360122,10.047356 36.7401289,9.57168894 C36.0442456,9.09602188 35.2646802,8.77010186 34.4014326,8.59392888 C33.5381849,8.41775589 32.6749373,8.3296694 31.8116897,8.3296694 Z M56.9342768,5.47566706 L56.9342768,8.38252129 L47.8701767,8.38252129 L47.8701767,13.1391919 L56.4586097,13.1391919 L56.4586097,15.9403423 L47.8701767,15.9403423 L47.8701767,21.2255318 L57.4099438,21.2255318 L57.4099438,24.185238 L44.5405073,24.185238 L44.5405073,5.47566706 L56.9342768,5.47566706 Z M56.102691,6.30725282 L45.3720931,6.30725282 L45.3720931,23.3535598 L56.5783581,23.3535598 L56.5783581,22.0570252 L47.038591,22.0571176 L47.038591,15.1087565 L55.6269316,15.1086641 L55.6269316,13.9706852 L47.038591,13.9707776 L47.038591,7.55093553 L56.102691,7.55084313 L56.102691,6.30725282 Z M68.9754654,5 C70.4377012,5 71.7854245,5.22902488 73.0186354,5.68707464 C74.2518463,6.1451244 75.3176928,6.79696444 76.216175,7.64259476 C77.1146572,8.48822508 77.8149449,9.51443272 78.3170379,10.7212177 C78.8191309,11.9280026 79.0701774,13.2801303 79.0701774,14.7776006 C79.0701774,16.2398364 78.8191309,17.5743467 78.3170379,18.7811317 C77.8149449,19.9879166 77.1146572,21.0273372 76.216175,21.8993935 C75.3176928,22.7714498 74.2518463,23.4497158 73.0186354,23.9341915 C71.7854245,24.4186672 70.4377012,24.660905 68.9754654,24.660905 C67.5308469,24.660905 66.1963366,24.4186672 64.9719343,23.9341915 C63.7475321,23.4497158 62.6904942,22.7714498 61.8008206,21.8993935 C60.911147,21.0273372 60.2152637,19.9879166 59.7131707,18.7811317 C59.2110777,17.5743467 58.9600312,16.2398364 58.9600312,14.7776006 C58.9600312,13.2801303 59.2110777,11.9280026 59.7131707,10.7212177 C60.2152637,9.51443272 60.911147,8.48822508 61.8008206,7.64259476 C62.6904942,6.79696444 63.7475321,6.1451244 64.9719343,5.68707464 C66.1963366,5.22902488 67.5308469,5 68.9754654,5 Z M102.76984,5 C104.232076,5 105.579799,5.22902488 106.81301,5.68707464 C108.046221,6.1451244 109.112068,6.79696444 110.01055,7.64259476 C110.909032,8.48822508 111.60932,9.51443272 112.111413,10.7212177 C112.613506,11.9280026 112.864552,13.2801303 112.864552,14.7776006 C112.864552,16.2398364 112.613506,17.5743467 112.111413,18.7811317 C111.60932,19.9879166 110.909032,21.0273372 110.01055,21.8993935 C109.112068,22.7714498 108.046221,23.4497158 106.81301,23.9341915 C105.579799,24.4186672 104.232076,24.660905 102.76984,24.660905 C101.325222,24.660905 99.9907115,24.4186672 98.7663093,23.9341915 C97.541907,23.4497158 96.4848691,22.7714498 95.5951956,21.8993935 C94.705522,21.0273372 94.0096387,19.9879166 93.5075457,18.7811317 C93.0054527,17.5743467 92.7544062,16.2398364 92.7544062,14.7776006 C92.7544062,13.2801303 93.0054527,11.9280026 93.5075457,10.7212177 C94.0096387,9.51443272 94.705522,8.48822508 95.5951956,7.64259476 C96.4848691,6.79696444 97.541907,6.1451244 98.7663093,5.68707464 C99.9907115,5.22902488 101.325222,5 102.76984,5 Z M93.3577563,5.47566706 L93.3577563,8.38252129 L87.6233257,8.38252129 L87.6233257,24.185238 L84.2936563,24.185238 L84.2936563,8.38252129 L78.5592257,8.38252129 L78.5592257,5.47566706 L93.3577563,5.47566706 Z M68.9754654,5.83158576 C67.6279339,5.83158576 66.3920271,6.04368858 65.2633094,6.46594269 C64.1419941,6.88542754 63.1809994,7.47804093 62.3737317,8.24534495 C61.5694484,9.00981226 60.9392357,9.93917657 60.4809541,11.0406604 C60.0225458,12.1424487 59.791617,13.3862231 59.791617,14.7776006 C59.791617,16.1331655 60.0222595,17.3592126 60.4809541,18.461689 C60.9407082,19.5667121 61.573939,20.5125505 62.3829312,21.3055231 C63.1922732,22.0988384 64.1551528,22.7166862 65.277898,23.1609379 C66.4024783,23.6059157 67.6332289,23.8293193 68.9754654,23.8293193 C70.3361284,23.8293193 71.580778,23.6056077 72.7145641,23.1601918 C73.8466848,22.71543 74.8187514,22.0968423 75.636996,21.3026636 C76.4535157,20.5101593 77.0900771,19.5653259 77.5492545,18.461689 C78.0079491,17.3592126 78.2385916,16.1331655 78.2385916,14.7776006 C78.2385916,13.3862231 78.0076628,12.1424487 77.5492545,11.0406604 C77.0915503,9.94056416 76.4580289,9.01219634 75.6462355,8.24815551 C74.8300337,7.47996557 73.8598134,6.88660774 72.7290884,6.46662415 C71.591165,6.04396689 70.3413838,5.83158576 68.9754654,5.83158576 Z M69.0018913,7.10169442 C70.0840714,7.10169442 71.0799288,7.30086588 71.9822251,7.70188646 C72.8787165,8.10032711 73.6511789,8.65208598 74.2930183,9.3540978 C74.9299228,10.0507121 75.4216261,10.8652508 75.7666858,11.7919826 C76.110408,12.7151223 76.2814083,13.7118098 76.2814083,14.7776006 C76.2814083,15.8771001 76.1109848,16.8947718 75.7676812,17.8265958 C75.4219172,18.7650983 74.923986,19.5866848 74.2754517,20.2851063 C73.6240733,20.9865907 72.8463212,21.5335261 71.9487048,21.9224932 C71.048851,22.3124298 70.064289,22.5063587 69.0018913,22.5063587 C67.9386236,22.5063587 66.957383,22.312103 66.0651714,21.9211338 C65.1773458,21.5320866 64.4051578,20.985538 63.7547569,20.2851063 C63.1062227,19.5866848 62.6082914,18.7650983 62.2625274,17.8265958 C61.9192238,16.8947718 61.7488003,15.8771001 61.7488003,14.7776006 C61.7488003,13.7118098 61.9198006,12.7151223 62.2635228,11.7919826 C62.6085825,10.8652508 63.1002858,10.0507121 63.7371903,9.3540978 C64.3780449,8.65316305 65.1449332,8.10180549 66.0316105,7.70329881 C66.9262772,7.30120142 67.9188245,7.10169442 69.0018913,7.10169442 Z M69.0018913,7.93328018 C68.0329399,7.93328018 67.1564793,8.10945317 66.3725095,8.46179914 C65.5885398,8.81414511 64.9146781,9.29862081 64.3509246,9.91522626 C63.787171,10.5318317 63.3511429,11.2541409 63.0428401,12.082154 C62.7345374,12.910167 62.5803861,13.8086492 62.5803861,14.7776006 C62.5803861,15.7817866 62.7345374,16.7022905 63.0428401,17.5391121 C63.3511429,18.3759338 63.7915753,19.1026474 64.3641375,19.7192528 C64.9366997,20.3358583 65.6149657,20.8159296 66.3989355,21.159467 C67.1829053,21.5030043 68.0505572,21.6747729 69.0018913,21.6747729 C69.9532254,21.6747729 70.8252817,21.5030043 71.6180601,21.159467 C72.4108386,20.8159296 73.0935089,20.3358583 73.6660711,19.7192528 C74.2386333,19.1026474 74.6790657,18.3759338 74.9873685,17.5391121 C75.2956712,16.7022905 75.4498225,15.7817866 75.4498225,14.7776006 C75.4498225,13.8086492 75.2956712,12.910167 74.9873685,12.082154 C74.6790657,11.2541409 74.2430376,10.5318317 73.6792841,9.91522626 C73.1155305,9.29862081 72.4372645,8.81414511 71.6444861,8.46179914 C70.8517077,8.10945317 69.9708427,7.93328018 69.0018913,7.93328018 Z M102.796266,7.93328018 C101.827315,7.93328018 100.950854,8.10945317 100.166885,8.46179914 C99.3829147,8.81414511 98.7090531,9.29862081 98.1452995,9.91522626 C97.581546,10.5318317 97.1455178,11.2541409 96.8372151,12.082154 C96.5289124,12.910167 96.374761,13.8086492 96.374761,14.7776006 C96.374761,15.7817866 96.5289124,16.7022905 96.8372151,17.5391121 C97.1455178,18.3759338 97.5859503,19.1026474 98.1585125,19.7192528 C98.7310747,20.3358583 99.4093407,20.8159296 100.19331,21.159467 C100.97728,21.5030043 101.844932,21.6747729 102.796266,21.6747729 C103.7476,21.6747729 104.619657,21.5030043 105.412435,21.159467 C106.205214,20.8159296 106.887884,20.3358583 107.460446,19.7192528 C108.033008,19.1026474 108.473441,18.3759338 108.781743,17.5391121 C109.090046,16.7022905 109.244198,15.7817866 109.244198,14.7776006 C109.244198,13.8086492 109.090046,12.910167 108.781743,12.082154 C108.473441,11.2541409 108.037413,10.5318317 107.473659,9.91522626 C106.909905,9.29862081 106.231639,8.81414511 105.438861,8.46179914 C104.646083,8.10945317 103.765218,7.93328018 102.796266,7.93328018 Z M114.639907,5.47566706 L119.05304,5.47566706 L127.747177,19.4814193 L127.800029,19.4814193 L127.800029,5.47566706 L131.129698,5.47566706 L131.129698,24.185238 L126.901547,24.185238 L118.022428,9.73024462 L117.969576,9.73024462 L117.969576,24.185238 L114.639907,24.185238 L114.639907,5.47566706 Z" id="Combined-Shape"></path>
            </g>
        </g>
    </g>
</svg>