<?xml version="1.0" encoding="UTF-8"?>
<svg width="800px" height="400px" viewBox="0 0 800 400" version="1.1" xmlns="http://www.w3.org/2000/svg" xmlns:xlink="http://www.w3.org/1999/xlink">
    <title>aki</title>
    <g id="Page-1" stroke="none" stroke-width="1" fill="none" fill-rule="evenodd">
        <g id="AF159_INCREMENTAL" fill="#000000" transform="translate(-0.000000, 0.000000)">
            <g id="aki" transform="translate(0.000000, 0.000000)">
                <line x1="0" y1="0" x2="800" y2="400" id="Path" fill-rule="nonzero"></line>
                <path d="M475.00121,0 L475.000891,55.814 L606.394026,55.8149825 L524.214891,154.8 L643.255109,280.106475 L580.634891,280.106 L616.85899,327.9068 L475.000891,327.906 L475.00121,400 L321.511391,400 L321.510891,327.906 L214.533135,327.9068 L214.532891,280.106 L156.744891,280.106475 L214.532891,219.276 L214.533135,55.8149825 L321.510891,55.814 L321.511391,0 L475.00121,0 Z M389.407891,260.338 L358.718891,260.338 L358.719535,327.9068 L338.103891,327.906 L338.104885,383.406506 L458.407716,383.406506 L458.406891,327.906 L431.977046,327.9068 L389.407891,260.338 Z M478.488609,126.743873 L321.511391,126.743873 L188.954264,266.278563 L331.976354,266.278563 L348.254572,246.510181 L451.742663,246.510181 L468.02088,266.278563 L611.045736,266.278563 L478.488609,126.743873 Z M400.582155,184.881944 L430.812736,220.928544 L369.184499,220.928544 L400.582155,184.881944 Z M458.407716,16.593494 L338.104885,16.593494 L338.103891,55.814 L358.719535,55.8149825 L358.718891,112.915 L395.653891,112.915 L438.951844,55.8149825 L458.406891,55.814 L458.407716,16.593494 Z" id="Combined-Shape"></path>
            </g>
        </g>
    </g>
</svg>