<?xml version="1.0" encoding="UTF-8"?>
<svg width="800px" height="400px" viewBox="0 0 800 400" version="1.1" xmlns="http://www.w3.org/2000/svg" xmlns:xlink="http://www.w3.org/1999/xlink">
    <title>esp</title>
    <g id="Page-1" stroke="none" stroke-width="1" fill="none" fill-rule="evenodd">
        <g id="AF159_INCREMENTAL" fill="#000000" transform="translate(-0.000000, 0.000000)">
            <g id="esp" transform="translate(0.000000, 0.000000)">
                <line x1="0" y1="0" x2="800" y2="400" id="Path" fill-rule="nonzero"></line>
                <path d="M193.430278,0.266259891 C189.289721,0.690550321 183.186134,1.80264612 178.382084,3.007678 C158.476903,8.00112933 138.700734,19.8012658 128.547958,32.7433003 C124.372108,38.0665374 123.81959,39.2801963 117.476017,57.0556909 C107.342847,85.4502104 70.5923161,192.723928 69.3335617,197.580917 C67.7207091,203.806065 67.8783475,212.210702 69.7292263,218.684464 C71.751076,225.755448 75.1116758,231.489251 80.2819802,236.688966 C86.6694726,243.112927 94.6266828,247.157018 105.053169,249.27847 C108.337303,249.946669 112.817841,249.986275 184.786439,249.986275 L261.039899,249.986275 L270.151163,221.164328 C275.162261,205.312257 279.363991,191.94554 279.48869,191.460076 L279.714952,190.577772 L217.410138,190.577772 L155.105323,190.577772 L161.672806,171.069039 L168.24068,151.560306 L220.34331,151.459135 L272.445547,151.358356 L282.215207,122.637188 C287.588637,106.840801 292.062902,93.6964243 292.15819,93.4278116 C292.295438,93.0392055 281.621906,92.9184278 240.207317,92.8396086 L188.083905,92.7400062 L193.947896,75.3880177 L199.81228,58.0360293 L260.721485,58.0360293 L321.630298,58.0360293 L323.398044,52.4481008 C324.370147,49.374544 328.49698,36.3164374 332.568913,23.4300861 L339.972036,0 L267.387394,0.0627416532 C227.465664,0.0972495625 194.185138,0.18900923 193.430278,0.266259891 M433.809237,67.3186569 C407.311476,68.7719104 380.978412,77.741614 362.220618,91.7024161 C358.056925,94.8014616 351.454935,101.070529 348.326087,104.896202 C340.19869,114.833695 334.805261,127.577309 333.384946,140.20093 C332.609695,147.089963 333.909231,154.03468 337.001219,159.524575 C338.754063,162.636169 344.324346,168.016265 348.136293,170.279278 C354.499473,174.056718 359.931332,175.817406 374.445437,178.806653 C384.864081,180.95281 395.135674,183.428752 399.056635,184.738877 C406.822091,187.33442 411.065387,191.107547 411.065387,195.417114 C411.065387,198.889864 408.076532,204.292705 404.315954,207.61762 C401.92236,209.733975 396.33051,212.558918 392.635027,213.518865 C388.777199,214.521163 380.141987,214.756836 376.947261,213.947077 C370.014308,212.189918 365.85885,208.352482 364.791065,202.721027 C364.421282,200.772506 364.71303,197.303285 365.391817,195.577497 C365.647489,194.927337 363.98758,194.89126 333.834726,194.89126 L302.007846,194.89126 L301.253769,196.595481 C299.300151,201.011709 298.297069,209.796717 298.946445,216.799861 C299.753852,225.509971 302.170974,231.281027 307.285987,236.710533 C314.503238,244.372465 325.165006,248.860454 341.657433,251.179542 C347.770039,252.039103 368.723398,252.390456 378.000536,251.788529 C421.032683,248.997701 449.944037,236.470938 468.592817,212.53735 C472.029883,208.12622 476.094366,201.56658 479.041263,195.675531 C486.086366,181.590422 487.340023,170.974926 483.046533,161.755825 C479.23537,153.571568 471.635003,147.570329 458.652971,142.494137 C453.004261,140.285631 446.683432,138.557883 435.044071,136.041158 C420.209591,132.833883 412.756667,130.395194 407.598519,127.061259 C404.437124,125.017842 403.412866,123.268526 403.439924,119.95812 C403.494823,113.287898 409.396067,107.438807 417.813252,105.712235 C423.78861,104.48642 433.007712,105.240104 437.113369,107.290188 C441.551165,109.506144 443.436551,112.749496 443.119706,117.623346 C443.013829,119.250315 442.797763,120.890617 442.639732,121.267852 C442.36759,121.918012 443.95417,121.954088 472.798861,121.954088 L503.245032,121.954088 L503.992834,120.209871 C506.10762,115.276024 507.530679,108.162689 507.530679,102.525743 C507.530679,93.0960651 504.53006,86.4474105 497.89513,81.1747588 C487.85725,73.1979419 471.883225,68.6883856 449.298582,67.4555121 C442.585618,67.0888655 438.630148,67.0539655 433.809237,67.3186569 M487.33571,236.653673 C450.738895,325.942889 420.704858,399.218473 420.591207,399.48787 C420.328016,400.135286 454.595939,400.184695 460.55718,399.545514 C477.755451,397.701694 492.776979,389.147654 501.428269,376.271498 C504.506139,371.690573 506.613867,367.030437 514.929881,346.42098 C520.973078,331.444155 544.972937,272.784239 551.817659,256.26044 L553.442276,252.339087 L567.052901,252.288501 C587.461977,252.212427 612.514719,251.121506 620.13234,249.977648 C658.849038,244.162281 690.846889,218.971899 716.752133,173.91202 C727.289202,155.583223 731.069386,144.621471 731.706214,130.544597 C732.439507,114.337644 727.35861,99.6459016 717.29328,88.8680619 C709.887804,80.9383012 698.96958,75.2460647 686.545949,72.8387459 C682.264223,72.0085954 681.679549,72.0003606 618.587719,71.8697795 L554.948468,71.7380221 L554.412027,73.0238338 C554.117141,73.7312459 523.932524,147.364458 487.33571,236.653673 Z M601.286316,122.814433 C598.691556,129.437599 574.469357,190.057016 574.322698,190.294258 C574.212116,190.472679 582.828898,190.560518 593.470667,190.489541 L612.819016,190.360137 L616.260788,189.291176 C630.058854,185.005921 642.756196,172.917173 650.872613,156.338867 C653.937935,150.078035 655.086499,146.044138 655.081418,141.560855 C655.071206,132.502529 649.369558,125.83662 639.092083,122.867764 C637.053764,122.278777 634.394694,122.169371 619.190039,122.048985 L601.640414,121.909777 L601.286316,122.814433" id="Shape"></path>
            </g>
        </g>
    </g>
</svg>