<?xml version="1.0" encoding="UTF-8"?>
<svg width="800px" height="400px" viewBox="0 0 800 400" version="1.1" xmlns="http://www.w3.org/2000/svg" xmlns:xlink="http://www.w3.org/1999/xlink">
    <title>mediafactory</title>
    <g id="Page-1" stroke="none" stroke-width="1" fill="none" fill-rule="evenodd">
        <g id="Manufacturer" fill="#000000" fill-rule="nonzero">
            <g id="AF159_INCREMENTAL" transform="translate(-0.000000, 0.000000)">
                <g id="mediafactory" transform="translate(0.000000, 0.000000)">
                    <line x1="0" y1="0" x2="800" y2="400" id="Path"></line>
                    <path d="M741.806037,215.172987 C741.806037,215.172987 739.555549,216.250945 739.698201,218.53301 C739.841541,220.783604 741.409816,221.417525 742.455827,222.098786 C743.518287,222.796179 745.371919,223.858005 746.719049,226.647313 C748.018602,229.452489 763.86704,267.298696 764.025507,267.789807 C764.15245,268.345183 764.025507,289.581426 764.025507,289.581426 C764.025507,289.581426 763.755462,294.906421 761.759204,295.730757 C759.793994,296.507754 758.066511,297.996954 758.066511,300.643716 C758.066511,301.341109 758.066511,302.260124 759.381932,302.260124 C760.713194,302.260124 780.808986,302.260124 780.808986,302.260124 C780.808986,302.260124 781.996988,302.260124 781.996988,300.516773 C781.996988,298.78929 781.458141,297.632522 778.954084,295.572078 C778.288453,295.0651 776.560997,294.653064 776.560997,289.73984 C776.560997,284.763674 776.560997,268.344654 776.560997,268.344654 L792.298466,226.774256 C792.298466,226.774256 794.152733,222.511087 795.864374,222.098786 C797.607699,221.733825 798.526898,219.848457 798.526898,218.105106 C798.526898,216.345888 798.114836,215.854513 797.195636,215.854513 C796.27641,215.854513 781.870203,215.854513 781.870203,215.854513 C781.870203,215.854513 780.285373,215.931207 780.285373,218.105106 C780.285373,220.244625 781.347833,220.656661 782.519993,221.417525 C783.707994,222.241597 785.29346,224.111626 784.770454,225.997524 C784.231634,227.836081 772.74152,260.451972 772.74152,260.451972 L760.569933,226.900935 C760.569933,226.900935 759.523923,222.384144 761.757935,221.845429 C764.024264,221.322847 764.800812,219.452289 764.800812,217.835617 C764.800812,216.250945 764.405252,215.29993 763.089197,215.29993 C761.757935,215.29993 741.804768,215.172987 741.804768,215.172987 M698.840959,237.598792 C698.840959,255.095242 684.957757,253.24108 682.596326,253.24108 C680.203213,253.24108 680.456808,251.751351 680.456808,251.751351 C680.456808,251.751351 680.456808,229.214735 680.456808,225.046773 C680.456808,220.894414 682.738979,221.163904 682.738979,221.163904 C687.081434,221.163904 698.840959,220.133021 698.840959,237.598792 Z M663.546544,214.761216 C663.546544,214.761216 662.500534,215.046309 662.500534,218.105106 C662.500534,218.897442 663.150958,220.244625 664.212175,221.052829 C665.258159,221.845429 667.778057,221.972108 667.778057,227.31297 C667.778057,232.653833 667.778057,289.05858 667.778057,289.05858 C667.778057,289.05858 667.904736,293.305881 664.751022,295.429532 C663.102773,296.570697 662.373749,297.632522 662.373749,299.993927 C662.373749,301.056281 662.769336,301.863956 663.815954,301.863956 C664.861965,301.863956 684.418911,301.863956 684.418911,301.863956 C684.418911,301.863956 686.146393,301.863956 686.146393,300.136473 C686.146393,298.377254 685.243643,296.792582 684.054399,295.429532 C682.849921,294.129953 680.345865,294.129953 680.345865,289.296333 C680.345865,284.478317 680.345865,262.179455 680.345865,262.179455 C680.345865,262.179455 680.61591,260.071672 681.930695,260.071672 C683.246116,260.071672 684.72003,261.291383 685.766014,262.956188 C686.828501,264.699538 702.026488,299.993927 702.026488,299.993927 C702.026488,299.993927 702.81893,301.863956 705.05355,301.863956 C707.319879,301.863956 719.079404,301.863956 719.079404,301.863956 C719.079404,301.863956 720.125388,301.863956 720.125388,300.944677 C720.125388,299.993927 720.125388,298.646744 720.125388,298.646744 C720.125388,298.646744 720.268727,296.237736 716.9557,295.302853 C716.321778,295.128307 714.055449,293.971539 712.83513,291.56253 C711.678811,289.185258 700.299032,265.682024 700.299032,265.682024 C700.299032,265.682024 696.859907,259.406015 692.248015,257.631193 C691.202031,257.297703 712.740028,258.59834 712.740028,236.679513 C712.740028,214.761216 690.520532,214.761216 682.738979,214.761216 C674.925689,214.761216 663.546544,214.761216 663.546544,214.761216 M617.950625,251.624408 C617.950625,251.624408 617.950625,258.851432 617.950625,266.854925 C617.950625,295.730757 606.729947,297.347165 602.118055,297.347165 C585.033456,297.347165 586.364718,265.935646 586.364718,265.935646 C586.364718,265.935646 586.364718,259.120922 586.364718,250.958751 C586.364718,216.345888 602.118055,219.452289 602.118055,219.452289 C619.789051,219.452289 617.950625,251.624408 617.950625,251.624408 L617.950625,251.624408 Z M601.832777,213.160412 C601.832777,213.160412 572.608301,211.401193 572.608301,258.455264 C572.608301,305.461732 601.832777,303.480628 601.832777,303.480628 C601.832777,303.480628 631.833853,305.208111 631.833853,258.0747 C631.833853,210.89395 601.832777,213.160412 601.832777,213.160412 M494.364649,214.649612 L494.364649,237.99496 C494.364649,237.99496 494.478633,239.214671 496.472485,239.214671 C498.469378,239.214671 500.577213,238.802635 501.353787,236.425098 C502.146229,234.016355 503.746901,224.111097 506.124173,222.653104 C508.501446,221.163111 510.609281,220.529189 511.797918,220.529189 C512.985893,220.529189 515.506425,220.894414 515.506425,221.844636 C515.506425,222.795651 515.506425,288.091168 515.506425,288.091168 C515.506425,288.091168 515.506425,293.178409 513.382748,294.27197 C511.274912,295.302853 509.816866,296.078793 509.816866,299.739776 C509.816866,300.515715 510.212426,301.197769 510.86285,301.197769 C511.543688,301.197769 531.89371,301.197769 531.89371,301.197769 C531.89371,301.197769 533.478541,300.943883 533.478541,299.882322 C533.478541,298.78929 534.017387,297.172354 531.751058,295.30206 C529.516438,293.432031 528.058392,294.271441 528.058392,288.931108 C528.058392,283.574377 528.058392,221.733825 528.058392,221.733825 C528.058392,221.733825 528.328436,220.656132 530.8477,220.656132 C533.351756,220.656132 537.313859,221.051771 538.518337,223.603854 C539.674656,226.123673 541.133337,233.208151 541.545399,234.269976 C541.940959,235.331008 543.130229,239.34135 547.361769,239.34135 C548.424229,239.34135 549.34282,238.945711 549.34282,237.597999 C549.34282,236.282552 549.34282,214.649612 549.34282,214.649612 L494.364649,214.649612 M462.651958,216.773791 C462.651958,216.773791 462.766206,214.760951 460.781849,214.760951 C458.800787,214.760951 457.596309,216.773791 456.819736,216.773791 C456.027294,216.773791 454.030401,216.916602 452.176134,215.410741 C450.337735,213.952748 446.914452,211.955775 442.682939,211.955775 C438.435558,211.955775 412.792795,216.52017 412.792795,258.455264 C412.792795,281.958498 423.252777,302.957517 441.73203,302.957517 C465.409583,302.957517 463.951537,274.49372 463.951537,274.49372 L458.008345,274.49372 C458.008345,274.49372 458.674003,295.429532 444.394554,295.429532 C430.130973,295.429532 426.533381,277.980422 426.533381,256.204671 C426.533381,234.413052 431.826773,218.53301 443.459513,218.53301 C445.456406,218.53301 451.256934,219.563893 452.71498,226.647313 C454.173027,233.731526 455.742042,243.636784 459.846771,243.636784 C461.304828,243.636784 463.159095,243.398766 463.159095,240.673193 C463.159095,237.99496 462.651958,216.773791 462.651958,216.773791 M307.987059,214.206369 L262.961722,214.206369 C262.961722,214.206369 261.170847,214.380916 261.170847,216.742056 C261.170847,219.040253 262.597184,220.276361 263.817529,220.799207 C265.037214,221.321789 266.353269,222.241597 266.353269,226.647313 C266.353269,231.053293 266.353269,287.695529 266.353269,287.695529 C266.353269,287.695529 267.130477,293.05226 263.817529,294.653064 C260.521057,296.237736 260.90141,298.377254 260.90141,299.454948 C260.90141,300.517566 261.550565,301.341109 262.502109,301.341109 C263.436515,301.341109 283.374475,301.341109 283.374475,301.341109 C283.374475,301.341109 284.975174,300.94547 284.975174,299.05878 C284.975174,297.172883 284.039471,295.730757 282.471117,294.779742 C280.870419,293.828992 279.032019,292.640224 279.032019,288.646279 C279.032019,284.604996 279.032019,262.464812 279.032019,262.464812 C279.032019,262.464812 279.285641,259.120922 280.331572,259.120922 C281.409265,259.120922 286.417378,259.120922 286.417378,259.120922 C286.417378,259.120922 290.918328,258.850639 292.122806,262.718434 C292.566551,264.224031 293.945363,267.013339 294.880431,267.013339 C295.799631,267.013339 298.731591,267.013339 298.731591,267.013339 L298.731591,245.22172 L295.688688,245.22172 C295.688688,245.22172 293.295574,245.507077 292.629943,248.882704 C292.471529,249.706775 291.314522,252.717969 288.144861,252.717969 C284.975174,252.717969 279.032019,252.717969 279.032019,252.717969 L279.032019,222.510822 C279.032019,222.510822 279.032019,220.656661 280.870419,220.656661 C282.724686,220.656661 296.069067,219.720985 297.780682,224.903962 C298.604807,227.360574 300.443232,234.413052 300.839427,235.189784 C301.235013,235.997459 301.648345,239.341879 304.80153,239.341879 C306.782581,239.341879 308.098002,238.803164 308.098002,237.883885 C308.098002,236.949532 307.984017,214.206369 307.984017,214.206369 M363.472394,266.221003 C364.359911,269.549026 362.156973,268.740822 362.156973,268.740822 C362.156973,268.740822 349.383148,268.740822 347.275312,268.740822 C345.151608,268.740822 346.562765,266.268342 346.562765,266.268342 L354.851483,234.904427 C354.851483,234.904427 362.601353,262.956188 363.473029,266.221003 L363.472394,266.221003 Z M358.163161,213.160412 L351.807945,215.29993 C351.807945,215.29993 349.700109,216.916338 350.492524,219.166932 C351.268463,221.417525 352.077381,222.796179 350.88811,226.647313 C349.79521,230.181618 334.627636,287.695529 334.627636,287.695529 C334.627636,287.695529 333.026938,292.925581 331.584733,293.828992 C330.126687,294.779742 326.941158,295.730757 326.941158,299.05878 C326.941158,299.994455 327.099572,301.341109 328.668614,301.341109 C330.253471,301.341109 344.009888,301.341109 344.009888,301.341109 C344.009888,301.341109 346.133592,301.454829 346.133592,299.312401 C346.133592,297.172883 346.735831,296.364679 342.821279,294.526121 C341.109637,293.702049 339.651591,293.179203 340.713416,289.05858 C341.759427,284.874485 343.613694,277.822007 343.613694,277.822007 C343.613694,277.822007 344.279325,275.127642 346.387161,275.127642 C348.510838,275.127642 363.566861,275.127642 363.566861,275.127642 C363.566861,275.127642 365.024907,274.873756 365.959948,277.520782 C366.879174,280.231016 368.98701,287.965018 368.98701,287.965018 C368.98701,287.965018 370.049496,293.179203 368.591424,294.272499 C367.133377,295.303382 365.152326,295.984379 365.152326,298.78929 C365.152326,300.643716 366.483588,301.198298 367.276003,301.198298 C368.051942,301.198298 388.703216,301.198298 388.703216,301.198298 C388.703216,301.198298 390.01861,300.642923 390.01861,299.185723 C390.01861,297.727465 390.540981,296.237736 387.213329,294.41531 C386.08745,293.734314 383.64742,292.02217 382.094299,286.237536 C380.509442,280.484373 362.109423,215.933852 362.109423,215.933852 C362.109423,215.933852 362.109423,212.890922 358.163161,213.160412 M773.455336,147.753316 C774.311144,151.049788 772.108207,150.780378 772.108207,150.780378 C772.108207,150.780378 759.350222,150.780378 757.226545,150.780378 C755.102868,150.780378 755.975152,148.197088 755.975152,148.197088 L764.802716,116.405137 C764.802716,116.405137 772.552613,144.472712 773.455971,147.753316 L773.455336,147.753316 Z M767.987636,95.0731837 L761.759204,96.816508 C761.759204,96.816508 759.66721,98.41718 760.443784,100.683509 C761.252675,102.99739 761.616552,104.566379 760.839343,108.16397 C760.031721,111.777403 744.563028,169.21208 744.563028,169.21208 C744.563028,169.21208 742.994039,174.457921 741.535966,175.40883 C740.093761,176.29632 736.924074,177.247229 736.924074,180.57541 C736.924074,181.526319 737.051017,182.873423 738.635715,182.873423 C740.220546,182.873423 753.976989,182.873423 753.976989,182.873423 C753.976989,182.873423 756.084825,183.000101 756.084825,180.892371 C756.084825,178.705302 756.607196,178.039644 752.788353,176.042751 C751.995938,175.615482 749.602824,174.695648 750.648808,170.55921 C751.726501,166.391063 753.564927,159.354374 753.564927,159.354374 C753.564927,159.354374 754.230558,156.660141 756.354262,156.660141 C758.477939,156.660141 773.518094,156.660141 773.518094,156.660141 C773.518094,156.660141 774.97614,156.406519 775.911208,159.084937 C776.830407,161.747487 778.954084,169.481517 778.954084,169.481517 C778.954084,169.481517 780.000095,174.695648 778.558525,175.757473 C777.084611,176.851669 775.658247,177.500798 775.658247,180.290132 C775.658247,182.19195 776.434186,182.730797 777.243104,182.730797 C778.051996,182.730797 798.654317,182.730797 798.654317,182.730797 C798.654317,182.730797 799.969738,182.19195 799.969738,180.718036 C799.969738,179.25999 800.492108,177.770234 797.196271,175.915967 C796.038683,175.235129 793.646204,173.507012 792.013823,167.754034 C790.444833,162.001056 772.060656,97.5138218 772.060656,97.5138218 C772.060656,97.5138218 771.946672,94.8037472 767.987636,95.0731837 M650.471599,96.1350091 C650.471599,96.1350091 648.347896,96.1350091 648.347896,98.41718 C648.347896,100.683509 649.552373,102.284208 650.867794,102.99739 C652.183214,103.647814 653.37185,104.138475 653.37185,107.878692 C653.37185,111.618936 653.37185,172.17575 653.37185,172.17575 C653.37185,172.17575 652.467857,175.503905 650.725168,176.169536 C649.029368,176.851669 647.809049,178.039644 647.809049,180.718036 C647.809049,181.922514 648.07912,182.730797 649.282963,182.730797 C650.470965,182.730797 670.297955,182.730797 670.297955,182.730797 C670.297955,182.730797 672.009597,182.730797 672.009597,180.955763 C672.009597,179.25999 670.694176,176.851035 669.236103,176.169536 C667.778057,175.503905 666.589421,173.903206 666.589421,172.017256 C666.589421,170.162989 666.589421,108.306596 666.589421,108.306596 C666.589421,108.306596 666.731439,104.407885 669.236103,103.34606 C671.756028,102.283573 672.675228,99.8910941 672.548443,98.5598322 C672.421765,97.196861 671.217181,96.2935028 670.171171,96.2935028 C669.108684,96.2935028 650.471599,96.1350091 650.471599,96.1350091 M401.429491,96.2935028 C401.429491,96.2935028 399.163162,96.4201813 399.163162,98.9401852 C399.163162,101.507634 401.03327,102.569486 401.68306,102.99739 C402.365167,103.34606 404.472395,104.819947 404.472395,108.591874 C404.472395,112.31625 404.472395,170.052046 404.472395,170.052046 C404.472395,170.052046 403.933548,174.965058 401.952496,175.614848 C399.971419,176.295685 399.052219,178.182297 399.052219,179.640343 C399.052219,181.114257 399.052219,182.19195 399.052219,182.19195 L447.691026,182.19195 L447.691026,158.007244 C447.691026,158.007244 447.961097,156.533356 445.852626,156.533356 C443.728923,156.533356 442.270877,157.753041 441.621087,160.81242 C440.940249,163.855323 440.401403,170.955405 437.896711,172.698729 C435.408523,174.457921 432.619188,176.423104 428.783869,176.423104 C424.948551,176.423104 419.671017,176.423104 419.671017,176.423104 C419.671017,176.423104 416.628113,177.389247 416.628113,172.413477 C416.628113,167.484597 416.628113,144.488554 416.628113,144.488554 C416.628113,144.488554 416.501435,141.192082 419.797801,141.192082 C421.652068,141.192082 424.758374,140.843412 426.676033,143.585196 C428.657085,146.390372 429.053306,148.117828 429.861563,148.371423 C430.638771,148.640199 434.346671,149.322306 434.346671,148.640199 C434.346671,147.974568 434.346671,127.530105 434.346671,127.530105 C434.346671,127.530105 433.537753,126.88095 431.826773,126.88095 C430.130973,126.88095 429.053306,128.212212 428.514459,129.147279 C427.992089,130.114665 427.326458,135.28061 420.859653,135.28061 C419.290664,135.28061 416.754898,134.885051 416.754898,132.744871 C416.754898,130.621194 416.754898,104.407885 416.754898,104.407885 C416.754898,104.407885 417.16696,102.157424 420.067238,102.157424 C422.967499,102.157424 428.260864,102.157424 428.260864,102.157424 C428.260864,102.157424 433.142193,102.030745 434.489296,105.501446 C435.788876,108.972227 439.101189,119.511432 440.147199,120.303848 C441.209659,121.096289 445.709974,121.41325 445.709974,119.511432 C445.709974,117.657165 445.709974,96.2935028 445.709974,96.2935028 L401.429491,96.2935028 M283.247691,95.6272371 L261.709693,95.6272371 L261.709693,100.556725 C261.709693,100.556725 263.43715,102.284208 264.213724,102.426834 C265.006165,102.568851 267.003058,103.646544 267.003058,107.625123 C267.003058,111.618936 267.003058,166.708024 267.003058,166.708024 C267.003058,166.708024 266.861041,174.965058 263.690745,175.915967 C262.24854,176.29632 261.170847,178.309081 261.170847,178.832086 C261.170847,179.386139 261.170847,182.287025 261.170847,182.287025 L278.35052,182.287025 L278.35052,179.085655 C278.35052,179.085655 278.096899,177.659291 276.781531,176.708382 C275.640446,175.869051 273.215649,175.076001 273.215649,166.850676 C273.215649,158.514408 273.215649,115.089716 273.215649,115.089716 C273.215649,115.089716 273.737993,110.04992 274.388418,112.569818 C275.069282,115.089716 291.314522,180.57541 291.314522,180.57541 C291.314522,180.57541 291.584594,182.572303 295.419278,182.572303 C299.238755,182.572303 299.381381,180.57541 299.381381,180.57541 L315.372444,112.189465 C315.372444,112.189465 316.181336,108.718658 316.181336,113.663379 C316.181336,118.592233 316.181336,167.611382 316.181336,167.611382 C316.181336,167.611382 316.29532,174.838274 313.788222,175.614848 C311.284165,176.42247 310.761187,177.659291 310.761187,178.832086 C310.761187,179.449532 310.761187,182.287025 310.761187,182.287025 L333.471979,182.287025 L333.471979,179.25999 C333.471979,179.25999 333.35773,176.977819 331.237332,176.169536 C330.524785,175.867782 328.337081,175.075366 328.337081,167.991761 C328.337081,160.907521 328.337081,109.495232 328.337081,109.495232 C328.337081,109.495232 328.06701,104.011691 331.237332,102.99739 C332.473519,102.521935 334.280236,101.190673 334.280236,100.176372 C334.280236,99.0822027 334.280236,96.1350091 334.280236,96.1350091 L312.330176,96.1350091 L298.985794,153.99759 C298.985794,153.99759 298.590235,159.766436 296.988901,153.315483 C295.419912,146.912716 283.248326,95.6272371 283.248326,95.6272371 M547.488553,96.2935028 C570.231028,96.2935028 575.873063,116.104017 577.10925,119.638217 C583.84482,139.16348 577.933375,157.246538 576.839179,160.907521 C569.422137,185.773674 543.129595,182.873423 543.129595,182.873423 C543.129595,182.873423 524.761285,182.873423 523.303239,182.873423 C521.845166,182.873423 521.195376,181.922514 521.195376,179.909779 C521.195376,177.897019 522.907018,176.851035 524.761285,175.757473 C526.599711,174.695013 526.599711,170.432426 526.599711,170.432426 C526.599711,170.432426 526.599711,109.368448 526.599711,106.404804 C526.599711,103.504527 524.967303,102.838896 523.699433,102.157424 C521.464813,100.937713 521.845166,99.0828374 521.845166,99.0828374 L521.845166,96.1350091 C521.845166,96.1350091 524.761285,96.2934234 547.487919,96.2934234 L547.488553,96.2935028 Z M539.960542,102.030639 L539.960542,176.29632 C539.960542,176.29632 553.447549,178.309081 559.263919,170.052046 C559.75458,169.323023 566.268925,162.825181 566.268925,140.225331 C566.268925,117.657165 560.309929,109.114879 559.517514,108.306596 C558.725072,107.514181 557.013458,102.030639 539.960542,102.030639 M134.978774,261.177947 C134.978774,261.177947 130.815128,283.189803 115.98558,282.724858 C109.046161,282.496132 103.258676,278.963694 99.559962,267.971645 C95.854312,256.972659 47.4656517,115.873371 47.4656517,115.873371 C47.4656517,115.873371 41.2132336,87.5744045 17.3624317,94.5832218 C9.77765319,96.8246626 -1.42108547e-14,108.857618 -1.42108547e-14,122.909946 C-1.42108547e-14,136.948401 -1.42108547e-14,149.81409 -1.42108547e-14,149.81409 L2.78270858,149.81409 L2.78270858,144.66504 C2.78270858,144.66504 2.5534265,135.310702 9.26413081,134.359992 C11.5541377,134.04745 14.8226116,135.768698 16.2035498,140.216875 C17.5983723,144.66504 63.2112627,277.339868 63.2112627,277.339868 C63.2112627,277.339868 72.0035171,306.582596 98.1651395,306.582596 C124.326769,306.582596 132.66101,276.403042 132.66101,276.403042 L137.525542,262.586654 L134.978774,261.177947 M177.815835,151.222797 L175.26213,149.57815 L189.84879,108.857618 C189.84879,108.857618 196.566152,93.4174035 211.145887,93.4174035 C216.940297,93.4174035 232.914854,100.211101 232.914854,124.304768 C232.914854,148.412331 231.978028,302.127484 231.978028,302.127484 L194.470456,302.127484 L195.400334,146.996688 C195.400334,146.996688 196.795157,134.359992 188.453967,134.359992 C184.297257,134.359992 182.444426,139.280049 181.743552,140.688744 C181.049604,142.090515 177.815835,151.222797 177.815835,151.222797" id="Combined-Shape"></path>
                </g>
            </g>
        </g>
    </g>
</svg>