<?xml version="1.0" encoding="UTF-8"?>
<svg width="800px" height="400px" viewBox="0 0 800 400" version="1.1" xmlns="http://www.w3.org/2000/svg" xmlns:xlink="http://www.w3.org/1999/xlink">
    <title>piko</title>
    <g id="Page-1" stroke="none" stroke-width="1" fill="none" fill-rule="evenodd">
        <g id="piko" fill="#000000" transform="translate(-0.000000, 0.000000)">
            <line x1="2.27373675e-13" y1="0" x2="800" y2="400" id="Path" fill-rule="nonzero"></line>
            <path d="M129.439153,68.4826281 C128.935864,68.5399725 126.808324,68.7385429 124.711286,68.9246073 C114.382576,69.8396783 99.1298684,73.267839 88.9204221,76.9686908 C64.3608334,85.8711109 41.9254294,102.430539 26.5022139,123.039157 C13.5435895,140.354739 6.49357804,156.356889 2.24703888,178.095924 C-0.652210841,192.937765 -0.746463146,208.055652 1.96763723,222.9344 C6.25748974,246.452333 14.5340013,264.597884 29.5146274,283.328776 C42.5470676,299.623444 61.9721933,314.290506 81.5504408,322.618872 C89.0695786,325.817349 95.8121262,328.001929 104.884749,330.179493 C130.452441,336.316263 153.495757,335.606473 180.275613,327.857348 C206.989889,320.127133 232.520978,302.366827 249.847846,279.460161 C262.632912,262.557581 270.312492,244.889697 274.289085,223.229358 C275.84013,214.780813 276.141494,211.208376 276.141494,201.277721 C276.141494,191.367198 275.839215,187.770359 274.302811,179.400205 C270.021804,156.079318 261.64799,137.639113 247.13344,119.571343 C237.619448,107.727885 227.122669,98.5054952 212.55718,89.1934284 C207.915025,86.2252433 196.193882,80.3071746 190.901417,78.2589409 C178.097744,73.3041368 162.10749,69.6697801 148.382646,68.5954868 C144.787637,68.31395 131.615496,68.2355589 129.439153,68.4826281 M128.066546,77.3426498 C82.2571806,80.7802663 41.5227982,107.545176 21.61299,147.289146 C16.4022711,157.690453 13.0326749,167.643374 10.8209485,179.163507 C8.47379153,191.389465 8.17791859,205.940008 10.0202614,218.511557 C12.1535968,233.06759 17.1831316,247.780406 24.38718,260.540155 C34.2098564,277.938093 50.1177544,294.514298 67.1908428,305.142237 C86.0702811,316.895103 106.132906,323.453721 128.37157,325.142637 C134.314346,325.593767 147.766803,325.342733 153.383509,324.675341 C183.518319,321.095583 210.771877,308.02349 231.623903,287.148282 C249.356758,269.395601 261.074546,247.199946 265.604147,222.781888 C267.034708,215.070585 267.282692,211.939823 267.294952,201.430233 C267.306789,190.626296 267.018847,187.116694 265.4434,178.858483 C259.375259,147.050618 240.55286,118.669083 213.168143,100.033969 C194.019063,87.0033586 172.524657,79.4061348 149.265689,77.447578 C145.931476,77.1669562 131.369952,77.0946656 128.066546,77.3426498 M81.7444358,120.152108 C73.2602032,120.972012 65.7157484,123.01628 58.5211558,126.445051 C44.7822808,132.992383 36.9230417,142.204097 30.8649671,158.861438 C28.450705,165.500278 24.4820423,183.618072 25.5252232,183.239233 C25.6923762,183.178533 27.5103171,180.726753 29.5652614,177.790901 C37.5071619,166.443716 38.8901391,164.759681 47.1947128,156.323032 C55.6618641,147.721365 59.3621059,145.037157 69.9595424,139.808442 C79.4640791,135.119008 80.1567878,134.935079 88.3118999,134.935079 C91.8629851,134.935079 94.8625876,135.029331 94.9775816,135.14463 C95.0928805,135.259929 94.7668102,136.632535 94.2531504,138.194867 C90.4241886,149.838839 87.2403518,168.853403 85.0685835,193.042083 C84.120875,203.596816 83.487951,213.593966 82.5872162,232.237621 C82.2355239,239.513655 81.8225219,306.951027 82.1223601,308.145195 C82.2959186,308.837293 82.378275,308.859865 83.7578969,308.60029 C84.5570588,308.449913 85.5575364,308.264764 85.9815193,308.189118 C86.4051971,308.113167 87.9019481,307.63611 89.3074971,307.128551 C90.712741,306.620992 91.899893,306.205854 91.9456465,306.205854 C91.9914001,306.205854 92.0246477,300.338115 92.0194623,293.166094 C92.0139718,285.994378 92.1655686,278.136054 92.3559033,275.70349 C95.5427904,234.962092 101.998006,191.858896 106.258576,182.869849 L106.95952,181.391095 L106.390651,179.401426 C104.994253,174.518912 103.464864,166.252466 102.452491,158.116876 C101.614896,151.386529 100.259066,137.557672 100.3704,136.883265 C100.57507,135.643649 108.603293,139.134644 113.2729,142.493565 C116.82856,145.051188 118.702626,146.757185 127.914035,155.820353 C139.250848,166.974457 143.965599,170.852833 151.307823,175.062769 C156.948625,178.29724 165.534125,181.354187 171.379904,182.209778 C172.134837,182.320502 172.971517,182.471794 173.239023,182.546524 C173.816127,182.707577 174.254141,184.504471 174.868459,189.229287 C175.876562,196.986954 176.10777,203.731331 176.10777,225.374589 C176.10777,245.905425 175.850635,255.252875 175.0167,265.027663 C174.718387,268.521098 172.707977,283.005451 172.04028,286.470825 L171.757828,287.934938 L174.390487,289.240744 C177.191519,290.630432 180.441241,291.755664 180.752975,291.44393 C180.856683,291.340527 181.5317,287.172989 182.253081,282.183412 C186.389507,253.576465 187.287497,247.204521 187.98051,241.540842 C190.281914,222.733084 191.870782,203.216757 192.319777,188.240706 L192.523227,181.448744 L193.771384,181.122064 C204.341979,178.35611 214.886646,172.091229 221.248524,164.796894 C227.214176,157.956433 231.274041,149.359342 234.054027,137.680292 C235.402841,132.012647 236.387152,126.554249 236.28985,125.27742 L236.197428,124.061596 L233.479057,128.125731 C227.057394,137.72696 224.29815,141.193554 217.285962,148.468978 C210.070018,155.955783 205.990021,159.004495 196.207608,164.220399 C187.501013,168.862249 187.78133,168.782332 180.225589,168.777452 C173.098102,168.772572 171.33476,168.440401 166.745374,166.237825 C161.081085,163.519455 157.765478,160.786138 145.605406,148.811214 C132.270992,135.679642 128.326121,132.407043 120.69748,128.147083 C110.369685,122.380001 93.8264223,118.984478 81.7444358,120.152108 M658.753922,58.0771606 C655.598757,59.9722725 654.756282,60.649425 653.210422,62.533251 C651.470262,64.6531653 651.293959,64.7791401 649.336622,65.2982903 C648.208644,65.5975185 647.019357,65.9791031 646.693287,66.146256 C645.857827,66.5745092 639.933353,71.461293 636.275815,74.7390771 C633.673658,77.0712878 632.231811,78.0376027 626.972593,80.9749804 C618.16168,85.8962319 602.050942,97.5234281 588.721409,108.58023 C584.695096,111.920239 579.822344,115.68057 577.893069,116.936353 C575.876863,118.24887 571.686448,121.54953 568.038365,124.697984 C556.380972,134.759189 549.307779,139.667325 545.501083,140.335632 C543.542222,140.679698 543.399166,140.662007 542.001852,139.904023 C540.724108,139.211009 540.492595,138.928252 540.120161,137.604145 C539.744067,136.268141 539.757183,135.794135 540.2318,133.486326 C541.384789,127.881516 543.705104,120.116834 545.340946,116.389445 L547.014306,112.57665 L547.509359,106.781201 C547.781745,103.593704 548.003802,99.147069 548.002582,96.8999598 L548.000752,92.8141681 L546.271878,89.5793924 C545.146951,87.4744242 543.415637,84.9659098 541.315244,82.3970006 C539.540006,80.2255373 537.950223,78.2703358 537.78246,78.0513288 C537.371288,77.5157073 530.144363,74.8912839 523.619907,72.9086302 L518.30304,71.293225 L513.322004,72.171388 C510.582282,72.6542405 508.161004,73.1584446 507.941387,73.2914349 C505.222101,74.9385625 499.810067,79.3031458 498.345343,81.0304947 C496.614029,83.0717129 496.520692,83.2736386 495.431758,87.3347234 C494.50052,90.8077226 494.307745,92.0345277 494.311594,94.4600757 C494.316591,97.3642058 494.326657,97.4032488 495.440908,98.8627869 C496.696691,100.507474 497.01544,101.818466 497.043502,105.456788 C497.057534,107.238431 497.494632,109.54929 498.884625,115.190398 L500.707446,122.587526 L499.98393,126.580285 C499.585874,128.776456 499.020971,132.553258 498.728758,134.973926 L498.197102,139.374502 L499.215576,142.326521 L500.234355,145.27854 L499.619122,149.307597 L499.003889,153.336349 L500.001927,158.425974 C500.550969,161.225176 501.297362,166.136666 501.66095,169.34033 L502.321632,175.165366 L501.484342,181.388764 C500.783397,186.597042 500.679689,188.205432 500.848367,191.247128 L501.049988,194.881789 L502.69132,197.805136 L504.332957,200.728483 L504.167635,202.892015 C504.021833,204.797803 504.115781,205.363622 504.954901,207.642149 C505.878512,210.149748 505.907489,210.381261 505.907489,215.256454 C505.907489,220.177705 505.939212,220.423859 507.396615,226.82539 C508.215603,230.422839 509.317959,236.047475 509.845955,239.324954 L510.805864,245.283896 L510.377611,249.817768 L509.949358,254.351944 L510.969967,259.014841 L511.990576,263.678042 L510.528293,267.280981 L509.066009,270.883921 L509.489992,277.689608 L509.91428,284.495296 L508.857068,287.651985 L507.800161,290.80837 L508.963521,296.402503 C509.755973,300.213164 510.484979,302.822946 511.249979,304.589033 C512.065917,306.472554 512.613129,308.505842 513.250629,312.022459 C513.895449,315.580255 514.343833,317.237448 514.94168,318.275444 C516.220339,320.494491 518.540959,323.522156 520.146603,325.066185 L521.616207,326.479665 L523.772114,326.174641 L525.928326,325.869923 L527.541291,322.368861 L529.154256,318.868105 L528.947145,314.854909 C528.833066,312.647758 528.462158,308.714478 528.122666,306.114151 C527.540986,301.660501 527.517194,300.378487 527.710885,283.999937 L527.91647,266.61359 L528.808055,263.233012 C529.628568,260.120551 529.699334,259.433943 529.699334,254.569731 C529.699334,250.030369 529.848795,248.338098 530.761731,242.546614 C531.800031,235.960239 532.882255,226.473088 534.419269,210.489239 C534.911273,205.373688 535.616487,200.284978 536.405888,196.153433 C537.079076,192.630715 537.629948,189.383738 537.629948,188.938099 C537.629948,188.30243 537.920636,187.957448 538.980593,187.33642 C540.112841,186.672993 540.705197,186.544883 542.641487,186.544883 L544.951431,186.544883 L546.017183,188.028213 L547.082631,189.511238 L550.043191,189.72872 L553.003445,189.945897 L555.916421,192.620954 C558.22667,194.743004 559.775275,195.825228 563.404446,197.85394 C567.188569,199.969584 581.922126,209.732781 596.347,219.683262 L599.397236,221.787315 L601.438454,225.59401 C603.478147,229.39796 603.481808,229.40223 606.361841,231.535871 C608.990535,233.483142 609.401706,233.931526 611.031143,236.62946 C612.759712,239.490887 613.042164,239.78066 619.654466,245.475146 C625.120185,250.181966 627.248945,252.249111 630.272644,255.78525 C633.182875,259.189009 635.558399,261.518475 640.583358,265.896174 C646.304077,270.879955 647.38081,271.689793 649.279887,272.434661 C651.162493,273.173123 651.689574,273.565688 653.287593,275.417792 C654.608345,276.948706 656.431167,278.462233 659.747384,280.781633 C662.288231,282.559005 665.769771,285.133405 667.484309,286.502961 C670.860005,289.19937 671.590842,289.474196 674.879302,289.282337 L676.545951,289.185339 L676.910759,287.357637 C677.111465,286.352279 677.191686,285.391455 677.089198,285.222472 C676.986405,285.053489 676.030156,283.799232 674.964098,282.435166 C673.641516,280.743505 672.037701,279.19917 669.916567,277.574919 C668.206605,276.265453 665.165824,273.812453 663.159073,272.123842 C661.152628,270.435231 658.616966,268.436106 657.524372,267.681172 C655.825085,266.506831 655.332777,265.940097 654.119088,263.758873 C652.809926,261.405616 652.397534,260.962722 648.773243,258.020158 C646.329699,256.036285 642.749636,252.620325 639.297989,248.979258 C633.951534,243.339065 633.70538,243.023671 632.512128,240.285474 C630.957727,236.718222 628.6002,233.391634 623.501424,227.570563 C620.909943,224.611834 618.076884,220.893596 615.483878,217.047248 C608.79959,207.132149 603.6999,201.945832 590.399039,191.53507 C584.492866,186.912437 577.458716,180.448681 571.856651,174.496449 C569.488143,171.980004 565.437429,167.906109 562.854794,165.443348 C558.214774,161.01837 558.155294,160.945164 557.807872,159.21568 C557.315259,156.76329 557.337221,156.652566 558.313297,156.652566 C559.415652,156.652566 559.834754,156.300569 561.497743,153.977509 C564.513512,149.764827 568.68227,145.654634 573.760304,141.886677 C577.997997,138.742188 580.171901,136.760144 589.941503,127.132378 C599.557068,117.656514 601.723956,115.6763 604.582638,113.752821 C607.359878,111.884246 608.170326,111.154325 609.286408,109.516043 C610.547985,107.664854 610.890222,107.394603 614.591074,105.328983 C618.276064,103.272209 618.768678,102.884524 621.783226,99.6707946 C623.563039,97.7732425 627.009501,94.6019117 629.442065,92.6232233 C631.874628,90.6448399 635.237514,87.833132 636.915144,86.375424 C638.85906,84.6862031 641.337987,82.9371975 643.749809,81.5530002 C646.964758,79.7079122 649.024888,78.1818789 652.798335,74.8498007 C653.146062,74.5426418 654.655929,73.9283242 656.153595,73.4845148 C658.834753,72.6899282 658.927175,72.6298386 662.137244,69.5975985 C664.786984,67.0948796 666.062898,66.1551017 668.951167,64.5790446 C672.325034,62.7379218 672.571188,62.5369113 673.808974,60.6137372 C675.271257,58.3419211 676.110682,56.7820302 676.110682,56.3370007 C676.110682,56.173203 675.321281,55.5613256 674.356796,54.9775103 C671.687534,53.3624101 670.087075,53.3133013 665.860973,54.7173252 C663.476603,55.5094716 661.37377,56.5035436 658.753922,58.0771606 Z M297.166085,80.0394729 C296.698178,80.556488 296.661271,89.1117911 296.661271,196.968761 C296.661271,309.320255 296.680487,313.357548 297.219159,313.844975 C297.714822,314.293665 298.915395,314.34979 308.000219,314.34979 C317.516957,314.34979 318.258165,314.311357 318.728206,313.791901 C319.193062,313.278242 319.23302,309.633819 319.23302,267.580819 L319.23302,221.927626 L347.218939,221.92244 C378.009856,221.916645 377.584043,221.939827 381.457843,220.048375 C384.311339,218.655332 387.452168,215.437028 388.851921,212.471893 C390.890699,208.153063 390.761064,212.357204 390.761064,150.552093 C390.761064,96.8950794 390.735137,94.1828092 390.201651,92.2925777 C389.893882,91.2021181 389.211849,89.4863601 388.685683,88.4797821 C387.354255,85.9319196 383.947141,82.5760495 381.457843,81.3608353 C377.497416,79.4272905 379.072558,79.4925655 336.437879,79.4862925 C299.264647,79.4818897 297.650157,79.5044614 297.166085,80.0394729 M431.542725,79.847613 C431.009239,80.3810994 431.009239,313.450275 431.542725,313.983761 C431.812976,314.254012 434.62987,314.34979 442.323786,314.34979 C452.026283,314.34979 452.773286,314.311662 453.243632,313.791901 C453.711539,313.274886 453.748447,304.719583 453.748447,196.862613 C453.748447,84.5111195 453.72923,80.4738266 453.190558,79.9863988 C452.69459,79.537404 451.484866,79.4815847 442.270712,79.4815847 C434.618279,79.4815847 431.812976,79.5773621 431.542725,79.847613 M716.194144,79.9342398 C713.547149,80.5101244 710.748862,82.0227366 708.646334,84.014236 C706.354691,86.1850893 705.022958,88.2446089 703.949885,91.277459 L703.105275,93.6651841 L703.105275,196.915687 L703.105275,300.16619 L703.949885,302.553915 C705.022958,305.586765 706.354691,307.646285 708.646334,309.817138 C710.798581,311.855306 713.550504,313.32064 716.33659,313.911166 C719.369135,314.55385 783.274029,314.544395 786.311759,313.90049 C792.869157,312.511107 798.057914,307.219862 799.48939,300.462368 C800.170203,297.247114 800.170203,96.5842603 799.48939,93.3690061 C798.057914,86.6115123 792.869157,81.3202672 786.311759,79.9308845 C783.374991,79.3086363 719.055266,79.3116865 716.194144,79.9342398 M319.23302,150.552093 L319.23302,201.491042 L343.787423,201.491042 L368.341827,201.491042 L368.341827,150.552093 L368.341827,99.6131451 L343.787423,99.6131451 L319.23302,99.6131451 L319.23302,150.552093 M725.524512,196.915687 L725.524512,294.218229 L751.451522,294.218229 L777.378532,294.218229 L777.378532,196.915687 L777.378532,99.6131451 L751.451522,99.6131451 L725.524512,99.6131451 L725.524512,196.915687 M666.089435,322.607695 L664.499347,323.873848 L664.585669,326.966178 L664.672296,330.058507 L666.843759,331.536042 L669.015222,333.013271 L671.647881,331.26152 C673.095828,330.297646 674.28054,329.327976 674.28054,329.106223 C674.28054,328.884776 674.051163,327.659496 673.770846,326.384192 L673.261456,324.065098 L670.796865,322.793149 C669.441645,322.09373 668.185558,321.480937 668.005899,321.431524 C667.82624,321.38211 666.963938,321.911326 666.089435,322.607695 M523.675117,328.000818 C521.435023,330.025565 521.506704,331.290803 523.952688,332.902853 C525.284116,333.780711 525.633368,333.883199 526.548439,333.665412 C527.371088,333.469587 527.78287,333.101423 528.403288,332.007303 L529.200925,330.600839 L528.503336,328.957067 C527.645304,326.93476 527.653235,326.942996 526.344074,326.727954 C525.38935,326.571477 525.107508,326.705687 523.675117,328.000818" id="Combined-Shape"></path>
        </g>
    </g>
</svg>