<?xml version="1.0" encoding="UTF-8"?>
<svg width="800px" height="400px" viewBox="0 0 800 400" version="1.1" xmlns="http://www.w3.org/2000/svg" xmlns:xlink="http://www.w3.org/1999/xlink">
    <title>piko 2019</title>
    <g id="Page-1" stroke="none" stroke-width="1" fill="none" fill-rule="evenodd">
        <g id="AF159_INCREMENTAL" fill="#000000" transform="translate(-0.000000, 0.000000)">
            <g id="piko-2019" transform="translate(0.000000, 0.000000)">
                <line x1="0" y1="0" x2="800" y2="400" id="Path" fill-rule="nonzero"></line>
                <path d="M160.863531,68.8392086 L160.863531,114.308283 L45.469,114.308209 L45.469,167.646209 L160.863531,167.647005 L160.863531,213.116079 L45.469,213.115209 L45.4690744,331.160791 L0,331.160791 L0,68.8392086 L160.863531,68.8392086 Z M160.863531,68.9200363 C200.704488,68.9200363 233.001966,101.217514 233.001966,141.058472 C233.001966,180.899429 200.704488,213.196907 160.863531,213.196907 L160.863531,167.727833 C175.592612,167.727833 187.532892,155.787553 187.532892,141.058472 C187.532892,126.32939 175.592612,114.389111 160.863531,114.389111 L160.863531,68.9200363 Z M668.879622,68.9200363 C741.295407,68.9200363 800,127.624629 800,200.040414 C800,272.456199 741.295407,331.160791 668.879622,331.160791 C596.463838,331.160791 537.759245,272.456199 537.759245,200.040414 C537.759245,127.624629 596.463838,68.9200363 668.879622,68.9200363 Z M362.440987,68.8392086 L362.440714,206.085677 L509.618697,68.8392086 L576.292099,68.8392086 L462.625698,174.832246 L576.202473,331.160791 L520.000074,331.160791 L429.120674,206.076932 L362.440714,268.255892 L362.440987,331.160791 L316.971913,331.160791 L316.971913,68.8392086 L362.440987,68.8392086 Z M668.879622,115.878906 C622.398505,115.878906 584.718115,153.559297 584.718115,200.040414 C584.718115,246.521531 622.398505,284.201922 668.879622,284.201922 C715.36074,284.201922 753.04113,246.521531 753.04113,200.040414 C753.04113,153.559297 715.36074,115.878906 668.879622,115.878906 Z M297.953598,68.8392086 L297.953598,331.160791 L252.484524,331.160791 L252.484524,68.8392086 L297.953598,68.8392086 Z M287.023532,79.7692745 L263.414589,79.7692745 L263.414589,320.230725 L287.023532,320.230725 L287.023532,79.7692745 Z" id="Combined-Shape"></path>
            </g>
        </g>
    </g>
</svg>