<?xml version="1.0" encoding="UTF-8"?>
<svg width="800px" height="400px" viewBox="0 0 800 400" version="1.1" xmlns="http://www.w3.org/2000/svg" xmlns:xlink="http://www.w3.org/1999/xlink">
    <title>redstorm_3</title>
    <g id="Page-1" stroke="none" stroke-width="1" fill="none" fill-rule="evenodd">
        <g id="Manufacturer" fill="#000000" fill-rule="nonzero">
            <g id="AF159_INCREMENTAL" transform="translate(-0.000000, 0.000000)">
                <g id="redstorm_3" transform="translate(0.000000, 0.000000)">
                    <line x1="0" y1="0" x2="800" y2="400" id="Path"></line>
                    <path d="M18.8885339,175.110726 L39.6686835,175.110726 L39.696308,112.259883 L18.8885339,112.259883 L18.8885339,175.110726 M5.32907052e-14,93.3726642 L39.696308,93.3726642 C50.1620211,93.3726642 58.5835264,101.821794 58.5835264,112.259883 L58.5835264,169.972582 C58.5835264,178.671647 54.7463613,181.957639 50.1620211,184.554335 C54.7463613,186.320983 58.5835264,190.133155 58.5835264,201.397346 L58.5835264,272.752567 C58.5835264,277.807838 60.6290497,281.702883 63.195491,286.285908 L43.7689384,286.285908 C41.711576,282.390863 39.6673681,277.338223 39.6673681,272.752567 L39.6673681,193.99926 L18.8885339,193.99926 L18.8885339,286.285908 L5.32907052e-14,286.285908 L5.32907052e-14,93.3726642 Z M185.473064,267.398689 L166.58453,267.398689 L166.58453,159.149066 L185.473064,159.149066 L185.473064,267.398689 M185.473064,111.983638 L185.473064,140.259217 L166.58453,140.259217 C156.118816,140.259217 147.668371,148.712293 147.668371,159.147751 L147.668371,267.397374 C147.668371,277.806523 156.118816,286.284592 166.58453,286.284592 L204.387906,286.284592 L204.387906,111.983638 L185.473064,111.983638 Z M283.308276,238.788987 L283.308276,267.398689 L302.22575,267.398689 L302.22575,193.99926 L283.308276,193.99926 C272.871503,193.99926 264.422373,185.547499 264.422373,175.112041 L264.422373,120.156524 C264.422373,104.610546 277.192753,91.8243806 292.726892,91.8243806 C308.383367,91.8243806 321.114284,104.610546 321.114284,120.156524 L321.114284,140.870901 L302.227065,140.870901 L302.227065,112.259883 L283.309591,112.259883 L283.309591,175.110726 L302.227065,175.110726 C312.692778,175.110726 321.114284,183.475667 321.114284,193.997944 L321.114284,259.498102 C321.114284,275.071704 308.384683,287.830245 292.726892,287.830245 C277.192753,287.830245 264.422373,275.071704 264.422373,259.498102 L264.422373,238.788987 L283.308276,238.788987 Z M339.973878,287.502698 L339.973878,111.152274 L358.863727,111.152274 L358.863727,140.259217 L377.750945,140.259217 L377.750945,159.149066 L358.863727,159.149066 L358.863727,287.502698 L339.973878,287.502698 M424.943998,267.398689 L406.058095,267.398689 L406.058095,159.149066 L424.943998,159.149066 L424.943998,267.398689 M415.528013,138.688571 C399.925471,138.688571 387.140621,151.527354 387.140621,167.073332 L387.140621,259.499418 C387.140621,275.07302 399.925471,287.831561 415.471449,287.831561 C431.087145,287.831561 443.861471,275.07302 443.861471,259.499418 L443.861471,167.073332 C443.861471,151.527354 431.087145,138.688571 415.528013,138.688571 Z M461.201722,159.149066 C461.201722,148.712293 469.624542,140.260532 480.090256,140.260532 L499.007729,140.260532 L499.007729,159.149066 L480.090256,159.149066 L480.090256,286.285908 L461.201722,286.285908 L461.201722,159.149066 M513.255359,140.259217 L513.255359,286.285908 L532.114953,286.285908 L532.114953,159.149066 L551.032426,159.149066 L551.032426,286.285908 L569.92096,286.285908 L569.92096,159.149066 L588.835803,159.149066 L588.780554,286.285908 L607.696712,286.285908 L607.696712,159.149066 C607.696712,148.712293 599.273892,140.259217 588.835803,140.259217 L513.255359,140.259217 Z M131.859304,194.133436 L131.859304,167.073332 C131.859304,151.527354 119.102078,138.688571 103.525845,138.688571 C90.7409954,138.688571 79.8201369,147.383689 76.3394585,159.092502 L112.844487,159.092502 L112.844487,159.149066 L112.969455,159.149066 L112.969455,175.193599 L75.1529234,175.193599 L75.1529234,259.499418 C75.1529234,275.07302 87.9101489,287.831561 103.525845,287.831561 C119.100763,287.831561 131.859304,275.07302 131.859304,259.499418 L131.859304,239.671653 L112.97077,239.671653 L112.97077,267.398689 L94.0822362,267.398689 L94.0822362,194.133436 L131.859304,194.133436 M626.299992,78.360179 L661.64557,80.5674021 L667.48069,213.134278 L686.364894,213.134278 L691.189544,303.937113 L765.563409,176.694934 L739.265683,176.694934 L773.676834,88.6451868 L800,91.7534794 L754.632512,303.937113 L659.916251,319.655941 L626.299992,78.360179 Z M771.094158,60 L723.956503,187.186906 L747.01067,187.186906 L698.301091,274.46024 L696.854347,204.707047 L678.024977,204.707047 L676.818848,60.834199 L771.094158,60 Z" id="Combined-Shape"></path>
                </g>
            </g>
        </g>
    </g>
</svg>