<?xml version="1.0" encoding="UTF-8"?>
<svg width="800px" height="400px" viewBox="0 0 800 400" version="1.1" xmlns="http://www.w3.org/2000/svg" xmlns:xlink="http://www.w3.org/1999/xlink">
    <title>redstorm_2</title>
    <g id="Page-1" stroke="none" stroke-width="1" fill="none" fill-rule="evenodd">
        <g id="Manufacturer" fill="#000000" fill-rule="nonzero">
            <g id="AF159_INCREMENTAL" transform="translate(-0.000000, 0.000000)">
                <g id="redstorm_2" transform="translate(0.000000, 0.000000)">
                    <line x1="0" y1="0" x2="800" y2="400" id="Path"></line>
                    <path d="M201.598177,327.990556 L201.598177,294.887768 L218.080957,294.887768 L218.080957,299.156047 L209.03174,299.156047 L209.03174,307.717202 L217.740479,307.717202 L217.740479,312.063157 L208.978662,312.063157 L208.978662,323.695091 L218.21689,323.695091 L218.21689,327.990556 L201.598177,327.990556 M257.963538,294.887768 L263.574311,323.15395 L263.574311,294.887768 L269.675736,294.887768 L269.675736,327.990556 L258.709224,327.990556 L252.866718,299.672591 L252.866718,327.990556 L246.79248,327.990556 L246.79248,294.887768 L257.963538,294.887768 M591.568952,294.887768 L597.19526,323.205734 L597.19526,294.887768 L603.282445,294.887768 L603.282445,327.990556 L592.315933,327.990556 L586.474721,299.672591 L586.474721,327.990556 L580.493694,327.990556 L580.493694,294.887768 L591.568952,294.887768 M741.203391,294.887768 L746.855591,323.205734 L746.855591,294.887768 L752.915589,294.887768 L752.915589,327.990556 L741.974969,327.990556 L736.106571,299.672591 L736.106571,327.990556 L730.129427,327.990556 L730.129427,294.887768 L741.203391,294.887768 M316.731666,294.887768 L316.731666,299.156047 L310.306592,299.156047 L310.306592,327.990556 L302.926108,327.990556 L302.926108,299.156047 L296.445366,299.156047 L296.445366,294.887768 L316.731666,294.887768 M346.559129,327.990556 L346.559129,294.887768 L363.094988,294.887768 L363.094988,299.156047 L353.962916,299.156047 L353.962916,307.717202 L362.729912,307.717202 L362.729912,312.063157 L353.962916,312.063157 L353.962916,323.695091 L363.232215,323.695091 L363.232215,327.990556 L346.559129,327.990556 M400.516543,308.585875 L401.917295,308.585875 C404.47153,308.585875 405.056687,307.661535 405.056687,306.409662 L405.056687,300.485596 L402.243533,298.856996 L400.516543,298.856996 L400.516543,308.585875 M393.125702,327.990556 L393.125702,294.889063 L402.854581,294.889063 C408.84726,294.889063 412.460474,296.248387 412.460474,300.541264 L412.460474,305.273007 C412.460474,307.718497 411.374309,309.779492 405.082579,310.214476 L405.082579,310.324516 C408.399331,310.570489 411.877907,311.356308 412.162718,314.345527 C412.596407,318.775631 412.162718,323.396039 413.384815,327.989261 L405.981028,327.989261 C404.729155,324.185742 405.028206,319.183428 405.056687,315.298349 C405.056687,313.369403 403.914855,312.551219 400.516543,312.606887 L400.516543,327.989261 L393.125702,327.989261 L393.125702,327.990556 Z M461.71851,294.887768 L461.71851,299.156047 L455.290847,299.156047 L455.290847,327.990556 L447.88706,327.990556 L447.88706,299.156047 L441.405024,299.156047 L441.405024,294.887768 L461.71851,294.887768 M501.520825,314.67306 L500.011328,300.919285 L499.50773,300.919285 L497.700476,314.67306 L501.520825,314.67306 M494.330646,294.887768 L505.43309,294.887768 L511.058105,327.989261 L503.59865,327.989261 L502.24062,319.021604 L496.980681,319.021604 L495.363733,327.989261 L488.691391,327.989261 L494.330646,294.887768 Z M541.645495,294.887768 L549.077763,294.887768 L549.077763,327.989261 L541.645495,327.989261 Z M640.051525,327.990556 L635.677089,300.974953 L635.677089,327.990556 L629.193759,327.990556 L629.193759,294.887768 L640.107192,294.887768 L643.720406,318.831298 L646.752347,294.887768 L657.71627,294.887768 L657.71627,327.990556 L651.207048,327.990556 L651.207048,300.974953 L646.832612,327.990556 L640.051525,327.990556 M684.905349,327.990556 L684.905349,294.887768 L701.375183,294.887768 L701.375183,299.156047 L692.31302,299.156047 L692.31302,307.717202 L700.993278,307.717202 L700.993278,312.063157 L692.285834,312.063157 L692.285834,323.695091 L701.459332,323.695091 L701.459332,327.990556 L684.905349,327.990556 M800,294.887768 L800,299.156047 L793.572337,299.156047 L793.572337,327.990556 L786.180201,327.990556 L786.180201,299.156047 L779.725352,299.156047 L779.725352,294.887768 L800,294.887768 M750.551659,131.339025 L750.551659,152.373601 L765.975461,131.339025 L781.438101,131.339025 C791.71071,131.339025 800,139.658091 800,149.929406 L800,275.050693 L781.383728,275.050693 L781.438101,149.929406 L762.823123,149.929406 L762.823123,275.050693 L744.234037,275.050693 L744.234037,149.929406 L725.61647,149.929406 L725.61647,275.050693 L707.055865,275.050693 L707.055865,131.339025 L750.551659,131.339025 Z M781.276276,60.5738874 L765.812342,103.456044 L773.649819,103.456044 L756.339792,134.411099 L756.339792,109.816388 L748.989083,109.816388 L748.989083,60.5738874 L781.276276,60.5738874 Z M220.526447,165.638018 L240.97716,165.638018 L241.004347,103.783576 L220.526447,103.783576 L220.526447,165.638018 M201.937361,85.1957848 L241.004347,85.1957848 C251.304142,85.1957848 259.592138,93.5109668 259.592138,103.783576 L259.592138,160.581331 C259.592138,169.142486 255.815805,172.376384 251.304142,174.931914 C255.815805,176.670555 259.592138,180.42229 259.592138,191.507905 L259.592138,261.731902 C259.592138,266.70703 261.605233,270.540325 264.130987,275.050693 L245.012412,275.050693 C242.987666,271.217398 240.975866,266.24486 240.975866,261.731902 L240.975866,184.227104 L220.526447,184.227104 L220.526447,275.050693 L201.937361,275.050693 L201.937361,85.1957848 Z M384.470041,256.462902 L365.880956,256.462902 L365.880956,149.929406 L384.470041,149.929406 L384.470041,256.462902 M384.470041,103.511711 L384.470041,131.339025 L365.880956,131.339025 C355.58116,131.339025 347.264683,139.658091 347.264683,149.928111 L347.264683,256.461607 C347.264683,266.705735 355.58116,275.049398 365.880956,275.049398 L403.085019,275.049398 L403.085019,103.511711 L384.470041,103.511711 Z M480.754231,228.306761 L480.754231,256.462902 L499.371798,256.462902 L499.371798,184.227104 L480.754231,184.227104 C470.482916,184.227104 462.167734,175.909333 462.167734,165.639313 L462.167734,111.555028 C462.167734,96.2555077 474.73566,83.6720468 490.023529,83.6720468 C505.431796,83.6720468 517.960884,96.2555077 517.960884,111.555028 L517.960884,131.941012 L499.373092,131.941012 L499.373092,103.783576 L480.755525,103.783576 L480.755525,165.638018 L499.373092,165.638018 C509.672888,165.638018 517.960884,173.870346 517.960884,184.22581 L517.960884,248.687566 C517.960884,264.014273 505.43309,276.570547 490.023529,276.570547 C474.73566,276.570547 462.167734,264.014273 462.167734,248.687566 L462.167734,228.306761 L480.754231,228.306761 Z M536.521489,276.248193 L536.521489,102.693527 L555.111869,102.693527 L555.111869,131.339025 L573.69966,131.339025 L573.69966,149.929406 L555.111869,149.929406 L555.111869,276.248193 L536.521489,276.248193 M620.144542,256.462902 L601.558045,256.462902 L601.558045,149.929406 L620.144542,149.929406 L620.144542,256.462902 M610.877832,129.793279 C595.522644,129.793279 582.940478,142.428524 582.940478,157.728044 L582.940478,248.68886 C582.940478,264.015568 595.522644,276.571842 610.822165,276.571842 C626.190299,276.571842 638.762109,264.015568 638.762109,248.68886 L638.762109,157.728044 C638.762109,142.428524 626.190299,129.793279 610.877832,129.793279 Z M655.827456,149.929406 C655.827456,139.658091 664.116747,131.34032 674.416542,131.34032 L693.034109,131.34032 L693.034109,149.929406 L674.416542,149.929406 L674.416542,275.050693 L655.827456,275.050693 L655.827456,149.929406 M331.706244,184.359153 L331.706244,157.728044 C331.706244,142.428524 319.151264,129.793279 303.821967,129.793279 C291.239801,129.793279 280.492075,138.35055 277.066578,149.873738 L312.992876,149.873738 L312.992876,149.929406 L313.115863,149.929406 L313.115863,165.719578 L275.898853,165.719578 L275.898853,248.68886 C275.898853,264.015568 288.453833,276.571842 303.821967,276.571842 C319.149969,276.571842 331.706244,264.015568 331.706244,248.68886 L331.706244,229.175434 L313.117158,229.175434 L313.117158,256.462902 L294.528072,256.462902 L294.528072,184.359153 L331.706244,184.359153 M94.9902976,60.0412547 L94.2820326,60.564405 L93.7711466,62.1169924 L94.7043854,63.4043638 L95.5694039,63.1150022 C96.4907617,64.3299374 94.8772358,66.960636 97.1342557,67.0817463 C97.190595,66.437869 98.4699178,66.6065035 97.8904283,65.8510975 L96.6072728,64.4506644 C96.2213297,62.761253 97.5972342,61.4574015 98.0713271,60.0416379 L104.14562,60.0416379 L102.299838,62.1817634 C102.818389,62.7616362 102.166463,64.4023736 103.462266,64.1613028 C104.729325,63.4691348 104.210007,60.8461013 106.229789,61.6103223 C106.632212,61.5382694 106.985962,61.1362293 107.167244,60.025541 L136.440665,60.025541 C136.20726,61.0714583 136.038625,61.4252076 136.15092,61.8276309 L138.0059,62.3592129 L138.415989,61.0718416 L138.054191,60.0094441 L144.035351,60.0094441 C143.806161,60.7817136 144.735568,62.1817634 143.806161,62.640526 L144.277188,62.8900284 L146.007225,62.7129622 L145.371396,60.1865103 L145.371396,60.0094441 L150.174414,60.0094441 C149.771608,60.7169426 151.047098,62.1813802 150.057903,62.4228341 L148.617994,63.2916852 L148.67395,63.9351793 C149.433572,63.9351793 150.009229,63.637386 150.817909,63.822884 C150.930204,64.5790566 151.976504,65.2708414 151.285103,66.0273972 L151.746931,66.8962483 C152.503104,67.0246405 152.973748,66.0837365 153.726088,66.0837365 L154.060291,65.0937751 L153.082977,64.1605363 L152.563659,64.2893118 L152.322588,62.8896452 L153.774762,62.7125789 C154.772772,62.9942752 155.16638,64.9328058 156.393196,64.1122455 L157.785581,65.4961985 C157.846136,66.3727147 156.912514,65.850331 156.494377,66.1393092 C155.930601,66.605737 154.877018,66.7191821 154.703785,67.4910683 L155.448076,68.5369856 L154.583058,69.6951982 C154.877018,70.8622258 156.550333,70.2750711 157.028642,71.3849929 L157.846136,70.7418821 C157.712761,69.759586 157.603915,68.5856597 158.412978,68.0061701 L159.688468,68.6500474 L159.748257,69.647674 C160.726337,70.3398421 161.42617,71.3853761 162.648771,71.6268301 C163.042762,72.246562 164.394521,72.6727475 163.694688,73.4293033 L162.367074,73.2441886 C161.494391,73.6059863 161.667241,75.1187147 160.513244,74.6438552 C159.812644,73.5419818 158.529489,74.0727973 157.652206,73.3645323 L156.328808,74.1850926 L156.441104,74.5392251 C157.19421,74.3625421 157.846136,74.2498636 158.586595,74.4269299 C159.350432,74.8289699 158.529872,76.2125396 159.748257,76.1002443 L160.513244,76.9208046 C160.448856,77.8061359 159.229322,77.9188144 159.410604,78.835573 L160.102389,79.6722303 L161.72358,78.7953307 C162.47592,78.9643485 163.232093,79.6082258 163.9806,79.2058025 L163.9806,77.8061359 C163.461666,77.5167744 162.761449,78.4979207 162.415365,77.6934573 L162.830053,75.939275 L164.145402,74.8293532 L165.786906,75.1831024 C166.486739,74.4748374 167.287753,73.8478235 167.335661,72.8498137 L167.862644,72.7697123 L168.735327,73.5423651 L169.543623,73.3652988 L171.29014,72.7379017 C171.744304,74.6043794 170.819114,76.1010108 169.897756,77.5171576 L168.791667,76.8571834 L168.562094,74.9424149 L168.21601,74.8780272 L167.640736,76.294174 C167.580564,77.0422981 166.353365,77.9195809 167.399665,78.498304 L168.2643,78.6753702 L168.2643,79.4882653 C167.978388,80.1313761 167.447573,80.7189141 167.697075,81.4758532 L168.043542,82.7628413 C167.640736,83.4546261 166.611682,83.9133887 167.138665,84.9110152 L167.657216,86.0772763 L168.808147,86.2942016 L169.624491,87.6543924 C169.796958,88.1694943 168.752191,88.8608958 169.796958,89.0460105 C170.392545,89.1667375 170.794968,87.6946347 171.314286,88.7570323 L171.551524,89.3441871 C171.314286,90.3901044 172.054745,91.2589555 171.957397,92.3688773 L171.084713,92.4735074 L170.903814,93.873174 C171.084713,94.3963243 171.990357,93.7371166 173.144354,94.5818223 L173.144354,99.2882587 C171.768449,98.7007206 170.960153,99.0069456 170.55773,98.5964738 L169.741002,98.3630683 L168.940755,100.109202 C168.884416,101.058538 171.084713,101.283129 169.914619,102.3942 L169.452024,103.263051 L168.752191,103.745959 L166.913308,104.325065 L166.676453,105.017234 L168.413772,105.419274 L169.986672,104.662718 L170.55773,103.793867 L171.370625,104.324682 L171.257563,105.837411 C170.622118,106.641874 169.452024,106.529195 168.703517,107.124399 L169.2305,107.969488 C168.884416,109.039934 167.424194,109.924498 168.124027,111.131385 C169.161513,111.646487 170.212029,112.177302 171.257563,112.708501 C171.257563,114.108168 169.395302,113.74637 168.530666,114.381816 C168.752191,115.090081 169.568535,115.604799 170.324708,115.604799 C171.008444,116.087707 170.276417,117.310308 171.257947,117.535665 L171.88956,119.176785 C171.551907,119.9732 169.82187,119.048393 169.71724,119.88505 C169.82187,121.662995 167.863027,122.620379 168.216776,124.406372 L167.227581,125.002342 L165.606007,123.71497 C164.962513,124.245786 164.319019,125.41243 163.329824,124.937954 L162.054717,124.406372 L161.133359,125.870809 C161.197747,126.69137 163.281533,127.447159 161.772638,128.09142 L162.179277,128.606138 C163.523371,128.549416 163.75256,126.578308 165.192852,127.334864 L166.403188,127.029022 L166.700982,128.09142 L165.554267,128.798918 L166.008814,128.847209 C166.190479,129.362311 164.846385,129.933369 165.788056,130.118483 L166.298558,131.469476 C166.825925,131.976529 167.517709,132.451772 167.228348,133.272332 C167.228348,134.55932 165.844395,134.31825 165.144178,134.865545 L165.498311,136.112291 L166.653457,136.297023 L166.190479,137.648782 L165.844395,138.405337 C165.55465,139.435541 165.606774,140.537414 165.606774,141.655001 C165.088222,142.137909 163.869071,141.783777 163.982133,142.830078 L164.319785,142.998712 L164.681966,142.74921 L165.952858,143.232118 L165.844395,144.406427 C165.663113,145.276428 165.844395,146.088557 166.298942,146.78839 L167.864177,146.144129 C168.439067,147.367496 167.228731,148.349409 166.653841,149.178018 C165.953241,149.121295 165.719452,148.011757 164.846768,148.349409 L164.146935,148.99252 L163.580093,149.120912 L161.669157,149.571243 L162.120255,151.325425 L163.636432,152.557224 C163.869455,153.722718 162.301153,153.602758 162.236766,154.648292 L162.591282,154.648292 L163.283066,155.750165 L162.832352,156.860854 C161.773787,156.748558 160.728636,157.278607 159.915358,157.85848 L160.382552,158.839627 C160.277922,159.7652 158.809652,160.593809 160.028803,161.414369 L161.726263,161.012329 L162.18081,162.702124 C162.301537,163.562543 163.416441,162.926714 163.58086,163.747658 C163.463965,164.439826 163.33174,165.251955 162.534942,165.549748 L162.30192,167.931711 L162.592048,168.639209 L163.870604,169.218315 L163.046211,170.972498 L163.046211,171.31015 L162.057017,172.259869 L161.316558,172.81483 L159.751323,172.887649 L158.416044,173.644205 L158.014004,175.284943 L157.136721,176.507926 L157.197276,178.012223 C157.716211,178.245628 158.06996,179.178484 158.810419,178.712056 C159.164551,179.597387 158.416044,180.17611 157.889061,180.747552 L156.61817,180.578534 C155.169829,180.868662 155.926385,182.863532 154.296762,182.686849 L154.06374,184.134423 L153.086426,185.003274 L153.307184,186.821844 L154.296762,186.178733 C153.902387,184.95575 155.39097,185.470085 156.042513,185.35779 C157.607365,185.646768 155.986557,187.868528 157.426849,188.206563 L156.971536,189.557173 C156.331874,189.951931 155.926002,191.246967 154.939873,190.659429 L154.063357,191.311355 L154.586124,193.10578 L153.729154,193.579873 L153.777828,194.489349 L152.844206,195.382346 C152.795915,196.428647 153.596546,197.490661 152.912809,198.407419 L152.377395,199.623121 L151.625821,199.405046 C151.175107,200.338285 151.288169,201.513361 151.521191,202.494507 C151.288552,203.299354 151.339909,204.184302 150.656556,204.75536 L148.793911,205.27851 L148.158465,204.586342 C147.687822,204.988765 146.931266,204.297364 146.766464,205.05277 C146.593614,206.098687 145.712498,207.257283 146.420763,208.142614 C146.87531,208.786875 148.158465,208.609042 147.80395,209.671056 L147.687822,210.170061 L146.874927,210.242114 C146.355992,210.700877 146.476719,211.876336 145.43885,211.586208 C144.972039,211.916578 145.491357,213.210848 144.376453,212.624077 L144.328545,212.334332 L143.858285,212.27761 C143.282628,212.857482 142.019785,213.259906 142.349006,214.433832 L142.928495,215.069278 C142.176155,215.721203 142.417993,216.759072 142.48238,217.571201 L143.636377,217.877809 L143.338967,219.495551 C142.349389,218.159122 142.064243,220.307679 141.082714,220.186952 L140.860806,221.481989 L141.428031,222.54477 L140.957388,223.461911 L139.919902,224.338428 C140.555348,224.966208 141.484371,224.676463 142.176155,225.456781 C142.69509,225.859205 143.395306,224.925966 143.740624,225.859205 L143.636377,227.323259 C141.773732,227.596907 139.746668,230.798663 138.117429,228.353463 C138.173768,227.596907 138.35505,226.840351 138.009349,226.149333 L137.373521,225.9715 C136.500454,226.663668 137.546754,228.240018 136.500454,228.594533 L135.587144,228.763168 C135.060161,229.350706 136.138273,231.329479 134.589901,230.799047 L134.126923,230.799047 C134.070967,231.281955 133.724499,232.328255 134.589901,232.262718 C135.233012,233.252679 135.289734,234.587958 135.92518,235.634642 L134.879263,235.530395 C133.825297,234.990764 133.599556,233.42208 132.207555,233.961327 L131.278532,234.419323 C131.459431,235.223787 132.436362,235.755369 132.267727,236.575546 L132.4973,237.573172 L131.170069,238.667764 L131.226025,239.77002 L129.950918,240.06743 L129.540447,239.665007 L129.021512,241.459432 L129.078235,241.997912 L128.095939,242.04697 C127.520665,240.711691 126.293465,241.596639 125.320368,241.596639 L124.556147,243.334341 C124.901847,243.977452 126.120998,244.379875 125.492835,245.313114 C125.083129,245.94856 124.08512,246.06967 124.08512,246.994094 C123.517894,247.533724 123.10359,248.11283 123.047634,248.990113 L123.465771,250.38978 L122.585039,250.91293 C122.355083,250.156374 121.373936,250.438071 120.782566,250.204282 C119.627419,250.735481 120.272063,252.81965 118.522096,252.601575 L118.880062,253.246219 L119.049079,253.246219 C118.183678,253.648259 117.254655,253.648259 116.257028,253.777034 L115.4449,253.93762 L114.471418,254.469586 L113.372994,253.246602 L113.01158,253.358897 L112.914232,253.125492 C111.973328,253.125492 110.581326,252.71502 110.186952,253.865951 C110.360185,255.16137 111.917372,254.808004 112.789672,255.338053 L113.537796,255.804481 C112.725285,256.51313 110.926644,255.861204 110.926644,257.446368 L109.77303,257.446368 L109.253713,256.208054 L107.978606,256.899073 L108.333122,258.364277 L108.843624,258.943383 L108.441584,259.248458 C108.151073,260.045256 106.932305,260.294376 107.395284,261.397015 C105.307665,261.983787 102.765499,261.735051 101.248555,263.489233 L101.304894,265.315469 C101.248555,266.175505 101.36085,267.294242 100.391585,267.809727 C98.8665923,267.101078 98.5852792,270.29517 97.2534497,268.565516 C95.9266025,268.565516 94.6311827,268.098705 93.3637409,268.388833 L92.611401,269.900795 L91.3926332,270.078244 L90.6927999,271.23684 L89.3770673,270.665016 L87.2814001,270.495998 L86.8713115,271.542299 C87.0441619,272.523828 87.8612729,273.280001 88.1985419,274.277627 C88.9064237,274.922271 89.7151029,273.094886 90.3390507,274.342015 C91.3926332,274.342015 91.979788,275.372219 92.957485,275.492179 L92.7198636,276.546528 C91.6900432,276.610916 90.3988393,278.123645 89.5418693,276.772269 L88.4921193,276.659973 L87.0916862,277.181974 C86.8142058,276.321938 87.4542504,274.744439 86.2956546,274.342015 L84.7787103,275.612906 L84.4406747,276.610916 C83.3345855,276.659973 82.1154345,276.659973 81.3673104,275.782307 L80.79242,277.012956 L81.6486235,278.412623 L80.6590454,279.749051 L80.0922034,279.990122 C79.2750925,279.861347 80.0316483,278.767139 79.1589646,278.992496 L78.4024088,280.271435 C78.1207125,281.671102 81.1860283,282.146345 79.5042821,283.610399 C79.8499829,284.30295 78.7036514,285.453114 79.9143707,285.814912 L79.1585814,286.788393 C77.9957696,286.394785 77.3561082,287.617002 76.4991382,288.140152 C76.844839,288.83232 78.8688366,288.140152 77.9957696,289.539819 L76.4991382,290.231987 C76.0767853,291.277904 77.2959363,292.10613 77.4764519,293.152431 L76.7283278,293.90822 L75.6824105,293.619242 C75.2596744,294.440185 76.0764021,295.307886 75.7383665,296.306663 L75.7383665,297.529646 C75.795089,298.108753 75.9595077,298.929313 75.2113836,299.218291 L73.1919851,298.841163 L73.6549635,300.191772 L74.5276472,300.264592 C75.0385332,300.972474 75.795089,301.647778 75.8629261,302.404717 C76.4378165,303.925494 78.2284086,301.535483 77.9950031,303.635366 C77.2384473,304.174997 76.3734288,304.57627 75.5084103,304.866398 C74.4023211,306.370695 77.3549584,307.022621 77.1215529,308.470195 L76.7275613,309.179226 L75.9591244,309.460156 C76.4378165,310.40221 76.5550942,311.962079 77.890373,312.090855 C77.4193461,314.070394 74.8649163,315.591171 75.8625428,317.852023 C77.600245,319.138628 77.9946198,321.158793 79.6683175,322.356865 L79.9132209,323.387069 C79.5031324,323.845065 79.0405372,324.786735 78.1755187,324.553713 L77.9950031,327.98121 L77.3798703,327.940967 L70.983256,327.98121 C71.7436444,328.166325 71.2726175,325.543674 71.6106531,325.245881 C72.0330059,324.384695 73.0632096,323.693294 73.0632096,322.694901 C72.845901,322.051407 71.4454679,322.356865 72.1456845,321.359622 L72.4430945,319.477047 L70.9828727,318.848884 L69.2451706,319.404611 C69.132492,318.374407 71.2162783,317.802966 69.9369554,316.934498 L70.6896786,315.711515 L70.0051757,313.893328 L68.5372888,314.311848 L68.3721036,316.581516 L66.8072518,317.377547 C66.2802689,316.822586 65.4075852,316.178326 65.8866606,315.229757 L66.461551,313.492054 L65.3669596,313.242552 L63.741936,313.84542 C63.9067379,312.317362 61.1307836,310.675474 63.4479753,309.694328 L63.4479753,308.358666 L62.5147365,308.133309 L62.225375,309.066548 L61.6504846,308.358666 L61.7589472,306.910325 C62.6400626,306.661589 62.3418861,305.679293 62.9773317,305.2052 C62.6400626,304.617662 62.3982254,303.926261 62.2935953,303.17737 C63.2670765,302.871912 63.741936,301.825611 63.9063547,300.901187 L62.6879702,299.39689 L62.1042647,299.734926 L62.3415029,301.070205 C61.3120657,301.761607 60.7850828,300.619874 60.0365755,300.192539 L59.7307337,298.84193 L60.8935455,297.707096 C61.4768676,296.484112 61.5328236,294.842225 62.9213757,294.263502 C63.5606539,293.748784 62.7439262,292.573707 63.6932619,292.220341 L62.3982254,290.925305 L60.9985588,291.463786 L60.7854661,292.397024 C60.0369587,292.220341 59.2206143,291.399398 58.8745302,290.659322 C58.9711118,290.128507 58.5686885,289.186453 59.3934647,289.018585 C59.8480114,288.438712 59.6747777,287.618152 59.7878395,286.862363 C59.1638918,285.863969 57.4139253,285.929124 57.6473308,284.4804 L59.5659318,283.884813 C58.874147,282.839279 57.3092952,282.083107 57.7032868,280.795352 L58.7411557,280.521704 C58.4031201,279.571985 58.7411557,278.518786 57.868472,277.874909 C56.6654179,277.705891 57.0118852,279.226284 56.3116686,279.749818 L55.627549,279.990889 L55.5554961,278.301094 C56.6090786,277.593596 56.2553294,275.452704 57.9409082,275.968189 L59.1635085,276.66074 L60.3830428,275.492946 C60.4309503,274.504134 60.2013774,273.281151 60.9498847,272.588983 L60.4309503,271.607453 C59.5659318,271.695603 59.220231,273.047745 58.2869922,272.878344 C58.4031201,271.767656 58.9707286,270.722122 58.8017108,269.500288 C59.5659318,268.565899 61.312449,269.724878 61.6504846,268.437507 C61.4285768,267.560991 61.9394628,266.225712 60.9985588,265.589883 L60.3228709,265.074015 C60.2017606,264.254221 61.2484445,264.471146 61.593762,263.964093 C61.7589472,263.135484 63.0421027,264.116631 62.9773317,263.094859 L63.323799,262.105281 C64.2041479,261.517742 65.3067878,261.453355 66.2243129,262.040893 C66.8635911,261.984554 67.7401074,262.257818 68.1509624,261.341059 L68.0865747,260.874248 C67.3261863,260.1656 66.517507,259.996966 65.5961493,259.827948 L65.407202,258.365043 L64.5509985,258.365043 L64.4942759,257.73688 C65.307171,256.739253 66.8072518,257.157007 67.4994199,256.047468 L66.8635911,255.628565 C67.0969966,254.695326 68.0865747,254.116603 68.1992532,253.174932 L69.132492,252.314513 C69.2976772,251.4219 69.1892146,250.608621 68.7783595,249.916453 C68.1513457,250.334974 67.2702303,250.391313 66.5178903,250.270586 L67.3265695,248.935307 L68.2674735,249.450026 C69.9369554,248.806532 68.6537999,246.538014 70.3432113,246.119494 L70.9828727,246.948102 L72.4917685,247.133217 C73.0632096,246.304608 74.527264,245.950476 74.0566203,244.598717 C73.654197,243.906549 71.9724508,244.332734 72.6078964,242.998222 C73.5978577,242.048503 75.5647496,242.579318 75.9108336,240.954295 L77.3553417,241.460965 C78.175902,241.15474 78.8197793,241.999445 79.4467931,241.356335 C79.9136041,241.002202 79.8492164,240.197739 80.598107,240.197739 L81.1365877,239.908761 L80.6578956,239.079385 L79.6280752,238.492997 L79.6280752,236.86759 L80.3198601,236.577462 L81.5386278,235.989924 L81.4746233,235.282425 C82.4040295,235.225703 83.3334358,237.108661 84.1417317,235.757285 L84.6123754,234.655412 C85.4210546,234.655412 86.5796505,234.992297 87.0422456,233.890041 L87.0901532,233.375322 L86.1772271,232.900463 L86.5796505,231.854545 L85.7671386,230.398156 L85.0749705,229.883438 C84.1417317,228.885811 82.2388443,228.01696 82.9873517,226.367408 C83.4986209,225.386261 84.8342831,224.927499 84.7775605,223.832907 L85.1316931,222.940294 C86.1293196,222.585778 87.0422456,223.57574 87.9716518,223.253801 C87.8593566,222.658598 87.2794838,221.942284 88.136837,221.661355 C89.0700758,221.2505 90.7598705,222.063778 91.5719991,220.952706 L91.1055713,220.019084 L92.6098679,219.102326 C92.5539119,217.750567 90.8721658,217.186791 91.1055713,215.787124 L92.6098679,215.015238 C92.7949827,214.194294 91.978255,212.568887 93.3622079,212.150367 C94.4081252,211.587741 94.9351081,213.968937 95.7920782,212.697663 C95.2248529,211.918111 94.0624245,211.273851 94.2831824,210.243647 C94.2352748,209.415038 95.1079585,209.141391 95.2808089,208.369504 C95.7357389,207.258816 95.7357389,205.698563 97.2519166,205.344048 L97.4209344,204.475196 C96.9706036,204.298513 96.0212678,205.231752 95.8645144,204.249839 L95.8645144,202.673107 L97.4209344,202.190199 C97.4209344,201.44974 96.3190611,201.618757 96.1542591,200.805862 L95.7924614,200.050073 L96.4922947,198.988059 L95.9254527,197.185969 C94.9918307,197.136912 93.7163404,196.888176 93.2541285,196.02699 L93.1897408,195.334822 C94.465231,195.270817 94.2835656,193.693318 95.1083418,193.049824 L94.4085085,192.358422 C93.1897408,191.939902 93.3024193,194.2249 91.9786382,193.460679 C91.9188496,192.061012 91.4516553,190.18572 92.7271456,189.381256 L93.2541285,189.260529 C93.0732296,188.560696 92.3166738,188.094268 92.6708063,187.217369 L91.6888934,186.758223 C90.5870201,187.691462 89.653398,186.219742 88.6074807,186.1795 L88.3300002,184.956516 L89.0704591,183.620854 L88.152934,183.025651 C87.4531007,183.733149 87.223911,185.068811 86.0128085,184.602 L85.3125919,183.266338 L84.9592259,183.266338 C84.488199,183.733149 85.1320763,184.77945 84.2670578,184.956133 L83.5587928,186.066055 L82.9873517,185.422944 C82.8746732,184.779833 83.3334358,183.668762 82.5768799,183.266722 C80.8959003,183.894885 81.136971,186.066438 80.8472262,187.643554 L81.3094381,188.158273 C80.4367544,188.431921 79.0409204,188.850441 78.1195627,188.20733 L78.401259,187.691845 C77.9950031,187.217752 78.3407039,185.88209 77.3633901,186.179883 C76.7275613,186.927624 76.1438559,187.92525 75.0948724,187.981973 C74.4027044,187.869678 73.5978577,188.311194 73.308113,187.563453 C72.8980244,186.589972 73.9358933,186.758989 74.4027044,186.646694 C75.4486217,186.646694 75.8629261,185.42371 77.0173061,185.600393 C78.7025016,185.00519 80.6176533,183.790638 81.0196933,181.867438 C81.8287558,181.287565 82.8137348,181.979733 83.7316432,182.044121 L84.5564194,181.336623 L84.6606662,180.580067 L85.7142487,180.749085 L86.0522843,180.177644 L85.3685479,179.132109 L85.0745873,177.78035 L83.8519869,177.731676 L82.709488,178.53614 C81.3090549,178.423844 82.1744566,176.614089 80.846843,176.445072 L79.4464098,175.567405 L80.0301153,174.465532 L80.9553056,173.75765 L80.61727,171.95556 L79.8488331,171.665816 L79.4464098,172.953187 C78.2843646,173.419998 76.9571342,173.419998 75.8625428,172.889182 C74.9212555,172.478327 75.7376,171.834833 75.9587412,171.311683 C75.8625428,170.668572 76.3730455,169.912017 75.4478552,169.623038 L75.4478552,168.28661 L75.3918992,167.080873 L75.3918992,166.08248 L73.7021045,166.420515 L72.1453012,165.197532 C71.0514763,165.439369 71.3891287,167.289366 70.1178543,166.991956 C69.4176377,166.244215 68.3234296,165.600721 68.19887,164.611143 C67.6155478,164.10409 66.8632078,163.508887 66.8632078,162.640036 C65.9981893,163.210327 64.4938927,163.041309 63.4475921,163.041309 C62.9209924,162.640036 62.7036838,162.856961 61.9551765,162.856961 C61.247678,163.194997 61.4281936,164.135517 60.6198976,164.473553 L59.517641,163.958834 L58.9906581,163.089983 L58.1179744,164.779778 C58.4119351,165.286831 59.5739803,165.068756 59.1029534,165.946039 L57.8845689,167.064393 L57.4215905,167.064393 C56.8467,166.331982 58.2981068,165.583858 57.4215905,165.11743 C56.6171271,165.181435 55.6271658,164.329064 54.9273325,164.151231 C55.0522753,163.20956 53.8212432,162.751564 54.2754067,161.753938 C55.1001829,161.640876 55.9652013,161.70603 56.6086954,162.284753 C57.5863924,161.70603 56.6646514,159.597715 58.2862257,159.726108 L58.8009443,159.597715 C59.5651653,159.324068 60.2006109,158.785204 60.8326071,158.366683 C60.6110826,157.26481 59.2758038,157.723573 58.4027368,157.26481 C58.6361423,156.677272 59.5655485,157.103457 59.6222711,156.322756 C58.567922,155.751315 57.7029035,157.103457 56.5400918,156.750091 L56.484519,154.770169 C57.0674579,154.190296 57.8841856,153.660247 58.1735472,152.855784 C56.6646514,152.03484 55.0518921,152.742722 53.7166132,153.482797 L53.5349478,154.593486 L54.1106048,155.945245 L53.5349478,156.862003 L53.189247,157.521594 C51.781532,156.812946 51.8137258,156.202413 51.468025,155.912284 C50.0154685,156.202413 50.4700152,156.45958 49.7015783,155.41328 L48.2053301,153.660247 C48.1532067,152.742339 48.3785638,151.559597 47.5614528,151.037214 C46.5159188,150.763566 46.4595795,152.742339 45.4136622,151.79262 C45.248477,150.923768 45.7831251,149.089868 44.2508504,149.299511 L42.8826112,150.819138 L40.7551333,151.406676 C40.7551333,151.406676 38.5142103,149.732979 39.4033742,148.703158 C40.1311855,147.866884 39.749075,146.515125 39.749075,146.515125 C38.0037076,144.39148 35.1235065,145.758569 34.7766559,143.473572 L34.8333784,142.55643 C35.8145248,142.733113 37.6012843,143.924669 36.7121204,140.77082 C34.957938,139.612224 33.9442146,134.784677 31.9163843,135.06599 C31.4376922,136.008044 30.275647,135.685722 30.275647,137.423425 C32.4598474,140.094749 30.3438673,140.609467 33.3003373,141.720156 L33.5299102,141.937081 C33.6464213,142.749593 33.1761609,143.586633 32.5403321,144.117449 C31.1483307,143.827704 31.4622209,141.671098 30.2752638,141.880742 C28.7422226,142.250205 28.9675796,145.96783 27.7729573,146.112702 C26.4533921,145.565406 27.1697056,143.601964 25.825995,144.39148 C25.1261617,143.675166 25.0460603,142.830461 25.6286159,141.092759 C26.2238192,140.706816 26.0509688,139.87744 25.4392853,138.58202 C24.6309894,138.46206 24.832201,138.293042 24.1404162,137.536486 L24.0798611,136.820173 C24.5987955,136.072049 25.5404661,136.111908 25.9425061,135.299396 L25.3591839,134.31825 C24.5505047,134.068747 23.5528782,133.666324 22.7361505,134.068747 C23.4359838,134.897356 21.7668852,135.606004 22.7361505,136.184727 L22.112586,137.536486 C21.5856031,138.678985 21.3606293,139.909634 20.2583727,140.7873 C19.0955609,141.937464 17.0604488,139.966357 16.3763292,141.889557 C16.0141482,142.999479 16.7224132,144.922295 15.1414645,145.098978 L14.1679833,144.858291 L12.7683167,145.549693 C12.0838138,144.810383 11.5572142,143.925052 11.1551742,143.055435 L12.0838138,142.412324 C12.4824046,143.16888 13.5283219,143.16888 14.2768293,143.055435 L14.4017721,142.058958 C13.7578948,141.479085 12.7284577,141.141049 12.5954663,140.143423 C12.5954663,139.386867 13.1749559,138.808144 13.3715684,138.099496 L12.8284886,137.53687 L13.4198592,136.466424 L14.6865345,135.606004 C15.793007,135.775022 16.7825851,135.251872 17.5391409,134.374589 L16.8872151,133.513786 C17.3019028,132.51616 18.6375649,132.74075 19.3170854,131.871899 C20.1334298,131.871899 21.0670519,131.759604 21.5254312,132.628455 L22.6238552,132.628455 C23.2719484,131.976529 24.3780376,131.276696 24.0802443,130.118483 C21.3368672,128.412975 19.8203062,131.036008 19.023508,131.036008 C15.9099014,130.23921 17.5632863,128.348587 16.4131221,127.817772 L11.3525532,123.890887 L9.83560895,124.076002 L9.5378157,123.552851 C9.48990817,122.635709 9.73097889,121.678708 9.36879791,120.817522 C8.50799529,120.632791 8.09790678,121.372483 7.75220599,120.205839 L7.30954035,118.307168 L7.67133807,115.298191 C8.3389775,114.960155 8.68544481,114.807235 9.49757337,114.911865 C9.91226101,114.622503 9.75474103,115.571456 10.7086759,115.104645 L10.89724,113.319035 L11.2958307,111.967276 L10.0613493,111.903271 C9.94407162,113.416 9.0108328,113.335515 8.47618469,112.869087 L6.10303694,114.622503 L7.57092387,116.118751 C8.38803482,117.084567 7.84457172,117.760638 7.32563728,118.001326 C6.44835447,118.065714 5.64389111,118.283022 4.89155115,117.824643 C3.7896778,117.309541 2.66710839,118.322881 2.20068061,117.406123 C1.21876774,117.204911 2.42948701,113.576202 0,114.147644 L0,107.8158 C2.19224889,107.614589 2.05197562,107.220597 1.98298877,106.818174 L0,106.287358 L0,96.1497401 C1.68174618,95.9646254 2.72766352,95.4418584 3.35889323,95.4901492 L4.37261671,96.2620354 L4.4895111,97.2278513 C5.0647848,97.9755922 5.14948533,97.1308865 5.53542844,97.9920724 L6.9876017,98.3860639 L7.75220599,97.3884374 C8.53635655,97.1308865 9.78770142,98.3860639 10.4710545,98.1929008 C10.9577951,98.2894823 11.428822,98.1929008 11.5330688,97.2274681 C10.9581784,96.1815507 9.81989528,97.6536535 10.2901557,95.7948411 L10.6362397,94.9183248 C10.0613493,93.7520637 7.90857619,94.8619855 9.12811045,93.1641424 C9.87585128,92.013595 11.2720685,92.2872429 12.3179859,91.7077533 C13.1749559,90.8389022 12.9089733,89.4308039 13.8510271,88.9237505 C14.5508604,88.5535211 14.6715874,91.4337222 16.6024527,91.4337222 C17.4831849,91.1363122 17.0363034,89.9217603 17.318383,89.519337 L18.9234771,89.092385 C19.3780238,89.7523593 19.796544,90.9994883 21.1965939,90.8546159 C21.8803302,90.5487742 21.1322062,87.8291591 21.823991,86.5095939 C23.127076,85.9301043 24.6597339,85.0777335 26.4622071,85.2065089 L27.9630544,85.4479629 C27.7292656,86.07536 28.3735262,87.0729865 27.4517852,87.2343391 C26.5791015,87.1216606 26.775714,87.9583178 26.0157088,88.2484459 C25.2192939,88.2963534 24.692311,88.8275522 24.450857,88.1192872 L23.8752001,88.7554992 L24.2860551,89.6799231 C25.4400519,90.0907781 26.3456959,89.1652045 27.335274,88.4013667 C28.2604644,88.2967367 28.7793988,89.277883 29.3063817,89.9221436 C30.2193078,89.9700511 30.4082551,88.6512524 31.2652251,88.5703845 C31.5024632,87.990895 32.5407154,87.7655379 32.033662,86.9449776 C31.50208,86.2930518 29.7084218,86.7200038 30.2193078,85.3843417 L31.0919914,84.3863319 L30.8106784,82.6003389 C32.5686934,82.0208493 33.3007205,83.9839086 34.6363827,82.8659383 C35.2112731,83.0506698 35.8471019,82.8099823 35.9674457,83.5577231 L36.1445119,84.3219442 C36.9489753,83.9839086 38.111787,84.1613581 38.5142103,83.0993438 L38.9204662,81.6349062 C38.1121703,80.5410813 37.3556144,82.1580565 36.3740848,82.0699067 L35.7298243,81.4103157 C35.6738683,80.2513366 35.7298243,79.1007892 36.8240324,78.3204712 C37.7572712,78.2564667 38.0270865,78.3204712 38.7874749,78.6742204 L39.6436784,79.5430715 L40.3680404,78.5450617 C41.0678737,78.0705855 41.4216229,78.4251012 42.1743461,78.3848589 C43.268171,79.1007892 41.5300856,81.8679285 42.8373864,82.4393696 L44.6678376,81.8844087 C44.7283927,80.9431214 43.5740127,80.1302263 44.6678376,79.3180977 L46.5622933,80.5406981 C47.2705583,80.4123059 47.5599198,79.7201378 48.3164756,79.7201378 C49.4225648,78.1426384 50.4125262,80.3636318 51.5626903,80.3636318 C52.6005592,80.2348564 51.961281,78.8995775 52.1337482,78.2717971 C51.5626903,77.4512368 50.4684822,77.5156246 49.58775,77.5639154 L47.9623431,78.0303431 L47.7327702,76.8073595 C48.3164756,76.517998 48.7710223,75.2953977 49.643706,75.4720807 L50.9310774,75.6893893 C52.2621404,75.2953977 51.4500118,71.8514207 53.4249521,73.6458454 L54.5873806,74.6434719 L55.5003066,73.4772108 C56.0878446,74.2893394 56.3653251,75.4080762 55.8544391,76.2125396 L55.6248662,76.6310598 L57.0651584,77.4520034 C56.8444005,76.5183813 57.7573265,76.2125396 57.7090357,75.4080762 L59.6720949,74.7162914 C60.4286507,74.5392251 60.5451619,75.6897725 61.3097662,75.0700406 L61.8126037,74.2893394 L61.128484,73.605603 C61.2457617,72.6723642 63.0394199,73.6458454 62.403591,72.3182317 C62.5887058,71.9081432 62.4641462,71.0469573 63.2889223,71.1600191 L64.1462756,72.3182317 C64.721166,71.6747377 66.6401503,72.0928747 65.8839778,70.6288203 L66.8612915,69.7592027 L68.265174,69.1160919 C67.9114247,68.2951484 69.8867483,67.2496143 68.1969537,67.1285041 L67.6136315,67.7160421 L66.5838111,66.6701247 L66.9858511,65.3344626 L69.2424877,65.1577796 L70.1757266,66.138926 L71.9214772,66.7187988 L71.6719748,67.7164253 L70.5781499,68.4239238 L71.2139787,69.1724312 C72.3767904,69.4058367 73.8251311,69.0034134 74.8143259,69.864216 L75.6793444,68.1108002 L76.6689225,67.6037468 L77.3085839,68.1108002 L78.5273517,67.7727646 L79.0987928,67.6681345 L79.9109213,68.9394089 L80.3735165,68.4243071 C80.7885874,68.0705579 81.7659011,68.7623427 81.6608878,67.7727646 L81.6608878,65.9787232 C82.457686,65.5602029 82.811052,66.670508 83.4955549,66.3167587 L84.6579833,65.9787232 C85.3095258,65.3344626 85.0803362,64.1601531 85.6636583,63.4039805 L85.8767511,62.5991339 C86.749818,62.7118124 87.9045813,62.3584464 88.4392294,63.291302 C89.067393,63.9830868 89.6503319,62.7604865 90.4670596,63.1142357 C91.512977,62.5991339 90.7242273,60.0887789 91.8747747,60.0404882 L94.9902976,60.0404882" id="Combined-Shape"></path>
                </g>
            </g>
        </g>
    </g>
</svg>