<?xml version="1.0" encoding="UTF-8"?>
<svg width="800px" height="400px" viewBox="0 0 800 400" version="1.1" xmlns="http://www.w3.org/2000/svg" xmlns:xlink="http://www.w3.org/1999/xlink">
    <title>redstorm_1</title>
    <g id="Page-1" stroke="none" stroke-width="1" fill="none" fill-rule="evenodd">
        <g id="Manufacturer" fill="#000000" fill-rule="nonzero">
            <g id="AF159_INCREMENTAL" transform="translate(-0.000000, 0.000000)">
                <g id="redstorm_1" transform="translate(0.000000, 0.000000)">
                    <line x1="0" y1="0" x2="800" y2="400" id="Path"></line>
                    <path d="M3.73034936e-14,375.507826 L3.73034936e-14,331.252897 L22.0357354,331.252897 L22.0357354,336.959135 L9.93788819,336.959135 L9.93788819,348.404495 L21.5805517,348.404495 L21.5805517,354.214577 L9.866928,354.214577 L9.866928,369.765243 L22.2174627,369.765243 L22.2174627,375.507826 L3.73034936e-14,375.507826 M75.3545305,331.252897 L82.8555419,369.041795 L82.8555419,331.252897 L91.0125024,331.252897 L91.0125024,375.507826 L76.3514346,375.507826 L68.5406214,337.649699 L68.5406214,375.507826 L60.4200064,375.507826 L60.4200064,331.252897 L75.3545305,331.252897 M521.349715,331.252897 L528.871495,369.111024 L528.871495,331.252897 L537.009417,331.252897 L537.009417,375.507826 L522.348349,375.507826 L514.539267,337.649699 L514.539267,375.507826 L506.543265,375.507826 L506.543265,331.252897 L521.349715,331.252897 M721.395146,331.252897 L728.951541,369.111024 L728.951541,331.252897 L737.053118,331.252897 L737.053118,375.507826 L722.426665,375.507826 L714.581237,337.649699 L714.581237,375.507826 L706.590427,375.507826 L706.590427,331.252897 L721.395146,331.252897 M153.921308,331.252897 L153.921308,336.959135 L145.331663,336.959135 L145.331663,375.507826 L135.464735,375.507826 L135.464735,336.959135 L126.800669,336.959135 L126.800669,331.252897 L153.921308,331.252897 M193.797473,375.507826 L193.797473,331.252897 L215.904169,331.252897 L215.904169,336.959135 L203.695555,336.959135 L203.695555,348.404495 L215.416101,348.404495 L215.416101,354.214577 L203.695555,354.214577 L203.695555,369.765243 L216.087627,369.765243 L216.087627,375.507826 L193.797473,375.507826 M265.932834,349.565819 L267.805491,349.565819 C271.220234,349.565819 272.002527,348.330073 272.002527,346.656451 L272.002527,338.736601 L268.241637,336.559335 L265.932834,336.559335 L265.932834,349.565819 M256.05206,375.507826 L256.05206,331.254628 L269.058544,331.254628 C277.070123,331.254628 281.900608,333.071901 281.900608,338.811023 L281.900608,345.136864 C281.900608,348.406225 280.44852,351.161558 272.037141,351.743085 L272.037141,351.890198 C276.471288,352.219038 281.121777,353.269594 281.502539,357.265865 C282.082335,363.188445 281.502539,369.365443 283.136354,375.506095 L273.238273,375.506095 C271.56465,370.421192 271.964451,363.733627 272.002527,358.539687 C272.002527,355.96089 270.476017,354.867064 265.932834,354.941486 L265.932834,375.506095 L256.05206,375.506095 L256.05206,375.507826 Z M347.753396,331.252897 L347.753396,336.959135 L339.16029,336.959135 L339.16029,375.507826 L329.262209,375.507826 L329.262209,336.959135 L320.596412,336.959135 L320.596412,331.252897 L347.753396,331.252897 M400.964885,357.703741 L398.946847,339.316398 L398.27359,339.316398 L395.857482,357.703741 L400.964885,357.703741 M391.352376,331.252897 L406.195171,331.252897 L413.71522,375.506095 L403.742717,375.506095 L401.927175,363.517284 L394.895193,363.517284 L392.733503,375.506095 L383.813288,375.506095 L391.352376,331.252897 Z M454.607328,331.252897 L464.543486,331.252897 L464.543486,375.506095 L454.607328,375.506095 Z M586.165791,375.507826 L580.317633,339.39082 L580.317633,375.507826 L571.650105,375.507826 L571.650105,331.252897 L586.240213,331.252897 L591.070698,363.262866 L595.124083,331.252897 L609.781689,331.252897 L609.781689,375.507826 L601.079547,375.507826 L601.079547,339.39082 L595.231388,375.507826 L586.165791,375.507826 M646.130614,375.507826 L646.130614,331.252897 L668.149042,331.252897 L668.149042,336.959135 L656.033887,336.959135 L656.033887,348.404495 L667.638475,348.404495 L667.638475,354.214577 L655.997542,354.214577 L655.997542,369.765243 L668.26154,369.765243 L668.26154,375.507826 L646.130614,375.507826 M800,331.252897 L800,336.959135 L791.406894,336.959135 L791.406894,375.507826 L781.524389,375.507826 L781.524389,336.959135 L772.894937,336.959135 L772.894937,331.252897 L800,331.252897 M733.892794,112.605511 L733.892794,140.726515 L754.512787,112.605511 L775.184702,112.605511 C788.918095,112.605511 800,123.727223 800,137.458885 L800,304.732824 L775.112011,304.732824 L775.184702,137.458885 L750.298443,137.458885 L750.298443,304.732824 L725.4468,304.732824 L725.4468,137.458885 L700.55708,137.458885 L700.55708,304.732824 L675.743513,304.732824 L675.743513,112.605511 L733.892794,112.605511 Z M774.96836,18 L754.294714,75.3289113 L764.772592,75.3289113 L741.630916,116.712548 L741.630916,83.832019 L731.803795,83.832019 L731.803795,18 L774.96836,18 Z M25.3050964,158.45964 L52.6455387,158.45964 L52.6818841,75.7667876 L25.3050964,75.7667876 L25.3050964,158.45964 M0.453452927,50.9168749 L52.6818841,50.9168749 C66.4516226,50.9168749 77.5317968,62.0333945 77.5317968,75.7667876 L77.5317968,151.699384 C77.5317968,163.144744 72.4832389,167.468123 66.4516226,170.884597 C72.4832389,173.208976 77.5317968,178.22465 77.5317968,193.044945 L77.5317968,286.927008 C77.5317968,293.578228 80.2230919,298.702938 83.5997585,304.732824 L58.0402439,304.732824 C55.3333722,299.608114 52.6438079,292.960355 52.6438079,286.927008 L52.6438079,183.311284 L25.3050964,183.311284 L25.3050964,304.732824 L0.453452927,304.732824 L0.453452927,50.9168749 Z M244.480357,279.882911 L219.628714,279.882911 L219.628714,137.458885 L244.480357,137.458885 L244.480357,279.882911 M244.480357,75.4033329 L244.480357,112.605511 L219.628714,112.605511 C205.858975,112.605511 194.740725,123.727223 194.740725,137.457154 L194.740725,279.88118 C194.740725,293.576497 205.858975,304.731093 219.628714,304.731093 L269.366615,304.731093 L269.366615,75.4033329 L244.480357,75.4033329 Z M373.202143,242.241126 L373.202143,279.882911 L398.091863,279.882911 L398.091863,183.311284 L373.202143,183.311284 C359.470481,183.311284 348.353961,172.191303 348.353961,158.461371 L348.353961,86.156398 C348.353961,65.7025556 365.15595,48.8797982 385.594216,48.8797982 C406.19344,48.8797982 422.943506,65.7025556 422.943506,86.156398 L422.943506,113.410303 L398.093594,113.410303 L398.093594,75.7667876 L373.203874,75.7667876 L373.203874,158.45964 L398.093594,158.45964 C411.863332,158.45964 422.943506,169.465393 422.943506,183.309553 L422.943506,269.488109 C422.943506,289.978296 406.195171,306.764708 385.594216,306.764708 C365.15595,306.764708 348.353961,289.978296 348.353961,269.488109 L348.353961,242.241126 L373.202143,242.241126 Z M447.757074,306.333755 L447.757074,74.3095076 L472.610448,74.3095076 L472.610448,112.605511 L497.46036,112.605511 L497.46036,137.458885 L472.610448,137.458885 L472.610448,306.333755 L447.757074,306.333755 M559.552258,279.882911 L534.704076,279.882911 L534.704076,137.458885 L559.552258,137.458885 L559.552258,279.882911 M547.163647,110.539012 C526.635383,110.539012 509.814357,127.430999 509.814357,147.884841 L509.814357,269.489839 C509.814357,289.980027 526.635383,306.766439 547.089226,306.766439 C567.634797,306.766439 584.441978,289.980027 584.441978,269.489839 L584.441978,147.884841 C584.441978,127.430999 567.634797,110.539012 547.163647,110.539012 Z M607.256545,137.458885 C607.256545,123.727223 618.33845,112.607242 632.108188,112.607242 L656.997908,112.607242 L656.997908,137.458885 L632.108188,137.458885 L632.108188,304.732824 L607.256545,304.732824 L607.256545,137.458885 M173.940735,183.487819 L173.940735,147.884841 C173.940735,127.430999 157.156054,110.539012 136.662405,110.539012 C119.841378,110.539012 105.472805,121.979179 100.893276,137.384464 L148.922941,137.384464 L148.922941,137.458885 L149.087361,137.458885 L149.087361,158.568677 L99.3321521,158.568677 L99.3321521,269.489839 C99.3321521,289.980027 116.116833,306.766439 136.662405,306.766439 C157.154323,306.766439 173.940735,289.980027 173.940735,269.489839 L173.940735,243.40245 L149.089092,243.40245 L149.089092,279.882911 L124.237448,279.882911 L124.237448,183.487819 L173.940735,183.487819" id="Combined-Shape"></path>
                </g>
            </g>
        </g>
    </g>
</svg>