<?xml version="1.0" encoding="UTF-8"?>
<svg width="800px" height="400px" viewBox="0 0 800 400" version="1.1" xmlns="http://www.w3.org/2000/svg" xmlns:xlink="http://www.w3.org/1999/xlink">
    <title>ufo</title>
    <g id="Page-1" stroke="none" stroke-width="1" fill="none" fill-rule="evenodd">
        <g id="AF159_INCREMENTAL" fill="#000000" transform="translate(-0.000000, 0.000000)">
            <g id="ufo" transform="translate(0.000000, 0.000000)">
                <line x1="0" y1="0" x2="800" y2="400" id="Path" fill-rule="nonzero"></line>
                <path d="M645.285616,12.3421167 C691.860101,16.4965307 728.899456,28.1839486 754.701871,52.9352469 C766.914847,64.6727179 776.550084,81.0651349 784.558594,97.8079241 C792.842395,115.076272 798.498405,134.997438 800,157.196024 L800,179.019211 L799.549521,179.019211 C797.197022,216.534071 786.035162,247.341804 771.36958,273.419511 C756.829131,299.246953 737.158231,321.170247 714.083714,338.83902 C692.010261,355.731968 664.881437,372.074332 633.322906,380.733533 C601.864481,389.34268 556.966777,390.568983 523.506225,380.733533 C492.623412,371.623854 469.198523,353.704815 452.130389,329.429021 C434.736908,304.752803 423.074517,275.471692 423.074517,235.829572 C423.074517,198.1145 434.736908,165.755118 449.127198,139.251958 C462.491397,114.675846 479.059,91.45117 497.85397,73.0065726 C498.10206,72.7845977 498.520462,72.4979036 498.963006,72.1891429 L499.185612,72.0331212 L499.401477,71.8794351 C500.510311,71.081195 501.469504,70.232347 499.98123,70.0033818 C483.46368,73.2067854 469.473816,79.4384065 458.111744,88.8484046 C454.733154,91.6013296 450.703873,97.6077114 446.999937,98.2083495 C441.043609,99.2594663 432.484515,97.8079241 424.776325,97.8079241 L355.577801,97.8079241 C353.732507,97.8079241 351.889257,97.7885076 350.054767,97.761915 L348.484649,97.7376494 C335.159545,97.521307 322.401301,97.1096822 312.807358,101.236567 C302.696615,105.566167 293.987362,113.374464 291.034224,125.612466 C287.855847,138.776453 287.330288,150.739164 284.60239,165.755118 L386.735907,165.755118 C382.055934,191.58256 378.001627,217.985613 373.071388,243.537762 L269.661515,243.537762 C254.145029,328.027532 204.242007,386.464622 101.307639,381.534383 C38.0153914,378.556219 1.74963207e-14,342.868301 9.51845519e-15,277.724085 C7.63434614e-15,262.339167 2.60303103,248.533866 5.12406181,234.525154 L5.58092974,231.975477 C18.469624,159.273231 31.8338234,86.3957987 44.8977038,14.9448821 C72.652193,14.1690578 103.409873,14.1690578 131.214415,14.9448821 C119.577051,86.7211444 107.589314,159.473444 95.276231,229.848217 C94.7857098,232.72127 94.2167052,235.619829 93.6384396,238.52247 L93.1421299,241.010948 C91.8212,247.646888 90.5552149,254.272167 90.1708065,260.630924 C89.0195833,279.125574 98.0541826,290.46262 111.14309,295.668151 C128.336357,302.525436 147.506726,297.495092 158.968904,288.385413 C171.532253,278.474883 174.810736,264.334859 179.04023,246.515926 C186.923606,213.605959 193.405493,177.717828 199.587061,143.106053 C202.765438,125.237068 205.243071,107.618348 211.12432,92.677473 C228.242508,49.3564444 268.08484,22.5029125 317.937809,12.3421167 L645.285616,12.3421167 Z M654.670587,99.9602109 L654.270162,100.41069 C647.779713,100.908587 643.323438,102.038215 639.034072,103.072419 L638.082868,103.300375 C636.657907,103.639068 635.236123,103.961172 633.748358,104.239758 C624.563599,105.916539 616.454983,106.266912 608.972033,108.0438 C562.822999,119.105553 533.416755,148.737036 520.077582,192.258278 C517.775136,199.666148 516.949259,207.474445 514.521679,215.758246 C512.419446,222.740665 508.94075,227.996249 507.238941,234.127764 C505.462053,240.809864 504.185697,248.317841 505.111681,257.627733 C507.964713,286.583498 535.06851,302.725649 566.652068,301.674532 C574.660577,301.39924 582.393793,299.1969 590.152037,298.646315 C598.560971,298.070703 606.068948,297.044613 613.25158,295.217672 C653.91979,284.856663 685.953826,260.430711 700.819621,223.891888 C706.100231,211.028221 707.426641,196.587878 711.080523,181.121445 C714.233873,167.757245 716.686479,148.762063 712.782331,134.121507 C706.62579,110.971911 683.801539,97.933057 654.670587,99.9602109 Z M708.537821,160.634678 C708.212476,164.163427 706.836013,167.942442 706.810987,172.171936 C706.760933,176.101111 709.413752,180.480764 709.364398,185.010577 C709.338672,190.841773 704.108115,200.201717 701.28011,206.383285 C681.408997,249.053623 644.594882,276.182447 599.121567,294.376778 C591.438403,297.480076 586.307952,299.43215 579.075267,295.678161 C631.631108,278.534947 680.332854,248.102612 699.978727,195.246453 C702.831759,187.488209 706.335481,178.628796 706.360508,170.470128 C706.535694,153.902525 695.724207,138.110746 686.339235,128.550588 C675.527748,117.739101 662.438841,111.232187 645.696052,107.628358 C687.014953,100.721019 712.166677,120.39192 708.537821,160.634678 Z M517.071889,230.716389 C520.825877,268.131142 539.095289,291.030473 576.00951,295.209914 C542.223613,299.78978 515.470187,283.872868 513.24282,254.64181 C512.492023,245.457051 514.394044,237.823941 517.071889,230.716389 Z" id="Combined-Shape"></path>
            </g>
        </g>
    </g>
</svg>