<?xml version="1.0" encoding="UTF-8"?>
<svg width="800px" height="400px" viewBox="0 0 800 400" version="1.1" xmlns="http://www.w3.org/2000/svg" xmlns:xlink="http://www.w3.org/1999/xlink">
    <title>505games</title>
    <g id="Page-1" stroke="none" stroke-width="1" fill="none" fill-rule="evenodd">
        <g id="Manufacturer" fill="#000000" fill-rule="nonzero">
            <g id="505games">
                <line x1="0" y1="0" x2="800" y2="400" id="Path"></line>
                <path d="M172.612796,71.7516901 C178.38865,71.2064767 184.181542,70.942389 189.982952,71.0105407 C205.308558,71.0275786 220.634164,70.9849838 235.95977,71.0190596 C245.884357,71.359818 256.481941,72.1350432 264.949785,77.88534 C272.216457,82.7241084 275.87109,91.2941804 277.387464,99.6086837 C279.065699,108.153199 278.741979,116.89365 278.827168,125.540393 C279.363863,134.630121 278.64827,143.711331 278.793093,152.801059 C278.537524,161.899307 278.026386,171.389426 273.971362,179.712449 C271.134549,185.462746 265.8102,189.713706 259.727664,191.587877 C250.987213,194.492841 241.658953,194.458766 232.560706,194.739891 C218.649247,194.773967 204.746307,194.731372 190.843367,194.756929 C180.407643,194.560993 169.71635,194.722853 159.646942,191.570839 C152.934003,189.492213 147.115554,184.542698 144.398006,178.008657 C140.087413,167.896654 140.44521,156.694223 140.130008,145.92626 C140.223717,132.849659 139.891477,119.773058 140.624108,106.713495 C141.399333,97.5982096 142.796442,87.5884336 149.449749,80.7221532 C155.447095,74.4947946 164.366445,72.7058134 172.612796,71.7516901 M189.369587,84.1212175 C181.608816,84.3767863 173.635071,83.9338004 166.129869,86.2935519 C161.94706,87.5373198 158.292427,90.5785879 156.537522,94.5995362 C153.709228,100.792819 153.700709,107.752808 153.402545,114.423152 C153.334394,124.645902 152.848813,134.877171 153.317356,145.099921 C153.521811,153.4485 152.985116,162.061167 155.677107,170.094545 C157.031621,174.268834 160.192155,177.838278 164.340888,179.37169 C170.627879,181.688847 177.443046,181.450316 184.036719,181.739961 C198.212266,181.782556 212.387813,181.739961 226.563359,181.756999 C234.264498,181.731442 242.025269,181.927378 249.658255,180.760281 C254.829263,180.019131 260.153612,177.32714 262.411136,172.377626 C266.270224,164.182388 265.707973,154.854128 265.818719,146.028488 C266.355413,134.936804 265.707973,123.828082 265.767605,112.72788 C265.367214,105.461208 265.086089,97.5385769 260.630673,91.4304838 C255.8345,85.4331371 247.545554,84.7771773 240.449261,84.3256725 C223.428383,83.8656488 206.390466,83.9082436 189.369587,84.1212175 Z M5.14711372,71.6153867 C48.1422963,71.6665005 91.1374789,71.7005763 134.132662,71.5983488 C134.260446,75.9259796 134.124143,80.2536104 134.217851,84.5727223 C95.5247424,84.7431015 56.8316338,84.5642034 18.1385251,84.6664309 C18.0874114,95.6558871 18.1300062,106.653862 18.1129683,117.643318 C44.4450684,117.677394 70.7856875,117.609243 97.1177876,117.677394 C107.229791,118.171494 118.168134,118.853011 126.712649,124.901471 C134.149699,130.191744 136.620197,139.79261 137.097259,148.447872 C137.650991,158.508761 137.472093,169.157459 132.974083,178.39201 C129.489829,185.616087 122.265753,190.275957 114.692399,192.29495 C107.3235,194.330981 99.6138424,194.867676 91.9978937,194.756929 C75.2496217,194.714334 58.5013496,194.8336 41.7615965,194.697296 C30.831773,194.058375 18.8881935,191.783813 11.016676,183.528942 C4.7637606,177.395292 2.98329831,168.271488 2.77032435,159.837719 C7.14054997,159.812162 11.5022566,159.8292 15.8724822,159.803643 C16.2899112,165.358004 17.5336791,171.312756 21.9124237,175.163325 C28.9831591,181.228823 38.8566318,181.697366 47.7248674,181.952935 C62.4882221,181.978492 77.2430579,181.99553 91.9978937,181.935897 C100.491295,181.629214 109.862149,181.399202 116.907328,176.006702 C122.623549,171.568325 124.097329,163.909781 124.310303,157.077577 C124.557352,149.827943 123.739532,141.385655 117.750705,136.427622 C111.719282,131.6996 103.677386,131.026602 96.3084866,130.660287 C65.9128434,130.63473 35.5257191,130.626211 5.13859476,130.668806 C5.12155685,110.981493 5.09599997,91.3026994 5.14711372,71.6153867 Z M284.313378,71.6239057 C327.257446,71.6579815 370.192996,71.7005763 413.137065,71.6068678 C413.213736,75.9600555 413.213736,80.3132432 413.137065,84.6749498 C374.537665,84.6238361 335.938265,84.6153171 297.338865,84.6749498 C297.338865,95.664406 297.270713,106.653862 297.372941,117.651837 C321.217505,117.651837 345.070588,117.651837 368.915153,117.651837 C377.817464,117.566648 386.856079,117.839255 395.502821,120.156411 C401.551282,121.749456 407.412325,124.986661 410.956212,130.285453 C415.198653,136.623558 416.084625,144.495075 416.348712,151.932126 C416.485016,160.996297 416.110182,170.520493 411.86774,178.741287 C408.971295,184.414914 403.732135,188.69995 397.80294,190.90636 C389.156198,194.271348 379.717192,194.876195 370.533755,194.756929 C354.100684,194.714334 337.659095,194.808043 321.234543,194.714334 C311.173653,194.17764 300.533474,192.243836 292.457502,185.812023 C284.764882,179.644297 281.663982,169.378952 281.987702,159.812162 C286.349409,159.837719 290.719634,159.812162 295.081341,159.820681 C295.175049,165.87766 297.023663,172.394664 302.152076,176.10041 C309.035395,181.186229 318.048452,181.654771 326.294804,181.935897 C339.916618,182.029605 353.546952,181.918859 367.168766,181.978492 C375.875142,181.782556 385.143768,182.021086 393.066399,177.863835 C399.021151,175.018503 402.215761,168.552613 402.922834,162.240065 C403.706578,155.118216 403.953628,147.391521 400.494931,140.883037 C398.118142,136.333913 393.347525,133.693036 388.551351,132.398154 C382.715865,130.890299 376.650367,130.532502 370.644501,130.643249 C341.875979,130.626211 313.107457,130.685844 284.330415,130.609173 C284.321897,110.947417 284.347453,91.2856615 284.313378,71.6239057 Z M256.694915,205.337475 C278.043424,246.006982 298.829683,286.983172 320.101521,327.695274 C320.612659,313.979751 320.169673,300.221633 320.323014,286.489072 C320.331533,259.449899 320.305976,232.419244 320.331533,205.38007 C335.631582,205.422665 350.923113,205.397108 366.223162,205.397108 C383.124775,238.569932 399.821933,271.853502 416.800217,305.000769 C434.374828,271.853502 451.6172,238.535856 469.157735,205.38007 C483.938128,205.448222 498.71852,205.345994 513.498913,205.431184 C513.481875,246.373298 513.490394,287.32393 513.498913,328.266044 C503.557289,328.308639 493.615664,328.249006 483.67404,328.30012 C483.648483,298.424133 483.725154,268.548146 483.631445,238.672159 C469.421823,268.531108 454.96515,298.270792 440.857756,328.180854 C425.097683,328.419385 409.329091,328.206411 393.569018,328.291601 C384.709301,309.907689 375.764395,291.57489 366.879122,273.216535 C361.401431,261.681866 355.514831,250.326094 350.343823,238.66364 C349.8838,268.522589 350.258634,298.407095 350.139368,328.283082 C328.560847,328.257525 306.973807,328.308639 285.386766,328.266044 C280.462808,318.469242 275.615521,308.638364 270.606374,298.892676 C245.807686,298.875638 221.017517,298.918232 196.21883,298.867119 C191.06486,308.595769 186.200535,318.477761 181.16583,328.266044 C169.580047,328.30012 157.994264,328.283082 146.40848,328.274563 C167.586611,287.332449 188.764741,246.381816 209.866201,205.397108 C225.472933,205.354513 241.088183,205.482298 256.694915,205.337475 Z M110.748121,204.161859 C121.269034,204.672997 132.897413,206.231966 140.726335,214.001256 C148.265613,221.651281 149.594571,233.015571 149.799026,243.255359 C139.576276,243.374624 129.345007,243.289435 119.113738,243.289435 C118.900764,239.123664 117.767743,234.472313 113.908654,232.197751 C108.098725,228.790168 101.053546,228.943509 94.5195054,228.815724 C80.0628331,228.883876 65.5976419,228.713497 51.1409696,228.900914 C44.4706253,229.071293 36.6417026,230.672857 33.1148539,237.010962 C29.8946876,243.106277 29.6215485,249.997049 29.6215485,256.806359 L29.6236191,257.94034 C29.6297569,259.828548 29.6455081,261.706713 29.613562,263.556036 C29.818017,271.37644 29.0768676,279.256477 30.3035976,287.008729 C31.1469745,291.736751 33.3704226,296.677746 37.8002809,299.011941 C42.6390492,301.601704 48.3211944,301.550591 53.6711003,301.669856 C68.4514929,301.652818 83.2318856,301.695413 98.0207972,301.644299 C103.907397,301.422806 110.50959,301.107605 115.058714,296.865163 C119.888963,291.9838 120.476771,284.648977 119.224484,278.217164 C103.336627,278.268277 87.4572889,278.183088 71.5779506,278.259758 C71.5523938,270.2349 71.5864696,262.201522 71.5609127,254.168144 C97.6118872,254.168144 123.671381,254.159625 149.730874,254.176663 C149.67976,267.457719 149.841621,280.738775 149.645685,294.011312 C149.202699,303.535508 147.950412,314.465331 140.078894,320.93974 C132.34368,327.090428 121.924994,327.712311 112.460432,328.257525 C88.3006658,328.308639 64.149419,328.283082 39.9896532,328.274563 C29.4602207,327.840096 17.9425891,325.914811 10.1732991,318.15404 C2.21659206,310.086587 0.3083454,298.211159 0.0187008173,287.340968 C0.0187008173,273.719154 -0.0409318909,260.097339 0.0527766505,246.484044 C0.495762483,235.332728 1.9013906,223.090984 9.789946,214.512393 C17.550717,206.419383 29.3665122,204.638921 40.0578049,204.144821 C63.6212436,204.102226 87.1846823,204.085188 110.748121,204.161859 Z M233.50631,228.500523 C225.072541,243.485371 217.277695,258.853571 209.048381,273.966203 C225.268478,273.983241 241.488574,273.974722 257.700152,273.974722 C249.999014,258.955799 242.34047,243.911319 234.605256,228.909433 C234.332649,228.807205 233.778917,228.60275 233.50631,228.500523 Z M524.147611,205.405627 C566.180151,205.388589 608.204173,205.405627 650.236713,205.397108 C650.202637,213.55827 650.211156,221.710913 650.228194,229.863556 C618.069126,229.931708 585.90154,229.872075 553.742472,229.897632 C553.742472,237.419872 553.733953,244.942113 553.742472,252.464353 C584.913341,252.498429 616.084209,252.396201 647.255077,252.515466 C647.221002,260.727742 647.23804,268.940018 647.246559,277.160813 C616.07569,277.18637 584.913341,277.160813 553.742472,277.169332 C553.742472,285.969416 553.742472,294.778019 553.742472,303.578103 C585.90154,303.569584 618.060607,303.59514 650.228194,303.561065 C650.211156,311.798897 650.202637,320.03673 650.228194,328.274563 C608.195654,328.274563 566.163113,328.308639 524.130573,328.266044 C524.147611,287.306892 524.122054,246.35626 524.147611,205.405627 Z M673.910898,209.128412 C682.583198,205.916765 691.962571,205.286362 701.12897,205.397108 C718.448012,205.405627 735.767054,205.397108 753.086097,205.397108 C765.600446,205.141539 779.281893,206.291599 789.470568,214.333495 C797.171706,220.467145 799.91481,230.638782 800,240.111863 C789.334264,240.103344 778.668528,240.103344 768.011312,240.120382 C767.713148,237.27505 767.423503,233.935618 764.799664,232.197751 C761.323929,230.016898 757.030374,230.07653 753.077578,229.897632 C736.610431,229.889113 720.143285,229.897632 703.676138,229.889113 C699.484811,229.991341 694.680118,230.340618 691.621812,233.59486 C688.52943,237.607289 688.674253,243.32351 690.343969,247.898191 C691.732559,251.493191 695.992038,252.617694 699.484811,252.660289 C715.35563,252.694365 731.22645,252.660289 747.097269,252.668808 C757.013336,252.736959 766.997556,252.362125 776.828433,253.835905 C783.626562,254.866699 790.671741,257.839815 794.420082,263.905314 C799.718874,272.364639 800.034076,282.774806 799.957405,292.452343 C799.991481,301.933944 797.861741,312.250402 790.765449,319.05705 C783.439145,325.889254 773.037497,327.831577 763.351441,328.266044 C740.333216,328.308639 717.314991,328.257525 694.296765,328.291601 C683.988826,328.05307 672.598978,326.783745 664.616715,319.593744 C657.281891,313.068222 655.90182,302.632498 655.816631,293.346834 C665.894558,293.372391 675.981005,293.329796 686.058933,293.372391 C686.467843,300.025697 693.453388,303.424761 699.399621,303.526989 C716.446057,303.646254 733.492492,303.552546 750.538928,303.569584 C755.318064,303.382167 760.489071,303.35661 764.697437,300.775365 C768.939878,298.04078 769.442497,292.350116 768.778018,287.792473 C768.403184,284.180435 765.983799,280.883598 762.593254,279.563159 C758.248585,277.791216 753.460931,277.603799 748.835136,277.586761 C734.634033,277.612318 720.432929,277.59528 706.240345,277.59528 C696.784301,277.637875 687.234549,277.637875 677.940365,275.687033 C671.943019,274.409189 665.911596,271.734236 662.069546,266.767684 C657.605612,260.99183 656.370363,253.503666 655.859225,246.415892 C655.518467,237.709517 655.407721,228.389777 659.871655,220.586411 C662.836252,215.108721 668.135044,211.241113 673.910898,209.128412 Z" id="Combined-Shape"></path>
            </g>
        </g>
    </g>
</svg>