<?xml version="1.0" encoding="UTF-8"?>
<svg width="800px" height="400px" viewBox="0 0 800 400" version="1.1" xmlns="http://www.w3.org/2000/svg" xmlns:xlink="http://www.w3.org/1999/xlink">
    <title>aquiris</title>
    <g id="Page-1" stroke="none" stroke-width="1" fill="none" fill-rule="evenodd">
        <g id="Manufacturer" fill="#000000" fill-rule="nonzero">
            <g id="aquiris">
                <line x1="0" y1="0" x2="800" y2="400" id="Path"></line>
                <path d="M667.576247,146.30855 C664.375732,164.711507 675.310822,182.581044 693.18036,188.048589 L766.92554,208.585222 C773.859988,210.585543 777.860631,217.920055 775.860309,224.854502 C774.126697,230.722111 768.659152,234.589399 762.524833,234.32269 C762.524833,234.32269 743.321748,234.32269 736.92072,234.32269 C733.586851,234.32269 730.786401,237.12314 730.786401,240.457008 L730.786401,252.325582 C730.786401,255.659451 733.586851,258.460702 736.92072,258.460702 C743.321748,258.460702 762.524833,258.460702 762.524833,258.460702 C783.061466,258.593255 799.730811,242.057266 799.998772,221.653988 C800.130875,205.251353 789.595849,190.715684 773.859988,185.914913 L697.447712,164.178087 C692.380231,161.644347 689.713136,156.043447 691.046684,150.442548 C691.846812,143.908164 697.581067,139.107393 704.11545,139.374103 C704.11545,139.374103 723.718599,139.374103 730.252982,139.374103 C733.586851,139.374103 736.387301,136.573653 736.387301,133.239784 L736.387301,121.237856 C736.387301,117.903987 733.720206,115.103537 730.386337,115.103537 L703.982095,115.103537 C686.112558,115.236892 670.643406,128.439013 667.576247,146.30855 M637.304717,115.103537 C633.970848,115.103537 631.170398,117.903987 631.170398,121.237856 C631.170398,121.237856 631.170398,121.237856 631.170398,121.237856 L631.170398,230.322047 C631.170398,233.655916 633.970848,236.456366 637.304717,236.456366 L649.44,236.456366 C652.773868,236.456366 655.574318,233.655916 655.574318,230.322047 L655.574318,121.237856 C655.574318,117.903987 652.773868,115.103537 649.44,115.103537 L637.304717,115.103537 Z M457.009085,115.103537 C453.675216,115.103537 450.874766,117.903987 450.874766,121.237856 C450.874766,121.237856 450.874766,121.237856 450.874766,121.237856 L450.874766,230.322047 C450.874766,233.655916 453.675216,236.456366 457.009085,236.456366 L469.144368,236.456366 C472.478237,236.456366 475.278687,233.655916 475.278687,230.322047 L475.278687,121.237856 C475.278687,117.903987 472.478237,115.103537 469.144368,115.103537 L457.009085,115.103537 Z M488.080744,121.237856 L488.080744,252.192227 C488.080744,255.526096 490.881194,258.326546 494.215062,258.326546 L506.350345,258.326546 C509.684214,258.326546 512.484664,255.526096 512.484664,252.192227 L512.484664,139.507457 L576.228238,139.507457 L576.228238,139.507457 C582.895976,139.240748 588.763585,143.908164 589.830423,150.575902 C590.497197,157.110285 586.629909,163.244604 580.49559,165.511635 L565.693212,174.04634 C562.626053,175.779951 561.559215,179.647239 563.292827,182.581044 C563.292827,182.581044 563.292827,182.581044 563.292827,182.581044 L597.564999,242.323975 C599.298611,245.25778 603.032544,246.191263 605.966349,244.457651 L615.567891,238.856751 C618.368341,237.12314 619.435179,233.522561 617.834922,230.588756 L592.497518,186.581687 C611.300539,177.646918 619.16847,155.376674 610.367056,136.573653 C604.099382,123.371532 590.897261,115.103537 576.228238,115.103537 C576.228238,115.103537 514.61834,115.103537 494.081708,115.103537 C490.881194,115.236892 488.080744,117.903987 488.080744,121.237856 M419.669753,139.507457 C416.335884,139.507457 413.535434,142.307907 413.535434,145.641776 L413.535434,199.250389 C414.335563,209.118641 411.135049,218.853538 404.734021,226.321404 C398.199637,232.855787 387.531257,236.189656 372.995588,236.189656 C346.057927,236.189656 330.055357,222.454116 330.055357,199.383743 L330.055357,145.641776 C330.055357,142.307907 327.254907,139.507457 323.921038,139.507457 C323.921038,139.507457 323.921038,139.507457 323.921038,139.507457 L311.6524,139.507457 C308.318531,139.507457 305.518081,142.174553 305.518081,145.641776 C305.518081,145.641776 305.518081,145.641776 305.518081,145.641776 L305.518081,199.250389 C305.518081,235.922947 332.722452,260.726932 373.128943,260.726932 C414.468918,260.726932 438.206065,238.323332 438.206065,199.250389 L438.206065,145.641776 C438.206065,142.307907 435.538969,139.507457 432.071746,139.507457 C432.071746,139.507457 432.071746,139.507457 432.071746,139.507457 L419.669753,139.507457 Z M47.2099171,213.919412 L78.0148659,160.577509 C79.615123,157.777059 81.6154444,157.51035 83.2157015,160.04409 L114.420715,214.052767 L114.420715,214.052767 C116.8211,218.186764 115.354198,222.054052 110.286717,222.054052 L51.4772693,222.054052 C46.2764338,221.920697 44.8095315,217.920055 47.2099171,213.919412 M75.4811256,118.304051 L0.802461658,249.125068 C-0.931150182,252.192227 0.26904263,255.92616 3.20284728,257.659772 C4.13633058,258.193191 5.06981388,258.459901 6.00329718,258.459901 L19.2054181,258.459901 C21.472449,258.459901 23.6061251,257.126353 24.6729632,255.126032 L28.0068321,249.258422 L28.0068321,249.258422 C29.3403796,246.724682 32.1408295,245.124425 35.0746342,245.524489 L126.555997,245.524489 C129.489802,245.124425 132.290252,246.591327 133.6238,249.258422 L137.091023,255.259386 C138.157861,257.259708 140.158183,258.459901 142.425214,258.459901 L155.22727,258.459901 C158.561139,258.72661 161.628299,256.326225 161.895008,252.859001 C162.028363,251.792163 161.761653,250.59197 161.228234,249.525132 L86.1495061,118.304051 C85.0826681,116.437084 82.948992,115.236892 80.8153158,115.103537 C78.548285,115.236892 76.5479636,116.437084 75.4811256,118.304051 M221.237875,237.390475 C194.833633,237.523204 173.363517,216.319797 173.230162,189.915556 C173.230162,189.915556 173.230162,189.915556 173.230162,189.782201 C173.230162,176.31337 176.964096,163.244604 183.898543,151.776095 C184.965381,150.042483 186.165574,149.775774 187.365767,151.90945 L233.906577,232.855787 C234.439996,234.05598 233.773222,235.522882 232.573029,236.056301 C232.439675,236.056301 232.30632,236.189656 232.03961,236.189656 C228.572387,236.989785 224.971808,237.390475 221.237875,237.390475 L221.237875,237.390475 M253.376371,221.387278 L206.302142,140.307586 C205.635368,139.240748 205.768723,138.040555 207.36898,137.773846 L207.769044,137.773846 C221.504584,137.373781 235.10677,140.841005 246.975343,147.642098 C269.645652,160.577509 277.646937,189.382137 264.84488,212.052445 C262.57785,215.919733 259.910754,219.520312 256.71024,222.587471 C256.310176,222.854181 255.910112,223.12089 255.510047,223.12089 C254.709919,223.12089 254.043145,222.454116 253.376371,221.387278 M178.964417,115.370246 C165.362232,130.839398 156.027399,149.642419 152.026756,169.778987 C150.559854,176.446725 150.026435,183.114463 150.159789,189.915556 C150.293144,228.855145 182.031576,260.326867 220.971165,260.193513 C220.971165,260.193513 220.971165,260.193513 221.10452,260.193513 C228.305677,260.193513 235.373479,259.126674 242.307927,256.992998 L242.307927,256.992998 C244.708312,255.659451 247.642117,256.459579 248.975664,258.859965 C248.975664,258.859965 248.975664,258.859965 248.975664,258.859965 C249.109019,258.99332 249.109019,259.260029 249.242374,259.393384 L249.642438,260.060158 L252.176179,264.460865 L252.176179,264.460865 C253.509726,266.86125 252.709598,270.061765 250.309212,271.395312 L239.640831,276.862857 C239.374122,276.996212 238.974058,277.129567 238.707348,277.396276 L238.707348,277.396276 L238.707348,277.396276 C236.173608,278.996533 235.506834,282.330402 237.240446,284.864143 C238.840703,287.397883 242.174572,288.064657 244.708312,286.331045 C247.242053,284.730788 247.908826,281.396919 246.175214,278.863178 C245.641795,278.06305 244.975022,277.529631 244.174893,276.996212 L261.110947,268.194798 C261.244302,268.194798 261.377657,268.061443 261.377657,268.061443 L270.71249,263.260672 L270.979199,263.127317 L291.115768,252.592291 C293.249444,251.792163 294.849701,249.791841 295.11641,247.524811 C295.11641,244.591006 292.716025,242.19062 289.78222,242.057266 C286.848415,242.057266 284.44803,244.457651 284.314675,247.391456 C284.314675,249.391777 285.381513,251.125389 286.98177,252.058872 L278.713775,256.326225 C275.913325,257.259708 272.979521,255.792806 271.912683,253.12571 L269.112233,248.458294 L268.712168,247.79152 C267.511976,245.657844 267.91204,242.857394 269.779006,241.257137 L269.645652,241.257137 C275.379906,236.323011 280.314032,230.322047 284.18132,223.787664 C303.784469,190.582329 292.849379,147.775452 259.644045,128.172303 C259.243981,127.905594 258.843916,127.772239 258.443852,127.505529 C252.576243,123.904951 246.441924,120.971146 239.907541,118.970825 C227.638903,114.836827 214.703492,112.703151 201.76808,112.703151 C194.300214,113.103216 186.565638,113.903344 178.964417,115.370246" id="Shape"></path>
            </g>
        </g>
    </g>
</svg>