<?xml version="1.0" encoding="UTF-8"?>
<svg width="800px" height="400px" viewBox="0 0 800 400" version="1.1" xmlns="http://www.w3.org/2000/svg" xmlns:xlink="http://www.w3.org/1999/xlink">
    <title>cdprojekt</title>
    <g id="Page-1" stroke="none" stroke-width="1" fill="none" fill-rule="evenodd">
        <g id="Manufacturer" fill="#000000" fill-rule="nonzero">
            <g id="cdprojekt">
                <line x1="0" y1="0" x2="800" y2="400" id="Path"></line>
                <path d="M152.58734,2.84217094e-14 L93.3593594,128.064375 L93.6461777,128.638011 L135.234832,98.6654981 L126.486874,116.304824 L185.141218,93.3593594 L130.64574,133.083695 L232.32283,120.607099 L108.847548,174.098713 L171.947576,158.753934 L88.1966299,216.117596 L223.718281,309.190137 C223.574872,309.333546 223.288053,309.333546 223.144644,309.476955 C223.001235,309.333546 220.41987,308.473091 217.981915,307.469227 C216.691232,307.038999 215.257141,306.465363 213.536231,305.748317 L213.4651,305.733402 C213.387085,305.69669 213.36414,305.604908 213.249412,305.604908 C201.489862,300.728997 178.400988,290.977174 141.975063,274.198303 C105.11891,257.132614 83.3207186,246.520336 64.6775286,237.485559 L131.649604,298.291041 L131.793013,298.291041 L131.936422,298.43445 L135.951878,301.589451 L118.312552,307.038999 C118.169143,306.89559 118.169143,306.89559 118.169143,306.752181 C118.025734,306.608772 118.025734,306.321954 117.882325,306.035135 C117.882325,305.891726 117.738916,305.748317 117.738916,305.604908 C117.595507,305.318089 117.595507,305.17468 117.452097,304.887862 C117.452097,304.887862 117.308688,304.744453 117.308688,304.601044 C117.165279,304.170816 117.02187,303.883998 116.878461,303.45377 L113.866869,304.887862 L114.048278,305.278215 C115.337558,308.122565 115.731188,310.561876 115.731188,312.345138 C115.731188,314.926503 114.870733,316.647413 114.153687,317.794686 C113.866869,318.368323 113.149823,319.085368 113.149823,319.085368 L114.153687,320.376051 C114.153687,320.662869 114.153687,320.806278 114.010278,320.949687 C108.704139,329.267418 103.828228,341.026969 101.8205,346.333108 C101.246863,348.054017 100.816635,349.057882 100.816635,349.057882 L100.816635,349.201291 C104.258455,349.3447 112.576186,350.348564 110.425049,356.945385 L108.56073,363.829024 C104.545273,356.515158 106.266183,354.507429 106.266183,354.507429 C94.2198144,351.495837 69.9836673,368.418117 69.9836673,368.418117 C70.9875314,362.108115 77.7277616,357.662431 81.8866271,355.367884 C78.5882165,354.937657 74.2859419,358.092658 72.1348046,359.813568 C74.2859419,355.798112 77.4409433,353.073338 80.4525356,351.782655 L80.7689331,351.672204 C86.2494001,349.812656 91.5058638,350.789615 92.0686771,351.352428 L92.3736316,351.251348 C93.8136752,350.777111 94.0405529,350.751902 95.6539059,350.348564 C96.0841334,349.918336 96.65777,348.627654 96.9445883,347.910608 C96.9445883,347.793274 100.688634,337.403814 105.820333,327.188901 L106.202961,326.432718 L106.590453,325.678116 C107.500108,323.919958 108.447741,322.182427 109.421185,320.51946 C105.979365,320.232642 103.398,316.360594 103.398,311.628092 L103.398,310.767637 C96.0841334,311.914911 88.4834482,312.201729 80.5959447,311.484683 C80.3091264,311.484683 80.1657172,311.341274 79.8788989,311.341274 L79.7853962,311.340198 C79.1464367,311.326575 77.6273752,311.183524 75.7200335,310.911046 L74.8262583,310.784545 C60.5547991,308.703346 47.6791537,303.881071 37.142971,296.856949 L37.142971,297.000359 C37.142971,297.000359 17.639326,286.53149 13.3370513,262.725571 L8.4611401,265.737163 C8.4611401,244.22579 12.046369,229.454647 17.0656894,217.838505 L11.185914,218.412142 L17.0656894,210.23782 C16.3486436,211.95873 15.6315978,213.536231 14.914552,215.40055 L18.4997809,214.826913 L18.7686731,214.248235 C19.3960881,212.926742 20.0235032,211.797395 20.6509182,210.668048 C20.7943274,210.524638 20.9377365,210.381229 20.9377365,210.23782 L21.367964,209.377365 C21.5113731,209.233956 21.5113731,209.090547 21.6547823,208.947138 C21.7981915,208.803729 21.9416006,208.51691 22.0850098,208.230092 C22.2284189,208.086683 22.3718281,207.943274 22.3718281,207.799865 C22.5152372,207.656455 22.6586464,207.369637 22.8020555,207.082819 C22.9454647,206.93941 22.9454647,206.796 23.0888738,206.652591 C23.232283,206.365773 23.3756921,206.222364 23.5191013,205.935546 C23.6625105,205.792136 23.6625105,205.648727 23.8059196,205.505318 C23.9493288,205.2185 24.0927379,205.075091 24.2361471,204.788272 C24.2361471,204.644863 24.3795562,204.644863 24.3795562,204.501454 C24.6663745,204.214636 24.8097837,203.784408 25.096602,203.49759 L25.2537784,203.310584 C25.4465203,203.044417 25.5841931,202.72318 25.8136478,202.493726 C25.8136478,202.350317 25.9570569,202.350317 25.9570569,202.206908 C26.1004661,202.063498 26.2438752,201.77668 26.3872844,201.633271 C26.5306935,201.633271 26.5306935,201.489862 26.6741027,201.346453 C26.8175119,201.059634 26.960921,200.916225 27.1043302,200.772816 C27.2477393,200.772816 27.2477393,200.629407 27.3911485,200.485998 C27.3911485,200.342589 27.5345576,200.199179 27.6779668,200.05577 C27.8213759,199.912361 27.8213759,199.768952 27.9647851,199.625543 C28.1081942,199.482134 28.2516034,199.338724 28.3950125,199.195315 C28.5384217,199.195315 28.5384217,199.051906 28.6818309,198.908497 C28.6818309,198.765088 28.82524,198.621679 28.9686492,198.47827 L29.2554675,198.191451 C29.3988766,198.048042 29.3988766,197.904633 29.5422858,197.761224 C29.5422858,197.761224 29.6856949,197.761224 29.6856949,197.617815 L29.7768413,197.526668 C29.7977464,197.505763 29.8102895,197.49322 29.8178153,197.485694 L29.828686,197.474824 L29.900235,197.403275 C29.9782496,197.32526 30.0011951,197.302314 30.1159224,197.187587 L30.2593316,197.044178 L30.2593316,196.900769 L30.4027407,196.75736 C30.4027407,196.613951 30.5461499,196.613951 30.5461499,196.470541 C30.689559,196.327132 30.689559,196.327132 30.8329682,196.183723 C30.86165,196.155041 30.8845955,196.132096 30.9040991,196.112592 L31.0486555,195.968036 L31.1197865,195.896905 C31.2631956,195.753496 31.2631956,195.610086 31.4066048,195.610086 C31.5500139,195.466677 31.5500139,195.466677 31.6934231,195.323268 L31.8368323,195.179859 L31.9802414,195.03645 C32.1236506,194.893041 32.2670597,194.893041 32.2670597,194.749632 L32.4104689,194.606222 C32.553878,194.462813 32.553878,194.319404 32.6972872,194.319404 L32.8406963,194.175995 C32.9841055,194.175995 33.1275146,194.175995 33.1275146,194.032586 C33.1275146,194.032586 33.1275146,193.889177 33.2709238,193.889177 L33.5577421,193.602358 C33.5577421,193.602358 33.5577421,193.458949 33.7011513,193.458949 L34.2225251,192.937575 C34.2434302,192.91667 34.2559733,192.904127 34.2634991,192.896601 L34.418197,192.741903 C34.418197,192.598494 34.5616062,192.598494 34.5616062,192.598494 L35.1352428,192.598494 L34.8484245,193.889177 L31.6934231,209.090547 L32.6474445,207.964604 C37.1340477,202.67729 42.0953671,196.948572 47.1816118,191.59463 C56.2163885,181.986217 65.2511652,173.238258 70.7007131,168.075529 L70.3259371,167.417929 C68.5680596,164.359638 66.6852567,161.459587 64.6775286,159.184161 L55.6427519,165.780982 L54.9257061,166.067801 L46.1777477,172.377803 C39.2941083,176.106441 35.4220611,171.23053 35.1352428,170.943712 C36.7127435,172.090985 38.4336533,172.808031 40.2979724,172.808031 C42.5925188,172.808031 44.600247,171.947576 45.8909294,170.656894 C47.1816118,169.366211 48.0420667,167.358483 48.0420667,165.350755 C48.0420667,164.346891 47.8986575,163.343027 47.4684301,162.482572 C46.7513843,161.04848 45.6041111,159.757798 44.1700195,159.040752 C44.0417978,158.95635 42.6044696,157.977134 42.8793371,156.602796 C43.3095646,154.881887 46.0343385,152.013704 46.0343385,152.013704 L49.4761582,148.571884 L54.9257061,142.978927 L55.0691152,142.835518 L63.243437,134.661196 L67.2588934,130.64574 C67.9759391,129.928694 68.4061666,129.355057 68.4061666,129.355057 L57.9372983,133.94415 L57.9372983,133.800741 C57.9372983,133.657332 58.0807075,133.227104 58.7977533,131.936422 C59.1019545,131.371477 59.5378446,130.674843 59.9976781,129.974218 L60.2755894,129.554386 C61.2523017,128.090449 62.239573,126.721544 62.239573,126.630283 L42.735928,140.540971 L42.7802192,140.346665 C44.1551473,134.723322 55.6477545,119.168005 56.0729793,118.74278 L43.1661554,130.64574 L43.1661554,130.502994 L43.1442609,130.30715 C42.788376,126.063999 48.9159662,112.833874 49.7629765,110.998685 C49.9063857,110.998685 49.9063857,110.855276 49.9063857,110.855276 L49.6496818,111.105985 C45.0549844,115.625278 41.8728656,120.466297 41.7320639,120.607099 C41.7320639,116.408397 44.6741647,110.418852 45.0010647,109.766306 L45.0304744,109.708003 C44.0266104,110.568458 43.1661554,111.572322 42.3057005,112.576186 C29.1120583,127.634147 25.096602,145.130064 24.0927379,152.013704 L23.9299573,152.120502 C22.0079422,153.3602 23.2058655,151.794816 22.2284189,154.30825 C18.3563717,155.312114 14.914552,157.463251 12.3331873,159.614389 C7.88750349,163.199618 5.30613871,167.501892 4.44568378,168.935984 L4.455,168.919 L4.63842903,168.63704 C4.97291102,168.152042 5.37010839,167.729758 5.77775832,167.317927 L6.02318448,167.071665 C12.7279653,160.131628 20.2045955,159.462869 22.6761292,159.446712 L22.8678796,159.446738 C23.2884445,159.449688 23.5191013,159.47098 23.5191013,159.47098 C23.5191013,159.47098 33.9879696,178.974625 31.8368323,181.125762 C31.5500139,181.41258 31.1197865,181.41258 30.689559,181.269171 C29.3988766,180.838944 28.3950125,181.125762 27.9647851,181.699398 C26.3872844,183.563717 27.8213759,188.726447 27.8213759,188.869856 L1.42108547e-14,176.823487 C13.1936422,171.947576 22.6586464,175.245987 22.6586464,175.245987 C22.6586464,178.400988 29.9725132,177.97076 29.9725132,177.97076 L29.9643501,177.769183 C29.748304,175.071376 25.3095369,171.993347 24.5042738,171.456002 L24.4117176,171.39482 C24.390604,171.381021 24.3795562,171.373939 24.3795562,171.373939 C24.3795562,171.373939 19.503645,173.525077 13.4804605,171.373939 C13.1936422,171.23053 12.9068239,171.087121 12.6200056,171.087121 L12.4765964,171.087121 C12.3331873,171.087121 12.046369,170.943712 11.7595507,170.943712 L9.03477672,170.943712 L8.87760029,170.958626 C8.68485838,170.995339 8.5471856,171.087121 8.31773095,171.087121 L8.17498573,171.087121 L8.01714536,171.102036 C7.82440346,171.138748 7.68673067,171.23053 7.45727602,171.23053 L7.31386687,171.23053 C7.02704856,171.23053 6.88363941,171.373939 6.5968211,171.373939 L6.30842289,171.452029 C3.16542213,172.334136 1.00386408,173.955304 1.00386408,173.955304 L18.3563717,110.425049 L20.2206908,134.804605 L55.6427519,51.7707047 L56.2163885,114.010278 L152.58734,2.84217094e-14 Z M73.5688961,313.062184 C75.4332152,313.349002 77.154125,313.492411 78.1579891,313.63582 C75.5971113,315.786958 71.6460428,319.767293 67.6113538,323.95668 L66.8036881,324.796865 C66.2650173,325.358206 65.7264084,325.921344 65.1909584,326.482438 L64.3905399,327.322065 C63.8590233,327.880154 63.3322141,328.434279 62.8132096,328.9806 C58.7977533,333.282875 55.2125244,337.154922 53.3482054,339.16265 C51.3404772,342.60447 56.0729793,349.057882 56.0729793,349.057882 C45.4607019,340.740151 36.4259252,354.36402 36.4259252,354.36402 C35.88248,348.929568 41.9032809,344.653512 42.5385548,344.218455 L42.586371,344.186058 C31.6934231,346.046289 18.7865992,356.228339 18.7865992,356.228339 C17.3525077,351.06561 23.8059196,347.62379 23.8059196,347.62379 C23.8059196,343.464925 29.3988766,343.895152 35.5654703,342.174242 C37.1142891,341.709596 38.9233096,341.189193 40.771732,340.66656 L42.0074278,340.318395 C44.8930311,339.507979 47.7552484,338.72095 49.7629765,338.158786 L49.9063857,338.015377 C49.9063857,338.015377 49.9171302,338.003289 49.9382293,337.979585 L49.994118,337.916828 C50.6540234,337.17615 54.9580888,332.355341 60.2318448,326.686053 C64.6775286,321.810142 69.5534398,316.504004 73.5688961,313.062184 Z M150.292794,297.573995 C159.184161,300.011951 204.788272,315.500139 223.288053,309.907182 L222.892583,310.095838 C212.282182,315.05848 196.516574,314.568865 177.253715,308.903318 L180.408716,317.364458 L174.385532,313.922639 L150.723021,300.011951 Z M595.282461,181.983885 L595.282461,226.164786 C595.282461,231.306529 594.901591,235.305663 594.139851,237.781317 C593.378111,240.828275 592.045067,243.303929 590.331153,245.398713 C587.093759,249.588282 582.523321,251.683066 576.619838,251.683066 C572.43027,251.683066 568.240702,250.540456 564.622438,248.445672 L564.051134,248.064802 L564.432004,247.303063 L569.192877,238.733491 L569.573746,237.971752 L570.335486,238.352621 C572.620705,239.876101 574.715489,240.63784 576.619838,240.63784 C579.476362,240.63784 581.190277,239.685666 582.142451,237.781317 C583.285061,235.686532 583.856365,231.877834 583.856365,226.355221 L583.856365,190.172587 L584.237235,189.982152 L593.949416,182.93606 L595.282461,181.983885 Z M513.395445,181.603015 C522.917191,181.603015 531.296327,185.030844 538.151985,192.076936 C545.007642,198.742158 548.43547,207.311729 548.43547,216.833475 C548.43547,226.545656 545.007642,234.543923 537.96155,241.39958 C531.105893,248.255237 522.536321,251.683066 512.82414,251.683066 C504.064134,251.683066 496.256302,248.636107 489.400645,242.54219 C481.783248,235.876967 477.97455,226.926526 477.97455,216.262171 C477.97455,206.740425 481.592813,198.742158 488.44847,191.886501 C495.304127,185.030844 503.683264,181.603015 513.395445,181.603015 Z M195.559563,181.41258 C201.463045,181.41258 207.366528,182.93606 213.079576,186.173453 L213.841315,186.554323 L213.460445,187.316063 L208.699572,195.695199 L208.318703,196.456939 L207.556963,196.076069 C203.55783,193.600415 199.177826,192.457806 194.988258,192.457806 C188.703906,192.457806 182.990858,194.743025 178.42042,199.123028 C173.849982,203.883901 171.564763,209.596948 171.564763,216.452606 C171.564763,223.117828 174.040417,229.02131 178.42042,233.401313 C182.990858,238.162186 188.513471,240.447405 194.988258,240.447405 C198.225652,240.447405 201.272611,240.066536 203.55783,238.923926 C204.700439,238.352621 206.033484,237.590882 207.366528,236.829142 L208.128268,236.448272 L208.509137,237.210012 L213.27001,245.589148 L213.27001,246.350888 L212.889141,246.541323 C207.176093,249.778717 201.082176,251.492631 194.607388,251.492631 C184.895207,251.492631 176.706506,248.255237 169.850849,241.39958 C163.185626,234.734358 159.757798,226.355221 159.757798,216.833475 C159.757798,208.073469 162.614322,200.646507 168.327369,193.79085 C175.373461,185.411713 184.514338,181.41258 195.559563,181.41258 Z M429.22321,182.93606 C438.173651,182.93606 444.648439,184.649974 448.647572,187.887367 C453.21801,191.696066 455.503229,196.647374 455.503229,202.931726 C455.503229,207.692599 453.97975,212.072602 451.313661,215.500431 C448.838007,218.737825 445.410178,220.832609 441.411045,221.975218 L456.645839,243.494364 L457.026708,244.065669 L456.455404,244.446539 L448.457137,250.350021 L447.885832,250.730891 L447.504962,250.159586 L428.84234,223.498698 L428.271036,223.498698 L428.271036,243.113494 L427.890166,243.303929 L417.98755,250.350021 L416.84494,251.302196 L416.84494,182.93606 Z M800,182.745625 L800,193.79085 L784.955641,193.79085 L784.955641,242.923059 L784.574771,243.113494 L774.672156,250.159586 L773.339111,251.111761 L773.339111,193.79085 L758.104318,193.79085 L758.104318,182.745625 L800,182.745625 Z M364.475337,182.745625 C369.99795,182.745625 374.377953,183.126494 377.234477,183.888234 C380.091001,184.649974 382.947524,186.173453 385.423178,188.649107 C389.422312,192.457806 391.326661,197.218679 391.326661,203.122161 C391.326661,209.216079 389.041442,214.357821 384.851874,217.976085 C380.662305,221.594348 374.949258,223.498698 367.903166,223.498698 L364.094467,223.498698 L364.094467,242.923059 L363.713598,243.113494 L353.810982,250.159586 L352.477937,251.111761 L352.477937,182.745625 Z M702.497321,181.79345 L702.497321,207.692599 L726.682556,182.93606 L726.872991,182.55519 L742.488654,182.55519 L711.828632,213.215212 L736.394737,242.923059 L736.966041,243.684799 L736.204302,244.256104 L727.63473,250.159586 L727.063426,250.540456 L726.682556,249.969151 L703.63993,221.213479 L702.497321,222.356088 L702.497321,242.732625 L702.116451,242.923059 L692.213835,249.969151 L690.880791,250.921326 L690.880791,189.982152 L691.26166,189.791717 L701.164276,182.745625 L702.497321,181.79345 Z M666.124251,182.93606 L664.791207,184.269104 L655.65033,193.600415 L655.459895,193.79085 L655.65033,193.79085 L655.65033,194.362155 L638.511188,194.362155 L638.511188,207.883034 L657.935549,207.883034 L647.271194,218.54739 L647.080759,218.737825 L638.511188,218.737825 L638.511188,239.685666 L666.124251,239.685666 L664.791207,241.01871 L655.840765,250.350021 L655.65033,250.540456 L627.085092,250.540456 L627.085092,182.93606 L666.124251,182.93606 Z M251.737864,182.745625 C258.403087,182.745625 263.925699,183.316929 267.734398,184.649974 C272.114401,185.983018 275.923099,188.268237 279.350928,191.505631 C286.39702,197.599548 289.824848,206.16912 289.824848,216.452606 C289.824848,226.736091 286.206585,235.115228 278.970058,241.590015 C275.351795,244.827409 271.352661,247.112628 267.543963,248.255237 C263.735264,249.588282 258.593522,250.159586 251.737864,250.159586 L237.26481,250.159586 L237.26481,182.745625 Z M513.20501,192.267371 C506.539788,192.267371 500.636305,194.743025 496.256302,199.313463 C491.685864,203.883901 489.400645,209.596948 489.400645,216.262171 C489.400645,223.498698 492.066734,229.40218 496.637172,233.782183 C501.398045,238.352621 506.920658,240.63784 513.014575,240.63784 C519.679797,240.63784 525.392845,238.162186 529.963283,233.591748 C534.533721,228.830875 537.009375,223.117828 536.81894,216.452606 C536.81894,209.596948 534.343286,203.883901 529.963283,199.313463 C525.392845,194.55259 519.870232,192.267371 513.20501,192.267371 Z M252.499604,193.600415 L248.881341,193.600415 L248.881341,239.114361 L252.499604,239.114361 C256.879607,239.114361 260.497871,238.733491 263.354395,237.781317 C266.401353,237.019577 268.877007,235.496098 271.162226,233.401313 C275.732664,229.02131 278.017883,223.498698 278.208318,216.64304 C278.208318,209.596948 275.732664,203.693466 271.162226,199.503898 C266.972658,195.504764 260.688306,193.600415 252.499604,193.600415 Z M367.522296,192.838675 L364.094467,192.838675 L364.094467,213.786517 L367.141426,213.786517 C376.472737,213.786517 381.23361,210.168253 381.23361,202.931726 C381.23361,196.076069 376.663172,192.838675 367.522296,192.838675 Z M431.889299,192.838675 L428.46147,192.838675 L428.46147,213.786517 L431.508429,213.786517 C441.030175,213.786517 445.600613,210.168253 445.600613,202.931726 C445.600613,196.076069 441.030175,192.838675 431.889299,192.838675 Z M72.2782138,170.656894 L57.7938892,202.637135 L78.0145799,187.292355 L77.7715565,186.2925 C76.3715713,180.649502 74.5807274,175.397363 72.2782138,170.656894 Z M46.3211568,162.482572 C47.1816118,164.920527 46.464566,167.788711 44.7436561,169.366211 C44.1700195,169.939848 43.4529737,170.370075 42.735928,170.656894 C39.5809266,171.660758 35.9956977,169.65303 34.8484245,166.354619 L36.282516,165.924392 C36.282516,166.21121 36.4259252,166.354619 36.4259252,166.498028 C37.2863801,168.218938 39.00729,169.366211 40.871609,169.366211 C41.4452456,169.366211 42.0188822,169.366211 42.5925188,169.079393 C43.0227463,168.792575 43.4529737,168.649165 43.7397921,168.075529 C44.0266104,167.788711 44.3134287,167.501892 44.600247,167.071665 L43.1661554,166.21121 C43.3095646,165.780982 43.4529737,165.350755 43.4529737,164.920527 C43.4529737,164.4903 43.3095646,163.916663 43.1661554,163.486436 Z" id="Combined-Shape"></path>
            </g>
        </g>
    </g>
</svg>