<?xml version="1.0" encoding="UTF-8"?>
<svg width="800px" height="400px" viewBox="0 0 800 400" version="1.1" xmlns="http://www.w3.org/2000/svg" xmlns:xlink="http://www.w3.org/1999/xlink">
    <title>chucklefish</title>
    <g id="Page-1" stroke="none" stroke-width="1" fill="none" fill-rule="evenodd">
        <g id="chucklefish" fill="#000000">
            <line x1="0" y1="0" x2="800" y2="400" id="Path" fill-rule="nonzero"></line>
            <path d="M103.358691,322.068732 C94.8370797,323.481521 87.4041474,328.886686 82.4485822,337.272004 C78.7994313,343.446723 76.984413,351.43646 77.0001008,361.251189 C77.032614,381.892867 85.3597586,394.936234 101.07579,398.962683 C110.112653,401.277164 124.926992,398.604499 128.089978,394.08773 C130.424404,390.756041 128.894436,383.453584 124.715074,377.973624 C122.717224,375.354978 122.498657,375.273535 120.367839,376.363876 C107.886264,382.750513 97.2454694,373.394526 98.9075742,357.494001 C99.5549639,351.298506 101.608494,347.135765 105.231052,344.674187 C108.411489,342.51262 113.797539,342.191834 117.943659,343.917099 C119.414622,344.528753 121.121604,344.859512 121.737413,344.651749 C123.635537,344.011008 127.680269,334.404042 127.6811,330.533832 C127.681931,327.429851 127.347017,326.784123 124.981011,325.329782 C120.089437,322.323034 110.521531,320.880327 103.358691,322.068732 M302.383264,322.113609 C287.732642,324.581835 277.656133,337.636005 275.960786,356.3405 C274.259622,375.11148 281.747403,391.274617 294.944515,397.31803 C299.431366,399.372392 301.127544,399.689022 307.604766,399.67848 C317.143585,399.66326 323.67815,397.79173 326.688222,394.214881 C329.228749,391.195667 329.081653,389.331617 325.698438,381.668483 C322.972587,375.494595 322.212174,374.896237 319.072458,376.462771 C311.565562,380.207493 303.388007,377.907971 299.861852,371.0601 C298.164012,367.763315 297.969545,366.383768 298.221354,359.408746 C298.540478,350.560531 300.071277,346.899746 304.55896,344.258661 C307.671251,342.427022 313.924089,342.376328 317.363814,344.155611 C319.908497,345.471167 320.024844,345.45039 321.818255,343.36528 C323.94658,340.890406 327.134497,332.855792 327.134497,329.965392 C327.134497,324.482108 313.671449,320.21133 302.383264,322.113609 M626.921676,322.068732 C610.555762,324.782949 602.592618,341.165484 609.889258,357.104238 C612.266068,362.295822 615.26118,364.997573 624.004682,369.836791 C628.39347,372.265126 630.127876,373.702846 630.324835,375.076576 C631.149239,380.82081 623.391365,380.66291 614.616284,374.758283 C610.583187,372.043235 610.241624,371.954312 609.182032,373.330535 C607.438484,375.595984 605.537037,382.585134 605.537037,386.72793 C605.537037,390.047153 605.936773,390.84247 609.157101,393.927336 C616.44543,400.911501 633.501117,402.094088 643.531088,396.311626 C650.612485,392.228665 655.105155,382.073206 654.370504,371.808047 C653.694028,362.361475 649.000244,356.621396 637.117026,350.706797 C629.664149,346.99781 628.265488,345.12628 630.943138,342.447798 C632.583636,340.808132 637.330607,340.82226 641.687814,342.480209 C647.963922,344.867823 647.6074,344.985001 649.503862,339.915582 C650.471207,337.331009 651.654625,333.464122 652.134973,331.323331 C652.954391,327.665039 652.880427,327.320983 650.90834,325.624805 C647.588286,322.768478 634.446024,320.820492 626.921676,322.068732 M145.965083,322.544925 C144.822386,322.745209 143.046427,323.091758 142.017584,323.315311 L140.147716,323.721695 L140.147716,360.671945 L140.147716,397.622195 L142.017584,398.088416 C143.046427,398.345211 147.627188,398.445768 152.197976,398.311969 L160.508499,398.069301 L160.924025,385.18799 L161.339551,372.306678 L168.589652,372.066504 L175.840584,371.827161 L176.069123,384.947816 L176.298494,398.069301 L186.271122,398.069301 L196.24375,398.069301 L196.459824,360.978604 L196.675898,323.888737 L194.797719,323.385119 C192.368553,322.734405 180.179508,322.732743 177.752836,323.382626 C175.912886,323.876271 175.882968,324.097331 175.882968,337.084186 L175.882968,350.283791 L168.403497,350.283791 L160.924025,350.283791 L160.924025,337.075876 C160.924025,326.873877 160.673047,323.771559 159.82205,323.444955 C158.090137,322.780113 148.264605,322.141865 145.965083,322.544925 M340.639098,322.884826 L338.76923,323.636928 L338.76923,360.58884 C338.76923,397.037965 338.792499,397.549063 340.462083,398.079274 C342.76493,398.809769 358.274029,398.855477 359.440826,398.134124 C360.071595,397.74436 360.376591,393.221773 360.376591,384.258873 C360.376591,375.31675 360.658318,371.135726 361.235899,371.493078 C361.707937,371.784777 364.874246,377.573888 368.271589,384.356106 C371.6681,391.139156 375.291488,397.279802 376.322824,398.001986 C380.337638,400.814267 388.284991,398.587047 395.487722,392.630895 L398.602506,390.055464 L391.867658,380.349603 C388.163658,375.011754 383.441618,368.13064 381.37396,365.057409 L377.61511,359.470244 L386.447535,342.81263 C391.305867,333.650278 395.28079,325.800157 395.28079,325.367179 C395.28079,324.934201 394.625921,324.243596 393.826449,323.833887 C391.71142,322.748533 381.631586,321.993938 377.258589,322.593957 C372.721874,323.215585 372.422695,323.641083 365.646294,339.135223 C362.976123,345.239303 360.605131,350.245562 360.376591,350.25969 C360.148052,350.273818 360.072426,344.299383 360.208719,336.982798 L360.456372,323.679312 L358.284832,322.853246 C355.608844,321.836038 343.192922,321.858476 340.639098,322.884826 M410.655259,322.382039 C410.19818,322.564039 408.795364,322.940506 407.538812,323.218078 L405.253418,323.721695 L405.253418,359.256663 C405.253418,390.072916 405.425446,395.03596 406.547367,396.637398 C407.815553,398.448261 408.189526,398.484828 425.632484,398.484828 C446.513506,398.484828 445.227037,399.167122 445.227037,388.096673 C445.227037,377.804921 445.133128,377.708519 435.142216,377.708519 L426.86078,377.708519 L426.86078,351.216232 C426.86078,328.976439 426.665482,324.56272 425.64495,323.715047 C424.488125,322.756013 412.40961,321.680631 410.655259,322.382039 M670.78545,322.617227 C668.962953,322.818342 666.999176,323.375147 666.422426,323.853833 C664.939828,325.084621 664.889134,396.006629 666.370069,397.487565 C667.416364,398.53386 683.17561,398.936089 685.665443,397.980379 C686.785701,397.550725 686.980168,395.581962 686.980168,384.683541 L686.980168,371.891152 L694.044113,371.891152 L701.108058,371.891152 L701.108058,384.683541 C701.108058,395.581962 701.302524,397.550725 702.422783,397.980379 C703.145798,398.25795 707.415745,398.484828 711.911738,398.484828 C716.407732,398.484828 720.677679,398.25795 721.400694,397.980379 C722.571647,397.53078 722.715419,393.496851 722.715419,361.027636 C722.715419,318.64729 723.907148,322.859063 711.911738,322.859063 C700.600285,322.859063 701.108058,322.174276 701.108058,337.431566 L701.108058,350.283791 L694.044113,350.283791 L686.980168,350.283791 L686.980168,337.042634 C686.980168,325.143626 686.833071,323.760755 685.525826,323.390106 C683.062587,322.692853 674.277532,322.23245 670.78545,322.617227 M208.815911,323.925303 C207.467944,324.910931 207.377359,327.052553 207.618364,352.388846 C207.872666,379.13128 207.925022,379.890031 209.84226,384.13006 C214.925807,395.373368 229.256474,401.876352 243.684374,399.486246 C254.600247,397.677876 262.973931,391.253841 265.528586,382.726413 C266.145226,380.668727 266.467675,370.034581 266.467675,351.730653 C266.467675,327.089951 266.315592,323.809787 265.15295,323.363512 C264.429934,323.08594 259.973001,322.859063 255.248468,322.859063 C250.523935,322.859063 246.067001,323.08594 245.343986,323.363512 C244.184668,323.808125 244.029261,326.89216 244.029261,349.482656 C244.029261,377.263906 244.064996,377.042015 239.400299,378.212967 C237.148979,378.778083 233.371015,378.032629 231.776225,376.708763 C230.980077,376.048076 230.732423,369.763658 230.732423,350.211489 C230.732423,325.720376 230.660953,324.541113 229.125168,323.719202 C226.754176,322.451016 210.60849,322.614734 208.815911,323.925303 M454.853947,323.398416 C454.151708,324.100655 454.09021,395.346774 454.789956,397.170103 C455.230414,398.317786 457.806676,398.484828 475.101707,398.484828 C489.517141,398.484828 495.075219,398.215567 495.519832,397.495875 C495.856409,396.952367 496.300191,393.593253 496.506292,390.032194 C496.800484,384.948647 496.586073,383.107035 495.509029,381.464044 C494.17519,379.427966 493.876011,379.370623 484.599804,379.370623 L475.061816,379.370623 L475.061816,374.384309 L475.061816,369.397995 L481.608847,369.397995 C486.212877,369.397995 488.44259,369.052277 489.123222,368.232029 C489.736539,367.492392 490.001645,364.528859 489.8479,360.129268 L489.605233,353.192474 L482.333525,352.9523 L475.061816,352.712126 L475.061816,347.368459 L475.061816,342.024793 L485.242208,341.791267 L495.422599,341.557741 L496.172208,337.139036 C496.616821,334.514572 496.616821,330.803093 496.172208,327.99746 L495.422599,323.274589 L475.422493,323.052698 C464.422684,322.930534 455.166423,323.08594 454.853947,323.398416 M507.472858,361.468925 C507.472858,393.779409 507.611644,397.565684 508.833291,398.579568 C510.339158,399.82947 522.038713,400.176019 525.963773,399.087341 L528.249167,398.453248 L528.249167,384.756674 L528.249167,371.0601 L535.234993,371.0601 L542.22082,371.0601 L542.792584,366.904838 C543.106721,364.619444 543.109215,360.894667 542.796739,358.626725 L542.229961,354.503875 L535.447743,354.263701 L528.664694,354.023526 L528.420364,347.998397 L528.176035,341.973267 L538.169439,341.973267 C549.911378,341.973267 549.244043,342.673844 548.85428,330.75406 L548.60995,323.274589 L528.55167,323.051867 C510.803716,322.855739 508.434386,322.98289 507.983125,324.158829 C507.702229,324.890155 507.472858,341.679906 507.472858,361.468925 Z M557.713298,324.792922 C556.724345,328.734603 556.962026,338.433815 558.091426,340.218085 C558.535208,340.917831 560.4084,341.408152 562.857512,341.464663 L566.893102,341.557741 L566.893102,360.671945 L566.893102,379.78615 L562.907375,380.041283 C559.53164,380.256525 558.799483,380.614709 558.128824,382.380695 C557.098319,385.090757 557.109123,393.624002 558.146276,396.353178 L558.956552,398.484828 L577.626974,398.484828 C590.35371,398.484828 596.477735,398.192297 596.865005,397.567346 C597.854789,395.965077 598.262835,386.548423 597.472505,383.525885 C596.740347,380.721083 596.558347,380.60806 592.39893,380.366224 L588.084937,380.114415 L588.084937,360.590502 L588.084937,341.065758 L591.88534,341.262718 C594.318661,341.388206 595.930071,341.064927 596.36305,340.363519 C597.346185,338.772885 598.17973,331.588437 597.66614,329.125198 C597.424304,327.964218 597.032047,326.079391 596.795197,324.936694 L596.363881,322.859063 L577.281256,322.859063 L558.198632,322.859063 L557.713298,324.792922 M375.660884,-7.32975423e-05 C378.142586,0.00378912936 381.140066,0.0588275905 384.164335,0.150567515 L385.298737,0.186662097 C390.400601,0.356574995 395.404694,0.625848718 397.961222,0.924926873 C426.493883,4.26271633 450.765627,14.0632539 471.914563,30.7853082 C477.956809,35.5626081 491.005704,48.7619896 495.743017,54.887648 C503.877025,65.4057909 511.086616,77.3703236 515.565952,87.783986 C516.887653,90.8556294 518.220104,93.9483409 518.527096,94.6564872 L519.085616,95.9442212 L520.069367,94.0115452 C520.448292,93.2675402 521.255321,91.9072932 522.112913,90.549764 L522.482447,89.9699367 C522.7294,89.5859021 522.976077,89.2093076 523.213674,88.8545896 C532.312085,75.2734024 541.572591,66.7863966 552.216712,62.273523 C556.965635,60.2600143 557.340561,60.2350765 558.344521,61.8659197 C560.288376,65.0226954 562.519445,74.2823417 563.501476,83.2650929 C564.208333,89.7330005 564.096543,103.111676 563.284346,109.277751 C560.194644,132.727409 551.102253,149.661004 540.80941,151.133192 L538.80407,151.419976 L541.69083,152.841428 C548.456271,156.171908 557.915419,167.648865 562.169886,177.688891 C565.478438,185.496988 566.953635,193.351091 566.966618,203.224292 C566.978573,212.549722 565.695569,220.427043 562.764953,229.021969 C561.447121,232.886891 559.768122,236.331311 559.201863,236.331311 C558.229721,236.331311 551.588969,233.658671 549.092614,232.262587 C545.320133,230.152767 539.91165,226.075444 536.926429,223.090223 C532.158588,218.322382 525.685951,208.926438 521.902722,201.280437 C520.429245,198.302095 519.645425,197.607707 519.636396,199.272517 C519.631948,200.078472 517.776366,204.418392 515.655583,208.793775 L515.335675,209.449911 C515.282091,209.559166 515.228391,209.668333 515.1746,209.777359 L514.850955,210.429373 C514.148207,211.836488 513.438385,213.201158 512.775934,214.403285 C501.188047,235.433121 484.989686,253.870721 465.866298,267.797167 C446.970789,281.557218 424.040954,290.583396 400.044384,293.707064 C379.807826,296.341437 361.592086,295.047254 342.162566,289.594055 C319.68333,283.285233 294.400746,268.630002 276.980005,251.810777 C262.93059,238.245928 262.218144,234.106261 271.164779,218.022699 C277.772424,206.144159 279.828929,200.160387 279.871495,192.69024 C279.911051,185.683161 278.076836,180.989274 273.647805,176.764474 C266.549574,169.994304 254.929441,169.059568 243.912972,174.373029 C241.969977,175.310345 239.658506,176.513377 238.776225,177.046529 C237.893944,177.580111 237.091637,177.931819 236.992746,177.829058 C236.750759,177.575561 235.943559,171.902767 235.232631,166.0047 L235.097845,164.87388 C234.668434,161.22996 234.291751,157.626494 234.123184,155.283608 C232.83244,137.361102 236.16507,114.957969 242.805392,96.9120641 C256.04476,60.9324737 282.618947,31.276324 316.483558,14.6884176 C333.596017,6.30632233 350.625064,1.72594475 370.65868,0.117029617 C371.562211,0.0444463225 372.996541,0.00777374976 374.755378,0.000905439625 L375.660884,-7.32975423e-05 Z M250.054539,179.80731 C253.429736,178.877734 259.853357,179.156349 262.974446,180.36755 C267.758625,182.224122 270.534025,186.490628 270.989784,192.69024 C271.400397,198.267698 269.798362,202.695869 263.956048,212.13137 C258.781034,220.489817 256.839329,225.461459 256.174608,232.054916 L255.851707,235.256407 L253.684273,235.203522 C247.792943,235.060345 239.286159,228.183114 235.667175,220.637724 C233.398699,215.908579 232.694853,211.862644 232.981207,205.198244 C233.375911,196.010401 235.527438,190.231721 240.370951,185.351231 C243.088737,182.612378 246.073958,180.903281 250.054539,179.80731 Z M355.395054,147.344373 C347.749053,148.26234 340.626314,151.843058 336.438921,156.874895 C332.770062,161.283718 330.027339,167.690571 330.027339,171.852166 C330.027339,174.061737 329.56255,174.738067 326.157687,177.482939 C323.451511,179.664133 319.998062,181.522856 315.786161,183.064697 C309.235271,185.462591 305.638215,186.069266 296.490358,186.318644 C291.879024,186.444622 287.92252,186.720228 287.69851,186.930909 C287.006702,187.58144 289.978165,190.197755 293.449672,191.994133 C304.590829,197.760344 316.258688,197.458941 329.277916,191.067566 L334.762932,188.375149 L338.551751,192.110222 C343.059465,196.553872 349.503295,200.895191 357.32988,204.761403 C364.864522,208.483148 368.293893,208.886452 368.293893,206.050857 C368.293893,204.769572 366.409803,203.101323 360.339609,199.007231 C344.600446,188.391917 338.56766,179.445713 340.930297,170.224763 C342.238669,165.116823 344.539392,161.668963 348.307573,159.167449 C355.174054,154.609859 363.825305,154.074127 379.687867,157.224024 C386.76331,158.629567 388.499924,158.768444 389.276004,157.992364 C390.083471,157.184897 389.897298,156.530066 388.447898,155.080666 C386.689357,153.322125 383.232898,151.610449 378.183003,149.997234 C370.469927,147.533126 362.017748,146.548945 355.395054,147.344373 Z M259.258721,135.709191 C252.845418,137.070018 247.421457,142.686173 245.15814,150.309816 C244.472352,152.619998 244.228564,155.498589 244.71872,155.498589 C244.858027,155.498589 246.067508,154.514837 247.405978,153.312666 C252.053,149.138172 256.718509,147.505179 262.977026,147.862046 C267.572022,148.123893 271.279148,149.674333 274.487949,152.675893 C275.641966,153.755526 276.711279,154.638666 276.864345,154.638666 C277.501118,154.638666 277.070297,150.575102 276.113633,147.563223 C273.290937,138.674204 266.799812,134.108875 259.258721,135.709191 Z M343.161366,103.704592 C341.990151,104.025774 339.668361,104.964379 338.001831,105.790335 C327.637184,110.927512 321.483148,121.586682 321.941057,133.6084 C322.058866,136.705841 322.296635,138.033991 322.896431,138.949809 C323.76797,140.279506 323.691217,140.510731 325.991295,136.31145 L326.262013,135.816954 C326.355756,135.645693 326.453063,135.467945 326.554111,135.283529 C330.917788,127.319356 338.361708,121.550136 347.958014,118.693903 C353.016509,117.188608 360.977672,116.804223 366.003489,117.822801 C369.698478,118.571274 370.007075,118.711797 370.018499,117.825291 L370.018409,117.688178 C370.017163,117.567727 370.013738,117.431698 370.013738,117.27933 C370.013738,115.572384 366.873731,111.412078 363.563889,108.73385 C360.585547,106.323917 357.095121,104.481103 353.89019,103.626769 C351.179714,102.904005 345.940636,102.941841 343.161366,103.704592 Z" id="Combined-Shape"></path>
        </g>
    </g>
</svg>