<?xml version="1.0" encoding="UTF-8"?>
<svg width="800px" height="400px" viewBox="0 0 800 400" version="1.1" xmlns="http://www.w3.org/2000/svg" xmlns:xlink="http://www.w3.org/1999/xlink">
    <title>coffeestain</title>
    <g id="Page-1" stroke="none" stroke-width="1" fill="none" fill-rule="evenodd">
        <g id="Manufacturer" fill="#000000" fill-rule="nonzero">
            <g id="coffeestain">
                <line x1="0" y1="0" x2="800" y2="400" id="Path"></line>
                <path d="M491.624552,319.919976 C499.404521,320.858938 500.47762,325.822022 500.075208,332.931303 C423.214482,335.479914 346.353755,360.697744 299.405668,400 C293.503623,398.390351 289.211226,392.085894 288.808814,385.915574 C288.272264,377.330781 292.028111,371.16046 298.734981,365.929102 C342.597908,336.016463 437.433045,317.371366 491.624552,319.919976 Z M359.365083,176.258828 C369.559524,176.527103 373.181234,183.502248 372.912959,191.282216 C372.242272,207.646978 351.048564,230.18206 335.756901,243.864074 C318.721452,303.555214 290.01605,390.476245 221.471842,391.951756 C189.815418,392.622443 165,372.635972 165,340.30886 C165,309.993809 188.474044,280.751858 220.398743,280.483583 C232.471109,280.483583 249.506558,285.714941 249.774832,300.335917 L248.567596,301.677291 C228.446987,284.910117 202.02192,307.445199 202.290195,330.382693 C202.424333,345.271944 213.557736,356.807759 230.32491,356.673622 C269.761304,356.405347 299.137393,301.945566 312.551132,261.167798 C295.113271,272.435339 277.272998,280.081171 264.127534,280.349445 C226.166651,281.15427 227.508025,238.900991 245.080024,234.072045 C246.957947,233.535495 249.238283,233.937907 249.90897,235.279281 C246.018985,238.632716 247.092085,243.998212 249.774832,247.754059 C252.99413,252.180593 259.701,253.924379 266.810281,254.058516 C283.443318,254.460928 302.222553,247.888196 318.85559,237.42548 C323.952811,218.646245 335.220352,175.856416 359.365083,176.258828 Z M534.280243,322.870999 C538.03609,325.017197 540.584701,328.504769 539.511602,334.406815 C530.524396,333.065441 522.07374,331.858204 512.684123,332.663029 C505.977253,327.565808 507.855177,319.785839 516.97652,319.517564 C523.415114,319.249289 531.463358,321.395488 534.280243,322.870999 Z M575.996972,156.138219 C581.630743,159.357517 584.447628,166.735073 579.21627,171.56402 C580.155232,181.221912 579.350407,188.867743 573.582499,197.184262 C559.900485,216.634184 530.121984,218.646245 508.660001,220.792443 C470.028432,224.54829 426.433779,227.63345 388.070485,237.023067 C377.741905,253.656104 368.084013,272.837751 362.450243,286.78804 C361.108869,290.141475 357.755434,301.274879 364.596441,301.140741 C369.157112,301.006604 375.193295,295.641108 379.083279,290.543887 C386.729111,265.460195 409.39833,234.876869 433.274786,234.072045 C440.78648,233.80377 449.505411,238.096167 449.505411,246.546822 C449.639548,256.875402 435.420984,260.899523 436.225809,255.668165 C436.896496,250.436807 437.969595,248.290608 433.006511,248.424746 C417.312436,248.827158 391.826332,292.95836 404.569384,294.165597 C410.069017,294.702146 416.910024,285.446666 421.202421,278.06911 C424.421718,272.703614 428.311703,262.911584 435.689259,262.777447 C439.847518,262.777447 443.603365,264.923645 443.737503,269.081904 C443.81032,271.48488 442.697254,274.678445 441.492705,277.954457 L441.110556,278.990902 C440.217738,281.411814 439.337796,283.837018 438.908557,285.983216 C437.70132,291.348712 438.908557,293.49491 440.920618,293.360772 C445.68155,293.241749 449.80881,285.413032 453.396108,277.371603 L453.736126,276.60535 L454.24007,275.456706 C454.406841,275.074421 454.572404,274.693004 454.736769,274.313263 C457.151242,264.789508 465.199486,244.534761 472.442905,239.43754 C474.320828,238.096167 477.003576,237.023067 479.686324,237.023067 C484.112858,237.157205 488.807667,239.303403 490.149041,242.925113 C486.661469,246.949234 466.406722,285.044254 477.674263,284.507705 C488.67353,283.971155 498.733834,261.972622 502.221406,252.046455 C503.160368,246.278548 502.892093,241.717876 500.343483,240.242365 C502.355544,234.742732 508.123452,230.852747 514.025497,230.986885 C519.927542,230.986885 525.1589,236.084106 524.488214,242.388563 C531.597495,234.474457 542.328487,225.353114 553.596028,225.084839 C560.16876,224.950702 564.461157,230.18206 564.461157,236.486518 C564.461157,245.071311 557.0836,254.460928 553.596028,261.838485 C549.840181,269.752591 538.438502,294.970421 555.742226,295.238696 C568.351141,295.506971 578.67972,281.690819 579.082133,273.106026 C579.21627,269.618454 577.874896,266.130882 574.387324,265.862607 C572.241125,265.72847 570.094927,266.533294 568.485278,268.142943 L567.680454,267.874668 C569.42424,259.692287 575.192148,252.046455 584.045216,252.046455 C592.630009,252.046455 596.788268,258.350913 596.922406,266.801569 C596.922406,290.40975 570.094927,315.895855 546.889158,315.761717 C532.804732,315.62758 522.61029,307.713474 523.683389,292.824223 C524.756488,277.264285 534.548518,265.72847 538.975052,253.924379 C539.914014,251.241631 543.535723,243.193387 538.170228,243.5958 C529.585434,244.132349 513.35481,280.081171 510.001375,287.995277 C507.855177,293.092498 504.770017,298.323856 498.331422,298.189719 C493.904888,298.055581 489.210079,293.763185 489.075942,289.470788 C483.844583,296.177658 472.845317,305.030726 464.260524,304.762451 C457.017105,304.628314 453.931945,299.933505 452.724708,297.519032 C448.566449,304.494176 442.798541,309.859672 435.15271,309.859672 C425.628955,309.859672 422.409657,302.21384 421.73897,293.360772 C415.166238,304.091764 404.703521,316.566541 391.021507,316.968954 C383.241539,317.237228 378.680867,313.078969 377.071218,306.3721 C368.7547,316.834816 355.609236,329.309594 344.207557,329.577869 C334.952077,329.846143 330.927955,322.602724 331.19623,314.152068 C331.641566,301.014652 343.730216,278.266882 356.954551,256.876574 L357.912358,255.332805 C360.311087,251.48006 362.738638,247.680283 365.132991,243.998212 C358.426121,246.68096 352.389938,249.76612 347.963404,253.521967 C344.475832,253.387829 343.402733,248.156471 344.07342,245.205448 C345.146519,240.644777 347.695129,236.620655 351.316839,234.072045 C356.011648,230.852747 365.66954,227.63345 378.144318,224.54829 C381.497752,219.719344 384.314638,215.426947 386.594973,212.073512 C389.277721,208.04939 392.094607,204.025269 397.460102,204.025269 C402.423186,203.891131 405.240071,207.781116 405.642483,212.610062 C403.76456,214.75626 401.886636,217.170733 399.874575,219.719344 C408.543875,218.022506 417.745365,216.382435 427.010647,214.818715 L429.428816,214.412533 C431.243066,214.109215 433.058199,213.808885 434.870706,213.511689 L436.682209,213.215544 C464.44118,208.690835 491.307988,204.9146 504.635879,202.41562 C522.342015,199.062185 547.29157,192.757728 558.022562,182.831561 C561.778409,179.343988 564.192882,174.917454 562.985645,171.56402 C559.766348,162.710952 537.365403,168.076447 531.060946,169.820233 C529.31716,169.551959 528.646473,164.052326 532.134045,161.503715 C543.267449,153.187197 562.985645,148.760663 575.996972,156.138219 Z M505.038292,12.3429339 C505.038292,34.4756038 472.040493,71.2292495 446.554388,93.7643315 C458.492616,92.9595072 471.369806,86.9233245 480.088736,81.8261036 C489.478354,63.7175555 523.012702,0.00229376842 544.20641,0.270568555 C553.193616,0.404705948 556.278776,7.245713 556.144638,14.4891322 C555.608089,38.9021378 518.854443,76.4606078 494.173163,90.9474463 C493.234201,92.8253698 492.429377,94.7032933 491.624552,96.7153542 C495.782811,94.9715681 502.355544,92.6912324 506.916215,93.0936446 C506.916215,93.0936446 502.221406,98.5932777 498.733834,108.25117 L498.705745,108.25919 C498.120961,108.427819 488.56622,111.262039 485.185957,117.372513 C485.454232,120.994222 485.454232,125.152482 485.185957,129.713153 C481.43011,200.135284 430.323764,214.487985 429.921351,186.050858 C429.653077,167.271623 455.005044,123.811108 469.62602,102.08085 C455.809868,109.055994 441.725442,112.945979 441.725442,112.945979 C445.615426,137.09071 424.421718,196.379437 395.179767,196.915987 C386.729111,197.184262 383.375676,192.355315 383.375676,184.307072 C383.375676,164.588875 406.84972,129.042466 419.19036,113.482528 C419.19036,113.451172 418.794531,113.808313 418.059421,114.427151 L417.519704,114.877088 C414.821313,117.104238 409.072568,121.511609 401.886636,124.481795 C396.655278,135.212786 388.33876,147.955838 378.680867,156.943044 C365.132991,169.686096 347.426855,169.417821 339.781023,157.479593 C324.48936,187.123957 288.406402,223.341053 258.225488,223.877603 C230.190773,224.414152 220.130469,201.476658 220.398743,176.929515 C221.203568,119.786986 289.613638,10.330873 351.719251,9.52604868 C368.888838,9.39191129 378.144318,19.3180784 378.278455,35.5487029 C378.412592,63.3151433 335.891039,129.713153 306.51495,129.981428 C296.454645,130.115565 293.369485,119.652848 293.63776,111.470467 C294.308447,90.1426219 317.648353,56.7424111 339.378611,57.9496476 C339.378611,57.9496476 340.98826,58.7544719 340.45171,59.2910215 C332.940016,67.0709903 324.757635,80.618867 325.02591,92.0205454 C325.160047,95.3739803 326.099009,97.6543159 328.379345,97.7884533 C341.658947,96.7153542 375.998119,26.5614976 348.231679,27.2321846 C296.588783,28.5735585 215.167385,189.806705 269.895441,190.879804 C294.844997,191.282216 320.867651,161.101303 335.891039,140.041732 C337.232413,121.664909 353.865449,96.1788046 373.851921,93.6301942 C377.607768,86.1185001 383.912226,79.1433557 392.765293,78.8750809 C408.861781,78.4726687 409.93488,94.7032933 407.654544,107.312208 C417.580711,103.824636 425.226543,96.1788046 427.90929,93.0936446 C439.713381,64.3882425 468.552921,0.270568555 493.502476,0.00229376842 C502.087269,-0.131843625 505.038292,5.63606428 505.038292,12.3429339 Z M343.134458,218.109695 C349.438916,211.805237 354.670274,204.96423 358.560258,198.123223 C359.633357,196.111162 364.059891,188.465331 359.767495,188.062919 C353.463037,187.526369 346.756168,206.708017 343.134458,218.109695 Z M510.001375,154.662708 C513.220672,154.662708 518.183756,156.808906 518.452031,160.296479 C518.452031,160.296479 518.720306,161.503715 516.43997,164.85715 C511.342749,171.832294 504.904154,182.563286 503.965192,191.416354 C503.965192,191.416354 503.965789,191.4247 503.966305,191.440479 L503.966941,191.509197 C503.962808,191.895671 503.831055,193.383702 502.087269,193.964964 C493.368338,193.562552 488.941804,187.392232 488.67353,180.148813 C488.405255,168.344722 497.660735,154.930983 510.001375,154.662708 Z M477.003576,119.786986 C465.467761,140.712419 448.834724,174.783317 455.809868,175.990554 C464.394661,177.600202 477.271851,131.456939 477.003576,119.786986 Z M433.677198,120.189398 C423.885169,129.176603 402.691461,171.56402 408.325231,171.295745 C416.1052,170.893333 432.604099,131.591076 433.677198,120.457673 L433.677198,120.189398 Z M618.786801,53.5231136 C629.786067,53.2548388 635.419838,60.3641207 635.151563,69.351326 C634.480876,86.2526375 613.421305,102.751537 597.458955,103.556361 C593.703108,103.690499 589.544849,103.019812 588.069338,98.9956899 C580.289369,106.909796 579.21627,122.872146 593.434834,122.201459 C603.495138,121.664909 615.835778,111.202193 621.201274,103.556361 C624.822984,103.153949 626.164357,106.507384 625.225396,109.994956 C617.579564,129.444878 596.922406,142.590343 579.618682,142.456205 C567.546317,142.322068 558.290837,136.151748 557.486012,123.006283 C547.962257,133.469 531.731633,144.736541 518.720306,144.065854 C505.977253,143.26103 499.538658,134.542099 500.209345,122.201459 C501.550719,98.0567281 531.195083,61.3030824 555.742226,62.2420442 C564.595294,62.6444563 570.229065,68.1440895 569.96079,76.1923331 C569.42424,92.4229576 548.498807,110.531506 532.40232,110.531506 C528.78061,110.531506 525.1589,109.324269 524.219939,105.434285 C518.183756,112.677704 520.195817,123.140421 530.658534,123.140421 C545.279509,123.006283 558.156699,110.263231 566.473218,97.2519038 C575.862835,77.8019818 596.654131,53.9255258 618.786801,53.5231136 Z M370.230211,111.738742 C357.755434,121.933184 353.999587,142.456205 366.474364,142.456205 C373.851921,142.322068 380.558791,134.944511 385.656012,127.566955 C376.400532,126.627993 371.169173,120.725948 370.230211,111.738742 Z M395.582179,93.3619194 C391.692194,93.4960568 389.545996,99.6663768 389.680133,103.019812 C389.948408,107.178071 392.765293,108.519445 395.984591,108.78772 C399.338026,101.007751 400.008713,93.3619194 395.582179,93.3619194 Z M556.54705,79.8140427 C556.54705,77.8019818 555.473951,76.4606078 553.193616,76.5947452 C547.157433,76.7288826 532.670594,90.0084845 532.938869,94.7032933 C533.207144,101.007751 556.412913,90.1426219 556.54705,79.8140427 Z M617.981977,68.680639 C609.799596,68.4123643 587.666926,90.0084845 599.605154,89.8743471 C611.409244,89.7402098 629.786067,69.2171886 617.981977,68.680639 Z M457.419517,68.2782269 C470.430844,54.7303502 499.002109,16.3670557 491.490415,15.0256818 C483.576309,13.5501705 463.723974,54.327938 457.419517,68.2782269 Z M542.235723,13.1467567 L542.060212,13.1477583 C535.353342,13.2818957 509.598963,56.4741363 504.770017,66.8027155 C517.513069,57.2789606 527.036824,45.6090074 536.292304,32.1952681 C536.670572,31.6479875 537.045942,31.0973267 537.416096,30.5456904 L537.784427,29.9938181 C537.845497,29.9018149 537.906401,29.8098068 537.967128,29.7178051 L538.329277,29.1659593 C538.68913,28.6143673 539.041836,28.0638038 539.385078,27.5166737 L539.725079,26.9707772 C544.214751,19.7086845 546.883893,13.1997077 542.235723,13.1467567 Z" id="Combined-Shape"></path>
            </g>
        </g>
    </g>
</svg>