<?xml version="1.0" encoding="UTF-8"?>
<svg width="800px" height="400px" viewBox="0 0 800 400" version="1.1" xmlns="http://www.w3.org/2000/svg" xmlns:xlink="http://www.w3.org/1999/xlink">
    <title>crtgames</title>
    <g id="Page-1" stroke="none" stroke-width="1" fill="none" fill-rule="evenodd">
        <g id="crtgames" fill="#000000">
            <line x1="0" y1="0" x2="800" y2="400" id="Path" fill-rule="nonzero"></line>
            <path d="M346.980911,2.89291933 C344.450834,5.42299657 344.20091,6.07783054 344.424868,9.5873187 L344.673981,13.4765619 L340.371713,15.2292773 C333.140139,18.1740016 327.309114,22.1492577 322.023379,27.7368497 C316.179371,33.9151717 313.267105,38.7611054 310.543093,46.8422597 C305.456972,61.9302187 307.714405,77.2080552 317.057352,90.9287339 L321.285778,97.1387022 L316.462565,98.6804426 C313.809148,99.5283999 308.757108,101.849125 305.235448,103.83797 C285.07922,115.222506 271.569517,134.394455 267.578843,157.279563 C265.835865,167.27491 265.821259,239.365882 267.560992,249.297125 C270.507339,266.122382 277.024844,278.668093 289.02851,290.619015 C293.759219,295.329438 300.791179,300.803428 305.052062,303.09413 C305.128338,303.134702 304.492167,306.088352 303.63853,309.656264 C301.790064,317.380384 301.629399,325.277341 303.241734,329.135749 C303.884397,330.674244 305.618449,332.668769 307.096086,333.56947 C314.75529,338.239321 324.452837,332.723136 334.104133,318.203998 L337.901683,312.493067 L398.601628,312.493067 L459.302384,312.493067 L462.846764,317.936222 C467.325926,324.816442 473.582146,331.25686 477.951763,333.485892 C484.542298,336.848509 491.639173,334.840189 494.130301,328.906923 C495.638772,325.313856 495.196536,314.439717 493.289647,308.223257 L492.103318,304.358357 L497.894582,300.611928 C513.057194,290.803213 524.133382,275.889714 529.876771,257.548683 L532.110686,250.417727 L532.110686,203.759792 C532.110686,157.751011 532.085517,157.011787 530.276,150.610319 C524.094432,128.753307 509.83171,111.576696 489.720923,101.771227 L482.215893,98.112433 L485.546864,94.3384146 C489.618681,89.7229306 493.839804,81.5427803 495.545456,74.9587371 C497.165907,68.7057623 497.19025,56.2614825 495.594954,49.9590098 C493.40974,41.3236403 488.907858,33.5386625 482.193172,26.7842164 L476.063537,20.6164431 L477.048628,16.7523546 C478.043456,12.8533741 477.946895,11.7871389 476.285872,8.3360746 C474.305953,4.2220619 467.089796,2.80934077 463.297926,5.79220284 C462.145678,6.69858394 460.738637,8.72556692 460.170627,10.2965193 C459.162816,13.0822009 459.055705,13.1390018 455.866737,12.5750494 C450.417902,11.6110559 439.808293,12.011097 434.456019,13.3824346 C423.248377,16.254129 413.3147,22.8292464 406.656816,31.7827012 L402.489248,37.3865221 L400.117402,33.805627 C393.711876,24.1348571 379.873538,14.9980163 368.460602,12.904495 L363.03611,11.9088553 L362.135409,8.33364027 C360.055682,0.0747800617 352.508457,-2.63462594 346.980911,2.89291933 M349.222115,26.5269891 C338.543534,29.3978722 329.852175,36.6748871 325.067911,46.7489439 C319.978544,57.4656629 320.397249,69.8799194 326.211233,80.6226046 C329.204644,86.1533957 336.745378,93.0011576 343.223122,96.0692212 C348.473154,98.5554805 349.187223,98.6780083 358.468501,98.6780083 C367.749778,98.6780083 368.463847,98.5554805 373.713879,96.0692212 C380.191624,93.0011576 387.732357,86.1533957 390.725768,80.6226046 C396.539753,69.8799194 396.958457,57.4656629 391.86909,46.7489439 C384.170125,30.5371372 366.125271,21.9812891 349.222115,26.5269891 M437.989851,26.3695693 C431.761219,27.8877779 424.267549,32.2890412 419.714546,37.1033287 C404.297141,53.4052054 407.185065,80.5950156 425.636452,92.8421149 C438.105075,101.118015 454.487285,101.302213 466.946171,93.3070714 C478.78836,85.7087253 485.507914,70.546925 483.177452,56.6850554 C479.565722,35.2004964 458.830124,21.2891288 437.989851,26.3695693 M361.406733,52.5507566 C357.734957,54.4211313 355.634132,58.0653188 355.634132,62.5688239 C355.634132,76.5134606 375.064119,78.1395911 377.918774,64.4343298 C378.612557,61.1074162 376.063816,55.121406 373.138567,53.2047792 C370.046971,51.1786076 364.689018,50.8799969 361.406733,52.5507566 M449.813377,52.5840258 C441.818236,56.7921658 441.317576,67.0471742 448.861555,72.0870426 C456.321956,77.0709215 465.974063,71.7754487 465.98137,62.693786 C465.988669,54.1484866 457.238075,48.6769309 449.813377,52.5840258 M399.948622,90.969306 L397.800734,94.2150754 L402.275027,94.2150754 C404.736132,94.2150754 406.74932,94.0276322 406.74932,93.797994 C406.74932,93.0547128 403.113247,87.7438227 402.59717,87.7332617 C402.321279,87.7284053 401.130082,89.1841328 399.948622,90.969306 M345.632294,116.971165 C338.607638,118.717389 329.65824,122.911734 323.830461,127.189658 C313.375838,134.86428 304.171647,148.028309 300.362737,160.753348 C298.686297,166.354734 298.515083,168.823953 298.216472,191.795075 C298.007931,207.83161 298.217283,218.844505 298.801522,222.610409 C302.826276,248.553033 322.728522,269.413593 348.494251,274.696082 C357.761734,276.595669 441.116338,276.598103 450.398427,274.697705 C463.571382,272.002094 472.371474,267.147234 482.643523,256.909266 C490.740906,248.839472 495.11458,241.595726 498.569702,230.53739 C500.413299,224.634958 500.470911,223.584952 500.470911,195.645369 C500.470911,163.583659 500.266428,161.987552 494.704802,150.610319 C487.179486,135.215634 474.729526,124.218156 458.081975,118.262169 L450.972928,115.718298 L401.474945,115.556821 C354.865697,115.404269 351.606944,115.486225 345.632294,116.971165 M348.672769,129.4974 C330.487534,134.47073 317.246418,147.947165 312.56683,166.243567 C311.196304,171.601521 310.999123,175.302509 310.999123,195.645369 C310.999123,216.165123 311.189001,219.659194 312.601722,225.185116 C314.99142,234.528063 318.525251,240.55708 325.980783,248.013424 C333.437127,255.468956 339.466144,259.002787 348.809091,261.392485 C354.675008,262.89203 357.888319,262.994272 398.967588,262.982225 C447.900807,262.96506 449.282694,262.844155 460.154398,257.635507 C468.570678,253.602638 478.247128,244.034922 482.428491,235.61215 C487.547069,225.301152 488.060712,221.118167 487.706112,192.687661 C487.417238,169.515302 487.263876,167.301688 485.65154,162.964528 C479.695553,146.941788 468.986948,136.056289 453.812976,130.598527 L448.538601,128.701375 L400.663503,128.536652 C361.959326,128.402764 351.999682,128.586962 348.672769,129.4974 M252.221485,354.012137 C247.067204,354.764344 244.540372,356.651759 242.026524,361.627524 C240.161018,365.319586 239.997918,366.523767 239.997918,376.597012 C239.997918,386.658897 240.163452,387.881741 242.026524,391.607884 C245.207378,397.967969 247.95411,399.334438 257.361161,399.236254 C268.529042,399.120217 269.209842,398.843516 269.209842,394.412229 L269.209842,390.797253 L262.831094,391.060972 C251.611281,391.525117 249.735226,389.452693 249.735226,376.597012 C249.735226,363.731594 251.651041,361.619409 262.871666,362.116012 L269.209842,362.396771 L269.455709,359.016302 C269.655324,356.276873 269.408646,355.543329 268.154156,355.144911 C264.805333,354.081921 256.020659,353.457111 252.221485,354.012137 M375.103069,353.909896 C369.828693,354.57041 366.443356,356.664742 364.504009,360.467161 C360.991275,367.35225 360.979103,385.818243 364.482911,392.686291 C366.41171,396.466801 370.065635,398.919791 374.960255,399.719062 C380.086136,400.555659 392.7633,399.392862 394.202799,397.953363 C395.882484,396.273678 395.923868,377.239674 394.250674,375.850485 C393.52849,375.251641 390.634887,374.992791 386.339111,375.142907 L379.566002,375.379849 L379.310397,378.951006 C379.028015,382.897862 379.8354,383.867536 383.420353,383.887822 C385.521988,383.899182 385.651819,384.11178 385.651819,387.551484 L385.651819,391.202974 L382.121234,391.202974 C373.369828,391.202974 371.451578,388.577147 371.451578,376.597012 C371.451578,363.316947 373.34305,361.422229 385.626665,362.395148 L392.9548,362.974518 L392.9548,359.252432 C392.9548,356.065086 392.692704,355.467053 391.129055,355.087298 C387.087261,354.107076 378.542773,353.47902 375.103069,353.909896 M277.809508,355.41999 C276.121708,357.10779 276.085193,357.657136 276.296168,378.030831 L276.512824,398.911677 L280.772896,399.156732 L285.032968,399.402599 L285.032968,392.056612 L285.032968,384.711436 L289.345784,384.711436 L293.6586,384.711436 L295.538712,390.188671 C298.386875,398.484858 299.079847,399.319832 303.106224,399.305226 C308.856916,399.284129 308.956723,398.917357 305.621695,390.09779 L302.641267,382.213816 L304.692593,380.013996 C307.954592,376.515868 308.855293,374.09777 308.862619,368.825017 C308.87071,362.787886 306.727691,358.206483 302.830333,355.929576 C300.603735,354.628022 298.183203,354.271799 289.817232,354.010514 C280.182166,353.710281 279.43077,353.798728 277.809508,355.41999 M312.143257,354.991548 C311.900636,355.62285 311.817869,357.547592 311.95906,359.268661 L312.216287,362.396771 L317.678105,362.636147 L323.139924,362.876334 L323.358202,380.893599 L323.57648,398.911677 L328.217118,399.154298 C332.478002,399.376633 332.895084,399.244368 333.323525,397.531413 C333.580752,396.50575 333.682994,388.285028 333.552352,379.265035 L333.313788,362.86335 L338.993884,362.630466 L344.673981,362.396771 L344.673981,358.339559 L344.673981,354.282348 L328.629331,354.062447 C315.391461,353.880684 312.506783,354.042972 312.143257,354.991548 M409.405982,354.533083 C408.197745,355.300708 399.082813,396.388902 399.740893,398.102669 C400.323508,399.6225 406.97977,399.77992 408.200179,398.303095 C408.661078,397.745634 409.294003,395.919889 409.60722,394.245883 L410.176041,391.202974 L417.351626,391.202974 L424.527211,391.202974 L425.075746,394.245883 C425.377602,395.919889 425.986184,397.745634 426.429231,398.303095 C427.610692,399.79128 434.272633,399.620877 434.860929,398.087251 C435.539295,396.320741 426.476295,355.349394 425.233165,354.560672 C423.906457,353.718395 410.724576,353.695675 409.405982,354.533083 M442.182573,354.417858 C441.884774,354.714846 441.641341,364.958495 441.641341,377.180439 L441.641341,399.402599 L445.901413,399.156732 L450.161486,398.911677 L450.567207,382.68283 C450.790354,373.756964 451.196075,367.001706 451.468719,367.671146 C451.742176,368.340586 453.719661,375.187537 455.864303,382.88569 L459.763283,396.883071 L464.394996,396.883071 L469.025897,396.883071 L472.02012,386.13146 C473.666536,380.217668 475.630227,373.371529 476.382434,370.916916 L477.750526,366.453983 L478.156247,382.68283 L478.561968,398.911677 L482.835023,399.157544 L487.108079,399.403411 L486.892235,376.842879 L486.676391,354.282348 L480.513487,354.047841 C476.006736,353.875815 474.099035,354.116813 473.412555,354.942862 C472.896477,355.564427 470.68692,362.608558 468.501706,370.595585 C466.316491,378.582612 464.304926,384.569433 464.03147,383.899993 C463.758014,383.230553 461.914417,376.718729 459.934497,369.429542 C457.954578,362.140355 455.904875,355.658554 455.379872,355.02644 C454.3891,353.832809 443.279643,353.319977 442.182573,354.417858 M499.004635,354.444636 C496.445346,355.108396 496.007978,358.415023 496.007978,377.092803 L496.007978,395.334027 L498.000069,397.325307 C499.937794,399.263843 500.319983,399.317398 512.20031,399.317398 L524.408461,399.317398 L524.408461,394.881243 L524.408461,390.445087 L515.279734,390.215449 L506.151008,389.985811 L505.905952,385.725739 L505.660085,381.465666 L514.223236,381.465666 L522.785576,381.465666 L522.785576,377.002733 L522.785576,372.5398 L514.224859,372.5398 L505.664142,372.5398 L505.907575,367.874007 L506.151008,363.208213 L515.279734,362.978575 L524.408461,362.748937 L524.408461,358.312782 L524.408461,353.876626 L512.439686,353.970754 C505.856454,354.022686 499.811209,354.236095 499.004635,354.444636 M536.945245,355.018326 C533.621577,356.465939 530.271943,360.596181 529.624412,364.043188 C528.191405,371.682106 531.961366,376.79257 541.174482,379.699968 C548.411737,381.984178 550.374616,383.387973 550.374616,386.280765 C550.374616,390.104281 548.831252,390.676348 539.860757,390.18218 C530.997372,389.693692 530.899999,389.744813 530.899999,394.834179 C530.899999,398.221139 531.667624,398.529487 541.490945,399.091817 C548.159378,399.474006 549.766845,399.303603 553.002066,397.872219 C558.187994,395.578272 560.427575,391.245169 559.935841,384.45502 C559.62587,380.158433 559.261532,379.310475 556.734701,376.99543 C555.038786,375.440707 551.612877,373.643362 548.275414,372.557652 C540.931861,370.167954 539.014423,368.906162 539.014423,366.46372 C539.014423,363.290169 541.542066,362.526602 550.427359,363.016713 L558.291047,363.450023 L558.798199,359.747412 C559.077335,357.711503 559.13657,355.876832 558.929652,355.669914 C557.124193,353.864455 540.711149,353.377589 536.945245,355.018326 M285.525514,364.086194 C285.254492,364.792149 285.032968,367.713341 285.032968,370.577733 L285.032968,375.78557 L290.653829,375.78557 C295.760236,375.78557 296.429676,375.590012 297.95681,373.647419 C299.837734,371.25691 300.085224,368.726021 298.728492,365.749651 C297.668748,363.424057 295.937942,362.828458 290.191307,362.813852 C287.127301,362.805738 285.887417,363.143298 285.525514,364.086194 M416.063056,363.816795 C415.602968,365.072097 412.429417,380.561719 412.429417,381.554925 C412.429417,382.424791 422.15861,382.538393 422.186199,381.668527 C422.196748,381.333401 421.382872,376.952424 420.378306,371.931219 C419.171691,365.903013 418.19228,362.802492 417.493628,362.802492 C416.911824,362.802492 416.26835,363.259334 416.063056,363.816795" id="Shape"></path>
        </g>
    </g>
</svg>