<?xml version="1.0" encoding="UTF-8"?>
<svg width="800px" height="400px" viewBox="0 0 800 400" version="1.1" xmlns="http://www.w3.org/2000/svg" xmlns:xlink="http://www.w3.org/1999/xlink">
    <title>dotemu</title>
    <g id="Page-1" stroke="none" stroke-width="1" fill="none" fill-rule="evenodd">
        <g id="dotemu" fill="#000000">
            <line x1="0" y1="0" x2="800" y2="400" id="Path" fill-rule="nonzero"></line>
            <path d="M390.920449,153.922278 L390.920449,244.538409 C390.920449,245.741435 389.945203,246.716681 388.742177,246.716681 L313.373953,246.716681 C312.170926,246.716681 311.19568,245.741435 311.19568,244.538409 L311.19568,153.922278 C311.19568,152.719251 312.170926,151.744006 313.373953,151.744006 L388.742177,151.744006 C389.945203,151.744006 390.920449,152.719251 390.920449,153.922278 Z M367.395107,170.912803 L334.721022,170.912803 C333.517995,170.912803 332.542749,171.888048 332.542749,173.091075 L332.542749,225.369612 C332.542749,226.572638 333.517995,227.547884 334.721022,227.547884 L367.395107,227.547884 C368.598134,227.547884 369.57338,226.572638 369.57338,225.369612 L369.57338,173.091075 C369.57338,171.888048 368.598134,170.912803 367.395107,170.912803 Z M484.586161,153.922278 L484.586161,168.73453 C484.586161,169.937557 483.610915,170.912803 482.407888,170.912803 L457.575583,170.912803 C456.372557,170.912803 455.397311,171.888048 455.397311,173.091075 L455.397311,244.538409 C455.397311,245.741435 454.422065,246.716681 453.219039,246.716681 L436.228514,246.716681 C435.025488,246.716681 434.050242,245.741435 434.050242,244.538409 L434.050242,173.091075 C434.050242,171.888048 433.074996,170.912803 431.871969,170.912803 L407.039664,170.912803 C405.836638,170.912803 404.861392,169.937557 404.861392,168.73453 L404.861392,153.922278 C404.861392,152.719251 405.836638,151.744006 407.039664,151.744006 L482.407888,151.744006 C483.610915,151.744006 484.586161,152.719251 484.586161,153.922278 Z M578.251873,153.922278 L578.251873,168.73453 C578.251873,169.937557 577.276627,170.912803 576.0736,170.912803 L522.052446,170.912803 C520.849419,170.912803 519.874173,171.888048 519.874173,173.091075 L519.874173,187.467673 C519.874173,188.670699 520.849419,189.645945 522.052446,189.645945 L576.0736,189.645945 C577.276627,189.645945 578.251873,190.621191 578.251873,191.824217 L578.251873,206.636469 C578.251873,207.839496 577.276627,208.814742 576.0736,208.814742 L522.052446,208.814742 C520.849419,208.814742 519.874173,209.789988 519.874173,210.993014 L519.874173,225.369612 C519.874173,226.572638 520.849419,227.547884 522.052446,227.547884 L576.0736,227.547884 C577.276627,227.547884 578.251873,228.52313 578.251873,229.726157 L578.251873,244.538409 C578.251873,245.741435 577.276627,246.716681 576.0736,246.716681 L500.705376,246.716681 C499.50235,246.716681 498.527104,245.741435 498.527104,244.538409 L498.527104,153.922278 C498.527104,152.719251 499.50235,151.744006 500.705376,151.744006 L576.0736,151.744006 C577.276627,151.744006 578.251873,152.719251 578.251873,153.922278 Z M779.768639,246.716681 L722.453504,246.716681 C721.250477,246.716681 720.275231,245.741435 720.275231,244.538409 L720.275231,153.922278 C720.275231,152.719251 721.250477,151.744006 722.453504,151.744006 L739.444028,151.744006 C740.647055,151.744006 741.6223,152.719251 741.6223,153.922278 L741.6223,225.369612 C741.6223,226.572638 742.597546,227.547884 743.800573,227.547884 L776.474658,227.547884 C777.677685,227.547884 778.652931,226.572638 778.652931,225.369612 L778.652931,153.922278 C778.652931,152.719251 779.628177,151.744006 780.831203,151.744006 L797.821728,151.744006 C799.024754,151.744006 800,152.719251 800,153.922278 L800,226.627216 C800,227.207908 799.768138,227.764564 799.35591,228.173552 L781.302821,246.084745 C780.894821,246.489538 780.343375,246.716681 779.768639,246.716681 Z M698.928162,153.922278 L698.928162,244.538409 C698.928162,245.741435 697.952916,246.716681 696.74989,246.716681 L679.759365,246.716681 C678.556339,246.716681 677.581093,245.741435 677.581093,244.538409 L677.581093,173.091075 C677.581093,171.888048 676.605847,170.912803 675.40282,170.912803 L660.154914,170.912803 C658.951887,170.912803 657.976641,171.888048 657.976641,173.091075 L657.976641,244.538409 C657.976641,245.741435 657.001396,246.716681 655.798369,246.716681 L641.857426,246.716681 C640.654399,246.716681 639.679154,245.741435 639.679154,244.538409 L639.679154,173.091075 C639.679154,171.888048 638.703908,170.912803 637.500881,170.912803 L622.252975,170.912803 C621.049948,170.912803 620.074702,171.888048 620.074702,173.091075 L620.074702,244.538409 C620.074702,245.741435 619.099456,246.716681 617.89643,246.716681 L600.905905,246.716681 C599.702879,246.716681 598.727633,245.741435 598.727633,244.538409 L598.727633,153.922278 C598.727633,152.719251 599.702879,151.744006 600.905905,151.744006 L696.74989,151.744006 C697.952916,151.744006 698.928162,152.719251 698.928162,153.922278 Z M290.284265,153.922278 L290.284265,226.44694 C290.284265,227.029203 290.051152,227.587229 289.636957,227.996463 L271.326187,246.087931 C270.918461,246.490773 270.36839,246.716681 269.795222,246.716681 L212.737769,246.716681 C211.534742,246.716681 210.559497,245.741435 210.559497,244.538409 L210.559497,153.922278 C210.559497,152.719251 211.534742,151.744006 212.737769,151.744006 L288.105993,151.744006 C289.30902,151.744006 290.284265,152.719251 290.284265,153.922278 Z M266.758924,170.912803 L234.084838,170.912803 C232.881812,170.912803 231.906566,171.888048 231.906566,173.091075 L231.906566,225.369612 C231.906566,226.572638 232.881812,227.547884 234.084838,227.547884 L266.758924,227.547884 C267.96195,227.547884 268.937196,226.572638 268.937196,225.369612 L268.937196,173.091075 C268.937196,171.888048 267.96195,170.912803 266.758924,170.912803 Z M93.9784337,294.399409 L0.638001206,201.058976 C-0.212667069,200.208308 -0.212667069,198.829102 0.638001206,197.978434 L93.9784337,104.638001 C94.829102,103.787333 96.2083078,103.787333 97.0589761,104.638001 L190.399409,197.978434 C191.250077,198.829102 191.250077,200.208308 190.399409,201.058976 L97.0589761,294.399409 C96.2083078,295.250077 94.829102,295.250077 93.9784337,294.399409 Z M93.9782497,140.988139 L36.9881392,197.97825 C36.1374709,198.828918 36.1374709,200.208124 36.9881392,201.058792 L52.5448953,216.615548 C53.3955683,217.466206 54.7747681,217.466209 55.6254454,216.615556 L93.2082904,179.033091 C94.0589677,178.182437 95.4381675,178.182441 96.2888405,179.033098 L116.004311,198.748569 C116.829208,199.573454 116.854205,200.895334 116.079308,201.750345 L116.004305,201.829105 L78.4214998,239.41161 C77.5966,240.236491 77.5715979,241.558372 78.3464916,242.413386 L78.4214936,242.492146 L93.9782497,258.048902 C94.828918,258.899571 96.2081237,258.899571 97.058792,258.048902 L154.048902,201.058792 C154.899571,200.208124 154.899571,198.828918 154.048902,197.97825 L97.058792,140.988139 C96.2081237,140.137471 94.828918,140.137471 93.9782497,140.988139 Z" id="Shape"></path>
        </g>
    </g>
</svg>