<?xml version="1.0" encoding="UTF-8"?>
<svg width="800px" height="400px" viewBox="0 0 800 400" version="1.1" xmlns="http://www.w3.org/2000/svg" xmlns:xlink="http://www.w3.org/1999/xlink">
    <title>drinkbox</title>
    <g id="Page-1" stroke="none" stroke-width="1" fill="none" fill-rule="evenodd">
        <g id="drinkbox" fill="#000000">
            <line x1="0" y1="0" x2="800" y2="400" id="Path" fill-rule="nonzero"></line>
            <path d="M487.006603,295.249078 C490.681253,294.003714 498.811466,294.656456 501.676134,296.427054 C504.707292,298.300716 506.65627,301.343765 506.659573,304.209094 L506.662216,306.356273 L502.093882,306.356148 C498.252696,306.352334 498.073497,306.251362 498.073497,304.751504 C498.073497,300.017799 489.930731,298.853697 488.711133,303.412985 C488.024035,305.983655 488.726328,310.036209 490.059562,311.195686 C490.652183,311.710349 492.771615,312.337986 494.770144,312.590362 C499.095555,313.137397 503.195016,314.857784 504.99138,316.879436 C506.831348,318.949978 507.232375,326.426788 505.679138,329.699751 C503.997071,333.244249 499.203905,335.430408 493.154143,335.411374 C485.181169,335.386143 479.574718,331.552932 479.574718,326.125522 L479.574718,323.533711 L484.074462,323.533847 C487.862292,323.537935 488.04805,323.645656 488.473952,325.350556 C489.189459,328.218527 490.728821,329.479747 493.513548,329.479747 C496.553294,329.479747 498.073497,327.693294 498.073497,324.120387 C498.073497,320.372402 496.379538,318.819826 491.571837,318.162458 C487.07267,317.547374 483.262582,315.875877 481.226395,313.624312 C480.111183,312.3915 479.905053,311.235987 479.905053,306.211586 L479.905053,300.258944 L482.381908,298.118371 C483.744211,296.940395 485.825323,295.649444 487.006603,295.249078 Z M785.13491,294.496574 C792.646075,294.439096 797.893121,297.864673 798.496974,303.219409 L798.850433,306.356273 L794.23989,306.356174 C790.30943,306.352997 790.166695,306.263089 789.968376,304.604835 C789.6572,301.992543 786.797818,300.13738 783.917294,300.677809 C782.015223,301.034571 781.453653,301.525449 780.847157,303.364096 C779.958555,306.055007 780.551176,309.868399 782.06213,311.182473 C782.662019,311.704403 784.788057,312.334022 786.786586,312.581113 C791.182028,313.125505 795.560954,315.123373 797.354675,317.404009 C798.40448,318.738563 798.678659,320.084349 798.678659,323.902365 C798.678659,328.173601 798.476493,328.957817 796.888902,330.844693 C794.250183,333.980236 790.593371,335.396714 785.13491,335.396714 C777.210165,335.396714 771.591161,331.550289 771.591161,326.125522 L771.591161,323.533711 L776.077148,323.533801 C779.920041,323.536689 780.0324,323.620845 780.395258,325.435782 C780.931062,328.115462 782.546402,329.479747 785.181817,329.479747 C788.270453,329.479747 790.08994,327.553892 790.08994,324.283572 C790.08994,320.233 788.292915,318.525167 783.503714,318.024378 C779.165089,317.571158 775.324611,315.926749 773.252747,313.635543 C772.262402,312.540812 771.881856,311.009377 771.69885,307.386259 C771.342748,300.333599 773.055867,297.65458 779.359987,295.404335 C780.719647,294.919403 783.318065,294.511109 785.13491,294.496574 Z M727.502624,295.200188 C734.314799,293.23205 743.104362,295.475688 745.831611,299.878397 C746.081132,300.281521 746.284356,300.644636 746.448512,301.063809 L746.508253,301.223815 C746.923479,302.392041 747.063063,304.051887 747.06736,308.068078 L747.067096,308.643957 C747.063753,310.418599 747.037848,312.62134 746.999676,315.388963 C746.85309,326.0226 746.81144,328.185633 745.943069,329.554433 L745.867697,329.668388 C745.841903,329.705857 745.815432,329.742867 745.788263,329.77959 L745.704644,329.88907 C745.547429,330.088834 745.36848,330.285105 745.164333,330.50643 C740.949254,335.075628 731.875603,336.244354 725.455866,333.045387 C720.237228,330.444987 720.058847,329.821975 720.058847,314.214951 L720.058847,300.8661 L722.712761,298.341677 C724.172183,296.953608 726.327291,295.539773 727.502624,295.200188 Z M602.078919,294.772074 C604.05036,294.525643 605.982822,294.52234 606.373278,294.763485 C606.849622,295.057483 607.08416,300.550299 607.08416,311.383317 L607.084044,312.486583 C607.083998,312.666815 607.083936,312.845239 607.083852,313.021874 L607.083043,314.060399 C607.064768,330.169302 606.755311,330.519775 601.687141,333.045387 C594.9483,336.403576 585.316382,334.902532 581.687318,329.928343 C581.620322,329.836537 581.556615,329.746825 581.496035,329.657059 L581.424831,329.549176 C581.389969,329.495085 581.35621,329.440665 581.323519,329.385453 L581.259551,329.273835 C580.435787,327.786675 580.336644,325.535801 580.32776,314.053222 L580.327023,312.236932 L580.326997,311.759899 L580.326997,295.455207 L582.96968,295.114962 C588.730068,294.373689 588.214084,292.961836 588.585381,310.471591 C588.884665,324.584178 589.033316,326.171108 590.174294,327.429686 C591.031184,328.375767 592.231622,328.819077 593.935492,328.819077 C598.228134,328.819077 598.486573,328.128732 598.495193,311.583767 L598.495441,295.220008 Z M685.511716,295.53713 C685.769378,295.279469 687.775835,295.155923 689.971244,295.262291 L693.962355,295.455207 L694.137433,314.779825 C694.158308,317.078023 694.169901,319.1768 694.17228,321.073418 L694.172457,322.35413 C694.164406,330.121626 693.985699,334.126097 693.64193,334.148707 C693.273276,334.172491 691.48484,334.192311 689.667996,334.192311 L689.420579,334.19219 C687.691921,334.190501 686.050824,334.17141 685.703972,334.148707 C685.346258,334.124797 685.115076,325.761315 685.049113,316.824133 L685.041593,315.680698 L685.035885,314.53462 C685.032688,313.770485 685.030712,313.006982 685.02998,312.248898 L685.029819,311.116435 C685.035394,303.038149 685.186151,295.862695 685.511716,295.53713 Z M555.526741,295.124872 L555.928429,296.724355 C556.782676,300.128131 556.190055,300.725377 551.746384,300.937452 L547.623799,301.133672 L547.623121,318.577519 C547.608908,328.501676 547.371666,334.121172 546.963128,334.148707 C546.574533,334.174533 545.068941,334.188757 543.481349,334.191191 L542.527233,334.191236 C540.94824,334.188948 539.494246,334.174834 539.200247,334.148707 C538.92739,334.124923 538.704744,326.747213 538.704744,317.753503 L538.704744,301.401243 L534.74072,301.070908 L530.776696,300.740573 L530.370384,295.124872 L555.526741,295.124872 Z M642.080495,295.124977 C649.967224,295.129052 650.718642,295.25995 654.038686,296.941716 C658.894187,299.401407 659.825233,300.516828 659.849217,310.255305 L659.849413,310.974451 C659.846814,312.443343 659.826775,314.097502 659.798413,315.96705 C659.531661,333.544867 659.344222,334.089314 643.599862,334.104061 L632.519981,334.104442 L632.675239,314.779825 C632.760466,304.151615 632.834461,295.381212 632.840407,295.290039 C632.845692,295.198867 636.810377,295.124872 641.651111,295.124872 Z M645.387864,301.070908 L641.439036,301.070908 L641.439036,328.819077 L644.946536,328.819077 C650.937498,328.819077 650.986388,328.716673 651.228193,315.611609 C651.487837,301.527431 651.304831,301.070908 645.387864,301.070908 Z M731.308748,301.145564 C730.410896,301.504308 729.44896,302.154408 729.172139,302.59045 C728.894657,303.026493 728.663422,308.512042 728.657476,314.779825 C728.648227,325.302987 728.748649,326.277476 729.968907,327.497735 C730.786818,328.315646 732.170923,328.819077 733.602596,328.819077 C735.03427,328.819077 736.418375,328.315646 737.236285,327.497735 C738.406333,326.327687 738.547313,325.377894 738.55703,315.899988 L738.55703,313.329326 C738.548862,305.36239 738.447947,303.421199 737.72105,302.309819 L737.643599,302.197595 C737.524007,302.033061 737.3889,301.884193 737.236285,301.731579 C735.809236,300.30453 733.89197,300.114917 731.308748,301.145564 Z M681.2021,64.0008454 C682.951635,64.0189011 685.753409,64.2204836 691.319672,64.5811937 C703.855875,65.3933523 706.049489,65.5887592 707.424223,66.1004613 L707.5247,66.1389577 C707.557789,66.151992 707.590522,66.1652332 707.623043,66.1786954 C709.139943,66.8063325 711.624065,72.2740431 711.11733,73.8702235 C710.187106,76.8009587 708.701918,77.0315327 695.386761,76.310741 C681.430093,75.5555944 679.888748,75.8462895 675.887066,79.986052 C674.07815,81.8570714 673.794061,82.7522802 672.969544,89.1918373 C672.322087,94.2499321 672.263948,96.4532688 672.7687,96.7664267 C673.161139,97.0088929 679.576251,98.5832711 687.025313,100.265339 L700.569062,103.322923 L700.393324,106.234498 C700.296205,107.835964 700.059024,110.116599 699.865448,111.303164 C699.54304,113.285176 699.677817,113.493287 701.528356,113.863263 C703.908752,114.339606 703.918002,114.423511 702.506809,123.189951 C702.122844,125.578028 701.462845,130.044032 700.808024,134.650778 L700.662707,135.676028 C700.396869,137.557015 700.135348,139.437544 699.89716,141.18662 C696.862039,163.471042 691.677095,200.913232 689.330393,217.496066 C688.456326,223.673337 687.110539,233.186995 686.339537,238.637528 C685.568534,244.088061 684.555726,248.993541 684.088632,249.538594 C683.620877,250.083648 683.058646,251.290032 682.839304,252.219596 C682.458757,253.826347 680.762155,255.569196 666.874857,268.612157 C663.604537,271.683615 659.137082,275.932388 656.946959,278.053802 L652.965096,281.911458 L640.430192,277.891277 C636.431614,276.608743 630.104306,274.573895 623.545031,272.461548 L622.185317,272.023626 C617.873432,270.634774 613.524048,269.232633 609.726843,268.006983 C599.734199,264.780928 590.737846,261.949293 589.735609,261.713434 C588.732711,261.477574 587.752936,261.026997 587.558699,260.712518 C587.133887,260.02476 586.219519,224.98609 585.311758,174.552472 C585.22009,169.465308 585.120948,164.070518 585.020237,158.675213 L584.992736,157.203984 C584.983559,156.713724 584.974373,156.223691 584.965183,155.734114 L584.937607,154.266987 C584.661804,139.614049 584.386308,125.580257 584.2309,118.395464 L583.81666,99.2360138 L603.70549,92.6557337 L623.594321,86.0761144 L630.699834,87.5302506 C633.186658,88.0393874 637.251994,88.9129196 641.331194,89.810166 L642.495705,90.0668731 C644.432681,90.4948128 646.33901,90.9207725 648.045743,91.3079655 C653.67796,92.5857026 658.600617,93.5113023 658.985128,93.3646334 C659.369638,93.2186252 660.04154,90.0196577 660.478904,86.2571382 C660.916268,82.4946186 661.58817,78.2802003 661.971359,76.8914705 C663.314503,72.0262916 669.829376,66.5671697 676.407674,64.793269 C678.363244,64.2660538 678.991333,64.0135553 680.796377,64.0000861 Z M588.169158,102.525493 C588.057764,102.815737 587.999846,105.243724 587.99493,108.981112 L587.994779,109.915589 C587.998652,114.07307 588.061369,119.610713 588.182372,125.558455 C588.595952,145.847652 589.240106,179.020588 590.301143,234.673504 C590.537002,247.028046 590.916227,257.317331 591.144159,257.538656 C591.859665,258.233681 598.407572,260.400681 636.484006,272.54579 C651.170926,277.230144 651.665169,277.365074 651.679064,275.766794 L651.679431,275.666799 C651.679431,274.28864 649.063175,273.341899 611.37852,261.081833 C608.963514,260.296224 606.651965,259.534681 604.565627,258.838887 L603.878689,258.609448 C598.791719,256.907778 595.196865,255.645987 594.996529,255.475381 C594.482528,255.037357 593.969186,236.947533 592.569225,169.927777 C592.516827,167.421785 592.46233,164.858841 592.406734,162.28214 L592.308519,157.767441 L592.280212,156.479566 C591.968465,142.327832 591.646177,128.739858 591.479779,122.901898 L591.080734,108.908893 L595.185481,106.83703 C597.442993,105.697373 599.12506,104.599999 598.922895,104.398494 C598.721391,104.19699 596.981845,103.639384 595.057311,103.160398 C594.864858,103.112499 594.669253,103.063464 594.472238,103.013754 L593.878706,102.863059 C592.293963,102.458263 590.730447,102.039768 590.079818,101.843681 C589.016799,101.523256 588.479674,101.71485 588.169158,102.525493 Z M98.3677331,75.7822045 L98.3677331,262.091337 L69.298223,262.091337 L69.298223,259.118319 C69.298223,257.483159 69.1304126,256.145301 68.9249441,256.145301 C68.7201362,256.145301 67.809732,257.027297 66.9026311,258.106172 C64.6576721,260.77396 57.9835769,263.941876 52.7794739,264.809997 C46.3471841,265.882927 36.6676979,265.123155 30.5247819,263.063845 C23.4589089,260.69468 19.3667147,258.219807 13.5779181,252.813539 C7.89218624,247.503729 5.23893277,243.650697 2.33198176,236.483081 L0.258136479,231.370151 L0.0493645425,198.336616 C0.0205593007,193.787238 0.00425394819,189.688199 0.000728609421,186.020076 L0.000485234858,183.349477 C0.0112933943,170.397431 0.202805309,163.436853 0.589793162,161.443444 C3.41217833,146.913314 15.3544616,133.709149 30.3186526,128.572435 C33.8532408,127.359443 36.5012089,127.045625 45.2802009,126.800516 C57.5984059,126.455646 60.6308843,127.108389 65.0038636,131.045986 L67.6465463,133.425061 L67.8189813,104.603963 L67.9907557,75.7822045 L98.3677331,75.7822045 Z M508.644228,75.7822045 L508.644992,106.461462 C508.656763,121.372542 508.80315,133.260554 508.98051,133.260554 C509.164837,133.260554 510.524497,132.385165 512.001096,131.31554 C516.854383,127.800111 520.452395,126.984182 531.107031,126.984182 L531.617822,126.98494 C537.533576,127.002593 541.920559,127.328374 543.99011,127.905818 C555.300792,131.060521 566.963611,140.736043 571.945729,151.098662 C573.430917,154.187298 575.00001,158.052221 575.432749,159.687381 C576.10547,162.228585 576.580646,185.633334 576.593467,204.324455 L576.593306,206.062157 C576.584628,215.822039 576.443126,224.02603 576.129096,226.839271 C574.484687,241.56496 566.33135,252.981349 552.654145,259.71028 C545.068324,263.441748 538.569967,264.948078 529.78569,265.010181 C529.076613,265.015263 528.432484,265.01927 527.843665,265.020449 L527.163014,265.020395 C522.24799,265.008126 521.500689,264.710033 517.893618,262.848466 C515.53172,261.629529 512.186744,259.456583 510.461073,258.018963 L507.322887,255.406011 L507.322887,262.091337 L478.253377,262.091337 L478.253908,164.813429 C478.265309,115.906569 478.458852,76.4574231 478.694044,76.2228718 C478.927789,75.9884879 485.325257,75.7954671 493.082358,75.7828594 L508.644228,75.7822045 Z M287.98022,124.671835 L287.98022,131.509116 L289.466729,130.181168 C291.499612,128.365645 296.734106,126.273962 301.640247,125.315989 C308.070554,124.060054 322.971982,124.795381 328.098126,126.620153 C339.205321,130.575588 348.05038,139.421969 352.902346,151.428998 L355.038294,156.714363 L355.225925,209.40285 L355.413555,262.092659 L325.638449,262.092659 L325.627217,216.339893 C325.614664,166.730131 325.476584,164.526133 322.041757,159.08551 C318.392213,153.304642 312.471942,150.728026 304.004126,151.236082 C295.392945,151.752066 290.118811,155.447858 288.64089,162.000389 C288.360079,163.244439 288.5168,190.767806 288.879693,218.834763 L288.911763,221.276112 C289.069225,233.076526 289.261921,244.841193 289.472675,254.659453 L289.631896,262.092659 L257.589368,262.092659 L257.589368,124.671835 L287.98022,124.671835 Z M240.41193,124.671835 L240.41193,262.091337 L208.699737,262.091337 L208.699737,124.671835 L240.41193,124.671835 Z M715.637879,124.774366 C717.015634,124.776129 718.635443,124.792578 720.531887,124.821807 L732.266059,125.00217 L737.710647,140.527932 C737.862926,140.962127 738.015263,141.396151 738.167349,141.829138 L738.471097,142.693472 C741.200178,150.455415 743.781482,157.694172 744.415793,159.357046 C744.886521,160.589905 745.74664,162.949868 746.6221,165.400661 L747.036467,166.564277 C747.311513,167.339111 747.582199,168.106685 747.836746,168.834367 C749.19046,172.704576 750.179484,174.676678 750.486696,174.119732 C750.75625,173.630836 752.023416,170.406763 753.301814,166.954759 C754.173899,164.60112 755.857729,160.051501 757.607396,155.321444 L757.957987,154.373623 C758.660039,152.47556 759.364669,150.570126 760.024138,148.786315 C760.518875,147.448457 761.036887,146.048405 761.558373,144.639589 L762.080283,143.229831 C763.934866,138.221044 765.749931,133.326621 766.63547,130.948207 L768.848717,125.00217 L784.424689,124.825111 C787.021745,124.795526 789.211405,124.777895 791.050968,124.774768 L791.992461,124.774482 C798.257317,124.782037 800,124.98849 800,125.517494 C800,125.899308 796.339639,134.794824 792.335357,144.296749 L791.905162,145.316772 C788.886699,152.468138 785.741405,159.801757 783.868404,163.981741 C782.634846,166.734564 780.85927,170.856114 778.996272,175.253665 L778.634722,176.107956 C778.393124,176.679391 778.150558,177.254246 777.908002,177.830176 L777.362679,179.126839 L777.000369,179.990361 C773.505774,188.327085 770.269819,196.272655 770.269819,196.670405 C770.269819,197.143445 772.027864,201.427895 774.176365,206.191991 C775.547749,209.232482 777.923687,214.524606 780.370721,219.986854 L780.860799,221.080955 C782.086982,223.818795 783.31538,226.564474 784.429313,229.057803 C787.920297,236.870234 791.208455,244.154128 791.736992,245.244235 C792.265528,246.334342 794.159671,250.496567 795.946785,254.493625 L799.196624,261.761002 L783.644437,261.938062 C781.161103,261.966449 778.796938,261.981417 776.687841,261.984144 L775.321055,261.984161 C770.901003,261.978262 767.889678,261.913212 767.77843,261.801964 C767.588448,261.612325 763.639588,251.295995 759.657151,240.727776 L759.197702,239.50781 C755.677366,230.154782 752.242878,220.90185 751.473078,218.584852 C750.852047,216.714493 750.144469,215.187022 749.901342,215.191647 C749.783511,215.193754 749.40326,215.932786 748.660685,217.657142 L748.501847,218.028046 C746.614994,222.456997 742.637988,232.560963 735.225203,251.685774 L731.191809,262.091337 L714.40827,262.091007 C702.700934,262.082243 699.519501,261.89697 699.790131,261.265499 C699.984368,260.811618 706.734441,246.202868 714.789998,228.802784 C726.096056,204.381753 729.355805,196.758274 729.080305,195.380776 C728.923465,194.596237 726.68582,188.773633 724.294831,182.764617 L723.968017,181.944505 L723.640389,181.124817 C721.565122,175.940569 719.506173,170.946255 718.705133,169.267106 C718.358942,168.540369 715.572233,161.77444 712.513327,154.231563 L706.951801,140.5167 L707.60058,133.420436 C707.957342,129.517194 708.372904,125.944948 708.523537,125.482478 C708.683803,124.990662 710.30425,124.784732 715.019054,124.774603 Z M369.242714,75.7584203 L385.263978,75.9354801 L401.285242,76.1125398 L401.615577,117.218809 L401.945913,158.325078 L428.96338,124.671835 L448.191701,124.671878 C448.350727,124.671907 448.508407,124.671951 448.66475,124.67201 L450.03605,124.672971 C463.987771,124.687642 466.417501,124.852445 466.244366,125.627165 C466.126766,126.152398 459.341678,134.231079 451.165879,143.579569 C450.684949,144.129481 450.201569,144.682334 449.717145,145.236515 L448.989901,146.06858 C448.747342,146.346132 448.504698,146.623815 448.262145,146.901425 L447.534932,147.73384 C447.413834,147.872473 447.292802,148.011037 447.171859,148.149508 L446.447439,148.979006 C439.819879,156.56874 433.593117,163.722612 431.423057,166.243217 C424.874489,173.850179 419.679635,179.83057 416.474722,183.451706 C410.67073,190.010844 410.073483,187.629127 421.148967,202.099136 C426.518237,209.114137 434.814279,219.907514 439.584322,226.084785 C446.607251,235.178917 454.067544,244.911257 466.55356,261.265499 C467.0064,261.85933 463.89976,262.049619 451.896365,262.063028 L449.219602,262.063303 C448.750685,262.062935 448.270215,262.062366 447.777959,262.061607 L428.37274,262.032538 L422.150543,252.977385 C418.728269,247.99725 415.061547,242.733686 414.001831,241.280211 C413.025777,239.941483 410.21698,235.948361 407.531929,232.085872 L407.073211,231.42553 L406.845446,231.097294 L401.615577,223.55772 L401.615577,262.091337 L369.242714,262.091337 L369.242714,75.7584203 Z M140.650657,124.671835 L140.650657,131.34593 L142.797837,129.735876 C143.979116,128.850577 146.877478,127.423529 149.239376,126.563996 C153.019362,125.189223 154.497819,125.012336 164.136838,125.002623 L166.540255,125.002971 C176.074317,125.014979 177.139153,125.181375 181.378362,126.75493 C183.974798,127.718848 187.711551,129.538335 189.681671,130.798895 C190.849076,131.545559 192.424886,132.789914 193.997583,134.147768 L194.49364,134.579889 C197.381107,137.117374 200.111019,139.902772 200.111019,140.534538 C200.111019,140.796494 194.42859,145.226952 188.570423,149.659309 L187.493721,150.47248 C181.993393,154.619025 176.635313,158.542426 175.975397,158.795476 C175.512267,158.973857 173.789238,157.7754 172.14681,156.132973 C168.275941,152.262104 163.682958,150.818538 156.56291,151.2341 C149.76527,151.631163 145.649952,153.68717 142.963004,158.029759 C140.606392,161.837864 140.69294,158.063453 141.504243,221.294923 L142.027495,262.091337 L110.259805,262.091337 L110.259805,124.671835 L140.650657,124.671835 Z M619.802071,203.287008 C619.34819,203.289665 618.974911,203.514293 618.97359,203.78715 C618.972268,204.060007 618.531601,206.958369 617.994476,210.228689 C617.45669,213.499009 617.012059,217.33222 617.005452,218.747377 L616.99422,221.319368 L612.420397,220.894556 C609.904563,220.660679 606.338263,220.120911 604.494992,219.695439 C602.651721,219.269967 601.022507,219.047321 600.875177,219.199936 C600.727187,219.353212 600.503219,222.005144 600.377031,225.093779 L600.147118,230.70948 L606.423489,231.729555 C616.059371,233.295345 615.249389,232.229683 614.693104,242.611462 C614.430818,247.511657 614.321147,251.522589 614.449317,251.524571 C614.519994,251.525652 614.864323,251.577124 615.384605,251.661821 L615.756454,251.723019 C617.933199,252.084613 622.183623,252.841618 623.691439,253.147838 C625.315368,253.477513 625.458733,253.311685 625.809549,250.694107 C625.955068,249.607598 626.179433,247.37209 626.383418,245.034653 L626.44704,244.294348 C626.509754,243.553098 626.569394,242.812673 626.622835,242.106049 C627.134194,235.352013 626.486076,235.660546 635.843155,237.717875 C639.326872,238.484253 642.334245,238.953989 642.525839,238.761734 C642.916295,238.371939 644.026222,230.341486 644.059916,227.669073 C644.081058,225.977096 643.969404,225.935474 637.083895,225.086512 C632.561604,224.528245 629.96715,223.914482 629.751111,223.35093 C629.566784,222.871283 629.912975,218.579566 630.519471,213.812827 C631.125966,209.046749 631.526993,205.076779 631.410715,204.990892 C631.272305,204.889148 628.638541,204.46186 625.905181,204.060665 L625.273729,203.968706 C622.749569,203.603999 620.297574,203.284575 619.802071,203.287008 Z M519.942358,153.796181 C513.971877,154.968211 510.267496,159.167434 509.209762,165.963092 C508.839787,168.339525 508.652156,181.902433 508.769756,197.765136 C508.953924,222.605403 509.00165,225.204939 510.108529,227.518169 L510.182231,227.668851 C510.194769,227.693973 510.207435,227.719116 510.220231,227.744311 L510.298576,227.896313 C510.338539,227.972844 510.379698,228.05034 510.422093,228.129561 C514.333263,235.438561 524.002179,239.686013 532.190531,237.692108 C537.423043,236.417675 540.37492,233.973854 542.999104,228.743324 L545.311451,224.135146 L545.311451,167.285094 L543.229017,162.876439 C539.331721,154.626644 531.421511,151.541973 519.942358,153.796181 Z M42.3402164,154.333967 C37.7815887,155.909006 35.2373459,158.369343 32.7063165,163.651405 L30.648988,167.945765 L30.648988,195.033263 L30.6490216,195.768075 L30.6499197,198.578007 C30.660994,217.536101 30.7811985,221.768212 31.5516998,224.757688 L31.6078488,224.969291 C31.6173937,225.004266 31.6270327,225.039111 31.6367665,225.073848 L31.6963156,225.281159 C31.7165497,225.349952 31.7371708,225.418496 31.7581861,225.486972 L31.8224219,225.69238 C31.8442329,225.760904 31.8664455,225.829542 31.8890668,225.898476 C33.3663265,230.399625 36.7000708,234.5123 40.4645723,236.478456 C44.3499766,238.507376 52.5251157,238.54041 56.861758,236.543863 C60.9876465,234.643774 65.727298,230.176319 66.7870137,227.188105 C67.3862354,225.498242 67.6967559,210.706737 67.7140671,195.65491 L67.7147211,193.811401 C67.7080892,178.759716 67.408064,163.971844 66.8101372,162.289103 C66.3503104,160.994188 64.8638014,158.853615 63.5067838,157.530952 C59.1853368,153.319177 49.509154,151.857773 42.3402164,154.333967 Z M619.930902,158.437392 C615.567172,159.649062 613.196025,164.580969 614.362108,170.020271 C616.324961,179.171881 623.641228,182.407186 628.880347,176.440669 C632.407667,172.422469 633.032001,169.086743 631.140501,164.359644 C629.312425,159.790446 624.40166,157.195992 619.930902,158.437392 Z M623.11071,129.081812 C620.994581,129.517855 617.838558,132.903131 617.311342,135.301366 C616.196791,140.375977 619.012569,147.327554 622.968665,149.267944 C626.741756,151.119143 631.778709,149.046619 634.071236,144.700728 C635.218821,142.525139 634.998818,136.563907 633.674834,133.968132 C631.73048,130.154741 627.469815,128.18396 623.11071,129.081812 Z M693.059218,110.390117 C691.700879,111.143281 691.64274,111.314395 692.61723,111.688335 C694.800086,112.526065 696.274703,112.16666 696.274703,110.797751 C696.274703,109.278869 695.288982,109.154002 693.059218,110.390117 Z M671.660756,101.276825 C671.390541,101.54704 671.169217,102.841294 671.169217,104.152725 L671.169217,106.537085 L678.932097,108.338074 L679.586276,108.488927 C683.600961,109.409362 687.208878,110.138368 687.769228,110.137741 C688.359868,110.13708 690.589631,109.352203 692.724258,108.392909 L696.605038,106.648739 L694.623026,106.050832 C692.866963,105.521635 678.164398,102.047828 673.807935,101.132799 C672.897531,100.941205 671.931631,101.006611 671.660756,101.276825 Z M240.41193,75.7822045 L240.41193,107.494397 L208.699737,107.494397 L208.699737,75.7822045 L240.41193,75.7822045 Z M675.3103,67.1201511 C671.227356,68.6416757 668.734645,70.3244039 666.071482,73.3568824 C665.784473,73.6838483 665.542566,73.9424816 665.328564,74.2116044 L665.238508,74.3278148 C665.179542,74.406023 665.122654,74.4860066 665.067442,74.5696042 L664.985831,74.6979408 C663.93993,76.4075271 663.455186,79.8408366 660.557524,98.6295181 C659.789164,103.613618 659.789825,103.700166 660.598486,103.200038 C660.961854,102.97541 661.259156,102.044525 661.259156,101.130817 C661.259156,99.612596 663.555648,83.6455069 664.334578,79.7462286 C664.80894,77.3724388 670.307702,72.3374675 674.861044,70.1063826 C678.758341,68.197705 678.792035,68.193741 689.833163,68.3820321 C701.007747,68.5729659 704.914954,67.7306108 696.43987,66.9576261 C683.359912,65.7644549 678.854799,65.7994704 675.3103,67.1201511 Z M622.279586,90.2621238 C621.734533,90.554801 615.342544,92.8050453 608.075166,95.2634009 C600.807789,97.7210959 594.611358,99.9601088 594.305468,100.238912 C593.664617,100.821623 596.951454,101.992993 600.807789,102.556545 C603.126082,102.894808 604.539257,102.406572 612.310065,98.5812891 L621.17032,94.2208626 L627.505491,95.6201631 C628.10636,95.7528668 628.728144,95.8931709 629.354151,96.0369885 L630.106318,96.2109945 L630.856128,96.3868039 C633.344445,96.9740973 635.686644,97.5652915 636.814341,97.8988163 C638.277379,98.3315208 642.684288,99.4586744 647.075498,100.52737 L647.849652,100.715204 C648.107247,100.77751 648.364186,100.839462 648.619865,100.900904 C658.183074,103.198717 658.585422,103.141238 658.606563,99.4725339 L658.607042,99.3913743 L658.607255,99.1613265 C658.594966,97.5207592 658.154609,97.4385428 649.367084,95.5719341 C646.772471,95.0208491 641.32536,93.8156993 635.816365,92.5800791 L634.750085,92.3407138 C631.020644,91.5027757 627.345425,90.6693172 624.591933,90.0341925 C623.865196,89.8670428 622.824639,89.9694467 622.279586,90.2621238 Z M705.68926,67.8640663 C704.508641,67.8587809 703.54208,67.9684523 703.54208,68.1071931 C703.54208,68.7084034 706.117374,68.9634223 706.937267,68.4441352 C707.548387,68.0569821 707.149342,67.8713337 705.68926,67.8640663 Z" id="Combined-Shape"></path>
        </g>
    </g>
</svg>