<?xml version="1.0" encoding="UTF-8"?>
<svg width="800px" height="400px" viewBox="0 0 800 400" version="1.1" xmlns="http://www.w3.org/2000/svg" xmlns:xlink="http://www.w3.org/1999/xlink">
    <title>fdg</title>
    <g id="Page-1" stroke="none" stroke-width="1" fill="none" fill-rule="evenodd">
        <g id="fdg" fill="#000000">
            <line x1="0" y1="0" x2="800" y2="400" id="Path" fill-rule="nonzero"></line>
            <path d="M443.873766,51.7696549 C443.583066,54.3065563 443.577856,281.216904 443.868347,284.015539 C444.219896,287.402659 445.647763,289.555711 448.113187,290.416349 C449.119696,290.767898 451.000387,290.785819 482.51973,290.746017 C503.798111,290.719135 517.18113,290.621402 519.508395,290.475739 C545.234584,288.867826 565.432895,281.108959 580.93771,266.87843 C590.445984,258.151815 597.609282,246.628022 602.105436,232.826145 C604.593367,225.189184 606.390287,216.345663 607.328861,207.120795 C608.042378,200.106077 608.104477,196.345319 608.020289,165.23504 C607.931933,132.669386 607.944019,133.105123 606.917089,125.120573 C604.419989,105.702462 598.387607,89.924452 588.531743,77.0319749 C575.550285,60.050948 556.210527,49.8043586 530.448704,46.2586565 C521.891923,45.0808541 523.762612,45.1294082 484.916179,45.0741857 C465.145477,45.0460535 448.734389,45.0964831 448.447232,45.1862978 C445.875738,45.9896291 444.271368,48.2989721 443.873766,51.7696549 Z M723.831692,45.2244326 C711.592925,46.2248979 699.781142,49.3486166 690.349137,54.0789979 C682.978494,57.7753637 674.724916,63.9275684 669.592557,69.5504705 C664.398098,75.2413068 660.301421,81.3955953 656.641106,89.0071331 C650.37929,102.028185 647.480004,113.730356 645.757687,132.935079 C645.422392,136.672706 645.265685,192.120068 645.572431,198.448151 C645.983578,206.932621 646.789827,213.813555 648.199981,220.874326 C650.12735,230.525971 652.693009,238.1696 656.663404,246.089134 C664.478327,261.677303 675.151693,273.216516 688.405929,280.406487 C697.595581,285.391517 707.462489,288.59734 718.205247,290.088348 C721.019095,290.479074 722.839146,290.538672 736.439096,290.687044 C760.81473,290.952737 794.023049,290.933357 795.13771,290.65266 C796.338018,290.350499 798.402506,288.477101 799.278773,286.895237 L799.892889,285.786827 L799.946445,226.939425 L800,168.092023 L799.503623,167.028208 C798.822823,165.569709 797.753173,164.401075 796.425124,163.66547 L795.308379,163.046978 L784.99323,163.046978 C774.813324,163.046978 774.667037,163.052813 773.835157,163.498344 C772.740917,164.084119 771.340141,165.614304 770.760617,166.856289 L770.301958,167.839875 L770.24736,216.237719 L770.192555,264.635563 L749.189662,264.635563 C727.03439,264.635563 724.569382,264.555751 719.841293,263.686152 C712.446269,262.32622 704.913918,259.03475 698.721078,254.457741 C696.470708,252.794606 691.3744,247.592436 689.551223,245.097838 C682.696338,235.717512 678.32084,223.98575 676.331371,209.651861 C675.109182,200.847725 674.898086,193.271822 675.026244,162.838591 C675.125227,139.342558 675.195454,136.419099 675.813529,130.121857 C676.713135,120.954295 678.694686,112.070972 681.329112,105.394883 C683.625952,99.5748466 687.149148,93.4065961 690.654006,89.0696491 C692.579501,86.6871624 696.628666,82.8440923 698.934466,81.2109646 C704.678441,77.1424199 712.441893,74.0933036 720.534596,72.7271195 C726.033091,71.7991729 725.719885,71.8068832 762.383258,71.6835182 C797.310559,71.5661964 797.606677,71.5616119 798.329988,71.1412957 C799.81141,70.2804496 799.788071,70.4746662 799.788279,59.040897 C799.788696,51.9449082 799.715969,48.591964 799.551552,48.1005878 C799.162077,46.9371641 798.339574,46.0231794 797.208241,45.4963775 L796.141926,45 L761.028743,45.0270903 C741.716493,45.0418858 724.97782,45.1308669 723.831692,45.2244326 M0,45.3607176 C0,45.5993206 57.7975491,103.344148 58.0363604,103.344148 C58.2745465,103.344148 116.07147,45.5982786 116.07147,45.3603008 C116.07147,45.2744455 89.9553896,45.2042191 58.0357352,45.2042191 C26.1160808,45.2042191 0,45.2746539 0,45.3607176 M82.7297843,91.7751355 L36.1555337,138.353137 L78.5618391,180.759859 C101.885328,204.083556 121.062127,223.166581 121.176948,223.166581 C121.291769,223.166581 142.419903,202.132222 168.128379,176.423537 L214.871214,129.680493 L214.788276,102.810886 C214.70638,76.2780313 214.699712,75.9114788 214.252931,73.5608753 C211.581203,59.5099757 201.345241,48.9968596 187.202235,45.7776997 L185.151708,45.3109132 L157.227872,45.2542319 L129.304035,45.1973423 L82.7297843,91.7751355 M331.12669,45.3486312 C307.68713,46.7260682 290.901987,53.7320338 281.522495,66.0535309 C276.592479,72.5297772 273.311428,80.8300334 271.76499,90.7367439 C270.75473,97.2096559 270.798418,92.5724235 270.798418,192.429522 L270.798418,286.411988 L271.35551,287.46705 C272.021097,288.728207 273.307469,289.940394 274.628433,290.551175 C275.569508,290.986287 275.818947,290.996498 285.489972,290.996498 C295.287279,290.996498 295.398558,290.991705 296.394856,290.532004 C297.894407,289.839951 298.880285,288.968894 299.566712,287.729826 L300.181244,286.620374 L300.2348,231.347015 L300.288564,176.073656 L350.976996,176.020309 L401.665636,175.966962 L402.634426,175.485171 C403.903919,174.853551 405.478282,173.286482 406.023422,172.111805 C406.440195,171.21345 406.458533,170.845855 406.458533,163.359558 C406.458533,155.816996 406.443113,155.511501 406.013211,154.581887 C405.37388,153.199241 404.203579,151.998516 402.845314,151.331469 L401.665636,150.752154 L350.961158,150.697973 L300.256472,150.643793 L300.346704,124.858005 C300.423182,102.976345 300.486948,98.6621122 300.767645,96.3631886 C301.705594,88.6835083 303.157842,84.3596898 305.893336,81.1028118 C309.598246,76.6914708 315.807757,74.0145334 325.083472,72.830271 C331.161908,72.05403 332.323664,72.0302739 368.426685,71.9392089 C408.0802,71.8391832 405.046921,71.9596308 405.986329,70.4490346 L406.458533,69.6896729 L406.458533,58.9521242 L406.458533,48.2147838 L405.925271,47.1782676 C405.631863,46.6083296 405.078804,45.9310724 404.696206,45.6730895 L404.000402,45.2042191 L368.13661,45.2427707 C348.411545,45.2640261 331.757061,45.3115383 331.12669,45.3486312 M473.66329,168.169126 L473.66329,264.669113 L495.283424,264.574922 C509.366415,264.513448 517.738982,264.39696 519.300008,264.24067 C535.477287,262.621295 546.294231,258.914302 555.892529,251.700158 C558.363788,249.842598 562.246452,246.128727 564.034203,243.912325 C567.24857,239.927343 570.687786,233.769512 572.653291,228.480446 C575.770133,220.093084 577.628526,209.957148 578.269941,197.84758 C578.545845,192.639368 578.545012,143.223763 578.268899,138.040557 C577.060672,115.357441 571.373587,99.542755 560.267402,87.982495 C550.096249,77.3954015 538.122341,72.8290207 518.049687,71.8829444 C515.585512,71.7666646 504.590397,71.6693479 493.61633,71.6693479 L473.66329,71.6693479 L473.66329,168.169126 M140.713006,216.967281 C100.111539,257.568748 66.892176,290.858546 66.892176,290.94461 C66.892176,291.194674 180.806426,291.136534 183.484613,290.885011 C198.519099,289.472982 210.788291,278.55622 213.994531,263.738249 C214.237718,262.614419 214.527584,260.363841 214.638655,258.736965 C214.877466,255.238983 214.927687,143.146034 214.690335,143.146034 C214.604479,143.146034 181.314681,176.365606 140.713006,216.967281 M27.3036775,148.8848 C26.6762247,149.060678 25.7384839,149.448903 25.219809,149.747521 C24.0949369,150.394979 12.4298583,161.893973 11.1216057,163.645256 C8.78496406,166.772934 8.8270582,171.156768 11.2237153,174.261316 C11.6823747,174.855635 14.8540224,178.110429 18.2715666,181.494423 C24.8863901,188.044021 25.4467423,188.479341 27.9519689,189.016563 C29.5211218,189.353107 31.6335392,189.123465 33.1843541,188.447458 C34.3600727,187.934826 35.1763239,187.194636 41.5048239,180.901354 C47.8820864,174.559725 48.5797655,173.797863 49.1572055,172.545042 C49.9151084,170.900661 50.1799681,168.770531 49.8294614,167.136361 C49.2926569,164.633635 48.8562949,164.072033 42.3077384,157.458251 C35.6831207,150.767783 34.5917988,149.805453 32.8865693,149.151535 C31.4124408,148.586181 28.8111479,148.461983 27.3036775,148.8848 M58.5952539,179.214462 C56.0991963,179.645615 55.6267833,180.019461 48.2296756,187.41636 C40.7021178,194.944126 40.4568465,195.260874 40.0150664,198.026168 C39.7295764,199.812876 39.9973535,201.521232 40.8486137,203.343991 C41.4287627,204.586394 42.1639515,205.393684 48.2015434,211.417106 C54.2483044,217.449905 55.0533027,218.179467 56.3642644,218.814839 C57.7589975,219.490846 57.9169547,219.519856 60.2194209,219.519856 C64.0418607,219.519856 63.9068261,219.612752 72.2481345,211.246854 C80.4967109,202.974105 80.3256253,203.224586 80.3303616,199.406105 C80.3329188,197.093845 80.3068705,196.951725 79.6214861,195.550949 C78.9902824,194.260826 78.2250859,193.406023 72.8489138,187.983172 C69.5153495,184.620642 66.2480522,181.462331 65.5882995,180.964495 C63.537773,179.417431 61.0396315,178.792271 58.5952539,179.214462 M27.4541328,209.847745 C25.4338223,210.323909 24.6417439,210.9722 17.9633625,217.615989 C14.3761914,221.184614 11.1545308,224.549853 10.8042325,225.094576 C9.089834,227.758802 8.94167096,231.638132 10.4566433,234.199206 C10.6979553,234.60681 13.9529577,238.018103 17.6903757,241.779902 C25.0862331,249.224105 25.5419751,249.582948 28.228915,250.077866 C30.0316696,250.410035 32.099909,250.082242 33.7503328,249.202642 C35.428472,248.308037 48.2663517,235.432648 49.0532204,233.854951 C49.8396724,232.277462 50.1555868,230.173589 49.8623865,228.462524 C49.3999761,225.762665 49.0394669,225.286501 42.3214919,218.503301 C38.9299961,215.07888 35.6070595,211.868264 34.9370958,211.368344 C32.9067828,209.85358 29.9654026,209.255926 27.4541328,209.847745 M88.5114772,209.847745 C86.4638681,210.33016 85.7232612,210.941776 78.7289653,217.925652 C72.5261226,224.119534 71.8561589,224.85639 71.255588,226.144429 C69.8950303,229.063304 70.2553312,232.597336 72.1764495,235.175707 C72.6778282,235.848588 75.8903198,239.167773 79.3153659,242.551767 C86.1337833,249.288289 86.5551415,249.603995 89.3639877,250.085785 C90.4911522,250.27896 91.1265236,250.28021 92.143243,250.091203 C94.8893648,249.580447 95.3603191,249.212019 102.77639,241.774484 C108.56746,235.966535 109.672536,234.760808 110.136405,233.744089 C110.930567,232.003225 111.195844,230.125451 110.885139,228.440019 C110.383552,225.717236 109.900094,225.079573 103.279227,218.407651 C99.9425373,215.045121 96.666071,211.881809 95.9981912,211.377929 C93.9803814,209.855663 91.0333747,209.253217 88.5114772,209.847745 M58.1613925,240.36829 C57.4280792,240.527289 56.3273799,240.960942 55.7151394,241.331871 C55.0222531,241.751979 52.0958767,244.526858 47.9612734,248.684384 C40.7039933,255.981882 40.4593471,256.301965 40.0150664,259.082887 C39.7410377,260.798327 39.9873509,262.528147 40.740461,264.179195 C41.1984952,265.183203 42.3412887,266.427898 48.1998763,272.304198 C54.2822714,278.404932 55.280236,279.321209 56.4576217,279.886562 C58.986396,281.100624 62.4883368,280.90599 64.8083075,279.422693 C65.9527681,278.691047 78.7429272,265.863795 79.3447484,264.84395 C80.1372436,263.501313 80.4927515,261.811713 80.3983523,259.836622 C80.3252085,258.306438 80.2014267,257.791722 79.6162765,256.586204 C78.9936166,255.303375 78.2232104,254.455032 72.2293797,248.453074 C64.9856448,241.199337 64.424459,240.75964 61.7908661,240.27264 C60.2750602,239.992568 59.840782,240.003821 58.1613925,240.36829 M27.1944827,270.959478 C25.1518749,271.635277 24.4464855,272.224803 17.961487,278.673751 C14.3734824,282.242167 11.1595321,285.579691 10.8194448,286.090655 C9.58371082,287.946757 9.08545788,290.728513 9.59392177,292.93262 C10.0946754,295.103803 10.4603943,295.551834 17.5909752,302.728677 C23.4026758,308.578096 24.6834213,309.765901 25.7453607,310.290411 C27.4387121,311.126875 29.363373,311.435496 31.041929,311.139795 C33.8118069,310.651962 34.104382,310.425445 41.5135761,303.032088 C48.9809102,295.5808 49.3814297,295.068585 49.8419646,292.383312 C50.0368063,291.247396 50.0415992,290.566179 49.8623865,289.519869 C49.3897652,286.76041 49.1130275,286.402819 41.7017495,278.972994 C35.4418088,272.697633 34.7895579,272.105397 33.446088,271.477736 C32.168885,270.880916 31.7410668,270.789018 30.0077051,270.739838 C28.7748886,270.704829 27.7135744,270.787767 27.1944827,270.959478 M279.278586,316.940035 C276.167787,317.380981 274.432133,318.178686 272.917994,319.862868 C271.842093,321.059426 271.198594,322.577732 270.903935,324.61513 C270.582186,326.838618 270.651579,345.689083 270.988332,347.573525 C271.69393,351.522039 273.877824,353.706559 277.988046,354.575323 C280.809812,355.171726 291.815138,354.731822 292.731415,353.986214 C292.910628,353.840134 292.991898,353.071187 292.991898,351.519747 C292.991898,349.944968 292.913337,349.214363 292.731415,349.096625 C292.588253,349.003893 289.64083,348.881153 286.182025,348.823846 C280.200489,348.724654 279.864361,348.698189 279.305259,348.280999 C278.013677,347.317626 277.890938,346.827709 277.810084,342.311758 L277.736106,338.196118 L284.801462,338.196118 C290.018635,338.196118 291.932043,338.130684 292.116674,337.946053 C292.282758,337.779969 292.366738,336.873278 292.366738,335.244318 C292.366738,333.03375 292.327144,332.7716 291.963718,332.576966 C291.709069,332.440681 289.014002,332.361286 284.646005,332.361286 L277.731522,332.361286 L277.817794,328.870806 C277.919903,324.734744 278.146837,324.00935 279.53511,323.378771 C280.297389,323.032641 280.995068,322.99263 286.343316,322.988463 C293.518284,322.983045 292.991898,323.209561 292.991898,320.127728 C292.991898,318.565869 292.916046,317.970716 292.693905,317.786294 C291.85619,317.091115 282.414391,316.495545 279.278586,316.940035 M405.43452,317.045895 C401.123622,317.752118 398.727173,319.897877 397.90217,323.790127 C397.476435,325.799184 397.476852,346.010624 397.902795,348.020307 C398.277058,349.786177 398.859082,350.918343 400.043553,352.184709 C401.13675,353.353134 402.508769,354.056023 404.624104,354.53052 C407.075984,355.080661 415.07908,354.958338 418.607278,354.316715 C419.764033,354.106453 419.899485,353.81617 419.899485,351.55038 C419.899485,349.868281 419.835301,349.455675 419.531473,349.180605 C419.215559,348.894698 418.295739,348.838642 413.019385,348.783628 C404.455936,348.694438 404.828948,348.980762 404.723921,342.415951 L404.656612,338.196118 L411.749684,338.196118 C418.549346,338.196118 418.851716,338.179447 419.058644,337.793097 C419.177216,337.571374 419.274324,336.404407 419.274324,335.199932 C419.274324,333.173161 419.239732,332.985821 418.81108,332.685744 C418.414728,332.407965 417.360708,332.361286 411.500453,332.361286 L404.652861,332.361286 L404.722879,328.766613 C404.780186,325.815439 404.858748,325.051076 405.161117,324.496558 C405.917353,323.110161 405.974034,323.099116 412.977916,322.983878 C418.938613,322.885728 419.326004,322.856137 419.603992,322.475206 C420.003678,321.927982 420.021808,318.135133 419.626498,317.806924 C418.661042,317.005885 408.880822,316.481375 405.43452,317.045895 M445.531066,316.873559 C443.420316,316.991506 440.224078,317.374938 439.538277,317.592285 C439.165056,317.710649 438.766412,317.981552 438.652633,318.193898 C438.520516,318.440837 438.445913,324.975223 438.445913,336.295213 L438.445913,354.00997 L438.909157,354.33422 C439.269875,354.586993 439.963595,354.658678 442.048505,354.658678 C443.52055,354.658678 444.906322,354.56157 445.128046,354.442998 C445.514395,354.236069 445.531066,353.933492 445.531066,347.118409 L445.531066,340.009708 L447.918971,340.127238 C449.232433,340.192047 450.392523,340.297699 450.497133,340.362299 C450.601535,340.426899 452.314058,343.503314 454.302485,347.198429 C456.290912,350.893753 458.086998,354.086239 458.293927,354.293167 C458.630263,354.629504 459.023072,354.662846 462.028427,354.611791 C464.86999,354.563237 465.420131,354.501971 465.601845,354.213772 C465.771472,353.944328 464.97856,352.310575 461.818582,346.419062 C459.619892,342.319468 457.845478,338.944226 457.875486,338.918386 C457.905493,338.892546 458.403121,338.633938 458.981395,338.343447 C461.289904,337.184399 463.142672,334.982376 463.925164,332.468397 C464.475097,330.701068 464.567204,326.710252 464.100834,324.85936 C463.384817,322.017797 461.693966,319.951433 459.006401,318.632969 C455.662209,316.992756 451.984807,316.512425 445.531066,316.873559 M527.114514,317.615416 C526.310141,318.043651 525.070865,319.350028 524.620124,320.244842 C524.245653,320.987949 515.757431,353.153708 515.757431,353.829298 C515.757431,354.048105 515.938728,354.324217 516.160452,354.442998 C516.615985,354.686602 522.196585,354.735781 522.550842,354.499262 C522.975326,354.215856 523.189757,353.529846 524.308169,348.875943 L525.422413,344.239336 L531.07574,344.239336 L536.729275,344.239336 L537.860815,348.96159 C538.519109,351.708129 539.151563,353.887855 539.372453,354.171261 C539.738381,354.640965 539.85862,354.658678 542.668091,354.658678 C545.698036,354.658678 546.390297,354.504055 546.390297,353.827423 C546.390297,353.161835 538.051489,321.49162 537.610543,320.483236 C537.125418,319.373368 535.947407,318.095331 534.929021,317.573739 C533.340488,316.760405 530.778163,316.531805 528.781609,317.025265 C528.208545,317.166759 527.458353,317.432453 527.114514,317.615416 Z M697.158177,316.953997 C693.425343,317.467253 690.863852,319.086419 689.730019,321.649786 C688.801239,323.749283 688.725803,324.801637 688.723706,335.695475 C688.722469,341.724107 688.809991,346.554931 688.93419,347.320752 C689.601028,351.429932 691.835143,353.722813 695.991835,354.563445 C699.012194,355.174435 709.814551,354.752035 710.755418,353.986214 C711.068832,353.73094 711.116969,349.723452 710.812308,349.24062 C710.646432,348.977844 709.608457,348.911369 704.303345,348.823846 C697.2184,348.706941 697.018557,348.666723 696.302749,347.218017 C695.970163,346.544511 695.901396,345.818075 695.839088,342.311758 L695.765944,338.196118 L702.828382,338.196118 C708.043263,338.196118 709.956046,338.130684 710.140677,337.946053 C710.444296,337.642434 710.483681,333.247972 710.186939,332.77806 C710.018979,332.512158 708.929741,332.456519 702.896525,332.405464 L695.803662,332.345449 L695.812831,329.175468 C695.824501,325.092336 696.098946,324.140425 697.462838,323.452749 C698.362444,322.99909 698.586043,322.983878 704.359401,322.983878 C711.543745,322.983878 711.015901,323.210395 711.015901,320.127728 C711.015901,318.533152 710.942341,317.972591 710.707489,317.77775 C709.876859,317.088198 700.381296,316.510966 697.158177,316.953997 M312.337908,317.743783 L311.642521,318.364984 L311.586881,336.091619 C311.532076,353.62633 311.536035,353.822838 311.951558,354.238362 C312.325821,354.612624 312.642986,354.658678 314.840217,354.658678 C316.966804,354.658678 317.35628,354.605956 317.653439,354.277538 C317.966645,353.931616 317.998319,352.700675 317.998319,340.896186 C317.998319,329.914616 318.042497,327.943277 318.282142,328.201051 C318.438224,328.368803 320.889478,333.616817 323.729166,339.863212 C330.082255,353.838259 330.099968,353.874102 330.84766,354.236486 C331.511164,354.557819 336.877125,354.799131 338.130989,354.563862 C338.544845,354.486134 339.10749,354.198768 339.38131,353.924948 L339.878938,353.42732 L339.878938,335.522098 C339.878938,320.493655 339.832467,317.578323 339.589488,317.376605 C339.395272,317.215314 338.419396,317.155507 336.625602,317.194683 C334.008472,317.25199 333.945956,317.264285 333.68839,317.774207 C333.484587,318.177436 333.424364,321.305739 333.422071,331.621513 C333.420404,338.989863 333.33955,344.859287 333.241192,344.749884 C333.143458,344.641106 330.371913,338.597262 327.082319,331.319352 C323.792724,324.041441 320.91636,317.899239 320.690677,317.670014 C320.316831,317.290541 319.95528,317.247405 316.656725,317.188015 L313.033294,317.122581 L312.337908,317.743783 M355.62694,317.476422 C355.366039,317.737531 355.299564,318.307052 355.299564,320.282351 C355.299564,322.519384 355.338741,322.781743 355.702584,322.976585 C355.94473,323.106201 357.90044,323.192265 360.599675,323.192265 L365.093745,323.192265 L365.093745,338.608098 L365.093745,354.023932 L365.603043,354.357559 C366.312808,354.822678 371.670434,354.725362 371.975304,354.241904 C372.09471,354.052689 372.173688,347.859641 372.175772,338.560795 L372.178898,323.192265 L376.825925,323.192265 C380.162406,323.192265 381.543386,323.12183 381.723015,322.942201 C381.89035,322.774866 381.97308,321.846294 381.97308,320.136272 C381.97308,317.822761 381.934945,317.559985 381.570059,317.364727 C381.304991,317.222816 376.851973,317.149047 368.560677,317.149047 C357.378431,317.149047 355.917431,317.185931 355.62694,317.476422 M479.237638,317.374104 C478.921723,317.55811 478.872961,317.927997 478.872961,320.139398 C478.872961,321.84692 478.95569,322.774866 479.123025,322.942201 C479.302654,323.12183 480.683634,323.192265 484.020116,323.192265 L488.667142,323.192265 L488.667142,338.709791 C488.667142,353.838259 488.677145,354.232735 489.070162,354.442998 C489.291886,354.56157 490.677658,354.658678 492.149703,354.658678 C494.234613,354.658678 494.928333,354.586993 495.289051,354.33422 L495.752295,354.00997 L495.752295,338.601013 L495.752295,323.192265 L500.32201,323.192265 C504.198213,323.192265 504.941321,323.142669 505.219101,322.864889 C505.477917,322.605864 505.546476,322.045929 505.546476,320.18816 C505.546476,318.176811 505.491671,317.789211 505.165337,317.493927 C504.819415,317.18093 503.622441,317.149672 492.193256,317.155298 C484.029493,317.159466 479.474157,317.236361 479.237638,317.374104 M563.197738,317.530186 C562.882448,317.878609 562.852858,319.451513 562.852858,335.868228 C562.852858,353.547351 562.859318,353.831591 563.269631,354.241904 C563.645144,354.617417 563.964185,354.658678 566.499627,354.658678 C569.03507,354.658678 569.35411,354.617417 569.729623,354.241904 C570.139937,353.831591 570.146397,353.547351 570.146397,335.831969 C570.146397,318.665061 570.128892,317.82297 569.765257,317.493927 C569.448926,317.207603 568.888782,317.149047 566.463368,317.149047 C563.898543,317.149047 563.500524,317.195517 563.197738,317.530186 M590.102771,317.757119 L589.42218,318.364984 L589.365499,336.090577 C589.309442,353.640291 589.312985,353.820129 589.730176,354.23732 C590.105897,354.613041 590.420353,354.658678 592.63738,354.658678 C594.619139,354.658678 595.189494,354.592203 595.450603,354.331302 C595.741094,354.040603 595.777978,352.551053 595.777978,341.081233 C595.777978,331.250167 595.836743,328.178337 596.023666,328.240645 C596.15891,328.285865 598.833763,333.943567 601.96811,340.813456 C605.102248,347.683345 607.884004,353.521719 608.149488,353.787621 C608.827579,354.466545 609.849925,354.64805 613.028658,354.653677 C615.991502,354.659095 617.017807,354.42466 617.433539,353.648002 C617.772376,353.014714 617.748203,317.738781 617.408533,317.399111 C617.240573,317.231151 616.297205,317.149047 614.532794,317.149047 C612.768383,317.149047 611.825015,317.231151 611.657056,317.399111 C611.467632,317.588534 611.406991,320.925016 611.406991,331.140347 C611.406991,338.560586 611.325512,344.681741 611.226112,344.743215 C611.126711,344.804689 610.672011,344.036576 610.216061,343.036319 C609.759902,342.036062 607.016698,335.987634 604.119912,329.595367 C600.42688,321.445983 598.696645,317.849852 598.329467,317.561027 C597.854762,317.187598 597.476331,317.149047 594.294472,317.149047 L590.783363,317.149047 L590.102771,317.757119 M638.10343,317.439955 C637.019401,318.040734 637.053785,317.422033 637.045866,336.469633 C637.038781,353.816795 637.04795,354.232319 637.441593,354.442998 C637.663317,354.56157 639.029292,354.658678 640.476956,354.658678 C641.924619,354.658678 643.290595,354.56157 643.512319,354.442998 C643.903669,354.233569 643.915547,353.872643 643.92034,341.991884 L643.925341,329.75645 L646.474121,334.685008 C647.876147,337.395704 649.201279,339.81049 649.419044,340.050969 C649.789764,340.460866 650.026491,340.488373 653.181051,340.488373 C655.619594,340.488373 656.64965,340.413562 656.918886,340.216636 C657.123313,340.067223 658.45178,337.699323 659.871311,334.954869 L662.451765,329.964837 L662.456766,341.966877 C662.461559,353.326044 662.482189,353.987464 662.842907,354.313798 C663.155487,354.596787 663.700836,354.658678 665.878061,354.658678 C667.33802,354.658678 668.71379,354.56157 668.935513,354.442998 C669.329156,354.232319 669.338533,353.810752 669.338533,336.297297 L669.338533,318.367276 L668.729419,317.758161 L668.120304,317.149047 L665.319168,317.149047 C662.772681,317.149047 662.466352,317.189682 661.95122,317.594786 C661.56112,317.90174 660.144506,320.566591 657.409012,326.138647 C655.222617,330.592707 653.349845,334.236768 653.24711,334.236768 C653.144583,334.236768 651.226383,330.529357 648.984557,325.998194 C645.616609,319.191238 644.805776,317.706481 644.317942,317.454333 C643.530657,317.047145 638.831742,317.036309 638.10343,317.439955 M730.627187,317.432661 C729.543159,318.049278 729.577543,317.430994 729.569624,336.360855 L729.56233,354.00997 L730.025574,354.33422 C730.376914,354.580325 731.044586,354.658678 732.792326,354.658678 C734.540067,354.658678 735.207738,354.580325 735.559078,354.33422 L736.022322,354.00997 L736.028991,340.945365 C736.034409,330.162805 736.082963,327.943485 736.307187,328.238561 C736.456601,328.435278 739.043723,334.014836 742.056372,340.637578 C745.068812,347.26032 747.749709,353.017632 748.013526,353.431696 C748.383205,354.011428 748.709538,354.238778 749.43535,354.421534 C750.62899,354.722028 755.756139,354.731613 756.607816,354.434662 C757.977126,353.957248 757.902941,355.045861 757.902941,335.431866 C757.902941,321.878803 757.84355,317.589785 757.652876,317.399111 C757.4845,317.230734 756.534881,317.149047 754.747339,317.149047 C752.239403,317.149047 752.073736,317.174887 751.767407,317.612291 C751.482125,318.01927 751.44149,319.702202 751.430654,331.522112 C751.42211,340.858468 751.352509,344.872415 751.202679,344.653817 C751.084106,344.480648 748.346737,338.509323 745.119658,331.38416 C741.89258,324.259206 739.054768,318.164932 738.813456,317.841308 L738.374593,317.25324 L734.749912,317.201352 C732.00004,317.161967 731.004992,317.217814 730.627187,317.432661 M773.688244,317.374104 C773.372329,317.55811 773.323567,317.927997 773.323567,320.139398 C773.323567,321.84692 773.406297,322.774866 773.573631,322.942201 C773.753261,323.12183 775.13424,323.192265 778.470722,323.192265 L783.117748,323.192265 L783.117748,338.601013 L783.117748,354.00997 L783.580992,354.33422 C783.94046,354.586159 784.629595,354.658678 786.660325,354.658678 C788.691055,354.658678 789.38019,354.586159 789.739657,354.33422 L790.202901,354.00997 L790.202901,338.601013 L790.202901,323.192265 L794.696972,323.192265 C797.396206,323.192265 799.351917,323.106201 799.594062,322.976585 C799.957906,322.781743 799.997083,322.519384 799.997083,320.282351 C799.997083,318.307052 799.930607,317.737531 799.669707,317.476422 C799.379007,317.185931 797.920299,317.149672 786.697626,317.155298 C778.497395,317.159466 773.924763,317.236361 773.688244,317.374104 M530.767119,322.980127 C530.619373,323.071609 529.716849,326.368497 528.761604,330.306592 C527.806567,334.244686 526.97302,337.677859 526.909462,337.935634 L526.794015,338.404504 L531.083867,338.404504 C535.071766,338.404504 535.366216,338.378873 535.266191,338.039827 C535.207009,337.839151 534.44723,334.721267 533.577841,331.110965 C532.708451,327.500663 531.905745,324.204817 531.793841,323.786793 C531.579828,322.987421 531.216818,322.702348 530.767119,322.980127 M445.895743,323.127457 C445.560032,323.215188 445.531066,323.660302 445.531066,328.729729 L445.531066,334.236768 L447.667031,334.260732 C452.77876,334.318038 454.321657,334.049636 455.709513,332.861831 C457.065903,331.7007 457.677727,329.345095 457.209065,327.088057 C456.769785,324.971055 455.553848,323.853685 453.048205,323.263742 C451.954382,323.006384 446.73971,322.906983 445.895743,323.127457" id="Shape"></path>
        </g>
    </g>
</svg>