<?xml version="1.0" encoding="UTF-8"?>
<svg width="800px" height="400px" viewBox="0 0 800 400" version="1.1" xmlns="http://www.w3.org/2000/svg" xmlns:xlink="http://www.w3.org/1999/xlink">
    <title>focusentertainment</title>
    <g id="Page-1" stroke="none" stroke-width="1" fill="none" fill-rule="evenodd">
        <g id="Manufacturer" fill="#000000" fill-rule="nonzero">
            <g id="focusentertainment">
                <line x1="0" y1="0" x2="800" y2="400" id="Path"></line>
                <path d="M223.866667,276.4 L248.4,276.4 L248.4,270.933333 L229.866667,270.933333 L229.866667,262.533333 L246.666667,262.533333 L246.666667,257.2 L229.866667,257.2 L229.866667,249.2 L248.4,249.2 L248.4,243.866667 L223.866667,243.866667 L223.866667,276.4 Z M239.6,173.733333 L284.4,173.733333 L284.4,159.333333 L239.6,159.333333 L239.6,137.333333 L289.066667,137.333333 L289.066667,122.933333 L223.866667,122.933333 L223.866667,195.066667 L239.6,211.066667 L239.6,173.733333 Z M427.6,167.866667 C427.6,143.6 406.8,123.066667 382.266667,123.066667 C357.6,123.066667 336.8,143.466667 336.8,167.866667 C336.8,192.266667 357.6,212.8 382.266667,212.8 C406.8,212.666667 427.6,192.133333 427.6,167.866667 Z M352.8,167.866667 C352.8,151.333333 366.266667,137.466667 382.266667,137.466667 C398.133333,137.466667 411.466667,151.333333 411.466667,167.866667 C411.466667,184.533333 398.133333,198.4 382.266667,198.4 C366.266667,198.266667 352.8,184.4 352.8,167.866667 Z M521.466667,137.466667 C529.733333,137.466667 538,141.733333 543.333333,147.866667 L554.133333,137.066667 C545.866667,128.533333 534.266667,123.066667 521.466667,123.066667 C496.8,123.066667 476,143.466667 476,167.866667 C476,192.266667 496.8,212.8 521.466667,212.8 C534.266667,212.8 545.733333,207.333333 554.133333,198.666667 L543.6,188.133333 C538.133333,194.266667 530,198.4 521.466667,198.4 C505.466667,198.4 492,184.533333 492,167.866667 C492,151.333333 505.466667,137.466667 521.466667,137.466667 Z M680.133333,124.533333 L664.533333,124.533333 L664.533333,173.733333 C664.533333,188.133333 655.2,198.4 642,198.4 C628.933333,198.4 619.6,188 619.6,173.733333 L619.6,124.533333 L603.866667,124.533333 L603.866667,174.266667 C603.866667,196.8 619.733333,212.666667 642.133333,212.666667 C664.533333,212.666667 680.4,196.8 680.4,174.266667 L680.4,124.533333 L680.133333,124.533333 Z M292.133333,266.8 L274.933333,243.866667 L269.066667,243.866667 L269.066667,276.4 L274.933333,276.4 L274.933333,253.466667 L292.133333,276.4 L298,276.4 L298,243.866667 L292.133333,243.866667 L292.133333,266.8 Z M319.733333,249.2 L330.133333,249.2 L330.133333,276.4 L336,276.4 L336,249.2 L346.4,249.2 L346.4,243.866667 L319.6,243.866667 L319.6,249.2 L319.733333,249.2 Z M366.8,276.4 L391.333333,276.4 L391.333333,270.933333 L372.8,270.933333 L372.8,262.533333 L389.6,262.533333 L389.6,257.2 L372.8,257.2 L372.8,249.2 L391.333333,249.2 L391.333333,243.866667 L366.8,243.866667 L366.8,276.4 Z M438.4,254.666667 C438.4,248.266667 433.2,243.866667 426.266667,243.866667 L412.133333,243.866667 L412.133333,276.4 L418,276.4 L418,265.466667 L424.266667,265.466667 L432,276.4 L438.666667,276.4 L430.533333,264.8 C435.2,263.333333 438.4,259.6 438.4,254.666667 Z M418,260 L418,249.333333 L425.6,249.333333 C429.6,249.333333 432.4,251.333333 432.4,254.666667 C432.4,258 429.6,260 425.6,260 L418,260 Z M455.466667,249.2 L465.866667,249.2 L465.866667,276.4 L471.733333,276.4 L471.733333,249.2 L482.133333,249.2 L482.133333,243.866667 L455.333333,243.866667 L455.333333,249.2 L455.466667,249.2 Z M507.066667,243.866667 L493.466667,276.4 L500,276.4 L510.4,251.733333 L520.8,276.4 L527.333333,276.4 L513.733333,243.866667 L507.066667,243.866667 Z M546,243.866667 L551.866667,243.866667 L551.866667,276.4 L546,276.4 L546,243.866667 Z M596.8,266.8 L579.6,243.866667 L573.733333,243.866667 L573.733333,276.4 L579.6,276.4 L579.6,253.466667 L596.8,276.4 L602.666667,276.4 L602.666667,243.866667 L596.8,243.866667 L596.8,266.8 L596.8,266.8 Z M640.533333,263.733333 L629.866667,243.866667 L624,243.866667 L624,276.4 L629.866667,276.4 L629.866667,254.666667 L640.533333,274.533333 L651.333333,254.666667 L651.333333,276.4 L657.2,276.4 L657.2,243.866667 L651.333333,243.866667 L640.533333,263.733333 Z M678.133333,276.4 L702.666667,276.4 L702.666667,270.933333 L684,270.933333 L684,262.533333 L700.8,262.533333 L700.8,257.2 L684,257.2 L684,249.2 L702.666667,249.2 L702.666667,243.866667 L678.133333,243.866667 L678.133333,276.4 Z M746.533333,266.8 L729.333333,243.866667 L723.466667,243.866667 L723.466667,276.4 L729.333333,276.4 L729.333333,253.466667 L746.533333,276.4 L752.4,276.4 L752.4,243.866667 L746.533333,243.866667 L746.533333,266.8 Z M772.666667,249.2 L783.066667,249.2 L783.066667,276.4 L788.933333,276.4 L788.933333,249.2 L799.333333,249.2 L799.333333,243.866667 L772.533333,243.866667 L772.533333,249.2 L772.666667,249.2 Z M769.866667,160.533333 C756.133333,157.333333 749.733333,154.8 749.733333,147.733333 C749.733333,141.733333 755.6,136.4 764.4,136.4 C772.4,136.4 780.4,139.6 787.6,145.333333 L797.466667,135.466667 L797.733333,135.066667 C789.066667,127.6 778.666667,122.933333 764.933333,122.933333 C746.666667,122.933333 733.733333,134 733.733333,149.2 C733.733333,165.466667 746.266667,170.666667 764.133333,174.8 C778,178.133333 784.133333,180.533333 784.133333,187.6 C784.133333,193.733333 778.533333,199.066667 767.866667,199.066667 C757.066667,199.066667 748.266667,194.933333 740.533333,188.266667 L730.4,198.4 L730.4,198.4 C740,207.333333 752.533333,212.4 767.466667,212.4 C788.133333,212.4 800,201.466667 800,185.866667 C800,170.4 787.866667,164.533333 769.866667,160.533333 Z M29.7333333,214.933333 L29.7333333,244.666667 L89.2,304.133333 L89.2,274.4 L44.6666667,229.866667 L59.4666667,215.066667 L89.2,244.8 L89.2,215.066667 L74.4,200.266667 L89.2,185.2 L148.666667,244.666667 L148.666667,214.933333 L89.2,155.466667 L29.7333333,214.933333 Z M0,185.2 L0,214.933333 L89.2,125.733333 L178.4,214.933333 L178.4,185.2 L89.2,96 L0,185.2 Z" id="Shape"></path>
            </g>
        </g>
    </g>
</svg>