<?xml version="1.0" encoding="UTF-8"?>
<svg width="800px" height="400px" viewBox="0 0 800 400" version="1.1" xmlns="http://www.w3.org/2000/svg" xmlns:xlink="http://www.w3.org/1999/xlink">
    <title>focushomeinteractive</title>
    <g id="Page-1" stroke="none" stroke-width="1" fill="none" fill-rule="evenodd">
        <g id="focushomeinteractive" fill="#000000">
            <line x1="0" y1="0" x2="800" y2="400" id="Path" fill-rule="nonzero"></line>
            <path d="M152.792715,41.5343745 C132.796068,44.7006235 116.094464,50.9507255 101.409565,60.7638576 C75.2612114,78.2358245 56.8012916,103.311429 47.9385142,133.395594 C46.4609847,138.412155 44.9554565,141.917588 43.9011067,142.795146 C42.4019782,144.043887 40.1180871,144.19508 22.7101172,144.19508 C4.26619658,144.19508 3.11265158,144.282275 1.59992371,145.795003 C0.0807961475,147.314131 0,148.461276 0,168.469922 C0,188.870549 0.0535974444,189.593715 1.68151982,191.068845 C3.2046472,192.447979 4.93016492,192.612771 19.8806521,192.799162 C28.9658189,192.913557 37.1462288,193.174344 38.0613852,193.379934 C41.5068209,194.155097 41.5980165,195.496633 41.5980165,245.250261 C41.5980165,286.839478 41.7500093,292.849591 42.8435572,294.409517 C44.0778983,296.172633 44.2770888,296.187832 65.6112716,296.187832 C86.721465,296.187832 87.1646439,296.154234 88.7645676,294.436716 C90.3692911,292.715198 90.3956898,291.889637 90.3956898,244.097516 L90.3956898,195.508633 L92.5035893,193.851112 C94.481095,192.295186 95.6298402,192.192791 111.1499,192.192791 C123.145328,192.192791 128.049094,191.918404 129.003449,191.192839 C129.726614,190.643265 131.731319,185.862693 133.457637,180.570945 C136.779078,170.39223 141.422057,160.437505 146.217828,153.214649 C148.969697,149.070047 149.056893,148.738063 147.924947,146.720559 L146.732204,144.59506 L121.363813,144.383871 C107.410878,144.267876 95.9954228,144.005489 95.9954228,143.802298 C95.9954228,143.598308 96.9097792,141.002432 98.0273259,138.032973 C107.666866,112.423794 131.133747,93.5254955 157.850073,89.8568704 C162.222665,89.256899 259.266838,88.9977114 479.927516,88.9977114 L795.746058,88.9977114 L797.853957,87.3393905 C801.094603,84.790712 800.683422,81.7132587 796.495622,77.1638757 C794.589313,75.0927744 787.546449,66.9187642 780.844368,58.9991418 C774.142288,51.0795194 767.549802,43.790267 766.193067,42.7999142 L763.726784,41 L459.259702,41.1087948 C291.802886,41.168792 153.892662,41.3599828 152.792715,41.5343745 M386.381577,122.984091 C361.15558,128.017451 340.996541,147.230135 334.326459,172.593725 C331.913774,181.770888 331.081814,207.975238 333.138515,210.03194 C334.985627,211.879052 335.76559,211.286281 341.453319,203.713842 C353.307154,187.932994 369.930361,176.771126 389.181443,171.66657 C396.874676,169.626667 398.241811,169.526672 424.89734,169.069893 C450.69371,168.626715 452.731213,168.487521 454.303138,167.063589 C457.239798,164.403716 457.720575,160.732691 457.442189,143.12793 L457.178201,126.461525 L454.565526,124.128836 L451.95285,121.796148 L421.76709,121.871344 C400.516903,121.924141 390.042202,122.253726 386.381577,122.984091 M479.685928,123.904847 L477.577228,126.014346 L477.577228,186.173878 C477.577228,243.942323 477.641225,246.586197 479.195551,252.661908 C484.550496,273.600109 499.177799,289.337759 519.580026,296.110236 C529.843536,299.518073 533.064983,299.271685 542.849316,294.332721 C556.962243,287.20826 568.298503,277.509523 576.039734,265.934875 C582.573022,256.167341 583.508178,256.660917 557.573414,256.189739 C536.546417,255.807358 535.406471,255.707362 531.773844,253.917848 C529.683544,252.888297 526.903676,250.749199 525.596539,249.162875 C520.673574,243.191159 520.775169,244.591092 520.775169,182.789239 L520.775169,126.472725 L518.43688,124.134436 L516.098592,121.796148 L498.94661,121.796148 L481.795427,121.796148 L479.685928,123.904847 M597.371516,122.660106 C593.557298,124.8816 593.571698,124.660811 593.571698,180.986925 C593.571698,226.067976 593.385307,234.760361 592.306958,239.980112 C588.377545,259.006405 575.330967,278.634269 558.369376,291.040078 C553.520807,294.587109 551.968881,296.165433 552.142473,297.375776 C552.363263,298.914102 553.034431,298.998098 566.772975,299.213288 C577.57406,299.38208 582.771413,299.116493 587.571984,298.150939 C613.461149,292.939987 632.95462,272.296171 636.744839,246.075022 C637.207217,242.875174 637.544801,217.337192 637.553601,184.767545 C637.5704,125.167987 637.543201,124.722408 633.689785,122.660106 C631.580285,121.53136 599.309824,121.53136 597.371516,122.660106 M697.166758,123.374472 C689.57192,125.395176 686.113685,126.937502 679.805186,131.116503 C663.801949,141.717598 654.097612,161.277465 655.442348,180.220562 C657.099869,203.577048 671.801568,222.172161 694.366892,229.455014 C698.021917,230.634958 702.859287,230.952543 722.948729,231.333325 L747.131576,231.790903 L749.301872,233.962799 C751.089787,235.752314 751.472169,236.847462 751.472169,240.180103 C751.472169,247.488554 755.411981,246.934981 700.180214,247.390159 L651.652928,247.79014 L650.163399,255.374578 C647.485927,269.011528 642.335773,279.349435 633.718583,288.383404 C626.090147,296.380623 621.484767,295.787851 691.25504,295.787851 C759.161402,295.787851 755.820761,296.054239 768.763344,289.603346 C777.614122,285.191557 787.09527,276.028794 791.334268,267.789186 C796.401226,257.940056 797.947553,251.530762 797.893955,240.590483 C797.853957,232.298079 797.549172,230.119783 795.658862,224.591246 C789.321564,206.06253 775.709413,193.098348 756.943108,187.719404 C753.444075,186.716252 747.141975,186.287472 730.227582,185.900291 C708.295028,185.397915 708.072638,185.375516 706.051934,183.475607 C701.045773,178.767831 702.010527,171.434581 707.850249,169.812258 C709.558167,169.337881 722.695141,168.989097 739.564737,168.969898 C760.619733,168.945899 768.828141,168.676312 770.092881,167.965946 C772.824751,166.430819 799.162495,128.691819 799.162495,126.311932 C799.162495,121.725751 799.904259,121.792148 749.185878,121.840145 C706.530312,121.880943 702.312113,122.004938 697.166758,123.374472 M215.37773,123.793652 C197.064204,127.113494 181.299355,135.120312 168.895147,147.402127 C152.086348,164.045333 143.193172,185.212324 143.193172,208.57521 C143.193172,227.43991 148.005743,243.026367 158.55804,258.336837 C163.147421,264.99572 174.382885,276.080791 180.896975,280.377386 C207.512506,297.931749 240.105351,300.088446 268.519997,286.17551 C288.751032,276.269582 304.846265,258.131247 312.096319,237.065051 C313.96743,231.63011 313.95703,230.846148 312.004323,229.801398 C310.723584,229.11583 309.094062,229.622206 303.404733,232.47327 C288.861427,239.761723 270.931082,245.943028 256.387775,248.681297 C246.018669,250.634004 230.244222,250.469212 222.231804,248.325314 C212.491468,245.718239 207.380512,242.925572 201.590388,237.046652 C185.642348,220.852224 185.617549,196.874968 201.531991,180.922128 C224.918876,157.480046 264.772175,170.733014 269.656742,203.576248 C271.321463,214.764515 267.808831,226.064776 259.694817,235.62992 C254.839049,241.352847 254.59746,241.904821 256.318178,243.332752 C259.22444,245.744637 290.794934,234.551571 308.677282,224.768838 C315.915337,220.809026 316.784895,219.130706 316.784895,209.122384 C316.784895,176.205553 298.141784,146.365376 268.294407,131.509284 C252.562357,123.678458 232.307323,120.724999 215.37773,123.793652 M369.582378,186.088282 C356.221415,193.964706 344.617168,206.609703 337.049529,221.540992 C332.396951,230.720554 331.891375,234.889155 334.344858,243.834329 C339.790198,263.682982 352.375198,279.981405 368.311238,287.825031 C382.75615,294.935092 382.104981,294.862295 434.069703,295.19748 C475.558925,295.465467 479.878719,295.371871 481.067462,294.183128 C483.140963,292.109627 482.685785,290.960882 477.54203,285.284352 C469.264025,276.150388 463.723489,264.930123 462.613942,255.056194 C461.782782,247.658946 464.911432,248.305315 428.573965,248.031728 C397.577043,247.79894 396.242707,247.726143 392.656478,246.068622 C387.715913,243.784731 382.808947,238.602578 381.247422,234.018797 C380.346665,231.375723 379.952283,226.947134 379.878687,218.649129 C379.82189,212.237435 379.551502,201.592343 379.278715,194.992657 C378.685144,180.653341 378.730742,180.694939 369.582378,186.088282 M112.394641,315.655704 C101.700751,319.206735 97.3857565,325.18325 97.2817615,336.585906 C97.2353637,341.719261 97.5881469,343.730365 99.0640765,346.750221 C102.832697,354.461854 110.642724,358.584857 121.479008,358.584857 C130.756165,358.584857 135.562336,356.886538 140.440504,351.884377 C145.34427,346.855816 146.781801,342.602419 146.219428,334.775592 C145.600258,326.144804 141.233266,319.73551 133.764022,316.494864 C129.758613,314.756547 116.651238,314.242171 112.394641,315.655704 M597.830695,315.692502 C588.016763,318.89635 583.172194,325.787221 583.172194,336.544308 C583.172194,343.331184 585.1265,348.582134 589.151108,352.605942 C593.30851,356.763344 598.431466,358.584857 605.968707,358.584857 C614.367506,358.584857 619.615256,356.762544 624.079843,352.296357 C627.558077,348.816523 630.135554,343.347984 629.092404,341.660864 C628.863615,341.289682 626.744516,340.985696 624.385428,340.985696 C620.231227,340.985696 620.066434,341.070492 619.213675,343.653569 C615.95783,353.519499 601.665712,354.645045 594.890035,345.569478 C593.130919,343.21439 592.25576,336.386716 593.121319,331.775735 C593.925281,327.48874 598.471464,322.86576 602.788058,321.945004 C609.825323,320.443476 615.898633,322.932157 618.636103,328.438295 C620.083234,331.346956 620.16563,331.386154 624.923003,331.386154 L629.743573,331.386154 L629.216398,329.186259 C628.045254,324.303292 624.459025,319.883502 619.685653,317.442819 C615.792238,315.451714 613.948326,315.036534 608.112604,314.838143 C603.79041,314.69095 599.910595,315.013335 597.830695,315.692502 M41.5980165,336.585906 L41.5980165,357.784895 L45.9978068,357.784895 L50.397597,357.784895 L50.397597,348.185353 L50.397597,338.585811 L63.1713879,338.585811 L75.9459788,338.585811 L76.1707681,347.985363 L76.3963573,357.384914 L80.7961475,357.384914 L85.1959377,357.384914 L85.1959377,336.585906 L85.1959377,315.786898 L80.7961475,315.786898 L76.3963573,315.786898 L76.1683682,323.986507 L75.9403791,332.186116 L63.168988,332.186116 L50.397597,332.186116 L50.397597,323.786516 L50.397597,315.386917 L45.9978068,315.386917 L41.5980165,315.386917 L41.5980165,336.585906 M158.392448,336.595506 L158.392448,357.868891 L162.592247,357.626503 L166.792047,357.384914 L166.500861,340.985696 C166.32087,330.821381 166.493661,324.890464 166.956039,325.38644 C167.36642,325.826419 170.875852,333.295663 174.754867,341.985649 L181.807331,357.784895 L185.580751,357.784895 L189.354171,357.784895 L196.411435,341.985649 C200.29205,333.295663 203.797483,325.826419 204.201463,325.38644 C204.647042,324.900063 204.827834,331.015772 204.662241,340.985696 L204.390254,357.384914 L208.590054,357.626503 L212.789854,357.868891 L212.789854,336.627504 L212.789854,315.386917 L206.502954,315.386917 L200.216053,315.386917 L192.942,331.574945 L185.667147,347.762973 L184.487203,344.974306 C183.838434,343.440779 180.596189,336.245922 177.281947,328.986268 L171.257434,315.786898 L164.824941,315.554909 L158.392448,315.32212 L158.392448,336.595506 M227.189167,336.570707 L227.189167,357.784895 L245.58829,357.784895 L263.987413,357.784895 L263.987413,354.185067 L263.987413,350.585239 L249.98808,350.585239 L235.988748,350.585239 L235.988748,344.985506 L235.988748,339.385773 L249.188118,339.385773 L262.387489,339.385773 L262.387489,336.205924 L262.387489,333.026076 L249.388109,332.806086 L236.388729,332.586097 L236.15114,327.605534 L235.913551,322.624972 L249.750492,322.405782 L263.587432,322.186593 L263.587432,318.986745 L263.587432,315.786898 L245.3883,315.571708 L227.189167,315.356518 L227.189167,336.570707 M302.746365,316.401268 C302.531975,316.958842 302.453579,326.408791 302.571173,337.400267 L302.785563,357.384914 L307.385343,357.624903 L311.985124,357.864891 L311.985124,336.625904 L311.985124,315.386917 L307.560535,315.386917 C304.72467,315.386917 302.995153,315.750899 302.746365,316.401268 M326.384438,336.547508 L326.384438,357.784895 L330.384247,357.784895 L334.384056,357.784895 L334.384056,342.519223 C334.384056,333.891635 334.694441,327.368746 335.098422,327.519938 C335.492003,327.666331 341.161333,334.446008 347.697821,342.58562 L359.582855,357.384914 L364.582616,357.623303 L369.582378,357.860892 L369.582378,336.581906 L369.582378,315.302921 L365.382578,315.545309 L361.182778,315.786898 L360.782797,330.780583 L360.382816,345.774268 L348.383389,330.780583 L336.383961,315.786898 L331.384199,315.548509 L326.384438,315.31092 L326.384438,336.547508 M379.981882,318.986745 L379.981882,322.586574 L387.56552,322.586574 L395.149959,322.586574 L395.365148,339.985744 L395.581138,357.384914 L399.980928,357.384914 L404.380719,357.384914 L404.596708,339.985744 L404.811898,322.586574 L412.396336,322.586574 L419.979975,322.586574 L419.979975,318.986745 L419.979975,315.386917 L399.980928,315.386917 L379.981882,315.386917 L379.981882,318.986745 M429.9403,316.401268 C429.72591,316.958842 429.647514,326.408791 429.765108,337.400267 L429.979498,357.384914 L448.578611,357.599304 L467.177724,357.814494 L467.177724,354.199466 L467.177724,350.585239 L453.178392,350.585239 L439.179059,350.585239 L439.179059,344.985506 L439.179059,339.385773 L452.37843,339.385773 L465.577801,339.385773 L465.577801,336.185925 L465.577801,332.986078 L452.37843,332.986078 L439.179059,332.986078 L439.179059,327.786326 L439.179059,322.586574 L452.778411,322.586574 L466.377762,322.586574 L466.377762,318.986745 L466.377762,315.386917 L448.353822,315.386917 C434.535281,315.386917 430.238686,315.623706 429.9403,316.401268 M479.777124,315.851695 C479.446739,316.182879 479.177152,325.752823 479.177152,337.119481 L479.177152,357.784895 L483.548944,357.784895 L487.920735,357.784895 L488.148724,349.585286 L488.376714,341.385677 L496.901107,341.159288 C504.877527,340.947298 505.567094,341.054493 507.623796,342.824009 C509.461308,344.404733 509.874088,345.490281 510.140476,349.450093 C510.717248,358.019284 510.550056,357.784895 516.076193,357.784895 C520.391187,357.784895 520.883164,357.624903 520.395987,356.384962 C520.092801,355.615399 519.644823,352.285157 519.400834,348.985315 C518.940056,342.768811 517.542523,338.829799 515.521819,338.054636 C514.624262,337.709852 515.005844,336.881892 517.163341,334.494006 C519.604025,331.792535 519.975207,330.84298 519.975207,327.307148 C519.975207,322.300187 518.205691,319.08834 514.410672,317.20843 C512.070784,316.048485 508.852537,315.755699 495.976351,315.52691 C487.39676,315.374917 480.107508,315.52051 479.777124,315.851695 M546.625936,316.386869 C545.214003,318.585164 528.774787,355.728993 528.774787,356.720946 C528.774787,357.47851 530.053126,357.784895 533.208176,357.784895 L537.641565,357.784895 L539.974253,352.585143 L542.306942,347.385391 L551.932083,347.385391 L561.557224,347.385391 L563.914712,352.585143 L566.272999,357.784895 L571.207964,357.784895 C574.829391,357.784895 576.040534,357.518508 575.756547,356.784943 C575.544557,356.235369 571.306359,346.695024 566.338596,335.585954 L557.307027,315.386917 L552.288066,315.386917 C549.148216,315.386917 547.027517,315.761299 546.625936,316.386869 M637.884785,316.519663 C637.645596,317.142033 637.5672,318.67236 637.709593,319.919501 L637.969581,322.186593 L645.769209,322.415382 L653.568837,322.644171 L653.568837,340.214533 L653.568837,357.784895 L657.968627,357.784895 L662.368417,357.784895 L662.368417,340.185734 L662.368417,322.586574 L670.368036,322.586574 L678.367654,322.586574 L678.367654,318.986745 L678.367654,315.386917 L658.343809,315.386917 C641.813397,315.386917 638.243168,315.584507 637.884785,316.519663 M688.343979,316.358871 C688.120789,316.940443 688.035194,326.408791 688.152788,337.400267 L688.367178,357.384914 L692.766968,357.384914 L697.166758,357.384914 L697.166758,336.585906 L697.166758,315.786898 L692.958159,315.544509 C690.027099,315.376517 688.626365,315.623706 688.343979,316.358871 M706.366319,315.802097 C706.366319,316.144481 720.483246,347.987762 724.018278,355.619399 C725.003031,357.744897 725.285417,357.842493 729.818801,357.619303 L734.583374,357.384914 L743.674141,336.746698 C748.673902,325.39524 752.764107,315.928491 752.764107,315.709301 C752.764107,315.490112 750.562612,315.418115 747.87234,315.548509 L742.979774,315.786898 L736.523282,331.996525 C732.971451,340.9121 729.833201,347.931765 729.548414,347.595781 C729.263628,347.259797 726.938939,341.765659 724.38306,335.385963 C721.827982,329.006267 718.908121,321.896206 717.89537,319.586717 L716.053858,315.386917 L711.210089,315.386917 C708.546216,315.386917 706.366319,315.573308 706.366319,315.802097 M761.92447,316.401268 C761.710081,316.958842 761.631684,326.408791 761.749279,337.400267 L761.963669,357.384914 L780.362791,357.384914 L798.761914,357.384914 L798.761914,354.185067 L798.761914,350.985219 L784.962572,350.76603 L771.16323,350.54764 L771.16323,344.966306 L771.16323,339.385773 L784.3626,339.385773 L797.561971,339.385773 L797.561971,336.185925 L797.561971,332.986078 L784.3626,332.986078 L771.16323,332.986078 L771.16323,327.786326 L771.16323,322.586574 L784.762581,322.586574 L798.361933,322.586574 L798.361933,318.986745 L798.361933,315.386917 L780.337992,315.386917 C766.519451,315.386917 762.222856,315.623706 761.92447,316.401268 M118.394355,321.737814 C110.395536,323.345737 106.794908,327.972717 106.794908,336.644303 C106.794908,341.431275 107.122892,342.79761 108.923606,345.51908 C111.723473,349.750078 115.860076,351.677186 122.037381,351.627589 C127.810706,351.581191 131.07535,350.082063 134.132804,346.074254 C138.397401,340.48252 137.439047,329.509443 132.277693,324.842466 C129.361832,322.205792 123.067732,320.798659 118.394355,321.737814 M488.141525,328.386297 L488.376714,334.18602 L494.776408,334.434809 C502.651233,334.741194 507.574998,334.073226 509.166122,332.481302 C509.831691,331.816533 510.375665,329.878226 510.375665,328.174307 C510.375665,323.320939 508.666146,322.586574 497.363485,322.586574 L487.906336,322.586574 L488.141525,328.386297 M548.570643,331.597344 C546.918722,335.66115 545.568387,339.255379 545.570783,339.585763 C545.572386,339.916147 548.492247,340.185734 552.059277,340.185734 C557.898999,340.185734 558.49337,340.046541 558.028592,338.785801 C555.446316,331.777335 552.298466,324.193697 551.973681,324.200891 C551.753692,324.204896 550.221765,327.533538 548.570643,331.597344" id="Shape"></path>
        </g>
    </g>
</svg>