<?xml version="1.0" encoding="UTF-8"?>
<svg width="800px" height="400px" viewBox="0 0 800 400" version="1.1" xmlns="http://www.w3.org/2000/svg" xmlns:xlink="http://www.w3.org/1999/xlink">
    <title>gearboxsoftware</title>
    <g id="Page-1" stroke="none" stroke-width="1" fill="none" fill-rule="evenodd">
        <g id="Manufacturer" fill="#000000" fill-rule="nonzero">
            <g id="gearboxsoftware">
                <line x1="0" y1="0" x2="800" y2="400" id="Path"></line>
                <path d="M239.122091,149.635387 L239.9879,150.06951 C244.23201,152.168175 245.052856,152.030936 248.492231,149.696807 C252.716565,146.829879 259.126239,146.911727 267.036497,149.924716 L267.699144,150.182583 C275.185205,153.157067 276.491776,154.213172 277.550274,158.14485 C279.369742,164.90105 276.072206,170.593967 269.349507,172.300166 C265.784754,173.205513 261.577882,172.162968 261.577882,170.373812 C261.577882,167.971253 258.946394,162.890143 257.457956,162.417927 C255.58664,161.823669 252.803596,164.0308 252.803596,166.108711 L252.815689,166.311788 C252.915577,167.354368 253.623165,170.798688 254.523467,174.635357 L255.204955,177.510461 C256.955728,185.097798 256.870091,187.92697 254.871842,194.351099 L254.6789,194.964148 C254.050174,196.937985 253.25321,198.572481 252.850259,198.739066 L252.786845,198.753044 C252.422127,198.753044 249.614083,201.077857 246.465205,203.978767 L244.430857,205.854491 C237.876258,211.83913 236.107771,212.553683 227.025526,212.891202 L224.648506,212.968984 C217.905686,213.169686 213.940325,212.971474 212.208776,212.344707 L212.043048,212.280601 C209.129187,211.07294 203.71625,212.527876 202.471897,214.853062 C200.580639,218.387504 205.56922,227.468891 209.40119,227.468891 L209.684175,227.459741 C210.843381,227.396312 213.726866,227.009671 216.833166,226.505433 L218.703529,226.191833 C228.21326,224.546256 247.190446,224.906001 250.80944,226.80045 C252.125583,227.48963 254.502617,228.28809 256.09156,228.576046 C260.405319,229.35616 271.367593,239.325345 274.170579,245.017463 C278.282528,253.368191 277.374789,264.604861 272.231461,269.023113 C270.917489,270.152047 267.171953,272.492101 263.220652,274.766851 L262.088033,275.4139 C258.306789,277.557456 254.531184,279.531518 252.683947,280.233461 C248.136473,281.961197 225.304983,283.651444 216.908788,282.8817 C200.253597,281.354974 192.30888,277.175223 186.189214,266.720262 C180.443578,256.905159 180.425542,251.470664 186.282924,241.630774 L190.55482,234.592016 L187.703975,227.704201 C184.219786,219.287453 184.350314,215.145965 188.470181,208.292757 L188.771247,207.798536 C191.953388,202.640126 192.557602,198.480034 190.506064,195.927758 L190.30595,195.693212 C185.986608,190.920797 184.459882,176.071514 187.463081,168.045435 C191.279895,157.843333 203.709071,148.33759 216.111126,146.135245 L216.995066,145.98727 C218.826434,145.69767 220.965471,145.454952 222.093594,145.417348 C226.065953,145.284936 234.810725,147.45059 239.122091,149.635387 Z M766.932682,251.190196 C769.588153,251.190196 771.786636,251.560727 773.63929,252.338841 C775.034957,252.894638 776.233007,253.820965 777.221089,254.771994 C779.654242,257.2422 780.889345,260.861051 780.889345,265.208614 L780.889345,266.542525 L758.064643,266.542525 L758.064643,267.505905 C758.064643,270.334291 759.102129,272.60688 760.695412,274.336024 C762.486311,276.028115 764.944166,276.979144 767.74785,276.979144 C769.958684,276.979144 771.996604,276.596262 773.63929,275.657584 C775.405488,274.620098 776.850558,273.57026 777.863342,271.878169 L781.506896,273.792579 C780.074177,275.830499 778.283277,277.621398 775.850125,278.695937 C775.146116,278.992362 774.503863,279.177627 773.63929,279.44935 C771.786636,279.980444 769.785769,280.227465 767.377319,280.227465 C762.70863,280.227465 759.102129,279.066468 756.656626,276.596262 C754.248175,274.150759 753.037774,270.334291 753.037774,265.591496 C753.037774,261.046317 754.248175,257.662135 756.656626,254.981962 C759.299746,252.338841 762.70863,251.190196 766.932682,251.190196 Z M640.501353,251.181547 C644.330172,251.181547 647.158558,251.749694 649.394094,253.293573 C651.407312,254.775696 652.395394,256.887722 652.395394,259.530843 L652.395394,275.290756 C652.395394,276.019466 652.605362,276.587614 652.605362,277.365728 C652.815329,278.131492 653.025297,278.687289 653.222913,279.453052 L653.222913,279.811232 L647.751408,279.811232 L647.158558,276.019466 C645.552924,277.365728 643.762025,278.576129 641.909371,279.255436 C641.075676,279.574504 640.370638,279.747762 639.572682,279.903865 L639.080985,279.996498 C638.092903,280.218816 636.870151,280.218816 635.845016,280.218816 C632.806662,280.218816 630.447616,279.453052 628.594962,278.131492 C626.816413,276.587614 626.001245,274.710257 626.001245,272.450019 C626.001245,269.692137 627.464521,267.319925 630.423683,265.626888 L630.818147,265.409932 C632.674095,264.349391 635.29394,263.439477 638.406553,262.720358 L640.763029,262.201003 C642.784159,261.768361 645.005362,261.33821 647.368526,261.050019 L647.368526,258.975046 C647.368526,257.665837 646.763325,256.467787 645.355308,255.751428 C643.910237,254.985664 642.316955,254.405166 640.09377,254.405166 L638.908071,254.405166 C637.598862,254.442219 636.252599,254.985664 635.029848,255.529109 C633.448916,256.294873 632.423781,257.443519 631.398645,258.975046 L627.186944,257.060637 C628.409696,255.158578 630.225297,253.639402 632.423781,252.713075 C634.436998,251.749694 636.660183,251.181547 639.080985,251.181547 L640.501353,251.181547 Z M493.253577,242.387553 L493.253577,251.564368 L501.33115,251.564368 L501.33115,254.985603 L493.253577,254.985603 L493.253577,273.005754 C493.253577,274.697845 493.673512,275.648874 494.291064,276.229372 C494.896264,276.599903 496.081963,276.785169 498.08283,276.785169 C498.910349,276.785169 499.935484,276.599903 501.133534,276.414638 L501.33115,276.414638 L501.33115,279.650607 C500.528333,279.811171 499.725516,279.996436 499.120316,280.218755 L496.316632,280.218755 C493.641863,280.218755 491.70526,279.860527 490.48647,279.042301 L490.252277,278.872493 C488.819558,277.909112 488.029092,276.599903 488.029092,274.697845 L488.029092,254.985603 L482.767554,254.985603 L482.767554,251.564368 L488.029092,251.564368 L488.029092,242.387553 L493.253577,242.387553 Z M374.896114,251.181486 C379.725366,251.181486 383.344218,252.342482 385.987338,254.985603 C388.593405,257.443457 389.828508,261.049958 389.828508,265.595136 C389.828508,270.337932 388.593405,273.932081 385.987338,276.414638 C383.344218,279.070109 379.725366,280.218755 374.896114,280.218755 C370.45404,280.218755 366.938596,279.16782 364.338974,276.752488 L363.990155,276.414638 C361.359386,273.932081 359.96372,270.337932 359.96372,265.595136 C359.96372,261.247574 361.240662,257.75884 363.654029,255.312689 L363.990155,254.985603 C366.620925,252.342482 370.252127,251.181486 374.896114,251.181486 Z M305.992186,251.184023 C308.622955,251.184023 311.056108,251.554554 313.24224,252.332668 C315.28016,253.07373 317.31808,254.210025 318.923713,255.741552 L315.675393,258.409375 C314.292077,257.050761 312.871709,256.124434 311.253724,255.35867 C309.623388,254.592907 308.005404,254.407641 306.436823,254.407641 C304.374201,254.407641 302.780918,254.963438 301.941048,255.531585 C300.87886,256.297349 300.347766,257.248378 300.347766,258.409375 C300.347766,259.162787 300.347766,259.520967 300.75535,260.089115 C300.965317,260.644911 301.570518,261.052495 302.151016,261.423026 C303.188502,261.966471 305.177018,262.596373 308.215371,263.312733 L310.880414,263.895541 C311.080625,263.941018 311.26379,263.984666 311.42843,264.027376 L311.661308,264.090848 C314.650257,264.930718 316.873443,265.770588 318.096194,266.919234 C318.738448,267.512083 319.133681,268.043177 319.528914,268.636027 C320.121763,269.488248 320.344082,270.525734 320.344082,271.871996 C320.344082,272.99594 320.121763,274.218692 319.528914,275.28088 C319.023894,276.181133 318.138279,276.944762 317.097608,277.649838 L316.700528,277.911649 C314.477343,279.455528 311.451341,280.208941 307.437256,280.208941 C304.584169,280.208941 301.941048,279.801357 299.754916,278.87503 C297.334115,277.911649 295.308546,276.590089 293.91288,274.897998 L297.914613,272.440144 C299.347332,273.934618 300.75535,275.107966 302.595653,275.824326 C304.201287,276.590089 305.992186,276.985322 308.005404,276.985322 C310.24094,276.985322 312.056541,276.590089 313.24224,275.651411 C314.68731,274.897998 315.28016,273.774055 315.28016,272.242527 C315.28016,270.155203 312.476476,268.463112 307.00497,267.104499 C305.782218,266.919234 305.004104,266.709266 304.201287,266.548703 C301.36549,265.822462 299.239796,264.967112 297.824203,263.771774 L297.531731,263.51035 C295.938448,262.176438 295.308546,260.644911 295.308546,258.767554 C295.308546,256.470263 296.308979,254.592907 298.149283,253.283698 C300.1625,251.75217 302.780918,251.184023 305.992186,251.184023 Z M715.031177,251.346996 L715.228794,255.163464 L714.413626,255.163464 C712.017526,255.163464 709.78199,255.892174 707.966388,257.436053 C706.150787,258.96758 704.767472,261.24017 703.495316,264.093258 L703.495316,279.803766 L698.468447,279.803766 L698.468447,251.556963 L703.495316,251.556963 L703.495316,258.028902 C704.767472,255.743962 706.360755,254.03952 707.966388,252.878523 C709.559671,251.75458 711.597591,251.346996 714.030744,251.346996 L715.031177,251.346996 Z M441.93381,240.165633 C442.551362,240.165633 443.378881,240.363249 443.947028,240.363249 C444.774547,240.573217 445.565013,240.573217 446.380181,240.746131 L446.380181,243.982101 C445.77498,243.759782 444.984515,243.759782 444.342261,243.759782 C443.749412,243.61157 443.156562,243.61157 442.724276,243.61157 C441.340961,243.61157 440.328177,243.982101 439.52536,244.537897 C438.920159,245.093693 438.512575,246.020021 438.512575,247.181017 L438.512575,251.553282 L446.182564,251.553282 L446.182564,254.974517 L438.512575,254.974517 L438.512575,279.800085 L433.695674,279.800085 L433.695674,254.974517 L427.606617,254.974517 L427.606617,251.553282 L433.695674,251.553282 L433.695674,247.551548 C433.695674,245.093693 434.276172,243.228688 435.68419,242.080042 C437.104558,240.943748 439.093074,240.165633 441.93381,240.165633 Z M544.204067,251.559459 L552.269289,275.273435 L560.532127,251.559459 L564.941445,251.559459 L573.266038,275.273435 L581.33126,251.559459 L586.148162,251.559459 L583.542094,259.155342 L576.242636,279.793911 L570.178281,279.793911 L562.718259,258.574843 L555.295291,279.793911 L549.243287,279.793911 L539.362464,251.559459 L544.204067,251.559459 Z M374.896114,254.405104 C371.660144,254.405104 369.226992,255.356133 367.621358,257.245841 C366.003373,259.333165 364.990589,261.963934 364.990589,265.595136 C364.990589,269.386902 366.003373,272.252341 367.621358,274.1544 C369.226992,276.019405 371.660144,276.982785 374.896114,276.982785 C377.917313,276.982785 380.266486,276.123474 381.870801,274.456875 L382.146168,274.1544 C383.937067,272.252341 384.776937,269.386902 384.776937,265.768051 C384.776937,261.963934 383.937067,259.333165 382.146168,257.245841 C380.540534,255.356133 378.09503,254.405104 374.896114,254.405104 Z M647.368526,264.65652 C644.132556,265.199965 641.316521,265.916325 639.080985,266.373313 C637.253033,266.70679 635.845016,267.287289 634.634615,267.843085 C632.028548,269.041135 630.818147,270.708524 630.818147,272.622933 C630.818147,273.78393 631.398645,274.895523 632.423781,275.648935 C633.448916,276.414699 634.893986,276.78523 636.660183,276.78523 C637.475351,276.78523 638.278168,276.587614 639.080985,276.414699 L640.048713,276.155822 C640.53396,276.022431 641.020097,275.871254 641.501787,275.648935 C643.305037,274.895523 645.355308,273.932142 647.368526,272.450019 L647.368526,264.65652 Z M230.538687,236.437776 L230.469049,236.488857 C230.292148,236.659969 227.573269,237.07594 223.996326,237.496631 L218.678283,238.08529 C209.671935,239.131142 206.955623,240.120747 203.315026,243.237081 C200.378033,245.750515 196.967228,250.964834 196.967228,252.940644 C196.967228,253.384942 197.923626,255.76756 199.092201,258.235527 C200.74735,261.731681 202.163201,263.351734 205.502216,265.568437 L209.788056,268.414497 L223.102637,269.194611 C238.956975,270.12309 246.004322,269.316653 253.333244,265.734351 C258.197389,263.357317 263.173207,258.751615 263.173207,256.626642 C263.173207,256.022812 262.397082,253.501401 261.448661,251.022266 C259.165751,245.056549 255.281933,241.791717 247.386671,239.200909 C241.698124,237.334379 231.778282,235.723574 230.538687,236.437776 L230.538687,236.437776 Z M767.155,254.401463 C764.326615,254.401463 762.313397,255.154876 760.695412,256.661702 C759.299746,258.20558 758.27461,260.292904 758.27461,263.133641 L775.627806,263.133641 C775.627806,260.651084 774.874393,258.502005 773.466376,256.995179 C772.058359,255.43895 769.588153,254.401463 767.155,254.401463 Z M737.345214,146.438356 C742.311183,148.513232 743.022192,153.347649 738.859921,156.031635 L738.57521,156.207328 C735.072846,158.276558 735.339742,160.903924 740.00836,168.083699 L740.60207,168.985879 C743.030154,172.635185 745.288336,175.620835 745.620961,175.620835 C745.952789,175.620835 747.711635,174.095704 749.52871,172.23077 C752.977802,168.692339 756.390201,162.602985 757.272416,158.414459 C757.679536,156.479365 757.533401,155.926743 756.104221,155.206549 L755.24867,154.80034 C753.848982,154.10722 753.634825,153.582532 753.882781,151.454218 L754.02295,150.376393 C754.608409,146.098581 755.001293,145.639622 764.438301,145.820747 L771.190084,145.974511 C775.507152,146.063282 780.11744,146.123485 783.523198,146.137405 L786.183384,146.137192 L788.448678,146.1195 C792.873281,146.113977 793.882378,146.424771 795.50597,147.874149 C798.375162,150.43624 798.957455,153.53117 796.949739,155.538886 C795.854098,156.634528 793.993617,157.218574 790.40146,157.577933 L787.150371,157.883763 C779.614534,158.631387 778.24756,159.237141 775.756679,162.419518 L775.241357,163.091154 C773.751722,165.062377 771.361913,167.481584 769.746612,168.675408 L769.434375,168.897339 C767.935727,169.91505 766.175119,171.76033 765.357519,173.141958 L765.197192,173.430454 C764.472117,174.832745 762.134966,177.733045 760.003612,179.875566 L759.327495,180.563847 C756.681133,183.298581 756.128568,184.442006 756.128568,186.713128 C756.128568,189.00131 756.683223,190.142962 759.040694,192.481532 L759.373459,192.808067 C761.099122,194.484381 765.148106,199.723569 768.520145,204.62831 L769.189598,205.607319 L770.472879,207.455887 C773.422808,211.653394 776.329033,215.441129 777.386271,216.42685 C780.13188,218.986851 784.250918,220.194988 790.562574,220.28029 L791.247251,220.285143 C797.477792,220.290727 800,221.669087 800,225.069522 C800,231.966542 797.094474,233.499811 785.179909,232.658743 L784.596341,232.616206 C779.960239,232.267406 772.727179,231.961296 768.021587,231.907529 L765.227942,231.879776 C757.301826,231.744308 756.04352,230.946596 756.256562,226.848128 L756.288101,226.350568 C756.499756,223.475023 756.654714,223.116297 759.000945,222.705188 L760.405785,222.465951 C764.291461,221.741368 764.488608,220.774901 761.728345,215.982698 L758.648583,210.723763 C758.117639,209.804856 757.684396,209.044223 757.420869,208.566542 L757.21658,208.187795 C756.881408,207.539326 754.966371,205.146825 752.763022,202.605547 L751.328204,200.975822 C746.346673,195.402736 745.643366,195.709836 741.367826,202.747738 C739.870666,205.212727 737.10957,209.038238 735.015857,211.567247 L733.673273,213.160027 C729.623696,218.018831 729.473497,219.223262 732.268537,220.722432 L732.468306,220.827554 C733.855441,221.543854 735.427634,222.703656 735.962067,223.404003 C737.358774,225.233841 737.20323,229.096122 735.664539,230.795941 L735.54668,230.920447 C734.525792,231.947785 732.926249,232.193175 723.705285,232.243328 L718.167815,232.254865 C709.270688,232.254865 701.105018,231.918252 700.021793,231.50586 C695.025236,229.605828 693.015126,223.664839 696.349355,220.647282 C697.546179,219.564441 699.570629,219.089866 704.501913,218.763343 L706.659185,218.627588 C712.677814,218.228647 713.552485,217.719514 719.442626,210.40152 L722.372773,206.749949 C725.101931,203.384492 727.702993,200.374021 728.536174,199.626775 L728.624371,199.550707 C729.317395,198.982372 731.059316,196.934396 732.744393,194.73038 L733.533983,193.679912 L734.146463,192.834736 C736.263473,189.851387 736.984671,188.094945 736.984671,186.079784 C736.984671,182.897306 736.076852,181.173563 730.996155,175.7244 L729.386936,174.018331 C726.797952,171.299442 723.798018,167.355662 722.519057,165.013476 L722.340387,164.674514 C721.182979,162.390806 719.446468,160.09992 718.481296,159.583035 C717.554731,159.087591 714.01406,158.642135 710.476094,158.565654 L708.165834,158.524438 C703.820432,158.414784 703.030302,158.087008 701.816533,156.587813 C700.97819,155.552447 700.2922,153.699477 700.2922,152.471077 C700.2922,149.142992 705.266364,146.970196 714.674762,146.179281 L716.81669,146.016596 C728.73775,145.153295 734.571646,145.279768 737.345214,146.438356 Z M528.66057,115 C540.090063,115.0482 547.104735,116.251116 548.50263,118.409297 C548.820169,118.899443 549.234794,125.194113 549.471467,132.852635 L549.611711,137.777341 C549.849624,145.185356 550.24834,151.0779 550.55342,151.382268 C550.879976,151.708061 553.028864,151.054451 555.411956,149.91847 L555.738226,149.76062 C561.35696,147.001506 566.964526,146.420808 576.167157,147.646017 C584.186855,148.712492 592.065367,151.343182 596.548229,154.44928 C600.035899,156.866438 604.423631,162.821591 608.661899,170.871729 L612.150506,177.614991 L612.150506,206.330837 L609.481527,211.444651 C606.006112,218.105132 599.84098,224.557423 594.569229,227.050916 C592.364961,228.094041 587.599466,229.463497 583.736683,230.179002 L581.946488,230.487698 C576.626983,231.368975 574.915466,231.326147 568.492475,230.321998 L567.758998,230.206468 C560.604764,229.072192 557.097442,228.091067 551.005695,225.520202 C549.989473,225.091857 549.561128,225.531369 549.144748,227.426615 C548.005686,232.612218 538.207201,234.105442 534.857817,229.604233 L534.622113,229.277499 L534.494798,229.083548 L534.380692,228.889663 L534.308371,228.752548 C533.475896,227.096234 533.248468,223.72936 533.139127,206.305476 L532.99381,169.59774 C532.823068,138.534174 532.390615,132.263353 530.887054,131.060223 C530.431352,130.695366 527.344814,130.255284 523.827213,130.038219 L521.574261,129.909135 C513.845264,129.389597 512.42304,127.949644 512.662861,121.982027 L512.708464,121.125493 C512.883875,118.559692 513.366551,117.347761 514.519819,116.394402 L514.707589,116.247527 C516.05085,115.2561 518.085554,115.026498 526.180522,115 L528.66057,115 Z M680.897039,149.339454 C686.559029,152.094124 690.893951,156.565025 696.024555,164.986053 L696.479374,165.739393 C702.034199,175.023753 703.017855,179.618201 701.960381,192.308071 L701.720406,195.024007 C700.975983,203.105596 700.486997,204.878071 698.128142,209.724891 C691.439743,223.469411 675.387585,232.212589 656.787693,232.243057 C641.349735,232.268425 628.449141,226.092125 622.408444,215.784732 C620.033803,211.732607 617.546692,200.325237 616.869476,190.377589 C615.964927,177.087736 620.135904,164.880311 628.184317,157.269016 C633.551788,152.192693 643.83924,147.151466 651.75923,145.717269 C663.350062,143.617822 671.121687,144.583791 680.897039,149.339454 Z M343.313362,156.629853 L343.867128,157.135009 C349.770951,162.587139 351.444546,165.355544 352.822334,172.252541 L352.93655,172.836993 C355.019039,183.721525 354.02574,189.21117 349.777657,190.216204 L349.533722,190.26831 C348.433496,190.478668 337.232763,190.640548 323.752856,190.653616 L309.932065,190.657728 C295.372711,190.703613 291.449941,190.961081 290.955788,191.692935 C290.554564,192.285598 290.339195,195.124478 290.477191,198.000849 C290.686976,202.390385 291.130477,203.780711 293.235508,206.642723 C296.99489,211.754144 301.317423,214.530807 308.292981,216.315177 C316.156337,218.326084 318.553312,218.301357 326.022623,216.130917 C330.742391,214.759736 332.865768,213.631841 335.525973,211.08331 L336.158881,210.46905 C338.424501,208.235477 338.884744,207.312792 338.943883,204.883577 L338.951135,204.213841 C338.951135,200.006172 341.00352,197.56373 345.60683,196.292256 C352.450773,194.402594 355.365432,201.209047 351.973771,211.161481 C349.532924,218.326084 337.952462,227.62603 327.530205,230.791155 C316.906139,234.018497 303.081055,231.731599 292.717027,225.03283 C283.283074,218.935498 277.625255,211.051403 275.861623,201.544863 C274.205676,192.620616 276.652904,175.620037 280.7489,167.590768 C282.47584,164.206286 293.779513,152.304365 297.719168,149.72313 C298.876576,148.964553 301.358901,147.865374 303.235003,147.279092 C305.111105,146.693608 310.070172,146.190283 314.255507,146.16077 C326.698158,146.073332 334.830631,148.987203 343.313362,156.629853 L343.313362,156.629853 Z M395.036525,144.931445 L395.585165,144.955502 C421.440195,146.196074 428.291204,156.32235 426.066154,191.161714 L425.738899,195.920394 C424.646386,212.52456 425.732361,215.446756 432.546279,215.924784 L433.068119,215.956229 C435.220212,216.066307 437.358745,216.38936 437.819794,216.674923 C438.28164,216.960486 438.658934,219.094233 438.658934,221.417026 C438.658934,230.487858 430.87698,233.142547 421.866796,227.256325 L421.468512,226.991091 C415.74825,223.108929 410.50659,222.976824 405.438055,226.59256 L405.038262,226.8858 C401.206292,229.773337 395.292423,231.606366 388.406203,232.041092 L387.318225,232.104211 C382.845756,232.335604 381.347347,231.989016 376.064771,229.881022 C362.725463,224.559816 357.528692,218.030152 358.28009,207.533712 C359.060204,196.620893 365.208586,188.622732 375.42026,185.233465 L376.375699,184.927994 C380.037224,183.805619 383.210572,183.431356 390.88818,183.215202 L394.575614,183.11913 C400.602601,182.93046 405.861407,182.479158 406.638373,182.063554 C407.427527,181.640687 408.930294,180.283243 410.093464,178.955584 L410.337133,178.671894 C412.246312,176.402624 412.459025,175.685962 412.219621,171.183536 L412.193294,170.704044 C411.930863,166.060851 411.565533,164.968054 409.587331,162.903703 C406.511856,159.69282 403.111432,158.693564 394.667003,158.598584 L394.02414,158.593136 C387.660389,158.555646 385.85847,158.838018 383.034745,160.314491 C379.406668,162.211127 378.349122,164.348306 379.468832,167.597885 L379.588046,167.926584 C380.989538,171.613379 380.614637,175.174144 378.634839,176.977659 C375.848604,179.515023 373.634294,180.406809 370.1174,180.406809 C367.256983,180.406809 366.610078,180.035099 364.570456,177.220148 C361.083076,172.405458 360.874886,169.629593 363.421822,161.923376 C366.858151,151.525049 371.83397,147.545512 384.228845,145.282543 C386.217175,144.919364 390.978776,144.769289 395.036525,144.931445 L395.036525,144.931445 Z M525.703046,162.181021 C527.940489,166.473243 528.143095,173.243801 526.146546,177.006375 C521.346214,186.052664 513.623246,188.910688 505.428063,184.672708 C499.282536,181.494933 499.661309,170.231461 505.868483,166.882682 L506.206581,166.710946 C509.335013,165.217722 509.680401,161.842015 506.891773,160.01457 C503.748186,157.954208 493.867542,158.752668 488.015093,161.540498 C482.452993,164.188738 476.563852,169.288193 474.584053,173.168023 C471.020098,180.154748 470.384361,205.27553 473.588571,212.5199 C475.37868,216.565592 477.071674,217.818885 480.824063,217.758898 L481.206247,217.748577 C484.754249,217.61457 486.331228,218.877269 486.987704,222.377412 C487.748674,226.43512 486.117454,229.599447 482.647623,230.795143 C481.194998,231.295654 474.649754,231.58398 467.650805,231.632061 L465.66711,231.63925 C459.128745,231.641665 452.575515,231.43479 449.718524,230.996154 C445.196575,230.300592 443.315687,228.054375 443.603644,223.691162 C443.895459,219.265817 446.001092,217.376948 451.572191,216.632261 L452.044507,216.572822 C455.418619,216.173194 456.315192,215.748837 456.654198,214.394406 L456.676836,214.265418 L456.708917,213.938444 L456.742377,213.384571 C456.834749,211.510643 456.889637,207.30526 456.899475,201.858359 L456.900889,199.413018 C456.898809,195.866256 456.879378,191.912132 456.840851,187.801937 L456.606338,162.892536 L454.390432,160.681416 C452.504435,158.800399 451.97567,158.52471 447.363941,158.638187 L444.490191,158.724274 C440.006066,158.837664 438.484884,158.581809 437.5446,157.641525 C435.89663,155.993554 435.164375,153.011094 435.792136,150.508827 L435.887383,150.163597 C436.871489,146.915724 439.781898,146.238824 452.281175,146.352102 L456.507988,146.407855 C464.327859,146.536594 466.318749,146.755785 467.651043,147.681708 L467.829123,147.812408 C467.945769,147.90254 468.058914,147.998743 468.172443,148.101482 C469.603449,149.396886 469.823604,150.223264 469.416796,152.769403 L469.286821,153.598694 C468.952748,155.828709 469.166251,155.804588 471.139747,155.324315 C472.265556,155.05041 474.279686,154.11791 475.798132,153.181802 L476.166616,152.948079 C481.026773,149.77099 485.979458,147.456971 490.108159,146.43357 C504.500382,142.867222 518.976359,149.271653 525.703046,162.181021 Z M655.176415,159.617334 C647.668817,161.414468 638.848266,168.832728 635.437462,176.218284 C633.982756,179.368463 633.701724,181.304888 633.68794,188.947606 L633.688792,190.825679 L633.699912,192.679787 C633.764582,198.800084 634.134757,200.120297 636.00779,204.177149 C638.889744,210.418059 644.400794,215.615628 649.797778,217.183034 C662.201428,220.785278 677.35143,215.012595 682.36075,204.774598 L682.842738,203.77376 C684.422772,200.411458 684.45923,199.153743 684.16586,190.204497 L684.110364,188.730646 C683.606294,176.982874 681.819153,172.19891 676.015345,166.395869 C669.903656,160.283382 662.48061,157.868858 655.176415,159.617334 Z M391.734849,195.613445 C378.744119,197.320443 372.42424,201.543268 372.470003,208.484526 C372.50959,214.203765 377.857916,217.47099 387.20971,217.487139 L388.377142,217.482919 C392.99275,217.436484 394.649596,216.997031 398.968051,214.951175 C405.838317,211.696712 412.336075,205.420704 412.336075,202.039414 C412.336075,196.772449 403.61603,194.05242 391.734849,195.613445 Z M565.822274,161.856373 L564.521523,162.426848 C557.393858,165.616511 554.338949,168.122941 552.166293,172.410244 L551.831749,173.082963 C550.190908,176.455428 549.881643,178.363513 549.656848,185.131364 C549.328211,195.030354 550.448129,201.437976 553.598895,207.678887 L553.978034,208.416332 C556.587725,213.38965 558.366886,214.467211 565.577391,215.996113 C573.56279,217.688752 579.506172,217.080136 585.944105,213.911023 C594.153228,209.869621 596.64079,204.6606 596.884862,190.684885 L596.907769,188.727877 C596.958474,182.178739 596.678636,180.918293 594.697652,176.630676 C589.246428,164.827665 575.391032,157.738839 565.822274,161.856373 Z M211.6841,160.789898 C208.865958,162.0175 205.603519,165.663615 203.137147,170.343501 C200.472157,175.399085 200.74416,182.915458 203.808779,188.907498 C205.825269,192.85114 206.819157,193.859386 210.54424,195.738678 C215.878208,198.429194 222.265091,199.244405 228.261917,197.999254 C234.458956,196.713422 237.595365,194.369092 240.617708,188.763918 L241.305872,187.465894 C243.017132,184.154907 243.104961,183.081827 242.713964,178.811485 C242.453129,175.959842 241.721672,172.497987 241.089126,171.118031 C239.320709,167.261333 234.446991,161.975224 231.54031,160.760385 C228.139875,159.339748 214.968873,159.358892 211.6841,160.789898 Z M313.027107,159.280721 L311.673714,159.5299 C305.779572,160.670784 302.471035,162.100925 299.232334,164.831653 C296.399037,167.220652 293.484378,172.221996 293.484378,174.693951 L293.494781,175.094516 C293.6614,178.051121 295.989238,178.411357 311.75324,178.565007 L314.985783,178.585756 L316.517935,178.587139 C330.308106,178.57211 337.12097,177.793118 338.836271,176.077098 L339.097563,175.804333 C339.923543,174.891387 339.817812,174.348772 338.716622,172.039331 C336.737622,167.889093 331.37414,162.42032 327.547753,160.651105 C322.834366,158.471093 319.455468,158.152826 313.027107,159.280721 Z M136.105434,116.53898 C154.482185,116.53898 169.41854,131.458553 169.41854,149.818521 L169.41854,255.640077 C169.024153,255.631686 168.629766,255.614903 168.218597,255.614903 C152.082299,255.614903 138.98362,268.688409 138.98362,284.807925 C138.98362,285.143573 138.98362,285.462439 139.000402,285.789696 L33.3131057,285.789696 C14.9447459,285.789696 0,270.84495 0,252.493373 L0,149.818521 C0,131.458553 14.9447459,116.53898 33.3131057,116.53898 L136.105434,116.53898 Z M136.105434,132.574584 L33.3131057,132.574584 C23.8142554,132.574584 16.0775593,140.302889 16.0775593,149.818521 L16.0775593,252.493373 C16.0775593,262.000615 23.8142554,269.728919 33.3131057,269.728919 L122.310284,269.728919 C123.015146,267.362598 123.913006,265.080189 124.953516,262.932039 C125.05421,262.688694 125.171687,262.462131 125.305946,262.227177 L124.978689,261.505533 L117.837769,245.134281 L117.80234,245.081448 C117.761316,245.01121 117.697916,244.871357 117.686727,244.664374 C117.680014,244.422707 117.79682,244.245484 117.92544,244.081151 L118.022376,243.959512 C120.833431,240.468768 124.005309,237.305282 127.47927,234.527791 C127.579965,234.443879 127.798136,234.351576 128.041481,234.410314 C128.301609,234.452271 128.570127,234.594921 128.570127,234.594921 L144.932988,241.643538 L145.545546,241.895274 L145.973498,241.702276 C148.348211,240.510725 150.806835,239.554127 153.357763,238.773744 L153.357763,149.818521 C153.357763,140.302889 145.629458,132.574584 136.105434,132.574584 Z M84.1973977,138.624658 C88.4006313,138.563631 92.6038649,138.911763 96.7314453,139.675357 L97.9673741,139.916905 C98.1687632,139.95047 98.3114137,139.975643 98.5044116,140.177032 C98.6974094,140.411986 98.7729303,140.772808 98.7729303,140.772808 L103.782483,158.058702 L103.818845,158.22031 C103.869192,158.414862 103.975481,158.741187 104.160087,158.94817 C104.248195,159.048865 104.322143,159.111799 104.39609,159.158213 L104.470562,159.199907 C104.554474,159.250254 104.630928,159.293142 104.717326,159.336031 L104.856558,159.401296 C108.19626,160.936887 111.309399,162.82491 114.16241,165.056972 L114.372929,165.19546 C114.474228,165.266752 114.587006,165.327169 114.733013,165.342273 C114.984749,165.367446 115.33718,165.258361 115.33718,165.258361 L133.300486,161.581812 C133.391982,161.568112 133.588063,161.545849 133.839799,161.557837 C134.054614,161.557837 134.188873,161.627652 134.276948,161.715726 L134.33488,161.784399 C137.012439,165.026458 139.350189,168.538977 141.329216,172.239999 L141.912144,173.355879 C142.004447,173.523703 142.079968,173.666354 142.02962,173.951655 C141.987664,174.228565 141.727537,174.522257 141.727537,174.522257 L131.339218,189.206875 C131.339218,189.206875 130.953223,189.65161 130.877702,190.045996 C130.844137,190.247385 130.860919,190.373254 130.869311,190.490731 L130.92463,190.749926 L130.961614,190.893509 C131.731927,194.00497 132.237162,197.231977 132.361092,200.543946 L132.38812,201.651041 C132.38812,201.85243 132.379728,202.06221 132.505597,202.263599 C132.591906,202.388268 132.724796,202.512938 132.822848,202.596899 L147.090915,214.359639 C147.159904,214.421778 147.302897,214.557921 147.458734,214.74972 C147.626558,214.976283 147.618167,215.144107 147.584602,215.286758 C146.737852,219.413708 145.481945,223.436634 143.835792,227.298798 L143.330258,228.452567 C143.246346,228.645565 143.187608,228.788215 142.944262,228.922475 C142.800413,229.003989 142.615464,229.036184 142.483357,229.048808 L124.181516,230.181467 C123.987586,230.197006 123.655667,230.239895 123.409524,230.357372 C123.015137,230.525196 122.998355,230.567152 122.738228,230.852453 C120.716709,233.468985 118.327641,236.023103 115.56472,238.31937 L114.614603,239.089825 C114.50645,239.179331 114.349814,239.324779 114.271496,239.503791 C114.16241,239.77231 114.204366,240.200262 114.204366,240.200262 L113.539308,258.431891 C113.533926,258.522898 113.515088,258.717266 113.449157,258.963008 C113.382028,259.231527 113.239377,259.32383 113.096727,259.39096 C109.305425,261.214141 105.354621,262.662839 101.282142,263.711835 L100.056786,264.014517 C99.8637877,264.063483 99.7127459,264.10682 99.4526184,263.980952 C99.2008821,263.880258 98.9827106,263.569783 98.9827106,263.569783 L87.0541787,249.873328 C86.9455191,249.756801 86.7672059,249.583733 86.5888927,249.489332 C86.2784179,249.455767 85.9175958,249.472549 85.6742507,249.472549 L84.1580421,249.456907 C83.8329498,249.451191 83.4759997,249.443408 83.1078589,249.43282 L82.1254054,249.397905 L81.2380065,249.351073 C80.9544202,249.332881 80.6868203,249.311972 80.4465266,249.287943 L79.9053083,249.226219 C77.9127141,248.973185 75.0009958,248.361261 74.7405034,248.322953 C74.4468111,248.280997 74.2622044,248.280997 74.0356417,248.364909 C73.7922966,248.44043 73.5153867,248.683775 73.5153867,248.683775 L58.7395903,259.518002 C58.6593479,259.572313 58.4855299,259.681056 58.2517748,259.776956 C58.0084297,259.886041 57.8489967,259.835694 57.7147373,259.768565 C53.5526969,257.737892 49.6340016,255.270876 46.0006074,252.409473 C45.8495657,252.283605 45.7320887,252.191301 45.6397854,251.914391 C45.5642645,251.637482 45.6817415,251.285051 45.6817415,251.285051 L49.0228377,233.532209 C49.0370269,233.440713 49.0610018,233.240352 49.0550081,232.958647 C49.0298344,232.832779 48.9878784,232.622999 48.8704014,232.463566 C46.4956889,229.593772 44.4985808,226.514197 42.8455123,223.149322 C42.8203387,223.157713 42.5602111,222.687805 42.3672133,222.561937 C42.1406506,222.419287 41.7798286,222.352157 41.7798286,222.352157 L24.0524545,217.697726 C23.9812148,217.677763 23.8469555,217.634315 23.6825562,217.55329 L23.5541154,217.485255 C23.3107742,217.392951 23.2436446,217.216736 23.2016885,217.074085 C22.2633986,212.962392 21.7134622,208.79522 21.5834016,204.604091 L21.5570112,203.346065 C21.54862,203.136285 21.54862,202.985243 21.6996618,202.750289 C21.8926597,202.515335 22.2366993,202.381076 22.2366993,202.381076 L38.2011327,193.74652 C38.3776589,193.649555 38.6722836,193.466813 38.8512961,193.243048 C39.5820307,189.473996 40.7710769,185.895319 42.3150207,182.545798 L42.7976513,181.532336 C42.8035562,181.513068 42.8063533,181.492556 42.8035562,181.470179 C42.7699914,181.193269 42.6021672,180.882795 42.6021672,180.882795 L35.0670069,164.093206 C35.0288428,163.993685 34.9781531,163.835451 34.9493832,163.638857 C34.8906447,163.378729 34.9745568,163.219296 35.058469,163.101819 C37.9114805,159.460034 41.1504878,156.128724 44.708361,153.1918 C44.8594028,153.049149 44.985271,152.956846 45.2621809,152.948455 C45.5474821,152.931672 45.8915217,153.116279 45.8915217,153.116279 L62.6375808,160.147492 C62.8203227,160.222702 63.1410534,160.33272 63.4207605,160.315938 C63.5382374,160.315938 63.6137583,160.282373 63.6976704,160.26559 C67.0457634,158.553783 70.6036367,157.236363 74.3377253,156.355286 C74.4887671,156.330113 74.6398089,156.296548 74.7740683,156.179071 C74.8495892,156.089165 74.9189451,155.977682 74.9735491,155.879629 L83.4017739,139.310047 C83.4462987,139.225401 83.5464795,139.049014 83.7023162,138.851221 C83.8701405,138.658223 84.0463559,138.624658 84.1973977,138.624658 Z M87.8307918,175.990719 C73.1209998,174.505475 59.9635817,185.237833 58.4867287,199.964407 C57.0014844,214.690982 67.7254514,227.840009 82.4604171,229.316862 C97.1786003,230.802106 110.319236,220.061356 111.812871,205.343173 C113.298116,190.616599 102.565757,177.467572 87.8307918,175.990719 Z" id="Shape"></path>
            </g>
        </g>
    </g>
</svg>