<?xml version="1.0" encoding="UTF-8"?>
<svg width="800px" height="400px" viewBox="0 0 800 400" version="1.1" xmlns="http://www.w3.org/2000/svg" xmlns:xlink="http://www.w3.org/1999/xlink">
    <title>gearboxpublishing</title>
    <g id="Page-1" stroke="none" stroke-width="1" fill="none" fill-rule="evenodd">
        <g id="Manufacturer" fill="#000000" fill-rule="nonzero">
            <g id="gearboxpublishing">
                <line x1="0" y1="0" x2="800" y2="400" id="Path"></line>
                <path d="M136.105434,113.217152 C154.482185,113.217152 169.41854,128.136724 169.41854,146.496693 L169.41854,252.318248 C169.024153,252.309857 168.629766,252.293075 168.218597,252.293075 C152.082299,252.293075 138.98362,265.366581 138.98362,281.486096 C138.98362,281.821744 138.98362,282.14061 139.000402,282.467868 L33.3131057,282.467868 C14.9447459,282.467868 0,267.523122 0,249.171544 L0,146.496693 C0,128.136724 14.9447459,113.217152 33.3131057,113.217152 L136.105434,113.217152 Z M136.105434,129.252755 L33.3131057,129.252755 C23.8142554,129.252755 16.0775593,136.98106 16.0775593,146.496693 L16.0775593,249.171544 C16.0775593,258.678786 23.8142554,266.407091 33.3131057,266.407091 L122.310284,266.407091 C123.015146,264.040769 123.913006,261.75836 124.953516,259.61021 C125.05421,259.366865 125.171687,259.140302 125.305946,258.905349 L124.978689,258.183704 L117.837769,241.812453 L117.80234,241.759619 C117.761316,241.689382 117.697916,241.549528 117.686727,241.342545 C117.680014,241.100878 117.79682,240.923656 117.92544,240.759322 L118.022376,240.637683 C120.833431,237.14694 124.005309,233.983453 127.47927,231.205963 C127.579965,231.122051 127.798136,231.029747 128.041481,231.088486 C128.301609,231.130442 128.570127,231.273092 128.570127,231.273092 L144.932988,238.321709 L145.545546,238.573445 L145.973498,238.380448 C148.348211,237.188896 150.806835,236.232298 153.357763,235.451915 L153.357763,146.496693 C153.357763,136.98106 145.629458,129.252755 136.105434,129.252755 Z M84.1973977,135.30283 C88.4006313,135.241803 92.6038649,135.589934 96.7314453,136.353528 L97.9673741,136.595076 C98.1687632,136.628641 98.3114137,136.653815 98.5044116,136.855204 C98.6974094,137.090158 98.7729303,137.45098 98.7729303,137.45098 L103.782483,154.736873 L103.818845,154.898482 C103.869192,155.093033 103.975481,155.419358 104.160087,155.626342 C104.248195,155.727036 104.322143,155.78997 104.39609,155.836384 L104.470562,155.878078 C104.554474,155.928425 104.630928,155.971314 104.717326,156.014202 L104.856558,156.079467 C108.19626,157.615058 111.309399,159.503081 114.16241,161.735143 L114.372929,161.873631 C114.474228,161.944923 114.587006,162.00534 114.733013,162.020444 C114.984749,162.045618 115.33718,161.936532 115.33718,161.936532 L133.300486,158.259983 C133.391982,158.246283 133.588063,158.224021 133.839799,158.236008 C134.054614,158.236008 134.188873,158.305823 134.276948,158.393897 L134.33488,158.462571 C137.012439,161.704629 139.350189,165.217148 141.329216,168.91817 L141.912144,170.03405 C142.004447,170.201874 142.079968,170.344525 142.02962,170.629826 C141.987664,170.906736 141.727537,171.200428 141.727537,171.200428 L131.339218,185.885047 C131.339218,185.885047 130.953223,186.329781 130.877702,186.724168 C130.844137,186.925557 130.860919,187.051425 130.869311,187.168902 L130.92463,187.428097 L130.961614,187.57168 C131.731927,190.683141 132.237162,193.910149 132.361092,197.222117 L132.38812,198.329212 C132.38812,198.530601 132.379728,198.740381 132.505597,198.94177 C132.591906,199.06644 132.724796,199.191109 132.822848,199.27507 L147.090915,211.03781 C147.159904,211.099949 147.302897,211.236092 147.458734,211.427891 C147.626558,211.654454 147.618167,211.822278 147.584602,211.964929 C146.737852,216.091879 145.481945,220.114805 143.835792,223.976969 L143.330258,225.130738 C143.246346,225.323736 143.187608,225.466387 142.944262,225.600646 C142.800413,225.682161 142.615464,225.714355 142.483357,225.726979 L124.181516,226.859638 C123.987586,226.875178 123.655667,226.918066 123.409524,227.035543 C123.015137,227.203367 122.998355,227.245323 122.738228,227.530624 C120.716709,230.147156 118.327641,232.701274 115.56472,234.997541 L114.614603,235.767996 C114.50645,235.857502 114.349814,236.00295 114.271496,236.181962 C114.16241,236.450481 114.204366,236.878433 114.204366,236.878433 L113.539308,255.110062 C113.533926,255.201069 113.515088,255.395437 113.449157,255.64118 C113.382028,255.909698 113.239377,256.002002 113.096727,256.069131 C109.305425,257.892312 105.354621,259.34101 101.282142,260.390006 L100.056786,260.692688 C99.8637877,260.741654 99.7127459,260.784992 99.4526184,260.659123 C99.2008821,260.558429 98.9827106,260.247954 98.9827106,260.247954 L87.0541787,246.551499 C86.9455191,246.434973 86.7672059,246.261904 86.5888927,246.167503 C86.2784179,246.133938 85.9175958,246.15072 85.6742507,246.15072 L84.1580421,246.135078 C83.8329498,246.129362 83.4759997,246.121579 83.1078589,246.110991 L82.1254054,246.076076 L81.2380065,246.029244 C80.9544202,246.011052 80.6868203,245.990143 80.4465266,245.966114 L79.9053083,245.90439 C77.9127141,245.651356 75.0009958,245.039432 74.7405034,245.001125 C74.4468111,244.959169 74.2622044,244.959169 74.0356417,245.043081 C73.7922966,245.118602 73.5153867,245.361947 73.5153867,245.361947 L58.7395903,256.196174 C58.6593479,256.250484 58.4855299,256.359227 58.2517748,256.455127 C58.0084297,256.564213 57.8489967,256.513865 57.7147373,256.446736 C53.5526969,254.416063 49.6340016,251.949047 46.0006074,249.087644 C45.8495657,248.961776 45.7320887,248.869473 45.6397854,248.592563 C45.5642645,248.315653 45.6817415,247.963222 45.6817415,247.963222 L49.0228377,230.210381 C49.0370269,230.118885 49.0610018,229.918523 49.0550081,229.636818 C49.0298344,229.51095 48.9878784,229.30117 48.8704014,229.141737 C46.4956889,226.271943 44.4985808,223.192369 42.8455123,219.827493 C42.8203387,219.835884 42.5602111,219.365977 42.3672133,219.240108 C42.1406506,219.097458 41.7798286,219.030328 41.7798286,219.030328 L24.0524545,214.375897 C23.9812148,214.355935 23.8469555,214.312486 23.6825562,214.231461 L23.5541154,214.163426 C23.3107742,214.071123 23.2436446,213.894907 23.2016885,213.752257 C22.2633986,209.640564 21.7134622,205.473391 21.5834016,201.282262 L21.5570112,200.024236 C21.54862,199.814456 21.54862,199.663414 21.6996618,199.42846 C21.8926597,199.193506 22.2366993,199.059247 22.2366993,199.059247 L38.2011327,190.424691 C38.3776589,190.327726 38.6722836,190.144984 38.8512961,189.921219 C39.5820307,186.152167 40.7710769,182.57349 42.3150207,179.22397 L42.7976513,178.210508 C42.8035562,178.191239 42.8063533,178.170727 42.8035562,178.148351 C42.7699914,177.871441 42.6021672,177.560966 42.6021672,177.560966 L35.0670069,160.771377 C35.0288428,160.671857 34.9781531,160.513622 34.9493832,160.317028 C34.8906447,160.056901 34.9745568,159.897468 35.058469,159.779991 C37.9114805,156.138205 41.1504878,152.806895 44.708361,149.869971 C44.8594028,149.727321 44.985271,149.635017 45.2621809,149.626626 C45.5474821,149.609844 45.8915217,149.79445 45.8915217,149.79445 L62.6375808,156.825663 C62.8203227,156.900873 63.1410534,157.010891 63.4207605,156.994109 C63.5382374,156.994109 63.6137583,156.960544 63.6976704,156.943762 C67.0457634,155.231955 70.6036367,153.914535 74.3377253,153.033457 C74.4887671,153.008284 74.6398089,152.974719 74.7740683,152.857242 C74.8495892,152.767336 74.9189451,152.655853 74.9735491,152.557801 L83.4017739,135.988218 C83.4462987,135.903572 83.5464795,135.727185 83.7023162,135.529392 C83.8701405,135.336395 84.0463559,135.30283 84.1973977,135.30283 Z M87.8307918,172.66889 C73.1209998,171.183646 59.9635817,181.916004 58.4867287,196.642578 C57.0014844,211.369153 67.7254514,224.51818 82.4604171,225.995033 C97.1786003,227.480277 110.319236,216.739528 111.812871,202.021344 C113.298116,187.29477 102.565757,174.145743 87.8307918,172.66889 Z M758.640407,248.632107 C762.764322,246.600461 767.504829,246.886822 770.425071,249.344419 L771.45551,250.198131 C772.702723,251.197646 772.859908,251.097431 772.877444,250.051759 L772.879479,249.743251 C772.879479,248.414345 773.376422,248.076934 775.33229,248.076934 L777.785102,248.076934 L777.475757,266.569091 C777.157745,281.989554 776.377313,283.816634 770.885323,286.670234 C767.136309,288.618923 760.270031,288.886937 756.307245,287.240562 L755.746687,286.997118 C754.115849,286.250891 753.831604,285.707455 754.213381,284.464697 L754.482672,283.616482 C754.998271,282.115037 755.350627,282.227502 757.802064,283.08155 C759.20595,283.571315 761.944325,283.971742 763.886633,283.971742 C768.739611,283.971742 772.081816,280.754769 772.081816,276.083658 L772.081816,272.857912 L769.257294,274.525026 C765.000169,277.036067 759.329587,276.293444 755.669115,272.745441 C748.950404,266.234123 750.633472,252.577345 758.640407,248.632107 Z M300.413672,249.223972 C306.519777,245.080116 314.553035,247.4061 317.552246,254.18623 C319.699553,259.040006 319.373309,267.669118 316.917306,270.984203 C313.764945,275.238934 310.29272,276.971457 305.660695,276.599746 C303.298816,276.409902 300.846802,275.686422 300.01484,274.933429 C299.205213,274.201175 298.302259,273.602131 298.007922,273.602131 C297.713584,273.602131 297.47269,276.832663 297.47269,280.781092 L297.47269,287.960054 L292.686716,287.960054 L292.682147,268.129037 C292.649763,259.668449 292.449129,252.174575 292.20526,250.665164 L292.096578,250.09778 C291.75663,248.267084 291.968955,248.088571 293.890078,248.077548 L294.128889,248.076934 C295.840673,248.076934 296.713316,248.537185 297.057906,249.622804 L297.20143,250.048556 C297.587337,251.0851 297.951601,250.894078 300.413672,249.223972 Z M239.122091,146.313558 L239.9879,146.747682 C244.23201,148.846347 245.052856,148.709108 248.492231,146.374978 C252.716565,143.50805 259.126239,143.589898 267.036497,146.602888 L267.699144,146.860755 C275.185205,149.835238 276.491776,150.891343 277.550274,154.823021 C279.369742,161.579221 276.072206,167.272138 269.349507,168.978338 C265.784754,169.883684 261.577882,168.84114 261.577882,167.051983 C261.577882,164.649424 258.946394,159.568314 257.457956,159.096098 C255.58664,158.50184 252.803596,160.708972 252.803596,162.786882 L252.815689,162.989959 C252.915577,164.032539 253.623165,167.476859 254.523467,171.313529 L255.204955,174.188632 C256.955728,181.775969 256.870091,184.605141 254.871842,191.02927 L254.6789,191.642319 C254.050174,193.616156 253.25321,195.250652 252.850259,195.417237 L252.786845,195.431216 C252.422127,195.431216 249.614083,197.756028 246.465205,200.656939 L244.430857,202.532662 C237.876258,208.517302 236.107771,209.231854 227.025526,209.569373 L224.648506,209.647155 C217.905686,209.847857 213.940325,209.649645 212.208776,209.022879 L212.043048,208.958772 C209.129187,207.751111 203.71625,209.206048 202.471897,211.531234 C200.580639,215.065676 205.56922,224.147062 209.40119,224.147062 L209.684175,224.137912 C210.843381,224.074483 213.726866,223.687842 216.833166,223.183604 L218.703529,222.870005 C228.21326,221.224427 247.190446,221.584173 250.80944,223.478621 C252.125583,224.167801 254.502617,224.966261 256.09156,225.254217 C260.405319,226.034331 271.367593,236.003516 274.170579,241.695635 C278.282528,250.046362 277.374789,261.283033 272.231461,265.701285 C270.917489,266.830218 267.171953,269.170272 263.220652,271.445022 L262.088033,272.092072 C258.306789,274.235628 254.531184,276.209689 252.683947,276.911632 C248.136473,278.639369 225.304983,280.329615 216.908788,279.559871 C200.253597,278.033145 192.30888,273.853394 186.189214,263.398433 C180.443578,253.58333 180.425542,248.148835 186.282924,238.308945 L190.55482,231.270187 L187.703975,224.382372 C184.219786,215.965624 184.350314,211.824136 188.470181,204.970928 L188.771247,204.476707 C191.953388,199.318297 192.557602,195.158206 190.506064,192.60593 L190.30595,192.371383 C185.986608,187.598969 184.459882,172.749685 187.463081,164.723606 C191.279895,154.521504 203.709071,145.015762 216.111126,142.813416 L216.995066,142.665441 C218.826434,142.375841 220.965471,142.133124 222.093594,142.09552 C226.065953,141.963108 234.810725,144.128761 239.122091,146.313558 Z M414.729063,236.111998 L414.729063,251.219724 L417.632554,249.249498 C421.324933,246.743242 426.603065,246.600461 430.332137,248.904907 C436.032232,252.427385 438.061485,262.572055 434.471207,269.597865 C432.259289,273.926779 429.546439,275.978367 425.27735,276.551088 C420.936471,277.133382 418.608892,276.466536 416.050789,273.908433 L413.9314,271.789044 L413.9314,273.89248 C413.9314,275.696792 413.592394,275.995118 411.538413,275.995118 L409.145426,275.995118 L409.145426,236.111998 L414.729063,236.111998 Z M350.707881,248.076934 L356.339377,248.076934 L356.653403,259.519539 C356.994702,270.186276 357.882973,271.964792 362.55578,271.981965 L362.805229,271.981281 C368.710324,271.929433 370.059968,269.198236 370.059968,257.302697 L370.059968,248.076934 L375.643605,248.076934 L375.643605,275.995118 L373.250618,275.995118 C371.487616,275.995118 370.917316,275.677255 370.862168,274.588473 L370.852144,273.899651 C370.807299,272.402341 370.414203,272.612304 367.192372,274.798624 C363.824641,277.083927 359.928061,277.368692 356.473385,275.582726 C352.544274,273.551211 351.521681,270.530095 351.098511,259.279506 L350.707881,248.076934 Z M549.534008,247.803336 C550.164659,247.551839 553.157867,247.418288 556.302168,247.493947 L556.712969,247.50501 C561.434333,247.646196 563.34633,248.088101 565.782391,249.599671 L568.868546,251.515656 L566.575936,253.240175 C565.177434,254.254158 564.871738,254.128036 562.931545,252.74645 C558.710316,249.740858 551.966878,249.807861 550.326884,252.87248 C548.878165,255.578724 550.494921,257.24522 556.044877,258.711659 L557.707228,259.140666 C564.970153,261.053116 567.918244,262.588479 569.182028,265.032046 C570.987935,268.523414 569.933426,271.68136 566.120599,274.204366 C561.56834,277.217137 553.245531,277.2977 547.58133,274.38384 L546.884134,274.019325 C542.905128,271.90071 542.585277,270.984706 545.063907,269.658488 C546.782072,268.738783 547.317304,268.832907 549.595428,270.455352 C554.848832,274.195591 564.689593,273.10758 564.689593,268.785845 C564.689593,266.853234 561.027503,264.503659 556.380015,263.411595 L554.868475,263.073623 C547.330825,261.32148 544.748033,259.11235 544.748033,254.597026 C544.748033,251.577076 546.576275,248.982281 549.534008,247.803336 Z M473.75608,236.111998 L473.75608,275.995118 L468.970105,275.995118 L468.970105,236.111998 L473.75608,236.111998 Z M598.191414,275.995118 L598.191414,236.010695 L603.376219,236.510829 L603.379987,244.718463 C603.413585,248.391427 603.667751,251.269124 603.974466,251.268381 C604.303901,251.268381 604.572713,250.949316 604.572713,250.560855 C604.572713,249.38191 609.819736,247.279271 612.761515,247.279271 C614.356042,247.279271 616.420392,247.983607 617.642411,248.944791 L618.065592,249.285869 C621.547395,252.167309 622.121286,254.710039 622.121286,265.585623 L622.121286,275.995118 L616.537649,275.995118 L616.537649,265.971692 C616.537649,260.459047 616.18588,255.29179 615.756737,254.489342 C614.817091,252.732889 610.646912,251.146339 608.738106,251.818768 C608.051391,252.060968 606.810268,252.863508 605.848956,253.675038 L605.569791,253.918216 C603.95328,255.373918 603.786437,256.105521 603.775676,264.654362 L603.77505,275.995118 L598.191414,275.995118 Z M705.449088,247.994775 C708.351781,246.740849 714.520902,247.677305 716.6714,249.697784 C719.466409,252.323688 720.224188,255.929123 720.228974,266.622585 L720.23376,275.995118 L714.650124,275.995118 L714.649345,265.866482 C714.622134,255.716969 713.869453,253.303113 710.522221,252.136238 C707.798204,251.186222 705.336617,251.95118 703.084019,254.447863 L702.902933,254.657181 C701.711773,256.098899 701.454393,257.864721 701.239529,265.533922 L700.959844,275.995118 L696.303888,275.995118 L696.295114,265.02726 C696.290328,258.995337 696.063792,252.713745 695.791789,251.068168 L695.631029,250.044008 C695.36293,248.126662 695.678628,248.076934 697.794719,248.076934 C699.656715,248.076934 700.232226,248.38191 700.287648,249.481544 L700.2922,249.672259 C700.2922,251.599411 701.310815,251.727037 702.75937,249.981752 C703.34645,249.275023 704.556504,248.380843 705.449088,247.994775 Z M513.6392,248.076934 L513.6392,275.995118 L508.055563,275.995118 L508.055563,248.076934 L513.6392,248.076934 Z M661.206743,248.076934 L661.206743,275.995118 L656.420769,275.995118 L656.420769,248.076934 L661.206743,248.076934 Z M419.913868,251.991861 C416.615833,253.403649 415.270114,255.79908 414.902776,261.023775 L414.870249,261.538284 C414.595055,266.400834 414.76416,267.140268 416.663394,269.397652 C420.436337,273.880515 426.055071,273.538318 429.130059,268.636682 C431.507891,264.84619 431.024508,256.829683 428.250238,254.057807 C426.069429,251.878593 422.337964,250.953304 419.913868,251.991861 Z M301.742577,252.803881 C298.630098,254.702318 297.153625,258.831018 297.668915,264.1945 C298.177026,269.483002 300.924175,272.369742 305.449314,272.369742 C313.785684,272.369742 317.060088,259.126951 310.158713,253.319969 C307.251234,250.873538 305.12307,250.742722 301.742577,252.803881 Z M761.916407,252.088378 C757.529263,253.85201 755.539893,262.063944 758.161012,267.587756 C760.451898,272.414411 766.01001,273.415478 769.750249,269.675239 L770.318986,269.089589 C771.812689,267.486864 772.052363,266.518746 772.078982,262.596421 L772.078982,260.677968 C772.049292,256.303068 771.754543,255.603445 769.750249,253.599151 C767.37162,251.220521 765.143749,250.790581 761.916407,252.088378 Z M230.538687,233.115948 L230.469049,233.167028 C230.292148,233.33814 227.573269,233.754111 223.996326,234.174802 L218.678283,234.763461 C209.671935,235.809313 206.955623,236.798918 203.315026,239.915252 C200.378033,242.428686 196.967228,247.643006 196.967228,249.618815 C196.967228,250.063113 197.923626,252.445731 199.092201,254.913698 C200.74735,258.409853 202.163201,260.029905 205.502216,262.246609 L209.788056,265.092668 L223.102637,265.872782 C238.956975,266.801261 246.004322,265.994824 253.333244,262.412522 C258.197389,260.035489 263.173207,255.429786 263.173207,253.304813 C263.173207,252.700983 262.397082,250.179572 261.448661,247.700437 C259.165751,241.73472 255.281933,238.469888 247.386671,235.879081 C241.698124,234.012551 231.778282,232.401746 230.538687,233.115948 L230.538687,233.115948 Z M508.587604,237.441701 C509.555966,236.472541 512.630157,236.889719 513.659141,238.130084 C514.432874,239.062551 514.459994,239.813949 513.773207,241.320733 C512.871848,243.299734 511.657806,243.704946 509.317465,242.806778 C508.06354,242.325788 507.541868,238.487437 508.587604,237.441701 Z M658.292085,236.90966 C661.921449,236.90966 663.221638,240.905949 660.209665,242.80279 C657.652359,244.413271 654.732915,241.177952 655.929409,238.05989 C656.171898,237.427343 657.235182,236.90966 658.292085,236.90966 Z M737.345214,143.116527 C742.311183,145.191403 743.022192,150.02582 738.859921,152.709806 L738.57521,152.885499 C735.072846,154.954729 735.339742,157.582095 740.00836,164.76187 L740.60207,165.66405 C743.030154,169.313356 745.288336,172.299006 745.620961,172.299006 C745.952789,172.299006 747.711635,170.773876 749.52871,168.908941 C752.977802,165.370511 756.390201,159.281156 757.272416,155.092631 C757.679536,153.157536 757.533401,152.604915 756.104221,151.884721 L755.24867,151.478512 C753.848982,150.785391 753.634825,150.260703 753.882781,148.132389 L754.02295,147.054564 C754.608409,142.776752 755.001293,142.317794 764.438301,142.498918 L771.190084,142.652683 C775.507152,142.741453 780.11744,142.801656 783.523198,142.815576 L786.183384,142.815364 L788.448678,142.797671 C792.873281,142.792148 793.882378,143.102942 795.50597,144.55232 C798.375162,147.114411 798.957455,150.209341 796.949739,152.217058 C795.854098,153.312699 793.993617,153.896745 790.40146,154.256105 L787.150371,154.561934 C779.614534,155.309558 778.24756,155.915312 775.756679,159.097689 L775.241357,159.769325 C773.751722,161.740549 771.361913,164.159756 769.746612,165.353579 L769.434375,165.57551 C767.935727,166.593221 766.175119,168.438501 765.357519,169.820129 L765.197192,170.108625 C764.472117,171.510916 762.134966,174.411216 760.003612,176.553737 L759.327495,177.242019 C756.681133,179.976752 756.128568,181.120177 756.128568,183.3913 C756.128568,185.679481 756.683223,186.821133 759.040694,189.159703 L759.373459,189.486238 C761.099122,191.162552 765.148106,196.40174 768.520145,201.306481 L769.189598,202.285491 L770.472879,204.134058 C773.422808,208.331566 776.329033,212.1193 777.386271,213.105021 C780.13188,215.665023 784.250918,216.87316 790.562574,216.958461 L791.247251,216.963314 C797.477792,216.968898 800,218.347259 800,221.747694 C800,228.644713 797.094474,230.177982 785.179909,229.336915 L784.596341,229.294377 C779.960239,228.945577 772.727179,228.639467 768.021587,228.5857 L765.227942,228.557948 C757.301826,228.422479 756.04352,227.624767 756.256562,223.5263 L756.288101,223.028739 C756.499756,220.153194 756.654714,219.794468 759.000945,219.38336 L760.405785,219.144123 C764.291461,218.419539 764.488608,217.453072 761.728345,212.660869 L758.648583,207.401935 C758.117639,206.483028 757.684396,205.722394 757.420869,205.244713 L757.21658,204.865967 C756.881408,204.217498 754.966371,201.824997 752.763022,199.283718 L751.328204,197.653993 C746.346673,192.080908 745.643366,192.388008 741.367826,199.425909 C739.870666,201.890899 737.10957,205.716409 735.015857,208.245418 L733.673273,209.838199 C729.623696,214.697002 729.473497,215.901433 732.268537,217.400604 L732.468306,217.505725 C733.855441,218.222026 735.427634,219.381827 735.962067,220.082174 C737.358774,221.912012 737.20323,225.774293 735.664539,227.474112 L735.54668,227.598618 C734.525792,228.625956 732.926249,228.871346 723.705285,228.921499 L718.167815,228.933036 C709.270688,228.933036 701.105018,228.596423 700.021793,228.184031 C695.025236,226.284 693.015126,220.34301 696.349355,217.325453 C697.546179,216.242613 699.570629,215.768037 704.501913,215.441514 L706.659185,215.305759 C712.677814,214.906818 713.552485,214.397685 719.442626,207.079691 L722.372773,203.42812 C725.101931,200.062663 727.702993,197.052192 728.536174,196.304946 L728.624371,196.228878 C729.317395,195.660544 731.059316,193.612567 732.744393,191.408551 L733.533983,190.358083 L734.146463,189.512907 C736.263473,186.529558 736.984671,184.773117 736.984671,182.757956 C736.984671,179.575478 736.076852,177.851734 730.996155,172.402571 L729.386936,170.696502 C726.797952,167.977613 723.798018,164.033833 722.519057,161.691648 L722.340387,161.352685 C721.182979,159.068978 719.446468,156.778091 718.481296,156.261206 C717.554731,155.765762 714.01406,155.320307 710.476094,155.243825 L708.165834,155.20261 C703.820432,155.092955 703.030302,154.765179 701.816533,153.265984 C700.97819,152.230618 700.2922,150.377648 700.2922,149.149248 C700.2922,145.821163 705.266364,143.648368 714.674762,142.857452 L716.81669,142.694767 C728.73775,141.831467 734.571646,141.957939 737.345214,143.116527 Z M528.66057,111.678171 C540.090063,111.726371 547.104735,112.929287 548.50263,115.087469 C548.820169,115.577615 549.234794,121.872284 549.471467,129.530806 L549.611711,134.455513 C549.849624,141.863527 550.24834,147.756071 550.55342,148.060439 C550.879976,148.386232 553.028864,147.732622 555.411956,146.596641 L555.738226,146.438791 C561.35696,143.679677 566.964526,143.098979 576.167157,144.324188 C584.186855,145.390663 592.065367,148.021354 596.548229,151.127451 C600.035899,153.54461 604.423631,159.499762 608.661899,167.5499 L612.150506,174.293162 L612.150506,203.009008 L609.481527,208.122822 C606.006112,214.783303 599.84098,221.235594 594.569229,223.729087 C592.364961,224.772212 587.599466,226.141668 583.736683,226.857173 L581.946488,227.165869 C576.626983,228.047146 574.915466,228.004318 568.492475,227.000169 L567.758998,226.884639 C560.604764,225.750363 557.097442,224.769239 551.005695,222.198373 C549.989473,221.770028 549.561128,222.20954 549.144748,224.104786 C548.005686,229.290389 538.207201,230.783613 534.857817,226.282404 L534.622113,225.95567 L534.494798,225.761719 L534.380692,225.567834 L534.308371,225.430719 C533.475896,223.774405 533.248468,220.407532 533.139127,202.983647 L532.99381,166.275911 C532.823068,135.212345 532.390615,128.941524 530.887054,127.738394 C530.431352,127.373537 527.344814,126.933455 523.827213,126.71639 L521.574261,126.587307 C513.845264,126.067769 512.42304,124.627815 512.662861,118.660198 L512.708464,117.803664 C512.883875,115.237863 513.366551,114.025932 514.519819,113.072573 L514.707589,112.925698 C516.05085,111.934272 518.085554,111.704669 526.180522,111.678171 L528.66057,111.678171 Z M680.897039,146.017626 C686.559029,148.772296 690.893951,153.243197 696.024555,161.664225 L696.479374,162.417564 C702.034199,171.701924 703.017855,176.296373 701.960381,188.986242 L701.720406,191.702179 C700.975983,199.783767 700.486997,201.556243 698.128142,206.403062 C691.439743,220.147583 675.387585,228.89076 656.787693,228.921229 C641.349735,228.946597 628.449141,222.770297 622.408444,212.462903 C620.033803,208.410778 617.546692,197.003408 616.869476,187.055761 C615.964927,173.765907 620.135904,161.558482 628.184317,153.947187 C633.551788,148.870864 643.83924,143.829638 651.75923,142.395441 C663.350062,140.295993 671.121687,141.261962 680.897039,146.017626 Z M343.313362,153.308024 L343.867128,153.81318 C349.770951,159.26531 351.444546,162.033715 352.822334,168.930712 L352.93655,169.515164 C355.019039,180.399696 354.02574,185.889342 349.777657,186.894376 L349.533722,186.946481 C348.433496,187.156839 337.232763,187.31872 323.752856,187.331787 L309.932065,187.335899 C295.372711,187.381784 291.449941,187.639252 290.955788,188.371106 C290.554564,188.963769 290.339195,191.802649 290.477191,194.67902 C290.686976,199.068556 291.130477,200.458882 293.235508,203.320894 C296.99489,208.432315 301.317423,211.208978 308.292981,212.993349 C316.156337,215.004256 318.553312,214.979528 326.022623,212.809089 C330.742391,211.437907 332.865768,210.310012 335.525973,207.761481 L336.158881,207.147221 C338.424501,204.913648 338.884744,203.990964 338.943883,201.561748 L338.951135,200.892012 C338.951135,196.684343 341.00352,194.241901 345.60683,192.970427 C352.450773,191.080765 355.365432,197.887218 351.973771,207.839652 C349.532924,215.004256 337.952462,224.304201 327.530205,227.469326 C316.906139,230.696668 303.081055,228.40977 292.717027,221.711001 C283.283074,215.61367 277.625255,207.729575 275.861623,198.223034 C274.205676,189.298787 276.652904,172.298209 280.7489,164.268939 C282.47584,160.884457 293.779513,148.982537 297.719168,146.401301 C298.876576,145.642724 301.358901,144.543545 303.235003,143.957264 C305.111105,143.371779 310.070172,142.868454 314.255507,142.838941 C326.698158,142.751504 334.830631,145.665374 343.313362,153.308024 L343.313362,153.308024 Z M395.036525,141.609616 L395.585165,141.633673 C421.440195,142.874245 428.291204,153.000521 426.066154,187.839885 L425.738899,192.598565 C424.646386,209.202731 425.732361,212.124927 432.546279,212.602956 L433.068119,212.634401 C435.220212,212.744478 437.358745,213.067531 437.819794,213.353094 C438.28164,213.638658 438.658934,215.772405 438.658934,218.095197 C438.658934,227.166029 430.87698,229.820719 421.866796,223.934497 L421.468512,223.669262 C415.74825,219.787101 410.50659,219.654995 405.438055,223.270732 L405.038262,223.563971 C401.206292,226.451509 395.292423,228.284537 388.406203,228.719263 L387.318225,228.782383 C382.845756,229.013775 381.347347,228.667187 376.064771,226.559193 C362.725463,221.237987 357.528692,214.708323 358.28009,204.211883 C359.060204,193.299064 365.208586,185.300903 375.42026,181.911636 L376.375699,181.606165 C380.037224,180.483791 383.210572,180.109528 390.88818,179.893373 L394.575614,179.797301 C400.602601,179.608631 405.861407,179.157329 406.638373,178.741725 C407.427527,178.318858 408.930294,176.961414 410.093464,175.633756 L410.337133,175.350065 C412.246312,173.080795 412.459025,172.364134 412.219621,167.861707 L412.193294,167.382215 C411.930863,162.739022 411.565533,161.646225 409.587331,159.581875 C406.511856,156.370992 403.111432,155.371736 394.667003,155.276755 L394.02414,155.271307 C387.660389,155.233817 385.85847,155.516189 383.034745,156.992663 C379.406668,158.889298 378.349122,161.026477 379.468832,164.276057 L379.588046,164.604755 C380.989538,168.29155 380.614637,171.852315 378.634839,173.65583 C375.848604,176.193194 373.634294,177.084981 370.1174,177.084981 C367.256983,177.084981 366.610078,176.71327 364.570456,173.898319 C361.083076,169.083629 360.874886,166.307764 363.421822,158.601548 C366.858151,148.203221 371.83397,144.223683 384.228845,141.960715 C386.217175,141.597535 390.978776,141.44746 395.036525,141.609616 L395.036525,141.609616 Z M525.703046,158.859193 C527.940489,163.151414 528.143095,169.921972 526.146546,173.684546 C521.346214,182.730835 513.623246,185.588859 505.428063,181.350879 C499.282536,178.173104 499.661309,166.909632 505.868483,163.560854 L506.206581,163.389117 C509.335013,161.895893 509.680401,158.520186 506.891773,156.692741 C503.748186,154.632379 493.867542,155.43084 488.015093,158.21867 C482.452993,160.866909 476.563852,165.966364 474.584053,169.846194 C471.020098,176.832919 470.384361,201.953701 473.588571,209.198071 C475.37868,213.243763 477.071674,214.497056 480.824063,214.43707 L481.206247,214.426748 C484.754249,214.292741 486.331228,215.55544 486.987704,219.055583 C487.748674,223.113292 486.117454,226.277618 482.647623,227.473314 C481.194998,227.973825 474.649754,228.262151 467.650805,228.310232 L465.66711,228.317421 C459.128745,228.319836 452.575515,228.112961 449.718524,227.674325 C445.196575,226.978764 443.315687,224.732546 443.603644,220.369333 C443.895459,215.943988 446.001092,214.055119 451.572191,213.310432 L452.044507,213.250994 C455.418619,212.851365 456.315192,212.427008 456.654198,211.072578 L456.676836,210.943589 L456.708917,210.616616 L456.742377,210.062743 C456.834749,208.188814 456.889637,203.983431 456.899475,198.53653 L456.900889,196.091189 C456.898809,192.544428 456.879378,188.590303 456.840851,184.480109 L456.606338,159.570707 L454.390432,157.359587 C452.504435,155.47857 451.97567,155.202882 447.363941,155.316358 L444.490191,155.402445 C440.006066,155.515835 438.484884,155.25998 437.5446,154.319696 C435.89663,152.671725 435.164375,149.689266 435.792136,147.186999 L435.887383,146.841768 C436.871489,143.593896 439.781898,142.916995 452.281175,143.030274 L456.507988,143.086026 C464.327859,143.214765 466.318749,143.433956 467.651043,144.359879 L467.829123,144.49058 C467.945769,144.580711 468.058914,144.676915 468.172443,144.779654 C469.603449,146.075057 469.823604,146.901436 469.416796,149.447574 L469.286821,150.276865 C468.952748,152.50688 469.166251,152.482759 471.139747,152.002487 C472.265556,151.728582 474.279686,150.796081 475.798132,149.859973 L476.166616,149.62625 C481.026773,146.449161 485.979458,144.135142 490.108159,143.111741 C504.500382,139.545393 518.976359,145.949824 525.703046,158.859193 Z M655.176415,156.295506 C647.668817,158.092639 638.848266,165.510899 635.437462,172.896455 C633.982756,176.046634 633.701724,177.98306 633.68794,185.625777 L633.688792,187.50385 L633.699912,189.357958 C633.764582,195.478255 634.134757,196.798468 636.00779,200.85532 C638.889744,207.096231 644.400794,212.293799 649.797778,213.861205 C662.201428,217.463449 677.35143,211.690766 682.36075,201.452769 L682.842738,200.451932 C684.422772,197.089629 684.45923,195.831914 684.16586,186.882668 L684.110364,185.408818 C683.606294,173.661045 681.819153,168.877081 676.015345,163.074041 C669.903656,156.961554 662.48061,154.54703 655.176415,156.295506 Z M391.734849,192.291617 C378.744119,193.998614 372.42424,198.221439 372.470003,205.162697 C372.50959,210.881936 377.857916,214.149162 387.20971,214.16531 L388.377142,214.16109 C392.99275,214.114655 394.649596,213.675202 398.968051,211.629346 C405.838317,208.374883 412.336075,202.098876 412.336075,198.717585 C412.336075,193.45062 403.61603,190.730591 391.734849,192.291617 Z M565.822274,158.534544 L564.521523,159.10502 C557.393858,162.294683 554.338949,164.801113 552.166293,169.088415 L551.831749,169.761134 C550.190908,173.133599 549.881643,175.041684 549.656848,181.809535 C549.328211,191.708525 550.448129,198.116147 553.598895,204.357058 L553.978034,205.094503 C556.587725,210.067821 558.366886,211.145382 565.577391,212.674284 C573.56279,214.366923 579.506172,213.758307 585.944105,210.589194 C594.153228,206.547792 596.64079,201.338771 596.884862,187.363056 L596.907769,185.406048 C596.958474,178.85691 596.678636,177.596465 594.697652,173.308847 C589.246428,161.505836 575.391032,154.417011 565.822274,158.534544 Z M211.6841,157.468069 C208.865958,158.695672 205.603519,162.341787 203.137147,167.021672 C200.472157,172.077256 200.74416,179.593629 203.808779,185.585669 C205.825269,189.529312 206.819157,190.537557 210.54424,192.41685 C215.878208,195.107365 222.265091,195.922576 228.261917,194.677425 C234.458956,193.391593 237.595365,191.047263 240.617708,185.44209 L241.305872,184.144065 C243.017132,180.833078 243.104961,179.759998 242.713964,175.489656 C242.453129,172.638013 241.721672,169.176158 241.089126,167.796202 C239.320709,163.939504 234.446991,158.653396 231.54031,157.438556 C228.139875,156.017919 214.968873,156.037063 211.6841,157.468069 Z M313.027107,155.958892 L311.673714,156.208071 C305.779572,157.348955 302.471035,158.779096 299.232334,161.509825 C296.399037,163.898824 293.484378,168.900167 293.484378,171.372123 L293.494781,171.772687 C293.6614,174.729292 295.989238,175.089528 311.75324,175.243178 L314.985783,175.263928 L316.517935,175.26531 C330.308106,175.250281 337.12097,174.471289 338.836271,172.755269 L339.097563,172.482504 C339.923543,171.569558 339.817812,171.026943 338.716622,168.717502 C336.737622,164.567265 331.37414,159.098491 327.547753,157.329276 C322.834366,155.149265 319.455468,154.830997 313.027107,155.958892 Z" id="Shape"></path>
            </g>
        </g>
    </g>
</svg>