<?xml version="1.0" encoding="UTF-8"?>
<svg width="800px" height="400px" viewBox="0 0 800 400" version="1.1" xmlns="http://www.w3.org/2000/svg" xmlns:xlink="http://www.w3.org/1999/xlink">
    <title>gungho</title>
    <g id="Page-1" stroke="none" stroke-width="1" fill="none" fill-rule="evenodd">
        <g id="gungho" fill="#000000">
            <line x1="0" y1="0" x2="800" y2="400" id="Path" fill-rule="nonzero"></line>
            <path d="M456.837122,284.465564 C460.955038,283.620655 470.830539,283.622914 475.296811,284.470082 C483.399809,286.007185 489.593853,289.324923 495.468007,295.274079 C498.793426,298.642421 499.956871,300.213411 501.853173,303.897577 C506.537224,312.998201 507.374904,317.470347 507.730489,335.283025 C508.166047,357.07717 507.221284,367.191685 503.989393,375.330828 C499.032892,387.814252 488.754818,396.444979 475.527693,399.231373 C471.240794,400.134568 461.828413,400.270567 457.96668,399.48575 C446.669292,397.18868 438.954862,392.200552 432.266523,382.867692 C430.66481,380.632974 427.203844,373.352746 427.569369,372.987221 C427.665155,372.891887 433.411895,372.795197 440.341056,372.773057 L452.938791,372.731941 L453.645442,374.579898 C454.769578,377.519912 457.902069,381.150312 460.330619,382.328215 C462.861732,383.555818 467.079502,383.949356 469.815292,383.212433 C472.288572,382.546445 475.24214,380.273323 476.971268,377.705611 C478.254446,375.798917 481.056202,368.390824 480.648205,367.982827 C480.548804,367.882974 478.759584,368.201962 476.672161,368.691286 C471.332062,369.943288 465.890755,370.281252 461.108658,369.65864 C442.430738,367.226475 430.683786,356.506969 426.017808,337.63838 C424.613089,331.956703 424.609927,321.35196 426.011934,315.743027 C428.295901,306.60445 431.809278,300.150607 437.632827,294.395735 C442.710417,289.377786 449.166519,286.039716 456.837122,284.465564 Z M142.522683,242.878399 C149.782127,241.561335 159.150681,242.258498 166.138579,244.63554 C181.271043,249.783614 192.599155,263.35051 198.125404,282.943824 C198.521653,284.348994 198.846062,285.795732 198.846062,286.159449 C198.846062,286.67498 196.225488,287.242921 186.985703,288.731227 C180.462731,289.782168 174.734968,290.673163 174.257843,290.711568 C173.514593,290.771209 173.275127,290.198749 172.585645,286.71474 C170.110557,274.210532 165.155864,265.843218 158.191461,262.405747 C155.503564,261.079194 154.912128,260.962624 150.962289,260.982052 C147.159293,261.001029 146.351433,261.154649 143.996531,262.308605 C135.937812,266.25754 130.963238,275.878212 128.574449,292.136619 C127.502724,299.42769 127.473807,316.52694 128.52023,324.161849 C129.996336,334.930151 133.105784,343.794019 137.116167,348.666029 C140.831057,353.177936 143.687935,354.893509 148.797604,355.68194 C156.919127,356.934394 163.83157,352.520533 168.357483,343.192643 C170.332854,339.121716 172.640316,331.831548 172.640316,329.662345 L172.640316,328.508388 L153.66374,328.508388 L153.66374,310.013908 L177.610371,309.991317 L201.557002,309.969178 L201.557002,367.38371 L192.407581,367.261718 L183.258161,367.139273 L183.03225,364.327126 L182.806338,361.514978 L180.880667,363.297421 C167.517544,375.666533 145.410286,378.065263 128.989222,368.92759 C115.834389,361.607602 106.209651,346.417305 102.359665,326.900349 C97.609196,302.817268 102.39807,276.894362 114.601364,260.635052 C121.965179,250.823259 131.237495,244.926514 142.522683,242.878399 Z M240.077642,286.037005 L239.755492,287.957254 C238.507105,295.405108 238.751541,314.48244 240.203701,322.938763 C243.60096,342.722295 252.661371,352.973712 265.02461,351.021836 C274.640311,349.503709 281.364796,339.662096 284.266857,322.860598 C284.440993,321.851953 284.586556,320.936919 284.708279,320.038724 L284.772337,319.550008 C285.1943,316.215554 285.297005,312.921114 285.325479,305.691315 C285.329997,304.561757 285.329063,303.407375 285.323338,302.260719 L285.318156,301.402684 C285.283816,296.55446 285.165903,291.992775 285.015076,290.21637 L284.659943,286.037005 L311.240251,286.037005 L311.777017,289.538635 C312.603854,294.928886 312.896635,308.193512 312.307006,313.554847 C309.110357,342.64187 294.694033,363.216544 273.848717,368.44188 C254.386432,373.320215 235.396754,366.025077 224.352387,349.427351 C216.114294,337.046491 211.847727,321.616277 211.8214,304.109934 C211.811582,297.24448 212.411603,289.370105 213.139038,286.827696 L213.155083,286.777834 C213.38759,286.135425 214.527639,286.046097 224.682723,286.037739 L240.077642,286.037005 Z M650.06384,284.2514 C654.007805,283.589027 664.01343,283.726833 667.744587,284.494029 C675.592756,286.108393 682.461824,289.826898 687.613061,295.249681 C692.870928,300.784967 695.659129,305.769481 697.877129,313.598222 C699.516795,319.38427 699.947383,329.421071 698.817373,335.511648 C696.641392,347.24369 691.102492,356.439196 682.464083,362.661254 C673.074745,369.424143 659.030272,371.687326 646.454676,368.464019 C639.867094,366.775556 631.951151,361.996622 627.996342,357.320251 C619.738821,347.556803 615.921819,335.11314 617.215388,322.174278 C619.27525,301.568428 631.589241,287.351811 650.06384,284.2514 Z M544.039003,243.113799 L544.03915,266.364264 C544.039199,266.511114 544.03926,266.657612 544.039333,266.803745 L544.039913,267.67604 C544.049304,278.955986 544.130179,287.844298 544.227413,287.844298 C544.330881,287.844298 545.364201,287.437657 546.523579,286.940652 C550.946025,285.045253 555.803124,284.10772 562.337844,283.888134 C570.568255,283.611618 575.213902,284.450202 583.008756,287.61929 L583.052729,287.635522 L583.095047,287.647195 C583.703722,287.780637 583.788384,286.157747 583.798268,270.234174 L583.799036,268.555269 C583.799096,268.363074 583.799148,268.168976 583.799194,267.972959 L583.799447,243.113799 L609.101547,243.113799 L609.101547,367.365185 L583.854117,367.365185 L583.692816,345.338803 C583.570743,328.686822 583.513807,324.501868 583.023904,321.785514 L582.985855,321.581854 C582.946958,321.380661 582.905491,321.186333 582.861235,320.994052 L582.792733,320.706563 L582.74466,320.514825 C582.679254,320.258537 582.608567,319.99875 582.532083,319.724041 C580.985492,314.169778 578.708754,309.985443 575.641778,307.059888 C571.698717,303.298911 569.706177,302.528553 563.919225,302.528553 C559.660339,302.528553 558.916638,302.655515 556.649841,303.768808 C552.195768,305.956084 548.284786,310.863336 546.300378,316.754659 C546.260211,316.873895 546.220746,316.992114 546.181972,317.109477 L546.067705,317.459165 C546.049002,317.517073 546.030468,317.574808 546.012103,317.63239 L545.903912,317.976211 C545.673816,318.717887 545.471608,319.440599 545.293987,320.188967 L545.213742,320.536352 C544.192941,325.080264 544.039003,330.79493 544.039003,347.318241 L544.039003,367.365185 L518.736903,367.365185 L518.736903,243.113799 L544.039003,243.113799 Z M359.469217,284.048983 C359.966223,283.930154 363.829312,283.901237 368.053859,283.984372 C376.118903,284.143414 379.855481,284.812564 384.740142,286.973635 C392.848562,290.560208 400.163579,296.899287 405.249753,304.746101 C410.907484,313.474874 414.564541,323.611528 416.498344,335.925066 C417.457565,342.031909 417.489645,357.397061 416.555274,363.298776 L415.94712,367.139273 L402.454323,367.259007 C399.75309,367.282943 397.586716,367.298481 395.853772,367.301109 L394.815964,367.30101 C389.741936,367.291198 389.055766,367.133809 389.233072,366.672088 C389.602581,365.708534 389.970513,360.35991 390.152189,354.844255 L390.178645,353.994944 C390.232674,352.15438 390.264956,350.319291 390.26865,348.645902 L390.2683,347.885619 C390.264251,346.639512 390.242664,345.503308 390.200426,344.548112 C389.38624,326.138575 385.852531,314.331983 379.172776,307.702832 C374.81946,303.382951 372.81472,302.536686 366.924301,302.532167 C362.636498,302.529005 361.931654,302.650545 359.597083,303.796821 C350.732764,308.149234 345.193411,320.793507 343.822579,339.803969 C343.345454,346.416853 343.500881,357.524023 344.165513,364.315378 L344.463716,367.365185 L317.796206,367.365185 L317.171335,362.282174 C315.77746,350.950447 316.530649,337.048751 319.087065,326.927007 C324.744796,304.521093 338.219971,288.962109 355.402808,284.994649 C357.142328,284.592978 358.972212,284.167361 359.469217,284.048983 Z M465.906117,300.079219 C464.521279,300.098648 462.778597,300.331337 462.033089,300.595653 C458.989156,301.674607 456.060437,304.39639 454.362938,307.72452 C451.386778,313.558009 450.040345,323.002018 450.900616,332.010018 C452.268285,346.32694 457.273131,353.366346 466.075099,353.354163 C476.667643,353.339689 482.39902,342.392464 481.545074,323.806264 C480.827127,308.186283 475.394857,299.944576 465.906117,300.079219 Z M658.350278,300.05794 C656.194178,300.053917 654.812954,300.335855 653.154311,301.119316 C649.372551,302.905373 647.383173,305.196117 645.421808,310.023848 C641.50676,319.658075 642.038556,337.627084 646.48043,345.787463 C648.073107,348.713922 650.25451,350.874089 653.044518,352.287844 C655.111157,353.33529 655.758168,353.441801 659.002711,353.267397 C661.911097,353.111518 663.005865,352.841328 664.449892,351.923675 C668.466148,349.370873 670.657943,345.943794 672.489182,339.353501 C672.639874,338.811146 672.76706,338.310192 672.874278,337.803086 L672.936242,337.497704 C673.353609,335.349533 673.431234,332.92506 673.431234,326.701095 C673.431234,320.14099 673.34784,317.822245 672.866479,315.564216 L672.798342,315.256287 C672.704126,314.84517 672.596281,314.429777 672.472917,313.984982 C669.881259,304.644893 665.243293,300.070635 658.350278,300.05794 Z M421.07925,0.331981202 C425.406712,-0.214907669 437.045085,-0.0612008471 442.192112,0.610190549 C446.105795,1.12111202 452.30141,2.20259322 454.126217,2.69384022 C460.900384,4.51741795 469.079739,7.31180796 474.261811,9.57314272 C480.822018,12.436086 490.138188,17.5323893 496.395593,21.6812439 C497.569884,22.4598726 498.854067,23.3384086 500.126326,24.2285583 L500.760898,24.6741923 C503.817744,26.828816 506.686386,28.9653243 507.647547,29.8375426 C507.809001,29.9840765 508.452346,30.5231434 509.158343,31.1045423 L509.48711,31.3746109 C515.829668,36.5717459 524.325659,45.1030893 529.385995,51.3564976 C541.815959,66.7173425 550.007302,83.5082757 553.53057,100.850094 C555.061183,108.383573 555.252394,110.561906 555.257059,120.524567 L555.256961,121.111238 C555.249865,129.615934 554.991912,133.766581 554.189358,138.508265 C554.031962,139.438192 553.681203,141.513234 553.409449,143.11947 C551.227735,156.022543 545.901486,170.696318 539.279489,182.047874 C526.271895,204.345816 506.310605,221.611703 481.178617,232.303549 C479.149687,233.166767 477.233685,233.983007 476.514713,234.290556 L476.360536,234.356579 C476.317875,234.374876 476.284153,234.389373 476.259999,234.399803 C473.636518,235.531412 468.510837,237.239787 463.244863,238.79031 L462.190498,239.098093 L461.13659,239.400359 C458.856652,240.048353 456.609504,240.648312 454.587337,241.140462 C428.897701,247.392333 398.037368,248.368372 362.209538,244.062121 C360.42278,243.847323 358.892471,243.65375 357.364411,243.44301 L356.708925,243.351531 C353.643716,242.918675 350.442246,242.395213 345.07092,241.474006 C333.339093,239.462291 314.57979,233.987869 304.876893,229.744638 C288.76104,222.696873 278.385523,215.941458 268.413331,206.00339 C255.925574,193.558363 248.632493,179.618384 245.566042,162.332823 C243.857745,152.702168 243.893712,139.407758 245.658266,128.209908 C246.164576,124.996821 247.302314,119.401585 247.721012,118.065258 C247.86723,117.598604 248.397236,115.720133 248.939991,113.747627 L249.081625,113.231793 C251.601494,104.035822 256.482915,92.7964715 261.935511,83.6349301 C268.17816,73.1465915 275.184117,64.21684 283.384991,56.2963275 C300.11936,40.1337478 319.893128,31.2750088 337.770153,31.9319518 C341.377345,32.0644471 342.784684,32.2562732 345.148081,32.9384241 C352.895519,35.1745509 358.39146,39.9219398 362.352485,47.8000292 C366.459531,55.9683171 368.28895,65.8999297 368.274194,79.9459664 C368.272008,82.0516816 368.246959,83.9908772 368.188226,85.9033358 L368.160961,86.7217315 C367.930733,93.1260597 367.30344,99.4541093 365.869605,110.994744 C364.866206,119.072623 364.577538,121.696516 364.566948,124.497819 L364.567042,124.849313 C364.569998,125.555779 364.589197,126.287998 364.617816,127.133961 C364.794579,132.355996 365.285826,135.101815 366.71161,138.835354 C369.317249,145.659322 374.894039,150.867216 381.510196,152.655441 C386.284637,153.945656 393.424319,153.489147 398.532304,151.566275 C402.131196,150.21181 407.117752,147.517022 409.425507,145.679611 C418.45486,138.490435 422.480134,128.832421 421.895126,115.759656 C421.28614,102.143383 417.1213,90.5166919 408.94963,79.6210302 C405.846448,75.4830942 404.364062,73.7636349 398.846887,68.2337767 L397.830233,67.2170972 C397.358749,66.746533 396.860398,66.2502752 396.332452,65.7253187 C395.315384,64.714029 394.403276,63.8062593 393.58314,62.988089 L392.79318,62.1992696 C387.133433,56.54161 386.330811,55.5923658 385.026701,53.6083026 C381.917212,48.8778214 381.27318,46.6127977 381.283325,40.4433133 C381.295006,33.3727995 382.214173,29.0763865 384.868382,23.6892698 C385.956319,21.4808102 387.745774,18.4045219 388.176768,18.0021174 C388.267148,17.9175786 388.947454,17.0506722 389.688628,16.0752487 C392.639799,12.1916921 398.059809,7.95614696 403.478897,5.29886343 C404.974772,4.56537448 406.468495,3.88045688 406.798964,3.77624366 C407.090284,3.68429081 408.103201,3.34390732 409.165957,2.98105442 L409.592125,2.8352505 C412.644742,1.78850704 416.91441,0.858273359 421.07925,0.331981202 Z" id="Combined-Shape"></path>
        </g>
    </g>
</svg>