<?xml version="1.0" encoding="UTF-8"?>
<svg width="800px" height="400px" viewBox="0 0 800 400" version="1.1" xmlns="http://www.w3.org/2000/svg" xmlns:xlink="http://www.w3.org/1999/xlink">
    <title>inin</title>
    <g id="Page-1" stroke="none" stroke-width="1" fill="none" fill-rule="evenodd">
        <g id="inin" fill="#000000">
            <line x1="0" y1="0" x2="800" y2="400" id="Path" fill-rule="nonzero"></line>
            <path d="M0,128.254298 L0,161.508595 L33.2542977,161.508595 L66.5085954,161.508595 L66.5085954,128.254298 L66.5085954,95 L33.2542977,95 L0,95 L0,128.254298 M71.8292831,161.508595 L105.416124,161.508595 L139.002964,161.508595 L139.002964,144.881447 L139.002964,128.254298 L130.68939,128.254298 L122.375816,128.254298 L122.375816,119.940723 L122.375816,111.627149 L114.062241,111.627149 L105.748667,111.627149 L105.748667,103.313574 L105.748667,95 L88.7889749,95 L71.8292831,95 L71.8292831,128.254298 L71.8292831,161.508595 Z M144.323652,128.254298 L144.323652,161.508595 L177.57795,161.508595 L210.832247,161.508595 L210.832247,136.567872 L210.832247,111.627149 L202.518673,111.627149 L194.205099,111.627149 L194.205099,103.313574 L194.205099,95 L169.264375,95 L144.323652,95 L144.323652,128.254298 M268.694726,200.416124 L268.694726,305.832247 L287.982218,305.832247 L307.269711,305.832247 L307.269711,200.416124 L307.269711,95 L287.982218,95 L268.694726,95 L268.694726,200.416124 M415.678721,95.982332 C382.149743,101.523828 361.387755,122.096932 353.646154,157.450241 C352.282063,163.677441 352.241493,165.60486 352.013368,234.834322 L351.779258,305.832247 L371.055444,305.832247 L390.330966,305.832247 L390.601655,237.827209 C390.797856,188.409327 391.089163,168.822546 391.667788,166.164197 C394.026848,155.325956 398.192947,146.841455 403.391923,142.289607 C406.789183,139.314677 413.031014,136.444166 418.730136,135.237035 C424.928737,133.92349 440.590181,133.939452 446.210822,135.264304 C461.199199,138.79724 469.10042,150.188167 471.502046,171.726311 C471.954969,175.785996 472.211027,201.170331 472.211027,241.968034 L472.211027,305.8522 L491.664792,305.675952 L511.118556,305.499705 L511.118556,238.326023 C511.11523,164.95108 511.100598,164.627183 507.120059,149.869591 C499.260073,120.72752 481.177716,103.064832 452.590992,96.6041873 C446.00265,95.115725 423.242744,94.7319704 415.678721,95.982332 M556.676944,200.416124 L556.676944,305.832247 L576.296979,305.832247 L595.917015,305.832247 L595.917015,200.416124 L595.917015,95 L576.296979,95 L556.676944,95 L556.676944,200.416124 M703.993483,96.0069401 C674.427086,100.745012 653.806096,118.496822 644.818125,146.947869 C643.85109,150.009259 642.429801,155.809474 641.659632,159.8379 C640.303521,166.931041 640.25098,169.343973 639.999577,236.497037 L639.739529,305.832247 L659.396144,305.832247 L679.052759,305.832247 L679.05675,240.15501 C679.06074,169.953192 679.177795,167.069379 682.404792,157.401025 C686.444525,145.297125 694.436862,138.053674 706.784848,135.305539 C713.190956,133.879595 729.140382,133.852326 734.61404,135.257653 C747.273286,138.508593 754.251368,146.241547 758.315043,161.524557 C759.812817,167.156505 759.814812,167.229 760.169968,236.330765 L760.525789,305.499705 L779.877795,305.675952 L799.229801,305.8522 L799.662107,291.709147 C800.206812,273.903466 800.052512,164.897873 799.487854,168.491998 C799.10809,170.908255 799.025619,170.695428 798.587328,166.164197 C796.376582,143.291226 786.199437,122.550521 771.362699,110.679401 C762.910787,103.917472 753.736591,99.5711358 742.235925,96.880198 C734.621356,95.0990978 712.773282,94.6002833 703.993483,96.0069401 M0.665085954,200.416124 L0.665085954,234.002964 L33.5868407,234.002964 L66.5085954,234.002964 L66.5085954,200.416124 L66.5085954,166.829283 L33.5868407,166.829283 L0.665085954,166.829283 L0.665085954,200.416124 M72.2788812,167.266245 C72.0314692,167.513657 71.8292831,182.633056 71.8292831,200.865722 L71.8292831,234.014936 L105.249852,233.842679 L138.670421,233.670421 L138.670421,200.416124 L138.670421,167.161826 L105.69945,166.989569 C87.5652167,166.894461 72.5262931,167.019498 72.2788812,167.266245 M144.323652,200.416124 L144.323652,234.002964 L177.57795,234.002964 L210.832247,234.002964 L210.832247,200.416124 L210.832247,166.829283 L177.57795,166.829283 L144.323652,166.829283 L144.323652,200.416124 M0.665085954,264.264375 L0.665085954,289.205099 L8.6461174,289.205099 L16.6271489,289.205099 L16.6271489,297.518673 L16.6271489,305.832247 L41.5678721,305.832247 L66.5085954,305.832247 L66.5085954,272.57795 L66.5085954,239.323652 L33.5868407,239.323652 L0.665085954,239.323652 L0.665085954,264.264375 M71.8292831,255.950801 L71.8292831,272.57795 L80.1428575,272.57795 L88.4564319,272.57795 L88.4564319,280.891524 L88.4564319,289.205099 L96.7700063,289.205099 L105.083581,289.205099 L105.083581,297.518673 L105.083581,305.832247 L122.043273,305.832247 L139.002964,305.832247 L139.002964,272.57795 L139.002964,239.323652 L105.416124,239.323652 L71.8292831,239.323652 L71.8292831,255.950801 M144.323652,272.57795 L144.323652,305.832247 L177.57795,305.832247 L210.832247,305.832247 L210.832247,272.57795 L210.832247,239.323652 L177.57795,239.323652 L144.323652,239.323652 L144.323652,272.57795" id="Shape"></path>
        </g>
    </g>
</svg>