<?xml version="1.0" encoding="UTF-8"?>
<svg width="800px" height="400px" viewBox="0 0 800 400" version="1.1" xmlns="http://www.w3.org/2000/svg" xmlns:xlink="http://www.w3.org/1999/xlink">
    <title>limitedrun</title>
    <g id="Page-1" stroke="none" stroke-width="1" fill="none" fill-rule="evenodd">
        <g id="limitedrun" fill="#000000">
            <line x1="0" y1="0" x2="800" y2="400" id="Path" fill-rule="nonzero"></line>
            <path d="M596.720823,0.818674854 C594.980331,2.00152364 594.115853,3.5413034 592.358882,8.58810292 C589.928918,15.5695144 590.60356,14.8243428 580.756813,21.4013643 C576.007951,24.5735347 571.671388,27.6046465 571.120666,28.136912 C569.764131,29.4482955 569.800714,30.4874491 571.224483,31.082334 C572.150592,31.4692564 572.394807,31.8034466 572.732293,33.146799 C573.309052,35.4422969 574.028516,36.8149815 575.0212,37.513683 C576.659193,38.6668699 577.125543,38.6329235 579.015003,37.2233264 C579.988242,36.4969405 580.982903,35.9027148 581.224482,35.9027148 C581.927797,35.9027148 583.011444,37.933563 582.807766,38.8689001 C582.708893,39.3220673 581.852984,40.4024179 580.905452,41.2698623 L579.182758,42.8465546 L580.170827,43.6543457 L581.159226,44.4621368 L580.085137,48.6691763 C579.494537,50.9828009 577.751079,56.8060818 576.21097,61.6096541 C572.939926,71.8116837 571.651284,76.809706 570.796034,82.6135419 C570.454922,84.9284848 569.647461,88.8619761 569.001491,91.3548901 C568.355522,93.847804 567.52532,97.9526749 567.156524,100.476899 C566.417614,105.533585 566.244917,105.967637 559.113548,120.687497 C555.601914,127.935865 553.643902,132.499506 551.999976,137.266825 C550.485574,141.658756 548.91811,147.859402 549.161667,148.494495 C549.46257,149.278557 550.233778,148.990507 551.189878,147.7368 C552.085007,146.563509 552.123238,146.548019 552.433039,147.242435 C552.920153,148.333992 553.388151,148.113835 554.396654,146.318634 C555.448991,144.444664 558.875594,140.707929 559.541338,140.707929 C559.877835,140.707929 559.947046,141.116604 559.825432,142.383824 C559.643177,144.281194 560.14611,144.811482 561.212289,143.846483 C562.223758,142.93125 562.647263,143.526135 562.411616,145.530947 C562.055015,148.565684 563.076371,147.753938 565.670136,142.941467 C566.935379,140.593896 567.575086,139.755784 568.424404,139.331619 C569.032801,139.02775 569.85806,138.471755 570.258165,138.095709 C571.201412,137.209808 571.661171,137.229253 571.628543,138.153714 C571.609757,138.691253 571.816072,138.925581 572.378329,139.005009 C573.429017,139.153648 575.760109,136.708852 577.834132,133.282249 C580.748244,128.46846 589.826419,118.381452 593.13042,116.286007 C593.958975,115.760663 594.987911,115.330566 595.41636,115.330566 C596.183284,115.330566 596.192183,115.367478 595.9684,117.637599 C595.773621,119.615385 595.815477,119.944632 596.261394,119.944632 C596.547466,119.944632 597.146965,119.462792 597.59387,118.87351 C598.582269,117.570036 600.535337,113.672139 601.103197,111.870016 C601.853642,109.487181 602.743827,108.085823 605.045916,105.66245 C606.872098,103.739702 607.574754,102.677479 608.630057,100.244218 C609.352158,98.5791992 610.489855,96.5499988 611.157906,95.7346275 C611.826286,94.9189265 612.720097,93.3959551 613.144261,92.3495509 C614.108272,89.971659 615.714296,87.7938198 621.081444,81.5862531 C629.191324,72.2061864 630.940055,69.8889365 634.524525,63.7736511 C636.571193,60.282451 639.4039,56.3486301 639.876182,56.341709 C640.159618,56.3377541 640.166539,56.6323952 639.903537,57.4896227 C639.088496,60.1450178 640.584442,59.0696108 643.111961,55.1829193 C644.054878,53.7327843 646.258425,50.7273794 648.008474,48.5040587 C650.964442,44.7495272 652.746461,41.8518938 653.326185,39.8576285 C653.458015,39.4044613 654.152432,37.877535 654.86959,36.4646421 C657.183215,31.9052857 657.964969,27.1646624 657.092911,22.9830003 C656.607445,20.6561927 654.516944,16.2154837 652.726356,13.7077388 C647.817649,6.83343952 640.112818,3.14844863 629.731829,2.71044193 C624.507717,2.48995549 619.307335,2.97739861 614.522219,4.13618834 L611.246232,4.92947812 L610.115786,3.9364652 C608.516023,2.53214124 606.05376,1.35720228 603.157445,0.616644677 C599.735456,-0.258709567 598.237203,-0.211580178 596.720823,0.818674854 M527.439303,11.6834821 C521.331268,13.0479273 519.364687,13.3392726 519.364687,12.8798435 C519.364687,12.6903372 519.623075,12.3910821 519.938809,12.2144293 C520.254543,12.0377764 520.403182,11.7836732 520.269374,11.6498653 C520.135566,11.5160574 518.357173,11.8713405 516.317097,12.4398593 C514.27735,13.0083782 503.783975,15.710573 492.998596,18.4450663 C463.940526,25.812741 451.593285,29.2914173 439.360078,33.5564622 C434.577269,35.2241175 433.675548,35.4502067 433.679833,34.9792424 C433.682799,34.6714183 433.820562,34.205068 433.986668,33.943055 C434.175845,33.6434703 434.149808,33.2146917 433.915809,32.7895385 C433.711143,32.4171174 433.584915,31.7708186 433.63534,31.3529161 C433.827483,29.7574379 432.652544,28.8072699 429.487624,27.9994788 C428.473189,27.7407615 427.778442,27.2510113 426.89386,26.1716495 C425.667507,24.6750442 424.671528,24.2947133 424.327451,25.19149 C424.214076,25.4871198 423.717735,25.6858542 423.092529,25.6858542 C422.517418,25.6858542 421.391257,26.0134529 420.589728,26.4135584 C419.361727,27.0268996 419.08686,27.0674374 418.841656,26.6706278 C418.610952,26.2975476 418.282365,26.4817806 417.258042,27.5585059 C416.547147,28.3059846 415.862946,29.325034 415.738037,29.8230236 C415.613128,30.3213427 415.148425,31.0137822 414.705475,31.3621442 C414.101032,31.8377226 413.90032,32.3116531 413.90032,33.2631394 C413.90032,35.6024709 413.655445,35.7352901 412.057001,34.2617551 C410.495469,32.8224961 409.826759,32.6606742 408.700598,33.4496795 C408.030569,33.9189959 407.969927,34.2212173 407.99135,36.9926231 C408.004203,38.6589601 408.121203,41.1927415 408.251056,42.6234315 C408.469235,45.0224163 408.570085,45.2933279 409.5542,46.1146316 C410.86822,47.2117906 412.18257,49.2531853 413.727623,52.5973944 C414.376888,54.0023775 415.163256,55.441307 415.475365,55.7952718 C416.245255,56.668319 420.764073,58.7644233 423.787605,59.6513127 C425.784177,60.2366399 427.384929,60.4067012 432.112039,60.5352359 C437.859188,60.6917846 438.031556,60.6762945 441.669747,59.682952 C446.229104,58.4384725 450.737705,57.5865181 451.494083,57.8264496 C452.330217,58.0920879 452.956412,59.8780611 452.944547,61.9642781 C452.936967,63.26907 452.539828,64.8928917 451.57417,67.5670726 C450.478329,70.6014801 450.147764,72.0674348 449.870591,75.1222761 C449.670538,77.3251631 448.980405,81.120562 448.222051,84.1856202 C447.504563,87.0858902 446.749834,90.6453126 446.544508,92.0954477 C446.339182,93.5455827 445.8903,95.9926856 445.546881,97.5334541 C444.72327,101.228332 444.3347,104.902118 443.716415,114.836202 C443.15317,123.889988 442.51544,128.78716 440.799007,137.24738 C439.116521,145.539845 438.834404,147.685715 438.807708,152.407882 C438.772114,158.674773 439.890695,162.229581 442.639031,164.581766 C443.320924,165.165775 444.189357,166.344669 444.568699,167.202226 C444.947712,168.059454 445.432848,168.704105 445.646084,168.634564 C445.859319,168.565353 446.330613,167.625402 446.693147,166.546369 C447.598493,163.851425 447.671659,163.778259 449.469496,163.778259 C451.518142,163.778259 452.46831,163.029792 453.485711,160.614988 C455.546221,155.723418 456.174723,154.754135 457.845674,153.890975 C458.723006,153.437808 459.736453,152.659349 460.097998,152.1607 C460.477669,151.636674 461.066951,151.254366 461.494082,151.254366 C462.384597,151.254366 463.458356,150.176322 464.125089,148.613143 C464.394352,147.981345 465.214667,146.674246 465.947315,145.708588 C467.435681,143.74794 467.770201,142.748335 468.255666,138.814514 C468.440229,137.319886 468.811661,135.243557 469.081255,134.200448 C469.863668,131.173621 470.585111,126.223387 470.582144,123.899546 C470.580826,122.721311 470.286515,120.570827 469.928265,119.120692 C469.570016,117.670557 469.275045,116.113309 469.273068,115.660142 C469.27109,115.206975 469.77666,112.834027 470.396923,110.386924 C472.42843,102.371632 472.981459,98.9493132 474.713052,83.6866419 C476.104522,71.4171811 477.096546,65.3599011 478.698946,59.3467843 C479.357439,56.8752928 480.022524,53.7044407 480.176765,52.3001167 C480.330677,50.8954632 480.682665,49.310202 480.95852,48.7766182 C481.412346,47.8989569 484.311298,45.2122522 488.082638,42.1738897 C489.772704,40.8124106 495.936767,36.9171501 498.171952,35.7982391 C500.355065,34.7053646 503.895372,33.6012845 511.619648,31.6040531 C518.577659,29.8052265 519.991211,29.2419808 519.383803,28.5099922 C519.10564,28.1751429 519.63461,27.8541357 521.833542,27.024263 C524.599345,25.9804953 525.345835,25.371109 523.896359,25.340788 C523.397711,25.3305711 523.658405,25.128541 524.691956,24.724151 C526.415969,24.0501678 528.263243,22.832384 528.263243,22.3699886 C528.263243,22.2025639 527.558609,22.1013841 526.697756,22.1455473 C525.065036,22.2286005 524.8986,22.0288773 525.460528,20.659818 C525.649375,20.1994001 525.527761,20.0830597 524.857403,20.0830597 C523.518006,20.0830597 523.531848,19.512893 524.882121,19.0762046 C528.990947,17.7473536 532.494012,14.4660935 532.925427,11.5427531 C532.989695,11.107383 532.893788,10.7125508 532.712521,10.6654214 C532.531254,10.6179624 530.158306,11.0760732 527.439303,11.6834821 M623.840326,20.5527058 C619.330076,21.5532989 609.339305,25.8120819 609.338646,26.7342359 C609.338646,26.9735082 608.886467,28.1243881 608.334097,29.2917468 C607.684173,30.6654202 606.983824,33.1665736 606.349719,36.377634 C605.162257,42.3904212 604.634276,44.0916933 603.22336,46.4491514 C602.561242,47.5558681 601.945593,49.2245122 601.642713,50.7336413 C601.370153,52.0931429 600.671782,54.3912774 600.091068,55.8407533 C599.510355,57.2898996 598.894377,59.440384 598.722339,60.6196074 C598.54997,61.7985013 597.592552,65.4070305 596.593936,68.6388542 C595.59565,71.8703483 594.881788,74.6140697 595.007686,74.7360129 C595.133254,74.8576265 595.628607,74.4407127 596.108141,73.8095743 C596.587674,73.1781064 598.314653,71.1910919 599.946055,69.3942427 C609.694588,58.6566519 623.592484,38.8102355 631.035632,24.9970401 C632.81798,21.6894139 633.086914,20.6166435 632.217492,20.2831125 C631.340819,19.9466152 625.762743,20.1262342 623.840326,20.5527058 M553.475818,29.1332207 C549.797749,29.8055561 543.788257,31.4962817 536.845406,33.8115541 C522.980467,38.4355074 522.489069,38.5551436 516.203722,38.8385791 C510.861623,39.0794992 510.461847,39.1447553 508.458683,40.1005261 C507.296927,40.6548732 505.753192,41.2942509 505.028125,41.5216585 C503.144268,42.1122589 502.275505,42.759876 501.600203,44.075544 C501.274912,44.7096485 500.430208,45.6212561 499.722608,46.101119 C498.490323,46.9375833 498.426056,47.0713912 498.180192,49.314816 C497.887528,51.9840532 497.078419,54.8072025 494.661307,61.5925162 C493.418476,65.0820684 492.837762,67.3198905 492.488741,69.9667165 C492.123241,72.7377927 491.443326,75.2738812 489.567708,80.8595377 C488.223367,84.8642174 487.025028,88.8586803 486.905062,89.7363416 C486.656232,91.5582385 485.717929,93.9173446 484.756226,95.1400721 C484.220335,95.8216356 484.10004,96.4774921 484.10004,98.7225648 C484.10004,101.318966 483.237539,107.012394 481.309518,117.143235 C480.860965,119.499704 480.487555,122.243426 480.479316,123.240393 C480.471077,124.237361 480.324415,125.274867 480.153036,125.545779 C479.88542,125.968954 479.775012,125.947532 479.369963,125.393514 C478.968539,124.84477 478.818911,124.81412 478.368051,125.188188 C477.570147,125.850307 477.704614,128.388373 478.705208,131.545053 C479.498827,134.050161 479.555185,134.587041 479.370292,137.906532 C479.162989,141.622833 480.098326,153.598971 480.794061,156.140332 C481.365876,158.228856 482.302861,159.421263 483.670931,159.801264 C486.404436,160.560278 487.793599,160.130181 488.383541,158.34289 C488.699275,157.38646 488.925034,157.186737 489.689981,157.186737 C490.719906,157.186737 491.008944,156.593829 491.016525,154.465097 C491.020809,153.338605 491.076837,153.261155 491.636787,153.610506 C492.566521,154.191219 493.247426,153.742995 493.692683,152.256607 C494.187706,150.604442 494.786217,150.027354 495.440755,150.570825 C496.169118,151.174938 497.97948,149.3537 499.426649,146.561202 C500.108212,145.245204 501.054425,143.746621 501.529015,143.231164 C502.934657,141.703249 505.821085,140.471953 511.211303,139.100916 C517.283084,137.556193 518.875267,136.797838 521.927142,133.9971 C523.898337,132.188056 524.613847,131.755652 526.668095,131.132753 C527.998594,130.729023 530.051194,130.10151 531.229428,129.737987 C532.407663,129.374794 535.151385,128.307297 537.326587,127.366028 C539.50179,126.425088 542.346032,125.251138 543.647199,124.757432 C545.394941,124.094655 546.363236,123.479666 547.35493,122.404259 C548.093181,121.603389 548.696964,120.727046 548.696964,120.457123 C548.696964,120.18687 549.514643,119.348429 550.514247,118.594029 C551.640738,117.743393 552.404037,116.893746 552.522355,116.358844 C552.890162,114.694154 553.029243,114.49575 554.808295,113.092744 C556.462437,111.787952 556.597234,111.57933 556.550764,110.392197 C556.481223,108.624351 557.668027,107.161362 560.283873,105.790325 C562.563551,104.595282 564.187043,103.260169 564.187043,102.580254 C564.187043,101.848265 561.675343,102.095777 557.265944,103.262476 C552.039855,104.645048 541.662821,107.759213 537.161799,109.295697 C531.973941,111.066839 518.616879,116.187794 515.258168,117.693956 C513.617538,118.42957 511.546152,119.096303 510.597303,119.194187 C509.086855,119.350077 508.86505,119.29306 508.676862,118.700152 C508.241822,117.329775 509.054557,114.169799 510.35803,112.163998 C511.479578,110.437678 511.622284,109.984511 511.643707,108.079891 C511.676335,105.199395 511.652276,105.287062 512.757015,104.02907 C513.839673,102.795796 514.337003,102.563116 520.682992,100.321009 C523.130095,99.4565309 527.282754,97.8452331 529.911124,96.7404939 C534.073011,94.9914333 534.91409,94.5059676 536.426844,92.9803596 C537.675279,91.7210492 538.824511,90.9561029 540.515896,90.2587198 C541.809812,89.725136 543.065826,89.1246483 543.307076,88.924266 C543.839671,88.4826339 543.579965,87.9365263 542.952122,88.1774464 C541.945267,88.5637097 542.167731,87.6277134 543.258628,86.8861671 C544.729197,85.8868922 546.656888,83.2071086 546.922197,81.7928973 C547.209258,80.261357 546.63942,79.7363422 544.689977,79.7363422 C543.169972,79.7363422 543.092522,79.6958043 543.425723,79.073235 C543.620832,78.7087238 544.330739,78.1514105 545.002745,77.8350174 C547.488409,76.6646925 545.800649,75.5039253 541.564607,75.4703085 C538.735196,75.4482269 534.493551,76.4969382 529.581548,78.4338572 C524.190341,80.559953 519.275372,82.0858905 518.930635,81.7411539 C518.364753,81.1752716 519.291192,77.5641058 520.893261,74.0890549 C522.520708,70.5589648 522.699339,69.5204704 522.173006,66.6524988 C521.957792,65.4801964 522.050403,65.0444967 522.777778,63.803313 C524.404895,61.0269635 525.164568,60.658827 535.456572,57.6639685 C537.481158,57.075016 537.960362,56.795865 538.422757,55.9379782 C539.282292,54.344148 540.04592,53.6998266 541.076505,53.6998266 C541.830245,53.6998266 542.391184,53.2766509 543.807043,51.6399757 C544.787202,50.5072225 545.84646,49.1730983 546.160876,48.6754383 C546.860236,47.5687216 548.518993,46.8406879 550.968073,46.5664805 C553.154152,46.3216055 554.07301,45.7995568 553.010457,45.4067021 C551.340165,44.7887468 552.760968,43.761458 556.610747,42.8030505 C559.7259,42.0278874 560.669477,41.6172356 560.386701,41.1594543 C560.280247,40.987086 559.719968,40.8440499 559.141562,40.8414133 C556.302923,40.8275711 557.164105,39.5596917 561.165489,37.8620449 C562.555312,37.2724332 564.322828,36.5242954 565.093377,36.1999924 C567.157183,35.3309001 566.824641,34.6091284 564.137936,34.1246514 C562.704939,33.8662637 561.183286,32.7585583 561.418933,32.1452171 C561.647329,31.549673 563.023969,30.9590726 564.183088,30.9590726 C566.166148,30.9590726 565.399224,29.6631792 563.033527,29.0162212 C561.302263,28.5429498 556.375429,28.6032623 553.475818,29.1332207 M214.876537,30.268281 C214.278356,30.646964 214.697247,31.2886487 215.54228,31.2886487 C216.932433,31.2886487 215.873504,32.0555724 213.743124,32.5917928 C211.088388,33.2601732 210.560078,33.6645631 211.136836,34.5880355 C211.806864,35.6611354 211.607471,36.4063071 210.110536,38.4243018 C209.323838,39.4845483 208.56746,40.6486113 208.429368,41.011145 C208.196687,41.6231679 207.637067,45.8456975 206.443013,56.0068597 C206.176715,58.2726957 205.65203,63.7601385 205.277302,68.2011771 C204.902244,72.6422156 204.232545,78.1296585 203.788936,80.3954945 C201.92749,89.9004705 201.140132,96.6663392 200.643791,107.420738 C200.417372,112.325161 199.931247,117.704503 199.318565,122.086877 C197.735281,133.412432 195.795726,150.662777 195.371561,157.186737 C195.088455,161.540767 195.029461,170.727043 195.164587,189.320411 C195.269063,203.640494 195.2483,217.463577 195.119106,220.037896 C194.852479,225.341765 194.668905,225.790318 192.027682,227.583213 C190.179089,228.838239 182.999273,231.259634 176.418955,232.847203 C172.033615,233.905472 170.958208,234.042575 166.553423,234.105195 L161.609781,234.175395 L156.171774,236.02201 C153.180871,237.038093 149.843912,238.039345 148.756311,238.247308 C147.66871,238.45527 146.063015,238.76639 145.18832,238.938429 C144.313295,239.110468 143.238218,239.251197 142.798893,239.251197 C142.175664,239.251197 142,239.424883 142,240.040861 C142,241.414205 144.829411,243.337612 148.426735,244.410382 C149.856436,244.836524 149.810955,246.163068 148.344341,246.808378 C147.755388,247.067754 147.273218,247.470496 147.273218,247.703177 C147.273218,248.269389 148.33742,248.808905 149.453365,248.808905 C150.554149,248.808905 158.479137,251.04475 159.055566,251.517691 C159.632653,251.991292 159.569045,252.983976 158.946146,253.222918 C158.659415,253.332997 157.832838,253.422971 157.109418,253.422971 C156.065321,253.422971 155.815832,253.534697 155.900533,253.964794 C155.959198,254.262731 156.396545,254.797304 156.872783,255.152587 C158.654471,256.481438 169.506755,256.711482 175.202819,255.540827 C178.133081,254.938692 184.457977,252.959258 186.163204,252.110929 C186.797638,251.795195 188.455406,251.454413 189.847206,251.353563 C191.740621,251.216459 193.109021,250.861505 195.285212,249.943306 C196.884316,249.268334 201.455537,247.865329 205.443408,246.825516 C209.431279,245.785374 213.268205,244.693817 213.970202,244.399835 C214.672199,244.105854 215.868561,243.865263 216.628563,243.865263 C220.217318,243.865263 223.379931,242.78689 227.388565,240.195762 C229.498841,238.831646 229.50016,238.831317 237.809763,237.542015 C245.627968,236.328845 246.2334,236.184491 248.026953,235.10447 C249.075335,234.473002 251.343148,233.516242 253.065843,232.978704 C255.005069,232.373602 257.892815,231.059582 260.647413,229.52936 C264.095109,227.613863 265.393309,227.05655 266.414995,227.053913 C267.949831,227.049958 269.994522,226.156477 273.668966,223.884379 C275.117453,222.988592 276.736002,222.066767 277.26629,221.835734 C277.796578,221.604701 281.813122,220.68815 286.191541,219.799283 C297.245855,217.55487 301.769617,216.033217 306.040594,213.123718 C306.989114,212.477419 308.99129,211.485066 310.489872,210.918195 C315.125361,209.16485 316.449268,208.558759 318.263255,207.358772 L320.015941,206.199653 L324.181784,206.379602 C329.377881,206.604043 330.314866,206.343678 338.85748,202.304063 C343.089897,200.302547 346.756761,198.847798 350.420329,197.716363 C353.371025,196.805085 358.88747,194.943639 362.678914,193.579853 C367.454143,191.861772 370.686296,190.907649 373.197666,190.473927 C380.196545,189.265042 387.150602,186.667982 399.305041,180.725065 C404.559803,178.15536 407.302865,177.023595 410.345842,176.168675 C412.572788,175.543139 416.248551,174.514532 418.514387,173.883064 C424.028855,172.345591 426.181316,171.506161 427.804479,170.259704 C429.527173,168.936785 430.048233,168.146132 429.445109,167.769756 C429.091803,167.54894 429.107953,167.456 429.527503,167.295166 C429.814564,167.184758 430.049552,166.851227 430.049552,166.553291 C430.049552,166.110011 429.834009,166.052335 428.86143,166.23492 C427.154555,166.554938 427.5161,165.915561 430.075588,164.086743 C431.552419,163.031769 432.191797,162.361082 432.191797,161.866718 C432.191797,161.476829 432.525328,160.923471 432.933343,160.63674 C433.341029,160.350008 433.674889,159.896841 433.674889,159.629555 C433.674889,159.218244 433.1301,159.175729 430.131946,159.354688 C425.947647,159.604178 422.349335,160.668379 417.471608,163.099333 C414.853784,164.404125 413.562505,164.817413 410.220932,165.421526 C407.632112,165.889524 405.257516,166.554609 403.68346,167.252651 C402.267601,167.880494 399.879492,168.578866 398.09286,168.887349 C396.377416,169.183308 393.707849,169.911012 392.160489,170.504249 C388.446496,171.928348 387.122259,172.234524 382.174332,172.81326 C379.885426,173.081205 377.543128,173.542941 376.969665,173.83956 C376.396203,174.136179 373.978103,175.116008 371.595926,176.01707 C369.21408,176.918131 366.636465,178.023529 365.867563,178.47373 C364.596059,179.218572 364.176508,179.284488 361.215596,179.202093 C358.029913,179.113437 357.909288,179.137497 355.527112,180.344404 C353.785961,181.22668 351.78082,181.857159 348.479456,182.561134 C345.941719,183.102298 343.049688,183.843514 342.052721,184.208685 C341.055753,184.573855 338.588216,185.234326 336.569233,185.676617 C334.550249,186.118908 331.509909,186.992614 329.812922,187.61815 C325.412751,189.240324 324.770407,189.407089 321.403457,189.798955 C319.744041,189.992087 317.371093,190.534569 316.130238,191.004215 C314.889384,191.474191 312.020094,192.19794 309.754258,192.612547 C307.488422,193.027154 303.187454,194.037305 300.19655,194.85729 C297.205647,195.677275 291.940668,196.960645 288.496597,197.709112 C280.861636,199.368858 278.530544,200.042182 274.489611,201.755648 C272.767575,202.485989 269.727235,203.599956 267.7333,204.231095 C265.739364,204.862563 263.44057,205.71254 262.624869,206.120555 C261.631527,206.617226 260.271366,206.924721 258.505168,207.052267 C256.721502,207.180801 254.339655,207.723943 251.142437,208.730468 C248.475506,209.570228 245.172824,210.362529 243.562185,210.549069 C241.36556,210.803502 239.835009,211.250737 236.91793,212.490932 C234.833361,213.377162 231.867176,214.436091 230.326407,214.843776 C225.43352,216.138351 220.4645,217.840283 217.765601,219.145404 C214.774368,220.591914 213.052333,220.977518 211.766986,220.488756 C209.930587,219.790385 209.927621,220.033282 212.019441,197.724602 C212.639703,191.108361 213.24909,184.434444 213.37334,182.893676 C213.49792,181.352907 213.804755,179.350732 214.055233,178.444398 C216.907714,168.122732 218.416844,160.690131 220.245002,147.958604 C222.88293,129.589019 223.755318,118.306968 223.48144,106.102434 C223.362793,100.807793 223.43497,99.2983343 223.891762,97.5334541 C224.19662,96.3552193 226.276905,91.6834775 228.514068,87.1518055 C232.807786,78.4546205 234.536413,74.214953 235.769028,69.3546936 C239.91147,53.0245251 234.956952,37.4896239 223.849247,31.9784516 C220.531734,30.3325483 216.106515,29.489163 214.876537,30.268281 M262.460081,44.0010598 C262.097548,44.0821355 261.042245,44.3016333 260.115147,44.4885029 C258.009485,44.9133266 257.147643,45.7988977 256.404779,48.3007102 C255.918654,49.9387037 255.717283,50.2264236 255.054835,50.232356 C254.103019,50.240925 252.957083,52.290559 252.379665,55.0181312 C251.778189,57.8567706 252.175328,63.5261394 253.210197,66.8828725 C253.685446,68.423641 254.351519,70.6275167 254.689994,71.7807036 C255.336293,73.9796356 256.053121,75.0230737 256.66086,74.6473569 C256.859594,74.5247546 257.022075,74.0574156 257.022075,73.6095216 C257.022075,72.4952247 257.88161,72.2493609 258.790251,73.1029631 C259.200573,73.4885672 259.631988,73.8039715 259.748988,73.8039715 C259.865988,73.8039715 260.138877,73.2130415 260.355079,72.4909402 C260.57161,71.7688388 261.02247,70.9300676 261.35699,70.6271871 C261.931771,70.1071159 261.965717,70.1179919 261.965717,70.8222962 C261.965717,71.4610147 262.088979,71.5374764 262.820967,71.3535729 C263.936583,71.0737628 265.014626,72.2055272 264.726577,73.3544297 C264.404581,74.6361513 265.468782,74.3039386 266.454215,72.8152431 C267.35956,71.4471725 267.898088,71.139678 267.898088,71.9913027 C267.898088,72.8627021 268.360154,72.5110443 269.751624,70.5810464 C271.968683,67.5054418 272.552692,66.0675011 272.832831,62.9942035 L273.087594,60.1967612 L274.659672,58.7535473 L276.231421,57.3103333 L276.028402,55.1371082 C275.786163,52.5410369 274.83204,50.7405624 272.275189,48.0535281 C270.06571,45.7319937 267.298918,44.2129773 264.9029,44.0069922 C263.921752,43.9226207 262.822615,43.9199841 262.460081,44.0010598 M374.845547,51.7454401 C374.301747,51.931321 372.329233,52.2256325 370.461855,52.3989896 C366.067946,52.807664 364.893995,53.4015602 362.877978,56.2355855 C357.33253,64.0313797 352.804483,69.8075312 349.053577,73.8702164 C347.831509,75.1937942 345.79341,77.7480093 344.524542,79.5458472 C341.356985,84.0343447 336.842781,88.9657926 335.903489,88.9638151 C335.750895,88.9634855 335.403522,88.5732674 335.131622,88.0963707 C334.855437,87.6122233 334.128062,87.0671044 333.483741,86.8611193 C332.409323,86.5180305 332.3177,86.3796086 332.146321,84.8447724 C332.005262,83.5795296 331.49409,82.4546862 329.945082,80.0009918 C325.337278,72.7015393 323.737185,71.1307794 319.476755,69.7234893 C318.57042,69.4242341 316.274593,68.2921401 314.374586,67.2078346 C312.474909,66.123529 310.39858,65.140733 309.76052,65.0237334 C309.12279,64.9070635 308.113299,64.3873219 307.517425,63.8688986 C305.54623,62.1541139 304.34855,61.8205829 300.19655,61.8284927 C297.326931,61.8340955 295.972702,61.9886667 294.620781,62.4642451 C291.481568,63.5689843 291.005331,64.8912438 290.982919,72.5690497 C290.97501,75.2432306 290.681357,79.9891271 290.330688,83.1154864 C289.330425,92.0295324 288.955696,96.9939379 288.649191,105.391868 C288.482755,109.950895 288.148894,114.283173 287.845354,115.82493 C287.500288,117.576298 287.226081,121.836399 287.028665,128.513612 C286.864865,134.042252 286.580771,139.603849 286.397526,140.872717 C285.509648,147.014039 285.335962,153.954583 285.848453,162.812601 C286.877389,180.594882 288.112311,186.812336 289.891363,183.166565 C290.464496,181.991626 291.263718,178.005402 291.623945,174.520794 C291.855967,172.278028 292.113366,171.311381 292.680566,170.551049 C293.336093,169.67207 293.457707,169.007644 293.646883,165.261352 C293.76586,162.904883 294.096096,159.938697 294.38019,158.669829 C294.758544,156.98207 294.8238,155.831849 294.623747,154.385339 C294.309991,152.117196 294.576947,149.55573 295.146784,149.366554 C295.368919,149.292729 295.580177,149.63351 295.641149,150.163798 C295.704757,150.719793 295.944688,151.089578 296.241636,151.089578 C296.947259,151.089578 297.438657,148.781886 297.853264,143.518225 C298.051669,140.998615 298.40827,138.658954 298.669294,138.160635 C299.13136,137.278689 299.134326,137.282315 299.549263,139.239008 C299.777988,140.319029 300.054503,142.092149 300.163263,143.17975 C300.402865,145.572144 300.996761,145.778788 302.058985,143.838903 C302.938953,142.231889 303.68808,138.707402 304.11587,134.162217 C304.413147,131.000923 304.804025,129.334586 304.81556,131.177576 C304.818526,131.615912 304.966835,132.196625 305.145136,132.468526 C305.413411,132.87687 305.519864,132.885439 305.756829,132.517962 C306.478931,131.398392 311.709304,110.104477 312.730661,104.124977 C313.530542,99.4443366 314.738438,99.305585 316.932427,103.642478 C317.302541,104.373807 318.817273,106.656781 320.298388,108.715643 C321.779503,110.774505 323.791236,113.751567 324.768429,115.331884 C328.420133,121.235252 331.614385,122.427659 333.834739,118.716631 C334.918715,116.904951 335.821424,115.989718 336.523751,115.989718 C337.503581,115.989718 339.136301,116.939227 340.625326,118.374861 C341.795651,119.503659 342.137751,119.665811 342.932359,119.470042 C343.445509,119.343485 344.310317,118.818141 344.854118,118.302684 C345.772976,117.431943 346.061685,117.357789 348.938225,117.254302 C352.020751,117.143564 352.03756,117.138621 352.893139,116.021687 C353.366081,115.404721 354.320863,114.262739 355.01528,113.483951 C356.190219,112.166305 356.295354,111.878256 356.532649,109.33261 C356.911661,105.261685 360.318819,96.881882 361.225813,97.7888756 C361.713586,98.2766483 362.148626,117.908511 361.804549,123.899546 C361.67931,126.078044 361.756431,126.522313 362.453484,127.64386 C363.132081,128.735417 363.238534,129.297014 363.20294,131.598774 C363.142957,135.476567 362.859522,138.107903 362.079745,142.026234 C361.454868,145.167094 361.427184,145.806472 361.77983,148.947333 C361.993725,150.850635 362.545106,153.81682 363.005195,155.538856 C363.706203,158.161623 363.865388,159.605825 363.985024,164.437412 C364.107297,169.379736 364.208147,170.263988 364.68834,170.616964 C365.587753,171.277765 366.107495,171.110999 367.507534,169.71063 C368.232602,168.985563 369.008094,168.392325 369.230558,168.392325 C370.03011,168.392325 370.687285,167.187395 371.533966,164.170125 C372.007567,162.482366 373.194041,159.367871 374.170575,157.249026 C375.39528,154.591654 376.057399,152.655064 376.30524,151.005865 C376.537921,149.457517 377.057992,147.873244 377.781411,146.509788 C378.751684,144.68097 378.927348,143.977654 379.119161,141.155494 C379.240445,139.368532 379.407211,137.699888 379.489934,137.447432 C379.75722,136.629754 380.118766,137.430954 380.118766,138.840551 C380.118766,140.532595 380.798022,140.680245 381.674695,139.179355 C382.656502,137.498187 383.274787,133.380792 383.573053,126.536155 C383.853852,120.087668 384.439179,115.72408 385.381108,113.054513 C385.961162,111.409928 386.038612,110.057348 385.552158,110.057348 C385.368584,110.057348 384.914098,110.242899 384.542007,110.469318 C383.485056,111.11331 382.588609,109.805222 382.597508,107.631338 C382.604429,105.977854 383.035185,104.548482 385.641803,97.5334541 C387.227064,93.2661021 388.002886,89.42654 389.004798,80.8898587 C389.985946,72.5314781 390.507335,69.471034 391.616029,65.5645679 C392.761636,61.5282488 392.895114,60.0886602 392.325277,57.9114802 C392.054036,56.8743041 391.914955,55.8101027 392.016135,55.5464418 C392.308798,54.7841322 390.864596,54.1187179 388.522957,53.937451 C387.344723,53.846488 384.971774,53.3063127 383.249739,52.7374643 C379.854116,51.6155871 376.413341,51.2095493 374.845547,51.7454401 M426.877381,64.8230216 C426.049486,67.3986592 425.634879,67.7796492 425.123047,66.4333306 C424.735136,65.4129629 424.415118,65.324966 421.461127,65.4268051 C419.592101,65.4910724 418.661048,65.6947505 417.732961,66.242506 C416.648326,66.8822133 416.395871,66.9187963 415.685634,66.538795 C415.063395,66.2055935 414.785562,66.1953766 414.486966,66.4939726 C413.722349,67.2585893 413.144932,66.9520835 413.35652,65.894144 C413.498567,65.1832483 413.428367,64.9054156 413.106042,64.9054156 C412.473585,64.9054156 411.681943,66.2299821 411.411361,67.7410888 C411.284804,68.4473704 410.321453,72.5845398 409.270105,76.9349449 C404.100703,98.3283917 401.804217,110.934679 400.564351,124.723486 C400.303327,127.623756 399.778642,131.553952 399.398311,133.457254 C397.255407,144.176389 397.193117,151.854524 399.224295,154.923537 C400.930181,157.501482 403.647207,157.944102 407.157522,156.215805 C408.922732,155.347042 409.341294,154.970007 409.843568,153.797046 C411.492767,149.946937 412.066559,149.128929 413.653138,148.367279 C414.56936,147.927624 415.405495,147.235185 415.694203,146.676883 C415.963138,146.156482 416.703036,145.424164 417.338129,145.049436 C417.973223,144.675037 418.757284,143.857688 419.080269,143.233801 C419.403583,142.609584 420.099318,141.39938 420.62631,140.5438 C422.18982,138.007053 423.808368,131.397073 424.015672,126.700943 C424.167936,123.251269 424.101361,122.484016 423.494612,120.696725 C422.521044,117.828753 422.611018,116.402677 424.139263,110.476239 C426.156269,102.65276 426.670407,99.8329068 427.411624,92.5192826 C427.784704,88.8422015 428.37926,84.202099 428.733554,82.2081633 C429.645491,77.0746852 429.872569,72.8155727 429.400946,69.6842697 C428.797821,65.6815674 427.441286,63.0680286 426.877381,64.8230216 M266.909359,83.4513245 C266.909359,84.1239894 266.666462,84.7976431 266.306565,85.1232643 C265.655322,85.712876 264.27275,85.8681064 264.27275,85.3519901 C264.27275,84.5069569 262.785703,83.6912559 261.244275,83.6912559 C260.372216,83.6912559 259.658684,83.5429467 259.658684,83.3616798 C259.658684,82.6349644 258.546694,83.1042808 257.310125,84.3533744 C256.23307,85.4413053 255.891629,85.6159806 255.380127,85.3421028 C255.038027,85.1591881 254.435561,85.0095605 254.040729,85.0095605 C253.399374,85.0095605 253.346312,84.8872878 253.539773,83.856044 C253.771136,82.6230996 253.512748,82.440844 252.387575,83.0429797 C251.187259,83.6853236 250.407482,85.9584102 249.414798,91.7078661 C248.87726,94.821372 247.559285,101.966253 246.486185,107.585527 C241.84015,131.913519 240.694543,140.865467 240.225886,156.509128 C239.975738,164.856962 239.825451,166.590862 238.894069,171.852875 C236.65328,184.514861 237.417568,194.676353 240.870537,198.129322 C242.359562,199.618347 243.652159,199.761713 245.049562,198.593695 C245.562053,198.165246 246.591649,197.504775 247.337809,197.126092 C249.735806,195.909297 250.677075,194.884645 251.26438,192.850501 C252.032622,190.190821 252.985426,188.638188 254.440835,187.674837 C255.133274,187.216726 256.063338,186.266229 256.507607,185.562254 C256.951875,184.858609 257.805477,183.947331 258.404647,183.537009 C259.865328,182.537404 260.317836,181.932961 260.317836,180.983123 C260.317836,180.545446 260.66521,179.774567 261.089704,179.269986 C262.005266,178.182385 263.70489,172.057212 264.433913,167.220682 C265.061096,163.059783 265.051209,157.360423 264.411831,154.385339 C263.512418,150.20137 263.49528,148.992155 264.289559,145.816359 C264.792162,143.807922 265.107237,141.254037 265.265434,137.906532 C265.470759,133.556456 265.626979,132.586843 266.565941,129.831916 C267.502926,127.081933 267.613334,126.40004 267.471616,124.229122 C267.294304,121.510448 267.799874,114.507944 268.92307,104.124977 C269.367338,100.01714 269.664946,95.1077736 269.682413,91.6010834 C269.709438,86.0790351 269.675822,85.7633012 268.886816,84.1856202 C267.868756,82.1498283 266.909359,81.7935565 266.909359,83.4513245 M626.556363,110.386924 C626.626233,112.694286 626.550101,113.001451 625.4157,115.005274 C623.740794,117.96355 623.224348,121.248435 622.850938,131.315009 C622.630451,137.262211 622.394475,140.058664 622.002939,141.367081 C621.577456,142.788214 621.467377,144.496737 621.493084,149.276909 C621.511211,152.630346 621.38004,157.079624 621.201409,159.164193 C621.023109,161.248763 620.724842,166.068814 620.538632,169.875418 C620.196532,176.882207 619.728204,182.428974 618.554913,193.382437 C618.198971,196.704235 617.907625,200.78274 617.907625,202.445781 C617.906966,205.114688 617.181569,210.755055 616.788055,211.148568 C616.363561,211.573392 614.064438,209.885303 611.399815,207.192336 C607.34471,203.093398 606.45024,201.967895 602.831165,196.406298 C599.497172,191.283366 598.078347,189.63944 594.135627,186.331155 C591.787397,184.360619 588.578974,180.833166 585.86063,177.233535 C585.220922,176.386195 584.293825,174.636146 583.80012,173.344537 C582.659457,170.359895 581.74719,169.289432 579.576601,168.389689 C578.063188,167.762505 577.709882,167.428974 576.861883,165.826905 C575.367914,163.004085 574.868936,162.760858 570.523474,162.737458 C566.354665,162.714717 565.288487,163.097685 563.903937,165.114361 C563.125478,166.248762 563.124819,166.259309 563.340032,173.335968 C563.513389,179.042908 563.456373,180.935005 563.047369,183.058464 C562.463689,186.086939 562.404036,188.596991 562.854567,191.154832 C563.517674,194.917932 563.871309,202.81194 564.190009,220.959721 C564.371606,231.291933 564.678441,242.266819 564.872232,245.348356 C565.066023,248.429893 565.352754,255.252119 565.509632,260.508858 C565.841845,271.646225 566.471995,276.386189 568.727614,284.711283 L569.213079,286.502859 L569.695908,285.581364 C569.963854,285.069861 570.303647,284.786096 570.459536,284.943634 C570.613778,285.099523 571.158238,286.324228 571.669081,287.665274 C572.761626,290.532256 573.347942,291.055623 574.649438,290.325283 C576.144066,289.486511 576.241291,288.616101 575.617403,281.67325 C574.931555,274.042573 574.892335,269.93177 575.497437,269.104204 C575.904134,268.54788 575.986199,268.575234 576.794319,269.535619 C578.292243,271.31599 578.479113,270.969605 578.241488,266.853199 L578.027264,263.145467 L579.346557,259.375116 C580.359345,256.480779 580.667828,255.102821 580.674419,253.442746 C580.686943,250.268268 581.255462,244.94034 581.663148,244.17869 C582.118952,243.327395 582.641989,243.652686 582.648251,244.791042 C582.654842,245.959719 583.11559,246.644249 583.735193,246.406295 C584.497173,246.113961 584.892005,243.633571 585.943683,232.532128 C586.473971,226.933618 586.993712,222.267149 587.098518,222.162344 C587.203323,222.057539 587.541468,222.12675 587.849951,222.316586 C588.677847,222.825122 594.540017,230.729676 596.363562,233.796382 C597.231666,235.255745 599.750287,239.21758 601.960424,242.60035 C604.170892,245.983449 609.018627,253.84384 612.73295,260.067885 C616.447273,266.292261 620.002741,272.056547 620.633879,272.877521 C622.56915,275.394165 623.871306,276.061557 627.342402,276.315989 C630.310235,276.53351 630.359012,276.524941 631.028381,275.673975 C631.44134,275.14896 631.786736,274.076519 631.910657,272.93322 C632.213208,270.143028 632.391179,269.51156 632.83347,269.656574 C633.053297,269.728751 633.280046,270.184225 633.337392,270.668702 C633.474825,271.827492 633.777705,271.780033 634.553528,270.478537 C635.114796,269.536608 635.190598,268.770673 635.183348,264.134196 C635.177415,260.215865 635.022844,258.225884 634.582201,256.389156 C633.405614,251.485393 633.585563,248.280924 634.895298,250.813387 C636.071555,253.088451 636.1612,251.855837 636.399484,230.104141 C636.653257,206.962951 636.652598,206.97218 638.853837,200.002633 C640.332975,195.320015 640.964113,192.436224 640.975978,190.309139 C640.981581,189.295693 641.427827,187.393709 642.135097,185.368793 C643.559526,181.291936 643.707505,178.81583 642.425784,180.504249 C641.721479,181.432006 641.871436,180.475246 642.921137,177.339659 C644.106622,173.799022 644.474758,171.340384 645.099964,162.789531 C645.766367,153.674444 646.154608,151.160107 647.305488,148.500428 C648.710801,145.253443 648.985008,142.913782 648.624122,137.24738 C648.424399,134.104871 648.436264,130.382638 648.658398,126.592842 C649.18539,117.601675 648.281363,111.969878 645.283868,105.573464 C643.958313,102.745042 643.399681,102.10105 642.918829,102.846881 C642.536521,103.440118 642.107413,102.83205 641.610412,100.994004 C641.057054,98.9460174 640.439758,98.238747 638.409569,97.3254915 C635.835579,96.1676905 632.977165,95.98148 631.35598,96.8663919 C628.200288,98.5880977 626.35631,103.782547 626.556363,110.386924 Z M539.30734,156.254366 C536.872431,159.147715 531.700063,172.560805 530.94072,177.950034 C529.543647,187.865332 529.049941,194.202093 528.758596,205.964006 C528.648518,210.405045 528.350581,216.782343 528.096148,220.13578 C527.841715,223.489218 527.47226,229.569898 527.275174,233.648402 C525.657285,267.156409 522.030299,281.653475 513.150859,290.102819 C509.764134,293.325085 507.345375,293.936119 504.616155,292.258576 C501.611409,290.411632 498.134051,283.921289 496.434427,276.987666 C493.820888,266.326207 495.050537,251.451776 501.202075,219.31184 C503.060555,209.601538 503.874608,204.409066 503.874608,202.263196 C503.874608,201.452438 504.035771,200.326606 504.232858,199.761053 C504.692616,198.443078 504.147827,196.66897 503.008153,195.772523 C502.557952,195.418229 501.419266,194.879701 500.477667,194.575502 C499.40259,194.228129 498.214797,193.494493 497.283085,192.60233 C496.223498,191.587895 495.282229,191.042117 493.987324,190.692436 C492.990356,190.423173 490.858658,189.732711 489.250656,189.15793 C485.672777,187.880163 483.677853,187.721966 482.978162,188.661588 C482.029642,189.936059 479.446424,196.206904 478.985677,198.354093 C478.729267,199.548806 478.206229,202.666267 477.822932,205.281783 C477.439965,207.897629 476.034982,215.75802 474.700857,222.749319 C470.242681,246.113302 469.825108,249.250867 469.805683,259.52013 C469.791162,267.720314 470.032741,269.723807 471.918246,277.036772 C473.709822,283.984567 477.158836,291.900986 480.08745,295.786689 C483.230618,299.957475 490.822734,304.607795 496.459145,305.814702 C504.89992,307.622098 514.310637,307.307353 521.709292,304.969999 C528.306747,302.886089 532.297585,300.35033 539.230878,293.838564 C544.153757,289.214941 544.381494,288.94304 545.399884,286.473197 C545.981586,285.062611 546.796628,283.537991 547.211235,283.084824 C549.050599,281.074739 549.857402,278.516899 550.517213,272.602985 C550.773624,270.301554 551.279852,267.265499 551.641727,265.856231 C552.851601,261.142963 553.310701,253.466475 552.661106,248.808905 C552.496648,247.63067 551.905058,244.516176 551.346097,241.887806 C550.640475,238.569633 550.237403,235.496995 550.026804,231.835734 C549.860038,228.935463 549.495857,225.598505 549.217365,224.42027 C548.579965,221.724997 548.572384,217.561791 549.194624,212.061165 C549.774019,206.936585 549.834991,203.525802 549.341615,203.83066 C548.679826,204.239664 548.037812,203.261482 548.037812,201.844963 C548.037812,201.073755 548.489002,198.249617 549.040383,195.568845 C550.3956,188.980288 550.191592,184.053125 548.696964,187.26847 C548.425064,187.853138 548.054291,188.315203 547.873024,188.295099 C546.333903,188.124049 545.851404,179.597914 547.380967,179.597914 C547.744819,179.597914 547.853908,179.833232 548.181507,181.328189 C548.44352,182.525539 548.878231,182.475444 549.323818,181.196688 C549.825763,179.7571 549.775997,176.736205 549.218683,174.796649 C548.961614,173.902509 548.649835,172.094784 548.525585,170.779116 C548.330805,168.712344 548.181178,168.298396 547.427437,167.734162 C545.814162,166.526924 545.730779,166.393117 545.725835,165.001317 C545.722869,164.238018 545.574889,163.391007 545.396918,163.119107 C545.129632,162.711092 544.878825,162.853469 543.959307,163.934479 C542.953111,165.117986 542.789971,165.198403 542.268911,164.76567 C541.761364,164.344801 541.718519,163.899873 541.913298,161.073428 C542.284401,155.686506 541.306549,153.878122 539.30734,156.254366 M435.487558,180.270579 C425.666518,181.384547 414.154424,184.663829 403.518672,189.376768 C395.107229,193.103945 392.203004,194.830924 388.349271,198.396608 C387.304185,199.363914 386.042238,200.145998 384.930577,200.515124 C383.84001,200.877328 382.520057,201.687426 381.467391,202.64089 C380.531724,203.487901 377.769547,205.607075 375.328706,207.349544 C372.887535,209.092343 370.413737,210.939288 369.831046,211.454415 C367.788663,213.259174 363.737842,218.007707 362.987727,219.476628 C362.102485,221.209869 361.168137,224.207035 361.168137,225.312433 C361.168137,226.061889 361.19714,226.070128 362.140387,225.582356 C363.319281,224.97264 363.474511,224.962093 363.477148,225.491393 C363.478466,225.718141 363.690383,226.308082 363.948441,226.802447 C364.20617,227.29714 364.521245,228.8913 364.647802,230.34539 C364.774689,231.79948 364.974412,232.98925 365.091082,232.98925 C365.208082,232.98925 365.944025,232.109941 366.726439,231.035523 C368.344328,228.814179 369.077965,228.330032 369.077965,229.484208 C369.077965,229.901451 369.177167,230.342094 369.298451,230.463049 C369.419735,230.584333 371.310513,228.930849 373.500547,226.788604 C383.953384,216.563505 396.530669,208.707068 408.956678,204.641417 C412.281113,203.553486 414.723931,203.016936 422.489075,201.668311 C425.387038,201.165048 429.166617,201.292923 433.819573,202.052267 C437.672318,202.681098 438.521966,202.716692 441.914293,202.391071 C450.05021,201.610635 451.670406,203.44967 447.898077,209.183965 C446.976253,210.585323 445.58643,212.817542 444.809619,214.144745 C440.118762,222.160037 437.010859,226.18581 425.93776,238.592045 C417.520055,248.023196 413.214143,252.511364 408.627102,256.636009 C402.599814,262.05523 401.897816,262.154432 402.782728,257.462916 C403.081983,255.875347 403.401013,252.648467 403.491647,250.291998 C403.58228,247.935528 403.88582,244.746879 404.166619,243.206111 C404.511026,241.316321 404.613853,239.493106 404.482682,237.603316 C404.343931,235.606085 404.442803,234.092341 404.82676,232.330098 C405.123049,230.970596 405.498436,227.707792 405.660587,225.079423 C405.823068,222.451053 406.050146,219.985494 406.165498,219.600219 C406.587355,218.19227 404.198917,215.01219 401.160884,212.936189 C399.845875,212.037765 399.289221,212.020627 399.564417,212.886753 C399.901244,213.947988 398.887468,214.056748 397.730656,213.08318 C396.500018,212.047652 394.965182,211.895388 395.264437,212.838635 C395.51096,213.614787 394.987923,214.040599 393.202609,214.517825 C392.068867,214.821035 391.822674,215.014826 391.971972,215.485791 C392.074799,215.809764 391.93407,216.612941 391.659204,217.270775 C391.384337,217.928609 391.159566,219.205057 391.159566,220.107437 C391.159566,221.009816 390.621698,223.795394 389.964194,226.297536 C388.968874,230.084366 388.756627,231.482428 388.698292,234.637131 C388.620512,238.852739 387.963007,242.496533 385.277621,253.59468 C382.771524,263.95194 382.249146,267.862361 381.724131,280.185543 C381.557365,284.095634 381.37478,285.555327 380.975993,286.156474 C380.685636,286.594151 378.199973,289.382036 375.451967,292.351517 C367.305504,301.155484 364.231218,305.043494 364.893336,305.705613 C365.012972,305.825578 365.780226,305.568509 366.597904,305.134787 C367.849964,304.470691 368.188439,304.410708 368.741797,304.756104 C369.704818,305.35758 370.096355,305.284414 372.759001,304.006648 C375.400883,302.738109 376.267998,302.722949 378.222714,303.910082 C378.960305,304.357976 379.587818,304.495409 380.241038,304.351714 C381.481892,304.079154 381.627895,304.450916 381.983837,308.791764 C382.140056,310.695066 382.285729,312.474777 382.30814,312.746677 C382.330221,313.018578 382.100836,314.575825 381.797956,316.207227 C380.797033,321.599422 380.42593,329.277558 380.926886,334.231417 C381.392907,338.837903 381.463107,342.413804 381.24262,350.318358 C381.123973,354.568242 381.185933,355.299242 381.799933,356.920427 L382.490395,358.743972 L381.575822,368.620381 C380.308601,382.308667 379.832693,390.302866 380.039338,394.4285 C380.310579,399.838163 381.041249,400.918184 382.807777,398.518869 C383.308403,397.839283 384.411824,396.530537 385.260153,395.611019 C386.108153,394.691172 387.100177,393.354741 387.464688,392.640879 C388.441882,390.725053 389.442804,387.102352 389.845876,384.021474 C390.041315,382.528164 390.412417,380.800526 390.670805,380.182241 C391.007302,379.377087 391.127598,377.809952 391.09464,374.657886 C391.049818,370.354281 391.086401,370.11402 392.751419,363.71464 C394.220011,358.071967 394.499821,356.484728 394.785563,352.179475 C395.093387,347.546623 395.471411,344.907706 395.887666,344.491781 C396.201093,344.178354 396.762361,344.744896 396.762361,345.374716 C396.762361,346.135378 397.361201,346.555587 397.808436,346.108352 C397.99168,345.925108 398.183493,343.390667 398.240839,340.386251 C398.328507,335.808768 398.476486,334.494748 399.22001,331.697306 C400.323761,327.543987 405.035711,314.987136 405.555452,314.814109 C405.797032,314.733692 406.029713,315.254752 406.170112,316.191407 C406.294362,317.020291 406.530339,317.781283 406.694468,317.882792 C407.156863,318.168535 407.850621,316.180531 408.474179,312.782601 C408.977112,310.042505 408.999194,309.022797 408.666322,303.884045 C407.764601,289.954839 407.669354,287.775022 407.894784,286.243153 C408.025626,285.351979 408.327188,284.55803 408.564153,284.478931 C408.803096,284.399504 411.886281,287.26385 415.485252,290.908962 C420.761437,296.253698 422.837766,298.101632 426.589002,300.791303 C436.371481,307.805013 441.678316,312.545306 447.454797,319.428834 C453.788262,326.975798 458.306092,331.068804 468.434626,338.434172 C472.310771,341.253037 473.759588,342.52553 475.092394,344.282501 C477.774814,347.817864 482.385584,352.740413 487.482809,357.50971 C494.140247,363.739028 495.88733,365.110065 504.039396,370.50259 C511.559665,375.476883 515.36561,378.46515 517.578055,381.131421 C520.436139,384.575821 521.954167,386.091212 524.458946,388.001106 C525.901171,389.100901 527.977501,390.91357 529.073012,392.029515 C530.819106,393.807908 531.824313,394.437069 537.229033,397.133002 C543.01639,400.019759 543.468239,400.189161 544.612527,399.898805 C546.293695,399.472663 546.630192,398.823727 546.133191,396.964918 C545.371211,394.116391 544.323159,392.450054 541.595257,389.749837 C539.848174,388.020551 538.153823,385.894126 536.830905,383.770337 C535.701777,381.957668 533.868015,379.509576 532.756355,378.330353 C531.644694,377.15113 529.521894,374.481563 528.038802,372.397982 C524.598686,367.564419 522.632435,365.272546 520.304968,363.383086 C516.926483,360.641013 515.348143,358.5515 513.749369,354.704687 C512.922133,352.714047 510.735395,350.545106 506.371148,347.38513 C504.768748,346.225022 503.217763,344.843769 502.92444,344.315788 C500.886012,340.644639 499.261861,338.719914 492.694067,332.19167 C486.980865,326.512414 485.135238,324.451574 483.397383,321.810021 C480.675414,317.673182 478.304113,315.41987 474.997476,313.828346 C471.704022,312.243085 469.270761,309.972965 465.535345,305.001638 C462.053702,300.367797 458.92207,297.214742 456.214272,295.617287 C455.146775,294.987796 454.147171,294.26998 453.993259,294.022138 C451.998334,290.815692 447.565206,285.763949 441.262721,279.514526 C433.60469,271.921091 431.013562,269.771596 428.318618,268.776935 C426.499687,268.105588 426.140449,267.31889 426.770599,265.387574 C427.452162,263.299709 431.854311,259.232739 437.135439,255.811739 C442.915875,252.067424 443.264566,251.788933 445.384071,249.219227 C446.339182,248.061097 448.004531,246.470562 449.084881,245.684523 C450.753525,244.470365 451.472001,243.666528 451.472001,243.014297 C451.472001,242.938495 451.218557,242.876534 450.909085,242.876534 C450.506343,242.876534 450.740672,242.474452 451.733025,241.463312 C452.495665,240.686171 453.119882,239.885961 453.119882,239.685249 C453.119882,239.484537 453.960631,238.155356 454.987919,236.731587 C458.604359,231.720382 461.948568,226.378612 462.153564,225.287056 C462.299896,224.505631 462.838423,223.780563 463.997543,222.80304 C464.897615,222.044026 465.99807,220.799547 466.442338,220.037896 C467.432056,218.341238 468.834073,214.11805 468.989632,212.365034 C469.085539,211.282706 469.010396,211.088256 468.527567,211.169332 C467.719446,211.305117 467.803488,210.725722 468.941185,208.321135 C470.130296,205.807457 470.436142,204.149689 469.946062,202.871923 C469.586165,201.93296 469.573971,201.929335 468.891419,202.542347 L468.200627,203.162609 L468.43133,201.467928 C468.565798,200.479859 468.530862,199.692172 468.347618,199.578798 C468.174591,199.472015 467.422827,199.826639 466.676667,200.367144 C464.933209,201.63008 464.500476,201.615908 465.171493,200.318696 C465.67937,199.336559 465.670142,199.240653 464.980009,198.306964 C464.425992,197.557507 464.328107,197.163005 464.565073,196.632387 C464.763148,196.188778 464.753261,195.615315 464.538047,195.044819 C464.28757,194.381712 464.311958,194.018189 464.632965,193.631267 C465.208735,192.937839 465.704747,192.974092 467.129175,193.814511 C470.068335,195.548741 468.654124,191.990637 464.819835,188.004084 C461.376423,184.424228 456.804543,182.003491 451.142425,180.762637 C448.190411,180.115679 439.313278,179.836528 435.487558,180.270579" id="Shape"></path>
        </g>
    </g>
</svg>