<?xml version="1.0" encoding="UTF-8"?>
<svg width="800px" height="400px" viewBox="0 0 800 400" version="1.1" xmlns="http://www.w3.org/2000/svg" xmlns:xlink="http://www.w3.org/1999/xlink">
    <title>lizardcube</title>
    <g id="Page-1" stroke="none" stroke-width="1" fill="none" fill-rule="evenodd">
        <g id="lizardcube" fill="#000000">
            <line x1="0" y1="0" x2="800" y2="400" id="Path" fill-rule="nonzero"></line>
            <path d="M250.391655,346.82265 C246.64825,348.880944 245.921363,353.36402 248.807602,356.593612 C250.267463,358.227584 251.012613,358.568503 253.131177,358.568503 C259.359632,358.568503 261.665093,349.867781 256.187266,347.035115 C254.106447,345.959396 252.095637,345.885124 250.391655,346.82265 M402.891718,356.255129 C402.891718,364.701988 402.835101,365.126919 401.826348,364.242966 C394.44364,357.76978 381.823575,361.035899 376.89,370.696671 C373.494819,377.344578 374.473133,387.004133 379.139452,392.907499 C385.12683,400.481973 394.497822,402.062373 400.769501,396.555325 L402.891718,394.69245 L402.891718,396.885894 L402.891718,399.079947 L408.370762,399.079947 L413.849806,399.079947 L413.849806,373.206682 L413.849806,347.333418 L408.370762,347.333418 L402.891718,347.333418 L402.891718,356.255129 M508.819905,373.206682 L508.819905,399.079947 L514.298949,399.079947 L519.777994,399.079947 L519.777994,396.885894 L519.777994,394.69245 L521.911168,396.565674 C524.947167,399.230925 529.885004,400.573899 533.284446,399.65829 C539.046574,398.106503 543.19482,394.709496 546.038444,389.214623 C547.936019,385.546708 548.343295,377.342143 546.85056,372.848109 C545.626906,369.163148 541.442134,364.288016 537.992772,362.528025 C533.13773,360.051497 526.784474,360.447206 522.060929,363.520341 L519.777994,365.005162 L519.777994,356.16929 L519.777994,347.333418 L514.298949,347.333418 L508.819905,347.333418 L508.819905,373.206682 M208.690041,374.728639 L208.690041,399.079947 L224.822782,399.079947 L240.955523,399.079947 L240.955523,394.209685 L240.955523,389.339424 L230.606217,389.339424 L220.256912,389.339424 L220.256912,369.858378 L220.256912,350.377332 L214.473476,350.377332 L208.690041,350.377332 L208.690041,374.728639 M318.879707,361.147915 C315.236143,361.759133 306.704053,365.271809 306.704053,366.160632 C306.704053,366.608696 310.912568,372.902291 311.212698,372.902291 C311.330802,372.902291 312.898417,372.241762 314.696761,371.434516 C319.284547,369.375613 322.49892,368.964685 325.198263,370.092759 C327.171327,370.917051 328.62023,372.896812 328.62023,374.76821 C328.62023,375.081124 326.212494,375.337422 323.26903,375.337422 C313.37692,375.337422 307.728026,377.789599 305.762266,382.936856 C303.034311,390.080921 307.320141,397.26273 315.567929,399.367292 C318.804827,400.19341 319.611464,400.202542 322.139738,399.441564 C323.725617,398.964278 325.968981,397.852032 327.125668,396.969297 L329.229013,395.365155 L329.229013,397.222551 L329.229013,399.079947 L334.475502,399.079947 L339.721991,399.079947 L339.463867,385.230141 C339.23253,372.781752 339.076681,371.091771 337.923038,368.530623 C335.269354,362.636389 327.637655,359.678314 318.879707,361.147915 M366.060365,361.703125 C364.721043,362.193195 362.598218,363.419892 361.342299,364.428645 L359.059364,366.262907 L359.059364,363.799164 L359.059364,361.33542 L353.884711,361.33542 L348.710059,361.33542 L348.710059,380.207683 L348.710059,399.079947 L353.823224,399.079947 L358.93639,399.079947 L359.153726,388.882837 C359.346101,379.837543 359.523257,378.374639 360.723776,375.932811 C362.338268,372.649646 364.738698,371.075943 368.132661,371.075943 L370.626235,371.075943 L370.626235,365.90129 C370.626235,360.085589 370.584838,360.047845 366.060365,361.703125 M435.736152,361.516837 C430.240671,363.07593 425.264481,367.359934 422.86466,372.5979 C420.98413,376.702313 420.939689,384.099631 422.771516,388.152906 C425.447725,394.075144 430.14631,397.750365 437.105305,399.364248 C441.679089,400.424748 445.680009,399.91337 450.072376,397.706533 C453.256309,396.106652 457.079465,393.078567 457.050243,392.180004 C457.037459,391.789774 455.693875,390.040741 454.064164,388.294144 C451.507886,385.554622 450.995899,385.24536 450.336588,386.039822 C447.660379,389.264543 442.98371,390.863207 439.114288,389.876979 C434.43701,388.684373 432.028666,385.54549 431.983616,380.583302 C431.948307,376.640826 433.329635,373.871473 436.345544,371.838748 C439.886833,369.45232 446.663193,370.308268 450.148474,373.582301 L451.457965,374.81326 L454.262018,371.169087 L457.066071,367.525522 L455.09118,365.855023 C450.176478,361.698255 441.752752,359.810419 435.736152,361.516837 M566.830199,361.790181 C559.975306,364.09625 555.884895,368.442958 554.138906,375.277152 C551.16622,386.913425 557.959017,397.410665 569.888114,399.616284 C575.367767,400.629299 582.526443,398.765206 586.725826,395.231223 L588.434679,393.793887 L585.56366,390.536899 L582.69264,387.280521 L580.870554,388.578445 C578.014754,390.611171 574.038186,391.397718 570.893823,390.550901 C568.343024,389.864194 564.21913,386.527456 564.21913,385.15039 C564.21913,384.703544 568.565838,384.439941 577.764545,384.328533 L591.309959,384.164771 L591.25943,378.685727 C591.202205,372.529716 590.157534,369.712879 586.619289,366.174634 C582.038199,361.593544 573.221199,359.63996 566.830199,361.790181 M247.652133,380.207683 L247.652133,399.079947 L253.131177,399.079947 L258.610221,399.079947 L258.610221,380.207683 L258.610221,361.33542 L253.131177,361.33542 L247.652133,361.33542 L247.652133,380.207683 M267.389476,362.153624 C267.21232,362.61569 267.150833,364.607018 267.2525,366.578257 L267.43757,370.162769 L275.533162,370.332619 L283.628754,370.503079 L274.772184,380.48955 L265.915613,390.476021 L265.915613,394.777679 L265.915613,399.079947 L282.352746,399.079947 L298.789878,399.079947 L298.789878,394.833687 L298.789878,390.588037 L289.32209,390.420013 L279.854302,390.252598 L289.025004,379.903292 L298.195706,369.553986 L298.036205,365.596899 L297.876704,361.639811 L282.794113,361.476658 C270.424258,361.343334 267.653688,361.465091 267.389476,362.153624 M463.769986,374.154557 C463.769986,389.592068 464.151693,391.525562 467.977892,395.474736 C473.47033,401.14372 481.42164,401.428021 487.055924,396.157181 L488.730077,394.590783 L488.730077,396.835365 L488.730077,399.079947 L493.904729,399.079947 L499.079382,399.079947 L499.079382,380.207683 L499.079382,361.33542 L493.95952,361.33542 L488.840266,361.33542 L488.632671,373.358878 C488.450037,383.952306 488.2881,385.585061 487.270216,387.087537 C485.202181,390.138147 480.658836,391.493297 477.738505,389.929943 C475.107955,388.522437 474.728075,386.455011 474.728075,373.541513 L474.728075,361.33542 L469.249031,361.33542 L463.769986,361.33542 L463.769986,374.154557 M390.848779,370.870783 C387.54735,372.498059 386.186112,375.017811 385.970603,379.900857 C385.753876,384.811907 386.874645,387.282347 390.253998,389.342468 C396.400877,393.090743 403.12549,388.217437 403.051219,380.068881 C402.981818,372.463968 396.906775,367.884704 390.848779,370.870783 M524.216019,371.054636 C520.1597,373.52812 518.455109,380.918742 520.844581,385.674552 C524.570331,393.090743 534.612201,391.619315 536.811124,383.335 C539.13363,374.589228 531.164056,366.818117 524.216019,371.054636 M568.554271,370.899396 C566.745578,371.790654 564.227653,374.811434 564.221565,376.0984 C564.220347,376.349827 567.917485,376.554987 572.437696,376.554987 C577.770024,376.554987 580.656262,376.330346 580.656262,375.915765 C580.656262,374.431553 578.680154,371.638458 577.023656,370.781901 C574.697497,369.578946 571.134292,369.628867 568.554271,370.899396 M317.189117,384.199471 C315.521662,385.367117 315.393209,388.141339 316.941343,389.542148 C320.865556,393.093786 328.609272,389.830711 328.617814,384.621358 C328.62023,383.311257 328.401677,383.251597 323.581336,383.251597 C320.005346,383.251597 318.148559,383.526767 317.189117,384.199471 M434.797193,14.5323062 C436.488991,15.5027826 440.814609,17.8405388 444.409678,19.7268927 C448.004747,21.6140157 452.50339,24.1055716 454.406662,25.2644527 C457.59493,27.2046366 462.811049,30.057622 474.785129,36.4080136 C477.322824,37.7545305 480.783319,39.6585714 482.475116,40.6405828 C484.166913,41.6225942 486.24321,42.8130042 487.089109,43.2867075 C487.864516,43.7202305 490.982298,45.6987522 494.265663,47.8374169 L494.863978,48.2277214 C494.96384,48.2929635 495.063732,48.3582756 495.163595,48.4236191 C496.319153,49.1797371 497.624157,50.0176888 498.948365,50.8562647 L499.832586,51.4145166 C502.337841,52.9914423 504.80835,54.506207 506.366369,55.4115108 C519.695425,63.1530212 526.827888,70.5361782 528.874963,78.7121729 C529.298681,80.4039702 529.92926,84.5565635 530.276847,87.940158 C530.573846,90.8339846 530.797699,114.193526 530.88337,138.96281 L530.88961,140.846423 C530.895582,142.732128 530.900747,144.623183 530.905078,146.511237 L530.909129,148.397983 C530.909757,148.712171 530.910362,149.026198 530.910944,149.340026 L530.914148,151.220294 C530.91804,153.723305 530.920405,156.208616 530.921175,158.656438 L530.920843,162.983527 C530.913077,179.148237 530.830926,193.070808 530.653657,198.675978 C529.918494,221.96126 526.492605,227.586486 504.095516,242.282821 C492.821383,249.68022 489.778973,251.684748 487.474877,253.007255 L487.298969,253.10772 C487.211617,253.15736 487.125072,253.206169 487.03891,253.254416 L486.866966,253.35024 C486.809737,253.381985 486.752552,253.413559 486.695283,253.445042 L486.523101,253.539297 L486.262237,253.680698 L486.066153,253.786029 L485.866096,253.892803 C485.427591,254.126174 484.953845,254.374265 484.397613,254.666777 L483.62359,255.074206 C476.680234,258.732611 470.399048,262.138277 468.438905,263.30079 L468.239079,263.420626 C468.057407,263.531029 467.930754,263.612828 467.86414,263.663294 C467.44119,263.983197 463.807671,265.971059 459.789653,268.079653 C458.815588,268.590828 457.79294,269.132327 456.775393,269.675074 L456.014028,270.081914 C453.10556,271.63888 450.350193,273.146074 449.02367,273.912509 C447.120398,275.012177 444.433517,276.447898 443.053164,277.103854 C441.672811,277.75981 438.278451,279.683076 435.510055,281.377949 C432.74166,283.072053 427.728557,285.87813 424.370339,287.612222 L418.26372,290.765886 L418.189127,300.472957 C418.147602,305.812115 418.019948,313.468267 417.905367,317.486285 C417.790017,321.504304 417.650828,328.58832 417.59546,333.229228 C417.49626,341.555946 417.475497,341.646688 416.023627,340.150216 C415.21464,339.315853 413.282915,336.211405 411.731076,333.25076 C403.74041,318.009204 398.741149,309.027299 398.246683,309.027299 C398.165077,309.027299 397.790857,309.526165 397.189736,310.419667 L396.981048,310.731974 C395.281915,313.290632 392.08558,318.460917 388.561913,324.38728 C383.538813,332.834731 379.170131,339.75572 378.852534,339.767255 C378.534938,339.778021 378.274247,337.797849 378.273478,335.365506 L378.272805,335.105299 C378.261836,332.48615 378.120103,323.506671 377.95129,314.148244 L377.932772,313.126109 C377.817974,306.81722 377.692628,300.435268 377.5883,295.801289 L377.506787,292.187764 L366.933054,286.263398 C361.117885,283.00515 354.456049,279.225521 352.129828,277.864394 C349.989704,276.612863 343.667673,272.995383 337.564989,269.529947 L336.770592,269.079003 C336.506449,268.929114 336.243083,268.779719 335.980854,268.631026 C323.294682,261.437811 304.067406,250.123533 296.271296,245.264229 C295.79053,244.964605 295.291989,244.657306 294.791056,244.351426 L294.189775,243.985634 C292.18824,242.772476 290.246903,241.640223 289.350308,241.170849 C287.389072,240.144236 284.726114,238.580705 282.057519,236.926783 L281.295511,236.452159 L280.599815,236.014743 C276.67065,233.533217 273.008942,231.032125 271.890191,229.971151 C270.687477,228.830726 268.925701,226.340708 267.974449,224.437436 C264.709773,217.902916 264.176572,216.699494 264.152879,187.72461 L264.153595,182.248353 C264.157404,178.005719 264.167683,173.253056 264.179441,167.916028 C264.293252,115.857889 264.875384,89.122878 266.003506,84.0897812 C268.183617,74.358871 273.355903,68.4506536 288.715884,58.1414563 C294.230374,54.4410344 298.9874,51.4127173 299.288079,51.4127173 C299.588757,51.4127173 301.478956,50.2446082 303.489119,48.8158085 C305.498512,47.3877778 308.181549,45.6459956 309.450397,44.9438998 C309.5297,44.9000668 309.618916,44.8501 309.717322,44.7944305 L310.039387,44.6107461 C311.316083,43.8776725 313.617315,42.5067963 315.981019,41.0723579 L316.626492,40.680003 C317.056876,40.4179576 317.486434,40.1555368 317.909383,39.896192 C318.996967,39.2295524 320.219299,38.4956187 321.455278,37.7647721 L322.279958,37.2787708 C324.614748,35.9074396 326.902219,34.6029264 328.32624,33.8395578 C330.671687,32.5830138 334.651255,30.2037317 337.169726,28.5519224 C337.362047,28.4257708 337.551768,28.3018851 337.740128,28.1795618 L338.021802,27.9971608 C338.068629,27.9669267 338.115409,27.9367682 338.162163,27.9066744 L338.442516,27.7267999 C338.535962,27.6670418 338.629456,27.6074546 338.72315,27.5479503 L339.146662,27.2804436 L339.444546,27.0940686 C339.494489,27.0629461 339.544593,27.0317854 339.594882,27.0005738 L339.898999,26.812595 L340.208592,26.6227978 C343.43964,24.6501008 347.716699,22.2901631 358.281818,16.5670769 C360.608039,15.3066879 364.853681,12.9227918 367.716663,11.2702135 C379.067085,4.7152681 388.155881,1.12250594 395.193758,0.408875095 C395.367913,0.391233359 395.545528,0.373282959 395.724411,0.355241776 L396.262671,0.301063756 C397.427646,0.184032101 398.553604,0.0723702889 399.038752,0.0259137173 C404.114912,-0.4562485 419.643304,5.84262027 434.797193,14.5323062 Z M292.316336,92.9409561 C291.774192,92.9409561 291.082093,93.5438519 290.778338,94.2843977 C290.48289,95.0028752 290.24173,118.395209 290.229017,146.826481 L290.228773,152.370977 L290.229356,155.176583 C290.241388,199.234734 290.389656,203.641311 291.562717,206.241388 C294.365718,212.451822 297.221779,214.915694 311.605901,223.530787 C311.99723,223.765162 312.388919,223.999392 312.780166,224.233011 L313.561836,224.699298 C319.182202,228.048712 324.6003,231.207137 327.423806,232.784458 L327.792523,232.989617 C328.320801,233.282263 328.735975,233.506113 329.01757,233.649272 C330.639705,234.473941 335.75627,237.425031 341.083328,240.598354 L342.174848,241.249938 C342.660347,241.540372 343.145736,241.83157 343.628547,242.122101 C349.784382,245.825599 358.627867,250.866385 363.28031,253.324105 C367.932752,255.781825 373.815593,258.956252 376.353288,260.377362 C377.894032,261.240645 380.412748,262.581009 383.005876,263.925504 L383.922715,264.399433 C385.298196,265.108273 386.664738,265.802676 387.88827,266.412464 L394.809258,269.862962 L395.006891,214.681918 C395.040973,205.144242 395.067594,197.098694 395.072044,190.296877 L395.072112,186.600391 C395.049933,154.483125 394.388855,153.047653 391.180353,150.06526 C389.427805,148.435752 386.07574,146.414823 363.664809,133.474112 C363.426419,133.336447 363.188233,133.198844 362.95049,133.061441 L362.238827,132.649974 C356.205057,129.16001 350.6149,125.891589 349.438332,125.163543 C348.662925,124.68373 347.392119,123.92793 346.086611,123.166594 L345.373843,122.752396 C344.781617,122.409483 344.199528,122.075585 343.670841,121.776103 C341.76757,120.697967 339.172199,119.181501 337.903351,118.40635 C334.544364,116.352355 329.835785,113.650862 326.752869,112.007512 C325.272546,111.218519 322.331126,109.540564 320.21638,108.277099 C318.22603,107.088679 314.890331,105.1673 312.565398,103.868928 L312.141893,103.633115 C310.566065,102.757945 307.675718,101.129352 304.725892,99.456853 L303.88255,98.9784142 C302.758828,98.3405372 301.643819,97.7060948 300.606911,97.1143131 C296.588893,94.8203898 292.857711,92.9409561 292.316336,92.9409561 Z M503.383423,92.974589 C502.880498,92.9940178 497.109162,95.9746569 490.558831,99.59741 C484.0085,103.219394 472.069794,109.995811 464.028374,114.655175 C455.986954,119.314538 443.006255,126.822273 435.181693,131.338602 C428.534997,135.17503 422.958366,138.44225 418.444697,141.144583 L417.6592,141.615603 C410.301776,146.034598 405.930692,148.866664 404.512485,150.132163 C403.505096,151.031123 402.041692,153.151252 401.261158,154.843049 L401.221369,154.930237 L401.144026,155.106641 C399.917499,157.98984 399.840333,162.699702 399.824668,213.863703 C399.82433,214.961019 399.82401,216.036819 399.823719,217.091526 L399.822945,220.19279 L399.822582,230.087094 C399.831175,268.080354 399.989805,269.750758 401.213514,269.806646 L401.299608,269.808363 C402.015125,269.808363 404.318471,268.835975 407.750286,267.130579 L408.316615,266.847641 C413.693325,264.147623 421.598164,259.798128 430.438509,254.629096 L430.986953,254.30849 L432.082993,253.668269 C432.448081,253.455121 432.812865,253.24226 433.177207,253.029763 L434.268764,252.393445 L435.356834,251.759788 C451.828586,242.171901 466.810442,233.665421 467.259707,233.665421 C467.512707,233.665421 468.853072,232.800298 470.239577,231.742924 C471.626082,230.685551 472.921076,229.820428 473.11717,229.820428 C473.314034,229.820428 475.845578,228.400087 478.743934,226.663688 C495.138988,216.840498 500.584268,212.664065 503.081976,207.993936 C503.200401,207.772587 503.310549,207.566398 503.413073,207.356284 L503.4991,207.17478 C504.775988,204.393892 504.796289,200.028309 505.000627,152.151554 C505.030672,145.121008 505.047086,138.314076 505.051067,132.010546 L505.051349,126.52319 C505.051247,126.339708 505.051134,126.156778 505.051009,125.974408 L505.050127,124.886984 C505.035032,108.858554 504.930678,97.3984941 504.761469,96.2068945 C504.506161,94.4089755 503.886348,92.9547988 503.383423,92.974589 Z M339.422123,156.152654 C339.797395,155.176026 340.05424,155.195251 341.266951,156.293381 C342.882618,157.755248 346.613031,164.360947 347.28206,166.944014 C347.662714,168.415493 347.939554,177.64021 348.034429,186.956629 L348.044935,188.07455 C348.121921,197.013587 348.028327,205.754704 347.695012,207.519464 L347.041363,210.979958 L344.686689,208.506089 C339.602838,203.164624 339.464418,202.411774 339.214494,178.750451 C339.17868,175.377843 339.160758,172.138694 339.159005,169.217495 L339.158926,168.428825 C339.161751,161.534329 339.257508,156.582455 339.422123,156.152654 Z M452.622585,156.917039 C453.680727,155.519768 454.948037,154.510842 455.437889,154.67387 C456.078465,154.886882 456.386833,160.998115 456.533712,176.395008 C456.567394,179.9141 456.587388,182.907597 456.590089,185.467994 L456.590061,186.648785 C456.57911,195.96948 456.304478,199.112438 455.561698,201.323641 C454.236713,205.268604 449.510447,211.319087 448.518438,210.339382 C448.171138,209.996573 447.885763,200.971844 447.87079,190.090328 L447.870978,187.867552 C447.897666,166.584039 448.605043,162.220254 452.622585,156.917039 Z M393.595778,29.0756105 C393.056092,29.2392251 391.771643,29.8310924 389.992072,30.7166073 L389.470366,30.9774856 C386.618381,32.4102121 382.671929,34.4950199 378.514308,36.7556382 L377.732496,37.1814481 C377.601853,37.252721 377.471058,37.3241366 377.340137,37.3956803 L376.510349,37.8499294 C375.5409,38.3815626 374.567719,38.9185051 373.601649,39.4549102 L372.775582,39.914418 C368.793789,42.1334185 364.987204,44.3145269 362.126811,46.04203 C359.016088,47.9203715 351.469017,52.3319244 343.607109,56.8755085 L342.623029,57.4439704 C342.458841,57.5387708 342.294592,57.6335851 342.130318,57.7283915 L341.144672,58.2969623 L340.16022,58.8643031 C339.013083,59.5250778 337.872033,60.1812131 336.749853,60.825262 C300.288546,81.749718 293.839722,85.7538945 294.962461,86.7743559 C295.281164,87.0638685 303.86683,92.2047654 312.953533,97.5906041 L314.00378,98.212872 C314.179045,98.3166771 314.354384,98.4205073 314.529743,98.5243298 L315.58169,99.1469102 C322.064699,102.982354 328.423321,106.717561 331.859937,108.693093 L332.391171,108.997763 C332.727663,109.190244 333.028237,109.36111 333.289358,109.508266 C380.462818,136.091015 388.492703,140.998765 394.14792,146.704736 L397.332343,149.917612 L399.146411,147.642145 C401.596441,144.569995 407.453905,140.803439 428.504477,128.764764 C431.084872,127.288893 433.841328,125.708803 436.598832,124.125299 L437.701475,123.491954 L438.725107,122.903727 C445.367687,119.085756 451.75292,115.399576 455.40474,113.271386 L455.944659,112.956456 C459.697681,110.765271 464.621664,107.900882 469.775653,104.908378 L470.809239,104.30833 C471.327286,104.007614 471.847006,103.70598 472.367458,103.403973 L474.450939,102.195251 L475.491424,101.591821 L475.93543,101.334361 L476.821239,100.820792 C486.546089,95.1831188 495.579214,89.9642971 497.656689,88.7929776 C499.239289,87.900939 500.53659,86.9181586 500.540439,86.6090211 C500.546392,86.0572959 493.667196,81.4604826 485.581816,76.4777811 L484.875838,76.0436191 C482.395241,74.521272 479.818166,72.9730055 477.304707,71.5019759 L476.588446,71.0838726 C476.112276,70.806657 475.638968,70.5326 475.169628,70.2624147 C458.134768,60.4569116 446.3514,53.5759108 445.563176,52.9745537 C445.140227,52.6515743 443.236955,51.5203771 441.333683,50.4606968 C429.747948,44.0095663 419.28572,38.019835 413.137575,34.319413 C403.214415,28.3458307 399.389415,27.3192174 393.595778,29.0756105 Z" id="Combined-Shape"></path>
        </g>
    </g>
</svg>