<?xml version="1.0" encoding="UTF-8"?>
<svg width="800px" height="400px" viewBox="0 0 800 400" version="1.1" xmlns="http://www.w3.org/2000/svg" xmlns:xlink="http://www.w3.org/1999/xlink">
    <title>modus</title>
    <g id="Page-1" stroke="none" stroke-width="1" fill="none" fill-rule="evenodd">
        <g id="modus" fill="#000000">
            <line x1="0" y1="0" x2="800" y2="400" id="Path" fill-rule="nonzero"></line>
            <path d="M265.890207,19.7642666 C265.890207,21.6064614 264.992003,22.4575338 263.051504,22.4575338 C260.630257,22.4575338 260.346117,23.0029204 261.125818,26.1607761 C261.863773,29.1462628 261.70891,29.5381332 260.329957,28.1807265 C257.497987,25.3945416 255.254495,26.2563871 253.315343,30.8739937 C252.304021,33.2817745 247.386115,41.0074114 242.386065,48.0435719 C237.387361,55.0797324 230.554542,66.2810306 227.202771,72.9347471 C223.851,79.5884637 219.735688,86.860285 218.059129,89.0943502 C216.381224,91.3284153 212.44636,98.3066705 209.312744,104.602183 C202.003217,119.289915 190.989101,137.294406 172.006954,165.585831 C156.064159,189.345834 153.679271,194.226034 157.324608,195.62384 C159.235481,196.357755 159.250294,196.756359 157.467351,199.302843 C155.346403,202.330075 154.818523,207.196809 156.435829,208.814116 C156.969096,209.347383 157.422912,211.114166 157.445805,212.740899 C157.475431,214.88474 158.282064,215.673867 160.374733,215.607882 C162.821566,215.529778 163.031641,215.885289 161.755032,217.930825 C159.81588,221.036162 162.005506,223.442596 166.768549,223.442596 C169.670544,223.442596 169.99239,223.819654 168.876031,225.905589 C167.872788,227.780103 168.243113,229.107884 170.427352,231.460453 C172.005607,233.161251 177.514685,242.127137 182.669598,251.385243 C187.825858,260.643349 196.99374,275.974773 203.044164,285.453726 C209.094589,294.934027 216.432396,306.447744 219.351897,311.039765 C240.81993,344.818721 265.118586,379.575334 269.159834,382.288801 C271.002028,383.525011 276.815446,382.162217 279.193601,379.936232 C280.763775,378.467055 280.642578,377.610596 278.404473,374.380022 C274.044074,368.089896 273.451555,366.224809 277.29754,370.898974 C281.088314,375.505808 284.743078,376.662566 284.743078,373.255583 C284.743078,372.14461 285.673601,371.235633 286.81016,371.235633 C290.837941,371.235633 295.237393,367.081268 296.105972,362.456928 C296.581333,359.922564 298.384476,356.164109 300.112207,354.105107 C301.839938,352.047451 308.10717,340.66705 314.037745,328.816675 C325.563581,305.791934 339.206326,280.96001 346.961589,268.89148 C349.579445,264.817913 355.500593,253.910181 360.120892,244.652075 C364.739846,235.39397 370.12234,225.710327 372.080345,223.132871 C374.038351,220.555414 376.248176,216.379503 376.990171,213.851872 C377.732167,211.324241 379.550122,208.585188 381.030072,207.765088 C384.893564,205.622594 385.794462,203.920449 384.125983,201.911272 C383.00289,200.556559 383.17122,200.345137 384.858551,200.992868 C386.417953,201.590773 387.461594,200.749127 388.479649,198.074713 C389.682193,194.908777 389.426333,193.663141 386.859649,190.194213 C376.700645,176.461244 361.926728,154.423585 354.304782,141.634606 C345.371215,126.641188 327.491961,97.6522066 317.866224,82.5497109 C314.975002,78.014249 305.984876,63.0922022 297.887568,49.3902055 C281.680833,21.9633193 279.014498,18.40686 275.375894,19.3589299 C274.029261,19.7104013 272.519684,19.340077 272.022777,18.5347901 C270.41355,15.9317474 265.890207,16.8380318 265.890207,19.7642666 M278.718239,52.0269141 C277.18173,54.511453 313.451959,112.681984 316.537096,112.681984 C317.264279,112.681984 315.104278,108.852158 296.410311,76.996194 C281.528663,51.6363903 280.156444,49.6999312 278.718239,52.0269141 M51.5438462,63.8665166 C50.4449932,65.1619781 48.7994069,68.8423277 47.8850427,72.0419291 C46.4454914,77.0823786 45.9431971,77.6291118 44.1319749,76.1262687 C42.3746181,74.6678645 41.6285831,74.8981389 39.4672362,77.5671667 C36.6608518,81.0334015 36.6810513,81.0360948 34.4308266,76.7093611 C33.5353152,74.9870167 32.0822976,74.0362934 30.9861379,74.4564431 C28.8126712,75.2913559 24.8427954,84.4390378 24.8427954,88.613602 C24.8427954,90.4746496 24.2031445,91.1789389 22.9494286,90.6968441 C20.5564607,89.7797866 16.7629939,93.8708595 16.7629939,97.3694135 C16.7629939,98.8291643 16.1219963,100.664626 15.3382556,101.448367 C14.5531682,102.233454 13.341198,112.411311 12.6422951,124.067771 C11.944739,135.724231 10.7974071,150.504882 10.0944644,156.913511 C9.39152167,163.323487 8.17281828,179.778002 7.3877309,193.479999 C5.79601,221.27317 4.14907712,247.656415 1.63491222,285.7244 C-0.491422216,317.89009 -0.537207758,329.770091 1.45984985,330.443408 C2.30149584,330.727548 3.66024913,329.038869 4.47765572,326.693033 L5.9643392,322.426898 L8.6468333,325.62246 L11.3293274,328.816675 L12.1925195,325.749043 C12.7904248,323.629442 13.7680808,322.907646 15.3584551,323.411287 C16.9205501,323.908195 18.1540664,323.055776 19.203094,320.755726 C20.8796528,317.075376 23.4961619,316.193331 23.4961619,319.310788 C23.4961619,322.739317 25.6763616,322.748744 30.2966615,319.340414 C32.8970109,317.421461 35.8043928,316.329341 37.1617995,316.760264 C41.6568624,318.186349 43.2647429,311.473381 44.2154662,287.309388 C44.7056408,274.848987 45.9916759,254.245493 47.0703294,241.523846 C48.1503295,228.802198 49.4471377,207.509228 49.9521253,194.205835 L50.8705294,170.018949 L54.4485348,181.412816 C60.559558,200.871671 76.4188618,240.93402 79.3168173,244.234619 C81.7569173,247.012724 82.6228027,247.220106 86.8256461,246.032375 C90.8897863,244.885043 92.6686893,242.889332 99.1433035,232.214568 C103.305748,225.35347 110.201859,212.770525 114.467994,204.253068 C121.93373,189.347181 122.269042,188.917605 123.385401,192.806682 C124.869392,197.977755 125.129292,264.53108 123.820364,303.936272 C122.908693,331.367199 123.02585,334.44695 125.056574,336.131588 C128.07034,338.633633 129.794031,336.753733 131.997123,328.562161 C132.95458,324.998968 133.778719,323.4261 133.829891,325.0663 C133.879717,326.7065 135.045902,328.651039 136.422161,329.387647 C138.459618,330.47842 139.209693,330.09867 140.462062,327.351537 C141.307748,325.495876 142.079369,321.127397 142.177673,317.643656 C142.344656,311.661909 142.401214,311.571685 143.187648,316.008843 C144.283808,322.192584 147.841614,322.913033 150.264208,317.441661 C152.045804,313.415226 155.821765,311.983755 157.49967,314.698568 C158.675281,316.601361 160.342413,315.304553 162.63977,310.699066 C164.257077,307.456373 164.487352,300.50909 163.959471,270.763301 C163.341366,235.877411 163.225556,234.622349 160.249496,230.612074 C158.559471,228.334916 155.470293,223.504542 153.383011,219.876711 C149.852138,213.736062 149.609744,212.363842 149.861564,199.957307 L150.132238,186.633714 L156.656677,177.600496 L163.181117,168.567278 L163.913686,138.457898 C164.376928,119.464977 165.188948,107.80717 166.116778,106.87934 C166.924758,106.07136 167.592689,103.562581 167.600769,101.30293 C167.608848,99.0446257 168.523213,94.2021313 169.632839,90.5433279 C172.237228,81.9571921 170.474485,79.7285136 165.127003,84.8511077 C161.356429,88.462779 161.306603,88.4722054 161.41568,85.4745991 C161.513985,82.7692122 160.820468,82.4015812 155.129595,82.1362944 C151.612188,81.9733517 148.733085,82.3733019 148.733085,83.0250726 C148.733085,83.6768432 147.673285,85.2591377 146.376477,86.5397862 C145.079668,87.8204348 142.504905,91.6327545 140.653284,95.0114581 C137.829393,100.162332 136.636276,101.15884 133.246799,101.193853 C128.516075,101.242332 128.86216,100.63096 112.3053,138.268022 C96.693777,173.757204 91.1227539,185.400198 89.7559208,185.400198 C89.097417,185.400198 86.8929778,179.794162 84.8568678,172.943837 C82.8221045,166.092165 79.7127275,155.942588 77.9486375,150.387724 C75.2796098,141.977998 69.1537736,119.249516 63.7941719,97.8690146 C63.1437479,95.2767449 62.5983613,90.958091 62.580855,88.2702104 C62.5633488,85.5836764 61.6395582,82.6318556 60.5285855,81.7094116 C59.2317773,80.6334513 58.5086351,77.6506579 58.5086351,73.3764429 C58.5086351,66.8264172 56.7714778,61.5099078 54.6303304,61.5099078 C54.0297318,61.5099078 52.6413526,62.571055 51.5438462,63.8665166 M757.411466,64.1169904 C749.893211,65.8756939 721.615252,81.6865188 698.159588,97.2455232 C669.911256,115.985276 665.79729,119.574055 668.184871,123.397147 C669.403575,125.34842 669.375295,126.238544 668.059634,127.329318 C666.283425,128.802535 666.008712,143.351564 667.704123,146.096003 C668.202378,146.90129 667.379585,148.216951 665.878088,149.020891 C662.356641,150.906178 662.390307,155.468573 665.954846,159.263386 C668.6333,162.112863 668.65754,162.413162 666.48946,165.721841 C664.342926,168.998201 664.356392,169.429123 666.731854,173.497303 C669.503226,178.241494 702.30722,208.973019 722.398993,225.647036 C729.435153,231.486039 736.91705,238.09397 739.024531,240.329382 L742.85705,244.396215 L732.291363,251.50644 C726.480639,255.417064 714.756847,263.789085 706.23939,270.11153 C690.679039,281.66026 662.624621,300.851135 653.581977,306.132632 C649.663273,308.421909 648.563073,310.00959 647.861477,314.396922 C647.384769,317.383755 646.623921,320.789392 646.172799,321.96635 C645.178983,324.554579 649.698286,324.910091 654.043872,322.583108 L656.883922,321.064105 L653.972501,325.99817 C650.115742,332.536077 652.737638,333.687448 660.426915,328.832834 L666.038337,325.291188 L663.137689,329.215278 C661.319733,331.672884 660.402676,334.593733 660.682776,337.036526 C661.109659,340.778821 661.438237,340.95119 668.820482,341.317474 C676.383177,341.690492 676.722528,341.546402 688.757393,332.839069 C715.694104,313.349241 743.893958,291.56071 755.185481,281.513477 C769.226829,269.016717 774.183787,265.685145 778.868726,265.593574 C781.012566,265.550482 782.324188,264.758662 782.324188,263.504946 C782.324188,262.393973 783.832417,261.177963 785.674612,260.800905 C787.516807,260.425195 789.232418,259.038162 789.486932,257.718461 C789.740099,256.39876 792.418553,253.01467 795.437705,250.198859 C799.364489,246.537362 800.591272,244.538958 799.746933,243.182898 C799.097855,242.139257 798.742344,239.926738 798.956459,238.266339 C799.351023,235.217561 794.209576,229.373171 787.037405,224.719205 C785.185784,223.516661 772.247328,213.143543 758.285431,201.667531 C733.842685,181.575758 696.812955,145.380941 696.812955,141.580741 C696.812955,139.206626 721.731063,123.997746 743.271814,113.224677 C765.147876,102.283279 772.691717,97.1095133 771.79082,93.6634779 C771.427229,92.273752 771.679049,91.1358467 772.351019,91.1358467 C774.493513,91.1358467 773.6586,85.6981402 771.381443,84.8241751 C770.177553,84.3622797 767.101841,84.7406838 764.547278,85.6631278 C761.992714,86.5869184 759.621292,87.0609334 759.275207,86.7161952 C758.930469,86.371457 759.979496,83.8343994 761.604883,81.0778404 C764.065183,76.9086628 764.244285,75.8650218 762.67007,74.8685129 C761.629123,74.2100091 760.002389,73.6619293 759.054359,73.6498096 C757.92992,73.6363432 758.371616,72.222378 760.324235,69.5802829 C763.705632,65.0084618 762.585232,62.9063668 757.411466,64.1169904 M374.519099,70.4879139 C374.024884,70.9807818 373.620894,72.7987371 373.620894,74.5278147 C373.620894,76.981381 372.882939,77.6695108 370.25431,77.6695108 C365.477801,77.6695108 365.811766,82.4837259 371.025931,88.8088638 C374.89077,93.4991886 374.976954,93.8291138 372.329473,93.8291138 C368.219547,93.8291138 367.419647,97.5013836 370.756605,101.053803 C373.475458,103.947719 373.620894,105.433055 373.620894,130.430615 C373.620894,154.656553 373.833662,157.029321 376.295308,160.157551 C384.419549,170.486231 396.513665,191.56374 396.506932,195.384139 C396.500199,199.652968 393.288478,205.687233 386.714213,213.785887 C384.656556,216.318905 380.227479,224.149579 376.871668,231.18574 L370.770071,243.978759 L371.186181,277.772529 C371.518799,304.850637 371.234659,312.006648 369.758749,313.786897 C368.746081,315.00964 368.254559,317.304304 368.669322,318.886599 C369.097552,320.524105 368.580445,322.603307 367.468125,323.71428 C365.096704,326.087048 366.114759,328.143358 369.660445,328.143358 C372.551667,328.143358 373.121293,330.797573 370.740445,333.178421 C369.593113,334.325753 369.935158,336.259518 372.093812,340.854232 C373.681493,344.231589 375.498101,346.996228 376.128326,346.996228 C379.427578,346.996228 402.54389,329.751238 411.326635,320.73822 C416.881498,315.03792 425.668282,306.971585 430.852822,302.811833 C436.037361,298.653429 449.393273,286.139163 460.532626,275.001157 C484.234724,251.304445 512.232582,225.007385 526.066549,213.449229 C531.445004,208.955512 536.818072,203.684789 538.005803,201.73621 C539.19488,199.787631 541.174431,197.360997 542.405255,196.345635 C545.217026,194.022693 545.308597,189.611121 542.566851,188.5594 C541.424905,188.120398 540.657324,186.776457 540.860666,185.57122 C541.434332,182.17501 537.535828,177.592416 530.060665,172.875159 C526.304903,170.505084 514.540712,162.739048 503.915773,155.615356 C493.290834,148.491664 482.520459,141.588821 479.982055,140.275853 C472.939161,136.633209 430.952472,107.780238 420.187484,99.1860222 C414.943692,94.9993384 405.502444,88.109961 399.206932,83.876145 C392.91142,79.6436756 385.701544,74.6961439 383.184686,72.8849217 C378.53476,69.5358439 376.133712,68.8719536 374.519099,70.4879139 M263.630556,78.0061692 C261.334546,81.895247 256.633448,90.226869 253.182026,96.522381 C249.730604,102.817893 243.230404,114.028618 238.735341,121.435102 C226.203569,142.087075 201.440324,184.939649 198.282468,191.438503 L195.463964,197.242493 L203.122269,210.95257 C211.012195,225.080103 228.356836,252.865194 247.694494,282.357816 C253.763772,291.615922 261.205269,303.462257 264.231155,308.681809 C270.332752,319.209791 274.74567,325.128245 275.734099,324.103457 C276.090957,323.733133 282.459187,312.432184 289.885871,298.990087 C297.313902,285.547991 305.058392,271.913326 307.097195,268.690832 C309.135998,265.468337 316.464378,251.441802 323.382035,237.521651 C330.299692,223.600153 337.333159,209.965488 339.015104,207.222395 C345.892362,195.992817 345.907175,196.233865 337.723683,184.546432 C333.64473,178.720895 328.776649,170.923887 326.904828,167.220644 C322.161985,157.833262 306.670312,131.678944 292.607418,109.3154 C286.087018,98.9463215 278.195745,86.0684645 275.072902,80.6994364 C271.950058,75.3304083 269.03729,70.9363429 268.599634,70.9363429 C268.163325,70.9363429 265.927913,74.1170914 263.630556,78.0061692 M561.091142,79.2612317 C558.710294,82.358489 556.763062,85.4180405 556.763062,86.0603847 C556.763062,86.7040755 555.726154,86.6488636 554.457625,85.9405343 C550.517375,83.7347485 542.329843,89.4525547 540.29508,95.8302113 C538.913434,100.166371 537.945204,101.203279 535.264057,101.216746 C529.355029,101.250412 528.525502,105.412856 528.503956,135.159992 L528.483757,162.352564 L535.922561,168.773313 C546.004806,177.479299 553.29952,188.150023 552.030991,192.338054 C550.556428,197.202094 542.099569,209.568231 535.132087,217.046087 L528.858121,223.779255 L528.052834,247.345343 C527.608445,260.306691 527.724255,285.293477 528.310041,302.872432 C529.247298,330.995528 529.668794,335.159319 531.831488,337.548247 C535.071488,341.128945 536.33463,340.972736 537.366152,336.860117 C538.016576,334.271887 538.636027,333.801912 539.957075,334.898072 C542.432187,336.953035 548.062462,335.213184 557.436379,329.496725 C571.235333,321.082958 595.315835,307.943854 596.939875,307.943854 C597.790947,307.943854 604.476983,304.982607 611.795937,301.364202 C624.777484,294.946147 625.159928,294.847842 627.318582,297.36874 C629.450303,299.858666 629.649605,299.865399 632.830353,297.551883 C634.645615,296.230835 636.148458,294.097767 636.172698,292.810386 C636.200977,291.205199 637.1517,290.569587 639.19589,290.790435 C641.450155,291.032829 642.845267,289.824899 644.919083,285.834824 C646.427313,282.932828 648.721976,279.447741 650.017438,278.091681 C652.866914,275.108887 652.530256,280.570833 652.947712,230.512423 C653.281678,190.367929 654.232401,171.964834 658.491803,123.216699 C660.895544,95.7036278 660.966915,84.7056713 658.770556,79.939935 C656.646915,75.3304083 653.511952,75.8246228 651.729009,81.0495611 C649.801976,86.6946491 647.077737,89.5602854 644.323871,88.8398364 C641.607711,88.1301605 640.616589,90.0329538 638.216888,100.562282 C636.552448,107.866422 636.516089,107.908168 635.530354,103.592207 C634.265865,98.0521568 631.631849,98.0009847 628.906263,103.462931 C627.346861,106.589814 626.786662,111.826872 626.782622,123.325776 C626.779929,131.914605 626.16721,147.122138 625.421175,157.120892 C624.676487,167.119647 623.899479,190.979301 623.696138,210.141897 L623.32716,244.982001 L616.641124,250.404894 C605.326709,259.579509 584.119923,272.965047 575.618625,276.296618 L567.537477,279.4639 L566.683712,276.062304 C566.213736,274.190483 566.221816,261.358412 566.701218,247.545991 C567.553637,222.969928 568.542066,173.957852 569.487403,109.3154 C570.047602,71.0359938 569.344659,68.5218289 561.091142,79.2612317 M636.308708,132.544829 C636.370653,141.886427 636.813695,146.066377 637.561077,144.327873 C639.213396,140.483234 639.213396,118.068518 637.561077,118.068518 C636.740977,118.068518 636.250803,123.728419 636.308708,132.544829 M412.122495,142.644581 C410.996709,150.164183 408.716859,222.777359 408.669727,252.599907 L408.633367,276.034025 L416.525987,268.75951 C420.866187,264.758662 429.181649,257.546092 435.003146,252.731877 C440.824643,247.917662 449.848435,239.959057 455.053174,235.046538 C464.0433,226.562747 470.934024,220.570227 490.667592,204.071272 C495.421209,200.097357 499.539214,196.15576 499.819314,195.311421 C500.464352,193.370922 490.852081,186.676806 453.745593,163.230569 C437.451326,152.934209 421.911175,142.803484 419.212521,140.716202 C416.513867,138.62892 414.007782,136.921389 413.642844,136.921389 C413.277907,136.921389 412.593817,139.496152 412.122495,142.644581 M510.941161,177.956007 C515.476623,182.577654 517.264952,183.636108 518.627745,182.504935 C519.604055,181.694262 520.403955,180.853963 520.403955,180.637155 C520.403955,180.013663 506.998218,171.933862 505.964003,171.933862 C505.450936,171.933862 507.690387,174.644635 510.941161,177.956007 M741.177798,257.213474 C729.187373,267.12739 727.047572,270.050932 735.379194,265.138412 C750.431864,256.26275 753.479296,253.811877 751.870069,251.872725 C751.03381,250.864096 750.237949,250.03861 750.101939,250.03861 C749.965929,250.03861 745.950268,253.267837 741.177798,257.213474 M141.551488,261.709883 C140.311239,262.950133 140.676177,286.302106 141.999917,290.437617 C142.675927,292.549139 143.128396,287.656819 143.211888,277.30794 C143.285952,268.234323 143.144556,260.811678 142.898122,260.811678 C142.650341,260.811678 142.044356,261.215669 141.551488,261.709883 M538.164705,299.190736 C538.202411,311.865251 538.652187,319.073781 539.256825,316.696972 C540.67483,311.123256 540.67483,283.638464 539.256825,280.337865 C538.551189,278.694973 538.124306,286.043552 538.164705,299.190736 M297.903728,315.686997 C296.764476,316.983805 293.076046,322.378419 289.706769,327.676076 C284.275796,336.216426 283.791008,337.589992 285.423127,339.795778 C287.099686,342.060816 287.76627,341.197624 292.875398,330.163308 C295.961882,323.497472 299.051059,316.983805 299.741882,315.686997 C300.432705,314.390189 300.766671,313.330388 300.485224,313.330388 C300.203778,313.330388 299.041633,314.390189 297.903728,315.686997" id="Shape"></path>
        </g>
    </g>
</svg>