<?xml version="1.0" encoding="UTF-8"?>
<svg width="800px" height="400px" viewBox="0 0 800 400" version="1.1" xmlns="http://www.w3.org/2000/svg" xmlns:xlink="http://www.w3.org/1999/xlink">
    <title>netherrealm</title>
    <g id="Page-1" stroke="none" stroke-width="1" fill="none" fill-rule="evenodd">
        <g id="Manufacturer" fill="#000000" fill-rule="nonzero">
            <g id="netherrealm">
                <line x1="0" y1="0" x2="800" y2="400" id="Path"></line>
                <path d="M404.64284,6.9217995 C407.518865,6.9716457 409.980398,7.67986319 411.969562,8.98255516 C410.159376,8.15223121 408.034723,7.66547805 405.558471,7.61563185 C399.297922,7.866201 395.312233,10.3919648 393.795437,15.3862865 L393.480971,16.3955884 L393.445175,16.6886439 C393.294968,17.4182718 393.180556,18.1913897 393.130709,19.0143538 L393.116324,20.1447586 L393.101939,21.2537529 L393.166171,22.6200072 L394.089496,24.2160892 L394.117932,24.2947057 C394.117932,25.561602 393.874388,26.5200541 393.874388,27.786616 C394.611376,29.0244075 395.255362,29.2107453 395.605958,30.3123798 C395.892323,31.2209857 396.04253,32.2660832 396.02848,33.339282 C396.02848,33.339282 396.040323,33.348262 396.059994,33.3667256 L396.094868,33.4015966 C396.359802,33.6823266 397.206607,34.9365858 394.618736,37.6678724 L393.681025,38.5835037 L393.502381,38.7554563 C391.913659,40.1718913 390.089088,41.8178195 388.393648,43.3633863 L386.955468,44.6724344 L386.332892,45.2378041 L385.760497,45.7673782 L384.966303,46.4899808 L384.486576,46.933244 L383.549199,47.7993635 L382.690774,48.5791722 C381.968172,49.8025786 380.801971,50.5823873 379.557154,51.2765542 C378.240412,52.0138765 376.852413,52.6575281 375.786239,53.6521103 C374.927814,54.4389443 374.319623,55.4910671 374.13362,56.9506575 C374.047644,57.5444629 374.019208,58.2098595 374.11221,58.9756176 L374.119235,59.0615939 L372.98147,60.063536 C371.114078,62.109572 370.34096,65.5653521 371.264285,69.0646223 L371.035127,69.0144416 L370.770172,69.3506525 L370.534323,69.5941964 L370.305499,69.5443502 L370.298139,70.2311572 C370.283754,71.3833069 370.212497,72.5782776 370.448347,73.4654731 C370.627659,74.1452548 370.991971,74.6604437 371.736319,74.7822156 C371.743679,75.7624127 371.614882,76.6211724 371.428878,77.4080064 C370.928075,79.4185813 369.890337,80.8925569 368.817138,82.3377621 C367.929943,83.5327328 367.035387,84.706293 366.398761,86.1588581 L366.241528,86.5810454 L366.019729,87.1604656 C366.642305,86.9962073 367.092593,86.6526366 366.971156,85.7366708 C367.859021,85.3429193 368.595674,85.2572775 369.246685,85.4934615 L369.868926,85.8296725 L370.233908,86.1514983 L370.305833,86.2087043 C369.532715,88.3055901 369.840491,90.5663996 370.133546,92.9419558 L370.233908,93.8937171 L370.36973,95.2030998 L370.412886,96.397736 L370.398166,97.3498318 L370.305833,98.601674 L369.425329,99.1744035 C368.409336,99.8538507 367.464935,100.605224 366.68546,101.528215 L366.020064,102.408385 L365.79793,102.279588 L365.633672,102.179561 L365.605236,102.14343 L364.538728,101.392392 L364.116207,101.456623 L364.144977,101.921632 C364.288159,102.722851 364.88163,103.080807 365.068302,103.839539 C364.481522,104.139955 364.187798,104.74112 363.965999,105.420567 L363.630122,106.694489 C362.57064,107.05211 362.899825,106.000322 361.969809,106.222121 C362.077196,106.909262 362.248814,107.581684 362.363226,108.311647 C362.499383,109.091456 362.556255,109.950215 362.399022,110.973568 L362.205993,111.93938 L360.29578,111.93938 L360.29578,112.390003 L360.302805,112.468954 L360.460373,112.869396 L360.782533,113.177171 L361.261926,113.363175 C360.646376,118.436447 359.172735,122.65096 357.040053,126.199742 L356.138807,127.523175 L355.065274,129.090487 C354.228594,129.040306 353.276833,128.890099 353.634788,130.034889 L352.998162,130.156326 L352.697412,130.220892 C352.046401,130.378125 351.330824,130.614643 350.579785,130.864878 L348.733468,131.444298 C348.053687,131.637327 347.395315,131.801585 346.773074,131.887896 L345.162942,131.894921 C344.261696,131.744379 343.560169,131.23655 343.202213,130.163017 L343.181137,130.105811 L343.166752,130.07035 L343.159392,130.063324 L343.152367,130.034554 C342.047944,129.99151 342.108533,131.10924 342.194497,132.253484 L342.21772,132.565356 C342.250947,133.031594 342.271193,133.485012 342.20094,133.847956 L341.62152,134.578253 C340.7554,135.572835 339.574815,136.75342 339.481813,138.027007 L339.818024,139.329365 L339.660456,139.751552 C339.645163,139.767395 339.629281,139.782692 339.613056,139.797684 L339.513552,139.885931 C339.330783,140.048136 339.165937,140.232188 339.34599,140.76052 L339.847129,141.004063 L340.276341,141.269018 L340.748375,141.447996 L341.242153,141.469072 C341.485028,142.506809 340.984559,142.799865 340.76276,143.37962 L340.898583,143.680035 L341.327795,144.073452 L341.914241,144.316996 L342.679999,144.57459 L342.679999,145.99872 C343.717402,146.356675 344.654778,146.835734 345.577769,147.315128 C346.443889,147.75906 347.33075,148.188607 348.254075,148.574664 L349.362735,149.025622 L350.357652,149.290241 L350.600861,149.354473 L351.903553,149.561886 L351.960759,149.576272 L352.811824,148.217043 L353.155395,148.138426 L353.169446,148.760667 L353.183831,149.383243 L353.255137,152.398027 C353.301923,154.40942 353.346528,156.423935 353.384888,158.44187 C353.398939,159.371886 353.427709,160.294877 353.44176,161.224894 C353.456145,161.904675 353.47053,162.584457 353.477555,163.256879 L353.505991,164.874037 L353.527402,166.448374 L353.555837,167.714601 L353.555837,167.915324 L353.584608,169.869028 L353.591968,170.319651 C353.612709,171.521981 353.612709,172.738362 353.627094,173.940358 L353.627094,174.190927 L353.634454,174.763657 L353.641479,175.872317 L353.65553,177.446654 L353.65553,179.341813 C353.669915,180.723121 353.67694,182.104095 353.67694,183.49176 C353.67694,185.924857 353.662555,188.372339 353.641479,190.826177 C353.641479,191.520678 353.641479,192.221536 353.634454,192.922393 L353.333704,192.893958 L352.783054,193.423866 L352.683027,193.395431 L352.561255,194.926612 L351.717215,195.777677 C351.645624,196.450768 351.724575,197.030523 351.860398,197.581508 C352.046401,198.396443 352.361536,199.11202 352.640206,199.799162 L352.819184,200.221015 L353.076779,202.045586 L352.683362,203.398124 L351.238156,203.019093 L350.157598,202.88327 L350.064931,202.932782 L349.99334,203.097375 L349.814362,203.820312 L349.807336,204.206703 C349.878927,204.914921 350.265319,205.608753 350.60153,206.267459 C350.938076,206.92583 351.224106,207.547737 351.073898,208.106081 L350.773483,208.642681 L350.802253,208.771478 C351.868426,213.916007 352.490668,219.489749 353.242041,224.941719 L353.284861,225.270905 L353.334708,225.60009 L353.470865,226.580622 L353.635458,227.696976 C353.728125,226.974708 353.871307,226.20159 354.050285,225.414087 C354.501243,223.346641 355.166305,221.221988 355.667443,219.926656 L356.017704,219.117743 L356.490072,217.930466 L356.440561,217.544075 L356.440561,217.515639 L356.833643,217.150323 L356.97716,216.978036 L356.412125,215.604756 L356.41915,214.574044 L356.726926,212.978631 L357.070162,211.497296 L356.977495,210.066141 L357.435478,209.358593 L357.757303,208.627961 C358.251416,207.369428 358.465521,205.838246 358.666244,204.284985 L358.880683,202.681878 L358.14403,202.932447 L357.950667,203.118785 L357.57866,203.555692 L357.278245,203.770131 L356.978164,203.885212 L356.713209,203.527591 L356.484385,202.747113 C356.390715,201.880993 356.548617,200.779693 356.519846,199.856368 L356.491076,199.348873 L356.827622,199.384 L356.862748,199.341179 L356.948724,199.183946 L357.070162,198.661397 L357.442168,198.639652 C357.313371,196.47887 356.67641,194.818891 356.139811,193.06591 L356.061194,192.815341 L356.018039,192.686879 C355.896602,190.539812 355.967858,188.207746 356.025399,185.889396 C356.08227,184.186261 356.111041,182.511897 356.06086,180.909125 C356.011014,179.227735 355.874857,177.639682 355.538311,176.243654 C356.403762,175.277508 355.874522,173.746995 355.588157,172.272685 L355.44531,170.769939 L355.545336,170.297906 L355.602542,170.01221 L355.616928,169.9908 L356.01737,169.347148 L355.566747,168.581055 L355.702569,166.684893 L356.017035,166.477479 L355.967189,166.126883 C355.74539,164.724164 355.630978,163.214727 355.559387,161.647416 C355.459695,159.601045 355.459695,157.461673 355.495156,155.27948 C355.552362,151.580156 355.688519,147.809575 355.537977,144.33205 L356.32548,143.902837 C357.727864,143.072513 358.879345,141.98493 360.210472,141.083349 C361.963787,139.909789 364.038594,139.072774 367.451553,139.566552 L367.723533,139.509346 L368.474571,139.022928 L368.653549,139.051364 L368.883042,139.094184 C367.866715,142.099342 367.480323,145.741794 367.072521,149.361833 C366.951084,150.399236 366.836672,151.429614 366.700515,152.438581 L366.499792,153.862376 L366.435895,154.270512 L366.972494,154.807112 C367.108317,156.559758 367.187268,158.362919 367.459247,159.980077 C367.573659,160.674244 367.716507,161.347 367.923921,161.954856 L368.082158,163.235469 C368.468215,166.813355 368.425059,170.699017 368.4826,174.282925 C368.51137,176.265399 368.582627,178.168587 368.761605,179.857336 L368.818811,180.272164 L368.883377,180.772968 C368.883377,181.996039 369.011839,183.104699 369.169072,184.156822 L369.34805,185.273845 L369.691621,186.725741 C369.855879,187.406192 369.999396,188.100024 370.177705,188.765421 C370.586176,190.317679 370.986619,191.87763 371.222803,193.6092 L371.222803,193.62392 L371.237188,193.709897 L371.265624,193.874489 L371.473037,194.010312 L371.494448,194.024028 L372.353207,194.76135 C374.284831,196.807721 373.07581,199.590745 372.875422,203.333224 C372.832266,203.96985 372.832266,204.628556 372.882447,205.322388 C372.925268,206.016221 373.018604,206.745514 373.189888,207.504916 L373.984751,208.835709 L374.134624,209.085944 C374.621377,209.949053 374.79266,210.371574 374.957253,210.943635 L375.33662,212.224916 L375.565778,212.96157 C376.452639,215.91019 377.290323,218.736034 377.96241,221.540469 C378.213314,222.556796 378.441804,223.565429 378.628142,224.588781 C378.842915,225.68339 379.014868,226.778334 379.150356,227.872609 C379.479876,230.541889 379.579903,233.239606 379.322643,236.051065 L379.072074,236.903134 C378.757608,237.625737 378.127338,238.541368 377.126065,239.572081 L376.982882,239.722288 C375.759141,240.94536 373.985085,242.326334 371.544629,243.757823 L370.865181,244.144215 L369.240998,245.023716 L368.411009,245.446238 C366.987214,246.254482 365.34162,246.884418 363.767618,247.428042 L363.044681,247.671252 L361.585425,248.165365 C360.590842,248.501241 359.710672,248.817045 359.023531,249.131511 L357.879075,249.869168 L357.800124,249.990271 L357.700097,250.133119 C357.385297,250.819926 357.198959,251.485657 357.106292,252.122283 C355.768139,252.387572 354.072365,252.2658 352.448181,252.487599 L352.336457,252.487135 L352.298329,252.486988 L352.040389,252.486092 C351.917493,252.485706 351.77365,252.48531 351.618637,252.484992 L350.63272,252.484702 C350.4186,252.485153 350.219382,252.48605 350.05824,252.487599 C349.120529,252.394597 348.262104,252.359136 347.46055,252.351776 L346.186963,252.380212 L345.593158,252.423033 C343.840177,252.544805 342.358842,252.82381 340.906277,253.08843 L340.891892,253.08843 C340.162264,253.217561 339.439327,253.346024 338.688288,253.432 L338.659853,253.439026 C337.89376,253.525002 337.085515,253.588564 336.21304,253.588564 L335.826648,253.610309 C334.244951,253.703646 332.849592,253.760852 331.540544,253.781927 L330.717245,253.781927 L329.322221,253.753157 C326.338474,253.63908 323.719374,253.138276 320.34221,251.950331 L319.025802,251.484988 L318.059656,250.333173 C316.507064,248.422959 314.990267,246.226381 312.614377,242.684624 C312.618906,242.696653 312.316218,242.170375 311.93264,241.516768 L311.849288,241.374907 L311.147761,240.201347 C310.784607,239.581267 310.46421,239.039292 310.360496,238.852752 L310.412622,238.929 L310.367618,238.849143 C309.981226,238.184081 309.587474,237.5043 309.215468,236.817827 L309.365676,237.139653 L308.77187,236.016608 L309.199622,236.78 L309.001029,236.36687 L308.278092,234.513862 C307.927496,233.21853 307.841854,232.060024 307.626746,231.744554 L307.476873,231.666272 L307.341385,231.587656 C306.847272,230.335145 306.632833,229.283356 306.475265,228.275058 C306.45449,228.141243 306.434652,228.00807 306.415291,227.875211 L306.301181,227.079211 C306.166162,226.148827 306.009521,225.201722 305.673711,224.125446 L305.244499,222.915755 L305.179933,222.415286 C305.072881,221.642503 304.872492,220.261529 304.779491,219.574053 L304.729644,219.187996 L304.214456,217.785946 L304.193045,217.778586 L304.178994,217.800331 L304.15725,217.871587 L304.142864,217.864228 L304.100043,217.75015 L304.093018,217.736434 L304.071608,217.714689 L304.028452,217.721714 C303.949501,217.886642 303.799628,218.687861 303.62065,219.524541 L303.33462,220.66264 L302.769585,222.13695 L302.397578,223.188739 L302.111214,224.040473 C301.589334,225.621501 301.188222,226.830522 300.286976,228.247626 L299.263624,229.649676 C297.961266,228.039209 296.694705,226.39395 295.399707,224.655354 C293.990297,222.787293 292.538067,220.819873 290.95637,218.709606 C288.752432,214.495093 288.080345,211.096184 286.555854,211.268137 L286.09118,211.12462 C283.958833,209.937344 284.767412,202.545052 283.17133,199.089941 L282.999378,199.01099 C282.505934,199.103991 281.747535,201.887015 281.503992,205.779368 C281.310963,209.049814 281.475556,213.106425 282.498908,217.020857 C279.901553,210.394657 277.36843,205.036024 275.644219,197.880919 L275.329084,196.077424 C275.207982,195.404667 275.08621,194.739271 274.964438,194.059489 C274.828615,193.551325 274.706509,192.42828 274.585071,191.018536 C274.320452,187.956508 274.077577,183.45563 273.876519,180.343086 C273.790877,178.918957 273.712596,177.774167 273.64067,177.208797 C272.582191,163.106337 275.11498,149.368189 278.427912,137.655001 C279.536907,133.748263 280.731877,130.063659 281.898078,126.671775 L281.883692,126.464362 C281.533431,125.677193 277.626693,128.63217 272.982968,143.185922 L273.095664,142.249579 C273.493588,139.153789 274.001031,136.28813 274.567851,133.619109 L274.739628,132.824268 C277.079389,122.163203 280.413731,114.836481 282.131251,109.706002 C283.104088,107.344831 286.588973,97.5067303 286.588973,97.5067303 C288.943119,93.0346229 290.982464,89.4497109 293.271709,85.9153142 C294.386098,84.1867969 295.555555,82.4756964 296.860985,80.6704039 L297.404622,79.923 L297.098125,80.3525993 C296.349193,81.4238247 295.759125,82.4501004 295.26134,83.4780177 L295.05346,83.9187899 C293.163501,88.062628 292.697574,92.4392161 290.059303,100.625826 L289.880622,101.174 L290.088251,100.687369 C290.654354,99.3571085 291.308754,97.8394851 292.021304,96.2114052 L292.291178,95.5958478 C293.851129,92.0684764 295.683395,88.0690715 297.629405,84.3406427 L297.793663,84.033202 L298.845786,82.0794986 C300.877436,78.3875344 302.988707,75.1318081 304.977872,73.1138733 C310.122401,66.3163905 310.229788,67.2969222 314.487456,63.7407805 L315.209724,63.1325899 L316.332769,61.3578645 C318.97328,57.1507114 322.207596,53.4085665 325.799533,50.0240429 L326.858346,48.9936651 L326.901167,48.9648948 L327.215633,48.7434305 L327.451817,48.5644525 L327.480588,48.5430421 L327.874339,48.2573464 C328.912077,47.5126642 329.94212,46.7689857 330.958113,46.0105875 L332.675298,44.5794328 L332.954303,44.3291982 L333.011843,44.2790175 L333.026228,44.257607 L334.579155,42.762221 L334.59354,42.7478359 C338.60733,39.828655 342.779022,37.1955044 346.864403,34.7055362 L347.987783,34.0113693 L348.130965,33.9330874 L348.152376,33.9187022 L348.438406,33.7256736 L349.304525,33.2599964 L349.841125,32.9669409 L350.034153,32.8669139 L351.493744,31.9148181 L352.295297,31.2132913 L352.481301,31.0349824 L353.132647,30.3334557 L353.139672,30.3194051 C353.848224,29.811576 354.563132,29.3107723 355.307814,28.888585 L355.837054,28.6095801 C359.822408,26.3912569 363.97269,24.7312781 368.952626,22.9993735 C375.299486,21.525398 382.45459,19.7941625 389.380536,19.2716138 C389.831828,19.2000226 390.769538,19.1354567 392.021046,19.0642 C392.300386,12.6601342 395.362749,8.87483384 400.700641,7.51560491 C401.909662,7.20080441 403.197635,6.9716457 404.64284,6.9217995 Z M446.160376,28.5031969 C448.321158,28.9180244 450.596353,29.4619836 452.957189,30.1059697 C461.951919,32.5387319 472.261719,36.588652 483.259999,42.3269867 L484.769436,43.1569761 C487.267098,44.5520007 489.820963,46.1975944 492.389883,48.043911 C494.021426,48.8949763 495.552607,49.7109151 496.976737,50.4763386 L497.442079,50.9055512 L497.577567,50.9985529 C498.00678,51.3347638 498.686896,51.6997451 499.402139,52.1005219 C500.103666,52.4795537 500.833628,52.8943812 501.413049,53.3456733 L502.235678,54.1753281 C506.05577,57.8746522 507.5448,60.4863923 510.72927,63.2095337 C511.566954,63.9177512 512.490279,64.6473792 513.64176,65.3917268 C514.579471,67.6023556 516.733562,69.6631112 518.471489,71.3946812 L519.373404,72.3176723 L519.616613,72.6113969 L519.68787,72.704064 L520.118086,73.0616854 L521.126384,74.2924516 C521.870732,75.2873684 522.714772,76.4753137 523.273451,76.9329621 L523.273451,77.9349042 C523.602637,78.6641975 524.210827,79.5232918 524.919045,80.3961021 C526.33548,82.1708275 528.160386,83.9806795 529.018811,84.8467991 L529.032861,84.867875 L529.577155,85.6624033 C529.920391,86.1983336 530.242886,86.7854482 530.557018,87.5154107 L530.572072,87.544181 L531.329801,89.5049097 L531.344855,89.5477306 L531.365931,89.6049367 L532.110279,91.5151501 L532.146409,91.5867413 L533.111886,93.5110053 C534.865536,97.1390727 536.761364,101.696822 538.149698,105.081345 C539.373104,108.064758 540.203094,110.154284 540.174658,109.882304 L540.5751,113.69604 C540.689178,115.191426 543.530411,123.320037 543.594977,124.822448 C543.615719,125.681208 543.652183,126.532942 543.68731,127.391367 C543.501976,128.686365 545.876528,144.556525 546.005994,145.951884 C546.199023,148.234104 546.227793,149.371534 546.127097,149.779336 C545.948788,150.494914 545.369034,148.963732 544.646431,147.375344 C544.138267,146.23758 543.551153,145.078405 542.986452,144.677628 C542.986452,149.106914 543.093504,154.351805 542.907836,159.439129 C542.707113,164.597708 542.214003,169.59203 541.004313,173.427177 C539.158331,173.863749 540.231864,171.230933 538.149698,171.918075 C537.763306,173.462972 537.541507,175.065745 537.3913,176.697288 C536.833619,182.797042 537.573979,189.245807 537.234895,194.400474 C537.351799,193.613847 537.461633,192.818855 537.564382,192.017802 L537.581622,191.876 L537.564382,192.025956 C537.460549,192.83809 537.349483,193.644829 537.231391,194.446215 L537.111143,195.210747 C537.025501,195.730024 536.933317,196.245139 536.847675,196.760551 C536.711518,197.540025 536.596437,198.328197 536.453589,199.093621 L536.439204,199.129416 C535.237208,203.736677 533.455457,209.103005 531.630886,213.911324 C530.421864,217.066688 529.205483,219.993564 528.117565,222.276453 C527.838894,221.159429 527.416373,220.10095 526.951699,219.084623 C526.372279,217.79732 525.727958,216.594655 525.155898,215.529151 C524.626658,214.512823 524.511577,213.232546 524.38278,211.97234 C524.289778,210.992812 524.167672,210.026665 523.82477,209.181622 L523.674562,208.788539 L523.423659,208.151913 C523.008831,207.021508 522.687005,205.934259 522.408,204.895852 C521.80717,202.656453 521.456239,200.74624 521.113337,199.58673 L521.020336,199.272599 C520.369324,199.766712 519.968213,200.961348 519.667798,202.034881 L519.581821,202.342322 C519.317201,203.35062 519.131198,204.166893 518.902374,204.016686 L518.565494,203.508187 C518.251903,202.752234 518.000738,201.304036 517.759243,199.765224 L517.639057,198.991053 C517.399319,197.438749 517.160459,195.896104 516.86972,194.96475 L516.462252,194.334814 L515.889857,193.333541 L515.868447,193.29072 L515.861421,193.26195 C515.044813,191.601971 514.773503,190.034994 514.659091,188.869128 L514.639189,188.642772 C514.559146,187.685291 514.553998,187.035404 514.401162,186.829448 L514.394136,186.807703 L514.136207,186.801012 L513.713686,187.867186 C513.477502,189.019001 513.291833,190.965345 512.927186,193.184002 L512.804745,193.948422 L512.547485,195.30096 C512.289222,196.510651 511.967396,197.748777 511.552569,198.914977 C511.130716,200.074152 510.622887,201.176456 509.978231,202.134239 C510.124212,205.78764 508.956723,208.048123 507.772296,210.291877 L507.476586,210.853263 C507.132931,211.509666 506.797026,212.174401 506.501041,212.881615 L506.157805,213.71863 L506.157805,214.227462 C506.43094,217.414821 504.947924,219.124292 503.499699,220.639296 L503.190551,220.961431 C502.473493,221.708317 501.797114,222.429504 501.385282,223.28542 C500.855039,224.401774 500.848348,225.625515 500.755012,226.712765 L500.740961,226.805766 L500.619189,227.722066 C500.154516,228.530311 499.682148,229.331865 499.19506,230.125724 L498.694591,230.747965 C497.736139,232.078758 497.764574,233.117165 497.22095,234.769449 L497.142333,235.020018 L496.68435,236.83723 L496.591349,237.324318 C496.233393,239.234531 495.53956,239.72831 494.744697,240.235804 L493.886272,240.830279 C492.376836,242.089146 491.546846,241.42375 490.623521,239.74972 L490.144462,238.812679 L489.636298,237.796351 L489.092674,236.687692 L487.754521,235.878778 L487.124251,235.37028 L486.859631,235.098635 L485.958385,233.36004 L485.929949,233.345655 C484.347918,232.637437 483.897964,231.907475 483.740062,231.042024 C483.525957,229.854079 483.861833,228.415899 482.588246,226.468886 L482.502605,226.111934 C482.166394,224.752036 481.794053,223.886585 481.464867,223.449678 C481.043014,222.884978 480.685393,223.021469 480.555926,223.86484 C480.555926,224.867117 479.704861,225.682721 479.690476,226.226346 C479.453623,227.836813 479.088976,228.293792 478.702584,228.165999 L477.951546,227.285494 L477.822414,227.893685 C477.636746,228.980599 477.701311,229.99057 477.200508,231.449492 C476.74955,232.508974 476.327028,233.345655 476.012897,233.982281 L475.626505,234.741014 L475.576324,234.841041 L475.519118,234.962812 L475.411732,235.220741 L475.282934,235.506437 C474.825286,236.544509 474.853722,236.701073 474.917619,236.780024 L474.974825,236.84459 C475.018315,236.930901 474.974825,237.166416 474.388379,238.332282 C474.296047,238.361721 474.982519,240.922946 473.136537,241.138054 C471.548149,245.666698 472.063004,245.760035 470.510412,246.990801 C470.510412,246.990801 467.304866,252.185176 464.270604,252.586288 C461.022907,253.236965 458.27501,253.137607 455.964019,252.800727 L455.398984,252.722779 C455.183876,251.956687 454.790794,251.269545 454.28263,250.647973 L453.638978,249.967522 C452.264361,248.601603 450.468559,247.635456 449.259538,247.076777 L448.493445,246.740566 L447.964206,246.511073 L448.007361,246.032014 L448.014387,245.960089 L448.013373,245.699886 C447.981696,244.861454 447.679423,244.299927 447.477787,243.649098 C448.214775,242.969651 448.551655,242.218613 448.658038,241.43111 C448.751374,240.679402 448.622577,239.885208 448.415164,239.055553 L448.271647,238.496875 L447.978257,237.524037 L447.92105,237.366804 L447.455708,235.841979 C447.126188,234.669088 446.890673,233.446016 446.991034,232.17176 L446.991034,232.114554 L447.005085,231.985757 L447.062291,231.999473 L447.205139,232.028577 L447.406196,231.935576 L447.448682,231.864319 L447.469758,231.685341 L447.634017,231.219664 L447.963202,231.263488 C448.114079,230.547911 447.891946,229.939721 447.619966,229.374351 C447.140907,228.372409 446.489227,227.513984 447.476784,226.505685 L447.476784,211.980034 C448.399106,210.942966 447.498529,208.975212 446.997056,207.930449 L446.767897,206.112568 C446.532382,204.531205 446.209887,203.050205 445.80242,201.648155 C445.458849,200.460209 445.079148,199.307391 444.6215,198.227167 C443.913282,196.574213 443.076267,195.050391 442.117146,193.640647 L441.359083,192.624989 L440.336065,191.251709 C440.499654,189.577011 440.199573,188.367655 439.856002,187.20112 L440.206598,186.550778 L440.271164,185.062417 L439.856002,184.597074 C439.640894,183.538261 439.505072,182.493498 439.405045,181.463455 L439.283273,180.01022 C439.211682,179.109309 439.12604,178.243189 439.040398,177.399149 L438.904241,176.018175 C438.546285,173.499771 440.120622,170.78767 440.33573,169.105946 C440.621426,166.816366 438.983192,165.32098 438.904241,162.68047 C438.891878,162.266806 439.064807,161.433736 439.266579,160.570652 L439.389851,160.052315 C439.617607,159.10685 439.842403,158.2193 439.856002,157.907947 L439.820207,157.585787 L439.820207,157.571401 L439.74895,157.371013 L439.677359,157.206755 L439.42679,156.65577 L439.405379,156.612949 L439.333788,156.376765 L439.341148,156.319225 L439.348173,156.09776 L439.856337,155.525365 C438.996908,147.404449 434.00359,143.440505 433.187317,135.283459 C433.974151,135.132917 434.396672,134.617728 435.527412,134.804066 L435.570233,134.811091 L436.042601,135.283459 L436.056651,135.341 L436.092112,136.213476 L436.142293,136.49248 L436.278116,137.086286 L436.378143,137.365625 L436.607636,137.873454 L436.728739,138.080868 L437.173005,138.617467 L437.315853,138.72452 L437.308493,138.717494 L437.318622,138.726 L437.645373,138.938959 L437.788221,139.003525 L438.174613,139.110577 L438.324821,139.131987 L438.904241,139.096192 L438.911266,139.153398 L438.92632,139.217964 L438.975832,139.475558 C439.254837,140.541732 440.220983,140.927789 441.12223,141.364361 L441.758856,141.707932 L441.794651,142.959774 L441.802011,143.868714 C441.823087,148.297666 441.314924,153.249167 442.202119,156.805309 L442.230555,156.955516 L442.280736,157.306113 C442.545355,159.209301 442.510229,161.427289 442.809975,163.294682 C442.967877,164.303649 443.232497,165.22664 443.726275,165.913782 C444.155488,166.514613 444.756319,166.95085 445.608053,167.137188 L445.815467,167.201754 C446.889,166.493202 447.74776,165.498285 448.470362,164.33242 C448.977522,163.523841 449.414429,162.636645 449.779076,161.649088 C450.580964,159.445485 451.039282,156.86954 451.26108,154.186209 L451.382183,152.268636 C451.5257,149.363505 451.4608,146.429939 451.296207,143.732557 L451.281822,143.381961 L451.446415,143.360551 L452.097426,143.188933 L452.119171,143.181907 L452.798618,142.581077 L453.156574,141.192743 L453.191701,140.520321 C453.857766,140.019517 454.844989,139.833514 455.481615,139.289555 L455.703414,139.046011 L456.046985,138.380949 L455.76798,138.173535 L454.923271,138.344819 L453.671429,138.616798 L453.557016,138.42377 C453.14888,137.822605 453.127804,136.820997 453.191701,135.762183 L453.220806,135.740773 C453.871482,135.125557 454.995196,134.967655 455.095223,133.801455 L455.102583,133.379267 C454.336825,133.593706 453.699864,134.022919 452.898311,133.679683 L452.719667,133.622477 L452.698591,131.818981 L452.705617,131.78352 L453.099034,130.187772 L453.671763,129.801715 L453.693508,129.393579 L453.192035,128.141402 C452.934775,127.45426 453.714584,127.826601 453.721944,127.41144 L453.671763,127.182615 C453.270986,126.388087 453.321502,125.42194 453.50717,124.377512 L453.871817,122.624866 L454.07254,121.715591 L454.223082,120.76383 L454.208697,118.931898 L454.144131,118.638843 L453.79387,117.665671 L453.672098,117.422127 L453.672098,113.128998 L454.144131,112.413755 C455.303641,112.621169 455.367872,111.733639 456.526713,111.941387 L456.155375,110.925394 L454.380315,109.995378 L454.144131,109.794989 L454.10131,109.036257 L454.43819,108.04134 L454.508778,107.876747 L454.644935,107.275916 L454.616165,106.703521 L454.745631,106.689471 L455.403668,106.617545 L455.911831,106.374001 L456.985365,105.286752 L456.99975,105.272367 L455.611416,104.163372 L455.511389,104.106166 L455.103587,103.834187 L455.139048,102.689062 L455.246435,101.99523 C455.360178,101.300729 455.461208,100.592511 455.54685,99.8839591 L455.646877,99.1827669 L455.611081,98.4099836 L455.57562,97.6512508 L456.262427,97.5940448 L457.478808,96.4566147 L457.106802,96.0488126 L455.61911,95.5403144 L455.096227,95.2683348 L455.089202,94.1309047 C454.960404,93.2791703 454.588398,92.6713143 454.345189,91.9269667 L454.144466,90.9752054 L452.241278,90.9752054 C452.040889,90.1238055 451.862246,89.2506607 451.690628,88.3778503 C451.225285,86.145142 450.802763,83.8773072 450.395295,81.5873928 L449.887132,78.8973707 C449.722539,78.0024809 449.564971,77.1009003 449.386328,76.2140394 L449.743949,76.1133433 L449.865721,75.8985698 L450.101905,75.733977 L450.995792,76.0347269 L451.51834,76.1989851 L452.720671,76.2137048 L452.255663,76.9005119 L452.240943,76.9215878 L452.412896,77.0289746 L453.057216,77.2507734 L453.400118,76.6064527 L453.672098,76.6854038 C453.822305,77.2507734 454.151826,75.5476392 454.201337,74.724675 L454.215722,74.5527224 L454.201337,74.3312581 L454.144131,74.3024878 L452.720336,74.3024878 L452.276739,73.6658615 C451.302126,72.3945904 450.009668,71.4356553 448.685741,70.5160569 L447.962199,70.0167182 L448.320155,69.5801457 L449.858362,69.0652914 L449.843976,67.6772922 C449.972774,66.2033166 450.531453,65.1511938 450.352475,63.3841627 L450.33073,63.1192084 C449.937982,62.7973826 449.83026,62.1891921 448.900244,62.3966058 C449.000271,61.5810015 448.965144,60.9085796 448.850063,60.3074144 L448.42821,58.5828697 L447.125184,53.8819381 L446.04496,50.0109959 L446.037935,48.9876434 L446.037935,48.5868666 L446.04496,47.5778992 L446.302889,46.5836515 L446.532382,46.1972598 L446.517328,46.1183088 L446.382175,45.7897922 L446.038604,45.4244764 L446.045629,44.7737995 L445.502004,44.6804634 L445.351797,44.6520276 C441.752834,44.086658 438.396746,43.378775 435.978369,41.6181002 C435.665241,41.2722663 435.204134,40.9183063 434.714918,40.5638389 L434.220771,40.2094845 C433.478815,39.6785458 432.763516,39.1521793 432.479434,38.6560985 L432.429922,38.5771474 L432.794569,37.826109 L432.816314,37.826109 L432.829695,37.8190837 C434.267875,37.4755129 435.971344,36.8957582 437.674144,35.9871522 C439.090579,35.2217287 440.493298,34.2415316 441.724064,32.9247891 L442.053249,32.5815528 L442.138891,32.4815259 C443.863101,30.6569542 445.172484,29.382698 446.145991,28.5102222 L446.160376,28.5031969 Z M405.561817,164.344128 C405.848181,165.316966 406.005749,166.575833 406.391806,167.599186 L406.513243,167.921011 L406.821019,168.386689 L407.858422,169.481632 L407.937038,169.58099 C408.610129,170.683294 409.067777,172.143219 409.726483,173.495757 L409.740199,173.516833 L410.31962,174.590366 C411.107457,175.835517 411.908007,177.273697 412.731306,178.748008 L413.074542,179.367907 C413.546576,180.219641 414.004224,181.078067 414.476592,181.944186 C415.328326,183.511163 416.165007,185.063755 416.988305,186.49491 L417.789859,187.939781 L418.426485,189.184932 C418.762696,189.865383 419.099242,190.565906 419.421067,191.310254 C419.921871,192.462738 420.351084,193.664065 420.702349,194.873755 C420.952584,195.739206 421.166688,196.605325 421.2811,197.449365 L421.352357,198.372691 C421.424617,199.49607 421.316896,200.512397 421.166688,201.49962 L421.052276,202.243967 C420.902068,203.217474 420.772602,204.219081 420.772602,205.342126 L420.808732,206.265452 L420.42234,206.272477 L420.12226,206.772946 L419.842586,206.73782 C419.477939,208.605212 420.508651,209.106685 420.329004,210.78038 L420.916119,211.603344 L421.223894,212.025197 C421.774544,212.826751 422.289733,213.65674 422.797897,214.508474 C423.448908,215.603084 424.071818,216.741183 424.665624,217.907383 C425.073426,218.701242 425.466843,219.523537 425.846544,220.346836 C426.196805,221.091184 426.540711,221.849582 426.869896,222.608315 C427.184028,223.330917 427.506523,224.04616 427.813963,224.762072 C429.273219,228.218187 430.682629,231.723813 432.242581,235.079901 C432.299452,236.10961 432.19976,236.983089 432.027473,237.791333 L431.734417,238.942814 L431.612645,239.178998 L431.276434,239.852089 L431.255358,241.111291 L431.262384,241.211987 L431.763522,241.512068 C431.097456,241.798098 430.861272,242.51401 430.782656,243.393846 L430.76894,244.338582 L430.775965,244.753409 L430.811091,245.748326 L430.804066,247.472201 C431.01148,249.146231 430.818451,250.398742 430.353778,251.336453 L430.016898,251.44384 C429.343807,251.636868 428.643284,251.764996 427.913321,251.779716 L427.111767,251.815177 C424.12133,251.908179 421.509255,252.165773 419.005236,252.394597 L417.073278,252.55919 C413.781756,251.779381 408.065166,250.276301 405.853868,250.420153 L405.568173,250.433534 C404.301276,250.51951 402.734634,250.569691 401.410531,250.21207 L400.308897,249.768472 L399.980046,249.575109 L399.929865,248.631042 L399.929865,248.567145 L399.92284,248.416268 C399.887044,247.658205 399.808093,246.763649 399.665245,245.862403 L399.471882,244.688509 L399.443446,244.573427 L399.407651,244.416529 C399.243393,243.851159 398.871386,243.235944 398.463249,242.563187 L397.726596,241.167828 L397.65467,240.98885 L397.483052,240.559637 L397.232483,239.135843 C397.232483,238.4206 397.425846,237.647816 397.926315,236.831543 L397.711876,236.008914 L397.64731,234.914639 C398.577327,234.764097 399.471882,234.800227 400.237306,234.900254 C401.332584,235.043102 402.141163,235.307721 402.334191,235.343852 L401.754771,234.492786 L401.490151,234.155906 L400.996038,233.568792 C400.001791,232.509978 398.942977,231.802095 397.919625,231.357828 L397.96278,231.058082 L397.991216,230.828589 L398.112988,230.07755 L398.355863,228.789578 L398.427788,228.460392 L398.434814,228.281414 C398.434814,227.380168 398.449199,226.621436 398.463249,225.970424 L398.49202,225.45557 C398.513095,224.697172 398.549226,224.045826 398.599406,223.45202 L398.677688,222.600955 C400.373797,222.063686 402.083957,222.30723 403.157156,222.550774 L404.187533,222.808034 L403.729551,222.078741 L402.949742,221.048028 L402.56335,220.640561 C401.497511,219.530563 400.373797,218.829371 399.293573,218.421903 L399.593989,217.169392 L399.601014,217.140956 C399.9302,215.845624 400.23764,214.787145 400.352387,214.007336 L400.373797,213.148911 L400.352387,213.041524 L400.323951,212.934137 L400.216899,212.304202 L400.037921,210.651917 L400.002125,210.257831 L399.9951,210.137063 C401.361354,209.643285 402.706533,209.721901 403.779731,209.9437 L404.373537,210.093239 C405.217911,210.330092 405.819076,210.609097 405.983669,210.651917 L405.776256,210.17219 L405.518327,209.535563 L405.189475,208.913657 L405.160371,208.848756 L404.673952,208.033486 C404.044686,207.09611 403.350519,206.408969 402.641967,205.879729 L400.710343,204.849686 L400.145308,204.685093 L399.802071,204.584397 L399.566222,203.031805 L399.479911,202.68054 L399.365164,202.208506 L399.344089,201.128282 L399.336729,200.469911 L399.229342,199.039091 C399.121955,198.109409 398.921901,197.257675 398.571305,196.570199 L397.462311,195.311666 L397.333179,193.915638 C397.161895,193.243216 396.84676,192.713976 396.510884,192.213507 L396.496499,191.876627 L396.496499,191.855551 C396.410857,190.338755 396.410857,189.337147 396.503524,188.62157 C396.704247,187.097748 397.305078,186.818074 398.206324,185.379894 L398.399352,185.065093 C398.563945,185.065093 399.737506,181.659159 400.267414,178.904906 L400.32462,178.632926 C399.937894,177.816988 399.809097,176.958562 399.830842,176.078058 L399.97369,174.75429 C400.410262,172.436609 401.655413,170.061722 402.227474,168.150505 L402.406452,167.499493 C402.721252,166.383474 403.13608,165.095501 404.116611,164.558902 L405.290171,164.344128 L405.561817,164.344128 Z M449.614818,152.610534 L449.614818,152.63161 C449.560869,153.586628 449.552351,154.305717 449.550481,154.908517 L449.54972,155.340682 C449.54863,155.961831 449.543684,156.473658 449.479664,157.046511 L449.465279,157.196719 L449.415098,157.52557 C449.22943,158.727566 448.699521,161.188764 447.655093,162.462351 L446.431352,163.256545 L445.887727,162.834357 C445.151074,161.753799 444.256184,158.784437 444.120361,156.101106 L444.099285,155.020882 L444.321084,155.149679 L444.435496,155.1925 L444.786093,155.264091 L446.102501,155.013856 C447.047237,154.705747 448.07728,154.162457 448.778807,153.604112 L449.494718,152.87415 L449.614818,152.610534 Z M447.004416,141.94813 L447.118828,141.976901 C447.784559,142.184314 448.328853,142.463654 448.71491,142.692478 L448.900913,142.79953 L449.151148,142.971483 C449.27292,143.930269 449.308381,145.210882 449.215044,146.51257 L449.215044,146.555726 L449.166767,147.084157 C449.090021,147.788486 448.964074,148.489089 448.792523,149.153081 L448.163256,150.8706 C447.783555,151.592868 447.282752,152.158572 446.66051,152.516194 L446.345375,152.688146 L445.708749,152.688146 L445.687339,152.681121 L444.771707,151.621973 L444.349855,150.412617 C443.562686,147.43623 443.569377,142.649323 443.491429,142.198699 L443.877821,142.012362 L444.228083,141.890924 L444.385316,141.841078 L444.728886,141.776178 C445.53044,141.655075 446.310583,141.747742 447.004416,141.94813 Z M430.897737,81.6302137 C431.512618,82.1236577 431.906704,82.8037739 431.985321,83.4618107 L431.763522,84.5493945 L432.786874,85.1288148 L432.714949,85.7370054 L432.872851,85.7724664 L433.151521,85.6369784 L433.66671,85.2649719 L434.146438,86.5884052 L434.425443,86.9175909 L435.090505,87.6472188 C435.026608,88.506313 435.019248,89.3436623 435.033299,90.1592666 C435.047684,91.0889484 435.090505,91.9978888 435.147711,92.8636738 C435.198226,93.6364572 435.248407,94.3587253 435.277177,95.060252 L435.312304,96.8346429 L435.255098,97.8078147 L435.090505,98.8455524 L435.011888,99.3962023 L435.09753,100.383759 L435.09753,100.412195 L435.863623,102.107969 C436.414942,103.01691 437.087029,103.882695 437.473421,104.798326 L437.473421,105.986271 L437.702914,106.587102 L437.99597,107.238114 C438.568699,108.454829 439.427459,110.100423 439.856671,110.751434 L439.885442,110.78723 C439.994372,110.949044 440.103695,111.089532 440.212966,111.223549 L440.431306,111.487356 C440.721983,111.839331 441.010185,112.215708 441.287491,112.898166 L441.287491,115.753116 L441.037257,115.767166 L440.886715,115.881913 L440.772303,116.225149 L440.336399,116.947752 L440.321345,117.040754 C440.229012,117.748971 440.429066,118.149748 440.815458,118.378907 C441.195159,120.468098 440.701046,121.677119 439.856671,122.542904 L439.728209,122.650291 C438.646981,123.673644 437.102083,124.231319 436.056986,125.276082 L436.071371,125.720014 L436.078731,125.784245 C436.135937,126.900265 436.014165,127.844667 435.799057,128.682016 C435.577258,129.519031 435.248407,130.256018 434.890785,130.95721 L434.618806,131.473068 L433.724251,131.573095 C433.044469,131.601531 432.501179,131.466043 432.043196,131.222499 C431.084075,130.71467 430.54781,129.705368 430.182494,128.489656 C429.566609,126.429235 429.424096,123.810135 428.415128,122.178927 L428.415128,120.275739 L427.943095,119.331337 C427.999966,118.465552 427.921684,117.742949 427.799913,117.048782 L427.556369,115.918378 L426.998359,114.315605 C427.548674,112.598086 426.947844,110.988622 426.21119,109.328309 C425.703027,108.184188 425.123272,107.031703 424.823526,105.808297 L424.608418,104.55612 L424.494006,104.441708 C424.314024,104.284284 424.146905,104.112823 423.983808,103.936852 L423.497745,103.404936 C423.251906,103.14174 422.995226,102.889833 422.69787,102.681368 L422.525917,102.588701 L422.225836,102.409723 L422.1974,101.91561 C422.153576,100.928053 422.046858,99.9408306 421.953522,98.9964291 L421.896316,98.4380848 L421.910701,97.1002663 C422.025113,96.1702499 422.361659,95.3686963 423.176594,94.7889415 L423.176594,90.5028373 C424.171511,90.0237786 424.557902,88.9361947 424.951654,87.8700213 C425.380866,86.739282 425.817773,85.6306222 426.998024,85.265641 L427.0191,84.4784724 L427.6206,83.0259073 L427.763448,82.7967486 L428.028068,82.3026356 L428.300047,81.5442374 L428.414459,80.9792023 C429.394656,80.8286601 430.260776,81.12941 430.897737,81.6302137 Z M445.652212,1.54911512 L445.494585,1.42296522 C444.52458,0.68883192 443.121994,0.370466411 441.488214,0.790716889 L441.438034,0.805102034 C441.015512,1.97130239 440.586968,3.18768349 440.157087,4.38967945 C437.903637,10.7509244 435.484591,17.4483803 432.794569,23.3797435 L432.458358,24.1455016 L432.401486,24.2599137 L431.914064,25.2902915 L431.313568,26.5498281 C431.106154,26.5498281 430.512014,26.4564919 429.818182,26.3206693 L428.572361,26.1058958 C427.713602,25.9556881 426.948178,25.8268909 426.711994,25.8268909 L426.648432,25.8767371 L426.618993,25.897813 C425.93252,26.3775409 425.725106,27.1075033 425.818108,27.6584878 C425.904084,28.2094723 426.46845,28.9391003 427.084335,29.6262419 L428.365282,31.0139065 C428.229125,31.4508135 427.678141,33.0676369 427.098386,34.3485839 L426.418939,35.6576321 C425.488588,35.4572437 422.926694,34.5559976 420.293878,33.9263966 L418.569333,33.5470302 L418.504767,32.8167332 L418.555617,31.6438421 C418.626874,30.9714202 418.713519,30.3056891 418.841982,29.640627 C419.049395,28.5888387 419.293274,27.5584609 419.371221,26.6782907 C419.457198,25.7696848 419.492993,24.9109251 419.507378,24.0521654 C419.521763,23.322203 419.507378,22.6139855 419.464557,21.9201531 L419.399991,20.9108512 C422.984569,21.7411752 426.5193,22.6427558 430.003851,23.5941826 L431.685574,23.9521385 C433.517171,19.99522 435.241716,15.5947038 436.872925,11.1871623 C438.232154,7.50924868 439.527486,3.83200417 440.758252,0.368529611 L441.037257,0.28991312 L442.260329,0.010908215 C443.727613,-0.0891187235 445.007891,0.504686681 445.652212,1.54911512 Z M434.904836,33.3968225 L435.99978,33.5326451 L435.499311,33.9407817 L434.389647,34.476712 L434.904836,33.3968225 Z M476.004868,28.2245266 C478.97423,29.4907539 481.836204,30.8794222 484.698514,32.2958571 C486.329722,32.6106576 487.760877,32.8685866 489.177646,33.0686405 C491.896104,33.4761081 494.55836,33.6764965 498.443352,33.6764965 C499.717274,33.6912162 500.676395,33.5834949 501.441819,33.4332872 L502.564864,33.1756927 L501.76331,33.6049053 L501.305327,33.8196789 C499.130494,34.3134574 496.89076,34.406459 494.672437,34.2773272 C492.075417,34.1418392 489.527908,33.7052668 487.166402,33.2613345 C486.465545,33.1258465 485.778069,32.9967148 485.113007,32.8682521 C481.878691,31.2651448 478.050904,29.6195511 474.036779,28.166986 C467.496891,25.7910953 460.420069,23.9454477 454.445885,23.716289 C453.093346,23.6587484 451.798014,23.6952131 450.581633,23.816316 L449.307712,23.9809088 C448.435236,24.1026807 447.583836,24.2599137 446.825438,24.4673274 C445.715774,24.7751026 444.779067,25.1758794 444.148797,25.7198386 L443.225806,26.6856506 L443.147524,26.7716269 L443.125779,26.7930374 L442.661106,27.2296098 L442.62531,27.2650708 L442.554053,27.3436873 L442.267689,27.6297175 L442.124841,27.7872851 L442.060275,27.8515164 L441.20854,28.7243267 L439.649258,30.2916384 L439.570641,30.2344324 L439.22707,29.9336825 L438.433211,29.3970831 L437.767814,28.9822557 L437.009416,28.4737576 L437.095058,28.258984 L437.20947,27.9301329 L437.324551,27.6153324 L437.388448,27.4293291 L437.817661,26.2557689 L437.953483,25.897813 L438.046485,25.6475784 C439.355533,26.0483552 440.63648,26.4989782 441.895682,26.9572956 L442.174687,27.0573226 C442.876214,26.3561304 443.534919,25.7121443 444.14311,25.0751834 L444.486346,24.9179504 C445.394618,24.481378 446.324634,24.0444711 447.440988,23.7012348 C448.506827,23.3720492 449.744953,23.1361997 451.34806,23.108433 C461.11457,22.9224297 468.864149,25.1835738 476.004868,28.2245266 Z M395.108165,22.57083 C395.558788,22.1486428 397.655339,22.6280361 398.378277,22.6715261 L398.692743,23.0431981 L397.576723,23.2218415 L396.975223,23.3007925 L395.902359,23.2077909 L395.608634,22.9498619 L395.35104,22.7424482 Z M407.651342,19.5298773 L407.543956,19.8092167 L407.114743,20.7034375 L406.970892,21.0470083 L406.949816,21.0968545 C406.327575,22.1700532 404.753238,21.9696648 402.892536,22.4778284 L403.121695,21.8482274 C403.866377,21.5404522 404.409667,21.254422 404.838879,21.0038528 C405.955568,20.3454816 406.35601,19.8590629 407.651342,19.5298773 Z M443.336205,273.755027 L443.316825,274.484996 C440.82884,274.484996 438.677692,276.003996 437.789916,278.176369 L437.354334,280.445641 L437.257436,280.445641 L437.257436,280.563765 L451.388936,280.800013 C468.759617,280.800013 481.409954,290.433575 489.423926,304.724727 C481.39242,319.250282 465.383856,327.995146 444.89581,327.738595 C485.103173,380.005675 529.454103,392.180748 529.454103,392.180748 C529.454103,392.180748 492.760928,394.077191 454.725938,357.876814 C448.370316,351.798968 439.132654,342.028825 433.705412,335.514474 L431.749907,370.885214 L420.57981,400 L421.48512,280.445641 L420.972942,278.077625 L417.914639,274.97964 L414.934777,277.86168 L414.301707,280.446564 L415.386971,399.959395 L404.077525,370.886137 L402.122943,335.515396 C396.694778,342.028825 387.457116,351.799891 381.083037,357.877737 C343.065581,394.077191 306.354872,392.202896 306.354872,392.202896 C306.354872,392.202896 350.725181,380.006598 390.930699,327.738595 C370.423273,327.995146 354.435012,319.249359 346.402583,304.724727 C354.395329,290.432652 367.047512,280.800013 384.416347,280.800013 L398.569073,280.563765 L398.471252,280.445641 L396.872887,276.420198 L392.509684,274.484996 L392.490304,273.755027 L443.336205,273.755027 Z M791.298913,272.296011 C791.298913,272.296011 790.023437,272.181137 788.021002,272.173727 L787.564273,272.17394 C782.725697,272.196285 774.268133,272.872129 768.833214,276.893617 L768.833214,294.459018 C781.170707,294.715568 787.683213,299.375927 787.683213,299.375927 C787.683213,299.375927 775.525674,298.288818 768.833214,303.223261 L768.833214,371.222052 C769.169129,374.202836 782.71001,376.53117 785.789538,376.53117 L785.808918,377.263908 L745.64216,377.263908 L745.681842,376.53117 C748.979162,376.53117 751.64341,373.847542 751.64341,370.552068 L751.66279,370.552068 L749.433201,313.941164 L725.825021,369.189028 L725.333146,367.432857 L703.502363,315.343886 L700.818735,360.128552 C700.818735,360.128552 699.792533,368.517198 697.641385,372.920084 C686.646629,376.234015 663.749962,368.873416 663.749962,368.873416 C663.749962,368.873416 664.385209,368.912897 665.461267,368.919344 L666.003182,368.919641 C670.526306,368.897993 680.776204,368.25516 686.606947,363.207158 L686.606947,279.617851 L684.278613,277.287671 C678.872219,272.900573 669.997906,272.187677 664.989088,272.169663 L664.53106,272.169919 C662.522909,272.179413 661.243519,272.296011 661.243519,272.296011 C661.243519,272.296011 683.942698,264.259891 695.016818,267.262823 L726.004976,338.020916 L757.52746,267.262823 C768.619114,264.259891 791.298913,272.296011 791.298913,272.296011 Z M126.750499,271.691923 L127.107201,271.810995 C127.896591,272.075839 128.382126,272.24784 128.491175,272.286702 L128.514648,272.295088 C128.514648,272.295088 110.948325,270.774243 104.059299,277.940121 L104.02054,277.898593 L104.02054,362.69498 L104.336152,363.207158 C111.973604,369.81933 127.173757,368.872493 127.173757,368.872493 L127.146559,368.881181 C127.058169,368.909328 126.756562,369.004702 126.274493,369.150328 L125.963857,369.243598 C121.097942,370.696021 102.764212,375.777095 93.2823341,372.919161 L57.0247409,315.518303 L54.8929727,370.551145 L54.9123524,370.551145 C54.9123524,373.847542 57.5572215,376.530247 60.8729977,376.530247 L60.8923774,377.262985 L20.7256196,377.262985 L20.7449993,376.530247 C23.8439074,376.530247 37.3644856,373.748797 37.7004006,370.76709 L37.7004006,303.244487 C30.9885608,298.289741 18.8504019,299.37685 18.8504019,299.37685 C18.8504019,299.37685 25.3638304,294.696188 37.7004006,294.459941 L37.7004006,284.867907 C35.1136707,281.19499 32.8840811,278.235431 31.700073,277.287671 C26.307016,272.900573 17.4469139,272.187677 12.4456617,272.169663 L11.9883231,272.169919 C9.98318501,272.179413 8.7055847,272.296011 8.7055847,272.296011 C8.7055847,272.296011 31.3650809,264.240511 42.4576582,267.241598 L89.2172091,339.77801 L84.7958665,267.162234 C85.6836418,266.92414 90.6577676,265.602628 95.769397,265.720752 C106.435528,265.300766 121.627111,269.990141 126.750499,271.691923 Z M649.935919,281.569664 L649.915617,282.339316 C646.559236,282.339316 641.487288,285.045092 641.487288,288.400551 L641.447606,288.400551 L636.750333,341.69291 C643.343126,346.705795 651.259277,351.837727 656.408743,352.15334 C666.632925,352.725503 679.739146,342.858461 679.739146,342.858461 C679.739146,342.858461 666.179809,361.845964 655.28472,365.971996 C651.846759,364.57304 647.681672,362.80929 643.466184,360.994709 L641.658434,360.214834 L640.755944,359.824279 C639.739106,359.383808 638.727798,358.944298 637.731581,358.510186 L636.987398,358.185683 C629.493247,354.91568 623.004808,352.019982 621.694212,351.434217 L621.577274,351.38194 C621.495504,351.345375 621.453282,351.326472 621.453282,351.326472 L621.356383,287.710264 C621.018622,284.688875 618.47342,282.339316 615.35421,282.339316 L615.335753,281.569664 L649.935919,281.569664 Z M176.694455,281.591813 L152.239106,296.671073 C149.383899,296.699184 146.186788,296.717123 142.950923,296.7255 L140.791265,296.729675 C140.071684,296.730599 139.353515,296.731058 138.640086,296.731058 L137.002039,315.403871 L163.806025,315.324506 C163.806025,315.324506 163.74565,315.366724 163.629605,315.445306 L163.414372,315.589718 C161.822665,316.648874 155.586273,320.620676 148.529275,322.74509 C145.924089,323.514741 141.304335,324.00754 136.231465,324.303772 L134.771526,341.060762 C141.246196,346.015508 149.002694,351.030239 154.095867,351.346775 C164.14194,351.940163 175.669176,341.931004 175.669176,341.931004 L175.652871,341.954454 C175.642262,341.969682 175.626518,341.992235 175.605766,342.021847 L175.528606,342.131588 C174.057634,344.217694 161.334897,361.950038 151.234129,365.774508 C139.29069,362.201258 119.611978,349.451254 119.611978,349.451254 L119.611978,324.780882 C115.41258,324.798416 112.405845,324.745157 112.11567,324.739787 L112.092651,324.739354 L119.611978,315.738863 L119.611978,287.612443 C119.237304,284.671341 116.729939,282.382689 113.710395,282.382689 L113.670713,281.649952 L176.694455,281.591813 Z M548.994389,281.550285 L525.092745,296.68953 C520.947333,296.709833 516.111633,296.729212 511.492802,296.729212 L509.854755,315.402025 L536.638439,315.34204 C536.638439,315.34204 536.556038,315.39929 536.398779,315.504537 L536.245829,315.606289 C534.650473,316.66165 528.402118,320.619753 521.362612,322.744167 C518.7362,323.532275 514.136749,324.006617 509.064801,324.324075 L507.60394,341.060762 C514.07861,346.016431 521.855411,351.067153 526.928281,351.345852 C536.994656,351.938317 548.50159,341.928235 548.50159,341.928235 C548.50159,341.928235 534.803826,361.706614 524.085923,365.771739 C512.14433,362.19849 492.425935,349.466943 492.425935,349.466943 L492.425935,324.777191 C491.985831,324.779129 491.55874,324.780476 491.146458,324.781332 L490.539369,324.782258 L490.391227,324.782384 L489.673342,324.782427 C489.580231,324.782372 489.488186,324.782294 489.397236,324.782195 L488.864889,324.781352 C486.616904,324.776691 485.146655,324.759593 484.948088,324.757174 L484.925065,324.756888 L492.425935,315.736094 L492.425935,287.609674 C492.070641,284.668572 489.602958,282.379921 486.523429,282.379921 L486.50405,281.647183 L548.994389,281.550285 Z M358.896959,281.689634 C358.896959,281.689634 346.304762,285.400387 338.469821,296.474508 C335.337906,296.507453 331.312244,296.52173 327.050758,296.52355 L324.776261,296.523384 C324.267528,296.523104 323.757139,296.522666 323.246163,296.522082 L321.712551,296.519897 C320.179324,296.517291 318.650468,296.513452 317.154908,296.508653 L315.477179,315.400179 L342.281164,315.340195 C342.281164,315.340195 335.17527,320.276484 326.984113,322.742321 C324.399228,323.529507 319.779474,324.004771 314.706604,324.301004 L313.226364,341.057994 C319.71949,346.013663 327.496291,351.027471 332.549781,351.343083 C342.634613,351.936471 354.14247,341.927312 354.14247,341.927312 C354.14247,341.927312 340.463163,361.705691 329.706501,365.770816 C325.885191,364.627377 321.269521,362.544237 316.759184,360.239894 L315.91495,359.805413 C315.313121,359.493468 314.71419,359.178361 314.120318,358.861818 L313.410238,358.481387 C305.157538,354.037564 298.065893,349.447563 298.065893,349.447563 L298.065893,324.777191 C297.1855,324.784758 296.357267,324.788487 295.595544,324.789609 L294.504638,324.789492 C292.083957,324.785377 290.565945,324.756888 290.565945,324.756888 L298.065893,315.736094 L298.065893,287.6309 C297.710598,284.669495 295.203233,282.380844 292.163387,282.380844 L292.144007,281.689634 L358.896959,281.689634 Z M255.054009,281.630572 L255.033706,282.380844 C251.875736,282.380844 249.310232,284.846681 249.112743,288.00742 L247.435937,315.403871 L265.673168,315.362343 L264.035121,288.359946 C264.035121,285.046015 261.370872,282.380844 258.055095,282.380844 L258.035716,281.630572 L288.530152,281.630572 L288.510772,282.380844 C285.195919,282.380844 282.530747,285.046015 282.530747,288.359946 L282.511368,288.359946 L282.511368,352.567696 C282.945104,352.765185 289.261044,355.784728 299.801761,359.891381 L262.144585,359.376269 L262.18194,359.362746 C262.592424,359.203667 265.468523,357.920242 267.827501,353.831871 L267.983967,353.555139 L265.851276,318.461251 C263.127043,319.940569 259.612855,321.599841 255.803358,322.744167 C253.731574,323.374469 250.515465,323.791594 246.921913,324.085981 L245.105757,354.04886 C245.698223,356.732488 248.085619,358.746133 250.908596,358.746133 L250.927976,359.456722 L224.578029,359.456722 L224.597409,358.746133 C227.893806,358.746133 230.578357,356.043124 230.578357,352.726425 L230.597737,352.726425 L230.597737,324.737509 C229.270645,324.754249 228.04331,324.761645 226.963408,324.76361 L225.693766,324.763519 C223.796237,324.759753 222.567896,324.740777 222.390148,324.73788 L222.367819,324.737509 L230.597737,315.461087 L230.597737,287.610597 C230.242442,284.688875 227.755379,282.380844 224.696153,282.380844 L224.675851,281.630572 L255.054009,281.630572 Z M612.274681,281.630572 L612.216542,282.380844 C608.939525,282.380844 606.255897,285.046015 606.255897,288.340566 L606.214369,288.340566 L606.215292,352.549239 C606.669331,352.78641 612.986194,355.784728 623.525988,359.872924 L585.846293,359.377358 L585.868617,359.36929 C586.197727,359.245082 589.270169,357.975323 591.689737,353.537605 L589.537666,317.968453 C586.714689,319.546515 582.825827,321.460492 578.601972,322.74509 C576.668616,323.317253 573.846561,323.713153 570.648908,324.00754 L568.813373,354.028557 C569.425218,356.712186 571.774777,358.728599 574.654971,358.728599 L574.675274,359.456722 L548.304102,359.456722 L548.324404,358.728599 C551.64018,358.728599 554.305352,356.043124 554.305352,352.766108 L554.324732,352.766108 L554.324732,324.737509 C552.732787,324.761663 551.261541,324.771115 549.984983,324.772576 L549.191886,324.772481 C546.89742,324.769288 545.386045,324.741726 545.188492,324.737939 L545.166434,324.737509 L552.883251,315.461087 L554.324732,315.440785 L554.324732,288.00742 L554.305352,288.00742 C554.305352,284.670418 556.850554,281.965564 560.127571,281.709014 L560.127571,281.649029 L584.406657,281.649029 L584.406657,281.630572 L612.274681,281.630572 Z M224.008635,281.629649 L223.985172,281.649504 C223.977366,281.656074 223.967621,281.664249 223.955947,281.673992 L223.890438,281.728304 C222.909846,282.536461 215.882691,288.133747 204.862403,291.9738 L204.862403,353.398255 C205.177093,356.396573 207.684459,358.728599 210.763987,358.727676 L210.783367,359.455799 L182.952256,359.455799 L182.972559,358.727676 C186.268032,358.727676 188.933204,356.042202 188.933204,352.765185 L188.952584,352.765185 L188.952584,295.623646 C186.632036,295.886656 184.187327,296.086466 181.746598,296.23753 L180.933345,296.286099 C180.526968,296.3095 180.121097,296.331592 179.716325,296.352442 L178.908423,296.392504 C178.505381,296.411726 178.103834,296.429751 177.704374,296.446644 L176.908415,296.478943 C172.9443,296.633096 169.228541,296.678607 166.354394,296.682392 L165.517991,296.682343 C162.728101,296.678322 160.90021,296.636892 160.688895,296.631885 L160.668357,296.631391 L184.156567,281.629649 L224.008635,281.629649 Z M399.399632,288.619265 C381.793626,289.407373 370.701049,296.178275 365.489752,304.388812 C370.641064,312.659335 380.39275,319.112778 401.177028,319.328724 L399.399632,288.619265 Z M436.4278,288.619265 L434.651326,319.328724 C455.417148,319.112778 465.186368,312.659335 470.319222,304.388812 C465.128229,296.177352 454.032883,289.407373 436.4278,288.619265 Z M588.272448,296.807654 C584.52604,296.821748 580.424771,296.825592 576.537697,296.826641 L572.28511,296.827034 L571.161086,315.402948 L589.378015,315.34204 L588.272448,296.807654 Z" id="Combined-Shape"></path>
            </g>
        </g>
    </g>
</svg>