<?xml version="1.0" encoding="UTF-8"?>
<svg width="800px" height="400px" viewBox="0 0 800 400" version="1.1" xmlns="http://www.w3.org/2000/svg" xmlns:xlink="http://www.w3.org/1999/xlink">
    <title>nightdive</title>
    <g id="Page-1" stroke="none" stroke-width="1" fill="none" fill-rule="evenodd">
        <g id="Manufacturer" fill="#000000" fill-rule="nonzero">
            <g id="nightdive">
                <line x1="0" y1="0" x2="800" y2="400" id="Path"></line>
                <path d="M200.362598,309.60017 C202.041166,309.60017 203.402098,310.96114 203.402098,312.639043 C203.402098,314.317592 202.041166,315.678524 200.362598,315.678524 C198.684049,315.678524 197.323117,314.317592 197.323117,312.639043 C197.323117,310.96114 198.684049,309.60017 200.362598,309.60017 Z M183.687175,312.493089 C183.216853,310.013974 185.35051,307.880906 187.829017,308.350619 C189.206456,308.611776 190.332892,309.738232 190.594049,311.115042 C191.064371,313.594823 188.930713,315.727834 186.451579,315.258121 C185.074102,314.996964 183.948312,313.870566 183.687175,312.493089 Z M213.028078,309.244976 C214.44163,309.244976 215.58773,310.391076 215.58773,311.804018 C215.58773,313.21757 214.44163,314.363669 213.028078,314.363669 C211.614508,314.363669 210.469036,313.21757 210.469036,311.804018 C210.469036,310.391076 211.614508,309.244976 213.028078,309.244976 Z M173.747703,305.058444 C175.867441,305.058444 177.586552,306.777556 177.586552,308.897312 C177.586552,311.017677 175.867441,312.736789 173.747703,312.736789 C171.627339,312.736789 169.908835,311.017677 169.908835,308.897312 C169.908835,306.777556 171.627339,305.058444 173.747703,305.058444 Z M221.447733,308.25759 C222.508239,308.25759 223.367129,309.117145 223.367129,310.176986 C223.367129,311.23751 222.508239,312.096439 221.447733,312.096439 C220.387208,312.096439 219.528318,311.23751 219.528318,310.176986 C219.528318,309.117145 220.387208,308.25759 221.447733,308.25759 Z M206.121052,302.561928 C208.064561,302.561928 209.640439,304.137806 209.640439,306.081316 C209.640439,308.024825 208.064561,309.600018 206.121052,309.600018 C204.177543,309.600018 202.601684,308.024825 202.601684,306.081316 C202.601684,304.137806 204.177543,302.561928 206.121052,302.561928 Z M194.764226,301.219633 C196.883964,301.219633 198.603075,302.938136 198.603075,305.058501 C198.603075,307.178866 196.883964,308.89735 194.764226,308.89735 C192.643862,308.89735 190.92475,307.178866 190.92475,305.058501 C190.92475,302.938136 192.643862,301.219633 194.764226,301.219633 Z M48.1215687,282.069278 C54.4008911,283.070832 59.2045156,288.495029 59.2045156,295.056408 C59.2045156,302.328403 53.3080379,308.223588 46.0367082,308.223588 C44.1730692,308.223588 42.4032302,307.831235 40.795699,307.133321 C46.9412387,304.734684 51.3017735,298.771667 51.3017735,291.777316 C51.3017735,288.14322 50.1126197,284.794983 48.1215687,282.069278 Z M158.934664,299.868932 C161.178638,299.868932 162.997264,301.688205 162.997264,303.931513 C162.997264,306.175486 161.178638,307.994778 158.934664,307.994778 C156.690082,307.994778 154.871418,306.175486 154.871418,303.931513 C154.871418,301.688205 156.690082,299.868932 158.934664,299.868932 Z M216.745278,302.561928 C218.158829,302.561928 219.30432,303.708028 219.30432,305.120971 C219.30432,306.534522 218.158829,307.680622 216.745278,307.680622 C215.331061,307.680622 214.185626,306.534522 214.185626,305.120971 C214.185626,303.708028 215.331061,302.561928 216.745278,302.561928 Z M224.646917,302.012307 C225.707422,302.012307 226.566313,302.871863 226.566313,303.931703 C226.566313,304.9916 225.707422,305.851156 224.646917,305.851156 C223.586392,305.851156 222.727502,304.9916 222.727502,303.931703 C222.727502,302.871863 223.586392,302.012307 224.646917,302.012307 Z M182.981464,297.167131 C185.278684,297.167131 187.140422,299.029477 187.140422,301.326089 C187.140422,303.622681 185.278684,305.485046 182.981464,305.485046 C180.684852,305.485046 178.822506,303.622681 178.822506,301.326089 C178.822506,299.029477 180.684852,297.167131 182.981464,297.167131 Z M231.045284,299.453036 C232.105789,299.453036 232.96468,300.312592 232.96468,301.372432 C232.96468,302.432329 232.105789,303.291885 231.045284,303.291885 C229.984778,303.291885 229.125888,302.432329 229.125888,301.372432 C229.125888,300.312592 229.984778,299.453036 231.045284,299.453036 Z M147.168351,294.321411 C148.796183,294.63011 150.127354,295.961281 150.436052,297.588485 C150.992006,300.518962 148.470388,303.039971 145.539911,302.484683 C143.91208,302.175946 142.581536,300.844775 142.272838,299.216944 C141.71755,296.287132 144.238502,293.766123 147.168351,294.321411 Z M169.908835,292.424873 C172.293533,292.424873 174.227533,294.358266 174.227533,296.743572 C174.227533,299.128896 172.293533,301.06227 169.908835,301.06227 C167.522864,301.06227 165.589529,299.128896 165.589529,296.743572 C165.589529,294.358266 167.522864,292.424873 169.908835,292.424873 Z M65.7362279,212.235535 C105.394979,212.235535 131.361707,241.270893 144.109226,252.365916 C156.856136,263.460881 179.677498,291.949836 214.927507,291.949836 C255.294307,291.949836 250.337275,258.503849 247.504449,248.116914 C266.625765,304.101522 202.21612,319.209036 143.164722,267.946318 C129.595053,257.907389 102.44868,227.402656 96.8964237,242.764372 C83.3641227,230.490972 67.6245886,233.593218 50.2553783,238.072274 C38.4827424,241.10482 34.1735527,238.368317 32.6604394,235.354167 C25.1038588,240.903243 19.7810777,250.432523 18.5043899,263.977527 C16.6065209,253.248292 17.5884494,245.350646 19.5795004,239.644336 C10.0858796,249.043833 -0.676356519,266.205508 3.72906019,293.818486 L3.866,294.653476 L3.54101323,293.689909 C-7.0084587,261.55245 3.85272322,212.235535 65.7362279,212.235535 Z M27.8033779,271.241954 C31.6453742,271.241954 35.0918227,272.897702 37.498722,275.52201 C39.6482298,277.865479 40.9705578,280.979183 40.9705578,284.4098 C40.9705578,291.681795 35.0753733,297.576979 27.8033779,297.576979 C24.1331501,297.576979 20.8153498,296.072091 18.4281329,293.64936 C16.0852724,291.271661 14.6361981,288.010902 14.6361981,284.4098 C14.6361981,277.137139 20.5313826,271.241954 27.8033779,271.241954 Z M135.169616,287.851884 C136.992692,288.197361 138.484231,289.688899 138.830335,291.512603 C139.45281,294.79489 136.628199,297.620147 133.345304,296.997635 C131.5216,296.651531 130.030004,295.160011 129.684565,293.336307 C129.062718,290.05402 131.886702,287.230037 135.169616,287.851884 Z M156.355007,286.291181 C158.92797,286.291181 161.014105,288.376688 161.014105,290.950279 C161.014105,293.523241 158.92797,295.609376 156.355007,295.609376 C153.780771,295.609376 151.695282,293.523241 151.695282,290.950279 C151.695282,288.376688 153.780752,286.291181 156.355007,286.291181 Z M122.084208,280.931127 C124.105686,281.289916 125.730342,282.914572 126.08913,284.936049 C126.768027,288.75902 123.100329,291.979217 119.201881,290.480699 C117.98928,290.014789 117.00545,289.030959 116.53954,287.818357 C115.041688,283.919929 118.261219,280.252839 122.084208,280.931127 Z M142.195059,277.549573 C144.958798,277.549573 147.198968,279.789744 147.198968,282.552874 C147.198968,285.316004 144.958798,287.556174 142.195059,287.556174 C139.432538,287.556174 137.192368,285.316004 137.192368,282.552874 C137.192368,279.789744 139.432538,277.549573 142.195059,277.549573 Z M107.058143,272.939197 C109.408002,273.29924 111.328007,275.219302 111.688716,277.569161 C112.266197,281.340177 109.065016,284.541928 105.293391,283.963819 C102.944217,283.604403 101.023509,281.683714 100.663447,279.333913 C100.086004,275.562896 103.287127,272.361716 107.058143,272.939197 Z M67.7214788,266.023347 C72.5206915,266.023347 76.4108477,269.913541 76.4108477,274.712697 C76.4108477,279.511909 72.5206915,283.402103 67.7214788,283.402103 C62.9229508,283.402103 59.0327375,279.511909 59.0327375,274.712697 C59.0327375,269.913541 62.9229508,266.023347 67.7214788,266.023347 Z M89.8445469,266.197064 C92.3617337,266.754863 94.3939559,268.786515 94.9518115,271.304329 C96.0598209,276.300022 91.7062842,280.653578 86.7105908,279.546177 C84.1927765,278.987713 82.1617903,276.956099 81.6033072,274.438285 C80.4965338,269.442592 84.8488535,265.089664 89.8445469,266.197064 Z M127.547466,267.29142 C130.629411,267.29142 133.1276,269.789552 133.1276,272.871554 C133.1276,275.953538 130.629411,278.45167 127.547466,278.45167 C124.465482,278.45167 121.967293,275.953538 121.967293,272.871554 C121.967293,269.789552 124.465482,267.29142 127.547466,267.29142 Z M44.7570253,248.52933 C50.6445936,248.52933 55.4178104,253.302527 55.4178104,259.190105 C55.4178104,265.077683 50.6446126,269.850881 44.7570253,269.850881 C38.8688294,269.850881 34.0956316,265.077683 34.0956316,259.190105 C34.0956316,253.302527 38.8688294,248.52933 44.7570253,248.52933 Z M110.80343,255.351009 C114.585857,255.351009 117.651353,258.417132 117.651353,262.199559 C117.651353,265.981358 114.585857,269.047481 110.80343,269.047481 C107.021004,269.047481 103.955508,265.981358 103.955508,262.199559 C103.955508,258.417132 107.021004,255.351009 110.80343,255.351009 Z M92.0227225,246.734683 C96.2102052,246.734683 99.605299,250.129169 99.605299,254.31726 C99.605299,258.504742 96.2102052,261.899228 92.0227225,261.899228 C87.8352398,261.899228 84.440127,258.504742 84.440127,254.31726 C84.440127,250.129169 87.8352398,246.734683 92.0227225,246.734683 Z M69.3354853,243.090794 C74.1346789,243.090794 78.0248351,246.980988 78.0248351,251.780144 C78.0248351,256.579356 74.1346789,260.46955 69.3354853,260.46955 C64.5369382,260.46955 60.646744,256.579356 60.646744,251.780144 C60.646744,246.980988 64.5369382,243.090794 69.3354853,243.090794 Z M203.576709,84.5933326 C212.366867,87.4128815 236.578333,96.6049327 248.718609,115.452389 C250.082736,117.56895 250.443426,120.190121 249.662467,122.584326 C248.338903,126.644397 247.33229,129.56218 246.582366,131.64261 C253.313678,141.905318 257.993066,153.635452 260.034188,166.250528 C246.553232,154.825281 229.98649,145.762528 210.426553,143.911582 C215.091964,152.014609 217.760638,161.412674 217.760638,171.433822 C217.760638,183.676171 213.775398,194.9867 207.034578,204.143871 L212.56717,209.675836 L202.180235,220.062771 L197.016567,214.575828 C187.563981,222.143821 175.5727,226.672368 162.522131,226.672368 C138.794964,226.672368 118.564973,211.711911 110.742767,190.710459 C104.54902,195.51028 99.8582214,201.337003 94.0638256,210.620349 C91.5453837,209.317704 88.8367366,208.335775 86.4165732,207.61314 C83.7301376,199.103158 82.2772599,190.044874 82.2772599,180.646809 C82.2772599,172.176758 83.4543951,163.982451 85.653337,156.216639 L76.2711698,144.668448 C75.0109696,143.117301 74.7719864,140.978538 75.6740447,139.195435 C78.1709406,134.259929 83.778307,124.025128 91.4363418,115.10947 C98.116917,107.332248 107.917509,99.8960906 112.416866,96.6524745 C113.890054,95.5907042 115.815782,95.389764 117.472139,96.1352196 L129.728418,101.650716 C142.254715,94.9764641 156.551488,91.1889697 171.735125,91.1889697 C177.984021,91.1889697 184.083293,91.8298333 189.970262,93.0494385 C191.023615,92.2566207 192.818625,90.6543844 194.619145,88.9920795 L195.253653,88.4041096 C196.202162,87.522074 197.127943,86.6479115 197.921763,85.892812 C199.431064,84.4570588 201.593893,83.9569094 203.576709,84.5933326 Z M162.522131,124.221666 C136.447007,124.221666 115.309918,145.359375 115.309918,171.433824 C115.309918,197.508938 136.447007,218.646027 162.522131,218.646027 C188.597236,218.646027 209.734325,197.508936 209.734325,171.433822 C209.734325,145.359373 188.597236,124.221666 162.522131,124.221666 Z M182.488113,140.000032 C182.488113,140.000032 194.763409,141.889011 200.900733,155.580435 C191.615475,157.783807 187.051461,163.291716 192.874382,176.353639 L189.097661,181.547106 C189.097661,181.547106 185.005927,172.891359 175.878527,174.465278 C176.350142,172.891359 176.822365,171.160171 176.822365,171.160171 C176.822365,171.160171 167.379953,173.206371 164.075455,175.409173 C160.770349,177.612548 158.881379,190.045682 158.881379,190.045682 C158.881379,190.045682 161.08479,185.009435 164.54707,183.435469 C164.075455,188.943996 164.389231,194.609078 170.212818,197.12751 C176.035739,199.645324 179.969633,202.163139 186.737685,198.543638 C182.960355,203.579267 182.015833,205.153233 182.015833,205.153233 C182.015833,205.153233 171.943967,199.330928 163.13099,199.960382 C154.317974,200.589837 153.68852,205.625464 153.68852,205.625464 C153.68852,205.625464 149.91119,202.950429 146.606692,205.625464 C145.347785,201.533683 143.931039,200.90423 140.940374,201.37651 C140.626598,198.543636 137.478665,196.969669 135.275292,198.071403 C134.173558,195.081309 134.488627,194.609078 131.49857,194.766917 C131.575884,194.25087 131.687064,193.739063 131.79674,193.248137 L131.862082,192.95622 C132.389616,190.594866 132.711208,188.814742 128.665706,189.573449 L132.914651,183.435467 L132.945572,183.435429 C133.211505,183.445182 135.096017,183.720059 134.803677,189.573447 C137.16428,186.11112 136.849211,183.435467 135.747534,181.547106 L139.052641,181.547106 C139.052641,181.547106 135.275292,178.084826 130.554067,178.71428 C127.24896,173.835826 127.56401,169.27181 130.554067,163.134496 C135.590304,160.931075 138.737572,157.941028 141.413225,153.692074 C141.91795,152.890259 142.467514,152.071654 143.027028,151.271141 L143.363652,150.793282 C145.555837,147.704941 147.793234,144.997866 148.0063,144.741109 L148.02283,144.72122 C148.02283,144.72122 150.855694,138.741127 182.488113,140.000032 Z M156.993019,177.298152 L146.606692,179.658745 L141.885505,184.37998 L149.91119,183.435469 L148.02283,188.156703 L151.327936,192.406321 L153.68852,189.573447 L153.216297,184.37998 L156.993019,177.298152 Z M139.524864,158.885541 C136.219149,162.347205 135.904803,166.911217 135.747534,170.216324 C135.590304,173.52143 139.524864,175.882024 139.524864,175.882024 L138.108118,171.160171 C142.35712,175.094731 145.97663,175.094731 150.383414,173.993045 C150.473349,173.970562 150.56453,173.947423 150.656819,173.923573 L150.936876,173.849832 L151.222766,173.771485 C155.646953,172.533126 161.839606,169.551477 156.520776,159.357156 C150.855694,148.497941 142.829362,155.423214 139.524864,158.885541 Z M94.6907499,118.126806 C91.1067249,122.496184 87.423794,127.774608 84.0153885,134.061537 C82.9314352,136.061479 83.205276,138.534271 84.6917563,140.255902 L89.3730082,145.675669 C91.7222393,140.148791 94.6153106,134.909065 97.9787415,130.018582 C97.2313843,127.112208 97.7841244,123.905989 99.0557157,120.711797 C100.13714,117.996218 96.5448805,115.866336 94.6907499,118.126806 Z M222.152873,107.16747 C229.620741,112.085195 236.30763,118.091912 241.987925,124.962655 C242.426603,124.110706 242.996477,122.89682 243.719113,121.168818 C244.537459,119.211379 244.142539,116.947104 242.704247,115.387116 L242.681427,115.362394 C237.571025,109.820303 231.370888,105.531366 224.559763,102.677621 C221.680631,101.472579 219.546289,105.450878 222.152873,107.16747 Z M460.520285,314.752352 L460.520285,275.560804 C460.520285,275.259713 460.276263,275.015633 459.975133,275.015633 L453.042282,275.015633 C452.741171,275.015633 452.497129,274.771591 452.497129,274.470519 L452.497129,269.221237 C452.497129,268.920145 452.741171,268.676123 453.042282,268.676123 L474.337209,268.676123 C474.638301,268.676123 474.882324,268.920145 474.882324,269.221237 L474.882324,274.470519 C474.882324,274.771591 474.638301,275.015633 474.337209,275.015633 L467.404948,275.015633 C467.103875,275.015633 466.859852,275.259713 466.859852,275.560804 L466.859852,314.752352 C466.859852,315.053444 466.615773,315.297524 466.314681,315.297524 L461.065457,315.297524 C460.764327,315.297524 460.520285,315.053444 460.520285,314.752352 M543.839343,275.040126 C543.23714,275.040126 542.749076,275.528229 542.749076,276.130393 L542.749076,307.831938 C542.749076,308.434103 543.23714,308.922224 543.839343,308.922224 L549.896797,308.922224 C551.339539,308.922224 552.513498,307.734953 552.513498,306.275096 L552.513498,277.687254 C552.513498,276.228044 551.339539,275.040126 549.896797,275.040126 L543.839343,275.040126 Z M536.409509,314.747655 L536.409509,269.215912 C536.409509,268.91484 536.65355,268.670132 536.95468,268.670132 L550.144015,268.670132 C554.914075,268.670132 558.794722,272.587578 558.794722,277.402612 L558.794722,306.519119 C558.794722,311.359541 554.890589,315.297904 550.092042,315.297904 L550.092042,315.297904 L536.953387,315.292199 C536.652942,315.292199 536.4089,315.048157 536.4089,314.747028 M615.010822,275.040126 C613.453352,275.040126 612.18621,276.30664 612.18621,277.86411 L612.18621,306.09824 C612.18621,307.65571 613.453352,308.922224 615.010822,308.922224 L619.334597,308.922224 C620.777966,308.922224 621.951298,307.734953 621.951298,306.275096 L621.951298,277.687254 C621.951298,276.228044 620.777966,275.040126 619.334597,275.040126 L615.010822,275.040126 Z M614.446633,315.296002 C609.705156,315.296002 605.846662,311.434942 605.846662,306.692836 L605.846662,277.273298 C605.846662,272.529919 609.70643,268.670132 614.449828,268.670132 L619.582442,268.670132 C624.351837,268.670132 628.232541,272.587578 628.232541,277.402612 L628.232541,306.519119 C628.232541,311.359541 624.328408,315.297904 619.529823,315.297904 L614.446633,315.296002 Z M579.222297,314.752352 L579.222297,269.131231 C579.222297,268.830158 579.46632,268.586078 579.767469,268.586078 L585.016693,268.586078 C585.317766,268.586078 585.561865,268.830158 585.561865,269.131231 L585.561865,314.752352 C585.561865,315.053444 585.317766,315.297524 585.016693,315.297524 L579.767469,315.297524 C579.46632,315.297524 579.222297,315.053444 579.222297,314.752352 M501.815349,315.295717 C497.064971,315.295717 493.215359,311.442929 493.215359,306.692551 L493.215359,269.142127 C493.215359,268.841663 493.454969,268.597641 493.755434,268.596975 C495.139851,268.593172 497.047856,268.589368 498.536866,268.589368 C498.708587,268.589368 498.866464,268.589368 499.012892,268.589368 C499.314022,268.589368 499.554869,268.833467 499.554869,269.13454 L499.554869,307.24086 C499.554869,308.169561 500.307323,308.922604 501.235947,308.922604 L506.702647,308.922604 C508.166935,308.922604 509.40363,307.710573 509.40363,306.275476 L509.40363,269.147832 C509.40363,268.846741 509.64771,268.602661 509.948802,268.602661 L515.055401,268.602661 C515.356531,268.602661 515.600572,268.846741 515.600572,269.147832 L515.600572,306.519499 C515.600572,311.359864 511.697047,315.297619 506.897892,315.297619 L506.897892,315.297619 L501.815349,315.295717 Z M418.659293,315.133352 L418.659293,309.873326 C418.659293,309.572254 418.903325,309.328174 419.204455,309.328174 L431.833462,309.328174 C433.392833,309.328174 434.657445,308.063562 434.657445,306.50419 L434.657445,301.583936 C434.657445,300.024565 433.392833,298.76058 431.833462,298.76058 L427.262459,298.76058 C422.510798,298.76058 418.659293,294.908458 418.659293,290.157414 L418.659293,277.697029 C418.659293,277.395956 418.903325,277.151877 419.204455,277.151877 L424.464481,277.151877 C424.765563,277.151877 425.009595,277.395956 425.009595,277.697029 L425.009595,289.585677 C425.009595,291.145656 426.273589,292.40966 427.833579,292.40966 L432.404581,292.40966 C437.155577,292.40966 441.007747,296.261783 441.007747,301.012826 L441.007747,307.075358 C441.007747,311.826972 437.155577,315.678524 432.404581,315.678524 L419.204455,315.678524 C418.903325,315.678524 418.659293,315.434444 418.659293,315.133352 M647.125885,314.942805 L647.125885,309.682779 C647.125885,309.381706 647.369908,309.137626 647.671038,309.137626 L660.299379,309.137626 C661.859415,309.137626 663.124028,307.873014 663.124028,306.313015 L663.124028,301.393389 C663.124028,299.834017 661.859415,298.570033 660.300044,298.570033 L655.729051,298.570033 C650.97738,298.570033 647.125885,294.71791 647.125885,289.966867 L647.125885,277.697276 C647.125885,277.396184 647.369908,277.151496 647.671038,277.151496 L652.931063,277.151496 C653.232155,277.151496 653.476178,277.396184 653.476178,277.697276 L653.476178,289.395129 C653.476178,290.955109 654.740181,292.219112 656.300161,292.219112 L660.871173,292.219112 C665.62216,292.219112 669.474339,296.071235 669.474339,300.822279 L669.474339,306.88481 C669.474339,311.636424 665.62216,315.487976 660.871173,315.487976 L647.671038,315.487976 C647.369908,315.487976 647.125885,315.243897 647.125885,314.942805 M700.966643,245.354278 L683.790129,106.941679 C683.732509,106.47767 684.094397,106.068183 684.561543,106.068183 L701.409733,106.068183 C701.806574,106.068183 702.139367,106.366746 702.18244,106.76102 L709.305496,171.747537 C709.356271,172.208978 710.028131,172.208978 710.078849,171.747537 L717.197436,106.76102 C717.240795,106.366746 717.57334,106.068183 717.970124,106.068183 L734.830352,106.068183 C735.297555,106.068183 735.658872,106.477043 735.602431,106.940442 L718.631297,245.353004 C718.583185,245.742847 718.252237,246.03637 717.859218,246.03637 L701.738741,246.03637 C701.345704,246.03637 701.014813,245.743513 700.966662,245.354278 M487.609476,245.258491 L487.609476,212.199818 C487.609476,211.770648 487.261451,211.422034 486.831673,211.422034 L473.881911,211.422034 C473.452133,211.422034 473.104127,211.770648 473.104127,212.199818 L473.104127,245.258491 C473.104127,245.687641 472.756121,246.036275 472.326343,246.036275 L455.630325,246.036275 C455.200547,246.036275 454.852541,245.687641 454.852541,245.258491 L454.852541,106.845872 C454.852541,106.416094 455.200547,106.068088 455.630325,106.068088 L472.326343,106.068088 C472.756121,106.068088 473.104127,106.416094 473.104127,106.845872 L473.104127,192.393272 C473.104127,192.822384 473.452133,193.17039 473.881911,193.17039 L486.831692,193.17039 C487.26147,193.17039 487.609476,192.822384 487.609476,192.393272 L487.609476,106.845872 C487.609476,106.416094 487.957482,106.068088 488.38726,106.068088 L505.083316,106.068088 C505.513094,106.068088 505.8611,106.416094 505.8611,106.845872 L505.8611,245.258491 C505.8611,245.687641 505.513094,246.036275 505.083316,246.036275 L488.38726,246.036275 C487.957482,246.036275 487.609476,245.687641 487.609476,245.258491 M748.991441,245.258491 L748.991441,106.845872 C748.991441,106.416094 749.339447,106.068088 749.769225,106.068088 L797.061289,106.068088 C797.490401,106.068088 797.838407,106.416094 797.838407,106.845872 L797.838407,123.541948 C797.838407,123.971726 797.490401,124.319732 797.061289,124.319732 L768.020849,124.319732 C767.591071,124.319732 767.243065,124.667738 767.243065,125.097516 L767.243065,192.393272 C767.243065,192.822384 767.591071,193.17039 768.020849,193.17039 L797.061289,193.17039 C797.490401,193.17039 797.838407,193.519062 797.838407,193.948174 L797.838407,210.644858 C797.838407,211.074028 797.490401,211.422034 797.061289,211.422034 L768.020849,211.422034 C767.591071,211.422034 767.243065,211.770648 767.243065,212.199818 L767.243065,227.006848 C767.243065,227.436626 767.591071,227.784632 768.020849,227.784632 L799.222216,227.784632 C799.651994,227.784632 800,228.132638 800,228.561807 L800,245.258491 C800,245.687641 799.651994,246.036275 799.222216,246.036275 L749.769225,246.036275 C749.339447,246.036275 748.991441,245.687641 748.991441,245.258491 M536.103149,245.258491 L536.103149,124.319732 L520.502456,124.319732 C520.072678,124.319732 519.724672,123.971726 519.724672,123.541948 L519.724672,106.845872 C519.724672,106.416094 520.072678,106.068088 520.502456,106.068088 L569.955448,106.068088 C570.385226,106.068088 570.733232,106.416094 570.733232,106.845872 L570.733232,123.541948 C570.733232,123.971726 570.385226,124.319732 569.955448,124.319732 L554.354793,124.319732 L554.354793,245.258491 C554.354793,245.687641 554.006787,246.036275 553.577009,246.036275 L536.880933,246.036275 C536.451155,246.036275 536.103149,245.687641 536.103149,245.258491 M613.88583,227.723075 C615.367861,227.723075 616.573521,226.490163 616.573521,224.973865 L616.573521,127.130308 C616.573521,125.614675 615.367861,124.381099 613.88583,124.381099 L602.726208,124.381099 C602.29643,124.381099 601.948424,124.729105 601.948424,125.158883 L601.948424,226.945291 C601.948424,227.375068 602.29643,227.723075 602.726208,227.723075 L613.88583,227.723075 Z M583.69678,245.259004 L583.69678,106.845777 C583.69678,106.416665 584.044787,106.067993 584.474564,106.067993 L614.391067,106.067993 C625.586821,106.067993 634.70534,115.256266 634.70534,126.549671 L634.70534,225.472103 C634.70534,236.817481 625.544375,246.04759 614.284573,246.04759 L584.473956,246.03618 C584.044787,246.03618 583.69678,245.688174 583.69678,245.259004 M411.072,246.036085 C399.741218,246.036085 390.55614,236.851007 390.55614,225.520215 L390.55614,126.583806 C390.55614,115.253641 399.741218,106.068564 411.072,106.068564 L422.269048,106.068564 C422.698826,106.068564 423.046832,106.41657 423.046832,106.845682 L423.046832,123.542366 C423.046832,123.971535 422.698826,124.319541 422.269048,124.319541 L411.918245,124.319541 C410.200416,124.319541 408.807727,125.712174 408.807727,127.43005 L408.807727,224.673971 C408.807727,226.391809 410.200416,227.784442 411.918245,227.784442 L420.168983,227.784442 C421.886811,227.784442 423.278836,226.391809 423.278836,224.673971 L423.278836,199.130707 C423.278836,198.700929 423.62746,198.352923 424.05662,198.352923 L440.786916,198.352923 C441.216694,198.352923 441.5647,198.700929 441.5647,199.130707 L441.5647,225.520215 C441.5647,236.851007 432.379622,246.036085 421.048792,246.036085 L411.072,246.036085 Z M321.602116,245.425173 L307.153209,179.556317 C307.053714,179.101818 306.384934,179.174081 306.384934,179.63923 L306.384934,245.258339 C306.384934,245.688117 306.036927,246.036123 305.607149,246.036123 L288.911084,246.036123 C288.481306,246.036123 288.1333,245.688117 288.1333,245.258339 L288.1333,106.845777 C288.1333,106.416627 288.481306,106.067993 288.911084,106.067993 L304.913657,106.067993 C305.278778,106.067993 305.595121,106.322152 305.67309,106.679058 L320.121331,172.548559 C320.221512,173.003059 320.890273,172.93013 320.890273,172.464886 L320.890273,106.845777 C320.890273,106.416627 321.238279,106.067993 321.668057,106.067993 L338.364075,106.067993 C338.793853,106.067993 339.141859,106.416627 339.141859,106.845777 L339.141859,245.258339 C339.141859,245.688117 338.793853,246.036123 338.364075,246.036123 L322.361502,246.036123 C321.99638,246.036123 321.680085,245.781964 321.602116,245.425078 M651.742423,244.869732 L651.742423,106.845739 C651.742423,106.41657 652.090429,106.068564 652.520207,106.068564 L669.216282,106.068564 C669.64606,106.068564 669.994066,106.41657 669.994066,106.845739 L669.994066,244.869732 C669.994066,245.298902 669.64606,245.647516 669.216282,245.647516 L652.520207,245.647516 C652.090429,245.647516 651.742423,245.298902 651.742423,244.869732 M355.082486,244.869732 L355.082486,106.845739 C355.082486,106.41657 355.430492,106.068564 355.86027,106.068564 L372.556335,106.068564 C372.986113,106.068564 373.334119,106.41657 373.334119,106.845739 L373.334119,244.869732 C373.334119,245.298902 372.986113,245.647516 372.556335,245.647516 L355.86027,245.647516 C355.430492,245.647516 355.082486,245.298902 355.082486,244.869732" id="Combined-Shape"></path>
            </g>
        </g>
    </g>
</svg>