<?xml version="1.0" encoding="UTF-8"?>
<svg width="800px" height="400px" viewBox="0 0 800 400" version="1.1" xmlns="http://www.w3.org/2000/svg" xmlns:xlink="http://www.w3.org/1999/xlink">
    <title>oddworldinhabitants</title>
    <g id="Page-1" stroke="none" stroke-width="1" fill="none" fill-rule="evenodd">
        <g id="Manufacturer" fill="#000000" fill-rule="nonzero">
            <g id="oddworldinhabitants">
                <line x1="0" y1="0" x2="800" y2="400" id="Path"></line>
                <path d="M356.035275,333.816964 L368.343511,337.317114 L370.199895,361.537654 L381.373933,339.336088 L393.035741,340.331281 L395.119036,387.493082 C395.337014,391.548897 398.671001,392.258218 400.182551,392.258218 L400.629227,400 L380.528823,398.84579 L381.309612,391.252304 C381.309612,391.252304 386.558944,392.145656 386.564304,386.699786 L385.265371,359.007683 L373.294464,384.017946 C371.482748,389.242264 377.103714,390.582291 377.103714,390.582291 L376.020972,398.404475 L352.2455,393.630405 L354.396511,385.483042 C355.696873,385.688513 356.224487,385.813582 357.028503,385.393707 C357.825193,384.970258 359.561868,382.066866 359.681577,381.893556 L363.95537,373.849821 L361.881008,351.528546 L348.525585,379.595857 C347.400499,382.57965 348.888465,384.241283 350.43164,384.55217 L348.162706,392.742414 L326.702622,385.70638 L329.606013,378.522049 C330.944611,379.097367 332.643408,379.156328 333.254817,378.782907 C334.152993,378.254043 335.268431,377.705526 336.390659,375.507881 L356.035275,333.816964 Z M441.176654,338.889412 C445.57909,340.595713 449.316871,343.493745 452.393573,347.563853 C455.463128,351.635749 457.523196,357.455039 458.573777,363.238595 C460.137142,371.852288 458.943625,379.342145 455.009306,385.72782 C451.076773,392.102775 445.146707,396.013867 437.215535,397.450375 C429.121772,398.919045 422.085738,397.346747 416.114578,392.735267 C410.123764,388.123788 406.144777,380.823321 404.574266,372.157814 C402.884045,362.843734 404.429543,354.637409 409.116064,348.03733 C412.987848,342.568233 418.753537,338.95552 426.162993,337.615494 C431.750012,336.602433 436.767073,337.177751 441.176654,338.889412 Z M427.474433,347.410197 C423.761665,348.153465 421.099478,350.347536 419.486085,353.992409 C417.595754,358.257268 417.292015,363.603082 418.57308,370.028065 C419.850573,376.45662 422.305502,381.42008 425.934295,384.925591 C428.800166,387.709273 432.130579,388.722333 435.927322,387.966558 C438.207155,387.516309 440.152874,386.337086 441.7752,384.434247 C443.402886,382.534983 444.469547,379.938904 444.985904,376.649584 C445.505835,373.363838 445.309297,369.470613 444.417733,364.971696 C443.140241,358.571728 440.808594,353.72083 437.419219,350.424364 C434.530121,347.672842 431.215788,346.670502 427.474433,347.410197 Z M490.484285,308.356453 L495.771138,314.461615 C490.470084,318.064716 491.35884,321.324419 491.391063,321.435751 C491.39193,321.438689 490.75765,334.408362 490.575407,337.004441 C490.38959,339.596947 490.721916,339.76847 490.709409,339.77383 C490.696902,339.77919 502.546314,336.795397 510.586475,347.367316 C525.391093,366.831654 475.670734,384.737987 475.670734,384.737987 C474.57911,382.039249 473.753569,380.06008 473.151254,378.646889 L472.992489,378.275391 C472.200464,376.427291 471.843926,375.675239 471.802969,375.589524 L471.857678,375.561519 C472.296746,375.339516 475.198598,373.805645 473.959073,371.189421 C473.332464,369.866579 470.72268,364.022536 467.85546,357.591284 L467.503202,356.801116 C467.326548,356.404832 467.149192,356.006949 466.971531,355.60837 L466.615921,354.81055 C466.556624,354.677515 466.497322,354.544469 466.438031,354.411445 L466.082521,353.61385 L465.672473,352.693935 C462.468238,345.505722 459.481011,338.811762 459.068694,337.987128 C458.191423,336.232586 454.453641,337.837045 454.453641,337.837045 L451.625291,331.13691 L468.747262,323.246832 L471.873991,329.350208 C471.873991,329.350208 467.869991,331.97666 468.979533,334.236839 C469.430145,335.156234 470.559855,337.426431 471.741612,339.796341 L472.185987,340.687288 L472.481318,341.279205 C472.565335,341.447574 472.64895,341.615121 472.731936,341.781391 L473.100353,342.519448 C473.436117,343.192004 473.755002,343.830515 474.040477,344.402002 L474.396492,345.114626 C474.608907,345.539766 474.792615,345.907373 474.937821,346.1979 L475.102526,346.527422 C475.149841,346.622079 475.189313,346.70104 475.220171,346.762765 L475.286128,346.894697 C475.2947,346.911841 475.2991,346.92064 475.2991,346.92064 L480.360828,344.240587 L480.727102,315.801642 L490.484285,308.356453 Z M309.119682,307.972311 L332.660203,325.330127 C341.244469,333.61328 338.463841,346.351768 338.164318,347.604909 L338.140713,347.700925 C338.139662,347.705003 333.021653,363.240382 321.181353,370.824934 C311.11877,377.270285 301.8111,373.567929 299.245207,372.312202 L299.075361,372.22779 C298.731959,372.054413 298.54955,371.945196 298.54955,371.945196 L273.731894,354.574874 L278.000326,348.680542 L280.595333,350.679863 C282.487123,351.881321 284.778453,349.732833 285.027206,349.490404 L285.049404,349.468478 L306.517886,320.366667 C308.290473,317.715201 306.924003,316.410908 306.924003,316.410908 L304.396712,313.750508 L309.119682,307.972311 Z M479.319181,354.662423 C479.319181,354.662423 486.614287,368.854201 486.671462,368.798975 C486.726849,368.745212 488.60646,367.916182 489.741017,367.28905 C489.741017,367.28905 506.119719,359.427558 498.351136,351.557134 C491.111417,344.220933 479.319181,354.662423 479.319181,354.662423 Z M317.602946,325.30154 L292.753844,357.631922 L297.423748,361.065965 L299.817751,362.722238 C299.817751,362.722238 301.324477,363.712071 303.893577,363.913968 C306.463391,364.115866 310.068957,363.610229 314.213928,360.785452 C322.534602,355.109098 327.455002,345.375143 327.651182,341.169245 C327.657674,341.032086 327.664477,340.895881 327.67132,340.760512 L327.691697,340.356788 C327.877913,336.609826 327.88206,333.423175 321.734159,328.160264 L317.602946,325.30154 Z M520.11496,275.600835 L540.624519,286.644443 L538.473329,292.890755 C535.030353,291.091546 532.017972,289.97307 529.436187,289.540688 C526.863336,289.097586 524.610304,289.203001 522.669945,289.837281 C520.740306,290.47156 518.773146,291.856254 516.773826,294.003871 C516.173494,294.645297 515.240835,296.926916 515.167581,297.27175 C515.088966,297.61837 515.142567,297.934617 515.29801,298.215129 C515.45524,298.508148 516.032345,299.104907 517.025751,300.025059 L541.694753,322.925225 C542.618479,323.786416 543.379614,324.324213 543.965652,324.542191 C544.549904,324.765529 545.125222,324.779822 545.686247,324.581498 C545.98284,324.47251 546.50277,324.024047 547.246038,323.221818 L548.586065,321.783522 L554.601893,327.365181 L539.323799,343.763537 L533.302612,338.180092 L534.960672,336.405896 C535.564577,335.750176 535.902264,335.190938 535.950505,334.722822 C536.005893,334.252919 535.870103,333.727629 535.55207,333.155884 C535.241184,332.578779 534.569384,331.81407 533.533096,330.851038 L508.999883,308.072367 C508.049358,307.191522 507.31145,306.648365 506.784372,306.437534 C506.262655,306.23385 505.726644,306.194542 505.190634,306.323185 C504.651049,306.442894 504.072158,306.837755 503.468252,307.486328 L501.974569,309.094361 L495.960528,303.501982 L495.991297,303.47027 C496.651522,302.788899 507.839402,291.198748 520.11496,275.600835 Z M278.908328,272.549147 L295.382977,296.317651 C301.658982,307.050945 295.114489,318.939996 294.982971,319.176704 C294.980968,319.180297 285.844308,332.752089 272.395976,336.847211 C259.227118,340.860518 250.356772,332.426933 249.99289,332.073791 L249.981257,332.062422 L231.118323,308.365386 L237.306746,303.58417 L239.261041,306.207049 C240.846025,307.975885 243.876451,306.24993 243.876451,306.24993 L272.511754,284.419998 C274.935059,282.347423 273.971848,280.721524 273.971848,280.721524 L271.912316,277.535833 L278.908328,272.549147 Z M281.305726,291.811587 C280.743272,292.215382 278.658547,293.673331 276.324578,295.493981 L276.316441,295.500087 L276.252318,295.548207 C275.886721,295.822564 274.162581,297.116402 271.73786,298.93573 L271.089865,299.421933 C270.77414,299.658825 270.448487,299.903163 270.114167,300.154001 L269.086468,300.925065 C267.334506,302.239511 265.397406,303.692764 263.432827,305.166454 L262.606521,305.786281 L262.192968,306.096487 L261.366681,306.716264 C258.812831,308.631809 256.3058,310.511876 254.191967,312.096405 L252.751536,313.176011 C251.437441,314.160779 250.349368,314.975696 249.600726,315.535616 L249.216162,315.823115 C248.791721,316.140261 248.537765,316.329334 248.491147,316.362667 C248.211349,316.564564 252.445655,322.049741 254.326517,323.343314 C262.195691,328.757022 268.398944,325.730348 275.229508,321.51909 C285.99582,314.877917 291.204415,303.820015 284.726368,295.683371 C284.726368,295.683371 281.586953,291.611476 281.305726,291.811587 Z M400.642669,290.384258 C408.145315,290.384258 414.271533,294.762149 414.271533,300.033405 C414.271533,305.304661 408.189781,309.57745 400.687135,309.57745 C393.180446,309.57745 386.934978,305.266258 386.934978,299.997024 C386.934978,294.725768 393.13598,290.384258 400.642669,290.384258 Z M557.683955,231.983852 C557.683955,231.983852 582.501253,233.166649 590.98809,252.820377 C596.312464,265.157558 577.437738,295.701238 577.437738,295.701238 L570.142632,292.127833 L571.566634,288.704511 C572.634705,286.101191 569.958423,284.241932 569.67375,284.053432 L569.649502,284.037644 L536.524036,268.72203 C533.458055,267.528512 532.448568,269.193719 532.448568,269.193719 L530.651145,272.118551 L524.283337,268.752404 L536.686626,242.754095 C543.342093,231.081567 557.683955,231.983852 557.683955,231.983852 Z M253.724934,234.846149 C259.755056,237.763835 264.046536,242.771962 266.589193,249.859811 C268.505789,255.200265 268.981766,260.179805 268.016411,264.812725 C267.058917,269.433137 264.814997,273.597941 261.305913,277.301775 C257.794507,281.003823 253.278259,283.84468 247.744305,285.835067 C239.505998,288.79206 231.918051,288.854594 224.977248,286.015524 C217.713766,283.046024 213.205915,277.977149 210.486018,270.392597 C207.704837,262.650814 208.097733,255.453977 211.66417,248.805656 C215.224889,242.137682 221.149773,237.318946 229.438287,234.342299 C238.348036,231.144102 246.443407,231.310265 253.724934,234.846149 Z M450.723641,156.561464 C572.358677,249.200551 439.928481,287.732461 439.928481,287.732461 C439.928481,287.732461 498.14271,262.960792 481.172824,210.983946 C478.745378,203.539915 466.052324,184.70043 450.105158,169.860875 C433.016021,153.964239 421.507382,137.814954 421.507382,137.814954 C421.507382,137.814954 419.811607,181.783857 411.892596,206.395852 C400.48538,241.831707 416.37847,258.356899 417.018756,259.003732 L417.038538,259.02352 L384.473172,259.025541 C384.804647,258.629388 400.060567,241.036976 388.123436,204.255415 C378.698964,175.207521 378.19795,138.936615 378.181679,137.497398 L378.181217,137.453162 C378.181217,137.453162 378.172585,137.464054 378.155615,137.485447 L378.079984,137.58074 C377.284656,138.582413 371.915118,145.333621 365.95762,152.541085 L365.379386,153.239828 L365.089144,153.589935 L363.952232,154.957104 L363.19202,155.867287 L362.514589,156.675453 C357.550516,162.587042 352.702631,168.124935 350.187372,170.34596 C343.503913,176.249847 328.679113,190.185932 320.903,205.617695 C294.592804,257.824956 361.417492,287.847668 361.417492,287.847668 C361.417492,287.847668 269.020947,262.714207 307.896257,199.622854 C316.110563,186.297168 330.185503,171.269642 352.239281,154.419006 C378.119935,132.250501 388.294759,73.7699107 388.6914,71.4395544 L388.703517,71.367824 C380.273388,167.435438 399.298857,205.479614 400.063248,206.962954 L400.086842,207.008271 C400.086842,207.008271 419.991492,169.816409 410.431277,71.4965737 C409.483341,61.7498034 418.724208,132.191406 450.723641,156.561464 Z M553.029594,244.315673 C549.332907,245.087528 544.237231,246.155976 541.051541,253.13841 L539.275558,258.200138 L577.221547,275.88492 L577.228489,275.871205 L577.279774,275.769674 C577.292005,275.745429 577.305921,275.717825 577.321285,275.687317 L577.428965,275.47307 C577.65132,275.029751 577.991826,274.345203 578.136339,274.024963 C578.428606,273.361438 578.799804,272.456842 579.170937,271.529599 L579.356133,271.065101 C580.006656,269.42745 580.616036,267.832574 580.751147,267.478051 L580.77535,267.414491 C580.778872,267.40523 580.780339,267.401186 580.783103,267.393204 L580.795118,267.357552 C581.007879,266.711761 583.116461,259.625221 575.436631,253.420709 C567.383963,246.920685 556.728069,243.542031 553.029594,244.315673 Z M233.67974,247.772942 C227.549742,250.090295 223.057793,253.329587 220.197104,257.485457 C217.924597,260.76763 217.474348,264.221326 218.842962,267.842972 C219.663058,270.017389 221.1462,271.74513 223.289528,273.02977 C225.430891,274.323342 228.165261,274.946901 231.496568,274.914741 C234.822872,274.886154 238.630693,274.05355 242.920923,272.431224 C249.025728,270.119231 253.426198,267.024662 256.120188,263.135011 C258.35982,259.834971 258.800242,256.400929 257.45682,252.832884 C256.11179,249.293426 253.512138,247.026101 249.651074,246.034481 C245.134111,244.873124 239.809559,245.450229 233.67974,247.772942 Z M421.420471,176.98758 C441.632342,184.314383 457.043893,195.430912 460.833619,217.158673 C465.761273,245.394656 434.370217,273.501283 399.694732,273.501283 C365.019247,273.501283 338.300973,250.671975 338.300973,222.464289 C338.300973,199.412651 354.975969,183.30379 378.21962,176.98758 C379.664768,186.737787 381.378735,195.885679 384.539871,205.631843 C396.240523,241.679714 379.175641,260.986093 378.85023,261.37416 L423.18901,261.626809 C423.18901,261.626809 402.471843,242.172884 415.104262,206.042144 C418.245187,197.057968 420.013725,188.251656 421.420471,176.98758 Z M574.346743,189.095844 C578.402557,189.095844 581.693664,192.38695 581.693664,196.442765 C581.693664,200.498579 578.402557,203.784325 574.346743,203.784325 C570.294501,203.784325 567.005182,200.498579 567.005182,196.442765 C567.005182,192.38695 570.294501,189.095844 574.346743,189.095844 Z M228.214931,189.095844 C232.270568,189.095844 235.555778,192.38695 235.555778,196.442765 C235.555778,200.498579 232.270568,203.784325 228.214931,203.784325 C224.158402,203.784325 220.870512,200.498579 220.870512,196.442765 C220.870512,192.38695 224.158402,189.095844 228.214931,189.095844 Z M406.766865,173.703151 C403.987733,191.641186 400.200029,199.725935 400.200029,199.725935 C400.200029,199.725935 398.178842,196.694154 393.378522,173.703151 C396.50635,173.29762 396.653816,173.136107 399.673754,173.123834 L400.06663,173.123071 C403.589559,173.123071 403.399568,173.250406 406.766865,173.703151 Z M579.978429,118.592382 L582.108179,122.85331 L578.54192,126.160675 C580.952182,127.372417 582.905048,128.715124 584.405878,130.1829 C585.908495,131.653356 587.185987,133.438808 588.241928,135.547832 C590.511041,140.085163 590.898755,144.618206 589.387205,149.143566 C588.011444,153.2076 585.327817,156.206223 581.339896,158.135862 C578.218527,159.650986 575.034623,160.086941 571.788185,159.445515 C568.545319,158.779075 565.164878,156.679699 561.636141,153.136489 L555.241532,146.774042 C553.395869,144.893894 551.794983,143.754157 550.453169,143.373768 C549.100636,142.97033 547.885678,143.031793 546.801149,143.555297 C545.855984,144.013765 545.227064,144.897289 544.921538,146.207478 C544.619586,147.517488 544.875084,148.986515 545.686247,150.611343 C546.944086,153.125233 548.988073,155.0806 551.80749,156.484949 C554.637627,157.891084 558.328954,158.578964 562.893979,158.555737 L563.806984,164.748448 L546.576025,168.814983 L544.528464,164.719861 L546.263352,162.495416 C542.86147,160.696207 540.304699,158.078687 538.585891,154.642858 C537.161889,151.796462 536.500809,148.8945 536.604438,145.930361 C536.713427,142.963362 537.499576,140.397121 538.975392,138.233603 C540.456569,136.067941 542.414795,134.392908 544.859004,133.207073 C546.579598,132.37447 548.368088,131.887951 550.226258,131.741441 C552.080855,131.594038 553.738915,131.742692 555.191505,132.182399 C556.642307,132.620856 558.257486,133.477222 560.033469,134.749533 C561.805877,136.024524 563.108384,137.085468 563.940987,137.929864 L569.477978,143.48901 C571.814985,145.821372 573.741051,147.31577 575.259748,147.968274 C576.760578,148.610414 578.168499,148.610414 579.494233,147.968274 C580.291102,147.582346 580.948609,146.968077 581.457819,146.13065 C581.972389,145.294473 582.202874,144.303389 582.151059,143.162401 C582.102818,142.021949 581.720464,140.74124 581.011143,139.32099 C579.422765,136.150129 576.749858,133.842067 572.979915,132.382867 C569.208186,130.924024 565.182745,130.449476 560.905379,130.973695 L559.722582,124.90516 L579.978429,118.592382 Z M213.838229,132.687143 L220.245881,134.59945 C220.245881,134.59945 218.328749,139.159651 221.075089,140.078195 C222.67149,140.61084 227.507756,142.117273 232.81398,143.756924 L233.633657,144.010116 C233.907869,144.094788 234.182944,144.179697 234.458507,144.264729 L235.28629,144.520085 C235.424374,144.562668 235.562487,144.605254 235.700581,144.647828 L236.528561,144.903021 C243.006869,146.899162 249.239368,148.80706 250.37803,149.155508 L250.495346,149.191406 C250.539795,149.205006 250.56265,149.211997 250.56265,149.211997 C255.176726,151.095118 255.341514,147.216642 255.3474,146.937206 L255.347618,146.921444 L262.27109,149.378161 L257.620125,166.01522 L250.606602,164.16777 C250.606602,164.16777 252.667564,159.091748 249.540834,158.198396 C248.133055,157.797251 240.100494,155.724484 232.403521,153.668656 L231.499963,153.426974 C226.393332,152.059039 221.557164,150.728064 219.053793,149.934361 C215.703725,148.874846 215.202019,153.844917 215.202019,153.844917 L208,152.167739 L213.838229,132.687143 Z M241.35059,79.9947828 L247.699637,84.7965459 C247.699637,84.7965459 245.287589,87.5232327 249.328038,90.1196689 C250.338954,90.7656705 254.722931,93.7615047 259.447906,97.0053013 L260.141448,97.4815294 L260.837747,97.9598338 C260.953909,98.0396429 261.070098,98.1194776 261.18627,98.1993072 L262.230168,98.9168164 C267.782491,102.734032 272.991305,106.328992 272.991305,106.328992 C276.791622,108.999397 278.315858,104.80958 278.420559,104.870328 C278.624737,104.974396 279.854632,105.93881 281.119933,106.947235 L281.541653,107.283887 C282.87265,108.348022 284.120497,109.360133 284.120497,109.360133 L275.48858,121.397326 L269.678938,117.689919 C269.678938,117.689919 271.716136,115.442604 269.99572,113.703428 C268.908479,112.604696 265.532208,110.353324 261.9247,108.078015 L261.286099,107.676471 C258.885486,106.171473 256.436618,104.685068 254.535859,103.544364 L254.090506,103.2774 C252.426,102.280765 251.265796,101.598881 251.074276,101.486462 L251.04631,101.470054 L269.824733,131.38678 L264.614708,143.234226 L257.859543,140.667986 C257.859543,140.667986 257.898985,140.592204 257.960195,140.458342 L258.028005,140.305775 C258.433669,139.367385 259.319566,136.850521 257.745015,135.700059 C256.596704,134.860525 250.548055,132.022943 244.252587,129.136531 L243.330078,128.714007 C243.085033,128.601884 242.839959,128.48983 242.595127,128.377959 L241.861633,128.043016 C235.759802,125.258322 229.980203,122.660049 228.784353,122.033214 C225.42035,120.510943 224.118022,125.219262 224.118022,125.219262 L217.440222,122.294966 L225.657624,104.995933 L231.821748,108.431941 L231.788375,108.497032 C231.501715,109.063024 229.503643,113.150323 231.118323,114.039685 C233.070332,115.116802 237.436485,117.382585 241.918033,119.685821 L243.334414,120.41306 L244.040454,120.775096 C249.557611,123.602965 254.696049,126.210059 255.106322,126.418172 L255.132677,126.43154 C256.924919,127.486766 233.129614,91.7687953 233.129614,91.7687953 L241.35059,79.9947828 Z M559.367028,81.1532808 L570.932354,98.6420614 L564.703909,102.789177 C563.664048,101.222239 562.997608,100.276537 562.684935,99.9624346 C562.377622,99.6485109 562.050656,99.4551897 561.704035,99.3853297 C561.357415,99.3135042 560.978634,99.3553131 560.567693,99.5053961 C560.154964,99.6554791 559.236599,100.19149 557.823317,101.128079 L533.913664,116.868393 C533.098927,117.405118 532.629025,117.82946 532.503956,118.129626 C532.37174,118.434616 532.444994,118.792671 532.713,119.198789 C533.291891,120.068556 534.190603,120.736425 535.410921,121.206149 C537.0261,121.835605 538.853896,122.123978 540.905031,122.072879 C541.946679,122.04715 544.028187,121.769318 547.149556,121.228483 L548.31806,127.218046 L530.781574,132.482565 L528.551769,129.111593 L529.666672,127.752091 L516.31107,107.541984 L514.672664,108.103902 L512.450006,104.73293 L524.192215,90.7149982 L529.221783,94.0977621 C527.390413,96.898597 526.311244,98.6490295 525.980705,99.3587078 C525.133807,101.14416 524.685345,102.837954 524.631744,104.441877 C524.578143,106.048479 524.844362,107.295598 525.4304,108.179301 C525.723419,108.628657 526.011078,108.857712 526.280871,108.878616 C526.548876,108.892553 527.034859,108.678327 527.726313,108.222539 L552.175551,92.1213117 C553.528085,91.2334992 554.358901,90.5613417 554.673361,90.1055539 C554.98782,89.6506594 555.120036,89.2052345 555.071796,88.767671 C555.025341,88.331537 554.612613,87.5253768 553.844331,86.3515132 L553.142157,85.295572 L559.367028,81.1532808 Z M285.385125,36.5925617 L289.851881,42.399345 C289.851881,42.399345 286.078187,45.3947518 289.628544,49.3228174 L306.37888,70.9865859 C308.835596,74.446178 311.738988,72.2127998 311.738988,72.2127998 L316.429082,78.242921 L304.36884,88.2931228 L299.12183,82.3768147 C299.12183,82.3768147 302.471898,80.1434365 300.461857,77.9100583 C298.920826,76.1980399 299.26566,76.4060121 298.451817,75.5628671 L292.978611,69.1998833 L280.927481,80.1811359 L288.00318,87.2252107 C289.107184,88.3615536 289.651592,88.8221655 290.093444,89.0572955 C290.535831,89.2890309 290.981077,89.3735419 291.419534,89.2945696 C291.867461,89.2179201 292.437061,88.8409259 293.144774,88.1639443 L294.373847,86.8986015 L299.512582,92.3703781 L288.288517,104.373446 L282.371494,99.4600138 C282.371494,99.4600138 285.385125,97.1171108 281.311265,93.5240519 L260.810282,74.8138814 C259.774531,73.7468627 259.047343,73.1061511 258.62586,72.9085418 C258.209915,72.7034284 257.749839,72.6628702 257.257067,72.8095585 C256.765724,72.9455266 256.115364,73.4097119 255.307774,74.1892502 L254.116401,75.4742467 L248.498829,70.8727729 L262.79245,55.7242153 L268.452724,61.1456069 C268.452724,61.1456069 268.43772,61.1586953 268.410034,61.1829959 L268.291254,61.2876583 C267.758619,61.7585722 266.083806,63.25879 265.954735,63.6164378 C265.799113,64.0343476 265.619013,64.6904247 265.907923,65.2627056 C266.106962,65.6473826 267.443415,66.9734733 268.634789,68.1927191 L275.362796,74.4579703 L287.731602,62.9464244 L281.145995,55.2125037 C279.959445,53.9841457 279.159539,53.2096101 278.696247,53.0511296 C276.935987,52.4495469 274.815707,54.7924499 274.815707,54.7924499 L269.641238,49.2090044 L285.385125,36.5925617 Z M510.845547,33.5405164 L524.894389,44.2907483 L520.377605,49.934763 C520.377605,49.934763 517.28661,47.0510251 515.080032,48.8970462 C514.176582,49.6517338 510.8572,53.652377 507.39348,57.9337426 L506.873123,58.5776822 C506.786311,58.6852328 506.69948,58.7928662 506.612666,58.9005361 L505.83273,59.8692982 L505.196771,60.6612591 L504.776857,61.185103 C501.224732,65.6193688 498.143879,69.5397142 498.143879,69.5397142 C497.537616,70.3219035 506.013542,66.8128355 515.064473,62.9198063 L515.752853,62.6234584 C515.98259,62.5244719 516.212557,62.4253027 516.442616,62.3260143 L517.588445,61.8308616 L517.959764,61.6701375 L518.70117,61.3488534 C526.335359,58.0381556 533.570515,54.8254895 535.304786,54.0541032 L535.52014,53.958285 C535.63629,53.9065874 535.696793,53.8796236 535.696793,53.8796236 L545.15917,63.7874253 L539.625752,69.0930385 C539.625752,69.0930385 537.515656,66.4129847 534.124495,69.8132583 C533.190862,70.7482837 529.990284,74.0751587 526.431238,77.7878513 L525.881122,78.3618082 C525.789051,78.4578848 525.696808,78.5541474 525.604426,78.6505623 L525.04872,79.2306073 C524.95591,79.3274958 524.863026,79.4244687 524.770098,79.5214925 L524.212279,80.1039734 C524.02634,80.2981564 523.840488,80.4922718 523.654981,80.6860492 L523.07619,81.29071 C518.748052,85.8127995 514.756969,89.9936671 514.42514,90.3412972 L514.402872,90.3646258 C511.539383,92.890785 514.103941,95.230033 514.709195,95.7186788 L514.774112,95.7700006 C514.809875,95.797629 514.829894,95.8119245 514.829894,95.8119245 L509.301836,101.019805 L498.745997,90.1579043 L504.150773,84.6568258 C504.150773,84.6568258 505.883874,87.1555293 507.963596,85.8691035 C511.1743,83.8835409 522.062466,70.7798644 522.062466,70.7798644 L489.215726,82.1407913 L477.755816,74.1481561 L482.147531,67.5981045 C482.147531,67.5981045 483.78415,68.702108 485.469011,69.7875298 C486.692902,70.5704629 488.352749,70.8322148 489.680269,69.7594786 C490.713317,68.925069 494.28865,64.4521232 498.059346,59.5662656 L498.541592,58.9405445 L499.133647,58.1701073 L499.615829,57.5409225 L499.736203,57.3836183 L500.336197,56.5982075 C504.243202,51.4766875 507.851269,46.6096576 508.515687,45.6320259 C510.288096,43.0309443 506.253722,39.9251193 506.253722,39.9251193 L510.845547,33.5405164 Z M332.732743,11.5220874 L335.525895,18.8922355 C335.525895,18.8922355 333.724541,19.7060785 333.408295,20.3948523 C333.097051,21.1011359 333.065069,22.5319273 333.320389,24.6941947 L338.762864,65.8114019 L329.679268,70.2781583 L298.522392,41.9644616 C297.603133,41.1186366 295.399772,39.1588026 293.05401,40.3508905 L288.95853,34.3954536 L303.586443,25.5003549 L307.495569,32.310729 C306.239257,32.9701684 305.880945,33.2335934 305.631692,33.4509484 L305.551564,33.5221738 L305.473022,33.5928668 C305.022773,33.987192 304.751373,34.382768 304.665432,34.7744132 C304.576097,35.1735625 304.622194,35.5400152 304.79747,35.879846 C304.949518,36.1716146 305.433178,36.7195962 306.248451,37.5068174 L310.445772,41.7620282 L322.981278,34.6920462 L321.861194,29.8400767 C321.628029,28.4546676 321.49617,27.515934 321.217623,27.1948636 C319.706609,25.4605114 317.415342,26.8486006 317.415342,26.8486006 L313.712043,19.6565868 L332.732743,11.5220874 Z M460.7071,8.93351278 L477.979154,15.6336474 L475.077549,22.7456169 C473.519544,21.989663 472.601179,21.5254777 472.217038,21.4452548 C471.632786,21.3196496 471.150376,21.3350152 470.784102,21.4997492 C470.412468,21.6616244 470.14625,21.9185523 469.974726,22.2605271 C469.830003,22.5549757 469.638826,23.1949726 469.488743,24.3186298 L468.409575,30.9685581 L481.166631,37.2513189 L485.201005,32.6030336 C486.178332,31.5967627 486.760797,30.8974473 486.946614,30.5149143 C487.168165,30.0660946 487.132431,29.5797542 486.842985,29.0526769 C486.548179,28.5257783 485.844218,27.9849435 484.740036,27.4510767 L483.542945,26.8228721 L487.060963,19.7284123 L506.825466,31.232454 L502.639222,37.553629 C499.971527,35.6722386 498.398986,37.0417136 497.071447,38.4336823 L496.863748,38.6531831 C496.795111,38.7260986 496.727028,38.7986057 496.659377,38.8702337 L496.45759,39.08201 C496.323762,39.2208086 496.191162,39.3542083 496.058797,39.4784437 L466.395961,67.6713593 L456.847823,63.008423 L461.209163,21.0475348 C461.302072,18.8002203 461.816642,17.7582154 458.473722,16.2688201 L460.7071,8.93351278 Z M379.783768,12.4336631 C382.930151,20.6147954 372.41362,28.4385872 372.41362,28.4385872 C372.41362,28.4385872 380.566344,28.7373239 383.246397,39.2342014 C385.821036,49.3228174 374.100267,53.3595145 374.100267,53.3595145 L351.33053,60.4261018 L348.589728,52.5590717 C348.589728,52.5590717 353.056484,51.3676985 351.935686,47.1103436 C351.445005,45.5307854 349.94915,40.5164203 348.362785,35.1761728 L348.130094,34.3927077 L347.896748,33.6067551 L347.658085,32.8026236 L347.555099,32.4555521 L347.349718,31.7632662 C345.437537,25.316977 343.676296,19.3571355 343.676296,19.3571355 C342.89573,15.9154439 339.785402,17.1142759 339.39966,17.277574 L339.364817,17.2927123 L336.976161,10.4236227 C336.976161,10.4236227 343.002604,8.44574589 349.905986,6.59814681 L350.635674,6.40423494 C351.368156,6.21098638 352.108353,6.02000095 352.850258,5.83373751 L353.592511,5.64913913 C356.56202,4.91777015 359.526833,4.27506677 362.102559,3.87839524 C371.818648,2.38346121 377.55039,6.62687978 379.783768,12.4336631 Z M324.620041,40.2008075 L314.941116,45.5609152 L329.035877,60.0966338 L324.620041,40.2008075 Z M429.588102,1.6380489 L450.73194,5.80678331 L448.963104,13.3959811 C447.11744,13.0386406 445.977524,12.8524662 445.534422,12.8551462 C445.089533,12.8524662 444.726832,12.9480547 444.437387,13.1490588 C444.140794,13.3479188 443.899589,13.6480848 443.722706,14.0450901 C443.536888,14.4415594 442.854368,16.3747716 442.529188,18.0414077 L437.583596,45.5287545 C437.397779,46.4883925 437.367405,47.1187411 437.49426,47.4174778 C437.621116,47.7258627 437.924856,47.926152 438.403692,48.0204899 C439.431046,48.2200646 440.088553,48.4914647 441.280283,47.9492005 C442.857942,47.242917 444.194395,46.2902472 445.602317,44.7897743 C446.309851,44.0316764 447.592703,41.9099672 449.391913,39.3074562 L454.710926,42.6623476 L446.481374,59.0163934 L441.95387,58.5346984 L441.768053,56.7849806 L418.437291,52.2867783 L417.692236,53.8488923 L413.432737,53.0684606 L411.524539,34.7177747 L417.615408,33.2040803 C418.322942,36.4751753 418.814285,38.4712794 419.089437,39.2027555 C419.771958,41.0605688 420.511653,42.864781 421.617622,44.0289964 C422.728951,45.1889237 423.800972,45.8750175 424.844406,46.0801309 C425.369697,46.1903705 425.734184,46.1437375 425.937868,45.968462 C426.136192,45.7787142 426.323796,45.285227 426.484599,44.4713839 L432.273516,14.8476769 C432.589762,13.2619784 432.695177,12.196389 432.587975,11.6546608 C432.486133,11.1159699 432.262795,10.7062791 431.912602,10.4320202 C431.571341,10.1575827 430.706577,9.88618258 429.332603,9.6097797 L428.085485,9.37322028 L429.588102,1.6380489 Z M466.960559,36.5541476 L464.578884,56.6175666 L477.605733,41.8388564 L466.960559,36.5541476 Z M407.851078,0 L407.700995,7.37014804 L404.754723,7.5704374 C403.015785,7.65328084 402.881893,9.67372141 402.877103,10.2110328 L402.877618,10.307143 C402.878105,10.3293658 402.878685,10.3412557 402.878685,10.3412557 L402.687508,39.629956 C402.678574,43.7197182 405.321108,44.1790794 405.321108,44.1790794 L407.838571,44.393305 L407.702782,51.8143741 L388.829843,52.0028712 L388.492156,44.5376706 L390.643346,44.504974 C393.81653,44.0220283 393.268012,41.902999 393.268012,41.902999 L392.842777,10.817948 C392.596609,8.0864371 391.146248,7.89700251 390.826984,7.88862829 L390.780948,7.88860351 C390.7704,7.88891823 390.764842,7.8893638 390.764842,7.8893638 L387.638112,7.77983894 L387.298639,0.359484554 L407.851078,0 Z M358.752052,35.7786602 L358.677136,35.8034523 L362.288376,49.1343203 C362.288376,49.1343203 376.135321,46.9009421 373.878716,38.8202224 C371.882161,31.6725233 359.848442,35.4208995 358.752052,35.7786602 Z M353.351826,14.422799 L357.170903,28.2815361 C355.086178,28.6186869 372.506528,26.2924001 369.881862,17.7183719 C367.214315,9.00819694 353.351826,14.422799 353.351826,14.422799 Z" id="Combined-Shape" transform="translate(399.967318, 200.000000) scale(1, -1) translate(-399.967318, -200.000000) "></path>
            </g>
        </g>
    </g>
</svg>