<?xml version="1.0" encoding="UTF-8"?>
<svg width="800px" height="400px" viewBox="0 0 800 400" version="1.1" xmlns="http://www.w3.org/2000/svg" xmlns:xlink="http://www.w3.org/1999/xlink">
    <title>omegasoftware</title>
    <g id="Page-1" stroke="none" stroke-width="1" fill="none" fill-rule="evenodd">
        <g id="omegasoftware" fill="#000000">
            <line x1="0" y1="0" x2="800" y2="400" id="Path" fill-rule="nonzero"></line>
            <path d="M570.699437,155.613809 L573.967741,158.052811 L574.114464,152.58898 L574.261187,147.124086 L588.557094,146.977363 L602.804093,146.879548 L602.804093,191.281279 L564.990005,191.281279 L563.819412,189.231412 C560.892398,184.059964 554.841676,179.326558 548.888769,177.521229 C544.546624,176.155006 537.568784,176.05719 533.275546,177.326662 C525.712941,179.571096 519.467652,184.791451 516.002654,191.817136 C513.07564,197.81895 512.343089,201.137225 512.343089,208.602015 C512.343089,216.067868 513.07564,219.38508 516.051562,225.435802 C519.662219,232.802776 526.054231,238.12201 533.812467,240.072999 C544.399901,242.805446 556.158992,239.243696 562.355373,231.48546 C563.770504,229.680132 565.234543,227.290038 565.234543,226.655302 C565.234543,226.516582 560.34956,226.422531 554.126158,226.412683 L540.838151,226.411827 L540.838151,200.063384 L604.658329,200.063384 L605.000682,203.771857 C605.439788,208.114002 604.951775,216.213528 603.975749,221.825144 C600.511814,241.976143 587.239778,258.955589 568.747385,266.909455 C563.623781,269.104981 556.74482,271.055969 551.426649,271.739613 C545.424834,272.568916 533.079916,272.325441 527.420455,271.300508 C511.025773,268.323523 497.120064,260.02943 487.654315,247.441036 C479.993895,237.340552 475.456119,222.897922 475.456119,208.846553 C475.456119,176.789741 496.144038,152.003152 527.567178,146.342628 C544.205334,143.366706 558.403426,146.391535 570.699437,155.613809 Z M687.640721,147.124086 C697.396726,174.925582 711.865936,216.155051 731.048351,270.812495 L675.206493,270.812495 L675.206493,242.02505 L679.926285,242.024877 C683.668894,242.020033 684.081655,241.909819 683.842939,241.195747 C683.745124,240.707734 683.013636,238.169855 682.282148,235.584131 L680.915925,230.80288 L651.444837,230.80288 L649.931891,236.121051 C649.245789,238.44599 648.67909,240.473718 648.463991,241.31956 L648.419236,241.499417 C648.387765,241.629633 648.3711,241.709742 648.3711,241.732668 C648.3711,241.878327 650.372059,242.02505 652.762153,242.02505 L657.153206,242.02505 L657.153206,270.812495 L601.281578,270.812495 L601.855657,269.1768 C620.753622,215.331804 635.031826,174.647567 644.690271,147.124086 Z M665.740744,183.327413 C665.595085,183.815426 663.740848,190.060715 661.545322,197.233122 C659.39764,204.405529 657.641219,210.407344 657.641219,210.554067 C657.641219,210.693105 661.153907,210.78855 665.589154,210.79694 L667.648163,210.796775 C674.210646,210.788382 674.751929,210.699085 674.523913,209.968238 C673.808307,207.564124 672.987616,204.82951 672.146408,202.040957 L671.801348,200.897878 L671.570671,200.134559 C669.147561,192.119854 666.71382,184.178253 666.25537,182.804194 L666.217744,182.693396 C666.196726,182.633045 666.183925,182.600001 666.17985,182.595925 C666.083097,182.49811 665.887467,182.8394 665.740744,183.327413 Z M210.499143,242.02505 L210.499143,242.02505 L210.499143,208.602015 L210.499143,175.17898 L210.499143,175.17898 L210.499143,146.879548 L230.942524,146.879548 L263.634072,146.879548 L264.316652,149.417428 C265.488308,153.515035 268.025125,162.835124 275.58773,190.450912 C279.442925,204.650067 282.760137,216.36025 282.90686,216.506973 C283.053582,216.70154 283.297057,216.70154 283.394873,216.603725 C283.492688,216.506973 287.444635,202.161095 292.225886,184.693636 C297.008199,167.275085 301.252529,151.661862 301.691635,150.0511 L302.473093,147.124086 L335.3103,146.977363 L355.655866,146.916761 L355.655866,175.423518 L355.655866,175.423518 L355.510206,208.69983 L355.412391,241.976143 L355.655866,241.981459 L355.655866,270.812495 L337.603642,270.812495 L307.107621,270.812495 L307.107621,256.418772 L307.107621,242.02505 L313.20725,242.02505 L319.305817,242.02505 L319.305817,215.335317 C319.305817,200.649212 319.111249,188.841214 318.915619,189.133597 C318.672144,189.378135 315.695159,199.868817 312.231225,212.505055 C308.815134,225.142356 304.033884,242.561971 301.691635,251.295169 C299.301541,260.02943 297.106015,267.982233 296.812569,269.007166 L296.324556,270.812495 L283.053582,270.714679 L269.781546,270.567957 L265.341585,254.223246 C262.853676,245.24551 257.876796,226.947685 254.21723,213.578896 C250.557665,200.259015 247.581744,189.231412 247.581744,189.084689 C247.581744,188.939029 247.386113,188.841214 247.093731,188.841214 C246.751378,188.841214 246.605718,198.014581 246.605718,215.433132 L246.605718,241.976143 L252.851007,242.122865 L259.047389,242.268525 L259.194111,256.565495 L259.291927,270.812495 L228.795905,270.812495 L210.499143,270.812495 L210.499143,242.02505 Z M379.910851,241.976143 L379.910851,223.971763 L379.910851,208.602015 L379.910851,175.17898 L373.567747,175.17898 L367.224642,175.17898 L367.322457,161.175455 L367.46918,147.124086 L418.846624,146.977363 L470.176224,146.879548 L470.079472,167.71419 L469.932749,188.597739 L455.782502,188.597739 L441.633318,188.597739 L441.486595,183.620858 L441.339872,178.59507 L428.703634,178.59507 L416.017425,178.59507 L416.017425,185.9142 L416.017425,193.232267 L432.362136,193.232267 L448.70791,193.232267 L448.70791,208.602015 L448.70791,223.971763 L432.362136,223.971763 L416.017425,223.971763 L416.017425,231.534368 L416.017425,239.096973 L428.703634,239.096973 L441.38878,239.096973 L441.38878,234.217907 L441.38878,229.338842 L455.782502,229.338842 L470.176224,229.338842 L470.176224,250.075668 L470.176224,270.812495 L418.94444,270.812495 C400.162854,270.812495 387.800924,270.781662 379.910851,270.700858 L379.910851,241.976143 Z M107.670894,241.76988 L107.670894,270.812495 L92.6987859,270.812495 L59.1226486,270.812495 L59.1226486,241.732668 L66.2004303,241.732668 C62.1591732,233.145129 59.8998543,223.557111 59.8998543,213.445995 C59.8998543,176.706811 89.727117,146.879548 126.466301,146.879548 C163.204421,146.879548 193.032747,176.706811 193.032747,213.445995 C193.032747,223.557111 190.772365,233.145129 186.732171,241.732668 L192.483068,241.732668 L192.483068,270.812495 L144.996969,270.812495 L144.996969,241.943183 C154.3043,235.876513 160.460279,225.374136 160.460279,213.445995 C160.460279,194.683547 145.227685,179.450953 126.466301,179.450953 C107.703853,179.450953 92.4712592,194.683547 92.4712592,213.445995 C92.4712592,225.261435 98.5124122,235.677693 107.670894,241.76988 Z" id="Combined-Shape" fill-rule="nonzero"></path>
            <path d="M551.716649,333.785023 L593.375428,333.782849 L593.375428,400 L439.375428,400 L439.376827,305.196699 C449.437121,299.820313 458.55538,292.911919 466.41998,284.783142 L579.96433,284.782713 C572.789769,302.464794 563.242157,318.930615 551.716649,333.785023 Z M336.374716,304.982691 L336.375428,400 L182.774572,400 L182.774572,333.782849 L224.433351,333.785023 C212.907843,318.930615 203.360231,302.464794 196.18567,284.782713 L309.729748,284.782861 C317.490451,292.804308 326.47192,299.637398 336.374716,304.982691 Z M388.075,0 C476.241759,0 551.534375,55.1207599 581.371923,132.781354 L465.995852,132.780909 C446.207596,112.553622 418.607326,100 388.075,100 C357.542674,100 329.942404,112.553622 310.154148,132.780909 L194.778077,132.781354 C224.615625,55.1207599 299.908241,0 388.075,0 Z" id="Combined-Shape"></path>
        </g>
    </g>
</svg>