<?xml version="1.0" encoding="UTF-8"?>
<svg width="800px" height="400px" viewBox="0 0 800 400" version="1.1" xmlns="http://www.w3.org/2000/svg" xmlns:xlink="http://www.w3.org/1999/xlink">
    <title>playtonic</title>
    <g id="Page-1" stroke="none" stroke-width="1" fill="none" fill-rule="evenodd">
        <g id="Manufacturer" fill="#000000" fill-rule="nonzero">
            <g id="playtonic">
                <line x1="0" y1="0" x2="800" y2="400" id="Path"></line>
                <path d="M470.756576,107.751124 C472.102797,107.751124 473.314395,108.8281 473.314395,110.17432 L473.314395,148.676222 C473.314395,149.080088 473.583639,149.349332 473.987505,149.349332 L498.219471,149.349332 C499.565691,149.349332 500.642668,150.426308 500.642668,151.772528 L500.643291,156.147745 C500.646407,156.25993 500.665105,156.372115 500.77729,156.4843 C500.911912,156.753544 501.4504,156.888166 501.719644,156.618922 C521.912949,143.695206 548.029623,144.502939 567.415196,158.50363 C567.549818,158.638252 567.68444,158.638252 567.819062,158.638252 C568.222928,158.638252 568.492172,158.369008 568.492172,157.965142 L568.492172,151.772528 C568.492172,150.426308 569.569149,149.349332 570.915369,149.349332 L618.033081,149.349332 C622.340986,148.137734 626.918135,147.464623 631.495284,147.464623 C644.418999,147.464623 655.323384,152.041773 662.99684,159.984472 C663.266084,160.253717 663.535328,160.253717 663.804572,160.119095 L704.998914,135.617884 C705.268158,135.483262 705.672024,135.34864 706.07589,135.34864 C707.422111,135.34864 708.633709,136.425617 708.633709,137.771837 L708.634332,157.897831 C708.637448,158.010016 708.656146,158.122201 708.768331,158.234386 C708.902953,158.50363 709.441441,158.638252 709.710685,158.369008 C719.807338,151.23404 731.788699,147.464623 744.039304,147.599245 C747.943343,147.599245 751.847382,148.003112 755.616798,148.676222 C760.732436,149.483954 765.578829,151.099418 770.155978,153.253371 C774.463883,155.272701 778.637166,157.965142 782.271961,161.196071 C791.426259,169.273393 797.349629,180.3124 799.099715,192.29376 C799.368959,194.043847 799.638203,195.928555 799.772825,197.813264 C800.176691,203.332767 800.042069,208.717649 799.368959,214.10253 C798.695849,220.968254 796.541897,227.699355 793.310968,233.891969 C791.022393,238.199874 788.19533,242.103913 784.82978,245.469464 C781.464229,248.969636 777.56019,251.931321 773.386907,254.354518 C769.079002,256.777714 764.367231,258.662423 759.520837,259.874021 C754.4052,261.085619 749.154941,261.75873 743.904682,261.75873 C731.654077,261.893352 719.672716,258.123935 709.710685,250.988967 C709.576063,250.854345 709.441441,250.854345 709.306819,250.854345 C708.902953,250.854345 708.633709,251.123589 708.633709,251.527455 L708.633709,257.316202 C708.633709,258.662423 707.556733,259.739399 706.210512,259.739399 L570.511503,259.739399 C569.165282,259.739399 568.088306,258.662423 568.088306,257.316202 L568.087683,251.1909 C568.084567,251.078715 568.065869,250.96653 567.953684,250.854345 C567.819062,250.585101 567.280574,250.450479 567.01133,250.719723 C547.221891,264.989658 520.566728,265.393524 500.238801,251.662077 C500.104179,251.527455 499.834935,251.527455 499.565691,251.662077 C490.949881,256.373848 475.602969,261.75873 464.294719,261.75873 C441.543595,261.75873 418.657849,246.950306 418.657849,213.833286 L418.657849,202.390413 L377.867373,295.414238 C377.463507,296.356592 376.521153,296.89508 375.578799,296.89508 L322.103238,296.894688 C321.787681,296.892333 321.5569,296.875849 321.326119,296.760458 C320.114521,296.22197 319.441411,294.741128 319.979899,293.529529 L334.249835,260.950997 L334.249835,260.681753 C334.249835,260.277887 333.98059,260.008643 333.576724,260.008643 L292.382382,260.008643 C288.074477,261.220241 283.63195,261.893352 279.054801,261.893352 C268.958148,262.027974 258.996118,258.931667 250.784174,253.008297 C250.649552,252.873675 250.51493,252.873675 250.380308,252.873675 C249.976442,252.873675 249.707198,253.142919 249.707198,253.546786 L249.707198,257.585447 C249.707198,258.931667 248.630221,260.008643 247.284001,260.008643 L197.743093,260.008643 C196.396873,260.008643 195.319896,258.931667 195.319896,257.585447 L195.319896,221.506742 C195.319896,221.37212 195.319896,221.237498 195.185274,221.102876 C195.050652,220.699009 194.512164,220.699009 194.24292,220.833631 C186.165598,225.680025 176.472812,228.103221 165.703049,228.103221 L161.79901,228.103221 L161.692304,228.109796 C161.348416,228.153287 161.1259,228.40918 161.1259,228.776331 L161.1259,257.585447 C161.1259,258.931667 160.048924,260.008643 158.702703,260.008643 L91.4015481,260.008592 C90.6029142,260.097575 89.7910961,260.143265 88.9684901,260.143265 L21.6574735,260.143265 C17.8880565,260.143265 14.2532616,259.200911 11.0223328,257.316202 C0.656436279,251.527455 -3.11298065,238.199874 2.81038881,227.833977 L34.0427005,172.504322 L33.9080785,149.88782 C33.9080785,148.272356 32.6964802,147.060757 31.0810158,147.060757 L30.9032228,147.055812 C29.3774654,146.970455 28.2539531,145.789327 28.2539531,144.233695 L28.2539531,131.175357 L28.258898,130.997564 C28.3442551,129.471807 29.5253834,128.348295 31.0810158,128.348295 L79.6795698,128.348295 L79.8573628,128.35324 C81.3831202,128.438597 82.5066325,129.619725 82.5066325,131.175357 L82.5066325,144.099073 L82.5016875,144.276866 C82.4163304,145.802623 81.2352021,146.926135 79.6795698,146.926135 C78.1987274,146.926135 76.8525071,148.137734 76.8525071,149.753198 L76.717885,172.3697 L106.873,225.791 L106.87322,129.829137 C106.87322,128.482917 107.950197,127.40594 109.296417,127.40594 L165.703049,127.40594 C178.222898,127.40594 188.992661,130.636869 197.473849,136.560239 C197.743093,136.694861 198.012337,136.694861 198.281581,136.560239 L246.072403,108.15499 C246.341647,108.020368 246.745513,107.885746 247.149379,107.885746 C248.495599,107.885746 249.707198,108.962722 249.707198,110.308942 L249.707198,155.945811 C249.707198,156.080434 249.707198,156.215056 249.84182,156.349678 C249.976442,156.618922 250.51493,156.753544 250.784174,156.4843 C258.996118,150.695552 268.823526,147.599245 278.920179,147.599245 C283.362706,147.599245 287.805233,148.272356 292.113138,149.483954 L366.828367,149.483954 C367.905343,149.483954 368.713075,150.022442 369.116941,150.964796 L375.174933,166.042464 L375.578799,166.44633 C375.982665,166.580952 376.386531,166.44633 376.521153,166.042464 L382.713766,150.830174 C383.117633,149.88782 384.059987,149.349332 385.002341,149.349332 L418.388605,149.349332 C418.792471,149.349332 419.061715,149.080088 419.061715,148.676222 L419.061715,139.521923 C419.061715,138.579569 419.465582,137.771837 420.138692,137.367971 L469.6796,108.020368 C469.948844,107.885746 470.35271,107.751124 470.756576,107.751124 Z M458.505971,131.713846 L433.466273,146.656891 L433.466273,164.292378 L392.945041,164.292378 L375.578799,206.698318 L358.481801,164.292378 L331.826638,164.292378 L362.385839,234.295835 L341.25018,282.355901 L368.039965,282.355901 L409.503551,187.851233 L433.735517,187.851233 L433.735517,213.967908 C433.735517,238.199874 449.082429,247.354172 464.698585,247.354172 C474.525993,247.354172 489.603661,241.430803 494.719298,238.065252 C490.007527,233.084237 486.507354,227.026245 484.757268,220.429765 C478.026166,222.179852 473.045151,223.795316 468.871868,223.795316 C462.544632,223.795316 458.505971,220.160521 458.505971,212.217821 L458.505971,187.716611 L485.834244,187.716611 L485.834244,164.157756 L458.505971,164.157756 L458.505971,131.713846 Z M744.039304,162.138425 C719.134227,162.138425 701.364119,180.581644 701.364119,204.678988 C701.364119,228.776331 719.134227,247.21955 743.904682,247.21955 C763.69412,247.21955 782.271961,235.507433 784.964402,213.160176 L759.116971,213.160176 C757.232263,220.699009 750.635783,224.06456 743.904682,224.06456 C733.404163,224.06456 726.807683,216.391104 726.807683,204.678988 C726.807683,193.370737 733.000297,185.293415 744.039304,185.293415 C750.635783,185.293415 757.232263,188.255099 759.116971,196.063177 L784.964402,196.063177 C782.541205,174.38903 764.232609,162.138425 744.039304,162.138425 Z M532.951956,162.138425 C509.527722,162.138425 490.411393,180.177777 490.411393,204.678988 C490.411393,229.045576 509.123856,247.21955 532.951956,247.21955 C556.780055,247.21955 575.492518,229.180198 575.492518,204.678988 C575.492518,180.177777 556.510811,162.138425 532.951956,162.138425 Z M278.920179,162.138425 C258.726874,162.138425 242.437608,179.370045 242.437608,204.678988 C242.437608,229.718686 258.323008,247.21955 279.054801,247.21955 C289.420697,247.21955 296.824909,242.911645 301.940547,236.584409 L301.940547,245.334842 L326.980245,245.334842 L327.114867,164.157756 L302.075169,164.157756 L302.075169,173.177432 C296.959531,166.580952 289.286075,162.138425 278.920179,162.138425 Z M33.6501135,211.044544 L20.5804972,233.218859 C19.772765,234.565079 19.3688989,236.045921 19.3688989,237.661386 C19.3688989,242.373157 23.1383158,246.277196 27.984709,246.277196 L82.9104986,246.277196 C84.525963,246.277196 86.0068053,245.87333 87.3530257,245.065597 C91.5263087,242.642401 92.872529,237.392142 90.4493324,233.218859 L85.1461874,224.223363 C79.0961818,222.718851 71.8396764,220.906181 64.5505604,219.066176 L62.4781307,218.5425 C62.0002762,218.421628 61.5227602,218.300752 61.0459139,218.179953 L59.6177157,217.817863 C49.4014438,215.225657 39.6479265,212.7053 33.6501135,211.044544 Z M631.495284,162.138425 C621.398631,162.138425 613.99442,165.907842 608.07105,173.177432 L608.07105,164.023133 L582.89673,164.023133 L582.89673,245.20022 L607.936428,245.20022 L607.936428,202.121169 C607.936428,190.94754 612.917443,186.101147 622.879474,186.101147 C633.110748,186.101147 635.668567,191.216784 635.668567,200.101838 L635.668567,245.334842 L660.708265,245.334842 L660.708265,194.447713 C660.842887,174.658274 649.80388,162.138425 631.495284,162.138425 Z M165.703049,141.94512 L121.4124,141.94512 L121.4124,245.20022 L146.58672,245.20022 L146.58672,213.294798 L165.703049,213.294798 C187.511818,213.294798 202.85873,200.101838 202.85873,177.216093 C202.85873,154.464969 187.511818,141.94512 165.703049,141.94512 Z M693.959907,159.17674 L668.920209,174.119786 L668.920209,245.20022 L693.959907,245.20022 L693.959907,159.17674 Z M235.033396,131.579223 L209.993698,146.522269 L209.993698,245.20022 L235.033396,245.20022 L235.033396,131.579223 Z M63.9287919,228.372465 C64.1980359,228.507087 64.46728,228.507087 64.601902,228.641709 L73.0830901,233.353481 C73.7562003,233.757347 74.0254444,234.699701 73.6215783,235.507433 C73.4869562,235.776677 73.3523342,235.911299 73.0830901,236.045921 L64.8711461,241.161559 C64.1980359,241.565425 63.1210597,241.430803 62.7171936,240.62307 C62.5825715,240.353826 62.4479495,240.084582 62.4479495,239.815338 L62.3133275,229.853308 C62.3133275,229.045576 63.1210597,228.372465 63.9287919,228.372465 Z M37.1390073,218.275813 C37.5428734,218.275813 37.9467395,218.410435 38.3506056,218.545057 L51.5435648,226.487757 C52.7551631,227.160867 53.1590292,228.641709 52.4859191,229.853308 C52.216675,230.257174 51.9474309,230.526418 51.5435648,230.795662 L38.0813615,238.469118 C36.8697632,239.142228 35.3889208,238.738362 34.7158107,237.526764 C34.4465666,237.122898 34.3119446,236.719031 34.4465666,236.315165 L34.5811886,220.699009 C34.5811886,219.352789 35.6581649,218.275813 37.1390073,218.275813 Z M532.951956,185.966525 C542.779364,185.966525 550.183576,193.370737 550.183576,204.678988 C550.183576,216.12186 542.779364,223.39145 532.951956,223.39145 C523.259169,223.39145 515.720335,216.12186 515.720335,204.678988 C515.720335,193.370737 523.124547,185.966525 532.951956,185.966525 Z M284.97817,186.101147 C294.670957,186.101147 302.075169,193.505359 302.075169,204.678988 C302.075169,215.987238 294.670957,223.256828 284.97817,223.256828 C275.420006,223.256828 267.881172,215.987238 267.881172,204.678988 C267.881172,193.505359 275.285384,186.101147 284.97817,186.101147 Z M51.5435648,193.639981 C50.4665886,193.639981 49.5242343,194.582335 49.5242343,195.793933 L49.5242343,208.986893 C49.5242343,209.390759 49.6588564,209.794625 49.7934784,210.063869 C50.3319665,211.006223 51.6781869,211.275467 52.6205411,210.736979 L63.7941698,204.005877 C64.1980359,203.736633 64.46728,203.467389 64.601902,203.198145 C65.1403902,202.255791 64.7365241,200.909571 63.7941698,200.371082 L52.4859191,193.774603 C52.216675,193.639981 51.8128089,193.505359 51.5435648,193.639981 Z M164.626073,165.907842 C173.241883,165.907842 177.415166,169.946503 177.415166,177.754581 C177.415166,185.562659 173.241883,189.466698 164.626073,189.466698 L146.452098,189.466698 L146.452098,165.907842 L164.626073,165.907842 Z M669.458697,85 C670.401051,85 671.343406,85.2692441 672.151138,85.8077322 L700.691009,102.635486 C701.498741,103.039352 702.171851,103.712463 702.575717,104.520195 C704.05656,107.078013 703.248828,110.308942 700.691009,111.789785 L672.151138,128.617539 C671.343406,129.156027 670.401051,129.425271 669.458697,129.425271 L669.242977,129.420974 C666.380249,129.306746 664.073816,126.929838 664.073816,124.04039 L664.073816,90.3848813 C664.073816,87.4231966 666.497012,85 669.458697,85 Z M671.343406,93.6158101 L671.343406,120.809461 L694.363773,107.212635 L671.343406,93.6158101 Z" id="Combined-Shape"></path>
            </g>
        </g>
    </g>
</svg>