<?xml version="1.0" encoding="UTF-8"?>
<svg width="800px" height="400px" viewBox="0 0 800 400" version="1.1" xmlns="http://www.w3.org/2000/svg" xmlns:xlink="http://www.w3.org/1999/xlink">
    <title>rocksteady</title>
    <g id="Page-1" stroke="none" stroke-width="1" fill="none" fill-rule="evenodd">
        <g id="Manufacturer" fill="#000000" fill-rule="nonzero">
            <g id="rocksteady">
                <line x1="0" y1="0" x2="800" y2="400" id="Path"></line>
                <path d="M68.2789698,179.649962 C67.7788256,183.352043 67.4865116,187.078624 67.4003381,190.813653 C64.8125991,191.211572 62.19867,191.40166 59.5813616,191.37885 L55.2473422,191.37885 C53.8297039,191.37885 52.4137552,191.37885 50.9978066,191.194675 C49.5810131,191.011345 48.1642196,191.011345 46.7474261,191.011345 L42.0737818,191.011345 L42.0737818,179.083921 C42.0737818,175.17401 42.1920592,171.447429 42.427769,167.906713 C41.2669614,167.213101 40.188948,166.391918 39.2123152,165.456683 C37.7946769,164.040734 37.0731852,163.048049 37.0731852,162.425403 L31.9872598,162.425403 C31.9872598,163.048894 31.9872598,164.819675 31.8461719,167.723383 C31.7042391,170.627936 31.6341175,174.722022 31.449098,180.033519 C31.2209917,181.02198 31.125525,182.03663 31.1652324,183.050436 L31.1652324,186.847983 C30.9920406,188.132982 30.9438848,189.434032 31.0232996,190.728324 C31.1229905,191.791976 31.1652324,192.641883 31.1652324,193.278046 L31.1652324,197.443098 C31.005558,199.70135 31.8512409,201.913981 33.4741749,203.492138 L33.4741749,227.162812 C33.4741749,232.829141 33.2933795,237.594028 32.936013,241.456628 C32.5769568,245.319227 32.1984694,248.440059 31.8013955,250.819123 C31.2640784,252.461489 28.0106069,254.106388 22.040981,255.748754 L16.629793,254.233959 C15.5407967,254.473048 14.0530368,254.771276 12.1546856,255.083866 C10.2571793,255.393922 7.90599487,255.748754 5.24222036,256.117948 L1.41679348,253.284361 L5.66632908,249.68704 C4.74545556,244.898498 4.02311899,240.281458 3.46975004,235.874782 C3.00339942,231.789145 2.79134506,227.677318 2.83358696,223.565491 C2.83358696,222.148698 2.83358696,220.279071 2.97467492,217.899162 C3.16222898,214.839159 3.58971705,211.799431 4.24869076,208.805325 C4.6043676,205.51806 4.95750992,202.686163 5.31234192,200.305409 C5.64182878,198.23978 5.82177929,196.15134 5.85050379,194.057831 C5.71195034,192.188205 5.45258505,190.327871 5.07156307,188.491193 C4.59253987,186.590307 4.31543297,184.642956 4.24869076,182.683776 C4.24869076,175.875226 2.83358696,171.204116 0,168.673826 C2.85724243,167.356723 5.27939324,165.253921 6.98343167,162.610423 C7.36445365,162.754045 7.72688919,162.944979 8.06060024,163.176465 C8.58608953,163.428226 9.12594107,163.651264 9.67593067,163.843042 L11.5590748,164.508774 C13.1828536,165.187179 14.9147717,165.57158 16.6728797,165.642547 L16.9415383,165.642547 C18.2932792,165.585943 19.6399511,165.459217 20.9781747,165.259835 C21.3997489,164.709846 21.8753927,164.202098 22.395813,163.744196 C22.9221471,163.206879 23.486499,162.705045 24.081265,162.242918 C22.3028808,162.160969 20.5599798,161.708136 18.9666152,160.912298 C17.4180269,160.291342 15.7841101,159.908631 14.1231584,159.778526 C12.7359342,159.694887 11.3495549,159.952562 10.0856771,160.529587 C6.85586112,156.49295 5.24222036,153.347618 5.24222036,151.066555 L5.24222036,150.315494 C10.3289905,148.062311 15.8136794,146.838141 21.3760934,146.718174 C25.792907,146.506119 30.123547,147.996414 33.47333,150.882381 C34.1559592,150.794517 34.8318297,150.666102 35.498407,150.499669 C36.6600593,150.244528 38.5018064,149.805212 41.0075962,149.182566 C43.7524751,148.600473 46.5463547,148.281969 49.3512171,148.232968 C55.1315994,147.999793 60.6559957,150.614567 64.1401079,155.230762 C67.192508,158.907498 68.9016154,163.513555 68.9852634,168.291114 C68.9869441,171.066407 68.7503894,174.852972 68.2789698,179.649962 Z M150.155609,173.630491 C150.290783,174.428863 150.560286,175.199355 150.948067,175.910709 C151.396676,176.728512 151.671248,177.629955 151.756577,178.560121 C151.416952,179.546047 150.870342,180.450024 150.154764,181.207844 C149.189114,182.237702 148.624762,183.580149 148.568158,184.990184 C148.587589,187.901496 148.763315,190.810274 149.091957,193.702999 C149.445945,196.988575 149.985796,200.572378 150.692926,204.497496 C151.486229,208.466545 152.067477,212.476147 152.435827,216.509404 C152.704485,219.851583 152.845573,222.528875 152.845573,224.554797 C152.845573,236.047974 151.773474,243.602516 149.630964,247.219268 C145.852003,254.018525 137.236345,257.423223 123.778074,257.432516 C98.5072767,257.432516 85.8761024,253.655245 85.8853956,246.100703 C85.8617401,245.086897 85.9183443,244.073936 86.0560529,243.068579 C86.0264836,242.329345 86.1464506,241.593491 86.4091952,240.902414 C86.6060425,240.554341 86.7268543,240.167405 86.7623375,239.768641 C86.7623375,239.5135 86.6508189,238.252157 86.4091952,235.986301 C86.1684164,233.7196 86.0560529,230.488939 86.0560529,226.324733 C85.9327065,225.575361 85.8752575,224.816697 85.8853956,224.058877 L85.8853956,209.411074 C85.8752575,208.866998 85.8144292,208.326302 85.7003761,207.795743 C85.5837884,207.204357 85.5271842,206.601142 85.5322533,205.997928 L85.5322533,199.821317 L82.3015924,197.369597 C85.0312643,195.603885 86.399902,192.511778 86.4091952,188.09243 C85.5677365,186.803207 84.9146766,185.40162 84.4686021,183.927378 C84.2835826,182.029027 84.1990988,180.201642 84.1990988,178.431706 C84.3613077,174.258206 85.2931641,170.153137 86.9473571,166.320107 C87.3064133,164.931193 87.8445751,162.849512 88.5626875,160.072529 C89.029883,158.89567 89.4311811,157.695155 89.7674266,156.474364 C90.0360851,155.469851 90.2625018,154.646979 90.4466765,154.024333 C97.6142828,151.124849 107.836824,149.670883 121.115989,149.66159 L123.410569,149.576261 C124.880587,149.430104 126.338778,149.179187 127.774158,148.8252 C129.890477,148.358849 132.051573,148.12145 134.219428,148.117226 C136.734511,148.118915 139.21749,148.685802 141.48588,149.774798 C141.806074,149.877023 142.089095,150.073871 142.2927,150.340839 C142.585859,150.67624 142.954209,150.933916 143.369869,151.0919 L145.11277,151.941808 L147.12433,152.990252 C147.56787,153.62726 147.975926,154.289613 148.341741,154.973087 L150.154764,158.302594 C151.03762,159.987201 152.333601,161.419201 153.922742,162.466801 C151.411038,168.152561 150.155609,171.873228 150.155609,173.630491 Z M123.66571,206.903594 C123.388603,206.194775 123.165566,205.46568 122.999133,204.723067 C122.972943,204.119853 122.91127,203.519173 122.815803,202.923562 C122.692457,201.951154 122.635853,200.970297 122.645991,199.991129 C122.815803,198.347919 122.957736,197.158387 123.04222,196.393809 C123.054047,196.07446 123.096289,195.755956 123.16979,195.445055 L123.16979,191.123709 C123.16979,188.603557 122.999133,185.06115 122.645991,180.528594 C122.460971,178.375947 122.334245,176.051797 122.248917,173.445472 C122.163588,170.839146 122.107829,168.218458 122.107829,165.31475 L113.083268,165.31475 C113.083268,174.144153 113.768432,179.886517 115.137915,182.540154 L113.721121,184.054948 C113.367134,186.57679 113.098475,188.785197 112.914301,190.670031 C112.729281,192.554019 112.65916,194.14147 112.65916,195.401969 C112.690419,196.880435 112.798558,198.355523 112.984422,199.822162 C113.169442,201.465372 113.4381,203.348516 113.791243,205.488491 C112.134515,206.621419 111.312488,207.37248 111.312488,207.755191 C111.312488,209.908684 111.396971,212.330834 111.567629,215.035161 C111.738286,217.742022 112.020462,220.70149 112.374449,224.030152 C112.602555,226.183645 112.785885,228.577916 112.898249,231.227328 C113.012302,233.875895 113.083268,236.780449 113.083268,239.924091 C117.631032,239.924091 120.53474,240.377769 121.752997,241.256401 C121.856912,240.256958 122.296228,239.324256 122.999133,238.606989 C123.592209,237.987722 123.965628,237.191885 124.062784,236.340288 C124.013784,234.954754 123.517019,233.622444 122.645991,232.543586 C121.830722,231.422486 121.283267,230.129038 121.044178,228.76209 C121.103316,225.904003 121.430269,223.057744 122.02081,220.26133 C122.672181,216.937736 123.618399,213.061619 124.854397,208.632133 C124.338201,208.150575 123.932679,207.560034 123.66571,206.903594 Z M234.270224,187.610872 C234.201792,188.638195 234.021841,189.656225 233.730372,190.642996 C233.728682,191.434609 233.672078,192.225377 233.561404,193.007698 C233.433834,193.855915 233.372161,194.71427 233.376385,195.572626 C224.390687,195.4214 215.403299,195.799887 206.462378,196.705554 L206.462378,193.872812 C206.327204,192.81423 206.109235,191.76663 205.811008,190.740997 C205.368312,189.041183 204.705959,186.737309 203.829017,183.828532 L203.829017,181.166447 C203.818879,180.34104 203.910967,179.518168 204.097676,178.715572 C204.482922,177.032654 204.748201,175.322702 204.890134,173.602611 C204.890134,171.319859 203.828173,168.416995 201.73044,164.875434 C198.747316,165.895153 197.255332,167.600882 197.255332,169.989239 C197.292505,171.037683 197.386282,172.082748 197.537508,173.120209 C197.722528,174.537002 198.105239,176.562924 198.672126,179.084766 C199.026113,181.237413 199.337013,183.064798 199.606517,184.580438 C199.824485,185.644934 199.961349,186.725481 200.016263,187.811098 C199.966418,188.943181 199.737467,190.062592 199.336168,191.124553 C198.896853,192.443346 198.373053,193.95814 197.792649,195.755956 C196.739981,198.230487 196.080162,200.855399 195.837694,203.53438 C195.837694,204.799948 197.017088,206.503986 199.37841,208.64734 C198.247172,218.384099 197.717459,228.182531 197.792649,237.984343 C197.792649,239.245686 199.209443,241.087433 202.04134,243.481705 C205.375916,241.970289 207.042782,239.135857 207.042782,234.980944 C206.961677,232.873917 206.664294,230.780409 206.148943,228.733366 C205.979975,226.962585 205.795801,225.192649 205.625143,223.435386 C205.257639,220.536747 205.752714,218.359599 207.112903,216.905633 C208.64375,215.373941 210.760069,214.578949 212.92032,214.723416 L214.550013,214.808744 L218.601011,215.078248 L222.526129,215.346906 C223.517969,215.346906 224.197219,215.43139 224.552051,215.43139 C226.970822,215.333389 229.360869,214.854366 231.633484,214.015442 C231.830331,215.987294 232.146301,217.946473 232.583082,219.880308 C233.03676,221.890177 233.446506,223.972703 233.815701,226.126196 C234.460312,228.446121 234.905542,230.815892 235.146321,233.209318 C235.316978,235.291844 235.414979,237.091349 235.414979,238.606989 C235.442859,240.787516 235.122665,242.95875 234.467071,245.037896 C233.853718,246.909213 232.997897,248.690131 231.917349,250.335876 C231.261755,251.360665 230.495487,252.310263 229.636287,253.168618 C228.459427,254.322667 227.152463,255.335628 225.740738,256.18638 C223.417433,257.446878 222.255781,258.522357 222.255781,259.401834 C221.717619,259.401834 219.649456,259.401834 216.065652,259.216814 C212.481849,259.032639 207.297923,258.961673 200.483459,258.834947 C180.793662,258.466598 170.948764,254.806759 170.948764,247.857121 C170.950453,247.095077 171.034937,246.333033 171.20475,245.59042 C171.397373,244.804721 171.667721,244.040987 172.01157,243.310202 C172.34866,241.611233 172.891047,239.961264 173.626056,238.394934 C171.199681,235.826627 169.984803,232.214944 169.984803,227.557351 C169.984803,226.538477 170.084494,225.148718 170.269514,223.3923 C170.454533,221.635881 170.834711,219.341301 171.402442,216.566008 C171.757274,214.044166 172.111261,211.833225 172.47961,209.950081 C172.781218,208.513856 172.961168,207.053131 173.017772,205.587337 L167.832156,203.503966 C168.0459,201.744168 168.796961,200.09082 169.984803,198.773718 C171.643221,196.620225 172.47961,194.920411 172.47961,193.659068 C172.454265,192.024306 172.086761,190.4132 171.402442,188.928819 C170.937781,187.382766 170.644622,185.791091 170.524655,184.182519 C170.524655,171.556414 172.412868,161.773188 176.190984,154.831154 C178.159457,154.208508 180.12793,153.613742 182.097247,153.032494 L188.273858,151.233833 C192.579998,150.18201 197.001036,149.673417 201.433057,149.718194 C214.862603,149.718194 223.994458,151.805789 228.829466,155.979289 C232.607582,159.010568 234.495795,164.568758 234.495795,172.652169 L234.495795,179.083921 C234.495795,180.103641 234.467916,181.179964 234.410467,182.312892 C234.3395,183.446665 234.325983,184.707163 234.325983,186.095232 L234.270224,187.610872 Z M314.077854,254.471358 L310.224547,254.471358 C309.515728,254.471358 308.665821,254.471358 307.688343,254.571049 C306.710866,254.669895 305.676784,254.656378 304.601305,254.656378 C298.169553,254.656378 294.326384,255.47925 293.070955,257.121615 C292.087563,254.882795 289.848742,253.461777 287.404626,253.52345 C289.045301,252.087225 290.021089,250.035958 290.09628,247.857121 C288.37112,246.388792 287.167226,244.400888 286.667927,242.190792 C286.229456,239.910574 285.049217,237.838186 283.31054,236.298046 C284.118206,234.383643 284.482331,232.309566 284.372502,230.233798 C284.372502,225.702087 282.956553,219.142764 280.122966,210.559209 C278.470463,213.704541 277.644211,220.644041 277.644211,231.381089 C277.670401,231.892216 277.766713,232.397429 277.928077,232.882366 C278.178149,233.639341 278.561705,234.343091 279.061005,234.965737 C279.687875,236.032767 280.165208,237.181747 280.478643,238.378038 C280.478643,239.257514 279.71322,240.588134 278.183218,242.358915 C276.652371,244.131385 276.028881,245.192502 276.028881,245.759388 C276.228263,247.325718 276.813735,248.821081 277.730385,250.106925 C278.659707,251.460355 279.238421,253.022461 279.414992,254.654688 C276.197848,255.6102 272.853979,256.058809 269.499127,255.986998 C262.420229,255.859427 255.408917,254.59217 248.733852,252.232537 C250.178525,248.598889 251.130657,244.786979 251.566594,240.900724 C252.244999,235.25974 252.556744,229.581583 252.500985,223.900892 L249.484068,214.43955 C252.761195,211.030629 254.395112,207.49836 254.384974,203.844436 C254.384974,197.525892 253.110958,192.412087 250.562081,188.502176 C250.910999,187.59313 251.322436,186.706895 251.793855,185.854453 C252.381863,185.279119 252.811885,184.562696 253.040836,183.772772 C253.255425,180.095192 251.997461,176.486889 249.541517,173.742855 L253.040836,169.960514 C252.3675,167.430224 252.066738,164.814606 252.147842,162.197297 L252.416501,126.784219 C257.259958,124.073978 266.14343,122.449355 279.06185,121.911193 L279.06185,124.049478 C279.10916,125.57779 279.289956,127.099343 279.600011,128.597241 C279.798548,130.01319 279.982723,131.217929 280.18126,132.279891 C280.354452,133.124729 280.454143,133.982239 280.480333,134.843974 C280.480333,136.854689 280.3384,139.702638 280.053689,143.343045 C279.771514,146.983453 279.445406,151.6157 279.062694,157.168821 C278.495808,162.343454 278.11901,166.791527 277.929766,170.512194 C277.739678,174.232861 277.645901,177.165294 277.645901,179.308648 C277.645901,180.725441 278.595499,182.396531 280.479488,184.423298 C281.884454,182.671103 282.804482,180.580129 283.141573,178.36074 C283.915444,175.318478 284.446848,172.221301 284.728179,169.0954 L284.996837,167.012874 L288.226653,165.695772 C287.93096,164.777433 287.750164,163.826145 287.687646,162.86303 L290.125004,158.513803 C288.525726,155.681906 287.687646,152.485883 287.687646,149.234946 C288.84085,149.460518 290.012641,149.587244 291.186966,149.617658 C291.55616,149.617658 292.264134,149.617658 293.353131,149.433483 C294.89665,149.206222 296.424962,148.889408 297.928774,148.483885 C300.023127,147.823222 302.195206,147.4422 304.389251,147.350957 C313.360586,147.350957 317.845832,149.55514 317.845832,153.96604 C317.845832,155.354953 316.590402,157.503377 314.077854,160.411309 C311.745256,163.311639 310.579379,165.454993 310.579379,166.843062 C310.579379,168.231131 309.161741,173.595008 306.328999,182.934693 C304.91305,187.59482 303.721829,191.319711 302.830524,194.096694 C302.257724,196.037287 301.538767,197.932259 300.677032,199.763023 L304.175507,203.177014 L303.849399,205.485956 C303.50724,208.199576 304.128196,210.947834 305.605818,213.248329 C307.316615,215.984759 309.476866,218.412824 311.994483,220.430297 C311.612616,221.847091 311.286509,222.965656 311.003488,223.843443 C310.726381,224.700109 310.581914,225.592258 310.579379,226.492855 C310.579379,228.901489 311.924362,232.740433 314.616016,238.037568 C317.136168,242.840472 318.383149,246.538329 318.383149,249.214776 C318.653497,251.843912 316.740784,254.195941 314.109958,254.466289 C314.098975,254.470514 314.088837,254.471358 314.077854,254.471358 Z M399.580538,248.607337 C395.972234,251.14861 390.652289,252.980219 383.615632,254.104699 L378.489155,254.769586 C377.300468,254.909829 376.121074,255.127798 374.961111,255.420956 L371.193978,255.902514 C369.578648,256.086689 367.610175,256.36971 365.272508,256.752421 C363.035377,256.561488 360.787262,256.50066 358.544217,256.567402 C357.295547,256.567402 356.120377,256.567402 355.044053,256.653575 C353.967729,256.738904 352.806922,256.752421 351.544734,256.752421 L349.660745,256.752421 C347.953327,254.85238 345.695075,253.531054 343.201113,252.970081 C342.705193,252.962478 342.206738,252.931219 341.713353,252.871235 C341.091552,252.871235 340.298249,252.771544 339.433135,252.771544 C338.02479,252.572162 336.606307,252.453885 335.183599,252.418402 C335.148961,251.556667 335.025614,250.703381 334.814405,249.867836 C334.560953,248.805029 334.276243,247.373874 333.936618,245.617455 C333.459285,244.329077 333.102763,242.995078 332.875501,241.636578 C332.716672,240.762171 332.627119,239.877625 332.605998,238.988856 C332.828191,237.335507 333.341007,235.73285 334.121638,234.256917 C334.961407,232.748881 335.446344,231.066809 335.538431,229.341649 C335.183599,227.571714 334.914941,226.125351 334.745128,224.993268 C334.574471,223.992135 334.484073,222.977484 334.47647,221.962833 C334.458728,220.110104 334.696972,218.264977 335.184444,216.479834 L338.159119,216.479834 C345.401916,216.697802 352.618523,217.453933 359.747267,218.746535 C361.552686,220.774991 362.518336,223.41342 362.454128,226.126196 C362.4423,227.236313 362.348523,228.34643 362.169417,229.44134 C361.967501,230.749994 361.688705,232.046821 361.333873,233.323371 C360.995937,234.561059 360.762762,235.827471 360.641105,237.105711 C360.554087,238.252157 360.499173,239.315808 360.499173,240.321165 C362.247143,240.849189 364.067769,241.107709 365.895153,241.086589 L367.510484,241.086589 C371.491361,237.47913 373.66006,232.288445 373.431954,226.921188 C373.431954,223.143072 372.266078,218.029267 369.932635,211.578928 C367.964162,211.197062 365.867274,210.685935 363.614091,210.063289 C361.362597,209.439798 359.011413,208.646495 356.532658,207.783071 C354.917327,206.777714 353.613742,205.956531 352.637109,205.317833 C351.659632,204.679981 350.978692,204.243199 350.611188,203.988058 C348.569214,202.41497 346.170719,201.372439 343.627756,200.955089 C343.627756,200.318082 342.210962,199.255275 339.604637,197.726118 C337.266125,196.209634 335.921143,195.020102 335.567156,194.127108 C334.529694,191.471782 334.047292,188.633126 334.150362,185.784332 C334.118258,184.795871 334.168949,183.804876 334.307502,182.824019 C334.50266,181.638711 334.767094,180.465231 335.09996,179.311182 C335.509707,177.412831 335.821452,175.968158 336.033506,174.948438 C336.246405,173.927874 336.332579,173.361833 336.332579,173.235107 C336.110387,171.831831 335.496189,170.520642 334.561798,169.452767 C334.016033,168.28858 333.569958,167.078772 333.229489,165.840239 C333.270041,165.177886 333.449147,164.531585 333.753288,163.942733 C334.31933,162.916254 335.007873,161.964967 335.808779,161.109146 C336.899465,159.650955 337.803442,158.061815 338.499589,156.377208 C338.544365,155.705561 338.238534,155.056726 337.692768,154.663876 C339.846261,149.610899 350.517411,147.084833 369.707063,147.084833 C372.213698,147.084833 374.36719,147.084833 376.152333,146.985142 C377.686559,146.900659 379.226699,147.02485 380.727976,147.354337 L382.880623,147.608633 L387.724925,150.356891 C390.04823,151.668925 393.008542,153.459137 396.607553,155.724993 C396.423378,155.724993 397.230198,159.111104 399.014496,165.910361 C399.981836,169.102159 400.528446,172.407165 400.644189,175.740897 C400.593499,177.106155 400.291892,178.451137 399.75204,179.707411 C399.104894,180.862305 398.740769,182.153218 398.689234,183.475389 C398.667268,184.144501 398.854822,184.803475 399.22824,185.359378 C395.873388,184.606628 392.436587,184.287279 389.001475,184.40978 C385.76659,184.478212 382.53086,184.355711 379.311182,184.042276 L377.965355,186.676481 C373.603456,183.276852 371.421239,179.744584 371.421239,176.081366 C371.513327,174.592762 371.814089,173.123588 372.314233,171.718622 C372.806774,170.437003 373.162451,169.108073 373.376195,167.752108 C373.376195,167.241825 372.838033,166.419798 371.761709,165.28687 C370.68623,164.153942 369.87772,163.572694 369.339558,163.572694 C365.386561,163.572694 362.59775,164.153942 360.981575,165.28687 C359.161794,166.059052 357.991693,167.856868 358.020418,169.833789 C358.065194,171.329997 358.245145,172.818602 358.560269,174.281861 C359.037603,176.50463 359.667852,178.691071 360.443413,180.825977 C361.007765,182.566344 361.480874,184.33459 361.859362,186.124802 C362.226022,187.871082 362.411041,189.652001 362.412731,191.436299 L368.078215,190.869412 C368.527669,191.110191 369.003313,191.30028 369.495853,191.436299 C370.302674,191.69144 371.421239,192.130756 372.865913,192.753401 C374.310586,193.376892 375.82707,194.085711 377.440711,194.835927 C379.056041,195.587833 380.855546,196.352412 382.838381,197.11699 C387.680993,198.91903 392.308172,201.250783 396.636277,204.072542 C397.005471,206.211672 397.400856,208.463166 397.854534,210.800833 C398.307367,213.1385 398.704441,215.56065 399.058428,218.09601 C400.006336,222.710515 400.541964,227.397677 400.660241,232.10596 C400.655172,233.141731 400.467618,234.167365 400.106872,235.138084 C399.69797,236.240597 399.224861,237.318611 398.690079,238.367055 C398.151917,239.628398 397.712601,240.733446 397.345096,241.682199 C397.029972,242.43326 396.848331,243.235012 396.806934,244.046901 C396.874521,245.946097 397.924655,247.672101 399.580538,248.607337 Z M463.012672,247.659429 C463.012672,251.190852 461.308633,254.344633 457.899711,257.121615 C456.65273,256.989821 446.808677,255.223264 428.365017,251.823636 C423.888219,248.28123 421.651088,245.627593 421.651088,243.862726 L421.651088,184.054948 L424.157723,182.540154 C423.082244,179.894966 421.72121,175.857484 420.078845,170.428555 C418.43479,164.997935 416.44773,158.119264 414.113443,149.78916 L416.139364,149.321965 C417.036583,149.099772 417.895783,148.745785 418.689086,148.273521 C419.228937,148.031897 419.724013,147.777601 420.176846,147.522459 C420.630524,147.267318 421.026753,147.012177 421.381585,146.771398 C421.516759,146.55681 421.715296,146.388687 421.947626,146.289841 C422.159681,146.224788 422.359063,146.130166 422.542392,146.00682 L422.542392,131.615003 C422.495081,128.358152 422.789085,125.105526 423.421024,121.911193 L424.767696,121.911193 C432.742123,122.252507 440.689515,123.07538 448.56594,124.375585 L448.56594,126.160728 C448.56594,126.784219 448.56594,127.705092 448.663941,128.908987 C448.763632,130.112881 448.74927,131.741729 448.74927,133.923101 C448.973997,135.937195 449.091429,137.960582 449.103257,139.986504 L449.103257,145.085946 L451.256749,147.409251 L459.869029,147.027384 C460.471399,148.662146 460.745126,150.399978 460.675849,152.140345 C460.62178,153.596845 460.485761,155.049122 460.266103,156.489571 C459.997444,158.514648 459.684854,161.093094 459.331712,164.251943 C455.476716,164.464843 451.699445,165.427958 448.211108,167.08553 L448.211108,227.855579 C448.179849,229.75731 448.3598,231.658195 448.750115,233.521908 C450.3646,239.188237 454.415599,242.416364 460.861714,243.16827 C462.167833,244.302887 462.947619,245.9292 463.012672,247.659429 Z M541.122177,208.136213 C530.424837,206.696609 519.646393,205.936255 508.853586,205.855995 C506.364693,209.675508 505.140523,214.180185 505.354267,218.732173 L505.354267,232.403343 C506.77106,233.166231 507.492552,236.312408 507.492552,241.864684 C508.551979,242.078428 509.627458,242.205999 510.708006,242.247396 L515.53879,241.68051 L515.793931,218.775259 L529.803881,218.775259 C535.725352,218.775259 539.853231,219.718943 542.184139,221.608846 C542.141052,222.566893 542.261864,223.524939 542.538126,224.442433 L542.538126,228.011874 C542.538126,229.017232 542.538126,230.43487 542.354796,232.262255 C542.169777,234.089639 542.070086,236.510945 541.830996,239.344532 L537.864482,240.903259 C539.827041,244.822463 540.814656,247.599445 540.824794,249.231673 C540.824794,254.029508 536.363204,256.933217 527.438335,257.944488 C525.653192,258.199629 523.99562,258.382959 522.480825,258.510529 L518.074149,258.893241 L513.258572,259.360436 L506.827665,260.027014 C505.014642,259.644302 503.442398,259.262435 502.082209,258.893241 C500.722865,258.523202 499.420124,258.199629 498.157091,257.944488 C496.897438,257.689347 495.906443,257.434206 494.645944,257.179064 C493.384601,256.923923 492.023567,256.612178 490.579738,256.245518 C483.545617,254.214528 479.767501,251.565115 479.247925,248.298971 C478.404777,243.869485 478.048255,239.362274 478.185119,234.855063 C478.202016,230.423887 478.471519,225.99778 478.991939,221.597019 C479.531791,216.941116 480.247369,211.95995 481.145431,206.653522 L477.123157,204.570152 C477.661319,201.02859 478.241723,196.991109 478.864369,192.459398 C479.488704,187.925152 480.254127,182.878089 481.161483,177.315675 C478.223137,175.796656 476.759032,173.647388 476.769118,170.872095 C476.769118,168.988106 477.887736,165.885015 480.127402,161.6076 C481.044051,159.842733 481.812009,158.004366 482.421982,156.111084 C482.796245,155.012794 483.025196,153.869728 483.102077,152.711455 C486.146873,152.839026 489.207721,152.89563 492.253363,152.89563 C497.111182,152.89563 500.752434,151.323386 503.30131,148.164536 C505.994654,149.675952 510.842335,150.619636 517.851112,150.997279 C526.830051,151.507561 532.497225,152.078671 534.847565,152.711455 C540.061061,154.231319 542.667386,157.064906 542.667386,161.211371 C542.614161,162.166883 542.468004,163.116481 542.228915,164.044958 C541.929843,165.305456 541.605425,166.8777 541.23623,168.591877 C540.868726,170.305208 540.570498,171.834365 540.30184,173.039949 C540.072888,173.939702 539.934335,174.860575 539.892093,175.787363 C539.918283,177.097707 540.098234,178.400447 540.430255,179.667704 C540.799449,181.084498 541.237075,182.727708 541.847048,184.484126 C542.447728,186.254907 542.9107,188.069619 543.235962,189.910521 C543.461534,190.968258 543.605156,192.044582 543.660916,193.125975 L543.660916,193.692861 C543.421827,193.949692 543.293411,194.291007 543.306084,194.641614 C543.316222,195.214415 543.252859,195.785525 543.121064,196.341429 C543.117685,196.758779 543.061081,197.17106 542.952941,197.573203 C542.839733,197.975346 542.77806,198.388471 542.767922,198.805821 C542.62261,200.678827 542.928441,202.559437 543.660916,204.287976 L541.122177,208.136213 Z M501.628531,251.596374 L501.628531,256.144138 C502.410851,255.653287 503.143326,255.083021 503.809903,254.444324 L507.534794,251.610737 L501.628531,251.596374 Z M513.087915,167.326309 L509.417938,165.1593 C506.510006,171.957712 505.055194,177.379038 505.055194,181.420743 C504.745139,186.912191 508.215734,191.907718 513.469782,193.532342 C513.469782,187.980066 514.560468,180.094347 516.742684,169.876031 C515.583567,168.945864 514.361086,168.094267 513.087915,167.326309 Z M622.588225,211.027249 C622.856883,212.61301 623.168629,214.525724 623.521771,216.805942 C624.383506,219.827928 624.919133,222.933552 625.123584,226.071281 C625.123584,227.075794 625.023893,228.520467 624.838874,230.418818 C624.654699,232.316324 624.273677,234.667509 623.70679,237.417457 C623.365476,239.323411 623.138214,241.247953 623.025006,243.181787 C622.940522,244.895119 622.79859,246.567053 622.628777,248.196746 L622.360119,256.908716 C620.744788,256.908716 617.879097,257.09796 613.761356,257.474758 C609.810049,257.843952 606.764407,258.042489 604.625277,258.042489 C598.703807,258.042489 594.760948,256.969545 592.797544,254.82619 C591.720375,257.584587 589.213741,258.967587 585.275106,258.976035 C584.553614,258.976035 583.518687,258.976035 582.173705,258.792705 C580.827033,258.608531 578.986976,258.410838 576.648464,258.041644 C575.402328,257.785658 574.099587,257.560086 572.739398,257.375912 C571.379209,257.191737 570.005502,256.966165 568.560829,256.710179 C563.526439,253.933197 561.01389,249.079602 561.024028,242.147705 L561.024028,238.167673 C561.024028,237.545027 561.024028,236.750035 560.88294,235.717642 C560.803526,234.450385 560.851681,233.177214 561.024028,231.920095 L561.024028,228.152117 C561.007131,227.131553 561.125409,226.111833 561.377171,225.121683 C561.377171,223.606044 561.377171,222.16137 561.464189,220.772457 C561.548673,219.384388 561.548673,217.939714 561.548673,216.607405 L561.548673,208.477528 C564.61628,207.262651 567.596869,205.842478 570.473542,204.227147 C572.669277,203.008046 574.746733,201.585339 576.677188,199.977612 C582.975456,199.722471 590.092372,195.430693 598.026247,187.102279 C597.076649,185.473431 596.608609,182.313737 596.608609,177.65361 C596.962596,173.87127 597.146771,171.221858 597.146771,169.706218 L597.146771,168.175371 C595.368386,167.798574 593.554519,167.608485 591.735583,167.610175 C588.138262,167.610175 586.337912,169.692701 586.337912,173.856063 L586.337912,175.556722 C586.391982,176.830738 586.572777,178.097995 586.877764,179.339062 C587.093197,180.148417 587.252872,180.972134 587.358476,181.80261 C587.443805,182.494532 587.490271,183.188989 587.500409,183.885136 L587.230906,186.718723 L579.553017,187.38361 C577.302369,187.582147 575.375293,187.666631 573.759962,187.666631 C568.547311,187.666631 564.595159,186.911346 561.903505,185.40162 C561.734537,181.364139 561.592604,178.176565 561.506431,175.839743 C561.421947,173.502076 561.37886,171.957712 561.37886,171.207495 C561.37886,169.436715 561.37886,167.9498 561.506431,166.760268 C561.634001,165.569891 561.734537,164.45048 561.903505,163.444278 L559.750857,162.31135 C563.724131,161.194474 566.925222,158.245989 568.363982,154.378321 C573.926396,151.979825 581.91096,150.780155 592.316831,150.780155 C604.867746,150.780155 612.848931,151.724684 616.257008,153.613742 C620.204937,155.879598 622.177634,160.923281 622.177634,168.742258 C622.231703,169.790702 622.371101,170.833232 622.589915,171.858866 C622.853504,173.312832 623.165249,175.111492 623.523461,177.256536 C624.420679,180.075761 624.958841,182.998901 625.125274,185.953299 C624.931806,189.588638 624.396178,193.198631 623.523461,196.732589 C623.169473,199.637142 622.858573,201.931722 622.589915,203.645054 C622.360119,204.924139 622.221565,206.215051 622.177634,207.513568 C622.223255,208.694651 622.360119,209.868131 622.588225,211.027249 Z M592.584645,210.560054 C588.335109,214.087253 586.1681,216.933512 586.1681,219.059125 C586.1681,219.186695 586.1681,219.52632 586.294825,220.107569 C586.422396,220.688818 586.521242,221.524362 586.691899,222.473116 L587.584893,225.306703 L587.584893,229.089043 C587.715843,229.644946 587.774137,230.217746 587.753861,230.789702 C587.769068,231.687765 587.88819,232.580759 588.108693,233.452632 C588.418748,235.840989 588.656148,238.740473 588.816667,242.149395 L590.970159,243.481705 L594.72293,243.481705 C596.327278,239.378326 597.14846,235.011358 597.145091,230.604682 C597.145926,219.384388 595.626907,212.703408 592.584645,210.560054 L592.584645,210.560054 Z M710.554457,216.042208 C710.186107,216.792424 709.719757,217.671056 709.138508,218.689931 C708.128927,220.15488 707.48347,221.841177 707.254519,223.606044 C710.173435,228.534829 711.617263,232.246203 711.617263,234.768044 C711.693298,236.794811 710.633871,238.695697 708.86985,239.697675 C709.223837,241.213314 709.549944,242.913973 709.818603,244.81148 C710.098244,246.943851 710.145555,249.099033 709.959691,251.243232 L709.67667,258.240181 C703.745062,257.362394 698.438634,256.73468 693.754851,256.356192 C689.066,255.973481 685.113002,255.790151 681.869669,255.790151 C678.894994,255.855203 676.025924,256.91801 673.72374,258.807067 C668.105567,257.315083 662.357288,256.365485 656.555785,255.973481 C652.268232,255.596683 649.137262,254.146941 647.164565,251.625944 C646.011361,249.529056 645.343939,247.200682 645.210454,244.81148 C644.809156,240.721618 644.629206,236.612326 644.671448,232.502189 C644.683275,231.343916 645.060073,230.218591 645.747771,229.286735 C646.106828,228.408103 646.460815,227.586921 646.809733,226.821497 L646.258899,190.487546 C645.686098,189.186495 645.044021,187.920083 644.331823,186.689998 C643.734522,186.034404 643.27493,185.263067 642.986841,184.424143 C642.817028,183.872463 642.72663,183.299663 642.716492,182.723483 C643.074704,180.412006 643.80042,178.17403 644.87083,176.094884 C645.523889,174.837765 646.101759,173.541783 646.598523,172.212853 C646.938148,171.33929 647.130771,170.415882 647.16541,169.478957 C646.651748,167.289981 645.836479,165.182955 644.744104,163.217862 C645.875342,161.696308 647.13584,160.274446 648.510392,158.968326 C650.125722,157.396927 652.180369,155.526456 654.687848,153.38817 C661.836023,151.744115 665.770434,150.922933 666.487702,150.922933 C668.954629,151.126539 671.386073,151.635131 673.72543,152.438572 C676.251496,153.097546 678.830786,153.538552 681.431198,153.755675 C680.37515,150.356046 679.845437,144.930496 679.845437,137.479024 L679.845437,131.99687 C680.016094,130.991513 681.162539,129.277336 683.287307,126.883065 C684.543582,126.883065 685.762683,126.85434 686.942077,126.798581 C688.103729,126.798581 689.137811,126.699735 690.045167,126.699735 C692.027157,126.473318 693.458313,126.345748 694.364824,126.345748 L695.980155,126.345748 C699.495526,126.15397 703.008363,126.790133 706.2348,128.201857 C709.484047,138.051824 711.10867,166.647059 711.10867,213.987562 C711.076567,214.703985 710.888168,215.4052 710.554457,216.042208 Z M683.484155,228.78997 C683.599897,227.020879 683.232393,225.252633 682.422193,223.676165 C681.670287,222.002541 681.215764,220.20895 681.075521,218.37903 C681.079745,217.448019 681.21323,216.523766 681.472595,215.629082 C681.741254,214.681174 682.067361,213.576126 682.422193,212.315627 C682.77618,211.054284 683.131012,210.13341 683.414033,209.199864 C683.697899,208.242663 683.842366,207.249978 683.838232,206.252224 C683.838232,204.987502 682.469504,203.160962 679.730539,200.770915 C681.607769,193.023749 682.511746,185.072133 682.423038,177.100241 C682.423038,172.189197 680.595653,168.974588 676.941728,167.45388 C673.98564,168.841949 672.508018,171.430533 672.508018,175.216252 C672.595881,177.060534 672.832436,178.893832 673.215148,180.698407 C673.385805,181.5914 673.526893,182.470877 673.613066,183.347819 C673.698395,184.225606 673.738947,185.188721 673.738947,186.180561 C673.738947,187.173246 673.738947,188.447262 673.613066,189.595396 C673.486341,190.741842 673.385805,191.791976 673.215148,192.81085 C673.026749,193.875346 672.894954,194.948291 672.818074,196.027149 C672.73359,197.160077 672.676986,198.420575 672.676986,199.809489 C672.676986,203.841056 674.023658,206.427951 676.713622,207.571861 C674.072658,209.450781 672.300188,212.316472 671.799199,215.519253 C672.034909,215.519253 672.152341,218.549688 672.152341,224.613091 L672.152341,241.030829 C674.686011,242.439174 677.492563,243.280633 680.381909,243.496067 L680.921761,243.496067 C681.652546,240.904103 682.093551,238.237794 682.238863,235.548675 C682.254915,233.871671 681.981188,232.203961 681.431198,230.619045 L683.485844,229.301942 L683.485844,228.78997 L683.484155,228.78997 Z M797.516176,152.381968 C796.410283,154.149369 795.762292,156.165998 795.633032,158.246834 C796.03264,160.822746 796.849599,163.315863 798.054338,165.626495 C797.630229,166.256744 797.269483,166.924166 796.978014,167.624537 C796.624027,168.44572 796.085865,169.550768 795.364373,170.924475 C795.036576,171.376463 794.815229,171.892659 794.713003,172.440959 C794.581208,173.042484 794.356482,173.622043 794.046426,174.154291 C794.003339,175.028698 793.723698,175.876071 793.238761,176.605166 C793.901959,178.047305 794.349723,179.578996 794.570226,181.15124 C794.570226,182.412583 793.862251,183.049591 792.416733,183.049591 C792.698064,183.713634 792.879705,184.415694 792.956585,185.132117 C793.186381,192.993335 791.134269,200.753173 787.048632,207.472171 L788.125801,212.203264 C787.941626,212.841117 787.756606,213.407158 787.586794,213.916595 C787.383188,214.453912 787.11115,214.96335 786.779129,215.432235 C786.594954,215.801429 786.326295,216.282142 785.973153,216.849028 C785.535527,217.601779 785.175626,218.392548 784.89514,219.21542 C784.040164,221.115461 783.051703,222.952984 781.935672,224.711937 C782.907236,225.414842 783.500312,226.530028 783.535795,227.728853 C783.3305,230.683252 782.793183,233.606392 781.935672,236.441669 C781.013954,239.327636 780.470723,242.324276 780.320341,245.350486 C780.186857,247.082404 779.528728,248.731528 778.436353,250.082425 C777.382839,251.236473 776.725555,252.694664 776.553208,254.247476 C776.31074,257.638656 775.585024,260.977457 774.400561,264.163341 C773.432377,266.735028 771.870271,269.039746 769.83928,270.891632 C767.347008,273.098349 764.408661,274.745783 761.227001,275.721571 C756.854119,277.05557 752.33508,277.850563 747.76873,278.088807 C744.783917,277.290435 741.708706,276.870551 738.618288,276.842671 C735.55575,276.771705 732.500816,276.519943 729.467002,276.08992 C727.898983,273.855324 726.967971,271.234636 726.775348,268.511723 C726.799004,265.924828 727.986001,263.484936 730.005164,261.868761 C732.561644,262.929033 735.312437,263.444384 738.080127,263.3844 C745.436132,263.3844 750.370831,261.495342 752.882535,257.718071 C752.163578,252.420092 751.357602,247.499754 750.460384,242.957905 C750.09119,240.563634 749.638356,238.198087 749.114557,235.873937 C748.590757,233.550633 748.122717,231.114965 747.696919,228.593123 C747.27281,226.072971 746.93234,223.890754 746.478662,221.679813 C746.026674,219.470561 745.630445,217.302707 745.274768,215.150059 C744.921625,212.996567 744.510189,210.646227 744.057356,208.066937 C743.603678,205.489336 743.122965,202.741922 742.641407,199.837369 C741.195045,192.527829 739.891459,185.916971 738.731497,180.005639 C737.569844,174.093462 736.388761,168.841949 735.189935,164.252788 C733.036443,154.922396 731.14823,148.783803 729.523606,145.837852 C734.058697,147.251266 738.770359,148.019224 743.518349,148.118915 C746.640871,148.04288 749.731289,147.464166 752.67048,146.404739 C755.013216,145.542159 757.453954,144.971048 759.936933,144.704924 L759.668274,147.93474 C759.291477,151.241437 759.425806,154.585306 760.065348,157.850605 C760.590838,160.569294 761.349502,163.236448 762.332049,165.825032 L760.448905,169.041331 L760.448905,176.420991 C760.427784,178.128409 760.518181,179.836672 760.717563,181.533951 C760.862875,183.825997 761.174621,186.101991 761.651109,188.347571 C762.055787,190.248456 762.836417,192.049651 763.946534,193.64555 C767.347008,191.37885 769.061184,189.168753 769.061184,187.015261 C767.975567,184.116621 766.897554,181.217137 765.830523,178.318498 C769.230997,175.909864 771.213832,170.683696 771.751994,162.594371 C771.949686,160.583656 772.134705,158.783306 772.333242,157.211908 C772.519107,155.802718 772.618797,154.38339 772.63147,152.962372 C772.744678,151.544734 772.815645,150.241993 772.815645,148.981495 C772.824938,147.586667 772.94237,146.193529 773.169632,144.817288 C774.769755,144.817288 776.470414,144.817288 778.255557,144.689717 C780.039855,144.562147 781.910327,144.462456 783.921886,144.293488 C786.95401,146.181701 792.312818,147.127075 800,147.127075 C799.439872,148.993323 798.605172,150.765793 797.516176,152.381968 Z M772.614573,224.624918 C772.614573,217.562072 771.895616,212.636666 770.459391,209.852079 C770.276906,209.227744 769.298584,208.33475 767.499923,207.201822 C765.699573,206.068894 765.077773,205.119296 765.077773,204.36908 C765.077773,204.10887 765.122549,203.851194 765.204498,203.603657 C765.299965,203.366257 765.348966,203.111116 765.346431,202.852596 L765.346431,200.530136 C765.531451,199.382001 765.658176,198.505059 765.756178,197.867206 C765.855869,197.229353 765.883748,196.861004 765.883748,196.733434 C765.84742,195.643592 765.66747,194.5622 765.345586,193.51798 C765.212102,194.755668 764.748286,195.935906 763.998914,196.93197 L762.385274,199.765557 C762.419912,200.219235 762.511155,200.66531 762.653932,201.097022 C762.838952,201.720513 763.007074,202.513816 763.192094,203.547898 C763.493701,204.463702 763.675341,205.416679 763.730256,206.38064 L763.730256,207.330238 C763.805446,208.031453 763.712514,208.740272 763.461597,209.398401 C757.724302,209.398401 753.956324,209.852079 752.128939,210.729021 C752.128939,212.372231 753.834667,213.950389 757.243589,215.461804 C760.653356,216.972375 762.357394,219.054901 762.357394,221.708537 C762.406395,222.661515 762.315152,223.615337 762.088735,224.542124 C761.904561,225.293185 761.77699,225.958918 761.691662,226.341629 C761.607178,226.679565 761.559867,227.026793 761.550574,227.375711 C761.556487,228.261101 761.837819,229.122836 762.357394,229.839259 C762.357394,229.330666 763.972724,229.07637 767.200851,229.07637 C768.969097,228.6869 770.774516,228.495966 772.585004,228.509484 L772.614573,224.624918 Z" id="Combined-Shape"></path>
            </g>
        </g>
    </g>
</svg>