<?xml version="1.0" encoding="UTF-8"?>
<svg width="800px" height="400px" viewBox="0 0 800 400" version="1.1" xmlns="http://www.w3.org/2000/svg" xmlns:xlink="http://www.w3.org/1999/xlink">
    <title>saber</title>
    <g id="Page-1" stroke="none" stroke-width="1" fill="none" fill-rule="evenodd">
        <g id="Manufacturer" fill="#000000" fill-rule="nonzero">
            <g id="saber">
                <line x1="0" y1="0" x2="800" y2="400" id="Path"></line>
                <path d="M322.65054,160.606353 C336.835595,148.493273 357.395955,142.755498 370.624714,136.22081 C364.249408,124.10773 352.295711,123.470199 344.326579,120.123164 C346.876701,115.66045 356.439659,105.778726 359.308547,103.706752 C367.118296,98.1283599 377.318785,94.7813246 377.318785,94.7813246 C377.318785,94.7813246 366.799531,101.15663 362.974347,104.503665 C359.627312,107.21317 353.570772,114.226006 351.817563,117.413659 C359.786695,119.485633 377.318785,126.817234 377.796933,141.63982 C377.956315,146.899447 376.043724,153.115369 372.856071,158.215614 L389.75063,165.22845 C394.532109,162.040797 402.501241,156.462405 406.963955,151.521543 C393.894579,153.7529 390.069396,143.552411 390.069396,134.626984 C390.069396,117.891807 399.791736,111.516501 420.033331,105.938109 C423.699132,104.981813 431.827646,103.54737 432.146411,104.025517 L432.146411,108.488231 C432.146411,115.182302 421.308392,139.089697 420.352096,141.63982 C430.393202,128.570443 437.406038,115.022919 439.159247,102.909839 L443.462579,103.228604 C440.753074,114.863537 435.812212,128.411061 428.639993,140.364759 C437.087273,128.889209 450.79418,104.981813 450.79418,91.4342892 C450.79418,90.3186108 450.79418,89.2029323 450.634797,87.9278712 C440.753074,83.3057748 420.989627,74.0615819 420.989627,74.0615819 C420.989627,74.0615819 409.832842,72.3083729 402.979389,71.352077 C401.385563,69.4394854 396.444701,63.3829452 396.444701,63.3829452 C396.444701,63.3829452 394.213344,63.5423279 390.388161,67.2081285 C386.562978,70.8739291 379.231376,81.5525658 379.231376,81.5525658 C379.231376,81.5525658 382.419029,73.105286 383.69409,70.077016 L322.172392,70.077016 C321.853627,66.0924501 321.534862,62.2672668 321.056714,58.2827009 C366.958913,49.1978906 410.629756,49.1978906 456.691337,49.3572733 C407.920251,44.4164115 358.830399,40.5912283 307.031042,44.8945594 C316.912765,93.5062635 320.100418,144.349324 321.056714,195.989299 C321.694245,184.194983 322.172392,172.400668 322.65054,160.606353 L322.65054,160.606353 Z M424.974193,79.3212089 C425.452341,81.3931831 425.930489,83.9433053 426.249254,86.9715754 L415.251852,79.3212089 L424.974193,79.3212089 Z M323.925601,174.632025 C373.812367,183.557453 423.699132,188.179549 473.585897,179.094739 C467.529357,128.729826 462.747878,78.364913 459.560225,28 C457.488251,74.858495 457.966399,120.601312 461.791582,164.590919 C415.73,178.138443 369.827801,177.182147 323.925601,174.632025 L323.925601,174.632025 Z M168.122623,295.316304 L174.655541,295.316304 L174.655541,312.515209 L177.322037,312.515209 L177.322037,295.316304 L183.854955,295.316304 L183.854955,293.049782 L168.255948,293.049782 L168.255948,295.316304 L168.122623,295.316304 Z M243.051184,303.582445 L253.98382,303.582445 L253.98382,301.315922 L243.051184,301.315922 L243.051184,295.316304 L254.650445,295.316304 L254.650445,293.049782 L240.384687,293.049782 L240.384687,312.648534 L255.050419,312.648534 L255.050419,310.382011 L242.917859,310.382011 L242.917859,303.582445 L243.051184,303.582445 Z M104.260025,236.52005 C86.1278467,231.987005 67.7290188,228.120585 62.3960252,226.920661 L174.122241,207.05526 L173.988916,206.521961 C173.988916,206.521961 143.057553,208.655158 111.592891,212.121604 C80.3948786,215.58805 47.9969424,220.254419 45.9970698,225.720738 C43.7305476,231.853681 63.3292991,238.386598 82.6614009,243.186292 C98.9270314,247.319362 115.459312,250.385833 120.65898,251.319107 L0,272.251107 L0.13332484,272.784406 C19.4654267,271.317833 141.59098,261.185145 145.590725,251.852407 C147.190623,247.985986 125.32535,241.719719 104.260025,236.52005 L104.260025,236.52005 Z M279.982164,209.455107 C274.649171,208.255184 252.383922,214.521451 218.652738,231.453706 C208.653375,236.52005 199.187311,241.853044 190.921171,246.919387 C179.855209,247.452687 171.855719,247.852661 171.855719,247.852661 L171.855719,248.385961 C171.855719,248.385961 177.988662,248.785935 187.054751,249.18591 C169.055897,260.518521 157.323311,269.85126 157.589961,270.11791 C157.589961,270.11791 179.58856,258.785298 197.587413,249.719209 C219.452687,250.919133 247.984203,252.385706 253.317196,252.385706 C261.849986,252.385706 274.249196,249.852534 274.249196,248.252636 C274.249196,246.652738 265.049782,244.252891 252.383922,244.252891 C245.71768,244.252891 223.985731,245.186165 204.786954,246.119438 C207.186802,244.919515 209.453324,243.852916 211.453196,242.786317 C228.91875,234.253528 266.516355,222.254292 271.0494,224.654139 C277.315667,228.120585 286.648406,269.184636 286.648406,269.317961 L287.181706,269.317961 C287.181706,269.317961 287.84833,263.984967 288.381629,257.318725 C288.914929,250.652483 289.181578,242.519668 288.381629,237.053349 C287.715005,232.12033 285.581808,210.655031 279.982164,209.455107 L279.982164,209.455107 Z M34.5311336,312.648534 L37.1976304,312.648534 L37.1976304,293.049782 L34.5311336,293.049782 L34.5311336,312.648534 Z M503.834571,242.919642 C503.834571,244.652865 516.233781,247.052712 524.766571,247.052712 C533.56601,247.052712 581.296303,242.919642 581.296303,242.919642 L581.296303,242.386343 C581.296303,242.386343 538.632354,238.786572 525.699845,238.786572 C513.033985,238.919897 503.834571,241.453069 503.834571,242.919642 L503.834571,242.919642 Z M108.79307,308.382139 L98.393732,293.049782 L95.7272352,293.049782 L95.7272352,312.648534 L98.2604072,312.648534 L98.2604072,297.316177 L108.659745,312.648534 L111.326242,312.648534 L111.326242,293.049782 L108.79307,293.049782 L108.79307,308.382139 Z M799.415741,286.38354 C773.417398,275.184254 743.419309,264.118292 716.487691,255.985477 C695.422366,249.052585 678.623436,245.186165 671.957194,243.986241 C678.090137,242.519668 690.622672,239.853171 701.955283,237.053349 C713.954519,234.120203 725.153805,230.787082 725.153805,227.853935 C725.020481,223.187566 700.622035,216.921298 651.958468,211.588305 C601.695003,206.255311 582.229577,206.788611 582.229577,206.788611 L582.229577,207.32191 C582.229577,207.32191 626.093449,212.788228 650.891869,216.387999 C675.823615,219.98777 699.955411,227.320636 698.622162,228.653884 C698.222188,229.053859 695.289041,229.853808 690.622672,231.187056 C686.089627,232.38698 680.223334,233.853553 674.490366,235.453451 C663.29108,238.519923 651.425169,241.986368 651.691819,244.386216 C651.691819,245.719464 659.557984,247.852661 670.757271,250.785808 C682.223207,253.852279 697.822213,257.585375 714.221169,261.85177 C740.619487,268.784661 766.88448,276.650827 792.882824,284.783642 L798.082493,286.38354 L799.282417,286.783515 C800.21569,287.183489 800.21569,286.65019 799.415741,286.38354 L799.415741,286.38354 Z M531.299488,295.316304 L537.832405,295.316304 L537.832405,312.515209 L540.498902,312.515209 L540.498902,295.316304 L547.031819,295.316304 L547.031819,293.049782 L531.432813,293.049782 L531.432813,295.316304 L531.299488,295.316304 Z M673.290443,307.182215 C672.890468,308.248814 672.490494,309.315413 672.223844,310.382011 C671.957194,309.315413 671.55722,308.382139 671.157245,307.182215 L666.090901,293.049782 L663.29108,293.049782 L670.890596,312.648534 L673.557092,312.648534 L681.289933,293.049782 L678.623436,293.049782 L673.290443,307.182215 Z M586.229322,272.917731 L585.562698,272.784406 L582.629551,272.251107 C561.830876,268.384687 486.102367,252.519031 487.035641,242.519668 C487.56894,236.653375 510.767463,227.587286 534.232634,219.854445 C557.564481,212.254929 580.763004,205.988662 580.763004,205.988662 L580.629679,205.455362 C580.629679,205.455362 551.031564,210.655031 521.966749,217.987897 C493.168584,225.187439 463.837119,234.653502 465.570342,243.186292 C468.636813,257.985349 558.36443,269.717935 580.629679,272.651082 L584.629424,273.184381 L586.229322,273.451031 C586.495972,273.584356 586.895946,273.051056 586.229322,272.917731 L586.229322,272.917731 Z M470.903335,309.448738 C469.836737,310.248687 468.636813,310.781986 467.17024,310.781986 C465.970316,310.781986 464.903718,310.515336 463.837119,309.848712 C462.77052,309.182088 462.103896,308.248814 461.570597,307.04889 C461.037297,305.848967 460.903972,304.382394 460.903972,302.649171 C460.903972,301.315922 461.037297,300.115999 461.570597,298.916075 C461.970571,297.716152 462.637195,296.782878 463.703794,295.982929 C464.770393,295.316304 465.970316,294.91633 467.570214,294.91633 C468.903463,294.91633 469.970061,295.316304 470.903335,295.849604 C471.836609,296.516228 472.369909,297.582827 472.903208,298.916075 L475.43638,298.382776 C474.903081,296.516228 473.969807,295.18298 472.636558,294.116381 C471.30331,293.049782 469.570087,292.649808 467.570214,292.649808 C465.836991,292.649808 464.237093,293.049782 462.77052,293.849731 C461.303947,294.64968 460.237348,295.849604 459.437399,297.316177 C458.63745,298.78275 458.237476,300.649298 458.237476,302.649171 C458.237476,304.515718 458.63745,306.248941 459.304074,307.848839 C459.970698,309.448738 461.037297,310.648661 462.370546,311.581935 C463.703794,312.381884 465.437017,312.915183 467.570214,312.915183 C469.570087,312.915183 471.436635,312.381884 472.769883,311.18196 C474.236456,310.115362 475.16973,308.382139 475.70303,306.248941 L473.036533,305.582317 C472.636558,307.31554 471.969934,308.648788 470.903335,309.448738 L470.903335,309.448738 Z M604.094851,312.648534 L606.761347,312.648534 L606.761347,293.049782 L604.094851,293.049782 L604.094851,312.648534 Z M635.826163,216.921298 C632.893016,216.921298 631.693093,221.720993 631.026468,226.787337 C630.359844,231.987005 630.359844,237.986623 630.493169,241.053095 C630.493169,247.052712 634.492914,277.717426 635.826163,277.717426 C636.626112,277.717426 638.22601,269.051311 639.559258,260.785171 C640.892506,252.252381 642.225755,243.186292 642.225755,241.319744 C642.225755,237.186674 642.09243,216.921298 635.826163,216.921298 L635.826163,216.921298 Z M324.512661,304.649043 C324.112686,304.382394 323.579387,303.982419 322.912763,303.715769 C324.779311,303.44912 326.245884,302.782496 327.179158,301.849222 C328.112432,300.915948 328.512406,299.716024 328.512406,298.382776 C328.512406,297.316177 328.245756,296.382903 327.712457,295.449629 C327.179158,294.64968 326.379209,293.983056 325.445935,293.583082 C324.512661,293.183107 323.179412,293.049782 321.44619,293.049782 L312.64675,293.049782 L312.64675,312.648534 L315.313247,312.648534 L315.313247,303.982419 L318.379718,303.982419 C319.046342,303.982419 319.579642,303.982419 319.846291,304.115744 C320.246266,304.249069 320.646241,304.382394 321.046215,304.649043 C321.44619,304.915693 321.846164,305.315667 322.379463,305.982292 C322.912763,306.648916 323.446062,307.448865 324.246011,308.648788 L326.779183,312.648534 L330.112304,312.648534 L326.645858,307.31554 C325.979234,306.248941 325.31261,305.315667 324.512661,304.649043 L324.512661,304.649043 Z M321.046215,301.715897 L315.446572,301.715897 L315.446572,295.18298 L321.712839,295.18298 C323.179412,295.18298 324.246011,295.449629 324.912635,296.116253 C325.57926,296.649553 325.979234,297.449502 325.979234,298.382776 C325.979234,299.0494 325.845909,299.582699 325.445935,300.115999 C325.04596,300.649298 324.512661,301.049273 323.846037,301.315922 C323.179412,301.582572 322.246139,301.715897 321.046215,301.715897 L321.046215,301.715897 Z M391.97503,293.049782 L384.375514,312.648534 L387.175336,312.648534 L389.308533,306.782241 L397.574673,306.782241 L399.841196,312.648534 L402.774342,312.648534 L394.641527,293.049782 L391.97503,293.049782 Z M390.108482,304.515718 L392.24168,298.78275 C392.641654,297.582827 393.041629,296.249578 393.308278,295.049655 C393.574928,296.116253 394.108227,297.449502 394.641527,299.0494 L396.774724,304.382394 L390.108482,304.382394 L390.108482,304.515718 Z M740.219512,303.582445 L751.152149,303.582445 L751.152149,301.315922 L740.219512,301.315922 L740.219512,295.316304 L751.818773,295.316304 L751.818773,293.049782 L737.553016,293.049782 L737.553016,312.648534 L752.218748,312.648534 L752.218748,310.382011 L740.086188,310.382011 L740.086188,303.582445 L740.219512,303.582445 Z M387.175336,236.920024 C393.041629,235.586776 402.907667,233.986878 411.707106,232.253655 C421.17317,230.387107 430.105934,228.25391 430.105934,226.254037 C430.239259,223.320891 419.973246,215.988025 371.443005,211.988279 C328.645731,208.521834 316.646495,210.655031 316.646495,210.655031 L316.646495,211.18833 C316.646495,211.18833 339.711693,212.388254 364.510113,215.58805 C389.441858,218.921171 404.774215,225.054114 403.574291,226.254037 C403.174317,226.520687 400.774469,227.187311 397.174699,227.98726 C393.574928,228.787209 388.908559,229.853808 384.242189,230.920407 C375.44275,232.920279 365.976686,235.453451 366.243336,237.586649 C366.110011,239.986496 378.775871,242.386343 390.508457,244.51954 C396.508075,245.586139 402.641017,246.652738 407.174062,247.452687 C409.440584,247.852661 411.307132,248.252636 412.773705,248.65261 C412.90703,248.65261 414.506928,249.052585 414.773578,249.18591 C415.040227,251.452432 380.375769,259.451922 355.710673,262.785043 C330.645604,266.251489 309.446954,268.784661 309.446954,268.784661 L309.446954,269.317961 C309.446954,269.317961 332.112177,270.11791 381.709017,264.651591 C430.105934,259.318598 443.305093,251.585757 443.438418,248.785935 C443.305093,245.186165 401.441094,238.253273 387.175336,236.920024 L387.175336,236.920024 Z M350.511005,260.385196 C351.977578,260.385196 352.910852,254.918878 353.710801,249.852534 C354.51075,244.51954 354.910724,238.653247 354.910724,237.053349 C354.910724,233.853553 353.444151,216.521324 350.511005,216.521324 C347.444533,216.521324 346.111285,231.853681 346.111285,237.319999 C346.111285,241.053095 347.177884,260.385196 350.511005,260.385196 L350.511005,260.385196 Z" id="Fill-1"></path>
            </g>
        </g>
    </g>
</svg>