<?xml version="1.0" encoding="UTF-8"?>
<svg width="800px" height="400px" viewBox="0 0 800 400" version="1.1" xmlns="http://www.w3.org/2000/svg" xmlns:xlink="http://www.w3.org/1999/xlink">
    <title>studiomdhr</title>
    <g id="Page-1" stroke="none" stroke-width="1" fill="none" fill-rule="evenodd">
        <g id="studiomdhr" fill="#000000">
            <line x1="0" y1="0" x2="800" y2="400" id="Path" fill-rule="nonzero"></line>
            <path d="M447.580722,0.437723083 C447.35048,0.667337466 447.129022,6.66679743 447.088871,13.7691593 C447.048092,20.8708937 446.836044,29.4287347 446.618349,32.7857472 L446.221229,38.8887218 L443.084421,36.3617089 C437.520977,31.8792095 434.339626,30.5717877 428.244807,30.2612437 C416.569606,29.6671322 407.124048,35.367968 401.953333,46.130358 C400.622699,48.9001599 400.445155,50.1486097 400.435118,56.8086815 C400.424452,64.1067802 400.49158,64.4882161 402.526114,68.6206477 C405.087005,73.8227309 410.765883,79.8140352 414.956032,81.7350167 C417.523823,82.9125746 419.097873,83.1271323 425.204612,83.1353787 C434.391697,83.1472079 438.344076,81.9865887 442.820302,77.9620634 C446.222484,74.9030477 447.432037,75.0517325 446.753232,78.4451319 C446.370541,80.3579578 447.378084,81.4000055 450.144122,81.9533386 C451.666729,82.257609 452.205633,82.0750467 452.742654,81.0718954 C453.201256,80.2142919 453.472903,67.1356825 453.584574,40.5173528 C453.765881,-2.6946939 454.013689,0.0493861888 449.933329,0.0286832526 C448.869323,0.023664359 447.810337,0.207481338 447.580722,0.437723083 M471.89287,7.011219 C470.337013,7.76593513 468.49257,10.7007332 468.49257,12.4215863 C468.49257,14.0006557 470.618699,16.7114857 472.177065,17.1192708 C473.980103,17.5904194 478.177152,15.0056892 478.425588,13.2697793 C478.730485,11.1405137 478.043524,8.94286569 476.632588,7.53192922 C475.281878,6.18121947 473.912975,6.03065266 471.89287,7.011219 M310.339703,17.0596714 C310.175962,17.6644481 309.796408,21.6331382 309.437557,26.4995829 L309.034164,31.9639034 L304.226691,32.1458383 L299.418591,32.3284005 L299.2285,34.5994499 C299.005787,37.2626003 299.774305,37.63839 305.46824,37.6521919 C308.111942,37.6590929 309.105056,37.9119197 309.38925,38.6534612 C309.598789,39.1992659 309.77696,46.7508187 309.785116,55.4353867 C309.802054,72.4042661 310.208585,75.682231 312.70172,78.9507855 C315.442036,82.5436859 317.588241,83.4533604 323.330482,83.4558759 C329.700713,83.4590066 331.727719,82.2513354 331.727719,78.4532876 L331.727719,76.0486102 L326.737056,76.3905223 C320.425798,76.8234019 318.081974,75.9977939 317.661015,73.1941145 C317.4979,72.1106608 317.213078,63.8520714 317.026752,54.8406479 L316.687977,38.4564696 L319.590152,38.0587223 C321.18616,37.8397731 324.024344,37.660975 325.896392,37.660975 C329.988672,37.660975 331.727719,36.8497963 331.727719,34.941362 C331.727719,32.4482266 330.599095,32.0147197 324.11092,32.0147197 C320.102706,32.0147197 317.842949,31.7606382 317.543698,31.2769423 C317.292753,30.8710393 316.923237,27.7888112 316.722481,24.4274072 C316.521726,21.0666306 316.216201,18.1845309 316.043676,18.0226716 C315.650948,17.6544103 310.418124,16.771085 310.339703,17.0596714 M268.420022,30.813322 C261.82896,32.1069418 256.441177,38.6327583 256.447451,45.3147878 C256.454352,52.5325842 261.69345,56.9749324 272.935771,59.2974254 C281.869402,61.1424962 285.307971,63.2824269 285.74587,67.2699379 C285.994933,69.5365957 285.756535,70.3389914 284.260905,72.2681286 C279.543145,78.3541645 271.354193,78.5480192 263.681559,72.7549613 C261.881031,71.3960958 259.710987,70.2837835 258.858402,70.2837835 C257.229144,70.2837835 254.562229,72.3264732 254.562229,73.5742957 C254.562229,73.9770619 256.217837,75.8911424 258.241078,77.8284354 C263.175905,82.5537237 266.810212,83.7331637 275.178589,83.3234965 C283.638562,82.9100652 288.789829,80.1176782 291.527635,74.4626398 C293.48124,70.426822 293.363923,63.7215801 291.290493,60.9109997 C287.735234,56.0922345 284.237692,54.254692 276.356147,53.0645869 C269.274488,51.9955625 267.924406,51.4911637 265.612578,49.0500993 C264.216698,47.5764267 263.801385,46.543162 263.801385,44.5456423 C263.801385,39.6948816 267.872962,36.408761 273.88497,36.4075063 C277.82982,36.4062516 280.299743,37.5323658 283.841827,40.9477229 L286.458553,43.4709717 L288.70388,42.0832476 C291.259125,40.5041782 291.461762,39.5154562 289.730244,37.0838022 C285.913376,31.7236238 277.058165,29.1175633 268.420022,30.813322 M512.601744,31.0347807 C506.915337,32.3321647 504.346918,33.7349455 500.488017,37.6521919 C489.58447,48.7207344 489.775188,66.0170966 500.918387,76.6358208 C502.95543,78.5768779 505.777303,80.753823 507.189494,81.4746616 C512.99259,84.4351815 522.548564,84.4640401 530.268249,81.5449261 C535.137831,79.7029921 539.688085,75.1935162 542.556383,69.3672081 C544.515634,65.3865981 544.7258,64.4135601 544.93032,58.3883783 C545.116646,52.8951992 544.928438,51.106591 543.818007,47.8154515 C541.23265,40.1559925 535.990415,34.3202739 529.395589,31.7606382 C525.600678,30.2875929 517.426155,29.9343883 512.601744,31.0347807 M342.751091,32.3729432 C341.31506,33.8096015 341.29122,65.9493415 342.72286,70.7693615 C343.889125,74.6979005 346.852782,78.7079965 350.466385,81.2469293 C353.091267,83.0913727 353.365424,83.1434437 360.170416,83.1114483 C368.130381,83.0738066 371.232685,82.028622 375.035752,78.1051019 C377.34758,75.7198727 378.735931,75.3290263 378.860149,77.0279218 C379.254132,82.4295061 379.602317,83.0229903 382.072868,82.4947517 C383.194591,82.2550995 384.40979,81.8203379 384.77366,81.5292421 C385.218459,81.1729006 385.415451,73.198506 385.374673,57.1989005 C385.309427,31.4431932 385.301899,31.387358 381.937358,31.387358 C378.357005,31.387358 378.152485,32.2794663 378.152485,47.8813245 C378.152485,63.9524492 377.643067,66.4669149 373.375125,71.4531857 C369.948476,75.4563808 366.850564,76.8259114 361.167294,76.8503785 C356.910017,76.8691993 356.174749,76.6878918 354.103201,75.1094497 C352.832166,74.1408033 351.16903,72.1646139 350.407413,70.7179178 C349.094345,68.2229003 349.010906,67.1770884 348.780037,50.3248983 L348.537248,32.5617791 L346.992684,31.9745685 C344.824522,31.1502152 343.885988,31.2386732 342.751091,32.3729432 M470.728487,32.1370552 C470.584821,32.5875009 470.343287,43.3216596 470.190838,55.9906019 C469.887822,81.2180706 469.932992,81.5762942 473.427397,81.5762942 C477.44063,81.5762942 477.309511,82.4840866 477.127576,55.8544644 L476.961953,31.7010388 L473.975711,31.5096935 C471.933021,31.3785749 470.906658,31.5768212 470.728487,32.1370552 M419.974298,37.8993724 C414.242094,40.3222433 410.237644,44.2997165 408.212521,49.5808473 C406.409483,54.2829233 406.721909,61.7234331 408.905128,66.0948894 C410.737651,69.764328 414.868828,73.6891029 418.82058,75.5153528 C423.263555,77.5687076 431.241714,77.3748529 435.673397,75.1056856 C439.445723,73.1740389 442.825948,69.9004655 445.186083,65.8922516 C446.652227,63.402253 446.848591,62.4022385 446.848591,57.4228686 C446.848591,50.6762209 445.558735,47.4741667 440.92316,42.7156282 C436.870403,38.5543381 433.566716,36.9884432 428.102396,36.6377481 C424.350146,36.3974685 423.05088,36.5988516 419.974298,37.8993724 M512.242893,38.1578455 C506.636789,40.1685397 502.327441,44.8869271 500.205704,51.3368327 C499.351237,53.9347376 499.210081,55.6480624 499.561403,59.178854 C500.585885,69.4920531 507.424755,76.1075822 517.976351,76.9921622 C525.800807,77.6477552 532.464015,73.8641368 536.585154,66.4242543 C538.279031,63.365866 538.4434,62.5415128 538.442774,57.1091878 C538.442145,50.0482318 537.123431,46.4722701 532.944574,42.2030737 C528.187291,37.3441573 519.33459,35.6138938 512.242893,38.1578455 M370.112693,97.5033724 L384.31184,97.5052192 C389.913889,97.5064351 395.604276,97.5082387 401.364868,97.5106541 L550.990634,97.5740176 L551.139946,248.787009 L551.289258,400 L400.573137,399.762857 C308.178442,399.617937 249.617992,399.299237 249.24032,398.939131 C248.93385,398.647767 248.728626,321.349362 248.711455,239.240689 L248.711401,217.250519 C248.719717,176.938296 248.774899,137.012998 248.887115,105.930475 C248.915346,98.18695 248.953616,97.9680007 250.327538,97.7114098 C250.933343,97.5983718 292.41743,97.5185405 349.693971,97.5052601 L363.180555,97.503392 L370.112693,97.5033724 Z M436.701582,256.940465 L432.389372,256.940867 C425.873284,256.946951 421.328573,256.979202 420.028878,257.03807 L414.539463,257.286505 L414.539664,323.542632 L414.539777,324.267588 L414.540737,327.811877 C414.557098,371.862117 414.73542,384.013444 415.323665,384.380576 C415.87835,384.727507 420.692898,385.020232 425.46116,385.133578 L426.27732,385.151229 C427.227102,385.169716 428.16519,385.180742 429.057135,385.183306 L429.809555,385.183407 C432.151347,385.177018 434.08067,385.106173 434.908643,384.950847 L437.110683,384.537416 L437.438166,331.579933 L463.787357,331.266252 C473.024052,331.156291 481.305299,331.089146 486.186463,331.078298 L486.679182,331.077377 L488.203988,331.077366 L488.580107,331.078293 C489.909038,331.082462 490.682071,331.095099 490.765792,331.11694 C491.418876,331.287582 492.516131,333.326508 508.259773,363.628705 C513.474404,373.66461 518.198437,382.557463 518.758671,383.390599 L519.77688,384.905677 L532.21558,384.728134 C539.056332,384.630266 544.773479,384.430765 544.920282,384.284589 C545.380765,383.823478 543.585256,380.094441 539.932129,373.926848 C537.991072,370.648883 534.773334,365.143784 532.782715,361.693294 C532.658301,361.477639 532.532846,361.260574 532.406778,361.042824 L532.027166,360.388241 C530.251065,357.33068 528.438941,354.280624 527.767586,353.223911 C527.000322,352.01624 525.535433,349.475425 524.512206,347.577656 C523.760294,346.182238 522.084435,343.161431 520.329356,340.031606 L519.907048,339.279131 C519.836555,339.153629 519.766042,339.028146 519.695565,338.90278 L519.27356,338.15276 C518.993083,337.654715 518.714904,337.161644 518.442481,336.679756 C516.126889,332.583711 514.316323,329.156434 514.417956,329.063585 C514.520216,328.970735 515.948718,328.441869 517.593033,327.888536 C533.711838,322.466249 542.674327,308.997421 541.536293,291.905579 C540.431509,275.304333 532.713705,265.0087 517.740463,260.161704 C509.345737,257.443973 507.388995,257.327284 465.660659,257.053127 L464.337953,257.044597 C454.653567,256.983262 445.329927,256.94867 437.727483,256.941301 L436.701582,256.940465 Z M270.677191,255.385878 C267.030497,255.391812 264.032484,255.504816 263.785074,255.751978 C263.515832,256.02122 263.371103,285.364316 263.359485,315.480186 L263.359623,323.691502 C263.371383,351.591183 263.498771,377.936366 263.748687,380.014766 L264.140788,383.279556 L270.800859,383.04555 C271.716651,383.013241 272.701099,382.98101 273.69633,382.950407 L274.977298,382.912078 C277.532895,382.837701 279.995786,382.778473 281.381942,382.760728 L285.302953,382.709911 L285.303414,353.197216 C285.313444,333.077672 285.489568,327.50833 286.087155,327.527803 L286.105718,327.52817 L286.44853,327.528416 C289.225186,327.521177 307.328267,327.383962 328.747751,327.206594 C344.409735,327.076906 358.156532,326.997404 365.368645,326.988208 L366.284637,326.987403 L366.851726,326.987328 L367.878159,326.988298 C369.705111,326.991602 370.714528,327.003254 370.727659,327.024032 C370.784121,327.114372 370.99617,339.751319 371.19818,355.105997 L371.565187,383.023592 L382.38153,383.195489 L393.197246,383.366759 L393.36036,319.928571 C393.379958,312.252475 393.390934,304.870729 393.394027,298.021931 L393.394676,296.167469 L393.394777,295.708109 L393.394814,292.54213 L393.394724,292.097126 L393.393917,289.900496 L393.393593,289.307246 L393.392814,288.131914 C393.379959,270.809554 393.309475,258.497247 393.197125,256.267484 L393.18593,256.08072 C393.178377,255.978166 393.170645,255.91976 393.162741,255.906937 C393.001747,255.647096 390.104059,255.483059 385.957361,255.4702 L384.978936,255.469942 C384.090721,255.472142 383.154766,255.480883 382.183911,255.496642 L371.565187,255.669167 L371.237077,306.171784 L286.601591,306.171784 L285.853149,304.773395 C285.510345,304.132218 285.34386,301.580065 285.333563,295.689542 L285.333655,294.42271 C285.339999,290.805354 285.396456,286.075427 285.499317,279.970022 L285.8933,256.565039 L284.45476,256.01798 C283.651136,255.712684 279.264828,255.498328 274.736832,255.419258 L273.500997,255.401081 C272.815342,255.392883 272.133616,255.387883 271.467788,255.386236 L270.677191,255.385878 Z M453.98485,277.373774 C458.570217,277.374901 464.393232,277.399251 471.778063,277.439872 C504.885195,277.621807 505.899011,277.663213 508.681988,278.950559 C512.714669,280.816333 516.517735,284.638221 517.354009,287.664614 C518.116253,290.423123 518.27623,296.748811 517.662043,299.821001 C517.122512,302.516147 513.01392,307.003665 509.626795,308.595909 C505.469896,310.549514 494.322933,311.187541 464.294893,311.189424 L463.112492,311.189247 C462.918205,311.189181 462.725304,311.189097 462.533778,311.188994 L461.401073,311.188155 C443.725915,311.171284 438.318793,310.982801 437.945701,310.406475 C437.881222,310.306864 437.817425,309.848882 437.755695,309.111467 L437.722237,308.682003 C437.522821,305.944636 437.348244,300.368054 437.247072,294.719278 L437.230898,293.777622 C437.107078,286.246612 437.118553,278.860543 437.380448,278.178277 C437.605313,277.59207 440.090858,277.381641 452.907959,277.373953 Z M387.002608,110.854331 L385.79104,110.854346 L385.15083,110.855292 C382.546376,110.860326 379.427709,110.88042 376.124224,110.916119 L360.60706,111.084252 L359.652843,112.92995 L359.572276,113.091874 C359.00619,114.264009 357.396792,118.1791 355.743069,122.400302 L355.481732,123.068997 C355.394594,123.292506 355.307479,123.516508 355.220532,123.740647 C354.299542,126.114862 353.07575,129.262952 351.828559,132.467014 L351.252289,133.947172 C350.100494,136.90498 348.965388,139.816372 348.066727,142.116698 C346.045367,147.292433 343.683351,153.503313 342.818219,155.918656 C342.149708,157.785057 340.442799,162.254944 338.632177,166.896808 L338.311769,167.717251 C338.258252,167.854124 338.204692,167.991022 338.151114,168.127883 L337.829617,168.948114 C337.561835,169.630446 337.294784,170.308765 337.031434,170.975337 C334.713333,176.841169 331.412156,185.310552 329.694439,189.796188 C327.976723,194.281824 326.472937,198.057287 326.353111,198.186523 C325.757745,198.827687 319.87121,181.260305 305.043516,134.588358 L304.904954,134.152177 L304.34961,132.40449 L304.077482,131.548372 C301.767509,124.281941 299.556083,117.344825 298.898508,115.303259 L297.536506,111.074214 L280.731995,111.068568 L263.927485,111.062294 L264.10691,174.373755 C264.205406,209.194839 264.436902,237.835783 264.620719,238.0196 C264.805164,238.203417 269.392432,238.551603 274.815347,238.793764 C284.213225,239.212842 284.681865,239.17771 284.806709,238.04093 C284.878856,237.385337 284.949121,225.414649 284.96355,211.440167 C285.033814,142.083448 285.346241,129.816645 286.838734,137.770964 C287.227014,139.841614 290.413237,150.439182 294.068463,161.912073 L294.365814,162.844074 L294.440441,163.077568 L294.96558,164.715961 L295.267443,165.654033 C295.368238,165.966809 295.469192,166.279621 295.570258,166.592316 L295.873749,167.529904 C295.974995,167.842217 296.076307,168.154262 296.17764,168.46589 C296.869118,170.591391 297.730394,173.284705 298.599326,176.031461 L299.073073,177.531899 C300.018189,180.531009 300.937333,183.48242 301.620003,185.718337 C303.629188,192.298988 306.321361,200.945128 309.116316,209.799776 L309.716597,211.699716 C310.418267,213.918456 311.12377,216.141937 311.824041,218.341145 C312.977132,221.964159 314.886194,227.971775 316.065634,231.690775 L318.210583,238.453107 L333.288595,238.103039 L334.432275,235.670758 C335.007584,234.447868 336.509548,230.567202 337.904904,226.713807 L338.165032,225.99227 L338.293686,225.63297 C341.443162,216.816786 346.69904,202.404361 352.157871,187.599588 L352.776617,185.92218 C353.29279,184.523409 353.810131,183.122893 354.32704,181.725003 L354.947022,180.049075 C355.566592,178.374966 356.184621,176.707153 356.798347,175.053188 C357.740784,172.513244 358.747264,169.796613 359.747407,167.093899 L360.14696,166.014008 L360.544836,164.938312 C362.858943,158.680925 365.036373,152.776039 366.183051,149.645039 C367.951583,144.814354 369.674319,140.213283 370.011212,139.420925 C370.348732,138.628567 370.624144,137.428424 370.624144,136.754638 C370.624144,136.080852 370.906457,135.529401 371.251506,135.529401 C371.647798,135.529401 371.861386,151.028001 371.877839,180.915103 L371.87861,182.801772 C371.878696,183.119336 371.87876,183.438459 371.878803,183.759139 L371.879681,187.950229 C371.89263,213.5555 372.058519,234.390814 372.259676,234.914787 C372.881392,236.535262 374.535117,236.064113 377.850096,233.321915 C379.569067,231.900314 382.24602,229.867035 383.79874,228.803656 L384.02097,228.650739 L384.465441,228.340718 C385.793929,227.405997 387.048474,226.451588 387.428655,226.078397 C387.872827,225.642381 389.07297,224.791678 390.096197,224.187529 C391.118796,223.582752 392.103127,222.624771 392.28318,222.058263 C392.462605,221.491756 392.709786,196.302556 392.831494,166.082543 C392.870246,156.494418 392.892532,148.357949 392.897032,141.522637 L392.897724,140.077788 C392.897933,139.365267 392.897937,138.667559 392.897734,137.984479 L392.896872,136.401364 C392.882323,118.245674 392.71035,111.042595 392.34717,110.942468 C392.159266,110.890863 390.352983,110.861437 387.571678,110.855256 L387.002608,110.854331 Z M451.270251,110.804603 L446.842511,110.804255 C440.115342,110.810212 433.523943,110.846231 427.8709,110.918001 L414.539463,111.087389 L414.546364,172.399448 C414.54644,173.073874 414.546586,173.74628 414.546802,174.416487 L414.547659,176.420332 C414.564691,208.370588 414.740144,234.843293 414.949131,236.108656 L415.345623,238.505805 L451.486049,238.24796 C491.79843,237.959373 490.864915,238.047831 502.776632,233.390925 C510.304345,230.447344 514.349573,228.183823 519.622549,223.964816 C530.642157,215.147874 537.123431,204.965167 540.773421,190.73723 C543.229542,181.159927 542.565166,162.973338 539.380678,152.634417 C536.28653,142.585965 529.975271,132.248926 523.204157,126.137796 C514.670783,118.435676 501.832453,112.874115 489.077562,111.352763 C486.453974,111.039921 468.999731,110.822806 451.270251,110.804603 Z M458.626216,131.765426 C486.242031,131.778449 490.685258,132.456734 500.351252,137.875106 C509.309977,142.897136 515.411069,151.098009 517.741718,161.25123 C519.328943,168.162247 519.656426,179.308582 518.443109,185.090975 C517.102437,191.480027 512.654442,200.268109 508.720884,204.299536 C503.401484,209.751936 495.625963,213.635933 485.539869,215.879378 C484.975244,216.004984 484.432778,216.119613 483.892402,216.224524 L483.568266,216.286314 C483.190027,216.357066 482.810844,216.423179 482.423836,216.485085 L482.090037,216.537127 C478.001593,217.158014 472.848115,217.334777 458.822417,217.556943 C440.701155,217.843999 438.384896,217.82394 437.51359,216.95026 L437.459238,216.892704 C437.450466,216.882912 437.441826,216.87302 437.433298,216.863027 L437.383355,216.801857 C437.367066,216.78106 437.351088,216.759855 437.335278,216.738236 C436.676228,215.836987 436.507115,208.13743 436.497561,176.667265 L436.497123,131.76523 Z" id="Combined-Shape"></path>
        </g>
    </g>
</svg>