<?xml version="1.0" encoding="UTF-8"?>
<svg width="800px" height="400px" viewBox="0 0 800 400" version="1.1" xmlns="http://www.w3.org/2000/svg" xmlns:xlink="http://www.w3.org/1999/xlink">
    <title>teamcherry</title>
    <g id="Page-1" stroke="none" stroke-width="1" fill="none" fill-rule="evenodd">
        <g id="teamcherry" fill="#000000">
            <line x1="0" y1="0" x2="800" y2="400" id="Path" fill-rule="nonzero"></line>
            <path d="M217.439023,2.50007282 C202.493593,4.662407 188.613096,12.3081739 176.474154,25.0649715 C165.282289,36.8263162 158.013145,48.6762971 153.297568,62.8477028 C151.577441,68.0174997 150.27517,73.4619714 148.714459,82.0090356 C148.006343,85.8869514 147.373876,89.1132449 147.308617,89.1781798 C147.243357,89.2434395 145.081023,89.1385695 142.50343,88.9450633 C136.099869,88.4642199 117.674574,88.7616221 112.005102,89.4372703 C94.8587013,91.4807735 81.3116452,95.3784945 67.8493292,102.141795 C27.500693,122.412542 3.66728986,165.139421 0.326061479,223.191925 C-1.4612733,254.244472 4.08352295,281.958389 17.3539561,308.301853 C29.8454944,333.09889 47.6993617,353.560546 70.6090651,369.335196 C82.8496297,377.763754 98.571033,385.500429 112.492114,389.946526 C166.565079,407.216303 225.415309,395.300738 268.219785,358.415733 C284.62398,344.280041 297.49344,327.779094 307.305437,308.301853 C319.555742,283.983385 325.217421,258.56492 324.552812,230.866912 C324.325539,221.403941 324.014176,217.305246 322.863204,208.638052 C318.564509,176.260832 306.638879,148.048215 288.278844,126.821301 C284.605149,122.573905 277.275615,115.451514 273.323349,112.288208 C256.162013,98.5541387 235.899708,90.290191 212.978965,87.6775329 C203.763071,86.6268852 190.315041,86.7035085 180.384537,87.8629222 C178.082593,88.131753 176.139739,88.2918176 176.067012,88.2190905 C175.856947,88.0090259 178.820254,80.0067661 180.225447,76.9892384 C184.972517,66.7967224 193.987762,58.2006324 206.647807,51.7951232 C215.066949,47.5353898 222.521158,45.5480554 231.195819,45.2506533 C236.943537,45.0535756 241.149699,45.5149385 245.255537,46.7928586 C246.83443,47.2844162 247.247417,47.3159097 247.532806,46.9672089 C253.305848,39.9136489 256.308441,31.9425578 256.720453,22.5779625 C256.937011,17.6562172 256.256818,14.6656376 253.806172,9.76499618 C252.132798,6.418573 252.073058,6.34681987 250.478905,5.76208055 C247.501962,4.67052387 241.638659,3.29844816 237.10555,2.63286482 C231.744844,1.8458531 222.397132,1.78286619 217.439023,2.50007282 M74.1804879,186.088738 C69.1100415,186.701075 65.1532297,188.07315 63.7918683,189.691329 C61.7834299,192.078014 60.1795364,201.682869 59.2376548,216.960766 L59.0243435,220.424397 L57.5113589,220.609137 C45.2451449,222.106537 41.7195012,222.586731 38.1415849,223.248418 C33.2078267,224.160754 30.7256878,224.855234 30.0753642,225.505557 C28.8867297,226.694192 28.2633541,236.656514 28.8529635,245.035721 C29.389651,252.657462 30.2620522,256.835377 31.4500373,257.47109 C32.9854244,258.292842 41.257489,259.321412 53.882144,260.260372 C57.7181767,260.545436 60.8990158,260.82141 60.9509637,260.873033 C61.002587,260.924981 61.5629757,264.312313 62.1957669,268.400943 C63.5895959,277.403201 65.0873207,284.77267 65.8960856,286.607407 C67.0369929,289.196364 70.4119875,290.835647 76.2009392,291.612269 C79.7967126,292.094736 89.6531902,291.806749 93.609028,291.103504 C97.0048017,290.500258 98.1833713,289.953506 99.0067465,288.599612 C100.077849,286.838251 101.109016,279.738587 102.110638,267.23049 C102.403819,263.569782 102.678494,260.539917 102.721026,260.497059 C102.763883,260.454527 105.564204,260.125307 108.944068,259.765567 C123.083656,258.261024 130.251826,257.100636 131.187214,256.165248 C132.323576,255.028886 132.623251,252.244151 132.598251,243.042217 C132.567731,231.705547 131.636239,224.024716 130.075203,222.239004 C128.833322,220.818877 123.546967,220.107839 109.574262,219.481866 C105.290827,219.289983 101.760314,219.106866 101.728495,219.074724 C101.696677,219.042581 101.429145,216.386416 101.134016,213.172136 C100.068433,201.573129 98.2450595,189.849446 97.334996,188.746526 C96.6642179,187.933865 94.2846762,187.007892 91.5876027,186.509841 C88.4765687,185.935491 77.6223654,185.672829 74.1804879,186.088738 M265.684725,201.802349 C262.387977,202.4004 259.37402,203.445528 255.998377,205.16111 C253.608121,206.376043 252.511694,207.210782 249.975659,209.746817 C247.433131,212.289345 246.630535,213.344213 245.518199,215.607197 C243.27015,220.179592 242.744502,222.681536 242.721775,228.918864 C242.698398,235.309438 243.32502,238.391251 245.594497,243.042217 C251.514618,255.175964 266.176607,260.739267 280.095416,256.132781 C287.269105,253.758759 292.833382,248.985714 296.112598,242.392868 C298.939866,236.708786 299.826877,231.321782 298.883048,225.56822 C297.309024,215.974079 292.541175,209.128636 284.555473,204.997149 C278.464899,201.84618 271.728546,200.705597 265.684725,201.802349 M199.451065,235.568528 C196.154317,236.166579 193.140361,237.211707 189.764717,238.927289 C187.374461,240.142222 186.278034,240.976961 183.742,243.512996 C181.199471,246.055524 180.396875,247.110393 179.284539,249.373376 C177.036491,253.945771 176.510842,256.447715 176.488115,262.685043 C176.464739,269.075617 177.091361,272.15743 179.360838,276.808397 C185.280958,288.942143 199.942947,294.505446 213.861756,289.89896 C221.035446,287.524938 226.599723,282.751894 229.878938,276.159047 C232.706206,270.474965 233.593218,265.087961 232.649388,259.334399 C231.075365,249.740259 226.307515,242.894815 218.321814,238.763328 C212.231239,235.612359 205.494887,234.471777 199.451065,235.568528 M364.172338,92.6999861 C360.570794,93.0525505 358.926718,93.728299 358.206491,95.1520227 C357.83434,95.8881642 357.688662,98.8714959 357.684581,105.863616 L357.67846,115.555057 L353.019224,115.555057 C350.456602,115.555057 348.06251,115.669314 347.699336,115.808462 C346.220524,116.376075 345.687189,118.41597 345.514171,124.171666 C345.328912,130.330118 345.994051,133.940231 347.458581,134.724115 C347.888269,134.953854 350.363157,135.141969 352.958831,135.141969 L357.67846,135.141969 L357.678868,157.891352 C357.678868,170.403309 357.864128,182.591266 358.090194,184.975156 C359.701625,201.968843 367.162607,209.424928 382.533436,209.402129 C390.177637,209.390651 396.502986,207.56866 397.833672,204.995429 C398.849743,203.030617 399.426741,198.152252 399.150075,193.86843 C398.875859,189.627456 398.346604,187.564709 397.443158,187.217858 C397.126094,187.096255 395.624023,187.479424 394.105221,188.069072 C392.027376,188.875808 390.58529,189.145944 388.283011,189.158186 C383.848208,189.18267 381.991124,187.996437 380.431924,184.143936 C379.517052,181.882872 379.508891,181.679658 379.388921,158.511605 L379.268543,135.157884 L388.118563,135.048116 L396.968991,134.937939 L397.790417,133.8374 C399.701365,131.276411 399.694428,119.41123 397.780216,116.846569 L396.968991,115.759087 L388.137334,115.648911 L379.305676,115.539142 L379.305676,105.604497 C379.305676,94.2677552 379.239979,94.024143 375.954682,93.190475 C373.525089,92.5743034 367.866103,92.3384443 364.172338,92.6999861 M438.882536,114.104809 C425.359405,116.953481 415.899334,126.102201 411.222551,140.854819 C409.329965,146.825563 408.626061,151.648024 408.389385,160.269938 C407.551229,190.797774 418.44196,206.678679 442.130699,209.472671 C452.473405,210.692364 467.405161,208.437013 475.29175,204.463726 C478.833717,202.679277 479.076513,202.009241 479.076513,194.016148 C479.076513,187.734054 479.030402,187.350477 478.176331,186.495998 C477.359802,185.679877 477.112517,185.637438 475.523937,186.043051 C474.560097,186.289111 471.824051,187.230915 469.443833,188.136402 C463.272731,190.483975 458.069957,191.454343 451.656059,191.454343 C443.769063,191.454343 440.239746,190.313406 436.144449,186.440502 C432.608195,183.096037 430.833131,178.487807 430.102702,170.754649 L429.824405,167.805595 L454.318655,167.694194 C478.334659,167.584834 478.835757,167.566471 479.964861,166.740148 C480.598579,166.276999 481.484071,165.175236 481.932938,164.291784 C482.667447,162.846841 482.746611,161.909526 482.722943,154.932913 C482.687442,144.3874 481.213527,137.167583 477.734401,130.501911 C473.577487,122.536567 466.3997,116.826166 457.653327,114.524704 C454.060353,113.579635 442.593848,113.322965 438.882536,114.104809 M522.943036,114.144799 C512.979011,115.957405 503.664617,120.223271 501.461498,123.983142 C499.346927,127.591215 499.774983,136.928459 502.164994,139.318063 C502.785655,139.938723 503.564234,140.446758 503.895172,140.446758 C504.225701,140.446758 506.958075,139.169936 509.966707,137.609512 C512.975338,136.049088 517.171834,134.180579 519.292117,133.457087 C522.665555,132.305948 523.815062,132.119464 528.496742,131.963993 C532.602241,131.827701 534.365879,131.937469 536.081366,132.436119 C538.959418,133.272644 541.725661,135.678569 542.871088,138.341573 C543.782695,140.46104 544.561275,145.876006 544.566988,150.1382 L544.570252,152.688579 L542.019873,152.698372 C536.32049,152.719999 524.97273,153.514902 521.718854,154.120056 C508.511154,156.577397 500.759225,162.292695 497.370689,172.071461 C496.320341,175.102128 496.238321,175.803992 496.227003,181.864917 C496.213837,189.143904 496.646382,191.4319 498.945396,196.230694 C500.833492,200.17256 505.397651,204.703258 509.477034,206.685616 C513.59151,208.684706 516.605038,209.424928 521.737625,209.696696 C530.995298,210.187185 538.588899,207.19406 545.318228,200.402298 L547.834738,197.86212 L547.834738,201.974148 C547.834738,205.138658 547.980007,206.231445 548.465192,206.716629 C549.615923,207.86736 552.344624,208.278685 557.720008,208.112197 C562.182151,207.973864 563.071724,207.832675 564.044948,207.105919 L565.177317,206.260417 L565.293614,174.271724 C565.368289,153.731174 565.257705,141.11965 564.984304,139.031604 C563.670757,128.995351 560.318946,122.721827 554.045829,118.557567 C551.182468,116.656821 545.046459,114.526744 540.766311,113.94689 C536.415976,113.358058 526.673935,113.466194 522.943036,114.144799 M625.002685,114.159897 C619.621997,115.607289 614.897878,118.657134 609.35315,124.264296 L605.371294,128.291039 L605.371294,123.202114 C605.371294,118.693452 605.276216,117.992403 604.53681,117.052231 C603.389751,115.594639 601.444526,115.151485 596.189929,115.151485 C591.270757,115.151485 589.00602,115.597903 587.798161,116.805763 C587.027334,117.576589 587.008563,118.632242 587.008563,161.636125 L587.008563,205.677299 L588.053607,206.499133 C589.732368,207.820025 593.151101,208.303985 599.245895,208.084448 C604.834286,207.883275 606.335541,207.570292 607.552378,206.353455 C608.168142,205.737692 608.227719,203.126511 608.227719,176.77028 L608.227719,147.862445 L610.606304,144.664882 C613.526795,140.738522 617.993835,136.513053 620.303458,135.491269 C625.904907,133.013525 631.367208,134.975481 634.148957,140.465529 C636.595689,145.294111 636.543049,144.548992 636.693624,176.444239 L636.831956,205.708719 L637.857005,206.515047 C639.504346,207.811048 642.96062,208.301537 649.029298,208.101179 C654.495271,207.920408 656.78898,207.360549 657.698955,205.985384 C657.863812,205.736467 658.001328,192.521422 658.005001,176.618889 L658.011122,147.704934 L660.619446,144.364549 C663.815377,140.272108 667.550356,136.759522 669.933023,135.606343 C675.471222,132.924976 681.413402,135.045667 684.139247,140.67568 C686.356241,145.255753 686.308906,144.553889 686.552518,176.290401 L686.7794,205.809102 L687.710186,206.56279 C689.250615,207.809416 692.807272,208.300313 698.812701,208.093834 C705.112342,207.877562 707.127346,207.286282 707.825945,205.450009 C708.460072,203.783897 708.090369,143.734503 707.421557,139.693886 C705.185793,126.191975 699.779805,118.332318 690.320958,114.832381 C686.594956,113.453544 679.053587,113.098532 675.14967,114.118275 C669.398055,115.621163 664.233639,118.986439 658.323288,125.08409 C656.362557,127.106439 654.709911,128.681961 654.650742,128.58525 C654.591165,128.488132 653.991724,127.313325 653.318424,125.974478 C652.587179,124.520558 650.861491,122.283977 649.033787,120.422813 C645.656677,116.982861 642.557864,115.222487 637.980239,114.143575 C634.69331,113.368668 627.912974,113.377645 625.002685,114.159897 M442.147021,131.012803 C438.253714,132.285137 434.676246,135.61532 432.726532,139.782028 C431.543973,142.308739 430.653176,145.871517 430.136571,150.1382 L429.877045,152.280518 L446.070117,152.280518 L462.262781,152.280518 L462.029778,148.686728 C461.606211,142.145923 459.859711,137.348354 456.782118,134.27076 C454.220721,131.709363 452.054327,130.918541 447.24778,130.789186 C445.003446,130.728793 442.708105,130.829584 442.147021,131.012803 M528.036042,168.794734 C522.883867,169.916493 519.908289,171.911093 518.211165,175.380017 C517.225698,177.393797 517.061658,178.224608 517.057135,181.224262 C517.051048,185.20367 517.861457,187.534105 519.991941,189.664589 C522.21628,191.888928 523.923198,192.46919 528.247825,192.472067 C531.585353,192.474087 532.436568,192.326369 534.368735,191.408641 C537.164359,190.080811 540.401504,187.44678 542.762544,184.578929 L544.570252,182.383155 L544.570252,175.28902 L544.570252,168.194885 L537.531206,168.227121 C533.375108,168.2463 529.486289,168.478895 528.036042,168.794734 M427.236568,230.103811 C425.450078,230.534723 423.857825,231.53488 423.416712,232.503208 C422.804621,233.846135 422.747084,359.391309 423.357543,360.996619 C424.023906,362.74924 426.131131,363.351538 432.341815,363.564953 C438.434161,363.774289 441.861871,363.28584 443.534103,361.970252 L444.579147,361.148418 L444.579147,332.028392 L444.579147,302.908365 L446.957324,299.923402 C453.523429,291.680168 459.224445,288.658478 465.027067,290.345401 C469.062788,291.518576 471.695187,294.68023 473.448216,300.460001 C474.025214,302.363604 474.142735,306.495627 474.341869,331.96555 L474.571607,361.280222 L475.502393,362.03391 C477.04323,363.280535 480.599887,363.771432 486.604908,363.564953 C492.815592,363.351538 494.922817,362.74924 495.58918,360.996619 C496.12374,359.591259 496.122516,308.604484 495.587956,301.192062 C494.878339,291.351271 493.230181,285.245867 489.886124,280.071657 C486.839543,275.358149 482.235802,271.746403 477.253382,270.16068 C473.437198,268.945883 465.725259,268.642286 462.125756,269.564911 C456.832393,270.921713 452.362088,273.542278 447.538403,278.117047 L444.579147,280.92328 L444.579147,256.886874 C444.579147,229.687997 444.808885,231.499787 441.225296,230.435564 C439.202947,229.834899 429.321758,229.600672 427.236568,230.103811 M377.861225,269.278452 C369.985246,270.374095 362.619751,274.09112 357.616927,279.49466 C348.886877,288.924126 344.964597,302.593343 345.538739,321.586527 C345.878653,332.83472 347.246065,339.232295 350.91045,346.721433 C354.505872,354.068973 359.017391,358.715152 365.619405,361.869869 C375.918856,366.791489 389.986748,366.182255 400.437591,360.362085 C404.586344,358.051646 406.428329,356.117438 406.994718,353.477285 C407.570491,350.792246 407.579877,341.063263 407.009408,338.403116 C406.184309,334.556328 405.121311,334.617945 399.888749,338.816889 C393.558504,343.896021 388.690748,345.551523 382.271137,344.80722 C372.531137,343.678116 367.460575,334.135209 367.460575,316.933003 C367.460575,302.258325 371.096395,293.222229 378.385175,289.781461 C381.082456,288.508312 386.431724,288.218589 389.699882,289.168962 C393.073728,290.149532 395.310308,291.363105 399.080381,294.259519 C403.616791,297.743949 404.732837,297.930025 406.098208,295.428613 C406.729886,294.271353 406.833534,293.041458 406.833534,286.701011 L406.833534,279.320826 L405.670561,277.643288 C403.436837,274.420425 396.820541,270.989859 390.222199,269.632649 C387.320888,269.036064 380.922089,268.852437 377.861225,269.278452 M542.51371,269.778735 C527.571344,272.947326 517.237615,284.967978 513.780933,303.202169 C512.222142,311.424592 512.124615,324.507017 513.562621,332.439309 C516.199509,346.980959 521.985401,355.866889 532.108979,360.922352 C542.036279,365.879882 556.414297,366.667031 570.765791,363.039371 C578.678904,361.039058 582.38736,358.934689 583.217763,355.973393 C583.386292,355.373543 583.522584,352.311864 583.520952,349.169797 C583.516055,340.545842 583.005164,340.121051 575.921638,342.846897 C568.378228,345.750248 564.748529,346.542702 557.815986,346.79978 C550.882627,347.057267 548.473436,346.707151 544.61155,344.880671 C538.579189,342.027919 535.211872,336.004535 534.504295,326.800726 L534.232119,323.257944 L558.179976,323.257944 C581.567566,323.257944 582.166599,323.238357 583.778439,322.416114 C584.994459,321.795454 585.66123,321.070738 586.312495,319.661705 C587.117599,317.919286 587.191458,317.131729 587.142083,310.812093 C587.023745,295.748941 583.680912,285.669434 576.382747,278.371269 C574.475063,276.463585 571.860618,274.284949 570.572371,273.529629 C567.706152,271.848827 562.397691,269.988886 558.836137,269.417601 C554.69473,268.753278 546.494342,268.934865 542.51371,269.778735 M637.889733,269.97338 C633.72425,271.686419 629.817885,275.314894 625.834396,281.170565 L623.513755,284.581952 L623.309725,278.586317 C623.12773,273.243578 623.018778,272.527024 622.308344,272.008378 C620.914001,270.991083 618.739853,270.622604 614.12836,270.622604 C609.209188,270.622604 606.944451,271.069023 605.736592,272.276882 C604.965765,273.047709 604.946994,274.103362 604.946994,317.107245 L604.946994,361.148418 L605.992038,361.970252 C607.66427,363.28584 611.09198,363.774289 617.184326,363.564953 C623.39501,363.351538 625.502235,362.74924 626.168598,360.996619 C626.422412,360.329848 626.574211,349.921445 626.574211,333.208503 C626.574211,303.161771 626.236744,306.374841 629.977437,300.814606 C632.49966,297.065753 635.650296,293.852275 637.956655,292.675428 C640.720042,291.265578 643.010895,291.1958 646.773214,292.40774 C650.666929,293.66171 651.530386,293.709453 652.425671,292.720314 C653.286271,291.769533 653.887752,287.226185 653.893517,281.635754 C653.899586,275.831907 653.36421,272.381754 652.277953,271.225718 C650.129105,268.938538 642.105,268.239938 637.889733,269.97338 M700.555612,269.745682 C699.388558,270.148846 697.675112,271.004549 696.748406,271.646837 C694.389407,273.281528 689.981128,278.100316 687.571529,281.678192 L685.538979,284.696209 L685.334949,278.738115 C685.199064,274.764828 684.956676,272.571094 684.608601,272.152424 C683.780645,271.15798 680.826694,270.6173 676.278858,270.627909 C671.093223,270.639743 669.078219,271.078816 667.890354,272.455613 L666.972218,273.520243 L666.972218,317.068887 C666.972218,365.400002 666.75921,361.859668 669.727852,362.910424 C671.831405,363.655543 683.740247,363.655543 685.8438,362.910424 C688.76225,361.877214 688.599434,363.616777 688.599434,333.449259 L688.599434,306.280579 L691.390569,302.017161 C694.240057,297.664378 697.910155,293.773927 700.445028,292.418349 C702.428611,291.357392 706.461474,291.427578 709.600277,292.577493 C713.230385,293.907771 714.202385,293.793514 715.04095,291.939286 C716.00683,289.804721 716.072119,273.944218 715.123378,272.046328 C713.79106,269.381692 705.430305,268.061207 700.555612,269.745682 M724.508774,271.096363 C722.126108,271.771295 721.244289,272.897951 721.244289,275.267967 C721.244289,278.08685 748.128958,359.065676 749.757529,361.151683 C750.346768,361.906595 750.997625,362.757401 751.204512,363.042228 C751.455877,363.388671 749.862808,368.405777 746.380826,378.230654 C740.430486,395.022351 740.337856,395.544261 743.075535,396.912896 C744.50538,397.627819 745.516554,397.728202 751.236749,397.72347 C758.353735,397.716776 761.460301,397.121415 763.487138,395.375324 C764.688061,394.34089 763.560589,397.927743 785.945166,323.921042 C795.326889,292.903126 800,276.850426 800,275.640935 C800,271.609295 798.622795,270.908247 790.277546,270.691567 C783.416414,270.513652 780.735047,270.954766 779.805893,272.413991 C779.505968,272.885301 775.438828,286.919732 770.767757,303.602069 C764.899436,324.561289 762.174407,333.702665 761.948341,333.186468 C761.768387,332.775551 757.490687,319.226304 752.442568,303.077303 C747.394449,286.928301 742.9776,273.278671 742.627892,272.744928 C741.459615,270.962111 739.791463,270.614851 732.58103,270.654841 C728.926847,270.675244 725.294291,270.873562 724.508774,271.096363 M545.681485,286.72019 C541.8804,288.171254 538.932162,291.097049 536.919606,295.415555 C535.874563,297.658665 534.367187,304.136628 534.357801,306.42544 L534.352497,307.751638 L550.513332,307.751638 L566.674167,307.751638 L566.394237,304.385137 C565.644222,295.369852 562.999581,290.144635 557.815986,287.436337 C556.057652,286.517792 555.183178,286.35416 551.491045,286.254185 C548.516283,286.173389 546.739995,286.315802 545.681485,286.72019" id="Combined-Shape"></path>
        </g>
    </g>
</svg>