<?xml version="1.0" encoding="UTF-8"?>
<svg width="800px" height="400px" viewBox="0 0 800 400" version="1.1" xmlns="http://www.w3.org/2000/svg" xmlns:xlink="http://www.w3.org/1999/xlink">
    <title>xboxgamestudios</title>
    <g id="Page-1" stroke="none" stroke-width="1" fill="none" fill-rule="evenodd">
        <g id="Manufacturer" fill="#000000" fill-rule="nonzero">
            <g id="xboxgamestudios">
                <line x1="0" y1="0" x2="800" y2="400" id="Path"></line>
                <path d="M98.5790261,131.656885 C116.947175,146.133319 133.603668,162.819187 148.09082,181.192496 C154.890207,190.243393 161.715792,199.649166 165.214128,210.542316 C166.772482,215.570901 167.338455,222.171812 162.750249,225.84044 C148.771592,237.80933 131.394235,245.953192 113.123339,248.432553 C85.1382393,252.695021 55.4819727,244.281628 34.0942115,225.683644 C30.9077606,223.007316 30.1572439,218.403549 30.9356663,214.508658 C32.6211632,205.315255 37.6917854,197.227363 42.7898369,189.564209 C58.3840871,167.679067 77.3774353,148.16214 98.5790261,131.656885 Z M46.4159913,85.8081621 C55.8483592,91.7576752 63.6246443,99.8737511 72.0225559,107.125663 C55.5367521,127.50993 40.3688281,149.182703 29.0088624,172.876754 C23.6563648,184.689244 17.9624887,197.650513 20.9364513,210.880122 C18.1209717,208.872876 16.3582825,205.908718 14.6546524,202.944939 L14.1686495,202.098983 C13.7635557,201.395406 13.3564447,200.697019 12.9339037,200.016743 C0.287417331,178.216946 -3.23870522,151.445725 3.03472051,127.053039 C7.53972612,109.747132 16.5330654,93.4022464 29.5626102,81.077291 C35.5819868,79.477099 41.3473142,82.9891695 46.4159913,85.8081621 Z M167.699046,81.6141285 C196.5757,108.895433 205.257432,154.788217 188.715658,190.867163 C188.242936,191.816575 187.776413,192.779188 187.308156,193.746994 L186.744908,194.910343 C183.919433,200.734428 180.917347,206.630215 176.025507,210.868372 C176.080925,210.519814 176.137527,210.170718 176.194147,209.821151 L176.362901,208.771096 C176.890085,205.441846 177.313793,202.075839 176.634907,198.728793 C174.537253,185.224122 168.306167,172.902165 161.875388,160.980225 L161.017113,159.392935 L160.587735,158.600939 C150.405128,140.414197 138.211167,123.458402 125.22489,107.183777 C134.911307,98.004267 144.740626,88.5008448 156.890923,82.664066 C160.220356,81.4295857 164.369812,79.4618958 167.699046,81.6141285 Z M139.603991,62.0534966 C142.875747,63.8661372 147.294932,64.6600407 149.107413,68.2574558 C131.815401,65.9625982 115.144617,73.49841 100.41731,81.7415104 C96.9051996,83.5122725 93.8040933,79.8730584 90.687228,78.6961361 C77.0777367,72.8613421 62.7021284,66.1472999 47.4909367,68.3428401 C47.9716056,67.7334398 48.9624369,66.486773 49.4446936,65.8634397 C76.5378823,50.1261678 111.277513,48.7959824 139.603991,62.0534966 Z M616.395003,71.1815304 C631.348675,77.3429339 643.506769,88.8529673 652.466022,102.129406 C661.139016,118.565495 665.658401,137.170684 665.008068,155.796321 C664.644211,180.361282 655.667703,205.756057 636.902344,222.255191 C605.734662,249.85996 552.273922,247.101869 525.039474,215.221945 C506.071916,193.636585 500.782923,163.012456 505.098405,135.245246 C506.564581,123.80621 511.213611,113.272225 516.033673,102.917513 L516.795717,101.283943 C516.922815,101.011894 517.049922,100.739943 517.176982,100.468076 C517.582252,99.9884016 517.986626,99.5071997 518.390703,99.0251606 L519.602647,97.5772215 C524.855752,91.2979146 530.160194,84.9937219 536.834063,80.180542 C559.351471,63.4786401 590.681027,60.5211891 616.395003,71.1815304 Z M793.739257,68.9657709 C786.950241,80.3764085 777.749598,90.1251483 770.98046,101.555665 C760.159949,115.661917 749.74327,130.072035 739.065321,144.258372 C737.647596,146.184151 735.863811,148.495984 736.937626,151.027509 C757.728387,180.00962 778.885493,208.750909 800,237.507533 C792.461255,237.589623 784.921941,237.527501 777.385468,237.387724 C759.73391,213.12663 741.618316,189.23188 723.804885,165.11278 C705.607503,189.212001 687.713987,213.532733 669.476846,237.592196 C662.01989,237.430232 654.58054,237.470172 647.144031,237.53007 C669.050864,208.34576 690.268175,178.613921 712.114804,149.368838 C692.599717,122.434281 672.720557,95.8035905 653.107778,68.9718369 C660.498339,68.9287599 667.875211,68.9886637 675.271962,68.8866064 C691.563785,90.5117241 707.553445,112.361192 723.946936,133.902818 C731.945832,122.361247 740.332398,111.094853 748.772674,99.8668073 L756.374406,89.7655259 C761.439873,83.0297151 766.488607,76.2821321 771.448472,69.4716217 C778.783314,68.2757482 786.322627,69.1476993 793.739257,68.9657709 Z M574.968539,83.9482675 C562.610517,86.1176517 550.026441,91.287142 542.38546,101.703822 C529.25556,113.944272 524.085842,132.166078 523.338386,149.615436 C523.034428,170.126753 528.30153,192.1983 543.581618,206.827657 C564.210506,227.884799 601.356135,228.594769 623.138014,208.935359 C634.952483,198.598764 642.045367,183.6627 644.354757,168.278502 C647.780334,147.607016 644.496751,125.149814 632.460772,107.681144 C628.791136,103.303753 624.273966,99.7164168 620.646304,95.2964277 C608.020197,85.0416212 590.816205,81.7780312 574.968539,83.9482675 Z M344.379182,68.9040155 L345.893857,68.9706669 C347.911938,69.0564987 349.922963,69.1236086 351.913577,69.0930941 C332.682478,96.1497662 312.257494,122.334027 293.088304,149.473056 C299.795533,157.133916 305.308876,165.746704 311.063608,174.118102 C326.667613,195.2576 342.229019,216.416977 357.792697,237.578803 C350.253951,237.535904 342.71691,237.515934 335.178165,237.495969 C317.526607,213.702887 300.140862,189.726349 281.901449,166.379696 C276.856232,169.683271 274.728481,176.128436 270.615199,180.485947 C266.784632,184.013251 263.759296,188.235059 260.737143,192.455299 L259.669326,193.943597 C258.59903,195.429564 257.517377,196.905134 256.389104,198.339705 C246.864147,211.434391 237.07792,224.344485 227.552963,237.456779 C219.973892,237.456779 212.39482,237.496714 204.816316,237.578803 C222.931911,213.380186 240.583468,188.835104 258.638857,164.593889 C259.79366,163.122257 260.747989,161.481088 261.669207,159.813137 L262.585586,158.141546 C264.421064,154.801658 266.347245,151.544981 269.703029,149.513558 C263.462109,142.258801 257.826651,134.495705 252.659206,126.450893 C246.398406,118.099942 239.509426,110.236883 233.225907,101.885932 C229.784155,94.0522322 224.476269,87.350937 219.224823,80.6073207 L217.966544,78.9874387 C215.456091,75.7436439 212.994078,72.4684456 210.793128,69.0319288 C218.188743,68.9512989 225.605941,68.9712689 233.002693,68.9313345 C248.76857,90.6166577 266.09411,111.127975 281.050053,133.419328 C286.514404,125.83236 292.216253,118.418956 297.931936,111.018843 L301.049609,106.982772 C310.398679,94.872734 319.675902,82.7202524 327.901257,69.8230568 C333.236823,68.4151686 338.822055,68.6557967 344.379182,68.9040155 Z M436.437492,68.971625 C447.623779,69.093649 459.376338,70.5113511 469.083048,76.5103703 C482.45945,84.2933453 491.334075,99.7775066 490.220274,115.343456 C490.402202,129.023726 482.195341,141.548165 470.68474,148.479176 C480.269335,153.830589 489.246195,161.573862 492.813652,172.294409 C499.824748,190.636057 493.989533,213.639085 477.899739,225.33371 C465.477536,234.61671 449.527634,237.474197 434.309854,237.513955 C411.754959,237.47402 389.180186,237.596045 366.624155,237.533923 C365.976322,211.227547 366.686281,184.900724 366.564251,158.573901 C354.749782,158.65377 342.935314,158.551715 331.121413,158.573901 C335.214816,152.858927 339.370129,147.203022 343.603822,141.590283 C351.244803,141.508194 358.883512,141.426104 366.524493,141.3662 C365.692521,117.22722 366.666487,93.0905129 366.564428,68.9492615 C389.849829,68.9915928 413.132301,68.9095027 436.437492,68.971625 Z M385.613101,158.752033 C385.733301,179.060583 385.369439,199.387875 385.795421,219.696993 C403.282834,219.512844 420.792397,219.796832 438.27981,219.574969 C448.270508,219.006993 458.928577,217.123357 466.811516,210.453842 C476.944207,201.637151 478.909972,185.646923 472.972919,173.952298 C466.306017,162.987521 452.628019,159.5223 440.611351,158.913997 C422.291854,158.488015 403.952477,158.874062 385.613101,158.752033 Z M432.444993,86.7619195 C416.798958,86.9241771 401.155195,86.5203802 385.511433,87.046201 C385.775557,105.146371 385.673503,123.223911 385.551475,141.323602 C403.183154,141.181608 420.81256,141.60759 438.422088,141.343569 C447.379069,141.039611 456.903459,138.727756 463.468693,132.262769 C473.763258,122.433945 472.629578,104.214411 462.840796,94.4855505 C454.330243,87.7164127 442.901998,86.7423339 432.444993,86.7619195 Z M29.3547998,268.168595 C42.3273093,258.681208 61.3543111,258.835928 74.2156894,268.433967 C81.2487647,273.716824 85.4517243,281.971165 87.3154304,290.433631 C83.9238859,290.504194 80.5336765,290.574756 77.1439776,290.659122 C75.4765772,286.383907 74.2432955,281.760769 71.230461,278.186506 C59.6445394,264.860969 33.9908963,268.097911 27.4180534,284.955694 C21.3804468,296.725787 20.6362995,311.355055 26.2691214,323.405529 C34.2411182,339.729647 59.2091249,343.500255 71.6640692,330.257574 C76.8487534,325.604985 78.1234247,318.430934 78.9366854,311.845525 C69.7453865,311.900749 60.5694026,311.81638 51.377711,311.928359 C51.3915168,308.860469 51.4053222,305.777265 51.419128,302.723316 C63.6231435,302.66656 75.839725,302.652754 88.0574846,302.750927 C87.9869222,317.030308 88.0436792,331.322256 88.0989016,345.601244 L78.5023468,345.601244 C78.5867123,342.335478 78.6695463,339.071205 78.8244743,335.820911 C73.2196119,342.588528 64.7430086,346.805624 56.0146911,347.46495 L46.7114756,347.46495 C38.3330447,346.316018 29.9271256,342.994962 24.0842932,336.689148 C18.3686923,330.46737 14.9220534,322.45257 13.2546922,314.241425 L13.2546922,295.309454 C15.2856449,284.800288 20.4703684,274.473723 29.3534057,268.167909 L29.3547998,268.168595 Z M403.603944,270.972008 C408.297766,276.072264 409.489579,283.176024 409.937638,289.833295 C406.799183,289.860906 403.660884,289.888515 400.536251,289.916129 C399.892004,286.021431 399.835221,281.789412 397.50979,278.440553 C394.329905,273.6195 388.626752,271.195818 383.093752,270.396694 C376.353624,269.402717 368.914114,270.046957 363.239746,274.124185 C358.518436,277.445163 357.019538,284.381637 359.582821,289.481892 C361.376,292.480747 364.62653,294.204773 367.780222,295.438212 C377.881383,299.164171 389.005502,299.305304 398.868693,303.775018 C403.464342,305.805971 407.653558,309.169791 409.798037,313.807066 C413.313829,322.033526 411.815167,332.485752 405.285245,338.805702 C399.288871,344.817391 390.588435,346.820502 382.406349,347.466477 L381.117855,347.466477 C371.142747,346.905048 360.227147,344.831175 353.236875,337.040169 C347.730185,331.169848 346.483002,322.817335 346.623978,315.083308 L356.053246,315.083308 C356.13608,319.637725 355.884512,324.569124 358.420106,328.60519 C362.063208,334.770029 369.432308,337.348823 376.172436,338.189179 C383.667315,339.100337 392.200466,338.316497 398.027983,333.047298 C403.926185,327.947042 403.772643,316.806038 396.556928,312.952573 C384.059966,306.170819 368.410489,308.020781 356.502562,299.865005 C347.507608,293.517566 346.666859,279.602994 353.20919,271.222992 C358.588727,264.287249 367.750967,261.51368 376.213826,261.219163 C386.022041,260.938452 396.949814,263.167258 403.603944,270.972008 Z M411.20799,263.067554 C432.615871,263.122774 454.026892,263.038409 475.432417,263.122774 C475.404806,266.107845 475.375661,269.106582 475.348051,272.105555 C466.268669,272.062602 457.190858,272.077943 448.125219,272.091749 C448.223392,296.542976 448.069999,321.009125 448.293954,345.47763 C444.931547,345.505241 441.582885,345.519047 438.234418,345.519047 C438.421044,335.336926 438.427647,325.152079 438.400253,314.96564 L438.360407,302.741223 C438.329179,292.553693 438.322362,282.365028 438.485983,272.176362 C429.379113,271.981553 420.258105,272.107335 411.137098,272.093528 C411.137098,269.080851 411.164709,266.068095 411.20766,263.069515 Z M657.777953,274.600855 C670.92089,258.149114 697.973687,256.664353 713.31608,270.816621 C728.980871,285.292347 730.773893,310.949525 720.504268,329.013258 C714.549519,339.620597 703.089258,346.024583 691.221385,347.468111 L686.401902,347.468111 C667.600305,347.874623 651.179585,331.95529 648.728023,313.739586 C646.528331,300.202388 648.76944,285.349287 657.778346,274.602544 M679.256518,271.16957 C670.640509,273.522647 663.634922,280.291756 660.482408,288.601466 C655.886759,300.622881 656.448305,315.197172 663.830992,326.000463 C672.657482,339.256887 693.225792,342.493437 705.456118,332.067129 C719.88747,319.778685 720.769451,295.99935 710.065511,281.033154 C703.171841,271.686743 690.268445,267.986819 679.256243,271.168392 L679.256518,271.16957 Z M741.460162,268.675165 C749.404278,261.444174 761.060884,260.267675 771.273962,261.836864 C779.512595,262.95819 787.849793,267.105977 791.996206,274.588682 C794.798715,279.198075 795.358613,284.663533 795.69609,289.931075 C792.542319,289.917269 789.389884,289.917269 786.266821,289.917269 C785.972304,285.223447 785.355663,280.15068 781.922886,276.633357 C775.730167,269.977656 765.558714,269.081931 757.095855,270.621668 C750.861904,271.673959 744.541953,276.28347 744.26275,283.065224 C743.575543,288.039819 746.965556,292.664528 751.435623,294.499175 C761.999766,298.955419 773.811092,299.137627 784.458485,303.397527 C790.049603,305.891736 795.008883,310.60103 796.635012,316.653951 C798.623004,323.800514 797.250121,332.109831 792.192904,337.701342 C785.831721,345.421625 775.141525,347.705902 765.586595,347.285331 C755.190917,347.088986 743.758537,343.824751 737.440157,334.981572 C733.152769,329.236912 732.255473,321.894005 732.410192,314.943787 C735.631467,314.943787 738.867977,314.959126 742.118664,314.959126 C742.230643,319.708318 741.684545,325.004918 744.752435,329.040592 C748.045807,334.282216 754.16796,336.747131 760.052024,337.686052 C767.99614,339.172462 777.130892,338.528175 783.576503,333.188575 C789.656913,328.088319 789.643169,316.514571 782.048704,312.814647 C769.691147,306.494696 754.532925,307.938224 742.76401,300.161002 C732.340843,293.365504 732.354588,276.564268 741.461694,268.675129 L741.460162,268.675165 Z M117.004747,284.551616 C120.899445,277.628887 122.875068,269.865801 126.545933,262.831155 C129.277876,262.99989 132.009819,263.139479 134.741763,263.322017 C142.000242,282.702047 150.742304,301.478905 157.804438,320.929619 C161.123885,327.683492 162.510434,335.236882 166.336411,341.752785 C166.715294,343.027495 167.092653,344.315989 167.47152,345.606054 C163.492394,345.549298 159.27569,346.446646 155.548278,344.681073 C154.37174,336.104726 149.369696,328.649902 146.580812,320.550674 C135.568611,320.593626 124.542665,320.760826 113.530463,320.438694 C109.677194,328.693035 107.084852,337.463763 103.036612,345.633676 C99.6312447,345.633676 96.2136255,345.661287 92.8082191,345.661287 C94.8683093,338.486843 98.3993373,331.859024 100.990305,324.867181 C106.595167,311.541643 110.910436,297.68244 117.00459,284.55364 M117.075153,311.55578 C125.929131,311.457607 134.770543,311.541975 143.624521,311.624807 C140.332681,303.063775 136.927196,294.544369 133.480557,286.052451 C132.626142,282.802039 131.771728,279.536155 130.693362,276.342408 C125.859743,287.943645 121.502063,299.770285 117.074878,311.555694 L117.075153,311.55578 Z M172.275845,263.153946 C175.819243,263.040435 179.378034,262.985211 182.922845,262.971408 C192.913268,285.670845 202.482334,308.554847 212.107556,331.409397 C218.818625,315.672743 225.501814,299.894465 231.498188,283.878216 C235.561743,277.489152 237.718396,270.1325 240.689487,263.223515 C244.34488,263.070122 248.001765,262.99956 251.67263,262.971408 C251.841365,290.449637 251.687969,317.928896 252.03771,345.409332 C248.702909,345.548921 245.354128,345.562725 242.019406,345.507504 C242.062358,324.839059 241.991795,304.169043 242.076161,283.501776 C235.757781,297.064891 230.867615,311.232355 224.773461,324.895214 C221.564438,331.607854 219.729752,338.866334 217.066922,345.802807 C214.152417,345.704635 211.22409,345.634072 208.295801,345.592655 C199.174794,325.036127 190.839559,304.128533 182.054694,283.433777 C182.11145,304.088479 181.901302,324.744751 182.152867,345.39631 C178.733716,345.494483 175.32988,345.577317 171.924474,345.704635 C172.527331,325.260415 171.826301,304.802059 172.065599,284.342917 C172.472111,277.294527 172.358581,270.218256 172.275751,263.156121 L172.275845,263.153946 Z M261.636349,263.138238 C280.957869,262.984846 300.291954,262.998649 319.61308,263.083018 C319.599275,265.814962 319.599275,268.56222 319.61308,271.321651 C303.40245,271.392214 287.207135,271.29404 270.998076,271.350796 C271.082441,280.514607 271.082441,289.664673 270.998076,298.828484 C286.226981,298.856094 301.442142,298.661284 316.671833,298.940463 C316.615078,301.617194 316.573661,304.294004 316.546051,306.984322 C301.413747,307.068688 286.283014,306.94137 271.135395,307.053349 C270.939051,317.100712 271.009613,327.161819 271.12159,337.222926 C287.485761,337.307291 303.836189,337.236731 320.188188,337.264343 C320.132968,339.984034 320.062405,342.716056 320.007181,345.434255 C300.53212,345.461866 281.057059,345.42045 261.582784,345.491011 C261.596589,318.039633 261.708566,290.589041 261.638004,263.14002 L261.636349,263.138238 Z M481.067516,263.11075 C484.261184,263.096944 487.45658,263.124555 490.649934,263.195115 C490.412172,279.141858 490.608517,295.101167 490.551762,311.060082 C490.467396,316.847546 491.588699,322.649146 493.690218,328.043919 C496.913023,334.866905 504.617991,338.397972 511.904351,338.539341 C518.475623,338.735686 525.803609,337.361271 530.356063,332.191902 C534.965456,326.740189 535.931866,319.27162 536.00255,312.37795 C535.945795,295.969404 535.988744,279.560858 535.945795,263.138568 L545.417867,263.138568 C545.445478,279.604054 545.486894,296.083284 545.404061,312.562514 C545.319696,322.120585 543.42836,332.600299 536.142078,339.397368 C528.016932,347.215823 515.757548,348.071887 505.108977,346.893817 C499.378061,346.432093 494.530697,343.152543 489.599298,340.532634 C486.321241,335.320462 482.972657,329.925296 481.908074,323.758887 C481.095089,318.603262 480.96931,313.375775 480.996916,308.176953 C481.346654,293.156566 481.262288,278.134608 481.067479,263.111865 L481.067516,263.11075 Z M555.560783,263.012577 C566.237235,263.320902 576.927038,262.886795 587.601919,263.293288 C598.293686,263.797973 609.360864,268.660573 615.119268,278.020728 C621.901022,288.894703 622.965212,302.501014 620.962101,314.928863 C619.182744,325.74629 612.919812,336.677205 602.551622,341.23123 C587.882692,348.293364 571.168634,344.454035 555.530938,345.447933 C555.587694,317.970246 555.503327,290.490988 555.560083,263.010551 M564.960293,271.993332 C564.975632,293.543759 565.087611,315.094971 564.975632,336.661498 C576.113495,336.001897 588.21816,338.664844 598.5031,333.130352 C608.702434,327.496038 612.38665,314.970017 612.218186,304.011614 C612.316358,293.726673 609.794543,281.648319 600.2812,275.972772 C589.577259,269.764738 576.716666,272.483055 564.960293,271.993646 L564.960293,271.993332 Z M630.01478,263.083262 C633.308152,263.097067 636.600189,263.097067 639.921167,263.110873 C639.766239,290.56225 640.145122,318.024623 639.795385,345.477571 C636.48819,345.491376 633.180917,345.477571 629.888998,345.407008 C630.043925,317.970946 629.930415,290.532527 630.01478,263.083262 L630.01478,263.083262 Z" id="Combined-Shape"></path>
            </g>
        </g>
    </g>
</svg>