<?xml version="1.0" encoding="UTF-8"?>
<!-- Created with Inkscape (http://www.inkscape.org/) -->
<svg id="svg8" width="5199.8pt" height="750pt" version="1.1" viewBox="0 0 5199.8 750" xmlns="http://www.w3.org/2000/svg" xmlns:cc="http://creativecommons.org/ns#" xmlns:dc="http://purl.org/dc/elements/1.1/" xmlns:rdf="http://www.w3.org/1999/02/22-rdf-syntax-ns#">
 <metadata id="metadata5">
  <rdf:RDF>
   <cc:Work rdf:about="">
    <dc:format>image/svg+xml</dc:format>
    <dc:type rdf:resource="http://purl.org/dc/dcmitype/StillImage"/>
    <dc:title/>
   </cc:Work>
  </rdf:RDF>
 </metadata>
 <g id="layer1" transform="translate(171.71 413.41)">
  <path id="path3944" d="m-31.463 20.1h499.8s158.03 314.07 158.03 314.07h-145.09s-122.57-259.59-122.57-259.59h-280.53l-111.22 257.99h-138.67l140.25-312.47" fill="#00a3e0"/>
  <path id="path3946" d="m152.28-410.2h145.11l148.37 317.29h-138.66l-154.82-317.29" fill="#00a3e0"/>
  <path id="path3952" d="m1185.1-91.289h141.88v-94.553s-6.4611-166.67 177.36-166.67h203.13v-60.89h-257.97s-264.44-3.2076-264.42 224.36v97.762" fill="#00a3e0"/>
  <path id="path3954" d="m1181.9 20.1h141.88l-3e-4 86.535s-6.4484 169.86 177.35 169.86h216.05v57.676h-264.42s-270.85-9.6056-270.87-224.35l0.01-89.725" fill="#00a3e0"/>
  <path id="path3956" d="m2088-346.11h49.973c183.83 0 177.36 165.07 177.36 165.07l0.01 92.158h143.49l-1.6094-95.351c0.013-227.57-264.42-224.37-264.42-224.37h-98.346-93.517s-264.44-3.2072-264.43 224.37c0 0-2.4259 95.351-2.4259 95.351h141.89s2.4216-92.158 2.4216-92.158-6.4451-165.07 177.35-165.07h32.25" fill="#00a3e0"/>
  <path id="path3958" d="m2088 270.08h49.978c183.81 0 177.37-165.05 177.37-165.05s7e-4 -85.723 7e-4 -85.723h143.49s-1.6065 88.929-1.6065 88.929c-0.013 227.55-264.44 224.34-264.44 224.34h-98.338-93.512s-264.42 3.2066-264.41-224.34c0 0-0.8138-88.929-0.8138-88.929h141.88s0.8108 85.723 0.8108 85.723-6.4359 165.05 177.36 165.05h32.239" fill="#00a3e0"/>
  <path id="path3960" d="m2547.5-410.2-0.015 317.29h135.43l0.02-317.29h-135.43" fill="#00a3e0"/>
  <path id="path3962" d="m3656.8-410.2 345.27-1.6114s264.42 5.6088 264.39 233.17c0 0 1.5868 88.935 1.5868 88.935h-143.49l0.015-85.727s6.4731-173.87-177.33-173.87h-151.8l-0.026 259.59h-138.66l0.037-320.5" fill="#00a3e0"/>
  <path id="path3964" d="m2547.5 20.1h135.43l-0.01 195.5s19.356 60.895 67.726 60.895h154.78l125.77-256.4h493.37l128.94 233.95 0.029-237.15h138.67l-0.032 253.17h164.45c183.79 0 167.93-161.03 167.93-161.03l0.015-92.139h143.49s1.369 95.344 1.369 95.344c-0.031 227.55-267.44 224.34-267.44 224.34h-438.78l-138.63-258.81h-277.32l-122.55 253.21h-345.03s-132.21 3.1914-132.2-121.79l-3e-4 -189.09" fill="#00a3e0"/>
  <path id="path3966" d="m3208.6-410.2h145.11l148.31 317.29h-138.65l-154.77-317.29" fill="#00a3e0"/>
  <path id="path3968" d="m4841.1-410.2h-483.7l-0.046 320.5h135.44l0.046-259.59h348.26l0.01-60.902" fill="#00a3e0"/>
  <path id="path3970" d="m4841 334.18h-483.68l0.061-314.07h135.43l-0.046 253.17h348.25l-0.011 60.902" fill="#00a3e0"/>
  <path id="path3972" d="m4683.1-63.042h345.03l-0.01 60.905h-345.04s0.014-60.905 0.014-60.905" fill="#ef3340"/>
  <path id="path3952-3" d="m630.4-91.289h141.88l-2e-3 -94.553s-6.4611-166.67 177.36-166.67h203.13v-60.89h-257.97s-264.44-3.2076-264.42 224.36l3e-3 97.762" fill="#00a3e0"/>
  <path id="path3954-6" d="m627.19 20.1h141.88s-3.1e-4 86.535-3.1e-4 86.535-6.4485 169.86 177.35 169.86h216.05v57.676h-264.42s-270.85-9.6056-270.87-224.35l0.01-89.725" fill="#00a3e0"/>
 </g>
</svg>
