<?xml version="1.0" encoding="UTF-8"?>
<svg id="svg8" width="4375.2pt" height="750pt" version="1.1" viewBox="0 0 4375.2 750" xmlns="http://www.w3.org/2000/svg" xmlns:cc="http://creativecommons.org/ns#" xmlns:dc="http://purl.org/dc/elements/1.1/" xmlns:rdf="http://www.w3.org/1999/02/22-rdf-syntax-ns#">
 <metadata id="metadata5">
  <rdf:RDF>
   <cc:Work rdf:about="">
    <dc:format>image/svg+xml</dc:format>
    <dc:type rdf:resource="http://purl.org/dc/dcmitype/StillImage"/>
    <dc:title/>
   </cc:Work>
  </rdf:RDF>
 </metadata>
 <g id="layer1" transform="translate(-25.045 462.02)">
  <g id="g954" transform="matrix(1.3175 0 0 1.3175 -7.9524 -91.439)">
   <path id="path820" d="m25.045 273.73h171.75l60-93h161.25v93h137.25v-555h-144.75zm289.5-202.5 103.5-150.75v150.75z" dominant-baseline="auto" style="font-feature-settings:normal;font-variant-alternates:normal;font-variant-caps:normal;font-variant-ligatures:normal;font-variant-numeric:normal;font-variant-position:normal;paint-order:normal;shape-padding:0;text-decoration-color:#000000;text-decoration-line:none;text-decoration-style:solid;text-indent:0;text-orientation:mixed;text-transform:none;white-space:normal"/>
   <path id="path822" d="m869.55 115.48c-13.5 25.5-38.25 55.5-90 55.5-59.25 0-99-45-99-105.75 0-30 9.75-57 27-76.5 18-19.5 42.75-30.75 72-29.25 51.75 0 76.5 30 90 58.5h126c-21-102-110.25-174.75-220.5-174.75-124.5 0-219.75 99-219.75 221.25 0 123.75 96.75 222.75 222.75 222.75 112.5 0 195.75-77.25 218.25-171.75z" dominant-baseline="auto" style="font-feature-settings:normal;font-variant-alternates:normal;font-variant-caps:normal;font-variant-ligatures:normal;font-variant-numeric:normal;font-variant-position:normal;paint-order:normal;shape-padding:0;text-decoration-color:#000000;text-decoration-line:none;text-decoration-style:solid;text-indent:0;text-orientation:mixed;text-transform:none;white-space:normal"/>
   <path id="path828" d="m1874.6 273.73h124.5v-555h-124.5z" dominant-baseline="auto" style="font-feature-settings:normal;font-variant-alternates:normal;font-variant-caps:normal;font-variant-ligatures:normal;font-variant-numeric:normal;font-variant-position:normal;paint-order:normal;shape-padding:0;text-decoration-color:#000000;text-decoration-line:none;text-decoration-style:solid;text-indent:0;text-orientation:mixed;text-transform:none;white-space:normal"/>
   <path id="path830" d="m2455.8-142.52h-124.5v44.25c-16.5-25.5-54.75-58.5-123-58.5-111 0-209.25 85.5-209.25 222 0 119.25 77.25 222.75 209.25 222.75 48.75 0 100.5-18.75 123-59.25v45h124.5zm-332.25 209.25c0-47.25 31.5-107.25 102.75-107.25 52.5 0 81 29.25 94.5 57.75 8.25 17.25 12 36 10.5 54.75s-6.75 36.75-17.25 53.25c-15.75 25.5-42.75 46.5-87 46.5-75 0-103.5-66-103.5-104.25z" dominant-baseline="auto" style="font-feature-settings:normal;font-variant-alternates:normal;font-variant-caps:normal;font-variant-ligatures:normal;font-variant-numeric:normal;font-variant-position:normal;paint-order:normal;shape-padding:0;text-decoration-color:#000000;text-decoration-line:none;text-decoration-style:solid;text-indent:0;text-orientation:mixed;text-transform:none;white-space:normal"/>
   <path id="path832" d="m2908.8-281.27h-124.5v174c-13.5-13.5-48.75-49.5-122.25-49.5-105.75 0-206.25 80.25-206.25 221.25 0 125.25 82.5 222.75 208.5 222.75 84 0 114-41.25 126-58.5v45h118.5zm-328.5 345c0-48 33.75-104.25 105.75-104.25 29.25 0 55.5 10.5 74.25 29.25 18.75 18 30.75 43.5 30.75 73.5 1.5 30.75-9.75 57.75-29.25 77.25s-47.25 31.5-77.25 31.5c-58.5 0-104.25-42.75-104.25-106.5z" dominant-baseline="auto" style="font-feature-settings:normal;font-variant-alternates:normal;font-variant-caps:normal;font-variant-ligatures:normal;font-variant-numeric:normal;font-variant-position:normal;paint-order:normal;shape-padding:0;text-decoration-color:#000000;text-decoration-line:none;text-decoration-style:solid;text-indent:0;text-orientation:mixed;text-transform:none;white-space:normal"/>
   <path id="path834" d="m3343.1 108.73c9.75-76.5-6-143.25-58.5-199.5-39-41.25-93.75-66-157.5-66-126.75 0-218.25 107.25-218.25 223.5 0 123.75 101.25 220.5 220.5 220.5 42.75 0 84-12.75 118.5-37.5 35.25-24 64.5-60 84.75-106.5h-127.5c-15 21.75-36 39-75.75 39-48.75 0-90.75-29.25-96-73.5zm-308.25-94.5c3-19.5 28.5-66 93-66s90 46.5 93 66z" dominant-baseline="auto" style="font-feature-settings:normal;font-variant-alternates:normal;font-variant-caps:normal;font-variant-ligatures:normal;font-variant-numeric:normal;font-variant-position:normal;paint-order:normal;shape-padding:0;text-decoration-color:#000000;text-decoration-line:none;text-decoration-style:solid;text-indent:0;text-orientation:mixed;text-transform:none;white-space:normal"/>
   <path id="path822-3" d="m1305.1 115.48c-13.5 25.5-38.25 55.5-90 55.5-59.25 0-99-45-99-105.75 0-30 9.75-57 27-76.5 18-19.5 42.75-30.75 72-29.25 51.75 0 76.5 30 90 58.5h126c-21-102-110.25-174.75-220.5-174.75-124.5 0-219.75 99-219.75 221.25 0 123.75 96.75 222.75 222.75 222.75 112.5 0 195.75-77.25 218.25-171.75z" dominant-baseline="auto" style="font-feature-settings:normal;font-variant-alternates:normal;font-variant-caps:normal;font-variant-ligatures:normal;font-variant-numeric:normal;font-variant-position:normal;paint-order:normal;shape-padding:0;text-decoration-color:#000000;text-decoration-line:none;text-decoration-style:solid;text-indent:0;text-orientation:mixed;text-transform:none;white-space:normal"/>
   <path id="path826" d="m1426.1 65.227c0 102 72.75 221.25 224.25 221.25s224.25-119.25 224.25-221.25c0-102-72.75-221.25-224.25-221.25s-224.25 119.25-224.25 220.5zm124.5 0c0-60.75 45.75-105 99.75-105s99.75 44.25 99.75 105c0 60.75-45.75 105-99.75 105s-99.75-44.25-99.75-104.25z" dominant-baseline="auto" style="font-feature-settings:normal;font-variant-alternates:normal;font-variant-caps:normal;font-variant-ligatures:normal;font-variant-numeric:normal;font-variant-position:normal;paint-order:normal;shape-padding:0;text-decoration-color:#000000;text-decoration-line:none;text-decoration-style:solid;text-indent:0;text-orientation:mixed;text-transform:none;white-space:normal"/>
  </g>
 </g>
</svg>
