<?xml version="1.0" encoding="UTF-8" standalone="no"?>
<svg
   xmlns:dc="http://purl.org/dc/elements/1.1/"
   xmlns:cc="http://creativecommons.org/ns#"
   xmlns:rdf="http://www.w3.org/1999/02/22-rdf-syntax-ns#"
   xmlns:svg="http://www.w3.org/2000/svg"
   xmlns="http://www.w3.org/2000/svg"
   version="1.1"
   id="svg2"
   viewBox="0 0 399.99999 187.485"
   height="187.485"
   width="400">
  <metadata
     id="metadata12">
    <rdf:RDF>
      <cc:Work
         rdf:about="">
        <dc:format>image/svg+xml</dc:format>
        <dc:type
           rdf:resource="http://purl.org/dc/dcmitype/StillImage" />
        <dc:title></dc:title>
      </cc:Work>
    </rdf:RDF>
  </metadata>
  <defs
     id="defs10" />
  <g
     transform="scale(0.64650223,0.64650223)"
     id="g3340">
    <path
       style="clip-rule:evenodd;fill:#231f20;fill-rule:evenodd"
       d="M 83.57,107.394 C 100.132,45.544 156.57,0 223.646,0 c 67.696,0 124.57,46.39 140.54,109.115 l -58.306,0.025 -6.72,-15.43 c 0,0 11.465,-10.703 14.414,-13.92 5.004,-5.458 1.812,-8.672 -0.96,-11.76 -2.772,-3.088 -8.005,-9.04 -11.488,-12.476 -3.483,-3.436 -7.562,-6.473 -12.812,-0.223 -1.31,1.566 -13.873,14.14 -13.873,14.14 l -32.804,-13.92 -0.068,-21.47 c 0,-6 -2.95,-6.68 -7.25,-6.75 -4.3,-0.07 -15.584,-0.01 -19.5,0 -3.916,0.01 -7.75,1 -7.75,7.25 0,6.56 0.177,21.21 0.177,21.21 l -33.36,13.44 -15.474,-14.64 c -4.78,-4.3 -7.973,-1.506 -10.435,1.037 -2.462,2.543 -9.794,10.34 -11.906,12.458 -2.112,2.118 -5.25,6.25 -1.064,11.23 4.88,4.878 14.64,14.64 14.64,14.64 l -6.55,13.61 -59.52,-0.166 z m 59.59,74.876 6.48,14.4 c -12.213,12 -12.836,13.033 -13.828,13.996 -5.667,5.5 -2.667,9.043 -0.75,10.917 2.405,2.352 11.718,11.532 13.75,13.5 2.667,2.583 6.5,4.75 10.667,0.417 3.354,-3.36 14.64,-14.59 14.64,-14.59 l 33.12,13.92 c 0,0 -0.078,13.753 0,20.503 0.078,6.75 3.57,7.656 6.57,7.578 3,-0.078 18.25,0.08 20.75,0 2.5,-0.08 6.5,-0.073 6.994,-7.573 l 0,-20.748 33.36,-13.438 38.563,37.687 c -24.707,19.51 -55.91,31.16 -89.83,31.16 -67.363,0 -123.997,-45.937 -140.287,-108.192 l 59.8,0.463 z"
       id="path4" />
    <path
       style="fill:#231f20"
       d="m 0,117.178 49.362,0 c 13.674,0 20.317,3.708 20.317,14.678 0,9.578 -3.48,11.433 -8.27,12.823 l 0,0.23 c 7.492,0.924 10.273,4.94 10.273,13.36 0,12.287 -7.26,14.837 -17.07,14.837 l -54.612,0 0,-55.93 z m 17.15,22.17 30.358,0 c 3.167,0 5.02,-1.158 5.02,-4.326 0,-3.245 -1.853,-4.403 -5.02,-4.403 l -30.358,0 0,8.724 z m 0,20.317 30.745,0 c 3.708,0 6.18,-0.85 6.18,-4.095 0,-3.785 -2.472,-4.635 -6.18,-4.635 l -30.745,0 0,8.73 z m 64.89,-42.487 61.18,0 0,12.978 -44.032,0 0,8.96 41.715,0 0,11.588 -41.715,0 0,8.96 45.036,0 0,13.446 -62.184,0 0,-55.932 z m 67.67,0 65.352,0 0,13.905 -24.102,0 0,42.028 -17.15,0 0,-42.023 -24.1,0 0,-13.908 z m 72.073,0 17.157,0 0,19.93 36.152,0 0,-19.93 17.15,0 0,55.933 -17.15,0 0,-21.17 -36.152,0 0,21.17 -17.157,0 0,-55.93 z m 81.275,0 61.196,0 0,12.978 -44.034,0 0,8.96 41.716,0 0,11.588 -41.716,0 0,8.96 45.038,0 0,13.446 -62.2,0 0,-55.932 z m 70.775,37.62 17.148,0 c 0.08,5.948 2.477,6.412 7.42,6.412 l 21.013,0 c 3.63,0 7.338,-0.387 7.338,-4.713 0,-4.866 -2.007,-5.175 -24.1,-5.175 -25.8,0 -28.736,-3.09 -28.736,-16.84 0,-10.12 0.927,-17.922 22.557,-17.922 l 23.95,0 c 19.774,0 21.63,6.72 21.63,16.532 l 0,1.777 -17.153,0 c 0,-4.1 -0.465,-5.8 -8.345,-5.8 l -19,0 c -3.863,0 -6.49,1.314 -6.49,4.328 0,4.866 2.087,5.02 20.47,4.943 26.65,-0.076 32.83,1.546 32.83,17.846 0,15.066 -5.096,17.54 -27.885,17.54 l -20.78,0 c -15.605,0 -21.86,-2.938 -21.86,-15.07 l 0,-3.864 z m 81.73,-37.62 51.757,0 c 17.148,0 23.174,5.64 23.174,19.467 l 0,16.995 c 0,13.83 -6.025,19.47 -23.174,19.47 l -51.758,0 0,-55.93 z m 17.147,41.56 30.438,0 c 7.34,0 10.197,-2.086 10.197,-10.043 l 0,-7.57 c 0,-7.957 -2.858,-10.042 -10.197,-10.042 l -30.438,0 0,27.655 z m 92.932,-41.56 22.325,0 30.746,55.933 -19.083,0 -5.327,-9.89 -34.763,0 -5.02,9.895 -19.16,0 30.282,-55.932 z m 0.31,33.99 21.94,0 -11.124,-21.013 -10.815,21.013 z m -311.257,50.946 c 0,7.092 -2.304,9.612 -8.82,9.612 l -14.545,0 c -7.056,0 -9.288,-3.168 -9.288,-9.756 l 0,-7.128 c 0,-6.59 2.232,-9.757 9.29,-9.757 l 13.32,0 c 4.68,0 9.683,1.152 9.683,7.164 l 0,0.932 -3.312,0 c 0,-4.86 -1.477,-5.22 -10.188,-5.22 l -9.144,0 c -3.38,0 -6.12,1.008 -6.12,5.544 l 0,9.79 c 0,4.537 2.74,5.545 6.12,5.545 l 13.79,0 c 3.53,0 5.69,-1.224 5.69,-4.823 l 0,-2.628 -13.354,0 0,-2.88 16.883,0 0,3.6 z m 18.79,-16.74 4.394,0 15.474,26.064 -3.995,0 -3.24,-5.508 -20.88,0 -3.24,5.508 -3.996,0 15.48,-26.064 z m 2.197,2.88 -8.748,14.797 17.496,0 -8.748,-14.792 z m 21.816,-2.88 5.51,0 15.24,21.853 15.23,-21.853 5.508,0 0,26.064 -3.528,0 0,-22.896 -0.07,0 -15.878,22.896 -2.52,0 -15.89,-22.896 -0.073,0 0,22.896 -3.527,0 0,-26.064 z m 48.182,0 25.596,0 0,2.88 -22.066,0 0,8.316 21.203,0 0,2.88 -21.203,0 0,9.108 22.21,0 0,2.88 -25.74,0 0,-26.064 z m 48.528,17.856 3.312,0 0,1.836 c 0,2.556 1.368,3.78 5.76,3.78 l 10.944,0 c 5.112,0 6.624,-1.08 6.624,-4.824 0,-3.276 -1.296,-4.104 -5.688,-4.104 l -6.695,0 c -10.765,0 -14.293,-0.647 -14.293,-7.56 0,-5.94 3.528,-7.272 10.8,-7.272 l 7.597,0 c 8.743,0 10.94,2.232 10.94,6.876 l 0,0.9 -3.31,0 c -0.07,-4.14 -0.506,-4.896 -9.758,-4.896 l -3.741,0 c -6.804,0 -9.216,0.36 -9.216,4.645 0,3.1 0.972,4.14 6.48,4.14 l 10.44,0 c 6.875,0 9.755,1.98 9.755,6.41 l 0,1.69 c 0,6.41 -5.26,6.88 -10.48,6.88 l -9.79,0 c -5.15,0 -9.687,-0.9 -9.687,-6.59 l 0,-1.91 z m 46.872,-14.976 -13.176,0 0,-2.88 29.88,0 0,2.88 -13.176,0 0,23.185 -3.528,0 0,-23.19 z m 21.13,-2.88 3.53,0 0,19.477 c 0,2.52 0.863,4 5.65,4 l 12.24,0 c 4.788,0 5.652,-1.476 5.652,-3.995 l 0,-19.476 3.528,0 0,19.512 c 0,5.29 -2.664,6.84 -9.288,6.84 l -12.022,0 c -6.624,0 -9.288,-1.55 -9.288,-6.84 l 0,-19.512 z m 37.297,0 21.06,0 c 8.75,0 11.125,2.736 11.125,13.032 0,9.576 -2.376,13.032 -11.232,13.032 l -20.952,0 0,-26.064 z m 28.657,11.772 c 0,-7.524 -2.34,-8.893 -6.66,-8.893 l -18.468,0 0,20.305 17.892,0 c 4.284,0 7.236,-0.937 7.236,-8.748 l 0,-2.664 z m 9.863,-11.772 3.528,0 0,26.064 -3.528,0 0,-26.064 z m 10.583,9.47 c 0,-6.59 2.232,-9.758 9.29,-9.758 l 15.01,0 c 7.058,0 9.29,3.168 9.29,9.757 l 0,7.128 c 0,6.59 -2.232,9.76 -9.29,9.76 l -15.01,0 c -7.058,0 -9.29,-3.17 -9.29,-9.755 l 0,-7.127 z m 30.06,-1.333 c 0,-4.53 -2.735,-5.54 -6.12,-5.54 l -14.29,0 c -3.384,0 -6.12,1.01 -6.12,5.545 l 0,9.793 c 0,4.536 2.736,5.544 6.12,5.544 l 14.293,0 c 3.385,0 6.12,-1.01 6.12,-5.544 l 0,-9.792 z m 9.108,9.72 3.312,0 0,1.84 c 0,2.555 1.368,3.78 5.76,3.78 l 10.944,0 c 5.112,0 6.624,-1.08 6.624,-4.825 0,-3.276 -1.296,-4.104 -5.688,-4.104 l -6.696,0 c -10.765,0 -14.292,-0.647 -14.292,-7.56 0,-5.94 3.527,-7.272 10.8,-7.272 l 7.596,0 c 8.748,0 10.944,2.232 10.944,6.876 l 0,0.9 -3.312,0 c -0.07,-4.14 -0.504,-4.896 -9.756,-4.896 l -3.744,0 c -6.804,0 -9.216,0.36 -9.216,4.645 0,3.098 0.972,4.14 6.48,4.14 l 10.44,0 c 6.875,0 9.756,1.98 9.756,6.41 l 0,1.69 c 0,6.41 -5.257,6.878 -10.477,6.878 l -9.792,0 c -5.143,0 -9.68,-0.9 -9.68,-6.587 l 0,-1.91 z m 15.624,-80.722 c 0,-3.798 3.06,-6.858 6.858,-6.858 3.78,0 6.857,3.06 6.857,6.857 0,3.797 -3.077,6.858 -6.857,6.858 -3.798,0 -6.858,-3.06 -6.858,-6.858 z m 12.15,0 c 0,-2.934 -2.395,-5.292 -5.292,-5.292 -2.952,0 -5.292,2.358 -5.292,5.292 0,2.934 2.34,5.292 5.292,5.292 2.898,0 5.292,-2.36 5.292,-5.293 z m -1.872,3.763 -1.764,0 -1.656,-3.044 -1.386,0 0,3.042 -1.566,0 0,-7.418 3.708,0 c 1.71,0 2.88,0.304 2.88,2.266 0,1.368 -0.702,1.926 -2.016,2.016 l 1.8,3.133 z m -2.628,-4.233 c 0.828,0.018 1.278,-0.18 1.278,-1.116 0,-0.88 -0.937,-0.88 -1.656,-0.88 l -1.8,0 0,1.998 2.178,0 z"
       id="path6" />
  </g>
</svg>
