<svg id="Layer_1" data-name="Layer 1" xmlns="http://www.w3.org/2000/svg" viewBox="0 0 791.21 483.54" width="404.510389649" height="247.212438936"><defs><style>.cls-1{fill:#0f0f0f}</style></defs><title>home_codemasters_logo</title><path class="cls-1" d="M537.16 390.55l-17.86-18.61c-5.5-5.71-6.48-15.8-2.25-22.52 22.38-34.17 53.42-81.84 53.42-81.84v-.05l4-6c8.56-13.11 6.48-33.9-4.66-46.66l-14.47-16.59c-5.51-6.32-12.43-9.89-19.49-10.05s-13.59 3.19-18.1 9.46l-62 86.25a11.93 11.93 0 0 1-9.3 5.22 13.32 13.32 0 0 1-10.24-4.41l-21.67-22.55c-6.15-6.42-7-17.06-2-23.66L478 153.1c4.77-6.22 6.92-14.65 6.07-23.76a43.57 43.57 0 0 0-10.45-24.62l-16-18.3c-5.99-6.94-13.68-11.18-21.62-11.92a23.34 23.34 0 0 0-20.48 8.26L408 91.64l-19.2 22.58-44.66 52.5c-5.5 6.48-15.4 6.2-22.07-.72l-21.87-22.77a20.26 20.26 0 0 1-5.6-12.55 16 16 0 0 1 3.81-12L372 37.86l25.79-28.34A43.14 43.14 0 0 1 410.29 0c-.14.08-.31.12-.46.21a27.81 27.81 0 0 0-3.73 2.12h-.08a.53.53 0 0 1-.1.06C389.46 13.76 307.74 69.93 282.2 87.5a37.79 37.79 0 0 0-3.2 2.42 40.37 40.37 0 0 0-6.28 5.35l-22.1 23.39L188.75 184a12.56 12.56 0 0 0-3.28 9.4 14.54 14.54 0 0 0 4.42 9.55l17.54 17.07a12.86 12.86 0 0 0 14.57 2.75c3.16-1.25 18.47-8.07 37.13-16.45l-44.64 50.31c-20 22.54-17.85 58.82 4.89 79.86l48.37 44.91a47.39 47.39 0 0 0 27.89 12.6c.89.11 3.93.21 4.37.21h242.9c1.15 0 2.2 0 3.16-.06a11 11 0 0 1-8.91-3.62m-32.1-54.31l-21.9 32.84c-9.46 14.17-23.24 23-39 24.8-16 1.78-31.94-4.06-44.71-16.56l-60.22-59.07c-28.5-27.95-31.93-75.61-7.82-104.56l70.67-84.85 26.31-31.6a10.6 10.6 0 0 1 9.25-3.83 15 15 0 0 1 9.91 5.34l16.18 18.37a20 20 0 0 1 4.81 11.29 15.38 15.38 0 0 1-2.81 10.86L399 224.42c-11.39 14.54-9.47 38.24 4.3 52.41l22 22.62c6.47 6.64 14.55 10 22.75 9.56s15.29-4.64 20.29-11.73l61-86.47a9.76 9.76 0 0 1 8.17-4.38 12.26 12.26 0 0 1 8.93 4.49l14.65 16.65c5.14 5.84 6.1 15.39 2.12 21.36l-58 87.09a2.25 2.25 0 0 1-.11.22M50.93 466.49c0 4.12 0 4.12-3.25 4.6-1.65.23-9.92.6-14.9.6-6.25 0-12.64-.2-15.66-.54s-3.19-.86-3.49-2.63c-.26-2.06-.71-9.36-.71-13.18 0-9.79 1.39-11.37 1.44-11.44.77-.55 4.27-1.47 19.1-1.47 11.48 0 14.91.88 15.63 1.11 1.21.47 1.5.57 1.55 4.08v4.75h12.45l-.05-3.2c-.13-7.8-.35-10.68-3.6-13.75-3.95-3.79-9.46-4.84-25.71-4.84-4 0-10.55.14-13.67.35-7.22.41-11 1-14.24 3.41C.92 438.07 0 445.44 0 457.76S1.26 475.71 4.85 479c4.26 3.92 10.55 4.52 29.92 4.52 15.18 0 20.9-.59 24.83-4.09 3.39-3.1 3.68-6.26 4-14.92l.13-3.28H51.12zM126 445.15a84 84 0 0 1 .67 12.22 77.67 77.67 0 0 1-.73 11.16c-.33 1.55-.85 2-2.45 2.29a125.81 125.81 0 0 1-16.82.87c-3.14 0-11.3-.2-13.89-.35-4.23-.27-6.11-.62-6.69-1.17-.81-.88-1.22-5.49-1.22-13.77 0-10.23 1.11-12.11 1.45-12.46 1.75-1.51 13.3-1.51 17.11-1.51 12.38 0 16.06.12 19.67.65 2.62.38 2.76 1.23 2.9 2.07m8.69-10c-4.19-3.94-10.51-4.6-27.44-4.6-4.31 0-12.87.21-15.89.35-6.49.41-10 1-13.4 3.39-5.12 3.76-6.06 10.54-6.06 22.55 0 8 .33 12.42 1.18 15.62a13.51 13.51 0 0 0 10.46 9.88c3.9.79 12.13 1.16 25.87 1.16 16.19 0 21.91-1 25.59-4.7 3.45-3.49 4.67-9.16 4.67-21.6 0-3.68-.24-8.5-.53-10.91-.51-4.85-1.46-8.41-4.45-11.14m27.7 7.28h24.07c5.34 0 7.39 0 8.78.11 4.48.3 5.57 1.13 6.2 1.81s2.23 3.39 2.23 12.39c0 13.28-3.26 14-5 14.41-2.37.53-2.4.54-11.85.54h-24.43zm24.21-11.71h-37.07v52.66h37.58c14 0 18.71-.6 23.24-4.59s6.29-10.43 6.29-21.76c0-10.42-.8-16.51-5.18-20.94-4.68-4.68-9.77-5.37-24.86-5.37m52.57 31.33h39.8v-11.71h-39.8v-7.91h41.58v-11.71h-54.43v52.66h54.49v-11.69h-41.64v-9.64zm92.97 5.54l-24.99-36.87H289.2v52.66h12.86v-37.79l25.8 37.79h8.62l25.34-37.52v37.52h12.85v-52.66h-18.01l-24.52 36.87zm75.25-5.71l11.25-18.69 11.14 18.69zm4.09-31.16l-31.63 52.66h14.78l5.84-9.78h36.15l5.82 9.78h14.62l-31.55-52.66zm90.92 20.65l-16.72-.06a58.44 58.44 0 0 1-11.1-.87c-1.72-.48-1.87-.51-1.87-3.49s0-4.8 19.2-4.8c8.1 0 11.28.73 12.28 1 1.89.6 1.89.6 1.89 4.45l12.86-.05c-.09-6.11-.86-9.78-4.93-12.82s-9.93-4.18-21.8-4.18c-4.47 0-11.36.26-15.31.72-5.53.61-8.94 1.39-12.29 4-2.24 1.72-4.9 5.13-4.9 11.6 0 14.17 10.58 16.08 20.91 16.08 23.13 0 23.6 0 25.51.62.76.23 1.35.44 1.35 3.68s-1.31 3.62-2.25 3.82c-2.52.56-8.86 1-15.09 1-12.88 0-15.91-.6-17.22-1.08-.22-.4-.39-1.83-.42-5.16l-12.61-.3c-.1 1-.11 2.21-.11 2.37 0 5.76 1 9.94 6.08 13 3.68 2.1 8.17 2.71 20.08 2.71 15.38 0 22.67-.71 27-2.68 5-2.42 7.52-7 7.52-14.09 0-4.27-.88-7.41-2.75-9.85-3.35-4.61-8.37-5.55-15.33-5.55m23.95-9.01h24.7v40.95h12.87v-40.95h24.53v-11.71h-62.1v11.71zm82.84 19.62H649v-11.71h-39.83v-7.91h41.58v-11.71h-54.42v52.66h54.49v-11.69h-41.65v-9.64zm62.91-19.62H693c10.56 0 13.79.23 15.09 1.11.18.19.93 1.38.93 4.24a14.54 14.54 0 0 1-.61 4.51c-.59 1-3.6 1.53-9.49 1.53h-26.84zm48-4.38c-2-3.74-5.9-6.14-10.84-6.75-3.55-.45-3.79-.45-16.26-.58h-33.77v52.66h12.87v-17.85H693c10.39.06 10.39.06 12.52.39 1.89.25 2.36 1.07 2.54 2.52.26 1.7.24 1.76.24 7.35v7.59h12.88v-9.75c0-7.53-.16-10.37-3-13.27 3.15-2.6 3.88-6.66 3.88-12.52 0-4.24-.55-7.06-1.93-9.79m68.34 18.86c-3.37-4.59-8.37-5.54-15.35-5.54l-16.71-.07c-6.58-.07-9.7-.53-11.1-.86-1.74-.48-1.87-.52-1.87-3.5 0-3.18 0-4.79 19.19-4.79 7.8 0 11 .65 12.27 1 1.93.6 1.93.6 1.93 4.44h12.84c-.11-6.12-.89-9.81-4.94-12.82s-9.92-4.18-21.82-4.18c-4.43 0-11.35.25-15.3.72-5.54.61-9 1.41-12.26 4-2.25 1.71-4.91 5.13-4.91 11.59 0 14.1 10.56 16.1 20.91 16.1 23.12 0 23.59 0 25.52.61.74.23 1.34.46 1.34 3.68s-1.31 3.63-2.24 3.83a94.1 94.1 0 0 1-15.09 1c-12.9 0-15.94-.6-17.21-1.08-.25-.37-.39-1.83-.44-5.16l-12.63.06c-.08.95-.09 1.86-.09 2 0 5.77 1 9.94 6.09 13 3.6 2.07 8.29 2.71 20 2.71 15.41 0 22.7-.7 27-2.68 5.08-2.44 7.55-7.05 7.55-14.09 0-4.26-.88-7.38-2.74-9.86"/></svg>