<?xml version="1.0" encoding="UTF-8" standalone="no"?>
<!-- Generator: Adobe Illustrator 13.0.0, SVG Export Plug-In . SVG Version: 6.00 Build 14948)  -->
<svg
   xmlns:dc="http://purl.org/dc/elements/1.1/"
   xmlns:cc="http://creativecommons.org/ns#"
   xmlns:rdf="http://www.w3.org/1999/02/22-rdf-syntax-ns#"
   xmlns:svg="http://www.w3.org/2000/svg"
   xmlns="http://www.w3.org/2000/svg"
   xmlns:sodipodi="http://sodipodi.sourceforge.net/DTD/sodipodi-0.dtd"
   xmlns:inkscape="http://www.inkscape.org/namespaces/inkscape"
   version="1.0"
   id="Ebene_1"
   x="0px"
   y="0px"
   width="500"
   height="100"
   viewBox="0 0 192.756 192.756"
   enable-background="new 0 0 192.756 192.756"
   xml:space="preserve"
   sodipodi:version="0.32"
   inkscape:version="0.46"
   sodipodi:docname="Codemasters_Logo1.svg"
   inkscape:output_extension="org.inkscape.output.svg.inkscape"><metadata
   id="metadata72"><rdf:RDF><cc:Work
       rdf:about=""><dc:format>image/svg+xml</dc:format><dc:type
         rdf:resource="http://purl.org/dc/dcmitype/StillImage" /></cc:Work></rdf:RDF></metadata><defs
   id="defs70"><inkscape:perspective
   sodipodi:type="inkscape:persp3d"
   inkscape:vp_x="0 : 96.377998 : 1"
   inkscape:vp_y="0 : 1000 : 0"
   inkscape:vp_z="192.756 : 96.377998 : 1"
   inkscape:persp3d-origin="96.377998 : 64.251999 : 1"
   id="perspective74" />
	
	
	
	
	
	
	
	
	
	
	
	
	
	
	
	
	
	
	
	
	
	
	
	
	
	
	
	
	
	
	
	
</defs><sodipodi:namedview
   inkscape:window-height="750"
   inkscape:window-width="1264"
   inkscape:pageshadow="2"
   inkscape:pageopacity="0.0"
   guidetolerance="10.0"
   gridtolerance="10.0"
   objecttolerance="10.0"
   borderopacity="1.0"
   bordercolor="#666666"
   pagecolor="#ffffff"
   id="base"
   showgrid="false"
   inkscape:zoom="1.1984063"
   inkscape:cx="245.1372"
   inkscape:cy="58.050243"
   inkscape:window-x="0"
   inkscape:window-y="14"
   inkscape:current-layer="Ebene_1" />
<g
   id="g2409"
   transform="matrix(1.4203907,0,0,1.4203907,-35.15922,13.604142)"><path
     clip-rule="evenodd"
     d="M 366.81901,-1.3322676e-15 L -181.59872,-1.3322676e-15 C -213.78224,-1.3322676e-15 -239.87413,26.091888 -239.87413,58.275414 C -239.87413,90.45894 -213.78224,116.55083 -181.59872,116.55083 L 366.81523,116.55083 C 398.99875,116.55083 425.08686,90.45894 425.08686,58.275414 C 425.08686,26.091888 398.99875,-1.3322676e-15 366.81901,-1.3322676e-15 L 366.81901,-1.3322676e-15 z"
     id="path7"
     style="fill-rule:evenodd" /><path
     clip-rule="evenodd"
     d="M 391.44664,80.2545 C 391.46555,80.273418 391.49582,80.277202 391.51474,80.299903 C 391.42772,80.186395 390.93963,79.490207 390.5083,78.873476 C 388.37811,75.823873 388.37811,75.823873 387.69328,75.918464 C 387.29978,75.967651 386.96304,76.236289 386.82683,76.614651 C 382.66106,88.014718 380.56114,92.615607 379.50929,94.462017 C 378.41204,90.462724 378.18124,80.492868 378.06395,75.324435 C 377.87855,67.148018 377.73477,64.143819 376.86076,62.535777 C 375.60838,60.235332 373.44036,59.785081 372.15014,59.883455 C 372.16149,59.883455 372.16906,59.875888 372.18041,59.875888 C 370.23563,59.959128 367.4698,61.188806 357.75344,67.666375 C 357.6929,67.707995 357.6702,67.715562 357.6248,67.742047 C 353.82225,62.482807 356.33837,35.036381 362.63432,26.852397 C 364.49586,24.430876 367.48493,20.745624 367.5152,20.707787 C 367.81411,20.336992 367.83681,19.814852 367.56817,19.425138 C 367.29575,19.031641 366.80009,18.868945 366.34984,19.02029 C 366.14553,19.088395 361.30627,20.722922 357.20482,24.131969 C 347.26523,32.402977 333.16365,46.750488 325.5283,75.793604 C 325.50181,75.888195 325.47911,75.967651 325.45262,76.058458 C 325.411,75.35092 325.39209,74.545008 325.40344,73.610452 C 325.61154,60.193713 334.99493,30.63224 359.31986,8.4337028 C 361.45383,6.481352 364.19696,3.6928194 364.22723,3.666334 C 364.56397,3.322024 364.62829,2.7923163 364.38614,2.3761174 C 364.14399,1.9599185 363.64833,1.7556027 363.18295,1.884246 C 362.97485,1.9410004 358.05613,3.2955386 353.96603,5.5732817 C 331.89992,17.896553 317.29134,33.802918 310.54892,52.857261 C 303.73839,72.100785 307.32905,88.336326 309.1906,94.424181 C 312.28182,104.5416 317.60538,110.56513 323.07272,110.1338 C 326.34556,109.88029 330.5643,107.32256 332.08532,96.599766 C 334.38198,80.383143 339.70176,66.697766 343.28107,60.121824 C 343.25459,60.655315 343.22432,61.185023 343.20162,61.729865 C 343.16378,62.61145 343.12216,63.523304 343.0654,64.491912 C 341.98707,81.877676 341.71843,92.600473 347.07605,94.825245 C 350.93913,96.43707 354.46925,92.464262 355.62704,91.158911 L 359.02852,87.31853 C 363.11484,82.698722 366.75091,78.589704 368.74109,76.818967 C 369.10432,78.61619 369.4789,81.268512 369.77402,83.349506 C 371.27612,93.973929 372.53985,101.12498 376.27429,103.64866 C 377.6364,104.57186 379.22931,104.76105 380.75032,104.17837 C 385.79768,102.24872 389.80454,88.98711 391.74176,81.253377 C 391.82878,80.875015 391.70014,80.511786 391.44664,80.2545 L 391.44664,80.2545 L 391.44664,80.2545 z M 391.15151,80.042617 C 391.09854,80.016131 391.04935,79.982079 390.98882,79.963161 C 391.04935,79.982079 391.09854,80.016131 391.15151,80.042617 L 391.15151,80.042617 L 391.15151,80.042617 z M 390.49695,79.944242 C 390.46668,79.948026 390.44019,79.963161 390.41371,79.970728 C 390.43641,79.966944 390.45154,79.948026 390.47424,79.940459 C 390.48181,79.940459 390.48559,79.944242 390.49695,79.944242 L 390.49695,79.944242 z"
     id="path9"
     style="fill-rule:evenodd" /><path
     stroke-miterlimit="2.6131"
     d="M 391.44664,80.2545 C 391.46555,80.273418 391.49582,80.277202 391.51474,80.299903 C 391.42772,80.186395 390.93963,79.490207 390.5083,78.873476 C 388.37811,75.823873 388.37811,75.823873 387.69328,75.918464 C 387.29978,75.967651 386.96304,76.236289 386.82683,76.614651 C 382.66106,88.014718 380.56114,92.615607 379.50929,94.462017 C 378.41204,90.462724 378.18124,80.492868 378.06395,75.324435 C 377.87855,67.148018 377.73477,64.143819 376.86076,62.535777 C 375.60838,60.235332 373.44036,59.785081 372.15014,59.883455 C 372.16149,59.883455 372.16906,59.875888 372.18041,59.875888 C 370.23563,59.959128 367.4698,61.188806 357.75344,67.666375 C 357.6929,67.707995 357.6702,67.715562 357.6248,67.742047 C 353.82225,62.482807 356.33837,35.036381 362.63432,26.852397 C 364.49586,24.430876 367.48493,20.745624 367.5152,20.707787 C 367.81411,20.336992 367.83681,19.814852 367.56817,19.425138 C 367.29575,19.031641 366.80009,18.868945 366.34984,19.02029 C 366.14553,19.088395 361.30627,20.722922 357.20482,24.131969 C 347.26523,32.402977 333.16365,46.750488 325.5283,75.793604 C 325.50181,75.888195 325.47911,75.967651 325.45262,76.058458 C 325.411,75.35092 325.39209,74.545008 325.40344,73.610452 C 325.61154,60.193713 334.99493,30.63224 359.31986,8.4337028 C 361.45383,6.481352 364.19696,3.6928194 364.22723,3.666334 C 364.56397,3.322024 364.62829,2.7923163 364.38614,2.3761174 C 364.14399,1.9599185 363.64833,1.7556027 363.18295,1.884246 C 362.97485,1.9410004 358.05613,3.2955386 353.96603,5.5732817 C 331.89992,17.896553 317.29134,33.802918 310.54892,52.857261 C 303.73839,72.100785 307.32905,88.336326 309.1906,94.424181 C 312.28182,104.5416 317.60538,110.56513 323.07272,110.1338 C 326.34556,109.88029 330.5643,107.32256 332.08532,96.599766 C 334.38198,80.383143 339.70176,66.697766 343.28107,60.121824 C 343.25459,60.655315 343.22432,61.185023 343.20162,61.729865 C 343.16378,62.61145 343.12216,63.523304 343.0654,64.491912 C 341.98707,81.877676 341.71843,92.600473 347.07605,94.825245 C 350.93913,96.43707 354.46925,92.464262 355.62704,91.158911 L 359.02852,87.31853 C 363.11484,82.698722 366.75091,78.589704 368.74109,76.818967 C 369.10432,78.61619 369.4789,81.268512 369.77402,83.349506 C 371.27612,93.973929 372.53985,101.12498 376.27429,103.64866 C 377.6364,104.57186 379.22931,104.76105 380.75032,104.17837 C 385.79768,102.24872 389.80454,88.98711 391.74176,81.253377 C 391.82878,80.875015 391.70014,80.511786 391.44664,80.2545 M 391.15151,80.042617 C 391.09854,80.016131 391.04935,79.982079 390.98882,79.963161 C 391.04935,79.982079 391.09854,80.016131 391.15151,80.042617 M 390.49695,79.944242 C 390.46668,79.948026 390.44019,79.963161 390.41371,79.970728 C 390.43641,79.966944 390.45154,79.948026 390.47424,79.940459 C 390.48181,79.940459 390.48559,79.944242 390.49695,79.944242 L 390.49695,79.944242 z"
     id="path11"
     style="fill:none;stroke:#000000;stroke-width:1.5111804;stroke-miterlimit:2.61310005" /><path
     clip-rule="evenodd"
     d="M 149.43454,45.8235 L 149.43454,44.835973 C 154.55379,43.038751 158.50011,39.266475 161.37566,33.072679 C 161.73511,32.266766 162.09455,31.366263 162.454,30.469544 L 163.26369,30.469544 L 163.26369,43.220365 L 172.7833,43.220365 L 172.7833,45.8235 L 163.44531,45.8235 L 163.44531,74.200698 C 163.44531,81.745249 165.51117,84.166769 170.27097,83.27005 C 171.79577,83.001413 173.23355,82.104693 174.31188,80.666915 C 174.48971,80.489085 174.67133,80.216664 174.85294,79.948026 L 175.84047,80.216664 C 175.57183,80.666915 175.39022,81.02636 175.21239,81.385804 C 174.04325,83.183027 172.96491,84.439191 171.89036,85.517524 C 166.41167,90.723794 159.4044,89.108186 156.80504,83.001413 C 156.26399,81.654442 156.08616,80.576108 156.08616,77.526505 L 156.08616,45.827283 L 149.43454,45.827283 L 149.43454,45.8235 z"
     id="path13"
     style="fill:#ffffff;fill-rule:evenodd" /><path
     clip-rule="evenodd"
     d="M -148.75684,22.387718 L -147.86012,22.478525 L -147.86012,44.030061 L -148.75684,44.211675 C -149.2979,40.348592 -150.8227,36.757931 -153.60745,33.435907 C -157.47053,28.676105 -162.49897,26.07297 -168.60196,25.622718 C -183.0592,24.544385 -194.73547,36.5801 -193.20688,59.565631 C -192.03774,77.076254 -180.18742,86.773688 -165.27994,84.529998 C -158.81372,83.542471 -153.42584,80.489085 -148.57523,74.741756 C -148.03417,74.113674 -147.5877,73.481809 -147.13745,72.85751 L -146.41856,73.485592 C -146.86881,74.204481 -147.31528,74.92337 -147.85634,75.642259 C -151.98806,81.207974 -156.38841,84.624588 -161.95413,86.686665 C -170.57323,90.008689 -180.00581,89.198993 -188.80653,83.905699 C -196.35108,79.414535 -201.64815,71.601346 -203.44159,61.994719 C -207.03225,42.686873 -194.82249,25.626502 -175.51465,22.841753 C -170.3954,22.126647 -165.27615,22.573115 -160.42933,24.010893 L -159.97908,24.188724 L -155.66953,25.713525 C -152.25669,26.973473 -151.09134,26.701052 -149.47195,23.560642 L -148.75684,22.387718 L -148.75684,22.387718 z"
     id="path15"
     style="fill:#ffffff;fill-rule:evenodd" /><path
     clip-rule="evenodd"
     d="M -141.3031,66.478316 C -141.3031,64.681094 -141.12148,62.887655 -140.85284,61.090432 C -137.62163,44.92678 -121.27636,38.101118 -108.97201,46.095921 C -107.98448,46.724003 -106.99696,47.439108 -106.10024,48.248804 C -100.89397,53.186437 -98.287051,60.821795 -99.634022,69.440896 C -100.17508,72.312668 -101.15882,75.101201 -102.5966,77.613529 C -107.62504,86.054799 -114.98797,89.645461 -124.05733,88.389297 C -132.04835,87.310963 -138.69618,81.117167 -140.76204,71.415949 C -141.12148,69.80034 -141.3031,68.184732 -141.3031,66.478316 L -141.3031,66.478316 L -141.3031,66.478316 z M -132.77102,69.440896 C -132.14294,73.75423 -131.0646,76.713025 -129.5398,79.319944 C -125.04864,86.864495 -116.07009,87.583384 -111.4011,81.836056 C -107.89746,77.526505 -106.28185,70.250592 -107.98827,60.912602 C -108.34771,58.846742 -108.88499,57.049519 -109.51685,55.433911 C -110.50438,53.19022 -111.58271,51.483805 -112.74807,50.136834 C -118.13595,43.579809 -126.75884,44.389505 -130.3495,50.942746 C -132.14672,53.996133 -132.95263,57.140326 -133.22505,61.809321 C -133.31208,63.156292 -133.31208,64.503263 -133.22505,65.759427 C -133.13046,67.019375 -132.95263,68.275539 -132.77102,69.440896 L -132.77102,69.440896 z"
     id="path17"
     style="fill:#ffffff;fill-rule:evenodd" /><path
     clip-rule="evenodd"
     d="M -61.828027,46.455365 L -61.828027,36.126065 L -61.828027,35.497983 L -61.828027,32.717018 C -61.918834,29.035549 -64.162524,27.597771 -67.034297,28.853935 L -67.753186,29.122573 L -68.11263,29.300403 L -68.649905,28.131262 L -54.374283,21.933682 L -54.374283,76.088727 L -54.374283,78.691862 L -54.374283,78.9605 C -54.196452,81.563635 -52.217616,83.09222 -49.168013,82.460354 C -48.808568,82.373331 -48.449124,82.282524 -48.089679,82.104693 L -47.821042,83.09222 L -60.034588,88.480104 L -61.563173,88.480104 L -61.563173,81.836056 C -63.087974,83.633278 -64.79439,85.067273 -66.86025,86.236413 C -77.817632,92.433993 -89.399312,86.595858 -91.374365,71.147311 C -91.824617,68.093925 -91.73381,64.953515 -91.105728,61.900128 C -88.052341,45.377032 -73.504298,38.732984 -63.625249,45.195418 L -62.546916,45.8235 L -61.828027,46.455365 L -61.828027,46.455365 L -61.828027,46.455365 z M -63.806863,49.145524 C -66.050554,46.00133 -69.913636,44.567336 -74.13238,45.464055 C -79.070012,46.542389 -82.933095,51.211384 -83.920621,60.371543 C -84.098452,62.615234 -84.098452,64.949731 -83.920621,67.197205 C -82.842288,77.704336 -77.723041,82.910606 -71.256824,83.09222 C -69.368794,83.183027 -67.575355,82.732775 -66.050554,82.013886 C -62.369085,80.216664 -61.828027,79.319944 -61.828027,75.816306 L -61.828027,56.421437 C -61.828027,52.649162 -62.191255,51.211384 -63.806863,49.145524 L -63.806863,49.145524 z"
     id="path19"
     style="fill:#ffffff;fill-rule:evenodd" /><path
     clip-rule="evenodd"
     d="M -8.4107894,59.925075 L -35.891268,59.925075 C -35.982075,61.003409 -35.982075,61.990935 -35.891268,63.069269 C -35.800461,65.58538 -35.350209,68.006901 -34.635104,70.163568 C -31.044442,81.298781 -22.330751,84.439191 -14.158118,78.873476 C -11.914427,77.435698 -9.9393744,75.192008 -8.5924034,72.585089 C -8.323766,72.138621 -8.1421519,71.68837 -7.9643215,71.238118 L -6.976795,71.415949 C -7.1546254,71.953223 -7.2454324,72.494282 -7.4270465,73.122364 C -7.8772981,74.737972 -8.50538,76.266558 -9.2242691,77.700552 C -10.480433,80.303687 -11.918211,82.191716 -13.624627,83.898132 C -21.706452,91.798344 -33.919998,89.645461 -39.126268,79.675605 C -40.473239,77.07247 -41.369959,74.378528 -41.911017,71.684586 C -45.142234,54.624215 -34.994548,42.501476 -23.772312,42.679306 C -22.603172,42.770113 -21.528622,42.86092 -20.359481,43.129558 C -13.53382,44.745166 -9.4058831,49.682798 -8.50538,57.673817 C -8.4107894,58.487297 -8.4107894,59.202402 -8.4107894,59.925075 L -8.4107894,59.925075 L -8.4107894,59.925075 z M -17.574732,57.408964 C -17.574732,56.867905 -17.574732,56.421437 -17.661756,55.884162 C -17.752563,53.640472 -18.202814,51.843249 -19.008727,50.314664 C -21.343224,45.377032 -27.272167,44.298698 -31.937378,48.430418 C -33.643794,49.95522 -34.990765,52.202694 -35.709654,55.524718 C -35.887484,56.1528 -35.978291,56.780882 -36.069098,57.412747 L -17.574732,57.412747 L -17.574732,57.408964 z"
     id="path21"
     style="fill:#ffffff;fill-rule:evenodd" /><path
     clip-rule="evenodd"
     d="M -2.4931977,48.786079 L 12.054846,42.592283 L 12.054846,51.752442 L 12.860759,50.851939 L 14.120706,49.504968 C 14.657981,49.054716 15.108233,48.517442 15.645508,48.06719 C 17.351923,46.451582 18.248643,45.732693 19.417783,45.013803 C 26.78072,40.076171 34.416078,42.86092 36.659769,50.848155 C 36.837599,51.298407 36.928406,51.748658 37.019213,52.285933 L 37.738102,51.480021 L 39.353711,49.773606 C 42.13846,46.629412 43.667045,45.464055 46.360987,44.026277 C 53.633117,40.163194 61.177668,43.848447 62.611662,52.467547 C 62.884083,53.814518 62.971107,55.252297 62.971107,56.958712 L 62.971107,79.406967 L 62.971107,80.753938 L 62.971107,80.931769 C 62.971107,81.200406 62.971107,81.563635 63.05813,81.832272 C 63.508382,84.885658 65.214797,86.501267 67.727125,86.592074 C 67.995762,86.592074 68.268184,86.592074 68.623844,86.592074 L 68.623844,87.848238 L 49.047361,87.848238 L 49.047361,86.592074 C 49.315999,86.592074 49.675443,86.592074 50.034888,86.592074 C 53.088274,86.501267 54.703883,84.794851 55.331965,80.931769 L 55.513579,79.406967 L 55.513579,57.673817 L 55.513579,55.248513 L 55.513579,54.889068 C 55.422772,54.260986 55.331965,53.632904 55.154134,53.091846 C 53.629333,48.15043 48.510086,46.266184 41.684424,50.21629 C 40.606091,50.844372 40.068816,51.38543 38.271593,53.091846 L 37.284067,54.170179 C 37.374874,54.889068 37.465681,55.51715 37.552704,56.236039 L 37.465681,59.467256 L 37.552704,79.403184 L 37.465681,80.927985 C 37.465681,81.378237 37.552704,82.006319 37.825126,82.903038 C 38.453208,85.146729 40.25043,86.4937 42.675735,86.584507 C 43.035179,86.584507 43.303817,86.584507 43.663261,86.4937 L 43.663261,87.840671 L 23.727334,87.840671 L 23.727334,86.4937 C 23.995971,86.584507 24.355416,86.584507 24.624053,86.584507 C 27.67744,86.4937 29.383855,84.700261 29.830323,80.924202 L 30.008153,79.3994 L 30.008153,57.757057 C 30.008153,56.410086 29.92113,54.885285 29.648709,53.538314 C 28.839013,48.687705 23.091684,46.175377 16.447636,50.303313 C 15.369303,50.935179 14.294753,51.831898 13.129396,52.997255 L 12.588337,53.629121 L 12.047279,54.166396 L 12.047279,79.3994 L 12.047279,79.849652 L 12.138086,80.927985 C 12.49753,84.613237 14.290969,86.497483 17.257332,86.58829 C 17.616777,86.58829 17.885414,86.58829 18.244859,86.497483 L 18.244859,87.844454 L -2.2283438,87.844454 L -2.2283438,86.58829 C -1.9597064,86.58829 -1.5964782,86.58829 -1.2408173,86.58829 C 2.1720137,86.497483 4.1470666,84.52243 4.5065112,80.927985 L 4.5935346,80.031266 L 4.5935346,79.403184 L 4.5935346,77.2503 L 4.5935346,56.773314 L 4.5935346,55.51715 L 4.5065112,53.364267 C 4.4157041,49.769822 2.0812066,48.24502 -0.88137283,49.501184 L -1.6002619,49.860629 L -1.9597064,50.038459 L -2.4931977,48.786079 L -2.4931977,48.786079 z"
     id="path23"
     style="fill:#ffffff;fill-rule:evenodd" /><path
     clip-rule="evenodd"
     d="M 97.901547,59.474824 L 97.901547,53.277244 C 97.901547,52.917799 97.901547,52.558355 97.810737,52.19891 C 97.095637,47.620722 95.476241,45.641885 91.972603,44.835973 C 89.010023,44.207891 86.588503,44.922996 84.96911,46.901833 C 83.890777,48.157997 83.262695,49.773606 83.262695,50.942746 L 83.262695,51.120576 L 83.531332,52.558355 C 83.531332,52.826992 83.531332,53.277244 83.531332,54.173963 C 83.444309,54.983659 83.171888,55.789571 82.72542,56.417653 C 81.465472,58.392706 78.5937,58.483513 77.068899,56.417653 C 75.271676,54.083156 75.631121,50.938962 79.134759,47.257494 C 81.469256,44.741382 85.241532,43.038751 90.092141,42.588499 C 91.079667,42.497692 92.067194,42.497692 93.145527,42.588499 C 101.40897,43.129558 105.35908,47.348301 105.35908,54.620431 L 105.35908,78.506464 L 105.35908,80.122073 C 105.35908,80.39071 105.35908,80.663131 105.35908,80.927985 C 105.6315,82.725208 107.51574,83.712734 110.02807,82.638184 C 110.74696,82.27874 111.46585,81.737681 112.00312,81.109599 L 112.71823,82.27874 C 112.45338,82.728991 112.17717,83.084652 111.91232,83.534904 C 110.56535,85.241319 109.12757,86.497483 107.41737,87.48501 C 103.7359,89.637893 99.963617,88.290922 98.979877,85.150512 C 98.802047,84.431623 98.620437,83.712734 98.529627,82.993845 L 98.351797,81.28743 L 98.260987,80.837178 C 97.810737,81.28743 97.273467,81.737681 96.736187,82.184149 C 94.310884,84.250009 92.335831,85.59698 90.179164,86.853144 C 82.997841,90.80325 76.262986,87.659057 74.825208,80.386927 C 73.565261,73.920709 76.440817,69.0701 84.882087,65.029187 L 88.563556,63.235748 L 89.641889,62.785497 C 91.075883,62.153631 92.695276,61.438526 94.401691,60.810444 L 96.198914,60.091555 L 97.901547,59.474824 L 97.901547,59.474824 L 97.901547,59.474824 z M 94.938966,62.974678 L 93.860633,63.42493 L 90.807246,64.862708 C 87.485222,66.391293 86.316081,67.106398 85.241532,68.006901 C 82.365976,70.523013 81.378449,72.85751 81.737894,76.179534 C 81.915724,77.704336 82.278952,78.782669 82.816227,79.679389 C 85.150725,83.720302 88.923,84.711612 94.401691,81.567418 C 95.748662,80.848529 96.917807,79.861003 97.905327,78.691862 L 97.905327,61.990935 C 96.732407,62.346596 95.744878,62.706041 94.938966,62.974678 L 94.938966,62.974678 z"
     id="path25"
     style="fill:#ffffff;fill-rule:evenodd" /><path
     clip-rule="evenodd"
     d="M 140.81922,42.770113 L 142.07539,42.770113 L 142.07539,56.50846 L 141.08786,56.595484 C 140.99705,55.967402 140.90625,55.33932 140.72842,54.707454 C 139.29064,49.31957 136.6875,46.625628 132.64281,45.638102 C 130.75856,45.278657 128.87431,45.278657 127.43654,45.551078 C 123.21401,46.629412 121.23896,51.38543 123.48265,55.070682 C 124.38315,56.595484 125.54851,57.673817 128.42406,59.47104 L 128.78351,59.64887 L 133.18386,62.074175 C 133.81195,62.433619 134.44003,62.793064 135.06811,63.152508 C 139.56306,66.024281 141.4473,67.730696 142.70347,69.974387 C 145.48822,74.915803 145.48822,78.865909 142.52564,83.357073 C 140.90625,85.873185 138.12528,87.666624 134.08437,88.385513 C 131.74987,88.835764 128.96512,88.744957 124.74638,87.5796 L 123.57724,87.310963 L 122.4081,86.951519 L 122.13946,86.860711 L 120.61466,86.679097 C 119.44552,86.501267 118.6396,87.038542 118.6396,88.026068 L 117.82991,88.026068 L 117.82991,72.759136 L 118.72663,72.759136 C 118.81744,73.750446 118.90824,74.734189 119.17688,75.725499 C 120.16441,79.31616 122.23027,82.369547 124.92421,84.075962 C 126.99007,85.422933 129.14295,86.141822 131.3034,86.141822 C 136.42265,86.051015 139.29442,82.191716 137.94745,77.159493 C 137.50098,75.543885 136.60426,74.287721 134.5384,72.581305 C 133.99734,72.221861 133.54709,71.862416 133.10062,71.502972 L 132.65037,71.325141 L 129.41916,69.259281 L 127.3533,67.999334 L 125.7339,67.011807 C 118.82122,62.880087 116.39213,58.211092 117.56505,52.554571 C 118.37097,48.332044 121.24652,45.01002 125.55229,43.485218 C 128.42785,42.406885 130.31588,42.406885 134.44381,43.485218 L 134.71245,43.572242 L 137.04695,44.291131 C 137.67503,44.472745 138.30311,44.559768 138.84417,44.650575 C 140.19114,44.835973 141.08786,43.939254 140.81922,42.770113 L 140.81922,42.770113 z"
     id="path27"
     style="fill:#ffffff;fill-rule:evenodd" /><path
     clip-rule="evenodd"
     d="M 212.3676,59.925075 L 184.88712,59.925075 C 184.8001,61.003409 184.8001,61.990935 184.88712,63.069269 C 184.97793,65.58538 185.42818,68.006901 186.14707,70.163568 C 189.73394,81.298781 198.44764,84.439191 206.61649,78.873476 C 208.86396,77.435698 210.83901,75.192008 212.18598,72.585089 C 212.45462,72.138621 212.63624,71.68837 212.81407,71.238118 L 213.80538,71.415949 C 213.62376,71.953223 213.53674,72.494282 213.35512,73.122364 C 212.90866,74.737972 212.28057,76.266558 211.5579,77.700552 C 210.30174,80.303687 208.86396,82.191716 207.16133,83.898132 C 199.07572,91.798344 186.86596,89.645461 181.6559,79.675605 C 180.31272,77.07247 179.41221,74.378528 178.87494,71.684586 C 175.64372,54.624215 185.78762,42.501476 197.01364,42.679306 C 198.18278,42.770113 199.26112,42.86092 200.42647,43.129558 C 207.25214,44.745166 211.38386,49.682798 212.28057,57.673817 C 212.3676,58.487297 212.3676,59.202402 212.3676,59.925075 L 212.3676,59.925075 L 212.3676,59.925075 z M 203.20744,57.408964 C 203.20744,56.867905 203.20744,56.421437 203.12042,55.884162 C 203.02961,53.640472 202.57936,51.843249 201.77344,50.314664 C 199.43895,45.377032 193.51,44.298698 188.84101,48.430418 C 187.13838,49.95522 185.78762,52.202694 185.07252,55.524718 C 184.8909,56.1528 184.80388,56.780882 184.71307,57.412747 L 203.20744,57.412747 L 203.20744,57.408964 z"
     id="path29"
     style="fill:#ffffff;fill-rule:evenodd" /><path
     clip-rule="evenodd"
     d="M 217.66089,87.848238 L 217.66089,86.592074 C 218.02034,86.592074 218.376,86.592074 218.83003,86.592074 C 222.69311,86.501267 224.9368,84.435407 225.20544,80.931769 L 225.29625,79.766412 L 225.29625,78.419441 L 225.29625,56.777098 L 225.20544,53.368051 C 225.20544,49.686582 223.05256,48.335827 220.26781,49.504968 L 219.45811,49.864413 L 219.18948,50.042243 L 218.6522,48.782295 L 233.01863,42.588499 L 233.01863,51.116793 L 233.28727,50.579518 L 234.00237,49.501184 C 235.34934,47.257494 236.33687,46.00133 237.50601,45.100827 C 239.57187,43.394411 241.54692,42.675522 243.52198,42.584715 C 247.56289,42.493908 250.079,45.997546 249.00067,48.778512 C 247.92234,51.831898 244.78193,52.550787 242.71607,50.753565 L 242.17501,50.303313 L 241.81556,49.943869 C 239.56809,47.790985 238.40273,47.790985 235.52718,50.39412 C 233.37429,52.36539 232.74621,53.803168 232.74621,56.856554 L 232.74621,79.395617 L 232.74621,80.023699 L 232.83323,80.920418 C 233.19268,84.424056 235.43637,86.489916 239.6589,86.580723 C 240.10915,86.580723 240.46859,86.580723 240.91506,86.580723 L 240.91506,87.836887 L 217.66089,87.836887 L 217.66089,87.848238 z"
     id="path31"
     style="fill:#ffffff;fill-rule:evenodd" /><path
     clip-rule="evenodd"
     d="M 277.36273,42.770113 L 278.6189,42.770113 L 278.6189,56.50846 L 277.63137,56.595484 C 277.54056,55.967402 277.44976,55.33932 277.27193,54.707454 C 275.83415,49.31957 273.23101,46.625628 269.18632,45.638102 C 267.30207,45.278657 265.41782,45.278657 263.98005,45.551078 C 259.75752,46.629412 257.78247,51.38543 260.02994,55.070682 C 260.92288,56.595484 262.09202,57.673817 264.96757,59.47104 L 265.32702,59.64887 L 269.72737,62.074175 C 270.35546,62.433619 270.98732,62.793064 271.61162,63.152508 C 276.10657,66.024281 277.99081,67.730696 279.24698,69.974387 C 282.03173,74.915803 282.03173,78.865909 279.06915,83.357073 C 277.44976,85.873185 274.66879,87.666624 270.62788,88.385513 C 268.29338,88.835764 265.50863,88.744957 261.28989,87.5796 L 260.12075,87.310963 L 258.95161,86.951519 L 258.68297,86.860711 L 257.15817,86.679097 C 255.98903,86.501267 255.18311,87.038542 255.18311,88.026068 L 254.37342,88.026068 L 254.37342,72.759136 L 255.27014,72.759136 C 255.35716,73.750446 255.45175,74.734189 255.72039,75.725499 C 256.70792,79.31616 258.77378,82.369547 261.46772,84.075962 C 263.53358,85.422933 265.68646,86.141822 267.84691,86.141822 C 272.96616,86.051015 275.83793,82.191716 274.49096,77.159493 C 274.04449,75.543885 273.14399,74.287721 271.08191,72.581305 C 270.54085,72.221861 270.0906,71.862416 269.64413,71.502972 L 269.19388,71.325141 L 265.96267,69.259281 L 263.89681,67.999334 L 262.2812,67.011807 C 255.36473,62.880087 252.93942,58.211092 254.10856,52.554571 C 254.91826,48.332044 257.79382,45.01002 262.09958,43.485218 C 264.97514,42.406885 266.86317,42.406885 270.99489,43.485218 L 271.25974,43.572242 L 273.59424,44.291131 C 274.22232,44.472745 274.85419,44.559768 275.39146,44.650575 C 276.73465,44.835973 277.63137,43.939254 277.36273,42.770113 L 277.36273,42.770113 z"
     id="path33"
     style="fill:#ffffff;fill-rule:evenodd" /><path
     clip-rule="evenodd"
     d="M 358.59341,7.6996798 C 334.5636,29.629579 324.55212,59.296993 324.33267,73.652072 C 324.27592,77.167061 324.6959,79.187517 325.05534,80.197745 C 325.43371,79.550745 325.97098,78.351336 326.55366,76.126563 C 334.41225,46.247266 349.37649,32.088936 357.8783,25.017338 C 361.87381,21.695314 366.67523,20.098624 366.67523,20.098624 C 366.67523,20.098624 363.67103,23.802794 361.77922,26.262151 C 355.50975,34.412082 352.38826,62.967111 356.86429,68.60093 C 357.17833,68.994428 357.38265,69.255498 358.3399,68.616065 C 367.7914,62.316327 370.51183,61.079081 372.22203,61.007192 C 372.15014,61.010976 372.08204,61.018543 372.01015,61.029894 C 372.95984,60.878549 374.84408,61.15097 375.91107,63.110889 C 376.66779,64.503263 376.80778,67.590702 376.98562,75.411458 C 377.14831,82.475488 377.41695,94.223648 379.24444,96.599766 C 380.91302,95.555485 385.11284,84.48081 387.82949,77.045985 C 387.85597,76.966528 390.67856,81.098248 390.68991,81.056629 C 389.60401,85.396448 385.38148,101.31795 380.36061,103.24003 C 379.17634,103.69028 377.93152,103.54272 376.86454,102.82383 C 373.50846,100.54987 372.24473,93.285309 370.82587,83.258699 C 370.39832,80.231798 369.87618,76.573031 369.38809,75.078499 C 367.78384,75.854142 363.67482,80.496652 358.21504,86.67153 L 354.81735,90.511911 C 353.78442,91.677268 350.64022,95.214959 347.47711,93.90204 C 342.7892,91.949689 343.10702,81.041494 344.12482,64.620555 C 344.314,61.631491 344.29887,59.183484 344.65074,56.625753 C 344.66966,56.500893 344.56372,56.292794 344.56372,56.183069 C 341.09792,60.413163 333.82579,76.750862 331.02212,96.508959 C 329.60326,106.53178 325.87261,108.90033 322.98948,109.12735 C 318.11996,109.5095 313.10665,103.63731 310.21218,94.170678 C 304.15081,74.344475 305.09671,34.147228 354.48439,6.5721591 C 358.50638,4.3284686 363.45915,2.977714 363.45915,2.977714 C 363.45915,2.977714 360.73494,5.7473285 358.59341,7.6996798 L 358.59341,7.6996798 z"
     id="path35"
     style="fill:#ffffff;fill-rule:evenodd" /><path
     clip-rule="evenodd"
     d="M 356.73943,7.3591538 C 310.79864,50.250342 323.21272,100.55365 328.38872,76.607084 C 335.55869,43.443599 361.3441,24.601139 361.3441,24.601139 C 361.3441,24.601139 355.96,29.300403 353.87144,45.297575 C 351.1548,66.103737 354.91194,73.171551 359.39175,70.18627 C 368.07139,64.404889 370.98857,62.948193 372.30905,62.891438 C 372.30905,62.891438 373.5463,62.698473 374.2614,64.007608 C 375.83539,66.894515 374.07222,93.569081 377.89747,97.942952 C 381.89298,102.50222 388.40838,81.469044 388.40838,81.469044 L 388.58243,82.191716 C 388.58243,82.191716 382.95618,104.65132 377.93152,101.24984 C 372.90308,97.848362 372.75552,73.689908 370.31508,73.111013 C 367.87464,72.535902 364.92341,76.274125 353.40606,89.24818 C 341.8887,102.21845 346.02798,70.333831 346.44797,56.576566 C 346.81498,44.631657 333.23933,67.401521 329.15301,96.22897 C 323.32623,137.31158 275.07742,53.610203 356.73943,7.3591538 L 356.73943,7.3591538 z"
     id="path37"
     style="fill:#e2007a;fill-rule:evenodd" /><path
     clip-rule="evenodd"
     d="M 296.35275,45.399733 C 291.88051,45.399733 288.27471,41.793937 288.27471,37.325475 C 288.25201,32.879714 291.88051,29.247432 296.35275,29.247432 C 300.8023,29.247432 304.4308,32.87593 304.4308,37.325475 C 304.42701,41.793937 300.79851,45.377032 296.35275,45.399733 L 296.35275,45.399733 L 296.35275,45.399733 z M 296.33005,30.181988 C 292.39508,30.181988 289.18656,33.390503 289.20927,37.348176 C 289.20927,41.283148 292.39508,44.487879 296.35275,44.465178 C 300.28394,44.465178 303.49246,41.283148 303.49246,37.325475 C 303.48867,33.390503 300.28394,30.181988 296.33005,30.181988 L 296.33005,30.181988 L 296.33005,30.181988 z M 295.13064,40.295621 C 295.13064,40.855598 295.7171,40.976674 296.23168,40.976674 L 296.23168,41.396657 L 292.48967,41.396657 L 292.48967,40.976674 C 293.02695,40.976674 293.63611,40.813978 293.63611,40.36751 L 293.63611,33.625088 C 293.63611,32.944035 293.5453,32.921334 292.60696,32.921334 L 292.60696,32.501351 L 296.51545,32.501351 C 297.12461,32.501351 297.78296,32.524053 298.32024,32.735936 C 298.6986,32.879714 299.25858,33.182404 299.53478,33.674275 C 300.14773,34.752609 299.58397,35.944451 299.0694,36.390919 C 298.81211,36.602802 298.22565,37.022785 297.43109,37.045486 L 300.23854,40.651282 C 300.49204,40.980458 300.7796,40.980458 301.08229,40.980458 L 301.08229,41.40044 L 298.85751,41.40044 L 295.74359,37.257369 L 295.13443,37.257369 L 295.13443,40.295621 L 295.13064,40.295621 L 295.13064,40.295621 z M 295.13064,36.712527 C 295.6263,36.689825 296.20898,36.735229 296.81814,36.527129 C 297.86999,36.201738 298.31646,35.520685 298.19916,34.582346 C 298.08187,33.341316 297.21164,33.106731 296.84084,33.084029 L 295.59981,32.989439 C 295.36523,32.989439 295.13064,33.17862 295.10794,33.458608 L 295.13064,36.712527 L 295.13064,36.712527 z"
     id="path39"
     style="fill:#ffffff;fill-rule:evenodd" /></g>
</svg>