<?xml version="1.0" encoding="UTF-8" standalone="no"?>
<svg
   xmlns:dc="http://purl.org/dc/elements/1.1/"
   xmlns:cc="http://creativecommons.org/ns#"
   xmlns:rdf="http://www.w3.org/1999/02/22-rdf-syntax-ns#"
   xmlns:svg="http://www.w3.org/2000/svg"
   xmlns="http://www.w3.org/2000/svg"
   xmlns:sodipodi="http://sodipodi.sourceforge.net/DTD/sodipodi-0.dtd"
   xmlns:inkscape="http://www.inkscape.org/namespaces/inkscape"
   version="1.1"
   id="Layer_1"
   x="0px"
   y="0px"
   width="315.37601"
   height="391.75592"
   viewBox="0 0 315.376 391.7559"
   enable-background="new 0 0 1000 809.34"
   xml:space="preserve"
   sodipodi:docname="Enix.svg"
   inkscape:version="1.0.2 (1.0.2+r75+1)"><metadata
   id="metadata71"><rdf:RDF><cc:Work
       rdf:about=""><dc:format>image/svg+xml</dc:format><dc:type
         rdf:resource="http://purl.org/dc/dcmitype/StillImage" /><dc:title></dc:title></cc:Work></rdf:RDF></metadata><defs
   id="defs69">
	
	
	
	
	
	
	
	
	
	
	
	
	
	
	
	
	
	
	
	
	
	
	
	
	
	
	
	
	
	
	
<clipPath
   id="clip2"><path
     d="m 38,99 h 61 v 14.16016 H 38 Z m 0,0"
     id="path3434" /></clipPath><clipPath
   id="clip3"><path
     d="M 19.441406,67 H 39 v 33 H 19.441406 Z m 0,0"
     id="path3437" /></clipPath><clipPath
   id="clip4"><path
     d="M 30,43.195312 H 97 V 68 H 30 Z m 0,0"
     id="path3440" /></clipPath><clipPath
   id="clip4-3"><path
     d="M 30,43.195312 H 97 V 68 H 30 Z m 0,0"
     id="path3440-6" /></clipPath><clipPath
   id="clip2-7"><path
     d="m 38,99 h 61 v 14.16016 H 38 Z m 0,0"
     id="path3434-5" /></clipPath><clipPath
   id="clip3-3"><path
     d="M 19.441406,67 H 39 v 33 H 19.441406 Z m 0,0"
     id="path3437-5" /></clipPath><clipPath
   id="clip2-6"><path
     d="m 38,99 h 61 v 14.16016 H 38 Z m 0,0"
     id="path3434-2" /></clipPath><clipPath
   id="clip3-9"><path
     d="M 19.441406,67 H 39 v 33 H 19.441406 Z m 0,0"
     id="path3437-1" /></clipPath><clipPath
   id="clip4-2"><path
     d="M 30,43.195312 H 97 V 68 H 30 Z m 0,0"
     id="path3440-7" /></clipPath></defs><sodipodi:namedview
   pagecolor="#ffffff"
   bordercolor="#666666"
   borderopacity="1"
   objecttolerance="10"
   gridtolerance="10"
   guidetolerance="10"
   inkscape:pageopacity="0"
   inkscape:pageshadow="2"
   inkscape:window-width="1366"
   inkscape:window-height="714"
   id="namedview67"
   showgrid="true"
   inkscape:zoom="1"
   inkscape:cx="145.22355"
   inkscape:cy="215.73005"
   inkscape:window-x="0"
   inkscape:window-y="0"
   inkscape:window-maximized="1"
   inkscape:current-layer="Layer_1"
   inkscape:document-rotation="0"
   fit-margin-top="0"
   fit-margin-left="0"
   fit-margin-right="0"
   fit-margin-bottom="0"
   inkscape:snap-grids="true"
   inkscape:snap-smooth-nodes="true"
   inkscape:snap-text-baseline="true" />

<path
   style="fill:#008735;fill-opacity:1;fill-rule:nonzero;stroke:none;stroke-width:21.3328"
   d="m 70.965445,300.41341 h -44.83218 c -10.0831,0 -14.083,4.83316 -14.083,14.08316 v 22.49928 l 48.4988,-0.08 0.1712,8.1665 -30.24916,-0.08 v 34.49932 c 0,3.08312 0.91678,4.08326 3.9167,4.08326 h 38.41568 l 0.08,7.9998 -42.49878,0.1712 c -18.74962,0 -26.1660803,-2.33322 -26.1660803,-22.33272 l -0.08,-52.91532 c 0,-16.6663 4.83316,-23.9162 23.9994003,-23.9162 l 42.83222,-0.1712 z m 0,0"
   id="path6814" /><path
   style="fill:#008735;fill-opacity:1;fill-rule:nonzero;stroke:none;stroke-width:21.3328"
   d="m 105.2977,300.58013 c 7.66668,15.16634 18.4997,36.49908 18.4997,36.49908 h 18.08292 l 7.9998,16.33304 c 1.74922,3.3332 4.24996,1.91564 4.24996,-0.08 v -61.08184 l 9.99976,-0.08 0.08,77.08128 c 0,18.4997 -6.24992,22.3329 -12.7496,22.3329 -8.41644,0 -12.58306,-4.08326 -15.49978,-9.91656 -11.66628,-23.16582 -23.3327,-47.49866 -34.58234,-70.91472 -5.999855,-12.33314 -10.333015,-9.49992 -10.333015,-0.1712 v 81.1647 h -7.91662 l -0.08,-82.91474 c 0,-20.41612 16.0828,-20.16606 22.249195,-8.2497 z m 0,0"
   id="path6816" /><path
   style="fill:#008735;fill-opacity:1;fill-rule:nonzero;stroke:none;stroke-width:21.3328"
   d="m 190.54582,336.91267 h 14.1662 v 54.8319 l -24.08276,-0.08 -0.08,-99.24746 9.9164,0.08 z m 0,0"
   id="path6818" /><path
   style="fill:#008735;fill-opacity:1;fill-rule:nonzero;stroke:none;stroke-width:21.3328"
   d="m 105.9644,148.25063 c 67.74856,8.083 155.41294,-55.748544 158.41286,-102.664184 0.6656,-10.1663 -10.24966,-24.49938 -25.99934,-24.24932 -40.99898,0.6656 -82.66452,31.8325 -102.9141,55.74854 -16.5831,19.58288 -29.91604,42.498944 -29.49942,71.164964 M 234.2113,0.17094625 c 20.33294,-1.08318 40.58234,2.83320005 56.4986,15.99959975 15.08298,12.41632 17.08292,33.4158 7.83324,49.83204 -37.41588,65.748444 -113.41398,88.581164 -190.49542,90.081284 3.58326,19.416 22.4996,31.3325 39.16574,32.5824 68.83156,5.41666 137.74666,-51.83216 168.16254,-117.247024 -10.74982,55.165204 -48.66552,110.080484 -85.49788,140.579724 -35.74902,29.66582 -83.3312,54.16536 -133.580035,60.6652 -23.83284,3.16664 -46.83212,-1.41596 -68.5815,-13.99964 C 14.216765,250.91479 1.5503647,228.58191 0.38398471,216.24893 -4.5326953,164.25023 38.632805,101.33515 80.215125,65.502606 123.7142,27.836966 179.0461,3.0041463 234.2113,0.17094625 Z m 0,0"
   id="path6842" /><path
   style="fill:#008735;fill-opacity:1;fill-rule:nonzero;stroke:none;stroke-width:21.3328"
   d="m 223.04502,292.41361 32.24896,44.49906 34.91592,-44.41554 h 9.83304 l -31.16594,39.91548 42.99908,59.33196 -26.91596,-0.08 -29.99926,-41.49882 -32.49936,41.41562 h -10.08294 l 37.74914,-48.08218 -36.99924,-50.99856 z m 0,0"
   id="path6844" /></svg>
