<?xml version="1.0" encoding="UTF-8" standalone="no"?>
<!-- Created with Inkscape (http://www.inkscape.org/) -->

<svg
   xmlns:dc="http://purl.org/dc/elements/1.1/"
   xmlns:cc="http://creativecommons.org/ns#"
   xmlns:rdf="http://www.w3.org/1999/02/22-rdf-syntax-ns#"
   xmlns:svg="http://www.w3.org/2000/svg"
   xmlns="http://www.w3.org/2000/svg"
   xmlns:sodipodi="http://sodipodi.sourceforge.net/DTD/sodipodi-0.dtd"
   xmlns:inkscape="http://www.inkscape.org/namespaces/inkscape"
   version="1.1"
   width="491.022"
   height="294.11499"
   id="svg2"
   xml:space="preserve"
   inkscape:version="0.91 r13725"
   sodipodi:docname="Infogrames_1996.svg"><sodipodi:namedview
     pagecolor="#ffffff"
     bordercolor="#666666"
     borderopacity="1"
     objecttolerance="10"
     gridtolerance="10"
     guidetolerance="10"
     inkscape:pageopacity="0"
     inkscape:pageshadow="2"
     inkscape:window-width="1366"
     inkscape:window-height="705"
     id="namedview27"
     showgrid="false"
     inkscape:zoom="1"
     inkscape:cx="201.97196"
     inkscape:cy="174.55934"
     inkscape:window-x="-8"
     inkscape:window-y="-8"
     inkscape:window-maximized="1"
     inkscape:current-layer="svg2" /><metadata
     id="metadata8"><rdf:RDF><cc:Work
         rdf:about=""><dc:format>image/svg+xml</dc:format><dc:type
           rdf:resource="http://purl.org/dc/dcmitype/StillImage" /><dc:title></dc:title></cc:Work></rdf:RDF></metadata><defs
     id="defs6" /><g
     id="g4194"
     transform="translate(0,51.615)"><path
       style="fill:#000000;fill-opacity:1;fill-rule:evenodd;stroke:none"
       id="path16"
       inkscape:connector-curvature="0"
       d="m 355.50719,150.92086 -0.51966,-0.11675 c -0.005,-0.0248 0,-0.0483 -0.0189,-0.0741 -0.084,-0.11988 -0.24408,-0.10351 -0.31231,-0.0964 -1.08395,0.10754 -7.68475,0.29419 -31.36625,-6.71314 l -4.67699,-1.39942 c -15.18576,-4.56728 -29.52904,-8.88049 -38.11663,-5.11083 -5.54572,2.43613 -5.73469,6.03864 -5.3515,7.97109 0.727,3.67755 4.59825,7.22807 7.96819,7.30496 l 0.11549,0.002 0.0553,-0.10351 c 1.50389,-2.84924 5.85543,-4.2547 13.3092,-4.29776 6.71628,-0.039 15.31962,1.01599 23.63951,2.03695 13.34857,1.63852 27.15118,3.3311 34.63646,0.81099 l 0.63777,-0.21521" /><path
       style="fill:#000000;fill-opacity:1;fill-rule:evenodd;stroke:none"
       id="path18"
       inkscape:connector-curvature="0"
       d="m 246.33345,150.40409 c -0.0861,-0.12303 -0.25222,-0.10651 -0.33121,-0.0984 -1.2333,0.12303 -8.75847,0.33541 -35.73013,-7.64618 l -5.32893,-1.59417 c -17.28751,-5.19875 -33.61602,-10.10957 -43.38755,-5.82025 -6.30002,2.76605 -6.51313,6.85566 -6.07956,9.0477 0.82543,4.17779 5.22342,8.20991 9.04952,8.29915 l 0.11601,0.002 0.0554,-0.10374 c 1.7162,-3.25395 6.68136,-4.86045 15.17841,-4.90979 7.65115,-0.0441 17.45025,1.15848 26.92548,2.32117 15.19783,1.86397 30.9135,3.79225 39.4331,0.92384 l 0.63857,-0.21546 -0.51756,-0.11459 c -0.005,-0.0307 0,-0.0617 -0.0215,-0.0924" /><path
       style="fill:#000000;fill-opacity:1;fill-rule:evenodd;stroke:none"
       id="path20"
       inkscape:connector-curvature="0"
       d="m 400.05665,84.543369 c 0.021,-0.782117 -0.29657,-1.540624 -0.91859,-2.191515 -0.98947,-1.036711 -2.64295,-1.682352 -4.42241,-1.721724 -2.99725,-0.07074 -5.47747,1.574746 -5.52996,3.663907 -0.0189,0.782117 0.30182,1.540625 0.92122,2.191516 0.99209,1.038534 2.64294,1.682351 4.42241,1.723547 2.99463,0.06739 5.47485,-1.57657 5.52733,-3.665731" /><path
       style="fill:#000000;fill-opacity:1;fill-rule:evenodd;stroke:none"
       id="path22"
       inkscape:connector-curvature="0"
       d="m 382.81323,51.408167 c 1.38052,-13.574279 -0.28345,-23.629009 -5.06804,-31.011926 -3.49069,-5.38037 -10.14922,-9.183372 -16.18311,-9.535065 -11.48775,-0.66664 -18.6187,13.757999 -16.08075,23.878344 3.64554,14.529622 23.0621,26.757497 31.22715,30.18781 -5.47224,34.069026 -21.33514,54.84408 -40.80683,53.34124 -9.22798,-0.71255 -15.18314,-8.50833 -17.11744,-11.96541 7.23068,-7.034117 11.91292,-16.043752 16.27496,-28.48394 4.13894,-11.794819 6.38033,-25.106642 6.62966,-37.423751 0.52491,-25.980624 -4.12582,-46.6596151 -12.58219,-55.318073 -2.9369,-3.007758 -6.27797,-4.537883 -9.93138,-4.551006 -5.60871,-0.0189 -11.03107,3.327956 -15.7028,9.5665592 -6.03913,-18.9887672 -16.03876,-30.7468432 -26.55278,-30.7809632 -7.71361,-0.02625 -14.89444,5.5011 -20.79447,15.873403 l -0.034,-0.178471 -0.002,-0.0105 -0.002,-0.0105 c -6.38873,-16.860241 -15.6587,-26.153845 -25.53892,-26.584275 -9.92718,-0.43043 -19.73439,9.852637 -25.68378,24.999034 l -0.0688,-0.08399 c -5.61395,-9.311976 -12.29743,-14.248793 -19.32733,-14.272415 -11.42923,-0.03674 -21.49813,11.957544 -27.81022,32.9226131 l -0.1231,-0.081468 -0.003,-0.00842 -0.006,-0.00842 c -4.88328,-7.5115201 -10.63686,-11.4929941 -16.63952,-11.5139901 -17.39801,-0.05774 -30.78936,30.263923 -30.80064,70.868654 0.48292,12.332857 2.83165,23.946582 7.57739,34.581344 4.46388,10.006189 10.70851,19.679295 21.27241,26.802385 -1.65899,1.32776 -5.99058,5.26882 -15.39678,9.6424 -5.59165,2.59989 -11.38722,4.20141 -17.13267,4.80008 -7.177414,0.7493 -14.346954,-0.0515 -21.308102,-2.37971 C 76.588955,121.8247 69.170343,117.11807 63.048795,110.68369 57.460297,104.80831 53.056005,97.623538 49.95875,89.33043 47.117303,81.720799 45.448076,73.193572 45.13234,64.676841 44.82789,56.440938 45.777197,48.186664 47.877903,40.811621 53.882658,19.73632 62.85764,1.2462197 74.553253,-14.144262 c 9.375753,-12.338106 17.921878,-19.230229 21.571608,-22.172372 1.833262,-1.480258 2.131413,-1.732217 1.924336,-2.005172 -0.102355,-0.131229 -0.266394,-0.06299 -0.328072,-0.03674 -6.293721,2.590451 -74.916005,54.047782 -66.755165,118.950785 5.175388,41.156681 34.326496,52.072271 46.668014,54.629131 38.311646,7.93748 63.397816,-18.08776 65.711636,-20.19974 3.98199,1.82065 7.90757,3.12586 13.40893,3.24054 12.72917,0.26771 21.76452,-6.83515 26.04493,-10.63659 5.62523,3.4059 10.69801,5.30766 18.82395,5.28089 12.05465,-0.0389 18.93495,-5.66644 22.75895,-8.53405 4.7006,3.15893 13.83228,8.00599 23.67547,8.14352 11.35442,0.15873 17.19671,-3.22848 20.19135,-5.15596 8.83955,7.33645 17.39565,9.93243 25.32448,9.90066 7.98919,-0.0328 12.40634,-1.9868 16.09387,-4.11218 4.56937,4.22294 13.1281,9.03745 23.74449,9.1511 30.62873,0.32808 43.17419,-34.419664 47.67269,-55.775017 1.97894,0.881856 16.28022,6.096877 25.62632,9.343471 23.59488,8.191281 47.99027,16.66025 51.57543,25.175646 0.61152,1.45377 0.59315,2.83167 -0.0553,4.21166 -0.63514,1.34694 -2.45135,2.54769 -5.39874,3.56968 -6.35409,2.20123 -17.40615,3.26341 -28.8414,2.77129 -12.5297,-0.53934 -23.70775,-2.84504 -30.66549,-6.32574 -2.54845,-1.27424 -3.91324,-2.65632 -4.05758,-4.10483 -0.16,-1.609631 1.30178,-2.766016 1.31491,-2.778363 l -0.20724,-0.311806 c -2.77155,1.596267 -4.27542,3.484909 -4.46439,5.614229 -0.20472,2.29651 1.22042,4.37461 2.50384,5.45621 5.11004,4.30902 20.6055,7.94957 33.83858,7.94957 27.30079,0 34.88842,-6.18928 36.88572,-8.85084 l 0.0553,-0.0737 c 1.61936,-2.117 2.14427,-4.52951 1.43564,-7.13753 -4.7531,-17.551551 -57.8088,-40.679265 -77.8159,-49.626426 z M 130.16944,46.510719 c 0,-17.314293 1.52959,-32.145741 4.72212,-42.5259174 1.55112,-5.0470491 5.40084,-15.8471576 11.81581,-15.6949326 4.64025,0.110236 8.13197,6.2569769 9.50489,8.6978275 -2.55607,11.2357863 -4.55625,24.5082395 -4.50193,41.2398775 0.0462,14.891813 2.93218,24.936045 6.41813,36.48153 -2.01357,12.42734 -5.77825,22.813025 -13.65091,32.469616 -4.1358,-4.03109 -14.30811,-21.645883 -14.30811,-60.668001 z m 17.54577,63.095731 c 5.42236,-7.63908 9.85448,-15.70229 12.88901,-29.299135 3.42953,8.177357 12.10793,20.064835 19.23206,25.283265 -5.94413,5.78535 -19.90867,12.22893 -32.12107,4.01587 z M 176.77,73.963726 c -2.06475,-11.891929 -3.15579,-26.964838 -3.15579,-43.588868 0,-16.92323 1.76871,-32.6050399 4.88118,-44.155774 3.22428,-11.965418 7.69734,-18.55309 12.69322,-18.55309 7.19105,0 11.18434,9.608553 12.12735,10.500907 -3.97886,9.768651 -7.78841,33.513141 -7.78841,49.554516 0,9.831642 1.87814,25.348103 4.18986,34.612837 0.001,-0.0105 0.003,-0.021 0.005,-0.03149 l 0.005,0.06823 c -0.003,-0.0126 -0.006,-0.02624 -0.008,-0.03674 -1.15008,12.95488 -5.25623,26.518663 -13.97164,37.083613 -4.29563,-5.642833 -6.9265,-13.651449 -8.97577,-25.454141 z m 30.11275,34.783424 c -9.08759,1.2283 -17.66861,-5.22446 -18.92552,-6.62283 11.2476,-13.230461 14.00864,-31.756255 14.00864,-31.756255 7.30156,22.099659 17.53529,30.015365 19.65043,32.026835 -2.00649,1.66293 -7.55799,5.3825 -14.73355,6.35225 z m 12.18167,-54.97687 c -1.24142,-15.994132 -0.9207,-30.172062 -0.9165,-30.316414 0.10859,-31.3452466 4.90874,-55.451927 13.08506,-63.496236 1.81148,-1.779458 3.71324,-2.682311 5.71449,-2.666563 10.03084,0.08399 15.80778,22.862634 16.32245,23.862596 -5.30845,11.8210652 -10.34133,34.828051 -10.15996,57.370487 0.0617,7.653248 0.25957,13.38531 1.91828,22.678915 -0.19988,1.577367 -1.84034,11.608475 -7.82541,22.705164 -1.31334,2.438216 -4.34811,7.983414 -8.38838,12.24834 -5.40084,-6.898688 -8.13512,-21.578693 -9.75003,-42.386289 z m 11.59115,44.994318 c 9.68757,-9.770231 14.20865,-20.218367 16.02538,-29.769184 1.63721,6.472191 6.51129,23.411948 18.96619,35.967636 -17.32898,10.32821 -32.08407,-2.64398 -34.99157,-6.198429 z m 44.34029,-0.715465 c -5.70843,-12.295835 -7.87107,-28.177112 -8.94716,-40.775051 -1.16268,-13.663514 -0.9947,-24.817938 -0.99208,-24.930796 0.0655,-18.862788 1.90019,-34.9986484 5.20453,-46.654366 1.61672,-5.705816 3.52217,-10.157088 5.71893,-13.177969 2.07341,-2.850283 4.59562,-4.36466 7.26219,-4.535257 9.60331,-0.608901 16.73164,23.8993392 17.32742,26.8572296 -3.77676,6.4275738 -12.07829,29.4765524 -11.89194,57.4151054 0.0945,14.204177 1.07871,16.93373 1.76372,21.634335 -0.40944,4.813463 -8.00495,17.39723 -15.44561,24.166769 z m 15.60308,15.438777 c -6.04963,-1.58286 -10.83686,-7.17138 -13.73701,-12.43495 5.40138,-4.943634 11.34078,-12.984537 15.07554,-21.344043 0.60365,4.852823 7.4984,22.328263 15.50334,31.040523 -2.1784,1.33303 -8.97078,4.79826 -16.84187,2.73847 z m 20.40604,-31.046822 c -1.67448,-9.805395 -2.38311,-21.558221 -2.07604,-35.935619 0.77425,-35.964491 6.66641,-58.304835 16.02563,-58.249719 5.85279,0.03402 9.54818,11.98116509 11.27253,21.854799 1.6246,9.325099 2.54321,19.786638 2.15477,31.263885 -0.72701,21.387626 -6.32784,36.576016 -10.43791,46.069615 -2.24401,5.180623 -6.86063,12.480085 -10.70038,16.123791 -2.29387,-3.84868 -4.84758,-12.984556 -6.2386,-21.126752 z m 67.71129,-32.3872 c 0,0 -10.70562,-6.117873 -17.24605,-14.072947 -3.69015,-4.49064 -7.66113,-10.781735 -5.383,-16.768381 0.88974,-2.338492 3.48019,-3.690146 6.79502,-3.461808 5.71632,0.393684 12.56381,5.049673 14.88394,15.007294 1.01571,4.37516 2.01829,9.836891 0.95009,19.295842" /><path
       style="fill:#000000;fill-opacity:1;fill-rule:evenodd;stroke:none"
       id="path24"
       inkscape:connector-curvature="0"
       d="M 10.084099,197.44952 0,197.44952 c 1.1338932,2.7445 1.7305894,5.5486 1.7305894,10.62136 l 0,21.30102 c 0,7.45956 -0.83555834,10.02558 -1.7305894,12.82968 l 10.084099,0 C 8.7718134,237.4876 8.4140058,234.92049 8.4140058,229.84957 l 0,-20.58531 c 0,-6.74304 0.8345347,-9.18914 1.6700932,-11.81474" /><path
       style="fill:#000000;fill-opacity:1;fill-rule:evenodd;stroke:none"
       id="path26"
       inkscape:connector-curvature="0"
       d="m 72.846191,206.99638 c 0,-4.77332 0.53725,-7.16008 1.133814,-9.54686 l -8.592321,0 c 0.716507,2.56524 1.253757,4.65361 1.253757,12.88819 l 0,20.34752 -20.228615,-25.65833 c -3.520599,-4.47489 -3.937906,-5.54833 -4.773306,-7.57738 l -10.682003,0 c 2.686248,2.14793 3.878591,3.28174 6.027326,6.02627 l 0,26.91102 c 0,0.83566 -0.06036,7.16036 -1.491542,11.81477 l 9.487297,0 c -1.37265,-3.63949 -1.789958,-9.18913 -1.789958,-13.1281 l 0,-17.66152 19.035224,24.345 c 1.55112,1.96842 3.042927,4.05783 3.817963,6.44462 l 8.29522,0 c -0.657195,-1.85057 -1.492856,-4.23736 -1.492856,-11.15863 l 0,-24.04657" /><path
       style="fill:#000000;fill-opacity:1;fill-rule:evenodd;stroke:none"
       id="path28"
       inkscape:connector-curvature="0"
       d="m 116.7689,204.01303 3.64054,-6.56351 -24.524509,0 c 0.715721,2.38678 1.491806,4.83287 1.491806,11.21714 l 0,21.00365 c 0,1.85059 -0.05957,6.92231 -1.491806,12.53127 l 9.545829,0 c -1.01387,-3.46129 -1.3716,-6.56455 -1.3716,-10.14449 l 0,-10.02376 c 5.54939,-0.0592 8.2939,0.71573 11.39641,2.02906 l 3.40249,-6.4457 -14.7989,0 0,-15.87154 c 5.90738,0.17952 7.87686,0.35798 12.70974,2.26788" /><path
       style="fill:#000000;fill-opacity:1;fill-rule:evenodd;stroke:none"
       id="path30"
       inkscape:connector-curvature="0"
       d="m 156.94006,197.09073 c -15.57315,0 -24.52426,12.29138 -24.52426,22.25766 0,11.45678 8.95111,23.15161 23.39149,23.15161 12.64912,0 23.38938,-8.89075 23.38938,-22.85343 0,-11.3379 -7.4585,-22.55584 -22.25661,-22.55584 z m 0.71572,40.57639 c -8.53195,0 -17.72111,-7.22072 -17.72111,-19.33286 0,-8.65269 5.78745,-16.46918 14.79812,-16.46918 10.44186,0 17.54264,10.14371 17.54264,19.45278 0,6.98059 -4.65363,16.34926 -14.61965,16.34926" /><path
       style="fill:#000000;fill-opacity:1;fill-rule:evenodd;stroke:none"
       id="path32"
       inkscape:connector-curvature="0"
       d="m 234.57511,219.58619 -10.91873,0 c 1.67027,2.26788 2.98255,4.05784 2.98255,10.97909 l 0,4.95388 c -2.0873,0.83357 -3.81795,1.55113 -7.87581,1.55113 -11.51635,0 -18.13919,-7.87686 -18.13919,-17.66364 0,-11.99296 8.5317,-17.54155 16.11015,-17.54155 6.38506,0 11.21819,2.50566 14.20155,4.05679 l 0,-7.45851 c -2.74558,-0.65614 -6.20581,-1.49155 -11.63525,-1.49155 -9.48861,0 -15.1569,2.20833 -19.92942,7.93512 -3.70012,4.41664 -5.60896,10.20408 -5.60896,15.87263 0,8.47342 4.59404,21.72042 24.70377,21.72042 8.23353,0 12.6491,-1.72959 15.69203,-2.92405 -0.83539,-3.04397 -0.83539,-3.93892 -0.83539,-6.92123 l 0,-5.31161 c 0,-4.35522 0.77503,-6.38426 1.2527,-7.75692" /><path
       style="fill:#000000;fill-opacity:1;fill-rule:evenodd;stroke:none"
       id="path34"
       inkscape:connector-curvature="0"
       d="m 280.15839,210.21884 c 0,-6.02734 -5.42761,-12.94859 -16.94422,-12.76932 l -8.71095,0.11989 c 0.47767,1.55007 1.19156,3.99748 1.19156,9.24768 l 0,23.80773 c 0,3.87832 -0.23884,7.1622 -1.19156,11.57671 l 9.07051,0 c -1.19417,-4.77434 -1.25454,-6.20683 -1.25454,-9.66681 l 0,-11.03868 c 9.24899,12.29139 11.99429,15.51384 18.0203,20.70549 l 6.14412,0 c -5.30951,-6.384 -10.8001,-13.00815 -14.79732,-20.0483 2.02878,-1.07449 8.4721,-4.65441 8.4721,-11.93444 z m -17.8392,10.62111 0,-19.57143 c 8.94979,0.89498 11.03895,6.26512 11.03895,9.60646 0,6.86168 -6.80289,8.77156 -11.03895,9.96497" /><path
       style="fill:#000000;fill-opacity:1;fill-rule:evenodd;stroke:none"
       id="path36"
       inkscape:connector-curvature="0"
       d="m 320.04925,197.27025 -0.35957,0 -17.24343,34.25065 c -3.70064,7.33934 -5.01292,8.95111 -6.50631,10.68068 l 10.92084,0 c -0.23884,-3.52165 1.49338,-7.39892 2.26763,-9.07025 l 2.01042,-4.25968 16.19885,0 2.37786,5.45306 c 1.60886,3.63951 1.8477,5.90738 1.8477,7.87687 l 10.62163,0.001 c -1.66922,-2.26788 -3.75838,-5.25229 -6.98135,-12.2339 L 320.04925,197.2702 Z m -6.55618,26.39635 6.06275,-12.61343 5.35938,12.61343 -11.42213,0" /><path
       style="fill:#000000;fill-opacity:1;fill-rule:evenodd;stroke:none"
       id="path38"
       inkscape:connector-curvature="0"
       d="m 404.86749,197.62797 -8.77131,0 c -1.31228,2.38679 -1.90806,3.10329 -3.22034,4.71401 l -13.36695,16.52848 -12.23312,-15.2162 c -2.38573,-2.923 -3.10225,-4.35521 -3.87912,-6.20474 l -10.14396,0 4.41715,4.89246 0,27.9249 c 0,6.92229 -1.13382,9.84633 -2.02879,11.9347 l 10.62163,0 C 364.352,237.9049 364.352,232.95206 364.352,232.23741 l 0,-22.37657 15.15689,18.73601 15.03617,-18.73601 0,21.2417 c 0,4.29669 -0.47768,7.7577 -1.97106,11.09904 l 10.74237,0 c -1.96843,-4.35627 -2.02879,-8.59233 -2.02879,-11.81477 l 0,-22.01857 c 0,-6.50316 1.73221,-8.53196 3.57991,-10.74027" /><path
       style="fill:#000000;fill-opacity:1;fill-rule:evenodd;stroke:none"
       id="path40"
       inkscape:connector-curvature="0"
       d="m 432.51471,221.61602 c 3.40408,0.23805 5.07331,0.4769 10.20434,1.96842 l 3.81875,-6.26509 -14.02309,0 0,-15.63353 c 4.71636,-0.17952 7.34093,0.41731 12.35386,2.68494 l 3.39882,-6.92124 -24.10406,0 c 1.25192,3.87859 1.66923,8.29414 1.66923,11.33707 l 0,21.89864 c 0,5.72787 -0.89498,8.89075 -1.66923,11.51636 l 23.44792,0 3.28334,-7.4585 c -9.48783,3.22113 -12.65043,3.22113 -18.37988,3.22113 l 0,-16.3482" /><path
       style="fill:#000000;fill-opacity:1;fill-rule:evenodd;stroke:none"
       id="path42"
       inkscape:connector-curvature="0"
       d="m 482.78837,218.21537 c -5.60871,-3.22324 -9.36971,-5.43156 -9.36971,-9.66787 0,-3.5206 3.04449,-6.02626 6.92361,-6.02626 3.99722,0 6.50368,1.96842 8.47212,3.5198 l 0,-6.92152 c -2.14953,-0.89392 -5.01293,-2.14769 -9.07052,-2.14769 -7.3383,0 -13.24621,5.84781 -13.24621,12.9486 0,6.80234 3.81875,9.18808 13.36694,15.15582 1.31228,0.83566 3.75838,2.80409 3.75838,5.90739 0,3.16288 -2.80567,6.26512 -6.68215,6.26512 -4.11795,0 -6.74515,-3.10224 -8.77132,-5.43077 l 0,9.48861 c 2.08916,0.59657 4.17569,1.1934 7.69524,1.1934 9.36971,0 15.15689,-5.37015 15.15689,-12.77038 0,-4.29563 -1.78995,-7.81517 -8.23327,-11.51425" /><path
       style="fill:#7a1d90;fill-opacity:1;fill-rule:evenodd;stroke:none"
       id="path44"
       inkscape:connector-curvature="0"
       d="m 302.18641,103.48489 c -8.39599,-13.572968 -14.01257,-29.500166 -13.59264,-52.759111 0.44092,-24.413756 6.68215,-49.4967761 14.87869,-60.6328298 4.66648,-6.3383372 10.36443,-9.8080192 16.35108,-9.5744332 4.69535,0.18372 6.66116,2.338493 9.165,4.390906 0,0 -5.97353,0.433054 -10.9917,8.2044078 -4.15995,6.4459456 -8.59285,25.6709252 -9.02066,52.4835382 -0.6089,38.121892 5.61133,53.289283 8.82644,59.054142 8.33563,14.94878 19.20397,17.45129 19.20397,17.45129 -10.22794,1.33171 -23.24582,-3.60063 -29.59202,-11.32554 -1.55375,-1.89257 -3.15475,-3.94211 -5.22816,-7.29237" /><path
       style="fill:#1575c5;fill-opacity:1;fill-rule:evenodd;stroke:none"
       id="path46"
       inkscape:connector-curvature="0"
       d="M 136.3936,-0.47171907 C 132.62997,10.519983 130.51509,21.495936 130.21668,45.720723 c -0.41941,34.085298 8.61488,57.219567 15.21332,62.211497 14.17766,10.73004 22.35189,8.69993 22.35189,8.69993 -9.27522,2.70148 -18.19378,2.66473 -28.90203,-4.07726 -18.41399,-11.59431 -28.57816,-38.990099 -28.7729,-61.283201 -0.20919,-24.022694 4.98957,-47.4732324 14.73328,-61.0973778 4.42188,-6.1834882 10.18675,-9.8736352 15.97314,-9.8578872 6.69659,0.0147 11.2232,4.960438 11.2232,4.960438 0,0 -9.81669,-2.771546 -15.64298,14.25141893" /><path
       style="fill:#00a75e;fill-opacity:1;fill-rule:evenodd;stroke:none"
       id="path48"
       inkscape:connector-curvature="0"
       d="m 151.69721,36.534726 c 0.1538,-27.6970935 5.79847,-52.425797 16.17077,-66.721833 4.99377,-6.884249 10.80798,-10.760739 17.30773,-10.800108 4.58381,-0.02898 7.87371,1.572118 11.23841,4.217685 0.005,0.08399 -7.18056,0.293952 -12.11081,8.634837 -4.85336,8.209657 -10.46233,25.2614911 -10.54343,58.598786 -0.0902,37.200664 5.18773,57.308021 9.56944,65.16231 7.4656,13.381367 21.18738,17.215607 21.18738,17.215607 -6.36459,0.0727 -13.26144,0.69919 -23.42325,-6.34725 -13.37428,-9.27209 -29.60148,-33.166179 -29.39624,-69.960034" /><path
       style="fill:#fab215;fill-opacity:1;fill-rule:evenodd;stroke:none"
       id="path50"
       inkscape:connector-curvature="0"
       d="m 195.43305,27.262118 c -0.29631,-17.4192751 5.0964,-52.662008 16.71433,-67.551197 6.10422,-7.823845 11.20664,-11.382763 18.3237,-11.309274 2.64319,0.02624 6.79211,0.580029 11.62395,4.658612 0,0 -7.07085,-0.249334 -13.23361,9.855262 -4.85728,7.965572 -10.19566,23.626384 -10.61717,58.197228 -0.47662,39.140221 3.98095,64.87676 9.20857,72.923698 12.05256,18.557563 21.49891,18.383283 21.49891,18.383283 -2.05952,0.67242 -18.62002,-0.87163 -30.68701,-13.150675 -11.19117,-11.384085 -22.19285,-34.4992 -22.83167,-72.006937" /><path
       style="fill:#ed192e;fill-opacity:1;fill-rule:evenodd;stroke:none"
       id="path52"
       inkscape:connector-curvature="0"
       d="m 243.03725,36.81293 c 0.16924,-23.636883 5.28091,-47.355126 13.1142,-61.656411 7.45116,-13.60315 15.82354,-15.83141 20.64487,-15.868154 3.02614,-0.02373 7.06535,0.986838 11.05995,4.362036 0,0 -7.2622,2.034042 -12.31449,9.621676 -4.03134,6.060133 -9.93925,22.0437679 -10.45104,56.877068 -0.36744,24.991161 3.0865,56.1973 10.80273,69.288142 9.12301,15.481813 16.23035,17.775163 16.23035,17.775163 -7.00499,0 -18.36674,-3.49382 -27.82308,-13.66508 C 252.27048,90.607955 242.81285,68.215916 243.03725,36.81293" /></g></svg>