<?xml version="1.0" encoding="UTF-8" standalone="no"?>
<!-- Created with Inkscape (http://www.inkscape.org/) -->
<svg
   xmlns:svg="http://www.w3.org/2000/svg"
   xmlns="http://www.w3.org/2000/svg"
   version="1.0"
   width="188"
   height="145"
   viewBox="0 0 187.089 144.489"
   id="Layer_1"
   xml:space="preserve"><defs
   id="defs30" />
<g
   transform="matrix(0.9964722,0,0,0.9964722,-0.1242395,0.5067389)"
   id="g3">
	<path
   d="M 111.287,141.774 C 112.533,141.044 115.268,140.155 119.012,139.206 C 106.166,141.202 93.527,142.503 86.297,142.579 L 81.286,140.655 C 83.479,139.585 88.697,138.196 95.592,136.79 C 78.665,139.374 61.342,141.11 52.338,141.151 L 47.291,139.212 C 49.395,138.267 54.044,137.066 60.267,135.808 C 47.822,137.357 36.142,138.388 28.767,138.589 L 23.288,136.489 C 29.08,134.632 44.347,131.985 61.169,129.923 C 76.414,128.048 89.596,127.083 95.899,127.237 L 99.308,128.544 C 98.121,129.202 95.103,130.052 90.565,131.015 C 103.764,129.367 115.175,128.494 121.452,128.554 L 125.799,130.226 C 124.004,131.175 119.344,132.456 112.388,133.863 L 113.812,133.654 C 127.067,131.718 138.897,130.701 144.959,130.824 L 148.805,132.297 C 147.73,133.049 144.823,134.029 140.377,135.121 C 149.391,133.789 157.482,133.041 162.415,133.012 L 166.681,134.647 C 165.376,135.417 162.413,136.395 158.072,137.458 L 158.96,137.306 C 162.668,136.669 166.264,136.144 169.555,135.755 L 169.725,135.818 C 174.473,135.173 178.54,134.882 181.358,134.892 L 185.069,136.318 C 183.582,137.443 178.272,139.103 170.09,140.789 C 159.517,142.965 147.854,144.449 141.504,144.492 L 137.379,142.908 C 138.646,142.072 141.872,141.002 146.294,139.906 C 134.575,142.013 122.361,143.418 115.665,143.455 L 111.287,141.774 L 111.287,141.774 z M 133.482,107.68 C 129.387,111.854 120.339,117.951 109.262,107.067 C 105.088,112.18 93.456,121.895 80.02,105.053 C 75.144,107.944 67.254,110.758 59.506,105.584 C 55.758,111.098 44.874,123.121 26.235,121.014 C 3.027,118.387 -7.949,91.454 6.502,58.688 C 15.136,39.117 29.342,24.617 33.467,22.442 C 34.21,21.842 34.102,22.377 33.729,22.766 C 31.988,24.586 28.073,27.875 22.971,34.85 C 13.084,48.365 7.231,62.393 7.055,74.817 C 6.505,114.272 30.136,116.823 36.08,116.733 C 46.752,116.573 54.518,108.204 57.622,104.159 C 49.624,97.305 39.748,81.72 41.152,56.996 C 42.497,38.541 48.449,23.977 55.837,16.246 C 59.293,12.646 62.545,10.097 66.12,9.736 C 71.569,9.183 74.269,13.795 75.673,16.798 C 77.422,13.373 79.306,10.444 81.205,8.176 C 83.805,5.065 88.44,0.775 92.844,0.093 C 100.962,-1.164 105.913,10.588 107.027,14.981 C 111.055,9.705 115.281,7.335 118.17,6.767 C 126.932,5.044 130.624,18.475 132.402,25.999 C 134.576,23.416 136.998,21.632 139.596,21.932 C 148.479,22.906 152.481,45.479 151.284,62.289 C 150.715,70.348 148.887,78.797 146.406,86.459 C 144.192,93.27 141.447,98.877 137.232,103.918 C 137.9,105.104 140.072,108.152 143.551,108.652 C 154.009,108.474 164.312,79.127 165.234,66.115 C 162.219,61.9 158.698,57.462 156.339,52.861 C 153.455,47.246 152.983,39.316 159.162,39.146 C 162.668,39.35 169.067,44.114 168.051,61.005 C 187.304,84.947 187.487,102.998 186.958,108.466 C 186.745,110.13 186.392,110.966 185.462,111.634 C 183.673,113.054 168.653,108.613 165.396,92.3 C 165.25,91.214 165.156,89.523 165.48,88.359 C 165.999,85.912 168.191,81.101 171.658,81.882 C 176.063,82.868 178.275,93.956 176.55,91.228 C 175.502,88.972 168.735,88.056 168.798,84.851 C 168.444,85.257 168.161,86.074 168.017,87.298 C 167.45,94.521 173.664,102.159 177.259,105.425 C 180.883,108.741 182.377,109.159 183.219,109.493 C 186.309,110.731 187.782,97.782 176.703,80.96 C 173.793,76.54 170.22,72.579 166.937,68.416 C 165.658,78.724 156.726,115.019 139.07,111.06 C 137.132,110.627 135.255,109.432 133.482,107.68 L 133.482,107.68 z M 78.436,102.893 C 75.437,98.422 72.369,91.664 70.145,83.018 C 68.148,89.088 64.52,96.969 62.517,100.581 C 65.489,103.663 69.441,105.27 72.535,104.956 C 74.634,104.655 76.626,103.913 78.436,102.893 L 78.436,102.893 z M 68.884,77.428 C 67.361,69.636 66.548,60.604 66.963,50.564 C 67.422,39.487 70.281,28.69 74.057,20.19 C 72.138,16.271 68.576,10.299 63.999,17.814 C 60.73,23.179 55.891,33.584 54.737,53.86 C 53.339,78.423 57.261,91.597 59.755,96.661 C 60.063,97.284 60.41,97.878 60.786,98.442 C 64.055,92.352 67.187,84.543 68.884,77.428 L 68.884,77.428 z M 107.388,105.083 L 106.976,104.601 C 102.833,99.747 99.389,91.558 97.366,81.402 C 95.436,88.121 92.142,93.687 87.17,99.177 L 86.18,100.281 C 86.493,101.15 86.826,102.039 87.17,102.947 C 89.968,110.315 99.939,114.434 107.388,105.083 L 107.388,105.083 z M 96.333,75.155 C 95.522,69.01 95.209,62.329 95.52,55.351 C 96.305,37.751 100.128,26.051 104.628,18.54 C 103.236,8.43 95.823,0.458 90.855,8.016 C 88.427,11.708 82.501,22.544 81.151,44.795 C 79.527,71.561 79.988,82.256 85.283,97.745 C 87.422,95.173 89.827,91.227 91.318,88.464 C 94.217,82.905 95.688,77.848 96.333,75.155 L 96.333,75.155 z M 130.178,29 C 128.619,21.352 123.979,4.687 118.398,13.877 C 116.015,17.802 110.601,29.648 108.886,53.507 C 107.763,69.117 108.334,88.687 111.99,98.556 C 115.604,92.521 119.834,82.65 120.94,77.458 C 120.44,73.835 120.27,70.345 120.487,67.25 C 121.676,50.682 123.604,38.877 130.178,29 L 130.178,29 z M 113.104,101.073 L 113.184,101.219 C 120.076,113.744 128.941,109.229 131.875,105.914 C 127.457,100.508 123.861,91.717 121.932,82.967 C 119.81,89.083 115.901,96.737 113.104,101.073 L 113.104,101.073 z M 166.225,58.913 C 166.53,51.071 164.155,45.6 162.854,43.43 C 161.332,40.891 158.723,40.204 158.169,44.085 C 157.215,50.77 163.997,55.871 166.225,58.913 L 166.225,58.913 z M 135.962,101.456 C 138.347,98.22 140.599,94.792 141.898,91.735 C 144.54,85.549 147.67,75.907 148.861,61.918 C 150.785,39.316 144.208,26.455 141.439,25.993 C 135.634,25.026 132.8,41.71 131.362,61.739 C 129.701,84.868 134.222,98.362 135.962,101.456 L 135.962,101.456 z "
   style="fill-rule:evenodd"
   id="path5" />
	<path
   d="M 40.428,60.455 L 158.889,60.455 L 158.889,67.252 C 158.889,77.549 150.541,85.893 140.243,85.893 L 21.783,85.893 L 21.783,79.098 C 21.783,68.802 30.129,60.455 40.428,60.455 L 40.428,60.455 z "
   style="fill-rule:evenodd"
   id="path7" />
	<polygon
   points="34.454,67.746 31.137,67.746 31.137,79.594 34.454,79.594 34.454,67.746 "
   style="fill:#ffffff;fill-rule:evenodd"
   id="polygon9" />
	<polygon
   points="39.611,70.494 39.744,70.494 43.259,79.594 48.917,79.594 48.917,67.746 45.599,67.746 45.798,76.846 45.667,76.846 42.099,67.746 36.493,67.746 36.493,79.594 39.81,79.594 39.611,70.494 "
   style="fill:#ffffff;fill-rule:evenodd"
   id="polygon11" />
	<polygon
   points="54.155,70.336 59.663,70.336 59.663,67.746 50.838,67.746 50.838,79.594 54.155,79.594 54.155,75.249 59.23,75.249 59.23,72.659 54.155,72.659 54.155,70.336 "
   style="fill:#ffffff;fill-rule:evenodd"
   id="polygon13" />
	<path
   d="M 66.445,79.686 C 69.814,79.686 72.202,78.993 72.202,75.344 L 72.202,71.996 C 72.202,68.345 69.814,67.65 66.445,67.65 C 63.079,67.65 60.691,68.345 60.691,71.996 L 60.691,75.344 C 60.691,78.993 63.079,79.686 66.445,79.686 L 66.445,79.686 z M 66.445,76.938 C 64.721,76.938 64.156,76.764 64.107,74.997 L 64.107,72.326 C 64.156,70.574 64.721,70.401 66.445,70.401 C 68.172,70.401 68.785,70.574 68.785,72.326 L 68.785,74.997 C 68.785,76.764 68.172,76.938 66.445,76.938 L 66.445,76.938 z "
   style="fill:#ffffff;fill-rule:evenodd"
   id="path15" />
	<path
   d="M 84.69,71.426 C 84.69,67.667 82.402,67.65 79.182,67.65 C 75.533,67.65 73.278,68.235 73.278,72.152 L 73.278,75.217 C 73.278,79.055 75.269,79.686 79.182,79.686 C 83.627,79.686 84.69,78.963 84.69,74.965 L 84.69,72.895 L 79.032,72.895 L 79.032,75.092 L 81.322,75.092 C 81.322,76.737 80.875,77.098 79.182,77.098 C 77.457,77.098 76.695,76.875 76.695,74.774 L 76.695,72.849 C 76.728,70.936 76.795,70.243 79.182,70.243 C 80.178,70.243 81.256,70.226 81.322,71.427 L 84.69,71.427 L 84.69,71.426 z "
   style="fill:#ffffff;fill-rule:evenodd"
   id="path17" />
	<path
   d="M 89.583,73.702 L 89.583,70.494 L 92.152,70.494 C 93.248,70.494 93.527,70.796 93.527,71.852 C 93.527,73.194 93.578,73.702 92.152,73.702 L 89.583,73.702 L 89.583,73.702 z M 86.262,79.594 L 89.583,79.594 L 89.583,76.45 L 92.152,76.45 C 93.147,76.45 93.545,77.05 93.51,77.932 L 93.51,79.594 L 96.831,79.594 L 96.831,77.209 C 96.831,75.863 95.948,75.154 94.589,75.105 L 94.589,74.982 C 96.944,74.459 96.944,73.306 96.944,71.331 C 96.944,68.377 95.536,67.794 92.666,67.745 L 86.262,67.745 L 86.262,79.594 L 86.262,79.594 z "
   style="fill:#ffffff;fill-rule:evenodd"
   id="path19" />
	<path
   d="M 105.953,77.555 L 106.597,79.594 L 109.98,79.594 L 106.2,67.746 L 101.157,67.746 L 97.426,79.594 L 100.877,79.594 L 101.491,77.555 L 105.953,77.555 L 105.953,77.555 z M 105.287,75.249 L 102.202,75.249 L 103.712,70.116 L 103.745,70.116 L 105.287,75.249 L 105.287,75.249 z "
   style="fill:#ffffff;fill-rule:evenodd"
   id="path21" />
	<polygon
   points="113.782,70.509 113.879,70.509 117.065,79.594 119.935,79.594 123.086,70.509 123.2,70.509 122.871,79.594 126.187,79.594 126.187,67.746 120.797,67.746 118.543,75.184 118.424,75.184 116.054,67.746 110.796,67.746 110.796,79.594 114.11,79.594 113.782,70.509 "
   style="fill:#ffffff;fill-rule:evenodd"
   id="polygon23" />
	<polygon
   points="131.561,70.336 137.218,70.336 137.218,67.746 128.242,67.746 128.242,79.594 137.332,79.594 137.332,77.002 131.561,77.002 131.561,74.698 136.87,74.698 136.87,72.5 131.561,72.5 131.561,70.336 "
   style="fill:#ffffff;fill-rule:evenodd"
   id="polygon25" />
	<path
   d="M 143.737,72.295 C 142.857,72.232 142.377,72.201 142.377,71.252 C 142.377,70.589 142.523,70.242 144.317,70.242 C 145.643,70.242 146.173,70.242 146.173,71.458 L 149.358,71.458 L 149.358,70.969 C 149.358,67.698 147.037,67.65 144.317,67.65 C 141.064,67.65 139.055,67.872 139.055,71.268 C 139.055,74.664 140.85,74.647 143.915,74.854 L 144.646,74.901 C 146.206,74.997 146.388,74.983 146.388,76.006 C 146.388,77.002 145.875,77.098 144.316,77.098 C 142.689,77.098 142.224,76.971 142.224,75.741 L 139.042,75.741 C 139.042,79.626 141.146,79.686 144.315,79.686 C 149.789,79.686 149.707,77.76 149.707,75.801 C 149.707,73.083 148.793,72.642 145.11,72.39 L 143.737,72.295 L 143.737,72.295 z "
   style="fill:#ffffff;fill-rule:evenodd"
   id="path27" />
</g>
</svg>