<?xml version="1.0" encoding="utf-8"?>
<!-- Generator: Adobe Illustrator 22.1.0, SVG Export Plug-In . SVG Version: 6.00 Build 0)  -->
<svg version="1.1" id="レイヤー_1" xmlns="http://www.w3.org/2000/svg" xmlns:xlink="http://www.w3.org/1999/xlink" x="0px"
	 y="0px" viewBox="0 0 141 151.3" style="enable-background:new 0 0 141 151.3;" xml:space="preserve">
<style type="text/css">
	.st0{fill:#E60028;}
</style>
<g>
	<g>
		<path d="M36.5,132.7H0.2V61.3C0.2,22.5,25.6,0,56.9,0c31.2,0,56.7,25.4,56.7,56.7s-25.4,56.7-56.7,56.7V77
			c11.2,0,20.4-9.1,20.4-20.4c0-11.2-9.1-20.4-20.4-20.4c-11.2,0-20.4,8.8-20.4,26.7V132.7z"/>
		<path class="st0" d="M107,132.6c-18.2,0-32.9-14.8-32.9-32.9c0-18.2,14.8-32.9,32.9-32.9c18.2,0,32.9,14.8,32.9,32.9h-25.7
			c0-4-3.2-7.2-7.2-7.2c-4,0-7.2,3.2-7.2,7.2c0,4,3.2,7.2,7.2,7.2V132.6z"/>
		<g>
			<path d="M4.1,151.3H0v-10.2c0-3.5,2.9-6.4,6.4-6.4c3.5,0,6.4,2.9,6.4,6.4c0,3.5-2.9,6.4-6.4,6.4v-4.1c1.2,0,2.2-1,2.2-2.2
				c0-1.2-1-2.2-2.2-2.2c-1.2,0-2.2,1-2.2,2.2V151.3z"/>
			<path d="M19.8,147.5c-3.5,0-6.4-2.9-6.4-6.4c0-3.5,2.9-6.4,6.4-6.4c3.5,0,6.4,2.9,6.4,6.4C26.2,144.7,23.3,147.5,19.8,147.5z
				 M19.8,138.9c-1.2,0-2.2,1-2.2,2.2c0,1.2,1,2.2,2.2,2.2c1.2,0,2.2-1,2.2-2.2C22,139.9,21,138.9,19.8,138.9z"/>
			<path d="M30.9,147.6h-4.1v-6.4c0-3.5,2.9-6.4,6.4-6.4s6.4,2.9,6.4,6.4v6.3h-4.1v-6.3c0-1.2-1-2.2-2.2-2.2c-1.2,0-2.2,1-2.2,2.2
				V147.6z"/>
			<path d="M53,151.3h-4.1v-4.2c-0.7,0.3-1.5,0.4-2.2,0.4c-3.5,0-6.4-2.9-6.4-6.4v-6.4h4.1v6.4c0,1.2,1,2.2,2.2,2.2
				c1.2,0,2.2-1,2.2-2.2v-6.4H53V151.3z"/>
			<path class="st0" d="M67.6,147.5c-3.5,0-6.4-2.9-6.4-6.4c0-3.5,2.9-6.4,6.4-6.4c3.5,0,6.4,2.9,6.4,6.4h-4.1c0-1.2-1-2.2-2.2-2.2
				c-1.2,0-2.2,1-2.2,2.2c0,1.2,1,2.2,2.2,2.2V147.5z"/>
			<path d="M87.4,147.6h-4.1v-6.5c0-1.2-1-2.2-2.2-2.2c-1.2,0-2.2,1-2.2,2.2c0,1.2,1,2.2,2.2,2.2v4.1c-3.5,0-6.4-2.9-6.4-6.4
				c0-3.5,2.9-6.4,6.4-6.4c3.5,0,6.4,2.9,6.4,6.4V147.6z"/>
			<path d="M92.2,147.6h-4.1v-6.5c0-3.5,2.9-6.4,6.4-6.4c3.5,0,6.4,2.9,6.4,6.4v6.4h-4.1v-6.4c0-1.2-1-2.2-2.2-2.2
				c-1.2,0-2.2,1-2.2,2.2V147.6z"/>
			<path d="M114.2,151.3h-4.1v-4.2c-0.7,0.3-1.5,0.4-2.2,0.4c-3.5,0-6.4-2.9-6.4-6.4v-6.4h4.1v6.4c0,1.2,1,2.2,2.2,2.2
				c1.2,0,2.2-1,2.2-2.2v-6.4h4.1V151.3z"/>
			<path d="M121.3,147.5c-3.5,0-6.4-2.9-6.4-6.4c0-3.5,2.9-6.4,6.4-6.4c3.5,0,6.4,2.9,6.4,6.4C127.6,144.7,124.8,147.5,121.3,147.5z
				 M121.3,138.9c-1.2,0-2.2,1-2.2,2.2c0,1.2,1,2.2,2.2,2.2c1.2,0,2.2-1,2.2-2.2C123.5,139.9,122.5,138.9,121.3,138.9z"/>
			<path d="M141,147.6h-4.1v-6.5c0-1.2-1-2.2-2.2-2.2c-1.2,0-2.2,1-2.2,2.2v6.5h-4.1v-6.5c0-3.5,2.9-6.4,6.4-6.4
				c3.5,0,6.4,2.9,6.4,6.4V147.6z"/>
		</g>
	</g>
</g>
</svg>
