<?xml version="1.0" encoding="utf-8"?>
<!-- Generator: Adobe Illustrator 16.0.0, SVG Export Plug-In . SVG Version: 6.00 Build 0)  -->
<!DOCTYPE svg PUBLIC "-//W3C//DTD SVG 1.1//EN" "http://www.w3.org/Graphics/SVG/1.1/DTD/svg11.dtd">
<svg version="1.1"
	 id="svg2" xmlns:dc="http://purl.org/dc/elements/1.1/" xmlns:cc="http://creativecommons.org/ns#" xmlns:rdf="http://www.w3.org/1999/02/22-rdf-syntax-ns#" xmlns:svg="http://www.w3.org/2000/svg" xmlns:sodipodi="http://sodipodi.sourceforge.net/DTD/sodipodi-0.dtd" xmlns:inkscape="http://www.inkscape.org/namespaces/inkscape" inkscape:export-ydpi="90" inkscape:export-filename="F:\Diavolerie di Filippo\THQ logo 1994.png" inkscape:export-xdpi="90" sodipodi:docname="THQ logo 1994.svg" inkscape:version="0.48.4 r9939"
	 xmlns="http://www.w3.org/2000/svg" xmlns:xlink="http://www.w3.org/1999/xlink" x="0px" y="0px" width="999.999px"
	 height="1000px" viewBox="21.661 32.635 999.999 1000" enable-background="new 21.661 32.635 999.999 1000" xml:space="preserve">
<sodipodi:namedview  fit-margin-left="0" fit-margin-top="0" showgrid="false" inkscape:cy="509.78744" inkscape:cx="767.93078" inkscape:zoom="0.24748737" borderopacity="1.0" bordercolor="#666666" pagecolor="#ffffff" id="base" fit-margin-bottom="0" fit-margin-right="0" inkscape:window-maximized="1" inkscape:window-y="-8" inkscape:current-layer="layer1" inkscape:pageshadow="2" inkscape:pageopacity="0.0" inkscape:window-x="-8" inkscape:document-units="px" inkscape:window-height="837" inkscape:window-width="1600">
	</sodipodi:namedview>
<g>
	<path id="rect3009" d="M21.661,32.635h999.999v1000H21.661V32.635z"/>
	<path id="rect3779" fill="#D90010" d="M157.88,808.772H901.47v103.631H157.88V808.772z"/>
	<g>
		<polyline fill="#FFFFFF" points="354.753,203.368 299.054,203.368 299.054,713.063 225.695,713.063 225.695,203.368 
			152.324,203.368 152.324,144.455 354.753,144.455 354.753,144.452 354.753,203.364 		"/>
		<path id="path3032" fill="#FFFFFF" d="M405.212,713.059H478.8V458.21h73.588v254.849h73.587V144.452h-73.587v254.823H478.8
			V144.452h-73.588V713.059z"/>
		<g>
			<g id="flowRoot3812" transform="matrix(21.441209,0,0,21.441209,-873.427,-11147.27)">
				<path id="path3029" fill="#FFFFFF" d="M72.716,549.1c0,0.56,0.133,1.084,0.4,1.571c0.267,0.487,0.623,0.913,1.067,1.279
					c0.445,0.365,0.963,0.657,1.556,0.877c0.593,0.219,1.231,0.329,1.913,0.329c0.681,0,1.318-0.11,1.911-0.329
					c0.593-0.219,1.112-0.511,1.556-0.877c0.445-0.365,0.8-0.791,1.067-1.279c0.267-0.487,0.4-1.011,0.4-1.571v-18.41
					c0-0.56-0.133-1.083-0.4-1.57c-0.267-0.487-0.623-0.913-1.067-1.279c-0.445-0.365-0.963-0.657-1.556-0.877
					c-0.593-0.219-1.23-0.329-1.911-0.329c-0.682,0-1.32,0.11-1.913,0.329c-0.593,0.219-1.112,0.512-1.556,0.877
					c-0.445,0.365-0.8,0.792-1.067,1.279c-0.267,0.487-0.4,1.011-0.4,1.57V549.1z M79.297,550.233h-3.291v-20.675h3.291V550.233z"/>
			</g>
			<path id="path3820" sodipodi:nodetypes="cccc" inkscape:connector-curvature="0" fill="#FFFFFF" d="M823.704,705.088
				c16.693,53.245,52.383,63.419,73.651,63.26v-276.58L823.704,705.088z"/>
		</g>
	</g>
	<g id="flowRoot3850" transform="matrix(1.8826968,0,0,0.41738523,261.25583,413.67433)">
	</g>
</g>
</svg>
