<?xml version="1.0" encoding="UTF-8"?>
<svg width="800px" height="400px" viewBox="0 0 800 400" version="1.1" xmlns="http://www.w3.org/2000/svg" xmlns:xlink="http://www.w3.org/1999/xlink">
    <title>accolade_2</title>
    <g id="Page-1" stroke="none" stroke-width="1" fill="none" fill-rule="evenodd">
        <g id="Manufacturer" fill="#000000" fill-rule="nonzero">
            <g id="accolade_2">
                <line x1="0" y1="0" x2="800" y2="400" id="Path"></line>
                <path d="M-2.13162821e-14,253.703651 L41.3758595,253.703651 L55.8303082,231.299255 L94.6766391,231.299255 L94.6766391,253.703651 L127.741191,253.703651 L127.741191,120 L92.869833,120 L-2.13162821e-14,253.703651 Z M69.7427151,204.919886 L94.6766391,168.603084 L94.6766391,204.919886 L69.7427151,204.919886 Z M475.564613,120 L475.56341,202.258849 C476.139062,170.083752 499.552764,149.992981 525.962457,149.992981 C542.404393,149.992981 551.619104,157.942928 555.594077,164.086069 L555.594077,153.425913 L585.587058,153.425913 L585.587058,253.703651 L555.594077,253.703651 L555.594077,242.862814 C550.173659,252.619567 537.706697,257.136582 525.962457,257.136582 C494.60001,257.136582 476.066949,232.88377 475.563113,204.657523 L475.564613,253.703651 L445.571632,253.703651 L445.571,203.537 L445.566373,204.212109 C445.219214,228.617973 427.680638,256.774498 391.54813,256.774498 C360.955366,256.774498 343.692059,236.589893 338.906935,215.587146 C333.489427,238.345799 313.43388,256.955902 286.331788,256.955902 C255.977446,256.955902 232.669647,233.106061 232.669647,203.293761 C232.669647,173.842821 255.616085,149.992981 285.609066,149.992981 C312.162972,149.992981 333.660162,167.510894 338.725652,192.074514 C343.24253,170.889267 360.555033,150.172939 391.54813,150.172939 C427.680638,150.172939 445.219214,178.329464 445.566373,202.735328 L445.571,203.473 L445.571632,120 L475.564613,120 Z M180.681814,149.992981 C207.241863,149.992981 228.742856,167.519 233.801913,192.091563 L203.44757,192.091563 C200.195319,185.2257 194.232859,177.998475 181.765897,177.998475 C174.719353,177.637114 168.756893,180.347323 164.420559,185.045019 C160.264905,189.742715 157.916057,196.247217 157.916057,203.474441 C157.916057,218.109571 167.492129,228.950407 181.765897,228.950407 C194.232859,228.950407 200.195319,221.723183 203.44757,215.580042 L233.982593,215.580042 C228.562175,238.345799 208.506627,256.955902 181.404536,256.955902 C151.050194,256.955902 127.742395,233.106061 127.742395,203.293761 C127.742395,173.842821 150.688832,149.992981 180.681814,149.992981 Z M694.718146,120 L694.718146,253.703651 L666.17061,253.703651 L666.17061,242.862814 C663.27972,247.018468 656.052496,256.955902 635.816268,256.955902 C605.461925,256.955902 585.587058,233.467422 585.587058,203.293761 C585.587058,169.325806 609.79826,149.992981 635.274226,149.992981 C652.980926,149.992981 661.472914,158.66565 664.725165,161.917901 L664.725165,120 L694.718146,120 Z M530.298792,177.998475 C513.134134,177.998475 505.545549,192.452924 505.545549,203.835803 L505.545549,204.016483 C505.545549,213.231194 512.411412,229.131088 530.479473,229.131088 C541.139629,229.131088 547.644131,224.072031 551.438423,217.92889 C553.967952,213.953917 555.232716,209.617582 555.594077,205.100567 C555.955439,200.583552 555.052035,196.066536 553.064549,191.910882 C549.812298,185.045019 542.946435,177.998475 530.298792,177.998475 Z M269.347811,185.045019 C265.192157,189.742715 262.843309,196.247217 262.843309,203.474441 C262.843309,218.109571 272.419381,228.950407 286.69315,228.950407 C299.160112,228.950407 305.122572,221.723183 308.374823,215.580042 L338.905339,215.580139 C337.982828,211.528692 337.524628,207.446883 337.524628,203.473719 L337.524628,203.293038 C337.524628,199.619908 337.922062,195.848443 338.721867,192.091555 L308.374823,192.091563 C305.122572,185.2257 299.160112,177.998475 286.69315,177.998475 C279.646606,177.637114 273.684146,180.347323 269.347811,185.045019 Z M641.056005,177.998475 C623.710667,177.998475 615.58004,191.549521 615.58004,203.11308 L615.58004,203.293761 C615.58004,218.651613 626.601557,228.950407 640.694644,228.950407 C647.921869,228.950407 654.607051,226.059518 659.304747,221.361822 C664.002443,216.664126 666.712652,210.159624 666.351291,202.751719 C666.351291,195.524495 663.460401,189.381354 658.943386,185.045019 C654.42637,180.528004 648.102549,177.998475 641.056005,177.998475 Z M391.54813,178.178433 C378.539126,178.178433 367.517609,188.838589 367.517609,203.473719 L367.517609,203.654399 C367.517609,218.108848 378.539126,228.769004 391.54813,228.769004 C404.557134,228.769004 415.578651,218.108848 415.578651,203.473719 C415.578651,188.838589 404.557134,178.178433 391.54813,178.178433 Z M799.344264,213.953917 C801.693112,195.524495 797.898819,179.44392 785.251177,165.892875 C775.855785,155.955441 762.666101,149.992981 747.308249,149.992981 C716.773226,149.992981 694.730192,175.830308 694.730192,203.835803 C694.730192,233.648103 719.122074,256.955902 747.850291,256.955902 C758.149085,256.955902 768.086519,253.884331 776.397827,247.921871 C784.889816,242.140092 791.936359,233.467422 796.814736,222.265225 L766.099032,222.265225 C762.48542,227.504962 757.426363,231.660616 747.850291,231.660616 C736.106051,231.660616 725.987937,224.614073 724.723173,213.953917 L799.344264,213.953917 Z M725.084534,191.18816 C725.807256,186.490464 731.950397,175.288266 747.488929,175.288266 C763.027462,175.288266 769.170603,186.490464 769.893325,191.18816 L725.084534,191.18816 Z" id="Combined-Shape"></path>
            </g>
        </g>
    </g>
</svg>