<?xml version="1.0" encoding="UTF-8"?>
<svg width="800px" height="400px" viewBox="0 0 800 400" version="1.1" xmlns="http://www.w3.org/2000/svg" xmlns:xlink="http://www.w3.org/1999/xlink">
    <title>bethesda_2</title>
    <g id="Page-1" stroke="none" stroke-width="1" fill="none" fill-rule="evenodd">
        <g id="bethesda_2" fill="#000000">
            <line x1="0" y1="0" x2="800" y2="400" id="Path" fill-rule="nonzero"></line>
            <path d="M51.6419253,5.11585651 C51.5842984,5.59804069 51.5407843,9.96121946 51.5430454,14.8124627 L51.5490167,23.632905 L71.339737,23.9563212 L91.1304573,24.2809134 L97.3118232,30.3846595 L103.493189,36.4895816 L103.493189,51.8583202 L103.493189,67.2270588 L97.2824217,73.3613823 L91.0704783,79.4957059 L71.4091245,79.4957059 L51.7465946,79.4957059 L51.7465946,137.122595 L51.7465946,194.749485 L80.2918978,194.749485 L108.837201,194.749485 L118.513814,185.022301 L128.190427,175.295117 L128.190427,138.891388 L128.190427,102.487659 L120.575446,94.813874 L112.959288,87.1400892 L120.575446,79.1005501 L128.190427,71.0621871 L128.190427,50.8551419 L128.190427,30.6492728 L115.451357,17.950188 L102.712286,5.24992723 L77.2294403,4.74539793 C63.2143456,4.46667196 51.6995522,4.63367233 51.6419253,5.11585651 M139.951017,14.0386159 L139.951017,24.2209344 L170.52855,24.2209344 L201.106083,24.2209344 L201.106083,14.8124627 L201.106083,5.40399096 L192.579656,5.40046278 C187.889533,5.39928672 174.130819,5.04999721 162.002123,4.62661598 L139.951017,3.85629735 L139.951017,14.0386159 M285.390701,5.01236332 C284.959088,5.4428009 284.60627,48.5747635 284.60627,100.861169 L284.60627,195.925544 L296.954889,195.925544 L309.303508,195.925544 L309.303508,147.751816 L309.303508,99.5769128 L320.182054,99.2393839 L331.060599,98.9006789 L331.401656,89.1981924 L331.74389,79.4957059 L320.523111,79.4957059 L309.303508,79.4957059 L309.303508,41.861819 L309.303508,4.22793199 L297.739321,4.22793199 C291.378018,4.22793199 285.821139,4.58074968 285.390701,5.01236332 M343.317486,4.48078467 C343.268091,4.66542592 343.088154,47.8326703 342.919978,100.408386 L342.611851,196.000811 L355.065139,195.669163 L367.518427,195.337514 L367.212652,100.076738 L366.908053,4.81596147 L355.158048,4.48078467 C348.69678,4.29614341 343.368056,4.29614341 343.317486,4.48078467 M380.363343,5.80855524 C380.029343,6.67766282 379.914089,11.2325392 380.105787,15.9297187 L380.455076,24.4726111 L411.032609,24.6407875 L441.610142,24.8089639 L441.950023,14.518448 L442.289904,4.22793199 L411.630047,4.22793199 C387.046887,4.22793199 380.849056,4.54076367 380.363343,5.80855524 M467.33996,17.6208915 L453.958761,31.0150271 L453.958761,56.7330846 L453.958761,82.4523182 L485.124324,113.601416 L516.289887,144.750514 L516.289887,153.60271 L516.289887,162.454905 L505.388996,173.30993 L494.488106,184.164954 L477.163581,184.164954 L459.839056,184.164954 L459.839056,190.045249 L459.839056,195.925544 L486.025185,195.925544 L512.210138,195.925544 L526.01119,182.08921 L539.811066,168.252876 L539.811066,148.857312 L539.811066,129.461747 L509.233533,98.9006789 L478.656,68.3396105 L478.656,52.4110679 L478.656,36.4813492 L484.282266,30.9385833 L489.909708,25.3969934 L499.571032,25.3969934 L509.233533,25.3969934 L509.233533,14.8124627 L509.233533,4.22793199 L494.977346,4.22793199 L480.719983,4.22793199 L467.33996,17.6208915 M551.571656,14.2244332 L551.571656,24.2209344 L572.406716,24.2209344 L593.240601,24.2209344 L598.574029,29.4732138 L603.90628,34.7243171 L603.31825,108.563179 L602.730221,182.400866 L589.499558,182.73369 L576.268894,183.066515 L576.268894,127.752934 L576.268894,72.4393521 L563.920275,72.4393521 L551.571656,72.4393521 L551.571656,133.594418 L551.571656,194.749485 L580.679115,194.7389 L609.786575,194.729492 L618.901032,185.438626 L628.015489,176.14776 L628.015489,101.632664 L628.015489,27.1163916 L616.527745,15.6721618 L605.040001,4.22793199 L578.305828,4.22793199 L551.571656,4.22793199 L551.571656,14.2244332 M213.454703,90.5788856 L213.454703,175.746724 L223.451204,185.819669 L233.447705,195.892614 L254.322752,195.909079 L275.197798,195.925544 L275.197798,190.045249 L275.197798,184.164954 L263.103208,184.164954 L251.008618,184.164954 L244.580279,177.656644 L238.151941,171.148333 L238.151941,97.9786486 L238.151941,24.8089639 L256.67487,24.4855477 L275.197798,24.1609554 L275.197798,14.7830612 L275.197798,5.40399096 L244.326251,5.40751913 L213.454703,5.41104731 L213.454703,90.5788856 M679.762083,7.99132068 C679.762083,9.48021134 680.566508,14.4020181 681.550869,18.9286691 C682.534054,23.4564961 683.795966,29.277988 684.353417,31.8653177 C684.910869,34.4526475 687.075994,43.9787251 689.164675,53.0343791 C691.253355,62.0900332 693.115057,70.6376298 693.30205,72.0277315 C693.489044,73.4190092 693.980636,75.6264719 694.395785,76.9330734 C695.235491,79.57803 695.330752,79.9896507 697.987469,92.4323546 C699.023577,97.2835978 700.877046,105.486609 702.107204,110.661269 C703.337361,115.835928 704.575751,121.392807 704.859182,123.009888 C705.375472,125.961796 708.676669,140.174468 712.916362,157.703627 C714.167688,162.878287 715.500163,170.95546 715.876502,175.652639 L716.560968,184.193179 L683.166774,183.712171 C655.979819,183.319368 649.812566,182.934796 649.990151,181.639955 C650.110109,180.764968 651.588415,172.639576 653.276059,163.583922 C654.963704,154.528268 657.425195,141.297605 658.748262,134.182448 C660.070152,127.067291 662.236453,115.953534 663.563047,109.48521 C665.019008,102.381813 666.193891,91.0881192 666.530244,80.9657796 C667.024189,66.1086267 666.872477,64.2069393 665.191889,64.2069393 C664.1499,64.2069393 663.253744,64.8690605 663.200821,65.677013 C662.997363,68.7594636 661.929501,74.551554 659.783194,84.1999418 C657.459301,94.6492257 654.196913,110.507205 653.131404,116.541563 C652.787995,118.482061 651.197963,126.155845 649.598523,133.594418 C647.997907,141.032991 646.4361,148.442163 646.126797,150.059244 C645.817493,151.676325 645.338837,153.793231 645.064816,154.76348 C644.789618,155.733728 644.255687,158.379861 643.879348,160.643775 C643.501833,162.907688 642.424563,168.099989 641.484892,172.183265 C640.545221,176.266542 639.776078,183.013592 639.776078,187.178017 L639.776078,194.749485 L689.170555,194.749485 L738.565032,194.749485 L738.565032,183.529882 C738.565032,172.585477 736.724499,163.919099 727.838198,133.006389 C727.094929,130.419059 726.031771,126.714473 725.475495,124.773976 C724.919219,122.833479 723.392695,117.2766 722.082565,112.425357 C720.772436,107.574114 719.191812,101.752622 718.572029,99.4887084 C717.952246,97.2247949 716.364567,91.403303 715.043852,86.5520597 C713.723138,81.7008165 712.121346,75.8793246 711.482746,73.6154111 C709.497558,66.5755221 701.141659,36.09913 696.97253,20.6927575 L692.993923,5.99202044 L686.377415,5.63920275 C680.156063,5.30755412 679.762083,5.44750514 679.762083,7.99132068 M139.951017,127.396588 L139.951017,175.297469 L150.216836,185.611507 L160.482655,195.925544 L180.794369,195.925544 L201.106083,195.925544 L201.106083,190.045249 L201.106083,184.164954 L189.011493,184.164954 L176.916903,184.164954 L170.782579,177.954187 L164.648255,171.742243 L164.648255,135.616064 L164.648255,99.4887084 L182.877169,99.4887084 L201.106083,99.4887084 L201.106083,89.4922071 L201.106083,79.4957059 L170.52855,79.4957059 L139.951017,79.4957059 L139.951017,127.396588 M380.484477,127.683546 L380.512703,175.869034 L390.769113,185.897289 L401.025523,195.925544 L421.612436,195.925544 L442.198172,195.925544 L442.198172,190.045249 L442.198172,184.164954 L430.10711,184.164954 L418.014871,184.164954 L411.290166,177.368509 L404.564285,170.572064 L404.564285,135.030386 L404.564285,99.4887084 L423.381228,99.4887084 L442.198172,99.4887084 L442.198172,89.4922071 L442.198172,79.4957059 L411.326624,79.496882 L380.455076,79.498058 L380.484477,127.683546 M75.5464999,141.532816 L75.8558034,183.576925 L87.8868866,183.446382 C95.6653407,183.361706 100.549514,182.791317 101.70558,181.832829 C103.232104,180.565038 103.493189,175.197504 103.493189,145.033944 L103.493189,109.719245 L98.0774376,104.604565 C92.6899115,99.5157577 92.6169958,99.4887084 83.9494412,99.4887084 L75.2383725,99.4887084 L75.5464999,141.532816 M13.6352277,218.160115 L0,231.830624 L0,256.625475 L0,281.41915 L31.7535921,313.35856 L63.5071843,345.296793 L63.5071843,353.251656 L63.5071843,361.206519 L52.0194403,372.650749 L40.5316963,384.094979 L23.2059955,384.094979 L5.88029484,384.094979 L5.88029484,389.387244 L5.88029484,394.679509 L23.2271646,394.757129 C32.768531,394.799467 44.5432334,395.005278 49.3944766,395.21344 L58.2149189,395.594483 L72.0336118,381.968664 L85.8523046,368.342845 L85.8523046,348.867308 L85.8523046,329.391772 L54.686742,298.242674 L23.5211794,267.093576 L23.5211794,252.418712 L23.5211794,237.743848 L30.2470606,230.947404 L36.9717658,224.150959 L46.1238567,224.150959 L55.2747715,224.150959 L55.2747715,214.742487 L55.2747715,205.334015 L43.8081965,205.18348 C37.5009923,205.101156 31.2008444,204.91181 29.8060385,204.761275 C27.9560977,204.563697 23.5776302,208.190663 13.6352277,218.160115 M122.311309,214.448472 L122.310133,224.150959 L137.207272,224.150959 L152.104411,224.150959 L157.161464,229.737239 L162.217342,235.323519 L162.257328,293.997101 L162.296138,352.670683 L159.181933,362.208521 C157.468415,367.45492 155.711383,372.275586 155.277418,372.922418 C154.842276,373.569251 153.777942,376.348278 152.911187,379.096728 L151.335268,384.094979 L142.931151,384.094979 L134.525857,384.094979 L129.300627,369.688256 L124.074221,355.281534 L123.750805,313.825455 L123.427389,272.369377 L111.108171,272.369377 L98.7889533,272.369377 L98.7889533,312.323628 L98.7889533,352.277879 L104.305846,361.42409 C116.947304,382.380285 120.462544,387.650205 124.227109,391.299516 C128.182195,395.132292 128.223357,395.142876 142.405452,395.642702 L156.620477,396.143703 L161.870404,391.001973 C167.32967,385.652081 169.279576,382.797785 180.345115,363.949088 L186.993376,352.623641 L186.993376,289.835028 L186.993376,227.046416 L175.410371,215.506926 L163.827366,203.967435 L143.069926,204.35671 L122.312485,204.745986 L122.311309,214.448472 M203.458201,214.554318 L203.458201,224.950679 L234.035735,225.219997 L264.613268,225.488138 L264.613268,214.822459 L264.613268,204.157956 L234.035735,204.157956 L203.458201,204.157956 L203.458201,214.554318 M278.725975,289.692725 L278.725975,375.227494 L288.991794,385.541531 L299.257613,395.855568 L319.569327,395.855568 L339.881042,395.855568 L339.881042,389.975273 L339.881042,384.094979 L327.786451,384.094979 L315.691861,384.094979 L309.557537,377.884211 L303.423214,371.672268 L303.423214,298.500231 L303.423214,225.327018 L321.652128,225.327018 L339.881042,225.327018 L339.881042,214.742487 L339.881042,204.157956 L309.303508,204.157956 L278.725975,204.157956 L278.725975,289.692725 M350.111579,204.903578 C349.659972,205.356361 349.289513,239.757261 349.289513,281.350939 L349.289513,356.976235 L352.104999,363.18465 C353.652692,366.599925 356.846868,374.15728 359.202514,379.978772 C366.178896,397.223325 364.786442,395.855568 375.361565,395.855568 L384.571282,395.855568 L384.571282,389.975273 L384.571282,384.094979 L379.867047,384.094979 L375.162811,384.094979 L374.882909,329.114222 C374.728845,298.875394 374.597126,258.521282 374.588894,239.439726 L374.574781,204.745986 L362.754212,204.413161 C356.254135,204.230872 350.564361,204.450795 350.111579,204.903578 M391.627636,280.868755 L391.627636,357.380799 L395.860272,368.091168 C398.187693,373.983224 400.429262,379.33194 400.839706,379.978772 C401.251327,380.625605 401.618257,381.419444 401.655891,381.742861 C401.692349,382.066277 402.891929,384.91234 404.319665,388.06653 C405.7474,391.221896 406.916403,394.26436 406.916403,394.828869 C406.916403,395.393377 410.356375,395.855568 414.560786,395.855568 L422.205169,395.855568 L422.205169,389.975273 C422.205169,384.49131 422.007591,384.094979 419.272078,384.094979 L416.338987,384.094979 L416.037916,294.420482 L415.736845,204.745986 L403.682241,204.55076 L391.627636,204.35671 L391.627636,280.868755 M428.085464,300.006762 L428.085464,395.855568 L432.266354,395.855568 C436.234377,395.855568 436.595427,395.510983 439.362694,389.093229 C440.965662,385.373355 442.777969,381.272437 443.38952,379.978772 C444.00107,378.685107 446.364949,373.144693 448.641799,367.665435 L452.782703,357.705391 L452.782703,280.931086 L452.782703,204.157956 L440.434083,204.157956 L428.085464,204.157956 L428.085464,300.006762 M489.240531,214.154458 L489.240531,224.150959 L504.279973,224.150959 L519.318239,224.150959 L524.861005,229.777225 L530.402594,235.404667 L530.416707,293.578424 L530.429644,351.753357 L524.896286,367.970034 L519.361753,384.185535 L510.643628,383.84683 L501.924326,383.506949 L496.759076,368.3205 L491.592648,353.135226 L491.592648,312.751713 L491.592648,272.369377 L479.244029,272.369377 L466.89541,272.369377 L466.89541,312.451818 L466.89541,352.533084 L471.173913,359.788192 C473.526031,363.777384 476.780186,369.423643 478.405499,372.334389 C483.057989,380.671471 487.463505,386.664667 492.54408,391.571185 L497.24126,396.107245 L511.416298,395.683864 L525.590161,395.261658 L530.284988,390.677381 C532.867614,388.15591 537.469533,381.806368 540.511997,376.568201 C543.554462,371.328858 548.082289,363.747982 550.572006,359.721156 L555.099833,352.399013 L555.099833,289.723303 L555.099833,227.046416 L543.612089,215.602186 L532.124345,204.157956 L510.682438,204.157956 L489.240531,204.157956 L489.240531,214.154458 M560.980128,214.660163 L560.980128,225.16237 L580.091086,224.715467 L599.202044,224.268565 L605.376354,230.344085 L611.550663,236.419606 L611.550663,255.32005 L611.550663,274.221669 L605.924397,279.764435 L600.296955,285.306025 L582.991247,285.306025 L565.684363,285.306025 L565.684363,292.362379 C565.684363,298.823647 565.899582,299.418733 568.241116,299.418733 C572.67133,299.418733 581.981013,310.806512 596.478291,333.959585 L610.374604,356.151817 L610.374604,375.456825 L610.374604,394.761833 L622.429209,394.426657 L634.483813,394.09148 L634.787236,373.510448 L635.090659,352.929416 L629.033956,343.520944 C619.759555,329.113046 618.18834,326.643322 611.44129,315.883558 C607.994261,310.385483 604.827134,305.622444 604.403753,305.299028 C603.981548,304.975611 603.264152,303.520827 602.809017,302.064866 C602.024586,299.548099 602.290375,299.418733 608.261226,299.418733 L614.540205,299.418733 L624.806024,289.104696 L635.071843,278.790659 L635.071843,254.278062 L635.071843,229.765464 L622.486835,216.96171 L609.901828,204.157956 L585.440978,204.157956 L560.980128,204.157956 L560.980128,214.660163 M682.52935,207.098104 C681.008706,208.495262 673.840626,224.824841 664.872001,247.324025 C651.01685,282.075391 649.530311,285.226053 646.832432,285.545941 C644.286265,285.847012 643.913454,286.445626 644.049877,290.010261 C644.415631,299.55398 644.368589,299.418733 647.276982,299.418733 C649.639685,299.418733 650.4888,300.560686 652.740952,306.769101 C654.208674,310.812392 656.079784,315.70715 656.901849,317.647647 C657.722738,319.588144 662.724517,332.289581 668.015606,345.873062 C673.307872,359.456543 678.380214,372.237952 679.288132,374.276062 C680.196049,376.314172 680.938142,378.351107 680.938142,378.802713 C680.938142,379.25432 681.704933,381.291254 682.641076,383.329364 C683.577219,385.367474 684.80032,388.887419 685.358948,391.151332 L686.373887,395.267539 L696.131648,395.610948 L705.889409,395.954357 L705.411929,386.790506 C705.102626,380.856112 704.072398,375.761425 702.490599,372.334389 C701.146363,369.423643 693.894784,351.660448 686.376239,332.85997 C669.36337,290.320741 669.591525,292.729309 680.251324,268.068529 C696.476233,230.533431 698.635478,225.870357 700.39251,224.571988 C701.816717,223.519415 702.135429,221.268438 701.864936,214.179155 L701.519174,205.130557 L693.303226,204.93886 C686.553824,204.780092 684.630967,205.165839 682.52935,207.098104 M728.218065,217.507402 L714.810993,230.778051 L714.906253,256.543151 L715.00269,282.308251 L746.188246,313.510271 L777.374978,344.713468 L777.374978,353.544495 L777.374978,362.376698 L766.417636,373.23525 L755.460295,384.094979 L737.604191,384.094979 L719.748088,384.094979 L719.748088,389.975273 L719.748088,395.855568 L746.522247,395.855568 L773.297581,395.855568 L786.648203,382.466137 L800,369.076706 L799.821239,348.654442 L799.642478,328.232178 L769.103755,297.765194 L738.565032,267.29821 L738.565032,252.457522 L738.565032,237.616834 L744.932215,230.883897 L751.299398,224.150959 L760.220981,224.150959 L769.142565,224.150959 L769.142565,214.742487 L769.142565,205.334015 L765.908403,205.198769 C764.129025,205.124677 757.938251,204.876529 752.149689,204.649549 L741.625137,204.235576 L728.218065,217.507402 M203.458201,337.05262 L203.458201,394.679509 L215.806821,394.679509 L228.15544,394.679509 L228.15544,347.049121 L228.15544,299.418733 L246.384354,299.418733 L264.613268,299.418733 L264.613268,289.422232 L264.613268,279.42573 L234.035735,279.42573 L203.458201,279.42573 L203.458201,337.05262" id="Shape"></path>
        </g>
    </g>
</svg>