<?xml version="1.0" encoding="UTF-8"?>
<svg width="800px" height="400px" viewBox="0 0 800 400" version="1.1" xmlns="http://www.w3.org/2000/svg" xmlns:xlink="http://www.w3.org/1999/xlink">
    <title>bethesdagamestudios</title>
    <g id="Page-1" stroke="none" stroke-width="1" fill="none" fill-rule="evenodd">
        <g id="bethesdagamestudios" fill="#000000">
            <line x1="0" y1="0" x2="800" y2="400" id="Path" fill-rule="nonzero"></line>
            <path d="M107.783738,247.592341 L185.105534,248.191003 L193.485509,266.810298 L186.359012,273.85846 L183.262137,276.962829 C180.389599,279.859961 178.726261,281.595183 177.673776,282.713706 L175.806629,284.707807 L175.605814,284.907219 C168.554854,291.750395 171.880567,296.250529 174.350147,298.73942 L192.4149,316.478561 L192.883533,316.919994 C196.22518,319.978047 200.838505,322.262971 205.848856,317.378887 L225.137018,298.152778 L267.961397,316.15143 L267.917958,329.436977 L267.922225,336.394876 C267.928562,338.709824 267.940755,340.875554 267.961397,342.661945 C268.057867,351.01027 272.193151,352.445053 275.947299,352.465772 L278.051563,352.438713 C278.451834,352.435955 278.89704,352.434066 279.380318,352.432916 L286.77676,352.447095 C290.723038,352.462899 295.003014,352.485609 298.275937,352.489805 L301.441797,352.485491 C301.987587,352.482433 302.45131,352.477851 302.815911,352.471421 L304.096066,352.432656 C307.317366,352.296235 311.741981,351.590156 312.329626,342.66841 L312.329626,315.841109 L355.464327,298.465686 L405.326541,347.195226 C373.380226,372.421785 333.034541,387.485312 289.175757,387.485312 C202.074952,387.485312 128.846816,328.088468 107.783738,247.592341 Z M773.918764,251.837282 L783.740442,251.837282 C794.83414,251.837282 797.778764,254.61334 797.887916,260.385027 L797.891106,261.891701 L793.608668,261.891701 L793.588389,261.068539 C793.428388,256.524118 792.357643,255.595519 781.62412,255.562095 L775.037559,255.564159 C767.090164,255.611211 764.23673,256.267516 764.23673,261.567156 L764.247267,262.162626 C764.377441,265.611725 765.779863,266.85295 772.079067,266.917524 L786.114402,266.920204 C795.003822,266.920204 798.728975,269.480357 798.728975,275.208376 L798.728975,277.393557 C798.728975,284.852912 793.223133,286.089001 787.201583,286.261625 L785.991875,286.283499 L772.521023,286.286857 C765.87109,286.286857 760.004719,285.123151 760.004719,277.769822 L760.004719,275.30018 L764.283278,275.293715 L764.283278,277.672847 C764.283278,280.976479 766.052111,282.560412 771.730996,282.560412 L785.881661,282.560412 C792.491511,282.560412 794.446537,281.163965 794.446537,276.321655 C794.446537,272.21035 792.867923,271.080871 787.582664,271.017987 L777.073039,271.012098 C764.215765,270.950382 759.954292,269.880629 759.954292,261.240026 C759.954292,253.559566 764.514727,251.837282 773.918764,251.837282 Z M602.2049,252.204495 L602.2049,277.388385 C602.2049,280.646762 603.320764,282.560412 609.510387,282.560412 L625.336788,282.560412 C631.345618,282.560412 632.574757,280.762546 632.641861,277.678726 L632.644861,252.212254 L637.206589,252.212254 L637.206589,277.441399 C637.206589,284.281403 633.762019,286.285564 625.197143,286.285564 L609.652618,286.285564 L608.56436,286.273965 C600.794725,286.102147 597.643172,283.984012 597.643172,277.441399 L597.643172,252.212254 L602.2049,252.204495 Z M740.776418,251.83211 C749.902459,251.83211 752.78845,255.928355 752.78845,264.447975 L752.78845,273.664526 C752.78845,282.18544 749.902459,286.284271 740.776418,286.284271 L721.368389,286.284271 C712.242348,286.284271 709.356357,282.18544 709.356357,273.670991 L709.356357,264.449268 C709.356357,255.928355 712.242348,251.83211 721.368389,251.83211 L740.776418,251.83211 Z M523.050103,251.83439 L533.454445,251.83211 L534.721598,251.84493 C544.973518,252.058722 547.599937,254.949051 547.599937,260.722823 L547.599937,261.886529 L543.320085,261.886529 L543.299785,261.063367 C543.13954,256.518946 542.066561,255.590347 531.332954,255.556923 L524.750269,255.558987 C516.802874,255.606039 513.94944,256.262344 513.94944,261.561984 C513.94944,265.467527 515.142618,266.84432 521.791777,266.912357 L535.827112,266.915032 C544.716533,266.915032 548.440392,269.475185 548.440392,275.203204 L548.440392,277.388385 C548.440392,285.510794 541.908505,286.25689 535.294659,286.283485 L522.231148,286.284271 C515.572164,286.284271 509.705793,285.120565 509.705793,277.763357 L509.705793,275.293715 L513.995988,275.292422 L513.995988,277.666382 C513.995988,280.971307 515.764821,282.553947 521.443707,282.553947 L535.594371,282.553947 L536.599742,282.542043 C542.404597,282.39741 544.159247,280.902709 544.159247,276.316483 C544.159247,272.205178 542.580633,271.075699 537.295374,271.012815 L528.147946,271.009984 C514.22873,271.009984 509.667002,270.173408 509.667002,261.234854 C509.667002,253.714404 514.040638,251.906457 523.050103,251.83439 L523.050103,251.83439 Z M299.113806,251.830817 L316.336654,251.830817 C322.387925,251.830817 328.856837,253.32036 328.856837,261.093916 L328.856837,262.298998 L324.574399,262.298998 L324.566465,261.636294 C324.425842,256.088438 322.336144,255.567674 312.006382,255.549997 L299.577995,255.549504 C295.207633,255.549504 291.664795,256.852854 291.664795,262.717932 L291.664795,275.376467 C291.664795,281.242838 295.207633,282.546189 299.577995,282.546189 L317.408556,282.546189 C321.972869,282.546189 324.765764,280.963549 324.765764,276.310018 L324.765764,272.911996 L307.498953,272.911996 L307.498953,269.188137 L329.328784,269.188137 L329.328784,273.842961 C329.322319,283.019429 326.343232,286.277806 317.918001,286.277806 L299.11122,286.277806 C289.987765,286.277806 287.101774,282.181561 287.101774,273.663233 L287.101774,264.446682 C287.101774,255.925768 289.987765,251.830817 299.113806,251.830817 Z M391.791348,252.204495 L411.496768,280.460569 L431.189259,252.204495 L438.311139,252.204495 L438.311139,285.90542 L433.749412,285.90542 L433.749412,256.30074 L433.658902,256.30074 L413.128543,285.90542 L409.870166,285.90542 L389.324291,256.30074 L389.229901,256.30074 L389.229901,285.90542 L384.669467,285.90542 L384.669467,252.204495 L391.791348,252.204495 Z M480.062323,252.204495 L480.062323,255.928355 L451.530839,255.928355 L451.530839,266.680997 L478.946458,266.680997 L478.946458,270.404857 L451.530839,270.404857 L451.530839,282.181561 L480.248516,282.181561 L480.248516,285.90542 L446.966526,285.90542 L446.966526,252.204495 L480.062323,252.204495 Z M591.917739,252.204495 L591.917739,255.928355 L574.881084,255.928355 L574.881084,285.906713 L570.319356,285.906713 L570.319356,255.928355 L553.282701,255.928355 L553.282701,252.204495 L591.917739,252.204495 Z M359.299384,252.204495 L379.307369,285.90542 L374.141807,285.90542 L369.952466,278.783539 L342.954488,278.783539 L338.765146,285.90542 L333.598292,285.90542 L353.614034,252.204495 L359.299384,252.204495 Z M700.234196,252.204495 L700.234196,285.90542 L695.672468,285.90542 L695.672468,252.204495 L700.234196,252.204495 Z M645.867147,252.204495 L673.096573,252.204495 L674.165899,252.215749 C684.605307,252.442904 687.481272,256.171607 687.481272,269.054958 L687.470474,270.286982 C687.26336,281.734612 684.020923,285.90542 672.958221,285.90542 L645.867147,285.90542 L645.867147,252.204495 Z M740.310936,255.562434 L721.833871,255.562434 L721.112837,255.575083 C717.076182,255.721605 713.920671,257.194136 713.920671,262.732155 L713.920671,275.394569 C713.920671,281.096728 717.26453,282.487069 721.471241,282.559911 L740.314815,282.562998 C744.691642,282.562998 748.228015,281.257061 748.228015,275.394569 L748.228015,262.733448 C748.224136,256.86837 744.687763,255.562434 740.310936,255.562434 Z M674.30812,255.927061 L650.428874,255.927061 L650.428874,282.181561 L673.563348,282.181561 C679.102589,282.181561 682.919544,280.970014 682.919544,270.870339 L682.919544,267.425769 C682.919544,257.697188 679.893909,255.927061 674.30812,255.927061 Z M356.458649,255.928355 L345.147427,275.060973 L367.769871,275.060973 L356.458649,255.93482 L356.458649,255.928355 Z M511.802871,163.230619 L543.609719,163.227538 C569.177632,163.227538 571.577452,171.916543 571.577452,184.603524 L571.577452,186.901197 L549.398509,186.901197 L549.395194,186.291773 C549.337804,181.530051 548.435653,179.485758 539.196725,179.4043 L514.041244,179.401758 C509.046359,179.401758 505.649631,181.100769 505.649631,184.997891 L505.655939,185.496005 C505.794417,190.668552 508.335642,191.379088 525.254086,191.403924 L533.143313,191.38695 L537.032699,191.392756 C567.346091,191.544478 574.566883,194.429365 574.566883,214.464218 L574.558846,215.613612 C574.294166,234.071332 567.388395,237.143554 538.511394,237.143554 L511.642716,237.143554 C491.465348,237.143554 483.376805,233.344701 483.376805,217.657945 L483.376805,212.669021 L505.541018,212.669525 C505.64216,220.189422 508.607527,220.930117 514.713912,220.959324 L542.305075,220.960284 C546.998689,220.960284 551.793158,220.45989 551.793158,214.866344 L551.784259,214.27527 C551.604613,208.73605 548.489458,208.205153 523.261026,208.176403 L518.665394,208.170162 C487.121796,208.009705 483.47586,203.824067 483.47586,186.400803 C483.47586,185.475585 483.481853,184.565351 483.502877,183.672609 L483.52479,182.911743 L483.57423,181.787274 C484.153006,171.141991 487.975179,163.407028 511.802871,163.230619 L511.802871,163.230619 Z M760.245219,164.026617 L800,236.348355 L775.325555,236.348355 L768.437709,223.56052 L723.48892,223.56052 L716.998027,236.35482 L692.22402,236.35482 L731.378846,164.034375 L760.245219,164.026617 Z M308.951,164.026617 L308.951,189.796238 L355.695775,189.796238 L355.695775,164.026617 L377.870838,164.026617 L377.870838,236.348355 L355.695775,236.348355 L355.695775,208.975405 L308.951,208.975405 L308.951,236.348355 L286.766885,236.348355 L286.766885,164.026617 L308.951,164.026617 Z M278.076588,164.026617 L278.076588,182.005873 L246.912543,182.005873 L246.912543,236.348355 L224.737479,236.348355 L224.737479,182.012339 L193.57602,182.012339 L193.57602,164.026617 L278.076588,164.026617 Z M185.184407,164.026617 L185.184407,180.807256 L128.25074,180.807256 L128.25074,192.392596 L182.188511,192.392596 L182.188511,207.375956 L128.25074,207.375956 L128.25074,218.961295 L186.482586,218.961295 L186.482586,236.347062 L106.078262,236.347062 L106.078262,164.026617 L185.184407,164.026617 Z M589.044678,164.029203 L655.968114,164.026617 L657.509431,164.038772 C678.502944,164.375656 685.93225,171.739842 685.93225,189.197576 L685.93225,211.172224 L685.919225,212.416957 C685.557681,229.393647 677.620149,236.347062 655.968114,236.347062 L589.044678,236.347062 L589.044678,164.029203 Z M470.98283,164.026617 L470.98283,180.807256 L414.046577,180.807256 L414.046577,192.392596 L467.985641,192.392596 L467.985641,207.375956 L414.046577,207.375956 L414.046577,218.961295 L472.281009,218.961295 L472.281009,236.347062 L391.855998,236.347062 L391.855998,164.026617 L470.98283,164.026617 Z M63.8253924,164.026617 C81.5059648,164.026617 90.0954077,168.821085 90.0954077,183.005368 C90.0954077,195.389785 85.5957447,197.788312 79.402243,199.585591 L79.402243,199.882983 C89.0894486,201.077721 92.6853,206.270436 92.6853,217.157551 C92.6853,233.044723 83.298072,236.34189 70.6136771,236.34189 L0,236.34189 L0,164.026617 L63.8253924,164.026617 Z M61.9285517,207.674641 L22.1750634,207.674641 L22.1750634,218.962588 L61.9285517,218.962588 C66.7230202,218.962588 69.9193325,217.863533 69.9193325,213.667726 C69.9193325,208.773696 66.7230202,207.674641 61.9285517,207.674641 Z M651.094931,182.008678 L611.217156,182.005873 L611.217156,217.763971 L650.573691,217.763971 C660.064359,217.763971 663.758479,215.06676 663.758479,204.778306 L663.758479,194.990246 C663.758479,184.892319 660.198666,182.108326 651.094931,182.008678 L651.094931,182.008678 Z M745.764838,180.805963 L731.780971,207.975911 L760.148243,207.975911 L745.764838,180.805963 Z M61.4281581,181.405918 L22.1750634,181.405918 L22.1750634,192.692573 L61.4281581,192.692573 C65.5231101,192.692573 67.9190513,191.195271 67.9190513,187.099027 C67.9190513,182.90322 65.5231101,181.405918 61.4281581,181.405918 Z M289.175757,12.5146877 C376.707132,12.5146877 450.24559,72.4972645 470.894906,153.601104 L395.504863,153.633429 L386.815858,133.682337 L392.649704,128.193069 L396.708875,124.330419 L399.663198,121.486077 C402.125799,119.098819 404.296347,116.945732 405.453255,115.683685 C411.289127,109.318341 408.503594,105.313468 405.271311,101.65956 L398.868932,94.5064432 C395.906721,91.2136086 392.608588,87.6073378 389.957712,84.9437463 L389.115906,84.1089305 L388.627376,83.638569 L387.896806,82.9627519 C383.799536,79.2789121 379.049859,76.9280808 373.147441,83.6441314 L372.587584,84.2929375 C371.561145,85.4428691 368.397422,88.6817126 365.020694,92.1040963 L356.232636,100.959458 L354.854028,102.34115 L312.438239,84.3424981 L312.350314,56.5816461 C312.350314,48.8236064 308.535945,47.9443619 302.976016,47.8538515 L299.629807,47.8220449 C297.895441,47.8129391 295.878712,47.8099487 293.768373,47.8107066 L277.762387,47.8538515 C272.698974,47.8667815 267.741586,49.1468581 267.741586,57.2281494 L267.778089,65.1940939 L267.970247,84.6360775 L224.835748,102.030829 L204.827763,83.1012117 C198.778693,77.6595796 194.695234,81.0043659 191.539728,84.2318305 L185.785408,90.261703 C182.370226,93.8590431 178.510643,97.9285535 176.528644,99.9542514 L175.585711,100.913973 C172.881705,103.745608 169.382738,108.905635 174.564944,115.0708 L193.483403,133.989258 L185.025367,151.598237 L108.065614,151.383598 C129.471338,71.4033809 202.446045,12.5146877 289.175757,12.5146877 Z" id="Shape"></path>
        </g>
    </g>
</svg>