<?xml version="1.0" encoding="UTF-8"?>
<svg width="800px" height="400px" viewBox="0 0 800 400" version="1.1" xmlns="http://www.w3.org/2000/svg" xmlns:xlink="http://www.w3.org/1999/xlink">
    <title>capcom_2</title>
    <g id="Page-1" stroke="none" stroke-width="1" fill="none" fill-rule="evenodd">
        <g id="Manufacturer" fill="#000000" fill-rule="nonzero">
            <g id="capcom_2">
                <line x1="0" y1="0" x2="800" y2="400" id="Path"></line>
                <path d="M174.604129,138.018104 L202.883734,138.018104 L249.849617,244.778871 C249.936663,245.038196 252.208532,251.52131 261.780178,251.52131 L261.761176,261.915359 L212.603215,261.915359 L212.603215,251.545062 C220.846173,251.545062 218.782446,243.924973 218.407645,242.728619 L218.356045,242.571407 L206.731622,216.268002 L163.502259,216.268002 L151.409412,244.918441 C151.048026,245.820614 149.122565,251.545062 158.452499,251.545062 L158.452499,261.915359 L118.824,261.915359 L118.824,251.52606 C127.44612,251.52606 129.203797,247.108114 129.203797,247.108114 L174.604129,138.018104 Z M63.8609522,138.417144 C98.6659747,138.417144 117.152633,160.099157 118.900883,162.250013 L119.032764,162.41514 L97.5466021,187.351833 L89.3045202,180.606152 L89.4602472,180.318304 C90.5895971,178.166033 97.0991069,164.579555 83.3759219,161.209945 L83.150495,161.143972 C79.5930733,160.127573 35.125302,148.324554 35.125302,193.422946 C35.125302,242.99895 87.5895971,246.628316 87.5895971,246.628316 C102.114011,248.663222 102.915875,236.935264 102.95206,235.074302 L102.952648,234.828125 L113.489211,234.828125 L113.523721,247.303172 L113.528976,251.688993 L113.522728,257.369527 C113.516712,258.95286 113.506135,260.066532 113.489211,260.409457 C113.398952,262.238392 24.4652261,269.378362 2.63202246,212.405862 C-6.61716105,188.254424 7.29224281,138.417144 63.8609522,138.417144 Z M185.178697,166.21695 L170.817997,200.216132 L200.223465,200.216132 L185.178697,166.21695 Z M306.425184,205.793195 L306.425184,155.571126 L329.900089,155.570574 C332.469006,155.594167 350.818415,156.342081 350.818415,172.896124 C350.818415,202.349097 306.425184,205.793195 306.425184,205.793195 Z M306.420434,244.899141 L306.425184,222.19185 L306.629419,222.171454 C310.887548,221.723368 380.266637,213.621367 380.266637,171.361719 C380.266637,137.932595 331.978013,138.013352 331.978013,138.013352 L268.796636,138.013352 L268.796636,149.542767 L268.923125,149.547963 C270.016037,149.60834 277.822547,150.355812 277.822547,159.39051 L277.822585,243.258931 C277.798459,244.521467 277.28256,251.535561 268.796636,251.535561 L268.796636,261.910608 L315.446344,261.910608 L315.446344,251.659074 C306.201911,251.659074 306.520194,244.899141 306.420434,244.899141 Z M575.062573,138.198684 L575.270173,138.200976 C579.274342,138.269641 646.457066,140.314486 646.369665,200.230383 C646.281945,260.13394 579.291531,261.931046 575.272185,261.984959 L575.083799,261.986648 C575.083799,261.986648 504.026128,262.262144 503.940465,200.230383 C503.855965,138.81894 573.666357,138.204826 575.062573,138.198684 Z M701.641323,138.018104 L720.016177,186.439741 L738.134506,138.018104 L783.962381,138.018104 L783.962381,148.397902 C776.526978,148.397902 776.980325,154.603396 777.098983,155.587587 L777.11694,155.718391 L790.104408,242.89931 C790.256922,243.823604 791.77464,251.52606 800,251.52606 L800,261.915359 L751.35509,261.915359 L751.35509,251.492807 C760.17198,251.492807 758.794341,241.721071 758.794341,241.721071 L748.557058,175.82717 L727.887722,228.305717 L703.256486,228.305717 L683.247466,175.82717 L670.441782,241.641003 C670.291816,242.536621 669.007429,251.492807 677.618148,251.492807 L677.618148,261.915359 L638.854236,261.915359 L638.822957,257.582922 L638.814283,255.593613 L638.814283,253.013133 C638.819759,252.115304 638.831609,251.52606 638.854236,251.52606 C647.509609,251.52606 648.996509,243.507251 648.996509,243.507251 L664.696943,157.16551 C664.955272,155.605882 665.655586,148.516664 657.039071,148.516664 L657.077075,138.018104 L701.641323,138.018104 Z M450.953771,138.417144 C486.120446,138.417144 504.632313,160.557829 506.043306,162.311371 L506.116557,162.403263 L484.63467,187.351833 L476.392589,180.606152 L476.548232,180.318304 C477.676966,178.166033 484.182805,164.579555 470.46399,161.209945 L470.238541,161.143972 C466.680769,160.127573 422.20862,148.324554 422.20862,193.422946 C422.20862,242.99895 474.668165,246.628316 474.668165,246.628316 C489.493461,248.704751 490.030387,236.450839 490.041447,234.972895 L490.040716,234.828125 L500.572529,234.828125 L500.607039,247.303172 L500.612294,251.688993 L500.606046,257.369527 C500.60003,258.95286 500.589453,260.066532 500.572529,260.409457 C500.48227,262.238392 411.553294,269.378362 389.720091,212.405862 C380.470907,188.254424 394.375561,138.417144 450.953771,138.417144 Z M575.269291,155.211096 L575.095868,155.205579 L574.903369,155.209795 C572.033255,155.303816 535.884004,157.339159 535.797025,200.220882 C535.707075,244.875389 575.083799,244.875389 575.083799,244.875389 L575.273005,244.871174 C578.25883,244.781322 615.581637,242.80646 615.581637,200.220882 C615.581637,157.61756 578.227721,155.325795 575.269291,155.211096 L575.269291,155.211096 Z" id="Shape"></path>
            </g>
        </g>
    </g>
</svg>