<?xml version="1.0" encoding="UTF-8"?>
<svg width="800px" height="400px" viewBox="0 0 800 400" version="1.1" xmlns="http://www.w3.org/2000/svg" xmlns:xlink="http://www.w3.org/1999/xlink">
    <title>codemasters_2</title>
    <g id="Page-1" stroke="none" stroke-width="1" fill="none" fill-rule="evenodd">
        <g id="Manufacturer" fill="#000000" fill-rule="nonzero">
            <g id="codemasters_2">
                <line x1="0" y1="0" x2="800" y2="400" id="Path"></line>
                <path d="M499.794781,304.061545 L486.74671,290.465543 C482.728547,286.293959 482.012584,278.922457 485.102916,274.012992 C501.453187,249.049242 524.130237,214.222728 524.130237,214.222728 L524.130237,214.1862 L527.052537,209.802749 C533.30626,200.22491 531.786664,185.036254 523.648057,175.714116 L513.076636,163.593876 C509.051167,158.976641 503.995588,156.368488 498.837728,156.251596 C493.679868,156.134704 488.909213,158.582131 485.614319,163.162836 L440.318664,226.174937 C438.779764,228.444027 436.262859,229.856742 433.524316,229.988538 C430.679491,230.060105 427.945887,228.88284 426.043227,226.766702 L410.211666,210.292234 C405.718629,205.601942 405.09764,197.828624 408.750515,193.006828 L456.57396,130.586494 C460.058803,126.042317 461.629539,119.883569 461.00855,113.22803 C460.412392,106.580314 457.741683,100.288175 453.374041,95.2412718 L441.68484,81.8717479 C437.308695,76.8015569 431.690573,73.7039186 425.889807,73.163293 C420.20609,72.5389533 414.587786,74.8049295 410.927629,79.1978431 L405.433705,85.6853498 L391.406663,102.181735 L358.77918,140.536926 C354.761017,145.271053 347.528324,145.066492 342.655388,140.010912 L326.677712,123.375718 C324.287413,120.889469 322.840374,117.646551 322.586491,114.207001 C322.277247,111.027106 323.283054,107.85921 325.369982,105.4401 L379.133002,46.3950223 L397.974533,25.6905247 C400.567175,22.832686 403.662569,20.4752338 407.106721,18.73545 C407.004441,18.793896 406.880243,18.823119 406.770657,18.8888708 C405.823781,19.3342015 404.912722,19.8520151 404.045612,20.4376899 L403.987166,20.4376899 C403.9645,20.4549443 403.939999,20.4696448 403.914108,20.4815244 C391.888843,28.788163 332.186248,69.8245649 313.52736,82.660769 C312.717324,83.2082879 311.936945,83.7984499 311.18952,84.4287607 C309.530722,85.5715255 307.993359,86.8812213 306.601509,88.3373373 L290.455799,105.425488 L245.25512,153.161264 C243.544471,155.022576 242.677504,157.507177 242.858833,160.028669 C243.026347,162.675936 244.178236,165.164744 246.087975,167.005661 L258.902262,179.476578 C261.668367,182.330214 265.930779,183.134718 269.546741,181.485659 C271.855358,180.57244 283.040462,175.589918 296.672993,169.467699 L264.060122,206.222931 C249.44862,222.690093 251.019357,249.195357 267.632634,264.566657 L302.97055,297.376783 C308.557504,302.614194 315.723243,305.851494 323.346289,306.582029 C323.996501,306.662392 326.217449,306.73545 326.538902,306.73545 L503.995588,306.73545 C504.835749,306.73545 505.602853,306.73545 506.304205,306.691615 C503.843545,306.855527 501.443866,305.880574 499.794781,304.046934 M476.343321,264.369401 L460.343727,288.361487 C453.432487,298.713736 443.365162,305.164714 431.851299,306.479749 C420.162098,307.780172 408.516731,303.513614 399.187288,294.381425 L355.192057,251.226356 C334.370667,230.806783 331.864795,195.987574 349.47896,174.837426 L401.1087,112.848131 L420.33013,89.7619587 C421.972612,87.7572211 424.509046,86.7070005 427.08795,86.9638562 C429.91624,87.2750492 432.512606,88.6741006 434.327949,90.8651271 L446.148653,104.285791 C448.155418,106.599006 449.384659,109.484271 449.66272,112.533984 C450.001684,115.342805 449.268571,118.176117 447.609804,120.468029 L398.858529,182.691108 C390.537279,193.31367 391.939983,210.628299 402.000002,220.980548 L418.072653,237.506156 C422.799474,242.357174 428.702521,244.811907 434.693236,244.490454 C440.683952,244.169001 445.863729,241.100585 449.516605,235.920808 L494.081684,172.747981 C495.405467,170.744254 497.648966,169.541497 500.050482,169.548063 C502.592388,169.665125 504.964525,170.857834 506.574518,172.828345 L517.277443,184.99242 C521.032599,189.258978 521.733951,196.23597 518.826262,200.597503 L476.452908,264.223286 C476.42907,264.278287 476.402243,264.331943 476.372544,264.384013 M51.4997156,363.912594 C51.4997156,368.078681 51.4997156,368.078681 48.2133603,368.564051 C46.544903,368.796624 38.1823927,369.170762 33.1466852,369.170762 C26.8267712,369.170762 20.365291,368.968525 17.3115086,368.624722 C14.2577261,368.280919 14.0858244,367.755102 13.7824686,365.965302 C13.5195601,363.882258 13.0645263,356.500599 13.0645263,352.637867 C13.0645263,342.738354 14.4700752,341.14068 14.5206345,341.069897 C15.2992479,340.513744 18.8383998,339.583453 33.8342919,339.583453 C45.44271,339.583453 48.9110788,340.473297 49.6391329,340.70587 C50.8626683,341.181127 51.1559123,341.282246 51.2064716,344.831509 L51.2064716,349.634644 L63.7957404,349.634644 L63.7451811,346.398848 C63.6137269,338.511595 63.3912659,335.599379 60.1049106,332.495037 C56.1107249,328.662641 50.5390887,327.600896 34.1073121,327.600896 C30.0625671,327.600896 23.4392972,327.742462 20.2843961,327.954811 C12.9836314,328.369397 9.16134741,328.965997 5.88510396,331.402956 C0.930291348,335.174681 0,342.627123 0,355.084938 C0,367.542753 1.27409467,373.235731 4.9042533,376.562534 C9.21190672,380.526384 15.5722682,381.133096 35.1589458,381.133096 C50.5087531,381.133096 56.2927384,380.536496 60.2667004,376.997344 C63.6946218,373.862667 63.9878658,370.667318 64.3114454,361.910445 L64.4428996,358.593754 L51.691841,358.593754 L51.4997156,363.912594 Z M127.409467,342.333879 C127.935448,346.430826 128.161881,350.560683 128.086962,354.690575 C128.112399,358.465039 127.865704,362.236426 127.348796,365.975414 C127.015105,367.542753 126.489288,367.997786 124.87139,368.29103 C119.228021,368.963858 113.545907,369.257761 107.863237,369.170762 C104.688112,369.170762 96.4368325,368.968525 93.8178601,368.816847 C89.5405422,368.543827 87.6395121,368.189912 87.0530241,367.633759 C86.2339632,366.743915 85.8193769,362.082347 85.8193769,353.709725 C85.8193769,343.365289 86.9417936,341.464259 87.2855969,341.110344 C89.0551728,339.583453 100.734374,339.583453 104.586994,339.583453 C117.105479,339.583453 120.826645,339.704795 124.477027,340.240724 C127.126335,340.624975 127.267901,341.484483 127.409467,342.333879 M136.196676,332.222017 C131.959805,328.237943 125.569108,327.57056 108.449725,327.57056 C104.091512,327.57056 95.4357581,327.782909 92.3819756,327.924475 C85.8193769,328.339062 82.2701131,328.935662 78.8320799,331.352397 C73.6548063,335.154457 72.7042912,342.0103 72.7042912,354.154647 C72.7042912,362.244137 73.0379827,366.71358 73.897491,369.949376 C75.2090683,375.036171 79.3212307,378.920317 84.4744991,379.939896 C88.4181255,380.738733 96.7401883,381.112872 110.633887,381.112872 C127.004993,381.112872 132.788978,380.101686 136.510143,376.360297 C139.998736,372.831257 141.232383,367.097831 141.232383,354.518674 C141.232383,350.797508 140.989699,345.923591 140.696455,343.486632 C140.18075,338.582378 139.220123,334.982555 136.196676,332.222017 M164.206535,339.583453 L188.545788,339.583453 C193.945522,339.583453 196.018454,339.583453 197.424003,339.694683 C201.954117,339.998039 203.05631,340.837324 203.693358,341.52493 C204.330405,342.212537 205.948303,344.952852 205.948303,354.053528 C205.948303,367.482081 202.651836,368.210136 200.892372,368.624722 C198.49586,369.160651 198.465525,369.170762 188.909815,369.170762 L164.206535,369.170762 L164.206535,339.583453 Z M188.687354,327.742462 L151.20268,327.742462 L151.20268,380.99153 L189.203059,380.99153 C203.359666,380.99153 208.122354,380.384818 212.703027,376.350185 C217.283701,372.315552 219.063389,365.803512 219.063389,354.346772 C219.063389,343.810211 218.25444,337.652087 213.825444,333.172532 C209.093092,328.44018 203.946154,327.742462 188.687354,327.742462 M241.845415,359.422927 L282.090628,359.422927 L282.090628,347.581936 L241.845415,347.581936 L241.845415,339.583453 L283.890539,339.583453 L283.890539,327.742462 L228.851672,327.742462 L228.851672,380.99153 L283.95121,380.99153 L283.95121,369.170762 L241.845415,369.170762 L241.845415,359.422927 Z M335.8554,365.024899 L310.585856,327.742462 L292.435063,327.742462 L292.435063,380.99153 L305.438918,380.99153 L305.438918,342.778801 L331.527523,380.99153 L340.243949,380.99153 L365.867408,343.051822 L365.867408,380.99153 L378.861151,380.99153 L378.861151,327.742462 L360.649687,327.742462 L335.8554,365.024899 L335.8554,365.024899 Z M411.947166,359.251025 L423.323011,340.351954 L434.587626,359.251025 L411.947166,359.251025 Z M416.082917,327.742462 L384.099096,380.99153 L399.044429,380.99153 L404.949757,371.102128 L441.50414,371.102128 L447.389244,380.99153 L462.172786,380.99153 L430.26986,327.742462 L416.082917,327.742462 Z M508.019971,348.623458 L491.112937,348.562787 C487.352076,348.62743 483.593634,348.332849 479.88877,347.683055 C478.149529,347.197685 477.997851,347.16735 477.997851,344.154015 C477.997851,341.14068 477.997851,339.300321 497.412627,339.300321 C505.603236,339.300321 508.818808,340.038487 509.829994,340.311507 C511.741136,340.918219 511.741136,340.918219 511.741136,344.811286 L524.744991,344.760726 C524.653985,338.582378 523.875371,334.871325 519.759843,331.797319 C515.644315,328.723313 509.718764,327.57056 497.715983,327.57056 C493.195981,327.57056 486.228907,327.833469 482.234722,328.298614 C476.642862,328.915438 473.194717,329.704163 469.807243,332.343359 C467.542185,334.0826 464.85243,337.530745 464.85243,344.07312 C464.85243,358.401629 475.550781,360.332995 485.996334,360.332995 C509.385072,360.332995 509.86033,360.332995 511.791696,360.95993 C512.560197,361.192503 513.156797,361.404852 513.156797,364.681096 C513.156797,367.957339 511.832143,368.34159 510.881628,368.543827 C508.333439,369.110091 501.922518,369.555013 495.622828,369.555013 C482.598749,369.555013 479.534854,368.948302 478.2102,368.462932 C477.987739,368.058458 477.815838,366.612461 477.785502,363.245211 L465.034444,362.941855 C464.933325,363.953041 464.923213,365.176577 464.923213,365.338367 C464.923213,371.162799 465.934399,375.389558 471.071225,378.483788 C474.792391,380.607279 479.332617,381.224103 491.375845,381.224103 C506.92789,381.224103 514.299438,380.50616 518.677874,378.514123 C523.733805,376.067053 526.281995,371.43582 526.281995,364.266509 C526.281995,359.948744 525.392151,356.773619 523.501232,354.306325 C520.113758,349.644756 515.037603,348.694241 507.999747,348.694241 M532.217658,339.583453 L557.193958,339.583453 L557.193958,380.99153 L570.207925,380.99153 L570.207925,339.583453 L595.012324,339.583453 L595.012324,327.742462 L532.217658,327.742462 L532.217658,339.583453 Z M615.984327,359.422927 L656.259875,359.422927 L656.259875,347.581936 L615.984327,347.581936 L615.984327,339.583453 L658.029451,339.583453 L658.029451,327.742462 L603.000695,327.742462 L603.000695,380.99153 L658.100234,380.99153 L658.100234,369.170762 L615.984327,369.170762 L615.984327,359.422927 Z M679.598053,339.583453 L700.75207,339.583453 C711.430197,339.583453 714.696328,339.816026 716.01087,340.70587 C716.192884,340.897995 716.951273,342.101307 716.951273,344.993299 C716.986321,346.536403 716.778164,348.075401 716.33445,349.553749 C715.73785,350.564936 712.694179,351.100864 706.738292,351.100864 L679.598053,351.100864 L679.598053,339.583453 Z M728.134993,335.154457 C726.112621,331.372621 722.168995,328.945774 717.173734,328.32895 C713.584023,327.873916 713.341339,327.873916 700.731846,327.742462 L666.584086,327.742462 L666.584086,380.99153 L679.598053,380.99153 L679.598053,362.941855 L700.75207,362.941855 C711.258295,363.002526 711.258295,363.002526 713.412122,363.336218 C715.323264,363.589014 715.798521,364.418187 715.980535,365.884407 C716.243443,367.603424 716.223219,367.664095 716.223219,373.316626 L716.223219,380.99153 L729.247298,380.99153 L729.247298,371.132464 C729.247298,363.518231 729.085508,360.646462 726.213739,357.714022 C729.398976,355.084938 730.137142,350.979522 730.137142,345.05397 C730.137142,340.766541 729.58099,337.914996 728.185553,335.154457 M797.290021,354.22543 C793.882323,349.584085 788.826392,348.623458 781.768312,348.623458 L764.87139,348.552675 C758.217784,348.481892 755.062883,348.016746 753.647222,347.683055 C751.887758,347.197685 751.756304,347.157238 751.756304,344.143903 C751.756304,340.928331 751.756304,339.300321 771.160968,339.300321 C779.048221,339.300321 782.284017,339.957592 783.568223,340.311507 C785.519813,340.918219 785.519813,340.918219 785.519813,344.801174 L798.503444,344.801174 C798.392214,338.612714 797.603489,334.881437 793.508184,331.837766 C789.41288,328.794096 783.477217,327.611008 771.4441,327.611008 C766.964545,327.611008 759.967136,327.863804 755.972951,328.339062 C750.370979,328.955885 746.872275,329.764834 743.575807,332.383807 C741.300638,334.112935 738.610883,337.571192 738.610883,344.103455 C738.610883,358.361181 749.28901,360.383554 759.754787,360.383554 C783.133413,360.383554 783.608671,360.383554 785.56026,361.000378 C786.308538,361.23295 786.91525,361.465523 786.91525,364.721543 C786.91525,367.977563 785.590596,368.392149 784.650193,368.594386 C779.599292,369.340279 774.496551,369.678433 769.391392,369.605573 C756.34709,369.605573 753.273083,368.998861 751.988877,368.513491 C751.73608,368.139353 751.594514,366.663021 751.543955,363.29577 L738.772673,363.356442 C738.691778,364.317068 738.681666,365.237248 738.681666,365.378814 C738.681666,371.213359 739.692852,375.430005 744.83979,378.524235 C748.480061,380.617391 753.222524,381.26455 765.063515,381.26455 C780.645895,381.26455 788.017443,380.55672 792.365544,378.554571 C797.50237,376.087276 800,371.425708 800,364.306957 C800,359.999303 799.110156,356.844402 797.22935,354.33666" id="Shape"></path>
            </g>
        </g>
    </g>
</svg>