<?xml version="1.0" encoding="UTF-8"?>
<svg width="800px" height="400px" viewBox="0 0 800 400" version="1.1" xmlns="http://www.w3.org/2000/svg" xmlns:xlink="http://www.w3.org/1999/xlink">
    <title>codemasters_3</title>
    <g id="Page-1" stroke="none" stroke-width="1" fill="none" fill-rule="evenodd">
        <g id="Manufacturer" fill="#000000" fill-rule="nonzero">
            <g id="codemasters_3">
                <line x1="0" y1="0" x2="800" y2="400" id="Path"></line>
                <path d="M729.899226,129.890125 C768.613966,129.890125 800,161.280704 800,199.999999 C800,238.719294 768.613966,270.109875 729.894678,270.109875 L70.1098692,270.109875 C31.3905813,270.109875 0,238.719294 0,199.999999 C0,161.280704 31.3905813,129.890125 70.1098692,129.890125 L729.899226,129.890125 Z M717.772704,138.743762 C619.526929,194.387386 677.574015,295.086679 684.584087,245.661091 C689.500249,210.979418 705.832816,183.585494 705.391274,197.956152 C704.885993,214.507216 699.906116,252.866903 713.7624,237.262655 C727.618671,221.653854 731.169231,217.15648 734.105271,217.848383 C737.041311,218.544839 737.218837,247.609346 743.268443,251.701589 C748.406743,255.179998 754.067959,236.179335 755.650712,230.400871 L755.755602,230.015406 C755.935262,229.350685 756.044804,228.921471 756.074257,228.805138 L756.08232,228.773178 L755.872924,227.903747 C755.872924,227.903747 748.034389,253.2083 743.227479,247.723145 C740.926441,245.092091 740.306231,235.753667 740.024575,226.63886 L739.992315,225.5466 C739.745865,216.824205 739.761946,208.5634 738.853002,206.896276 C737.992681,205.321284 736.504173,205.553436 736.504173,205.553436 C734.915532,205.621717 731.405937,207.374236 720.963652,214.329689 C715.574091,217.921215 711.053958,209.418083 714.322288,184.386645 C716.583719,167.065383 722.056631,160.753855 723.128599,159.664762 L723.220844,159.573047 C723.263628,159.531527 723.292046,159.50553 723.304792,159.494064 L723.308,159.490125 C722.700435,159.93779 692.817269,182.100586 683.930032,220.862656 L683.664586,222.054429 C677.437454,250.864018 662.502346,190.34521 717.772704,138.743762 Z M503.787833,216.13228 C504.43421,219.373302 505.517594,222.614325 507.133545,225.7461 C513.401654,237.740615 528.090949,240.330702 537.818569,230.82613 C539.866966,228.773178 541.596727,226.501731 543.107986,223.369957 C543.977414,221.64475 544.733056,219.805742 545.270182,217.862039 C545.488685,217.106407 545.593377,216.455471 545.81188,215.809089 L544.619257,215.595144 C544.405313,216.136832 544.18681,216.678519 543.863615,217.215655 C542.243105,220.351982 539.866966,223.051317 537.163084,224.781076 C527.335319,231.477066 516.852058,227.698907 512.536773,214.302376 C511.671892,211.707738 511.130206,208.794459 511.020955,205.767381 C510.916263,204.470061 510.916263,203.28199 511.020955,201.98467 L544.082118,201.98467 C544.082118,201.115238 544.082118,200.254911 543.977414,199.276231 C542.898602,189.662411 537.92782,183.722054 529.716006,181.778351 C528.313999,181.455159 527.016672,181.345911 525.610105,181.236663 C512.104327,181.02272 499.900423,195.607321 503.787833,216.13228 Z M238.165085,216.13228 C238.81602,219.373302 239.894844,222.614325 241.515355,225.7461 C247.778904,237.740615 262.472754,240.330702 272.195821,230.82613 C274.248772,228.773178 275.978532,226.501731 277.489795,223.369957 C278.354675,221.64475 279.110306,219.805742 279.651994,217.862039 C279.87049,217.106407 279.979738,216.455471 280.193682,215.809089 L279.00561,215.595144 C278.791666,216.136832 278.57317,216.678519 278.249979,217.215655 C276.629467,220.351982 274.253325,223.051317 271.553989,224.781076 C261.721674,231.477066 251.238423,227.698907 246.918576,214.302376 C246.058249,211.707738 245.516561,208.794459 245.407313,205.767381 C245.298065,204.470061 245.298065,203.28199 245.407313,201.98467 L278.468474,201.98467 C278.468474,201.115238 278.468474,200.254911 278.354675,199.276231 C277.271299,189.662411 272.305069,183.722054 264.093265,181.778351 C262.686697,181.455159 261.39393,181.345911 259.987363,181.236663 C246.486137,181.02272 234.277678,195.607321 238.165085,216.13228 Z M223.170802,156.278057 L205.996114,163.73423 L206.642498,165.140798 L207.074937,164.926854 L207.939817,164.603662 C211.394784,163.092399 214.094118,164.822158 214.203366,169.251252 L214.203366,185.779557 L213.338487,185.019374 L212.041168,184.263742 C200.1559,176.488929 182.653468,184.482238 178.980005,204.360813 C178.224374,208.034276 178.115126,211.812434 178.656814,215.485896 C181.032957,234.071705 194.966623,241.095437 208.149209,233.639264 C210.6346,232.232697 212.687551,230.507489 214.522006,228.345291 L214.522006,236.3386 L216.361013,236.3386 L231.054863,229.856554 L230.731672,228.668482 C230.299231,228.882427 229.866792,228.991675 229.434352,229.09637 C225.765441,229.856554 223.384747,228.017547 223.170802,224.885773 L223.170802,156.278057 Z M109.621216,156.824298 L108.760882,158.235417 C106.81263,162.013576 105.410623,162.341319 101.30471,160.825503 L96.1199844,158.991049 L95.5782985,158.777104 C89.7471955,157.047345 83.588338,156.510209 77.4294805,157.370537 C54.2006412,160.720808 39.5113464,181.245767 43.8311908,204.474613 C45.9888391,216.032136 52.361628,225.432012 61.4383108,230.835233 C72.0262643,237.203479 83.3743946,238.177607 93.743845,234.180952 C100.439841,231.700113 105.733806,227.589659 110.704587,220.89367 C111.355525,220.02879 111.892663,219.16391 112.434349,218.299031 L111.569468,217.543399 C111.027782,218.29448 110.490644,219.054662 109.839707,219.810294 C104.004044,226.72478 97.5220035,230.398242 89.7426359,231.586314 C71.8077733,234.285648 57.5509129,222.618878 56.1443462,201.552231 C54.305333,173.898842 68.3527977,159.418937 85.7459864,160.716256 C93.08836,161.257944 99.137966,164.389719 103.785553,170.116132 C107.135825,174.112786 108.970278,178.432632 109.621216,183.080222 L110.70004,182.861727 L110.70004,156.933546 L109.621216,156.824298 Z M485.00628,166.547366 L484.03216,166.547366 C483.599713,167.626189 483.167279,168.709564 482.734832,169.67914 C479.275321,177.130761 474.52759,181.669103 468.368732,183.831302 L468.368732,185.023925 L476.371151,185.023925 L476.371923,223.531758 C476.386425,226.91933 476.60754,228.182675 477.23602,229.747307 C480.363253,237.094231 488.793546,239.037934 495.384838,232.774385 C496.677605,231.477066 497.974932,229.965802 499.381499,227.803603 C499.595442,227.371164 499.813933,226.938723 500.137128,226.397036 L498.949053,226.073844 C498.730562,226.397036 498.512059,226.72478 498.298115,226.938723 C497.0008,228.668482 495.271038,229.747307 493.436585,230.070498 C487.710174,231.149321 485.224783,228.236043 485.224783,219.159359 L485.224783,185.019374 L496.459114,185.019374 L496.459114,181.887599 L485.00628,181.887599 L485.00628,166.547366 Z M439.636521,182.206238 C434.456343,184.040694 430.996832,188.037348 430.027247,193.117378 C428.616133,199.922614 431.538518,205.53978 439.855012,210.510562 L441.803276,211.698634 L444.288667,213.214449 L448.176065,215.699839 L448.717751,215.913784 C449.254889,216.346223 449.796575,216.778664 450.447513,217.211103 C452.932904,219.264055 454.011728,220.775318 454.548866,222.719021 C456.169376,228.773178 452.714413,233.416216 446.555555,233.525464 C443.956365,233.525464 441.366282,232.660584 438.880891,231.040073 C435.639871,228.987122 433.15448,225.313659 431.966405,220.993814 C431.64321,219.80119 431.53397,218.617671 431.424719,217.425047 L430.345894,217.425047 L430.345894,235.792359 L431.320015,235.792359 C431.320015,234.604288 432.289599,233.957904 433.696166,234.171848 L435.53062,234.390343 L435.853815,234.499593 L437.260381,234.932032 L438.666948,235.255223 C443.742422,236.657238 447.092693,236.766486 449.901279,236.224799 C454.762809,235.35992 458.108534,233.202273 460.056786,230.175193 C463.621001,224.771972 463.621001,220.019686 460.27073,214.074777 C458.759459,211.375441 456.492571,209.322491 451.084795,205.867524 C450.329166,205.435085 449.573537,205.002644 448.817895,204.570205 L443.523931,201.652374 L443.091484,201.43843 C439.631973,199.276231 438.229954,197.978912 437.146582,196.144456 C434.447248,191.71081 436.823387,185.988949 441.903421,184.691629 C443.63317,184.363885 445.90007,184.363885 448.16697,184.796326 C453.033048,185.984396 456.164829,189.225419 457.89459,195.707464 C458.108534,196.467648 458.217773,197.22328 458.327025,197.978912 L459.5151,197.874215 L459.5151,181.345911 L458.00383,181.345911 C458.327025,182.752479 457.2482,183.831302 455.62769,183.608253 C454.976753,183.499006 454.221124,183.39431 453.465494,183.175814 L450.656908,182.310935 L450.333714,182.206238 C445.367491,180.908919 443.096044,180.908919 439.636521,182.206238 Z M603.913574,182.206238 C598.733408,184.040694 595.273885,188.037348 594.299753,193.117378 C592.893186,199.922614 595.811023,205.53978 604.132077,210.510562 L606.075782,211.698634 L608.561173,213.214449 L612.448571,215.699839 L612.990257,215.913784 C613.527395,216.346223 614.069081,216.778664 614.720018,217.211103 C617.200862,219.264055 618.284233,220.775318 618.821372,222.719021 C620.441882,228.773178 616.986918,233.416216 610.828061,233.525464 C608.228871,233.525464 605.638788,232.660584 603.153397,231.040073 C599.912377,228.987122 597.426986,225.313659 596.23891,220.993814 C595.915715,219.80119 595.801916,218.617671 595.697224,217.425047 L594.6184,217.425047 L594.6184,235.792359 L595.59252,235.792359 C595.59252,234.604288 596.562105,233.957904 597.968672,234.171848 L599.803125,234.390343 L600.12632,234.499593 L601.532887,234.932032 L602.939454,235.255223 C608.014927,236.657238 611.365199,236.766486 614.173785,236.224799 C619.035315,235.35992 622.381039,233.202273 624.329292,230.175193 C627.893507,224.771972 627.893507,220.019686 624.543235,214.074777 C623.031965,211.375441 620.765077,209.322491 615.357301,205.867524 C614.606219,205.435085 613.846042,205.002644 613.090401,204.570205 L607.796436,201.652374 L607.36399,201.43843 C603.904479,199.276231 602.497912,197.978912 601.423635,196.144456 C598.719753,191.71081 601.095893,185.988949 606.175926,184.691629 C607.905676,184.363885 610.172576,184.363885 612.439476,184.796326 C617.305554,185.984396 620.437334,189.225419 622.167096,195.707464 C622.381039,196.467648 622.490279,197.22328 622.59953,197.978912 L623.787606,197.874215 L623.787606,181.345911 L622.276335,181.345911 C622.59953,182.752479 621.520706,183.831302 619.904744,183.608253 C619.258366,183.499006 618.498177,183.39431 617.742548,183.175814 L614.933962,182.310935 L614.615327,182.206238 C609.644545,180.908919 607.373097,180.908919 603.913574,182.206238 Z M119.130345,203.386685 C118.80715,205.548885 118.588647,207.706532 118.588647,209.86873 C118.588647,211.921682 118.80715,213.865385 119.239584,215.809089 C121.724975,227.480411 129.722834,234.932032 139.336655,236.229352 C150.247803,237.740615 159.105983,233.420768 165.155589,223.265261 C166.885351,220.242735 168.068867,216.887912 168.719802,213.432946 C170.340313,203.063494 167.203986,193.877562 160.940437,187.937204 C159.861612,186.963076 158.673549,186.102749 157.485473,185.347118 C142.682379,175.728745 123.017743,183.94055 119.130345,203.386685 Z M396.975192,181.127415 C391.139531,181.669103 386.601188,183.717501 383.792606,186.744581 C379.577456,191.173674 379.145015,194.956385 381.307215,197.764967 C383.14167,200.250358 386.596636,200.14111 388.112452,197.764967 C388.649587,197.009336 388.977331,196.03976 389.082027,195.065633 L389.082027,193.12193 L388.758835,191.39217 L388.758835,191.178227 C388.758835,189.77166 389.514467,187.827956 390.811786,186.316693 C392.760042,183.935997 395.67332,183.07567 399.237535,183.831302 C403.452685,184.800877 405.400945,187.181572 406.261266,192.68949 C406.370517,193.12193 406.370517,193.55437 406.370517,193.98681 L406.370517,201.442983 L404.322117,202.184958 L402.159917,203.049838 C400.106967,203.80547 398.158711,204.665797 396.433504,205.425981 L395.136185,205.967668 L390.70709,208.125315 C380.551583,212.986849 377.092065,218.82251 378.60788,226.601876 C380.337639,235.350816 388.440195,239.133526 397.079888,234.38124 C399.674526,232.869976 402.050669,231.249465 404.968498,228.764074 C405.614888,228.226938 406.261266,227.685251 406.802952,227.143563 L406.912203,227.685251 L407.126147,229.738202 C407.235398,230.603081 407.453889,231.467961 407.667833,232.33284 C408.851349,236.110999 413.3897,237.73151 417.818796,235.141424 C419.8763,233.953352 421.606061,232.442088 423.226572,230.389138 C423.30623,230.253716 423.386743,230.125406 423.467683,230.000653 L423.955032,229.266359 L424.196144,228.877874 L423.335811,227.471307 C422.689433,228.226938 421.824552,228.877874 420.959672,229.310314 C417.937142,230.603081 415.670255,229.41501 415.342512,227.252811 L415.342512,195.602769 C415.342512,186.853829 410.590221,181.778351 400.648654,181.127415 C399.351335,181.018167 398.163263,181.018167 396.975192,181.127415 Z M344.363199,182.857174 C341.122176,184.586933 339.283169,185.988949 335.932899,189.77166 L333.989195,191.82461 L333.124315,192.794185 C333.015067,192.147802 332.905819,191.606115 332.691876,191.064426 C329.99254,181.455159 320.806609,178.104888 311.94842,184.045245 C310.541854,184.910126 309.463029,185.775006 307.410079,187.718708 C306.763695,188.260396 306.222007,188.906779 305.575623,189.448467 L304.059808,191.068979 L303.090232,192.152354 L303.090232,181.131967 L285.587799,188.583588 L286.229631,190.090299 L286.662071,189.876355 L287.526951,189.443915 C291.091165,187.932652 293.899748,189.767107 294.008996,194.091505 L294.113692,196.681592 L294.113692,226.173988 L294.008996,227.252811 C293.576556,231.577209 291.200413,233.953352 287.094511,234.0626 L285.906439,234.0626 L285.906439,235.573863 L310.537301,235.573863 L310.537301,233.953352 C310.104861,234.0626 309.781669,234.0626 309.349229,234.0626 C305.780463,233.953352 303.622816,231.686457 303.190376,227.252811 L303.081128,225.955492 L303.081128,195.056529 L303.732063,194.410145 L304.383,193.649961 C305.785015,192.247946 307.077783,191.169123 308.375102,190.408939 C316.36841,185.442709 323.282896,188.465236 324.257023,194.300898 C324.584767,195.921409 324.689462,197.755864 324.689462,199.376375 L324.689462,225.413804 L324.475519,227.248259 C323.938383,231.791153 321.885433,233.948801 318.21197,234.058048 C317.888778,234.058048 317.456338,234.058048 317.133147,233.948801 L317.133147,235.569312 L341.117624,235.569312 L341.117624,233.948801 C340.685185,234.058048 340.361992,234.058048 339.929553,234.058048 C337.011722,233.948801 334.849523,232.328289 334.093891,229.628954 C333.766146,228.550131 333.661451,227.794499 333.661451,227.252811 L333.766146,225.418356 L333.661451,201.433878 L333.766146,197.546471 C333.661451,196.681592 333.552203,195.92596 333.442955,195.061081 L334.631026,193.763762 C336.793226,191.71081 337.43961,191.059875 338.736928,190.304243 C346.948733,185.551957 353.107587,187.818852 354.942041,193.763762 C355.155986,194.414697 355.265234,195.170328 355.374482,195.92596 L355.374482,225.422907 L355.155986,227.257363 C354.400354,231.904952 352.45665,233.957904 348.783189,234.067152 L347.595117,234.067152 L347.595117,235.578416 L371.147154,235.578416 L371.147154,234.067152 L370.068331,234.067152 C367.045805,233.957904 364.992854,232.0142 364.451166,228.340739 C364.34647,228.017547 364.34647,227.580554 364.34647,227.257363 L364.34647,198.415903 C364.34647,196.362953 364.241774,194.633193 363.91403,193.012681 C362.188823,182.643231 353.112139,178.209584 344.363199,182.857174 Z M581.817433,181.121078 L581.56327,181.122863 C579.187119,181.23211 576.81098,182.09699 574.325589,184.149942 C572.919022,185.233317 571.730946,186.744581 570.110436,189.443915 L569.250115,190.741235 L568.92692,191.387619 L568.92692,181.127415 L551.642983,188.579035 L552.289373,190.094851 L552.612556,189.880908 L553.586688,189.448467 C556.93696,188.041899 559.527042,189.666963 559.527042,194.096058 L559.636294,198.197408 L559.636294,225.855348 L559.527042,227.257363 C559.203847,231.472513 556.504513,233.957904 551.856926,234.067152 L550.45036,234.067152 L550.45036,235.564759 L578.426942,235.564759 L578.426942,234.053496 L576.915683,234.053496 C571.83565,233.944248 569.136316,231.458857 568.703869,227.243707 L568.599178,226.164884 L568.599178,198.292999 C568.599178,194.619538 569.354807,192.889778 571.944902,190.518187 C575.404413,187.386412 576.806432,187.386412 579.510314,189.9765 L579.94276,190.408939 L580.593698,190.950627 C583.079089,193.112825 586.857247,192.247946 588.154562,188.574484 C589.406358,185.346158 586.631903,181.308344 582.068127,181.12711 L581.817433,181.121078 Z M152.942578,190.208651 C154.344597,191.829163 155.641912,193.882113 156.829988,196.581449 C157.590165,198.525151 158.236555,200.687351 158.668989,203.172742 C160.721946,214.407073 158.778241,223.160565 154.563088,228.345291 C148.945928,235.259775 138.144032,234.394896 132.740815,225.318212 C130.906362,222.181885 129.609035,218.622223 128.853405,213.432946 C128.634914,212.03093 128.420971,210.519667 128.307172,209.003851 C128.202468,207.492587 128.202468,205.872076 128.307172,204.251565 C128.634914,198.634399 129.604487,194.85169 131.766683,191.178227 C136.086527,183.294166 146.460537,182.320038 152.942578,190.208651 Z M406.375065,204.470061 L406.375065,224.56258 C405.187001,225.969148 403.780429,227.157219 402.159917,228.022099 C395.568624,231.804809 391.030283,230.612186 388.221699,225.750652 C387.575316,224.671828 387.138324,223.374509 386.924381,221.540053 C386.49194,217.543399 387.680012,214.734817 391.139531,211.707738 C392.432297,210.624362 393.838865,209.764035 397.835519,207.925028 L401.508982,206.195269 L402.806301,205.65358 C403.775876,205.330389 404.963951,204.897949 406.375065,204.470061 Z M211.822672,189.016028 C213.766374,191.501419 214.203366,193.231178 214.203366,197.76952 L214.203366,221.103062 C214.203366,225.318212 213.552431,226.397036 209.123336,228.559234 C207.288882,229.424114 205.131235,229.965802 202.859787,229.856554 C195.080423,229.638059 188.921569,223.374509 187.62425,210.73361 C187.410306,208.029723 187.410306,205.221141 187.62425,202.521806 C188.812321,191.501419 193.459912,185.884253 199.400269,184.586933 C204.475747,183.50811 209.123336,185.233317 211.822672,189.016028 Z M531.336516,190.422595 C532.306101,192.261602 532.847787,194.423802 532.957039,197.123136 C533.06173,197.76952 533.06173,198.306656 533.06173,198.957592 L510.811559,198.962143 C510.920811,198.20196 511.025502,197.446328 511.244005,196.690697 C512.104327,192.694042 513.729396,189.990156 515.777793,188.1557 C521.394953,183.184918 528.527943,184.482238 531.336516,190.422595 Z M265.718328,190.422595 C266.687904,192.261602 267.229591,194.423802 267.338839,197.123136 C267.443536,197.76952 267.443536,198.306656 267.443536,198.957592 L245.193369,198.962143 C245.302617,198.20196 245.411865,197.446328 245.625809,196.690697 C246.490688,192.694042 248.111199,189.990156 250.164151,188.1557 C255.776764,183.184918 262.909746,184.482238 265.718328,190.422595 Z" id="Combined-Shape"></path>
            </g>
        </g>
    </g>
</svg>