<?xml version="1.0" encoding="UTF-8"?>
<svg width="800px" height="400px" viewBox="0 0 800 400" version="1.1" xmlns="http://www.w3.org/2000/svg" xmlns:xlink="http://www.w3.org/1999/xlink">
    <title>coredesign</title>
    <g id="Page-1" stroke="none" stroke-width="1" fill="none" fill-rule="evenodd">
        <g id="Manufacturer" fill="#000000" fill-rule="nonzero">
            <g id="coredesign">
                <line x1="0" y1="0" x2="800" y2="400" id="Path"></line>
                <path d="M319.726743,63.576649 C394.957438,63.576649 456.162462,124.770954 456.162462,199.990105 C456.162462,275.219151 394.957438,336.423351 319.726743,336.423351 C288.921405,336.423351 260.467841,326.162804 237.604612,308.880045 C251.050004,296.379247 262.126042,281.467813 270.220496,264.833064 L272.912666,259.302777 L184.263489,216.401154 C183.615457,211.01988 183.281953,205.543205 183.281953,199.990105 C183.281953,194.136984 183.652586,188.368776 184.37162,182.707708 L271.960306,138.735608 L269.188154,133.244075 C261.186598,117.394766 250.45585,103.157471 237.559496,91.1517149 C260.430163,73.849548 288.901131,63.576649 319.726743,63.576649 Z M136.43407,63.576649 C186.093684,63.576649 231.10446,90.151213 255.336465,133.344671 L122.38861,200.090701 L256.364684,264.93201 C232.615043,308.557535 186.200051,336.423351 136.43407,336.423351 C61.2041999,336.423351 0,275.219976 0,199.990105 C0,124.771779 61.2041999,63.576649 136.43407,63.576649 Z M531.425314,68.2048729 C576.262109,68.8348325 612.732151,105.824343 612.732151,150.680103 C612.732151,174.902213 602.144048,197.803387 583.68145,213.511148 L580.031972,216.61642 L634.013075,325.680232 L560.965801,325.646425 L514.73221,235.494593 L492.507171,235.494593 L492.507171,325.640653 L412.173309,325.605197 L412.175222,316.394962 C446.437744,289.127677 468.438428,247.079673 468.438428,199.990105 C468.438428,189.689754 467.385486,179.630663 465.381569,169.914789 L507.375536,169.916957 C520.619529,169.916957 530.995722,161.467748 530.995722,150.680927 C530.995722,139.89658 520.620354,131.448196 507.375536,131.448196 L451.674328,131.446505 C441.9716,112.849369 428.450226,96.5470299 412.157092,83.5862546 L412.15352,68.2048729 L531.425314,68.2048729 Z M702.123743,68.2056975 L702.123743,129.132022 L654.344113,129.132022 L654.344113,149.116748 L752.219546,149.116748 L752.219546,210.819803 L655.870364,210.819803 L655.870364,231.562294 L800,231.562294 L800,325.644776 L647.692559,325.644776 L595.22851,219.645833 C614.021572,201.944176 624.791364,177.393483 625.00488,151.466994 L625.008117,150.680927 C625.008117,125.60293 615.299813,101.960481 597.672489,84.1097028 C594.300062,80.6947986 590.712233,77.5668441 586.93939,74.7387826 L586.93939,68.2056975 L702.123743,68.2056975 Z" id="Shape"></path>
            </g>
        </g>
    </g>
</svg>