<?xml version="1.0" encoding="UTF-8"?>
<svg width="800px" height="400px" viewBox="0 0 800 400" version="1.1" xmlns="http://www.w3.org/2000/svg" xmlns:xlink="http://www.w3.org/1999/xlink">
    <title>coredesign_2</title>
    <g id="Page-1" stroke="none" stroke-width="1" fill="none" fill-rule="evenodd">
        <g id="coredesign_2" fill="#000000">
            <line x1="0" y1="0" x2="800" y2="400" id="Path" fill-rule="nonzero"></line>
            <path d="M33.866415,111.512361 C40.5286949,105.115107 48.4768094,100.033308 57.6907778,96.269184 L58.4208259,95.974754 C70.5392312,91.0435518 83.597637,88.5795507 97.5736432,88.5795507 C120.167253,88.5795507 139.227262,94.3323532 154.754468,105.829158 L185.523282,105.829158 C176.514478,91.432352 163.254472,80.5043471 145.750465,73.0571438 C130.934458,66.745941 114.875251,63.5891396 97.5736432,63.5891396 C74.8944331,63.5891396 54.117624,69.2651421 35.2696156,80.6259472 C14.7464065,92.9787526 3.18320141,109.47316 0.568000251,130.095569 L21.8464097,130.095569 C23.7736105,123.571566 27.7784123,117.377163 33.866415,111.512361 Z M229.963302,111.512361 C236.625582,105.115107 244.563823,100.033308 253.777285,96.269184 L254.507313,95.974754 C266.628118,91.0435518 279.681724,88.5795507 293.66493,88.5795507 C306.408936,88.5795507 318.473741,90.6675516 329.868946,94.8539535 C343.333752,99.6451556 353.901757,106.721159 361.56656,116.059563 C365.301762,120.614765 367.898563,125.298767 369.356163,130.095569 L390.748173,130.095569 C389.010572,117.994764 383.79377,106.929159 375.080966,96.9187544 C366.183362,86.6987499 354.830557,78.6131463 341.056151,72.6731436 C326.452144,66.613941 310.648137,63.5891396 293.66493,63.5891396 C270.98092,63.5891396 250.203311,69.2651421 231.366502,80.6259472 C210.832893,92.9779526 199.274488,109.47316 196.659287,130.094769 L217.934496,130.094769 C219.860097,123.571566 223.875299,117.377163 229.963302,111.512361 Z M628.509078,125.719567 C629.959479,122.557166 632.02668,119.337964 634.725081,116.059563 C642.252229,106.882166 652.543926,99.8898282 665.571317,95.1038117 L666.259495,94.8539535 C677.6595,90.6675516 689.734705,88.5795507 702.468311,88.5795507 C716.571693,88.5795507 730.037369,91.2025963 742.850281,96.4125458 L743.633929,96.7347543 C760.007536,103.432357 770.986741,113.092362 776.587544,125.719567 L628.509078,125.719567 Z M783.885947,96.9187544 C774.975543,86.6987499 763.635538,78.6131463 749.861132,72.6731436 C735.239525,66.613941 719.452318,63.5891396 702.467511,63.5891396 C686.940304,63.5891396 672.219498,66.2403408 658.339491,71.5419431 C642.490684,77.6043458 629.752279,86.5115498 620.115474,98.246755 C612.095471,108.028359 607.238669,118.642764 605.561068,130.084369 L799.545954,130.094769 C797.805153,117.994764 792.599551,106.928359 783.885947,96.9187544 Z M572.882654,125.903567 L595.270663,125.903567 C592.253862,113.276362 585.828259,102.098757 575.997055,92.3763524 C567.705051,84.2915488 557.705047,77.7883459 546.003442,72.8699437 C531.298635,66.681141 515.387428,63.5891396 498.298621,63.5891396 C482.550614,63.5891396 467.687407,66.2403408 453.706601,71.5419431 C437.652994,77.7363459 424.757788,86.7579499 415.015384,98.6355551 C408.390581,106.720359 403.879379,115.617963 401.500978,125.340367 L401.489778,130.094769 L401.191378,214.742807 L423.722588,215.137207 L423.722588,125.903567 C429.72499,113.153962 441.379395,103.309957 458.683403,96.3451541 C470.901008,91.432352 484.101014,88.9787509 498.298621,88.9787509 C512.412195,88.9787509 525.922638,91.5848935 538.842749,96.7934139 L539.633039,97.1155545 C556.101846,103.805957 567.188251,113.408362 572.882654,125.903567 Z M792.741951,168.716386 L764.771538,168.716386 C749.132332,182.990792 728.365922,190.121196 702.467511,190.121196 C690.030036,190.121196 678.220693,188.139104 667.055139,184.16001 L666.258695,183.872393 C653.392289,179.249991 643.159485,172.518788 635.579481,163.681184 C635.292281,163.335584 635.006681,163.003584 634.724281,162.653983 C631.409079,158.617982 629.030678,154.64918 627.580278,150.729978 L777.362744,150.729978 L777.438087,150.746899 C778.621104,150.976776 785.645712,151.032717 798.484353,150.913978 C799.625954,145.352376 799.781154,141.697174 799.918754,139.360373 C800.101154,136.209172 799.976354,133.11717 799.545154,130.094769 L605.560268,130.094769 C605.119468,133.11637 604.896268,136.197972 604.896268,139.360373 C604.896268,148.135577 606.346668,156.254781 609.24667,163.691584 C614.590672,177.43399 624.909077,188.914795 640.163483,198.071599 C659.024292,209.446004 679.788301,215.137207 702.467511,215.137207 C720.280319,215.137207 736.956326,211.655605 752.489133,204.717202 C771.041141,196.377998 784.449147,184.378793 792.741951,168.716386 Z M200.921689,163.681984 L200.920889,163.691584 C203.61849,170.054787 207.444892,176.095589 212.399294,181.794792 C221.155298,191.845654 232.303522,199.745832 245.848514,205.537011 L246.589709,205.850803 C261.081716,212.034805 276.780922,215.137207 293.66413,215.137207 C309.308137,215.137207 324.018543,212.486006 337.792149,207.184403 C353.646557,201.244401 366.432162,192.341997 376.169766,180.461991 C380.558568,175.117989 384.00097,169.517987 386.486571,163.692384 C389.764972,155.998781 391.401773,147.892377 391.401773,139.361173 C391.401773,136.199572 391.184173,133.11797 390.748173,130.095569 L369.356163,130.095569 C370.273764,133.12997 370.736164,136.219572 370.736164,139.361173 C370.736164,148.520377 367.771363,156.626781 361.86496,163.692384 C356.928958,169.573187 349.943355,174.709189 340.900951,179.144391 C325.671344,186.469994 309.926537,190.121996 293.66493,190.121996 C281.214952,190.121996 269.415241,188.139904 258.254615,184.16081 L257.458514,183.873193 C244.592908,179.250791 234.367304,172.519588 226.7753,163.681984 L226.3468,163.169884 L225.9273,162.654783 C219.704097,155.08598 216.596896,147.313977 216.596896,139.361173 C216.596896,136.199572 217.037696,133.11797 217.935296,130.105969 L196.660087,130.095569 C196.278487,133.08597 196.092087,136.188372 196.092087,139.361173 C196.092087,147.944377 197.703287,156.058781 200.921689,163.681984 Z M4.83520214,163.681184 L4.83520214,163.691584 C7.53280333,170.054787 11.364005,176.095589 16.3160072,181.794792 C25.0594397,191.845654 36.2120696,199.745832 49.757981,205.537011 L50.4992223,205.850803 C64.9968288,212.034805 80.6896357,215.137207 97.5736432,215.137207 C114.875251,215.137207 131.248058,211.788405 146.682465,205.090802 C164.800873,197.259599 178.167279,185.833194 186.764083,170.804387 L157.55607,170.804387 C141.908863,183.685993 121.920854,190.121196 97.5736432,190.121196 C85.1314795,190.121196 73.3273709,188.139104 62.1710085,184.16001 L61.3752272,183.872393 C48.5016215,179.249991 38.2712169,172.518788 30.6840136,163.681184 L30.109317,162.998873 C30.0153022,162.885095 29.9221466,162.770517 29.8304132,162.653983 C23.6208105,155.08518 20.5184091,147.313177 20.5184091,139.360373 C20.5184091,136.198772 20.9592093,133.11717 21.8464097,130.105169 L0.568000251,130.095569 C0.192000085,133.08597 5.68434189e-14,136.188372 5.68434189e-14,139.360373 C5.68434189e-14,147.943577 1.61600072,156.057981 4.83520214,163.681184 Z M249.681711,291.629241 C249.63531,287.001239 248.45451,283.371637 246.335309,280.537236 L232.247303,280.537236 C236.420905,282.391636 237.899305,284.957238 237.899305,287.517239 L237.899305,290.72124 L171.891276,290.72124 C172.407276,285.626838 173.634477,282.459636 176.705678,280.538036 C180.145571,278.375323 185.904799,277.775068 195.541377,277.755342 L213.334494,277.754834 C222.460098,277.754834 228.468101,278.854035 232.247303,280.538036 L246.335309,280.538036 C240.791307,273.159219 228.830685,271.213401 213.836229,271.171527 L194.396886,271.170831 C181.64568,271.170831 168.428875,272.318032 162.841672,280.538036 L162.833672,280.538036 C161.092871,283.118837 160.094471,286.386838 160.094471,290.52924 L160.094471,300.627645 C160.094471,317.925724 177.301114,320.015781 192.563018,320.055853 L214.435295,320.056453 L215.741916,320.052509 C236.91286,319.923105 249.697711,316.581476 249.697711,305.930047 L237.900105,305.001246 C237.215305,312.24605 231.173702,313.54285 216.352096,313.54285 L200.166489,313.54285 L198.947064,313.539469 C179.281044,313.428323 171.892876,310.544049 171.892876,299.979644 L171.892876,297.001243 L249.697711,297.001243 L249.697711,291.629241 L249.681711,291.629241 Z M81.7800362,278.235635 C79.062812,273.361904 72.7356634,271.219486 59.5971155,271.170879 L41.1656182,271.170031 C21.4464095,271.170031 11.247205,273.769233 6.85280303,280.425236 L21.2544094,280.435636 C25.2039778,278.292435 31.3372357,277.697835 39.6684528,277.673991 L56.1200248,277.673234 C64.6408286,277.673234 71.3880316,278.215635 75.8232336,280.435636 L75.8392336,280.435636 C79.6760353,282.378836 81.7792362,285.602838 81.7792362,290.87324 L81.7792362,299.886044 C81.7792362,308.528448 76.1528337,313.54205 58.5920259,313.54205 L39.3808174,313.54205 C20.1704089,313.54205 15.921607,309.176448 15.921607,299.978844 L15.921607,290.68764 C15.921607,285.536438 17.6960078,282.358036 21.2544094,280.436436 L6.85280303,280.436436 C4.94080219,283.336437 4.13440183,287.033239 4.11680182,291.623641 L4.11680182,300.069244 C4.11680182,316.437252 19.0704084,320.055653 40.4816179,320.055653 L56.9456252,320.055653 L57.855349,320.051036 C69.7660484,319.929315 78.9902374,317.395168 82.3320364,311.782849 L82.6096366,319.305253 L93.5848414,319.305253 L93.5848414,252.018823 L81.7800362,252.018823 L81.7800362,278.235635 Z M627.085078,292.702841 L627.085078,298.466044 C627.085078,306.634047 620.911475,311.199649 604.034667,311.199649 L581.249857,311.199649 L580.396105,311.195594 C566.620081,311.062593 561.087688,307.63104 561.217048,296.978043 L561.217048,288.232439 C561.276248,284.855638 562.933849,282.510837 565.78505,280.959636 C569.504252,278.914835 575.242655,278.204435 582.080258,278.204435 L606.101868,278.204435 C612.991471,278.204435 617.848273,279.180435 621.118675,280.959636 L621.129875,280.959636 C625.560277,283.382037 627.134678,287.268439 627.095478,292.149241 L627.087596,292.514693 C627.086144,292.576174 627.085078,292.638574 627.085078,292.702841 Z M628.153878,271.906832 L628.153878,280.364436 C624.225046,272.743733 615.474244,271.207619 606.674725,271.169951 L581.214657,271.169231 C571.189053,271.169231 558.131447,272.305232 552.484245,280.434836 L552.468245,280.434836 C550.699444,282.985237 549.653043,286.209238 549.653043,290.31004 L549.653043,298.208443 C549.653043,310.385249 559.396248,317.175652 579.029856,317.175652 L603.317067,317.175652 L604.290673,317.172188 C619.96711,317.059226 624.639156,314.191635 627.053878,309.839649 L627.329078,316.897252 C627.329078,320.638053 626.527477,323.310055 624.833877,325.201255 L633.09308,325.201255 L624.833877,325.211655 C620.678675,329.813257 611.18427,329.903657 594.669063,329.903657 L583.146658,329.903657 L582.316206,329.900241 C573.908095,329.830332 566.600657,328.674463 563.92905,325.222055 L558.269047,325.222055 L563.92905,325.210855 C563.220249,324.307655 562.829049,323.258055 562.829049,322.015654 L551.851444,320.702853 C551.851444,322.219654 552.079444,323.740455 552.610645,325.221255 L552.621845,325.221255 C554.779446,331.220458 561.923449,336.41086 579.300256,336.41086 L605.921868,336.41086 C618.261074,336.41086 633.32988,334.374059 637.805882,325.210055 C638.661883,323.474855 639.124283,321.498054 639.124283,319.218053 L639.124283,271.906832 L628.153878,271.906832 Z M372.274094,292.080368 L340.078551,292.078841 C336.823349,292.078841 334.294548,291.931641 332.332947,291.622841 C326.849745,290.79324 325.804144,288.829239 325.804144,285.944438 C325.804144,283.436437 326.260944,281.661236 327.583345,280.434836 C330.037746,278.144435 335.440148,277.672434 346.384153,277.672434 L368.794521,277.674454 C376.972812,277.69651 382.594854,277.943282 385.24977,280.424436 L387.327371,280.424436 L385.24977,280.434836 C386.408971,281.500436 387.003371,283.016437 387.003371,285.109238 L397.983376,285.570838 L397.983376,283.065237 C397.983376,282.159636 397.916176,281.267636 397.734576,280.424436 L397.724176,280.424436 C396.548976,275.042033 390.648173,271.169231 367.655363,271.169231 L349.544155,271.169231 L348.037468,271.17315 C323.765295,271.301075 315.938588,274.557969 314.333739,280.434836 C314.100139,281.278036 313.999339,282.193236 313.999339,283.148437 L313.999339,285.944438 C313.999339,288.154839 314.378539,290.03804 315.179339,291.627641 C317.664141,296.514043 324.258544,298.581244 336.784149,298.581244 L373.143365,298.581244 C387.277771,298.581244 389.202572,301.092445 389.202572,305.647647 C389.202572,312.94669 383.798975,313.519857 366.922973,313.539864 L340.620951,313.54045 C328.676378,313.54045 324.118358,311.184739 324.021717,305.456436 L324.020143,302.946846 L313.040139,302.946846 L313.040139,305.830847 C313.040139,320.054053 329.373746,320.054053 346.800153,320.054053 L369.348822,320.053387 C383.603868,320.03002 401.000177,319.315733 401.000177,306.305247 C401.000177,293.540937 389.402382,292.131634 372.274094,292.080368 L372.274094,292.080368 Z M766.513297,271.171323 L748.309931,271.170031 C733.630725,271.170031 724.429921,272.742032 720.052319,280.095635 L719.771519,271.909232 L708.788314,271.909232 L708.788314,319.306053 L720.593119,319.306053 L720.593119,291.622841 C720.745919,286.118038 722.61072,282.565237 728.152322,280.435636 L728.174722,280.435636 C733.22575,278.47476 741.287637,277.697608 753.877393,277.6738 L757.492335,277.673234 C768.21234,277.673234 774.539543,278.661235 778.248344,280.435636 L778.264344,280.435636 C782.391171,282.417547 783.26687,285.369806 783.300894,288.974311 L783.301947,319.306053 L795.104352,319.306053 L795.104352,287.239639 C795.104352,284.845238 794.541952,282.523637 793.262751,280.435636 C790.018859,275.120181 782.078619,271.252166 766.513297,271.171323 L766.513297,271.171323 Z M469.694608,271.908424 L481.500213,271.908424 L481.500213,319.305243 L469.694608,319.305243 L469.694608,271.908424 Z M469.694608,252.018815 L481.500213,252.018815 L481.500213,260.763619 L469.694608,260.763619 L469.694608,252.018815 Z" id="Shape"></path>
        </g>
    </g>
</svg>