<?xml version="1.0" encoding="UTF-8"?>
<svg width="800px" height="400px" viewBox="0 0 800 400" version="1.1" xmlns="http://www.w3.org/2000/svg" xmlns:xlink="http://www.w3.org/1999/xlink">
    <title>enix_2</title>
    <g id="Page-1" stroke="none" stroke-width="1" fill="none" fill-rule="evenodd">
        <g id="enix_2" fill="#000000">
            <line x1="0" y1="0" x2="800" y2="400" id="Path" fill-rule="nonzero"></line>
            <path d="M275,0 L275,59.4594595 L179.054054,59.4594595 L179.054054,164.864865 L249.324324,164.864865 L249.324324,224.324324 L179.054054,224.324324 L179.054054,340.540541 L285.810811,340.540541 L285.810811,400 L112.837838,400 L112.837838,0 L275,0 Z M483.108108,164.864865 L527.702703,164.864865 L527.702703,398.648649 L483.108108,398.648649 L483.108108,164.864865 Z M607.432432,164.864865 L626.351351,220.339189 L645.27027,164.864865 L677.702703,164.864865 L643.172973,269.664865 L687.162162,398.648649 L645.27027,398.648649 L622.589189,332.140541 L600.675676,398.648649 L565.540541,398.648649 L605.405405,281.756757 L565.540541,164.864865 L607.432432,164.864865 Z M360.086263,164.864865 L400.387888,280.23033 L400.387888,164.864865 L435.523023,164.864865 L435.523023,398.648649 L405.478343,398.648649 L355.117568,260.297297 L355.117618,398.648649 L319.982482,398.648649 L319.982482,164.864865 L360.086263,164.864865 Z" id="Shape"></path>
        </g>
    </g>
</svg>