<?xml version="1.0" encoding="UTF-8"?>
<svg width="800px" height="400px" viewBox="0 0 800 400" version="1.1" xmlns="http://www.w3.org/2000/svg" xmlns:xlink="http://www.w3.org/1999/xlink">
    <title>gremlininteractive</title>
    <g id="Page-1" stroke="none" stroke-width="1" fill="none" fill-rule="evenodd">
        <g id="gremlininteractive" fill="#000000">
            <line x1="0" y1="0" x2="800" y2="400" id="Path" fill-rule="nonzero"></line>
            <path d="M592.086354,276.766612 C597.596274,276.766612 601.625033,278.573629 604.172631,282.187663 C605.579735,284.216854 606.335127,286.253451 606.438808,288.297454 L599.595842,288.297454 C599.151494,286.727423 598.581247,285.542494 597.885101,284.742666 C596.640925,283.320751 594.796879,282.609794 592.352963,282.609794 C589.864611,282.609794 587.902072,283.613281 586.465346,285.620255 C585.028619,287.627228 584.310256,290.467355 584.310256,294.140636 C584.310256,297.813916 585.069351,300.565174 586.587542,302.394408 C588.105732,304.223643 590.034945,305.13826 592.37518,305.13826 C594.774662,305.13826 596.603896,304.353244 597.862883,302.783213 C598.559029,301.938951 599.136682,300.672558 599.595842,298.984034 L606.372156,298.984034 C605.779691,302.553633 604.265204,305.45671 601.828693,307.693263 C599.392183,309.929817 596.270635,311.048094 592.46405,311.048094 C587.753956,311.048094 584.051053,309.537309 581.355339,306.51574 C578.659625,303.479359 577.311768,299.317295 577.311768,294.029549 C577.311768,288.312266 578.84477,283.90581 581.910774,280.810183 C584.576865,278.114469 587.968725,276.766612 592.086354,276.766612 Z M306.105871,277.3887 L306.105871,310.13718 L299.30734,310.13718 L299.30734,277.3887 L306.105871,277.3887 Z M779.614758,277.3887 L779.614758,283.187447 L762.285169,283.187447 L762.285169,290.1415 L778.192843,290.1415 L778.192843,295.82916 L762.285169,295.82916 L762.285169,304.249563 L780.414585,304.249563 L780.414585,310.13718 L755.597725,310.13718 L755.597725,277.3887 L779.614758,277.3887 Z M711.68165,277.3887 L718.791225,302.249995 L725.967452,277.3887 L733.077027,277.3887 L721.901664,310.13718 L715.436394,310.13718 L704.372118,277.3887 L711.68165,277.3887 Z M682.162464,277.3887 L682.162464,310.13718 L675.363933,310.13718 L675.363933,277.3887 L682.162464,277.3887 Z M653.643062,277.3887 L653.643062,283.187447 L643.845179,283.187447 L643.845179,310.13718 L636.957778,310.13718 L636.957778,283.187447 L627.11546,283.187447 L627.11546,277.3887 L653.643062,277.3887 Z M544.726578,277.3887 L556.324072,310.13718 L548.903453,310.13718 L546.792798,303.405301 L534.728738,303.405301 L532.462561,310.13718 L525.308551,310.13718 L536.994915,277.3887 L544.726578,277.3887 Z M492.723361,277.3887 C495.019161,277.433135 496.785446,277.714555 498.022216,278.232962 C499.258986,278.751368 500.306908,279.514166 501.165981,280.521356 C501.876939,281.350807 502.43978,282.269127 502.854506,283.276317 C503.269231,284.283506 503.476593,285.431407 503.476593,286.720017 C503.476593,288.275237 503.084086,289.804536 502.29907,291.307915 C501.514054,292.811294 500.218038,293.874027 498.411021,294.496115 C499.921806,295.103391 500.991945,295.966167 501.621439,297.084444 C502.250932,298.202721 502.565679,299.90976 502.565679,302.20556 L502.565679,304.405085 C502.565679,305.901058 502.624926,306.915654 502.743418,307.448872 C502.921158,308.293134 503.335883,308.915222 503.987594,309.315135 L503.987594,310.13718 L496.455888,310.13718 C496.248525,309.411411 496.100409,308.826352 496.01154,308.382003 C495.8338,307.463683 495.737525,306.523146 495.722713,305.560391 L495.678278,302.516604 C495.648655,300.428166 495.267256,299.035875 494.534081,298.339729 C493.800906,297.643583 492.427129,297.29551 490.412749,297.29551 L483.347609,297.29551 L483.347609,310.13718 L476.660165,310.13718 L476.660165,277.3887 Z M452.117682,277.3887 L452.117682,283.187447 L434.788093,283.187447 L434.788093,290.1415 L450.695767,290.1415 L450.695767,295.82916 L434.788093,295.82916 L434.788093,304.249563 L452.917509,304.249563 L452.917509,310.13718 L428.100649,310.13718 L428.100649,277.3887 L452.117682,277.3887 Z M405.646603,277.3887 L405.646603,283.187447 L395.84872,283.187447 L395.84872,310.13718 L388.961319,310.13718 L388.961319,283.187447 L379.119001,283.187447 L379.119001,277.3887 L405.646603,277.3887 Z M337.802364,277.3887 L350.843991,300.250427 L350.843991,277.3887 L357.220391,277.3887 L357.220391,310.13718 L350.377425,310.13718 L337.002537,286.875539 L337.002537,310.13718 L330.626137,310.13718 L330.626137,277.3887 L337.802364,277.3887 Z M540.794094,284.875971 L536.572784,297.762076 L544.8821,297.762076 L540.794094,284.875971 Z M491.301446,283.07636 L483.347609,283.07636 L483.347609,291.874459 L491.101489,291.874459 C492.641897,291.874459 493.797203,291.69672 494.567407,291.341241 C495.930076,290.719153 496.61141,289.489789 496.61141,287.653149 C496.61141,285.668392 495.952293,284.335347 494.634059,283.654013 C493.893479,283.268911 492.782608,283.07636 491.301446,283.07636 Z M373.164316,137.477161 C374.034907,137.477161 374.613398,141.757951 374.702479,148.656179 L374.714393,150.748367 C374.714084,151.062605 374.713185,151.376176 374.711709,151.688978 L374.705557,152.624972 C374.582344,167.249462 373.206041,179.945022 371.691591,179.945022 C371.123101,179.945022 369.615028,176.643099 368.242381,172.452047 L367.753525,170.924889 C364.134582,159.747574 359.713488,153.883901 351.96527,149.90356 C339.643523,143.577366 327.591751,148.171478 322.011777,161.322865 C313.095043,182.338389 314.849875,217.011882 325.539643,231.026276 C330.414347,237.419206 339.29013,240.322188 345.761929,237.642162 C351.410154,235.30188 355.411233,224.65003 354.719614,213.796458 L354.252467,206.487436 L347.048098,206.024839 C341.920104,205.695713 339.843729,204.917641 339.843729,203.326613 C339.843729,201.924608 341.624525,201.407927 349.510989,201.383859 L350.930154,201.38451 C352.235757,201.389244 353.687747,201.404808 355.301247,201.429828 L360.510583,201.529451 C373.143918,201.818042 379.99005,202.545698 380.353518,203.640572 C380.664444,204.576382 379.546629,205.70178 377.869149,206.140109 L377.771309,206.166307 C375.383612,206.821187 374.88926,208.164867 374.544119,220.698858 L374.394367,227.064631 C373.930254,249.037199 372.437812,252.460412 367.50699,242.850542 L364.664677,237.310003 L359.783111,241.370451 C353.1916,246.794419 349.844363,248.050794 340.659178,248.184304 L338.785066,248.196942 C320.364631,248.196942 304.710674,239.579 297.391034,225.408385 C290.311035,211.703399 289.440444,181.059803 295.665019,164.729394 C299.643348,154.2914 309.366971,144.440373 319.478872,140.601582 C328.175684,137.301222 347.313522,136.562585 355.16401,139.225926 C357.99874,140.18752 362.198508,142.283612 364.496322,143.883741 C368.333517,146.556608 368.563839,147.131258 370.043488,142.468503 L370.889252,139.752225 C371.279046,138.500939 372.302825,137.477161 373.164316,137.477161 Z M418.611591,182.480705 C427.328011,172.41685 437.169125,171.202363 445.204976,179.236719 C449.685336,183.717078 450.563511,185.6706 450.563511,191.148954 C450.563511,196.003941 449.598883,198.743118 446.844539,201.715868 C444.798498,203.92268 442.36418,205.729081 441.435954,205.729081 C438.032458,205.729081 433.852407,202.49394 431.581893,198.100033 L431.41084,197.778631 C428.762866,192.944143 424.953196,192.417988 419.340532,196.094943 C412.615443,200.502501 411.129068,205.601677 411.129068,224.275403 L411.131246,225.647175 C411.170733,237.715363 411.754548,242.349215 413.490584,244.825298 L415.850584,248.196942 L386.69033,248.196942 L389.05033,244.825298 C390.860276,242.241089 391.355693,237.08837 391.407181,218.168458 L391.410149,210.882268 C391.388561,190.770002 391.130971,187.746702 388.982796,186.075597 L388.844592,185.971705 C388.821134,185.95464 388.797463,185.937688 388.773576,185.920832 L388.627658,185.820681 L387.916732,185.362925 C384.018304,182.772132 384.901914,181.031826 391.775873,177.764399 L392.579712,177.38785 C396.52619,175.564766 402.142565,174.199727 405.06223,174.354431 C409.754898,174.60376 410.320897,174.837738 410.72859,179.679073 L410.894328,181.811115 C411.479595,188.511034 413.069695,188.90672 417.731215,183.512964 Z M709.559554,174.384053 L709.920808,174.392349 L716.746,174.636539 L717.558956,248.196942 L704.461965,248.193585 C698.208176,248.14856 693.259524,247.656321 693.28554,247.05941 C693.311324,246.433009 694.335103,244.596274 695.560604,242.977946 L695.630566,242.882472 C697.223922,240.639791 697.731886,235.130722 697.78277,218.618788 L697.785673,214.065973 C697.738096,189.253737 696.498177,184.675348 689.78128,184.500489 L689.062662,184.492458 C682.786641,184.376132 685.585436,180.513168 694.374537,177.318082 C699.171889,175.575383 706.166952,174.258879 709.920808,174.392349 Z M472.995642,176.984405 C481.709137,172.382709 492.408005,172.898391 500.978929,178.33276 C509.181293,183.535073 511.884069,187.226744 514.993323,197.478182 L515.873142,200.362044 C519.039776,210.783353 518.729587,211.629398 503.435569,211.991214 L493.230551,212.198256 C478.45465,212.506773 476.032213,212.702733 475.345862,214.809516 L475.294374,214.982476 C475.19802,215.336732 475.138978,215.74146 475.073534,216.204992 C474.049755,223.448796 476.543225,233.363525 480.345615,237.164399 C483.507954,240.328254 484.974612,240.755966 489.650627,239.877792 C496.334765,238.623473 503.194841,235.300363 507.813221,231.076327 L508.0583,230.857609 C509.860134,229.288084 511.742092,228.484865 512.322398,229.065171 C514.376023,231.118795 508.914352,238.312548 501.541628,243.267637 C495.819084,247.112495 492.615794,248.196942 486.978185,248.196942 C467.816079,248.196942 455.156106,233.41206 455.159139,211.037564 C455.159139,195.319905 461.617288,182.992091 472.995642,176.984405 Z M599.923714,183.066299 C610.784025,172.885198 617.249097,171.403391 625.306627,177.140627 C633.694242,183.112882 635.461394,189.561461 635.564412,216.093278 L635.580555,221.902793 C635.654727,237.927733 636.066691,242.519834 637.659014,244.848977 L637.766927,245.001001 C637.803487,245.050625 637.840639,245.099233 637.878392,245.146924 L637.993466,245.287349 C638.032432,245.333309 638.072008,245.378452 638.112204,245.422881 L638.492135,245.851352 C640.234728,247.875263 639.475711,248.155814 629.659457,248.191908 L624.979917,248.194309 C617.388849,248.154148 611.357072,247.659711 611.383235,247.05941 C611.409019,246.433009 612.432798,244.596274 613.658299,242.977946 C616.766037,238.86918 616.787271,206.27358 613.687117,198.855354 C611.21033,192.928054 606.814907,191.922476 601.046861,195.962989 C594.611463,200.469133 593.134189,205.868618 593.134189,224.872986 L593.137725,226.91395 C593.184376,239.662868 593.708501,243.285089 595.644343,245.422881 L596.024274,245.851352 C597.766867,247.875263 597.007849,248.155814 587.191596,248.191908 L582.512055,248.194309 C574.920987,248.154148 568.889211,247.659711 568.915374,247.05941 C568.941158,246.433009 569.964937,244.596274 571.190438,242.977946 C572.868616,240.759212 573.64677,230.233718 573.519406,219.851643 L573.501528,218.699099 C573.34309,210.257732 572.583323,202.119373 571.219255,198.855354 C568.742469,192.928054 564.347045,191.922476 558.579,195.962989 C552.143602,200.469133 550.666327,205.868618 550.666327,224.872986 L550.669863,226.91395 C550.716515,239.662868 551.24064,243.285089 553.176481,245.422881 L553.556412,245.851352 C555.299005,247.875263 554.539988,248.155814 544.723734,248.191908 L540.492373,248.196513 C526.885186,248.174933 524.413998,247.332785 528.341654,243.928488 L528.736425,243.593164 C530.426559,242.08789 530.888136,237.357134 530.943221,218.926362 L530.947419,211.012306 C530.928299,192.990252 530.722697,188.61526 529.15899,186.692848 L529.058413,186.574589 C529.007211,186.516986 528.954629,186.461593 528.900632,186.408059 L528.762668,186.27789 L528.622176,186.157118 L528.475821,186.041419 L528.245035,185.874891 L527.453992,185.362925 C523.555563,182.772132 524.439173,181.031826 531.313132,177.764399 L532.116972,177.38785 C536.06345,175.564766 541.679824,174.199727 544.59949,174.354431 C549.248305,174.602161 549.868713,174.939733 550.289617,179.321831 L550.409146,180.672802 C551.018008,187.07275 553.330094,187.465692 558.365144,182.075999 L558.770253,181.648454 C567.55511,172.509615 576.815867,171.473465 584.305424,178.819624 C587.074935,181.537567 590.126554,185.120034 591.085114,186.782348 L591.34691,187.226378 C592.638697,189.352851 593.312244,189.250897 597.569082,185.286931 Z M777.499309,173.878185 C783.252188,173.878185 790.218434,179.430858 793.483909,186.62006 L793.746746,187.216709 C794.063407,187.958928 794.34247,188.706351 794.588223,189.505875 L794.691519,189.851854 C795.940661,194.161651 796.276319,200.114254 796.332137,214.635146 L796.351745,221.902793 C796.425917,237.927733 796.837881,242.519834 798.430204,244.848977 L798.538117,245.001001 C798.611237,245.10025 798.686725,245.195431 798.764656,245.287349 L798.883394,245.422881 L799.263325,245.851352 C801.005918,247.875263 800.246901,248.155814 790.430647,248.191908 L785.59289,248.194309 C773.611076,248.128012 769.753144,247.014258 773.265801,244.635545 L773.6226,244.405169 C774.598773,243.801426 775.095967,233.642174 775.123885,222.810987 L775.123498,220.731027 L775.099878,217.473834 C774.984211,207.511655 774.47156,198.214192 773.569515,196.528722 C770.43296,190.668157 760.591033,194.165689 756.171342,202.712346 C752.773914,209.282731 752.957435,241.60229 756.415533,245.422881 C758.599005,247.83677 758.433456,248.153408 747.962786,248.191908 L743.283245,248.194309 C735.692177,248.154148 729.660401,247.659711 729.686564,247.05941 C729.712348,246.433009 730.736127,244.596274 731.961628,242.977946 C733.557595,240.868397 734.092912,235.66361 734.17614,219.611273 L734.188157,214.539645 L734.174586,207.143826 C734.104372,192.121813 733.708215,189.004531 731.809848,186.722106 L731.574758,186.451513 L731.411709,186.275491 L730.90699,185.760226 C729.354639,184.158987 728.135797,182.43599 728.151351,181.840909 C728.168338,181.214508 731.411062,179.210935 735.356023,177.38785 C739.302501,175.564766 744.918876,174.199727 747.838541,174.354431 C752.487357,174.602161 753.107765,174.939733 753.528669,179.321831 L753.648005,180.665353 C754.228515,186.599636 756.726037,187.613168 759.597589,183.013325 C762.00764,179.154817 772.347048,173.878185 777.499309,173.878185 Z M653.851143,137.664948 C655.237435,137.670253 656.863541,137.701984 658.767713,137.755016 L674.278138,138.235515 L674.677033,190.464918 C675.021872,235.484249 675.362341,242.745816 677.437153,245.295157 L677.857873,245.772468 C679.713575,247.895169 679.010548,248.163024 668.601928,248.194309 L664.41436,248.194309 C656.823292,248.154148 650.791515,247.659711 650.817678,247.05941 C650.843462,246.433009 651.867241,244.596274 653.092742,242.977946 C656.503822,238.468769 656.382485,150.285771 652.957755,145.398933 C651.659452,143.543998 649.611894,142.027289 648.407627,142.027289 L648.197548,142.01656 C647.090961,141.903002 646.219015,140.902247 646.219015,139.69459 C646.219015,138.223761 647.472291,137.68713 653.077694,137.664948 Z M496.17096,194.235458 C493.416616,181.927361 485.59798,177.695742 479.629728,185.282322 C476.534125,189.216666 473.804048,202.841266 475.546747,205.659312 C476.085179,206.53142 480.944715,207.24579 486.342684,207.24579 L486.760088,207.245301 C497.490307,207.219413 498.708301,206.131981 496.531768,195.885235 Z M695.443817,141.200682 C700.925205,135.719294 708.502685,136.113639 713.577594,142.144075 C717.866848,147.241735 718.455331,151.057776 715.740422,156.156953 C711.674124,163.790551 702.654253,165.575718 695.716825,160.117081 C690.239987,155.809626 690.106517,146.536465 695.443817,141.200682 Z M280.177794,53.4634534 L279.705235,346.244166 L135.096737,346.490398 C118.755658,346.51646 104.150202,346.531814 91.1546483,346.535725 L88.6594489,346.536339 C88.2469216,346.536417 87.836061,346.536483 87.426863,346.536538 L81.7855607,346.536512 C24.4896873,346.528022 1.98505877,346.263301 1.26564099,345.666076 C0.302550464,344.866481 0.042908411,324.645186 0.00459966517,229.443551 L-2.84217094e-14,192.573305 C0.0160132173,116.090812 0.289646073,54.4179962 0.622177161,54.0863712 C0.940061368,53.7676185 55.4862815,53.5029842 124.820749,53.4674973 L280.177794,53.4634534 Z M233.457675,57.5099801 L231.831306,57.5099801 C225.895738,57.5309799 220.748122,57.7335806 219.280339,58.0386773 C213.881407,59.1621708 204.436778,64.5377554 200.268738,68.8598898 C198.184252,71.021891 195.305008,75.1899303 193.870522,78.1224069 C193.724712,78.4203663 193.586514,78.7016196 193.455,78.9669834 L193.200613,79.4767669 C191.437452,82.9818497 190.920947,83.3343498 188.924867,82.9386685 L188.132503,82.7712827 C175.24341,80.1285567 125.566005,78.6713871 109.733657,80.5048108 C93.334161,82.4029047 86.1948875,83.4022024 79.875565,84.7078823 L78.3299511,85.0348792 L76.0658762,85.5102038 C74.0119139,85.9360637 72.0311779,86.3325956 70.6868586,86.5866789 L69.2074498,86.8559648 C66.5518084,87.3631875 60.8226891,88.9281008 54.8689904,90.7088009 L53.9020071,90.9993216 L51.9934022,91.5804186 C47.9235096,92.8305249 43.9626394,94.1182685 41.0214768,95.1745249 L40.2096784,95.4697809 C36.5678786,96.8125937 32.7378563,98.4152815 29.001445,100.123398 L28.0694555,100.552534 C16.6029942,105.870096 6.24976801,112.067599 5.27118,114.617733 C4.91284731,115.551473 4.72705699,127.583166 4.6976367,141.154218 L4.69473869,147.200544 C4.69493138,147.365466 4.69514602,147.530408 4.69538257,147.695353 L4.69810243,149.179502 L4.70057084,150.167728 C4.70148082,150.496868 4.7024779,150.825695 4.70356186,151.154079 L4.70707416,152.137774 L4.71110642,153.118034 C4.71468292,153.933268 4.71879968,154.74411 4.72345324,155.548529 L4.72929498,156.510618 C4.81163099,169.453684 5.03448766,180.497608 5.38324917,181.003775 C5.73620681,181.515738 7.8324494,183.167825 10.1627277,184.781841 L11.5386041,185.727935 C14.6260137,187.881391 14.9016766,188.450448 13.7146582,189.255802 L13.0335622,189.722183 L4.66880819,195.539147 L4.66880819,223.482028 C4.69248698,236.033868 4.92138472,247.247784 5.20986598,250.034159 L5.23165471,250.227575 C5.23652054,250.266981 5.24140197,250.303988 5.24629829,250.338562 L5.27584954,250.516547 C6.08181368,254.549169 15.1622184,264.183383 22.4831371,268.773549 L28.1911936,272.352291 L21.9709304,275.515913 C15.7928279,278.739387 6.51454003,286.11489 5.4346142,288.693844 L5.42323713,288.725107 C5.40735462,288.774467 5.39154939,288.847516 5.37584451,288.943347 L5.35236531,289.104064 C5.05208886,291.382963 4.79327065,301.935278 4.74049089,314.278061 L4.66880819,342.041572 L47.1617027,341.974331 L44.5336806,339.906655 C36.5580912,333.630781 32.2462298,328.976175 29.6592997,323.850878 C27.2412953,319.06149 26.8502187,317.430838 26.7971872,310.695462 L26.791882,309.267028 C26.8245522,297.411291 29.3854199,290.434853 35.9445125,284.231624 L36.1628544,284.025903 C38.8519844,281.501618 41.3850038,279.469618 41.8514918,279.469618 C42.2761334,279.469618 43.9819126,279.945385 45.8290505,280.570438 L46.9339136,280.953438 C56.2762643,284.170675 74.9919821,287.835246 94.2138384,290.399985 L95.7733014,290.605496 L97.3339323,290.806004 C102.536815,291.465819 107.741657,292.039187 112.773401,292.495564 L114.683,292.663579 C127.174713,293.714719 140.843757,293.362373 166.587723,291.304955 L180.813463,290.146516 C218.217707,287.10197 222.318729,286.873534 229.604043,287.546293 L232.132806,287.794489 C250.086287,289.601605 261.295072,293.755635 270.215778,301.907734 L270.872109,302.503412 C273.398602,304.779898 275.578706,306.553001 275.866866,306.553001 C276.609325,306.553001 276.612126,243.65698 275.869668,241.721919 C274.995881,239.446183 263.902194,235.088593 252.560494,232.215853 L251.33017,231.910339 L250.480653,231.706627 C248.358159,231.20517 246.248338,230.763421 244.216664,230.4048 C208.032502,224.0164 176.169719,222.391196 131.237304,224.695193 L126.143004,224.964588 C122.304987,225.163485 118.197494,225.354028 114.023593,225.529407 L108.996031,225.732146 L106.668467,225.820353 C96.1445621,226.211149 85.9526297,226.48068 79.3285456,226.52042 L76.2194641,226.52963 C75.8347325,226.530247 75.4574544,226.530681 75.0873985,226.530917 L73.470116,226.530588 C64.9218246,226.520902 60.5003413,226.377392 56.8031006,225.857251 L55.9774818,225.733035 C55.3700922,225.635658 54.77596,225.527085 54.178843,225.406155 L53.7801446,225.323692 C53.0699275,225.173792 52.350448,225.006175 51.5946662,224.81891 L50.4303869,224.523036 C37.1231066,221.06757 26.5540497,214.779556 23.2853655,208.372001 C20.9870136,203.86682 20.9477894,198.149424 23.1957102,195.372911 L24.9122364,193.252936 L32.7682853,196.614077 C56.679281,206.844166 83.7929792,212.652793 118.854257,215.034331 L121.25717,215.19141 C156.34416,217.396371 196.9132,213.007929 226.472379,203.810786 L227.458095,203.505899 C230.533596,202.560195 233.625416,201.660212 234.884073,201.345618 L235.330235,201.236655 C236.423533,200.949435 237.484713,200.401575 237.748405,199.976152 L237.811996,199.886756 C238.143943,199.475539 238.95539,199.153377 239.692805,199.153377 L239.764863,199.150155 C241.000867,199.048246 246.653275,196.543238 252.658429,193.606848 L253.380481,193.252536 L254.104358,192.894841 C254.22507,192.834985 254.345793,192.77502 254.466494,192.714961 L255.262465,192.317379 C259.767281,190.058611 264.142055,187.717341 266.68611,186.11875 L268.093806,185.219645 C275.449463,180.579962 276.375878,181.169557 276.451856,163.944771 L276.457253,160.095952 C276.457253,157.352045 276.444159,154.235579 276.439102,150.685288 L276.436551,116.031672 L270.599615,111.695529 C263.896945,106.71779 245.617529,97.6551298 235.344521,94.2174079 C222.862817,90.0409634 212.411433,87.0842051 210.075725,87.0701965 L209.795969,87.065765 C200.727231,86.832877 207.783462,78.0629636 221.237814,73.0101849 C232.058093,68.9467435 252.889884,69.5593883 261.288535,74.188779 C265.275396,76.3862687 267.097454,76.3255645 267.097454,73.9963936 C267.097454,69.9712425 261.406207,63.0285572 255.471211,59.8149737 C255.183885,59.6593525 254.906415,59.515192 254.631198,59.381546 L254.395672,59.2695451 C254.238787,59.1965651 254.081928,59.12693 253.923678,59.0604633 L253.56095,58.9147596 C251.027437,57.9438343 247.884582,57.7227387 238.623742,57.5655768 L235.536788,57.52206 C234.839781,57.5155074 234.145332,57.5099801 233.457675,57.5099801 Z M127.944898,120.849713 C138.955694,119.012712 153.748825,119.990516 169.503883,123.598209 C179.834792,125.962869 190.519654,133.949665 191.927056,140.358154 C193.558597,147.787406 180.568846,158.536708 167.15043,160.860275 C153.458052,163.230912 147.008315,163.819756 137.82436,163.44033 L136.350086,163.372492 C116.050623,162.348927 102.249304,158.052009 95.0927538,150.528431 C89.2857029,144.424397 89.2091223,140.081717 94.7976384,133.895498 C100.614443,127.456834 108.848231,124.124443 126.711913,121.058383 Z" id="Combined-Shape"></path>
        </g>
    </g>
</svg>