<?xml version="1.0" encoding="UTF-8"?>
<svg width="800px" height="400px" viewBox="0 0 800 400" version="1.1" xmlns="http://www.w3.org/2000/svg" xmlns:xlink="http://www.w3.org/1999/xlink">
    <title>infogrames_3</title>
    <g id="Page-1" stroke="none" stroke-width="1" fill="none" fill-rule="evenodd">
        <g id="Manufacturer" fill="#000000" fill-rule="nonzero">
            <g id="infogrames_3">
                <line x1="0" y1="0" x2="800" y2="400" id="Path"></line>
                <path d="M406.519149,352.232825 L415.956315,355.851005 C412.670332,357.672553 404.315575,360.025616 391.752988,362.691497 L397.581273,361.97683 L405.20497,361.082104 C435.967124,357.565497 462.053161,355.733352 477.257753,355.878688 L489.291593,360.507301 C484.322478,363.134427 471.422157,366.680631 452.165799,370.575642 L459.889231,369.45174 L465.50203,368.668113 C498.32954,364.175663 526.997587,361.851602 542.332397,362.16275 L552.979314,366.24047 C550.003381,368.322238 541.955907,371.035181 529.648004,374.058175 L533.371098,373.517239 L539.020955,372.732007 C560.15088,369.876835 578.734622,368.289894 590.656001,368.219811 L602.465608,372.745996 C598.852965,374.877594 590.650465,377.585001 578.633235,380.527713 L581.091493,380.10693 C591.356384,378.343517 601.311223,376.890155 610.421729,375.813283 L610.892342,375.987686 C624.036273,374.202127 635.294987,373.396549 643.096082,373.424232 L653.369277,377.371841 L652.836318,377.744983 C648.087655,380.846722 633.664833,385.264616 611.902774,389.748951 L608.304899,390.476849 L604.684093,391.184752 C577.460142,396.416931 548.911651,399.89068 532.767888,400 L521.348613,395.614998 C524.856061,393.300692 533.786626,390.338601 546.028089,387.304534 L542.279669,387.968823 L536.646664,388.931539 C507.225173,393.850324 477.991781,397.036685 461.237548,397.129263 L449.11789,392.475736 C452.567204,390.45487 460.138529,387.993843 470.503079,385.366718 L466.554869,385.972675 L460.535542,386.867786 C428.517184,391.537305 398.077688,394.513543 379.937844,394.704225 L366.065847,389.377998 C372.136749,386.415907 386.581786,382.570725 405.669278,378.678483 L401.341405,379.332053 L394.94858,380.271839 L390.690965,380.881063 C348.857686,386.802122 308.200325,390.649665 285.928833,390.751079 L271.957177,385.383328 L272.992704,384.940851 C279.225133,382.397373 291.608635,379.249062 307.878757,375.960003 L301.44629,376.747009 L295.077814,377.49914 C265.529898,380.925744 238.541263,383.171795 220.677018,383.658671 L205.509452,377.845222 L206.829392,377.434899 L208.320326,376.997498 C225.606961,372.062231 264.092285,365.449504 306.708654,360.12245 L316.271531,358.955244 L322.083761,358.275553 C359.253495,354.004259 390.706307,351.846473 406.519149,352.232825 Z M437.324893,41.4735112 C448.475643,26.8679121 460.174517,20.3070193 468.172162,18.7346197 C492.428087,13.964823 502.648685,51.1459838 507.570738,71.9747417 C513.589043,64.8241991 520.293887,59.8855355 527.485955,60.7160283 C551.192812,63.3154293 562.3416,121.485765 560.143567,167.35957 L580.894943,167.359602 L580.894943,186.1758 C580.894943,208.10827 567.213827,226.840067 547.919218,234.312396 C547.405604,236.00224 546.877445,237.681194 546.33814,239.346714 C540.209104,258.201668 532.610095,273.723577 520.941672,287.678624 L521.337061,288.351651 L521.829234,289.127607 C524.350628,292.961077 530.007538,299.572664 538.434617,300.783799 C567.385595,300.29104 595.907484,219.049471 598.459865,183.028232 C590.113413,171.359809 580.366196,159.074053 573.835755,146.337063 C565.851951,130.793007 564.545309,108.840315 581.650692,108.369702 C591.356384,108.934437 609.070794,122.122662 606.258192,168.882172 C659.556448,235.161031 660.063049,285.131779 658.598613,300.268894 C658.008964,304.87536 657.03175,307.189667 654.457223,309.038897 C649.504718,312.969896 607.924714,300.675835 598.908331,255.516408 C598.504158,252.510024 598.243937,247.828813 599.140869,244.606501 L599.33987,243.745815 C601.07886,236.771028 607.037499,224.60236 616.243483,226.676163 C628.437885,229.405716 634.561385,260.100728 629.786052,252.54878 C628.738831,250.294459 625.628802,248.523467 622.089804,246.763321 L618.098669,244.80536 L616.972988,244.233334 C612.321026,241.823506 608.244328,239.056225 608.326119,234.895273 C607.346137,236.019206 606.562706,238.280915 606.164069,241.669325 C604.594438,261.664823 621.796711,282.809168 631.748783,291.850466 L633.175314,293.137473 C642.180338,301.142519 646.030692,302.232435 648.247905,303.111947 C656.801981,306.539114 660.8797,270.692279 630.209603,224.123782 C622.153823,211.887855 612.262655,200.922583 603.174296,189.398112 L602.936409,191.195117 C598.634906,221.9083 573.929545,318.190429 526.029824,307.449888 C520.664841,306.25121 515.468724,302.943081 510.560512,298.093003 L509.86395,298.792268 C498.220133,310.304257 473.563334,325.923701 443.512064,296.396029 L442.794119,297.259889 L442.043183,298.132145 C429.398993,312.565121 398.283247,335.598213 362.561168,290.820655 C349.062892,298.823836 327.220933,306.613859 305.772073,292.290627 L305.125817,293.22766 L304.089574,294.677849 C292.367189,310.748024 262.717207,340.550323 213.667659,335.005637 C149.42074,327.733289 119.035778,253.174418 159.040614,162.468 C182.942195,108.289421 222.268795,68.1489384 233.688071,62.127866 C235.744925,60.4668805 235.445947,61.9479259 234.413368,63.0247981 L233.481428,63.9769417 L227.360053,69.9715645 C221.698426,75.5875374 213.867709,83.8506676 204.631898,96.4770461 C177.261625,133.890745 161.058711,172.724586 160.571489,207.118059 C159.048919,316.341697 224.466833,323.403654 240.921663,323.154506 C270.465058,322.711576 291.963747,299.543597 300.556579,288.345786 C288.844755,278.309172 275.678252,261.509617 266.448328,237.779948 L201.343146,237.779851 L201.343146,218.96919 C201.343146,190.466679 224.447455,167.359602 252.958271,167.359602 L254.616195,167.36198 C254.663845,164.226278 254.777989,161.033666 254.962527,157.784021 C258.685903,106.694875 275.162879,66.3772205 295.615147,44.9754223 C305.182423,35.0095093 314.184965,27.9530893 324.08167,26.9537297 C339.166187,25.4228547 346.640622,38.1902966 350.527328,46.503529 C355.3691,37.0220701 360.584595,28.9136925 365.841614,22.6351673 C373.039218,14.0229575 385.870331,2.14691119 398.061964,0.258924339 C420.535098,-3.22084029 434.240997,29.3123291 437.324893,41.4735112 Z M413.400759,237.781484 L406.254568,237.782336 C401.007612,250.488898 393.610897,261.84302 383.718975,273.02956 L379.613952,277.610283 C380.480433,280.015944 381.40228,282.476971 382.354578,284.990596 C390.100307,305.387498 417.703118,316.790163 438.324253,290.903704 L437.183709,289.569379 C427.458549,278.175237 419.124705,260.142976 413.400759,237.781484 Z M480.543706,237.781116 L475.540466,237.779258 C469.44317,252.936332 460.695063,269.653172 454.147908,279.802784 L454.369373,280.206957 C473.44856,314.88003 497.98962,302.381114 506.111839,293.204169 C495.246448,279.908944 486.177017,259.217949 480.543706,237.781116 Z M332.419042,237.779478 L331.363512,240.562108 L330.265513,243.369893 C324.867713,256.979568 318.238901,270.990555 314.107452,278.440776 C322.334867,286.972705 333.275225,291.421378 341.840373,290.552129 C347.651054,289.718868 353.165526,287.664782 358.176166,284.841107 C351.055467,274.225353 343.794251,258.952195 337.987224,239.718552 L337.411427,237.782012 L332.419042,237.779478 Z M540.398832,236.57924 L540.117547,236.640158 C536.622092,237.386866 532.995492,237.779851 529.277051,237.779851 L506.177499,237.781883 C509.318248,261.432017 514.650259,275.927476 517.425919,280.863047 C524.028336,271.904798 530.262569,262.415034 533.858602,253.952313 C535.979684,248.985995 538.214386,243.215025 540.398832,236.57924 Z M468.119567,237.780042 L443.625887,237.78283 C445.24432,251.530958 447.675525,263.688074 451.064012,272.83495 C456.541469,263.688173 462.530075,251.35833 467.330746,239.71379 L468.119567,237.780042 Z M324.669519,237.781749 L297.137252,237.783216 C300.032819,252.039649 303.589176,261.757066 306.461382,267.589004 C307.314021,269.313661 308.274625,270.958036 309.315509,272.519363 C314.849174,262.210394 320.241031,250.122092 324.669519,237.781749 Z M397.328146,237.779111 L368.065905,237.780624 C370.219829,248.505883 373.192246,259.068806 377.130779,270.589851 C383.052192,263.46976 389.709976,252.546012 393.837525,244.897174 C395.096155,242.483677 396.257553,240.104361 397.328146,237.779111 Z M542.113211,187.282512 L539.34869,187.282164 C531.055729,187.351611 525.988299,188.319478 525.988299,197.293329 C525.988299,206.694507 530.957414,206.647446 539.442282,207.220486 L542.861523,207.438601 C545.898143,207.648391 546.28831,207.917436 546.28831,210.409578 C546.28831,212.937045 545.094996,213.370977 541.57185,213.425747 L540.552374,213.432572 C536.048335,213.432572 534.761071,213.080997 534.761071,209.675976 L525.952311,209.675976 C525.952311,220.430857 531.776834,220.596956 540.549606,220.596956 C554.861456,220.596956 555.454251,215.841155 555.475945,210.744183 L555.476521,209.842075 C555.476521,202.317811 552.946094,201.096986 542.750411,200.399372 L538.178801,200.077922 C536.234529,199.911535 535.184622,199.584259 535.184622,197.249036 L535.194511,196.825383 C535.274837,195.333894 535.92575,194.525155 539.980813,194.45765 L541.82983,194.459619 C544.569796,194.505642 545.693124,194.873827 545.693124,197.819308 L554.510189,197.819308 L554.510189,196.465605 C554.510189,188.04222 548.950214,187.339557 542.113211,187.282512 L542.113211,187.282512 Z M362.458851,187.284966 L360.241324,187.277587 C350.139764,187.277587 343.897227,188.897048 343.897227,199.740515 L343.897227,208.225382 C343.897227,218.850153 349.408931,220.596956 360.241324,220.596956 L361.64618,220.587296 C372.772734,220.426034 375.489171,218.161441 375.489171,207.527768 L375.489171,201.797368 L359.826078,201.797368 L359.826078,207.879344 L366.165506,207.879344 C366.165506,212.270574 365.014882,213.356655 360.730378,213.428631 L359.321638,213.422983 C355.194106,213.327155 353.35654,212.427491 353.35654,206.999021 L353.35654,201.670026 L353.388543,200.308363 C353.529823,196.183534 354.188082,194.564491 359.658118,194.461138 L360.963761,194.456993 L361.684549,194.469526 C363.951822,194.541426 366.014573,194.986967 366.165506,197.733491 L375.489171,197.733491 C375.489171,188.210394 370.187512,187.360634 362.458851,187.284966 L362.458851,187.284966 Z M324.981371,187.277587 L323.75534,187.289538 C315.08868,187.464771 309.05252,189.650766 309.05252,199.308659 L309.05252,208.576958 C309.05252,218.454039 315.372697,220.507651 324.364216,220.594045 L324.981371,220.596956 C334.307804,220.596956 340.918526,218.678518 340.918526,208.576958 L340.918526,199.308659 C340.918526,189.201562 334.307804,187.277587 324.981371,187.277587 Z M397.569205,187.540576 L379.840953,187.540576 L379.840953,220.342272 L389.034508,220.342272 L389.034508,211.638708 L396.146294,211.638708 C398.900762,211.638708 400.002549,213.299693 399.905658,215.741342 L399.905658,220.342272 L409.099213,220.342272 L409.099213,213.739854 C409.099213,210.01371 406.654796,208.050979 402.892664,207.915332 L402.892664,207.57483 C409.412032,206.127004 409.412032,202.935144 409.412032,197.467733 C409.412032,189.290148 405.514253,187.676223 397.569205,187.540576 Z M435.035502,187.543345 L421.074918,187.543345 L410.746357,220.342272 L420.299792,220.342272 L421.999534,214.697689 L434.351729,214.697689 L436.13452,220.342272 L445.49971,220.342272 L435.035502,187.543345 Z M236.420392,187.543345 L227.23791,187.543345 L227.23791,220.342272 L236.420392,220.342272 L236.420392,187.543345 Z M306.206698,187.543345 L281.776369,187.543345 L281.776369,220.342272 L290.958851,220.342272 L290.958851,208.313968 L305.00802,208.313968 L305.00802,201.144047 L290.958851,201.144047 L290.958851,194.713265 L306.206698,194.713265 L306.206698,187.543345 Z M520.902915,187.543345 L496.054572,187.543345 L496.054572,220.342272 L521.218503,220.342272 L521.218503,213.166814 L505.24259,213.166814 L505.24259,206.78863 L519.939544,206.78863 L519.939544,200.703886 L505.24259,200.703886 L505.24259,194.713265 L520.902915,194.713265 L520.902915,187.543345 Z M257.584116,187.543345 L242.064974,187.543345 L242.064974,220.342272 L251.247456,220.342272 L250.696562,195.150658 L251.064747,195.150658 L260.795354,220.342272 L276.458447,220.342272 L276.458447,187.543345 L267.273198,187.543345 L267.824091,212.734958 L267.461443,212.734958 L257.584116,187.543345 Z M462.31442,187.543345 L447.758651,187.543345 L447.758651,220.342272 L456.932827,220.342272 L456.024822,195.192183 L456.293348,195.192183 L465.113181,220.342272 L473.058228,220.342272 L481.78117,195.192183 L482.096757,195.192183 L481.185984,220.342272 L490.365697,220.342272 L490.365697,187.543345 L475.444511,187.543345 L469.204742,208.134028 L468.875313,208.134028 L462.31442,187.543345 Z M324.981371,194.893205 L325.926968,194.901316 C329.988235,194.980053 331.459214,195.706611 331.459214,200.222201 L331.459214,207.616354 C331.459214,212.339281 329.877255,212.951179 325.464999,212.987763 L324.03914,212.981481 C319.999862,212.902228 318.635356,212.170605 318.509064,207.616354 L318.509064,200.222201 C318.644711,195.372123 320.208806,194.893205 324.981371,194.893205 Z M428.239303,194.104237 L432.508035,208.313968 L423.967802,208.313968 L428.147948,194.104237 L428.239303,194.104237 Z M396.146294,195.150658 C399.035882,195.150658 399.874033,195.908961 399.947305,198.506467 L399.9533,199.726773 C399.950246,202.833126 399.790241,204.031394 396.146294,204.031394 L389.034508,204.031394 L389.034508,195.150658 L396.146294,195.150658 Z M318.210086,49.3161311 L316.978994,51.3802492 L316.026481,53.0410933 C307.138396,68.8140773 295.516164,97.3380518 292.570007,149.102603 C292.208032,155.462533 291.974894,161.546651 291.855308,167.362384 L326.367137,167.362384 C326.027123,158.573914 326.024352,149.4377 326.415355,139.978256 C327.686009,109.313696 335.600605,79.4242616 346.05374,55.8936337 C345.516532,54.7965434 344.932814,53.6413355 344.304382,52.4724958 L343.878823,51.691738 C338.260951,41.5283256 329.314614,31.0835493 318.210086,49.3161311 Z M392.555797,22.1922379 L391.477747,23.8751314 L390.511296,25.4589111 C383.053823,37.9576443 369.395808,67.3254997 365.80802,122.16942 L365.692125,124.007881 C364.69538,140.435767 363.982353,154.676775 363.63598,167.361378 L405.142944,167.361378 C405.150386,162.707585 405.257647,157.993869 405.46996,153.230152 C407.643082,104.507911 418.226328,72.1186937 430.68372,51.3259236 C426.830233,23.3383179 406.308757,1.26935719 392.555797,22.1922379 Z M468.803337,38.4172979 L467.972628,39.8271499 L467.106006,41.3826902 C459.919337,54.6293232 446.846614,87.2545504 442.47118,148.12539 C442.023588,154.347037 441.673205,160.795923 441.431522,167.359185 L476.147896,167.359185 C479.658419,131.107258 485.806289,103.732019 501.414019,80.2824375 L500.855563,77.6281555 L500.404051,75.5895028 C495.318429,53.1011824 483.190315,14.726861 468.803337,38.4172979 Z M504.953331,167.358101 L553.449374,167.358101 C557.672025,107.304872 540.08635,73.2092194 532.587948,71.9581318 C516.862733,69.338617 509.012994,113.508072 504.953331,167.358101 Z M578.901761,122.042381 C576.260794,140.548528 595.035467,154.669673 601.203259,163.09087 C602.012764,142.2773 596.002658,127.497052 592.331437,121.019012 L591.871289,120.229139 C587.657923,113.200402 580.435404,111.298573 578.901761,122.042381 Z" id="Shape"></path>
            </g>
        </g>
    </g>
</svg>