<?xml version="1.0" encoding="UTF-8"?>
<svg width="800px" height="400px" viewBox="0 0 800 400" version="1.1" xmlns="http://www.w3.org/2000/svg" xmlns:xlink="http://www.w3.org/1999/xlink">
    <title>infogrames_2</title>
    <g id="Page-1" stroke="none" stroke-width="1" fill="none" fill-rule="evenodd">
        <g id="infogrames_2" fill="#000000">
            <line x1="0" y1="0" x2="800" y2="400" id="Path" fill-rule="nonzero"></line>
            <path d="M500.589003,281.466607 L513.500215,285.331968 L515.24112,285.84442 C543.325636,294.067514 554.313889,295.131431 557.959599,295.17078 L558.325378,295.171332 C558.701067,295.168151 558.976001,295.153389 559.167054,295.137659 L559.271756,295.12819 C559.371321,295.117815 559.60492,295.093927 559.727498,295.268863 C559.755078,295.306512 559.747782,295.340804 559.755078,295.376994 L560.510202,295.54702 L559.582258,295.859761 C549.375542,299.296112 531.119556,297.364833 512.876331,295.145944 L503.819299,294.039568 C493.366931,292.77919 482.943105,291.655093 474.542416,291.703874 C463.8874,291.765427 457.576459,293.734759 455.260378,297.7235 L455.040124,298.126475 L454.871594,298.123556 C449.953972,298.011354 444.304809,292.830219 443.243926,287.463714 L443.185586,287.140568 C442.715901,284.256693 443.260236,279.255099 451.05316,275.831815 C462.430474,270.837561 480.730899,275.565618 500.589003,281.466607 L500.589003,281.466607 Z M277.487477,272.672325 C291.746689,266.413088 315.574244,273.579256 340.801231,281.165588 L348.57753,283.491898 L350.905152,284.176479 C388.371792,295.126775 398.953398,294.825611 400.71711,294.649669 C400.832377,294.637835 401.074789,294.613728 401.200432,294.79326 L401.220961,294.836539 L401.231879,294.926462 L401.987134,295.093678 L401.055294,295.408091 C389.579307,299.271868 369.155771,297.17147 348.638312,294.686101 L337.773158,293.359502 L333.632976,292.866875 C323.072544,291.632611 312.735256,290.623699 304.220815,290.672775 L302.864291,290.690132 C291.513765,290.917271 284.746793,293.1756 282.215568,297.576114 L281.990713,297.988823 L281.821424,297.985904 C276.349811,297.858284 270.07671,292.20482 268.694292,286.240769 L268.615813,285.87528 C267.983122,282.676521 268.294105,276.708714 277.487477,272.672325 Z M378.165766,0.0189961785 C392.583584,0.64710583 406.110888,14.2088984 415.433712,38.8123881 L415.489164,39.1034684 C424.098847,23.9675726 434.577551,15.9017271 445.83372,15.9400327 C461.176418,15.9898227 475.768487,33.1479227 484.581153,60.8574875 C491.398425,51.753738 499.311063,46.869802 507.495634,46.8973821 C512.826912,46.916532 517.702405,49.1493835 521.988108,53.538487 C534.328158,66.1734357 541.114786,96.349478 540.348805,134.261986 C539.984968,152.235861 536.714195,171.661283 530.674402,188.873001 C524.309048,207.02648 517.476438,220.173888 506.92499,230.438499 C509.747638,235.483281 518.43777,246.859358 531.9038,247.899154 C560.318075,250.09219 583.466184,219.775966 591.45161,170.06037 L590.685904,169.730882 C578.366085,164.309705 551.092017,146.76927 545.883052,126.008481 C542.179521,111.240257 552.585437,90.1909463 569.349061,91.1637479 C578.154081,91.6769598 587.870613,97.2265317 592.96444,105.077895 C599.946405,115.851497 602.374572,130.523971 600.360033,150.332385 L609.32863,154.338999 C642.922389,169.395993 707.603695,199.441491 713.915466,222.748676 C714.90977,226.408082 714.23982,229.803711 712.086056,232.805837 L711.739796,233.271742 L711.454901,233.63481 C708.16921,237.64763 696.795543,246.012682 659.100468,246.184731 L657.913908,246.187426 C638.603393,246.187426 615.991475,240.874914 608.534593,234.58693 C606.661749,233.008593 604.582098,229.976103 604.880837,226.624896 C605.156594,223.517663 607.351133,220.761642 611.395547,218.432272 L611.697964,218.887278 L611.532964,219.030741 C611.033504,219.486157 609.584599,220.984241 609.779168,222.941634 C609.989797,225.055388 611.981382,227.072204 615.700235,228.931652 C625.853393,234.010901 642.165084,237.375519 660.449185,238.162557 C677.136197,238.880688 693.264036,237.330691 702.536311,234.118522 C706.837322,232.627172 709.487646,230.874964 710.414481,228.909428 C711.360738,226.895662 711.387545,224.884947 710.495178,222.763517 C706.016061,212.124815 679.277642,201.535772 650.070347,191.208171 L647.295383,190.230136 L641.436571,188.181564 L635.233171,186.025682 C633.35125,185.371951 631.331649,184.663527 629.240609,183.924571 L623.013219,181.709618 L614.953041,178.805225 C606.582502,175.767472 599.440478,173.105358 597.837686,172.391121 C591.273201,203.554151 572.966102,254.260174 528.270795,253.78142 C512.778713,253.615575 500.289293,246.589949 493.62139,240.427578 L492.897241,240.839403 C487.657068,243.776981 481.276401,246.382585 470.136236,246.428321 C458.566004,246.474682 446.080423,242.68647 433.181213,231.980676 L432.266848,232.559411 C427.658577,235.419361 419.199331,239.721006 403.716767,239.504566 C389.352985,239.303874 376.027482,232.230749 369.16808,227.621046 L367.138586,229.148363 C361.263503,233.529854 351.593172,240.023993 335.956835,240.074451 C324.098969,240.113516 316.69646,237.338352 308.487782,232.368255 L307.60714,233.140993 C301.05,238.822186 288.22489,248.262981 270.481435,247.889815 C262.453515,247.722467 256.72507,245.817825 250.914308,243.161021 L250.671954,243.387136 C246.065831,247.742232 209.812441,283.988908 155.02389,272.637711 L153.914361,272.398951 C135.326827,268.251786 94.3242797,251.776726 86.9230834,192.919559 C75.1333769,99.156251 173.16055,24.6232334 184.033674,19.4740796 L184.336283,19.3393341 C184.426287,19.3010286 184.665663,19.20145 184.815025,19.3929474 C185.052452,19.7059073 184.834734,19.9999524 183.432892,21.1593672 L179.571351,24.2980644 C173.407101,29.3712475 162.425418,39.0181909 150.528314,54.674291 C133.461364,77.1330186 120.364524,104.114898 111.60202,134.86926 C108.536542,145.631372 107.151255,157.676511 107.595527,169.694841 C108.056268,182.122974 110.492106,194.566422 114.638518,205.670859 C119.158221,217.772667 125.585232,228.257123 133.740309,236.830835 C142.673244,246.220274 153.498934,253.088475 165.916067,257.240131 C176.074197,260.637597 186.536426,261.806173 197.010146,260.712748 C205.394256,259.839133 213.851504,257.502097 222.01118,253.70818 L223.381664,253.061443 C236.161335,246.940467 242.140264,241.509271 244.479099,239.637403 C229.063613,229.242956 219.951069,215.127371 213.437104,200.525731 C206.511831,185.006839 203.084421,168.059385 202.379715,150.06253 C202.396175,90.8096349 221.937648,46.562419 247.325883,46.6466767 C255.923118,46.6767479 264.170218,52.2741209 271.210095,62.8449361 L271.616039,63.4608787 L271.800052,63.5920488 C281.011038,32.998544 295.704189,15.4957549 312.382417,15.5493681 C322.640875,15.5838388 332.393816,22.7879426 340.586034,36.3765447 L340.686431,36.499108 C349.368143,14.3965637 363.67942,-0.609113473 378.165766,0.0189961785 Z M467.748593,191.630562 C462.298604,203.829262 453.63147,215.563037 445.749448,222.777088 C449.981523,230.45801 456.96734,238.613118 465.795329,240.922924 C477.281302,243.928695 487.193157,238.87202 490.37201,236.926782 C478.690715,224.213322 468.629476,198.712096 467.748593,191.630562 Z M276.099122,192.50378 C271.670951,212.345124 265.203332,224.111451 257.290694,235.258861 C275.111771,247.243858 295.489678,237.840994 304.163714,229.398659 C293.76775,221.783609 281.103701,204.436677 276.099122,192.50378 Z M336.456559,177.999822 L336.299183,178.934888 C335.420314,183.853794 330.622031,207.157524 316.014299,224.340482 L316.200487,224.536062 C318.574989,226.917522 330.754787,235.745375 343.631569,234.004918 C354.102583,232.5898 362.20367,227.161977 365.131662,224.735329 L364.451619,224.111321 C360.268483,220.339426 346.472147,208.314039 336.456559,177.999822 Z M401.707525,175.996766 C399.056442,189.933899 392.459007,205.180455 378.322315,219.437771 L378.597521,219.765095 C383.427879,225.368265 404.602391,243.253051 429.384144,228.482929 C411.209196,210.160905 404.096641,185.441381 401.707525,175.996766 Z M255.819993,58.2263231 C246.458878,58.0041871 240.841132,73.7643627 238.577644,81.1293239 C233.91891,96.2767091 231.686839,117.919661 231.686839,143.185731 C231.686839,200.12918 246.530893,225.833758 252.566104,231.71617 C264.054368,217.624685 269.548018,202.469261 272.486342,184.33453 L271.58086,181.323571 C266.908983,165.702331 263.183989,151.525639 263.120616,131.098461 C263.041349,106.682637 265.960134,87.3146655 269.690107,70.9187223 L269.138425,69.9460571 C266.843599,65.9511451 262.038566,58.3740545 255.819993,58.2263231 Z M515.929155,58.1762382 C502.271611,58.096106 493.673413,90.6964955 492.54358,143.17807 L492.489642,146.149319 C492.197164,165.785375 493.245918,181.990246 495.573064,195.617512 L495.835483,197.1096 C497.912811,208.596674 501.468927,221.064735 504.676809,226.446954 C510.124361,221.277534 516.643464,211.065669 520.010656,203.555104 L520.291455,202.918137 C526.289119,189.0645 534.462191,166.900676 535.523088,135.690551 C536.089923,118.942254 534.749432,103.676139 532.378717,90.0683873 L532.098097,88.5140023 C529.473243,74.4370678 524.164876,58.2244003 515.929155,58.1762382 Z M320.729725,28.1307096 C313.439433,28.1307096 306.912072,37.7438415 302.207006,55.2045076 C297.6651,72.0600418 295.084091,94.9438932 295.084091,119.6393 C295.084091,143.34676 296.604657,164.892447 299.485983,182.056476 L299.689212,183.246829 C302.68255,200.470036 306.521676,212.156696 312.79012,220.391061 C325.508177,204.974043 331.500121,185.180945 333.178388,166.276396 L333.190062,166.330009 L333.182766,166.230444 L333.175469,166.276396 C329.802067,152.756732 327.06137,130.114168 327.06137,115.767238 C327.06137,92.358687 332.620498,57.7092822 338.426692,43.4542721 C337.050595,42.1520949 331.223343,28.1307096 320.729725,28.1307096 Z M455.479351,28.5669139 L455.060028,28.5826427 C451.168807,28.8315882 447.488245,31.0414593 444.462599,35.2007657 C441.256953,39.6090191 438.476404,46.1045861 436.117188,54.43086 C431.467504,70.8321378 428.811973,93.3124731 428.542521,119.577909 L428.509526,124.124679 L428.509526,125.989276 C428.529322,131.827257 428.736195,144.391462 429.970124,158.892285 L430.184232,161.316504 C431.824624,179.281285 435.058454,201.231013 443.026365,218.393721 C453.884229,208.515198 464.968059,190.152199 465.565539,183.128101 L465.448361,182.348279 L465.204747,180.83843 L464.782412,178.343865 L464.442496,176.224987 C463.727193,171.504777 463.081977,165.110624 462.991811,151.557963 C462.719878,110.788326 474.833976,77.1538534 480.345254,67.7743466 L480.242733,67.3083822 C478.883456,61.4886587 469.074228,29.0957322 455.896471,28.5727681 L455.479351,28.5669139 Z M387.503839,12.9904011 C384.583493,12.9680042 381.808329,14.2855023 379.164907,16.8821957 C367.591465,28.2687786 360.653566,61.7092953 360.103085,105.451955 L360.023397,113.070712 C360.017439,113.862066 360.013024,114.775044 360.011945,115.797987 L360.020533,119.188831 C360.069011,127.259539 360.337884,139.552453 361.331886,152.78516 L361.578939,155.932921 C363.956586,185.15669 367.942055,205.804681 375.635641,215.631976 C381.040131,209.926973 385.211693,202.652121 387.34562,198.738703 L387.876475,197.758453 C396.610254,181.565489 399.004113,166.927486 399.29579,164.625696 C396.875299,151.063902 396.586555,142.699328 396.496519,131.531243 C396.231853,98.6359486 403.576138,65.0627548 411.322551,47.812737 L411.26492,47.6789252 C410.213812,44.9686313 401.83329,13.1109615 387.503839,12.9904011 Z M617.366094,192.972007 L617.728768,192.974852 C620.325465,193.032306 622.738323,193.974464 624.182218,195.487296 C625.089908,196.437116 625.553325,197.543975 625.522681,198.685288 C625.446099,201.733919 621.826811,204.132886 617.456864,204.034546 C614.860153,203.97443 612.451133,203.034933 611.003414,201.519441 C610.099548,200.569622 609.631534,199.46276 609.659114,198.321448 C609.733583,195.357501 613.156661,193.005523 617.366094,192.972007 L617.366094,192.972007 Z M561.359812,103.350596 C558.035426,112.086674 563.830122,121.267023 569.215014,127.820038 C578.759207,139.428566 594.381499,148.356139 594.381499,148.356139 C595.940282,134.553062 594.477256,126.582971 592.99507,120.198472 C589.609395,105.667705 579.617121,98.8734025 571.275519,98.2989148 C566.438317,97.9657101 562.658175,99.9381259 561.359812,103.350596 Z M56.4510009,334.259598 L41.73567,334.259598 C43.3903159,338.264539 44.2610513,342.356453 44.2610513,349.758933 L44.2610513,380.842678 C44.2610513,391.728121 43.0417538,395.472614 41.73567,399.564527 L56.4510009,399.564527 C54.6096865,392.950175 54.0561239,389.232312 54.016266,382.377717 L54.0138993,351.500386 C54.0138993,341.660531 55.2317031,338.091033 56.4510009,334.259598 Z M148.03884,383.903858 L148.037265,348.190957 C148.037265,341.225438 148.821253,337.742532 149.691796,334.259598 L137.153358,334.259598 L137.485527,335.472399 C138.36065,338.774594 138.982916,342.361309 138.982916,353.066829 L138.982916,382.759169 L109.46409,345.316972 L108.143801,343.618374 C104.208044,338.483445 103.604257,336.945077 102.498592,334.259598 L86.9107628,334.259598 L87.8862543,335.046214 C91.1438505,337.699504 92.8432967,339.396772 95.7062037,343.053498 L95.7011751,382.953705 C95.6661479,385.439484 95.400574,393.480029 93.5296549,399.564527 L107.374096,399.564527 C105.371042,394.253562 104.76208,386.15519 104.76208,380.407205 L104.76208,354.63444 L132.539438,390.160146 C134.802926,393.032584 136.979862,396.081578 138.110842,399.564527 L150.215732,399.564527 L149.846782,398.503779 C148.991759,395.95217 148.081691,392.297552 148.03884,383.903858 L148.03884,383.903858 Z M212.131955,343.837471 L217.444453,334.259598 L181.656797,334.259598 L182.168601,335.991866 C183.015729,338.971843 183.789571,342.619635 183.831909,349.987609 L183.831456,381.963415 C183.809424,385.093183 183.590052,391.993462 181.656797,399.564527 L195.586651,399.564527 C194.107151,394.513602 193.585129,389.985137 193.585129,384.76107 L193.585129,370.13379 C201.683137,370.047401 205.688093,371.178226 210.215464,373.094717 L215.180585,363.68876 L193.585129,363.68876 L193.585129,340.528043 L195.739604,340.599087 C202.745243,340.855636 205.701796,341.296344 212.131955,343.837471 Z M270.752157,333.73603 C248.026868,333.73603 234.964864,351.672359 234.964864,366.215762 C234.964864,382.934192 248.026868,400 269.09915,400 C287.557515,400 303.230357,387.026077 303.230357,366.650884 C303.230357,350.10593 292.346459,333.73603 270.752157,333.73603 Z M271.796579,392.947567 C259.346238,392.947567 245.936857,382.410653 245.936857,364.735881 C245.936857,352.10935 254.382256,340.703052 267.531174,340.703052 C282.768572,340.703052 293.130462,355.505371 293.130462,369.089732 C293.130462,379.276234 286.339602,392.947567 271.796579,392.947567 Z M384.041946,366.562774 L368.108671,366.562774 L368.837004,367.562776 C370.869629,370.41686 372.390527,373.377082 372.458609,381.975055 L372.46099,389.813133 L371.220038,390.304504 C368.653784,391.298465 366.072849,392.076637 360.968128,392.076637 C344.16277,392.076637 334.498318,380.582243 334.498318,366.300778 C334.498318,348.799921 346.948294,340.703081 358.00723,340.703081 C367.324698,340.703081 374.377495,344.359492 378.730996,346.622996 L378.730996,335.739084 L376.632356,335.245399 C372.96153,334.409108 368.354605,333.562524 361.752131,333.562524 C347.905774,333.562524 339.63426,336.785053 332.669908,345.141934 C327.270468,351.586963 324.484972,360.032348 324.484972,368.304241 L324.493145,369.054286 C324.762185,381.434672 331.775782,400 360.534217,400 C372.549085,400 378.992554,397.476077 383.432982,395.733048 C382.21393,391.291102 382.21393,389.985137 382.21393,385.633168 L382.21393,377.882144 C382.21393,371.526742 383.344901,368.565843 384.041946,366.562774 Z M450.559843,352.893367 C450.559843,344.097905 442.639544,333.997996 425.833806,334.259598 L413.122257,334.434549 L413.302898,335.028927 C413.965003,337.250712 414.808179,340.690208 414.858672,347.300283 L414.861054,382.671015 C414.861054,388.330495 414.512524,393.122533 413.122257,399.564454 L426.358498,399.564454 L426.041458,398.274792 C424.604892,392.315406 424.527796,390.181328 424.527796,385.458057 L424.527796,369.349743 L427.242995,372.947843 C438.612469,387.962648 442.649856,392.522002 450.824115,399.564454 L459.789989,399.564454 L456.750114,395.900638 C449.988964,387.716545 443.269001,379.24216 438.196839,370.308755 L439.113935,369.81056 C442.66494,367.821746 450.260426,362.78362 450.551246,353.447447 L450.559843,352.893367 Z M424.527796,368.392337 L424.527796,339.832515 C437.587875,341.138524 440.636504,348.974959 440.636504,353.850846 C440.636504,363.863827 430.709313,366.65084 424.527796,368.392337 Z M508.771013,333.997923 L508.246307,333.997923 L483.083644,383.978629 L482.230475,385.65796 C477.473754,394.945733 475.649619,397.178301 473.589241,399.564527 L489.525595,399.564527 C489.177065,394.425521 491.704826,388.767573 492.834659,386.328667 L495.768386,380.112682 L519.406734,380.112682 L522.876652,388.070119 C525.224398,393.381114 525.572928,396.690528 525.572928,399.564527 L541.072657,399.565987 L540.085918,398.207002 C537.813386,395.021225 534.974746,390.572657 530.885046,381.713535 L508.771013,333.997923 Z M499.203837,372.517157 L508.05097,354.110872 L515.871704,372.517157 L499.203837,372.517157 Z M632.542951,334.520003 L619.743322,334.520003 C617.828363,338.002952 616.958964,339.048513 615.044006,341.398973 L595.538139,365.518337 L577.686826,343.313932 C574.205423,339.048513 573.159834,336.958545 572.026178,334.259598 L557.223494,334.259598 L563.669268,341.398973 L563.669268,382.148687 C563.669268,392.250114 562.014729,396.517051 560.708734,399.564527 L576.208463,399.564527 C573.420282,393.29455 573.420282,386.067065 573.420282,385.024204 L573.420282,352.370951 L595.538139,379.711677 L617.479833,352.370951 L617.479833,383.368133 C617.479833,389.638124 616.782773,394.688641 614.603542,399.564527 L630.279462,399.564527 C627.50606,393.426798 627.328314,387.452597 627.319353,382.815372 L627.318929,350.192859 C627.318929,340.703052 629.846675,337.742503 632.542951,334.520003 Z M672.887457,393.381114 L672.887457,369.524825 L673.76442,369.588404 C678.168707,369.921165 680.744528,370.352657 687.778251,372.397264 L693.350803,363.254863 L672.887457,363.254863 L672.887457,340.441465 C679.769857,340.179498 683.599789,341.050429 690.914961,344.359492 L695.874726,334.259598 L660.700615,334.259598 C662.527493,339.919472 663.136457,346.362912 663.136457,350.80334 L663.136457,382.759169 C663.136457,391.117625 661.830448,395.733092 660.700615,399.564542 L694.917247,399.564542 L699.708497,388.680645 L698.234101,389.175003 C685.522684,393.381114 680.944192,393.381114 672.887457,393.381114 Z M746.774833,364.867662 L743.783089,363.135723 C736.98143,359.155374 732.57699,355.992381 732.57699,350.454446 C732.57699,345.316972 737.019695,341.66056 742.680343,341.66056 C748.51333,341.66056 752.170909,344.532999 755.043376,346.796867 L755.043376,336.696564 L753.519137,336.065792 C750.57973,334.872458 746.817268,333.562524 741.807122,333.562524 C731.098628,333.562524 722.477446,342.096004 722.477446,352.457909 C722.477446,362.384297 728.049998,365.865714 741.983298,374.574204 L742.373193,374.830867 C744.34398,376.171182 747.467755,378.958265 747.467755,383.194627 C747.467755,387.810094 743.373551,392.337071 737.716755,392.337071 C731.707592,392.337071 727.873822,387.810094 724.917111,384.412161 L724.917111,398.258518 L726.114506,398.597254 C728.795611,399.341451 731.680438,400 736.146474,400 C749.819325,400 758.26433,392.16355 758.26433,381.364684 C758.26433,375.214512 755.749962,370.154524 746.774833,364.867662 L746.774833,364.867662 Z" id="Shape"></path>
        </g>
    </g>
</svg>