<?xml version="1.0" encoding="UTF-8"?>
<svg width="800px" height="400px" viewBox="0 0 800 400" version="1.1" xmlns="http://www.w3.org/2000/svg" xmlns:xlink="http://www.w3.org/1999/xlink">
    <title>jaleco_3</title>
    <g id="Page-1" stroke="none" stroke-width="1" fill="none" fill-rule="evenodd">
        <g id="Manufacturer" fill="#000000" fill-rule="nonzero">
            <g id="jaleco_3">
                <line x1="0" y1="0" x2="800" y2="400" id="Path"></line>
                <path d="M800,101.393572 L800,298.606428 L0,298.606428 L0,101.393572 L800,101.393572 Z M62.1891349,107.556812 L62.1891349,292.430502 L793.826413,292.433897 L793.826413,107.560207 L62.1891349,107.556812 Z M573.940316,124.807383 C588.819806,124.807383 601.219364,126.97714 611.139011,131.13583 C620.810672,135.29452 627.258427,140.718897 630.234329,147.047343 C633.458216,153.375776 634.946167,163.139665 634.946167,176.519792 L634.946167,190.080741 L583.859963,190.080741 L583.859228,164.819473 C583.837675,157.696623 583.341949,153.339614 582.372031,151.748473 C581.132066,149.940347 578.90014,149.036277 575.180282,149.036277 C570.964434,149.036277 568.236517,150.121156 567.244557,152.290898 C566.00461,154.460654 565.50862,159.161784 565.50862,166.394286 L565.50862,232.752508 C565.50862,239.623394 566.00461,244.324509 567.244557,246.313457 C568.236517,248.483199 570.716429,249.568077 574.684292,249.568077 C578.652154,249.568077 581.132066,248.483199 582.124027,246.313457 C583.363992,244.324509 583.859963,239.261763 583.859963,231.486821 L583.859963,213.586374 L634.946167,213.586374 L634.946167,219.010751 C634.946167,233.837386 633.458216,244.324509 630.730319,250.472147 C627.754417,256.619771 621.554628,262.044148 611.634981,266.745277 C601.715335,271.446407 589.811766,273.796971 575.428267,273.796971 C560.548797,273.796971 548.149239,271.808023 538.477577,267.830156 C528.805916,263.852274 522.358142,258.427897 519.134255,251.376203 C516.158372,244.505331 514.422436,234.018194 514.422436,219.91482 L514.422436,178.147109 C514.422436,167.840781 514.918407,160.246662 515.910387,155.003093 C516.902348,149.940347 519.87823,144.877587 524.590068,140.176458 C529.301906,135.29452 535.997666,131.678269 544.429361,128.966073 C553.109062,126.073084 562.780723,124.807383 573.940316,124.807383 Z M711.001966,124.807383 C721.417603,124.807383 730.84126,126.073084 739.272975,128.604457 C747.704671,130.955021 754.40043,134.752081 759.360254,139.814841 C764.568062,144.877587 767.543964,150.301964 768.535925,156.087971 C769.527886,162.054787 770.023876,172.361102 770.023876,187.006929 L770.023418,212.173928 C770.00632,226.235637 769.510483,236.111823 768.535925,241.973958 C767.543964,247.940774 764.816067,253.365151 759.856244,258.427897 C754.89642,263.309835 748.448646,267.106908 740.016931,269.81909 C731.83324,272.350463 722.161578,273.796971 711.001966,273.796971 C700.586329,273.796971 691.162673,272.531285 682.730977,269.999898 C674.299262,267.468525 667.603502,263.671465 662.643679,258.789528 C657.43587,253.726768 654.459968,248.302391 653.468008,242.335575 C652.476047,236.549567 651.980057,226.243253 651.980057,211.416617 L651.980531,186.245512 C651.997929,172.356033 652.49376,162.309854 653.468008,156.449588 C654.459968,150.482772 657.187865,145.058395 662.147689,140.176458 C667.107531,135.113712 673.555286,131.497461 681.987002,128.785265 C690.170712,126.253892 699.842354,124.807383 711.001966,124.807383 Z M172.748653,127.700387 L172.748224,227.29353 C172.748153,227.50493 172.74807,227.715051 172.747972,227.923891 L172.747207,229.161556 C172.73853,240.162134 172.677797,247.424163 172.252663,250.833764 C171.756692,254.992454 170.020756,258.608705 166.796869,262.044148 C163.572981,265.298783 159.109137,267.649333 153.405338,268.915034 C147.701541,270.18072 139.269839,270.723159 128.110233,270.723159 L102.567139,270.723159 L102.567139,245.771018 C105.212378,245.931736 107.269786,245.949594 108.739365,245.951578 L109.262902,245.951826 C112.734779,245.951826 115.710673,245.409387 117.694602,244.1437 C119.926524,242.697206 121.16648,241.250697 121.414471,239.261763 C121.662463,237.453637 121.910454,233.837386 121.910454,228.413009 L121.910454,127.700387 L172.748653,127.700387 Z M280.396207,127.700387 L309.659176,270.723159 L257.333026,270.723159 L254.853114,245.04777 L236.501772,245.04777 L233.52587,270.723159 L180.70375,270.723159 L206.742812,127.700387 L280.396207,127.700387 Z M369.378565,127.700387 L369.378565,242.154767 L400.377471,242.154767 L400.377471,270.723159 L318.292381,270.723159 L318.292381,127.700387 L369.378565,127.700387 Z M497.803144,127.700387 L497.803144,156.449588 L463.828336,156.449588 L463.828336,183.571486 L495.571217,183.571486 L495.571217,210.69337 L463.828336,210.69337 L463.828336,242.154767 L501.027031,242.154767 L501.027031,270.723159 L412.742152,270.723159 L412.742152,127.700387 L497.803144,127.700387 Z M711.249952,149.036277 C708.522055,149.036277 706.538133,149.759525 705.050182,151.206034 C703.810217,152.652529 703.066241,157.17285 703.066241,164.58616 L703.066885,231.821613 C703.087015,239.833007 703.577731,244.727576 704.306207,246.675073 C705.298167,248.483199 707.530094,249.568077 710.753981,249.568077 C714.225853,249.568077 716.45778,248.483199 717.44974,246.132634 C718.441701,243.962892 718.937691,238.538515 718.937691,230.221135 L718.937691,164.58616 C718.937691,157.896097 718.441701,153.556598 717.44974,151.748473 C716.45778,149.940347 714.473839,149.036277 711.249952,149.036277 Z M245.677443,159.704223 C240.469634,187.006929 237.245747,207.077119 236.005782,219.733998 L253.365164,219.733998 C250.885252,203.460868 248.157355,183.571486 245.677443,159.704223 Z" id="Combined-Shape"></path>
            </g>
        </g>
    </g>
</svg>