<?xml version="1.0" encoding="UTF-8"?>
<svg width="800px" height="400px" viewBox="0 0 800 400" version="1.1" xmlns="http://www.w3.org/2000/svg" xmlns:xlink="http://www.w3.org/1999/xlink">
    <title>jaleco_4</title>
    <g id="Page-1" stroke="none" stroke-width="1" fill="none" fill-rule="evenodd">
        <g id="jaleco_4" fill="#000000">
            <line x1="0" y1="0" x2="800" y2="400" id="Path" fill-rule="nonzero"></line>
            <path d="M183.545703,0.455889075 C164.258824,2.91032766 149.585081,14.8522399 142.093322,34.188769 C139.974561,39.6556694 139.590313,42.5990529 139.624852,53.0773685 C139.664788,65.035471 139.807262,65.7856182 143.516983,73.5849908 C152.78427,93.0661526 166.985258,103.162379 187.075173,104.554738 C203.025786,105.659991 215.881906,100.470484 227.17405,88.3709865 C238.248167,76.5035493 242.226645,65.1617548 241.328627,48.0098271 C240.886094,39.5466552 240.266548,36.8849817 237.367418,30.9960561 C226.451966,8.82191962 206.54662,-2.47238352 183.545703,0.455889075 M465.007422,60.1891961 C440.661637,62.1093571 429.513045,63.1714361 420.754132,64.4029728 C415.114536,65.1962939 406.128959,66.4137991 400.786184,67.1099789 C389.638672,68.5606233 375.859709,70.9157619 365.707356,73.1046807 C361.848685,73.9368584 352.620255,75.8775271 345.199734,77.4177575 C337.779213,78.9590672 330.250757,80.6374542 328.469832,81.1501447 C326.688907,81.6617559 323.046105,82.6288522 320.374718,83.2991277 C317.70333,83.9694031 311.986021,85.5538868 307.668627,86.8199626 C297.32523,89.8550907 299.862778,91.3532265 311.902911,89.3208132 C316.859279,88.4843181 329.414262,87.0207214 339.802991,86.0698154 C350.191721,85.11783 363.791513,83.8603889 370.024751,83.2764614 C384.541988,81.9154028 442.260152,81.9024507 456.060702,83.2570331 C461.871915,83.8269291 475.854875,85.0703386 487.134067,86.019086 C507.518644,87.7341708 512.173874,88.3947321 541.101494,93.6803019 C587.304088,102.122966 631.12348,116.078943 665.226577,133.212522 C690.896723,146.109657 717.627869,167.271365 728.292912,183.138868 C737.004334,196.100764 742.399997,211.874364 742.399997,224.380776 C742.399997,228.115321 742.870593,231.169878 743.445886,231.169878 C746.381714,231.169878 759.796937,205.399352 762.084077,195.367887 C763.571419,188.842145 763.798082,168.052813 762.453214,161.551897 C761.044664,154.746604 753.815188,140.063147 748.514507,133.241664 C727.422957,106.098207 689.486014,85.8841674 635.004817,72.7571305 C624.912909,70.3253582 613.013091,67.7716196 608.560778,67.0808365 C604.108465,66.3900534 598.03713,65.3851799 595.068921,64.8476644 C576.137148,61.418574 558.933412,60.3975103 515.197129,60.1060862 C490.264178,59.9409459 467.67881,59.9776437 465.007422,60.1891961 M361.971731,106.617374 C360.410993,108.178112 360.270678,115.721679 360.545912,183.520957 C360.881589,266.374989 360.5988,262.913518 367.653422,270.429022 C372.443571,275.532182 376.161926,276.503598 390.922018,276.503598 C406.130039,276.503598 405.643252,276.802575 405.643252,267.406846 C405.643252,261.418621 403.596808,258.153591 399.842833,258.153591 C398.823928,258.153591 396.797991,256.960911 395.340871,255.503791 L392.69107,252.855069 L392.69107,180.165263 C392.69107,125.068837 392.378059,107.163524 391.395852,106.181317 C390.530214,105.315679 385.728193,104.886098 376.90128,104.886098 C366.229761,104.886098 363.371646,105.217459 361.971731,106.617374 M151.636922,117.478858 C151.240801,117.873899 150.916997,169.772215 150.916997,232.80725 C150.916997,315.642933 150.575923,348.434621 149.687619,351.08658 C147.971455,356.211327 144.943882,359.217313 138.365252,362.330154 C133.363551,364.696086 131.273933,365.006938 120.49232,364.990748 C109.337253,364.974558 107.770039,364.715514 102.346312,361.995556 C97.9587605,359.794764 95.5021632,357.617718 92.9289963,353.648954 C91.014232,350.695856 88.7206163,347.235465 87.8333918,345.959675 L86.2186864,343.639075 L74.5843885,346.092434 C68.1860103,347.440541 58.0930221,349.367178 52.1566051,350.372051 C34.594525,353.346736 34.4099564,353.558288 39.6631458,364.662626 C43.7851778,373.376207 55.3093822,385.039647 63.8276009,389.120664 C81.340031,397.509361 96.5286237,399.971355 130.949049,399.999713 C160.264155,400.023164 171.967531,398.618931 188.779464,393.060286 C214.203519,384.65324 229.371604,370.368062 232.849265,351.555017 C234.108865,344.742169 234.608603,121.689397 233.37167,118.466462 C232.79098,116.952136 228.180003,116.758932 192.536676,116.758932 C170.437015,116.758932 152.031964,117.082737 151.636922,117.478858 M450.339076,143.832232 C441.892094,144.641743 435.488319,147.789124 429.168733,154.238231 C424.199413,159.309011 418.561975,169.223906 417.031459,175.583428 C411.851665,197.107797 412.055662,226.646328 417.529039,247.532802 C419.05092,253.341856 426.004083,265.27945 430.10237,269.119773 C431.788312,270.699939 435.352321,273.128473 438.023709,274.516515 C442.3465,276.764798 444.305517,277.036794 455.83296,276.996858 C467.64535,276.954764 469.260055,276.702196 474.181885,274.135505 C477.150093,272.58664 480.648262,270.172137 481.954274,268.771143 C485.669391,264.785109 489.011054,256.140606 489.158925,250.13619 L489.292764,244.661735 L479.197617,244.12206 C473.645449,243.825239 468.717143,243.825239 468.245468,244.12206 C467.774872,244.418881 466.840156,246.708179 466.167722,249.20903 C464.325274,256.067211 458.651139,258.946913 452.972686,255.908546 C448.848495,253.701279 447.492833,247.869558 446.905668,229.820692 L446.351962,212.820953 L468.362037,212.804762 C480.468011,212.795048 491.045626,212.36115 491.869169,211.839825 C493.83898,210.592098 492.820075,180.262404 490.543729,172.345382 C484.067638,149.831251 472.602798,141.699439 450.339076,143.832232 M281.643375,145.948834 C277.26014,147.097261 272.991317,148.601873 272.15806,149.293736 C271.033378,150.226293 270.722526,152.804856 270.953507,159.289582 C271.299978,169.043655 271.088425,168.877435 279.350838,165.85418 C286.675298,163.175237 297.437482,162.569723 302.21144,164.568676 C307.214221,166.663692 309.280094,169.83158 310.09932,176.662777 C311.025401,184.390912 310.1317,185.170202 303.312376,182.578686 C289.132974,177.190578 271.471594,182.658558 263.879456,194.788277 C254.345571,210.016805 254.0984,245.741083 263.417495,261.391637 C271.271914,274.582356 283.553822,280.097827 298.413213,277.104793 C302.47804,276.286647 307.373964,274.983873 309.294126,274.20998 C312.371348,272.970888 312.94772,273.028094 314.163067,274.69029 C315.36654,276.335218 317.192798,276.535976 328.481705,276.269377 L341.422014,275.962842 L341.422014,222.53509 L341.422014,169.107337 L338.625422,163.145015 C335.046302,155.51618 327.864317,148.642888 320.60354,145.899184 C312.764231,142.936373 293.048851,142.962277 281.643375,145.948834 M531.107806,146.20464 C524.645747,148.931074 516.575457,156.215598 513.640709,161.970684 C505.91797,177.116103 502.540688,201.060371 504.760908,224.935561 C507.221823,251.407663 514.265652,266.362037 527.805,273.86243 C533.280535,276.895399 534.144014,277.040032 546.498237,277.005493 C558.335453,276.972033 559.915619,276.725942 564.847162,274.14414 C574.220225,269.238501 579.531699,261.064594 580.306671,250.355298 L580.762157,244.046506 L569.05986,244.35412 L557.356483,244.661735 L556.233961,248.439455 C554.169167,255.391538 552.682904,257.074243 548.611602,257.074243 C544.267224,257.074243 540.558582,253.56636 539.118731,248.095142 C538.621151,246.206282 537.955193,232.519064 537.636786,217.678021 C536.764672,176.953121 539.059367,164.212491 547.25594,164.266459 C551.633777,164.295601 552.783284,165.978305 554.010503,174.147894 L555.198866,182.059519 L568.568756,182.363895 C575.922358,182.531195 582.395211,182.212787 582.952155,181.655843 C584.588447,180.01955 581.656936,165.366315 578.527905,159.545388 C575.032974,153.043392 568.832117,147.621825 562.370057,145.419954 C554.650557,142.789581 538.222872,143.201892 531.107806,146.20464 M617.456769,146.036262 C610.598588,148.672031 602.529379,156.298708 599.039845,163.442916 C592.495755,176.83979 589.650592,199.031196 591.354883,223.386696 C593.621515,255.795215 604.715059,273.213742 625.586422,277.135015 C634.505079,278.811243 645.967761,277.304473 653.038573,273.526753 C663.087308,268.158073 670.249865,256.246383 673.843016,238.924997 C676.105331,228.016021 676.097775,193.231856 673.831143,182.453481 C670.614685,167.162351 667.80514,160.940986 660.678202,153.321864 C653.881544,146.05569 647.26082,143.725376 633.614617,143.798772 C625.792578,143.840867 621.692133,144.408604 617.456769,146.036262 M450.489105,166.797531 C447.725973,169.560663 446.158759,178.670365 446.841986,187.995936 L447.198171,192.853005 L456.372634,192.853005 C467.130501,192.853005 466.790506,193.378647 465.562207,178.634746 C464.96209,171.424698 464.344702,169.247652 462.268036,167.006924 C458.94688,163.423487 453.952734,163.334981 450.489105,166.797531 M628.634502,166.936767 C625.343569,170.487823 624.768276,177.072929 624.758436,211.313103 C624.748848,244.699512 625.296077,250.785958 628.632344,254.385586 C633.527189,259.666838 638.606604,257.218876 640.967139,248.439455 C642.730794,241.878095 642.783682,177.464732 641.03082,171.014546 C639.110659,163.950209 633.203385,162.007382 628.634502,166.936767 M109.749564,193.768292 C107.761404,195.238365 102.421867,202.101942 97.1395349,209.97579 C83.5483781,230.239479 78.6913097,254.16216 84.1269089,274.06211 C87.0389913,284.719597 89.7978062,290.139006 97.8216832,300.960555 C104.618341,310.126382 115.24021,319.794107 127.515641,327.983125 C139.325873,335.862369 138.458076,337.744753 138.807785,303.48623 C138.974005,287.161083 138.863912,272.832732 138.562773,271.645448 C138.261635,270.458165 135.775895,267.058217 133.038667,264.090008 C121.755158,251.852355 114.446889,239.262833 111.424713,226.852484 C109.65674,219.592785 109.489441,206.77768 111.08148,200.457015 C112.628187,194.314443 112.164067,191.98305 109.749564,193.768292 M294.793078,202.57038 C290.596571,205.509446 289.613284,210.940727 289.613284,231.169878 C289.613284,255.426078 291.002406,259.23294 299.849826,259.23294 C305.268155,259.23294 309.388029,256.505426 310.155446,252.410378 C310.525662,250.441646 310.668136,238.985441 310.473854,226.950704 C310.127383,205.458716 310.075574,205.034532 307.572565,203.009674 C304.501818,200.525014 298.031124,200.302668 294.793078,202.57038 M270.940554,292.908614 C269.321532,294.527637 269.180137,312.472886 270.762462,315.430301 C271.700416,317.182084 273.06795,317.517761 279.26557,317.517761 C284.672027,317.517761 287.029324,317.062276 288.06226,315.816708 C290.048262,313.423792 287.746011,312.158796 281.363823,312.137209 C278.181904,312.127495 276.149491,311.592138 275.797623,310.673612 C274.824051,308.138222 276.562881,306.88294 281.53544,306.528914 C285.540902,306.243966 286.375239,305.812226 286.375239,304.025904 C286.375239,302.266566 285.476141,301.766828 281.51817,301.327533 C274.690211,300.568751 274.834844,297.760286 281.742675,296.965886 C287.495602,296.304245 288.532856,295.653398 287.621886,293.278831 C286.82101,291.19245 272.964333,290.884836 270.940554,292.908614 M302.241662,292.908614 C300.715463,294.434813 300.458578,313.995847 301.932968,316.32616 C302.457532,317.154021 303.665323,317.533951 304.61515,317.169132 C305.908209,316.672631 306.343187,315.020149 306.343187,310.599137 C306.343187,307.351377 306.777085,304.425263 307.307045,304.097141 C307.837005,303.770099 310.269857,306.689737 312.713502,310.587264 C315.840374,315.574934 317.711965,317.566332 319.035246,317.312685 C320.666142,316.999674 320.954328,315.350429 321.219848,304.822464 C321.511272,293.24753 321.424924,292.692745 319.330988,292.692745 C317.387081,292.692745 317.136672,293.38029 317.136672,298.718748 C317.136672,305.651403 315.809073,306.033493 312.109067,300.165075 C309.246634,295.626414 305.647007,291.613396 304.439216,291.613396 C303.942715,291.613396 302.954032,292.196244 302.241662,292.908614 M334.648023,292.88271 C333.019286,294.511447 334.90167,297.010139 337.755467,297.010139 C340.164573,297.010139 340.777643,299.254104 341.14786,309.422647 C341.392872,316.167496 341.654074,316.978087 343.580711,316.978087 C345.507348,316.978087 345.768551,316.167496 346.013563,309.422647 C346.408604,298.555766 346.826312,297.386832 350.582445,296.635605 C354.047154,295.942663 354.962442,293.356544 352.126993,292.268561 C349.087548,291.101785 335.968066,291.562667 334.648023,292.88271 M367.017686,292.526525 C365.993384,293.177372 365.711674,296.490972 365.938337,305.19268 L366.247031,316.978087 L374.628172,317.293257 C381.596446,317.555538 383.124804,317.310526 383.690382,315.835057 C384.643447,313.350396 382.235421,312.156637 376.231005,312.137209 C371.51749,312.122098 371.104099,311.908387 371.104099,309.482011 C371.104099,307.09881 371.601679,306.810624 376.231005,306.513803 C380.528971,306.23749 381.35791,305.835972 381.35791,304.025904 C381.35791,302.266566 380.458813,301.766828 376.500842,301.327533 C373.142989,300.954078 371.643773,300.28812 371.643773,299.168836 C371.643773,298.053869 373.154861,297.3728 376.500842,296.982076 C382.808555,296.244881 384.5884,295.174167 382.897061,293.136357 C381.502543,291.456891 369.435426,290.992771 367.017686,292.526525 M398.303682,292.908614 C397.474743,293.737554 397.008464,297.964283 397.008464,304.649768 C397.008464,312.929451 397.367887,315.393603 398.744057,316.535554 C400.219526,317.759535 400.706312,317.666711 401.982102,315.921405 C402.808883,314.791327 403.484555,312.554917 403.484555,310.951005 C403.484555,304.727481 409.694048,306.161935 411.56132,312.817198 C412.961236,317.809185 416.028744,318.979199 417.049808,314.910055 C417.429739,313.396808 417.237614,310.716786 416.623465,308.95421 C415.842017,306.712403 415.858207,304.815988 416.675274,302.648656 C418.436771,297.984791 417.037935,294.193039 413.044345,292.80068 C408.521875,291.223751 399.924864,291.287433 398.303682,292.908614 M430.148782,292.293386 C428.4283,294.012788 429.599393,295.923235 432.896803,296.774841 L436.404686,297.681494 L436.722014,306.78364 C437.062009,316.498856 437.968662,318.723393 440.676747,316.47619 C441.920157,315.444333 442.341103,312.931609 442.341103,306.536469 L442.341103,297.977235 L445.634195,296.828808 C447.781019,296.08082 448.809639,295.067311 448.590531,293.916726 C448.318535,292.490907 446.592657,292.093706 439.581209,291.843297 C434.810488,291.67276 430.56649,291.874599 430.148782,292.293386 M466.531462,292.439098 C465.884933,292.875155 464.023056,296.87522 462.39324,301.327533 C460.763424,305.779846 458.938245,310.728659 458.337048,312.326095 C456.337015,317.638648 460.175179,319.571761 463.289099,314.81939 C464.595111,312.826912 466.00582,312.121018 468.685842,312.121018 C471.365864,312.121018 472.776573,312.826912 474.082585,314.81939 C475.975762,317.707726 478.56404,318.374764 479.322822,316.168575 C479.946685,314.35527 472.733399,293.472034 471.131646,292.45205 C469.528813,291.433145 468.028519,291.428828 466.531462,292.439098 M493.202165,292.992804 C491.296035,294.898933 491.60257,314.771898 493.562667,316.399556 C496.59024,318.912279 497.387878,316.455682 497.387878,304.617387 C497.387878,295.678223 497.03709,292.788807 495.900536,292.35275 C495.08239,292.038659 493.868123,292.326846 493.202165,292.992804 M512.139335,292.333322 C511.205698,293.265879 511.197064,315.856644 512.129621,316.789201 C513.926736,318.586316 515.738962,314.71901 515.768105,309.021129 L515.800485,302.946556 L518.736313,306.357297 C520.352098,308.233205 522.654348,311.390299 523.854584,313.373063 C525.147644,315.511252 526.904823,316.978087 528.171978,316.978087 C530.151503,316.978087 530.330675,316.113529 530.616703,305.198077 C530.93511,292.986328 530.141789,290.143323 527.115296,292.654968 C526.03163,293.554065 525.450941,295.873585 525.450941,299.300516 C525.450941,302.196409 525.085041,304.565579 524.638191,304.565579 C524.191341,304.565579 522.004581,301.651338 519.777885,298.089487 C516.030386,292.093706 513.947244,290.524333 512.139335,292.333322 M545.59914,292.333322 C544.395666,293.536795 544.7702,316.243051 546.006054,317.007229 C547.714663,318.062832 550.275957,315.414111 550.275957,312.592694 C550.275957,308.269903 552.282466,308.627167 553.505368,313.167987 C555.066106,318.963009 557.862698,318.980278 560.62583,313.21224 C563.162299,307.919115 564.307488,307.72807 564.307488,312.597011 C564.307488,316.812947 565.820735,318.317558 568.132699,316.399556 C570.160795,314.715772 570.393934,294.893536 568.409012,292.908614 C564.811544,289.311146 560.752114,293.028422 559.45042,301.112743 C559.003569,303.886668 558.201613,305.58988 557.456863,305.344868 C555.647875,304.749068 553.548542,300.169392 553.530193,296.778079 C553.509685,292.989566 548.019039,289.912343 545.59914,292.333322 M583.951631,292.908614 C582.004487,294.855759 582.196611,314.713614 584.178295,316.357461 C585.108693,317.130275 588.569085,317.496174 593.08292,317.299733 C599.638883,317.013705 600.465664,316.736313 600.465664,314.81939 C600.465664,312.987735 599.566567,312.578662 594.529247,312.121018 C589.491928,311.663375 588.59283,311.254302 588.59283,309.422647 C588.59283,307.663309 589.491928,307.163571 593.449899,306.724276 C597.40787,306.284981 598.306967,305.785243 598.306967,304.025904 C598.306967,302.266566 597.40787,301.766828 593.449899,301.327533 C590.092045,300.954078 588.59283,300.28812 588.59283,299.168836 C588.59283,298.053869 590.103918,297.3728 593.449899,296.982076 C599.757612,296.244881 601.537457,295.174167 599.846118,293.136357 C598.256238,291.220513 585.817825,291.042421 583.951631,292.908614 M615.252739,292.908614 C613.411371,294.749983 613.488004,314.704979 615.343404,316.24413 C617.671559,318.177243 619.198837,316.117846 619.555022,310.565677 C619.74175,307.654674 620.417422,305.102015 621.056396,304.891542 C621.695371,304.682148 623.514073,306.888337 625.095319,309.795022 C628.470441,315.99588 630.580568,317.996992 632.832089,317.132434 C634.154291,316.62514 634.465143,314.223589 634.465143,304.524563 C634.465143,292.71649 634.429525,292.548112 632.036609,292.887027 C629.916768,293.188166 629.56598,293.960979 629.278873,298.969156 C628.889229,305.778766 627.64474,305.815464 624.078572,299.124583 C621.738545,294.733793 618.882588,291.613396 617.205281,291.613396 C616.843699,291.613396 615.965109,292.196244 615.252739,292.908614 M647.536054,293.088866 C646.113473,294.80395 647.653703,296.523353 651.195046,297.1742 C653.114127,297.527147 653.413107,298.647511 653.893417,307.274743 C654.383441,316.07899 654.632771,316.978087 656.591788,316.978087 C658.54325,316.978087 658.802294,316.07899 659.29016,307.619056 C659.586981,302.471642 660.072687,298.076535 660.369508,297.85311 C660.666329,297.629685 662.293987,296.851475 663.987485,296.122914 C666.534747,295.026296 666.838044,294.52332 665.743585,293.205435 C663.957263,291.053214 649.304027,290.959311 647.536054,293.088866 M403.678838,299.438673 C404.078197,302.246059 408.105246,303.314614 410.572637,301.26709 C412.823079,299.399817 410.545654,297.010139 406.515366,297.010139 C403.834264,297.010139 403.388493,297.391149 403.678838,299.438673 M467.242753,303.342677 C466.430004,304.86132 466.515272,305.735592 467.557923,306.60123 C469.241707,307.998986 470.404165,307.120397 470.404165,304.449009 C470.404165,301.620036 468.518543,300.959475 467.242753,303.342677 M248.568897,329.437007 C247.492787,331.177996 248.016271,367.557439 249.133397,368.674565 C249.677388,369.218556 254.879848,370.045337 260.693219,370.510536 C266.50767,370.976815 274.664307,371.837056 278.819799,372.420983 C282.975291,373.00599 297.856269,374.059434 311.8878,374.76317 C346.739964,376.510635 377.774473,374.984436 435.325337,368.693993 C443.636321,367.785181 452.379044,366.621644 454.753611,366.107874 C457.128178,365.593025 463.928074,364.338822 469.864491,363.318837 C475.800908,362.299932 483.815071,360.794241 487.673742,359.975015 C491.532413,359.15471 497.360895,357.970665 500.625924,357.343564 C503.890953,356.715383 510.205142,355.206454 514.657455,353.988948 C519.109768,352.771443 523.84487,351.539907 525.181103,351.250641 C526.517337,350.962455 527.609638,350.229577 527.609638,349.621904 C527.609638,348.919248 525.55132,348.777854 521.943058,349.234418 C509.300648,350.830775 472.797081,353.188072 450.975891,353.817332 C427.903737,354.482211 383.274833,352.526431 359.231265,349.797838 C328.454721,346.303987 290.105467,338.994638 261.067753,331.087331 C249.422662,327.917284 249.502534,327.926998 248.568897,329.437007" id="Shape"></path>
        </g>
    </g>
</svg>