<?xml version="1.0" encoding="UTF-8"?>
<svg width="800px" height="400px" viewBox="0 0 800 400" version="1.1" xmlns="http://www.w3.org/2000/svg" xmlns:xlink="http://www.w3.org/1999/xlink">
    <title>jaleco_2</title>
    <g id="Page-1" stroke="none" stroke-width="1" fill="none" fill-rule="evenodd">
        <g id="jaleco_2" fill="#000000">
            <line x1="0" y1="0" x2="800" y2="400" id="Path" fill-rule="nonzero"></line>
            <path d="M133.066132,62.1242485 L133.066132,200 L152.304609,200 L152.304609,128.657315 C152.304609,91.9121168 182.092478,62.1242485 218.837675,62.1242485 C255.582873,62.1242485 285.370741,91.9121168 285.370741,128.657315 L285.370741,200 L285.370741,200 L304.609218,200 L304.609218,62.1242485 L356.713427,62.1242485 L356.713427,280.160321 L408.817635,280.160321 L408.817635,337.875752 L304.609218,337.875752 L304.609218,248.096192 L285.370741,248.096192 L285.370741,337.875752 L233.266533,337.875752 L233.266533,248.096192 L213.627255,248.096192 L213.627255,200 L233.266533,200 L233.266533,134.268537 C233.266533,126.299699 226.806513,119.839679 218.837675,119.839679 C210.868837,119.839679 204.408818,126.299699 204.408818,134.268537 L204.408818,337.875752 L204.408818,337.875752 L152.304609,337.875752 L152.304609,248.096192 L133.066132,248.096192 L133.066132,271.342685 C133.066132,308.087883 103.278264,337.875752 66.5330661,337.875752 C29.7878683,337.875752 -2.18144294e-14,308.087883 0,271.342685 L0,200 L0,200 L66.5330661,200 L66.5330661,248.096192 L52.1042084,248.096192 L52.1042084,265.731463 C52.1042084,273.700301 58.5642281,280.160321 66.5330661,280.160321 C74.5019042,280.160321 80.9619238,273.700301 80.9619238,265.731463 L80.9619238,62.1242485 L80.9619238,62.1242485 L133.066132,62.1242485 Z M518.236473,62.1242485 L518.236473,119.839679 L480.52505,119.839679 C470.583925,119.839679 462.52505,127.898554 462.52505,137.839679 L462.52505,200 L462.52505,200 L526.653307,200 L526.653307,127.855711 C526.653307,91.5532269 556.082285,62.1242485 592.38477,62.1242485 C628.687254,62.1242485 658.116232,91.5532269 658.116232,127.855711 L658.116232,172.745491 L658.116232,172.745491 L606.012024,172.745491 L606.012024,133.466934 C606.012024,125.940809 599.910894,119.839679 592.38477,119.839679 C584.858645,119.839679 578.757515,125.940809 578.757515,133.466934 L578.757515,266.533066 C578.757515,274.059191 584.858645,280.160321 592.38477,280.160321 C599.910894,280.160321 606.012024,274.059191 606.012024,266.533066 L606.012024,227.254509 L606.012024,227.254509 L658.116232,227.254509 L658.116232,272.144289 C658.116232,308.446773 628.687254,337.875752 592.38477,337.875752 C556.082285,337.875752 526.653307,308.446773 526.653307,272.144289 L526.653307,248.096192 L526.653307,248.096192 L462.52505,248.096192 L462.52505,262.160321 C462.52505,272.101446 470.583925,280.160321 480.52505,280.160321 L518.236473,280.160321 L518.236473,280.160321 L518.236473,337.875752 L492.420842,337.875752 C447.133492,337.875752 410.420842,301.163101 410.420842,255.875752 L410.420842,248.096192 L410.420842,248.096192 L393.587174,248.096192 L393.587174,200 L410.420842,200 L410.259105,144.36262 C410.127456,99.0754614 446.733229,62.2562437 492.020388,62.124595 C492.099844,62.124364 492.179301,62.1242485 492.258759,62.1242485 L518.236473,62.1242485 L518.236473,62.1242485 Z M668.537074,272.144289 L668.537074,127.855711 C668.537074,91.5532269 697.966053,62.1242485 734.268537,62.1242485 C770.571022,62.1242485 800,91.5532269 800,127.855711 L800,272.144289 C800,308.446773 770.571022,337.875752 734.268537,337.875752 C697.966053,337.875752 668.537074,308.446773 668.537074,272.144289 Z M747.895792,266.533066 L747.895792,133.466934 C747.895792,125.940809 741.794662,119.839679 734.268537,119.839679 C726.742412,119.839679 720.641283,125.940809 720.641283,133.466934 L720.641283,266.533066 C720.641283,274.059191 726.742412,280.160321 734.268537,280.160321 C741.794662,280.160321 747.895792,274.059191 747.895792,266.533066 Z" id="Shape"></path>
        </g>
    </g>
</svg>