<?xml version="1.0" encoding="UTF-8"?>
<svg width="800px" height="400px" viewBox="0 0 800 400" version="1.1" xmlns="http://www.w3.org/2000/svg" xmlns:xlink="http://www.w3.org/1999/xlink">
    <title>kemko_2</title>
    <g id="Page-1" stroke="none" stroke-width="1" fill="none" fill-rule="evenodd">
        <g id="kemko_2" fill="#000000">
            <line x1="0" y1="0" x2="800" y2="400" id="Path" fill-rule="nonzero"></line>
            <path d="M99.3363188,38.5401347 C112.899612,33.5240846 119.572612,39.8231902 122.911765,61.0940767 L123.822207,67.2282918 C124.980374,74.6977058 126.186772,80.6137524 126.694128,81.1211081 C127.239322,81.6688032 133.763264,80.0115217 141.67338,77.3592578 L144.004649,76.5623875 C225.107085,48.3213606 344.599325,34.3517073 451.7128,40.5836045 C595.002548,48.9193155 708.035229,83.474527 765.227697,136.42371 C826.817054,193.44886 805.639027,257.394379 709.253082,305.433748 C662.54947,328.71125 607.22745,344.906113 535.177425,356.367577 L531.890875,356.885301 C523.029896,358.267729 515.488601,359.346722 507.881476,360.187596 L504.614621,360.533439 C485.869295,362.429483 465.542508,362.953286 423.282858,363.064249 L400.231076,363.089769 C300.910214,363.089769 266.470205,359.792788 201.36992,344.051213 C50.8471119,307.650022 -26.5523926,237.686553 8.24693808,169.475805 C19.9714823,146.489741 60.0435335,111.651453 88.8051284,99.2754077 L89.9199002,98.8046649 C95.8692774,96.3387866 98.2364109,93.7741634 97.3504502,90.7487309 L96.9352822,89.2677087 C93.3543691,75.963364 90.2729232,50.8826313 91.7494229,46.2312613 C92.717671,43.1893713 96.1298541,39.7278158 99.3363188,38.5401347 Z M341.515614,67.0696437 L340.489863,67.2348272 C339.331355,67.4031905 337.386312,67.6413879 334.840502,67.9299089 L327.107914,68.7682576 C323.519132,69.1444436 319.448663,69.5572977 315.107913,69.9846169 L301.486226,71.2877668 C282.628703,73.0404879 251.252527,77.5306356 231.758648,81.2692254 C222.490314,83.0457807 211.053132,85.6368291 199.246152,88.544881 L194.420894,89.7456974 L189.740302,90.9334834 C161.276765,98.2239882 133.449276,106.572121 131.025187,109.128987 C129.726609,110.496624 131.351952,125.1536 133.773986,140.087038 L134.152606,142.384916 L134.542075,144.676626 C136.907995,158.387328 139.766849,171.196375 141.445511,172.868788 C143.689003,175.104525 149.829377,174.359147 165.824558,169.765128 L171.733896,168.048582 L173.632057,167.510563 C185.300093,164.233513 196.148525,161.740792 198.978101,161.740792 C206.831059,161.740792 211.557097,168.033033 210.481876,177.059958 L210.357847,177.952885 C209.500129,183.281868 206.823209,185.414132 196.719685,189.077869 L194.037117,190.027997 C187.144545,192.419658 179.083457,194.870878 174.968034,195.817124 L174.431777,195.936682 C170.152833,196.855558 167.182259,199.063602 167.7857,200.873924 C169.624113,206.389165 191.694045,216.209265 208.747044,219.193978 L209.639802,219.344697 C228.711272,222.441445 235.050143,228.102817 229.243397,236.849964 C219.931141,250.872522 197.632884,248.640512 168.711601,230.845965 L165.30781,228.738317 C156.670234,223.453117 148.875987,219.341954 147.414089,219.341954 C145.715677,219.341954 145.185141,222.542235 146.014193,227.612936 L146.316616,229.371266 C147.11768,234.22112 148.311244,243.607448 149.219453,252.160252 L149.545332,255.317994 C151.169136,271.55055 150.743985,274.082259 145.507765,279.318478 C139.048206,285.778037 125.446103,287.130293 121.104072,281.743213 C119.631255,279.916813 117.880152,258.118298 117.136942,232.740804 L116.947157,226.005453 C115.986744,194.215472 114.002562,173.96943 109.819361,152.981475 L103.277884,120.852195 L93.279968,125.95127 C76.5235157,134.500928 50.4329321,155.459522 42.8762082,166.442144 C23.1080379,195.174152 25.6013454,219.857622 51.0199154,247.031656 C127.87358,329.195599 392.243714,364.280193 594.388136,319.142825 C683.727538,299.193622 749.431264,264.106286 767.553687,226.671016 C799.829922,159.997753 697.759628,96.4026265 521.869391,73.0819945 L516.51685,72.3876747 C503.272697,70.707778 469.19622,68.9773362 434.486458,67.8044727 L420.11993,67.3519641 C383.181273,66.273524 348.715241,65.9305988 341.515614,67.0696437 L341.515614,67.0696437 Z M355.351541,109.625455 C363.476952,109.625455 367.201978,114.166125 376.453983,133.267513 L377.466871,135.370263 C383.258989,147.461244 392.39326,161.484326 397.754946,166.683989 L404.704095,173.421178 L414.971773,164.439125 C421.925528,158.355513 430.133172,148.346555 433.365581,142.172575 L433.716118,141.477654 C441.773911,124.832701 449.785788,119.384786 462.177875,124.05831 C468.225807,126.341289 470.925677,129.672124 471.140084,136.653736 L471.154185,137.389102 L471.14743,138.415228 C471.056928,143.203736 470.125176,149.735924 467.328386,165.662388 L465.906862,173.677429 C463.919928,184.796761 463.454556,205.980496 464.510305,240.250412 L464.900462,252.344802 L465.082398,258.832037 C465.321665,268.05123 465.458362,276.575112 465.484556,283.885475 L465.488289,287.509372 C465.469292,298.73934 465.152495,306.503602 464.503439,308.550899 C461.088783,319.301587 443.529185,321.416364 435.301369,313.188548 C431.521585,309.408764 430.544629,296.165336 430.418148,257.542905 L430.367066,231.263214 C430.250346,208.944939 429.826018,198.996803 428.749969,194.248207 L428.649721,193.839419 L428.475534,193.984759 C426.616226,195.503034 424.061721,198.092362 419.632993,202.878918 L416.273702,206.515361 L414.326388,208.589525 C402.474896,221.083735 399.524225,221.453548 391.359424,214.071354 C390.283986,213.098912 389.264532,212.038126 388.342243,210.931346 L387.626722,210.03906 L388.529779,217.458422 L388.919441,220.866365 C391.036036,240.199346 389.972287,246.761023 383.911332,252.825273 C378.888261,257.848344 374.395673,258.470751 367.374174,255.433958 L366.003653,254.812393 L365.086797,254.365529 C355.971131,249.764076 354.634466,243.751381 352.659138,201.03664 L352.070606,188.023286 L351.803814,182.832756 C350.687304,162.581612 349.206544,153.641315 346.179339,146.923107 L345.800852,146.110957 C339.487554,133.000707 337.607241,118.777781 343.323284,113.061738 L343.73189,112.686493 C346.203695,110.596133 350.782898,109.625455 355.351541,109.625455 Z M355.351541,120.597105 C354.062066,120.597105 352.676372,120.748784 351.551403,121.001243 L350.995126,121.141266 L350.979244,121.252641 C350.868644,122.023759 350.771229,123.769335 351.033323,126.124246 L351.106537,126.725457 C351.647403,130.816638 353.076698,135.632009 355.153428,140.211199 L356.143402,142.328085 L356.581109,143.321815 C360.433477,152.349573 361.961607,163.804622 363.155176,190.190654 L363.785117,204.065779 L364.144204,211.280517 C365.436205,235.972818 366.521683,241.756219 369.533903,244.147948 L369.789794,244.340001 C370.223886,244.64808 370.696399,244.898898 371.213071,245.134205 L372.792412,245.853624 L373.447532,246.126611 C374.407323,246.490671 374.764494,246.39856 375.385474,245.826631 L376.15215,245.068199 C379.3254,241.893223 379.840487,237.14676 377.601869,218.469824 L376.761064,211.583508 L376.464831,208.88726 C376.009883,204.447707 375.935191,201.815633 376.207482,199.72179 C376.864283,194.671166 380.100923,191.912829 384.876251,191.912829 C389.952802,191.912829 394.43672,195.544104 394.730007,200.563738 L394.743507,201.035143 L394.746131,200.792367 C394.749434,200.755036 394.758465,200.772903 394.781374,200.828043 C394.936057,201.200349 395.202908,201.693202 395.559979,202.243946 C396.379909,203.508596 397.525543,204.855013 398.717883,205.933161 L400.058968,207.122765 L400.19749,207.238546 L400.554624,206.948628 L400.990341,206.564467 C402.160174,205.50233 403.959041,203.651714 406.94895,200.439974 L413.571571,193.286035 L415.491322,191.257665 C419.083497,187.508027 421.271388,185.528935 423.488936,184.023426 C428.997581,180.283566 434.725472,180.985758 437.7207,186.823353 L438.083692,187.585575 L438.367391,188.257004 L438.547344,188.723144 L438.813291,189.48359 L438.988119,190.040185 C440.952512,196.585431 441.337436,208.274326 441.37203,241.816231 L441.395977,257.777246 L441.460702,266.990838 C441.566814,277.595323 441.772701,285.828443 442.08672,292.086868 L442.130211,292.928087 C442.384327,297.698439 442.706091,301.262532 443.091064,303.683879 L443.260626,304.654155 L443.345156,305.06995 L443.530021,305.832535 L443.713507,305.970105 C446.797979,308.083382 452.928907,307.312976 453.950903,305.451863 L454.045689,305.23238 L454.084698,305.039781 L454.146003,304.470713 C454.323542,302.366259 454.498839,296.349626 454.514907,288.465655 L454.515717,286.61406 L454.502809,282.932787 C454.452268,274.114396 454.2596,263.749977 453.942144,252.999713 L453.493304,238.923688 L453.307531,232.156186 C453.124511,224.832003 453.019606,218.154592 452.994136,212.08293 L452.990147,207.563457 L453.006628,204.433253 L453.039443,201.423035 C453.217106,188.636492 453.856252,179.186029 454.975065,172.505988 L457.473477,158.277939 L458.588919,151.577615 C459.758512,144.281033 460.173944,140.475301 460.182364,137.709763 L460.188705,135.931226 C460.175844,135.189432 460.062681,135.000481 459.450884,134.749318 L458.304697,134.323571 C452.41213,132.101262 449.479516,134.09538 443.591457,146.25832 C439.943298,153.794209 430.453957,165.472091 422.196002,172.696704 L404.321669,188.334132 L390.116986,174.560452 C383.869155,168.501421 374.467184,154.174415 368.154966,141.312502 L365.357478,135.549265 L363.667466,132.177008 C361.288654,127.51929 359.584067,124.611855 358.166182,122.742929 L357.610908,122.034065 C356.600182,120.796963 356.139628,120.597105 355.351541,120.597105 Z M276.330976,157.343903 C314.970384,143.706142 350.732477,153.638228 331.658263,172.712442 C327.446521,176.924184 322.769299,178.135009 309.926738,178.19582 L308.867404,178.198267 C298.208446,178.198267 289.518899,179.69864 286.238376,182.106917 L285.17402,182.897628 C281.168686,185.926166 281.780594,186.346705 288.844142,189.043743 C293.421515,190.792258 302.923403,191.319799 314.091645,190.483641 L318.697161,190.097883 C339.778811,188.436963 348.115738,191.652028 348.115738,201.27439 L348.107704,202.024612 C347.873492,212.573448 342.352182,214.382793 309.911804,213.605044 L301.78553,213.388811 C297.346597,213.279273 293.404934,213.21991 289.935516,213.212185 L288.121934,213.212994 C275.741099,213.253357 269.938382,214.023541 269.39415,215.600621 C267.729069,220.444738 283.617152,224.688791 303.64936,224.824436 L307.630381,224.843091 C320.60387,224.986305 324.785896,226.184149 329.115584,230.513837 L330.03712,231.450254 C334.199893,235.765392 334.161569,237.169381 330.925906,242.039555 C325.404423,250.356066 313.900648,252.635426 292.294726,249.697767 C270.603774,246.749136 245.635042,235.536109 239.329086,225.908487 C232.554092,215.567706 231.514529,197.061276 237.052469,185.390183 C243.059447,172.731642 253.153365,165.523268 276.330976,157.343903 Z M498.02962,162.873615 C510.39467,158.32038 528.176971,160.010014 535.2482,166.411972 C546.329927,176.440746 537.703501,186.167673 517.748949,186.421909 L515.227305,186.437321 C502.185504,186.602025 498.680586,188.810203 495.349795,198.147469 C490.342443,212.181087 524.436831,220.010043 563.617024,213.974697 L570.440568,212.907867 C604.671205,207.744358 611.530105,210.409797 607.754348,225.447677 C604.564341,238.161077 590.161308,242.371447 549.719806,242.410296 C494.441891,242.461963 472.920999,233.473439 469.632247,208.96003 C466.763161,187.576285 477.276744,170.518112 498.02962,162.873615 Z M628.784258,162.999789 C647.702126,154.771051 674.788387,159.626006 690.551905,174.072926 L691.775187,175.204666 C699.584832,182.51298 700.579993,185.307765 700.579993,196.715669 C700.579993,212.26524 691.158088,227.301886 677.994851,232.754796 C668.743008,236.586645 641.739034,231.375111 627.492347,223.006485 C603.44249,208.885972 604.199534,173.694404 628.784258,162.999789 Z M643.264093,187.249878 C632.736795,194.949233 647.268746,207.530973 663.956625,205.169325 C671.296659,204.129761 674.154774,194.507624 668.482431,189.932446 C662.036587,184.734627 648.653916,183.311056 643.264093,187.249878 Z" id="Shape"></path>
        </g>
    </g>
</svg>