<?xml version="1.0" encoding="UTF-8"?>
<svg width="800px" height="400px" viewBox="0 0 800 400" version="1.1" xmlns="http://www.w3.org/2000/svg" xmlns:xlink="http://www.w3.org/1999/xlink">
    <title>ponycanyon_3</title>
    <g id="Page-1" stroke="none" stroke-width="1" fill="none" fill-rule="evenodd">
        <g id="Manufacturer" fill="#000000" fill-rule="nonzero">
            <g id="ponycanyon_3">
                <line x1="0" y1="0" x2="800" y2="400" id="Path"></line>
                <path d="M370.776486,15.5807365 C432.71944,15.5807365 483.345893,66.0086544 483.345893,128.150144 C483.345893,132.937276 483.046626,137.654894 482.465792,142.285298 C478.490733,141.605844 474.407806,141.253461 470.242576,141.253461 C430.330735,141.253461 397.975796,173.6084 397.975796,213.520241 C397.975796,221.523067 399.276636,229.222066 401.678402,236.417324 C391.859347,239.220076 381.492068,240.719551 370.776486,240.719551 L370.776486,168.452771 C393.012418,168.452771 411.277648,150.386076 411.277648,127.951609 C411.277648,105.715676 393.210953,87.4504463 370.776486,87.4504463 C348.540553,87.4504463 330.275323,104.921536 330.275323,140.459321 L330.275323,279.036827 L258.207079,279.036827 L258.207079,137.282759 C258.207079,60.2511362 308.634996,15.5807365 370.776486,15.5807365 Z M470.242576,148.20219 C506.375966,148.20219 535.560627,177.585386 535.560627,213.520241 L484.537104,213.520241 C484.537104,205.578837 478.18398,199.225713 470.242576,199.225713 C462.301171,199.225713 455.948048,205.578837 455.948048,213.520241 C455.948048,221.461645 462.301171,227.814769 470.242576,227.814769 L470.242576,278.838292 C434.109186,278.838292 404.924525,249.455096 404.924525,213.520241 C404.924525,177.386851 434.307721,148.20219 470.242576,148.20219 Z M23.2294618,384.419263 L0,384.419263 L0,326.628895 C0,306.798867 16.4305949,290.368272 36.2606232,290.368272 C56.0906516,290.368272 72.5212465,306.798867 72.5212465,326.628895 C72.5212465,346.458924 56.0906516,362.889518 36.2606232,362.889518 L36.2606232,339.660057 C43.0594901,339.660057 48.7252125,333.994334 48.7252125,327.195467 C48.7252125,320.396601 43.0594901,314.730878 36.2606232,314.730878 C29.4617564,314.730878 23.796034,320.396601 23.796034,327.195467 L23.796034,384.419263 L23.2294618,384.419263 Z M112.181303,362.889518 C92.3512748,362.889518 75.9206799,346.458924 75.9206799,326.628895 C75.9206799,306.798867 92.3512748,290.368272 112.181303,290.368272 C132.011331,290.368272 148.441926,306.798867 148.441926,326.628895 C148.441926,347.025496 132.011331,362.889518 112.181303,362.889518 Z M112.181303,314.164306 C105.382436,314.164306 99.7167139,319.830028 99.7167139,326.628895 C99.7167139,333.427762 105.382436,339.093484 112.181303,339.093484 C118.98017,339.093484 124.645892,333.427762 124.645892,326.628895 C124.645892,319.830028 118.98017,314.164306 112.181303,314.164306 Z M175.070822,363.456091 L151.84136,363.456091 L151.84136,327.195467 C151.84136,307.365439 168.271955,290.934844 188.101983,290.934844 C207.932011,290.934844 224.362606,307.365439 224.362606,327.195467 L224.362606,362.889518 L201.133144,362.889518 L201.133144,327.195467 C201.133144,320.396601 195.467422,314.730878 188.668555,314.730878 C181.869688,314.730878 176.203966,320.396601 176.203966,327.195467 L176.203966,363.456091 L175.070822,363.456091 Z M300.283286,384.419263 L277.053824,384.419263 L277.053824,360.623229 C273.087819,362.322946 268.555241,362.889518 264.589235,362.889518 C244.759207,362.889518 228.328612,346.458924 228.328612,326.628895 L228.328612,290.368272 L251.558074,290.368272 L251.558074,326.628895 C251.558074,333.427762 257.223796,339.093484 264.022663,339.093484 C270.82153,339.093484 276.487252,333.427762 276.487252,326.628895 L276.487252,290.368272 L300.283286,290.368272 L300.283286,384.419263 Z M383.002833,362.889518 C363.172805,362.889518 346.74221,346.458924 346.74221,326.628895 C346.74221,306.798867 363.172805,290.368272 383.002833,290.368272 C402.832861,290.368272 419.263456,306.798867 419.263456,326.628895 L396.033994,326.628895 C396.033994,319.830028 390.368272,314.164306 383.569405,314.164306 C376.770538,314.164306 371.104816,319.830028 371.104816,326.628895 C371.104816,333.427762 376.770538,339.093484 383.569405,339.093484 L383.569405,362.889518 L383.002833,362.889518 Z M495.184136,363.456091 L471.954674,363.456091 L471.954674,326.628895 C471.954674,319.830028 466.288952,314.164306 459.490085,314.164306 C452.691218,314.164306 447.025496,319.830028 447.025496,326.628895 C447.025496,333.427762 452.691218,339.093484 459.490085,339.093484 L459.490085,362.322946 C439.660057,362.322946 423.229462,345.892351 423.229462,326.062323 C423.229462,306.232295 439.660057,289.8017 459.490085,289.8017 C479.320113,289.8017 495.750708,306.232295 495.750708,326.062323 L495.750708,363.456091 L495.184136,363.456091 Z M522.379603,363.456091 L499.150142,363.456091 L499.150142,326.628895 C499.150142,306.798867 515.580737,290.368272 535.410765,290.368272 C555.240793,290.368272 571.671388,306.798867 571.671388,326.628895 L571.671388,362.889518 L548.441926,362.889518 L548.441926,326.628895 C548.441926,319.830028 542.776204,314.164306 535.977337,314.164306 C529.17847,314.164306 523.512748,319.830028 523.512748,326.628895 L523.512748,363.456091 L522.379603,363.456091 Z M647.025496,384.419263 L623.796034,384.419263 L623.796034,360.623229 C619.830028,362.322946 615.29745,362.889518 611.331445,362.889518 C591.501416,362.889518 575.070822,346.458924 575.070822,326.628895 L575.070822,290.368272 L598.300283,290.368272 L598.300283,326.628895 C598.300283,333.427762 603.966006,339.093484 610.764873,339.093484 C617.563739,339.093484 623.229462,333.427762 623.229462,326.628895 L623.229462,290.368272 L646.458924,290.368272 L646.458924,384.419263 L647.025496,384.419263 Z M687.252125,362.889518 C667.422096,362.889518 650.991501,346.458924 650.991501,326.628895 C650.991501,306.798867 667.422096,290.368272 687.252125,290.368272 C707.082153,290.368272 723.512748,306.798867 723.512748,326.628895 C722.946176,347.025496 707.082153,362.889518 687.252125,362.889518 Z M687.252125,314.164306 C680.453258,314.164306 674.787535,319.830028 674.787535,326.628895 C674.787535,333.427762 680.453258,339.093484 687.252125,339.093484 C694.050992,339.093484 699.716714,333.427762 699.716714,326.628895 C699.716714,319.830028 694.050992,314.164306 687.252125,314.164306 Z M798.866856,363.456091 L775.637394,363.456091 L775.637394,326.628895 C775.637394,319.830028 769.971671,314.164306 763.172805,314.164306 C756.373938,314.164306 750.708215,319.830028 750.708215,326.628895 L750.708215,363.456091 L727.478754,363.456091 L727.478754,326.628895 C727.478754,306.798867 743.909348,290.368272 763.739377,290.368272 C783.569405,290.368272 800,306.798867 800,326.628895 L800,363.456091 L798.866856,363.456091 Z" id="Combined-Shape"></path>
            </g>
        </g>
    </g>
</svg>