<?xml version="1.0" encoding="UTF-8"?>
<svg width="800px" height="400px" viewBox="0 0 800 400" version="1.1" xmlns="http://www.w3.org/2000/svg" xmlns:xlink="http://www.w3.org/1999/xlink">
    <title>ponycanyon_4</title>
    <g id="Page-1" stroke="none" stroke-width="1" fill="none" fill-rule="evenodd">
        <g id="Manufacturer" fill="#000000" fill-rule="nonzero">
            <g id="ponycanyon_4">
                <line x1="0" y1="0" x2="800" y2="400" id="Path"></line>
                <path d="M226.020167,148.711285 C226.020167,211.085825 175.439492,261.663301 113.057753,261.663301 C50.6768135,261.663301 0.0905392027,211.085825 0.0905392027,148.711285 C0.0905392027,86.3143479 50.6768135,35.7368726 113.058553,35.7368726 C175.439492,35.7368726 226.020167,86.3143479 226.020167,148.711285 Z M113.17374,105.693754 C89.3548357,105.693754 70.047421,125.000369 70.047421,148.806475 C70.047421,172.634978 89.3548357,191.941592 113.17374,191.941592 C137.005442,191.941592 156.306458,172.634978 156.306458,148.806475 C156.306458,125.000369 137.005442,105.693754 113.17374,105.693754 Z M513.022882,148.711285 C513.022882,211.085825 462.41741,261.663301 400.04287,261.663301 C337.654731,261.663301 287.080456,211.085825 287.080456,148.711285 C287.080456,86.3143479 337.653931,35.7368726 400.04287,35.7368726 C462.41741,35.7368726 513.022882,86.3143479 513.022882,148.711285 Z M400.162856,105.693754 C376.338353,105.693754 357.01814,125.000369 357.01814,148.806475 C357.01814,172.634978 376.337553,191.941592 400.162856,191.941592 C423.996159,191.941592 443.302773,172.634978 443.302773,148.806475 C443.302773,125.000369 423.996159,105.693754 400.162856,105.693754 Z M800,148.711285 C800,211.085825 749.414526,261.663301 687.038386,261.663301 C624.644648,261.663301 574.064773,211.085825 574.064773,148.711285 C574.064773,86.3143479 624.644648,35.7368726 687.038386,35.7368726 C749.413726,35.7368726 800,86.3143479 800,148.711285 Z M687.134375,105.693754 C663.328269,105.693754 644.022455,125.000369 644.022455,148.806475 C644.022455,172.634978 663.329069,191.941592 687.134375,191.941592 C710.971677,191.941592 730.279891,172.634978 730.279891,148.806475 C730.279891,125.000369 710.971677,105.693754 687.134375,105.693754 Z M13.7048224,327.525308 L13.7048224,308.235183 L26.2941667,308.235183 C34.6840474,308.235183 38.2718094,310.800359 38.3698511,317.003725 L38.370222,317.791411 C38.3410072,320.996588 37.8092986,327.525308 28.1322004,327.525308 L13.7048224,327.525308 Z M13.7048224,338.84974 L31.1472438,338.84974 C48.7935981,338.84974 52.0758639,323.860667 52.0758639,317.923757 C52.0758639,305.039941 44.3888219,296.887017 31.6869629,296.887017 L0,296.887017 L0,362.543762 L13.7048224,362.543762 L13.7048224,338.84974 Z M86.5405344,329.717587 C86.5405344,311.521923 96.7487899,306.847955 104.146428,306.756295 L104.369725,306.754911 C111.762295,306.754911 122.191005,311.338129 122.191005,329.717587 C122.191005,348.09265 111.762295,352.648618 104.369725,352.648618 C96.9560588,352.648618 86.5405344,348.09265 86.5405344,329.717587 Z M72.8154945,329.717587 C72.8154945,360.514101 95.6867519,364.263127 104.369725,364.263127 L104.906995,364.258442 C113.950533,364.102347 135.895827,359.898171 135.895827,329.717587 C135.895827,299.20119 113.500384,295.221606 104.634219,295.145066 L104.369725,295.143918 C95.6867519,295.143918 72.8154945,298.892944 72.8154945,329.717587 Z M201.802214,296.890533 L214.601644,296.890533 L214.601644,362.548157 L200.883636,362.548157 L174.105129,318.103077 L173.916139,318.103077 L173.916139,362.548157 L161.109677,362.548157 L161.109677,296.890533 L175.564304,296.890533 L201.620256,340.231562 L201.802214,340.231562 L201.802214,296.890533 Z M272.310277,362.544641 L258.598422,362.544641 L258.598422,337.758875 L235.930219,296.887017 L250.560651,296.887017 L265.731681,324.071633 L280.270695,296.887017 L294.276142,296.887017 L272.310277,337.938195 L272.310277,362.544641 Z M405.457404,318.363268 L391.730606,318.363268 L391.454995,317.388832 C390.262972,313.329161 387.671188,307.038835 377.205657,307.038835 C370.627061,307.038835 360.920028,311.411967 360.920028,329.976898 C360.920028,341.770728 365.584115,352.38579 377.205657,352.38579 C384.794249,352.38579 390.089473,348.096166 391.730606,340.056636 L405.456525,340.056636 C402.686729,354.289751 393.378771,364.263127 376.918217,364.263127 C359.460852,364.263127 346.934797,352.462265 346.934797,329.791425 C346.934797,306.860394 360.205383,295.143918 377.094021,295.143918 C396.760367,295.143918 404.727817,308.683484 405.457404,318.363268 Z M455.232869,311.702923 L455.371755,311.702923 L463.551049,337.681521 L446.808328,337.681521 L455.232869,311.702923 Z M443.176212,349.005074 L467.401162,349.005074 L471.565966,362.543762 L486.484717,362.543762 L463.347116,296.887017 L447.538795,296.887017 L424.148915,362.543762 L438.590357,362.543762 L443.176212,349.005074 Z M671.945044,329.717587 C671.945044,311.521923 682.173976,306.847955 689.565204,306.756295 L689.788299,306.754911 C697.172957,306.754911 707.58145,311.338129 707.58145,329.717587 C707.58145,348.09265 697.172957,352.648618 689.788299,352.648618 C682.381664,352.648618 671.945044,348.09265 671.945044,329.717587 Z M658.226157,329.717587 C658.226157,360.514101 681.098293,364.263127 689.78742,364.263127 L690.325465,364.258442 C699.381447,364.102347 721.327586,359.898171 721.327586,329.717587 C721.327586,299.20119 698.932143,295.221606 690.052331,295.145066 L689.78742,295.143918 C681.097414,295.143918 658.226157,298.892944 658.226157,329.717587 Z M549.543953,296.890533 L562.350415,296.890533 L562.350415,362.548157 L548.625375,362.548157 L521.8539,318.103077 L521.66491,318.103077 L521.66491,362.548157 L508.843505,362.548157 L508.843505,296.890533 L523.305164,296.890533 L549.361116,340.231562 L549.543953,340.231562 L549.543953,296.890533 Z M787.214634,296.890533 L800,296.890533 L800,362.548157 L786.307484,362.548157 L759.502606,318.103077 L759.333834,318.103077 L759.333834,362.548157 L746.527371,362.548157 L746.527371,296.890533 L760.982878,296.890533 L787.044983,340.231562 L787.214634,340.231562 L787.214634,296.890533 Z M620.058169,362.544641 L606.340161,362.544641 L606.340161,337.758875 L583.678111,296.887017 L598.309422,296.887017 L613.479573,324.071633 L628.025619,296.887017 L641.988874,296.887017 L620.058169,337.938195 L620.058169,362.544641 Z" id="Shape"></path>
            </g>
        </g>
    </g>
</svg>