<?xml version="1.0" encoding="UTF-8"?>
<svg width="800px" height="400px" viewBox="0 0 800 400" version="1.1" xmlns="http://www.w3.org/2000/svg" xmlns:xlink="http://www.w3.org/1999/xlink">
    <title>ponycanyon_2</title>
    <g id="Page-1" stroke="none" stroke-width="1" fill="none" fill-rule="evenodd">
        <g id="Manufacturer" fill="#000000" fill-rule="nonzero">
            <g id="ponycanyon_2">
                <line x1="0" y1="0" x2="800" y2="400" id="Path"></line>
                <path d="M604.491637,36.8607016 C495.71496,36.8607016 407.526581,88.4401557 407.526581,152.077345 C407.526581,215.714534 495.71496,267.293988 604.491637,267.293988 C704.105138,267.293988 786.453574,224.039222 799.619333,167.878646 L607.007408,167.878646 L607.007408,145.886428 L799.930271,145.886428 C787.86445,89.0155018 704.968981,36.8607016 604.491637,36.8607016 Z M188.739334,36.8324345 C84.5002968,36.8324345 0,86.5357954 0,147.865549 C0,150.218537 0.15062784,152.559134 0.395739206,154.875786 L0.395739206,258.361589 L169.461181,258.361589 C175.806116,258.740702 182.224391,258.92693 188.739334,258.92693 C292.978371,258.92693 377.478669,209.195303 377.478669,147.865549 C377.478669,86.5357954 292.978371,36.8324345 188.739334,36.8324345 Z M107.591737,291.486271 C95.4682862,291.722011 86.0930031,295.181124 79.4561144,301.91069 C72.8192033,308.640436 69.4687674,317.209842 69.3802841,327.605812 C69.4687562,337.726324 72.8192033,346.143108 79.4561144,352.812764 C86.0930031,359.482531 95.4682862,362.919888 107.591737,363.167565 C119.715099,362.919888 129.090393,359.482531 135.72736,352.812764 C142.364193,346.143108 145.749482,337.726324 145.838055,327.605812 C145.749471,317.209842 142.364193,308.640436 135.72736,301.91069 C129.090393,295.181124 119.715099,291.722011 107.591737,291.486271 L107.591737,291.486271 Z M107.591737,304.141983 C115.190662,304.371698 120.624966,306.79089 123.908306,311.39378 C127.191524,315.996782 128.798948,321.385434 128.719603,327.605812 C128.798926,333.550733 127.191524,338.821571 123.908306,343.36455 C120.624966,347.907529 115.190662,350.270168 107.591737,350.511709 C99.9927231,350.270168 94.5584185,347.907529 91.2751678,343.36455 C87.9918612,338.821571 86.3844365,333.550733 86.4638717,327.605812 C86.3844365,321.385434 87.9918612,315.996782 91.2751678,311.39378 C94.5584297,306.79089 99.9927231,304.371698 107.591737,304.141983 Z M375.838926,291.486271 C363.715475,291.722011 354.340192,295.181124 347.703303,301.91069 C341.066392,308.640436 337.715956,317.209842 337.627473,327.605812 C337.715945,337.726324 341.066392,346.143108 347.703303,352.812764 C354.340192,359.482531 363.715475,362.919888 375.838926,363.167565 C385.493594,363.067156 393.36792,360.531477 399.442169,355.567112 C405.516283,350.602747 409.044779,343.802113 410.040966,335.171345 L393.480345,335.171345 C392.826801,339.752368 391.051826,343.439745 388.111218,346.223436 C385.170509,349.007126 381.066722,350.435844 375.838926,350.511709 C368.239912,350.270168 362.805608,347.907529 359.522357,343.36455 C356.23905,338.821571 354.631626,333.550733 354.711061,327.605812 C354.631626,321.385434 356.23905,315.996782 359.522357,311.39378 C362.805608,306.79089 368.239912,304.371698 375.838926,304.141983 C380.195411,304.215616 383.976471,305.340193 387.135013,307.558689 C390.293443,309.777408 392.199241,312.62391 392.852785,316.100539 L409.378541,316.100539 C408.144116,308.154788 404.446619,302.086073 398.256777,297.866412 C392.066811,293.646976 384.588244,291.524315 375.838926,291.486271 Z M684.494029,291.486271 C672.370579,291.722011 662.995295,295.181124 656.358407,301.91069 C649.721496,308.640436 646.37106,317.209842 646.282576,327.605812 C646.371049,337.726324 649.721496,346.143108 656.358407,352.812764 C662.995295,359.482531 672.370579,362.919888 684.494029,363.167565 C696.617391,362.919888 706.02755,359.482531 712.664517,352.812764 C719.30135,346.143108 722.651774,337.726324 722.740347,327.605812 C722.651763,317.209842 719.30135,308.640436 712.664517,301.91069 C706.02755,295.181124 696.617391,291.722011 684.494029,291.486271 L684.494029,291.486271 Z M684.494029,304.141983 C692.092954,304.371698 697.562123,306.79089 700.845463,311.39378 C704.128681,315.996782 705.701241,321.385434 705.621895,327.605812 C705.701219,333.550733 704.128681,338.821571 700.845463,343.36455 C697.562123,347.907529 692.092954,350.270168 684.494029,350.511709 C676.895015,350.270168 671.460711,347.907529 668.17746,343.36455 C664.894154,338.821571 663.286729,333.550733 663.366164,327.605812 C663.286729,321.385434 664.894154,315.996782 668.17746,311.39378 C671.460711,306.79089 676.895015,304.371698 684.494029,304.141983 Z M0,293.124845 L0,361.5638 L17.0835876,361.5638 L17.0835876,337.019217 L35.0736512,337.019217 C44.676128,336.799543 51.5717612,334.537983 55.783143,330.220591 C59.994391,325.90331 62.0448455,320.833738 61.9541532,315.054605 C62.0448566,309.275471 59.994391,304.24083 55.783143,299.923472 C51.5717612,295.606191 44.676128,293.344631 35.0736512,293.124845 L0,293.124845 L0,293.124845 Z M17.0835876,304.804452 L30.401813,304.804452 C34.506437,304.686649 38.0029579,305.296348 40.8960167,306.652213 C43.7889752,308.00819 45.2990137,310.811181 45.4283971,315.054605 C45.2990137,319.29814 43.7889752,322.10102 40.8960167,323.456885 C38.0029579,324.812861 34.506437,325.422571 30.401813,325.304757 L17.0835876,325.304757 L17.0835876,304.804452 Z M157.413057,293.124845 L157.413057,361.5638 L173.415846,361.5638 L173.415846,315.716974 L173.625033,315.716974 L205.979256,361.5638 L223.097708,361.5638 L223.097708,293.124845 L207.094919,293.124845 L207.094919,339.006436 L206.850867,339.006436 L174.392051,293.124845 L157.413057,293.124845 L157.413057,293.124845 Z M229.547634,293.124845 L258.171359,334.892429 L258.171359,361.5638 L275.289811,361.5638 L275.289811,335.275994 L304.157587,293.124845 L285.086725,293.124845 L266.992068,320.144816 L248.827682,293.124845 L229.547634,293.124845 L229.547634,293.124845 Z M442.848427,293.124845 L413.35309,361.5638 L430.645864,361.5638 L436.747145,346.293165 L465.824109,346.293165 L471.716203,361.5638 L489.462216,361.5638 L460.385252,293.124845 L442.848427,293.124845 Z M451.355356,309.964393 L451.564543,309.964393 L461.361457,335.101616 L441.209797,335.101616 L451.355356,309.964393 L451.355356,309.964393 Z M496.295651,293.124845 L496.295651,361.5638 L512.29844,361.5638 L512.29844,315.716974 L512.507627,315.716974 L544.86185,361.5638 L561.945437,361.5638 L561.945437,293.124845 L545.942648,293.124845 L545.942648,339.006436 L545.733461,339.006436 L513.274645,293.124845 L496.295651,293.124845 L496.295651,293.124845 Z M568.395363,293.124845 L597.053953,334.892429 L597.053953,361.5638 L614.13754,361.5638 L614.13754,335.275994 L643.005317,293.124845 L623.969319,293.124845 L605.874662,320.144816 L587.675412,293.124845 L568.395363,293.124845 L568.395363,293.124845 Z M734.315349,293.124845 L734.315349,361.5638 L750.318138,361.5638 L750.318138,315.716974 L750.562189,315.716974 L782.881548,361.5638 L800,361.5638 L800,293.124845 L783.997211,293.124845 L783.997211,339.006436 L783.75316,339.006436 L751.329208,293.124845 L734.315349,293.124845 L734.315349,293.124845 Z" id="Combined-Shape"></path>
            </g>
        </g>
    </g>
</svg>