<?xml version="1.0" encoding="UTF-8"?>
<svg width="800px" height="400px" viewBox="0 0 800 400" version="1.1" xmlns="http://www.w3.org/2000/svg" xmlns:xlink="http://www.w3.org/1999/xlink">
    <title>psygnosis_2</title>
    <g id="Page-1" stroke="none" stroke-width="1" fill="none" fill-rule="evenodd">
        <g id="psygnosis_2" fill="#000000">
            <line x1="0" y1="0" x2="800" y2="400" id="Path" fill-rule="nonzero"></line>
            <path d="M364.668578,143.288527 C360.445787,144.804483 359.215873,147.556112 360.34852,152.955064 C361.451092,158.212595 363.899401,163.903988 372.704614,181.685911 C384.786185,206.084541 383.770002,201.908464 384.031727,228.222997 L384.253137,250.443361 L385.847802,251.697592 C389.563141,254.620078 398.937878,253.845782 400.631729,250.476636 C401.229409,249.288956 401.43866,243.391512 401.445699,227.579243 C401.454658,207.753436 401.546806,206.007112 402.781839,202.302651 C403.511341,200.114146 408.441236,189.396871 413.736522,178.486342 C424.450598,156.413158 426.416413,151.718111 426.40241,148.2357 C426.389536,145.181392 425.935838,144.521641 423.006313,143.297486 C419.964163,142.026618 416.518227,142.82587 414.112152,145.360568 C413.188756,146.333877 408.172473,155.719492 402.965495,166.217276 L393.497971,185.303343 L390.427665,179.015551 C388.739572,175.556817 384.368322,166.490519 380.715054,158.867867 C376.335485,149.729259 373.559539,144.682899 372.566393,144.052584 C370.210231,142.558386 367.447083,142.290902 364.668578,143.288527 M554.53034,143.021044 C553.267151,143.404992 551.925252,144.481327 551.173353,145.71508 C549.972875,147.684095 549.918482,149.169335 549.882647,181.045997 L549.845532,214.321511 L532.638892,180.001018 C520.892636,156.571217 514.885765,145.251143 513.710244,144.325828 C510.152324,141.527485 502.24171,143.097833 500.222142,147.003867 C498.426544,150.475399 498.031078,162.302284 498.218572,206.859477 L498.402228,250.589901 L499.858671,251.769262 C501.768814,253.315294 507.351421,253.986563 510.732725,253.075966 C515.586471,251.769262 515.357382,253.612853 515.379779,215.618616 L515.399616,181.685911 L529.975571,210.482028 C548.036496,246.164898 549.849372,249.284477 553.988973,251.808297 C557.038802,253.668526 562.314251,253.49383 564.342138,251.465303 L565.913126,249.894955 L565.913126,198.714655 C565.913126,167.858015 565.671238,146.897641 565.303928,145.931371 C564.968613,145.05021 564.116248,144.019309 563.409783,143.64112 C561.492602,142.615338 556.916579,142.295381 554.53034,143.021044 M720.803603,142.982009 C719.589047,143.26805 718.220912,144.01355 717.764013,144.638745 C717.098503,145.548703 716.932765,156.134796 716.932765,197.734947 C716.932765,256.9756 716.402277,251.879967 722.691989,253.050369 C726.923738,253.837463 731.181724,253.301216 733.113624,251.737266 L734.530393,250.589901 L734.70125,198.197605 C734.838191,156.136075 734.708929,145.581978 734.044058,144.672661 C732.563938,142.648614 725.858282,141.792409 720.803603,142.982009 M246.352369,143.597606 C243.424764,144.5306 241.608049,146.692868 240.873428,150.118967 C240.431887,152.178209 240.197039,170.143147 240.197039,201.874549 C240.197039,248.464108 240.246312,250.52591 241.391118,251.670715 C243.809352,254.088949 253.407418,254.141422 256.3587,251.753264 C257.782508,250.601419 257.796586,250.421604 257.980881,231.01622 L258.167736,211.441899 L266.724023,211.441899 C283.629903,211.441899 291.306948,208.388231 297.101367,199.357768 C300.799429,193.595985 301.759299,189.70403 302.104853,179.081462 C302.376816,170.71587 302.239874,168.732777 301.071392,164.11388 C298.402312,153.557223 292.55542,147.265591 282.751302,144.400698 C278.972611,143.296206 249.347805,142.642215 246.352369,143.597606 M326.239199,143.86381 C318.320266,145.787391 310.767365,151.673957 307.398859,158.54727 C303.524181,166.454684 303.38788,177.265387 307.058425,185.565708 C309.153502,190.302349 315.543041,196.865304 324.025737,202.992478 C334.677741,210.686161 338.606171,214.018832 339.670988,216.263649 C341.645122,220.423088 340.532952,227.040436 337.273231,230.531165 C334.214444,233.807524 332.90582,234.080767 318.524399,234.451277 C303.746231,234.831386 303.374441,234.929292 302.331382,238.707343 C301.169299,242.914776 303.558097,247.55607 308.068209,249.8572 C314.13715,252.953742 327.174753,254.0096 335.396364,252.071301 C349.779065,248.680398 358.820406,236.57899 358.820406,220.720648 C358.820406,207.268382 354.399242,200.292682 338.284295,188.322456 C324.072451,177.765159 322.74591,176.183293 322.74591,169.784155 C322.74591,166.749045 322.96796,166.257591 325.467463,163.758088 C327.085165,162.140386 329.226956,160.747934 330.746751,160.32623 C334.400658,159.311967 340.511835,159.443149 346.022132,160.653866 C348.637459,161.228509 351.456279,161.527988 352.286247,161.320016 C354.557941,160.749853 356.164124,157.444059 356.505838,152.635107 C356.758604,149.076547 356.617823,148.246579 355.613799,147.372457 C351.666811,143.9374 334.417936,141.876878 326.239199,143.86381 M458.92659,143.680795 C446.119356,144.917108 438.499904,147.460125 433.939879,152.01951 C425.266488,160.693541 420.05887,182.298948 420.851723,206.322589 C421.270227,219.014638 422.598688,225.15461 426.741489,233.543879 C431.579877,243.340318 438.109556,249.226885 446.567296,251.41539 C455.14406,253.63525 487.675994,254.394188 490.043035,252.429653 C490.924196,251.698232 491.043639,247.975853 491.043639,221.090518 C491.043639,198.213602 490.851246,190.388737 490.275323,189.812815 C489.219466,188.756957 482.518929,188.845905 479.874166,189.951036 C475.9099,191.607773 475.866386,191.844541 475.488197,213.578571 C475.299422,224.432148 474.953869,233.502925 474.7203,233.735853 C474.486732,233.968782 469.785286,234.143478 464.271789,234.125561 C455.377628,234.095485 453.829037,233.926548 450.529002,232.624963 C443.956448,230.032033 441.085155,225.720294 438.764828,214.961424 C437.483721,209.019826 437.991812,184.712703 439.548082,177.526471 C441.671316,167.718514 445.319464,163.061222 452.328439,161.208032 C456.746404,160.040189 470.536545,159.002889 481.902052,158.982412 C491.258871,158.966414 491.043639,159.160948 491.043639,150.737763 C491.043639,146.358834 490.802612,144.741772 490.037915,143.976435 C489.18683,143.125989 487.142306,142.984568 476.759706,143.057519 C470.009256,143.104872 461.984738,143.385794 458.92659,143.680795 M602.455399,143.984114 C589.428036,147.487001 579.474817,159.903887 575.82475,177.206515 C574.212167,184.849004 573.807741,205.977676 575.111246,214.47573 C578.970565,239.637138 592.376118,253.364567 612.946785,253.219307 C620.424817,253.166194 625.575482,251.778221 631.504283,248.217101 C636.489211,245.222945 638.336002,243.422227 641.889443,238.088546 C647.859838,229.127195 650.804721,218.240982 651.435676,202.803064 C652.594559,174.465764 644.420941,153.846464 629.157719,146.602001 C626.576947,145.377206 622.939038,144.058984 621.074329,143.673116 C616.39016,142.703646 606.609079,142.866824 602.455399,143.984114 M678.191748,143.86381 C673.199781,145.076446 669.181123,147.294387 665.058159,151.110833 C658.159249,157.498452 655.096622,167.085639 656.67081,177.366493 C658.177807,187.205167 662.991878,193.6299 675.759436,202.840819 C691.00986,213.842855 692.616044,215.602618 692.616044,221.317688 C692.616044,224.867289 691.246628,228.394493 688.928221,230.814647 C686.170833,233.692979 682.209767,234.471114 669.942621,234.542785 C663.93575,234.57798 658.30067,234.80067 657.420789,235.037438 C654.940483,235.706148 653.3343,239.502756 654.188584,242.676728 C655.532403,247.667415 658.977059,250.291701 666.519722,252.069382 C671.676147,253.285218 682.196328,253.286497 687.348914,252.071301 C701.736734,248.679119 710.708964,236.662819 710.758536,220.720648 C710.799832,207.047611 706.499612,200.440502 689.096518,187.438735 C675.793992,177.500235 674.698459,176.160256 674.698459,169.828309 C674.698459,167.204663 675.036974,166.306864 676.77242,164.330171 C680.963855,159.556414 687.437222,158.463442 698.245365,160.70314 C704.007148,161.897219 704.720012,161.74236 706.903397,158.817954 C707.732086,157.708343 708.238257,155.73037 708.447509,152.788047 C708.711154,149.073348 708.578052,148.252978 707.566348,147.372457 C703.61936,143.9374 686.370486,141.876878 678.191748,143.86381 M767.015613,143.957877 C759.945846,145.861621 753.98633,149.957708 750.12829,155.565912 C744.557841,163.662101 743.904489,176.702263 748.591857,186.234417 C751.372922,191.889975 757.018881,197.420109 767.681763,204.930777 C777.547953,211.88024 780.595222,214.840481 781.546774,218.397761 C782.997458,223.82359 780.067293,230.290558 774.910229,233.044107 C773.325802,233.890073 770.149911,234.189552 759.167071,234.528706 C751.600091,234.762275 745.344295,234.990084 745.265585,235.036158 C745.186236,235.081592 744.650628,236.030584 744.074066,237.144674 C742.807037,239.595543 743.121235,243.712748 744.767733,246.225689 C747.544958,250.464478 755.644346,253.006215 766.433931,253.025511 C773.595206,253.037571 778.722195,251.923481 784.180019,249.168653 C798.71182,241.832682 804.484482,220.529314 796.168803,204.926937 C793.44213,199.811467 789.056801,195.429338 779.964267,188.73456 C768.953912,180.628133 766.305309,178.309726 764.896219,175.547218 C761.729286,169.340695 764.980048,162.178141 771.825205,160.276957 C775.311455,159.308768 781.50454,159.462987 786.922689,160.653866 C793.261675,162.046958 794.755873,161.608618 796.40941,157.870881 C797.832578,154.653395 798.297796,148.576135 797.204823,147.479322 C795.882121,146.152781 789.267333,144.267595 783.696244,143.628962 C776.15806,142.765718 771.070106,142.865545 767.015613,143.957877 M608.356044,161.522869 C600.417914,163.194324 595.799017,169.356693 593.778169,180.969847 C592.637843,187.525123 592.411953,208.575725 593.423657,214.074504 C595.483539,225.272354 600.208022,232.157186 607.233635,234.199791 C615.200561,236.515639 623.301869,233.813283 627.084399,227.577324 C629.472557,223.639295 631.5286,217.29327 632.519826,210.801985 C633.546887,204.074572 632.938969,184.159817 631.552916,179.126256 C630.081755,173.786816 627.241178,167.954002 625.039874,165.753979 C621.359091,162.075115 614.270126,160.276957 608.356044,161.522869 M258.114623,177.282024 L258.114623,193.035421 L266.273523,192.753859 C278.503555,192.331515 281.521388,190.317067 283.046942,181.557288 C284.212225,174.863151 282.894003,168.305315 279.680996,164.814585 C277.20389,162.123108 274.75302,161.528628 266.134022,161.528628 L258.114623,161.528628 L258.114623,177.282024 M99.7335061,87.2337093 C96.2304265,87.6752583 85.2926664,89.8811423 80.6487246,91.0829559 C75.5516019,92.4020196 68.5989496,94.9135913 65.2140507,96.6588499 C64.2392928,97.1613504 62.918368,97.7918023 62.2786104,98.0602679 C61.6388529,98.3282681 60.8013521,98.7353865 60.4174976,98.9647687 C60.0336431,99.1936856 59.1961423,99.6156929 58.5563848,99.9023043 C55.628389,101.213458 52.1578789,103.355599 47.3017702,106.847977 C41.3564453,111.123884 34.361918,116.956612 34.361918,117.63871 C34.361918,118.171918 62.6810761,118.26637 63.512063,117.735953 C64.1164594,117.349772 65.2187034,113.697803 66.0371278,109.367924 C66.3907392,107.498436 66.8127466,106.459935 67.2189344,106.459935 C67.5664973,106.459935 69.124714,108.082826 70.6820001,110.065841 C75.7707479,116.546236 76.6919987,117.570779 77.9850069,118.188668 C79.1551816,118.747933 79.272897,119.047572 79.4022443,121.80388 C79.5571819,125.099446 79.2296261,127.081065 78.5684657,126.848892 C78.3344308,126.766537 77.3475757,125.61637 76.3756096,124.292653 C75.4036434,122.968471 73.3540929,120.396879 71.8214665,118.578106 C68.6599011,114.826103 68.4519217,114.857276 67.4013235,119.23601 L66.7829688,121.814116 L63.0184028,121.816908 C58.576857,121.82063 35.2487383,123.048499 31.6004919,123.470972 C28.1081136,123.875299 27.0738002,124.349417 26.2618897,125.919266 C25.6063127,127.187149 25.6272502,127.332316 26.588515,128.202386 C27.1533628,128.713727 29.185698,130.03279 31.1049706,131.133639 C33.0242432,132.234487 37.8733727,135.086642 41.8812791,137.471193 L49.1680011,141.806655 L57.23546,142.113739 C61.6723529,142.282635 65.7737803,142.594837 66.3497948,142.807469 C67.107733,143.087101 67.3966707,143.568199 67.3966707,144.549936 L67.3966707,145.905756 L71.4134175,145.654971 C76.4309777,145.341839 76.4751791,145.946701 71.6130218,148.381502 C69.7477215,149.315315 68.0392199,150.367309 67.8163517,150.719059 C67.1403024,151.786873 67.3473512,153.334854 68.2109076,153.664271 C69.3136169,154.085347 94.717807,171.214565 98.0673448,173.795463 C99.509242,174.906082 99.574381,175.05404 98.7652622,175.370895 C98.2743937,175.56352 97.1916913,175.735673 96.3602391,175.753819 L94.8480849,175.786388 L94.8480849,184.316334 C94.8480849,189.008199 94.7057098,192.989119 94.5312305,193.163133 C94.3572164,193.337613 93.6346394,192.92398 92.9250901,192.244674 L91.6358042,191.009361 L86.379091,194.31935 C76.2820886,200.677376 76.563582,200.447064 75.8642688,202.927927 C75.2426571,205.132881 75.1016778,205.260367 68.6087204,209.495329 C59.8233373,215.224765 60.1862543,215.05773 56.7632026,214.937688 C53.8552138,214.835792 53.7416859,214.879063 49.7840295,217.581399 C47.5716316,219.092157 44.5524413,221.007242 43.075183,221.836833 C38.6475956,224.323745 38.509408,225.329677 42.0390084,229.376667 C43.446475,230.990252 44.5980386,232.470767 44.5980386,232.666649 C44.5980386,232.862066 43.1580025,232.888121 41.3978551,232.724809 C38.3265536,232.439128 38.1069423,232.488447 35.9308361,233.954539 C34.6843558,234.794366 33.1898822,235.908242 32.6101456,236.429819 L31.5562904,237.378521 L29.747754,235.612325 C27.6754049,233.58883 28.1015997,233.650247 13.7324129,233.297101 L5.4332455,233.092844 L5.73753745,234.305824 C6.90538575,238.958606 13.413232,252.092014 14.5508372,252.092014 C15.1091711,252.092014 18.8611746,249.613477 22.2646846,246.997218 C23.1603452,246.308606 25.2540971,245.262661 26.9174667,244.673153 C28.5808363,244.083646 33.3545907,241.942901 37.5253446,239.916614 C47.9089583,234.871602 46.9821241,235.107033 48.8432369,237.045847 C49.7072586,237.945696 51.6200173,239.732364 53.0940186,241.016532 L55.7735558,243.351298 L70.8253058,238.418418 C85.1968191,233.707942 88.33419,232.360496 88.33419,230.898592 C88.33419,229.548354 90.5005254,228.814611 95.8247039,228.362826 C98.7424635,228.114832 102.416766,227.800769 103.990802,227.663978 L106.852263,227.415984 L107.596708,229.600931 C108.517493,232.303732 108.51982,232.550329 107.620902,232.550329 C107.224951,232.550329 106.392103,233.099358 105.770491,233.769824 L104.64033,234.989318 L103.815392,233.539976 C102.883905,231.903593 102.239029,231.739815 101.123757,232.855087 C100.04943,233.929414 99.500867,235.557422 99.500867,237.671181 C99.500867,239.997107 100.196923,240.401899 101.121431,238.6143 C101.522966,237.838216 102.002668,237.206834 102.188314,237.211487 C102.572634,237.221257 104.98231,240.065038 106.22088,241.972213 C106.678249,242.675714 107.307305,243.251728 107.618576,243.251728 C107.929847,243.251728 109.073966,242.051776 110.160856,240.584754 C111.706975,238.497515 112.081524,237.641869 111.882385,236.647569 C111.435718,234.414234 103.243565,214.248611 102.050592,212.446123 C101.391758,211.450428 99.1142208,209.507892 96.7115242,207.89198 C94.4070012,206.342604 92.5216939,204.870929 92.5216939,204.62154 C92.5216939,204.372151 93.8751882,204.168359 95.5297175,204.168359 C98.0612962,204.168359 98.6163731,204.020866 99.0355888,203.237802 C99.3752419,202.602698 99.4315406,198.979111 99.2119292,191.838486 C99.0351235,186.080669 99.0002277,181.369727 99.1342278,181.369727 C99.4822559,181.369727 104.496094,189.051005 108.222972,195.294573 C109.968696,198.218846 111.611128,200.68296 111.872615,200.770432 C112.133636,200.857439 112.838532,200.034827 113.438741,198.942354 C114.038485,197.850346 116.262514,193.911766 118.381391,190.190936 C120.499803,186.469641 122.375805,182.855825 122.550284,182.160234 C122.822007,181.077997 123.56366,180.074392 123.756285,180.528038 C123.790251,180.607136 123.951237,185.617251 124.114549,191.661681 C124.463973,204.584318 124.40814,204.421005 128.33788,204.010164 C131.243077,203.706803 132.565398,204.174407 131.711612,205.203138 C131.419417,205.554888 129.284256,206.842778 126.966705,208.065064 C124.184806,209.531621 122.536326,210.709705 122.116645,211.531386 C121.445714,212.843936 115.070472,230.114133 113.705811,234.31606 L112.905532,236.779243 L115.120256,239.201481 C116.33882,240.533573 117.488988,241.800991 117.67696,242.018276 C118.22785,242.656172 119.941469,241.881949 121.905874,240.106913 C122.996486,239.121919 123.90564,238.624071 124.155029,238.875321 C125.891447,240.623837 131.053709,247.709093 130.781986,247.97151 C130.594944,248.152038 127.929365,248.387934 124.858529,248.496344 L119.275191,248.692692 L119.131885,251.170763 L118.988114,253.6493 L121.807235,256.290219 C123.357542,257.742818 124.62589,259.097243 124.62589,259.300104 C124.62589,259.502965 123.683702,260.771779 122.532138,262.11969 C119.823289,265.290096 119.827941,265.612534 122.62752,269.277065 C122.712666,269.388731 123.651132,269.598107 124.712897,269.742343 C125.775127,269.887044 126.713593,270.215996 126.799205,270.474226 C126.884816,270.73199 125.498287,272.752693 123.718132,274.96416 L120.481657,278.986025 L120.762685,287.782575 L121.043713,296.57959 L115.607868,302.323915 C112.618455,305.483154 110.252516,308.297622 110.35069,308.57865 C110.804801,309.879102 130.225979,308.180837 137.321937,306.220154 C138.423715,305.915862 145.098131,297.82607 145.098131,296.795479 C145.098131,295.94402 143.842811,294.659387 141.724864,293.344511 C141.021364,292.907149 140.445349,292.300426 140.445349,291.995669 C140.445349,291.690446 142.194795,288.816423 144.333214,285.608795 C146.471633,282.400702 148.891545,278.586351 149.710899,277.131891 C150.84897,275.111653 151.522227,274.416993 152.563055,274.188076 C154.22689,273.822833 154.935043,272.8397 158.314359,266.201576 C161.64482,259.659764 162.562349,258.456089 164.008433,258.732465 C165.34006,258.986972 165.396824,258.401187 164.383913,254.852044 C163.078808,250.27836 162.812203,249.826575 161.473133,249.916373 C160.347625,249.991748 160.221069,249.81029 159.858152,247.598822 L159.464526,245.199383 L156.352746,244.051076 C154.640987,243.419228 152.595159,242.762721 151.806512,242.591964 C150.46372,242.301165 150.325997,242.4012 149.634129,244.162743 C148.344377,247.446211 147.045786,247.005127 144.358339,242.369561 C143.153734,240.291628 142.272031,240.242309 141.408475,242.204852 C141.042301,243.03677 140.510023,243.717006 140.225738,243.717006 C139.941918,243.717006 136.428602,240.566608 132.41837,236.71643 L125.127925,229.715855 L123.665556,231.71469 C122.86109,232.814142 122.097568,233.975477 121.968686,234.295123 C121.616936,235.16845 120.534234,234.994901 119.989858,233.977803 C119.725115,233.483212 119.09001,232.945816 118.577739,232.782969 C117.432689,232.419586 117.325675,230.424473 118.371155,228.931861 C119.075121,227.926395 119.335677,227.897547 127.700449,227.897547 L136.305304,227.897547 L136.981818,229.516716 C137.354041,230.407723 138.172465,231.47321 138.801056,231.884516 C139.429182,232.296288 143.981929,234.082025 148.918065,235.852409 C153.854667,237.623258 160.368097,240.037586 163.392405,241.217997 L168.891994,243.36386 L170.371578,242.037817 C171.185815,241.308261 173.153942,239.462968 174.746124,237.937321 L177.64062,235.163332 L178.424613,236.997459 C178.855926,238.006182 179.987948,241.448775 180.940373,244.647563 L182.672138,250.46354 L188.342018,250.594284 L194.011899,250.725492 L194.635371,252.222757 C194.978281,253.046765 196.045164,256.599629 197.006429,260.118063 C198.0775,264.040824 198.98107,266.515639 199.34166,266.515639 C199.882779,266.515639 201.576857,264.231588 206.177063,257.298012 C207.14298,255.842156 208.663975,253.185418 209.557309,251.394097 C210.994553,248.511233 211.126692,247.950573 210.708872,246.511933 C210.449247,245.617668 210.23708,244.321403 210.23708,243.631395 C210.23708,242.940922 210.080282,242.280693 209.888122,242.164373 C209.695962,242.048053 206.503223,242.345366 202.792629,242.825068 C193.943503,243.969187 190.834514,243.989194 190.528826,242.90277 C187.745997,233.021191 187.420768,232.550329 183.379826,232.550329 C182.029589,232.550329 180.930137,232.393531 180.93665,232.201371 C180.94363,232.009211 182.251992,230.13414 183.844639,228.034339 C185.437287,225.934073 188.170796,221.694458 189.918846,218.612455 C191.666896,215.530453 193.266058,213.008645 193.472641,213.008645 C194.236628,213.008645 194.452517,216.463801 194.149156,223.828224 C193.77228,232.964427 194.126822,234.798554 196.557436,236.300937 L198.213361,237.324549 L203.178345,236.044569 C205.909062,235.340603 209.340954,234.266275 210.80472,233.657226 C213.894632,232.372128 215.017349,232.280468 215.820419,233.248247 C217.105982,234.797158 217.585219,233.962449 219.295582,227.19963 C219.87811,224.896503 220.500652,222.19975 220.678854,221.206847 C220.987333,219.491366 220.949646,219.414595 219.924173,219.660262 C217.789941,220.170672 207.668279,223.808682 207.236036,224.219988 C206.584181,224.84067 204.300596,224.730864 203.876262,224.059002 C203.674331,223.739356 202.846136,221.90709 202.036087,219.987818 C201.226037,218.068545 199.513813,214.144854 198.231507,211.268504 L195.899532,206.038777 L197.611291,200.799745 C198.553014,197.918277 199.528237,195.583045 199.778557,195.610962 C200.028876,195.638413 202.5009,200.243272 205.271631,205.844291 C208.042363,211.44531 210.398997,216.117168 210.507872,216.226509 C211.325366,217.043537 221.514028,213.065409 222.169605,211.673296 C222.747481,210.445892 222.901023,188.688553 222.337571,187.883622 C221.937431,187.31226 220.85566,188.220483 216.378287,192.885362 C212.615582,196.805796 210.586504,198.58502 209.879281,198.58502 C208.838919,198.58502 202.974553,195.09776 201.047836,193.33296 C200.449023,192.784397 200.00096,191.82732 200.00096,191.095902 C200.00096,190.042047 198.804264,188.729032 193.182773,183.61609 C186.282697,177.340417 183.317014,174.169546 183.848827,173.637268 C184.009348,173.476747 186.041683,173.237129 188.364817,173.104525 L192.588147,172.863976 L191.758091,174.338908 L190.928035,175.814305 L193.254426,177.878279 C196.624901,180.869087 196.946408,180.895608 199.487293,178.393342 C200.683058,177.215258 201.811357,176.251666 201.994212,176.251666 C202.177531,176.251666 202.327351,177.253876 202.327351,178.478488 C202.327351,180.542462 202.469261,180.814184 204.263839,182.193734 C206.710737,184.074389 207.67014,184.236306 215.355141,184.066944 L221.636396,183.928757 L221.515424,181.637727 C221.177632,175.236429 216.592315,159.7757 212.368985,150.79583 C209.029218,143.694754 202.648393,133.386981 199.51707,130.033256 C196.407151,126.70326 195.472407,126.730246 193.713655,130.200756 C192.356904,132.878432 190.981542,133.439557 185.765308,133.44328 C183.949327,133.444676 180.56024,133.581002 178.233849,133.746176 L174.004005,134.046746 L169.481036,138.292409 L164.957601,142.538073 L166.264102,146.483167 C168.098229,152.023234 169.616897,155.070341 171.418454,156.825836 C172.454629,157.83549 173.97795,160.610409 176.000979,165.171996 C177.667606,168.930514 179.160218,172.520135 179.317948,173.149191 L179.605024,174.292845 L173.822081,174.458019 C170.050071,174.565963 167.791145,174.828846 167.326798,175.214561 C166.912235,175.558867 166.52838,176.847222 166.407873,178.297495 C166.131498,181.632144 164.154066,185.525126 161.200945,188.550365 C158.227817,191.595611 155.871183,192.832786 151.672512,193.552571 C141.271218,195.336448 132.207599,189.382283 129.269832,178.835822 C128.476998,175.988319 128.098261,175.568638 125.905405,175.107547 C124.415119,174.79395 124.196438,173.524671 125.440127,172.408468 C125.887725,172.006468 131.664619,168.910972 138.277618,165.529795 L150.300872,159.381609 L151.244922,157.231559 C151.764172,156.048821 153.955167,150.265879 156.114058,144.380109 C158.272484,138.49434 160.250381,133.469335 160.509076,133.213432 C160.824069,132.902161 161.179542,133.018015 161.582008,133.562391 C161.91282,134.009989 162.435328,134.376628 162.743342,134.376628 C163.574794,134.376628 183.075069,127.036399 186.042614,125.606134 C188.695165,124.328014 189.49079,123.104333 188.042845,122.529714 C187.582684,122.34686 181.029241,122.024422 173.480102,121.812255 L159.754395,121.427005 L158.823838,122.512033 C158.312032,123.10852 157.325643,124.556466 156.631447,125.729898 C155.937718,126.902864 155.196064,127.862733 154.983432,127.862733 C154.7708,127.862733 153.811396,126.519475 152.851062,124.877973 C149.967733,119.949281 149.659254,119.918107 145.023687,124.094445 C143.575276,125.399085 142.161761,126.466898 141.883059,126.466898 C141.58342,126.466898 141.375906,125.496328 141.375906,124.094445 C141.375906,122.023957 141.565739,121.54472 142.870379,120.326156 C145.052534,118.287773 151.209561,113.340004 151.341234,113.518671 C151.403582,113.602886 152.232707,115.084797 153.184667,116.812375 C154.13616,118.539953 155.109522,119.953003 155.34821,119.953003 C155.586433,119.953003 155.907009,119.45376 156.060086,118.84378 L156.338787,117.734557 L168.980396,117.432126 C183.490097,117.085494 186.042614,116.869605 186.042614,115.991625 C186.042614,114.325929 175.994931,106.640929 167.578513,101.86857 C155.604113,95.0796957 139.398473,89.4647183 126.477697,87.6282652 C121.991485,86.990834 103.791663,86.7219032 99.7335061,87.2337093 M21.7984759,131.35325 C20.950739,132.375001 21.4634756,134.23053 24.4021727,140.775134 L26.9974946,146.55575 L25.9687644,150.353351 C25.4029861,152.441985 24.5901451,156.126058 24.1625544,158.539456 C23.7344985,160.953319 23.164998,163.001474 22.897463,163.090342 C22.6294628,163.179675 21.4001977,161.351132 20.1662799,159.027067 C18.9318968,156.703003 17.0228604,153.432562 15.9243385,151.759887 C14.8253514,150.086746 13.7994129,148.317759 13.64401,147.828751 C12.789294,145.136186 10.8253546,148.315898 7.00914279,158.571095 C4.24399441,166.000192 2.97843768,170.380786 3.33065328,171.299245 C3.49536177,171.728232 4.63296699,172.075794 6.52804512,172.275864 C8.14581745,172.447086 10.5727086,172.776969 11.9215501,173.009608 C14.1828022,173.399046 16.2816722,173.016587 17.1466244,172.057649 C18.4363756,170.628314 21.9236357,168.280985 22.2572402,168.618312 C22.4866223,168.850021 22.7392684,170.08673 22.8183657,171.366245 C22.9444561,173.39858 23.0803173,173.672629 23.8931584,173.534442 C24.4049644,173.447435 25.1512706,173.083587 25.5518752,172.725788 C25.9524797,172.368454 26.9993557,171.83385 27.8782662,171.538398 C28.7571767,171.242481 30.4717269,170.297966 31.6874989,169.438598 C32.9037361,168.579694 34.1865081,167.876659 34.5382585,167.876659 C34.8900088,167.876659 35.6744678,169.0245 36.2816559,170.427779 L37.3862264,172.978899 L42.5270853,172.986809 L47.6684095,172.994719 L53.4974148,167.062422 C60.8702133,159.559345 61.9212768,158.166768 61.7286516,156.159092 C61.5960473,154.778147 61.1410052,154.333806 57.3931893,151.927387 C43.6079266,143.075934 23.355762,130.671152 22.6704072,130.659502 C22.5098863,130.656728 22.1176567,130.96893 21.7984759,131.35325 M108.341153,136.493644 C108.341153,136.634158 108.680806,137.406054 109.095834,138.208659 C110.22646,140.395001 109.748154,144.789089 108.050354,147.81805 L106.712679,150.203997 L108.466778,153.573541 C110.314398,157.122683 111.472941,158.867942 111.761878,158.537129 C112.836206,157.306934 117.181439,149.813163 117.181439,149.190621 C117.181439,148.737905 116.560758,147.660321 115.801889,146.796299 C113.278685,143.922275 112.840858,141.332537 114.38977,138.442694 C114.901576,137.487478 115.320326,136.601123 115.320326,136.472241 C115.320326,136.343359 113.750012,136.237741 111.830739,136.237741 C109.911467,136.237741 108.341153,136.352664 108.341153,136.493644 M17.4760413,137.528422 C16.6143461,138.481777 13.8906075,144.128394 13.8901418,144.961707 C13.8896769,145.281818 14.2563161,145.543305 14.7039138,145.54377 C15.1515114,145.54377 16.5985266,145.954145 17.9185209,146.456181 C20.0159951,147.253202 20.3910093,147.282515 20.8860653,146.685563 C21.614691,145.808048 21.1228919,141.836899 19.9601617,139.20575 C18.9151468,136.840276 18.407063,136.497366 17.4760413,137.528422 M186.597225,139.826431 C185.003647,140.131189 185.471252,140.935655 188.950602,143.877143 C191.571514,146.092798 192.09123,146.768848 192.09123,147.963217 C192.09123,148.985898 192.622113,149.969962 193.952343,151.413255 C194.975955,152.523874 195.813456,153.87318 195.813456,154.411973 C195.813456,154.950765 195.384004,157.073364 194.85917,159.128963 C193.766697,163.407661 193.498697,162.714862 198.107743,167.5277 C199.51707,168.99891 200.969204,170.20305 201.334912,170.20305 C203.492873,170.20305 198.548826,144.776992 195.567324,140.541564 C194.903837,139.599376 194.472059,139.501202 191.250472,139.557966 C189.28188,139.592862 187.187663,139.713834 186.597225,139.826431 M154.589807,162.649258 C153.26609,163.533287 152.951562,165.058469 153.747188,166.734866 C154.789876,168.93191 155.880488,169.471632 157.919803,168.798375 C160.411368,167.976228 161.236306,165.480476 159.727874,163.327634 C159.173728,162.53573 158.546533,162.295181 157.052524,162.300299 C155.979593,162.304487 154.8713,162.461286 154.589807,162.649258 M82.0343231,164.649954 C81.5304268,165.465122 82.2399761,168.156756 83.1840256,169.011007 C84.5137907,170.214216 86.6698899,169.813147 86.8429734,168.32984 C86.9523138,167.391373 86.5512439,166.852581 84.8520479,165.65449 C82.4595874,163.968322 82.4563304,163.966926 82.0343231,164.649954 M58.3930721,166.368692 C57.8296202,167.280172 56.695272,172.640177 56.695272,174.390554 C56.695272,177.057528 57.9277939,181.667039 59.2496493,183.944576 C60.8129841,186.638537 64.6729321,190.075082 67.7605183,191.522097 C70.0934232,192.615501 70.9937365,192.768577 75.0737611,192.764472 C79.2189247,192.760202 80.0168768,192.617827 82.387004,191.457889 C85.8254099,189.775908 89.8240109,185.418578 91.1784357,181.879206 C91.7488668,180.387524 92.1987908,178.083932 92.2313603,176.484305 L92.2890548,173.692636 L90.4577198,173.805234 C88.3686206,173.933185 87.8861271,174.458949 87.875891,176.615514 C87.8535576,181.396713 82.1934483,187.087531 76.8273947,187.722635 C74.0087393,188.056705 70.3386248,187.064267 67.3347887,185.155695 C65.6197732,184.065549 64.8357795,183.0987 63.4962435,180.42149 C61.51695,176.465229 61.3610818,174.243526 62.7504025,169.81082 C63.2594169,168.187464 63.5581255,166.669262 63.4148198,166.437553 C63.1002918,165.928539 58.7024821,165.868518 58.3930721,166.368692 M160.754743,174.426845 C160.290861,178.861877 159.526874,180.7979 157.233983,183.348555 C154.524668,186.361697 152.256437,187.395079 148.321579,187.408107 C143.954477,187.422531 141.147919,186.323544 138.3395,183.497909 C135.749762,180.891886 134.396733,177.668904 134.396733,174.104407 L134.396733,172.064163 L132.003341,172.064163 L129.610416,172.064163 L129.911916,175.309478 C130.951347,186.494301 139.110931,193.722863 149.687636,192.829064 C156.05869,192.290271 161.00925,188.856518 163.904211,182.968888 C165.085087,180.566656 165.267011,179.66076 165.300046,176.019027 L165.337733,171.831523 L163.196523,171.692405 L161.054847,171.553287 L160.754743,174.426845 M22.7299628,178.235147 C22.7299628,179.332739 22.9491089,181.977845 23.2166439,184.113472 C23.4846441,186.248634 23.6111998,188.087879 23.4986024,188.200941 C23.3855398,188.313539 21.6244618,187.047517 19.5842169,185.386939 L15.8754843,182.368214 L9.64820078,181.988081 C1.81198522,181.509775 2.13535357,181.503727 1.92690893,182.129526 C1.71753374,182.758117 10.3251806,192.025993 11.9662168,192.939335 C12.9009607,193.459516 14.0850938,193.481849 18.4852298,193.063564 C21.7742814,192.750432 24.0290196,192.718793 24.2919018,192.981675 C24.8632634,193.553037 26.968182,201.480912 26.636904,201.81219 C26.4945288,201.95503 23.6205053,202.176968 20.25003,202.30585 L14.122316,202.539885 L13.981802,204.982596 C13.8994478,206.409604 13.6216767,207.425306 13.3136625,207.425306 C13.0237942,207.425306 11.8308208,206.621771 10.6625073,205.639103 C7.89968528,203.315504 6.8551357,202.785552 3.49070899,202.000628 C0.399400581,201.279446 -0.182197178,201.560009 0.0434627523,203.663997 C0.224455975,205.350165 13.2964472,214.404479 15.5497896,214.404479 C16.2919083,214.404479 20.2798078,211.467643 24.5910757,207.745883 C27.8647731,204.920248 28.2583985,204.802533 28.8427879,206.478465 C29.1168368,207.264785 30.1651086,209.612579 31.1729012,211.69563 L33.0047015,215.483925 L31.4730056,217.078898 C30.6308521,217.956413 29.1317257,219.321074 28.142079,220.111582 L26.3419176,221.548826 L26.6820359,219.076338 L27.0221543,216.603384 L22.4335806,216.911398 C19.9094464,217.08076 14.3009828,217.425065 9.96970802,217.676781 C5.63889847,217.928496 2.00647151,218.223018 1.89759641,218.331427 C1.78918659,218.439837 2.09952715,220.374929 2.58667343,222.631529 L3.47302842,226.734352 L15.861526,226.858116 L28.2500235,226.98188 L30.724373,222.472869 C32.0853118,219.992471 33.4257783,217.889413 33.7035494,217.799149 C33.9813204,217.708885 34.5894391,218.479851 35.0551826,219.511838 C36.3663365,222.419827 36.7743855,222.571508 39.3371379,221.102624 C41.9743348,219.591401 45.2819975,217.504163 50.4447245,214.093674 C52.5091639,212.730408 55.2310414,211.268504 56.4933412,210.845101 C57.7561063,210.422163 61.261047,208.589898 64.283029,206.773451 C67.3045456,204.95654 70.5949931,202.987483 71.594876,202.39751 C73.6583848,201.179877 74.2236979,199.502084 73.7142182,196.106949 C73.4215582,194.155107 73.3489748,194.083454 71.0788825,193.501856 C65.483912,192.067868 60.1941641,188.251657 58.0431829,184.097653 C57.4648421,182.980985 56.6422302,180.811393 56.2146396,179.275975 L55.4371597,176.484305 L39.0835613,176.361937 L22.7299628,176.239569 L22.7299628,178.235147 M91.8321516,231.736093 C91.7246723,232.056204 91.5743875,232.835545 91.4976166,233.468789 C91.3882762,234.373755 90.6643033,234.972568 88.1103912,236.270229 C86.1887922,237.246382 84.6222005,238.391897 84.2746377,239.073995 C83.8842693,239.840774 83.723283,241.944762 83.7949358,245.348737 C83.8963665,250.183908 83.8316928,250.591027 82.6331362,252.635924 C79.8586822,257.370595 77.0967908,259.420146 77.8803193,256.163198 C78.0803889,255.331281 78.2888335,253.290106 78.3432711,251.626736 C78.3977086,249.963366 78.8988133,246.850655 79.4571471,244.70991 C80.0150157,242.569165 80.3537382,240.699677 80.2099673,240.555441 C79.9261476,240.271621 76.8757836,241.45715 70.6536182,244.269757 C64.8990573,246.870662 63.5246255,247.608593 63.3357225,248.200427 C63.2426669,248.491226 64.2234733,249.379442 65.5146204,250.173672 C66.8057674,250.967902 67.8619489,251.917535 67.8619489,252.283709 C67.8619489,252.935098 58.275822,262.22019 54.6075686,265.121665 C53.5872135,265.928923 51.6186214,267.661619 50.2330229,268.972307 C47.734479,271.33499 47.7098192,271.38524 47.3436453,274.867848 C47.140784,276.799683 46.963513,280.713138 46.9495546,283.563897 L46.9244296,288.748027 L51.6935312,291.765356 C57.2117308,295.256339 58.2586067,295.828166 59.133795,295.828166 C59.4850801,295.828166 60.493338,294.336484 61.3745749,292.513524 L62.9765278,289.198882 L62.8304304,282.498876 C62.6954997,276.304161 62.3363049,272.809457 61.5946515,270.468642 C61.3829499,269.800503 62.1804367,268.153418 64.4105152,264.652665 C67.9564004,259.087007 69.7118951,255.586719 69.718409,254.069447 C69.723527,252.901598 70.2274233,252.770855 71.7312025,253.547404 C74.6154621,255.03769 74.6345385,254.844135 70.8634586,262.373732 C68.9567485,266.180638 67.3966707,269.794454 67.3966707,270.403969 C67.3966707,272.211109 68.8055331,279.742567 69.2214918,280.158526 C69.9431383,280.880173 71.6320982,277.26403 72.8120438,272.470269 C74.0506144,267.438751 75.620463,263.258691 76.270922,263.258691 C76.4826235,263.258691 76.8585683,263.620678 77.1060963,264.063157 C77.5294995,264.819234 77.6146454,264.815047 78.5210074,263.994761 C79.0514245,263.514594 80.0052449,262.235079 80.6408149,261.150981 C81.9696494,258.88368 82.7522474,258.452367 84.4021239,259.080028 C85.735146,259.586715 85.6411598,259.919855 83.1277269,263.603462 C79.8195988,268.451196 78.1818196,272.924381 76.7138668,281.11886 C75.294303,289.044409 74.9620944,293.23424 75.7167756,293.700448 C75.9429008,293.840032 76.6231376,293.567379 77.2289298,293.094191 C77.8351873,292.621003 78.8015701,292.086398 79.3775846,291.90587 C79.953599,291.725342 80.4244605,291.396856 80.4244605,291.175384 C80.4244605,290.953911 80.8232039,290.646362 81.3103502,290.49189 C82.085969,290.245292 82.2376497,289.546445 82.5298444,284.866676 L82.8639142,279.522491 L84.333728,279.798401 C85.6662848,280.048255 86.0510699,279.815151 88.444461,277.30544 C90.8867063,274.745014 91.0649078,274.410944 90.8141229,272.863429 C90.5712477,271.36849 90.6736089,271.140504 91.7730613,270.722219 C93.5183198,270.058732 94.0492023,268.353022 94.1948343,262.93951 C94.2860289,259.557868 94.5349527,257.875422 95.0649046,257.066769 C95.8619261,255.850531 96.8571562,246.972093 96.3462808,245.63721 C96.1866903,245.220786 95.6665093,244.563813 95.1900644,244.177632 C94.3511678,243.49693 94.3669873,243.357346 95.6818635,239.757489 C97.9021711,233.678164 97.9007753,233.777268 95.7828289,232.37585 C93.801209,231.064231 92.1471449,230.796696 91.8321516,231.736093 M171.491968,249.24172 L168.969695,251.627201 L170.113814,257.559033 C171.606892,265.301262 171.945614,266.207624 173.202331,265.82377 C175.405423,265.150512 175.524534,265.262179 176.605841,269.023023 C177.8593,273.383145 178.223148,273.902861 179.811142,273.599034 L181.018539,273.368256 L180.724018,277.502718 C180.561636,279.776533 180.316435,282.53982 180.178712,283.64346 L179.928393,285.64974 L181.26188,284.960197 C183.50359,283.801189 194.035163,273.68418 197.227436,269.623232 C197.925819,268.73455 198.106812,268.157605 197.787166,267.837959 C197.527075,267.577869 193.289322,266.355118 188.369005,265.119804 C183.448688,263.88449 179.266767,262.698961 179.075538,262.484933 C178.883843,262.270905 177.840689,258.85018 176.757056,254.883683 C175.672958,250.917187 174.612589,247.488552 174.399957,247.264287 C174.185464,247.037232 172.893851,247.915677 171.491968,249.24172 M48.3053753,249.738172 C47.6577081,249.934984 46.7155197,250.338381 46.2116234,250.634298 C45.2899073,251.175416 29.0856632,256.129698 26.9174667,256.532629 C23.8312764,257.106783 19.2306055,258.965569 19.0891609,259.695591 C18.8681537,260.835987 20.571072,263.359656 25.1042775,268.60939 C29.6672609,273.89309 37.7044767,281.869819 38.4656718,281.869819 C39.1296238,281.869819 39.3115476,280.471193 39.9475829,270.470503 C40.2407082,265.864249 40.6492224,261.921482 40.855806,261.708384 C41.0623895,261.495287 41.6774873,261.599509 42.2223281,261.940093 C43.0593635,262.4626 43.4120444,262.447711 44.4868371,261.844245 C46.0483107,260.968126 52.9730463,252.816918 52.9730463,251.855653 C52.9730463,250.886478 51.2771072,249.292435 50.2976966,249.340359 C49.8496337,249.362227 48.9535079,249.541359 48.3053753,249.738172 M101.931015,250.024783 C100.945556,250.714791 100.896702,251.057701 100.896702,257.296151 C100.896702,263.721643 100.922757,263.888678 102.295328,266.288117 C104.427698,270.014531 104.68965,270.102468 106.433047,267.674647 L107.932173,265.587409 L105.810039,262.829705 C104.643122,261.313363 103.688371,259.785855 103.688371,259.435965 C103.688371,259.086076 104.621719,257.883797 105.762116,256.764338 C107.96893,254.598933 108.6045,252.95464 108.108514,250.69618 C107.815854,249.363623 107.692555,249.300345 105.383379,249.300345 C103.947531,249.300345 102.544717,249.594401 101.931015,250.024783 M130.674507,252.916952 C130.674507,253.157501 129.941694,254.313718 129.046033,255.486684 C128.150373,256.65965 127.417559,257.741422 127.417559,257.890311 C127.417559,258.354659 131.234702,262.328135 131.680438,262.328135 C132.359745,262.328135 131.945182,252.901133 131.256105,252.672681 C130.936459,252.566598 130.674507,252.676404 130.674507,252.916952 M144.632853,253.400842 C144.632853,253.608821 141.7016,256.795977 138.118958,260.483772 C134.536316,264.171102 131.605063,267.446195 131.605063,267.761188 C131.605063,268.076647 132.337876,268.472133 133.233537,268.640099 L134.862011,268.945787 L134.896441,274.360694 C134.915518,277.339405 135.072316,280.708485 135.2454,281.848417 L135.559928,283.9203 L137.231207,281.967063 C138.508396,280.473519 139.370557,278.560295 140.890155,273.846097 C143.317046,266.318361 143.465005,266.031284 146.687056,262.599392 C148.108947,261.085377 149.39358,259.464347 149.541538,258.997208 C149.726719,258.414214 149.118135,257.345936 147.598536,255.585323 C145.517812,253.175182 144.632853,252.523327 144.632853,253.400842 M153.98448,257.94754 L151.052762,260.080841 L151.350075,262.251364 C151.513387,263.445268 151.769756,265.03838 151.91911,265.7912 C152.179666,267.106077 152.218284,267.124688 152.870604,266.256479 C153.572243,265.323596 158.125921,256.48424 158.125921,256.055254 C158.125921,255.348031 156.596552,256.046879 153.98448,257.94754 M164.460684,266.266715 C164.047517,266.897167 163.70926,267.582056 163.70926,267.788174 C163.70926,268.370703 157.291212,282.273681 156.5021,283.400585 C156.115454,283.951939 155.79953,284.78153 155.79953,285.243552 C155.79953,286.293685 158.373449,291.451293 159.131387,291.919363 C159.682277,292.259947 162.918287,289.022541 169.366112,281.681382 C172.717511,277.865635 172.742636,277.425947 169.974696,271.053497 C167.419388,265.169589 165.991449,263.930088 164.460684,266.266715 M99.418978,274.309049 C98.8913526,275.52482 97.4206081,278.926935 96.1513292,281.869819 C91.2356649,293.267274 91.2184496,293.294726 85.5443819,298.305772 C80.6612871,302.618436 79.5162375,303.915631 80.0880644,304.486993 C80.6436066,305.043 88.7031557,306.994843 90.4423656,306.994843 C93.3163891,306.994843 99.7711936,304.119889 102.194363,301.760463 C105.068386,298.96228 105.28381,298.435119 104.580309,295.922152 L103.985684,293.798157 L106.39629,291.672766 L108.806896,289.54691 L108.806431,284.079891 C108.806431,278.761761 108.485854,277.676267 107.431999,279.427109 C106.986728,280.167366 106.83877,280.116651 105.803991,278.866914 C105.177726,278.110837 103.974517,276.285085 103.130037,274.809688 C102.285557,273.333825 101.321035,272.12038 100.986966,272.112888 C100.652431,272.105026 99.9470688,273.093277 99.418978,274.309049 M150.517692,293.152816 C150.11383,296.515847 150.141747,301.776282 150.56515,302.036373 C151.139769,302.389054 155.906079,300.287392 156.435565,299.44803 C156.796621,298.875738 156.730086,298.263432 156.184315,297.132806 C155.12162,294.931109 151.937721,290.725459 151.327741,290.717075 C151.043456,290.713362 150.679143,291.809558 150.517692,293.152816" id="Combined-Shape"></path>
        </g>
    </g>
</svg>