<?xml version="1.0" encoding="UTF-8"?>
<svg width="800px" height="400px" viewBox="0 0 800 400" version="1.1" xmlns="http://www.w3.org/2000/svg" xmlns:xlink="http://www.w3.org/1999/xlink">
    <title>rare_4</title>
    <g id="Page-1" stroke="none" stroke-width="1" fill="none" fill-rule="evenodd">
        <g id="rare_4" fill="#000000">
            <line x1="0" y1="0" x2="800" y2="400" id="Path" fill-rule="nonzero"></line>
            <path d="M29.0203402,19.5254702 C28.152038,20.3944487 28.526003,21.8051017 30.3593109,24.5750128 C32.4739379,27.7702838 35.625929,29.5068883 44.8343958,32.5493273 C54.4810712,35.7364833 61.3368717,40.2301502 70.1341798,49.1329529 C77.9678347,57.0592538 81.5478907,62.3928205 85.4167046,71.8995125 C89.1766426,81.1390867 89.6953247,84.1091672 89.7216983,96.5298112 C89.7460433,108.191705 88.4611724,117.25816 86.4878812,119.350471 C86.0476438,119.817082 84.7566867,122.328666 83.6185616,124.93222 C78.885503,135.760301 69.2618201,147.196328 59.6888557,153.368442 C50.6812346,159.176058 39.6827398,163.073274 28.206814,164.52315 C21.0561694,165.427293 18.5831311,166.235409 18.0759452,167.834059 C17.6316504,169.233892 19.1951354,173.894592 21.2414613,177.26704 C27.4101941,187.437808 52.1412537,225.222479 63.3385653,241.584972 C84.983906,273.215788 108.965683,308.616686 132.38685,343.51175 C155.933124,378.592783 156.240817,378.959309 163.204141,380.23336 C165.696114,380.689828 190.215508,380.864976 234.210163,380.741899 C300.587269,380.555931 301.440018,380.536996 303.777807,379.166241 C306.091251,377.809688 306.149408,377.669705 306.342139,372.981279 L306.538927,368.183976 L300.92607,359.829611 C297.838998,355.234507 289.365613,343.106678 282.096625,332.878429 C274.827637,322.650181 260.5818,301.956997 250.439435,286.893577 C203.045282,216.504292 182.35886,186.237468 180.649306,184.780154 C179.54026,183.834759 174.61988,176.093074 174.616499,175.287663 C174.615147,175.087493 175.271783,174.874475 176.075166,174.814289 C176.878548,174.753427 177.724534,174.398397 177.955811,174.025108 C178.186411,173.651143 178.974916,173.357651 179.707293,173.371853 C187.768167,173.532123 199.744516,168.838287 210.151294,161.440136 C223.81691,151.724483 234.971618,136.67594 239.719554,121.550981 C245.498092,103.139458 244.758277,84.1368933 237.579906,66.6051682 C236.856997,64.8388089 236.100276,62.628831 235.898078,61.6942565 C235.2056,58.486813 227.280652,47.4720882 221.40541,41.5535672 C211.818245,31.8940431 200.423469,25.1477947 187.133846,21.2634271 L181.038825,19.4821904 L105.267284,19.2664673 C63.5928345,19.1474477 29.2820481,19.2644385 29.0203402,19.5254702 M314.485622,169.158727 C313.365268,171.253406 285.662833,250.401168 285.662833,251.509553 C285.662833,252.342637 309.034667,251.869838 310.254369,251.012815 C310.942621,250.529243 314.174412,242.592203 317.436128,233.375614 L323.367063,216.618178 L332.462759,216.618178 C338.038198,216.618178 342.262268,217.203491 343.379032,218.132332 C344.380887,218.965416 350.253171,226.902456 356.428286,235.771927 L367.654571,251.896171 L384.240841,251.912928 C398.459525,251.926095 400.728961,251.673536 400.141254,250.142625 C399.40273,248.21552 384.988941,226.585261 383.7848,225.595376 C383.385015,225.266212 381.332229,222.461735 379.224383,219.362807 L375.391718,213.729914 L380.500342,212.438395 C399.466168,207.645768 410.54403,199.356822 413.665701,187.619436 C415.680184,180.048666 412.38256,174.226654 403.927237,170.42511 C397.703047,167.625421 396.775403,167.561982 356.676057,167.162198 C316.721543,166.76361 315.74243,166.810292 314.485622,169.158727 M477.820346,172.03143 C471.781685,177.937229 406.220612,249.56569 404.905153,251.695082 C404.240841,252.768754 407.096786,253.126645 416.360057,253.131433 L428.699515,253.137418 L437.730576,243.555756 L446.761636,233.974093 L474.514344,233.974093 L502.267051,233.974093 L502.897849,236.667253 C503.244967,238.147892 503.935613,242.322887 504.431154,245.94369 L505.333662,252.526969 L517.906526,252.863314 C526.748467,253.100312 531.068295,252.746012 532.46395,251.666354 C534.289313,250.256336 533.978104,248.064703 528.59777,224.398416 C525.379145,210.244368 521.017424,191.527509 518.903593,182.804067 L515.060156,166.944351 L499.041245,166.944351 L483.022333,166.944351 L477.820346,172.03143 M564.974572,171.349163 C563.917656,173.863975 558.313491,189.656661 552.521403,206.444021 C546.730512,223.23138 540.873788,240.148011 539.508057,244.036933 C538.142326,247.924659 537.024366,251.561022 537.024366,252.116411 C537.024366,252.670604 542.081521,253.125448 548.262621,253.125448 C557.251788,253.125448 559.98325,252.706512 561.907961,251.030769 C563.29404,249.824234 566.404939,242.588612 569.241733,233.974093 C571.95165,225.744996 574.647203,218.255619 575.231319,217.331566 C576.044055,216.047228 578.08128,215.818609 583.904489,216.363226 C588.090257,216.753434 592.453175,217.433308 593.598666,217.872592 C594.744156,218.311876 600.84865,226.090917 607.165007,235.159084 L618.649835,251.647203 L633.794966,252.189426 C648.929324,252.731649 651.932496,252.492257 651.932496,250.741105 C651.932496,250.228806 646.527026,241.846497 639.919808,232.115215 C631.511167,219.727879 628.345208,214.147653 629.368609,213.515659 C630.172966,213.01892 632.75002,212.257654 635.097258,211.824354 C641.833747,210.58191 653.398771,204.579158 658.083671,199.894257 C667.227247,190.749485 668.488842,180.647146 661.321447,173.951353 C655.116408,168.155674 651.930102,167.754693 607.917894,167.248379 L566.896889,166.77558 L564.974572,171.349163 M682.519603,170.83447 C680.568559,175.552885 654.326415,251.537083 654.326415,252.467121 C654.326415,253.863972 751.098211,253.156569 754.212701,251.738172 C756.987253,250.474183 759.631337,244.89276 759.651685,240.258132 C759.65767,239.09349 751.427375,238.761932 722.472921,238.761932 L685.285777,238.761932 L686.138013,236.068773 C686.606024,234.588134 688.48166,229.066559 690.303432,223.799936 L693.617814,214.224259 L726.580886,213.625779 C746.231373,213.269085 759.983243,212.543727 760.633192,211.830339 C761.231672,211.172011 762.277815,208.343596 762.956491,205.546301 L764.191753,200.459222 L738.759951,200.459222 C724.773477,200.459222 710.059252,200.118089 706.0638,199.70035 L698.798255,198.94028 L702.149742,189.825432 L705.501229,180.709388 L740.061046,180.110908 C759.068766,179.781744 775.274403,179.088704 776.072775,178.571618 C777.323598,177.760079 779.980849,170.502912 780,167.842071 C780.003591,167.347727 758.434377,166.944351 732.067749,166.944351 L684.128317,166.944351 L682.519603,170.83447 M337.955607,179.884682 C336.790966,180.116892 334.856679,183.965118 332.840999,190.05884 C331.057529,195.449946 329.335104,200.575327 329.013122,201.449108 C328.535535,202.743021 332.835014,202.964459 352.230549,202.646068 C379.046036,202.205586 381.936694,201.445517 385.517997,193.897489 C387.792221,189.104863 387.311043,186.270462 383.661513,182.962066 C381.491425,180.995461 378.548101,180.632782 360.50154,180.110908 C349.130423,179.781744 338.984993,179.680002 337.955607,179.884682 M584.429954,189.925977 C582.523198,195.390098 580.715788,200.534631 580.411761,201.356942 C579.983249,202.516796 584.254001,202.837581 599.437435,202.781324 C624.178592,202.691552 629.570895,201.842908 634.008024,197.342339 C639.011316,192.26723 639.589447,188.384293 635.967447,184.169798 L632.993003,180.709388 L610.444676,180.3503 L587.895153,179.992409 L584.429954,189.925977 M475.627516,200.929627 C466.604834,211.140891 459.221987,219.791318 459.221987,220.151603 C459.221987,220.513085 468.16926,220.807537 479.104684,220.807537 L498.988578,220.807537 L498.290751,216.917418 C497.906527,214.777254 496.744279,207.21606 495.707712,200.112104 C492.738055,179.774562 494.379087,179.708729 475.627516,200.929627" id="Shape"></path>
        </g>
    </g>
</svg>