<?xml version="1.0" encoding="UTF-8"?>
<svg width="800px" height="400px" viewBox="0 0 800 400" version="1.1" xmlns="http://www.w3.org/2000/svg" xmlns:xlink="http://www.w3.org/1999/xlink">
    <title>rare_2</title>
    <g id="Page-1" stroke="none" stroke-width="1" fill="none" fill-rule="evenodd">
        <g id="Manufacturer" fill="#000000" fill-rule="nonzero">
            <g id="rare_2">
                <line x1="0" y1="0" x2="800" y2="400" id="Path"></line>
                <path d="M516.049679,215.293228 C531.957728,215.293228 543.757005,217.910795 556.760582,224.324571 C580.366422,235.967732 596.614499,258.709136 602.525557,288.378837 C604.172275,296.644273 605.3694,308.315147 605.3694,316.130689 L605.3694,321.474184 L478.515665,321.474184 L480.205266,325.962992 C484.588426,337.607987 493.483698,344.874888 506.37385,347.341213 C519.4891,349.850531 531.46788,347.742555 539.709794,341.474764 L543.343559,338.711376 L579.023186,338.731436 C589.515698,338.780805 597.095556,338.915711 597.095556,339.073339 C597.095556,339.982164 591.804968,349.802253 589.130359,353.857981 C572.640069,378.86304 546.751296,392.095412 515.064727,391.714635 C511.072968,391.666658 505.635135,391.353959 502.980627,391.019708 C491.471046,389.57054 479.499358,385.333611 469.696603,379.24012 C462.410286,374.710893 449.890915,362.865473 444.553637,355.450807 C433.54713,340.160189 427.972459,322.643404 427.924733,303.202774 C427.89959,292.261524 428.794312,286.079527 431.767846,276.657549 C438.805843,254.356838 456.153175,234.299873 477.256432,224.063682 C490.596698,217.592975 500.768782,215.293228 516.049679,215.293228 Z M254.765374,219.344738 C265.300244,222.18346 273.395461,226.782407 280.525688,233.979315 L284.758043,238.251213 L284.758043,220.119627 L334.401105,220.119627 L334.401105,387.664932 L286.177035,387.664932 L285.79226,369.900403 L280.276383,374.3506 C273.848148,379.536909 264.645927,384.254292 256.833835,386.368102 C248.836544,388.532024 228.397927,388.901983 219.946305,387.035809 C204.4221,383.607945 192.563509,377.211448 181.262431,366.169835 C168.864591,354.056626 161.83259,342.001224 157.509456,325.448663 L157.05026,323.624398 C155.882056,318.76531 155.575907,315.35826 155.320012,306.305479 C154.822799,288.716538 157.050964,278.209655 164.294123,263.988058 C168.817216,255.107163 174.096878,248.117471 182.090719,240.427321 C194.078098,228.895395 205.701706,222.565113 221.51465,218.956732 C229.283447,217.183965 247.536975,217.396959 254.765374,219.344738 Z M0,387.664932 L0,165.552076 L67.5211608,165.973536 C91.2122095,166.163722 99.2538818,166.447851 105.443082,167.677264 L106.601394,167.922702 L107.490849,168.131641 L108.375973,168.355979 L109.266894,168.596342 L109.869061,168.765794 C110.981355,169.083353 112.144455,169.439152 113.441559,169.838324 C131.760288,175.475732 147.418812,190.286498 154.51533,208.688338 L155.268801,210.692357 C158.489086,219.503737 159.44489,225.73788 159.555186,238.03367 L159.564034,239.425253 C159.61683,252.995819 158.847692,258.484394 155.525804,268.243115 C148.94301,287.581304 135.398651,301.839017 116.794572,309.049409 L115.649241,309.48204 C112.242901,310.735548 110.411751,311.761002 110.618337,312.299347 L110.883561,312.720242 C112.237046,314.753673 118.582778,323.772779 126.419171,334.84601 L154.011196,373.653047 C159.031482,380.672587 162.606226,385.630393 163.223601,386.397248 L163.381079,386.595104 C163.949184,387.427082 162.196654,387.613946 144.609091,387.654279 L137.88694,387.664932 L96.8224541,387.664932 L54.4694337,316.414362 L54.4694337,387.664932 L0,387.664932 Z M427.106764,217.687122 L432.410086,217.190154 L431.863093,237.714237 C431.644253,245.093586 431.369091,252.576611 431.193299,255.743872 L430.80428,262.75443 L424.833744,263.217085 C406.056431,264.672119 398.213735,270.275267 394.810176,284.848556 L394.538476,286.090861 C393.657611,290.599948 393.455803,299.200109 393.205146,339.228498 L392.901812,387.664932 L343.364426,387.664932 L343.364426,220.119627 L390.214497,220.119627 L390.594288,241.83848 L392.848632,237.860386 C399.324242,226.433478 411.730324,219.127993 427.106764,217.687122 Z M247.022205,261.862087 L246.146792,261.858372 C235.439457,261.829695 230.665552,263.048262 223.60102,267.614293 C201.269638,282.047788 197.599643,313.237336 216.087113,331.471749 C226.918088,342.154466 242.939014,346.455309 257.523313,342.595405 C267.717825,339.897328 277.69833,331.609546 282.273782,322.042706 C284.863773,316.627301 286.845345,308.432542 286.803806,303.314502 C286.752211,297.323783 284.825217,289.438411 282.035677,283.808917 C277.339571,274.331759 270.043697,267.652056 260.091671,263.718133 L258.829905,263.234584 C255.662834,262.072378 253.815783,261.893413 247.022205,261.862087 L247.022205,261.862087 Z M515.736103,259.867005 C506.749369,259.878329 501.425536,261.025314 494.362044,264.4721 C486.68323,268.219127 479.323086,276.94919 477.549169,284.414271 L477.09859,286.310376 L532.573839,286.286939 C550.67004,286.220399 555.03686,285.994183 555.03686,285.386271 C555.03686,282.887523 550.276867,275.297434 546.074141,271.094708 C538.163795,263.184389 529.155098,259.850425 515.736103,259.867005 Z M54.4694337,215.132236 L54.4694337,268.591277 L66.0183654,268.108276 C72.3702533,267.842595 79.8942644,267.154103 82.7384084,266.578269 C89.4718668,265.215005 94.3142587,262.976324 98.1221601,259.466335 C102.555816,255.379526 104.298707,250.935327 104.660342,242.794816 C105.154763,231.6653 102.112139,224.884056 94.6011076,220.375149 L93.7070407,219.855215 C88.2127447,216.767378 82.9170754,215.841462 69.2162895,215.479868 L54.4694337,215.132236 Z M689.109438,8.27737142 L689.246948,8.3368627 C690.914889,9.16400451 707.309635,18.5205074 728.107205,30.5096756 L790.519557,66.5382337 L800,72.002848 L800,200.344911 L705.069741,255.053235 C695.590768,260.473139 689.652494,263.83111 689.441826,263.876165 L689.368512,263.85862 C687.933538,263.338327 667.178615,251.602079 641.196719,236.628705 L579.53304,200.901028 L577.978114,199.892744 L578.33,72.044335 L673.633785,17.0535587 C683.100189,11.6271689 688.986979,8.28415355 689.109438,8.27737142 Z M654.863026,88.8927548 L658.336759,90.5315859 C662.705268,92.5925983 667.194788,97.6324299 668.70056,102.165847 C670.131299,106.473536 669.778892,114.362578 667.998512,117.880289 C665.51956,122.778124 659.845424,127.410161 654.800597,128.733153 L654.173548,128.881073 C653.035901,129.118822 652.105087,129.62499 652.105087,130.005931 L652.137966,130.096214 C652.705101,131.290161 660.537245,143.07464 670.031757,157.009977 L687.9584,183.321452 L714.351235,183.346999 C724.58625,183.310032 728.021373,183.105561 727.887603,182.604485 L727.835629,182.510959 L694.363784,133.481463 C692.806273,131.156453 692.11322,130.071219 691.865457,129.606431 L691.799422,129.475012 C691.765386,129.401251 691.750583,129.354104 691.750583,129.327023 C691.750583,129.098777 692.476674,128.912044 693.364193,128.912044 C695.817374,128.912044 703.18954,124.964977 705.200905,122.574588 C713.704529,112.468581 711.194471,97.5533171 699.941206,91.320742 L696.232244,89.2665756 L654.863026,88.8927548 Z" id="Shape"></path>
            </g>
        </g>
    </g>
</svg>