<?xml version="1.0" encoding="UTF-8"?>
<svg width="800px" height="400px" viewBox="0 0 800 400" version="1.1" xmlns="http://www.w3.org/2000/svg" xmlns:xlink="http://www.w3.org/1999/xlink">
    <title>rare_3</title>
    <g id="Page-1" stroke="none" stroke-width="1" fill="none" fill-rule="evenodd">
        <g id="rare_3" fill="#000000">
            <line x1="0" y1="0" x2="800" y2="400" id="Path" fill-rule="nonzero"></line>
            <path d="M740.834654,37.7179081 C773.510772,37.7179081 800,64.2071358 800,96.8832541 L800,303.116746 C800,335.792864 773.510772,362.282092 740.834654,362.282092 L59.165346,362.282092 C26.4892277,362.282092 0,335.792864 0,303.116746 L0,96.8832541 C0,64.2071358 26.4892277,37.7179081 59.165346,37.7179081 L740.834654,37.7179081 Z M740.834654,54.4109878 L59.165346,54.4109878 C35.7085611,54.4109878 16.6930798,73.4264692 16.6930798,96.8832541 L16.6930798,303.116746 C16.6930798,326.573531 35.7085611,345.589012 59.165346,345.589012 L740.834654,345.589012 C764.291439,345.589012 783.30692,326.573531 783.30692,303.116746 L783.30692,96.8832541 C783.30692,73.4264692 764.291439,54.4109878 740.834654,54.4109878 Z M35.9218172,76.0621236 L85.8425779,76.1238246 C140.911358,76.1918648 136.351189,76.0832541 142.624617,77.4757528 C162.346962,81.8529319 178.783096,97.2631801 184.568199,116.801057 C186.230534,122.415425 186.860222,126.855784 186.852826,132.910724 C186.841627,142.219968 185.096883,149.87533 181.116112,158.082831 C176.650396,167.290016 168.962705,175.808558 160.063391,181.411305 C156.120232,183.893714 150.289699,186.475647 145.561754,187.833069 C141.534707,188.989118 135.53365,189.963022 132.436556,189.963022 C131.767565,189.963022 131.220285,190.017538 131.220285,190.084099 C131.220285,190.177496 224.013524,320.210882 224.887269,321.341786 C224.897057,321.354451 224.871915,321.366548 224.807758,321.378098 L224.730445,321.389467 C223.537267,321.536784 215.344172,321.590701 190.823269,321.602997 L188.929376,321.603851 C188.608445,321.603981 188.284859,321.604104 187.9586,321.60422 L185.968821,321.604844 C185.631794,321.604936 185.292057,321.605021 184.94959,321.605101 L178.486289,321.605901 L177.350026,321.605917 L129.608452,321.605917 L34.8961437,189.01215 L35.7787639,188.962282 C43.9414686,188.501849 48.4344427,187.728685 54.0940306,185.810671 C66.2719493,181.684099 77.3126255,172.695404 83.8977285,161.546329 C87.4539884,155.525409 89.7172742,149.373904 91.0123613,142.208135 C91.5180137,139.410882 91.5676704,138.638352 91.5835182,133.333333 C91.602747,126.790069 91.375383,124.698785 90.0777602,119.492868 C88.2385631,112.113893 84.7017433,104.87607 79.9072372,98.679345 C79.1429477,97.691495 77.372636,95.7071315 75.972953,94.2694136 C69.8801902,88.0109878 63.2667723,83.6513471 55.4675119,80.7524564 C49.7329107,78.6208135 45.3732699,77.7500264 37.7707343,77.2177496 C35.9894348,77.0930798 35.9218172,77.0696249 35.9218172,76.5751717 L35.9218172,76.0621236 Z M355.09421,164.223469 L376.562231,164.233332 C392.503872,164.252229 398.246149,164.505366 402.217078,165.894225 L402.523064,166.004762 C403.027557,166.192875 403.505866,166.400537 403.976452,166.629725 L404.258025,166.769837 L404.398393,166.841859 L404.678847,166.989897 C404.959334,167.140621 405.240364,167.299449 405.525924,167.466808 C412.52105,171.5662 415.829197,179.963532 414.036965,189.071984 C412.68248,195.956346 409.877478,199.889006 404.3476,202.658069 L401.459525,204.103284 L403.268254,204.46503 C405.441085,204.899832 409.004339,207.902793 410.284589,210.378453 L410.477505,210.758918 C411.827104,213.478107 412.246739,215.660518 412.808151,222.714381 L412.949332,224.489766 C413.575139,232.058021 414.28369,235.41483 415.876919,238.605225 L416.98042,240.814584 L405.288492,240.814584 L404.635111,238.940458 C404.325724,238.05338 403.94866,235.129876 403.727942,232.045205 L403.681558,231.357832 C403.674287,231.243081 403.667253,231.128301 403.660467,231.013584 L403.591953,229.791972 C402.943202,218.746705 401.255163,213.158467 397.744292,210.384866 L395.546102,208.705232 L365.404553,208.355859 L365.404553,240.520003 L355.09421,240.860539 L355.09421,164.223469 Z M755.150814,164.223469 L754.840914,172.766324 L712.126639,173.075635 L712.126639,197.216565 L752.189683,197.216565 L752.189683,206.054001 L712.126639,206.054001 L712.126639,231.977148 L732.600033,232.044901 C735.504123,232.054474 738.30291,232.060481 740.867272,232.063134 L741.7132,232.063894 L741.921844,232.064045 L745.645169,232.06403 C750.155893,232.060484 753.312373,232.043364 753.993133,232.014514 L754.198,232.000585 C754.983659,231.961658 755.125534,232.560638 755.134966,235.959871 L755.135495,240.826367 L701.816296,240.520003 L701.512878,164.223469 L755.150814,164.223469 Z M224.889315,164.157483 L253.422398,164.402345 C266.444221,164.532424 268.805821,164.67995 271.103267,165.4841 L271.281349,165.547738 C271.548827,165.6452 271.819136,165.751756 272.108915,165.868411 C276.57241,167.665945 280.428478,171.180888 282.446949,175.291474 L282.685871,175.784848 C283.895343,178.324212 284.085783,179.490282 284.096692,183.991735 L284.096804,184.834494 L284.089754,185.935573 C284.043817,189.908817 283.760805,191.152317 282.564781,193.708692 C280.506837,198.105022 277.837342,201.013128 274.660578,202.31989 L274.359412,202.44499 C271.640292,203.587078 271.485683,204.023991 273.48461,204.525714 C275.525468,205.038285 278.952626,208.183823 280.25821,210.743734 C281.561358,213.297324 282.378841,217.807235 282.88417,225.247362 L282.91003,225.634814 C283.111384,228.706754 283.576379,232.267435 283.956944,233.682386 L284.689301,236.213815 L312.549024,164.51805 L324.163183,164.190476 L353.669616,239.805938 L353.711864,239.927807 C353.906723,240.539839 353.657947,240.742732 351.638371,240.75408 L351.274564,240.75419 C350.511266,240.750819 349.530893,240.726393 348.279958,240.689682 L342.500274,240.520003 L334.277334,217.818986 L301.935852,218.131831 L293.526737,240.802212 L275.083597,240.814584 L274.444355,238.9817 C274.161916,238.170871 273.81887,235.567765 273.595189,232.701988 L273.559992,232.235207 L273.503944,231.411618 L273.391857,229.46829 C272.718813,218.475847 271.010071,213.032041 267.420361,210.292436 L265.341207,208.705232 L247.410684,208.498258 C245.952921,208.485352 244.661017,208.477978 243.518473,208.476786 L242.850737,208.476817 C237.216745,208.483608 235.532226,208.661064 235.477319,209.100643 L235.474747,209.215203 L235.4718,210.578201 L235.493649,225.349071 L235.529588,240.814584 L224.889315,240.814584 L224.889315,164.157483 Z M484.664578,164.223469 L485.298863,166.639875 L486.049231,169.747302 C487.249372,174.771615 489.617574,184.801072 492.244247,195.99024 L494.827598,206.966031 C497.399945,217.845726 499.362655,225.981892 499.673204,227.030842 L499.694491,227.099521 L499.708621,227.137508 L499.735964,227.1706 L499.757088,227.196365 L499.770725,227.211436 L499.789977,227.226935 C499.794341,227.229437 499.798785,227.231224 499.803359,227.232127 L499.817516,227.23201 C499.981007,227.19725 500.343636,225.977888 502.719011,217.152539 L514.37864,173.82032 L516.909437,164.51805 L523.248385,164.330611 C527.48486,164.216548 528.216739,164.338109 528.492452,165.147663 L528.533692,165.284511 L538.981756,204.538124 C542.021841,215.88395 544.435646,224.626378 545.076922,226.603338 L545.124421,226.746982 C545.189932,226.940563 545.229479,227.035123 545.24108,227.02347 L545.257625,226.999634 L545.272903,226.969016 C545.543129,226.377352 546.838939,221.248853 550.98012,204.236527 L558.40824,173.663047 L560.309368,165.946032 C560.395594,165.604325 560.454042,165.377725 560.481349,165.279956 L560.488603,165.254503 C560.741231,164.393614 561.509846,164.230825 565.682772,164.223719 L571.18249,164.223469 L550.928265,239.78355 L550.899055,239.870962 C550.611711,240.649355 549.753514,240.804151 545.663665,240.814584 L539.792506,240.814584 L529.799791,203.8495 C526.176924,190.516027 523.223473,179.917354 522.583306,177.96053 L522.540123,177.831419 C522.501225,177.718308 522.475255,177.653462 522.462882,177.639287 C522.423932,177.594772 522.275359,177.955958 522.034343,178.664476 L521.82629,179.291499 C520.705993,182.736601 518.257319,191.197261 515.488868,201.246991 L506.427649,234.186507 L504.591229,240.814584 L493.716469,240.814584 L489.374452,223.681076 L485.522078,208.618389 L479.291395,184.363345 L478.393541,180.85563 C477.483049,177.33858 476.70846,174.602175 476.17327,172.977493 L476.015888,172.511951 C475.669673,171.517599 475.450945,171.107428 475.397383,171.401973 L475.204986,173.060906 L432.274488,173.060906 L432.274488,197.216565 L472.337532,197.216565 L472.337532,206.054001 L432.274488,206.054001 L432.274488,231.977148 L475.283345,231.977148 L475.283345,240.814584 L422.258726,240.814584 L422.258726,164.223469 L484.664578,164.223469 Z M634.946361,164.156894 L660.777738,164.39545 C675.72296,164.55205 678.620171,164.737257 681.032479,165.549825 L681.274559,165.633924 C686.195833,167.392574 689.746126,170.480963 692.057999,175.01339 L692.448623,175.787065 C693.828395,178.559344 694.048213,179.559957 694.058483,183.262653 L694.058109,184.014246 C694.057695,184.145535 694.057128,184.279937 694.056438,184.4176 C694.012251,193.485399 690.999863,199.183189 684.591544,202.318122 L681.236853,203.959529 L683.242951,204.53514 C684.346452,204.851521 686.364922,206.184206 687.728244,207.49686 L687.941582,207.706023 C690.951861,210.712561 691.931302,214.132583 692.69017,223.986927 L692.751954,224.762184 C693.382181,232.414785 694.385419,237.07536 695.894625,239.378795 L696.835517,240.814584 L689.151536,240.812313 C685.264564,240.795471 684.953165,240.653754 684.481755,239.461279 L684.378856,239.194387 C684.052067,238.336567 683.559741,234.309492 683.261725,230.106115 L683.175937,228.863519 C682.3072,216.657534 680.702871,212.155685 676.449319,209.746282 L676.317261,209.671934 C676.230304,209.623324 676.145352,209.576613 676.061452,209.531724 L675.821892,209.40742 C674.051774,208.520669 672.345562,208.435426 661.392198,208.421772 L644.962122,208.410651 L644.962122,240.814584 L634.946361,240.814584 L634.946361,164.156894 Z M603.780847,164.223469 L604.767414,166.584215 C605.412382,168.17134 609.32912,178.132099 614.425286,191.139903 L633.588342,240.078131 C633.816978,240.628595 632.550577,240.807148 628.31642,240.808861 L622.279369,240.802801 L614.031095,217.819575 L581.643658,218.131831 L573.34943,240.520003 L567.865506,240.690271 C564.912415,240.781419 562.60723,240.656222 562.658481,240.411473 L562.714585,240.285288 C563.30297,238.897297 568.777582,224.921824 575.601226,207.390962 L584.988227,183.293276 C589.27585,172.314604 592.216025,164.838861 592.317514,164.674768 C592.464036,164.437514 594.887483,164.241229 597.789929,164.224609 L603.780847,164.223469 Z M318.331064,173.807374 C318.251386,173.727696 315.791071,180.256354 312.706764,188.716608 L309.539431,197.46436 C307.238008,203.858637 305.604567,208.488797 305.604567,208.639246 C305.604567,208.83283 311.050152,208.99169 317.811936,208.999511 L322.062259,208.9957 C330.304794,208.971909 330.979169,208.822331 330.667553,207.996258 L330.2704,206.918534 L320.69306,180.207772 C319.302637,176.3616 318.380929,173.857578 318.331064,173.807374 Z M597.721312,174.269278 L597.183096,175.69532 C595.87832,179.17217 594.246885,183.649751 592.623086,188.179167 L591.201419,192.163303 C588.131122,200.807854 585.455554,208.60593 585.579853,208.730566 C585.684595,208.834927 588.120862,208.897121 591.677618,208.903953 L592.561616,208.904518 C594.278771,208.903502 596.212643,208.890528 598.245077,208.864306 L610.617488,208.705232 L598.574887,174.998097 L598.527286,174.85844 C598.184983,173.833297 597.951674,173.66244 597.721312,174.269278 Z M365.404553,173.059727 L365.742732,199.695171 L384.39762,199.396287 C393.508115,199.224388 394.187841,199.020498 397.029024,197.699089 C401.658073,195.545111 403.590526,192.582802 403.896301,187.172524 C404.258368,180.76208 402.127224,176.487694 397.46066,174.269452 L397.180402,174.14011 L396.990901,174.057784 L396.863675,174.005305 L396.68189,173.934503 C396.599434,173.903535 396.515721,173.873671 396.43014,173.844872 L396.256306,173.788682 C394.283318,173.176831 391.175747,173.083276 380.133613,173.073278 L365.404553,173.059727 Z M644.962122,173.060906 L644.962122,199.573215 L657.187243,199.560842 C675.254497,199.542578 679.371564,198.318299 682.467613,192.043719 L682.65174,191.66621 C683.82632,189.225707 683.953425,188.24393 683.704854,184.774044 C683.346096,179.75722 681.417101,176.509542 677.591345,174.495176 L677.305939,174.34876 L677.086912,174.239785 L676.804291,174.104277 L676.547772,173.988541 C676.434861,173.939435 676.321927,173.892922 676.207167,173.848866 L676.033431,173.784608 C674.219341,173.139293 671.749594,173.067828 661.903312,173.061462 L644.962122,173.060906 Z M249.863321,173.060906 L235.539015,173.060906 L235.350991,187.209661 C235.323079,189.639167 235.308464,191.898274 235.306742,193.775628 L235.312776,196.141965 C235.324401,197.808481 235.352286,198.85962 235.395848,198.989355 C235.539798,199.416521 241.791037,199.603222 248.333859,199.562702 L249.817736,199.549651 L251.164078,199.531055 C255.995733,199.452518 260.525843,199.249719 262.372417,198.928082 C270.026226,197.595396 273.801579,193.309829 273.777075,185.983594 C273.756214,179.905205 270.909381,175.307382 266.19019,173.730194 L266.084352,173.698152 C264.611973,173.291506 258.757257,173.060906 249.863321,173.060906 Z" id="Combined-Shape"></path>
        </g>
    </g>
</svg>