<?xml version="1.0" encoding="UTF-8"?>
<svg width="800px" height="400px" viewBox="0 0 800 400" version="1.1" xmlns="http://www.w3.org/2000/svg" xmlns:xlink="http://www.w3.org/1999/xlink">
    <title>rare_5</title>
    <g id="Page-1" stroke="none" stroke-width="1" fill="none" fill-rule="evenodd">
        <g id="rare_5" fill="#000000">
            <line x1="5.68434189e-14" y1="0" x2="800" y2="400" id="Path" fill-rule="nonzero"></line>
            <path d="M117.737517,41.7555901 C116.977616,42.5154919 116.708398,47.458558 116.708398,60.6650409 C116.708398,70.4993055 116.933158,79.1315588 117.208138,79.8478258 C117.972157,81.8385543 119.948066,81.3989145 120.845458,79.0385264 C121.286744,77.8768564 121.648171,69.5821544 121.648171,60.6057637 C121.648171,46.2878318 121.471162,44.0657573 120.207404,42.5056123 C119.05479,41.0821344 118.560813,40.9322947 117.737517,41.7555901 M662.292322,41.3439424 C661.983587,41.6535015 661.735775,49.9029223 661.742361,59.6762631 C661.753887,75.8869512 662.290676,80.8645958 663.856584,79.2978644 C664.628835,78.5256133 664.267408,42.2084027 663.479515,41.4122759 C663.1362,41.0656685 662.601882,41.0343833 662.292322,41.3439424 M750.566888,41.8379197 C750.226867,46.2491369 750.647571,79.6642309 751.051809,80.3179276 C752.740388,83.049622 753.115811,79.5308571 753.115811,60.9795398 C753.115811,43.5989487 752.945389,40.8088003 751.880868,40.8088003 C751.201649,40.8088003 750.610523,41.2723157 750.566888,41.8379197 M475.208302,42.5294879 C474.286211,44.020476 474.799124,77.8859127 475.770613,79.7012792 C476.555214,81.1659219 476.783266,81.2087333 477.893892,80.0972844 C478.901606,79.090394 479.195522,75.6877137 479.434278,62.2861098 C479.598937,53.078373 479.38488,44.811663 478.95265,43.6763385 C478.149114,41.5621157 476.178968,40.9586401 475.208302,42.5294879 M616.033819,42.5928817 C615.411407,44.2370027 616.057694,78.5634849 616.72374,79.2295309 C618.510292,81.0160821 618.936759,76.9621751 618.729288,60.1669472 C618.562159,46.6747807 618.25013,42.0939646 617.478702,41.8379197 C616.912275,41.649385 616.262695,41.9894061 616.033819,42.5928817 M70.9842131,43.3297311 C70.3947335,44.2831073 69.8917,78.4449303 70.4416614,80.1211599 C70.9323455,81.6146179 72.8086359,81.3824486 73.4343405,79.7515003 C74.0551053,78.1345479 73.9546632,47.0749023 73.3199024,44.3078062 C72.8654433,42.3261339 71.8634927,41.9062532 70.9842131,43.3297311 M428.590842,61.2322915 C428.529095,73.403892 428.789256,79.0615786 429.442953,79.7152753 C431.658441,81.9307634 432.061032,78.7800116 431.841212,60.932612 C431.638682,44.5045738 431.489665,42.8637459 430.178155,42.6118175 C429.386145,42.4595078 428.724216,42.6398095 428.708573,43.0127624 C428.69293,43.3857152 428.640239,51.5840917 428.590842,61.2322915 Z M116.929041,92.6912355 L117.375267,97.6161891 L87.5044604,97.6161891 C54.0844266,97.6161891 54.8006937,97.4926947 56.5954778,102.930561 C57.4467654,105.509123 58.0724699,105.989927 62.104148,107.161477 C70.0687085,109.476584 69.7698523,108.489453 69.8505352,132.812071 C70.2704159,259.872087 70.1658574,280.986323 69.1070994,282.263255 C68.5102102,282.983638 65.5875112,284.430992 62.611298,285.479047 C57.9703813,287.114112 57.0293546,287.790861 55.9977653,290.233578 C54.8575011,292.933988 54.8929028,293.160394 56.6827472,294.609394 C58.4923506,296.075683 61.2874388,296.311146 72.2504416,295.920904 C73.3824729,295.880562 87.4130746,295.762008 103.430288,295.657449 C130.624562,295.480441 132.607057,295.368472 133.390011,293.969693 C134.009129,292.862361 133.847763,291.764085 132.771716,289.765947 C131.628982,287.644314 130.352874,286.757625 126.855515,285.657702 C124.402918,284.886274 122.042529,283.594524 121.610299,282.786871 C121.15831,281.94217 120.824875,269.971453 120.824875,254.566771 C120.824875,222.648428 120.110255,224.796406 130.51671,225.445163 C136.200742,225.800004 137.760887,226.205065 139.409124,227.75286 C140.508224,228.785273 141.407263,230.140417 141.407263,230.762829 C141.407263,232.204419 143.366706,236.03933 146.780912,241.281252 C148.255435,243.545314 150.633935,247.618157 152.066469,250.332562 C153.499003,253.046968 155.352242,256.010831 156.184593,256.918926 C157.016945,257.827021 158.512873,260.488736 159.508237,262.834304 C160.503601,265.17905 162.025052,267.737029 162.888689,268.51916 C163.753149,269.300467 164.459536,270.663021 164.459536,271.546417 C164.459536,272.42899 165.385744,274.25259 166.517775,275.597854 C168.721737,278.216757 169.22971,282.119178 167.546894,283.501491 C166.98129,283.966653 164.484235,285.009768 161.998706,285.819891 C157.440119,287.305116 153.745992,290.11667 153.769044,292.0827 C153.807739,295.366826 152.05412,295.291083 231.956594,295.458212 C304.064106,295.608875 308.822754,295.531485 309.669101,294.190336 C311.836839,290.754724 305.467825,284.504265 299.799435,284.504265 C296.147296,284.504265 295.767757,283.365647 297.431637,277.397578 C298.17178,274.739981 299.162204,270.899307 299.632306,268.861651 C300.102408,266.823994 300.973455,264.601097 301.56952,263.921878 C302.558298,262.793963 304.806718,256.242178 307.079837,247.867616 C310.048641,236.926842 313.841563,228.292942 316.5889,226.215768 C317.68306,225.389179 323.41649,225.175946 341.879714,225.275564 C363.883109,225.394119 365.960284,225.528316 368.37254,226.992959 C370.123689,228.056656 371.161865,229.457082 371.510942,231.227167 C371.798272,232.681107 372.339177,234.7978 372.712954,235.929831 C373.08673,237.061863 374.059042,240.951934 374.874928,244.574434 C375.68999,248.196934 376.658186,251.513168 377.025375,251.942928 C377.392565,252.372689 377.693068,253.382049 377.693068,254.184762 C377.693068,254.987475 378.584697,257.598968 379.67474,259.988995 C382.059004,265.214452 383.751699,270.244787 385.092025,276.086069 C386.365663,281.636727 385.215519,283.643098 379.857512,285.214769 C374.589244,286.760095 371.93,289.010985 371.93,291.925451 C371.93,293.223788 372.381989,294.566583 372.935243,294.90825 C373.947073,295.533131 489.181273,295.974418 491.102022,295.360239 C491.689031,295.172528 492.131141,293.674954 492.131141,291.87276 C492.131141,288.284838 489.958464,286.150856 486.305502,286.150856 C485.11337,286.150856 483.158043,285.241938 481.960148,284.132136 L479.781709,282.112592 L479.781709,255.474043 C479.781709,224.64492 479.557772,225.638638 486.507209,225.638638 C489.765813,225.638638 491.57871,226.125205 493.544739,227.527277 C496.36288,229.537765 496.413924,229.614332 501.822975,239.94916 C503.75772,243.645757 506.059654,247.388458 506.938934,248.267737 C507.81739,249.146194 509.679684,252.194857 511.075993,255.040989 C512.473126,257.887945 515.049217,262.254704 516.802014,264.745173 C518.553986,267.235642 520.20881,270.099064 520.478851,271.109247 C520.748892,272.118608 522.076044,274.820664 523.427896,277.114365 C527.284212,283.653801 527.177183,283.834103 518.064949,286.13686 C513.170457,287.374273 513.122706,287.414615 512.863368,290.581832 C512.719291,292.339568 512.926762,294.103067 513.32359,294.499896 C514.27532,295.451625 749.323712,295.380822 756.711966,294.426622 C762.814232,293.637905 765.079941,292.414488 762.98877,291.036291 C762.312845,290.590889 760.09324,290.329081 758.055584,290.453398 L754.350754,290.678981 L754.123525,277.114365 C753.998384,269.653661 753.56286,263.216314 753.154506,262.807959 C752.106451,261.759904 748.882426,262.729746 746.718805,264.745173 C745.517617,265.864855 744.882856,267.42006 744.882856,269.246953 C744.882856,272.314552 743.27002,274.427128 740.502924,274.982853 C737.211389,275.643959 689.466013,276.086069 678.44044,275.557513 C671.473714,275.223255 667.201633,274.666707 666.542997,274.006424 C665.322873,272.78383 664.858535,217.795925 666.024321,212.68573 C666.410447,210.995504 667.429686,209.235298 668.29003,208.775076 C670.003308,207.858748 686.465101,207.766539 689.643845,208.655698 C691.739132,209.241885 692.019053,209.632127 694.270766,215.096339 C696.096835,219.526492 698.877104,222.149511 701.373336,221.795494 C703.282558,221.525453 703.311374,221.368204 703.718082,209.172728 C703.944488,202.38054 704.017761,191.712277 703.880271,185.465934 C703.630812,174.125862 703.627519,174.10775 701.516589,173.305037 C698.420175,172.127724 694.542453,174.618193 693.212831,178.637521 C692.642287,180.362325 691.413107,182.843738 690.481137,184.152778 L688.786795,186.532102 L678.610039,186.532102 C670.946805,186.532102 668.146777,186.245595 667.272437,185.370432 C665.844019,183.942014 665.02978,166.996947 665.025663,138.622067 C665.023194,119.396471 665.049539,119.096792 666.853379,117.833856 C668.43987,116.722407 673.358237,116.551985 703.901676,116.551985 C738.022335,116.551985 739.170832,116.60303 740.766379,118.198576 C741.672004,119.104201 742.41297,120.251875 742.41297,120.749969 C742.41297,122.943228 745.30356,127.430189 747.422723,128.525995 C749.434034,129.565817 752.802135,130.138007 753.272237,129.518889 C753.35786,129.405274 753.636134,122.857605 753.889709,114.967141 L754.350754,100.622041 L758.323978,100.455735 C762.955839,100.262261 764.506927,99.212559 762.555717,97.5931368 C761.500252,96.7171504 760.506535,96.6776322 757.786366,97.4037788 C754.918005,98.1694436 754.113645,98.1060499 752.91328,97.0201231 C751.627293,95.8576299 748.398328,95.7958827 722.451347,96.4380532 C706.487648,96.8324118 676.19943,97.2004248 655.143648,97.2555856 C607.550582,97.3799033 603.134425,97.4704658 601.747172,98.3489221 C599.013831,100.081136 604.678104,106.88485 610.670049,109.068229 C612.915999,109.886585 614.763474,111.211267 615.391648,112.45362 C616.899926,115.43395 616.927094,282.271488 615.41964,283.482555 C612.910236,285.497983 598.371661,286.292463 592.045458,284.76031 C587.411951,283.638158 583.066598,279.199772 579.698496,272.148246 C578.176222,268.96127 576.930576,266.076442 576.930576,265.737244 C576.930576,265.398047 575.889107,263.832139 574.616293,262.257174 C573.343478,260.68221 571.078592,256.985613 569.581841,254.042332 C568.085913,251.099051 566.199743,247.949945 565.390443,247.04432 C564.073994,245.571445 561.363705,240.917355 557.061986,232.744501 C556.259273,231.218111 555.080314,229.365696 554.443083,228.628024 C552.025888,225.828819 548.78869,219.395588 549.225036,218.257794 C549.475318,217.605744 551.458637,216.266242 553.631314,215.280757 C555.804814,214.296096 558.879823,212.474966 560.464667,211.235083 C562.04951,209.9952 564.871767,208.207002 566.736532,207.262682 C570.143328,205.537055 578.463552,196.726147 583.203265,189.825284 C584.602867,187.787627 586.813415,182.971349 588.115046,179.122442 C590.279489,172.722143 590.47708,171.169408 590.426036,160.944901 C590.368405,149.544729 590.055553,147.883318 585.855923,136.722725 C584.336943,132.685284 578.642208,124.123834 575.593544,121.293344 C567.779647,114.040111 563.435117,110.625081 559.229723,108.430175 C556.512848,107.01246 553.884066,105.851614 553.388442,105.850791 C552.892818,105.849967 551.849703,105.145226 551.070865,104.284059 C550.001404,103.10263 549.901785,102.566665 550.664157,102.094917 C551.219881,101.751602 558.460765,101.426401 566.755467,101.37124 C577.294473,101.302083 582.13545,100.973588 582.827842,100.281197 C583.372863,99.736175 583.556458,99.0281408 583.236196,98.7070556 C582.915111,98.3867936 574.733201,97.9677362 565.052892,97.7767317 L547.453305,97.4284777 L546.042999,99.5805721 C544.308316,102.227467 543.767411,102.249696 541.292584,99.7748698 L539.333964,97.8170732 L477.912828,97.674643 C418.409146,97.5371527 416.464522,97.5816107 415.656046,99.0915346 C415.043514,100.237562 415.193354,101.393469 416.222474,103.455824 C417.350388,105.714947 418.487359,106.537419 422.067048,107.68427 C430.411148,110.356687 429.560684,100.326478 429.560684,196.071627 L429.560684,280.275819 L427.052102,282.061547 C423.484763,284.602237 418.833144,285.006475 413.112886,283.275085 L408.292491,281.815382 L405.824252,273.897749 C404.466637,269.543339 402.750066,263.757219 402.0091,261.040344 C401.268134,258.323469 399.982147,254.618639 399.151442,252.807389 C398.319913,250.996139 397.070974,247.47655 396.376112,244.986082 C395.680428,242.495613 394.314581,237.679334 393.341445,234.28324 C392.367487,230.887146 391.284853,226.764083 390.935776,225.120785 C390.585875,223.477487 389.500772,220.840471 388.524343,219.260567 C387.547915,217.680663 386.749318,215.760738 386.749318,214.993427 C386.749318,213.737078 386.156546,211.512534 383.335112,202.174716 C382.855954,200.589872 381.575729,197.370787 380.489803,195.021925 C379.404699,192.67224 378.516363,190.314321 378.516363,189.780826 C378.516363,189.24733 377.978751,187.094413 377.322585,184.995832 C376.665595,182.897252 375.746797,179.698749 375.280812,177.887499 C373.352654,170.392217 371.082005,163.335751 369.439531,159.728894 C367.834928,156.207659 363.827125,141.873261 361.982943,133.06647 C361.562239,131.055159 360.478783,128.623144 359.575627,127.661535 C358.672472,126.699926 357.933976,124.900202 357.933976,123.661965 C357.933976,122.423729 357.356846,120.29304 356.650459,118.928839 C355.944894,117.563815 355.482202,115.266821 355.621339,113.823584 C355.841982,111.550465 356.476743,110.907471 360.38328,109.004836 C364.082347,107.203465 365.157571,106.181755 366.377695,103.308454 C367.442216,100.801519 367.611815,99.5550499 366.975407,98.9178192 C365.734701,97.6762896 287.753799,97.2243004 285.47327,98.4452476 C281.735509,100.445856 285.469154,107.513847 290.935836,108.786662 C294.823437,109.691464 297.01011,111.465666 297.01011,113.715732 C297.01011,116.253952 294.234781,124.648273 292.043992,128.735112 C291.153186,130.398169 290.423746,132.46711 290.423746,133.333217 C290.423746,134.198501 289.707479,136.982886 288.831493,139.51946 C287.955506,142.056856 286.628354,146.355282 285.881625,149.072157 C285.134896,151.789032 283.673546,156.049586 282.634548,158.540055 C281.595549,161.030524 280.173717,165.105837 279.474739,167.596306 C278.775762,170.086774 277.618208,174.111866 276.903588,176.541411 C276.188967,178.970133 275.604427,181.453192 275.604427,182.058314 C275.604427,182.66426 274.315147,186.092462 272.738536,189.677091 C271.161925,193.262542 269.358084,198.401553 268.729087,201.097846 C268.100089,203.793315 267.167295,206.781878 266.655205,207.737724 C266.143939,208.69357 265.724881,210.279237 265.724881,211.261428 C265.724881,212.242797 264.828313,214.768667 263.732506,216.873011 C262.6367,218.977354 261.370472,222.180797 260.917659,223.992047 C258.385202,234.125168 255.489672,243.480274 254.073604,246.106587 C253.246192,247.640386 250.066625,257.313285 248.353347,263.51023 C247.85196,265.32148 246.959507,268.285344 246.370851,270.096594 C245.781372,271.907844 245.082394,274.315983 244.818116,275.448015 C244.553838,276.580046 243.113071,278.942904 241.615496,280.69817 C239.242759,283.480909 238.33878,283.943601 234.57138,284.305851 C231.470849,284.603884 229.330281,284.306674 227.000355,283.256149 C224.105648,281.950402 223.301288,280.866946 219.621157,273.312386 C217.348862,268.649241 215.113615,264.601097 214.653392,264.31706 C214.19317,264.032199 212.483185,261.140786 210.853884,257.892062 C209.224582,254.642514 207.408392,251.702526 206.818089,251.359212 C206.227786,251.015898 203.844346,246.75699 201.521829,241.896254 C199.200136,237.034694 196.607579,232.313917 195.760408,231.405823 C193.45271,228.930996 189.981696,221.574028 189.981696,219.157656 C189.981696,216.96769 191.946903,215.21654 195.650909,214.106738 C196.731896,213.783183 199.26106,212.262556 201.271548,210.727933 C203.282035,209.19331 205.299932,207.937785 205.756038,207.937785 C207.149054,207.937785 218.253664,198.25583 220.44363,195.132247 C221.575661,193.517764 223.69894,190.710326 225.161936,188.894137 C226.624932,187.077123 228.223772,184.04328 228.716103,182.150523 C229.20761,180.25859 229.947753,177.599346 230.360224,176.240908 C233.542261,165.766943 234.315335,157.643486 232.711556,151.542044 C232.234868,149.730794 231.562235,146.76693 231.216451,144.95568 C228.634596,131.45281 216.186369,115.971562 201.689782,108.235878 C197.785714,106.15294 194.46701,104.074942 194.315524,103.618836 C194.163214,103.162731 196.182758,102.534556 198.802484,102.223351 C204.546617,101.540015 256.382124,101.551542 259.809503,102.237347 C264.291524,103.133915 268.182419,99.0849482 263.872467,98.0080777 C262.853227,97.7536794 245.718801,97.7059283 225.79505,97.9018726 C205.871299,98.0978169 188.643841,98.2311908 187.51181,98.1974357 C183.874491,98.0904073 177.293066,98.1126362 174.75073,98.240247 C173.392292,98.3094039 160.483842,98.1612107 146.066292,97.9109289 L119.850917,97.457293 L120.370416,95.6847379 C121.597127,91.4908706 121.765079,88.6702603 120.884976,87.0261392 C119.77188,84.9448482 118.929649,84.8172374 117.519344,86.5165193 C116.81625,87.3636903 116.626068,89.351949 116.929041,92.6912355 Z M70.7125256,87.5341125 C69.3499716,90.0789189 69.5442693,94.2843122 71.0509,94.8622657 C72.7139569,95.5003197 73.0580944,95.0763225 73.5792405,91.7493854 C73.8525746,90.003999 73.5743007,88.3812836 72.8292183,87.3826261 C71.6650785,85.8216579 71.6272069,85.8249511 70.7125256,87.5341125 M428.742328,88.1351182 C427.593831,91.1557894 427.700859,92.3454513 429.261004,93.9055963 C431.175166,95.8197583 432.184526,94.3814611 431.877437,90.176891 C431.576934,86.0562971 429.938576,84.9893062 428.742328,88.1351182 M475.1729,87.2385494 C474.930852,87.8700171 474.849345,89.814641 474.992599,91.5608507 C475.200069,94.0850747 475.586195,94.7346549 476.880415,94.7346549 C479.109899,94.7346549 480.395887,90.9754877 479.123072,88.1812228 C478.091483,85.9163369 475.882581,85.3886045 475.1729,87.2385494 M662.102965,88.0108006 C661.380934,90.887395 661.937482,93.0880639 663.388129,93.0880639 C665.09482,93.0880639 665.46695,88.307187 663.863994,86.9767415 C662.821701,86.1106346 662.537665,86.2777636 662.102965,88.0108006 M750.970303,87.2558386 C750.257329,89.1140166 750.96207,92.9299911 752.086692,93.2988275 C752.809545,93.5359366 753.115811,92.5134036 753.115811,89.8632154 C753.115811,86.2547113 751.914623,84.7950084 750.970303,87.2558386 M616.279161,88.806104 C616.072514,89.8854444 616.235526,91.6604695 616.641411,92.751336 C617.314043,94.5592929 617.451534,94.6053975 618.201556,93.2724821 C619.223266,91.4571155 618.82726,87.5571648 617.580791,87.1479869 C617.071171,86.9808579 616.484985,87.727587 616.279161,88.806104 M773.28655,97.348618 C769.675576,98.1472147 769.255696,98.4427777 770.277405,99.4644874 C770.96568,100.152762 775.378544,100.374229 785.407107,100.225212 C793.194659,100.109128 799.726685,99.8547295 799.922629,99.6587852 C800.11775,99.4628409 799.809838,98.7375175 799.236824,98.0475959 C798.38636,97.022593 796.06302,96.8101828 786.56466,96.8883959 C780.166831,96.9410868 774.192175,97.1477339 773.28655,97.348618 M4.48005009,98.2764721 C1.20827382,98.4460709 -0.203677947,98.8371363 0.0235516082,99.5114153 C0.267247073,100.237562 5.18396773,100.502663 18.6497888,100.516659 C35.9686327,100.534772 39.6981612,100.191457 38.2244623,98.7169351 C37.6020509,98.0945237 13.9331289,97.7857879 4.48005009,98.2764721 M45.2372933,98.2015522 C41.2006755,98.719405 42.4759602,100.454089 47.1135837,100.752945 C50.5788344,100.976881 53.4850675,99.9823403 52.4345424,98.9318153 C51.7437975,98.2410703 47.9377025,97.8541215 45.2372933,98.2015522 M271.236845,98.4855891 C268.831175,99.9584647 271.063129,101.732667 275.319567,101.732667 C277.831442,101.732667 279.099317,101.341601 279.436868,100.462322 C279.705262,99.7633437 279.724198,98.9910925 279.478856,98.7465738 C278.537829,97.805547 272.65209,97.618659 271.236845,98.4855891 M372.753295,98.5473363 C370.752687,99.3533426 370.739514,99.4093266 372.293073,100.554531 C373.172352,101.202464 375.116976,101.732667 376.615374,101.732667 C378.790521,101.732667 379.339659,101.400878 379.339659,100.086076 C379.339659,99.1804505 378.814396,98.4394846 378.172226,98.4394846 C377.530055,98.4394846 376.510816,98.2772953 375.908163,98.0797044 C375.304688,97.8812902 373.885326,98.0920539 372.753295,98.5473363 M386.861287,98.4995851 C385.26821,99.1376391 385.096141,99.4982426 385.914497,100.484551 C388.22631,103.269759 396.628864,102.723914 396.628864,99.7880426 C396.628864,97.7545027 390.681378,96.9699021 386.861287,98.4995851 M404.244347,98.1974357 C402.172113,98.5959107 401.752232,100.487844 403.579125,101.188468 C405.468588,101.913792 410.624888,100.79658 410.624888,99.6629017 C410.624888,98.7795056 407.749116,97.4358874 406.50841,97.7396834 C406.282004,97.7948442 405.263587,98.0006681 404.244347,98.1974357 M587.825245,99.4274391 C588.062355,100.137943 589.750934,100.497723 592.847348,100.497723 C599.301161,100.497723 599.174374,98.9104096 592.696685,98.6041437 C588.692176,98.4147857 587.551911,98.6074368 587.825245,99.4274391 M480.695567,118.028977 C479.745484,119.804826 479.344539,156.442298 480.24934,158.80104 C480.619,159.763472 481.78808,159.929778 485.806585,159.589757 C488.60579,159.352648 491.245275,158.837265 491.671742,158.444553 C492.099032,158.051018 492.478572,155.735088 492.51562,153.296486 C492.657227,144.064874 497.144187,144.51357 497.894209,153.834922 L498.305857,158.951703 L503.411112,159.363351 C509.175004,159.828513 511.125391,161.013235 509.449162,163.033602 C508.723015,163.908765 506.922468,164.303124 503.657278,164.303124 C497.778948,164.303124 496.673262,165.368468 497.415875,170.318121 C497.848105,173.203771 497.65463,174.143975 496.393342,175.285885 C495.000326,176.546351 494.726992,176.56117 493.788435,175.430786 C493.212128,174.735924 492.65311,172.36401 492.547728,170.160871 C492.294153,164.89672 491.824875,164.303124 487.911752,164.303124 C486.098032,164.303124 483.857021,163.898062 482.93246,163.403262 C481.908281,162.85577 480.955728,162.799786 480.493859,163.261655 C479.647511,164.108003 479.426868,201.937607 480.255104,204.097111 C480.712032,205.287596 482.315812,205.466252 492.425057,205.455985 C506.919175,205.440729 511.87706,203.89458 522.989079,195.92261 C527.832527,192.44748 536.049015,180.936162 538.502436,174.189256 C540.900696,167.593012 540.818366,154.482032 538.327897,146.466427 C537.320184,143.222643 535.997971,140.37651 535.390379,140.143518 C534.781964,139.910525 533.235815,137.793009 531.953944,135.437561 C530.30159,132.401247 527.857225,129.810336 523.55139,126.529503 C512.602383,118.188697 510.190127,117.390923 494.074118,116.788271 C482.061414,116.338752 481.576493,116.38321 480.695567,118.028977 M121.828473,118.816048 C121.502448,119.608881 121.236523,139.257652 121.236523,162.481171 C121.236523,199.086535 121.401182,204.817495 122.471466,205.554344 C123.2643,206.100189 128.27323,206.237679 136.46749,205.938823 C150.041986,205.444023 155.357181,204.254361 160.006331,200.670555 C161.323604,199.655432 164.282528,197.397132 166.581992,195.652569 C172.932893,190.833821 179.255803,181.069536 181.430126,172.724613 C182.729287,167.736266 182.954046,154.563538 181.804726,150.777202 C181.382375,149.386656 180.553317,146.585805 179.961367,144.553088 C179.369418,142.520372 178.291724,140.263719 177.566401,139.538395 C176.841077,138.813072 174.814947,136.061619 173.064621,133.424603 C171.314295,130.786764 168.804067,128.041897 167.486794,127.324807 C166.170344,126.606893 163.626361,124.822812 161.835694,123.359816 C160.044203,121.89682 157.030941,120.304566 155.138185,119.820468 C153.246252,119.337194 150.624056,118.588818 149.311723,118.158235 C147.998566,117.727651 141.411379,117.375281 134.671882,117.375281 C123.777213,117.375281 122.354558,117.535 121.828473,118.816048 M135.744636,131.60018 C134.664473,132.680344 134.524512,139.508757 135.549515,141.125709 C135.936464,141.736594 136.949941,142.103784 137.801228,141.942418 C140.428364,141.444324 140.435774,132.122973 137.809461,131.114436 C137.18211,130.874034 136.25261,131.092207 135.744636,131.60018 M492.983252,132.963558 C491.79359,135.186455 491.918731,137.506502 493.419598,141.071372 C494.647955,143.988307 494.76404,144.057464 495.889485,142.534368 C497.322842,140.595507 497.452923,133.729222 496.082959,132.359259 C494.702293,130.978592 493.96956,131.121846 492.983252,132.963558 M552.324744,138.437649 C548.601802,143.170775 550.987712,148.895972 555.90361,147.026268 C558.758798,145.941164 559.197615,144.426301 557.871286,140.243136 C556.535077,136.028687 554.691719,135.428504 552.324744,138.437649 M339.9425,146.808095 C338.542898,149.579307 336.655081,155.296271 334.844654,162.244885 C332.555069,171.031918 331.454323,174.446124 330.382393,176.081189 C329.713877,177.102075 328.016241,182.37199 326.610053,187.791744 C325.203864,193.212321 323.554803,198.202315 322.945565,198.881534 C322.336326,199.560753 321.59042,201.105255 321.289094,202.31303 C320.86345,204.018898 321.112909,204.707996 322.405483,205.400388 C324.903361,206.736596 359.940347,206.611456 361.043563,205.262074 C362.092442,203.97938 361.081435,197.140264 359.179622,192.649187 C357.672992,189.092551 356.632346,185.935213 353.905591,176.652556 C352.908581,173.256462 351.369018,169.107876 350.484799,167.433293 C349.600579,165.75871 348.877726,163.616495 348.877726,162.672999 C348.877726,159.488492 343.35506,143.720736 342.240318,143.720736 C341.83361,143.720736 340.800374,145.110459 339.9425,146.808095 M135.808853,146.355282 C135.256422,146.907713 134.820899,149.557078 134.820899,152.365339 C134.820899,155.1736 134.385375,157.822965 133.832944,158.375396 C133.289569,158.918771 131.137475,159.363351 129.050421,159.363351 C126.937021,159.363351 124.547818,159.910019 123.657835,160.598294 C122.076285,161.820888 122.076285,161.845587 123.657835,163.06818 C124.537115,163.747399 126.82176,164.303124 128.735922,164.303124 C134.261058,164.303124 134.820899,164.770756 134.820899,169.385327 C134.820899,174.764739 135.966926,176.978581 138.148659,175.811148 C139.44041,175.11958 139.760672,174.073995 139.760672,170.549467 C139.760672,164.920595 140.871297,163.910412 146.275409,164.627502 C149.392406,165.040796 150.60759,164.864611 151.62189,163.851134 C154.36758,161.104621 152.974564,160.062329 146.157678,159.761826 C143.084316,159.626805 140.934691,159.118832 140.495051,158.424794 C140.104809,157.808969 139.780431,155.064102 139.773021,152.324174 C139.762318,147.929423 138.847637,145.367327 137.290785,145.367327 C137.019098,145.367327 136.352228,145.811907 135.808853,146.355282 M203.633582,155.507035 C201.600042,156.993906 202.273498,159.705842 204.763144,160.059035 C207.351585,160.426225 209.190827,158.119351 208.033273,155.956554 C207.067548,154.151067 205.681118,154.010283 203.633582,155.507035 M514.483613,160.449277 C513.311241,161.862053 514.467148,163.061594 517.803964,163.899709 C521.117729,164.731237 523.56127,163.681536 523.258297,161.55661 C523.04671,160.069738 522.37984,159.734657 519.227442,159.529656 C516.722977,159.366644 515.124961,159.676203 514.483613,160.449277 M157.873172,161.25693 C157.873172,163.07312 159.728057,164.303124 162.465515,164.303124 C165.207089,164.303124 167.446452,162.513279 166.540004,161.046167 C165.738114,159.748653 157.873172,159.940481 157.873172,161.25693 M297.919028,175.446428 C295.112414,178.642461 294.892594,179.658408 296.327598,182.808336 C298.296098,187.127345 304.423886,186.157502 306.035898,181.272067 C307.121002,177.985471 306.384976,175.899241 303.407116,173.81301 C300.944639,172.088206 300.839257,172.119491 297.919028,175.446428 M135.586564,179.230294 C134.469352,181.317348 134.955919,189.466327 136.276485,190.786893 C136.773756,191.284163 137.760887,191.467758 138.470568,191.195248 C139.471695,190.810769 139.760672,189.410343 139.760672,184.940672 C139.760672,180.064293 139.513683,179.048346 138.148659,178.317259 C136.834679,177.614165 136.361285,177.782941 135.586564,179.230294 M493.767852,180.368912 C492.613592,181.760281 493.214598,188.768172 494.60926,190.162835 C496.019566,191.57314 497.429047,189.202872 497.287441,185.656115 C497.045392,179.585958 495.876312,177.829045 493.767852,180.368912 M547.841077,179.671581 C546.893464,180.61837 547.240894,181.592329 548.526882,181.592329 C549.206101,181.592329 549.761825,181.036604 549.761825,180.357386 C549.761825,179.071398 548.787867,178.723967 547.841077,179.671581 M514.085962,219.189764 C513.221501,220.054224 513.444615,222.603147 514.439155,223.217326 C514.935603,223.524415 515.922734,223.194273 516.632415,222.484593 C517.696112,221.420895 517.737277,220.968082 516.864584,219.916734 C515.71691,218.533598 514.943836,218.33189 514.085962,219.189764 M770.411603,291.069223 C769.412122,291.700691 769.380013,292.041535 770.240357,292.901879 C770.995319,293.656841 774.999828,294.009211 784.229794,294.133529 C791.342244,294.229855 797.810876,294.115417 798.602887,293.879131 C800.398494,293.343989 800.483294,291.43559 798.7412,290.767074 C796.628624,289.956128 771.751928,290.221229 770.411603,291.069223 M0.907770963,292.943044 C-0.271188177,294.851443 2.66550683,295.207106 19.6081047,295.207106 C31.4684995,295.207106 37.672031,294.91566 37.672031,294.358289 C37.672031,293.890657 37.209339,293.354692 36.6429117,293.166157 C34.7312195,292.528926 1.29307325,292.319809 0.907770963,292.943044 M42.611804,293.581098 C42.611804,294.83086 46.7924984,296.192591 48.9602355,295.648393 C49.9967645,295.388231 50.8447588,294.626683 50.8447588,293.956521 C50.8447588,293.041839 49.8148162,292.73722 46.7282814,292.73722 C44.4642188,292.73722 42.611804,293.116759 42.611804,293.581098 M71.1035909,298.979446 C70.2811187,301.121661 70.5330472,303.1799 71.7391751,304.181027 C72.6406836,304.92858 72.9411865,304.737575 73.1955848,303.25235 C73.9085587,299.098824 72.3105421,295.835281 71.1035909,298.979446 M117.061592,300.49925 C116.785788,301.598349 116.817896,303.311627 117.134042,304.306991 C117.950751,306.880613 116.428477,307.52937 109.533378,307.544189 C104.511275,307.554892 103.461574,307.802704 102.74119,309.148792 C102.266148,310.036305 101.889079,316.02331 101.889079,322.674714 C101.889079,332.502392 102.121248,334.839728 103.203059,335.921538 C104.316978,337.03628 106.532466,337.200939 117.805851,337.009112 C130.060604,336.800818 131.118539,336.663327 131.392696,335.235733 C131.869384,332.75432 130.045785,332.281749 119.953005,332.267753 C110.364083,332.255403 108.328073,331.716968 107.446324,328.962221 C107.228974,328.283003 107.384577,327.078521 107.792108,326.286511 C108.440865,325.026046 109.874222,324.845744 119.233445,324.845744 C128.218069,324.845744 130.012853,324.63745 130.431087,323.546584 C130.705245,322.832787 130.348758,321.667 129.639077,320.957319 C128.619837,319.93808 126.251216,319.64828 118.381334,319.580769 C108.145302,319.491853 106.320055,318.896611 107.429035,316.006844 C108.197992,314.002119 111.571034,313.319607 120.713731,313.319607 C129.808676,313.319607 131.527717,312.774586 131.527717,309.890581 C131.527717,307.97148 128.773793,306.566114 126.252863,307.199229 C125.143884,307.477502 123.430606,307.44951 122.444298,307.136658 C120.964012,306.666556 120.737606,306.140471 121.143491,304.112694 C122.054879,299.555753 118.163161,296.109438 117.061592,300.49925 M475.761557,300.322241 C474.734084,303.10004 475.589488,305.214263 477.624674,304.92364 C479.657391,304.63384 480.431289,301.509433 478.920542,299.68995 C477.528349,298.012897 476.542864,298.209665 475.761557,300.322241 M616.822536,299.537641 C616.115325,301.379353 616.694925,304.71123 617.683703,304.494703 C618.136516,304.395907 618.628846,303.331386 618.777039,302.130198 C619.098948,299.526938 617.59314,297.5288 616.822536,299.537641 M662.877686,300.490194 C662.195997,302.266042 663.14361,304.478237 664.406545,304.057533 C664.972149,303.868998 665.434841,302.849758 665.434841,301.79347 C665.434841,299.536817 663.601362,298.602377 662.877686,300.490194 M751.02464,300.200394 C750.726607,300.682845 750.715905,302.31791 750.999942,303.83442 C751.479923,306.390752 751.337493,306.631155 749.041322,307.135835 C747.679591,307.434691 744.611992,307.45445 742.225258,307.178646 C735.705581,306.426154 733.249691,307.411639 732.184346,311.207031 L731.29848,314.361899 L727.927085,310.989681 L724.55569,307.618286 L711.382139,307.382 C700.790443,307.190996 697.924551,307.380354 696.761235,308.345256 C695.453841,309.431183 695.365749,310.72952 695.844084,321.88435 C696.149526,329.005856 696.763705,334.694005 697.298023,335.336998 C697.80682,335.94953 698.995659,336.340596 699.940802,336.205575 C701.384862,335.999751 701.725707,335.235733 702.071491,331.432108 L702.483138,326.903983 L712.353628,326.670167 C723.547977,326.405066 724.300469,326.768962 724.300469,332.438998 C724.300469,335.896016 725.982462,337.289855 728.323091,335.771698 C729.853597,334.779627 729.882412,330.940601 728.393894,326.424825 C727.52861,323.800159 727.647988,323.030377 729.479821,319.426813 L731.538883,315.377846 L732.142358,320.200711 C732.474146,322.853369 732.54248,326.991252 732.293845,329.396098 C731.549586,336.60899 731.795751,336.736601 747.12716,337.058509 C758.243295,337.293149 760.369867,337.140016 761.282079,336.040093 C761.873205,335.328765 762.141599,334.186031 761.878145,333.501049 C761.487079,332.480163 759.527636,332.255403 751.02958,332.255403 C745.324966,332.255403 739.941437,331.871748 739.06545,331.403293 C738.047857,330.858271 737.473197,329.680958 737.473197,328.138926 C737.473197,324.618514 739.375833,324.022449 750.617932,324.022449 C758.901108,324.022449 760.660491,323.805099 761.072139,322.732345 C762.042804,320.203181 759.944224,319.566773 751.335023,319.77589 C740.636298,320.035228 738.296492,319.547838 738.296492,317.059839 C738.296492,316.019193 738.760007,314.799069 739.325611,314.348727 C739.892039,313.898384 744.430044,313.33525 749.410981,313.096494 C759.991152,312.588521 761.348766,312.182636 761.348766,309.526685 C761.348766,307.928668 760.920652,307.554069 759.084703,307.545013 C754.025552,307.520314 753.115811,306.817219 753.115811,302.932088 C753.115811,299.498123 752.19866,298.300228 751.02464,300.200394 M429.951749,301.827225 C429.651246,302.31297 429.628194,303.598134 429.900705,304.683237 C430.333758,306.408865 430.059601,306.712661 427.714032,307.103726 C426.23951,307.349068 423.365385,307.644631 421.327729,307.759069 C418.225551,307.934431 417.580911,308.260456 417.366854,309.764617 C417.074584,311.81874 419.461318,313.471094 422.360141,313.222458 C425.66238,312.939245 429.121044,313.327017 430.383979,314.123144 C431.343942,314.728266 431.710308,317.338112 432.03057,325.833699 C432.401877,335.699248 432.592881,336.794231 433.990013,337.060979 C436.490362,337.539314 436.944821,335.705012 436.957994,325.080383 C436.97199,313.466154 437.067492,313.319607 444.572654,313.319607 C449.198751,313.319607 450.966366,312.357998 450.966366,309.841184 C450.966366,307.627342 447.195673,306.531536 441.752043,307.163004 C439.172659,307.462683 435.929698,307.458567 434.546561,307.154771 C432.455391,306.696195 432.03057,306.204688 432.03057,304.246891 C432.03057,301.73337 430.854904,300.365053 429.951749,301.827225 M68.15043,307.39188 C66.1210066,307.544189 63.9911412,308.060396 63.416481,308.537084 C62.6516395,309.171845 62.3708957,312.904666 62.3708957,322.417846 C62.3708957,337.069212 62.6878645,337.954255 67.9865942,338.103271 C73.9991212,338.27287 84.2787887,337.961664 88.5689814,337.481683 C94.4860061,336.81893 97.2794477,334.373743 99.0404768,328.314288 C100.220259,324.256264 100.263071,322.994152 99.3533291,319.084322 C97.9586665,313.086615 93.6347186,308.680337 88.5319331,308.057102 C83.3912761,307.429751 72.4052211,307.070794 68.15043,307.39188 M195.571873,307.512904 C182.017136,308.022524 181.838481,308.103207 180.028054,314.55455 C178.934718,318.449561 179.711085,329.72624 181.342034,333.62866 C183.084127,337.798652 184.970297,338.329678 198.214651,338.382368 C211.354447,338.435059 215.092209,337.56072 216.396309,334.131694 C217.368621,331.573715 217.362858,326.335086 216.384783,323.762287 C215.655343,321.844009 215.216527,321.730394 207.122709,321.360734 C200.523172,321.060231 198.350495,321.233123 197.391356,322.136279 C196.298019,323.166221 196.339184,323.435439 197.754429,324.484317 C198.633709,325.136367 200.92494,325.66904 202.846512,325.66904 C207.961647,325.66904 210.564084,326.877637 210.564084,329.252845 C210.564084,332.587192 208.82446,333.217836 199.576382,333.236772 C186.691808,333.26394 185.378651,332.229881 185.139072,321.869531 C185.067446,318.750888 185.484857,317.09524 186.748615,315.488991 C188.416612,313.367358 188.666894,313.319607 198.02447,313.319607 C207.005801,313.319607 207.785461,313.452158 210.703221,315.474171 C216.766792,319.676272 218.717179,314.84682 213.0315,309.71028 C211.219427,308.072745 209.27398,306.806517 208.709199,306.895432 C208.144418,306.985172 202.233157,307.263446 195.571873,307.512904 M269.22718,307.362241 C267.626694,307.540896 265.398856,308.751141 263.669936,310.381266 C260.40063,313.46533 259.832556,317.323293 262.025815,321.563265 C263.633711,324.673675 267.292436,325.65669 278.547709,326.004944 C287.485405,326.280748 289.145168,326.853762 288.638842,329.485837 C288.078177,332.396187 284.368408,333.294402 275.527038,332.661288 C267.78065,332.10721 267.324545,331.970543 266.337413,329.902425 C264.916405,326.928682 261.90726,326.582074 260.69043,329.252845 C259.914062,330.957066 260.03838,331.697209 261.428926,333.650066 C263.766261,336.931722 270.588088,338.360963 281.42595,337.838993 C289.057076,337.471804 289.84003,337.273389 292.062104,335.145171 C295.075366,332.258697 295.84844,328.99433 294.251247,325.906149 C292.454816,322.431842 290.234388,321.67194 279.188233,320.752319 C267.806996,319.803882 266.548177,319.475388 266.548177,317.448434 C266.548177,314.55702 268.79989,313.817701 277.484011,313.858042 C285.788593,313.895914 285.805882,313.900854 287.967032,316.489295 C290.376818,319.376592 291.390295,319.659806 292.88046,317.863375 C293.701285,316.874597 293.482289,315.945096 291.720437,312.939245 C290.525835,310.900765 288.912176,308.90592 288.134161,308.506622 C286.556727,307.696499 273.38153,306.898726 269.22718,307.362241 M455.111659,308.325497 C454.643204,309.201483 454.265312,314.85176 454.271813,320.880753 C454.285071,332.726328 455.063085,335.774168 458.189138,336.222864 C460.430971,336.544773 461.669208,333.815548 461.669208,328.55222 C461.669208,325.832875 462.019932,324.856447 463.109975,324.546888 C465.738757,323.798512 483.101236,324.542771 484.001098,325.442633 C484.484372,325.925908 485.122426,328.265713 485.418813,330.641744 C486.032991,335.574931 487.95621,337.606824 490.039147,335.523887 C490.979351,334.58286 491.306199,331.909619 491.42146,324.21757 C491.504613,318.676791 491.884152,314.142903 492.263692,314.142903 C492.643231,314.142903 492.995601,316.272768 493.046646,318.876852 C493.335622,333.728279 493.517571,335.702542 494.661128,336.426218 C495.975108,337.257747 517.82537,337.457808 520.783471,336.664974 C522.130382,336.304371 522.60707,335.651497 522.430062,334.412438 C522.195422,332.763377 521.65781,332.655525 512.713528,332.46452 C499.742508,332.18707 499.5408,332.12203 499.5408,328.178444 C499.5408,324.168172 499.833894,324.06773 511.376496,324.14018 C520.347124,324.196164 522.198715,323.628913 521.236283,321.120332 C520.753832,319.86316 513.242907,319.062093 507.497128,319.654866 C502.566411,320.163663 499.5408,319.034101 499.5408,316.684416 C499.5408,313.807821 501.664903,313.142599 511.625955,312.897257 C519.879492,312.693903 521.420701,312.441151 522.376547,311.137051 C523.352152,309.804959 523.255827,309.422126 521.601826,308.074392 C519.887725,306.677259 518.533404,306.569407 507.052548,306.914368 C494.862012,307.280735 494.337573,307.368004 492.868814,309.27805 C491.644573,310.871126 491.340777,310.983095 491.325958,309.849417 C491.316078,309.073049 490.543004,308.028287 489.608564,307.528547 C486.956729,306.109185 485.658392,307.838106 485.377648,313.161534 C485.166884,317.16769 484.849916,317.949821 483.074891,318.844743 C480.954081,319.913381 465.423435,320.347257 462.971661,319.406231 C462.016639,319.039864 461.669208,317.771989 461.669208,314.650053 C461.669208,309.921043 460.004504,306.733243 457.534618,306.733243 C456.670981,306.733243 455.580938,307.44951 455.111659,308.325497 M549.657267,308.484393 C548.095475,310.046184 547.963748,310.822552 548.438789,315.688228 C548.731883,318.687494 548.945939,323.967288 548.914654,327.421836 C548.871019,332.224941 549.178109,334.024665 550.220401,335.066134 C552.329684,337.175417 553.698001,335.3724 553.625551,330.579997 C553.591796,328.323344 553.974628,326.066691 554.476015,325.565304 C555.045736,324.995584 558.766208,324.687671 564.358031,324.747772 C573.880267,324.848214 576.882825,323.937649 575.855352,321.260292 C575.423946,320.136494 574.01858,319.905971 567.591112,319.905971 C555.3166,319.905971 552.806372,318.818398 554.28995,314.142903 C554.777341,312.60828 555.535596,312.496312 565.430785,312.496312 C575.316094,312.496312 576.112221,312.379404 576.958568,310.79703 C578.832389,307.296377 576.98903,306.733243 563.657406,306.733243 C552.262997,306.733243 551.286568,306.855091 549.657267,308.484393 M581.147496,307.847985 C580.638699,308.460517 580.243517,309.85024 580.26904,310.935343 C580.294562,312.020447 580.294562,316.678653 580.267393,321.288284 C580.211409,331.169477 580.801712,333.107514 584.583108,335.444027 C587.098276,336.999232 588.637015,337.195176 598.30662,337.195176 C614.585642,337.195176 615.414701,336.366941 616.21906,319.291793 C616.690809,309.285459 616.177072,307.556539 612.731581,307.556539 C610.162075,307.556539 609.862396,308.794775 609.862396,319.404584 C609.862396,331.560542 609.719142,331.753193 600.429899,332.135202 C591.841281,332.488396 587.984965,331.856105 587.20942,329.969112 C586.888335,329.188628 586.442932,324.104778 586.219819,318.671028 C585.904497,310.978978 585.524958,308.563429 584.508188,307.762363 C582.849248,306.454969 582.291053,306.468965 581.147496,307.847985 M625.101595,307.556539 C620.011159,307.875154 618.46748,308.25881 618.278946,309.254174 C617.823663,311.648317 620.864093,313.317961 626.257502,313.636576 C629.082229,313.802882 631.696192,314.263104 632.065852,314.658286 C633.206939,315.87841 634.561261,323.833914 634.561261,329.313769 C634.561261,335.116355 635.956746,337.465217 638.26609,335.548585 C639.235109,334.744226 639.501033,332.451348 639.501033,324.909961 C639.501033,318.529421 639.833645,314.962905 640.488988,314.307562 C641.032363,313.764187 643.595282,313.319607 646.184546,313.319607 C648.773811,313.319607 651.478336,313.094848 652.194603,312.819867 C653.737459,312.227917 653.949046,308.481923 652.467937,307.977243 C650.774419,307.400113 632.17041,307.114429 625.101595,307.556539 M687.759322,307.990415 C686.683275,309.066463 686.428876,311.195505 686.428876,319.14113 C686.428876,331.943374 686.149779,332.289982 675.931859,332.173074 C671.970161,332.127793 667.801816,331.835523 666.669785,331.52267 C663.687808,330.697728 662.55907,326.662757 662.719613,317.396566 C662.794533,313.072619 662.580476,309.089515 662.244571,308.54614 C661.357882,307.111959 657.876165,307.331779 657.289979,308.858992 C656.658511,310.50476 656.782006,322.997446 657.489217,328.939992 C657.985664,333.114924 658.266408,333.585026 661.318364,335.347701 C664.401606,337.129313 665.356628,337.235518 676.322101,337.017345 C691.297846,336.718488 691.029452,336.930899 692.789657,323.976344 C694.191729,313.658805 693.716688,309.704517 690.84668,307.815877 C689.316174,306.808163 688.919345,306.830392 687.759322,307.990415 M138.372595,309.161965 C136.929358,310.042068 135.38074,311.449903 134.930397,312.292134 C134.062644,313.913203 134.565677,320.208121 135.747106,322.511701 C136.639558,324.250501 143.028331,325.640224 150.709678,325.766188 C159.068597,325.903679 161.525311,326.548319 161.830754,328.682301 C162.387302,332.574019 155.619813,334.043601 144.711147,332.400303 C141.747284,331.954077 140.797201,331.386003 139.908865,329.531119 C137.809461,325.148717 132.821937,328.166918 134.459472,332.82924 C135.684536,336.31672 140.013423,337.537667 151.286808,337.575539 C156.494152,337.592828 161.718786,337.33596 162.896098,337.004172 C164.074234,336.673207 166.037794,334.959106 167.259564,333.195607 C169.980556,329.269311 169.554089,326.482455 165.803155,323.674195 C163.597546,322.023487 161.861216,321.65959 153.806916,321.15738 C142.48578,320.451816 140.583967,319.862336 140.583967,317.060662 C140.583967,314.757081 141.236017,314.512562 149.22857,313.820994 C155.851982,313.24798 160.184986,314.328967 162.398828,317.10512 C164.389556,319.602175 166.929423,319.408701 166.929423,316.760159 C166.929423,314.576779 163.561321,309.834597 161.141656,308.609534 C159.88613,307.97395 155.645335,307.577121 150.051865,307.571211 C142.522828,307.563948 140.553505,307.832343 138.372595,309.161965 M171.04837,309.608191 C169.987966,312.396693 169.970676,331.485622 171.025318,334.260128 C171.926003,336.628749 174.694746,337.130959 175.485933,335.069427 C176.161858,333.309222 175.966737,312.60581 175.249647,310.030542 C174.447757,307.148184 172.074196,306.909429 171.04837,309.608191 M222.913516,308.156721 C220.680739,309.006362 220.469152,310.307169 220.45571,323.240318 C220.44363,336.030213 220.847868,338.018472 223.461008,338.018472 C225.261555,338.018472 226.223987,334.993684 226.264329,329.205094 C226.313726,321.989732 226.967423,318.25938 228.181784,318.25938 C228.715279,318.25938 233.582602,322.459834 238.999063,327.593081 C249.210397,337.271743 251.31721,338.841767 254.085953,338.841767 C257.804779,338.841767 258.315222,337.056863 258.315222,324.054557 C258.315222,313.204346 258.139037,311.640084 256.720499,309.911987 C255.422162,308.329613 254.847501,308.137785 253.633141,308.879575 C252.34633,309.664999 252.108397,311.170806 251.90916,319.78824 C251.756027,326.433881 251.371548,329.785517 250.763133,329.785517 C249.790821,329.785517 248.067663,328.273123 239.093742,319.540428 C233.143786,313.750191 225.606516,307.512081 224.691834,307.621579 C224.392978,307.656981 223.592735,307.898206 222.913516,308.156721 M319.491017,309.545621 C317.188259,311.528939 317.181673,311.565988 317.315047,321.143384 C317.474766,332.520505 317.76045,333.926693 320.237746,335.538706 C322.68705,337.131783 344.4344,337.800299 349.030036,336.423748 C352.743921,335.310653 353.483241,334.107818 354.559288,327.427599 C355.696259,320.366193 354.385573,313.278442 351.339379,310.017369 L349.040738,307.556539 L335.420961,307.556539 C322.204599,307.556539 321.732027,307.615816 319.491017,309.545621 M357.531385,308.365015 C356.866985,309.440239 356.850519,334.461835 357.514096,335.534589 C358.264941,336.749773 361.691497,336.561239 362.78401,335.244789 C363.417947,334.480771 363.566964,331.497972 363.245055,325.982715 C362.984894,321.508927 363.101802,317.371868 363.50604,316.790621 C364.543392,315.297986 366.342293,316.224194 367.980651,319.095848 C368.752079,320.446876 369.921982,321.552562 370.580618,321.552562 C371.238431,321.552562 373.522253,323.498009 375.654588,325.874863 C382.35539,333.344623 387.377493,337.195176 390.420393,337.195176 C394.783036,337.195176 395.04896,336.270616 394.797855,321.942804 C394.598618,310.547571 394.392794,308.857346 393.106806,308.057102 C390.656679,306.531536 390.068846,308.854876 390.05485,320.111795 C390.04744,326.819183 389.733764,330.608812 389.186273,330.608812 C388.716171,330.608812 386.925504,329.219913 385.208109,327.521454 C383.490715,325.823819 381.005186,323.454375 379.683796,322.25648 C378.362407,321.058585 374.53079,317.261546 371.168451,313.817701 C365.441608,307.951721 364.834016,307.556539 361.543304,307.556539 C359.611852,307.556539 357.806365,307.920435 357.531385,308.365015 M703.403583,313.558363 C702.342355,314.333907 702.022916,315.498047 702.217214,317.880664 L702.483138,321.140914 L712.337985,321.140914 C721.842108,321.140914 722.227411,321.072581 723.151972,319.219343 C724.526875,316.461303 723.689584,314.378365 720.802286,313.371475 C717.220128,312.122536 705.190134,312.251793 703.403583,313.558363 M324.275187,314.661579 C322.45735,315.935217 322.388193,316.327929 322.926629,322.277062 C323.811671,332.069339 324.041371,332.255403 335.2209,332.255403 C347.61726,332.255403 348.327764,331.745784 348.744352,322.561099 C349.146943,313.695853 348.616741,313.319607 335.704998,313.319607 C328.243471,313.319607 325.778524,313.609407 324.275187,314.661579 M68.2986232,315.130857 C66.9582982,316.471182 66.9582982,330.750419 68.2986232,332.090744 C69.4306545,333.222776 81.0531169,333.360266 87.4122513,332.316327 C92.5306793,331.475743 93.6561243,329.942766 93.6561243,323.810862 C93.6561243,319.099965 92.6961617,316.001081 90.8569196,314.772724 C89.2770156,313.718082 69.3960761,314.033404 68.2986232,315.130857 M71.4271461,345.016484 C71.4271461,349.525673 72.4784944,351.086641 73.3281354,347.837917 C73.9036189,345.637248 73.0729138,340.488358 72.1425899,340.488358 C71.7490546,340.488358 71.4271461,342.526015 71.4271461,345.016484 M117.541573,342.116013 C116.128798,344.756322 116.802254,350.705455 118.551757,351.037243 C120.712907,351.446421 122.103453,347.727596 121.171483,344.030999 C120.274914,340.476832 118.827561,339.712814 117.541573,342.116013 M475.82989,345.571385 C476.04724,350.148084 476.276116,350.779552 477.72347,350.779552 C479.187289,350.779552 479.370061,350.230414 479.370061,345.839779 C479.370061,341.312477 479.211988,340.877777 477.476481,340.631612 C475.651235,340.373097 475.591958,340.549282 475.82989,345.571385 M430.109822,341.860792 C429.424017,342.545774 429.390262,347.320064 430.058778,349.060511 C430.976752,351.453831 432.03057,349.486155 432.03057,345.379557 C432.03057,341.597337 431.445207,340.524583 430.109822,341.860792 M616.767375,344.138851 C616.492394,344.854294 616.514623,346.757753 616.816773,348.367296 C617.221011,350.521037 617.733924,351.223308 618.75975,351.025717 C620.810579,350.630535 620.766121,343.510676 618.710352,343.114671 C617.916696,342.961538 617.042356,343.422583 616.767375,344.138851 M662.145776,345.410019 C661.551357,348.115368 662.235515,351.1912 663.431763,351.1912 C663.854114,351.1912 664.199898,349.338785 664.199898,347.074722 C664.199898,342.540011 662.9913,341.560289 662.145776,345.410019 M751.46922,347.074722 C751.46922,349.338785 751.839703,351.1912 752.292515,351.1912 C752.745328,351.1912 753.115811,349.338785 753.115811,347.074722 C753.115811,344.81066 752.745328,342.958245 752.292515,342.958245 C751.839703,342.958245 751.46922,344.81066 751.46922,347.074722" id="Shape"></path>
        </g>
    </g>
</svg>