<?xml version="1.0" encoding="UTF-8"?>
<svg width="800px" height="400px" viewBox="0 0 800 400" version="1.1" xmlns="http://www.w3.org/2000/svg" xmlns:xlink="http://www.w3.org/1999/xlink">
    <title>snk</title>
    <g id="Page-1" stroke="none" stroke-width="1" fill="none" fill-rule="evenodd">
        <g id="Manufacturer" fill="#000000" fill-rule="nonzero">
            <g id="snk">
                <line x1="0" y1="0" x2="800" y2="400" id="Path"></line>
                <path d="M271.860873,105.60033 L342.820879,105.60033 L467.374809,222.670636 L467.374809,105.541599 L533.429478,105.541599 L533.429478,294.459401 L467.374809,294.459401 C467.374809,294.459401 341.705644,183.88865 341.960145,183.88865 L341.960145,294.459401 L271.860873,294.459401 L271.860873,105.60033 Z M543.495306,105.541599 L611.721061,105.541599 L611.721061,188.763317 C620.897441,181.435003 716.647769,105.541599 716.647769,105.541599 L798.786228,105.541599 L688.098015,196.861658 L800,294.459401 L718.58589,294.459401 L611.721061,202.819584 L611.721061,294.459401 L543.495306,294.459401 L543.495306,105.541599 Z M74.7840415,157.988313 L261.218177,157.988313 L261.218177,105.665587 L50.9184048,105.665587 C43.5581151,105.665587 0.351080404,111.812757 0.351080404,165.349256 C0.351080404,218.05047 38.9699249,225.378784 50.9184048,225.378784 L188.919759,225.378784 C197.331985,225.378784 198.383268,240.864171 188.919759,240.864171 L0,240.864171 L0,294.459401 L210.650853,294.459401 C219.094402,294.459401 260.867097,290.700622 260.867097,233.946973 C260.867097,175.796834 209.630892,172.990801 209.630892,172.990801 L74.4336137,172.990801 C64.2372729,172.990801 64.6196765,157.988313 74.7859992,157.988313" id="Combined-Shape"></path>
            </g>
        </g>
    </g>
</svg>