<?xml version="1.0" encoding="UTF-8"?>
<svg width="800px" height="400px" viewBox="0 0 800 400" version="1.1" xmlns="http://www.w3.org/2000/svg" xmlns:xlink="http://www.w3.org/1999/xlink">
    <title>snk_4</title>
    <g id="Page-1" stroke="none" stroke-width="1" fill="none" fill-rule="evenodd">
        <g id="snk_4" fill="#000000">
            <line x1="0" y1="0" x2="800" y2="400" id="Path" fill-rule="nonzero"></line>
            <path d="M670.719336,128.364703 L670.719336,183.824755 L670.998944,183.824755 L721.432674,144.58667 L721.432674,128.364703 L800,128.364703 L725.645985,183.824755 L735.297496,183.824755 C771.031702,183.824755 800,212.793053 800,248.527259 L800,271.635297 L730.675888,271.635297 L730.675614,236.973241 C730.675359,225.48731 721.364147,216.176172 709.878216,216.176007 L670.719336,216.176007 L670.719336,271.635297 L611.216141,271.635297 L611.216141,160.716718 L601.760332,160.715955 L625.548901,128.364703 L670.719336,128.364703 Z M467.811128,128.364703 L555.756851,209.821297 L555.756851,128.364703 L617.461088,128.364703 L593.672519,160.715955 L592.729711,160.716718 L592.729711,271.635297 L533.226515,271.635297 L449.45988,196.936256 L449.45988,271.635297 L409.020815,271.635297 L409.020815,160.716718 L384.489323,160.715955 L408.277892,128.364703 L467.811128,128.364703 Z M400.190079,128.364703 L376.40151,160.715955 L280.562081,160.716718 C276.095306,160.716718 272.474268,164.337755 272.474268,168.804531 L272.474268,175.736942 C272.474268,180.203718 276.095306,183.824755 280.562081,183.824755 L363.382442,183.824755 C379.973324,183.824755 393.42289,197.274322 393.42289,213.865204 L393.42289,241.594848 C393.42289,258.18573 379.973324,271.635297 363.382442,271.635297 L198.159976,271.635297 L220.112612,239.284045 L315.433265,239.284045 C319.900041,239.284045 323.521078,235.663007 323.521078,231.196232 L323.521078,224.26382 C323.521078,219.797045 319.900041,216.176007 315.433265,216.176007 L232.613146,216.176007 C216.022264,216.176007 202.572697,202.726441 202.572697,186.135559 L202.572697,158.405914 C202.572697,141.815033 216.022264,128.364703 232.613146,128.364703 L400.190079,128.364703 Z M174.445134,120.729207 C181.741809,120.729207 187.656933,126.644331 187.656933,133.941006 L187.656933,266.058994 C187.656933,273.355669 181.741809,279.270793 174.445134,279.270793 L13.2117988,279.270793 C5.91512381,279.270793 0,273.355669 0,266.058994 L0,133.941006 C0,126.644331 5.91512381,120.729207 13.2117988,120.729207 L174.445134,120.729207 Z M144.914576,134.808783 L72.5183142,134.808783 C67.798825,134.808783 63.2549571,136.658018 59.8033366,139.983446 C52.2728325,147.23863 51.8608421,159.427263 58.8831304,167.207519 L93.949643,206.059363 C95.1875669,207.430916 95.8759705,209.23648 95.8759886,211.111833 C95.8760282,215.203426 92.6656429,218.520351 88.7053925,218.520392 L9.05069955,218.521213 L23.3289331,239.378071 L95.5832995,239.378071 C99.5766955,239.378071 103.421491,237.813348 106.342089,234.999547 C109.13197,232.311683 110.767177,228.823572 111.22528,225.198672 L111.340885,225.327427 C113.321585,227.521918 114.423043,230.410838 114.423071,233.411422 C114.42313,239.957972 109.286511,245.265049 102.95011,245.26511 L27.3588483,245.265845 L41.6372578,266.123184 L113.127222,266.123184 C117.846747,266.123184 122.390646,264.273921 125.842275,260.94845 C133.37274,253.693222 133.784666,241.504587 126.762336,233.724371 L91.6789359,194.855019 C90.4500273,193.485398 89.7669511,191.686506 89.766971,189.818374 C89.7670145,185.726781 92.9774671,182.409925 96.9377175,182.40997 L177.501134,182.410885 L163.222901,161.553415 L90.060704,161.553415 C86.0673131,161.553415 82.2225222,163.118134 79.3019255,165.931929 C76.5120415,168.61979 74.876832,172.1079 74.4187252,175.732799 L73.9971968,175.250725 C72.2089592,173.103973 71.2203759,170.361468 71.2203793,167.518746 C71.2203871,160.972197 76.3570611,155.665176 82.6934617,155.665184 L159.191551,155.665282 L144.914576,134.808783 Z" id="Shape"></path>
        </g>
    </g>
</svg>