<?xml version="1.0" encoding="UTF-8"?>
<svg width="800px" height="400px" viewBox="0 0 800 400" version="1.1" xmlns="http://www.w3.org/2000/svg" xmlns:xlink="http://www.w3.org/1999/xlink">
    <title>snk_2</title>
    <g id="Page-1" stroke="none" stroke-width="1" fill="none" fill-rule="evenodd">
        <g id="snk_2" fill="#000000">
            <line x1="0" y1="0" x2="800" y2="400" id="Path" fill-rule="nonzero"></line>
            <path d="M344.012682,274.815766 L190.885086,274.815766 L190.885086,231.464575 L332.345617,231.464575 C334.927514,231.464575 337.020554,229.371534 337.020554,226.789638 C337.020554,224.293817 335.064733,222.254802 332.602139,222.121641 L332.345617,222.114723 L234.236277,222.115187 C210.533497,222.115501 191.273629,203.092843 190.890692,179.481295 L190.885086,178.764199 L190.885086,168.535425 C190.885086,144.593223 210.294075,125.184234 234.236277,125.184234 L387.363873,125.184234 L387.363873,168.535425 L246.342447,168.535425 C243.51804,168.535425 241.228405,170.82506 241.228405,173.649468 C241.228405,176.473879 243.518036,178.763521 246.342447,178.763534 L344.012682,178.763995 C367.954804,178.764312 387.363873,198.173269 387.363873,222.115391 L387.363873,231.464575 C387.363873,255.406777 367.954884,274.815766 344.012682,274.815766 Z M444.000107,125.184234 L539.792257,216.878996 L539.792257,125.184234 L590.135576,125.184234 L590.135576,274.815766 L539.792257,274.815766 L444.000107,184.533414 L444.000107,274.815766 L393.656788,274.815766 L393.656788,125.184234 L444.000107,125.184234 Z M646.77181,125.184234 L646.77181,193.48054 L721.587576,125.184234 L792.907279,125.184234 L707.157323,195.631246 L800,274.815766 L728.680298,274.815766 L646.77181,197.843628 L646.77181,274.815766 L596.428491,274.815766 L596.428491,125.184234 L646.77181,125.184234 Z M184.592171,125.184234 L184.592171,274.815766 L0,274.815766 L0,125.184234 L184.592171,125.184234 Z M178.998469,130.777936 L5.59370214,130.777936 L5.59370214,269.222064 L178.998469,269.222064 L178.998469,130.777936 Z M142.270027,138.472536 L156.191524,158.156898 L81.5981347,158.156806 C75.4195019,158.156798 70.4107243,163.165563 70.4107166,169.344196 C70.4107133,172.027157 71.3746822,174.615533 73.1183951,176.641637 L73.529428,177.096618 C73.9761285,173.675439 75.5706236,170.383361 78.2910432,167.846558 C81.1389209,165.190899 84.8879817,163.714117 88.7819425,163.714117 L160.122498,163.714117 L174.045223,183.399395 L95.4877276,183.398532 C91.6260821,183.398489 88.4955655,186.528937 88.495523,190.390582 C88.4955037,192.153726 89.1615722,193.851519 90.3598826,195.144168 L124.569753,231.829058 C131.417236,239.172025 131.015567,250.675658 123.6726,257.52314 C120.306912,260.661721 115.87615,262.407055 111.274135,262.407055 L41.5641753,262.407055 L27.6412791,242.7219 L101.35042,242.721207 C107.529052,242.721148 112.537777,237.71233 112.537719,231.533697 C112.537692,228.701746 111.463658,225.975184 109.532275,223.904023 L109.419549,223.782504 C108.972852,227.203684 107.37836,230.495763 104.657943,233.032569 C101.810064,235.688234 98.0609986,237.16502 94.1670327,237.16502 L23.7117034,237.16502 L9.78897875,217.480319 L87.4603764,217.479544 C91.3220219,217.479506 94.4524729,214.348992 94.4524343,210.487347 C94.4524167,208.717388 93.7811533,207.013298 92.5740521,205.718826 L58.3806487,169.05046 C51.5332061,161.707455 51.9349384,150.203825 59.277943,143.356382 C62.6436228,140.217844 67.0743545,138.472536 71.6763347,138.472536 L142.270027,138.472536 Z" id="Shape"></path>
        </g>
    </g>
</svg>