<?xml version="1.0" encoding="UTF-8"?>
<svg width="800px" height="400px" viewBox="0 0 800 400" version="1.1" xmlns="http://www.w3.org/2000/svg" xmlns:xlink="http://www.w3.org/1999/xlink">
    <title>snk_3</title>
    <g id="Page-1" stroke="none" stroke-width="1" fill="none" fill-rule="evenodd">
        <g id="snk_3" fill="#000000">
            <line x1="0" y1="0" x2="800" y2="400" id="Path" fill-rule="nonzero"></line>
            <path d="M406.874419,134.121136 L388.090372,158.748881 L297.157811,158.748881 C292.259463,158.748881 288.288567,164.124162 288.288567,170.754907 C288.288567,177.385653 292.259463,182.760933 297.157811,182.760933 L375.96131,182.760933 C392.903824,182.760933 406.638445,201.367675 406.638445,224.320255 C406.638445,247.272834 392.903824,265.879576 375.96131,265.879576 L218.343736,265.879576 L239.630081,241.25183 L336.161641,241.25183 C341.060302,241.25183 345.031198,234.773927 345.031198,226.783029 C345.031198,218.792131 341.060302,212.314228 336.161954,212.314228 L246.485749,212.314228 C235.881398,212.314228 227.264794,195.15844 227.093522,173.864215 L227.090924,173.217682 C227.090924,151.84118 235.601484,134.471627 246.16502,134.126373 L246.485749,134.121136 C246.58876,134.121136 246.691583,134.122754 246.794212,134.12598 L406.874419,134.121136 Z M484.032368,134.121041 L570.125539,214.715102 L570.125539,134.121041 L619.381031,134.121041 C619.381031,142.013438 610.474411,148.62117 602.141846,150.320702 L602.141609,265.879576 L539.100727,265.879576 L458.068567,189.657839 L458.069296,265.879576 L428.516001,265.879576 L428.515272,161.211561 L406.638445,161.211656 L419.803985,134.121041 L484.032368,134.121041 Z M676.861271,134.120424 L676.860208,188.05765 L729.952703,146.577138 L729.953597,134.120424 L799.899195,134.120424 L727.73975,190.495767 C729.939079,190.341982 732.170523,190.263207 734.428627,190.263207 C770.642696,190.263207 800,210.523882 800,235.51669 L800,265.879576 L739.046329,265.879576 L739.046329,226.047974 C739.046329,217.311078 725.12573,210.228424 707.9538,210.228424 C690.78187,210.228424 676.861271,217.311078 676.861271,226.047974 L676.863902,226.265135 L676.860619,257.200195 L676.861271,265.879576 L625.758698,265.879576 L625.757636,158.132477 L615.764928,158.133188 L628.250627,134.120424 L676.861271,134.120424 Z M187.509175,114.792688 C195.352291,114.792688 201.710393,121.15079 201.710393,128.993907 L201.710393,271.006093 C201.710393,278.84921 195.352291,285.207312 187.509175,285.207312 L14.2012186,285.207312 C6.35810215,285.207312 0,278.84921 0,271.006093 L0,128.993907 C0,121.15079 6.35810215,114.792688 14.2012186,114.792688 L187.509175,114.792688 Z M186.819022,121.163328 L14.8913713,121.163328 C10.1855014,121.163328 6.37064013,124.97819 6.37064013,129.68406 L6.37064013,270.31594 C6.37064013,275.02181 10.1855014,278.836672 14.8913713,278.836672 L186.819022,278.836672 C191.524892,278.836672 195.339753,275.02181 195.339753,270.31594 L195.339753,129.68406 C195.339753,124.97819 191.524892,121.163328 186.819022,121.163328 Z M155.767099,129.926671 L171.113265,152.345094 L88.8863013,152.34499 C82.0753732,152.344981 76.5540183,158.049439 76.5540099,165.086254 C76.5540063,168.141865 77.6166237,171.089754 79.5387808,173.397274 L79.9918771,173.91545 C80.4842911,170.019086 82.24196,166.269754 85.2407759,163.380601 C88.3800935,160.356084 92.5128174,158.674185 96.8052698,158.674185 L175.446518,158.674185 L190.794036,181.093652 L104.197297,181.092668 C99.9404666,181.09262 96.4895861,184.657872 96.4895393,189.055881 C96.489518,191.063916 97.2237492,192.997525 98.5446896,194.469716 L136.255455,236.249959 C143.80368,244.612828 143.360906,257.71426 135.26649,265.512825 C131.556372,269.087338 126.672185,271.07509 121.599219,271.07509 L44.7554348,271.07509 L29.4077281,248.655764 L110.659952,248.654974 C117.47088,248.654908 122.992176,242.950389 122.992112,235.913574 C122.992083,232.688278 121.808137,229.58301 119.679104,227.224175 L119.554842,227.085778 C119.062432,230.982143 117.304766,234.731476 114.305953,237.620632 C111.166634,240.645156 107.033905,242.32706 102.741447,242.32706 L25.0760161,242.32706 L9.72849837,219.90825 L95.3484602,219.907368 C99.6052902,219.907324 103.056098,216.341997 103.056056,211.943988 C103.056036,209.928191 102.316079,207.987411 100.985448,206.513143 L63.2928355,164.751719 C55.7446543,156.388807 56.1874983,143.287378 64.2819551,135.488859 C67.9920644,131.914394 72.8762185,129.926671 77.949146,129.926671 L155.767099,129.926671 Z" id="Combined-Shape"></path>
        </g>
    </g>
</svg>