<?xml version="1.0" encoding="UTF-8"?>
<svg width="800px" height="400px" viewBox="0 0 800 400" version="1.1" xmlns="http://www.w3.org/2000/svg" xmlns:xlink="http://www.w3.org/1999/xlink">
    <title>square_2</title>
    <g id="Page-1" stroke="none" stroke-width="1" fill="none" fill-rule="evenodd">
        <g id="Manufacturer" fill="#000000" fill-rule="nonzero">
            <g id="square_2">
                <line x1="0" y1="0" x2="800" y2="400" id="Path"></line>
                <path d="M120.2307,171.952931 L77.8404654,171.952931 C76.8401054,168.014016 74.9331718,165.075461 72.1196647,163.137264 C69.3686746,161.136545 65.3984967,160.136186 60.2091309,160.136186 C55.1448137,160.136186 51.2684222,161.167807 48.5799565,163.231048 C46.5792364,164.79411 45.5788764,166.826089 45.5788764,169.326987 C45.5788764,171.452752 46.3291464,173.17212 47.8296865,174.485091 C49.9554479,176.360765 54.9885065,178.2677 62.9288624,180.205896 L80.2788484,184.426162 C96.3471186,188.302555 107.601162,193.804531 114.040977,200.932091 C120.54331,208.059652 123.794477,216.312619 123.794477,225.69099 C123.794477,233.193683 122.106371,240.039893 118.73016,246.22962 C115.416465,252.356821 111.321243,257.20231 106.444494,260.766088 C101.56774,264.329872 95.2529721,267.143383 87.5001892,269.20662 C79.7474063,271.332381 71.5882262,272.395262 63.0226489,272.395262 C53.6442773,272.395262 44.82861,271.176074 36.5756471,268.737698 C28.3226769,266.299323 21.507726,262.798066 16.1307945,258.233929 C10.8163873,253.669792 6.7836887,248.386643 4.03269863,242.384483 C2.09450289,238.132959 0.750270019,232.881073 0,226.628822 L42.8591558,226.628822 C43.8595085,230.942877 46.0165321,234.256568 49.3302265,236.569895 C52.6439136,238.88323 57.739493,240.039897 64.6169645,240.039897 C70.6191247,240.039897 74.9331755,239.039537 77.5591169,237.038816 C79.4973126,235.538276 80.4664105,233.443773 80.4664105,230.755308 C80.4664105,228.004318 79.5598369,225.78477 77.7466898,224.096664 C75.9960598,222.408558 71.1193047,220.595407 63.1164245,218.657212 L47.5483379,214.812075 C39.4204164,212.873879 31.7926748,210.185414 24.6651132,206.746678 C17.5375517,203.307942 12.1606202,198.86885 8.53431874,193.429401 C4.90801728,187.989944 3.09486655,181.393823 3.09486655,173.641038 C3.09486655,166.013298 4.72045159,159.22961 7.97162167,153.289976 C11.2227845,147.350342 15.5680938,142.567374 21.0075496,138.941071 C26.5095298,135.314768 32.6054691,132.751348 39.2953677,131.250809 C46.0477979,129.75027 52.9877937,129 60.1153553,129 C68.6184082,129 76.4024533,129.875315 83.4674906,131.625944 C90.5325278,133.31405 96.1595493,135.564859 100.348555,138.37837 C104.537559,141.129358 107.945033,144.318003 110.570976,147.944306 C113.196917,151.508086 115.2289,155.16565 116.666923,158.916998 C118.167455,162.605823 119.355381,166.951134 120.2307,171.952931 Z M269.799928,263.95473 L251.136975,284.024447 L232.661594,265.080135 C223.533313,269.831845 212.498098,272.2077 199.555949,272.2077 C187.801726,272.2077 177.235429,270.363287 167.857057,266.674461 C160.479405,263.735906 153.852024,259.359334 147.974912,253.544747 C142.160325,247.73016 137.689971,241.477913 134.563849,234.788006 C129.874664,224.659365 127.530071,213.186494 127.530071,200.369394 C127.530071,189.990663 129.186918,180.268419 132.500612,171.202661 C135.001505,164.137623 138.627806,157.916639 143.379517,152.539707 C148.131219,147.100253 153.289323,142.72368 158.853828,139.409989 C164.418325,136.033777 170.45174,133.470356 176.954073,131.719727 C183.456413,129.906576 190.552716,129 198.242982,129 C208.309099,129 217.718729,130.625584 226.471872,133.876752 C235.225015,137.065398 242.50888,141.379448 248.323467,146.818902 C254.200579,152.195834 258.82724,158.135467 262.203452,164.637803 C264.704352,169.38951 266.67381,174.860226 268.111826,181.049949 C269.549841,187.177151 270.268849,193.679486 270.268849,200.556956 C270.268849,207.309386 269.549841,213.686677 268.111826,219.68883 C266.67381,225.69099 264.485524,231.693147 261.546968,237.6953 C259.733814,241.259078 257.389221,244.760334 254.51319,248.19907 L269.799928,263.95473 Z M205.839458,237.789086 L190.27136,222.220989 L208.465403,203.276687 L224.033489,217.531807 C225.534029,212.404965 226.284299,206.465329 226.284299,199.712899 C226.284299,189.584264 224.127276,180.831121 219.813228,173.45347 C215.499181,166.07582 208.590451,162.386995 199.087038,162.386995 C192.084518,162.386995 186.332448,164.762848 181.830828,169.514555 C175.015881,176.767161 171.608407,186.802017 171.608407,199.619124 C171.608407,208.434791 172.858857,215.843701 175.359757,221.845854 C177.923174,227.848014 181.268127,232.193327 185.394616,234.881793 C189.521097,237.507735 193.991452,238.820706 198.805679,238.820706 C201.119013,238.820706 203.463606,238.476833 205.839458,237.789086 Z M320.305681,132.56378 L320.305681,216.406402 C320.305681,221.970899 320.962165,226.191163 322.275132,229.067195 C323.650623,231.880709 326.088999,234.194043 329.590259,236.007198 C333.091512,237.757821 337.092948,238.633133 341.594568,238.633133 C348.159425,238.633133 353.255005,236.882506 356.881306,233.381253 C360.507615,229.817468 362.320769,224.159185 362.320769,216.406402 L362.320769,132.56378 L406.774241,132.56378 L406.774241,211.998568 C406.774241,222.002161 405.992709,229.911251 404.429644,235.725838 C402.86658,241.540433 400.271897,246.698537 396.645595,251.20015 C393.081818,255.639246 388.705247,259.484379 383.515881,262.735549 C378.326515,265.924195 372.199314,268.331308 365.134276,269.95689 C358.131764,271.644996 350.504022,272.489048 342.251052,272.489048 C332.622597,272.489048 324.275863,271.644996 317.210847,269.95689 C310.145839,268.268784 304.01867,265.799146 298.829341,262.547976 C293.702521,259.296813 289.388485,255.482943 285.887232,251.106364 C282.448496,246.667275 279.728768,240.758905 277.728048,233.381253 C276.477598,228.692067 275.852373,221.470722 275.852373,211.717219 L275.852373,132.56378 L320.305681,132.56378 Z M494.189518,132.56378 L542.86325,268.643923 L498.409779,268.643923 L493.251675,250.825015 L448.798204,250.825015 L443.733886,268.643923 L400.124472,268.643923 L448.798204,132.56378 L494.189518,132.56378 Z M471.024945,173.45347 L457.051174,222.877472 L485.467626,222.877472 L471.024945,173.45347 Z M549.56007,268.643923 L549.56007,132.56378 L616.05271,132.56378 C625.368557,132.56378 633.183864,133.06396 639.498632,134.064319 C645.813399,135.064679 651.002765,136.62774 655.066729,138.753504 C659.193211,140.879267 662.663205,143.598994 665.476712,146.912685 C668.352751,150.163853 670.478516,153.63385 671.854007,157.322675 C673.292023,161.0115 674.011031,165.606902 674.011031,171.108878 C674.011031,177.923826 672.916888,183.644631 670.728602,188.271293 C668.602841,192.897958 665.570502,196.711826 661.631586,199.712899 C658.880596,201.838668 655.379336,203.464253 651.127806,204.589654 C659.880956,207.903349 665.820592,211.592174 668.946714,215.656132 C672.072835,219.657572 673.760941,226.44126 674.011031,236.007198 L674.667514,257.483659 C674.792563,260.60978 675.105177,262.454193 675.605357,263.016898 C676.230579,263.829692 677.355984,264.29861 678.981572,264.423651 L678.981572,268.643923 L633.777831,268.643923 C632.527381,264.955097 631.808373,258.671588 631.620807,249.793397 L631.339448,239.758538 C631.276945,235.131876 630.526675,231.568095 629.088638,229.067195 C627.713146,226.503777 625.618647,224.565582 622.80514,223.252607 C619.991626,221.93964 615.740096,221.283157 610.05055,221.283157 L592.700575,221.283157 L592.700575,268.643923 L549.56007,268.643923 Z M592.700575,191.45994 L613.989473,191.45994 C620.866937,191.45994 625.712426,190.272013 628.525941,187.896159 C631.339448,185.520306 632.746201,182.33166 632.746201,178.330222 C632.746201,174.20374 631.401969,171.015095 628.713503,168.764286 C626.025037,166.450954 621.304593,165.294289 614.55217,165.294289 L592.700575,165.294289 L592.700575,191.45994 Z M686.615517,268.643923 L686.615517,132.56378 L797.280279,132.56378 L797.280279,164.637803 L729.756021,164.637803 L729.756021,183.769677 L787.057848,183.769677 L787.057848,214.624513 L729.756021,214.624513 L729.756021,236.007198 L800,236.007198 L800,268.643923 L686.615517,268.643923 Z" id="Combined-Shape"></path>
            </g>
        </g>
    </g>
</svg>