<?xml version="1.0" encoding="UTF-8"?>
<svg width="800px" height="400px" viewBox="0 0 800 400" version="1.1" xmlns="http://www.w3.org/2000/svg" xmlns:xlink="http://www.w3.org/1999/xlink">
    <title>square_3</title>
    <g id="Page-1" stroke="none" stroke-width="1" fill="none" fill-rule="evenodd">
        <g id="Manufacturer" fill="#000000" fill-rule="nonzero">
            <g id="square_3">
                <line x1="0" y1="0" x2="800" y2="400" id="Path"></line>
                <path d="M100.960276,176.536871 L123.517003,158.556772 C123.517003,158.556772 108.097797,142.865147 74.6986486,155.396903 C49.0363691,167.656026 52.7412614,184.219422 54.4847794,187.924283 C56.1738783,191.62938 64.7279838,200.183406 75.2979938,203.343508 C85.8680038,206.503378 87.8295288,212.769365 87.5571225,214.730881 C87.2851017,216.746918 82.5444571,227.425752 68.4328786,230.422488 C45.6037398,235.326058 27.623799,218.490303 27.623799,218.490303 L0,241.264909 C0,241.264909 30.7838797,268.398268 79.5478445,255.267531 C128.366209,242.13668 130.654525,208.79203 126.35028,197.949475 C122.100429,187.107074 100.960276,176.537069 100.960276,176.537069 M295.253021,182.802621 C299.502871,200.564552 288.278969,221.759139 266.539598,237.014841 L293.56404,237.014841 L275.257164,256.683898 L209.43955,256.683898 C171.627081,259.7896 138.118995,245.678051 132.724987,223.284788 C126.404684,197.132068 157.352028,164.277749 202.519892,153.435309 C247.687894,142.538367 288.932856,156.595416 295.253021,182.802621 Z M358.891246,152.291162 L337.206265,215.602454 C337.206265,215.602454 331.485446,229.005726 349.410866,229.278142 C367.445332,229.606307 372.83935,216.746602 372.83935,216.746602 L394.524326,152.835993 L433.589889,152.835993 L409.616598,224.428936 C409.616598,224.428936 409.510238,224.690202 409.278015,225.165704 L409.10434,225.513929 C406.245219,231.134743 390.654199,256.683898 343.472035,256.683898 C290.403963,256.683898 295.525427,223.611727 295.525427,223.611727 L319.226327,152.291162 L358.891246,152.291162 Z M474.080548,195.167777 L492.862649,255.430823 L414.997316,255.430823 L474.080548,195.167777 Z M503.221493,137.144368 L539.181369,255.267333 L498.335064,255.310368 L476.687292,185.853801 L408.496064,255.406368 L386.789064,255.429368 L503.221493,137.144368 Z M209.058068,176.536871 C184.703433,182.039816 167.649646,198.439706 171.027726,213.041584 C174.351282,227.752572 196.799088,235.108007 221.099328,229.604923 C245.453973,224.047593 262.453217,207.702088 259.129671,193.045707 C255.806114,178.389222 233.358313,170.979384 209.058068,176.536871 Z M707.59383,152.34691 L800,152.509015 L791.173508,177.953436 L737.015668,177.95478 L732.275418,191.848341 L781.475254,191.848341 L757.229522,217.347302 L723.503439,217.347302 L718.981143,230.369112 L773.465962,230.369112 L764.63947,255.868033 L671.307025,255.868033 L707.59383,152.34691 Z M651.855956,152.291162 C651.855956,152.291162 686.452811,155.396706 686.94407,183.075037 C686.017894,206.830752 664.714277,218.65399 641.830724,224.483894 L669.563453,255.53975 L627.337856,255.53975 L605.761773,229.65905 C600.868065,229.916047 596.545097,230.003234 593.163838,230.008718 L592.400433,230.008573 C590.410165,230.004533 588.787327,229.972119 587.61837,229.931862 L578.791878,255.53975 L540.325497,255.53975 L575.41376,152.291162 Z M637.585517,175.665213 L606.197678,175.6651 L595.518736,206.775913 L623.578246,206.775913 C633.603429,206.775913 650.983601,198.766645 650.711778,187.379292 C650.439362,175.937912 637.580893,175.6651 637.580893,175.6651 Z" id="Combined-Shape"></path>
            </g>
        </g>
    </g>
</svg>