<?xml version="1.0" encoding="UTF-8"?>
<svg width="800px" height="400px" viewBox="0 0 800 400" version="1.1" xmlns="http://www.w3.org/2000/svg" xmlns:xlink="http://www.w3.org/1999/xlink">
    <title>thq_5</title>
    <g id="Page-1" stroke="none" stroke-width="1" fill="none" fill-rule="evenodd">
        <g id="thq_5" fill="#000000">
            <line x1="0" y1="0" x2="800" y2="400" id="Path" fill-rule="nonzero"></line>
            <path d="M664.255392,82.1219941 C673.002778,81.0165501 692.352717,81.7438651 701.711646,83.5290078 C743.403879,91.4846571 775.212471,120.588459 784.948595,159.686073 C791.531776,186.1271 788.69254,214.946138 777.181543,238.517119 C771.278061,250.606979 765.537968,258.445922 755.904546,267.577973 C744.030472,278.83545 728.773991,287.779077 711.327911,293.716739 L708.560508,294.647411 C700.545681,297.373229 699.078469,298.358829 699.757512,300.126951 C701.145853,303.744853 737.558283,318.558177 753.784223,322.107922 C760.734329,323.627907 772.978242,323.40103 779.03671,321.639229 C783.107581,320.455603 785.36476,319.027674 789.587528,314.897401 L791.371949,313.149852 C793.825027,310.773256 795.776434,309.00785 795.970358,309.00785 C798.187781,309.00785 800,311.336378 800,314.185884 C800,323.109731 788.763497,336.136978 775.556989,342.525025 C763.577299,348.31927 753.427568,350.496547 738.84579,350.398513 L737.633395,350.386071 C718.433752,350.117149 708.562409,346.417891 678.081358,328.068255 L674.78884,326.081641 C654.267978,313.737759 638.812741,306.024831 630.160286,303.815811 C626.309905,302.832675 621.64818,302.409731 617.089157,302.628205 C604.39254,303.237333 596.908876,308.929863 594.682352,319.669725 L594.41451,321.021055 C594.19331,322.120414 593.982534,323.08897 593.775644,323.939371 L593.643115,324.469905 C592.58613,328.585958 591.594853,329.648608 589.779834,329.378271 C583.80166,328.489434 581.309742,314.587354 585.247887,304.098707 C587.28885,298.665786 593.931785,290.826843 601.132109,285.357509 L604.399892,282.875862 L594.930792,274.017371 C589.721947,269.145575 583.322696,262.274829 580.709404,258.749359 C572.047914,247.065637 565.641193,231.705193 562.731,215.642643 C560.820748,205.097976 561.097109,178.876358 563.223034,168.960039 C568.766127,143.104413 581.587037,123.092514 602.888309,107.04677 C621.069316,93.3519612 641.699292,84.9733676 664.255392,82.1219941 Z M307.96536,86.096551 C309.32289,85.3897764 311.862424,85.0788702 314.034098,85.3524303 C333.814373,87.8496384 358.260265,88.0366076 384.384518,85.8938078 L386.967449,85.6804189 C398.502776,84.775279 401.60767,85.6489815 402.078422,89.6864432 L402.107866,89.9810245 C402.353013,92.9621498 400.724047,94.0198794 393.327209,95.5646004 L392.212521,95.7925277 C382.747156,97.691576 378.240417,100.211503 375.737296,105.004873 C375.644538,105.182547 375.556151,105.355814 375.471902,105.528613 L375.372773,105.735998 L375.277525,105.944446 C374.031786,108.740355 373.799001,112.224292 373.614006,132.576295 L373.538546,141.884129 C373.512198,145.373449 373.497642,148.649687 373.494418,151.688711 L373.497161,155.746354 C373.528764,168.188371 373.777663,175.777465 374.204239,176.429256 C374.906393,177.503675 380.107942,177.803789 409.2125,178.020046 L423.854547,178.112518 C429.710249,178.142472 435.332553,178.158385 440.505664,178.161369 L449.421297,178.152653 C460.677503,178.122008 468.370971,178.016223 469.223317,177.852198 L471.354472,177.327429 L471.317128,134.00077 C471.251946,113.511229 470.958202,110.757374 469.568395,107.697525 C466.726839,101.441203 461.69496,98.2747671 450.50828,95.8051514 L448.453192,95.3629054 C442.054009,93.9540632 440.593673,92.9441712 440.545219,90.1241154 L440.543954,89.974008 C440.543954,85.6715318 443.482963,84.8741375 455.573665,85.995474 L455.984691,86.0339963 C462.599542,86.6601781 474.605628,87.0038479 486.797552,87.0614616 L490.296649,87.0701395 C503.006057,87.0731212 515.375669,86.7642625 521.491172,86.1395363 L523.223421,85.9502793 C533.342647,84.8712097 535.776465,85.625551 535.776465,89.5435944 L535.770993,89.8658652 C535.667505,92.8062334 534.058328,93.8809395 527.759254,95.1169533 L526.706035,95.3172988 C517.022195,97.1080435 512.431428,100.414105 510.665892,106.872177 C509.969593,109.417648 509.612463,145.198768 509.596369,181.992584 L509.607566,196.412134 C509.674146,229.633815 510.02334,260.20343 510.656556,263.838696 C512.168138,272.521661 515.620784,277.352376 522.85472,280.904922 C526.110365,282.503335 532.099743,284.445331 536.16393,285.219329 L536.907271,285.362673 C544.756642,286.895242 546.046637,287.800835 546.046637,291.349688 C546.046637,295.499772 543.545383,296.259764 532.121217,295.580999 L529.996836,295.45752 C505.654072,294.072374 484.366468,293.890304 469.506449,294.942537 L466.366683,295.16532 C458.54119,295.689705 451.680511,295.887815 450.535898,295.600606 C447.748013,294.901301 446.669645,291.562561 448.388498,288.954871 C449.114986,287.852894 452.200079,286.302457 456.173359,285.032777 L457.338794,284.665053 C464.337341,282.423599 466.649426,280.768558 469.410608,276.239463 L469.617071,275.893847 C471.174064,273.214763 471.33199,270.808313 471.34879,241.102831 L471.34613,224.285519 C471.311621,197.87284 471.063319,194.256534 469.877434,193.80172 C469.089525,193.499235 448.933038,193.250338 424.597848,193.235676 L411.194397,193.240346 C380.261459,193.276047 376.0556,193.517019 374.760416,194.731341 L374.652789,194.840638 C373.731261,195.846565 373.397533,198.132796 373.371245,210.018558 L373.373873,214.486962 C373.386668,218.98294 373.427102,224.537998 373.486261,231.416695 L373.787831,266.526681 L376.242402,271.761668 C380.150062,280.094056 385.96834,283.566615 399.59073,285.551528 L402.437127,285.954522 C410.253002,287.108194 411.600739,288.001288 411.600739,291.187233 L411.596044,291.761006 C411.509122,296.167645 409.954748,296.211887 386.562058,294.973192 C366.348989,293.903693 344.038559,294.069578 323.491692,295.433739 L318.657246,295.765989 C312.895228,296.136621 312.630734,295.866782 311.269554,293.789321 C308.849415,290.095666 310.529715,288.009405 317.769524,285.806585 L318.994029,285.435048 C326.956402,282.957289 330.479397,280.316853 333.173966,274.928616 L335.508096,270.261289 L335.501455,158.662949 C335.46407,107.914243 335.216788,107.077282 333.584773,104.84055 C331.185653,101.55263 325.445523,98.7196907 317.087581,96.6936521 L316.582968,96.5730609 C312.850227,95.6944943 308.730955,94.1371626 307.429444,93.1129463 C304.509914,90.8170959 304.742393,87.7752574 307.96536,86.096551 Z M9.97909828,85.967707 C11.3459649,85.4560657 13.9349821,85.2254536 15.7322623,85.4569993 C33.4544911,87.7343821 108.352588,88.4129855 150.883229,86.7318155 L170.785491,85.8952686 C175.522715,85.71062 178.758116,85.6129719 181.039051,85.6035621 L181.56871,85.6029992 L182.48981,85.6114554 C185.262318,85.6589403 186.207242,85.9021925 187.124533,86.3452829 L187.497728,86.5350248 L187.811808,86.7024912 C193.644239,89.8239048 197.026106,103.758729 197.232672,125.481185 L197.253025,129.351306 L197.253025,130.75838 C197.237788,138.826114 196.910247,140.272779 195.548982,141.780494 C192.268962,145.41444 187.363301,143.700788 186.104456,138.561008 L185.850716,137.441445 C184.032444,129.620801 180.282719,119.746254 177.731166,116.157347 C171.182662,106.946253 164.720238,104.528402 144.092395,103.872975 L141.750029,103.806694 C125.025192,103.376901 120.751982,104.073614 117.737615,107.722372 L117.445681,108.089124 C115.761598,110.279615 115.641979,112.277333 115.633647,171.916625 L115.637226,199.065641 C115.679666,261.257395 116.103033,266.196356 119.444201,272.744803 C122.709222,279.145054 130.219702,283.12218 143.535199,285.491304 L144.109422,285.591856 C154.204068,287.330316 157.399959,290.535544 153.004325,294.513835 C152.899569,294.608619 152.79559,294.697801 152.687057,294.781461 L152.57681,294.863284 L152.417491,294.970189 C150.846807,295.958558 147.749122,295.998221 130.903395,295.277386 L119.378247,294.775535 C100.683992,293.994845 92.0668606,294.02472 76.4197798,294.873813 L70.2227643,295.218711 C50.7245813,296.284481 49.3930443,295.937928 49.3452099,291.910739 L49.3437368,291.642855 C49.3437368,288.911183 51.4191902,287.588569 61.0044935,284.31052 L61.4139907,284.170837 C70.4956244,281.080449 74.784822,277.610064 76.3094758,272.117389 C76.9987351,269.633725 77.3188598,246.284918 77.3458451,195.912873 L77.3515512,153.576734 C77.3050745,104.617185 76.7228422,107.075062 71.5369106,105.045223 L71.1921289,104.905906 C66.7918267,103.067545 46.7771273,103.159043 39.5123805,105.051555 C27.3421682,108.221823 19.0544457,116.748159 14.5160875,130.769987 L14.0798442,132.139724 C11.2857301,140.792164 9.03496058,143.751434 5.35191862,143.751434 L5.0141128,143.745704 C-0.350589916,143.558882 -1.04720886,138.72817 1.21405305,118.247597 L1.68478072,114.089482 C4.1672752,92.6678744 5.76333241,87.5482866 9.97909828,85.967707 Z M654.69853,96.1155714 C628.81396,102.901355 609.023337,125.712342 602.434554,156.355736 C597.889536,177.497354 601.160119,210.229328 610.060624,232.671523 C620.721063,259.548565 637.746209,276.707223 660.91852,283.928088 C669.894651,286.725309 686.95154,286.937248 696.36462,284.369705 C722.995178,277.104959 741.39466,255.373273 748.369041,222.945669 C750.84602,211.427204 750.612607,188.484571 747.889143,175.824249 C742.141581,149.098459 731.244928,128.001657 715.486748,113.084698 C706.225854,104.317705 694.573876,97.9203208 683.760317,95.6636837 C674.829002,93.8001142 662.815701,93.9868446 654.69853,96.1155714 Z M237.077714,154.777415 C264.444492,154.777415 286.629649,176.962571 286.629649,204.329349 C286.629649,231.696127 264.444492,253.881284 237.077714,253.881284 C209.710936,253.881284 187.525779,231.696127 187.525779,204.329349 C187.525779,176.962571 209.710936,154.777415 237.077714,154.777415 Z" id="Shape"></path>
        </g>
    </g>
</svg>