<?xml version="1.0" encoding="UTF-8"?>
<svg width="800px" height="400px" viewBox="0 0 800 400" version="1.1" xmlns="http://www.w3.org/2000/svg" xmlns:xlink="http://www.w3.org/1999/xlink">
    <title>thq_2</title>
    <g id="Page-1" stroke="none" stroke-width="1" fill="none" fill-rule="evenodd">
        <g id="Manufacturer" fill="#000000" fill-rule="nonzero">
            <g id="thq_2">
                <line x1="0" y1="0" x2="800" y2="400" id="Path"></line>
                <path d="M207.799116,346.024249 L595.094703,346.024249 L595.094703,400 L207.799116,400 L207.799116,346.024249 Z M310.339553,30.7001498 L281.328974,30.7022332 L281.328974,296.174636 L243.120261,296.174636 L243.120261,30.7022332 L204.905297,30.7022332 L204.905297,0.0160932361 L310.339553,0.0160932361 L310.339553,30.7001498 Z M336.620902,296.172553 L374.948889,296.172553 L374.948889,163.43557 L413.276875,163.43557 L413.276875,296.172553 L451.604341,296.172553 L451.604341,0.0160932361 L413.276875,0.0160932361 L413.276875,132.739534 L374.948889,132.739534 L374.948889,0.0160932361 L336.620902,0.0160932361 L336.620902,296.172553 Z M537.830728,0 C545.435837,0 552.549572,1.22843155 559.171935,3.6741271 C565.794298,6.13099021 571.579094,9.3919176 576.548658,13.4680768 C581.507054,17.5554036 585.482705,22.312784 588.464444,27.7513855 C591.446182,33.1899871 592.931467,39.0306207 592.931467,45.2844541 L592.93111,180.972495 L592.951423,180.914107 L592.951423,324.972366 C582.116797,325.050606 564.096109,319.982953 555.176212,293.81172 C549.710761,295.385058 543.928703,296.174847 537.830728,296.174847 C530.214453,296.174847 523.08955,294.946416 516.467187,292.50072 C509.844824,290.043857 504.060028,286.78293 499.090464,282.706771 C494.132068,278.619444 490.156417,273.862063 487.174678,268.423462 C484.19294,262.98486 482.707654,257.133059 482.707654,250.879226 L482.707654,45.2844541 C482.707654,39.0417883 484.19294,33.1899871 487.174678,27.7513855 C490.156417,22.312784 494.1209,17.5442361 499.090464,13.4680768 C504.048861,9.3919176 509.844824,6.11982265 516.467187,3.6741271 C523.08955,1.22843155 530.214453,0 537.830728,0 Z M556.201364,32.6427766 L519.448925,32.6427766 L519.448925,263.532071 L556.201364,263.532071 L556.201364,32.6427766 Z" id="Shape"></path>
            </g>
        </g>
    </g>
</svg>