<?xml version="1.0" encoding="UTF-8"?>
<svg width="800px" height="400px" viewBox="0 0 800 400" version="1.1" xmlns="http://www.w3.org/2000/svg" xmlns:xlink="http://www.w3.org/1999/xlink">
    <title>thq_3</title>
    <g id="Page-1" stroke="none" stroke-width="1" fill="none" fill-rule="evenodd">
        <g id="Manufacturer" fill="#000000" fill-rule="nonzero">
            <g id="thq_3">
                <line x1="0" y1="0" x2="800" y2="400" id="Path"></line>
                <path d="M251.267115,51.3337186 L0,51.3337186 L0,135.36009 L83.6095716,135.36009 L83.6095716,303.416833 L167.646343,303.416833 L167.646343,135.36009 L251.267115,135.36009 L251.267115,51.3337186 Z M398.975864,52.1889183 L398.975864,135.15689 L251.267115,135.15689 L251.267115,160.404881 L251.267115,219.171262 L251.267115,303.416833 L335.292686,303.416833 L335.292686,219.171262 L398.975864,219.171262 L398.975864,303.416833 L483.023836,303.416833 L483.023836,219.171262 L483.023836,135.15689 L483.023836,52.1889183 L398.975864,52.1889183 Z M787.038132,252.24485 C795.06053,233.567257 799.999864,207.177666 799.999864,193.78807 C800.055728,151.786484 782.863734,113.373697 755.309343,85.8753069 C727.821352,58.3433162 689.419765,41.1737221 647.40778,41.1961002 C605.394994,41.1737221 566.993407,58.3433162 539.529416,85.8761069 C511.974226,113.374497 494.804632,151.787284 494.804632,193.78887 C494.804632,235.796056 512.019026,274.186443 539.529416,301.684833 C604.078995,366.268011 657.623776,323.917626 657.623776,380.062407 L657.623776,400 L743.169347,400 L743.169347,372.748009 C743.169347,279.856041 668.448573,268.042445 646.59738,262.798447 C633.737384,259.692848 580.247003,249.341651 580.247003,193.78807 C580.247003,175.481676 587.707,158.582482 599.914996,146.284886 C612.201392,134.06569 628.752586,126.640093 647.40698,126.617693 C666.106973,126.640093 682.623768,134.06649 694.922164,146.284886 C707.140559,158.582482 714.319757,175.088877 714.623757,193.78807 C715.084557,222.28806 692.153365,246.731252 682.962168,252.24485 L787.038132,252.24485 Z" id="Combined-Shape"></path>
            </g>
        </g>
    </g>
</svg>