<?xml version="1.0" encoding="UTF-8"?>
<svg width="800px" height="400px" viewBox="0 0 800 400" version="1.1" xmlns="http://www.w3.org/2000/svg" xmlns:xlink="http://www.w3.org/1999/xlink">
    <title>thq_4</title>
    <g id="Page-1" stroke="none" stroke-width="1" fill="none" fill-rule="evenodd">
        <g id="thq_4" fill="#000000">
            <line x1="0" y1="0" x2="800" y2="400" id="Path" fill-rule="nonzero"></line>
            <path d="M543.412767,0.522521463 C548.304078,-0.412296419 557.143193,-0.0540091935 562.294146,1.28765124 C577.919252,5.35761012 590.423527,17.4330652 595.951168,33.7900781 L597.15994,37.3678393 L597.292828,182.394944 L597.426228,327.422048 L594.972395,327.422048 C584.117978,327.422048 572.006746,318.878866 566.17704,307.110587 C564.354937,303.432137 563.893917,302.851007 562.971366,303.070272 C558.039166,304.242245 554.790048,304.531532 548.982319,304.315333 C543.260457,304.102712 541.851841,303.859935 537.360218,302.314854 C524.819143,298.000074 514.876033,289.259092 509.234415,277.588946 C505.556732,269.981696 505.171059,277.141237 505.151374,208.761593 L505.151192,195.390079 C505.153079,184.93639 505.158342,173.024265 505.159917,159.435706 L505.160367,37.3678393 L506.816871,32.473462 C510.780008,20.764983 519.204102,10.8489624 529.940963,5.25538838 C534.893096,2.67531147 538.169814,1.52429459 543.412767,0.522521463 Z M295.35023,2.35689072 L295.35023,33.0085929 L264.428152,33.2789694 L264.299352,167.57279 L264.170553,301.866611 L233.506073,301.866611 L233.506073,33.023415 L202.32844,33.023415 L202.32844,2.35689072 L295.35023,2.35689072 Z M413.927458,2.35689072 L413.927458,136.793311 L445.360645,136.522934 L445.619777,2.35689072 L476.282724,2.35689072 L476.282724,301.866611 L445.635621,301.866611 L445.360645,167.700567 L413.927458,167.430191 L413.927458,301.866611 L383.260933,301.866611 L383.260933,2.35689072 L413.927458,2.35689072 Z M566.74897,33.023415 L535.571337,33.023415 L535.571337,271.200087 L566.74897,271.200087 L566.74897,33.023415 Z M323.717276,124.100608 C343.617562,124.100608 359.749931,140.232977 359.749931,160.133263 C359.749931,180.033549 343.617562,196.165918 323.717276,196.165918 C303.816991,196.165918 287.684621,180.033549 287.684621,160.133263 C287.684621,140.232977 303.816991,124.100608 323.717276,124.100608 Z M597.67156,344.800256 L597.67156,400 L202.584506,400 L202.584506,344.800256 L597.67156,344.800256 Z M565.61942,371.910997 C564.694313,371.923775 563.098121,372.377639 562.071303,372.919926 C556.630551,375.794401 556.69495,383.928186 562.180169,386.726506 C563.265253,387.280037 564.860935,387.732879 565.726753,387.732879 C568.009875,387.732879 571.08215,385.985398 572.319544,383.982874 C573.724071,381.710485 573.756271,377.856725 572.389055,375.614491 C571.194083,373.654389 567.950076,371.879819 565.61942,371.910997 Z M514.10477,358.937524 C506.796937,359.293256 501.000453,360.367606 497.365959,362.040465 L495.704856,362.805084 L495.704856,381.99415 L497.425248,382.810391 C503.844262,385.856599 520.697562,386.980527 531.993576,385.116002 C539.51403,383.874008 542.72686,382.36266 542.72686,380.066248 C542.72686,379.12006 542.407938,379.047917 535.527267,379.044204 L526.882489,379.044031 L526.882489,382.621792 L511.038118,382.621792 L511.038118,362.177442 L526.817578,362.177442 L527.138043,365.499649 L534.797519,365.499649 C541.579932,365.499649 542.476416,365.401005 542.623616,364.636386 C542.877126,363.320281 541.028445,361.808422 538.102859,360.940048 C533.370503,359.534499 521.754535,358.565437 514.10477,358.937524 Z M249.706176,358.925257 C249.510421,359.121012 249.350444,365.222628 249.350444,372.484972 L249.350444,385.688444 L262.656138,385.688444 L262.383717,358.855235 L256.222812,358.712636 C252.834161,358.633925 249.90193,358.730014 249.706176,358.925257 Z M360.26104,359.11079 L360.26104,385.688444 L375.594302,385.688444 L375.594302,362.177442 L391.438673,362.177442 L391.438673,385.688444 L407.283044,385.688444 L407.283044,362.200953 L405.928606,361.313669 C403.270329,359.57181 398.050887,359.15219 378.788732,359.131234 L360.26104,359.11079 Z" id="Combined-Shape"></path>
        </g>
    </g>
</svg>