<?xml version="1.0" encoding="UTF-8"?>
<svg width="175.519983px" height="30px" viewBox="0 0 175.519983 30" version="1.1" xmlns="http://www.w3.org/2000/svg" xmlns:xlink="http://www.w3.org/1999/xlink">
    <title>neo geo cdz</title>
    <g id="Page-1" stroke="none" stroke-width="1" fill="none" fill-rule="evenodd">
        <g id="System" transform="translate(-12.240008, 0.000000)" fill="#000000" fill-rule="nonzero">
            <g id="neo-geo-cdz" transform="translate(12.240008, 0.000000)">
                <line x1="87.7599917" y1="30" x2="87.7599917" y2="0" id="Path" stroke="#979797"></line>
                <path d="M60.66,11.934 C59.906,11.934 59.292,12.217 58.774,12.736 C58.255,13.255 57.972,13.915 57.972,14.623 C57.972,15.377 58.255,15.991 58.774,16.509 C59.292,17.028 59.953,17.311 60.66,17.311 C61.415,17.311 62.028,17.028 62.547,16.509 C63.066,15.991 63.349,15.377 63.349,14.623 C63.349,13.868 63.066,13.255 62.547,12.736 C62.028,12.17 61.415,11.934 60.66,11.934 Z M111.934,5.33 C109.151,5.236 106.84,6.085 104.906,7.972 C103.019,9.811 102.075,12.17 102.075,14.953 C102.075,17.453 102.783,19.575 104.245,21.415 C106.085,23.726 108.726,24.858 112.075,24.858 C115.472,24.858 118.066,23.679 119.906,21.274 C121.321,19.481 121.981,17.358 121.981,15 C121.981,12.217 121.038,9.906 119.151,8.019 C117.358,6.085 114.906,5.236 111.934,5.33 Z M116.368,20.283 C115.896,21.604 115.283,22.547 114.481,23.113 C113.821,23.585 113.066,23.821 112.123,23.821 C110.708,23.821 109.623,23.302 108.821,22.217 C107.689,20.66 107.123,18.302 107.123,15.094 C107.123,12.406 107.5,10.33 108.208,8.868 C109.104,7.123 110.425,6.226 112.123,6.226 C113.066,6.226 113.868,6.462 114.575,6.981 C115.283,7.5 115.896,8.349 116.321,9.575 C116.792,10.802 117.028,12.689 117.028,15.142 C117.028,17.264 116.792,18.962 116.368,20.283 Z M84.953,16.509 L75.802,16.509 L75.802,16.981 L76.274,16.981 C76.745,16.981 77.123,17.075 77.406,17.264 C77.736,17.453 77.925,17.642 78.019,17.877 C78.113,18.113 78.16,18.585 78.16,19.34 L78.16,23.255 C77.642,23.443 77.17,23.585 76.698,23.679 C76.226,23.774 75.755,23.821 75.33,23.821 C74.009,23.821 72.925,23.491 71.981,22.877 C71.038,22.217 70.377,21.226 69.953,19.906 C69.528,18.538 69.34,16.981 69.34,15.189 C69.34,13.679 69.528,12.264 69.906,10.849 C70.283,9.434 70.943,8.349 71.887,7.547 C72.83,6.745 74.009,6.368 75.377,6.368 C76.84,6.368 78.208,6.84 79.434,7.783 C80.66,8.726 81.604,10.094 82.217,11.934 L82.689,11.934 L82.689,5.283 L82.217,5.283 C82.028,5.802 81.84,6.179 81.604,6.368 C81.368,6.557 81.132,6.651 80.896,6.651 C80.708,6.651 80.189,6.462 79.292,6.132 C78.396,5.802 77.736,5.566 77.311,5.519 C76.557,5.377 75.708,5.283 74.764,5.283 C71.745,5.283 69.245,6.274 67.264,8.208 C65.283,10.142 64.292,12.547 64.292,15.377 C64.292,16.934 64.623,18.396 65.283,19.67 C65.802,20.66 66.509,21.557 67.406,22.358 C68.302,23.16 69.34,23.774 70.519,24.292 C71.698,24.764 73.16,25 74.953,25 C76.368,25 77.689,24.858 79.009,24.575 C80.33,24.292 81.557,23.915 82.783,23.349 L82.783,19.434 C82.783,18.726 82.83,18.302 82.925,18.113 C83.066,17.783 83.302,17.547 83.538,17.406 C83.821,17.264 84.292,17.17 85,17.123 L85,16.509 L84.953,16.509 L84.953,16.509 Z M46.792,5.33 C44.009,5.236 41.698,6.085 39.764,7.972 C37.877,9.811 36.934,12.17 36.934,14.953 C36.934,17.453 37.642,19.575 39.104,21.415 C40.943,23.726 43.585,24.858 46.934,24.858 C50.33,24.858 52.925,23.679 54.764,21.274 C56.179,19.481 56.84,17.358 56.84,15 C56.84,12.217 55.896,9.906 54.009,8.019 C52.217,6.085 49.811,5.236 46.792,5.33 Z M51.226,20.283 C50.755,21.604 50.142,22.547 49.34,23.113 C48.679,23.585 47.925,23.821 46.981,23.821 C45.566,23.821 44.481,23.302 43.679,22.217 C42.547,20.66 41.981,18.302 41.981,15.094 C41.981,12.406 42.358,10.33 43.066,8.868 C43.962,7.123 45.283,6.226 46.981,6.226 C47.925,6.226 48.726,6.462 49.434,6.981 C50.142,7.5 50.755,8.349 51.179,9.575 C51.651,10.802 51.887,12.689 51.887,15.142 C51.887,17.264 51.651,18.962 51.226,20.283 Z M98.491,22.17 C97.453,22.972 96.038,23.396 94.292,23.396 L93.16,23.396 C92.642,23.396 92.217,23.302 91.981,23.16 C91.745,23.019 91.557,22.83 91.509,22.594 C91.415,22.358 91.368,21.745 91.368,20.708 L91.368,15.425 C92.264,15.425 92.972,15.566 93.443,15.802 C93.915,16.038 94.34,16.509 94.67,17.17 C95.047,17.877 95.236,18.726 95.377,19.811 L95.896,19.811 L95.896,9.953 L95.377,9.953 C95.236,11.415 94.906,12.5 94.34,13.255 C93.821,14.009 92.925,14.387 91.745,14.387 L91.368,14.387 L91.368,6.698 L93.302,6.698 C94.717,6.698 95.708,6.792 96.226,6.934 C97.123,7.217 97.783,7.642 98.302,8.255 C98.774,8.868 99.151,9.811 99.434,11.179 L99.953,11.179 L99.953,5.613 L84.198,5.613 L84.198,6.085 L84.811,6.085 C85.425,6.085 85.896,6.226 86.226,6.462 C86.462,6.651 86.651,6.887 86.745,7.217 C86.792,7.406 86.792,7.925 86.792,8.821 L86.792,21.226 C86.792,22.17 86.745,22.783 86.651,22.972 C86.509,23.302 86.321,23.491 86.085,23.632 C85.755,23.821 85.33,23.915 84.764,23.915 L84.151,23.915 L84.151,24.387 L100.377,24.387 L101.226,18.396 L100.708,18.396 C100.33,20.094 99.575,21.368 98.491,22.17 Z M33.396,22.17 C32.359,22.972 30.943,23.396 29.198,23.396 L28.066,23.396 C27.547,23.396 27.123,23.302 26.887,23.16 C26.651,23.019 26.462,22.83 26.415,22.594 C26.321,22.358 26.274,21.745 26.274,20.708 L26.274,15.425 C27.17,15.425 27.877,15.566 28.349,15.802 C28.821,16.038 29.245,16.509 29.575,17.17 C29.953,17.877 30.142,18.726 30.283,19.811 L30.802,19.811 L30.802,9.953 L30.236,9.953 C30.094,11.415 29.764,12.5 29.198,13.255 C28.679,14.009 27.783,14.387 26.604,14.387 L26.226,14.387 L26.226,6.698 L28.16,6.698 C29.575,6.698 30.566,6.792 31.085,6.934 C31.981,7.217 32.642,7.642 33.16,8.255 C33.632,8.868 34.009,9.811 34.292,11.179 L34.811,11.179 L34.811,5.613 L13.208,5.613 L13.208,6.085 C14.245,6.085 15,6.321 15.472,6.887 C15.802,7.264 15.943,8.066 15.943,9.198 L15.943,17.264 L6.651,5.613 L0,5.613 L0,6.085 C0.566,6.085 0.991,6.179 1.321,6.368 C1.604,6.509 1.981,6.84 2.359,7.358 L2.783,7.877 L2.783,21.132 C2.783,22.123 2.594,22.877 2.17,23.302 C1.745,23.726 1.038,23.962 0,23.962 L0,24.434 L6.698,24.434 L6.698,23.962 L6.274,23.962 C5.613,23.962 5.047,23.774 4.575,23.396 C4.104,23.019 3.821,22.264 3.821,21.179 L3.821,9.198 L16.509,24.858 L16.981,24.858 L16.981,9.198 C16.981,8.302 17.075,7.689 17.217,7.311 C17.359,6.934 17.594,6.698 17.83,6.509 C18.113,6.368 18.632,6.226 19.434,6.132 L19.717,6.132 C20.33,6.132 20.802,6.274 21.132,6.509 C21.368,6.698 21.557,6.934 21.651,7.264 C21.698,7.453 21.698,7.972 21.698,8.868 L21.698,21.274 C21.698,22.217 21.651,22.83 21.557,23.019 C21.415,23.349 21.226,23.538 20.991,23.679 C20.66,23.868 20.236,23.962 19.67,23.962 L19.057,23.962 L19.057,24.434 L35.283,24.434 L36.132,18.443 L35.613,18.443 C35.189,20.094 34.434,21.368 33.396,22.17 Z M150.755,7.123 C150.142,6.84 149.151,6.745 147.736,6.745 L147.736,20.613 C147.736,21.321 147.783,21.745 147.83,21.934 C147.877,22.075 148.019,22.217 148.16,22.311 C148.396,22.453 148.726,22.5 149.151,22.5 C150.566,22.5 151.651,22.028 152.406,21.038 C153.396,19.717 153.915,17.547 153.915,14.764 C153.915,12.547 153.585,10.802 152.877,9.434 C152.311,8.443 151.604,7.5 150.755,7.123 Z M151.792,20.566 C151.179,21.368 150.33,21.745 149.151,21.745 C148.726,21.745 148.585,21.651 148.538,21.651 L148.538,21.651 C148.538,21.557 148.491,21.321 148.491,20.613 L148.491,7.5 C149.623,7.547 150.189,7.689 150.472,7.83 C151.179,8.16 151.745,8.962 152.217,9.858 C152.83,11.085 153.16,12.736 153.16,14.811 C153.16,17.311 152.689,19.387 151.792,20.566 Z M157.972,9.575 C157.123,8.066 155.802,6.651 154.151,5.896 C152.783,5.283 151.038,5 148.868,5 L141.085,5 L139.198,5 L139.104,5.66 C139.057,6.038 138.962,6.132 138.915,6.179 C138.868,6.226 138.821,6.274 138.726,6.274 C138.679,6.274 138.443,6.226 137.5,5.849 C136.085,5.283 134.67,5 133.396,5 C131.651,5 129.953,5.425 128.396,6.321 C126.84,7.217 125.566,8.443 124.623,10.047 C123.679,11.651 123.208,13.349 123.208,15.094 C123.208,16.792 123.632,18.396 124.481,19.858 C125.33,21.368 126.557,22.547 128.113,23.349 C129.623,24.151 131.415,24.528 133.349,24.528 C134.858,24.528 136.179,24.292 137.311,23.774 C138.443,23.302 139.528,22.5 140.566,21.415 L140.755,21.179 L140.755,17.358 L139.434,18.915 C138.491,20 137.594,20.755 136.792,21.179 C135.991,21.604 135.141,21.792 134.151,21.792 C133.019,21.792 132.075,21.509 131.415,20.991 C130.708,20.425 130.189,19.623 129.858,18.491 C129.481,17.311 129.292,15.943 129.292,14.481 C129.292,13.019 129.528,11.698 130.047,10.519 C130.425,9.623 130.943,8.962 131.745,8.443 C132.5,7.925 133.349,7.642 134.292,7.642 C135.425,7.642 136.368,7.972 137.264,8.726 C138.16,9.434 138.774,10.519 139.104,11.934 L139.245,12.5 L141.085,12.5 L141.085,6.934 L141.698,6.934 C142.123,6.934 142.358,7.028 142.453,7.075 C142.641,7.17 142.689,7.264 142.689,7.311 C142.689,7.358 142.783,8.066 142.783,9.104 L142.783,20.472 C142.783,21.415 142.736,21.698 142.736,21.792 C142.689,21.887 142.594,21.981 142.453,22.075 C142.358,22.123 142.17,22.217 141.698,22.217 L140.377,22.217 L140.377,24.151 L148.821,24.151 C150,24.151 150.849,24.104 151.415,23.962 C152.641,23.726 153.726,23.396 154.575,22.972 C155.472,22.547 156.274,21.934 156.934,21.226 C157.594,20.472 158.16,19.575 158.585,18.443 C159.009,17.358 159.198,15.943 159.198,14.67 C159.292,12.783 158.821,11.085 157.972,9.575 Z M140.377,11.792 L139.906,11.792 C139.528,10.236 138.821,9.009 137.83,8.208 C136.792,7.358 135.66,6.981 134.387,6.981 C133.302,6.981 132.311,7.311 131.415,7.925 C130.519,8.538 129.858,9.34 129.434,10.33 C128.915,11.604 128.632,13.019 128.632,14.623 C128.632,16.179 128.821,17.547 129.198,18.821 C129.575,20.094 130.189,21.038 131.038,21.698 C131.887,22.358 132.925,22.689 134.245,22.689 C135.33,22.689 136.321,22.453 137.217,21.981 C138.113,21.509 139.057,20.708 140.047,19.528 L140.047,21.038 C139.104,22.028 138.066,22.783 137.028,23.255 C135.991,23.726 134.764,23.915 133.349,23.915 C131.509,23.915 129.858,23.538 128.443,22.83 C127.028,22.075 125.896,21.038 125.142,19.67 C124.387,18.302 123.962,16.84 123.962,15.236 C123.962,13.585 124.387,12.028 125.236,10.566 C126.085,9.104 127.264,7.925 128.726,7.123 C130.189,6.321 131.745,5.896 133.396,5.896 C134.623,5.896 135.896,6.179 137.217,6.698 C138.019,6.981 138.491,7.17 138.726,7.17 C139.009,7.17 139.245,7.075 139.434,6.887 C139.623,6.698 139.764,6.368 139.811,5.943 L140.283,5.943 L140.283,11.792 L140.377,11.792 L140.377,11.792 Z M157.925,18.208 C157.547,19.245 157.028,20.094 156.415,20.755 C155.802,21.415 155.094,21.934 154.292,22.358 C153.491,22.783 152.5,23.066 151.321,23.302 C150.802,23.396 150,23.443 148.868,23.443 L141.179,23.443 L141.179,23.019 L141.745,23.019 C142.264,23.019 142.641,22.925 142.877,22.783 C143.16,22.642 143.349,22.406 143.443,22.123 C143.538,21.934 143.538,21.415 143.538,20.519 L143.538,9.151 C143.538,8.255 143.491,7.311 143.396,7.075 C143.302,6.84 143.113,6.651 142.83,6.509 C142.547,6.321 142.17,6.274 141.698,6.274 L141.132,6.274 L141.132,5.755 L148.821,5.755 C150.896,5.755 152.547,6.038 153.774,6.604 C155.33,7.311 156.462,8.538 157.264,9.953 C158.066,11.321 158.443,12.925 158.443,14.67 C158.538,15.896 158.302,17.17 157.925,18.208 Z" id="Shape"></path>
                <path d="M174.664709,4.95384166 L174.664709,6.26883483 L174.562883,6.4363643 L165.339545,21.6088417 L165.650299,21.6027684 C168.10911,21.5362731 169.838675,21.3052905 170.807424,20.9273285 L170.947026,20.869534 C171.938658,20.4333523 172.77348,19.0901335 173.376416,16.7880135 L173.5133,16.2653651 L175.519983,16.2653651 L175.434962,17.0415827 L174.749415,23.3003717 L174.68109,23.9241542 L158.271545,23.9241542 L158.271545,23.2241542 L158.271545,22.6080858 L158.374409,22.4399297 L167.661545,7.25784166 L167.547249,7.25909129 C166.504087,7.26576758 165.826326,7.28091527 165.533005,7.30345394 L165.472148,7.30878588 C165.120577,7.34433801 164.801402,7.39329122 164.504334,7.45743563 C163.568773,7.64454798 162.856565,8.07745833 162.338349,8.76372463 C162.015466,9.19668076 161.616527,10.0344529 161.163997,11.2546667 L160.994663,11.7112635 L159.009094,11.7112635 L159.087651,10.9403039 L159.63355,5.58288207 L159.697646,4.95384166 L174.664709,4.95384166 Z M173.964709,5.65384166 L160.329944,5.65384166 L159.784045,11.0112635 L160.507678,11.0112635 C160.981636,9.73326874 161.404813,8.84459687 161.777209,8.34524791 C162.403511,7.51582083 163.266793,6.99108124 164.367053,6.77102916 C164.680204,6.70332083 165.025093,6.65042369 165.401721,6.61233775 C165.778349,6.57425182 166.948433,6.55520885 168.911975,6.55520885 L158.971545,22.8052088 L158.971545,23.2241542 L174.053576,23.2241542 L174.739123,16.9653651 L174.053576,16.9653651 C173.401884,19.4536463 172.460315,20.9686203 171.228869,21.510287 C169.997424,22.0519536 167.617053,22.322787 164.087756,22.322787 L173.964709,6.07278697 L173.964709,5.65384166 Z" id="Path"></path>
            </g>
        </g>
    </g>
</svg>