<?xml version="1.0" encoding="UTF-8"?>
<svg width="85.7533656px" height="30px" viewBox="0 0 85.7533656 30" version="1.1" xmlns="http://www.w3.org/2000/svg" xmlns:xlink="http://www.w3.org/1999/xlink">
    <title>psone</title>
    <g id="Page-1" stroke="none" stroke-width="1" fill="none" fill-rule="evenodd">
        <g id="System" transform="translate(-57.123317, 0.000000)" fill="#000000" fill-rule="nonzero">
            <g id="psone" transform="translate(57.123317, 0.000000)">
                <line x1="42.8766828" y1="30" x2="42.8766828" y2="0" id="Path" stroke="#979797"></line>
                <path d="M27.104205,0.0229291758 C30.8738172,1.14491749e-15 33.6489917,2.01200157 33.8571298,5.08782006 C33.9033827,5.57347561 33.5333595,6.2441428 32.3307838,6.2441428 C30.7581849,6.2441428 30.4806674,5.43471688 30.2956558,5.08782006 C29.9950119,4.25526768 29.0005743,3.46896822 27.0579521,3.46896822 C26.0172617,3.46896822 25.1153299,3.79273859 24.5371685,4.37089996 C23.9821336,4.92593487 23.7046162,5.73536079 23.7046162,6.72979835 C23.7046162,8.48740891 24.9071918,9.73623747 27.2198373,10.0368814 C32.4232896,10.730675 35.4759817,12.5807914 35.4759817,17.4373469 C35.4759817,22.4095347 31.8913812,25.0228241 27.0348257,24.9998498 C21.8082469,24.9765712 18.8249342,21.6694882 18.7555548,17.4373469 L18.7552159,17.4050744 C18.7574754,17.2494545 18.8126908,16.5748662 19.5881072,16.3504035 C20.0506363,16.2116448 20.5825448,16.1653919 21.2069591,16.3041506 C22.2245231,16.5122887 22.2476495,17.391094 22.2476495,17.391094 C22.3632818,19.8887511 24.2596511,21.5538559 27.0579521,21.5538559 C30.0875177,21.5538559 32.1226457,20.3744067 32.1226457,17.4835998 C32.1226457,15.3328395 30.6656791,13.9221258 26.8960669,13.5058496 C22.779558,13.0895734 20.3281538,10.1525137 20.3050273,6.7529248 C20.2819009,4.83342905 20.9294416,3.14519785 22.1320172,1.9426222 C23.3577194,0.716920099 25.1384564,0.0229291758 27.104205,0.0229291758 Z M9.48184647,0 C14.7084253,0 18.9405665,4.25526768 18.9636929,9.48184647 C18.9636929,14.7315517 14.7084253,18.9636929 9.48184647,18.9636929 C7.35421263,18.9636929 5.41159042,18.2467728 3.81586504,17.0673236 C3.70023277,16.9748178 3.49209468,16.7435533 3.35333595,16.627921 L3.42271531,17.4142205 L3.42271531,23.7277426 C3.42271531,24.560295 2.79830103,24.9765712 1.66510475,24.9765712 C0.62441428,24.9765712 0,24.5140421 0,23.7277426 L0,9.48184647 C0.0231264548,4.27839414 4.25526768,0 9.48184647,0 Z M9.48184647,3.44584177 C6.15163698,3.44584177 3.44584177,6.15163698 3.44584177,9.48184647 C3.44584177,12.812056 6.15163698,15.5178512 9.48184647,15.5178512 C12.812056,15.5178512 15.5178512,12.7889295 15.5178512,9.48184647 C15.5178512,6.15163698 12.812056,3.44584177 9.48184647,3.44584177 Z M74.8603342,16.4197829 L74.5596903,16.4429094 C74.5596903,16.4197829 74.6753226,16.1885184 74.7215755,16.119139 C75.3691162,14.6159194 76.6410712,13.5983554 78.6068199,13.5521025 C80.6419479,13.5289761 82.0757881,14.7084253 82.4920643,16.0960125 C82.5383172,16.1885184 82.5845701,16.3504035 82.630823,16.4429094 L82.3533056,16.4197829 L74.8603342,16.4197829 Z M74.8140813,19.1024517 L84.2034219,19.1024517 C84.9434685,19.1255781 85.7760209,18.663049 85.7528944,17.7148644 C85.6603886,13.8064935 82.4920643,10.6150428 78.560567,10.6150428 C74.6059432,10.6150428 71.3682395,13.82962 71.3682395,17.8073702 C71.3682395,21.761994 74.6059432,24.9534447 78.560567,24.9765712 C82.2376733,24.9996976 83.8333987,23.542731 84.7353304,22.0395114 C84.9434685,21.6232352 85.0591008,20.9294416 84.3884336,20.443786 C83.6021341,19.8887511 82.7695818,20.1431421 82.3070527,20.6519241 C81.2663622,21.761994 80.341304,22.1551437 78.560567,22.1320172 C76.8260829,22.1088908 75.3228633,21.0219474 74.6753226,19.5418543 C74.6521961,19.4956014 74.6290697,19.426222 74.6059432,19.3799691 C74.5828167,19.3105898 74.4903109,19.1949575 74.444058,19.1024517 L74.8140813,19.1024517 Z M47.3861059,24.9765712 C51.3407297,24.9765712 54.5784333,21.761994 54.5784333,17.8073702 C54.5784333,13.82962 51.3407297,10.6150428 47.3861059,10.6150428 C43.4314821,10.6150428 40.1937785,13.82962 40.1937785,17.8073702 C40.2169049,21.761994 43.4314821,24.9765712 47.3861059,24.9765712 Z M43.1308382,17.8073702 C43.1308382,15.4484718 45.0272075,13.5289761 47.3861059,13.5289761 C49.7450043,13.5289761 51.6413736,15.4484718 51.6413736,17.8073702 C51.6413736,20.1431421 49.7450043,22.0626379 47.3861059,22.0626379 C45.050334,22.0626379 43.1308382,20.1431421 43.1308382,17.8073702 Z M57.2842286,24.9765712 C58.1399074,24.9765712 58.7411952,24.560295 58.7411952,23.8202485 C58.7411952,23.3345929 58.7411952,17.8304967 58.7411952,17.8304967 C58.7411952,15.4715983 60.6375645,13.5521025 62.9964629,13.5521025 C65.3553613,13.5521025 67.274857,15.4715983 67.274857,17.8304967 L67.274857,23.8433749 C67.274857,24.5371685 67.8530184,24.9996976 68.7086972,24.9996976 C69.6337554,24.9996976 70.1887903,24.5834215 70.1887903,23.8433749 C70.1887903,23.7277426 70.1887903,17.8304967 70.1887903,17.8304967 C70.1887903,13.8527464 66.9742131,10.6150428 62.9964629,10.6150428 C59.0418391,10.6150428 55.8272619,13.82962 55.8272619,17.8304967 C55.8272619,17.8304967 55.8272619,23.4039723 55.8272619,23.8433749 C55.8272619,24.560295 56.3591704,24.9765712 57.2842286,24.9765712 Z" id="Combined-Shape"></path>
            </g>
        </g>
    </g>
</svg>