<?xml version="1.0" encoding="UTF-8"?>
<svg width="800px" height="400px" viewBox="0 0 800 400" version="1.1" xmlns="http://www.w3.org/2000/svg" xmlns:xlink="http://www.w3.org/1999/xlink">
    <title>easports_2</title>
    <g id="Page-1" stroke="none" stroke-width="1" fill="none" fill-rule="evenodd">
        <g id="AF159_INCREMENTAL" fill="#000000" transform="translate(-0.000000, -0.400000)">
            <g id="easports_2" transform="translate(0.000000, 0.400000)">
                <line x1="0" y1="0" x2="800" y2="400" id="Path" fill-rule="nonzero"></line>
                <path d="M501.228536,1.13686838e-13 L668.218623,265.901159 L605.31551,265.901159 L572.145051,213.178836 L472.633673,213.178836 L505.804132,160.456513 L538.974592,160.456513 L501.228536,99.7103169 L397.141561,265.901159 L123.774955,265.901159 L190.115873,160.456513 L140.93257,160.456513 L174.103029,107.730699 L377.694402,107.730699 L344.527433,160.456513 L253.022477,160.456513 L219.855507,213.178836 L366.260645,213.178836 L501.228536,1.13686838e-13 Z M456.620829,2.28954349 L423.45037,55.0118665 L207.273489,55.0118665 L240.443948,2.28954349 L456.620829,2.28954349 Z M171.816976,295.703616 C190.115873,295.703616 196.974033,300.282703 196.974033,318.619992 L196.974033,325.499093 L182.109451,325.499093 L182.109451,310.599609 L134.07092,310.599609 L134.07092,339.257294 L174.103029,339.257294 C192.405417,339.257294 198.122295,344.991624 198.122295,363.321932 L198.122295,375.931872 C198.122295,394.265671 192.405417,400 174.103029,400 L142.077342,400 C123.774955,400 118.058076,394.269161 118.058076,375.931872 L118.058076,369.052771 L134.07092,369.052771 L134.07092,385.100517 L182.112942,385.100517 L182.112942,354.153288 L142.077342,354.153288 C123.774955,354.153288 118.058076,349.570711 118.058076,330.08865 L118.058076,320.920006 C118.058076,301.430965 123.774955,295.703616 142.077342,295.703616 Z M591.58523,295.703616 L591.58523,310.596119 L556.125227,310.596119 L556.125227,400 L538.974592,400 L538.974592,310.596119 L504.659361,310.596119 L504.659361,295.703616 L591.58523,295.703616 Z M656.781377,295.703616 C673.938992,295.703616 680.804132,300.282703 680.804132,318.619992 L680.804132,325.499093 L665.92908,325.499093 L665.92908,310.599609 L617.890549,310.599609 L617.890549,339.257294 L657.926148,339.257294 C677.366327,339.257294 681.941924,344.991624 681.941924,363.321932 L681.941924,375.931872 C681.941924,394.265671 677.366327,400 657.926148,400 L622.473126,400 C604.170739,400 598.45037,394.269161 598.45037,375.931872 L598.45037,369.052771 L614.463214,369.052771 L614.463214,385.100517 L667.073852,385.100517 L667.073852,354.153288 L627.045232,354.153288 C607.598073,354.153288 603.022477,349.570711 603.022477,330.08865 L603.022477,320.920006 C603.022477,301.430965 607.598073,295.703616 627.045232,295.703616 Z M271.324864,295.707106 C286.192936,295.707106 293.054586,301.430965 293.054586,316.333938 L293.054586,339.257294 C293.054586,354.149798 286.192936,359.884127 271.324864,359.884127 L230.147983,359.884127 L230.147983,400 L212.993857,400 L212.993857,295.707106 Z M472.633673,295.707106 C487.501745,295.707106 494.366885,301.430965 494.366885,316.333938 L494.366885,339.257294 C494.366885,354.149798 487.501745,359.884127 472.633673,359.884127 L456.620829,359.884127 L504.659361,400 L478.354042,400 L436.028899,359.884127 L431.453302,359.884127 L431.453302,400 L413.157895,400 L413.157895,295.707106 Z M373.122295,295.700126 C391.424682,295.700126 397.141561,301.427475 397.141561,320.916515 L397.141561,375.928382 C397.141561,394.262181 391.424682,399.99651 373.122295,399.99651 L330.804132,399.99651 C312.505235,399.99651 306.784867,394.265671 306.784867,375.928382 L306.784867,320.916515 C306.784867,301.427475 312.501745,295.703616 330.800642,295.700126 Z M379.987435,309.451347 L323.938992,309.451347 L323.938992,385.097026 L379.987435,385.097026 L379.987435,309.451347 Z M264.463214,309.451347 L230.147983,309.451347 L230.147983,346.132905 L264.463214,346.132905 C272.469636,346.132905 275.900461,343.836381 275.900461,334.667737 L275.900461,319.771744 C275.900461,311.747871 272.469636,309.451347 264.463214,309.451347 Z M465.768533,309.451347 L431.453302,309.451347 L431.453302,346.132905 L465.768533,346.132905 C472.633673,346.132905 476.061008,343.836381 476.061008,335.812509 L476.061008,319.771744 C476.061008,311.747871 472.633673,309.451347 465.768533,309.451347 Z" id="Combined-Shape"></path>
            </g>
        </g>
    </g>
</svg>