<?xml version="1.0" encoding="UTF-8"?>
<svg width="800px" height="400px" viewBox="0 0 800 400" version="1.1" xmlns="http://www.w3.org/2000/svg" xmlns:xlink="http://www.w3.org/1999/xlink">
    <title>easports_3</title>
    <g id="Page-1" stroke="none" stroke-width="1" fill="none" fill-rule="evenodd">
        <g id="Manufacturer" fill="#000000" fill-rule="nonzero">
            <g id="AF159_INCREMENTAL" transform="translate(-0.000000, -0.400000)">
                <g id="easports_3" transform="translate(0.000000, 0.400000)">
                    <line x1="0" y1="0" x2="800" y2="400" id="Path"></line>
                    <path d="M370.431154,209.454255 L225.412262,209.454255 L258.654416,157.477859 L348.748199,157.477859 L381.650389,105.690343 L180.648683,105.690343 L147.897601,157.477859 L196.136496,157.477859 L130.445469,261.279536 L400.46241,261.279536 L503.022015,98.4378277 L540.117237,157.402305 L508.121662,157.402305 L475.408353,209.454255 L572.981629,209.454255 L605.808265,261.279536 L668.061758,261.279536 L503.022015,5.68434189e-14 L370.431154,209.454255 Z M246.075276,1.92639755 L213.437521,53.7139632 L426.640622,53.6383677 L459.316141,1.92639755 L246.075276,1.92639755 L246.075276,1.92639755 Z M202.808006,376.074242 C202.808006,382.684611 200.503722,388.42618 195.93292,393.034581 C191.286572,397.642941 185.620299,399.984898 179.047412,399.984898 L151.056014,399.984898 C144.332036,399.984898 138.703536,397.718486 134.208288,393.26121 C129.788593,388.803942 127.522082,383.28901 127.522082,376.489768 L127.522082,365.38435 L144.785335,365.38435 L147.429598,375.658724 C148.56285,379.96491 151.47154,382.118002 156.193442,382.118002 L175.232125,382.118002 C177.649743,382.118002 179.538492,381.211446 181.049497,379.549417 C182.484955,377.774052 183.202681,375.50765 183.202681,372.901275 L183.202681,360.662655 C183.202681,354.694441 180.596198,351.596994 175.232125,351.596994 L151.282667,351.596994 C144.785335,351.596994 139.194608,349.330583 134.472714,344.759988 C129.90192,340.000504 127.522082,334.334489 127.522082,327.686355 L127.522082,311.594824 C127.522082,305.135546 129.90192,299.545077 134.472714,294.861147 C139.194608,290.177242 144.785335,287.910814 151.282667,287.910814 L179.047412,287.910814 C185.620299,287.910814 191.211026,290.139452 195.744039,294.521191 C200.314841,298.978468 202.468025,304.568954 202.468025,311.292642 L202.468025,321.340396 L185.3181,321.340396 L182.749382,312.236979 C181.389477,307.855248 178.405233,305.73992 174.023319,305.73992 L155.286836,305.73992 C152.793672,305.73992 150.867141,306.646501 149.39391,308.421857 C147.882897,310.121659 147.202945,312.312533 147.202945,315.032218 L147.202945,324.475607 C147.202945,330.330486 149.884981,333.276841 155.286836,333.276841 L179.047412,333.276841 C185.544745,333.276841 191.211026,335.61879 195.78182,340.378274 C200.503722,345.099952 202.808006,350.614884 202.808006,357.111926 L202.808006,376.074242 Z M300.732431,335.063358 C300.732431,341.598182 298.314813,347.226433 293.668465,351.872581 C288.946571,356.556487 283.242526,358.898468 276.707429,358.898468 L245.882877,358.898468 L245.882877,399.99605 L226.050923,399.99605 L226.050923,287.921991 L276.707429,287.921991 C283.242526,287.921991 288.946571,290.263948 293.668465,294.872324 C298.314813,299.480684 300.732431,305.07117 300.732431,311.530431 L300.732431,335.063358 Z M272.81657,306.015516 L245.882877,306.015516 L245.882877,340.76718 L272.81657,340.76718 L278.558397,338.160788 C280.031636,336.423205 280.749362,334.270121 280.749362,331.51263 L280.749362,315.194487 C280.749362,312.474785 280.031636,310.397246 278.558397,308.621882 L272.81657,306.015516 Z M476.583418,400 L458.375787,356.182692 L439.563741,356.182692 L439.563741,400 L419.694006,400 L419.694006,287.925933 L469.292806,287.925933 C475.941238,287.925933 481.531965,290.267873 486.140524,294.838485 C490.749107,299.522398 493.128945,305.150649 493.128945,311.534373 L493.128945,331.063297 C493.128945,336.16272 491.693486,340.771105 488.935887,344.812872 C486.027214,348.892412 482.40079,351.800977 477.943323,353.651871 L497.661958,400 L476.583418,400 Z M465.553064,306.019441 L439.563741,306.019441 L439.563741,338.051403 L465.553064,338.051403 L471.030456,335.558347 C472.541477,333.858553 473.221421,331.70546 473.221421,328.985759 L473.221421,315.160655 C473.221421,312.554264 472.541477,310.401171 471.030456,308.588042 L465.553064,306.019441 Z M582.667289,305.996778 L553.920384,305.996778 L553.920384,399.977338 L534.126178,399.977338 L534.126178,305.996778 L505.568162,305.996778 L505.568162,287.941036 L582.667289,287.941036 L582.667289,305.996778 Z M672.477918,376.074242 C672.477918,382.684611 670.135845,388.42618 665.602832,393.034581 C660.880938,397.642941 655.252447,399.984898 648.604006,399.984898 L620.612599,399.984898 C613.964167,399.984898 608.37344,397.718486 603.802646,393.26121 C599.382959,388.803942 597.078676,383.28901 597.078676,376.489768 L597.078676,365.38435 L614.379701,365.38435 L616.948411,375.658724 C618.157216,379.96491 621.103679,382.118002 625.787792,382.118002 L644.826491,382.118002 C647.20632,382.118002 649.17064,381.211446 650.681644,379.549417 C652.117103,377.774052 652.721493,375.50765 652.721493,372.901275 L652.721493,360.662655 C652.721493,354.694441 650.152783,351.596994 644.826491,351.596994 L620.952579,351.596994 C614.379701,351.596994 608.71342,349.330583 604.104861,344.759988 C599.496278,340.000504 597.078676,334.334489 597.078676,327.686355 L597.078676,311.594824 C597.078676,305.135546 599.496278,299.545077 604.104861,294.861147 C608.71342,290.177242 614.379701,287.910814 620.952579,287.910814 L648.604006,287.910814 C655.252447,287.910814 660.805384,290.139452 665.338397,294.521191 C669.833654,298.978468 672.137937,304.568954 672.137937,311.292642 L672.137937,321.340396 L654.950231,321.340396 L652.305967,312.236979 C650.946054,307.855248 648.03738,305.73992 643.617678,305.73992 L624.805657,305.73992 C622.388038,305.73992 620.348173,306.646501 618.98826,308.421857 C617.477255,310.121659 616.797311,312.312533 616.797311,315.032218 L616.797311,324.475607 C616.797311,330.330486 619.47934,333.276841 624.805657,333.276841 L648.604006,333.276841 C655.176876,333.276841 660.729838,335.61879 665.338397,340.378274 C670.135845,345.099952 672.477918,350.614884 672.477918,357.111926 L672.477918,376.074242 Z M367.832323,305.996778 L348.793631,305.996778 L342.976259,308.603145 C341.616355,310.378509 340.860857,312.531602 340.860857,315.213539 L340.860857,372.629305 C340.860857,375.273437 341.616355,377.388765 342.976259,379.164112 L348.793631,381.95936 L367.832323,381.95936 L373.574149,379.164112 C375.085153,377.388765 375.840668,375.273437 375.840668,372.629305 L375.840668,315.213539 C375.840668,312.531602 375.085153,310.378509 373.574149,308.603145 L367.832323,305.996778 Z M395.597084,375.915599 C395.597084,382.714833 393.292784,388.380873 388.646453,393.027013 C383.886769,397.597617 378.371597,399.977338 371.64761,399.977338 L344.865009,399.977338 C338.254366,399.977338 332.512539,397.597617 327.941737,393.027013 C323.33317,388.380873 320.91556,382.714833 320.91556,375.915599 L320.91556,311.473946 C320.91556,305.127987 323.33317,299.461972 327.941737,294.853587 C332.512539,290.207463 338.254366,287.941036 344.865009,287.941036 L371.64761,287.941036 C378.371597,287.941036 383.886769,290.207463 388.646453,294.778042 C393.292784,299.310872 395.597084,305.014668 395.597084,311.473946 L395.597084,375.915599 Z" id="Combined-Shape"></path>
                </g>
            </g>
        </g>
    </g>
</svg>