<?xml version="1.0" encoding="UTF-8"?>
<svg width="800px" height="400px" viewBox="0 0 800 400" version="1.1" xmlns="http://www.w3.org/2000/svg" xmlns:xlink="http://www.w3.org/1999/xlink">
    <title>electrobrain_1</title>
    <g id="Page-1" stroke="none" stroke-width="1" fill="none" fill-rule="evenodd">
        <g id="AF159_INCREMENTAL" fill="#000000" transform="translate(-0.000000, -0.400000)">
            <g id="electrobrain_1" transform="translate(0.000000, 0.400000)">
                <line x1="0" y1="0" x2="800" y2="400" id="Path" fill-rule="nonzero"></line>
                <path d="M197.010498,305.084907 L197.008,305.486 L197.008,312.484 C197.008,315.983071 197.783492,318.423667 199.334477,319.805787 L199.51,319.955 C201.124194,321.264032 204.268356,321.939662 208.942487,321.981889 L209.415,321.984 L218.341,321.984 C223.073903,321.984 226.229075,321.524791 227.806515,320.606373 L227.959,320.513 C229.416944,319.573833 230.176291,317.863208 230.237038,315.381125 L230.241,315.053 L230.241,314.512 L245.826,314.512 C245.826,314.5664 245.833253,314.65664 245.84776,314.78272 L245.86,314.884 C245.922769,316.236615 245.956568,317.27226 245.961396,317.990935 L245.962,318.164 C245.962,321.197098 245.602655,323.731188 244.883965,325.76627 L244.745,326.142 C243.984375,328.107 242.817402,329.705789 241.244082,330.938367 L240.924,331.18 C239.375451,332.325098 237.342953,333.161047 234.826505,333.687848 L234.349,333.783 C231.711765,334.281815 227.888517,334.54046 222.879255,334.558934 L222.296,334.56 L205.122,334.56 C200.058214,334.56 196.283196,334.298093 193.796946,333.774279 L193.526,333.715 C191.211956,333.189222 189.212092,332.319936 187.526409,331.107142 L187.17,330.842 C185.260667,329.33549 183.840597,327.504773 182.909792,325.349848 L182.741,324.942 C181.865632,322.732105 181.404911,319.970842 181.358839,316.658211 L181.355,316.101 L181.355,303.156 L197.103387,303.155882 C197.050086,303.757394 197.019123,304.400402 197.010498,305.084907 Z M450.137,303.156 L450.137,315.797 C450.137,319.479833 449.745315,322.506549 448.961945,324.877148 L448.835,325.246 C448.018686,327.526784 446.75799,329.37293 445.05291,330.784436 L444.728,331.044 C443.136784,332.253098 441.066639,333.127949 438.517564,333.668554 L438.034,333.766 C435.356943,334.27708 431.261973,334.541432 425.749092,334.559056 L407.133,334.56 C401.447067,334.56 397.235064,334.312684 394.496991,333.818051 L394.219,333.766 C391.652098,333.267176 389.534599,332.434106 387.866502,331.266789 L387.559,331.044 C385.734373,329.686824 384.389265,327.935165 383.523678,325.789024 L383.367,325.382 C382.551127,323.160413 382.123765,320.248576 382.084914,316.64649 L382.082,316.101 L382.082,303.156 L397.85641,303.155339 C397.788351,303.759664 397.748906,304.405128 397.738075,305.091731 L397.735,305.486 L397.735,312.484 C397.735,315.98754 398.580527,318.429899 400.27158,319.811077 L400.456,319.955 C402.215677,321.266677 405.665408,321.942389 410.805194,321.982137 L411.292,321.984 L421.062,321.984 C426.329394,321.984 429.880091,321.343021 431.714092,320.061062 L431.881,319.939 C433.600264,318.622034 434.489539,316.218096 434.548824,312.727185 L434.552,312.349 L434.552,305.215 C434.552,304.482834 434.517061,303.796425 434.447184,303.155772 L450.137,303.156 Z M55.005,321.916 L55.005,333.952 L0,333.952 L0,321.916 L55.005,321.916 Z M800,303.156 L800,333.952 L777.484,333.952 L752.091,303.156 L770.573,303.156 L784.685,320.53 L784.685,303.156 L800,303.156 Z M747.294,303.156 L747.294,333.952 L731.945,333.952 L731.945,303.156 L747.294,303.156 Z M551.971952,303.156385 C551.774346,303.553333 551.551028,303.929871 551.302,304.286 L551.106008,304.555075 C549.896634,306.150709 548.085632,307.407684 545.673,308.326 L546.06579,308.39442 C549.042986,308.947112 551.233722,310.146972 552.638,311.994 L552.817269,312.239266 C554.162423,314.153616 554.835,316.849528 554.835,320.327 L554.83127,320.769077 C554.754173,325.297963 553.482083,328.610271 551.015,330.706 L550.7792,330.899747 C548.218299,332.934582 544.194899,333.952 538.709,333.952 L491.006,333.952 L491.006,322.525 L534.753,322.525 L535.019396,322.519667 C536.243265,322.469889 537.1968,322.071667 537.88,321.325 L538.021649,321.160413 C538.659883,320.370938 538.979,319.2818 538.979,317.893 L538.973138,317.60751 C538.922332,316.388694 538.541286,315.407857 537.83,314.665 L537.673213,314.510204 C536.925427,313.812735 535.952022,313.464 534.753,313.464 L491.006,313.464 L491.006,303.221 L533.367,303.221 L533.637628,303.215566 C533.852154,303.206801 534.05759,303.18743 534.253933,303.157455 Z M286.309,303.156 L286.309,333.952 L270.96,333.952 L270.96,303.156 L286.309,303.156 Z M722.025,303.156 L722.025,333.952 L706.642,333.952 L706.642,303.156 L722.025,303.156 Z M79.835,303.156 L79.835,321.781 L113.338,321.781 L113.338,333.952 L64.452,333.952 L64.452,303.156 L79.835,303.156 Z M685.424,303.156 L701.928,333.952 L685.058,333.952 L680.19,325.568 L649.526,325.568 L644.624,333.952 L627.855,333.952 L644.67,303.156 L660.877,303.156 L655.341,313.464 L674.679,313.464 L669.026,303.156 L685.424,303.156 Z M622.335097,309.573001 L622.195,309.813 C620.963861,311.843389 618.935855,313.23212 616.110981,313.979194 L615.738,314.073 C618.264367,314.672767 620.190571,315.709644 621.516612,317.183633 L621.721,317.42 C622.981,318.935789 623.644158,320.876698 623.710474,323.242726 L623.716,323.641 L623.716,333.952 L608.334,333.952 L608.334,326.278 C608.334,324.398421 607.914266,323.075596 607.074798,322.309524 L606.931,322.187 C606.036333,321.475348 604.311517,321.104051 601.75655,321.07311 L601.403,321.071 L578.481,321.071 L578.481,333.952 L563.065,333.952 L563.065,303.156 L578.481,303.156 L578.481,308.461 L602.924,308.461 C604.867368,308.461 606.259368,308.031094 607.1,307.171283 L607.235,307.024 C607.903897,306.245065 608.30086,304.955978 608.425887,303.156736 L624.002067,303.157349 C623.773399,305.863845 623.217743,308.002396 622.335097,309.573001 Z M372.673097,309.573001 L372.533,309.813 C371.301861,311.843389 369.273855,313.23212 366.448981,313.979194 L366.076,314.073 C368.602367,314.672767 370.528872,315.709644 371.855515,317.183633 L372.06,317.42 C373.32,318.935789 373.983158,320.876698 374.049474,323.242726 L374.055,323.641 L374.055,333.952 L358.672,333.952 L358.672,326.278 C358.672,324.398421 358.252266,323.075596 357.412798,322.309524 L357.269,322.187 C356.374333,321.475348 354.649822,321.104051 352.095465,321.07311 L351.742,321.071 L328.82,321.071 L328.82,333.952 L313.404,333.952 L313.404,303.156 L328.82,303.156 L328.82,308.461 L353.263,308.461 C355.206368,308.461 356.598368,308.031094 357.439,307.171283 L357.574,307.024 C358.242355,306.245065 358.638996,304.955978 358.763922,303.156736 L374.340067,303.157349 C374.111399,305.863845 373.555743,308.002396 372.673097,309.573001 Z M173.294,321.308 L173.294,333.343 L118.289,333.343 L118.289,321.308 L173.294,321.308 Z M55.005,303.156 L55.005,314.8 L0,314.8 L0,303.156 L55.005,303.156 Z M173.294,303.156 L173.294,314.191 L118.289,314.191 L118.289,303.156 L173.294,303.156 Z M79.835,283.612 L79.835,297.648 L64.452,297.648 L64.452,283.612 L79.835,283.612 Z M234.225332,283.696642 L234.501,283.747 C236.961863,284.213824 238.933461,284.980052 240.415796,286.045685 L240.688,286.249 C242.188,287.39025 243.316809,288.902691 244.074426,290.786324 L244.221,291.168 C244.869619,292.940815 245.239501,295.100463 245.330647,297.646944 L228.670011,297.647689 C228.493564,297.445519 228.297074,297.259567 228.08054,297.089832 L227.891,296.949 C226.656714,296.079794 224.732481,295.624495 222.118302,295.583104 L221.721,295.58 L209.415,295.58 C204.300818,295.58 200.961632,296.178665 199.397443,297.375996 L199.256,297.49 C199.196546,297.540515 199.138271,297.59322 199.081175,297.648117 L181.639305,297.647899 C182.237278,293.057241 183.778531,289.667204 186.263064,287.477788 L186.494,287.28 C189.847106,284.489986 195.866366,283.065298 204.55178,283.005936 L205.122,283.004 L222.296,283.004 C227.627586,283.004 231.60403,283.234881 234.225332,283.696642 Z M307.371,283.612 L307.371,295.952 L286.309,295.952 L286.309,297.648 L270.96,297.648 L270.96,295.952 L249.898,295.952 L249.898,283.612 L307.371,283.612 Z M353.838,283.612 C361.635333,283.612 367.000124,284.742157 369.932371,287.00247 L370.133,287.162 C372.622958,289.204836 374.038288,292.700048 374.378988,297.647635 L357.618,297.648 L357.489,297.507 C356.661392,296.658686 355.364894,296.209579 353.599505,296.159678 L353.263,296.155 L328.82,296.155 L328.82,297.648 L313.404,297.648 L313.404,283.612 L353.838,283.612 Z M437.685214,283.760033 L437.983,283.815 C440.645275,284.323863 442.793482,285.152504 444.427623,286.300924 L444.728,286.52 C446.494741,287.860481 447.814007,289.663898 448.685799,291.93025 L448.835,292.335 C449.368802,293.8458 449.738466,295.61655 449.943991,297.647249 L431.911,297.648 L431.881,297.625 C430.154293,296.30298 426.710889,295.621939 421.550789,295.581878 L421.062,295.58 L411.224,295.58 C405.842412,295.58 402.260437,296.227497 400.478075,297.52249 L400.321,297.642 L400.314,297.648 L382.296737,297.646914 C382.488551,295.732041 382.808868,294.080877 383.25769,292.69342 L383.367,292.368 C384.175444,290.047815 385.466745,288.180158 387.240901,286.765031 L387.559,286.52 C389.149588,285.331608 391.23446,284.462994 393.813616,283.914159 L394.303,283.815 C397.012241,283.292977 401.071653,283.022965 406.481235,283.004964 L425.153,283.004 C430.680264,283.004 434.857669,283.256011 437.685214,283.760033 Z M536.342,283.612 L536.866058,283.6154 C542.237998,283.685675 546.266979,284.845208 548.953,287.094 L549.208814,287.315219 C551.810271,289.637635 553.111,293.091229 553.111,297.676 L553.11,297.648 L537.135755,297.648124 C536.979765,297.109507 536.726311,296.633766 536.375393,296.220903 L536.224,296.053 L536.063638,295.894719 C535.354165,295.23424 534.455286,294.904 533.367,294.904 L491.006,294.904 L491.006,283.612 L536.342,283.612 Z M603.499,283.612 C611.296333,283.612 616.661124,284.742157 619.593371,287.00247 L619.794,287.162 C622.284534,289.204836 623.70019,292.700048 624.040969,297.647635 L607.279,297.648 L607.15,297.507 C606.32302,296.658686 605.026558,296.209579 603.260616,296.159678 L602.924,296.155 L578.481,296.155 L578.481,297.648 L563.065,297.648 L563.065,283.612 L603.499,283.612 Z M674.95,283.612 L682.472,297.648 L666.006,297.648 L664.909,295.648 L663.835,297.648 L647.677,297.648 L655.341,283.612 L674.95,283.612 Z M722.025,283.612 L722.025,297.648 L706.642,297.648 L706.642,283.612 L722.025,283.612 Z M754.698,283.612 L766.099,297.648 L747.55,297.648 L747.294,297.338 L747.294,297.648 L731.945,297.648 L731.945,283.612 L754.698,283.612 Z M800,283.612 L800,297.648 L784.685,297.648 L784.685,283.612 L800,283.612 Z M55.005,283.612 L55.005,295.648 L0,295.648 L0,283.612 L55.005,283.612 Z M173.294,283.004 L173.294,295.039 L118.289,295.039 L118.289,283.004 L173.294,283.004 Z" id="Combined-Shape"></path>
                <path d="M375.187744,26.6901283 C361.340378,32.8569706 344.520834,50.9581329 339.844939,64.7291258 C336.997119,73.1178154 336.553573,79.0211175 337.637568,94.111839 C338.584768,107.276689 338.248999,114.167254 336.532846,116.853337 C334.615646,119.855669 334.661244,122.10387 336.733893,126.999638 C340.226306,135.244394 342.230557,133.640853 345.322949,120.127318 L347.866089,109.012001 L365.154052,109.012001 C374.663364,109.012001 382.442015,109.822894 382.442015,110.814211 C382.442015,113.167828 369.436144,115.531581 365.210013,113.944258 C359.572409,111.827827 350.365703,118.925169 347.041175,127.95041 L343.936347,136.379644 L358.525721,136.065423 C372.261164,135.769447 372.482938,135.830264 362.285506,137.12972 C347.192478,139.053564 345.963398,140.79293 350.421665,153.935481 C356.672773,172.358973 369.17499,192.104221 371.39687,187.060466 C371.888088,185.945488 373.879903,181.840341 375.824047,177.937918 L379.359986,170.842603 L397.972371,170.250651 C409.568841,169.879667 418.327854,170.568927 421.204691,172.075161 C424.829753,173.972651 426.510671,173.938188 429.00614,171.912982 C433.56804,168.209228 432.940028,162.589738 427.003962,154.046979 C424.15407,149.943859 421.82234,145.477865 421.82234,144.119619 C421.82234,142.761373 420.385994,140.863883 418.632534,139.902975 C416.877,138.942067 412.684032,132.738734 409.313905,126.117792 C402.544634,112.825226 401.943566,113.208373 405.935488,128.270713 C407.57288,134.451746 409.780251,138.425122 411.593819,138.451476 C415.795078,138.516348 414.207429,145.755596 409.052751,150.05333 C406.718949,151.997446 403.962326,153.077961 402.928074,152.451546 C401.893823,151.827159 400.476131,154.11185 399.775576,157.531792 C399.077093,160.949707 397.688419,163.747288 396.691474,163.747288 C394.388762,163.747288 394.415706,163.175608 397.027244,156.451277 C398.932008,151.55551 398.407628,150.142528 392.475707,144.15611 C388.40088,140.042854 383.700112,137.368934 380.481289,137.328389 C375.863428,137.271627 375.61471,136.94727 378.526781,134.77813 C380.363148,133.409748 384.388232,127.419275 387.474406,121.463265 C390.56058,115.509282 393.549339,111.091942 394.119317,111.649431 C394.689296,112.20692 392.678827,117.447317 389.650687,123.291829 L384.143659,133.920611 L391.513998,141.131478 C395.568099,145.096746 399.313375,147.922708 399.835683,147.411846 C400.35799,146.900983 401.033673,138.052111 401.338353,127.747687 C401.64096,117.443262 402.16534,109.012001 402.499036,109.012001 C402.834805,109.012001 405.985231,114.584864 409.500443,121.394339 L415.890419,133.778705 L434.401245,132.848205 C444.582095,132.337342 452.91207,132.694135 452.91207,133.64288 C452.91207,134.589598 445.216326,135.530234 435.812719,135.73093 L418.713367,136.095832 L434.258232,137.393261 C442.807908,138.106847 448.808226,138.854896 447.591581,139.055592 C445.315813,139.43063 438.403529,158.470401 438.403529,164.36154 C438.403529,166.175913 435.607526,170.775704 432.189729,174.582848 C426.881675,180.496286 426.415329,181.860614 428.989559,183.950691 C430.647678,185.294746 432.966972,185.813718 434.142164,185.102159 C438.415965,182.521492 447.315919,165.231223 451.97316,150.468913 C456.35474,136.572231 456.489462,134.834893 453.654079,128.775494 C447.405043,115.432247 444.768634,112.05285 441.071028,112.646829 C433.545241,113.853033 419.188003,112.959023 415.892492,111.075724 C413.548326,109.73775 418.385888,109.115389 431.503682,109.072818 L450.509871,109.012001 L451.875746,115.093699 C452.626045,118.438633 454.099698,121.175398 455.148458,121.175398 C456.199291,121.175398 457.057368,123.401299 457.057368,126.123873 C457.057368,133.555709 460.381896,134.088871 463.329203,127.129381 C465.279565,122.525535 465.358326,119.84756 463.6401,116.512762 C462.359203,114.02332 461.490763,103.540499 461.675229,92.7941376 C462.108413,67.5145438 458.184889,56.0018883 443.937502,40.7550699 C430.003084,25.8407177 421.020225,21.9099132 401.095853,22.0015558 C389.453785,22.0558739 382.947741,23.2336962 375.187744,26.6901283 M379.127849,28.7214156 C368.687918,33.4752767 359.642879,42.8410925 359.642879,48.8944099 C359.642879,52.8231872 363.066895,55.0288165 364.832791,52.2373169 C367.427748,48.1301431 390.716028,38.0608774 397.408611,38.1500757 C401.147669,38.2007565 407.002902,39.4941311 410.422772,41.0267191 C416.46247,43.7310478 416.226188,43.8263277 402.132177,44.3027274 L387.623636,44.795345 L402.237882,45.9893852 C425.575907,47.8929568 433.559749,55.7565931 431.497464,74.8085276 C430.291182,85.9481722 425.671249,95.4011591 419.299926,99.7657915 C414.949437,102.745824 415.641702,102.930302 431.217656,102.930302 L447.75532,102.930302 L450.652883,96.5242461 C453.038502,91.2534407 453.121408,87.4037254 451.113011,74.7700102 C448.267265,56.8634623 443.066989,45.3447251 433.468553,35.6788788 C421.034733,23.1566614 397.860448,20.1887924 379.127849,28.7214156 M381.40569,52.2515075 C371.997938,54.9598906 369.890054,56.2005571 372.752382,57.3560799 C374.905864,58.2237355 381.598447,57.3986518 388.297247,55.4362903 C399.083311,52.2778615 400.813973,52.255562 409.129439,55.1605867 C419.210803,58.6859446 423.894989,59.1643716 423.894989,56.6749296 C423.894989,54.6294517 403.241044,48.1058163 397.804487,48.434228 C395.62406,48.5659981 388.245431,50.2850916 381.40569,52.2515075 M382.442015,60.3584117 C365.663924,64.88725 370.526357,68.4247713 387.922098,64.3439516 C397.124658,62.1829213 401.189122,62.162649 409.429973,64.2283993 C424.392424,67.9787801 426.76768,64.5182936 412.269502,60.090817 C397.993098,55.7322663 399.63049,55.7180757 382.442015,60.3584117 M390.21652,67.6199599 C389.553272,68.2686744 384.502227,69.9776317 378.991055,71.416967 C371.226913,73.4441999 369.821657,74.3828087 372.752382,75.5809034 C374.930736,76.4708586 381.519686,75.6660471 388.297247,73.6813862 C399.083311,70.5229573 400.813973,70.5006578 409.129439,73.4056825 C419.210803,76.9310404 423.894989,77.4094674 423.894989,74.9200254 C423.894989,70.9932754 393.503741,64.4067958 390.21652,67.6199599 M383.581971,78.398757 C368.043324,82.8302881 371.784455,86.3738911 387.988423,82.5728295 C397.124658,80.4280171 401.199485,80.409772 409.429973,82.4734951 C424.392424,86.2238759 426.76768,82.7633894 412.269502,78.3359128 C397.87703,73.9428992 399.20767,73.9388447 383.581971,78.398757 M384.514663,88.7396719 C376.047893,93.2725646 380.924836,94.3267257 392.092267,90.3776761 C397.760961,88.3707155 400.082328,88.522758 405.711642,91.2615496 L412.495421,94.5618847 L399.023204,94.9308411 C388.817482,95.2105992 387.057803,95.6423998 391.768934,96.7107515 C397.980662,98.1196784 412.263284,97.6554421 417.15888,95.8856678 C422.006806,94.1321113 419.768345,91.3243938 410.872537,88.0017591 C399.497841,83.752679 393.514104,83.9209394 384.514663,88.7396719 M401.71143,105.373118 C403.083523,106.224555 411.200015,106.830698 419.749691,106.7192 C437.943401,106.479987 435.352591,105.45218 414.147322,104.495326 C405.935488,104.124342 400.339336,104.519653 401.71143,105.373118 M356.015744,106.43336 C360.291618,106.871243 367.286807,106.871243 371.560609,106.43336 C375.836483,105.997505 372.337852,105.638685 363.788176,105.638685 C355.238501,105.638685 351.741942,105.997505 356.015744,106.43336 M358.036576,144.589937 C357.63241,149.370153 364.841082,161.720055 368.035034,161.720055 C368.801914,161.720055 371.658024,157.385831 374.381484,152.090699 C377.104944,146.795567 380.265734,141.790329 381.40569,140.971327 C382.545647,140.152325 377.85317,139.469147 370.976122,139.450902 C359.062537,139.422521 358.453179,139.663762 358.036576,144.589937 M381.840947,178.572442 C379.867785,183.604034 382.949814,192.223828 388.154235,196.22964 C394.349381,200.995665 393.130664,201.271368 383.412014,197.300019 C379.239772,195.595116 376.224069,195.213997 376.224069,196.389792 C376.224069,199.744862 389.963657,204.291945 400.096836,204.291945 C418.690568,204.291945 428.087957,195.558626 422.802703,183.188451 L419.69373,175.910685 L401.290682,175.910685 C388.005004,175.910685 382.595391,176.650625 381.840947,178.572442 M387.687889,182.093746 C388.460987,183.316167 395.105898,184.050025 403.28457,183.816893 C421.845139,183.285758 419.747619,179.965151 400.85128,179.965151 C391.244554,179.965151 386.79665,180.684819 387.687889,182.093746 M413.531745,188.63968 C413.531745,190.705431 412.578327,194.139563 411.411426,196.270185 C409.63102,199.525921 409.879738,199.941504 412.965912,198.869097 C419.42014,196.629005 423.476314,192.012996 422.429626,188.100436 C421.101058,183.127634 413.531745,183.585789 413.531745,188.63968 M361.750763,207.940965 C361.713455,230.585156 363.371574,235.874206 373.448792,245.235968 C378.402422,249.837786 392.038378,257 395.847906,257 C396.455193,257 396.950556,248.455213 396.950556,238.01091 L396.950556,219.023847 L386.757269,214.880183 C381.148682,212.599546 375.23127,208.601842 373.602168,205.992794 C371.975139,203.385772 368.65061,198.058204 366.215248,194.155781 L361.785998,187.060466 L361.750763,207.940965 M428.475542,209.98847 L419.749691,217.712227 L419.749691,233.654386 L419.749691,249.598573 L425.128215,244.682533 C433.172164,237.333814 436.361971,229.93036 437.750645,215.384964 C438.438765,208.168015 438.598358,202.264713 438.102995,202.264713 C437.607632,202.264713 433.273724,205.73939 428.475542,209.98847" id="Shape"></path>
            </g>
        </g>
    </g>
</svg>