<?xml version="1.0" encoding="UTF-8"?>
<svg width="800px" height="400px" viewBox="0 0 800 400" version="1.1" xmlns="http://www.w3.org/2000/svg" xmlns:xlink="http://www.w3.org/1999/xlink">
    <title>koei_1</title>
    <g id="Page-1" stroke="none" stroke-width="1" fill="none" fill-rule="evenodd">
        <g id="AF159_INCREMENTAL" fill="#000000" transform="translate(-0.000000, -0.400000)">
            <g id="koei_1" transform="translate(0.000000, 0.400000)">
                <line x1="0" y1="0" x2="800" y2="400" id="Path" fill-rule="nonzero"></line>
                <path d="M335.658106,1.3507776 C318.218166,4.42040254 298.88554,12.7482161 284.297307,23.4759353 C267.569354,35.7760389 251.243421,55.5820706 242.182955,74.5643381 C227.341112,105.660728 223.358489,142.14587 231.111453,175.977495 C241.408974,220.913497 272.223574,258.323847 311.868513,274.02139 C384.287428,302.696271 463.327452,254.265141 479.903239,171.060271 C482.464704,158.202225 483.311011,136.21984 481.76023,122.853634 C474.541727,60.659914 429.751316,10.4046683 373.391574,1.26436221 C362.793478,-0.454552606 345.691685,-0.4160414 335.658106,1.3507776 M24.2809135,273.222987 L51.7553717,272.974073 L79.2298299,272.725159 L79.6994787,228.741605 L80.1691276,184.75805 L92.3114292,171.679268 C98.9898359,164.486126 104.707341,158.600487 105.01637,158.600487 C105.325399,158.600487 123.530867,184.364484 145.473801,215.85444 L185.370472,273.108393 L217.596837,273.151601 C239.047579,273.180719 249.626889,272.878265 249.237081,272.247057 C248.914902,271.725747 224.938388,237.382204 195.954478,195.929117 C166.971508,154.475091 143.222305,119.896724 143.180036,119.087989 C143.136829,118.278315 164.658957,94.6286766 191.006258,66.5324033 C217.353559,38.43613 239.680666,14.4774632 240.622781,13.2901909 L242.334182,11.1307454 L209.918078,11.1307454 L177.501975,11.1307454 L135.434587,55.9822114 C112.297806,80.6509873 90.2956963,104.078951 86.5413233,108.045605 L79.7154468,115.257533 L79.4721687,63.4289637 L79.2298299,11.6003943 L51.7553717,11.3514804 L24.2809135,11.1025665 L24.2809135,142.162777 L24.2809135,273.222987 Z M501.444153,142.162777 L501.444153,273.194808 L597.25252,273.194808 L693.060888,273.194808 L693.060888,249.242717 L693.060888,225.290625 L624.492154,225.290625 L555.923421,225.290625 L555.923421,192.884854 L555.923421,160.479082 L614.629528,160.479082 L673.335635,160.479082 L673.335635,136.534505 L673.335635,112.588988 L614.864353,112.347589 L556.39307,112.10525 L556.143217,85.5700894 L555.894303,59.034929 L624.477125,59.034929 L693.060888,59.034929 L693.060888,35.0828372 L693.060888,11.1307454 L597.25252,11.1307454 L501.444153,11.1307454 L501.444153,142.162777 M720.532528,141.927952 L720.77017,272.725159 L748.244628,272.974073 L775.719087,273.222987 L775.719087,142.176866 L775.719087,11.1307454 L748.006986,11.1307454 L720.293946,11.1307454 L720.532528,141.927952 M304.031952,74.7935267 C288.658467,90.8959075 280.265842,111.551064 279.115202,136.111821 C277.073169,179.731868 300.417535,216.824734 337.090535,228.231566 C347.066816,231.334066 362.760603,231.334066 372.736884,228.231566 C400.679112,219.540244 421.311726,195.80513 428.776325,163.766624 C430.139246,157.915739 430.514026,152.716726 430.466121,140.284181 C430.411642,126.027521 430.134549,123.312011 427.883053,114.944747 C419.991073,85.6189329 400.592697,63.3585164 375.287077,54.5920508 C365.683697,51.2650583 348.937898,50.7052368 339.05085,53.3803567 C324.868394,57.2183272 315.119423,63.1800498 304.031952,74.7935267 Z M24.2809135,400 L181.848105,399.891041 C268.509591,399.830926 338.781271,399.62616 338.006351,399.435482 C337.23143,399.245744 268.333943,388.73876 184.900823,376.086419 C24.9027285,351.825299 25.8307547,351.97089 28.0381043,351.463669 C28.8130249,351.286142 98.7437399,340.77634 183.440215,328.108971 C268.13669,315.441602 337.63251,304.87826 337.876728,304.634981 C338.120006,304.390764 267.660466,304.191633 181.300495,304.191633 L24.2809135,304.191633 L24.2809135,352.095816 L24.2809135,400 Z M376.987206,305.284975 C379.570275,305.750867 468.967935,316.266305 575.648673,328.653763 C682.329411,341.041222 770.247677,351.305867 771.022598,351.463669 C773.532401,351.977465 767.411938,352.725146 573.770078,375.570745 C468.639181,387.973232 380.086888,398.490549 376.987206,398.941411 C373.662092,399.42421 454.246322,399.809323 573.535253,399.880709 L775.719087,400 L775.719087,352.095816 L775.719087,304.191633 L574.004902,304.314681 C451.014198,304.389825 374.123287,304.768362 376.987206,305.284975" id="Shape"></path>
            </g>
        </g>
    </g>
</svg>