<?xml version="1.0" encoding="UTF-8"?>
<svg width="800px" height="402px" viewBox="0 0 800 402" version="1.1" xmlns="http://www.w3.org/2000/svg" xmlns:xlink="http://www.w3.org/1999/xlink">
    <title>rockstar_2</title>
    <g id="Page-1" stroke="none" stroke-width="1" fill="none" fill-rule="evenodd">
        <g id="Manufacturer" transform="translate(0.000000, 1.000000)" fill="#000000" fill-rule="nonzero">
            <g id="AF159_INCREMENTAL" transform="translate(-0.000000, -0.400000)">
                <g id="rockstar_2" transform="translate(0.000000, 0.000000)">
                    <line x1="0" y1="0.4" x2="800" y2="400.4" id="Path"></line>
                    <path d="M519.398201,0.4 C551.090839,0.4 575.834824,24.8050262 575.834824,56.1587058 L575.834824,267.160495 L575.665345,267.160495 C575.665345,298.344695 550.582401,322.581119 518.550804,322.581119 L281.110237,322.581119 C249.07864,322.749721 224.165176,298.344695 224.165176,267.160495 L224.165176,56.1587058 C224.165176,24.9745056 249.417599,0.4 281.788154,0.4 L519.398201,0.4 Z M415.50736,53.9554742 L347.546142,53.9554742 L318.734652,190.216871 L354.833754,190.216871 L365.341473,140.559421 L389.407541,140.559421 C402.287971,140.559421 407.541831,146.830157 407.541831,158.863191 C407.541831,168.015076 406.524955,175.302688 406.524955,182.251341 C406.524955,184.793532 407.033393,190.894788 408.897666,193.267499 L434.997486,220.892633 L412.456732,269.194247 L460.588867,240.552237 L496.518489,268.177371 L489.908795,222.587426 L531.261756,193.606458 L485.332852,193.606458 L478.04524,147.847033 L451.267503,193.267499 L446.183123,193.267499 C443.132494,188.013639 441.946139,180.387068 441.946139,175.641647 C441.946139,167.845597 442.454577,160.219026 442.454577,150.219744 C442.454577,137.000355 438.556552,130.051702 428.218312,127.509512 L428.218312,127.170553 C450.081148,124.119925 460.080429,109.544701 460.080429,89.2071788 C460.080429,60.2262101 440.759783,53.9554742 415.50736,53.9554742 Z M474.486174,167.337159 L479.740034,200.385632 L510.246316,200.385632 L482.790662,219.536798 L487.705563,253.093709 L461.266785,232.586708 L427.709874,252.585271 L443.132494,219.706277 L424.489766,200.046673 L455.165528,200.046673 L474.486174,167.337159 Z M405.16912,82.2585255 C414.659964,82.2585255 424.659245,84.8007157 424.659245,96.3253114 C424.659245,111.070015 413.304129,115.137519 400.254219,115.137519 L371.44273,115.137519 L378.391383,82.2585255 L405.16912,82.2585255 Z" id="Combined-Shape"></path>
                    <path d="M519.398201,0.4 C551.090839,0.4 575.834824,24.8050262 575.834824,56.1587058 L575.834824,344.977648 L575.665345,344.977648 C575.665345,376.161848 550.582401,400.399141 518.550804,400.399141 L281.110237,400.399141 C249.07864,400.566874 224.165176,376.161848 224.165176,344.977648 L224.165176,56.1587058 C224.165176,24.9745056 249.417599,0.4 281.788154,0.4 L519.398201,0.4 Z M519.398201,10.4 L281.788154,10.4 C268.387561,10.4 256.42284,15.4195866 247.826157,23.7381421 C239.329558,31.9598503 234.165176,43.3856578 234.165176,56.1587058 L234.165176,344.977648 C234.165176,357.74827 239.244175,369.14646 247.639242,377.316917 C256.096917,385.548306 267.875271,390.474614 281.082912,390.401653 L518.550804,390.401653 C531.807813,390.401653 543.662396,385.443782 552.195341,377.188277 C560.617864,369.039603 565.758672,357.697534 565.834824,344.949191 L565.834824,56.1587058 C565.834824,43.3121041 560.804164,31.8664362 552.483174,23.6453978 C544.11294,15.3757076 532.455708,10.4 519.398201,10.4 Z" id="Combined-Shape"></path>
                    <path d="M277.004679,357.317112 L286.056818,357.317112 C288.727941,357.317112 290.76426,356.76475 292.165775,355.660027 C293.567291,354.555303 294.268048,352.964171 294.268048,350.886631 C294.268048,349.930303 294.09492,349.147103 293.748663,348.537032 C293.402406,347.926961 292.932487,347.457041 292.338904,347.127273 C291.745321,346.797504 291.069296,346.574911 290.310829,346.459492 C289.552362,346.344073 288.760918,346.286364 287.936497,346.286364 L279.28008,346.286364 L277.004679,357.317112 Z M274.036765,341.240909 L289.321524,341.240909 C290.079991,341.240909 291.085784,341.306863 292.338904,341.43877 C293.592023,341.570677 294.82041,341.933422 296.024064,342.527005 C297.227718,343.120588 298.266488,344.019207 299.140374,345.222861 C300.01426,346.426515 300.451203,348.100089 300.451203,350.243583 C300.451203,353.046613 299.742201,355.231328 298.324198,356.797727 C296.906194,358.364127 294.944073,359.378164 292.437834,359.83984 L292.437834,359.93877 C293.921791,360.499376 294.91934,361.332041 295.430481,362.436765 C295.941622,363.541488 296.197193,364.835829 296.197193,366.319786 C296.197193,367.539929 296.098262,368.760071 295.900401,369.980214 C295.70254,371.200357 295.620098,372.420499 295.653075,373.640642 C295.653075,374.135294 295.694296,374.629947 295.776738,375.124599 C295.85918,375.619251 296.032308,376.097415 296.296123,376.559091 L289.816176,376.559091 C289.651292,376.097415 289.544118,375.652228 289.494652,375.223529 C289.445187,374.794831 289.420455,374.333155 289.420455,373.838503 C289.420455,372.51943 289.519385,371.225089 289.717246,369.955481 C289.915107,368.685873 290.014037,367.408021 290.014037,366.121925 C290.014037,365.099643 289.824421,364.3082 289.445187,363.747594 C289.065954,363.186988 288.563057,362.783021 287.936497,362.535695 C287.309938,362.288369 286.600936,362.139973 285.809492,362.090508 C285.018048,362.041043 284.210116,362.01631 283.385695,362.01631 L276.015374,362.01631 L272.997995,376.559091 L266.715909,376.559091 L274.036765,341.240909 Z M309.206551,361.768984 C309.206551,365.066667 310.04746,367.655348 311.729278,369.535027 C313.411096,371.414706 315.801916,372.354545 318.901738,372.354545 C320.946301,372.354545 322.735294,371.876381 324.268717,370.920053 C325.802139,369.963725 327.088235,368.710606 328.127005,367.160695 C329.165775,365.610784 329.940731,363.863012 330.451872,361.91738 C330.963012,359.971747 331.218583,358.009626 331.218583,356.031016 C331.218583,352.733333 330.418895,350.144652 328.819519,348.264973 C327.220143,346.385294 324.870544,345.445455 321.770722,345.445455 C319.660205,345.445455 317.821747,345.923619 316.255348,346.879947 C314.688948,347.836275 313.386364,349.089394 312.347594,350.639305 C311.308824,352.189216 310.525624,353.936988 309.997995,355.88262 C309.470365,357.828253 309.206551,359.790374 309.206551,361.768984 Z M303.023396,361.966845 C303.023396,358.27344 303.575758,355.066444 304.680481,352.345856 C305.785205,349.625267 307.236185,347.382843 309.033422,345.618583 C310.83066,343.854323 312.858734,342.543494 315.117647,341.686096 C317.37656,340.828699 319.660205,340.4 321.968583,340.4 C324.276961,340.4 326.387478,340.779234 328.300134,341.537701 C330.21279,342.296168 331.836898,343.35967 333.17246,344.728209 C334.508021,346.096747 335.546791,347.720856 336.28877,349.600535 C337.030749,351.480214 337.401738,353.557754 337.401738,355.833155 C337.401738,359.559537 336.874109,362.774777 335.81885,365.478877 C334.763592,368.182977 333.362077,370.417157 331.614305,372.181417 C329.866533,373.945677 327.871435,375.256506 325.629011,376.113904 C323.386586,376.971301 321.078209,377.4 318.703877,377.4 C316.164661,377.4 313.922237,377.004278 311.976604,376.212834 C310.030971,375.42139 308.398619,374.333155 307.079545,372.948128 C305.760472,371.563102 304.754679,369.930749 304.062166,368.05107 C303.369652,366.17139 303.023396,364.143316 303.023396,361.966845 Z M367.278743,353.013636 C367.278743,350.540374 366.594474,348.660695 365.225936,347.374599 C363.857398,346.088503 361.887032,345.445455 359.31484,345.445455 C357.204323,345.445455 355.365865,345.923619 353.799465,346.879947 C352.233066,347.836275 350.930481,349.089394 349.891711,350.639305 C348.852941,352.189216 348.069742,353.936988 347.542112,355.88262 C347.014483,357.828253 346.750668,359.790374 346.750668,361.768984 C346.750668,365.066667 347.591578,367.655348 349.273396,369.535027 C350.955214,371.414706 353.346034,372.354545 356.445856,372.354545 C358.028743,372.354545 359.364305,372.04951 360.45254,371.439439 C361.540775,370.829367 362.439394,370.087389 363.148396,369.213503 C363.857398,368.339617 364.401515,367.440998 364.780749,366.517647 C365.159982,365.594296 365.432041,364.835829 365.596925,364.242246 L371.78008,364.242246 C371.285428,366.48467 370.543449,368.430303 369.554144,370.079144 C368.56484,371.727986 367.385918,373.096524 366.01738,374.184759 C364.648841,375.272995 363.131907,376.080927 361.466578,376.608556 C359.801248,377.136185 358.06172,377.4 356.247995,377.4 C353.708779,377.4 351.466355,377.004278 349.520722,376.212834 C347.575089,375.42139 345.942736,374.333155 344.623663,372.948128 C343.30459,371.563102 342.298797,369.930749 341.606283,368.05107 C340.91377,366.17139 340.567513,364.143316 340.567513,361.966845 C340.567513,358.27344 341.119875,355.066444 342.224599,352.345856 C343.329323,349.625267 344.780303,347.382843 346.57754,345.618583 C348.374777,343.854323 350.402852,342.543494 352.661765,341.686096 C354.920677,340.828699 357.204323,340.4 359.512701,340.4 C361.590241,340.4 363.502897,340.680303 365.250668,341.240909 C366.99844,341.801515 368.490642,342.609447 369.727273,343.664706 C370.963904,344.719964 371.911988,346.039037 372.571524,347.621925 C373.231061,349.204813 373.527852,351.00205 373.461898,353.013636 L367.278743,353.013636 Z M426.24131,340.4 C428.088012,340.4 429.819296,340.597861 431.43516,340.993583 C433.051025,341.389305 434.45254,342.032353 435.639706,342.922727 C436.826872,343.813102 437.750223,344.975535 438.409759,346.410027 C439.069296,347.844519 439.366087,349.600535 439.300134,351.678075 L433.364305,351.678075 C433.331328,349.468627 432.721257,347.877496 431.534091,346.904679 C430.346925,345.931863 428.549688,345.445455 426.14238,345.445455 C425.713681,345.445455 425.120098,345.49492 424.361631,345.59385 C423.603164,345.692781 422.844697,345.923619 422.08623,346.286364 C421.327763,346.649109 420.668226,347.168494 420.10762,347.844519 C419.547014,348.520544 419.266711,349.452139 419.266711,350.639305 C419.266711,351.496702 419.464572,352.205704 419.860294,352.76631 C420.256016,353.326916 420.791889,353.80508 421.467914,354.200802 C422.143939,354.596524 422.927139,354.926292 423.817513,355.190107 C424.707888,355.453922 425.647727,355.701248 426.637032,355.932086 C427.890152,356.261854 429.151515,356.624599 430.421123,357.020321 C431.690731,357.416043 432.84492,357.968405 433.88369,358.677406 C434.92246,359.386408 435.763369,360.318004 436.406417,361.472193 C437.049465,362.626381 437.370989,364.126827 437.370989,365.973529 C437.370989,367.358556 437.107175,368.727094 436.579545,370.079144 C436.051916,371.431194 435.202763,372.651337 434.032086,373.739572 C432.861408,374.827807 431.344474,375.709938 429.481283,376.385963 C427.618093,377.061988 425.350936,377.4 422.679813,377.4 C420.602273,377.4 418.722594,377.160918 417.040775,376.682754 C415.358957,376.20459 413.932709,375.462611 412.762032,374.456818 C411.591355,373.451025 410.70098,372.156684 410.090909,370.573797 C409.480838,368.990909 409.208779,367.094742 409.274733,364.885294 L415.210561,364.885294 C415.078654,367.622371 415.754679,369.551515 417.238636,370.672727 C418.722594,371.793939 420.750668,372.354545 423.322861,372.354545 C424.147282,372.354545 425.029412,372.255615 425.969251,372.057754 C426.909091,371.859893 427.758244,371.538369 428.516711,371.093182 C429.275178,370.647995 429.909982,370.0709 430.421123,369.361898 C430.932264,368.652897 431.187834,367.770766 431.187834,366.715508 C431.187834,365.726203 430.948752,364.901783 430.470588,364.242246 C429.992424,363.582709 429.365865,363.030348 428.590909,362.58516 C427.815954,362.139973 426.917335,361.76074 425.895053,361.44746 C424.872772,361.13418 423.817513,360.829144 422.729278,360.532353 C421.937834,360.334492 420.997995,360.062433 419.909759,359.716176 C418.821524,359.36992 417.766266,358.858779 416.743984,358.182754 C415.721702,357.506729 414.856061,356.624599 414.147059,355.536364 C413.438057,354.448128 413.083556,353.063102 413.083556,351.381283 C413.083556,349.798396 413.380348,348.330927 413.97393,346.978877 C414.567513,345.626827 415.424911,344.464394 416.546123,343.491578 C417.667335,342.518761 419.044118,341.760294 420.676471,341.216176 C422.308824,340.672059 424.16377,340.4 426.24131,340.4 Z M388.301471,341.240909 L384.987299,357.267647 L385.08623,357.366578 L403.091578,341.240909 L411.352273,341.240909 L394.385695,355.833155 L405.465909,376.559091 L398.441845,376.559091 L389.587567,359.691444 L383.354947,365.03369 L380.980615,376.559091 L374.79746,376.559091 L382.118316,341.240909 L388.301471,341.240909 Z M473.678476,341.240909 L472.540775,346.583155 L461.312166,346.583155 L455.079545,376.559091 L448.89639,376.559091 L455.129011,346.583155 L443.504679,346.583155 L444.592914,341.240909 L473.678476,341.240909 Z M490.348262,341.240909 L496.481952,376.559091 L490.199866,376.559091 L488.765374,367.21016 L474.717246,367.21016 L469.27607,376.559091 L462.647727,376.559091 L483.81885,341.240909 L490.348262,341.240909 Z M485.945856,347.473529 L485.846925,347.473529 L477.338904,362.510963 L488.122326,362.510963 L485.945856,347.473529 Z M509.837567,357.317112 L518.889706,357.317112 C521.560829,357.317112 523.597148,356.76475 524.998663,355.660027 C526.400178,354.555303 527.100936,352.964171 527.100936,350.886631 C527.100936,349.930303 526.927807,349.147103 526.581551,348.537032 C526.235294,347.926961 525.765374,347.457041 525.171791,347.127273 C524.578209,346.797504 523.902184,346.574911 523.143717,346.459492 C522.38525,346.344073 521.593806,346.286364 520.769385,346.286364 L512.112968,346.286364 L509.837567,357.317112 Z M506.869652,341.240909 L522.154412,341.240909 C522.912879,341.240909 523.918672,341.306863 525.171791,341.43877 C526.424911,341.570677 527.653298,341.933422 528.856952,342.527005 C530.060606,343.120588 531.099376,344.019207 531.973262,345.222861 C532.847148,346.426515 533.284091,348.100089 533.284091,350.243583 C533.284091,353.046613 532.575089,355.231328 531.157086,356.797727 C529.739082,358.364127 527.776961,359.378164 525.270722,359.83984 L525.270722,359.93877 C526.754679,360.499376 527.752228,361.332041 528.263369,362.436765 C528.77451,363.541488 529.03008,364.835829 529.03008,366.319786 C529.03008,367.539929 528.93115,368.760071 528.733289,369.980214 C528.535428,371.200357 528.452986,372.420499 528.485963,373.640642 C528.485963,374.135294 528.527184,374.629947 528.609626,375.124599 C528.692068,375.619251 528.865196,376.097415 529.129011,376.559091 L522.649064,376.559091 C522.48418,376.097415 522.377005,375.652228 522.32754,375.223529 C522.278075,374.794831 522.253342,374.333155 522.253342,373.838503 C522.253342,372.51943 522.352273,371.225089 522.550134,369.955481 C522.747995,368.685873 522.846925,367.408021 522.846925,366.121925 C522.846925,365.099643 522.657308,364.3082 522.278075,363.747594 C521.898841,363.186988 521.395945,362.783021 520.769385,362.535695 C520.142825,362.288369 519.433824,362.139973 518.64238,362.090508 C517.850936,362.041043 517.043004,362.01631 516.218583,362.01631 L508.848262,362.01631 L505.830882,376.559091 L499.548797,376.559091 L506.869652,341.240909 Z" id="Combined-Shape"></path>
                </g>
            </g>
        </g>
    </g>
</svg>