<?xml version="1.0" encoding="UTF-8"?>
<svg width="800px" height="400px" viewBox="0 0 800 400" version="1.1" xmlns="http://www.w3.org/2000/svg" xmlns:xlink="http://www.w3.org/1999/xlink">
    <title>rockstar_3</title>
    <g id="Page-1" stroke="none" stroke-width="1" fill="none" fill-rule="evenodd">
        <g id="Manufacturer" fill="#000000" fill-rule="nonzero">
            <g id="AF159_INCREMENTAL" transform="translate(-0.000000, -0.400000)">
                <g id="rockstar_3" transform="translate(0.000000, 0.400000)">
                    <line x1="0" y1="5.55111512e-17" x2="800" y2="400" id="Path"></line>
                    <path d="M548.236966,0 C587.584465,0 618.304972,30.299678 618.304972,69.2263477 L618.304972,331.192314 L618.094557,331.192314 C618.094557,369.908569 586.953222,399.998922 547.184894,399.998922 L252.394277,399.998922 C212.625949,400.208247 181.695028,369.908569 181.695028,331.192314 L181.695028,69.2263477 C181.695028,30.5100924 213.046778,0 253.235935,0 L548.236966,0 Z M419.25292,66.4909601 L334.876734,66.4909601 L299.10628,235.664162 L343.924554,235.664162 L356.970249,174.012734 L386.849098,174.012734 C402.840595,174.012734 409.363442,181.798068 409.363442,196.737493 C409.363442,208.099872 408.100956,217.147692 408.100956,225.774684 C408.100956,228.930901 408.732199,236.50582 411.046758,239.451622 L443.45058,273.749174 L415.465461,333.717287 L475.223159,298.157248 L519.831018,332.4548 L511.624855,275.853319 L562.965977,239.872451 L505.943666,239.872451 L496.895845,183.060555 L463.650365,239.451622 L457.337932,239.451622 C453.550473,232.928775 452.077572,223.460125 452.077572,217.568521 C452.077572,207.889457 452.708815,198.420808 452.708815,186.006357 C452.708815,169.594031 447.869283,160.967039 435.034003,157.810823 L435.034003,157.389994 C462.177464,153.602534 474.591916,135.506893 474.591916,110.257162 C474.591916,74.276294 450.604671,66.4909601 419.25292,66.4909601 Z M492.477142,207.258214 L498.99999,248.289028 L536.874587,248.289028 L502.787449,272.065859 L508.889468,313.727916 L476.064817,288.26777 L434.402759,313.096673 L453.550473,272.276273 L430.404885,247.868199 L468.489897,247.868199 L492.477142,207.258214 Z M406.41764,101.63017 C418.200848,101.63017 430.6153,104.786386 430.6153,119.094568 C430.6153,137.400623 416.517533,142.45057 400.315622,142.45057 L364.545168,142.45057 L373.17216,101.63017 L406.41764,101.63017 Z" id="Combined-Shape"></path>
                </g>
            </g>
        </g>
    </g>
</svg>