<?xml version="1.0" encoding="UTF-8"?>
<svg width="800px" height="402px" viewBox="0 0 800 402" version="1.1" xmlns="http://www.w3.org/2000/svg" xmlns:xlink="http://www.w3.org/1999/xlink">
    <title>rockstar_1</title>
    <g id="Page-1" stroke="none" stroke-width="1" fill="none" fill-rule="evenodd">
        <g id="Manufacturer" transform="translate(0.000000, 1.000000)" fill="#000000" fill-rule="nonzero">
            <g id="AF159_INCREMENTAL" transform="translate(-0.000000, -0.400000)">
                <g id="rockstar_1" transform="translate(0.000000, 0.000000)">
                    <line x1="0" y1="0.4" x2="800" y2="400.4" id="Path"></line>
                    <path d="M531.189715,0.4 C566.012251,0.4 593.1999,27.215215 593.1999,61.6653177 L593.1999,293.505198 L593.013683,293.505198 C593.013683,327.769084 565.453601,354.399046 530.258631,354.399046 L269.368935,354.399046 C234.173965,354.584299 206.8001,327.769084 206.8001,293.505198 L206.8001,61.6653177 C206.8001,27.4014318 234.546399,0.4 270.113802,0.4 L531.189715,0.4 Z M417.038835,59.2444997 L342.365909,59.2444997 L310.709058,208.962784 L350.37323,208.962784 L361.91867,154.40127 L388.361452,154.40127 C402.513926,154.40127 408.286646,161.29129 408.286646,174.512681 C408.286646,184.568387 407.169346,192.575708 407.169346,200.210595 C407.169346,203.003847 407.727996,209.707651 409.77638,212.314686 L438.453763,242.668019 L413.686933,295.739799 L466.572496,264.269165 L506.050451,294.622498 L498.787997,244.530187 L544.224889,212.687119 L493.760144,212.687119 L485.752823,162.408591 L456.330573,212.314686 L450.74407,212.314686 C447.392168,206.541966 446.088651,198.162211 446.088651,192.948141 C446.088651,184.38217 446.647301,176.002415 446.647301,165.015626 C446.647301,150.490718 442.364315,142.85583 431.005092,140.062578 L431.005092,139.690145 C455.027056,136.338243 466.013845,120.323601 466.013845,97.9775881 C466.013845,66.1345202 444.785133,59.2444997 417.038835,59.2444997 Z M481.842271,183.82352 L487.614991,220.13579 L521.13401,220.13579 L490.966893,241.178285 L496.367179,278.049206 L467.317363,255.516976 L430.446442,277.490555 L447.392168,241.364502 L426.908323,219.763356 L460.613559,219.763356 L481.842271,183.82352 Z M405.679612,90.3427005 C416.107751,90.3427005 427.09454,93.135952 427.09454,105.798692 C427.09454,121.999552 414.618017,126.468754 400.279325,126.468754 L368.622474,126.468754 L376.257362,90.3427005 L405.679612,90.3427005 Z" id="Combined-Shape"></path>
                    <path d="M456.931509,380.98442 L456.931509,380.98442 L473.802273,380.98442 L473.802273,380.98442 C473.77331,383.393167 473.570938,385.649596 473.195157,387.753709 L473.195157,387.753709 L473.195157,387.753709 C472.819377,389.857821 471.908641,391.940191 470.462951,394.00082 L470.462951,394.00082 L470.462951,394.00082 C468.872691,396.235383 466.91383,397.860554 464.586367,398.876332 L464.586367,398.876332 L464.586367,398.876332 C462.258656,399.892111 459.721519,400.4 456.974954,400.4 L456.974954,400.4 L456.974954,400.4 C451.828395,400.4 447.636016,398.811107 444.397817,395.633321 L444.397817,395.633321 L444.397817,395.633321 C441.159372,392.455286 439.540149,388.28334 439.540149,383.11748 L439.540149,383.11748 L439.540149,383.11748 C439.540149,377.777687 441.181032,373.497031 444.462799,370.275512 L444.462799,370.275512 L444.462799,370.275512 C447.744319,367.054243 452.016161,365.443608 457.278327,365.443608 L457.278327,365.443608 L457.278327,365.443608 C460.632378,365.443608 463.574383,366.205317 466.104342,367.728736 L466.104342,367.728736 L466.104342,367.728736 C468.634053,369.252404 470.607272,371.552441 472.023999,374.628848 L472.023999,374.628848 L463.957343,377.980693 L463.957343,377.980693 C463.379067,376.442614 462.482813,375.194757 461.268581,374.237123 L461.268581,374.237123 L461.268581,374.237123 C460.054102,373.27924 458.59393,372.800298 456.888064,372.800298 L456.888064,372.800298 L456.888064,372.800298 C454.257106,372.800298 452.22596,373.787129 450.794627,375.76079 L450.794627,375.76079 L450.794627,375.76079 C449.363542,377.734203 448.575715,379.896211 448.431146,382.246813 L448.431146,382.246813 L448.431146,382.246813 C448.402182,382.391924 448.387701,382.544366 448.387701,382.704137 L448.387701,382.704137 L448.387701,382.704137 C448.387701,382.86366 448.387701,383.015977 448.387701,383.161088 L448.387701,383.161088 L448.387701,383.161088 C448.387701,383.19016 448.387701,383.226438 448.387701,383.269922 L448.387701,383.269922 L448.387701,383.269922 C448.387701,383.313405 448.387701,383.364219 448.387701,383.422363 L448.387701,383.422363 L448.387701,383.422363 C448.44538,385.918077 449.211546,388.210784 450.6862,390.300485 L450.6862,390.300485 L450.6862,390.300485 C452.160854,392.389937 454.271587,393.434663 457.018399,393.434663 L457.018399,393.434663 L457.018399,393.434663 C458.868834,393.434663 460.43013,392.955845 461.702288,391.998211 L461.702288,391.998211 L461.702288,391.998211 C462.974447,391.040576 463.697292,389.618536 463.870824,387.732091 L463.870824,387.732091 L456.931509,387.732091 L456.931509,380.98442 Z M495.93545,393.608722 L495.93545,393.608722 L484.225356,393.608722 L481.970301,399.311666 L472.94934,399.311666 L485.526477,366.488334 L494.807737,366.488334 L507.124575,399.311666 L498.060541,399.311666 L495.93545,393.608722 Z M493.636579,387.079091 L493.636579,387.079091 L490.167293,376.631085 L490.080403,376.631085 L486.5673,387.079091 L493.636579,387.079091 Z M506.011715,399.311666 L506.011715,399.311666 L511.563018,366.488334 L519.933418,366.488334 L526.56899,384.031755 L533.594823,366.488334 L542.051742,366.488334 L546.99593,399.311666 L538.495566,399.311666 L536.110176,380.418636 L536.023286,380.418636 L528.173484,399.311666 L524.790716,399.311666 L517.28773,380.418636 L517.20084,380.418636 L514.468634,399.311666 L506.011715,399.311666 Z M567.394277,373.714573 L567.394277,373.714573 L557.289049,373.714573 L557.289049,379.199851 L566.87368,379.199851 L566.87368,386.42609 L557.289049,386.42609 L557.289049,392.085427 L567.394277,392.085427 L567.394277,399.311666 L548.788685,399.311666 L548.788685,366.488334 L567.394277,366.488334 L567.394277,373.714573 Z M592.172771,368.360119 L592.172771,368.316511 L588.790003,374.933358 L588.790003,374.933358 C588.009231,374.295018 587.134638,373.779923 586.166223,373.388073 L586.166223,373.388073 L586.166223,373.388073 C585.197561,372.996223 584.192757,372.800298 583.15181,372.800298 L583.15181,372.800298 L583.15181,372.800298 C583.007241,372.800298 582.84819,372.807628 582.674658,372.822288 L582.674658,372.822288 L582.674658,372.822288 C582.501373,372.8367 582.327964,372.872978 582.154432,372.931122 L582.154432,372.931122 L582.154432,372.931122 C581.489266,373.076233 580.882026,373.366455 580.332713,373.801789 L580.332713,373.801789 L580.332713,373.801789 C579.7834,374.237123 579.508744,374.817567 579.508744,375.543123 L579.508744,375.543123 L579.508744,375.543123 C579.508744,376.239607 579.768919,376.798186 580.289268,377.218859 L580.289268,377.218859 L580.289268,377.218859 C580.809865,377.639781 581.373784,377.980817 581.981023,378.241968 L581.981023,378.241968 L581.981023,378.241968 C582.212235,378.328935 582.436267,378.408697 582.653121,378.481252 L582.653121,378.481252 L582.653121,378.481252 C582.869974,378.553808 583.079649,378.619158 583.282145,378.677302 L583.282145,378.677302 L585.450309,379.286694 L585.450309,379.286694 C587.734451,379.983178 589.649991,380.991751 591.196929,382.312411 L591.196929,382.312411 L591.196929,382.312411 C592.743868,383.632824 593.517337,385.627979 593.517337,388.297876 L593.517337,388.297876 L593.517337,388.297876 C593.517337,388.413915 593.517337,388.530078 593.517337,388.646366 L593.517337,388.646366 L593.517337,388.646366 C593.517337,388.762405 593.517337,388.878445 593.517337,388.994484 L593.517337,388.994484 L593.517337,388.994484 C593.45941,390.503491 593.184754,391.976345 592.693368,393.413045 L592.693368,393.413045 L592.693368,393.413045 C592.201734,394.849497 591.348801,396.090148 590.13457,397.134998 L590.13457,397.134998 L590.13457,397.134998 C589.035696,398.092633 587.792378,398.803653 586.404614,399.268058 L586.404614,399.268058 L586.404614,399.268058 C585.01685,399.732464 583.600122,400.022686 582.154432,400.138725 L582.154432,400.138725 L582.154432,400.138725 C581.922973,400.138725 581.698816,400.145931 581.481963,400.160343 L581.481963,400.160343 L581.481963,400.160343 C581.265109,400.175003 581.055558,400.182333 580.85331,400.182333 L580.85331,400.182333 L580.85331,400.182333 C578.80038,400.182333 576.790895,399.855833 574.824855,399.202833 L574.824855,399.202833 L574.824855,399.202833 C572.858815,398.549832 571.037343,397.642887 569.360441,396.481998 L569.360441,396.481998 L573.003507,389.560268 L573.003507,389.560268 C574.07317,390.518151 575.236901,391.330799 576.494702,391.998211 L576.494702,391.998211 L576.494702,391.998211 C577.752254,392.665623 579.103876,392.999329 580.549567,392.999329 L580.549567,392.999329 L580.549567,392.999329 C580.607493,392.999329 580.665296,392.999329 580.722975,392.999329 L580.722975,392.999329 L580.722975,392.999329 C580.780902,392.999329 580.838829,392.999329 580.896755,392.999329 L580.896755,392.999329 L580.896755,392.999329 C581.850812,392.941434 582.718226,392.644005 583.498998,392.107044 L583.498998,392.107044 L583.498998,392.107044 C584.279523,391.570083 584.669785,390.764766 584.669785,389.691092 L584.669785,389.691092 L584.669785,389.691092 C584.669785,388.87832 584.344505,388.22532 583.693944,387.732091 L583.693944,387.732091 L583.693944,387.732091 C583.043383,387.238613 582.313359,386.846764 581.503871,386.556541 L581.503871,386.556541 L581.503871,386.556541 C581.156806,386.440502 580.809865,386.331669 580.463048,386.230041 L580.463048,386.230041 L580.463048,386.230041 C580.115983,386.128662 579.797882,386.034365 579.508744,385.947149 L579.508744,385.947149 L579.508744,385.947149 C579.451065,385.918077 579.386083,385.896335 579.313798,385.881923 L579.313798,385.881923 L579.313798,385.881923 C579.241514,385.867511 579.176408,385.84577 579.118482,385.816698 L579.118482,385.816698 L579.118482,385.816698 C576.545202,385.091142 574.492395,384.162455 572.960062,383.030637 L572.960062,383.030637 L572.960062,383.030637 C571.427729,381.89882 570.661563,379.780171 570.661563,376.674693 L570.661563,376.674693 L570.661563,376.674693 C570.661563,373.337384 571.724046,370.667487 573.849014,368.665002 L573.849014,368.665002 L573.849014,368.665002 C575.974228,366.662517 578.670416,365.661275 581.937578,365.661275 L581.937578,365.661275 L581.937578,365.661275 C582.602497,365.661275 583.281897,365.697552 583.975779,365.770108 L583.975779,365.770108 L583.975779,365.770108 C584.669661,365.842664 585.363667,365.965909 586.057796,366.139843 L586.057796,366.139843 L586.057796,366.139843 C587.156422,366.37217 588.233388,366.676929 589.288692,367.054119 L589.288692,367.054119 L589.288692,367.054119 C590.343997,367.431308 591.305356,367.866642 592.172771,368.360119 L592.172771,368.360119 Z M223.396872,385.903914 L223.396872,385.860306 L233.675509,399.311666 L223.093499,399.311666 L215.069916,386.687365 L214.983027,386.687365 L214.983027,399.311666 L206.482663,399.311666 L206.482663,366.488334 L219.190135,366.488334 L219.190135,366.488334 C222.428333,366.517406 225.1317,367.337259 227.300236,368.947894 L227.300236,368.947894 L227.300236,368.947894 C229.468772,370.558529 230.55304,373.119717 230.55304,376.631457 L230.55304,376.631457 L230.55304,376.631457 C230.55304,378.895093 229.938622,380.904783 228.709785,382.660529 L228.709785,382.660529 L228.709785,382.660529 C227.480947,384.416524 225.709977,385.497652 223.396872,385.903914 L223.396872,385.903914 Z M214.983027,373.018338 L214.983027,373.018338 L214.983027,381.20246 L215.807367,381.20246 L215.807367,381.20246 C215.951936,381.231283 216.096505,381.245695 216.241074,381.245695 L216.241074,381.245695 L216.241074,381.245695 C216.385643,381.245695 216.515731,381.245695 216.631337,381.245695 L216.631337,381.245695 L216.631337,381.245695 C217.903495,381.1878 219.067226,380.890371 220.122531,380.35341 L220.122531,380.35341 L220.122531,380.35341 C221.177835,379.816449 221.705488,378.749857 221.705488,377.153634 L221.705488,377.153634 L221.705488,377.153634 C221.705488,375.540514 221.177835,374.462741 220.122531,373.920313 L220.122531,373.920313 L220.122531,373.920313 C219.067226,373.377637 217.903495,373.076979 216.631337,373.018338 L216.631337,373.018338 L216.631337,373.018338 C216.515731,373.018338 216.385643,373.018338 216.241074,373.018338 L216.241074,373.018338 L216.241074,373.018338 C216.096505,373.018338 215.951936,373.018338 215.807367,373.018338 L215.807367,373.018338 L214.983027,373.018338 Z M250.604199,365.443608 L250.604199,365.4 L250.604199,365.4 C255.317052,365.429072 259.509431,367.018089 263.181336,370.167052 L263.181336,370.167052 L263.181336,370.167052 C266.853242,373.315766 268.689195,377.371425 268.689195,382.334029 L268.689195,382.334029 L268.689195,382.334029 C268.689195,387.644999 266.990632,391.983799 263.593507,395.350429 L263.593507,395.350429 L263.593507,395.350429 C260.196134,398.71681 255.866365,400.4 250.604199,400.4 L250.604199,400.4 L250.604199,400.4 C245.370997,400.4 241.048531,398.71681 237.6368,395.350429 L237.6368,395.350429 L237.6368,395.350429 C234.224822,391.983799 232.518833,387.644999 232.518833,382.334029 L232.518833,382.334029 L232.518833,382.334029 C232.518833,377.371425 234.354909,373.315766 238.027062,370.167052 L238.027062,370.167052 L238.027062,370.167052 C241.698968,367.018089 245.891347,365.443608 250.604199,365.443608 L250.604199,365.443608 Z M250.604199,373.671338 L250.604199,373.671338 L250.604199,373.671338 C248.059883,373.70041 245.884168,374.592819 244.077055,376.348565 L244.077055,376.348565 L244.077055,376.348565 C242.269941,378.104311 241.366385,380.114002 241.366385,382.377637 L241.366385,382.377637 L241.366385,382.377637 C241.366385,385.192894 242.269941,387.529209 244.077055,389.386582 L244.077055,389.386582 L244.077055,389.386582 C245.884168,391.243956 248.059883,392.172643 250.604199,392.172643 L250.604199,392.172643 L250.604199,392.172643 C253.148516,392.172643 255.324231,391.241719 257.131344,389.379873 L257.131344,389.379873 L257.131344,389.379873 C258.938457,387.518027 259.842014,385.176245 259.842014,382.354529 L259.842014,382.354529 L259.842014,382.354529 C259.842014,380.085675 258.938457,378.071264 257.131344,376.311293 L257.131344,376.311293 L257.131344,376.311293 C255.324231,374.551323 253.148516,373.671338 250.604199,373.671338 L250.604199,373.671338 Z M294.205139,367.315393 L294.205139,367.272158 L294.205139,377.502124 L294.205139,377.502124 C293.337724,376.341235 292.239098,375.456032 290.909261,374.846515 L290.909261,374.846515 L290.909261,374.846515 C289.579176,374.236998 288.191288,373.93224 286.745598,373.93224 L286.745598,373.93224 L286.745598,373.93224 C284.143355,373.93224 282.039924,374.810237 280.435307,376.566232 L280.435307,376.566232 L280.435307,376.566232 C278.830689,378.321978 278.028381,380.47678 278.028381,383.030637 L278.028381,383.030637 L278.028381,383.030637 C278.028381,385.613567 278.845171,387.746627 280.478752,389.429817 L280.478752,389.429817 L280.478752,389.429817 C282.112333,391.113256 284.244726,391.954976 286.875933,391.954976 L286.875933,391.954976 L286.875933,391.954976 C288.263697,391.954976 289.608139,391.642887 290.909261,391.01871 L290.909261,391.01871 L290.909261,391.01871 C292.210383,390.394782 293.309008,389.545981 294.205139,388.472307 L294.205139,388.472307 L294.205139,398.658666 L294.205139,398.658666 C293.424614,398.920065 292.687411,399.145061 291.993529,399.333656 L291.993529,399.333656 L291.993529,399.333656 C291.299399,399.522251 290.619875,399.689104 289.954957,399.834215 L289.954957,399.834215 L289.954957,399.834215 C289.434607,399.950255 288.906955,400.037346 288.372,400.09549 L288.372,400.09549 L288.372,400.09549 C287.837045,400.153386 287.280429,400.182333 286.702153,400.182333 L286.702153,400.182333 L286.702153,400.182333 C284.418011,400.182333 282.227938,399.768866 280.131935,398.941931 L280.131935,398.941931 L280.131935,398.941931 C278.035683,398.114747 276.134625,396.932116 274.42876,395.394037 L274.42876,395.394037 L274.42876,395.394037 C272.636004,393.768741 271.313222,391.904038 270.460413,389.799925 L270.460413,389.799925 L270.460413,389.799925 C269.607357,387.695813 269.180828,385.424848 269.180828,382.987029 L269.180828,382.987029 L269.180828,382.987029 C269.180828,380.752466 269.592875,378.590458 270.416968,376.501006 L270.416968,376.501006 L270.416968,376.501006 C271.241061,374.411306 272.433756,372.568344 273.995052,370.972121 L273.995052,370.972121 L273.995052,370.972121 C275.556349,369.375898 277.392301,368.106299 279.502911,367.163325 L279.502911,367.163325 L279.502911,367.163325 C281.61352,366.220102 283.796414,365.719419 286.051592,365.661275 L286.051592,365.661275 L286.051592,365.661275 C286.109519,365.661275 286.174624,365.661275 286.246909,365.661275 L286.246909,365.661275 L286.246909,365.661275 C286.319193,365.661275 286.384299,365.661275 286.442226,365.661275 L286.442226,365.661275 L286.442226,365.661275 C287.801026,365.661275 289.123685,365.806386 290.410201,366.096608 L290.410201,366.096608 L290.410201,366.096608 C291.696964,366.386831 292.961944,366.793092 294.205139,367.315393 L294.205139,367.315393 Z M306.233086,380.02691 L306.233086,380.02691 L316.511724,366.488334 L327.05066,366.488334 L314.039816,382.029519 L328.221446,399.311666 L317.205729,399.311666 L306.233086,385.076854 L306.146196,385.076854 L306.146196,399.311666 L297.645833,399.311666 L297.645833,366.488334 L306.146196,366.488334 L306.146196,380.02691 L306.233086,380.02691 Z M350.050879,368.360119 L350.050879,368.316884 L346.668112,374.933731 L346.668112,374.933731 C345.887587,374.295142 345.012994,373.780047 344.044332,373.388446 L344.044332,373.388446 L344.044332,373.388446 C343.07567,372.996596 342.070865,372.800671 341.029918,372.800671 L341.029918,372.800671 L341.029918,372.800671 C340.885349,372.800671 340.726422,372.807877 340.553137,372.822288 L340.553137,372.822288 L340.553137,372.822288 C340.379605,372.836949 340.206073,372.873226 340.03254,372.931122 L340.03254,372.931122 L340.03254,372.931122 C339.367622,373.076233 338.760506,373.366455 338.211193,373.801789 L338.211193,373.801789 L338.211193,373.801789 C337.661633,374.237123 337.386852,374.817567 337.386852,375.543123 L337.386852,375.543123 L337.386852,375.543123 C337.386852,376.239607 337.647151,376.79831 338.167748,377.219232 L338.167748,377.219232 L338.167748,377.219232 C338.688098,377.639906 339.251892,377.980817 339.859132,378.241968 L339.859132,378.241968 L339.859132,378.241968 C340.090343,378.329184 340.314376,378.409069 340.531229,378.481625 L340.531229,378.481625 L340.531229,378.481625 C340.748083,378.554181 340.957758,378.619406 341.160253,378.677302 L341.160253,378.677302 L343.328789,379.287067 L343.328789,379.287067 C345.612931,379.983551 347.528347,380.991999 349.075038,382.312411 L349.075038,382.312411 L349.075038,382.312411 C350.621976,383.632824 351.395446,385.628103 351.395446,388.298248 L351.395446,388.298248 L351.395446,388.298248 C351.395446,388.414287 351.395446,388.530327 351.395446,388.646366 L351.395446,388.646366 L351.395446,388.646366 C351.395446,388.762405 351.395446,388.878445 351.395446,388.994484 L351.395446,388.994484 L351.395446,388.994484 C351.337519,390.50374 351.062863,391.976593 350.571476,393.413045 L350.571476,393.413045 L350.571476,393.413045 C350.079842,394.849745 349.22691,396.090396 348.012678,397.134998 L348.012678,397.134998 L348.012678,397.134998 C346.914052,398.092881 345.670734,398.804025 344.282722,399.268431 L344.282722,399.268431 L344.282722,399.268431 C342.894958,399.732588 341.478231,400.02281 340.03254,400.139098 L340.03254,400.139098 L340.03254,400.139098 C339.801329,400.139098 339.577296,400.146304 339.360443,400.160716 L339.360443,400.160716 L339.360443,400.160716 C339.143589,400.175127 338.933915,400.182333 338.731419,400.182333 L338.731419,400.182333 L338.731419,400.182333 C336.678736,400.182333 334.669251,399.855833 332.702963,399.202833 L332.702963,399.202833 L332.702963,399.202833 C330.736923,398.549832 328.915452,397.643012 327.23855,396.48237 L327.23855,396.48237 L330.881616,389.560641 L330.881616,389.560641 C331.951278,390.518276 333.11501,391.330799 334.37281,391.998211 L334.37281,391.998211 L334.37281,391.998211 C335.630611,392.665872 336.982356,392.999702 338.428047,392.999702 L338.428047,392.999702 L338.428047,392.999702 C338.485726,392.999702 338.543529,392.999702 338.601455,392.999702 L338.601455,392.999702 L338.601455,392.999702 C338.659134,392.999702 338.716937,392.999702 338.774864,392.999702 L338.774864,392.999702 L338.774864,392.999702 C339.728921,392.941558 340.596335,392.644005 341.377107,392.107044 L341.377107,392.107044 L341.377107,392.107044 C342.157631,391.570332 342.547893,390.765014 342.547893,389.691092 L342.547893,389.691092 L342.547893,389.691092 C342.547893,388.878569 342.222613,388.225568 341.572052,387.732091 L341.572052,387.732091 L341.572052,387.732091 C340.921492,387.238862 340.191467,386.847136 339.38198,386.556914 L339.38198,386.556914 L339.38198,386.556914 C339.035162,386.440875 338.688221,386.332041 338.341157,386.230414 L338.341157,386.230414 L338.341157,386.230414 C337.994092,386.128786 337.67599,386.034489 337.386852,385.947521 L337.386852,385.947521 L337.386852,385.947521 C337.329173,385.918449 337.264191,385.896583 337.191907,385.881923 L337.191907,385.881923 L337.191907,385.881923 C337.119622,385.867511 337.054517,385.84577 336.99659,385.816698 L336.99659,385.816698 L336.99659,385.816698 C334.42331,385.091142 332.370504,384.162455 330.838171,383.030637 L330.838171,383.030637 L330.838171,383.030637 C329.305838,381.89882 328.539671,379.780296 328.539671,376.675065 L328.539671,376.675065 L328.539671,376.675065 C328.539671,373.337508 329.602155,370.667487 331.727122,368.665002 L331.727122,368.665002 L331.727122,368.665002 C333.852337,366.662517 336.548525,365.661275 339.815687,365.661275 L339.815687,365.661275 L339.815687,365.661275 C340.480605,365.661275 341.16013,365.697552 341.854259,365.770108 L341.854259,365.770108 L341.854259,365.770108 C342.548141,365.842664 343.242023,365.966033 343.935905,366.140216 L343.935905,366.140216 L343.935905,366.140216 C345.034531,366.372295 346.111496,366.677053 347.166801,367.054491 L347.166801,367.054491 L347.166801,367.054491 C348.222105,367.431681 349.183465,367.86689 350.050879,368.360119 L350.050879,368.360119 Z M366.632752,373.714946 L366.632752,373.714946 L366.632752,399.311666 L358.132389,399.311666 L358.132389,373.714946 L351.106184,373.714946 L351.106184,366.488334 L373.658586,366.488334 L373.658586,373.714946 L366.632752,373.714946 Z M392.36555,393.609094 L392.36555,393.609094 L380.655456,393.609094 L378.400401,399.311666 L369.379441,399.311666 L381.956578,366.488334 L391.237837,366.488334 L403.554675,399.311666 L394.490641,399.311666 L392.36555,393.609094 Z M390.066679,387.079091 L390.066679,387.079091 L386.597393,376.631457 L386.510503,376.631457 L382.997401,387.079091 L390.066679,387.079091 Z M421.307335,385.903914 L421.307335,385.860306 L431.585972,399.311666 L421.003963,399.311666 L412.98038,386.687365 L412.893861,386.687365 L412.893861,399.311666 L404.393126,399.311666 L404.393126,366.488334 L417.100598,366.488334 L417.100598,366.488334 C420.338797,366.517406 423.042164,367.337259 425.2107,368.947894 L425.2107,368.947894 L425.2107,368.947894 C427.379235,370.558529 428.463503,373.119717 428.463503,376.631457 L428.463503,376.631457 L428.463503,376.631457 C428.463503,378.895093 427.849085,380.904783 426.620248,382.660529 L426.620248,382.660529 L426.620248,382.660529 C425.391411,384.416524 423.62044,385.497652 421.307335,385.903914 L421.307335,385.903914 Z M412.893861,373.018338 L412.893861,373.018338 L412.893861,381.20246 L413.717831,381.20246 L413.717831,381.20246 C413.8624,381.231283 414.006969,381.245695 414.151538,381.245695 L414.151538,381.245695 L414.151538,381.245695 C414.296107,381.245695 414.426194,381.245695 414.5418,381.245695 L414.5418,381.245695 L414.5418,381.245695 C415.813958,381.1878 416.97769,380.890371 418.032994,380.35341 L418.032994,380.35341 L418.032994,380.35341 C419.088299,379.816449 419.615951,378.749857 419.615951,377.153634 L419.615951,377.153634 L419.615951,377.153634 C419.615951,375.540514 419.088299,374.462741 418.032994,373.920313 L418.032994,373.920313 L418.032994,373.920313 C416.97769,373.377637 415.813958,373.076979 414.5418,373.018338 L414.5418,373.018338 L414.5418,373.018338 C414.426194,373.018338 414.296107,373.018338 414.151538,373.018338 L414.151538,373.018338 L414.151538,373.018338 C414.006969,373.018338 413.8624,373.018338 413.717831,373.018338 L413.717831,373.018338 L412.893861,373.018338 Z" id="Combined-Shape"></path>
                </g>
            </g>
        </g>
    </g>
</svg>