<?xml version="1.0" encoding="UTF-8"?>
<svg width="800px" height="400px" viewBox="0 0 800 400" version="1.1" xmlns="http://www.w3.org/2000/svg" xmlns:xlink="http://www.w3.org/1999/xlink">
    <title>taketwo_02</title>
    <g id="Page-1" stroke="none" stroke-width="1" fill="none" fill-rule="evenodd">
        <g id="Manufacturer" fill="#000000" fill-rule="nonzero">
            <g id="AF159_INCREMENTAL" transform="translate(-0.000000, -0.400000)">
                <g id="taketwo_02" transform="translate(0.000000, 0.400000)">
                    <line x1="0" y1="0" x2="800" y2="400" id="Path"></line>
                    <path d="M179.589354,141.439463 L179.589354,202.206412 L81.6361989,202.206412 L81.6361989,141.439463 L179.589354,141.439463 Z M175.042819,145.988877 L87.0674828,145.988877 L87.0674828,158.686348 L144.206103,158.686348 L144.206103,166.849008 L87.0674828,166.849008 L87.0674828,197.685724 L175.042819,197.685724 L175.042819,184.988253 L118.811161,184.988253 L118.811161,176.825593 L175.042819,176.825593 L175.042819,145.988877 Z M261.208413,69.7956857 L261.208413,136.911165 L0,136.911165 L0,69.7956857 L261.208413,69.7956857 Z M162.363996,209.449632 L162.363996,322.821625 L97.9702945,322.821625 L97.9702945,209.449632 L162.363996,209.449632 Z M329.203917,267.453607 L329.203917,274.595145 L321.365786,274.595145 L321.365786,267.453607 L329.203917,267.453607 Z M329.203917,286.057798 L329.203917,329.54392 L321.365786,329.54392 L321.365786,286.057798 L329.203917,286.057798 Z M341.443421,286.061565 L349.001893,286.061565 L348.777499,291.974903 L349.001893,292.111261 C351.390611,287.653487 357.325315,285.424601 366.806006,285.424601 C374.457666,285.424601 379.627081,286.516293 382.314249,288.699677 C385.03894,290.883061 386.401285,295.067968 386.401285,301.254399 L386.401285,329.547612 L378.563155,329.547612 L378.563155,300.162782 C378.563155,296.432803 377.686008,293.930999 375.931714,292.657371 C374.177482,291.353408 370.799513,290.701426 365.797808,290.701426 C354.787032,290.701426 349.281644,294.931786 349.281644,303.392506 L349.281644,329.547612 L341.443421,329.547612 L341.443421,286.061565 Z M427.39961,286.061565 L427.39961,291.338089 L406.796132,291.338089 L406.796132,317.948224 C406.796132,322.587909 409.334199,324.907751 414.410332,324.907751 C419.449128,324.907751 421.968526,322.83049 421.968526,318.675968 L422.024161,316.538087 L422.136358,314.127264 L429.414615,314.127264 L429.47025,317.356837 C429.47025,325.908462 424.468668,330.184275 414.465503,330.184275 C404.126674,330.184275 398.95726,326.62114 398.95726,319.494869 L398.95726,291.338089 L391.566991,291.338089 L391.566991,286.061565 L398.95726,286.061565 L398.95726,275.599674 L406.79539,275.599674 L406.79539,286.061565 L427.39961,286.061565 Z M472.185748,316.421919 L480.191896,316.421919 L480.247531,318.013917 C480.247531,322.532361 478.549243,325.701239 475.152667,327.520549 C471.79349,329.309726 465.87764,330.204314 457.405117,330.204314 C447.551548,330.204314 441.07564,328.748725 437.977391,325.837546 C434.916789,322.896032 433.386487,316.740088 433.386487,307.369712 C433.386487,298.696545 434.935457,292.874087 438.033397,289.902338 C441.131336,286.930489 447.196474,285.444565 456.228808,285.444565 C466.082377,285.444565 472.539431,286.73336 475.599972,289.310952 C478.660574,291.888594 480.190876,297.316794 480.190876,305.595553 L480.190876,309.007062 L441.672016,309.007062 C441.672016,315.860617 442.5678,320.227335 444.359369,322.107215 C446.188276,323.987348 450.424568,324.927414 457.068247,324.927414 C463.376015,324.927414 467.46302,324.487703 469.329264,323.608283 C471.232783,322.698527 472.184542,320.757724 472.184542,317.785875 L472.185748,316.421919 Z M472.185748,304.04951 L472.130113,302.002559 C472.130113,297.302204 471.178322,294.254617 469.274741,292.859798 C467.371222,291.434544 463.265363,290.721917 456.957163,290.721917 C450.612305,290.721917 446.487901,291.55586 444.583949,293.223746 C442.717705,294.861297 441.784584,298.469885 441.784584,304.04951 L472.185748,304.04951 Z M491.843431,286.061565 L499.681562,286.061565 L498.898036,291.065147 L499.065868,291.201505 C502.163808,287.107654 507.277278,285.060728 514.406279,285.060728 C524.259848,285.060728 529.186632,289.184865 529.186632,297.433137 L529.130997,300.435347 L521.404878,300.435347 L521.572711,299.343655 C521.684599,298.191318 521.740543,297.41802 521.740543,297.023762 C521.740543,292.566039 518.754584,290.337177 512.782666,290.337177 C504.048597,290.337177 499.681562,294.719213 499.681562,303.483286 L499.681562,329.547235 L491.843431,329.547235 L491.843431,286.061565 Z M543.491213,298.265975 L535.709089,298.265975 C535.709089,293.201899 537.10874,289.805507 539.908044,288.0768 C542.744747,286.317958 548.268679,285.438538 556.479842,285.438538 C565.400598,285.438538 571.428645,286.515062 574.563984,288.668111 C577.699199,290.790875 579.266807,294.854491 579.266807,300.858961 L579.266807,329.561172 L571.428676,329.561172 L572.04437,324.875959 L571.876538,324.830758 C568.890548,328.409111 562.825411,330.198287 553.681126,330.198287 C540.169868,330.198287 533.41424,325.786117 533.41424,316.961776 C533.41424,311.715386 534.925872,308.09148 537.949137,306.090057 C540.972464,304.088634 546.440453,303.087923 554.353103,303.087923 C563.75912,303.087923 569.39525,304.589015 571.261493,307.5912 L571.429325,307.545998 L571.429325,302.269474 C571.429325,297.296152 570.589547,294.081822 568.909989,292.626483 C567.23037,291.140559 563.553827,290.397596 557.88036,290.397596 C548.250567,290.397596 543.435671,292.596173 543.435671,296.993327 C543.435671,297.205774 543.454216,297.630317 543.491306,298.266955 L543.491213,298.265975 Z M556.087894,308.046078 C550.078639,308.046078 546.159466,308.561601 544.330374,309.592648 C542.538805,310.623694 541.64302,312.837413 541.64302,316.233805 C541.64302,319.751488 542.538805,322.086523 544.330374,323.238911 C546.121943,324.360913 549.761087,324.921914 555.247806,324.921914 C566.295672,324.921914 571.819604,322.192747 571.819604,316.734412 C571.819604,313.307685 570.737195,311.002985 568.572378,309.820313 C566.444897,308.63764 562.283093,308.046304 556.086967,308.046304 L556.087894,308.046078 Z M629.076317,313.8605 L636.914447,313.8605 L636.970082,316.22582 C636.970082,325.535324 629.467709,330.190076 614.462962,330.190076 C604.83317,330.190076 598.469458,328.719319 595.371828,325.777805 C592.274197,322.836291 590.724918,316.771251 590.724918,307.582687 C590.724918,298.97029 592.292556,293.132765 595.427833,290.070111 C598.600386,286.976971 604.609579,285.430401 613.455413,285.430401 C622.151774,285.430401 628.086478,286.476616 631.259525,288.569044 C634.432078,290.631138 636.018354,294.528011 636.018354,300.259664 L628.180223,300.259664 L628.180223,299.122469 C628.180223,295.756412 627.153789,293.512358 625.100921,292.390305 C623.048115,291.268303 618.96111,290.707302 612.839905,290.707302 C606.942662,290.707302 603.15423,291.768684 601.474611,293.891448 C599.795054,296.014161 598.955275,300.775137 598.955275,308.174375 C598.955275,315.39155 599.907034,319.985783 601.810553,321.957071 C603.75141,323.928209 608.248878,324.913778 615.302957,324.913778 C621.274875,324.913778 625.063306,324.276964 626.668251,323.003336 C628.273196,321.699372 629.075668,318.651785 629.075668,313.860575 L629.076317,313.8605 Z M674.789704,286.061565 L674.789704,291.338089 L654.186226,291.338089 L654.186226,317.948224 C654.186226,322.587909 656.724293,324.907751 661.800426,324.907751 C666.839222,324.907751 669.35862,322.83049 669.35862,318.675968 L669.414255,316.538087 L669.526452,314.127264 L676.804802,314.127264 L676.860437,317.356837 C676.860437,325.908462 671.858855,330.184275 661.85569,330.184275 C651.516861,330.184275 646.347447,326.62114 646.347447,319.494869 L646.347447,291.338089 L638.957177,291.338089 L638.957177,286.061565 L646.347447,286.061565 L646.347447,275.599674 L654.185577,275.599674 L654.185577,286.061565 L674.789704,286.061565 Z M690.089316,267.453607 L690.089316,274.595145 L682.251186,274.595145 L682.251186,267.453607 L690.089316,267.453607 Z M690.089316,286.057798 L690.089316,329.54392 L682.251186,329.54392 L682.251186,286.057798 L690.089316,286.057798 Z M742.015273,286.061339 L724.099891,329.547687 L712.846794,329.547687 L695.099244,286.061339 L703.161398,286.061339 L712.623049,309.714767 L715.590339,317.129172 L716.990022,320.859126 L718.44571,324.58908 L718.670105,324.58908 L720.013781,320.904629 L721.357458,317.174675 L724.212737,309.805697 L733.282625,286.061339 L742.015273,286.061339 Z M784.205113,316.421919 L792.211261,316.421919 L792.266896,318.013917 C792.266896,322.532361 790.568639,325.701239 787.172125,327.520549 C783.812948,329.309726 777.897098,330.204314 769.424575,330.204314 C759.571006,330.204314 753.095098,328.748725 749.996849,325.837546 C746.936246,322.896032 745.405945,316.740088 745.405945,307.369712 C745.405945,298.696545 746.954915,292.874087 750.052855,289.902338 C753.150794,286.930489 759.215932,285.444565 768.248266,285.444565 C778.101835,285.444565 784.558889,286.73336 787.61943,289.310952 C790.680094,291.888594 792.210426,297.316794 792.210426,305.595553 L792.210426,309.007062 L753.691566,309.007062 C753.691566,315.860617 754.587351,320.227335 756.37892,322.107215 C758.207826,323.987348 762.444119,324.927414 769.087798,324.927414 C775.395565,324.927414 779.482571,324.487703 781.348814,323.608283 C783.252395,322.698527 784.204186,320.757724 784.204186,317.785875 L784.205113,316.421919 Z M784.205113,304.04951 L784.149478,302.002559 C784.149478,297.302204 783.197718,294.254617 781.294199,292.859798 C779.390618,291.434544 775.284759,290.721917 768.976621,290.721917 C762.631763,290.721917 758.507359,291.55586 756.603407,293.223746 C754.737163,294.861297 753.804041,298.469885 753.804041,304.04951 L784.205113,304.04951 Z M376.081843,142.824703 L376.081843,154.178386 L332.985402,154.178386 L332.985402,251.201872 L317.936057,251.201872 L317.936057,154.178386 L274.448914,154.178386 L274.448914,142.824703 L376.081843,142.824703 Z M441.146339,142.780257 L490.984428,251.157163 L475.250948,251.157163 L464.892142,228.210998 L397.365602,228.210998 L387.104715,251.157163 L371.175883,251.157163 L420.038024,142.780257 L441.146339,142.780257 Z M430.884319,152.784522 L401.665762,219.000973 L460.494549,219.000973 L430.884319,152.784522 Z M513.155442,142.738178 L513.155442,190.058561 L526.348058,190.058561 L581.072361,142.738178 L600.520108,142.738178 L539.540351,194.981796 L606.850914,250.216058 L606.851308,142.804715 L692.555082,142.804715 L692.555082,153.126282 L621.901624,153.126413 L621.901624,190.045412 L689.624001,190.045412 L689.624001,200.366978 L621.901624,200.366978 L621.901624,240.860055 L692.555082,240.860055 L692.555082,251.181622 L606.851308,251.181622 L606.850914,251.115058 L587.327816,251.115084 L526.348058,200.381048 L513.155442,200.381048 L513.155442,251.115084 L498.106097,251.115084 L498.106097,142.738178 L513.155442,142.738178 Z M799.611563,240.834677 L799.611563,251.156243 L703.549468,251.156243 L703.549468,230.750593 C703.549468,219.317398 706.285737,211.827787 711.758276,208.281761 C717.230814,204.735297 730.227809,202.009327 750.74926,200.103853 C767.167199,198.621798 777.069645,196.610426 780.4566,194.069735 C783.909482,191.528957 785.635923,184.939222 785.635923,174.300529 C785.635923,164.98443 783.714022,158.950487 779.870222,156.198701 C776.091593,153.393351 767.784975,151.990677 754.950369,151.990677 C738.924104,151.990677 728.793451,153.128692 724.558408,155.404724 C720.388861,157.627806 718.304087,163.02662 718.304087,171.601166 L718.4996,179.69965 L703.743363,179.69965 L703.840472,174.062389 C703.840472,161.094189 707.195651,152.466256 713.906009,148.178589 C720.681429,143.838235 734.199577,141.668058 754.460452,141.668058 C772.44185,141.668058 784.527097,143.996995 790.716193,148.65487 C796.905398,153.312832 800,162.390483 800,175.887825 C800,188.856024 797.100857,197.536556 791.302571,201.929421 C785.569457,206.269775 773.060705,209.207454 753.776318,210.742458 C736.837227,212.118702 726.738943,214.02422 723.481467,216.459012 C720.223991,218.893891 718.595253,225.80141 718.595253,237.181568 L718.595253,240.833756 L799.611563,240.834677 Z" id="Combined-Shape"></path>
                </g>
            </g>
        </g>
    </g>
</svg>