<?xml version="1.0" encoding="UTF-8"?>
<svg width="800px" height="400px" viewBox="0 0 800 400" version="1.1" xmlns="http://www.w3.org/2000/svg" xmlns:xlink="http://www.w3.org/1999/xlink">
    <title>taketwo_01</title>
    <g id="Page-1" stroke="none" stroke-width="1" fill="none" fill-rule="evenodd">
        <g id="Manufacturer" fill="#000000" fill-rule="nonzero">
            <g id="AF159_INCREMENTAL" transform="translate(-0.000000, -0.400000)">
                <g id="taketwo_01" transform="translate(0.000000, 0.400000)">
                    <line x1="0" y1="0" x2="800" y2="400" id="Path"></line>
                    <path d="M108.116462,157.92067 L108.116462,206.150351 L76.2790531,206.150351 L76.2790531,341.65279 L40.8374091,341.65279 L40.8374091,206.150351 L9,206.150351 L9,157.92067 L108.116462,157.92067 Z M178.098692,157.92067 L216.844218,341.65279 L181.55275,341.65279 L177.347809,317.410357 L142.056342,317.410357 L138.001577,341.65279 L103.310816,341.65279 L142.056342,157.92067 L178.098692,157.92067 Z M159.777164,213.295489 L148.814282,279.132832 L171.190574,279.132832 L159.777164,213.295489 Z M229.759393,341.65279 L265.201037,341.65279 L265.201037,283.470952 L273.610919,268.415125 L299.591446,341.65279 L342.091383,341.65279 L298.390034,227.075398 L337.886443,157.92067 L296.287564,157.92067 L265.201037,217.378425 L265.201037,157.92067 L229.759393,157.92067 L229.759393,341.65279 Z M445.26261,341.65279 L445.26261,298.781962 L390.448203,298.781962 L390.448203,269.946226 L435.050611,269.946226 L435.050611,227.075398 L390.448203,227.075398 L390.448203,200.791498 L443.16014,200.791498 L443.16014,157.92067 L355.006559,157.92067 L355.006559,341.65279 L445.26261,341.65279 Z M759.072969,3 L770.004812,41.1238669 L500.997969,118.259934 L780.696756,118.260433 L780.696756,295.517411 L646.661373,295.517245 L638.066096,300.262858 C622.928103,308.643957 608.711423,316.747729 597.996955,324.877018 L597.740844,325.071573 L603.122967,323.990736 C630.130498,318.601025 666.642783,311.951385 695.574255,311.800565 L696.571458,311.797952 L698.254343,311.801277 C722.78745,311.898639 740.76053,314.125892 752.826382,317.420178 L753.235431,317.532895 C761.881069,319.937392 767.895138,323.068558 771.722328,326.228727 C774.974057,328.91373 777.034147,331.825354 778.262221,334.690553 C779.921255,338.561214 780.226127,342.539457 779.233823,346.559762 C778.136302,351.006354 775.369196,355.040246 769.55821,357.653419 C766.923993,358.838014 763.283073,359.751491 758.704566,360.155581 C750.964555,360.838701 739.506387,360.182297 726.226093,359.336743 L720.357777,358.966079 C706.805888,358.126513 691.656442,357.364537 677.051049,358.178517 L669.82937,358.586714 C632.691303,360.731475 604.120762,363.344282 563.29319,378.803939 C552.054989,383.059365 540.477778,380.769959 531.080915,375.030777 C518.808583,367.535387 511.825279,354.710057 511.825279,346.056439 C511.825279,339.723068 524.278491,322.767716 550.235996,303.367483 C553.662543,300.806536 557.276629,298.181428 561.044959,295.517457 L489.315421,295.517411 L489.315196,119.361517 L478.979252,83.3155807 L759.072969,3 Z M717.54831,195.704341 C715.703406,213.938852 681.758141,238.757016 629.592722,267.112807 C628.132311,267.90665 626.670885,268.709742 625.209644,269.521174 L622.732028,270.905051 L620.989257,271.888042 L619.178001,272.917942 L616.870539,274.242096 L615.021806,275.312713 L612.77933,276.622851 L610.358401,278.051311 L608.731455,279.01945 L606.153264,280.567039 L604.569952,281.525569 L602.521912,282.774616 L599.988556,284.333977 L598.446492,285.290949 L596.801481,286.318324 L594.754566,287.606145 L592.32786,289.146574 L589.818155,290.755444 L588.34141,291.709699 L586.820458,292.698454 L584.747709,294.055743 L583.971038,294.567277 C550.265374,316.8018 523.966168,338.74134 523.966168,346.056439 C523.966168,356.486047 541.87788,373.930869 558.993856,367.44978 C603.813355,350.478551 634.300522,348.401339 676.375467,346.056439 C718.450412,343.711539 764.916098,353.903012 767.446672,343.650423 C769.977247,333.397833 748.450847,323.938841 696.571458,323.938841 C644.69207,323.938841 566.930967,346.118158 568.335414,342.001007 C573.579155,326.628933 595.483338,311.286045 622.311016,295.517217 L624.675095,294.133792 L626.70729,292.953678 C628.489176,291.922328 630.289616,290.888881 632.105121,289.853346 L635.899604,287.697743 L639.704962,285.550521 L643.507288,283.415404 L646.266898,281.870079 L651.813565,278.768622 C653.755623,277.68279 655.701597,276.594171 657.647667,275.502758 C659.370524,274.53653 661.093456,273.568112 662.813975,272.597406 L664.858773,271.441933 L668.119941,269.590568 L670.534101,268.212056 L672.591877,267.030822 C673.763996,266.356222 674.932727,265.68045 676.097256,265.003476 L677.840799,263.987108 C678.95691,263.334653 680.068758,262.68107 681.175618,262.026332 L682.832077,261.043353 C683.943726,260.381524 685.049928,259.718504 686.149942,259.054264 L687.795228,258.056985 C688.676116,257.520974 689.552748,256.984162 690.424736,256.446534 L688.302978,257.747647 L689.585135,256.963069 L690.424736,256.446534 L691.54255,255.755296 L692.65507,255.063152 C693.72058,254.398201 694.778516,253.731988 695.828149,253.064486 L697.39628,252.062262 C698.964926,251.054615 700.513897,250.044009 702.040699,249.030348 C702.919597,248.446838 703.791148,247.862315 704.654879,247.276761 L702.735503,248.567821 L703.79852,247.855267 L704.654879,247.276761 C705.305142,246.835924 705.950973,246.394502 706.592167,245.952489 L704.853942,247.141696 L706.048014,246.326703 L706.592167,245.952489 C707.441225,245.367182 708.282153,244.780838 709.114481,244.193436 L707.231676,245.510369 L708.303913,244.763255 L709.114481,244.193436 C709.754815,243.741531 710.39006,243.289 711.02,242.835835 L709.367003,244.015003 L710.46756,243.232116 L711.02,242.835835 C712.120349,242.044268 713.204512,241.250767 714.271346,240.455288 L715.726702,239.360641 L715.332361,239.659148 C716.361382,238.88208 717.373559,238.103117 718.367832,237.322217 L719.356097,236.540671 C720.076338,235.967102 720.786762,235.392485 721.486951,234.816803 L719.779887,236.202151 L720.733707,235.432502 L721.486951,234.816803 C722.059222,234.346292 722.624656,233.87507 723.183024,233.403128 L721.675457,234.661586 L722.334934,234.114892 L723.183024,233.403128 C723.870024,232.822464 724.546327,232.24071 725.21151,231.65785 L723.635073,233.019572 L724.542319,232.240616 L725.21151,231.65785 C725.750637,231.185444 726.28246,230.712311 726.80675,230.238442 L725.436437,231.460344 L726.043507,230.923051 L726.80675,230.238442 C727.469223,229.639679 728.119671,229.039742 728.757636,228.438613 L727.23841,229.846572 L728.058927,229.091893 L728.757636,228.438613 C729.257211,227.967882 729.749133,227.496421 730.23318,227.02422 L728.866444,228.335961 L729.458303,227.773094 L730.23318,227.02422 C730.844116,226.428236 731.44251,225.831074 732.02792,225.232716 L730.619794,226.645258 C730.957747,226.312393 731.291765,225.97916 731.621772,225.645555 L732.02792,225.232716 C732.496431,224.753844 732.956625,224.274205 733.408278,223.793793 L732.113764,225.14487 L732.66925,224.571295 L733.408278,223.793793 C733.971693,223.194502 734.521815,222.594006 735.058206,221.992288 L733.756019,223.421937 C734.064919,223.089843 734.369716,222.757379 734.670336,222.424541 L735.058206,221.992288 C735.485433,221.513029 735.903948,221.032995 736.313531,220.552178 L735.118124,221.925003 C735.466397,221.533507 735.808853,221.141493 736.14537,220.748957 L736.313531,220.552178 C736.829024,219.947031 737.330367,219.340643 737.817119,218.732996 L736.645677,220.15976 C736.924226,219.828534 737.198515,219.496935 737.468472,219.164961 L737.817119,218.732996 C738.2092,218.243534 738.591813,217.753254 738.964729,217.262149 L737.870149,218.666718 C738.336052,218.083738 738.788515,217.4996 739.227146,216.914287 L738.964729,217.262149 C739.78973,216.175676 740.567265,215.085162 741.294832,213.990509 C742.028403,212.886824 742.711178,211.778932 743.340593,210.666733 C743.69054,210.048366 744.023993,209.428667 744.34051,208.80762 L743.559001,210.276755 C743.749677,209.932685 743.935227,209.588203 744.115574,209.243305 L744.34051,208.80762 C744.593254,208.311704 744.8352,207.814928 745.066123,207.317284 L744.382186,208.725646 C744.583987,208.327735 744.778832,207.929271 744.966603,207.530248 L745.066123,207.317284 C745.354336,206.696179 745.625379,206.07372 745.878816,205.449893 L745.242941,206.931295 C745.399977,206.583983 745.551626,206.236247 745.697811,205.888086 L745.878816,205.449893 C746.083601,204.945819 746.27689,204.440851 746.458454,203.934979 L745.912981,205.365523 C746.155514,204.764651 746.3817,204.162508 746.591151,203.559079 C746.776186,203.02599 746.94816,202.491898 747.106804,201.956791 C747.246963,201.484013 747.376605,201.010888 747.495675,200.536965 L747.106804,201.956791 C747.284495,201.35744 747.445463,200.756816 747.589331,200.154905 L747.495675,200.536965 C747.782746,199.39437 748.008373,198.247141 748.169967,197.095177 L748.221332,196.711987 C748.288389,196.187339 748.342128,195.661708 748.382307,195.135085 C748.420479,194.634711 748.446404,194.133624 748.459887,193.631634 L748.382307,195.135085 C748.429847,194.511964 748.458402,193.887454 748.467567,193.26154 L748.459887,193.631634 C748.476954,192.996177 748.474082,192.359273 748.450847,191.720905 L748.399742,190.614199 L748.396285,190.553191 C748.377863,190.231161 748.356702,189.910991 748.33283,189.593014 L748.396285,190.553191 L748.358627,189.952902 L748.33283,189.593014 C748.305325,189.226644 748.274219,188.863187 748.239522,188.502635 L748.31464,189.357731 L748.276385,188.902058 L748.239522,188.502635 C748.207579,188.170704 748.172593,187.841236 748.134569,187.514226 L748.234374,188.449425 L748.176056,187.883077 L748.134569,187.514226 C748.081619,187.058845 748.02278,186.608231 747.958071,186.16237 L747.822606,185.287745 L747.856606,185.497141 C747.79883,185.136022 747.737126,184.778085 747.671504,184.423321 L747.822606,185.287745 L747.735743,184.778711 L747.671504,184.423321 C747.610576,184.093928 747.54627,183.767271 747.478595,183.443344 L747.643608,184.273949 L747.552642,183.805586 L747.478595,183.443344 C747.414104,183.134658 747.346555,182.828451 747.275953,182.524718 L747.457072,183.340954 C747.385814,183.004019 747.3109,182.670047 747.232338,182.339033 C747.152037,182.000693 747.067925,181.665442 746.980013,181.333275 C746.92016,181.107132 746.858645,180.882771 746.795377,180.659832 L746.980013,181.333275 L746.864278,180.90569 L746.795377,180.659832 C746.704952,180.3412 746.610947,180.025472 746.51337,179.712643 L746.744316,180.481534 L746.597701,179.986656 L746.51337,179.712643 C746.387889,179.310352 746.256501,178.912854 746.119228,178.520137 L745.842133,177.755177 L745.908905,177.934644 C745.767176,177.550567 745.619687,177.171169 745.466457,176.796436 L745.232308,176.237834 C745.101225,175.932674 744.966244,175.630682 744.827377,175.33185 L745.151868,176.052089 L744.96134,175.623769 L744.827377,175.33185 C744.707608,175.074114 744.584947,174.818729 744.459403,174.56569 L744.765608,175.19968 L744.583949,174.819435 L744.459403,174.56569 C744.324052,174.292888 744.18535,174.022813 744.043304,173.755458 L744.398037,174.44265 L744.180153,174.015865 L744.043304,173.755458 C743.894832,173.476009 743.742706,173.199532 743.586938,172.92602 L743.956719,173.593596 L743.7288,173.17774 L743.586938,172.92602 C743.44591,172.678392 743.301896,172.433195 743.154903,172.190424 L743.495395,172.766349 L743.292394,172.419671 L743.154903,172.190424 C742.993855,171.92444 742.829231,171.661367 742.66104,171.4012 L743.085427,172.076222 L742.836961,171.676444 L742.66104,171.4012 C742.500991,171.153626 742.337712,170.908683 742.171212,170.666365 L742.583025,171.281122 L742.358146,170.94154 L742.171212,170.666365 C742.005523,170.425228 741.836645,170.186692 741.664585,169.950749 L742.129153,170.60531 L741.862734,170.225588 L741.664585,169.950749 C741.430047,169.629131 741.189597,169.312333 740.943255,169.00034 L740.569327,168.535954 C740.3844,168.310729 740.196311,168.088084 740.005069,167.868012 L740.524368,168.481325 L740.218068,168.115718 L740.005069,167.868012 C739.815111,167.649417 739.622042,167.433362 739.425869,167.219841 L739.906132,167.75471 C739.72602,167.549444 739.543145,167.346434 739.357512,167.145676 C739.183989,166.958014 739.007931,166.772188 738.829466,166.588329 L739.357512,167.145676 C739.14233,166.912962 738.923443,166.683273 738.700861,166.456603 L738.829466,166.588329 C738.611785,166.36407 738.390522,166.142737 738.165688,165.924322 L738.700861,166.456603 L738.380971,166.135431 L738.165688,165.924322 C737.954219,165.718892 737.739592,165.516044 737.521812,165.315772 L738.056078,165.818346 L737.763192,165.540013 L737.521812,165.315772 C737.308739,165.119828 737.092649,164.92635 736.87355,164.735333 L737.466366,165.264901 L737.104347,164.938449 L736.87355,164.735333 C736.580541,164.479879 736.282149,164.228826 735.978395,163.98216 L735.518744,163.615453 C735.260807,163.413284 734.999143,163.214167 734.733761,163.018093 L735.332145,163.470233 L734.974445,163.19752 L734.733761,163.018093 C734.487793,162.836362 734.238631,162.657246 733.986285,162.480739 L734.612101,162.928609 L734.273052,162.683424 L733.986285,162.480739 C733.745743,162.312488 733.502307,162.146607 733.255984,161.983091 L733.930045,162.441481 L733.516729,162.157794 L733.255984,161.983091 C733.015213,161.82326 732.771683,161.665689 732.525403,161.510373 L733.097824,161.878686 C732.82164,161.697386 732.541866,161.519029 732.258511,161.343607 C732.075747,161.23046 731.891479,161.118525 731.705723,161.007809 L732.258511,161.343607 L731.890971,161.118925 L731.705723,161.007809 C731.421072,160.838149 731.132928,160.671352 730.841303,160.507412 L731.519464,160.897495 L731.083632,160.644755 L730.642478,160.396382 L730.284238,160.200017 L730.002121,160.048638 C729.718242,159.897735 729.431216,159.749414 729.141053,159.60367 L729.922571,160.006463 L729.475486,159.773505 L729.141053,159.60367 C728.757255,159.410895 728.367967,159.222628 727.973209,159.038854 L727.376972,158.766564 C727.078243,158.632746 726.776472,158.501429 726.471667,158.372606 L727.262311,158.71539 L726.767161,158.498685 L726.471667,158.372606 C726.150201,158.236741 725.82536,158.10365 725.497155,157.973328 L726.266539,158.286478 L725.862879,158.12026 L725.497155,157.973328 C725.21254,157.860313 724.925394,157.74938 724.635724,157.640524 L725.455741,157.956905 L724.926127,157.750675 L724.635724,157.640524 C724.197059,157.475677 723.752605,157.315592 723.302385,157.160256 L722.622733,156.93081 C722.297594,156.82343 721.969528,156.718459 721.638543,156.615893 L722.512132,156.894413 L721.958975,156.716229 L721.638543,156.615893 L721.131433,156.461315 L720.619802,156.310461 C720.288944,156.214535 719.95528,156.120923 719.618816,156.029619 L720.501647,156.276337 L719.919296,156.111978 L719.618816,156.029619 C719.233044,155.924935 718.843591,155.823285 718.450471,155.724662 L719.331239,155.952325 L718.850586,155.826412 L718.450471,155.724662 L717.831974,155.572722 L717.445165,155.480922 C717.086307,155.396887 716.724495,155.315292 716.359735,155.23613 L717.293291,155.445543 L716.70117,155.311132 L716.359735,155.23613 C715.968436,155.151208 715.573746,155.069086 715.175675,154.989758 L716.103768,155.181081 L715.618584,155.079462 L715.175675,154.989758 C714.819319,154.918743 714.460252,154.849966 714.098484,154.783423 L715.129981,154.980667 L714.534731,154.864997 L714.098484,154.783423 C713.61361,154.694235 713.123883,154.60906 712.629318,154.527885 L711.597558,154.365394 L711.883847,154.409121 C711.473547,154.345712 711.059989,154.284999 710.643182,154.226975 L711.597558,154.365394 L710.938743,154.268649 L710.274427,154.176456 L709.781294,154.111419 L709.407514,154.064014 C708.996367,154.012757 708.582162,153.964032 708.164908,153.917834 L709.285181,154.048849 L708.649775,153.972815 L708.164908,153.917834 C706.851484,153.772411 705.507847,153.652017 704.134276,153.556459 L703.098489,153.489444 C702.654855,153.462877 702.208172,153.43884 701.758449,153.417327 L702.97581,153.482167 L702.330932,153.446163 L701.681805,153.413687 L700.948489,153.381444 L700.209841,153.353629 L699.140414,153.321435 C698.671981,153.309387 698.200432,153.299929 697.725776,153.293054 L698.941797,153.316486 L698.27451,153.302179 L697.725776,153.293054 C697.137205,153.28453 696.543857,153.279384 695.945751,153.279384 L695.045025,153.279384 L694.110583,153.289792 L693.691956,153.295521 C693.181089,153.303258 692.6669,153.313761 692.149398,153.327024 L693.355836,153.301002 L692.694047,153.314057 L692.149398,153.327024 C691.680792,153.339033 691.209471,153.353306 690.735441,153.369835 L692.028591,153.330168 L691.287217,153.351576 L690.541356,153.376724 L689.806462,153.404976 L689.226417,153.429667 C688.13452,153.478113 687.028639,153.538222 685.908867,153.609929 L684.631502,153.696326 L683.858516,153.753004 L683.242241,153.800518 L682.299366,153.877135 L681.6981,153.928432 C681.008583,153.988333 680.314148,154.052347 679.614815,154.120459 L678.256967,154.257216 L676.92178,154.400315 C676.232658,154.476336 675.538967,154.556184 674.840727,154.639845 L673.494391,154.805172 L672.278059,154.961321 L670.993483,155.13305 L670.469817,155.205028 C669.705671,155.310883 668.936397,155.421041 668.162018,155.535487 L666.846175,155.73333 L665.380803,155.961462 C664.665016,156.074872 663.945022,156.19182 663.220837,156.312292 L661.379321,156.624671 C660.714321,156.739628 660.045429,156.857573 659.372946,156.978448 L658.361564,157.161949 C657.558785,157.308953 656.751151,157.460048 655.938682,157.615218 L654.716356,157.851028 C653.902258,158.009647 653.083373,158.172302 652.259723,158.338979 L651.020676,158.59201 C650.386368,158.722711 649.749272,158.855765 649.109398,158.991167 C587.034476,172.126673 550.118806,217.486919 553.322059,219.959624 C554.804161,221.103711 558.599849,221.598105 562.502229,221.609845 L562.880137,221.609479 L563.510258,221.602266 C567.708543,221.52693 571.810692,220.910161 573.073032,219.959624 C663.234061,152.068681 719.393214,177.46983 717.54831,195.704341 Z M560.475599,122.307396 L536.193821,122.307396 L510.425999,153.873707 L534.707777,153.873707 L560.475599,122.307396 Z M609.039155,122.307396 L584.757377,122.307396 L558.989554,153.873707 L583.271332,153.873707 L609.039155,122.307396 Z M657.602711,122.307396 L633.320933,122.307396 L607.55311,153.873707 L622.885975,153.873707 C626.805836,152.459786 630.851497,151.152135 635.0183,149.973432 L657.602711,122.307396 Z M776.649793,125.200974 L753.243778,153.873707 L776.649793,153.873707 L776.649793,125.200974 Z M754.729823,122.307396 L730.448045,122.307396 L713.976461,142.485991 C718.46926,143.175293 722.608392,144.143216 726.384588,145.387348 C728.917195,146.221759 731.307275,147.175858 733.556386,148.246293 L754.729823,122.307396 Z M511.912043,122.307396 L493.362384,122.307396 L493.362384,145.031093 L511.912043,122.307396 Z M706.166267,122.307396 L681.884489,122.307396 L664.288876,143.863082 C673.779644,142.405579 682.581989,141.551945 690.667449,141.294773 L706.166267,122.307396 Z M486.422292,94.5903433 L492.685792,116.433763 L510.516869,111.320784 L486.422292,94.5903433 Z M523.728679,74.6939424 L500.387536,81.3869074 L533.858012,104.627819 L557.199155,97.9348538 L523.728679,74.6939424 Z M570.410965,61.3080122 L547.069822,68.0009773 L580.540298,91.2418887 L603.881441,84.5489236 L570.410965,61.3080122 Z M617.093251,47.9220821 L593.752108,54.6150472 L627.222584,77.8559586 L650.563727,71.1629935 L617.093251,47.9220821 Z M663.775538,34.536152 L640.434394,41.229117 L673.90487,64.4700285 L697.246013,57.7770634 L663.775538,34.536152 Z M710.457824,21.1502219 L687.116681,27.8431869 L720.587156,51.0840983 L743.928299,44.3911333 L710.457824,21.1502219 Z M756.298272,8.00568468 L733.798967,14.4572568 L764.201549,35.5676844 L756.298272,8.00568468 Z" id="Shape"></path>
                </g>
            </g>
        </g>
    </g>
</svg>