<?xml version="1.0" encoding="UTF-8"?>
<svg width="169.191507px" height="29px" viewBox="0 0 169.191507 29" version="1.1" xmlns="http://www.w3.org/2000/svg" xmlns:xlink="http://www.w3.org/1999/xlink">
    <title>apple iii</title>
    <g id="Page-1" stroke="none" stroke-width="1" fill="none" fill-rule="evenodd">
        <g id="System" transform="translate(-15.808493, 0.000000)" fill="#000000">
            <g id="apple-iii" transform="translate(15.808493, 0.000000)">
                <line x1="84.1915075" y1="30" x2="84.1915075" y2="0" id="Path" fill-rule="nonzero"></line>
                <g id="Group-3">
                    <path d="M137.099889,1 L145.191507,1.00437545 L131.570342,23.9986874 L126.612261,24 L123.191507,24 L136.644495,1 L137.098619,1.00262527 Z M149.099622,1 L157.191507,1.00437545 L143.57018,23.9986874 L138.612195,24 L135.191507,24 L148.644236,1 L149.098351,1.00262527 Z M161.099622,1 L169.191507,1.00437545 L155.57018,23.9986874 L150.612195,24 L147.191507,24 L160.644236,1 L161.098351,1.00262527 Z M79.6705391,7 C82.0081499,7 84.0123833,7.84205035 85.6841212,9.52572599 C87.355859,11.2094016 88.1915075,13.2565064 88.1915075,15.6670402 C88.1915075,18.0044632 87.3510083,19.9827077 85.6700099,21.6021987 C83.9890116,23.2216898 81.9503821,24.0314354 79.5536806,24.0314354 L75.6704509,24.0314354 L75.6704509,19.0628707 L77.409658,19.0628707 C78.5689825,19.0628707 79.5448611,18.7500242 80.337294,18.124331 C81.1297268,17.4986379 81.5257228,16.6888923 81.5257228,15.6946693 C81.5257228,14.7378519 81.1486888,13.8911258 80.3950618,13.1549162 C79.583667,12.3638735 78.5883854,11.9681396 77.409658,11.9681396 L74.2791734,11.9681396 L74.2791734,29 L68.1915075,29 L68.1915075,7 Z M94.1915075,1 L94.1915075,23 L88.1915075,23 L88.1915075,1 L94.1915075,1 Z M57.6705391,7 L46.1915075,7 L46.1915075,29 L52.2791734,29 L52.2791734,11.9681396 L55.409658,11.9681396 C56.5883854,11.9681396 57.583667,12.3638735 58.3950618,13.1549162 C59.1486888,13.8911258 59.5257228,14.7378519 59.5257228,15.6946693 C59.5257228,16.6888923 59.1297268,17.4986379 58.337294,18.124331 C57.5448611,18.7500242 56.5689825,19.0628707 55.409658,19.0628707 L53.6704509,19.0628707 L53.6704509,24.0314354 L57.5536806,24.0314354 C59.9503821,24.0314354 61.9890116,23.2216898 63.6700099,21.6021987 C65.3510083,19.9827077 66.1915075,18.0044632 66.1915075,15.6670402 C66.1915075,13.2565064 65.355859,11.2094016 63.6841212,9.52572599 C62.0128243,7.84205035 60.0081499,7 57.6705391,7 Z M27.7062127,8.68373765 C26.0295952,10.4730458 25.1915075,12.5440252 25.1915075,14.8975741 C25.1915075,17.2318059 26.0733792,19.3324349 27.8371225,21.1994609 C29.6008658,23.066487 31.6357161,24 33.9416733,24 L37.6916181,24 L37.6916181,18.7488769 L35.7726406,18.7488769 C34.6683108,18.7488769 33.7430974,18.384097 32.9970004,17.6545373 C32.2509034,16.9249775 31.8776337,16.0256065 31.878076,14.9559748 C31.878076,13.8670261 32.2411736,12.9770889 32.9678111,12.2866128 C33.6944485,11.5961366 34.6099322,11.2506739 35.7147042,11.2506739 L39.0869566,11.2506739 L39.0869566,23.9995508 L45.1915075,23.9995508 L45.1915075,6 L33.8837369,6 C31.4415628,6 29.382388,6.89442947 27.7062127,8.68373765 Z M99.3026186,8.71300572 C97.2286962,10.5216762 96.1915075,12.5931565 96.1915075,14.9269973 C96.1915075,17.6692041 97.2482658,19.896124 99.3622376,21.607757 C101.336492,23.2025857 103.739456,24 106.571587,24 L117.191507,24 L117.191507,18.7491951 L107.080851,18.7491951 C105.964019,18.7491951 105.016941,18.3794644 104.238709,17.6404522 C103.460931,16.9009908 103.071814,15.977338 103.071814,14.8694936 C103.071814,13.8191529 103.440451,12.953453 104.178179,12.2723937 C104.915908,11.5917838 105.88301,11.2512541 107.080396,11.2512541 L110.31029,11.2512541 L105.883465,17.2325355 L113.003158,17.2325355 L117.190597,11.2512541 L117.190597,6 L106.600714,6 C103.809543,6 101.376541,6.90433524 99.3026186,8.71300572 Z" id="Combined-Shape" fill-rule="nonzero"></path>
                    <path d="M15.4025075,0 C15.2635075,4.019 13.2725075,5.621 10.4015075,6.07 C10.4625075,2.696 12.1265075,0.67 15.4025075,0 Z M19.1195075,22.184 C17.7575075,24.25 15.9155075,25.723 13.1515075,24.566 C11.9415075,23.882 11.4105075,23.958 11.0055075,23.983 C10.5775075,24.009 10.0495075,23.879 8.8395075,24.563 C7.8865075,25.102 5.7025075,25.316 4.6075075,24.166 C3.9925075,23.519 3.4435075,22.856 2.9585075,22.184 L19.1195075,22.184 Z M19.4665075,21.629 C19.9895075,20.751 20.4395075,19.804 20.8455075,18.926 L1.1115075,18.926 C1.4935075,19.829 1.9785075,20.735 2.5735075,21.629 L19.4665075,21.629 Z M21.1025075,18.371 C21.1035075,18.369 21.1045075,18.367 21.1055075,18.365 C20.0775075,17.856 18.9385075,16.866 18.2305075,15.593 L0.149507499,15.593 C0.290507499,16.5 0.534507499,17.432 0.889507499,18.371 L21.1025075,18.371 Z M17.9585075,15.038 C17.6185075,14.24 17.4555075,13.352 17.5805075,12.416 L0.075507499,12.416 C-0.023492501,13.247 -0.026492501,14.128 0.074507499,15.038 L17.9585075,15.038 Z M17.6875075,11.861 C17.9075075,10.997 18.3825075,10.1 19.1945075,9.199 L1.0665075,9.199 C0.635507499,9.987 0.327507499,10.886 0.156507499,11.861 L17.6875075,11.861 Z M19.7385075,8.644 C19.9005075,8.491 20.0725075,8.339 20.2545075,8.186 C19.0365075,6.684 17.3585075,5.89 15.4675075,5.86 C14.5615075,5.85 13.6335075,5.995 12.8905075,6.386 C12.0585075,6.825 11.4275075,6.937 11.3705075,6.945 C11.3125075,6.953 10.6785075,6.95 10.6205075,6.942 C10.5635075,6.934 9.7155075,6.839 9.0425075,6.48 C8.3015075,6.085 7.4305075,5.847 6.5235075,5.857 C4.2995075,5.882 2.5325075,6.947 1.4005075,8.644 L19.7385075,8.644 Z" id="Shape"></path>
                </g>
            </g>
        </g>
    </g>
</svg>