<?xml version="1.0" encoding="utf-8"?>
<!-- Generator: Adobe Illustrator 17.0.0, SVG Export Plug-In . SVG Version: 6.00 Build 0)  -->
<!DOCTYPE svg PUBLIC "-//W3C//DTD SVG 1.1//EN" "http://www.w3.org/Graphics/SVG/1.1/DTD/svg11.dtd">
<svg version="1.1" id="Layer_1" xmlns="http://www.w3.org/2000/svg" xmlns:xlink="http://www.w3.org/1999/xlink" x="0px" y="0px"
	 width="499.333px" height="139.333px" viewBox="0 0 499.333 139.333" enable-background="new 0 0 499.333 139.333"
	 xml:space="preserve">
<path fill="none" d="M344,123c0,6.627-5.373,12-12,12H16.667c-6.627,0-12-5.373-12-12V16.333c0-6.627,5.373-12,12-12H332
	c6.627,0,12,5.373,12,12V123z"/>
<path d="M494.667,123c0,6.627-5.373,12-12,12H371.333c-6.627,0-12-5.373-12-12V16.333c0-6.627,5.373-12,12-12h111.333
	c6.627,0,12,5.373,12,12L494.667,123L494.667,123z"/>
<path d="M344,123c0,6.627-5.373,12-12,12H16.667c-6.627,0-12-5.373-12-12V16.333c0-6.627,5.373-12,12-12H332c6.627,0,12,5.373,12,12
	V123z"/>
<g>
	<polygon fill="none" points="24.134,80.078 24.134,80.078 103.104,80.081 	"/>
	<path fill="#61BB46" d="M113.286,49.482c-5.576-6.982-13.405-11.02-20.789-11.02c-9.773,0-13.903,4.66-20.682,4.66
		c-6.987,0-12.301-4.653-20.754-4.653c-8.302,0-17.129,5.064-22.726,13.717c-0.007,0.01-0.013,0.021-0.02,0.032l80.949,0.006
		C110.468,51.215,111.807,50.295,113.286,49.482z"/>
	<path fill="#61BB46" d="M85.084,30.666L85.084,30.666c3.547-4.575,6.246-11.035,5.268-17.64c-5.8,0.399-12.584,4.107-16.546,8.934
		c-3.595,4.385-6.564,10.888-5.408,17.206C74.73,39.364,81.28,35.567,85.084,30.666z"/>
	<line fill="none" x1="27.944" y1="52.217" x2="27.949" y2="52.217"/>
	<path fill="#FDB827" d="M109.264,52.223h-0.305l-80.884-0.006h0.239c-2.41,3.792-4.143,9.226-4.586,13.993l77.578-0.002
		C102.152,60.993,104.809,56.011,109.264,52.223z"/>
	<path fill="#F5821F" d="M103.104,80.081c-1.919-4.344-2.556-9.203-1.797-13.873L23.729,66.21c-0.477,4.306-0.354,9,0.405,13.868
		l0,0L103.104,80.081z"/>
	<path fill="#E03A3E" d="M116.443,92.735c-6.371-2.416-10.895-7.119-13.34-12.654l-78.97-0.003
		c0.705,4.529,1.959,9.208,3.791,13.867l0,0l0,0l87.97,0.006l0,0l0,0C116.072,93.562,116.254,93.158,116.443,92.735z"/>
	<path fill="#963D97" d="M27.925,93.945C27.925,93.945,27.926,93.945,27.925,93.945c1.705,4.338,3.911,8.659,6.637,12.827
		c0.228,0.346,0.459,0.695,0.693,1.045l72.893-0.007c0.438-0.641,0.859-1.277,1.266-1.898c3.027-4.626,4.295-7.132,6.482-11.961l0,0
		L27.925,93.945z"/>
	<path fill="#009DDC" d="M53.203,121.672c7.088,0.067,9.096-4.541,18.712-4.594s11.435,4.644,18.523,4.579
		c7.264-0.069,13.25-7.287,17.709-13.846l-72.893,0.007C39.741,114.513,45.625,121.602,53.203,121.672z"/>
</g>
<g>
	<polygon fill="#FFFFFF" points="405.653,37.881 405.65,37.887 404.578,37.881 372.821,90.447 380.897,90.445 380.896,90.447 
		392.6,90.444 424.754,37.891 	"/>
	<polygon fill="#FFFFFF" points="434.109,37.881 434.106,37.887 433.034,37.881 401.277,90.447 409.353,90.445 409.352,90.447 
		421.056,90.444 453.211,37.891 	"/>
	<polygon fill="#FFFFFF" points="462.565,37.881 462.562,37.887 461.49,37.881 429.733,90.447 437.81,90.445 437.808,90.447 
		449.512,90.444 481.667,37.891 	"/>
</g>
<g>
	<rect x="252.015" y="38.615" fill="#FFFFFF" width="13.805" height="51.757"/>
	<path fill="#FFFFFF" d="M229.904,50.304h-26.031v51.757h13.805V61.992h7.099c2.673,0,4.93,0.931,6.77,2.792
		c1.709,1.732,2.564,3.724,2.564,5.975c0,2.339-0.898,4.244-2.695,5.716c-1.797,1.472-4.01,2.208-6.639,2.208h-3.944v11.689h8.806
		c5.435,0,10.058-1.905,13.87-5.715s5.718-8.464,5.718-13.963c0-5.671-1.895-10.487-5.686-14.448
		C239.75,52.285,235.205,50.304,229.904,50.304z"/>
	<path fill="#FFFFFF" d="M181.761,50.304H155.73v51.757h13.805V61.992h7.099c2.673,0,4.93,0.931,6.77,2.792
		c1.709,1.732,2.564,3.724,2.564,5.975c0,2.339-0.898,4.244-2.695,5.716c-1.797,1.472-4.01,2.208-6.639,2.208h-3.944v11.689h8.806
		c5.435,0,10.058-1.905,13.87-5.715s5.718-8.464,5.718-13.963c0-5.671-1.895-10.487-5.686-14.448
		C191.608,52.285,187.062,50.304,181.761,50.304z"/>
	<path fill="#FFFFFF" d="M111.903,56.278c-3.791,3.983-5.686,8.593-5.686,13.832c0,5.196,1.994,9.872,5.982,14.028
		s8.589,6.234,13.803,6.234h8.479V78.683h-4.339c-2.497,0-4.589-0.812-6.276-2.436c-1.687-1.624-2.531-3.626-2.53-6.007
		c0-2.424,0.821-4.405,2.464-5.942c1.643-1.537,3.713-2.306,6.211-2.306h7.625v28.379h13.803V50.304h-25.568
		C120.349,50.304,115.693,52.295,111.903,56.278z"/>
	<path fill="#FFFFFF" d="M275.589,56.343c-4.557,4.026-6.836,8.637-6.836,13.832c0,6.104,2.322,11.061,6.967,14.871
		c4.338,3.55,9.618,5.325,15.841,5.325h23.335V78.683H292.68c-2.454,0-4.535-0.823-6.245-2.468
		c-1.709-1.646-2.564-3.702-2.564-6.168c0-2.338,0.81-4.265,2.431-5.781c1.621-1.515,3.746-2.273,6.377-2.273h7.097l-9.727,13.314
		h15.644l9.201-13.314V50.304h-23.269C285.492,50.304,280.146,52.317,275.589,56.343z"/>
</g>
</svg>
