<?xml version="1.0" encoding="UTF-8"?>
<svg width="155.294963px" height="30px" viewBox="0 0 155.294963 30" version="1.1" xmlns="http://www.w3.org/2000/svg" xmlns:xlink="http://www.w3.org/1999/xlink">
    <title>arcade64</title>
    <g id="Page-1" stroke="none" stroke-width="1" fill="none" fill-rule="evenodd">
        <g id="System" transform="translate(-22.352519, 0.000000)" fill="#000000">
            <g id="arcade64" transform="translate(22.352519, 0.000000)">
                <line x1="77.6474814" y1="30" x2="77.6474814" y2="0" id="Path" stroke="#979797" fill-rule="nonzero"></line>
                <path d="M19.4775276,23.9489209 L19.2004431,24.5995889 L21.4555583,24.5971865 L23.7104733,24.5949842 L24.5421271,22.5450797 L25.3737809,20.4953754 L29.441557,20.4953754 L33.5093331,20.4953754 L34.3554017,22.4974308 L35.2014703,24.4994862 L37.5102406,24.5559441 L39.8190109,24.6122019 L39.1611355,23.0544026 C38.7993641,22.1975229 36.9390542,17.8250339 35.0268911,13.3380274 L31.5503219,5.1796517 L29.8077329,5.1796517 C28.8491488,5.1796517 27.8058778,5.13760854 27.4893528,5.08601035 C27.1728278,5.03470289 21.7306407,18.6558869 19.4775276,23.9489209 Z M67.8768161,5.29637153 C66.2321276,5.73862556 64.8761354,6.54985841 63.5513754,7.88402811 C59.6711919,11.7922404 59.6701908,18.2210405 63.5491731,22.0988215 C65.5736515,24.1226993 67.7538899,25 70.7587748,25 C73.5738649,25 75.6914388,24.2095885 77.6726728,22.4191504 L78.6939213,21.4964031 L77.2950852,20.1161861 L75.8960489,18.7359691 L74.8727984,19.4871403 C71.4705055,21.9847044 67.6027347,21.2721729 65.916003,17.8374467 C65.425099,16.8380206 65.3534255,16.4612338 65.3546267,14.8896203 C65.3558279,13.3888796 65.4347089,12.9372159 65.8267113,12.1868455 C67.5967285,8.79856701 71.346378,7.98813499 74.5885065,10.2931014 C75.1240563,10.6738923 75.6191646,10.9856123 75.688636,10.9856123 C75.7581073,10.9856123 76.4305977,10.2977061 77.1829701,9.45704303 L78.5509745,7.92867395 L77.7579604,7.25978724 C76.7295046,6.39249685 74.8407655,5.47835836 73.5017909,5.20007267 C72.0434937,4.89676128 69.1797537,4.94581163 67.8768161,5.29637153 M42.1790338,5.29697215 C42.0965491,5.37925662 42.02928,9.7559499 42.02928,15.0231574 L42.02928,24.5995889 L44.2315409,24.5995889 L46.4338019,24.5995889 L46.4338019,21.5965058 L46.4338019,18.5934228 L48.0854976,18.6016312 L49.7371933,18.6098396 L51.7392486,21.6013108 L53.741304,24.5925817 L56.3057368,24.5961854 C58.3055899,24.5987881 58.8367352,24.5445324 58.7180133,24.349332 C58.6343274,24.2117908 57.5928582,22.677816 56.4038375,20.9408327 C55.2146166,19.2038495 54.2418179,17.7495564 54.2418179,17.7093151 C54.2418179,17.6688736 54.456238,17.5819844 54.7181068,17.516317 C55.4106178,17.3425386 57.1934481,15.6688203 57.7053737,14.712038 C58.0825609,14.0067139 58.1458259,13.5724681 58.1458259,11.6863317 C58.1458259,9.81060601 58.0815599,9.36394745 57.7121807,8.67423937 C57.086138,7.50463862 55.6897043,6.30560765 54.325704,5.76605372 C53.2071556,5.32359948 52.8371758,5.29296804 47.7347375,5.22229548 C44.761485,5.18085293 42.2613182,5.21448746 42.1790338,5.29697215 M68.2107589,5.49097131 C65.0671315,6.25295359 62.5631609,8.54470639 61.4237911,11.7025483 C60.8181694,13.3808714 60.8181694,16.5985748 61.4237911,18.2768978 C61.954536,19.7478079 62.7986026,21.081377 63.7784085,21.9969169 C64.5013507,22.6726106 64.4975468,22.6617995 63.6686958,21.6966086 C62.0816665,19.8487115 61.2490117,17.6094126 61.2490117,15.1899286 C61.2490117,10.7447651 64.0038399,7.12584974 68.3408925,5.8737643 C69.2536295,5.61029381 70.0146108,5.55383585 71.6442839,5.62871272 C73.9644659,5.73522207 75.4289694,6.16746583 76.7939707,7.14907358 C77.9425499,7.97512163 78.2594753,8.09704681 77.4656603,7.40753893 C75.2407762,5.47515508 71.4847201,4.69735656 68.2107589,5.49097131 M79.9402008,23.9489209 L79.6625157,24.5995889 L81.9176309,24.5971865 L84.1725459,24.5949842 L85.0041997,22.5450797 L85.8358535,20.4953754 L89.9036296,20.4953754 L93.9714057,20.4953754 L94.8174743,22.4974308 L95.6635429,24.4994862 L97.9723132,24.5559441 L100.281083,24.6122019 L99.6232081,23.0544026 C99.2614367,22.1975229 97.4011268,17.8250339 95.4889637,13.3380274 L92.0123945,5.1796517 L89.9428699,5.1796517 L87.873145,5.1796517 L87.5598234,5.96265556 C84.0947994,14.169481 81.5549252,20.1649028 79.9402008,23.9489209 Z M102.641507,5.29436947 C102.558822,5.37805539 102.491353,9.7559499 102.491353,15.0231574 L102.491353,24.5995889 L107.217405,24.5995889 C112.340864,24.5995889 113.433386,24.4466319 115.388994,23.4556145 C116.695335,22.793735 118.903402,20.5672492 119.473787,19.3369861 C121.627398,14.6918172 120.28502,9.56915813 116.226654,6.94626537 C114.02179,5.52120235 113.044787,5.32660257 107.596594,5.22850185 C104.953881,5.18105314 102.724192,5.21068356 102.641507,5.29436947 M123.512934,15.0231574 L123.512934,24.5995889 L130.920539,24.5995889 L138.328144,24.5995889 L138.328144,22.8978418 C138.328144,21.8523685 138.328144,21.1516491 138.328144,20.7956837 C136.965278,20.7956837 134.936996,20.7956837 132.243297,20.7956837 L127.917456,20.7956837 L127.917456,18.7936283 L127.917456,16.7915729 L132.422081,16.7915729 L136.926705,16.7915729 L136.926705,14.8896203 L136.926705,12.9876677 L132.422081,12.9876677 L127.917456,12.9876677 L127.917456,11.0891186 L127.917456,9.19056946 L133.072749,9.13711458 L138.228041,9.0836597 L138.289905,7.7823237 C138.32394,7.0665889 138.297312,6.188087 138.230844,5.8303197 L138.10972,5.1796517 L130.944764,5.1796517 C127.004118,5.1796517 123.719746,5.23971336 123.646471,5.31318879 C123.572996,5.38646402 123.512934,9.7559499 123.512934,15.0231574 Z M27.55482,5.63011416 C27.4985623,5.76785557 25.7219383,9.93453324 23.6071672,14.8896203 C21.4921959,19.8447074 19.7171736,24.0115853 19.6625175,24.1491265 C19.6080616,24.2868679 19.7081643,24.3993834 19.885146,24.3993834 C20.0621277,24.3993834 20.2068763,24.3018833 20.2068763,24.182761 C20.2068763,23.9683409 27.2078638,7.38972064 27.7456159,6.33083355 C28.017495,5.79548394 28.0721511,5.78026832 29.7218448,5.78026832 C30.719469,5.78026832 31.4183865,5.69778363 31.4183865,5.58006278 C31.4183865,5.27054502 27.6821507,5.31899476 27.55482,5.63011416 M88.0168926,5.63011416 C87.9606348,5.76785557 86.1840109,9.93453324 84.0692398,14.8896203 C81.9542685,19.8447074 80.1792462,24.0115853 80.1245901,24.1491265 C80.0701342,24.2868679 80.1702369,24.3993834 80.3472186,24.3993834 C80.5242003,24.3993834 80.6689489,24.3018833 80.6689489,24.182761 C80.6689489,23.9683409 87.6699364,7.38972064 88.2076885,6.33083355 C88.4795676,5.79548394 88.5342237,5.78026832 90.1839173,5.78026832 C91.1815415,5.78026832 91.8804591,5.69778363 91.8804591,5.58006278 C91.8804591,5.27054502 88.1442233,5.31899476 88.0168926,5.63011416 M42.4296911,14.9897231 C42.4296911,20.1650362 42.4973606,24.3993834 42.5798453,24.3993834 C42.6623299,24.3993834 42.7299994,20.2327057 42.7299994,15.1398772 L42.7299994,5.88037109 L47.9353434,5.88057129 C53.8754417,5.88057129 54.4848674,5.99388763 56.1780056,7.41314469 L57.1447982,8.22377691 L56.1149409,7.23456135 C54.5347186,5.71680316 53.828994,5.58006278 47.5717702,5.58006278 L42.4296911,5.58006278 L42.4296911,14.9897231 M102.891764,14.9897231 C102.891764,20.1650362 102.959233,24.3993834 103.041918,24.3993834 C103.124603,24.3993834 103.192072,20.2327057 103.192072,15.1398772 L103.192072,5.88037109 L106.995977,5.82411333 C109.088125,5.79328168 111.43053,5.86355382 112.201321,5.98027365 C113.905871,6.23833859 116.050473,7.22535189 117.406665,8.37573292 L118.407693,9.2248046 L117.394853,8.25320713 C116.837681,7.71905875 115.929949,7.03695848 115.377782,6.73785141 C113.535891,5.740027 112.441368,5.58006278 107.454448,5.58006278 L102.891764,5.58006278 L102.891764,14.9897231 M123.913345,14.9897231 C123.913345,20.1650362 123.980814,24.3993834 124.063499,24.3993834 C124.146184,24.3993834 124.213654,20.2327057 124.213654,15.1398772 L124.213654,5.88037109 L131.070693,5.88037109 C134.842165,5.88037109 137.927733,5.81270161 137.927733,5.73021693 C137.927733,5.64773225 134.774496,5.58006278 130.920539,5.58006278 L123.913345,5.58006278 L123.913345,14.9897231 M46.4338019,11.8673175 L46.4338019,14.589312 L49.0428804,14.589312 C51.8057169,14.589312 52.619152,14.4045223 53.3200716,13.6179147 C53.8492148,13.0239049 53.9771461,11.4282668 53.5599178,10.6218389 C52.9969398,9.53272072 52.2772009,9.30188374 49.186628,9.21919885 L46.4338019,9.145323 L46.4338019,11.8673175 M106.895874,14.8563862 L106.895874,20.5772595 L107.646645,20.7196056 C108.652678,20.9102013 112.086403,20.5167974 112.846383,20.1237939 C114.597782,19.2180641 115.691705,17.5303314 115.856274,15.479626 C116.053476,13.0247057 114.921514,10.9157406 112.829566,9.84003622 C111.924237,9.37435814 111.507008,9.3004823 109.348392,9.22320296 L106.895874,9.13551293 L106.895874,14.8563862 M53.6163758,10.1901957 C54.1777521,11.1113414 54.1867613,12.6469179 53.6359959,13.5502453 C53.0291729,14.545467 52.1348548,14.8183471 48.9363711,14.9835167 L46.1334936,15.1282653 L49.0364739,15.1546924 C52.3751014,15.1851237 53.3244761,14.9184499 54.0368074,13.7500504 C54.7503399,12.5796488 54.4948777,10.5759918 53.5300872,9.77536983 C53.2746249,9.56315196 53.2956465,9.66425576 53.6163758,10.1901957 M114.637022,10.8308534 C116.77802,13.3324216 116.523358,17.6300337 114.116287,19.6140706 C113.045188,20.496977 111.688995,20.8625523 108.998033,20.9938872 C107.216804,21.0809766 106.744319,21.1552528 107.170757,21.2815825 C107.487081,21.3754789 108.70333,21.3938978 109.873531,21.3230251 C111.729036,21.2103094 112.166485,21.110607 113.293643,20.5442255 C114.834424,19.7700307 115.754769,18.6719033 116.228255,17.0430311 C116.886531,14.7785062 116.201628,12.1031596 114.574357,10.5827988 L113.82719,9.88448185 L114.637022,10.8308534 M29.8227484,10.5023161 C29.8195451,10.6220391 30.3500897,12.01587 31.0021592,13.6000964 C31.6542286,15.1843229 32.1443318,16.5505255 32.0914775,16.6360132 C32.0386233,16.721501 30.8069588,16.7929744 29.3544676,16.794576 C27.5754412,16.7967783 26.8116571,16.8610442 27.0138646,16.9917785 C27.3401997,17.2027951 31.5869596,17.2684625 32.102689,17.0704592 C32.2768678,17.0035906 32.4194142,16.8182003 32.4194142,16.6584362 C32.4194142,16.3681382 30.3781185,11.2250581 30.0189498,10.6100267 C29.9144425,10.4312432 29.8261518,10.3827934 29.8227484,10.5023161 M90.2848209,10.5023161 C90.2816177,10.6220391 90.8121623,12.01587 91.4642318,13.6000964 C92.1163012,15.1843229 92.6064044,16.5505255 92.5535501,16.6360132 C92.5006958,16.721501 91.2690314,16.7929744 89.8165402,16.794576 C88.0375138,16.7967783 87.2737296,16.8610442 87.4759372,16.9917785 C87.8022723,17.2027951 92.0490321,17.2684625 92.5647616,17.0704592 C92.7389404,17.0035906 92.8814868,16.8182003 92.8814868,16.6584362 C92.8814868,16.3681382 90.8401911,11.2250581 90.4810224,10.6100267 C90.3765151,10.4312432 90.2882244,10.3827934 90.2848209,10.5023161 M29.244755,10.9862129 C29.1352425,11.2610951 28.5990921,12.5796488 28.053532,13.916221 L27.0615136,16.346516 L27.7884599,16.4666393 C28.8779784,16.6468243 31.8187976,16.6157925 31.8187976,16.4239956 C31.8187976,16.331901 31.284449,14.9582908 30.6313785,13.3714617 C29.5598785,10.7677887 29.4245395,10.5351499 29.244755,10.9862129 M89.7068276,10.9862129 C89.5973151,11.2610951 89.0611647,12.5796488 88.5156046,13.916221 L87.5235862,16.346516 L88.2505325,16.4666393 C89.340051,16.6468243 92.2808702,16.6157925 92.2808702,16.4239956 C92.2808702,16.331901 91.7465216,14.9582908 91.0934511,13.3714617 C90.0219511,10.7677887 89.8866121,10.5351499 89.7068276,10.9862129 M127.817353,13.3880788 C127.893832,13.5118058 129.621205,13.5882843 132.33379,13.5882843 C135.128859,13.5882843 136.7265,13.5154095 136.7265,13.3880788 C136.7265,13.2605478 135.087617,13.1878732 132.210063,13.1878732 C129.250024,13.1878732 127.73627,13.2569441 127.817353,13.3880788 M50.0375016,18.4831095 C50.0375016,18.6827144 53.9258935,24.379563 54.0073772,24.2992806 C54.0434142,24.263644 53.3310829,23.1228729 52.4241518,21.7642781 C50.6269067,19.071914 50.0375016,18.261482 50.0375016,18.4831095 M66.7192276,19.7327925 C67.5883199,20.6779628 69.1216941,21.4219266 70.4490568,21.5422501 C72.0362863,21.6861979 73.434722,21.3086103 74.7646874,20.3770539 C75.3791182,19.946612 75.941896,19.5944505 76.0155716,19.5944505 C76.089047,19.5944505 76.5579284,19.9760422 77.0576414,20.4423209 C77.8540591,21.1854839 77.8386432,21.1570547 76.9337142,20.2130856 L75.9012542,19.1359798 L74.6665867,19.9606264 C73.2287105,20.9208122 72.3844438,21.1934921 70.8444628,21.1948935 C69.3849644,21.1964952 68.1084539,20.7452319 67.028345,19.8459086 C66.2535496,19.2010466 66.2183134,19.1882334 66.7192276,19.7327925 M33.820853,20.3229984 C33.820853,20.6183016 35.2305001,24.0718471 35.4397149,24.2892703 C35.7584422,24.6204103 35.6439246,24.248028 34.8146732,22.2555825 C34.0092464,20.3201955 33.820853,19.9540196 33.820853,20.3229984 M94.2829255,20.3229984 C94.2829255,20.6183016 95.6925727,24.0718471 95.9017875,24.2892703 C96.2205147,24.6204103 96.1059972,24.248028 95.2767458,22.2555825 C94.471319,20.3201955 94.2829255,19.9540196 94.2829255,20.3229984 M127.817353,21.1960948 C127.894633,21.321023 129.854845,21.3963003 133.034509,21.3963003 C136.296658,21.3963003 138.127938,21.3242263 138.127938,21.1960948 C138.127938,21.067763 136.255416,20.9958892 132.910782,20.9958892 C129.483664,20.9958892 127.73607,21.0645597 127.817353,21.1960948 M58.0457231,24.1991778 C58.0457231,24.3092909 58.1412211,24.3993834 58.2577408,24.3993834 C58.3742604,24.3993834 58.4141013,24.3092909 58.3460314,24.1991778 C58.2779615,24.0890648 58.1826637,23.9989723 58.1340137,23.9989723 C58.0853638,23.9989723 58.0457231,24.0890648 58.0457231,24.1991778 M155.294963,18.2430631 L155.294963,24.6496403 L142.081397,24.6496403 L142.081397,18.2430631 L155.294963,18.2430631 Z M154.894552,18.6434742 L142.481808,18.6434742 L142.481808,21.0459406 L154.894552,21.0459406 L154.894552,18.6434742 Z" id="Combined-Shape"></path>
                <path d="M15.1424631,17.4217734 L14.9286801,20.1351859 L13.5192524,20.1351859 L12.6609668,29.4292735 L2.50338973,29.4292735 L1.64510414,20.1351859 L0.235676451,20.1351859 L0.0247190457,17.456061 C4.79091039,18.0656917 11.293581,18.080889 15.1424631,17.4217734 Z M10.1606781,22.1954004 L5.11736813,22.1954004 C5.10761566,22.1954004 5.0978653,22.1956869 5.08812966,22.1962596 C4.81361438,22.2124075 4.60416628,22.4480366 4.62031423,22.7225519 L4.81069277,25.9589871 C4.82617385,26.2221654 5.04411347,26.4276618 5.30774667,26.4276618 L9.97029952,26.4276618 C10.2339327,26.4276618 10.4518723,26.2221654 10.4673534,25.9589871 L10.657732,22.7225519 C10.6583046,22.7128163 10.6585912,22.7030659 10.6585912,22.6933135 C10.6585912,22.4183236 10.4356679,22.1954004 10.1606781,22.1954004 Z M13.2755678,0.570726469 L13.2755678,4.37379341 L12.8004562,5.63699072 L12.9685594,14.611286 L14.009258,14.611286 L15.1469702,16.9156699 C11.3436555,17.5853436 4.76464197,17.5704933 7.10542736e-15,16.9508354 L1.15509847,14.611286 L2.19579707,14.611286 L2.36390029,5.63699072 L1.88878874,4.37379341 L1.88878874,0.570726469 L13.2755678,0.570726469 Z M11.9335236,15.3490951 C11.8035909,15.3490951 11.6891572,15.3933343 11.6225144,15.4605744 C11.5556384,15.3933883 11.4411443,15.3490951 11.3111323,15.3490951 C11.1811996,15.3490951 11.0667658,15.3933343 11.000123,15.4605744 C10.9332471,15.3933883 10.8187529,15.3490951 10.6887409,15.3490951 C10.4824985,15.3490951 10.315306,15.4605568 10.315306,15.5980517 C10.315306,15.6739329 10.3662289,15.7418851 10.4465205,15.7874647 C10.3660454,15.834919 10.315306,15.9042762 10.315306,15.981534 C10.315306,16.124578 10.4892461,16.2405381 10.7038121,16.2405381 C10.881344,16.2405381 11.0310637,16.1611529 11.0770357,16.0527247 C11.1234301,16.1611529 11.2731499,16.2405381 11.4506818,16.2405381 C11.6282136,16.2405381 11.7779334,16.1611529 11.8239053,16.0527247 C11.8702998,16.1611529 12.0200196,16.2405381 12.1975514,16.2405381 C12.4121174,16.2405381 12.5860575,16.124578 12.5860575,15.981534 C12.5860575,15.8513369 12.4419578,15.7435773 12.254348,15.725537 C12.2877595,15.6882475 12.3069585,15.6446443 12.3069585,15.5980517 C12.3069585,15.4605568 12.139766,15.3490951 11.9335236,15.3490951 Z M6.58095774,15.3490951 C6.45102506,15.3490951 6.33659127,15.3933343 6.26994851,15.4605744 C6.20307255,15.3933883 6.08857837,15.3490951 5.95856636,15.3490951 C5.82863367,15.3490951 5.71419989,15.3933343 5.64755713,15.4605744 C5.58068117,15.3933883 5.46618699,15.3490951 5.33617498,15.3490951 C5.12993262,15.3490951 4.96274015,15.4605568 4.96274015,15.5980517 C4.96274015,15.6447481 4.98202472,15.6884417 5.01567309,15.7255478 C4.83079616,15.7445585 4.6892461,15.8510918 4.6892461,15.9796657 C4.6892461,16.1216778 4.86193147,16.2368014 5.07494968,16.2368014 C5.25458137,16.2368014 5.40553227,16.1549367 5.44833201,16.0441175 C5.49123674,16.1549367 5.64218764,16.2368014 5.82181934,16.2368014 C6.00145103,16.2368014 6.15240193,16.1549367 6.19520167,16.0441175 C6.2381064,16.1549367 6.3890573,16.2368014 6.568689,16.2368014 C6.7817072,16.2368014 6.95439257,16.1216778 6.95439257,15.9796657 C6.95439257,15.9029245 6.90396576,15.8340352 6.82404823,15.7870439 C6.9038435,15.7413853 6.95439257,15.673654 6.95439257,15.5980517 C6.95439257,15.4605568 6.7872001,15.3490951 6.58095774,15.3490951 Z M3.46900083,14.4777472 L3.34452255,14.4777472 C3.20702764,14.4777472 3.095566,14.5892089 3.095566,14.7267038 L3.095566,15.2246169 C3.095566,15.3167622 3.14562694,15.3972152 3.22003525,15.4402622 L3.2199198,15.5980517 L3.095566,15.5980517 C2.95807109,15.5980517 2.84660944,15.7095133 2.84660944,15.8470083 C2.84660944,15.9845032 2.95807109,16.0959648 3.095566,16.0959648 L3.71795738,16.0959648 C3.85545229,16.0959648 3.96691393,15.9845032 3.96691393,15.8470083 C3.96691393,15.7095133 3.85545229,15.5980517 3.71795738,15.5980517 L3.59360358,15.5980517 L3.59361323,15.4401898 C3.66795254,15.397125 3.71795738,15.3167106 3.71795738,15.2246169 L3.71795738,14.7267038 C3.71795738,14.5892089 3.60649574,14.4777472 3.46900083,14.4777472 Z M8.82156672,14.4777472 L8.69708845,14.4777472 C8.55959354,14.4777472 8.44813189,14.5892089 8.44813189,14.7267038 L8.44813189,15.2246169 C8.44813189,15.3167622 8.49819284,15.3972152 8.57260115,15.4402622 L8.57248569,15.5980517 L8.44813189,15.5980517 C8.31063698,15.5980517 8.19917534,15.7095133 8.19917534,15.8470083 C8.19917534,15.9845032 8.31063698,16.0959648 8.44813189,16.0959648 L9.07052327,16.0959648 C9.20801818,16.0959648 9.31947983,15.9845032 9.31947983,15.8470083 C9.31947983,15.7095133 9.20801818,15.5980517 9.07052327,15.5980517 L8.94616948,15.5980517 L8.94617912,15.4401898 C9.02051844,15.397125 9.07052327,15.3167106 9.07052327,15.2246169 L9.07052327,14.7267038 C9.07052327,14.5892089 8.95906163,14.4777472 8.82156672,14.4777472 Z M11.6845671,6.63561578 L3.5934791,6.63561578 C3.24974184,6.63561578 2.97108772,6.9142699 2.97108772,7.25800716 L2.97108772,12.6105731 C2.97108772,12.9543103 3.24974184,13.2329644 3.5934791,13.2329644 L11.6845671,13.2329644 C12.0283044,13.2329644 12.3069585,12.9543103 12.3069585,12.6105731 L12.3069585,7.25800716 C12.3069585,6.9142699 12.0283044,6.63561578 11.6845671,6.63561578 Z" id="Shape"></path>
            </g>
        </g>
    </g>
</svg>