<?xml version="1.0" encoding="UTF-8"?>
<svg width="120.230378px" height="30px" viewBox="0 0 120.230378 30" version="1.1" xmlns="http://www.w3.org/2000/svg" xmlns:xlink="http://www.w3.org/1999/xlink">
    <title>arduboy</title>
    <g id="Page-1" stroke="none" stroke-width="1" fill="none" fill-rule="evenodd">
        <g id="System" transform="translate(-39.884811, 0.000000)" fill="#000000">
            <g id="arduboy" transform="translate(39.884811, 0.000000)">
                <line x1="60.1151889" y1="30" x2="60.1151889" y2="0" id="Path" stroke="#979797" fill-rule="nonzero"></line>
                <path d="M107.059592,5.37358884 L106.59142,5.76763612 L106.59142,7.71000161 L106.59142,9.65251535 L109.408161,12.4827473 L112.224903,15.3129793 L112.224903,19.4294243 C112.224903,24.3384114 112.284202,24.5689394 113.545361,24.5689394 C113.779003,24.5689394 114.089437,24.4227654 114.274601,24.22589 C114.590224,23.8898083 114.596895,23.7931496 114.596895,19.5978358 L114.596895,15.3129793 L117.413637,12.4827473 L120.230378,9.65251535 L120.230378,7.78308864 C120.230378,6.75497807 120.188868,5.80573626 120.138315,5.67379416 C120.03454,5.40353525 119.332579,5 118.966254,5 C118.833571,5 118.530104,5.19494815 118.291719,5.43333341 C117.874693,5.85050762 117.858385,5.91855416 117.858385,7.25131753 L117.858385,8.63582 L115.634642,10.8558569 L113.410899,13.0758938 L111.187156,10.8558569 L108.963413,8.63582 L108.963413,7.27088647 C108.963413,6.06487645 108.924571,5.86251583 108.629851,5.5326606 C108.11587,4.95745238 107.614638,4.90660279 107.059592,5.37358884 M65.3039229,5.323777 C64.6385789,5.71337679 64.6464362,5.62072083 64.6415439,13.0833062 L64.6367999,20.2029904 L63.5584328,21.2740934 L62.4802139,22.3451963 L60.1077765,22.3451963 L57.7351908,22.3451963 L56.7434014,21.3445119 L55.7516119,20.3438275 L55.7096573,13.2026471 L55.6677027,6.06131847 L55.3083458,5.6789829 C54.7310621,5.0646368 53.8144352,5.17315546 53.4384744,5.90017121 C53.1931214,6.37456975 53.1401963,11.7911632 53.3204677,17.9835466 L53.4192019,21.3789058 L54.9611454,22.9601354 C55.8091328,23.8297672 56.688549,24.61801 56.9153708,24.7120002 C57.1943765,24.8276349 58.3185527,24.8679588 60.3943428,24.8371229 L63.4608846,24.7913137 L65.2348386,23.000311 L67.0087926,21.2093083 L67.0087926,13.6318295 L67.0087926,6.05435074 L66.6752311,5.68091014 C66.2752539,5.23334478 65.7098301,5.08598473 65.3039229,5.323777 M71.4414539,5.58499269 L71.0047107,6.02173584 L71.0451829,14.9869786 L71.085655,23.9522213 L71.4450119,24.3347052 L71.804517,24.717189 L76.5416828,24.717189 L81.2789969,24.717189 L82.6133911,23.4200055 C83.3473745,22.7066287 84.1393236,21.8626441 84.3732614,21.5446488 C84.7831713,20.9876753 84.7987375,20.9042108 84.7987375,19.2740588 C84.7987375,18.324817 84.7263918,17.4394707 84.633884,17.2578651 C84.5431553,17.0798174 84.0318427,16.4877087 83.4974031,15.9420021 L82.5260721,14.9500645 L83.6741165,13.6631102 L84.822161,12.3761559 L84.7733869,10.5360826 L84.7246128,8.69600931 L82.9336101,6.9220553 L81.1426074,5.14824954 L76.5104022,5.14824954 L71.878197,5.14824954 L71.4414539,5.58499269 M90.7170075,6.72310442 C89.8380359,7.58932649 89.0451974,8.47571049 88.9552099,8.69289607 C88.8426885,8.96463748 88.8047366,10.9707503 88.8336453,15.1284087 L88.8755999,21.1689845 L90.6666026,22.9430867 L92.4576053,24.717189 L95.6922621,24.717189 L98.9267706,24.717189 L100.548176,23.1235064 C101.439897,22.2470551 102.263868,21.3497006 102.379058,21.1295501 C102.549248,20.8044388 102.588682,19.6427554 102.588682,14.949768 C102.588682,11.7710013 102.527455,9.01578357 102.452738,8.8270619 C102.377872,8.63834024 101.592001,7.73342504 100.70621,6.81605688 L99.095775,5.14824954 L95.7054563,5.14824954 L92.3151375,5.14824954 L90.7170075,6.72310442 M18.2461088,5.68031714 L17.7899449,6.06413521 L17.7899449,15.085861 L17.7899449,24.1075869 L18.1371454,24.5112704 C18.58308,25.029699 19.2755536,25.0534189 19.7924997,24.5677534 C20.1577866,24.2245557 20.1619376,24.1931268 20.1619376,21.7264027 L20.1619376,19.231956 L22.2172692,19.231956 L24.2726009,19.231956 L27.0055812,22.0486972 C29.5837889,24.705922 29.7695456,24.8654385 30.287233,24.8654385 C30.8771179,24.8654385 31.416005,24.4690192 31.4459514,24.0130037 C31.4904263,23.3378752 31.2824322,23.0376699 29.5631822,21.2947001 C28.5509344,20.2685167 27.7226642,19.3557443 27.7226642,19.2662016 C27.7226642,19.1768071 27.8471938,19.0641375 27.9992978,19.0159564 C28.1514019,18.967627 28.9853055,18.2005839 29.8524171,17.3115314 L31.4289027,15.6948701 L31.4289027,12.2531088 L31.4289027,8.8114957 L29.9093449,7.26347399 C29.0736623,6.41192863 28.2096639,5.62116558 27.9895134,5.50597568 C27.6704804,5.3390467 26.6856587,5.29649908 23.1456079,5.29649908 L18.7021244,5.29649908 L18.2461088,5.68031714 M35.9217533,5.65422523 C35.4383116,6.07006519 35.4844172,4.73567107 35.5428275,16.6071978 L35.5798899,24.1376815 L35.9438425,24.5014859 L36.3076469,24.8654385 L41.0145698,24.8654385 L45.7213445,24.8654385 L47.4700961,23.1166869 L49.2188477,21.3679353 L49.2188477,15.0809688 L49.2188477,8.79400226 L47.4700961,7.04525067 L45.7213445,5.29649908 L41.029543,5.29649908 L36.3377415,5.29649908 L35.9217533,5.65422523 M4.63087092,7.11255596 C3.69689881,8.02992412 2.27281372,9.49551909 1.46633621,10.3695984 L7.10542736e-15,11.9588335 L7.10542736e-15,18.0529273 L7.10542736e-15,24.1470212 L0.433333409,24.5803546 C0.968069504,25.1150907 1.51852005,25.1394037 2.00804003,24.6497354 L2.37199266,24.2859311 L2.37199266,20.3504987 L2.37199266,16.4152147 L6.79724146,16.4152147 L11.2226385,16.4152147 L11.3188525,17.772291 C11.3719258,18.5185792 11.4152147,20.2738537 11.4152147,21.6728846 C11.4152147,23.9969927 11.4404171,24.2435317 11.7066733,24.5293568 C12.0936046,24.9447486 12.4793499,25.0526777 12.9445569,24.875816 C13.8041078,24.549074 13.800698,24.5778344 13.7548889,17.9175755 L13.7130826,11.8218509 L10.5270517,8.63329975 C7.62210191,5.72612625 7.29624942,5.44474862 6.83504509,5.44474862 C6.38999997,5.44474862 6.12492979,5.64533025 4.63087092,7.11255596 M73.6429596,7.62238613 C73.4065015,7.68420619 73.3835229,7.95906084 73.3835229,10.7184296 L73.3835229,13.7467229 L76.8527104,13.7467229 L80.3218979,13.7467229 L81.3743214,12.6198782 C82.4225939,11.4974809 82.4267449,11.4896237 82.4267449,10.6520138 L82.4267449,9.81114236 L81.2745494,8.6657664 L80.122354,7.5202422 L77.0123751,7.53743915 C75.3018719,7.54692712 73.7855756,7.5851755 73.6429596,7.62238613 M92.2445707,8.59860936 L91.1734678,9.67682827 L91.1734678,14.8658587 L91.1734678,20.0547409 L92.2660669,21.1400758 L93.358666,22.2254107 L95.7128688,22.205397 L98.0670715,22.1855316 L99.1374332,21.1245096 L100.207795,20.0636359 L100.120476,14.7926234 L100.033305,9.52161101 L99.0541169,8.5209266 L98.0750769,7.5202422 L95.6953753,7.5202422 L93.3156737,7.5202422 L92.2445707,8.59860936 M37.9518825,15.0809688 L37.9518825,22.4934459 L41.3210016,22.4934459 L44.6902689,22.4934459 L45.7684878,21.4223429 L46.846855,20.35124 L46.846855,15.088233 L46.846855,9.82507782 L45.7757521,8.7468589 L44.7046491,7.66849174 L41.3282658,7.66849174 L37.9518825,7.66849174 L37.9518825,15.0809688 M20.1619376,12.3100366 L20.1619376,16.803332 L23.6087394,16.7432909 L27.0555413,16.6832498 L28.0562257,15.7008001 L29.0569101,14.7183504 L29.0569101,12.2642275 L29.0569101,9.81010461 L28.0525194,8.81342295 L27.0481288,7.81674128 L23.6050332,7.81674128 L20.1619376,7.81674128 L20.1619376,12.3100366 M4.54162469,10.6328896 C2.47902883,12.7464833 2.37199266,12.8853931 2.37199266,13.4496308 L2.37199266,14.043222 L3.90474466,14.043222 C4.7478398,14.043222 6.74920861,13.9993401 8.3522309,13.9456738 L11.2669651,13.8479774 L11.2669651,13.313686 C11.2669651,12.82298 11.0886209,12.601347 9.0785054,10.5944929 C7.87486738,9.3929304 6.84987005,8.40973945 6.8006512,8.40973945 C6.7515806,8.40973945 5.7350335,9.41012735 4.54162469,10.6328896 M73.5317724,19.231956 L73.5317724,22.3451963 L76.9081557,22.3451963 L80.284539,22.3451963 L81.3556419,21.2668292 L82.4267449,20.1886102 L82.4267449,19.231956 L82.4267449,18.2753017 L81.3556419,17.1970827 L80.284539,16.1187156 L76.9081557,16.1187156 L73.5317724,16.1187156 L73.5317724,19.231956" id="Shape"></path>
            </g>
        </g>
    </g>
</svg>