<?xml version="1.0" encoding="UTF-8"?>
<svg width="164.240946px" height="30px" viewBox="0 0 164.240946 30" version="1.1" xmlns="http://www.w3.org/2000/svg" xmlns:xlink="http://www.w3.org/1999/xlink">
    <title>bk 0010</title>
    <g id="Page-1" stroke="none" stroke-width="1" fill="none" fill-rule="evenodd">
        <g id="System" transform="translate(-17.879527, 0.000000)" fill="#000000">
            <g id="bk-0010" transform="translate(17.879527, 0.000000)">
                <line x1="82.1204732" y1="30" x2="82.1204732" y2="0" id="Path" stroke="#979797" fill-rule="nonzero"></line>
                <path d="M2.44956313,2.18456998 C2.19959691,2.41631124 1.9951095,2.76208391 1.9951095,2.9528608 C1.9951095,3.29127661 2.04593875,3.29712866 3.99634408,3.18694288 C6.04941111,3.07090505 6.5095496,3.17022273 6.5095496,3.7290101 C6.5095496,3.89303476 6.25623935,3.9650986 5.6317418,3.97914352 C4.15852952,4.01241662 3.75072509,4.15336747 3.75072509,4.6298917 C3.75072509,5.02599202 3.8077408,5.05023624 4.92113549,5.12982414 C5.95627989,5.2037272 6.09739794,5.25455645 6.14237514,5.56939685 C6.21393738,6.07183731 5.41387827,6.18954716 3.50477171,5.95747149 C2.33202049,5.81484863 1.92187525,5.81852706 1.73577999,5.97285403 C1.39519057,6.25559174 1.43414851,6.5662521 1.85950909,6.96251962 C2.18956482,7.27000316 2.44237347,7.30344345 4.44176883,7.30344345 C7.35191069,7.30344345 7.41461124,7.25679424 7.70152899,4.8768483 C7.92424137,3.02860308 7.84147663,2.38554616 7.34622583,2.12053181 C7.16497942,2.02355495 6.09121149,1.90350428 4.96026064,1.85384544 C2.93662106,1.76489425 2.89682711,1.7700775 2.44956313,2.18456998 M10.2287794,2.16199778 C10.1366514,2.2770324 9.96777792,3.14765053 9.85357931,4.09685337 C9.67617853,5.57040006 9.58522093,5.8788868 9.23158978,6.20676891 C8.63835891,6.7568618 8.77696895,7.20663379 9.5599735,7.27167517 C10.5294077,7.35209908 10.9649676,6.81136948 11.0982272,5.36223421 C11.2918465,3.2559971 11.3164251,3.21352792 12.3671192,3.16370188 C13.7333226,3.0988277 13.7359978,3.10350934 13.5764876,5.27880067 C13.5007453,6.31043383 13.4723211,7.18807443 13.5132854,7.22903879 C13.5542498,7.27000316 13.8304666,7.30344345 14.1272493,7.30344345 C14.4863981,7.30344345 14.7044288,7.20563058 14.7796695,7.01084085 C14.8948713,6.71288781 15.1963356,3.48422712 15.2013516,2.49640075 L15.2040268,1.95299592 L12.8000039,1.95299592 C11.0776614,1.95299592 10.3486629,2.01218525 10.2287794,2.16199778 M20.2067079,1.95602206 C21.7398937,1.96200003 21.8904328,2.01382011 22.1835184,2.32919926 C22.648673,2.82963331 22.5307959,4.09702057 21.9619765,4.71081722 C21.5951364,5.10675034 21.476925,5.12982414 19.8219647,5.12982414 L19.5898197,5.13043792 C18.40168,5.13708323 18.0009241,5.1992521 17.8075212,5.39249768 C17.2005798,5.99960627 17.7802673,6.21930902 19.5935674,6.06916209 C22.1328564,5.85882262 21.9705038,5.8454465 22.0308635,6.27214469 C22.0612942,6.4866642 21.9556228,6.80652064 21.7959454,6.982751 C21.5656511,7.2373024 21.3263286,7.29205718 19.8103348,7.29794728 L19.1491459,7.298093 C17.4548932,7.29424737 16.7101778,7.2303764 16.4998384,7.07069898 C16.1537313,6.80802545 16.1254742,6.07618455 16.3884822,4.18496855 C16.5698958,2.88046256 16.7651871,2.3113087 17.1101238,2.08090506 C17.2112807,2.01335566 18.3154793,1.95700876 19.5639728,1.95550394 Z M18.2457563,3.24262098 C17.9947868,3.2906078 17.8784146,3.4143369 17.9130253,3.59608492 C17.9566649,3.82398054 18.2091391,3.88484188 19.2763862,3.92497024 C20.6793739,3.97747151 21.2264571,3.78100976 20.8704852,3.35197075 C20.6858947,3.12959277 19.1687085,3.06639061 18.2457563,3.24262098 Z M23.8986713,2.37066523 C23.685991,2.9299542 23.3343663,6.73211598 23.4641146,7.07003018 C23.5303264,7.24258211 23.7361514,7.30779069 24.1019883,7.27234398 C24.5972391,7.22418995 24.654422,7.15714215 24.7878488,6.46743603 C24.9410053,5.6760714 25.304167,5.12982414 25.6771935,5.12982414 C25.7994178,5.12982414 26.2836333,5.61888849 26.7533022,6.2166338 C27.5443325,7.22318674 27.6556887,7.30344345 28.260958,7.30344345 C29.1598332,7.30344345 29.1170296,7.01702731 27.9949405,5.52625886 C27.489156,4.85427609 27.0753323,4.23278817 27.0753323,4.1451746 C27.0753323,4.05772822 27.5643966,3.62701719 28.162142,3.18811329 C29.4572847,2.23723845 29.539715,1.95299592 28.5206219,1.95299592 C27.9578217,1.95299592 27.625258,2.07789543 27.0576089,2.5022528 C26.0433647,3.26051154 25.4489635,3.62501077 25.2269199,3.62501077 C25.1060332,3.62501077 25.0590496,3.34143705 25.0956667,2.83080372 C25.1520136,2.04345192 25.1478336,2.03609506 24.6089432,1.9842626 C24.1529847,1.94028861 24.0386189,2.00248756 23.8986713,2.37066523 M31.3807706,2.13357352 C31.2199227,2.22737356 31.088168,2.48469664 31.088168,2.7054026 C31.088168,3.07207546 31.1752799,3.11671826 32.0950553,3.22071758 C32.6489938,3.28341814 33.1283605,3.38123101 33.1604632,3.43807951 C33.1925658,3.49492802 33.1581223,4.36755257 33.0838849,5.37744954 C32.9451076,7.2643183 32.9944321,7.46546169 33.5961902,7.46546169 C34.1875819,7.46546169 34.3094718,7.16867906 34.4960686,5.27361742 L34.6829999,3.37420855 L35.2682051,3.33073616 C36.6591542,3.22740564 36.8992556,3.13394001 36.9898788,2.6599238 C37.0387016,2.40443993 36.9918852,2.15062808 36.8832042,2.08140666 C36.5869232,1.89297059 31.7146719,1.9391182 31.3807706,2.13357352 M41.2103914,2.07803883 C42.2427264,2.08439044 43.2460106,2.1239162 43.5578875,2.19744449 C44.1619865,2.33990016 44.2614714,2.87812174 44.060328,4.91814706 C43.8061817,7.49656117 43.7451532,7.55424568 41.2764233,7.55424568 L40.8782284,7.55463691 C39.4728361,7.55839763 39.4163268,7.5969155 39.2300443,7.97224939 C39.0738781,8.28692259 38.8685547,8.40312762 38.3993873,8.44208557 C38.0566243,8.47067702 37.7762274,8.42218859 37.7762274,8.33440781 C37.7762274,8.24662703 37.8476224,7.43335901 37.9349016,6.52695975 C37.9610853,6.25503998 37.9895113,5.94717021 38.0178183,5.63077116 L38.0735743,4.99472534 C38.1187396,4.46875127 38.1592024,3.96986384 38.1840318,3.62501077 C38.2395427,2.85471353 38.3621014,2.30645986 38.5015474,2.20379815 C38.6097902,2.12404881 39.6297896,2.08159116 40.7342782,2.07745986 Z M39.8291272,3.4930888 C39.6052444,3.77298409 39.3934001,5.5297701 39.5313414,5.96415955 C39.6263118,6.26378462 39.782478,6.30023454 40.9684381,6.30023454 C42.2573944,6.30023454 42.3042108,6.28618962 42.4692387,5.85246896 C42.5628715,5.60601397 42.6173792,4.94774172 42.5904597,4.38945597 L42.5414697,3.37420855 L41.2715744,3.32588732 C40.3860754,3.29211262 39.9495123,3.34277467 39.8291272,3.4930888 Z M48.74081,2.1235314 C49.8648184,2.13087805 50.8230576,2.18453064 50.9182641,2.24810654 C51.405322,2.57331343 51.4815659,3.08929721 51.3100172,4.89908609 C51.0578774,7.55976333 50.8284769,7.72679761 47.6732177,7.54672161 C45.0053508,7.39456826 45.0322702,7.42600214 45.2904293,4.76315128 C45.4547884,3.06889863 45.5178233,2.83347894 45.8980395,2.49640075 C46.2452836,2.18844236 46.4287344,2.13128835 47.8665281,2.12360119 Z M48.1156552,3.48576947 L47.8049539,3.48561251 C47.3112196,3.49117452 46.9510028,3.52514372 46.9194734,3.57685675 C46.8753322,3.64942219 46.7842074,4.2249297 46.7169924,4.85594811 C46.6218547,5.75047606 46.6457646,6.03522019 46.8255062,6.1490844 C47.1886678,6.37915364 49.4126147,6.33300603 49.6109157,6.09123268 C49.7052173,5.97636526 49.8083807,5.35554615 49.8403161,4.71182043 L49.8983351,3.54141003 L48.4490326,3.493256 C48.3351684,3.48948203 48.2235221,3.48701495 48.1156552,3.48576947 Z M52.8718463,2.32067199 C52.6760533,2.56461895 52.3227566,5.32394507 52.3227566,6.61005889 C52.3227566,7.29591939 52.3822803,7.4669665 52.6508059,7.55223926 C53.1840114,7.72144717 53.6357899,7.36045916 53.7498213,6.67443146 C53.9285597,5.59848991 53.8763928,5.6314286 55.4024408,5.6314286 L56.8204766,5.6314286 L56.870637,6.59283714 C56.9174534,7.49104352 56.9497233,7.55758971 57.3595341,7.60507493 C58.2595797,7.70940866 58.4528647,7.10112965 58.5449927,3.875813 L58.5928123,2.20379815 L58.1229761,2.14995927 C57.4710575,2.07522021 57.2284482,2.33572012 57.1291305,3.21787516 C57.0819797,3.63487566 56.9972085,4.0222815 56.9405272,4.07896281 C56.8004124,4.21907765 54.8367981,4.32107056 54.3793349,4.21205519 C54.0611504,4.13631292 54.0046363,3.99469326 53.9613312,3.16403628 C53.9146819,2.27101315 53.8809072,2.20028692 53.4787877,2.1534705 C53.2410272,2.12588226 52.9679871,2.20112292 52.8718463,2.32067199 M59.9453051,2.49640075 C59.7692419,2.76843756 59.687146,3.52101145 59.6488569,5.21342489 L59.5960212,7.55424568 L60.1511301,7.60758295 C60.6545738,7.65590418 60.858058,7.5117765 62.3347815,6.06096921 C63.2303127,5.1809878 64.0203397,4.4610182 64.0902299,4.4610182 C64.1601202,4.4610182 64.193226,5.15707798 64.1637986,6.00763194 L64.1104613,7.55424568 L64.5597317,7.60607814 C65.3183248,7.69369172 65.4938864,7.18339279 65.627146,4.50281857 L65.745859,2.12019741 L65.1146734,2.12019741 C64.5448508,2.12019741 64.3340097,2.26683311 62.9489126,3.62501077 C62.1050467,4.45265813 61.3395983,5.12982414 61.2479719,5.12982414 C61.1444742,5.12982414 61.108693,4.56067029 61.1533358,3.62501077 L61.2253997,2.12019741 L60.7070751,2.12019741 C60.3534439,2.12019741 60.1116706,2.23957927 59.9453051,2.49640075 M67.2222482,2.34876184 C67.0045518,2.61110097 66.5999242,6.96335563 66.7555888,7.36898643 C66.8791507,7.69084929 67.591429,7.7256272 67.8432345,7.42232371 C67.9417161,7.30361065 68.0958759,6.87891888 68.1858303,6.47830412 C68.4882978,5.13249937 69.0509308,5.15273075 70.1735216,6.55003356 C70.6162711,7.10112965 71.1133611,7.57815549 71.2780546,7.60975657 C71.6820134,7.68767247 72.3869348,7.5000724 72.3869348,7.31481315 C72.3869348,7.23255002 71.9254587,6.5428439 71.3614881,5.78224434 L70.3362086,4.39932085 L70.9163978,3.8868483 C71.2355854,3.6049466 71.7401995,3.16921952 72.0378181,2.9185845 C72.6853895,2.37334045 72.5902518,2.12019741 71.7380259,2.12019741 C71.2563184,2.12019741 70.824437,2.31615755 69.8952983,2.95620483 C69.22783,3.41600892 68.6125285,3.79221226 68.5279246,3.79221226 C68.4433206,3.79221226 68.3740992,3.41600892 68.3740992,2.95620483 C68.3740992,2.14661524 68.3588839,2.12019741 67.8928933,2.12019741 C67.6283806,2.12019741 67.3264147,2.22302632 67.2222482,2.34876184 M77.6678122,2.12110888 C79.9874021,2.13270708 80.0807112,2.2788955 80.0696759,3.84354312 C80.0578046,5.49766741 79.8457931,7.26833114 79.634116,7.48000822 C79.4052172,7.70890705 76.0347696,7.85704757 75.0621586,7.68115161 C74.4734422,7.57464426 74.2614307,7.4442271 74.0875411,7.08123268 C73.799453,6.48014334 73.9745129,5.41306346 74.4515388,4.86196736 C74.7851057,4.47640074 74.9395999,4.44195723 76.566972,4.38995757 C77.5325606,4.35902529 78.3789345,4.32474899 78.4479887,4.31388089 C78.5170429,4.3028456 78.5733898,4.09434534 78.5733898,3.85056558 L78.5733898,3.40731444 L76.3997705,3.5039569 L74.2261512,3.60059936 L74.2261512,3.20700706 C74.2261512,2.98078345 74.413584,2.66577585 74.6667271,2.46680608 C75.0254833,2.18453363 75.2868079,2.12876545 76.7646013,2.12120103 Z M75.4686254,5.98455814 C75.2743373,6.29872973 75.7448423,6.44419502 76.9684227,6.44804065 C78.0945247,6.45155188 78.6715371,6.25993898 78.478085,5.9469378 C78.3423173,5.72723505 75.6063994,5.76151135 75.4686254,5.98455814 Z" id="Combined-Shape"></path>
                <path d="M32.7815091,10.377536 C26.1233287,14.5185395 25.5207475,14.8213331 25.7896545,13.8910899 C25.8658995,13.6279218 26.0134704,12.5634983 26.1178631,11.525583 L26.307519,9.63804186 L24.5631763,9.81840629 C23.5331861,9.924712 22.6974976,10.1619186 22.522872,10.3974854 C22.2113334,10.8172427 21.9202908,12.6176076 21.0430638,19.5493408 C20.6254928,22.8489168 20.5820414,23.8196054 20.8438431,23.9860326 C21.3873959,24.3311845 23.954583,24.240729 24.2571034,23.8657896 C24.4085002,23.6780466 24.6760408,22.6600807 24.8514862,21.6041289 C25.0269316,20.5481771 25.256213,19.5561728 25.3611523,19.3998569 C25.6767901,18.9289964 28.0832889,17.3743097 28.4702526,17.3909797 C28.6686534,17.3997247 29.8790081,18.906041 31.1595956,20.7386529 L33.488483,24.0707492 L35.6044858,24.1505468 C38.7707014,24.2702432 38.7597702,24.2087553 34.5422485,18.2840569 C33.4300012,16.7219916 32.5202539,15.2626794 32.5202539,15.0415963 C32.5202539,14.82024 33.9650824,13.702527 35.7312874,12.5574862 C40.207878,9.65525847 40.2690926,9.45029888 36.6596177,9.45029888 C34.4209125,9.45029888 34.1796067,9.50796084 32.7815091,10.377536 M60.7775011,9.60027479 L61.0779559,9.60169569 C67.1797394,9.63776858 67.9293449,9.8156735 68.7620274,11.4255627 C69.2725134,12.4129213 69.1836975,14.7994707 68.439011,20.1046446 C68.1400433,22.2348579 67.1196179,23.5739272 65.3413885,24.1694031 C64.16738,24.5626522 53.4116477,24.5905267 52.3054125,24.2032897 C51.869805,24.0505265 51.2262319,23.505334 50.8753411,22.9912954 C50.2429725,22.0651513 50.2399664,22.0236129 50.5452196,18.4179639 C50.9939444,13.1122434 51.2491874,12.0554718 52.3464044,10.9582549 C52.9492588,10.3554004 53.6802814,9.95176666 54.4421844,9.80091641 C54.9999478,9.69054795 57.3172275,9.60850582 59.8820958,9.60015318 L60.7775011,9.60027479 Z M58.7578134,13.2762111 C55.7170331,13.4084784 55.607448,13.4349865 55.2833386,14.1129928 C54.9310814,14.8497542 54.3837026,19.4681768 54.5831966,20.0207478 C54.6474173,20.1981062 55.0770126,20.4749382 55.5383083,20.6356266 C56.5948066,21.0040073 62.9906388,21.0206773 63.6702847,20.6569424 C63.9487565,20.5077318 64.301287,19.9849482 64.4532303,19.4955047 C64.8615098,18.1813039 65.0995362,14.2952702 64.7997487,13.8451789 C64.4395664,13.3046322 62.4367013,13.1160694 58.7578134,13.2762111 Z M78.2577187,9.75383373 C79.0429331,9.75677649 79.9993395,9.76738669 81.1768393,9.78233341 C88.039706,9.86896299 88.4168316,9.96133144 89.2754756,11.7619697 C89.6780162,12.6064032 89.6763765,13.0283467 89.2530667,16.9925383 C88.7384815,21.8131877 88.3761129,22.7926212 86.685333,23.9341095 L85.673106,24.6173081 L79.399703,24.5268526 C72.6641845,24.4298384 72.0381013,24.3112351 71.1570484,22.9667002 C70.6564005,22.2026109 70.758607,19.5102618 71.4702267,14.7122946 C71.8927167,11.8647228 72.3187593,11.0921618 73.9220898,10.2668579 C74.6741995,9.87976032 75.1227347,9.7603924 77.5959002,9.7533454 Z M81.5078082,13.2767911 L80.5026589,13.2761959 C77.8258867,13.2761959 76.4802587,13.3822435 76.1635278,13.6178104 C75.2966854,14.2627499 74.747667,19.8679846 75.4797827,20.6001002 C75.706058,20.8263756 77.0918581,20.9280356 79.9465352,20.9280356 L80.9506156,20.928283 C85.0578671,20.9240372 84.9444039,20.7638282 85.2937941,17.0600383 C85.6304084,13.4918757 85.7069224,13.287948 81.5078082,13.2767911 Z M93.9567525,10.2799753 C92.500173,11.0492569 92.0951729,11.773994 92.0951729,13.6104319 C92.0951729,14.4786407 92.1487357,15.1891672 92.2140495,15.1891672 C92.2793633,15.1891672 92.6482905,15.0691975 93.0338878,14.9227198 C93.7179063,14.6625577 93.7348496,14.6841468 93.7340297,15.810878 C93.7337565,16.4459794 93.6181593,18.0107775 93.4774203,19.2883589 C93.3366814,20.5659403 93.151398,22.3184814 93.0658615,23.182591 L92.9103655,24.7539478 L94.5328256,24.7539478 C95.560083,24.7539478 96.2957513,24.6134822 96.5384234,24.37081 C97.0510956,23.8581378 98.6178067,10.6016252 98.2382216,9.98729299 C97.9444461,9.51206004 95.0340201,9.71100747 93.9567525,10.2799753 M103.457586,10.1293983 C105.086604,9.54895276 115.04846,9.56726248 116.28259,10.1529003 C118.031032,10.9825767 118.197732,11.3791052 118.154008,14.6062622 C118.101811,18.4715266 117.633957,21.6197058 116.946932,22.7314066 C116.640313,23.2274088 115.981436,23.8854657 115.482974,24.1937249 C114.70898,24.6718245 114.231388,24.7442732 109.7982,24.7529155 L109.183294,24.7537197 C108.970263,24.7538818 108.749045,24.7539478 108.519268,24.7539478 L108.197336,24.7539361 C108.091325,24.7539245 107.986606,24.7539017 107.883166,24.7538564 L107.277751,24.7532259 C99.505323,24.7390313 99.5265893,24.4457314 99.9986877,18.3854436 L100.042924,17.8351317 C100.217251,15.7283003 100.441827,13.693793 100.56301,13.1565147 C100.855146,11.8608969 102.021775,10.6409774 103.457586,10.1293983 Z M104.849944,13.9512113 C104.23206,14.5690962 103.744529,20.1297863 104.265126,20.6222359 C104.545784,20.8878635 107.878974,21.0600295 111.149309,20.9777724 C113.006516,20.9310416 113.146435,20.883491 113.505524,20.1765171 C114.044158,19.1159196 114.373187,14.4600577 113.945777,13.9451992 C113.462619,13.363114 105.432576,13.3683063 104.849944,13.9512113 Z M17.8998036,10.1334975 L17.9801478,10.9533358 C18.0244191,11.4042469 17.8804008,12.0191257 17.6601376,12.3197331 C17.6446889,12.3408146 17.6293085,12.3610858 17.6136474,12.3805776 L17.5654722,12.436746 C17.2174615,12.8139926 16.5916495,12.8612278 12.4548998,12.8658492 L11.1874691,12.8663711 C5.41920791,12.8693352 5.07185284,12.9614975 5.23740056,14.1329422 L5.32894917,14.7792481 L10.9311778,14.9158878 C14.7674746,15.0093493 16.7271615,15.1632057 17.1482852,15.4036916 C18.1780021,15.991789 18.6567877,16.9966375 18.622901,18.4974882 C18.5756237,20.6009201 18.1449353,21.8088152 17.0704005,22.8505565 L16.0939731,23.7974697 L8.04698653,23.8810932 L0,23.9644435 L0.0054655889,22.9246152 C0.00847166279,22.352368 0.132540531,21.0851712 0.281204549,20.1081972 C0.429868567,19.1312232 0.73840106,16.8561718 0.966589396,15.0525275 C1.19505101,13.2488832 1.4478345,11.5594696 1.52817866,11.2982145 C1.61180217,11.0263014 2.22230845,10.6530017 2.95524392,10.4259065 C3.79448509,10.1654712 4.65968781,10.093872 5.4655889,10.2176676 C5.87140887,10.2801392 6.76421282,10.3169336 7.80311196,10.322561 L8.33315794,10.322752 C8.87222214,10.3202949 9.43360644,10.3098174 9.97469974,10.2906332 C11.7783441,10.2266858 14.299347,10.1651979 15.5769284,10.1539935 L17.8998036,10.1334975 Z M8.02594402,18.4083991 L4.71079107,18.4849173 L4.53835174,19.3468407 C4.4405177,19.8368307 4.48750607,20.2836426 4.6479368,20.3828431 C4.82868255,20.4945699 6.73778408,20.5295597 8.78784414,20.509508 L9.40550352,20.5018629 C11.5710002,20.4694777 13.7168931,20.3788011 14.0055715,20.2549483 C14.55459,20.0193814 14.6570697,18.783885 14.1422113,18.6081664 C13.5314317,18.3996541 11.408597,18.3302412 8.02594402,18.4083991 Z M149.047944,10.0166175 C153.684883,10.032266 154.189364,10.2482445 155.198676,11.5313219 C155.899365,12.4222128 155.928059,13.6987011 155.357178,18.5778323 C154.649384,24.6285125 154.323089,24.8536948 146.080434,24.9747576 C141.56676,25.0409595 140.283753,24.9895167 139.347145,24.6711782 L139.201717,24.6186745 C138.567709,24.3765489 137.90446,24.004069 137.727375,23.790911 C137.078882,23.0093318 136.957273,21.4480863 137.337678,18.7868911 C137.545644,17.3341376 137.71945,15.5567281 137.724095,14.8366367 C137.737759,12.7676381 138.979814,10.8549552 140.738914,10.1941655 C140.96437,10.1094489 143.829705,10.0301979 147.106325,10.0184468 C147.345596,10.0175764 147.576687,10.0168657 147.799932,10.0163773 Z M146.05174,13.5524729 C144.027286,13.5505837 142.872133,13.6645412 142.552396,13.8984684 C141.913742,14.365503 141.573236,15.9674671 141.565311,18.5436724 C141.559026,20.5755051 141.58936,20.6798978 142.259714,20.9348676 C142.629245,21.0752421 144.434134,21.1912715 146.34068,21.2006969 L146.589827,21.201315 C149.701387,21.201315 150.279919,21.1329951 150.646114,20.723076 C151.226286,20.0732175 151.840072,15.1973656 151.436438,14.4433876 C151.064778,13.7487113 149.901701,13.5563225 146.05174,13.5524729 Z M161.098233,10.2507344 C159.003546,10.7563013 158.311602,11.5728603 158.18808,13.6861303 C158.086967,15.4146228 158.201197,15.5406046 159.416471,15.0435093 C159.897989,14.8467481 159.91056,14.9915862 159.69221,18.2242087 C159.566228,20.0871547 159.462109,22.3490887 159.460742,23.2509108 L159.458556,24.8905875 L160.986188,24.971205 C162.015632,25.0255876 162.613294,24.932126 162.818527,24.6848081 C163.24293,24.173229 164.240946,15.0582664 164.240946,11.6922834 L164.240946,9.99685777 L163.079509,10.0247323 C162.440855,10.0403092 161.549144,10.1419692 161.098233,10.2507344 M120.975345,15.8622545 C120.418128,16.4194713 120.095658,18.4305347 120.498745,18.8336219 C120.71081,19.0456867 122.986681,19.1787738 127.574223,19.2470937 C135.330441,19.3624176 135.109358,19.428278 135.126574,17.004016 L135.136685,15.5990864 L128.260428,15.5261208 C122.450507,15.4643596 121.321043,15.516556 120.975345,15.8622545" id="Combined-Shape"></path>
            </g>
        </g>
    </g>
</svg>