<?xml version="1.0" encoding="UTF-8"?>
<svg width="132px" height="30px" viewBox="0 0 132 30" version="1.1" xmlns="http://www.w3.org/2000/svg" xmlns:xlink="http://www.w3.org/1999/xlink">
    <title>capcom cps changer</title>
    <g id="Page-1" stroke="none" stroke-width="1" fill="none" fill-rule="evenodd">
        <g id="System" transform="translate(-34, 0)" fill="#000000">
            <g id="capcom-cps-changer" transform="translate(34.2581, 0)">
                <line x1="65.7419418" y1="30" x2="65.7419418" y2="0" id="Path" stroke="#979797" fill-rule="nonzero"></line>
                <path d="M6.03667908,4.13247624 C4.81321051,4.46935702 4.02612039,4.95414356 2.9515455,6.03196448 C2.16374973,6.82230062 1.75221041,7.37920533 1.37073209,8.17137618 C-0.166189444,11.3629229 -0.443936145,16.3431696 0.706426335,20.0845645 C1.83618362,23.7589219 4.48522101,25.9415198 7.8149354,25.9415198 C11.2815473,25.9415198 13.8849992,23.726885 14.9458844,19.8756899 C15.4408324,18.0788042 15.527346,18.1792898 13.4861617,18.1792898 L11.7358494,18.1792898 L11.4386266,19.1578953 C10.7436953,21.4454951 8.94074101,22.5561996 6.85975772,21.9784074 C6.11712401,21.7720733 5.13357891,20.8273393 4.63651393,19.8428063 C3.9480747,18.4787708 3.75049066,17.3845786 3.75049066,14.9332664 C3.75049066,12.4767323 3.94793357,11.3880443 4.64244145,10.0120126 C5.12567555,9.05500022 6.14774954,8.08599166 6.89250022,7.87909294 C9.06846497,7.27476806 10.9470658,8.39648085 11.5578827,10.6648867 L11.7191959,11.2638486 L13.4975934,11.2638486 L15.2759908,11.2638486 L15.1932878,10.5659536 C15.0726204,9.54754899 14.4801506,7.95262243 13.8953018,7.0716799 C12.8848006,5.5497183 11.5570359,4.58296784 9.8551317,4.13007701 C8.93015615,3.88380262 6.93469852,3.8850728 6.03667908,4.13247624 M37.7119403,4.1430611 C36.1479215,4.56419736 34.8054792,5.57653328 34.1057494,6.86238195 C33.0634936,8.77725352 33.0376666,11.9716228 34.0504259,13.6997775 C34.8576978,15.0775027 35.7599512,15.5857171 39.3720696,16.6979741 C43.2756245,17.8999907 43.6040374,18.1298938 43.6040374,19.6593354 C43.6040374,21.3170654 42.6051089,22.1452248 40.4830564,22.2466983 C39.1307348,22.3113365 38.4335454,22.1512935 37.7088354,21.6101955 C37.0693688,21.1324655 36.7967028,20.6688487 36.6128085,19.7465546 L36.4550236,18.9555128 L34.7370304,18.9158549 L33.0191783,18.876197 L33.0215776,19.3392493 C33.0229889,19.5939915 33.1159945,20.2364219 33.2284763,20.766935 C33.9668761,24.2521763 36.6351073,26.1005749 40.6402768,25.9014385 C43.0866495,25.7797831 44.8670228,24.9020866 45.9675658,23.2749821 C46.8303024,21.9995772 47.0573829,21.1304897 47.0598722,19.0966443 C47.0616169,17.4897216 47.0393181,17.3560701 46.6224158,16.4857124 C45.7464128,14.6566487 44.8900272,14.137285 40.6086634,12.8384522 C39.0776694,12.3739886 37.6374229,11.8604113 37.4080843,11.6971222 C36.8912609,11.3290513 36.635813,10.5923451 36.7203507,9.71295505 C36.8024892,8.85812184 37.2257425,8.26579313 38.0340023,7.87443561 C38.5679026,7.61602391 38.8606092,7.57382561 39.8324404,7.61574165 C41.6372294,7.69322282 42.5209946,8.3105318 42.9155981,9.76912537 C43.0014061,10.0866711 43.0942706,10.4259512 43.1217912,10.5229085 C43.1582031,10.6514792 43.6321225,10.6993228 44.8698454,10.6993228 L46.5677979,10.6993228 L46.5653987,10.3112113 C46.5604591,9.53781092 46.1571054,8.03490207 45.7242552,7.17752849 C44.9374473,5.61887271 43.6432719,4.61232318 41.8126558,4.13558113 C40.8072354,3.87364115 38.6980258,3.87759283 37.7119403,4.1430611 M58.9108726,4.14108526 C61.4990823,4.81527021 63.4025222,6.9038746 64.1242685,9.86156648 C64.4811857,11.3241331 64.6052009,11.2687899 62.7145254,11.2640927 L60.7124156,11.2638486 L60.614047,10.7395452 C60.3952932,9.57337605 59.6254211,8.52829763 58.6510496,8.07456001 C57.217154,7.40700823 55.3429283,7.77409114 54.3813997,8.910905 C53.3350511,10.1479222 52.7775819,12.247676 52.7775819,14.9516135 C52.7775819,17.0699966 53.0588569,18.5161706 53.7336063,19.8676454 C54.5623302,21.5274924 55.7649114,22.2536138 57.4062702,22.0853851 C58.9069209,21.9316929 59.8736714,21.0228064 60.4918271,19.1847103 L60.806268,18.2498556 L62.5783145,18.2103388 C63.8094042,18.1829593 64.3503611,18.2188066 64.3503611,18.3280424 C64.3503611,18.7035932 63.7474475,20.7985485 63.4378051,21.4984194 C62.1822997,24.3374197 59.7939321,25.9415198 56.8225505,25.9415198 C54.3217011,25.9415198 51.9882337,24.5350037 50.6549648,22.223835 C50.0986246,21.2596249 49.4561942,19.2366467 49.2439325,17.7805935 C48.9661858,15.87546 49.1341323,12.2152157 49.5770028,10.5265779 C50.4602034,7.15833461 52.4409834,4.85012968 55.0505039,4.14842409 C56.0607229,3.87660491 57.8825888,3.87321776 58.9108726,4.14108526 Z M103.729119,11.9498701 C104.379218,11.7925998 105.579401,11.7714915 106.22651,11.9060228 C107.843332,12.2421247 109.257859,13.6261214 109.693342,15.297843 C109.769621,15.5907318 109.83204,15.9441369 109.83204,16.0831074 L109.83204,16.3358632 L107.574179,16.3358632 L107.481411,15.9912456 C107.375688,15.5986134 106.901432,14.8934337 106.568591,14.6339739 C106.103393,14.2713282 105.77164,14.1616195 105.140113,14.1616195 C103.617508,14.1616195 102.575411,15.2482884 102.167469,17.2613663 C101.963181,18.2697624 102.03022,20.3843049 102.292397,21.2020018 C102.7874,22.7455336 103.750409,23.5230069 105.170734,23.5257247 C105.850366,23.526993 106.424819,23.2685298 106.8921,22.751241 C107.262718,22.3409431 107.705177,21.4534893 107.798307,20.9334827 L107.859186,20.5937571 L105.302366,20.5937571 L105.302366,18.3289199 L109.922634,18.3289199 L109.922634,25.5763989 L109.047159,25.5767824 C108.298376,25.5813213 108.359628,25.6073819 108.23986,24.5572222 C108.207246,24.270675 108.154611,24.0373061 108.122994,24.0384839 C108.091377,24.0396616 107.943166,24.2073501 107.793687,24.4112761 C106.409056,26.2996067 103.594497,26.4548839 101.724738,24.746019 C100.758378,23.8628231 100.011525,22.280789 99.7708181,20.606712 C99.5999588,19.4190313 99.7043225,17.3099244 99.9875177,16.2249768 C100.573839,13.9790736 101.979034,12.3734852 103.729119,11.9498701 Z M73.5040518,12.0725337 L74.6591188,12.0978999 L75.8141857,12.123266 L75.8141857,25.5311021 L74.6591188,25.5564683 L73.5040518,25.5818345 L73.5040518,19.5972287 L69.2461579,19.5972287 L69.2461579,25.5763989 L66.8907273,25.5763989 L66.890986,18.2807947 C66.8938975,14.8803779 66.9210106,12.168447 66.9537803,12.1356773 C66.9884776,12.1010706 67.5082125,12.084039 68.1088473,12.0979904 L69.2008612,12.123266 L69.2489663,17.2417981 L73.5040518,17.2417981 L73.5040518,12.0725337 Z M125.203615,12.0703028 C126.693798,12.0744135 128.27855,12.1217712 128.689618,12.2088769 C130.406908,12.5728815 131.399179,14.1365251 131.279777,16.2905664 C131.214459,17.4702748 130.759136,18.455026 130.073887,18.8988435 C129.903933,19.0089146 129.764329,19.120707 129.763695,19.1473415 C129.763151,19.173976 129.886449,19.2689179 130.03783,19.3583337 C130.753338,19.7810429 131.025843,20.7410621 131.03146,22.8585943 C131.035446,24.3507596 131.114987,24.918962 131.343011,25.085654 C131.420468,25.1423655 131.483884,25.2759003 131.483884,25.3825288 C131.483884,25.561389 131.454287,25.5753559 130.406891,25.5763307 L128.96167,25.5763989 L128.912297,25.3272668 C128.782205,24.6711888 128.751765,24.3291078 128.687897,22.8009768 C128.586976,20.386751 128.581631,20.381406 126.211071,20.3372869 L124.598779,20.3073005 L124.598779,25.5818345 L123.443712,25.5564683 L122.288645,25.5311021 L122.265181,18.9177776 C122.263305,18.3873338 122.261891,17.8698721 122.260919,17.3726938 L122.260317,14.6364114 C122.263161,13.1754591 122.271784,12.225838 122.285021,12.1912111 C122.313958,12.1154324 123.403914,12.0760477 124.683659,12.0706534 L125.203615,12.0703028 Z M81.1197027,12.0779693 L82.5885484,12.078502 C83.2328366,12.0827198 83.7510463,12.111461 83.7723706,12.1459144 C83.7947019,12.1820612 84.7607682,15.5069554 85.7212517,18.8331066 L85.9195814,19.5202154 C86.8089039,22.6025806 87.6366358,25.4895057 87.6366358,25.5278408 C87.6366358,25.5545659 87.0714231,25.5763989 86.3805571,25.5763989 L85.124569,25.5763989 L84.7725227,24.1948482 L84.420567,22.8132975 L82.4117471,22.7889279 L80.4030177,22.7645582 L80.2671274,23.2418953 C80.1924784,23.5044352 80.0166364,24.1371402 79.8764883,24.6478156 L79.6216488,25.5763989 L78.4200168,25.5763989 C77.6817705,25.5763989 77.2183848,25.541611 77.2183848,25.4860772 C77.2183848,25.3974768 80.0395566,15.684949 80.8959368,12.8253656 L81.1197027,12.0779693 Z M91.4202728,12.0779693 L92.8001928,15.044906 C93.5590945,16.6767665 94.5320685,18.7658523 94.9623876,19.6874598 L95.744753,21.3629864 L95.7682167,16.7205231 L95.7916804,12.0779693 L97.9642934,12.0779693 L97.9642934,25.5763989 L95.6483615,25.5763989 L91.1722279,16.018786 L91.1709596,20.7975924 L91.1697818,25.5763989 L88.9955382,25.5763989 L88.9955382,12.0779693 L91.4202728,12.0779693 Z M120.159698,12.0779693 L120.159698,14.5239934 L114.361715,14.5239934 L114.361715,17.3323915 L119.70673,17.3323915 L119.70673,19.6878222 L114.361715,19.6878222 L114.361715,23.1303747 L120.431478,23.1303747 L120.431478,25.5763989 L112.096877,25.5763989 L112.096877,12.0779693 L120.159698,12.0779693 Z M82.3495093,15.4004854 C82.3449948,15.4156447 82.3331547,15.458654 82.315036,15.5255757 L82.2707373,15.6901359 C82.1579625,16.1107079 81.9403942,16.9310121 81.7032154,17.8306557 C81.374814,19.0763162 81.0848242,20.16679 81.0586427,20.2540315 C81.0191802,20.3854645 81.0991081,20.4087344 82.0324245,20.412074 L82.3761438,20.4125701 C83.126892,20.4125701 83.7411159,20.3852109 83.7411159,20.3517819 C83.7411159,20.2729129 82.8404051,16.771292 82.5304516,15.6241197 L82.4700895,15.4038121 C82.4458308,15.3171854 82.4309646,15.2678215 82.4277821,15.2645952 C82.4118376,15.248379 82.3765968,15.3095296 82.3495093,15.4004854 Z M126.352356,14.433888 L124.598779,14.4334 L124.598779,18.0571394 L126.025626,18.0549652 C127.60159,18.0525192 128.161821,17.9638282 128.480257,17.6665909 C128.863286,17.3090184 128.983594,16.9692928 128.983594,16.2452697 C128.983594,15.5172604 128.863558,15.1817928 128.472103,14.816248 C128.145491,14.5112379 127.786338,14.4402266 126.352356,14.433888 Z M64.6939297,8.90704252 L131.483884,8.90747368 L131.483884,11.3735937 L65.1453643,11.3733715 C65.1033292,10.5142018 64.9476808,9.68664904 64.6939297,8.90704252 Z M63.0169086,5.86591151 L131.483884,5.86654836 L131.483884,8.03668945 L64.3613905,8.03628847 C64.0123422,7.2442035 63.5578571,6.51408631 63.0169086,5.86591151 Z M60.7613665,3.94020386 L131.483884,3.9415198 L131.483884,4.99576413 L62.1842454,4.99500751 C61.7464084,4.59531751 61.2698801,4.24136291 60.7613665,3.94020386 Z M21.795198,4.35093295 C23.9174514,4.3579158 26.2345756,4.40613334 26.7196348,4.48558714 C27.8045123,4.66327164 28.5872273,5.05462916 29.3348006,5.79331119 C30.5493779,6.99335194 31.0949921,8.59618186 31.1008175,10.9815857 C31.1086818,14.1660758 29.9168267,16.4185338 27.6827158,17.4413135 C26.9347191,17.7838395 26.7144129,17.811219 24.23558,17.8706353 L21.5875306,17.9340034 L21.5875306,25.376994 L17.9181128,25.376994 L17.9189089,13.6024255 C17.9249476,8.4985496 17.9645958,4.49006383 18.0122475,4.44254204 C18.0689021,4.38588739 19.2430697,4.3567471 20.7162794,4.35108384 Z M23.2036269,8.01782516 L21.5875306,8.01782516 L21.5875306,14.2276091 L23.3597182,14.2276091 C25.4548147,14.2276091 26.2555945,14.0582514 26.7783455,13.5043104 C27.3160563,12.9345628 27.4919061,12.3480204 27.5043257,11.0829181 C27.5280357,8.65686839 26.6314276,8.01782516 23.2036269,8.01782516 Z" id="Combined-Shape"></path>
            </g>
        </g>
    </g>
</svg>