<?xml version="1.0" encoding="UTF-8"?>
<svg width="156.818317px" height="20px" viewBox="0 0 156.818317 20" version="1.1" xmlns="http://www.w3.org/2000/svg" xmlns:xlink="http://www.w3.org/1999/xlink">
    <title>cassette vision</title>
    <g id="Page-1" stroke="none" stroke-width="1" fill="none" fill-rule="evenodd">
        <g id="System" transform="translate(-22.590619, -5.000000)" fill="#000000">
            <g id="cassette-vision" transform="translate(22.590619, 0.000000)">
                <line x1="78.4093808" y1="30" x2="78.4093808" y2="0" id="Path" fill-rule="nonzero"></line>
                <path d="M7.65782183,5.13597101 C8.55040412,4.97864104 10.921519,4.9507738 11.598084,5.08964864 C12.7205249,5.32006092 13.6191974,5.66969333 14.7264129,6.30667209 C15.1117559,6.52833496 15.3358759,6.68964727 15.7560412,7.07115741 L16.0691157,7.36119813 C16.4124734,7.68379377 16.3494491,8.01266416 15.7845376,8.84711279 L15.6924288,8.98423212 C15.4469296,9.35250535 15.2090452,9.73127749 15.1376854,9.86915781 L15.0840701,9.96624199 C14.8693587,10.3278972 14.6464099,10.3710166 14.2267403,10.1547509 C14.0141372,10.0452197 13.7362952,9.85753108 13.6092317,9.73766502 L13.5559001,9.69326373 C13.3856512,9.5637072 13.0010737,9.35054819 12.6403374,9.18871722 L12.0121453,8.89961282 L11.5939181,8.69486281 C10.887049,8.401358 9.20974819,8.30974559 8.34103069,8.5360516 C7.43294609,8.77255408 6.4899813,9.26816655 5.79191607,9.87589393 C4.7151516,10.8131376 4.1901032,11.5988647 3.84711463,12.7865445 C3.50606386,13.9674882 3.4407327,14.6066816 3.55635408,15.632879 C3.77292502,17.5553497 4.32399515,18.6159659 5.85798543,20.0631248 C6.55429743,20.7199429 7.61657462,21.3220414 8.07906014,21.3220414 C8.34342985,21.3220414 8.82464733,20.8124031 9.32339717,20.0043453 L9.42419392,19.8448937 C9.57113513,19.6169684 9.7598056,19.3402744 9.88877003,19.1650983 L9.95662904,19.0702341 C10.0811813,18.892161 10.2588372,18.6206814 10.4271032,18.3521484 L10.7026328,17.9024837 C10.9253399,17.5403612 11.1711349,17.1715958 11.2782567,17.0410976 L11.3444298,16.9544875 C11.4633052,16.789972 11.6191229,16.5342274 11.7220102,16.331221 L11.7765591,16.2279724 C11.8882212,16.0249186 12.0110307,15.8488567 12.0686898,15.8137392 L12.0998531,15.7862685 C12.3107046,15.5688116 13.2071921,14.2580045 13.4110236,13.8598948 L13.4473813,13.7921585 C13.5046868,13.6887862 13.5950029,13.5370194 13.690678,13.3828808 L14.4574294,12.1867528 L18.3838658,6.18762575 C18.5466546,5.95010017 18.756512,5.69815377 18.8858297,5.58932124 C19.1064454,5.40361651 19.1820473,5.36702666 19.9312615,5.36073611 L20.7952268,5.36155375 C21.3822817,5.36787172 21.8810048,5.38901922 21.9723577,5.41353615 C22.2806755,5.49627498 22.3675759,5.67577766 22.4274844,7.50038378 L22.4801804,9.67453047 C22.5096447,11.1739538 22.5300654,13.0493332 22.5414845,14.9499166 L22.5451411,15.6211862 C22.5489712,16.4042223 22.5512759,17.1845353 22.5520582,17.9376375 L22.5522252,18.8889905 C22.5502857,21.5828912 22.5273598,23.7566101 22.4835975,24.1553509 L22.4733221,24.2147905 C22.3479195,24.5447682 22.112063,24.5904447 20.6686874,24.5641461 L20.2960471,24.5551128 C19.6137809,24.5335897 19.299396,24.4902465 19.1692082,24.4056166 L18.961588,24.2706173 L18.9611609,20.8346149 C18.9577954,19.0173256 18.9335046,18.4470581 18.852102,18.2637347 L18.8304643,18.2253631 C18.7301487,18.0883057 18.6165462,18.0549611 17.6485571,18.0419943 L16.5293983,18.0353228 C15.7090045,18.0384439 15.0204277,18.0668767 14.918623,18.1049434 C14.5610549,18.238374 13.6096008,19.5181449 13.6096008,19.8655627 C13.6096008,20.0807495 13.9338574,20.0826873 14.1164709,19.8687001 L14.8868802,18.9690125 L18.3174118,18.9114325 L18.3959383,19.1239433 C18.5238324,19.4694234 18.3206414,19.9697419 17.6356793,20.9967698 C17.0936522,21.8094414 15.6515684,23.1836102 14.9572865,23.5490218 L14.0248411,24.0470334 C13.6695799,24.238044 13.2543395,24.4248099 13.1020847,24.4621815 C13.0830529,24.4668414 13.0593438,24.4727961 13.0316434,24.4798626 L12.0984948,24.7289504 C11.0415696,25.0183268 9.29626814,25.0864262 8.16238504,24.8825894 C6.77626891,24.6333868 6.41030729,24.5392688 5.26512134,23.930331 L4.52690929,23.5290902 C4.00315274,23.2409134 1.89059419,21.2749808 1.89059419,21.0757577 L1.88133341,21.038093 C1.85731221,20.9773919 1.78929399,20.8789892 1.70964166,20.7935788 L1.630468,20.6997765 C1.13986078,20.0684556 0.383281287,18.2377815 0.127668045,17.0312241 C-0.0605742656,16.1426096 -0.0357521178,13.5821451 0.169838013,12.6942689 C0.580925999,10.9183319 1.56236973,9.10631507 2.76758189,7.89796554 C3.87230588,6.790381 4.21833954,6.52693405 5.21519331,6.03418212 L5.44773223,5.91969569 C6.40688317,5.44979962 6.75735421,5.31254866 7.35911278,5.19172226 Z M27.8192192,5.16116226 C28.7162307,4.96563018 29.2267918,4.95769447 30.0306972,5.12683573 C30.7197194,5.27180076 31.2135787,5.48827942 31.8506497,5.92465093 L31.9694549,6.0027971 C32.346266,6.23879534 32.5404185,6.23062018 32.833939,5.9997633 L32.9296924,5.93124335 C33.3249364,5.66956773 34.182709,5.30319755 34.7407228,5.16540694 C35.5443514,4.96710659 36.7855511,5.01915005 37.6068966,5.28573438 C39.3761897,5.86005798 41.0210953,7.80855044 41.175657,9.51325066 C41.2372898,10.1929161 41.1587214,10.3175653 40.0417274,10.3376939 L39.524569,10.34124 C38.8286261,10.34124 38.1539066,10.3011924 38.025182,10.2522863 C37.8879682,10.2000583 37.6765647,9.96143345 37.5144364,9.67556351 L37.4162911,9.51223701 C37.051064,8.93947815 36.6250607,8.65253422 36.0787196,8.60719612 C34.9783326,8.51602779 34.1995262,9.37779001 34.2989993,10.5767274 C34.37891,11.5410079 34.943637,12.0633803 36.8644467,12.950057 L37.2698214,13.141843 C37.3304649,13.1711543 37.3913739,13.2008492 37.4520205,13.2306599 L37.8085277,13.4087735 C38.0959536,13.5547918 38.3504216,13.6903255 38.5059381,13.7819219 L38.6113573,13.8432983 C38.8883797,14.0027101 39.1259177,14.1245413 39.1626639,14.1245413 L39.2016128,14.136555 C39.4855259,14.2785923 40.6406671,15.6415286 40.9002142,16.1576506 C41.429415,17.2106079 41.6249471,18.9894977 41.351073,20.2608715 C41.0740615,21.5471017 40.3093733,22.8493879 39.4929184,23.4253724 C38.4194759,24.1826786 38.0842385,24.3835627 37.7498315,24.4698404 L37.5057876,24.5321968 C36.5776534,24.766698 36.2060236,24.8247741 35.6710712,24.8025217 L35.3866523,24.7851463 C34.504774,24.7181542 33.1973204,24.4154901 32.9874856,24.2299237 L32.8816067,24.150337 C32.4665115,23.8849166 31.7744147,23.9099118 31.4189843,24.2266018 L31.3829547,24.2522244 C31.2904475,24.3091118 31.080037,24.3978924 30.8378745,24.4832963 L30.5883189,24.5662685 C30.1049484,24.717216 29.8169586,24.7656992 29.1749146,24.7736088 L28.7428061,24.7739809 C27.9608623,24.7683521 27.4556532,24.7196306 27.1741202,24.6226489 L26.9305945,24.542786 C26.8472491,24.5166173 26.7646111,24.4917678 26.6913135,24.4708384 L26.5080746,24.4224107 C26.101139,24.3294892 25.2313488,23.7610712 24.7028862,23.2426666 C24.1033713,22.6546862 23.5566382,21.8523495 23.3145069,21.2052205 C23.0931376,20.613549 22.8768435,19.3777014 22.957677,19.1669438 C23.0675773,18.8806125 23.4805108,18.8122362 24.8498813,18.8535757 L25.3647407,18.8713627 C26.2598892,18.910679 26.3933825,18.9933412 26.5890121,19.4953962 L26.7264679,19.8560807 C26.9594962,20.4205359 27.2349047,20.7273333 27.7301732,20.9940938 C28.1528879,21.2218301 28.3343941,21.2644614 28.8467085,21.2565257 C29.2782632,21.2498819 29.4448318,21.2239856 29.6972094,21.0713071 L29.9080629,20.9313464 C30.6270747,20.4263218 30.8838778,19.986167 30.9362904,19.1686048 C30.9961773,18.2358826 30.792894,17.5941055 30.2789187,17.0934178 C29.8612791,16.6865745 28.9666668,16.1490689 28.4059077,15.9680241 L28.2380185,15.908964 C27.2946136,15.5531314 25.6228472,14.5668076 25.1219099,14.055796 C24.276665,13.1937569 23.852197,11.9699051 23.852197,10.3950367 C23.852197,8.8906669 24.2055205,7.6848088 24.8121406,7.11860546 L24.875645,7.05547013 C24.9768705,6.94849019 25.0517804,6.83719551 25.0517804,6.78844322 L25.0628638,6.75184743 C25.172035,6.53632489 26.0625851,5.85207037 26.6123461,5.57308073 C26.8949864,5.42959211 27.4380285,5.24421034 27.8192192,5.16116226 Z M44.0054942,5.55088592 L48.9912413,5.5848428 C50.4649758,5.60692979 50.6620569,5.64545397 50.7696478,5.75311051 L50.7933816,5.7788486 C50.8985688,5.90338401 50.9270497,6.10118017 50.9325264,6.84767167 L50.931531,7.56772473 C50.9230551,8.23516333 50.8881298,8.53348107 50.8144938,8.60719612 C50.7454003,8.67636091 50.3594906,8.71450526 49.3668215,8.73917052 L47.2122281,8.77491165 C45.6541648,8.80806991 45.5005675,8.89108178 45.4396195,9.4135565 L45.410558,9.74096081 C45.3582962,10.6080049 45.4396661,12.8074252 45.5402026,13.0718608 C45.5856022,13.1912655 45.7176487,13.3114084 45.8336392,13.3389988 C45.9109662,13.3573309 46.4464725,13.3871462 47.1758533,13.4161412 L48.8307756,13.4708915 C50.3617529,13.5179433 50.6759354,13.5447892 50.8053936,13.6546615 L50.8506658,13.7045026 C51.0372472,13.9596448 51.0402,16.5068216 50.85408,16.5783352 C50.806223,16.5967078 50.2377401,16.6261823 49.4431642,16.6541676 L46.7126533,16.7367765 C45.8424331,16.7729652 45.6663879,16.8159928 45.5632715,16.9191092 L45.542644,16.9414433 C45.4305882,17.0736251 45.3992588,17.3148176 45.3748163,18.3508265 L45.3549555,19.5870529 C45.3478489,20.9234385 45.422757,21.2259541 45.6811998,21.324256 C45.7701023,21.3580443 46.3834929,21.4013626 47.1907195,21.4351268 L49.0561987,21.4948915 C50.0008287,21.5286759 50.4452534,21.5682398 50.6236256,21.6313725 L50.68134,21.6579248 C50.8389128,21.7564169 50.8770896,21.8120621 50.8861803,22.4560756 L50.8889602,24.4297928 L50.6539342,24.5368325 C50.5097949,24.6025612 48.5398476,24.6392178 46.5667133,24.6423722 L45.9765,24.642309 C44.3142863,24.6392572 42.7814543,24.6116799 42.497321,24.5568563 C42.2719839,24.5133022 42.0305909,24.4010028 41.961015,24.3070662 C41.892039,24.2141584 41.863258,23.6348557 41.8650677,21.4472016 L41.8659695,20.9341253 L41.8667907,20.656876 L41.9278522,11.8664019 C41.970003,6.83448982 41.9974003,6.05098992 42.1089852,5.81391532 L42.1240253,5.7857871 L42.1319187,5.77347661 L42.200555,5.69387951 C42.313995,5.58371921 42.4966479,5.55128884 44.0054942,5.55088592 Z M112.32636,5.18644579 C114.668961,5.12600524 116.910152,7.02937492 117.329084,9.43527774 C117.485293,10.332164 117.509827,10.4232568 116.27634,10.4324808 L115.221916,10.4311507 C114.249406,10.4190374 114.045973,10.3467012 113.805635,9.92754846 L113.603009,9.55055301 C113.074688,8.66848954 112.076767,8.44000584 111.220713,9.02898809 C110.729807,9.36671694 110.49801,9.84212104 110.501055,10.5045679 C110.503916,11.1252139 110.765886,11.625071 111.340118,12.1058271 C111.76883,12.4646871 112.802133,13.0164031 113.04814,13.017695 L113.095622,13.0258444 C113.325848,13.0836554 114.138353,13.4337428 114.374602,13.5826988 L114.522902,13.6723616 L115.066669,13.9818832 C115.524264,14.2335189 116.864014,15.5513996 116.865306,15.7511763 C116.865768,15.8083872 116.922886,15.9024161 116.992462,15.9600884 L117.042637,16.013636 C117.331903,16.3869843 117.696525,17.9138918 117.696525,18.8120517 C117.696525,20.45585 117.139273,21.8762489 116.089176,22.9099207 C114.701258,24.2759693 112.867556,24.8405117 110.903838,24.5062893 C110.402043,24.420842 109.949616,24.316386 109.898495,24.2740315 C109.864415,24.2457951 109.755899,24.1939362 109.623336,24.1404642 L109.412756,24.0617975 C108.83345,23.8622053 108.061749,23.296002 107.507633,22.6639138 C106.953149,22.0314566 106.736947,21.6435298 106.397465,20.671775 L106.27033,20.3256363 C105.956752,19.5244903 105.84254,19.700092 105.826463,20.891391 L105.803395,22.9995203 C105.794997,23.9375022 105.763808,24.19855 105.645788,24.3165706 C105.534565,24.4277935 105.323092,24.4545876 104.362186,24.4441332 L102.432288,24.4132754 L102.361974,24.0903107 C102.348195,24.0271531 102.340213,23.4621473 102.337775,22.5402893 L102.337095,22.1528576 C102.336967,22.0175988 102.336936,21.8763397 102.337003,21.7294239 L102.33796,21.0312804 C102.33939,20.3788307 102.342365,19.6441232 102.346844,18.8491544 L102.435952,9.47555286 C102.476652,6.47399271 102.514628,5.96349001 102.606563,5.82543219 L102.642608,5.78466006 C102.758001,5.67341511 102.926129,5.64377437 103.696481,5.63698426 L104.604025,5.63572694 C105.495173,5.6389994 105.676121,5.65977028 105.761149,5.76857655 L105.789738,5.81364333 C105.838499,5.90483012 105.868864,7.27242451 105.880198,9.87584393 L105.885243,19.0366506 L106.139001,18.9657829 C106.474238,18.8721231 108.800323,18.8037469 109.188342,18.876091 C109.403067,18.9161386 109.522657,19.0060151 109.595093,19.1816156 C109.979582,20.1139341 110.09476,20.3360935 110.400732,20.5719145 L110.544886,20.6759274 C110.784526,20.8408239 111.199859,21.0330341 111.467735,21.102979 C111.911673,21.2188773 112.006809,21.2137098 112.541823,21.044384 C113.269694,20.8141563 113.553903,20.5670421 113.920237,19.8463694 C114.182115,19.3310099 114.201585,19.2321827 114.144651,18.7102716 C114.079228,18.109834 113.846785,17.5482445 113.512471,17.1825561 C113.187661,16.8272026 112.367238,16.3430323 111.616575,16.0637139 L111.315802,15.9489683 C109.355452,15.1818928 108.283004,14.3667913 107.608952,13.1474346 C107.033429,12.1061962 106.900275,11.5963733 106.900275,10.4335156 C106.900275,8.89122055 107.31773,7.87323567 108.439894,6.6790043 C109.21178,5.85747426 110.139058,5.39581922 111.283368,5.26321912 C111.587878,5.22796983 112.057192,5.19336646 112.32636,5.18644579 Z M73.01649,5.60127574 C73.7092165,5.55571022 79.0174213,5.61724105 80.180013,5.68151539 L80.3509118,5.69396182 C81.1556477,5.78143913 81.2476465,5.94190647 81.2476465,7.25812623 C81.2476465,7.83254211 81.2015087,8.40363606 81.1452206,8.52737769 C81.0253102,8.79045186 80.7409328,8.86210353 79.4679324,8.8341608 L78.2323037,8.79548148 C77.5781595,8.77830557 76.9621295,8.77943682 76.6543485,8.79837081 L76.5088309,8.8118635 C75.8524189,8.91030931 75.7692638,8.90957356 75.7587586,10.3938904 L75.7595778,11.828391 C75.7680643,12.8429272 75.8007416,13.2359755 75.8742513,13.3095629 C75.9394522,13.3747637 76.352238,13.4206035 77.5024072,13.4680636 L80.6640148,13.5672103 C81.0994652,13.599806 81.2219227,13.8078404 81.2437595,14.6436653 L81.2476465,14.9874109 C81.2476465,16.1818268 81.1431905,16.6092475 80.846432,16.6295482 C80.8342927,16.6303787 80.8098396,16.6312616 80.7742535,16.6321843 L77.9795895,16.6589807 C76.9145407,16.6709925 76.0474322,16.7054603 75.9719712,16.7413863 C75.7671193,16.8387972 75.7231654,16.9505816 75.6736842,18.0317281 L75.6343591,19.0873767 C75.6055111,20.2768419 75.6625384,21.0018938 75.8034759,21.2299503 C75.8633278,21.3267634 76.7116315,21.3985108 78.4721476,21.452404 L80.5224689,21.5009169 C81.1465241,21.5223835 81.1833224,21.6683639 81.1364544,23.0511024 L81.1224784,23.4131657 C81.0908989,24.1184773 81.0479805,24.3294707 80.937139,24.4403122 C80.8418876,24.5356246 80.6711321,24.5725782 79.6114028,24.5781523 L79.0397353,24.5785519 L75.2499485,24.5410738 C74.0653617,24.5210739 73.1335417,24.4952777 72.8967009,24.4732546 L72.2507714,24.4132754 L72.2508812,20.5740891 C72.2519011,19.4085217 72.2599501,17.6458255 72.2719607,15.8029551 L72.3308915,9.15462307 C72.3704713,5.93426722 72.4294738,5.69235099 72.812906,5.62670245 Z M66.3245429,5.61256342 C66.5891547,5.61304029 66.8593072,5.61386558 67.1303792,5.61501093 L67.6723801,5.61771996 C69.5640897,5.62863637 71.3498986,5.65430925 71.4447437,5.68501109 C71.6474041,5.75049219 71.7413363,6.12937021 71.7517002,6.95739631 L71.7510988,7.34015928 C71.7332801,8.65214391 71.7472119,8.81760917 70.7067951,8.86371464 L69.6047629,8.89741262 C69.0210317,8.9227862 68.8348563,8.96496724 68.7346081,9.06543696 C68.5564328,9.24383504 68.480838,10.072507 68.4446972,12.7777027 L68.41711,16.2477913 C68.3787812,21.5777111 68.2949969,24.2537108 68.1625914,24.385685 C67.9958493,24.5518735 65.1603111,24.5572254 64.9946763,24.3915907 C64.9142432,24.3111575 64.8797917,24.1646218 64.8767934,22.3803862 L64.9342192,11.71221 L64.9342649,11.040887 C64.9303975,9.36156518 64.8922124,9.17185926 64.7939768,9.07374177 L64.7621141,9.04509197 C64.6503047,8.95520113 64.4756749,8.92028087 64.0337228,8.90689859 L63.0361588,8.89416067 C61.887902,8.87747333 61.7825119,8.80432673 61.7768844,8.02033295 L61.7794936,7.33863166 C61.7926254,6.41115805 61.89451,5.87459447 62.0807961,5.75384871 C62.1269569,5.72395141 62.4588032,5.68642406 62.8894767,5.65882355 L63.4516205,5.63153287 C63.8258185,5.620224 64.5011967,5.61425697 65.3066003,5.61258141 Z M60.770851,5.5429066 L60.9825314,5.75458692 C61.1318703,5.90392582 61.1816991,6.02603971 61.2196104,6.52553588 L61.2471779,6.97723918 C61.2762447,7.5332922 61.2772598,8.10687759 61.2493002,8.2519349 C61.1749261,8.63801619 60.7702974,8.7724618 59.681168,8.77292318 L59.5073615,8.77373406 C58.907222,8.77960163 58.7031231,8.81923017 58.4786318,8.95609033 C58.313643,9.05667078 58.1728303,9.14996145 58.1656328,9.16334142 L58.0540711,21.2121537 C58.0246096,23.4291282 57.9897917,24.2265596 57.9321766,24.3662723 L57.9211024,24.3849468 C57.7719849,24.533972 54.9199294,24.5578714 54.7724729,24.4113377 C54.7363931,24.3755232 54.7063846,23.505084 54.6828332,21.8222464 L54.6141665,12.3070615 C54.589023,9.53909053 54.5521122,9.16651279 54.4508923,9.06516014 L54.4239636,9.04152579 C54.306631,8.95127414 54.0657839,8.91129525 53.4098253,8.87996615 L52.3288519,8.83200947 C51.511932,8.77209535 51.431182,8.60150322 51.4688301,7.66475963 L51.5114194,6.84042301 C51.5692789,5.9361045 51.6494243,5.75016794 51.9330591,5.63582817 C52.0320907,5.59595191 53.6640719,5.56041578 55.703051,5.55095986 L60.770851,5.5429066 Z M86.7875697,5.48061877 C86.9156908,5.48144245 87.057331,5.48373657 87.2066726,5.48753289 L88.264907,5.52202138 L89.3241499,5.54435186 C89.8589179,5.5633964 90.0786423,5.78439195 90.8804854,7.00639828 L92.3486744,9.23904039 L95.2893253,13.6802512 C95.4655933,13.9438349 95.6502281,14.2245066 95.7943547,14.4475061 L96.2022527,15.0933455 L96.6247932,15.7397187 C96.6969041,15.8505439 96.7784846,15.9786402 96.8572629,16.1045721 L97.1468728,16.5772301 C97.4578564,17.0703489 97.6481128,17.1711139 97.8165686,16.9443927 C97.8994898,16.8326815 97.936541,16.5568617 97.9504402,15.847287 L97.956643,15.2834311 L98.0348989,9.62230767 C98.0877747,6.55821156 98.1093531,6.06446261 98.2319435,5.87164057 L98.267981,5.82480868 C98.4086501,5.66929347 98.5178954,5.64042144 99.4185856,5.63592538 L100.331649,5.63772236 C100.938492,5.64521613 101.137479,5.67201803 101.248131,5.75269282 L101.297575,5.79767964 C101.445759,5.9613769 101.516946,6.66961055 101.52414,8.60179475 L101.524264,9.26584097 C101.521989,10.0523619 101.511729,11.004284 101.494077,12.1525573 L101.308059,21.4547197 C101.249104,23.6276868 101.199378,24.1980407 101.116005,24.3371596 L101.08691,24.3691677 C101.010782,24.4172433 100.4491,24.4571986 99.838697,24.4581227 L99.489038,24.4574612 C98.6481205,24.4506061 98.5000055,24.385847 98.1027198,23.8509694 L97.0195839,22.351653 C96.7364822,21.9600352 96.354461,21.4123793 96.170648,21.1348141 L94.1823333,18.1379963 L93.7480312,17.491134 L92.366997,15.5122779 C92.1428331,15.1854836 91.9479879,14.8955861 91.7648655,14.6167295 L91.0476478,13.5056623 C90.9229424,13.3143885 90.8021946,13.1317101 90.6749363,12.9417692 L88.529097,9.78064496 L88.1667272,9.2613528 C87.5223768,8.34031845 86.604468,6.92917895 86.4293852,6.58589818 L86.3820381,6.49647098 C86.2857798,6.32094656 86.1836816,6.17081598 86.1395474,6.14352875 C86.0065782,6.06131115 86.0233724,5.56874378 86.1613245,5.50479676 C86.1906256,5.49121094 86.3360563,5.48316822 86.5510766,5.48092261 Z M130.199875,5.17057438 C131.027034,5.05892085 133.244786,5.13477143 133.986406,5.30012938 C134.871606,5.4974147 135.272913,5.6474549 136.317565,6.17148827 L136.479287,6.25290507 C137.250423,6.64315859 137.483248,6.79945723 138.249311,7.55438553 L138.781509,8.08583875 C139.483081,8.79119376 139.881989,9.2755486 140.073368,9.65452466 L140.18977,9.87870978 C140.306249,10.0971305 140.416565,10.2869127 140.463141,10.3459461 L140.513501,10.4189252 C140.743426,10.7888117 141.11493,11.8274183 141.219893,12.4174419 L141.285239,12.7665747 C141.453756,13.615296 141.580035,13.8134084 141.751955,13.5478186 C141.783541,13.4990544 141.822991,12.4706397 141.851066,11.0711651 L141.912849,7.21219005 C141.94194,6.09753447 141.984674,5.95073418 142.094666,5.82923791 L142.151483,5.77267304 C142.258188,5.6805392 142.396591,5.64959549 142.859178,5.63964392 L143.715861,5.63583901 C144.917542,5.64403073 145.155814,5.73432999 145.458021,6.2084908 L145.574683,6.38344714 L146.64627,7.91575143 C146.981206,8.39004592 147.303378,8.85404918 147.486759,9.12558086 L147.636824,9.35427848 C147.831105,9.66255773 148.242892,10.2737753 150.126523,13.0520215 L150.939096,14.2659898 L151.259535,14.7632169 C151.809983,15.6025208 152.653996,16.7560047 152.786922,16.8379066 C152.911679,16.9146799 152.970181,16.9082206 153.030899,16.8110544 C153.063418,16.7588859 153.094059,15.4311073 153.110006,13.5861588 L153.120775,11.5052049 C153.125943,8.84716201 153.159807,6.53170859 153.197984,6.11100619 L153.206222,6.05042263 C153.333655,5.5826774 153.56619,5.52491285 155.101749,5.57972458 L155.767835,5.60872561 C156.350411,5.64185418 156.514608,5.6851305 156.586371,5.78328464 C156.658346,5.88173045 156.702598,6.76427192 156.742252,9.0107457 L156.788117,12.4266795 C156.806244,14.2243864 156.816173,16.0446411 156.818317,17.6927422 L156.8182,19.0973189 C156.813826,21.8873039 156.783973,23.914413 156.731152,23.998035 C156.671096,24.0930021 156.462117,24.1258112 155.661795,24.1341096 L153.570527,24.1364485 L153.21222,23.7212081 C152.97262,23.4434321 152.653099,23.0109041 152.029722,22.1107178 L148.377586,16.7732457 L148.136757,16.3989882 C147.947071,16.108912 147.554843,15.562166 147.229218,15.1299854 L146.843143,14.6323504 C146.744257,14.5015796 146.671077,14.3830054 146.671077,14.3497862 L146.663225,14.3183187 C146.642859,14.2671256 146.585205,14.1826012 146.517807,14.1081163 L146.450349,14.0267118 C146.380074,13.9358088 146.305504,13.8224309 146.264049,13.7407669 L146.2111,13.6507506 C146.077776,13.453732 145.881151,13.3510292 145.729035,13.4094051 C145.669666,13.4321872 145.63201,13.5562876 145.601936,13.9527815 L145.584689,14.2247337 L145.576536,14.3877913 L145.527874,15.8463125 C145.500106,16.8767876 145.479344,18.5461943 145.47472,19.9693325 L145.475057,22.0567585 C145.470388,23.1737339 145.446529,23.8146805 145.402134,24.0226422 L145.383278,24.0828364 C145.305397,24.228189 145.237674,24.2638738 144.527229,24.2723336 L143.338839,24.2733097 C142.197222,24.2622449 142.050417,24.1723736 141.982383,23.4429094 L141.951926,23.0302593 C141.929946,22.6254829 141.907256,21.6043596 141.892909,20.4407297 L141.873114,18.1697323 C141.850234,16.102141 141.793513,15.6932272 141.60256,15.6932272 C141.559006,15.6932272 141.478634,15.9320366 141.424007,16.2238122 L141.323429,16.7388023 C141.129539,17.681628 140.965555,18.1455447 140.585037,18.9228747 L140.467097,19.1627496 C139.978817,20.1502322 139.771941,20.4849429 139.264807,21.0602579 L139.007308,21.3461254 C137.72523,22.7476078 136.270228,23.5655391 133.937038,24.1962431 C132.305605,24.6372284 129.195823,24.2897184 127.708432,23.500208 L127.616452,23.4537955 C127.494353,23.39525 127.379931,23.3522716 127.33933,23.3514596 L127.300604,23.342661 C127.025359,23.2472967 125.830849,22.3990007 125.211915,21.8517036 C123.591555,20.4184783 122.422053,18.0950699 122.263062,15.9931231 L122.237311,15.7001985 C122.196957,15.3103093 122.148062,15.1395734 122.080264,15.1395734 C122.015302,15.1395734 121.933823,15.2745727 121.899127,15.4394692 C121.873495,15.5616148 121.839104,16.6789197 121.811968,18.1659178 L121.737552,23.9332575 L121.451055,24.218135 C121.308596,24.3494218 121.194149,24.3762484 120.520869,24.3671826 L119.477752,24.3442616 C118.632165,24.3209181 118.434912,24.2936275 118.323069,24.1844754 L118.281553,24.136264 C118.20304,24.0312404 118.170414,23.5119858 118.166697,20.9873008 L118.222773,5.88054317 L118.473905,5.67854901 C118.599172,5.58733765 118.735532,5.55277573 119.163096,5.54693966 L119.426875,5.54643736 C119.574889,5.54744279 119.74835,5.55020723 119.952942,5.55416422 L120.374332,5.56480284 C121.33944,5.59626746 121.661192,5.66737558 121.7764,5.8486158 C121.800023,5.88569641 121.821199,6.56530379 121.834188,7.56900103 L121.848907,10.4911777 C121.854286,12.0968053 121.874822,13.4337782 121.899743,13.7697496 L121.90734,13.8397787 C121.999062,14.2986655 122.151778,14.1245413 122.269522,13.4264761 L122.340773,13.0382807 C122.645535,11.5052759 123.189361,10.2046153 124.043521,8.95710536 C124.506375,8.28100173 126.153126,6.7722027 126.739538,6.48697869 C126.866417,6.42524629 127.032513,6.33620029 127.108641,6.28913972 L127.319572,6.16599776 C128.134024,5.71523072 129.3744,5.28197415 130.199875,5.17057438 Z M34.2213955,15.6933192 C34.1641846,15.6932272 34.0673875,15.7534832 34.0062087,15.8272115 C33.8835744,15.9749448 33.9320191,16.2071103 34.1899295,16.7082593 C34.4631577,17.2393056 34.5905904,18.3422764 34.5210145,19.5737871 L34.4904141,20.1793068 C34.4765486,20.5800687 34.4999848,20.6950295 34.5950329,20.8101023 L34.6802823,20.9008954 C35.3560168,21.5766299 36.970656,21.1198655 37.562512,20.0857324 C37.7958771,19.6779663 37.8314955,19.5222973 37.8284504,18.9228747 C37.824298,18.1182311 37.5767224,17.5137334 37.0683759,17.0673961 C36.6113347,16.6661816 34.5961269,15.6934118 34.2213955,15.6933192 Z M135.940804,10.2798767 C134.632981,9.03747744 132.679967,8.35962058 131.052779,8.58311218 C129.573508,8.78621087 128.018479,9.67833178 127.146105,10.8242107 C126.23073,12.0266546 125.812353,13.2267916 125.788915,14.7170432 C125.768614,16.0065953 126.103113,17.1987966 126.760485,18.1799635 C127.157178,18.7721886 128.109924,19.7358231 128.492775,19.9320934 L128.92606,20.1605886 L129.236886,20.3290632 C129.761289,20.6171478 131.162125,20.9529389 131.839336,20.9529389 C132.459613,20.9529389 133.641295,20.7171746 134.181292,20.4857473 C135.517628,19.9129001 136.999482,18.4348289 137.442036,17.2334923 C138.393121,14.651343 137.838545,12.0823891 135.940804,10.2798767 Z M18.5923932,12.2790285 C18.5135744,12.2790285 18.4189278,12.3625892 18.3491443,12.4881118 L18.2625594,12.6716052 C18.2069394,12.7816805 18.1312217,12.9070964 18.0596231,13.0077706 L17.9142685,13.1956288 C17.6303145,13.5763657 17.3006264,14.2147715 17.3006264,14.4013683 C17.3006264,14.6458987 17.5745006,14.7710245 18.1019481,14.767518 L18.3021833,14.7618781 C18.7835871,14.7334317 18.8916832,14.5785942 18.9332176,13.8435774 L18.9470085,13.5175522 L18.954293,13.1926165 C18.961004,12.4569065 18.8766293,12.2790285 18.5923932,12.2790285 Z M29.1070808,8.554365 C28.9116927,8.55249881 28.6726028,8.5846255 28.519499,8.63718571 C27.794397,8.88651449 27.3576564,9.55329828 27.3603987,10.4067557 C27.3630084,11.201249 27.683574,11.6586593 28.591474,12.1636839 C28.9792163,12.3794244 29.3386299,12.5558554 29.3900274,12.5558554 L29.4389681,12.5633615 C29.4969115,12.5778516 29.577693,12.6117283 29.6437855,12.6508993 L29.7279425,12.6959107 C30.0749889,12.8664443 30.8142635,13.0878552 30.9244791,13.0455622 C31.1375436,12.963806 31.1466788,12.6906701 30.9547455,12.1344325 C30.8431843,11.8110987 30.7322689,11.1525274 30.6839165,10.5257913 L30.6580386,10.2143016 C30.6176763,9.76114421 30.5722881,9.38836816 30.5479022,9.3259311 C30.4549806,9.08785995 29.6372339,8.60913391 29.2434014,8.56235016 Z" id="Combined-Shape"></path>
            </g>
        </g>
    </g>
</svg>