<?xml version="1.0" encoding="UTF-8"?>
<svg width="188.590141px" height="20px" viewBox="0 0 188.590141 20" version="1.1" xmlns="http://www.w3.org/2000/svg" xmlns:xlink="http://www.w3.org/1999/xlink">
    <title>cassette vision jr</title>
    <g id="Page-1" stroke="none" stroke-width="1" fill="none" fill-rule="evenodd">
        <g id="System" transform="translate(-5.700047, -5.000000)" fill="#000000">
            <g id="cassette-vision-jr" transform="translate(5.700047, 0.000000)">
                <line x1="94.299953" y1="30" x2="94.299953" y2="0" id="Path" fill-rule="nonzero"></line>
                <path d="M7.65782183,5.13597101 C8.55040412,4.97864104 10.921519,4.9507738 11.598084,5.08964864 C12.7205249,5.32006092 13.6191974,5.66969333 14.7264129,6.30667209 C15.1117559,6.52833496 15.3358759,6.68964727 15.7560412,7.07115741 L16.0691157,7.36119813 C16.3910135,7.66363154 16.3557397,7.97157987 15.8846004,8.69645652 L15.4278347,9.3897118 C15.319114,9.56010959 15.2271948,9.70956424 15.1719408,9.80665188 L15.0840701,9.96624199 C14.8693587,10.3278972 14.6464099,10.3710166 14.2267403,10.1547509 C14.0566578,10.067126 13.8448224,9.92948024 13.7018351,9.81655552 L13.5559001,9.69326373 C13.4099725,9.58221528 13.1065789,9.40974459 12.795704,9.2608225 L12.0121453,8.89961282 L11.5939181,8.69486281 C10.887049,8.401358 9.20974819,8.30974559 8.34103069,8.5360516 C7.43294609,8.77255408 6.4899813,9.26816655 5.79191607,9.87589393 C4.7151516,10.8131376 4.1901032,11.5988647 3.84711463,12.7865445 C3.50606386,13.9674882 3.4407327,14.6066816 3.55635408,15.632879 C3.77292502,17.5553497 4.32399515,18.6159659 5.85798543,20.0631248 C6.55429743,20.7199429 7.61657462,21.3220414 8.07906014,21.3220414 C8.3245463,21.3220414 8.75700834,20.8826083 9.2168632,20.1728559 L9.42419392,19.8448937 L9.71184567,19.4144199 L9.95662904,19.0702341 L10.1275819,18.8178778 C10.2218036,18.6754488 10.3261436,18.5132682 10.4271032,18.3521484 L10.7026328,17.9024837 C10.8975015,17.5856265 11.1100469,17.2636834 11.2319016,17.1007248 L11.3444298,16.9544875 C11.4335864,16.8311008 11.5435229,16.6563979 11.6363245,16.4911148 L11.7765591,16.2279724 C11.8696109,16.0587609 11.9704039,15.9082938 12.0347843,15.8425158 L12.0998531,15.7862685 C12.2966478,15.5833087 13.0907077,14.4279194 13.3614303,13.9510916 L13.4473813,13.7921585 C13.5046868,13.6887862 13.5950029,13.5370194 13.690678,13.3828808 L14.4574294,12.1867528 L18.3838658,6.18762575 C18.5466546,5.95010017 18.756512,5.69815377 18.8858297,5.58932124 L18.9803364,5.51376676 C19.145651,5.39307524 19.297311,5.36605888 19.9312615,5.36073611 L20.7952268,5.36155375 L21.3852689,5.37377782 C21.6911223,5.38369726 21.914224,5.39793446 21.9723577,5.41353615 L22.0422023,5.43604408 C22.2944068,5.53552407 22.3723686,5.82174615 22.4274844,7.50038378 L22.4801804,9.67453047 L22.5111993,11.6318493 C22.524541,12.67829 22.534633,13.8095666 22.5414845,14.9499166 L22.5520582,17.9376375 L22.5480889,20.5367794 C22.5395036,22.432981 22.5179822,23.8420546 22.4835975,24.1553509 L22.4733221,24.2147905 C22.3479195,24.5447682 22.112063,24.5904447 20.6686874,24.5641461 L20.2960471,24.5551128 L19.959282,24.5410919 C19.5055483,24.5164637 19.2757255,24.4748592 19.1692082,24.4056166 L18.961588,24.2706173 L18.9570324,19.9618683 C18.9470744,18.8227472 18.9187041,18.4137266 18.852102,18.2637347 L18.8304643,18.2253631 C18.7301487,18.0883057 18.6165462,18.0549611 17.6485571,18.0419943 L16.5293983,18.0353228 L15.8690965,18.0438311 C15.3634318,18.0554776 14.9913406,18.0777529 14.918623,18.1049434 C14.5610549,18.238374 13.6096008,19.5181449 13.6096008,19.8655627 C13.6096008,20.0807495 13.9338574,20.0826873 14.1164709,19.8687001 L14.8868802,18.9690125 L18.3174118,18.9114325 L18.3959383,19.1239433 C18.5238324,19.4694234 18.3206414,19.9697419 17.6356793,20.9967698 C17.0936522,21.8094414 15.6515684,23.1836102 14.9572865,23.5490218 L14.0248411,24.0470334 C13.7139876,24.2141677 13.3572125,24.3780521 13.1708769,24.4414478 L13.0701148,24.4701196 L12.0984948,24.7289504 C11.0415696,25.0183268 9.29626814,25.0864262 8.16238504,24.8825894 L7.65808164,24.7895916 C6.66482627,24.5991363 6.25761583,24.4580771 5.26512134,23.930331 L4.52690929,23.5290902 C4.02497593,23.2529208 2.0638824,21.4358958 1.90132935,21.1096131 L1.88133341,21.038093 C1.86331751,20.9925672 1.82055329,20.9258342 1.76669384,20.8592806 L1.630468,20.6997765 C1.13986078,20.0684556 0.383281287,18.2377815 0.127668045,17.0312241 C-0.0605742656,16.1426096 -0.0357521178,13.5821451 0.169838013,12.6942689 C0.580925999,10.9183319 1.56236973,9.10631507 2.76758189,7.89796554 L3.31826222,7.35690346 C4.0249489,6.68352689 4.40524962,6.43454306 5.21519331,6.03418212 L5.85032883,5.72528888 C6.52066805,5.4079573 6.84993245,5.29395998 7.35911278,5.19172226 L7.65782183,5.13597101 Z M27.8192192,5.16116226 C28.7162307,4.96563018 29.2267918,4.95769447 30.0306972,5.12683573 C30.6335917,5.25368013 31.0870645,5.43527715 31.6178002,5.77102929 L31.9694549,6.0027971 C32.3085849,6.21519552 32.4997614,6.22981348 32.7485818,6.06231842 L32.9296924,5.93124335 C33.3249364,5.66956773 34.182709,5.30319755 34.7407228,5.16540694 C35.5443514,4.96710659 36.7855511,5.01915005 37.6068966,5.28573438 C39.3761897,5.86005798 41.0210953,7.80855044 41.175657,9.51325066 L41.1890426,9.7009503 C41.2111918,10.2168008 41.047022,10.3195782 40.0417274,10.3376939 L39.524569,10.34124 L39.1807956,10.3380471 C38.6188861,10.3276447 38.1324525,10.2930414 38.025182,10.2522863 C37.9075701,10.2075194 37.7354516,10.025808 37.5865768,9.79478095 L37.4162911,9.51223701 C37.051064,8.93947815 36.6250607,8.65253422 36.0787196,8.60719612 C34.9783326,8.51602779 34.1995262,9.37779001 34.2989993,10.5767274 C34.3755804,11.5008295 34.8974181,12.0190821 36.6313454,12.8410615 L37.2698214,13.141843 L37.4520205,13.2306599 L37.8085277,13.4087735 C38.0384684,13.5255881 38.2473161,13.6356926 38.401282,13.7219592 L38.6113573,13.8432983 C38.8537519,13.9827837 39.0659162,14.0934963 39.139787,14.118995 L39.2016128,14.136555 C39.4855259,14.2785923 40.6406671,15.6415286 40.9002142,16.1576506 C41.429415,17.2106079 41.6249471,18.9894977 41.351073,20.2608715 C41.0740615,21.5471017 40.3093733,22.8493879 39.4929184,23.4253724 L38.8481972,23.8732807 C38.3068734,24.2402837 38.0469252,24.3818368 37.8090032,24.4533353 L37.5057876,24.5321968 C36.5776534,24.766698 36.2060236,24.8247741 35.6710712,24.8025217 L35.3866523,24.7851463 C34.5598914,24.7223412 33.3590897,24.4524025 33.0393205,24.2660035 L32.8816067,24.150337 C32.5042474,23.9090458 31.8979612,23.9077674 31.5238059,24.147463 L31.3829547,24.2522244 C31.2904475,24.3091118 31.080037,24.3978924 30.8378745,24.4832963 L30.5883189,24.5662685 C30.1049484,24.717216 29.8169586,24.7656992 29.1749146,24.7736088 L28.7428061,24.7739809 L28.3064235,24.7653912 C27.8350629,24.7492403 27.4941026,24.7114677 27.2653434,24.6503007 L26.9305945,24.542786 C26.8472491,24.5166173 26.7646111,24.4917678 26.6913135,24.4708384 L26.5080746,24.4224107 C26.101139,24.3294892 25.2313488,23.7610712 24.7028862,23.2426666 C24.1033713,22.6546862 23.5566382,21.8523495 23.3145069,21.2052205 C23.0931376,20.613549 22.8768435,19.3777014 22.957677,19.1669438 C23.0614717,18.8965198 23.4355645,18.8205063 24.6303967,18.8477202 L25.3647407,18.8713627 L25.6663278,18.8888726 C26.2942334,18.9378976 26.4178362,19.0560981 26.5890121,19.4953962 L26.7264679,19.8560807 C26.9594962,20.4205359 27.2349047,20.7273333 27.7301732,20.9940938 C28.1528879,21.2218301 28.3343941,21.2644614 28.8467085,21.2565257 L29.1261708,21.2462529 C29.3669105,21.2290099 29.5079262,21.185816 29.6972094,21.0713071 L29.9080629,20.9313464 C30.6270747,20.4263218 30.8838778,19.986167 30.9362904,19.1686048 C30.9961773,18.2358826 30.792894,17.5941055 30.2789187,17.0934178 C29.9030431,16.7272589 29.1408195,16.2552634 28.5833402,16.0325443 L28.2380185,15.908964 C27.2946136,15.5531314 25.6228472,14.5668076 25.1219099,14.055796 C24.276665,13.1937569 23.852197,11.9699051 23.852197,10.3950367 C23.852197,8.98469001 24.1627352,7.83670713 24.701392,7.23218126 L24.875645,7.05547013 C24.9566254,6.96988618 25.0207638,6.88154079 25.04318,6.82466482 L25.0628638,6.75184743 C25.172035,6.53632489 26.0625851,5.85207037 26.6123461,5.57308073 C26.8949864,5.42959211 27.4380285,5.24421034 27.8192192,5.16116226 Z M44.0054942,5.55088592 L48.9912413,5.5848428 L49.702624,5.59961718 C50.5368075,5.62411387 50.6825504,5.66595998 50.7696478,5.75311051 L50.7933816,5.7788486 C50.8985688,5.90338401 50.9270497,6.10118017 50.9325264,6.84767167 L50.931531,7.56772473 L50.924211,7.89604375 C50.9090753,8.33621763 50.8747414,8.54688381 50.8144938,8.60719612 C50.7454003,8.67636091 50.3594906,8.71450526 49.3668215,8.73917052 L47.2122281,8.77491165 L46.8367736,8.7849487 C45.6281528,8.82582972 45.4952677,8.93651436 45.4396195,9.4135565 L45.410558,9.74096081 L45.3987739,10.037778 C45.3747618,11.0285391 45.4497198,12.8338687 45.5402026,13.0718608 C45.5856022,13.1912655 45.7176487,13.3114084 45.8336392,13.3389988 L45.9092606,13.3490648 C46.0948537,13.3672465 46.5680359,13.3919787 47.1758533,13.4161412 L49.8691229,13.508681 C50.5262062,13.5400615 50.7129235,13.5761813 50.8053936,13.6546615 L50.8506658,13.7045026 C51.0372472,13.9596448 51.0402,16.5068216 50.85408,16.5783352 L50.7960971,16.5875573 C50.6259539,16.6057416 50.1154976,16.6304877 49.4431642,16.6541676 L46.7126533,16.7367765 L46.2688522,16.7597364 C45.7749321,16.7925798 45.6457646,16.8366161 45.5632715,16.9191092 L45.542644,16.9414433 C45.4305882,17.0736251 45.3992588,17.3148176 45.3748163,18.3508265 L45.3549555,19.5870529 L45.3555559,19.9756702 C45.3656526,20.9848632 45.4499615,21.2363017 45.6811998,21.324256 C45.7701023,21.3580443 46.3834929,21.4013626 47.1907195,21.4351268 L49.0561987,21.4948915 C50.0008287,21.5286759 50.4452534,21.5682398 50.6236256,21.6313725 L50.68134,21.6579248 L50.745917,21.7026387 C50.8499711,21.7874644 50.8784882,21.9111411 50.8861803,22.4560756 L50.8889602,24.4297928 L50.6539342,24.5368325 C50.5208825,24.5975051 48.8321128,24.6334063 47.0211658,24.6410516 L45.2753074,24.6394916 C43.901818,24.6308219 42.7408638,24.603848 42.497321,24.5568563 C42.2719839,24.5133022 42.0305909,24.4010028 41.961015,24.3070662 L41.9458066,24.276481 C41.8950439,24.1356384 41.8700212,23.6211857 41.8656778,22.1419511 L41.8667907,20.656876 L41.9595842,8.73001328 C41.9900265,6.4628931 42.0265094,5.98914437 42.1089852,5.81391532 L42.1319187,5.77347661 L42.200555,5.69387951 L42.2359356,5.66448076 C42.360815,5.57783249 42.6403475,5.55125047 44.0054942,5.55088592 Z M112.32636,5.18644579 C114.668961,5.12600524 116.910152,7.02937492 117.329084,9.43527774 L117.366106,9.6514452 C117.480047,10.3473872 117.402568,10.4240589 116.27634,10.4324808 L115.221916,10.4311507 L114.891701,10.4232255 C114.197971,10.3955343 114.01593,10.2943071 113.805635,9.92754846 L113.603009,9.55055301 C113.074688,8.66848954 112.076767,8.44000584 111.220713,9.02898809 C110.729807,9.36671694 110.49801,9.84212104 110.501055,10.5045679 C110.503916,11.1252139 110.765886,11.625071 111.340118,12.1058271 C111.738208,12.4390542 112.657603,12.9385705 112.983881,13.0092642 L113.095622,13.0258444 C113.325848,13.0836554 114.138353,13.4337428 114.374602,13.5826988 L114.522902,13.6723616 L115.066669,13.9818832 C115.524264,14.2335189 116.864014,15.5513996 116.865306,15.7511763 C116.865652,15.7940845 116.897868,15.8577028 116.943307,15.9111607 L117.042637,16.013636 C117.331903,16.3869843 117.696525,17.9138918 117.696525,18.8120517 C117.696525,20.45585 117.139273,21.8762489 116.089176,22.9099207 C114.701258,24.2759693 112.867556,24.8405117 110.903838,24.5062893 L110.611501,24.4533888 C110.237125,24.3815437 109.939392,24.3079151 109.898495,24.2740315 C109.864415,24.2457951 109.755899,24.1939362 109.623336,24.1404642 L109.412756,24.0617975 C108.83345,23.8622053 108.061749,23.296002 107.507633,22.6639138 C106.999356,22.0841613 106.77533,21.7098824 106.480034,20.90303 L106.27033,20.3256363 L106.192983,20.1388241 C105.937631,19.5627098 105.841142,19.8036832 105.826463,20.891391 L105.795109,23.4853486 C105.779049,24.0362003 105.740204,24.2221541 105.645788,24.3165706 C105.534565,24.4277935 105.323092,24.4545876 104.362186,24.4441332 L102.432288,24.4132754 L102.361974,24.0903107 L102.353912,23.982004 C102.345028,23.7686217 102.33969,23.2646063 102.337775,22.5402893 L102.33796,21.0312804 L102.346844,18.8491544 L102.435952,9.47555286 C102.476652,6.47399271 102.514628,5.96349001 102.606563,5.82543219 L102.642608,5.78466006 C102.758001,5.67341511 102.926129,5.64377437 103.696481,5.63698426 L104.604025,5.63572694 C105.495173,5.6389994 105.676121,5.65977028 105.761149,5.76857655 L105.789738,5.81364333 C105.838499,5.90483012 105.868864,7.27242451 105.880198,9.87584393 L105.885243,19.0366506 L106.139001,18.9657829 C106.474238,18.8721231 108.800323,18.8037469 109.188342,18.876091 C109.403067,18.9161386 109.522657,19.0060151 109.595093,19.1816156 L109.735616,19.5183836 C110.013688,20.1734195 110.135556,20.3675363 110.400732,20.5719145 L110.544886,20.6759274 C110.784526,20.8408239 111.199859,21.0330341 111.467735,21.102979 C111.911673,21.2188773 112.006809,21.2137098 112.541823,21.044384 C113.269694,20.8141563 113.553903,20.5670421 113.920237,19.8463694 C114.182115,19.3310099 114.201585,19.2321827 114.144651,18.7102716 C114.079228,18.109834 113.846785,17.5482445 113.512471,17.1825561 C113.217189,16.8595075 112.51231,16.4299987 111.822606,16.14472 L111.315802,15.9489683 C109.355452,15.1818928 108.283004,14.3667913 107.608952,13.1474346 C107.033429,12.1061962 106.900275,11.5963733 106.900275,10.4335156 C106.900275,8.89122055 107.31773,7.87323567 108.439894,6.6790043 C109.21178,5.85747426 110.139058,5.39581922 111.283368,5.26321912 C111.587878,5.22796983 112.057192,5.19336646 112.32636,5.18644579 Z M72.812906,5.62670245 L73.01649,5.60127574 L73.2058469,5.5937659 C74.3768907,5.5636611 79.0924272,5.62138778 80.180013,5.68151539 L80.3509118,5.69396182 L80.5531805,5.72044244 C81.1406928,5.81518047 81.2386873,6.03777738 81.247018,7.08570379 L81.2476465,7.25812623 C81.2476465,7.83254211 81.2015087,8.40363606 81.1452206,8.52737769 C81.0253102,8.79045186 80.7409328,8.86210353 79.4679324,8.8341608 L78.2323037,8.79548148 L77.8048186,8.78673751 C77.3195906,8.77968749 76.8937337,8.78364437 76.6543485,8.79837081 L76.5088309,8.8118635 L76.280122,8.84883918 C75.8319623,8.93538292 75.7678936,9.1031801 75.7587586,10.3938904 L75.7595778,11.828391 L75.7718433,12.5131632 C75.7883959,13.0298357 75.8203442,13.2555988 75.8742513,13.3095629 C75.9394522,13.3747637 76.352238,13.4206035 77.5024072,13.4680636 L80.6640148,13.5672103 C81.0994652,13.599806 81.2219227,13.8078404 81.2437595,14.6436653 L81.2476465,14.9874109 L81.2431662,15.3777079 C81.2219243,16.2168246 81.1228311,16.5644785 80.8968228,16.6216663 L80.8302318,16.6303957 L77.4052897,16.6679673 C76.6172064,16.6839692 76.0332833,16.7121964 75.9719712,16.7413863 C75.7671193,16.8387972 75.7231654,16.9505816 75.6736842,18.0317281 L75.6343591,19.0873767 L75.6273952,19.5383168 C75.6222102,20.4613536 75.6813301,21.0323013 75.8034759,21.2299503 C75.8633278,21.3267634 76.7116315,21.3985108 78.4721476,21.452404 L80.5224689,21.5009169 L80.678484,21.5106942 C81.1525233,21.5591466 81.1790617,21.7940674 81.1364544,23.0511024 L81.1224784,23.4131657 C81.0908989,24.1184773 81.0479805,24.3294707 80.937139,24.4403122 L80.8962917,24.4733715 C80.7853085,24.5443727 80.5386659,24.5732749 79.6114028,24.5781523 L79.0397353,24.5785519 L75.2499485,24.5410738 L73.6373892,24.5055795 C73.2691033,24.4946312 73.0072266,24.4835321 72.8967009,24.4732546 L72.2507714,24.4132754 L72.2537297,19.3436412 C72.2572294,18.3161951 72.2636457,17.0787884 72.2719607,15.8029551 L72.3308915,9.15462307 L72.3505833,7.91820385 C72.3948412,5.86692741 72.4858608,5.68269679 72.812906,5.62670245 Z M65.3066003,5.61256342 L66.3245429,5.61256342 L68.9941994,5.62799522 C70.3238785,5.64124902 71.3726614,5.66167769 71.4447437,5.68501109 C71.6474041,5.75049219 71.7413363,6.12937021 71.7517002,6.95739631 L71.7510988,7.34015928 L71.7398071,7.90536368 C71.7086366,8.70398344 71.5738091,8.82529341 70.7067951,8.86371464 L69.6047629,8.89741262 C69.0210317,8.9227862 68.8348563,8.96496724 68.7346081,9.06543696 C68.5564328,9.24383504 68.480838,10.072507 68.4446972,12.7777027 L68.3861772,19.3096586 C68.340641,22.6077506 68.2666243,24.281991 68.1625914,24.385685 C67.9958493,24.5518735 65.1603111,24.5572254 64.9946763,24.3915907 L64.9755175,24.3691958 C64.9087197,24.275362 64.8795419,24.0159355 64.8767934,22.3803862 L64.9342192,11.71221 L64.9324606,10.6356747 C64.9233025,9.32926538 64.8836702,9.1633273 64.7939768,9.07374177 L64.7621141,9.04509197 C64.6503047,8.95520113 64.4756749,8.92028087 64.0337228,8.90689859 L63.0361588,8.89416067 C61.887902,8.87747333 61.7825119,8.80432673 61.7768844,8.02033295 L61.7794936,7.33863166 L61.7918405,6.93841454 C61.8259722,6.25590341 61.9231694,5.8560182 62.0807961,5.75384871 C62.1269569,5.72395141 62.4588032,5.68642406 62.8894767,5.65882355 L63.4516205,5.63153287 L63.9198728,5.62196571 C64.2905179,5.61672281 64.7696646,5.61369845 65.3066003,5.61256342 Z M55.703051,5.55095986 L60.770851,5.5429066 L60.9825314,5.75458692 C61.1318703,5.90392582 61.1816991,6.02603971 61.2196104,6.52553588 L61.2471779,6.97723918 L61.2612444,7.30940639 C61.2754918,7.74558523 61.2716679,8.13588905 61.2493002,8.2519349 C61.1795745,8.61388611 60.8195859,8.75467315 59.8774447,8.77123782 L59.5073615,8.77373406 L59.1914712,8.78181368 C58.8706048,8.79715123 58.7029878,8.83525178 58.5457838,8.91788576 L58.325755,9.05155119 C58.234614,9.10998559 58.1704312,9.15442144 58.1656328,9.16334142 L58.0540711,21.2121537 L58.01503,23.2398992 C57.9931077,23.9618383 57.9667456,24.2824447 57.9321766,24.3662723 L57.9211024,24.3849468 C57.7719849,24.533972 54.9199294,24.5578714 54.7724729,24.4113377 L54.7618315,24.3755768 C54.730456,24.1933113 54.7040294,23.3368002 54.6828332,21.8222464 L54.6037329,11.3506706 C54.5793642,9.51794654 54.541949,9.17742184 54.4604888,9.07588646 L54.4239636,9.04152579 C54.306631,8.95127414 54.0657839,8.91129525 53.4098253,8.87996615 L52.3288519,8.83200947 L52.0829634,8.80703977 C51.4954493,8.72472733 51.4353651,8.4974206 51.4688301,7.66475963 L51.5114194,6.84042301 L51.5361813,6.51547619 C51.5942686,5.88779425 51.6872423,5.73492264 51.9330591,5.63582817 L51.9856828,5.62635233 C52.2958124,5.59043304 53.8271902,5.55965931 55.703051,5.55095986 Z M86.5510766,5.48092261 L86.7875697,5.48061877 L87.2066726,5.48753289 L88.264907,5.52202138 L89.3241499,5.54435186 C89.8589179,5.5633964 90.0786423,5.78439195 90.8804854,7.00639828 L92.3486744,9.23904039 L95.6794282,14.2706111 C95.7197597,14.3324018 95.7583231,14.3917562 95.7943547,14.4475061 L96.2022527,15.0933455 L96.778005,15.9786386 L97.1468728,16.5772301 C97.4578564,17.0703489 97.6481128,17.1711139 97.8165686,16.9443927 C97.8994898,16.8326815 97.936541,16.5568617 97.9504402,15.847287 L97.956643,15.2834311 L98.0578969,8.36561331 C98.096984,6.41126186 98.1285078,6.03433417 98.2319435,5.87164057 L98.267981,5.82480868 C98.4086501,5.66929347 98.5178954,5.64042144 99.4185856,5.63592538 L100.331649,5.63772236 L100.624126,5.64393248 C101.00793,5.6567432 101.157597,5.68668617 101.248131,5.75269282 L101.297575,5.79767964 C101.445759,5.9613769 101.516946,6.66961055 101.52414,8.60179475 L101.52107,9.88722801 C101.516397,10.5405949 101.507316,11.2913524 101.494077,12.1525573 L101.308059,21.4547197 L101.268191,22.7174384 C101.224361,23.8679619 101.180138,24.230145 101.116005,24.3371596 L101.08691,24.3691677 C101.017126,24.413237 100.539342,24.450483 99.99003,24.4570964 L99.489038,24.4574612 C98.6481205,24.4506061 98.5000055,24.385847 98.1027198,23.8509694 L96.7933528,22.0353408 C96.5578596,21.7030879 96.3085078,21.342988 96.170648,21.1348141 L94.1823333,18.1379963 L93.7480312,17.491134 L92.366997,15.5122779 L91.9046803,14.8283461 C91.8571594,14.7568479 91.8106461,14.6864437 91.7648655,14.6167295 L91.0476478,13.5056623 L90.6749363,12.9417692 L88.529097,9.78064496 L87.9296056,8.91846835 C87.3575413,8.08275919 86.6810452,7.03896769 86.4677863,6.65724507 L86.3820381,6.49647098 L86.2861963,6.33302041 C86.2241548,6.23450877 86.1689702,6.16172024 86.1395474,6.14352875 C86.0065782,6.06131115 86.0233724,5.56874378 86.1613245,5.50479676 C86.1906256,5.49121094 86.3360563,5.48316822 86.5510766,5.48092261 Z M130.199875,5.17057438 C131.027034,5.05892085 133.244786,5.13477143 133.986406,5.30012938 C134.724073,5.46453382 135.125702,5.59612914 135.843632,5.93868751 L136.479287,6.25290507 L136.824957,6.43239014 C137.342844,6.71188674 137.610925,6.92527862 138.249311,7.55438553 L138.781509,8.08583875 L139.107514,8.42063485 C139.560009,8.89680985 139.851174,9.25951176 140.021145,9.55751835 L140.18977,9.87870978 C140.286836,10.0607271 140.379622,10.2228565 140.434808,10.3060064 L140.513501,10.4189252 C140.743426,10.7888117 141.11493,11.8274183 141.219893,12.4174419 L141.285239,12.7665747 L141.346625,13.054713 C141.486039,13.6575787 141.601525,13.7802096 141.751955,13.5478186 C141.783541,13.4990544 141.822991,12.4706397 141.851066,11.0711651 L141.912849,7.21219005 L141.929819,6.70732083 C141.959117,6.04651062 142.004084,5.92929366 142.094666,5.82923791 L142.151483,5.77267304 C142.258188,5.6805392 142.396591,5.64959549 142.859178,5.63964392 L143.715861,5.63583901 L144.101653,5.64263087 C144.916301,5.6687266 145.159535,5.77458416 145.405145,6.12873867 L145.574683,6.38344714 L147.325169,8.88869024 C147.386394,8.97778554 147.440914,9.05769794 147.486759,9.12558086 L148.508968,10.663571 C148.870863,11.1993976 149.384486,11.9575609 150.126523,13.0520215 L150.939096,14.2659898 L151.259535,14.7632169 L151.658966,15.3540907 C152.149984,16.0622627 152.683535,16.7742051 152.786922,16.8379066 C152.911679,16.9146799 152.970181,16.9082206 153.030899,16.8110544 C153.063418,16.7588859 153.094059,15.4311073 153.110006,13.5861588 L153.133843,9.09982284 C153.148158,7.55441496 153.172078,6.39648282 153.197984,6.11100619 L153.206222,6.05042263 C153.327863,5.60393854 153.545267,5.53101124 154.900318,5.57297597 L155.767835,5.60872561 L156.046071,5.62807098 C156.407063,5.65940517 156.527656,5.70297671 156.586371,5.78328464 L156.603125,5.82226315 C156.665397,6.03166625 156.70577,6.94398982 156.742252,9.0107457 L156.788117,12.4266795 L156.809211,15.115813 C156.814227,16.0016027 156.817245,16.8686916 156.818317,17.6927422 L156.816027,19.9373775 C156.807404,22.2859075 156.778509,23.9230635 156.731152,23.998035 C156.671096,24.0930021 156.462117,24.1258112 155.661795,24.1341096 L153.570527,24.1364485 L153.21222,23.7212081 C152.97262,23.4434321 152.653099,23.0109041 152.029722,22.1107178 L148.377586,16.7732457 L148.136757,16.3989882 L147.852106,15.9839468 C147.662266,15.7149633 147.432734,15.4000983 147.229218,15.1299854 L146.843143,14.6323504 L146.739857,14.4859619 C146.711567,14.4422387 146.690428,14.405149 146.679479,14.379375 L146.663225,14.3183187 C146.64795,14.2799239 146.611702,14.2227802 146.566098,14.1651847 L146.450349,14.0267118 C146.403499,13.9661098 146.35474,13.8955189 146.315157,13.8309952 L146.2111,13.6507506 C146.077776,13.453732 145.881151,13.3510292 145.729035,13.4094051 C145.669666,13.4321872 145.63201,13.5562876 145.601936,13.9527815 L145.576536,14.3877913 L145.527874,15.8463125 L145.502779,17.0569796 C145.488058,17.9623622 145.477803,19.0205737 145.47472,19.9693325 L145.475057,22.0567585 L145.466324,22.8985914 C145.455078,23.5046434 145.433845,23.8740981 145.402134,24.0226422 L145.383278,24.0828364 C145.305397,24.228189 145.237674,24.2638738 144.527229,24.2723336 L143.338839,24.2733097 L143.025283,24.2670653 C142.168649,24.2378747 142.043613,24.0994272 141.982383,23.4429094 L141.951926,23.0302593 L141.923988,22.2075122 C141.91203,21.7240597 141.901107,21.1056611 141.892909,20.4407297 L141.867188,17.721471 C141.840713,16.0416508 141.778825,15.6932272 141.60256,15.6932272 C141.564451,15.6932272 141.498152,15.8760657 141.445577,16.1172421 L141.323429,16.7388023 C141.129539,17.681628 140.965555,18.1455447 140.585037,18.9228747 L140.467097,19.1627496 C139.978817,20.1502322 139.771941,20.4849429 139.264807,21.0602579 L139.007308,21.3461254 C137.72523,22.7476078 136.270228,23.5655391 133.937038,24.1962431 C132.383292,24.6162291 129.488641,24.3210266 127.931619,23.6099509 L127.616452,23.4537955 L127.477851,23.3927155 C127.435702,23.3759811 127.399013,23.3634398 127.37202,23.356794 L127.300604,23.342661 C127.025359,23.2472967 125.830849,22.3990007 125.211915,21.8517036 C123.662005,20.4807925 122.524601,18.2954227 122.289485,16.2684546 L122.237311,15.7001985 L122.209029,15.4722082 C122.174292,15.2428581 122.132996,15.1395734 122.080264,15.1395734 C122.015302,15.1395734 121.933823,15.2745727 121.899127,15.4394692 L121.89076,15.5103921 C121.866335,15.8009332 121.836247,16.8354458 121.811968,18.1659178 L121.737552,23.9332575 L121.451055,24.218135 L121.379443,24.2753908 C121.254924,24.357367 121.081935,24.3747375 120.520869,24.3671826 L119.477752,24.3442616 C118.632165,24.3209181 118.434912,24.2936275 118.323069,24.1844754 L118.281553,24.136264 L118.265958,24.1081025 C118.198677,23.9500808 118.170158,23.3378696 118.166697,20.9873008 L118.222773,5.88054317 L118.473905,5.67854901 C118.599172,5.58733765 118.735532,5.55277573 119.163096,5.54693966 L119.758516,5.55062573 L120.374332,5.56480284 L120.727099,5.57967009 C121.421569,5.61718753 121.676553,5.69154094 121.7764,5.8486158 C121.800023,5.88569641 121.821199,6.56530379 121.834188,7.56900103 L121.858939,11.9801298 C121.868464,12.8768982 121.883129,13.5457687 121.899743,13.7697496 L121.90734,13.8397787 C121.993329,14.269985 122.132927,14.1438341 122.247058,13.5511968 L122.340773,13.0382807 C122.645535,11.5052759 123.189361,10.2046153 124.043521,8.95710536 C124.506375,8.28100173 126.153126,6.7722027 126.739538,6.48697869 L126.943121,6.38255727 C127.010021,6.34669665 127.070577,6.31267 127.108641,6.28913972 L127.319572,6.16599776 C128.134024,5.71523072 129.3744,5.28197415 130.199875,5.17057438 Z M184.123688,5.57870918 L184.706064,5.57897461 L185.961923,5.58981966 C187.388733,5.60831712 187.569475,5.63741691 187.932684,5.81105961 L188.05227,5.87272126 C188.27656,5.99801006 188.412939,6.13634443 188.486338,6.31027084 C188.496884,6.33526449 188.506554,6.37502003 188.515403,6.43390362 L188.528069,6.53712083 L188.54027,6.68253382 C188.565277,7.03986748 188.581121,7.68129858 188.590141,8.78872885 L188.584519,23.2622291 L188.254911,23.6643663 C188.010657,23.9625089 187.822876,24.0916948 187.529624,24.1635776 L187.426596,24.1751832 C186.697694,24.2276987 182.565677,24.2571171 177.986777,24.26014 L175.383501,24.2590347 C172.150297,24.2541657 168.969188,24.2361946 166.838723,24.2040072 L164.815158,24.164013 L163.70546,24.13206 C162.474162,24.0852229 162.157011,24.0117743 161.805428,23.7955684 L161.600538,23.6600294 C161.22986,23.4050164 161.117692,23.1571575 161.04474,22.337196 L161.025761,22.0901039 L161.004784,21.291239 C160.983378,20.0042303 160.970834,17.5429308 160.967722,15.0188554 L160.975903,9.87994364 C160.984635,8.22938505 160.999828,7.06342686 161.021785,6.97317905 C161.127831,6.53766641 161.595239,6.09751487 162.08834,5.94992845 L162.234379,5.91594684 L162.543412,5.89644965 C163.262131,5.86470566 165.061139,5.82697191 167.523397,5.79083074 L183.073823,5.60114749 L183.430036,5.58646818 L184.123688,5.57870918 Z M171.197297,8.68443084 L167.338514,8.69411978 L167.002895,8.97770243 C166.837365,9.12472972 166.798289,9.21344603 166.789552,9.559447 L166.78783,9.96110958 C166.796798,10.7462745 166.907192,10.886492 167.735824,10.948286 L168.42922,10.9907815 C168.874582,11.025235 168.96107,11.072303 169.061023,11.2249638 L169.08791,11.2772009 C169.150215,11.4310636 169.17631,11.7807371 169.180098,12.8051534 L169.17972,13.5285701 L169.140196,18.5450982 L168.787887,18.9058037 C168.385566,19.3176299 167.952608,19.4765286 167.232397,19.4765286 C166.430291,19.4765286 166.201393,19.1766417 166.753695,18.9071725 L166.957941,18.8119616 C167.344362,18.600627 167.524665,18.1992876 167.525003,17.5571952 C167.525741,16.4107626 166.848807,15.7835651 165.615266,15.787533 C164.832584,15.7900244 164.37868,15.9862024 163.867935,16.54244 C163.487944,16.9563885 163.279032,17.5350491 163.28172,18.1661222 C163.283276,18.496469 163.49265,19.269462 163.67434,19.614942 C163.870888,19.9887507 164.616013,20.6854318 165.133311,20.9791451 C166.117615,21.5377819 167.794171,21.7735461 169.667551,21.6166775 L170.200153,21.56651 C170.641135,21.5163516 170.845005,21.456586 171.151439,21.3005041 L171.37465,21.1812288 C171.719023,20.9916023 172.139339,20.706932 172.308757,20.5486793 L172.481978,20.3828355 C173.303471,19.5722073 173.468353,18.9832684 173.542085,16.0434782 L173.598997,13.2857635 C173.619904,12.4738397 173.643286,11.8383569 173.662755,11.5774158 L173.67582,11.4577753 C173.78692,10.9887382 173.955785,10.8948938 174.688915,10.8948938 L174.942217,10.8930255 C175.267914,10.8863181 175.366131,10.8570789 175.462069,10.7383451 L175.528162,10.645196 C175.638892,10.4762393 175.702286,10.164809 175.72434,9.68156143 L175.757005,8.96753251 L175.40645,8.82109106 C175.189285,8.73032969 174.830952,8.6951225 173.41365,8.68558984 L171.197297,8.68443084 Z M185.55917,18.7078725 C185.16746,18.5211066 184.305513,18.4377817 183.882522,18.5459287 C183.463867,18.6528762 182.94943,19.0690393 182.86952,19.3653364 C182.784903,19.6789813 182.782504,20.3726173 182.864813,20.6761119 C182.899878,20.8052978 183.101408,21.0195619 183.322777,21.1629582 C184.388007,21.8533646 185.706073,21.6679828 186.167912,20.7627588 C186.545412,20.0228927 186.254006,19.0392343 185.55917,18.7078725 Z M184.219881,13.468277 C183.758964,12.8209633 182.736181,12.550688 181.650743,12.7894973 C181.365484,12.8522332 181.093013,12.9376473 180.994425,12.9929475 L180.909816,13.0541642 C180.748618,13.1430287 180.430217,13.115497 180.116349,12.9864404 L179.893333,12.8823804 L179.795197,12.8447164 C179.572195,12.7712461 179.257989,12.748861 178.388794,12.7426198 L176.672675,12.7424918 C175.04846,12.7556454 174.921685,12.8517067 174.910086,13.5527772 L174.910597,13.8646062 C174.927919,14.4100015 175.074577,14.6026912 175.542548,14.6950812 L175.767925,14.7336537 C175.953078,14.768351 176.126954,14.8170393 176.182857,14.8519502 C176.379824,14.9747607 176.457366,15.5019825 176.471501,16.9196054 L176.471464,18.2949019 C176.46324,18.9703539 176.431892,19.1241636 176.323945,19.2667323 L176.268489,19.3335936 C176.153298,19.4648557 175.980051,19.5608736 175.749601,19.6212202 L175.495886,19.6750009 C175.0161,19.7822845 174.907423,19.9720672 174.907423,20.6014609 C174.907423,21.0144867 174.949778,21.1798447 175.091975,21.3220414 L175.142785,21.3673862 L175.193523,21.3989347 C175.327912,21.466352 175.596784,21.4916493 176.472286,21.5010744 L179.831299,21.5062234 C181.783758,21.4987195 181.917947,21.4258915 181.921792,20.8244898 L181.914046,20.2928721 C181.884968,19.8055952 181.745159,19.6785015 181.283674,19.6628313 L181.054832,19.6582352 C180.496547,19.6294073 180.299124,19.3757809 180.223515,18.6396808 C180.022021,16.6800025 180.759629,14.6425235 181.294794,15.5732596 L181.397883,15.762525 C181.51326,15.9416999 181.716843,16.1571123 181.896011,16.282684 C182.23577,16.521032 182.360712,16.5548049 182.852449,16.5412404 C183.771791,16.5158646 184.312711,16.0769094 184.509811,15.1961384 C184.639459,14.6170164 184.516547,13.8849015 184.219881,13.468277 Z M34.2213955,15.6933192 C34.1641846,15.6932272 34.0673875,15.7534832 34.0062087,15.8272115 C33.8835744,15.9749448 33.9320191,16.2071103 34.1899295,16.7082593 C34.4631577,17.2393056 34.5905904,18.3422764 34.5210145,19.5737871 L34.4904141,20.1793068 L34.4875452,20.4307579 C34.4944749,20.7064888 34.5472838,20.7678969 34.6802823,20.9008954 C35.3560168,21.5766299 36.970656,21.1198655 37.562512,20.0857324 C37.7958771,19.6779663 37.8314955,19.5222973 37.8284504,18.9228747 C37.824298,18.1182311 37.5767224,17.5137334 37.0683759,17.0673961 C36.6113347,16.6661816 34.5961269,15.6934118 34.2213955,15.6933192 Z M131.052779,8.58311218 C129.573508,8.78621087 128.018479,9.67833178 127.146105,10.8242107 C126.23073,12.0266546 125.812353,13.2267916 125.788915,14.7170432 C125.768614,16.0065953 126.103113,17.1987966 126.760485,18.1799635 C127.157178,18.7721886 128.109924,19.7358231 128.492775,19.9320934 L129.139352,20.2757522 C129.173287,20.2942167 129.206005,20.3120968 129.236886,20.3290632 C129.761289,20.6171478 131.162125,20.9529389 131.839336,20.9529389 C132.459613,20.9529389 133.641295,20.7171746 134.181292,20.4857473 C135.517628,19.9129001 136.999482,18.4348289 137.442036,17.2334923 C138.393121,14.651343 137.838545,12.0823891 135.940804,10.2798767 C134.632981,9.03747744 132.679967,8.35962058 131.052779,8.58311218 Z M18.5923932,12.2790285 C18.5135744,12.2790285 18.4189278,12.3625892 18.3491443,12.4881118 L18.3105834,12.5681281 C18.2578755,12.6953208 18.1550878,12.8735383 18.0596231,13.0077706 L17.9902946,13.098713 C17.6929825,13.456558 17.3006264,14.1978082 17.3006264,14.4013683 C17.3006264,14.6458987 17.5745006,14.7710245 18.1019481,14.767518 L18.3021833,14.7618781 C18.8477743,14.7296389 18.9138723,14.5350572 18.9470085,13.5175522 L18.954293,13.1926165 C18.961004,12.4569065 18.8766293,12.2790285 18.5923932,12.2790285 Z M28.519499,8.63718571 C27.794397,8.88651449 27.3576564,9.55329828 27.3603858,10.4067557 C27.3628353,11.1482828 27.6422451,11.5961731 28.4176453,12.0631999 L28.591474,12.1636839 L28.9636305,12.363417 C29.1530593,12.46106 29.3036577,12.5316224 29.3656474,12.5506996 L29.3900274,12.5558554 C29.4285756,12.5558554 29.5024711,12.5799394 29.5741866,12.614015 L29.6437855,12.6508993 C29.9353765,12.8240084 30.8042439,13.0917001 30.9244791,13.0455622 C31.1375436,12.963806 31.1466788,12.6906701 30.9547455,12.1344325 C30.85558,11.8470247 30.7569248,11.2947379 30.7022662,10.7353789 L30.644434,10.0665416 L30.603529,9.67791345 C30.5814799,9.49108925 30.5614499,9.36061835 30.5479022,9.3259311 C30.4549806,9.08785995 29.6372339,8.60913391 29.2434014,8.56235016 C29.0366117,8.53771257 28.7108787,8.57148545 28.519499,8.63718571 Z" id="Shape"></path>
            </g>
        </g>
    </g>
</svg>