<?xml version="1.0" encoding="UTF-8"?>
<svg width="64.8805321px" height="30px" viewBox="0 0 64.8805321 30" version="1.1" xmlns="http://www.w3.org/2000/svg" xmlns:xlink="http://www.w3.org/1999/xlink">
    <title>chip8</title>
    <g id="Page-1" stroke="none" stroke-width="1" fill="none" fill-rule="evenodd">
        <g id="System" transform="translate(-67.559734, 0.000000)" fill="#000000">
            <g id="chip8" transform="translate(67.559734, 0.000000)">
                <line x1="32.4402661" y1="30" x2="32.4402661" y2="0" id="Path" stroke="#979797" fill-rule="nonzero"></line>
                <path d="M12.659616,3.13103518 L12.659616,4.71348718 L1.582452,4.71348718 L1.58213551,25.2863127 L12.659616,25.2865128 L12.659616,26.8689648 L0,26.8689648 L0,3.13103518 L12.659616,3.13103518 Z M28.4841361,26.8689648 L26.9016841,26.8689648 L26.9016841,15.7909677 L17.4066555,15.7909677 L17.406972,26.8689648 L15.82452,26.8689648 L15.82452,3.13103518 L17.406972,3.13103518 L17.406972,14.2085157 L26.9016841,14.2085157 L26.9016841,3.13103518 L28.4841361,3.13103518 L28.4841361,26.8689648 Z M49.0560121,15.791226 L37.9788481,15.7909677 L37.9788481,26.8689648 L36.3963961,26.8689648 L36.3963961,3.13103518 L49.0560121,3.13103518 L49.0560121,15.791226 Z M47.4735601,4.71348718 L37.9788481,4.71348718 L37.9788481,14.2085157 L47.4735601,14.2085157 L47.4735601,4.71348718 Z M52.2209161,26.8689648 L52.2209161,3.13103518 L64.8805321,3.13103518 L64.8805321,26.8689648 L52.2209161,26.8689648 Z M63.2980801,15.7909677 L53.8033681,15.7909677 L53.8033681,25.2863127 L63.2980801,25.2863127 L63.2980801,15.7909677 Z M63.2980801,4.71348718 L53.8033681,4.71348718 L53.8033681,14.2085157 L63.2980801,14.2085157 L63.2980801,4.71348718 Z M31.6490401,26.8689648 L31.6490401,3.13103518 L33.2314921,3.13103518 L33.2314921,26.8689648 L31.6490401,26.8689648 Z" id="Shape"></path>
            </g>
        </g>
    </g>
</svg>