<?xml version="1.0" encoding="UTF-8" standalone="no"?>
<!-- Generator: Gravit.io -->
<svg xmlns="http://www.w3.org/2000/svg" xmlns:xlink="http://www.w3.org/1999/xlink" style="isolation:isolate" viewBox="0 0 1500 600" width="1500pt" height="600pt"><defs><clipPath id="_clipPath_WssZzkK0PyCMz35Nt9K3v3E22Mo0Yl7l"><rect width="1500" height="600"/></clipPath></defs><g clip-path="url(#_clipPath_WssZzkK0PyCMz35Nt9K3v3E22Mo0Yl7l)"><g style="isolation:isolate"><path d=" M 442 217 L 522 217 L 522 237 L 532 237 L 532 217 L 632 217 L 632 237 L 662 237 L 662 217 L 762 217 L 762 237 L 782 237 L 782 357 L 762 357 L 762 377 L 662 377 L 662 357 L 632 357 L 632 377 L 532 377 L 532 357 L 522 357 L 522 377 L 462 377 L 462 297 L 402 297 L 402 257 L 422 257 L 422 237 L 442 237 L 442 217 Z  M 542 367 L 542 347 L 522 347 L 522 247 L 542 247 L 542 227 L 622 227 L 622 247 L 642 247 L 642 347 L 622 347 L 622 367 L 542 367 L 542 367 L 542 367 Z  M 672 367 L 672 347 L 652 347 L 652 247 L 672 247 L 672 227 L 752 227 L 752 247 L 772 247 L 772 347 L 752 347 L 752 367 L 672 367 L 672 367 L 672 367 Z  M 412 287 L 412 267 L 432 267 L 432 247 L 452 247 L 452 227 L 512 227 L 512 367 L 472 367 L 472 267 L 452 267 L 452 287 L 412 287 L 412 287 Z " fill-rule="evenodd" fill="rgb(255,0,0)" fill-opacity="0.4"/><path d=" M 32 217 L 32 237 L 12 237 L 12 357 L 32 357 L 32 377 L 192 377 L 192 337 L 232 337 L 232 377 L 292 377 L 292 357 L 302 357 L 302 377 L 422 377 L 422 337 L 345 337 L 342 217 L 302 217 L 302 237 L 292 237 L 292 217 L 232 217 L 232 257 L 192 257 L 192 217 L 32 217 Z  M 132 227 L 42 227 L 42 247 L 22 247 L 22 347 L 42 347 L 42 367 L 132 367 L 132 347 L 62 347 L 62 307 L 112 307 L 112 287 L 62 287 L 62 247 L 132 247 L 132 227 L 132 227 L 132 227 L 132 227 L 132 227 Z  M 72 257 L 132 257 L 132 277 L 152 277 L 152 317 L 132 317 L 132 337 L 72 337 L 72 317 L 122 317 L 122 277 L 72 277 L 72 257 L 72 257 L 72 257 L 72 257 L 72 257 Z  M 142 227 L 182 227 L 182 267 L 202 267 L 202 287 L 222 287 L 222 267 L 242 267 L 242 227 L 282 227 L 282 267 L 262 267 L 262 287 L 242 287 L 242 307 L 262 307 L 262 327 L 282 327 L 282 367 L 242 367 L 242 327 L 222 327 L 222 307 L 202 307 L 202 327 L 182 327 L 182 367 L 142 367 L 142 327 L 162 327 L 162 307 L 182 307 L 182 287 L 162 287 L 162 267 L 142 267 L 142 227 L 142 227 L 142 227 L 142 227 Z  M 272 277 L 282 277 L 282 317 L 272 317 L 272 277 L 272 277 L 272 277 Z  M 312 227 L 332 227 L 332 347 L 412 347 L 412 367 L 312 367 L 312 347 L 292 347 L 292 247 L 312 247 L 312 227 L 312 227 Z " fill-rule="evenodd" fill="rgb(255,0,0)" fill-opacity="0.4"/><path d=" M 692 247 L 732 247 L 732 347 L 692 347 L 692 247 Z  M 702 257 L 722 257 L 722 337 L 702 337 L 702 257 Z " fill-rule="evenodd" fill="rgb(255,0,0)" fill-opacity="0.4"/><path d=" M 562 247 L 602 247 L 602 347 L 562 347 L 562 247 Z  M 572 257 L 592 257 L 592 337 L 572 337 L 572 257 Z " fill-rule="evenodd" fill="rgb(255,0,0)" fill-opacity="0.4"/></g></g></svg>