<?xml version="1.0" encoding="UTF-8"?>
<svg width="68.5844516px" height="30px" viewBox="0 0 68.5844516 30" version="1.1" xmlns="http://www.w3.org/2000/svg" xmlns:xlink="http://www.w3.org/1999/xlink">
    <title>fbneo copy</title>
    <g id="Page-1" stroke="none" stroke-width="1" fill="none" fill-rule="evenodd">
        <g id="System" transform="translate(-93.476791, 0.000000)" fill="#000000">
            <g id="fbneo-copy" transform="translate(93.476791, 0.000000)">
                <line x1="6.52320939" y1="30" x2="6.52320939" y2="0" id="Path" stroke-opacity="0" stroke="#000000" fill-rule="nonzero"></line>
                <path d="M17.2554171,7.09235045 C20.0626756,7.09235045 22.3384082,9.36597774 22.3384082,12.1706391 L22.3384082,25 L17.522943,25 L17.522943,12.7051958 C17.522943,11.8933202 16.8641783,11.2351649 16.0515508,11.2351649 L4.81546524,11.2351649 L4.81546524,25 L0,25 L0,7.09235045 L17.2554171,7.09235045 Z M43.0152819,7.09235045 L43.0152819,11.2351649 L28.7179519,11.2351649 L28.7179519,13.9079484 L42.3471824,13.9079484 L42.3471824,18.0507629 L28.7179519,18.0507629 L28.7179519,20.8571856 L43.0152819,20.8571856 L43.0152819,25 L23.9076352,25 L23.9076352,7.09235045 L43.0152819,7.09235045 Z M63.6340745,7.09235045 C66.3680923,7.09235045 68.5844516,9.30614544 68.5844516,12.037 L68.5844516,20.0553505 C68.5844516,22.786205 66.3680923,25 63.6340745,25 L49.719501,25 C46.9854832,25 44.7691239,22.786205 44.7691239,20.0553505 L44.7691239,12.037 C44.7691239,9.30614544 46.9854832,7.09235045 49.719501,7.09235045 L63.6340745,7.09235045 Z M62.2265568,11.2461867 L51.0347112,11.2461867 C50.2252834,11.2461867 49.5691124,11.9028342 49.5691124,12.7128499 L49.5691124,19.3795006 C49.5691124,20.1895163 50.2252834,20.8461638 51.0347112,20.8461638 L62.2265568,20.8461638 C63.0359847,20.8461638 63.6921556,20.1895163 63.6921556,19.3795006 L63.6921556,12.7128499 C63.6921556,11.9028342 63.0359847,11.2461867 62.2265568,11.2461867 Z" id="Shape"></path>
            </g>
        </g>
    </g>
</svg>