<?xml version="1.0" encoding="UTF-8" standalone="no"?><!-- Generator: Gravit.io --><svg xmlns="http://www.w3.org/2000/svg" xmlns:xlink="http://www.w3.org/1999/xlink" style="isolation:isolate" viewBox="0 0 1920 1080" width="1920pt" height="1080pt"><defs><clipPath id="_clipPath_O1c3kA352B5gy6qAxOBJqyv2AxFoOKDb"><rect width="1920" height="1080"/></clipPath></defs><g clip-path="url(#_clipPath_O1c3kA352B5gy6qAxOBJqyv2AxFoOKDb)"><rect x="1662" y="533" width="120" height="24" transform="matrix(0,1,-1,0,2267,-1177)" fill="rgb(255,26,26)" fill-opacity="0.58"/><rect x="1710" y="533" width="120" height="24" transform="matrix(0,1,-1,0,2315,-1225)" fill="rgb(255,26,26)" fill-opacity="0.58"/><path d=" M 1920 485 L 1710 485 L 1710 509 L 1896 509 L 1896 533 L 1710 533 L 1710 557 L 1896 557 L 1896 581 L 1710 581 L 1710 605 L 1920 605 L 1920 485 Z " fill="rgb(255,26,26)" fill-opacity="0.58"/><path d=" M 726 581 L 726 557 L 912 557 L 912 533 L 726 533 L 726 509 L 912 509 L 912 485 L 702 485 L 702 605 L 912 605 L 912 581 L 726 581 Z  M 1638 557 L 1595 557 L 1595 533 L 1662 533 L 1662 605 L 1452 605 L 1452 485 L 1662 485 L 1662 509 L 1476 509 L 1476 581 L 1638 581 L 1638 557 Z  M 186 557 L 143 557 L 143 533 L 210 533 L 210 605 L 0 605 L 0 485 L 210 485 L 210 509 L 24 509 L 24 581 L 186 581 L 186 557 Z  M 1098 485 L 1074 485 L 1074 533 L 960 533 L 960 485 L 936 485 L 936 605 L 960 605 L 960 557 L 1122 557 L 1122 605 L 1146 605 L 1146 533 L 1098 533 L 1098 485 Z  M 258 509 L 420 509 L 420 533 L 258 533 L 258 509 Z  M 1218 485 L 1218 605 L 1242 605 L 1242 509 L 1404 509 L 1404 605 L 1428 605 L 1428 485 L 1218 485 Z  M 468 485 L 468 605 L 492 605 L 492 509 L 561 509 L 561 605 L 585 605 L 585 509 L 654 509 L 654 605 L 678 605 L 678 485 L 468 485 Z  M 1194 605 L 1170 605 L 1170 485 L 1194 485 L 1194 605 Z  M 258 605 L 234 605 L 234 485 L 444 485 L 444 605 L 420 605 L 420 557 L 258 557 L 258 605 Z " fill-rule="evenodd" fill="rgb(255,26,26)" fill-opacity="0.58"/></g></svg>