<?xml version="1.0" encoding="UTF-8"?>
<svg width="111.777468px" height="30px" viewBox="0 0 111.777468 30" version="1.1" xmlns="http://www.w3.org/2000/svg" xmlns:xlink="http://www.w3.org/1999/xlink">
    <title>genesis cdx</title>
    <g id="Page-1" stroke="none" stroke-width="1" fill="none" fill-rule="evenodd">
        <g id="System" transform="translate(-44.111266, 0.000000)" fill="#000000">
            <g id="genesis-cdx" transform="translate(44.111266, 0.000000)">
                <line x1="55.888734" y1="30" x2="55.888734" y2="0" id="Path" stroke="#979797" fill-rule="nonzero"></line>
                <path d="M81.1003884,22.2143751 C81.1226195,22.2229068 81.3118523,22.4450231 81.5208786,22.7079941 C83.2956887,24.9407363 85.2164636,26.9143833 86.7181379,28.0483419 C87.3188417,28.5019594 88.0148078,28.9146249 88.502479,29.1063684 C89.0028258,29.3031091 89.4989068,29.3631965 89.8627466,29.2711518 C90.2503533,29.1730862 90.5123979,28.949361 90.7036296,28.5532714 C90.8750921,28.1981339 90.9519991,27.8269324 90.9769117,27.2341997 C91.0103703,26.4382163 90.8440098,25.2315188 90.543105,24.000433 L91.629244,24.000542 C91.7067237,24.3823907 91.7775356,24.7757217 91.8260338,25.1118087 C92.2441595,28.009218 91.76424,29.6927634 90.4437057,29.9610727 C89.9222734,30.0670119 89.1673655,29.9536867 88.425767,29.6581004 C86.6077866,28.9335165 84.3900602,27.0029666 82.117146,24.1663761 C81.4340261,23.3138413 80.7226541,22.3469088 80.7226541,22.2709524 C80.7226541,22.2466736 80.7418626,22.2217855 80.7653125,22.2156427 C80.8324935,22.1980918 81.0557555,22.1972386 81.1003884,22.2143751 Z M92.8446952,3.88376968 C94.5515708,3.88611049 94.5427676,3.91227075 94.7345039,4.19930031 L94.8384571,4.35490953 L94.8384571,23.011897 L94.7345039,23.1675062 C94.5501266,23.4435464 94.7386112,23.4791924 92.0047661,23.4831065 L89.1267055,23.4830913 C86.5240966,23.4810268 85.0419581,23.4641621 84.8242386,23.4343958 C83.9424683,23.313865 83.155767,22.924384 82.5180348,22.2927424 C81.8841493,21.664856 81.5398215,21.0388471 81.3693291,20.2042908 C81.3653695,20.184908 81.361587,20.1659618 81.357975,20.1470138 L81.3428495,20.0602562 C81.3070215,19.8309507 81.2924228,19.5144598 81.2889478,18.4441886 L81.2889338,17.0257492 C81.2898592,16.5158793 81.2914894,15.914712 81.2935395,15.2034554 L81.3066824,10.6380785 L81.4328001,10.2352256 C81.6674962,9.48566352 82.0058249,8.93365834 82.5489918,8.41425874 C83.0395409,7.94518714 83.506506,7.66295652 84.1225775,7.46329312 C84.6544789,7.29087736 84.9514095,7.27288018 87.2709395,7.27255962 L89.5263116,7.27219327 L89.5266844,5.27871069 C89.5287583,4.36477682 89.5423004,4.3309918 89.6302648,4.19930031 C89.6874162,4.11371065 89.805932,4.00765092 89.8935824,3.96364255 C90.0210885,3.89956708 90.1973919,3.88623814 91.5572,3.88396189 Z M99.3661104,7.27296409 C100.82311,7.27620005 101.105841,7.291164 101.266016,7.345739 C101.662595,7.48087815 101.892391,7.75472841 102.85247,9.2367254 C103.343614,9.99485098 103.757229,10.6151355 103.771562,10.6151813 C103.785942,10.6151813 104.201938,9.99182855 104.696059,9.22990204 L104.794621,9.07851855 C105.252836,8.37748892 105.679392,7.76295307 105.769021,7.67678641 C105.865006,7.58451078 106.036322,7.46086602 106.149663,7.40202027 L106.355738,7.29509044 L108.976366,7.28254279 C109.39223,7.28055591 109.742159,7.27892284 110.036985,7.27796372 L110.879038,7.27797548 C111.484854,7.28178114 111.603973,7.29781826 111.662202,7.3386688 L111.689681,7.36268292 C111.821981,7.49498281 111.804625,7.67573314 111.632118,7.96181049 C111.623262,7.97649085 111.602571,8.0093757 111.571111,8.05881679 L111.494147,8.17928559 C111.146497,8.72195932 110.207601,10.1731857 109.157528,11.7902188 L106.83319,15.3694599 L109.30778,19.1807869 C111.976995,23.2918379 111.918195,23.1867399 111.661701,23.388464 L111.649994,23.3974988 C111.646116,23.4004106 111.64223,23.4032237 111.638246,23.4059415 L111.612429,23.4211309 C111.508054,23.472827 111.26729,23.4816175 109.91407,23.4830987 L108.328262,23.4831233 C106.277945,23.4805285 106.247761,23.4532305 105.884514,23.1661324 C105.70587,23.0249484 105.466778,22.6927561 104.731275,21.5642 C104.220942,20.7811165 103.787819,20.1404076 103.768769,20.1404076 C103.749718,20.1404076 103.325113,20.7712249 102.82513,21.5422645 C101.851634,23.0435409 101.694239,23.2301071 101.266153,23.3902958 C101.257907,23.3933798 101.249816,23.3963618 101.241782,23.3992452 L101.193447,23.4153891 C101.029239,23.4654367 100.807507,23.4787286 99.7294608,23.4821981 L99.3795589,23.4829712 C99.3166941,23.4830599 99.2514888,23.4831308 99.1838431,23.4831872 L97.6320501,23.4831465 C97.5692415,23.4830857 97.5088183,23.4830099 97.4506838,23.4829157 L97.1285669,23.4820996 C95.9931303,23.4778981 95.9660332,23.4600803 95.869975,23.3845257 C95.7624956,23.2999893 95.7475666,23.2607893 95.7672124,23.1143848 C95.7842937,22.9868933 96.4171717,21.9776773 98.2472974,19.1595841 C99.7585112,16.8324522 100.691388,15.3542562 100.670643,15.3196357 C100.652051,15.2886329 99.6064739,13.6765341 98.3471291,11.7371431 C97.0877843,9.79775207 95.9892235,8.09882721 95.9058777,7.96181049 C95.7325919,7.676878 95.7144115,7.49530337 95.8459329,7.36378198 C95.8489126,7.36080229 95.8518632,7.35791949 95.8548759,7.35513042 L95.8744238,7.33949558 C95.9541686,7.28610742 96.1520475,7.27503862 97.4374999,7.27276994 Z M74.4700853,7.27564086 C76.58876,7.27877028 77.6280359,7.2937782 77.7663665,7.32242968 C78.7470068,7.52543606 79.5528959,8.39946716 79.6835015,9.40163088 C79.7044905,9.56272627 79.7173773,10.0905697 79.7194707,10.8065666 L79.719526,11.2146967 C79.7191769,11.3562444 79.7184548,11.5029385 79.7173435,11.6537058 C79.7038799,13.4755427 79.7002164,13.5437305 79.608994,13.6658182 C79.5570632,13.7353341 79.4576895,13.8347078 79.3881278,13.8866386 C79.2865625,13.9624741 79.2332004,13.9774375 78.021952,13.9803634 L77.6789153,13.9808857 C77.6171006,13.9809379 77.5528987,13.9809754 77.4862107,13.9810022 L74.8492201,13.9810666 L74.6823455,13.8772966 C74.4072879,13.7062338 74.3728589,13.6383409 74.3688723,12.5042961 L74.3683794,10.7983588 L71.758101,10.7983588 L71.758101,19.6366697 L74.3683794,19.6366697 L74.3685816,17.6412891 C74.3708536,16.2212317 74.398633,16.2038368 74.738123,16.029036 L74.9408088,15.9247165 L77.101295,15.9374473 C79.2016532,15.9498576 79.2652616,15.9528342 79.3881736,16.0446519 C79.4576895,16.0965827 79.5570632,16.1960023 79.608994,16.2655639 C79.6800547,16.3607444 79.6976583,16.4115928 79.7020045,17.5375454 L79.702864,17.8563963 C79.7029659,17.9138481 79.7030494,17.9735163 79.7031177,18.0354928 L79.7031086,19.5664712 C79.7011497,21.2450461 79.6883066,21.4491041 79.6192062,21.6745186 C79.3394942,22.5872917 78.5547621,23.2946772 77.6655731,23.4355406 C77.4900368,23.4633509 76.0151758,23.4800261 73.5930524,23.482049 L71.8762404,23.4820322 C71.7897197,23.4819902 71.7052685,23.4819385 71.6228302,23.4818738 L71.151902,23.481308 C68.3912139,23.4765729 68.2311995,23.4460596 67.8050757,23.238153 L67.7331892,23.2028595 C67.3623007,23.0207353 66.8823758,22.549374 66.686147,22.1745472 C66.44286,21.709667 66.4059907,21.8595957 66.400821,18.4718261 L66.400687,12.4926931 C66.4007786,12.4154073 66.4008832,12.3398633 66.4010026,12.266017 L66.4019094,11.84296 C66.4080199,9.6243239 66.4338874,9.15866439 66.5404428,8.86446159 L66.5607192,8.81250743 L66.5828552,8.76221955 C66.6059482,8.71206067 66.6319526,8.66123262 66.6612349,8.60022963 C66.8229805,8.26318316 67.3918838,7.6996378 67.7376312,7.53395381 C67.8813339,7.4650791 68.108016,7.37935206 68.2413692,7.34349508 C68.4150761,7.29672632 69.0321266,7.28174139 71.601698,7.27687284 L72.1238208,7.27605104 C72.2150399,7.27593319 72.308392,7.27582441 72.4039279,7.27572398 Z M99.9903222,8.60224458 C99.9147616,8.60224458 99.768128,8.64075763 99.6644496,8.68783423 C99.3054218,8.85086214 99.1022323,9.29318984 99.2248238,9.64479891 C99.2507434,9.71912316 100.637168,11.9822345 102.305731,14.6739352 C105.144904,19.2539631 106.175951,20.9263664 106.585493,21.5430251 L106.6399,21.6241372 C106.808015,21.8719043 106.848012,21.9002701 106.888022,21.9091999 L106.90646,21.9125813 L106.927495,21.9173882 C106.935228,21.919678 106.943825,21.9228802 106.953721,21.9276698 C107.206139,22.0498492 107.55413,22.0351492 107.744406,21.8942399 C108.046969,21.6701681 108.179086,21.2982722 108.06634,20.988107 C108.004655,20.8183015 100.874886,9.27198705 100.618896,8.92724713 C100.490351,8.75409867 100.196626,8.60224458 99.9903222,8.60224458 Z M89.5263116,10.7983588 L88.5989759,10.8003737 C87.9233717,10.8018391 87.6226402,10.8198363 87.4911188,10.866684 C87.2482255,10.9532353 87.1030574,11.0668053 86.9389304,11.2988911 L86.8015474,11.493105 L86.7893203,15.1688806 L86.7770474,18.8446563 L86.9057753,19.0910757 C86.9863276,19.2452195 87.1080032,19.3891512 87.2309611,19.475611 L87.4273731,19.6137725 L88.4768423,19.6276024 L89.5263116,19.6414781 L89.5263116,10.7983588 Z M73.8485529,0.0278480104 C74.0702549,-0.0214651337 74.6604769,-0.00267104862 74.9719322,0.0636079621 C75.9618028,0.274243097 77.1260854,0.918799773 78.3947227,1.95847101 C79.3597782,2.74935828 80.5563593,3.94815765 81.582258,5.15190539 C82.0760232,5.73125561 82.6709742,6.48150768 82.6885495,6.54700665 C82.720458,6.66569459 82.671023,6.67403127 81.9822234,6.66618212 L81.3526094,6.65899112 L81.2753123,6.57250421 C81.2327758,6.52494615 81.0169973,6.27828293 80.7957828,6.02437996 C80.1521524,5.28563347 79.8409897,4.95550598 78.9579358,4.07445097 C78.1032315,3.22172116 77.6295036,2.78701958 77.0180498,2.29442442 C74.7859658,0.49618881 73.426527,0.320679844 72.9313723,1.76684934 C72.7758275,2.2211738 72.7425783,2.49370022 72.7419445,3.31944553 C72.7412133,4.26519509 72.8160971,4.95560348 73.0367752,6.03739687 C73.0846258,6.27201823 73.125066,6.48591978 73.1266261,6.51273365 C73.1291124,6.55566022 73.1119759,6.56233931 72.9831475,6.56857963 C72.8906153,6.57306486 72.8207773,6.56394814 72.7931834,6.54378899 C72.6912663,6.46927081 72.4239564,5.09644943 72.3219906,4.12386162 C72.2710686,3.6384087 72.2640726,2.59739677 72.3093393,2.24689074 C72.4787542,0.935497501 72.9733482,0.222443576 73.8485529,0.0278480104 Z M18.9431991,11.4486486 C18.8721063,11.5342757 18.3508468,11.5472973 14.9892297,11.5472973 C11.306018,11.5472973 10.8127748,11.5707099 11.2321631,11.725391 C11.2954955,11.7488036 11.3690216,11.7996405 11.395591,11.8384423 C11.4221604,11.8772441 11.4443234,13.3227757 11.4449153,15.0507054 L11.4459018,18.1924676 L11.2814874,18.2673748 C11.1910595,18.3085441 11.117073,18.3671414 11.117073,18.3975252 C11.117073,18.4278432 12.8758468,18.4527027 15.0254667,18.4527027 C18.4118775,18.4527027 18.9469477,18.4658559 19.0324432,18.5513514 C19.239145,18.7580532 19.2720279,18.6632847 19.2720279,17.8608108 C19.2720279,17.0986514 19.2252027,16.9319351 19.0826883,17.1867117 C19.0231045,17.2932523 18.7975937,17.3031829 16.0541748,17.3202162 L13.0900459,17.3385649 L13.0900459,16.4159369 L13.0900459,15.4932432 L15.0321748,15.4932432 C16.6978901,15.4932432 16.9797622,15.5073171 17.0121847,15.5918919 C17.0330324,15.6461486 17.0913009,15.6905405 17.1416775,15.6905405 C17.2148748,15.6905405 17.2332892,15.532045 17.2332892,14.9013514 C17.2332892,14.1392577 17.1863982,13.9724099 17.0439496,14.2272523 C16.9853523,14.3320829 16.8067324,14.3440523 15.0348054,14.3616117 L13.0900459,14.3808153 L13.0900459,13.5559811 L13.0900459,12.7310811 L16.0095856,12.7310811 C18.5440667,12.7310811 18.9341234,12.7441027 18.9670063,12.8297297 C18.9877883,12.8839865 19.0501342,12.9283784 19.1055748,12.9283784 C19.1904126,12.9283784 19.2062622,12.8040153 19.2062622,12.1391892 C19.2062622,11.5127045 19.1875847,11.35 19.1156369,11.35 C19.0658523,11.35 18.9882487,11.3943919 18.9431991,11.4486486 M39.4383108,11.4486486 C39.4052964,11.5348018 38.908436,11.5472973 35.5182108,11.5472973 C32.2566892,11.5472973 31.6359919,11.5618315 31.6359919,11.6382514 C31.6359919,11.6882991 31.6951811,11.7447261 31.7675234,11.7636667 C31.8968189,11.7974703 31.899055,11.8533712 31.899055,15.0190721 C31.899055,18.184773 31.8968189,18.2406739 31.7675234,18.2744775 C31.6951811,18.2933523 31.6359919,18.3412297 31.6359919,18.380755 C31.6359919,18.4320523 32.7586135,18.4527027 35.5410315,18.4527027 C38.9319144,18.4527027 39.456791,18.4656586 39.5278838,18.5513514 C39.5729333,18.6056081 39.6505369,18.65 39.7003216,18.65 C39.7720063,18.65 39.7909468,18.4928198 39.7909468,17.8975739 C39.7909468,17.1287721 39.7326784,16.9462721 39.5616874,17.1801351 C39.4774414,17.2953568 39.3173018,17.3018018 36.524427,17.3018018 L33.576082,17.3018018 L33.5577991,16.3975225 L33.5395162,15.4932432 L35.4767126,15.4932432 C37.1110577,15.4932432 37.4294297,15.5086982 37.5126234,15.5918919 C37.7193252,15.7985937 37.7522081,15.7038252 37.7522081,14.9013514 C37.7522081,14.0997982 37.7068297,13.9691216 37.5182135,14.2272523 C37.4413991,14.3323459 37.2663306,14.3423423 35.5050577,14.3423423 L33.576082,14.3423423 L33.5576018,13.5367117 L33.5391216,12.7310811 L36.4698414,12.7310811 C39.0141874,12.7310811 39.4054937,12.7441027 39.4383108,12.8297297 C39.4591586,12.8839865 39.517427,12.9283784 39.5678036,12.9283784 C39.6410009,12.9283784 39.6594153,12.7698829 39.6594153,12.1391892 C39.6594153,11.5084955 39.6410009,11.35 39.5678036,11.35 C39.517427,11.35 39.4591586,11.3943919 39.4383108,11.4486486 M3.78419009,11.5829423 C2.51195135,11.8193703 1.62168018,12.2311955 0.948633335,12.8945748 C0.441250452,13.3946577 0.253291893,13.7037568 0.10097838,14.2884144 C-0.176092791,15.3523072 0.123601803,16.4202117 0.91903874,17.2031532 C1.82634324,18.0961865 3.12686126,18.5184685 4.97007838,18.5184685 C6.32320901,18.5184685 7.53218108,18.2747405 8.96324415,17.713364 C9.47391532,17.5129757 9.55835856,17.4216928 9.37428018,17.2689189 C9.29444054,17.202627 9.27563153,16.9944784 9.27563153,16.1757604 C9.27563153,15.2520802 9.28700901,15.1530369 9.40716306,15.0328829 C9.47950541,14.9605405 9.5386946,14.8877378 9.5386946,14.8711649 C9.5386946,14.8545261 8.61882883,14.8323631 7.49456306,14.8218405 C5.63694324,14.8044784 5.4428027,14.7921802 5.36638288,14.6876126 C5.17487297,14.4254703 5.13238829,14.5598955 5.13238829,15.4274775 C5.13238829,15.8977027 5.14994775,16.2824324 5.17132162,16.2824324 C5.19276126,16.2824324 5.28555676,16.2232432 5.3774973,16.1509009 C5.52875856,16.0319306 5.64430901,16.0193694 6.58811352,16.0193694 L7.63148739,16.0193694 L7.63148739,16.4175811 L7.63148739,16.8158586 L7.26806577,16.9821802 C6.62461352,17.2768108 5.74243153,17.4189306 4.80355946,17.3793396 C2.99486937,17.3029856 1.93709279,16.6134315 1.70849099,15.3617117 C1.39866847,13.6656126 3.00966667,12.4891946 5.46121712,12.6214495 C6.6649937,12.6863604 7.83674234,13.0984486 7.88192343,13.4727216 C7.92421081,13.822727 8.07639279,13.7230919 8.59291712,13.0072315 C8.87215856,12.6202658 9.13265676,12.2619739 9.17172162,12.2110712 C9.23104234,12.1338622 9.20236847,12.1261018 8.99823153,12.1643775 C8.80961532,12.1996279 8.62145946,12.1632595 8.17615946,12.0054874 C7.19434234,11.6575865 6.52300541,11.5396027 5.36256847,11.5110604 C4.61297027,11.4925802 4.15898919,11.5132306 3.78419009,11.5829423 M44.1698288,11.5503225 C42.2022487,11.8573829 41.1363171,12.7152973 41.2579838,13.8940829 C41.3793874,15.0705009 42.4801748,15.559009 45.0097892,15.559009 C46.0855856,15.559009 47.1227117,15.669364 47.4633784,15.8200333 C48.1627973,16.1294613 48.0760523,16.7847514 47.2922559,17.1123306 C46.912327,17.2710892 45.9935135,17.4004505 45.2456252,17.4004505 C43.5757009,17.4004505 42.2874153,17.0147342 42.236973,16.4996568 C42.2115874,16.2406712 42.0576955,16.173064 41.9343847,16.3667441 C41.8637523,16.4778225 41.285145,17.4360955 41.0628568,17.8102369 C41.0471387,17.836609 41.1467081,17.8542342 41.284027,17.8493676 C41.4277252,17.8442378 41.7089396,17.9159883 41.9464198,18.0183198 C42.8360991,18.4018 43.408064,18.4825604 45.2166225,18.4801797 C46.7763892,18.4780225 46.8931234,18.4691441 47.4913946,18.3073604 C48.2578946,18.1000667 48.7173342,17.8747532 49.1082459,17.5143568 C49.5281604,17.1273252 49.675673,16.8054676 49.6728209,16.282564 C49.6690964,15.6101748 49.4343784,15.1819081 48.8744487,14.825918 C48.221,14.4105414 47.161382,14.2453378 45.1433595,14.2442856 C43.6602757,14.2434964 43.0892973,14.125118 42.9504,13.7897784 C42.860827,13.5736063 42.9318541,13.3511207 43.1544712,13.1503378 C43.5173009,12.8230874 44.0306685,12.6785342 45.0319523,12.6216468 C46.4945829,12.5385847 48.2282342,12.9533036 48.4092874,13.429645 C48.4442748,13.5215198 48.5074757,13.5851811 48.5498288,13.5710414 C48.6299315,13.5443405 49.4535162,12.281309 49.4567387,12.1802928 C49.4577252,12.1486595 49.3749261,12.1394523 49.2727919,12.1599054 C49.1563207,12.1831865 48.9172622,12.1349802 48.6315757,12.0305441 C47.6544937,11.6733045 46.8756297,11.536709 45.6769829,11.5123757 C45.062073,11.4998802 44.3838964,11.5169793 44.1698288,11.5503225 M58.3752342,11.5503225 C57.0130937,11.7628775 56.0505459,12.247045 55.6560829,12.9181847 C55.5031775,13.1782883 55.476082,13.2985081 55.476082,13.7175676 C55.476082,14.3375414 55.6727874,14.7179306 56.1482081,15.0172306 C56.7640387,15.4049198 57.1778369,15.4768676 59.2576135,15.5579568 C61.4360387,15.6429261 61.9457234,15.765382 62.1163856,16.2446171 C62.2125351,16.5146514 61.9977441,16.8617631 61.6182099,17.0497874 C60.6004189,17.5540793 57.9104676,17.4942324 56.8305937,16.9433126 C56.5323459,16.7911306 56.3410991,16.5499018 56.3991045,16.3988378 C56.4632919,16.2315955 56.2431739,16.2043685 56.1397901,16.3667441 C56.0671189,16.481045 55.6736423,17.1325207 55.2615541,17.8210225 C55.2422189,17.8533793 55.310155,17.863836 55.412618,17.8443036 C55.5340874,17.8210225 55.7674243,17.8762 56.083955,18.0029306 C57.091618,18.4064036 57.6082739,18.4813766 59.389145,18.48267 C60.8363865,18.4836126 61.0587405,18.4689468 61.5731604,18.3385991 C62.6881532,18.0559378 63.4682667,17.5638784 63.7381694,16.972973 C63.9096207,16.597582 63.9033072,15.8848126 63.7252135,15.5169189 C63.4531405,14.9548847 62.8101487,14.5671955 61.870027,14.3983748 C61.5630324,14.3432631 60.575691,14.2774315 59.5864423,14.2461928 C57.5545432,14.1820712 57.2173622,14.1140036 57.125882,13.7496613 C57.0247342,13.3466486 57.4336658,12.9539613 58.1618901,12.7547568 C58.7473369,12.5946171 59.993664,12.5651541 60.760427,12.6933315 C61.8214261,12.8707676 62.5563586,13.1701333 62.6309369,13.4552279 C62.6497459,13.5271757 62.6949928,13.586036 62.731427,13.586036 C62.7973901,13.586036 63.6639198,12.274864 63.6639198,12.1750315 C63.6639198,12.1462919 63.5803315,12.1394523 63.4781973,12.1599054 C63.3617261,12.1831865 63.1226676,12.1349802 62.8369811,12.0305441 C61.8598991,11.6733045 61.0810351,11.536709 59.8823883,11.5123757 C59.2674784,11.4998802 58.5893018,11.5169793 58.3752342,11.5503225 M20.9161721,11.6382514 C20.9161721,11.6882991 20.9753613,11.7447261 21.0477036,11.7636667 C21.1769333,11.7974703 21.1792351,11.8533712 21.1792351,14.9915162 C21.1792351,18.1176919 21.176473,18.1864829 21.0477036,18.2554054 C20.7554405,18.4117964 20.9395189,18.4527027 21.9355414,18.4527027 C22.4961946,18.4527027 22.9549108,18.4278432 22.9549108,18.3975252 C22.9549108,18.3671414 22.8809243,18.3085441 22.7904964,18.2673748 L22.626082,18.1924676 L22.626082,15.8120099 L22.626082,13.4315523 L22.774055,13.5645306 C22.855473,13.6376622 24.0318252,14.6685405 25.3882441,15.8552838 C26.7446631,17.0420928 27.8988523,18.054491 27.953109,18.1050649 C28.0405117,18.1866144 28.0386703,18.2045027 27.9366676,18.2623766 C27.6693297,18.4140982 27.8595243,18.4527027 28.8738297,18.4527027 C29.5915315,18.4527027 29.926082,18.4298162 29.926082,18.380755 C29.926082,18.3412297 29.8668928,18.2933523 29.7945505,18.2744775 C29.665255,18.2406739 29.6630189,18.184773 29.6630189,15.0190721 C29.6630189,11.8533712 29.665255,11.7974703 29.7945505,11.7636667 C29.8668928,11.7447261 29.926082,11.6882991 29.926082,11.6382514 C29.926082,11.5647252 29.7307577,11.5472973 28.9067126,11.5472973 C28.0444577,11.5472973 27.8873432,11.5624892 27.8873432,11.6459459 C27.8873432,11.7007288 27.945809,11.7445946 28.0188748,11.7445946 C28.1478414,11.7445946 28.1504063,11.7884604 28.1504063,14.0154865 L28.1504063,16.2863784 L26.6213523,14.9554108 C23.5071459,12.2446117 23.0864423,11.8700757 23.0864423,11.8079928 C23.0864423,11.7731369 23.1456315,11.7445946 23.2179739,11.7445946 C23.2910396,11.7445946 23.3495054,11.7007288 23.3495054,11.6459459 C23.3495054,11.5618315 23.170491,11.5472973 22.1328387,11.5472973 C21.1407622,11.5472973 20.9161721,11.5640676 20.9161721,11.6382514 M51.1684243,11.6416054 C51.1684243,11.6955333 51.2457649,11.7447261 51.3492802,11.7566955 L51.530136,11.7774775 L51.5472351,14.9890171 L51.5642685,18.2006225 L51.3663793,18.2752667 C51.2574712,18.3163703 51.1684243,18.3731261 51.1684243,18.4013396 C51.1684243,18.4296189 51.7307216,18.4527027 52.4179739,18.4527027 C53.5872234,18.4527027 53.9560378,18.3949604 53.4696342,18.2881568 L53.2716793,18.2446856 L53.2887784,15.0110486 L53.3058117,11.7774775 L53.4866676,11.7566955 C53.5901829,11.7447261 53.6675234,11.6955333 53.6675234,11.6416054 C53.6675234,11.5630153 53.4591117,11.5472973 52.4179739,11.5472973 C51.376836,11.5472973 51.1684243,11.5630153 51.1684243,11.6416054" id="Combined-Shape"></path>
            </g>
        </g>
    </g>
</svg>