<?xml version="1.0" encoding="UTF-8"?>
<svg width="161px" height="30px" viewBox="0 0 161 30" version="1.1" xmlns="http://www.w3.org/2000/svg" xmlns:xlink="http://www.w3.org/1999/xlink">
    <title>lowres nx</title>
    <g id="Page-1" stroke="none" stroke-width="1" fill="none" fill-rule="evenodd">
        <g id="System" transform="translate(-19.500000, 0.000000)" fill="#000000">
            <g id="lowres-nx" transform="translate(19.500000, 0.000000)">
                <line x1="80.5" y1="30" x2="80.5" y2="0" id="Path" stroke="#979797" fill-rule="nonzero"></line>
                <path d="M125.485294,7.89705882 L130.220588,7.89705882 L134.955882,12.6323529 L134.955882,7.89705882 L139.691176,7.89705882 L139.691176,22.1029412 L134.955882,22.1029412 L134.955882,19.7352941 L130.220588,15 L130.220588,22.1029412 L125.485294,22.1029412 L125.485294,7.89705882 L125.485294,7.89705882 L125.485294,7.89705882 L125.485294,7.89705882 L125.485294,7.89705882 L125.485294,7.89705882 L125.485294,7.89705882 L125.485294,7.89705882 Z M144.426471,17.3676471 L147.977941,13.8161765 L144.426471,10.2647059 L144.426471,7.89705882 L149.161765,7.89705882 L151.529412,10.2647059 L153.897059,7.89705882 L158.632353,7.89705882 L158.632353,10.2647059 L155.080882,13.8161765 L158.632353,17.3676471 L158.632353,22.1029412 L153.897059,22.1029412 L153.897059,18.5514706 L151.535923,16.1838235 L149.161765,18.5514706 L149.161765,22.1029412 L144.426471,22.1029412 L144.426471,17.3676471 L144.426471,17.3676471 L144.426471,17.3676471 L144.426471,17.3676471 L144.426471,17.3676471 L144.426471,17.3676471 L144.426471,17.3676471 Z M2.36764706,7.89705882 L7.10294118,7.89705882 L7.10294118,19.7352941 L16.5735294,19.7352941 L16.5735294,22.1029412 L2.36764706,22.1029412 L2.36764706,7.89705882 L2.36764706,7.89705882 L2.36764706,7.89705882 L2.36764706,7.89705882 L2.36764706,7.89705882 L2.36764706,7.89705882 Z M40.25,7.89705882 L44.9852941,7.89705882 L44.9852941,15 L47.3529412,12.6323529 L49.7205882,15 L49.7205882,7.89705882 L54.4558824,7.89705882 L54.4558824,22.1029412 L52.0882353,22.1029412 L47.3529412,17.3676471 L42.6176471,22.1029412 L40.25,22.1029412 L40.25,7.89705882 L40.25,7.89705882 L40.25,7.89705882 L40.25,7.89705882 L40.25,7.89705882 Z M63.9264706,10.2647059 L68.6617647,10.2647059 L68.6617647,12.6323529 L63.9264706,12.6323529 L63.9264706,10.2647059 L63.9264706,10.2647059 L63.9264706,10.2647059 L63.9264706,10.2647059 L63.9264706,10.2647059 Z M26.0441176,10.2647059 L30.7794118,10.2647059 L30.7794118,19.7352941 L26.0441176,19.7352941 L26.0441176,10.2647059 L26.0441176,10.2647059 L26.0441176,10.2647059 L26.0441176,10.2647059 Z M78.1323529,7.89705882 L78.1323529,22.1029412 L92.3382353,22.1029412 L92.3382353,19.7352941 L82.8676471,19.7352941 L82.8676471,15 L87.6029412,15 L87.6029412,12.6323529 L82.8676471,12.6323529 L82.8676471,10.2647059 L92.3382353,10.2647059 L92.3382353,7.89705882 L78.1323529,7.89705882 L78.1323529,7.89705882 Z M68.1882353,15 L71.0294118,15 L73.3970588,12.6323529 L73.3970588,10.2647059 L71.0294118,7.89705882 L59.1911765,7.89705882 L59.1911765,22.1029412 L63.9264706,22.1029412 L63.9264706,15.7286434 L69.8455882,22.1029412 L73.3970588,22.1029412 L73.3970588,19.7352941 L68.1882353,15 L68.1882353,15 L68.1882353,15 L68.1882353,15 L68.1882353,15 Z M23.6764706,7.89705882 L33.1470588,7.89705882 L35.5147059,10.2647059 L35.5147059,19.7352941 L33.1470588,22.1029412 L23.6764706,22.1029412 L21.3088235,19.7352941 L21.3088235,10.2647059 L23.6764706,7.89705882 L23.6764706,7.89705882 L23.6764706,7.89705882 L23.6764706,7.89705882 Z M123.117647,24.4705882 L161,24.4705882 L161,16.1838235 L158.632353,13.8161765 L161,11.4485294 L161,5.52941176 L123.117647,5.52941176 L123.117647,24.4705882 Z M113.647059,20.9191176 L110.095588,24.4705882 L50.9044118,24.4705882 L47.3529412,20.9191176 L43.8014706,24.4705882 L0,24.4705882 L0,5.52941176 L9.47058824,5.52941176 L14.2058824,10.2647059 L14.2058824,17.3676471 L18.9411765,17.3676471 L18.9411765,9.08088235 L22.4926471,5.52941176 L34.3308824,5.52941176 L37.8823529,9.08088235 L37.8823529,5.52941176 L72.2132353,5.52941176 L75.7647059,9.08088235 L75.7647059,5.52941176 L94.7058824,5.52941176 L94.7058824,9.08088235 L98.2573529,5.52941176 L113.647059,5.52941176 L113.647059,20.9191176 Z M111.279412,7.89705882 L111.279412,10.2647059 L101.808824,10.2647059 L101.808824,12.6323529 L108.911765,12.6323529 L111.279412,15 L111.279412,19.7352941 L108.911765,22.1029412 L97.0735294,22.1029412 L97.0735294,19.7352941 L106.544118,19.7352941 L106.544118,15 L99.4411765,15 L97.0735294,12.6323529 L97.0735294,10.2647059 L99.4411765,7.89705882 L111.279412,7.89705882 Z" id="Shape"></path>
            </g>
        </g>
    </g>
</svg>