<?xml version="1.0" encoding="UTF-8" standalone="no"?>
<!-- Created with Inkscape (http://www.inkscape.org/) -->

<svg
   xmlns:dc="http://purl.org/dc/elements/1.1/"
   xmlns:cc="http://creativecommons.org/ns#"
   xmlns:rdf="http://www.w3.org/1999/02/22-rdf-syntax-ns#"
   xmlns:svg="http://www.w3.org/2000/svg"
   xmlns="http://www.w3.org/2000/svg"
   xmlns:sodipodi="http://sodipodi.sourceforge.net/DTD/sodipodi-0.dtd"
   xmlns:inkscape="http://www.inkscape.org/namespaces/inkscape"
   width="250"
   height="320"
   id="svg2"
   version="1.1"
   inkscape:version="0.48.2 r9819"
   sodipodi:docname="新規ドキュメント 1">
  <defs
     id="defs4" />
  <sodipodi:namedview
     id="base"
     pagecolor="#ffffff"
     bordercolor="#666666"
     borderopacity="1.0"
     inkscape:pageopacity="0.0"
     inkscape:pageshadow="2"
     inkscape:zoom="0.98994949"
     inkscape:cx="211.66369"
     inkscape:cy="168.32851"
     inkscape:document-units="px"
     inkscape:current-layer="layer1"
     showgrid="false"
     inkscape:window-width="946"
     inkscape:window-height="521"
     inkscape:window-x="75"
     inkscape:window-y="27"
     inkscape:window-maximized="0" />
  <metadata
     id="metadata7">
    <rdf:RDF>
      <cc:Work
         rdf:about="">
        <dc:format>image/svg+xml</dc:format>
        <dc:type
           rdf:resource="http://purl.org/dc/dcmitype/StillImage" />
        <dc:title></dc:title>
      </cc:Work>
    </rdf:RDF>
  </metadata>
  <g
     inkscape:label="レイヤー 1"
     inkscape:groupmode="layer"
     id="layer1"
     transform="translate(0,-732.36218)">
    <path
       inkscape:connector-curvature="0"
       d="m 206.29969,1005.5679 c 0,0 -0.85096,0.4075 -0.79702,1.2704 0.0542,0.851 0.6472,1.0907 1.04272,1.3483 0.40174,0.2637 1.10264,0.6652 1.61202,1.7199 0.49139,1.0607 6.48404,15.3712 6.54396,15.5569 0.048,0.21 0,8.2399 0,8.2399 0,0 -0.10211,2.0135 -0.85694,2.3252 -0.74309,0.2938 -1.39629,0.8569 -1.39629,1.8577 0,0.2637 0,0.6112 0.49739,0.6112 0.50338,0 8.10205,0 8.10205,0 0,0 0.44921,0 0.44921,-0.6592 0,-0.6532 -0.20375,-1.0906 -1.15059,-1.8697 -0.25169,-0.1917 -0.90488,-0.3475 -0.90488,-2.2053 0,-1.8816 0,-8.09 0,-8.09 l 5.95069,-15.7187 c 0,0 0.70114,-1.612 1.34835,-1.7679 0.65919,-0.138 1.00676,-0.8509 1.00676,-1.5101 0,-0.6652 -0.15581,-0.851 -0.50338,-0.851 -0.34758,0 -5.79489,0 -5.79489,0 0,0 -0.59926,0.029 -0.59926,0.851 0,0.809 0.40174,0.9648 0.84496,1.2525 0.44921,0.3116 1.04871,1.0187 0.85095,1.7318 -0.20374,0.6952 -4.54841,13.028 -4.54841,13.028 l -4.60235,-12.6864 c 0,0 -0.39552,-1.7079 0.44921,-1.9116 0.85695,-0.1976 1.15058,-0.9049 1.15058,-1.5162 0,-0.5992 -0.14957,-0.9588 -0.6472,-0.9588 -0.50338,0 -8.04812,-0.048 -8.04812,-0.048"
       style="fill:#000000;fill-opacity:1;fill-rule:nonzero;stroke:none"
       id="path3059" />
    <path
       inkscape:connector-curvature="0"
       d="m 190.05363,1014.0475 c 0,6.6158 -5.24955,5.9147 -6.14246,5.9147 -0.90489,0 -0.809,-0.5633 -0.809,-0.5633 0,0 0,-8.5216 0,-10.0976 0,-1.5701 0.86294,-1.4682 0.86294,-1.4682 1.64198,0 6.08852,-0.3898 6.08852,6.2144 z m -13.34561,-8.6354 c 0,0 -0.39552,0.1078 -0.39552,1.2644 0,0.2996 0.24594,0.809 0.64721,1.1146 0.39551,0.2997 1.34834,0.3476 1.34834,2.3671 0,2.0195 0,23.3474 0,23.3474 0,0 0.0479,1.606 -1.14459,2.409 -0.62324,0.4315 -0.8989,0.833 -0.8989,1.7259 0,0.4017 0.14958,0.7071 0.54533,0.7071 0.39552,0 7.79044,0 7.79044,0 0,0 0.6532,0 0.6532,-0.6532 0,-0.6652 -0.34135,-1.2644 -0.79103,-1.7798 -0.45544,-0.4914 -1.40228,-0.4914 -1.40228,-2.3191 0,-1.8218 0,-10.2535 0,-10.2535 0,0 0.10211,-0.797 0.59926,-0.797 0.49739,0 1.05471,0.4612 1.45022,1.0907 0.40175,0.6592 6.14845,14.0048 6.14845,14.0048 0,0 0.29964,0.7071 1.1446,0.7071 0.85695,0 5.30349,0 5.30349,0 0,0 0.39551,0 0.39551,-0.3476 0,-0.3595 0,-0.8689 0,-0.8689 0,0 0.0542,-0.9109 -1.19853,-1.2644 -0.2397,-0.066 -1.09665,-0.5034 -1.55808,-1.4143 -0.43723,-0.8989 -4.74018,-9.786 -4.74018,-9.786 0,0 -1.30041,-2.3731 -3.04427,-3.0442 -0.39551,-0.1261 7.74849,0.3657 7.74849,-7.9223 0,-8.2878 -8.40169,-8.2878 -11.34407,-8.2878 -2.95438,0 -7.25709,0 -7.25709,0"
       style="fill:#000000;fill-opacity:1;fill-rule:nonzero;stroke:none"
       id="path3061" />
    <path
       inkscape:connector-curvature="0"
       d="m 159.46718,1019.3509 c 0,0 0,2.7327 0,5.759 0,10.9186 -4.24279,11.5298 -5.98665,11.5298 -6.46007,0 -5.95669,-11.8774 -5.95669,-11.8774 0,0 0,-2.5768 0,-5.6631 0,-13.0879 5.95669,-11.9133 5.95669,-11.9133 6.6818,0 5.98665,12.165 5.98665,12.165 z m -6.09452,-14.5441 c 0,0 -11.05043,-0.6652 -11.05043,17.127 0,17.7742 11.05043,17.0251 11.05043,17.0251 0,0 11.34408,0.6532 11.34408,-17.169 0,-17.8401 -11.34408,-16.9831 -11.34408,-16.9831"
       style="fill:#000000;fill-opacity:1;fill-rule:nonzero;stroke:none"
       id="path3063" />
    <path
       inkscape:connector-curvature="0"
       d="m 112.73655,1005.3701 0,8.8272 c 0,0 0.0431,0.4612 0.79702,0.4612 0.75507,0 1.55209,-0.1558 1.84573,-1.0548 0.29964,-0.9108 0.90489,-4.6562 1.80379,-5.2075 0.8989,-0.5634 1.69592,-0.8031 2.14537,-0.8031 0.4492,0 1.40227,0.1381 1.40227,0.4974 0,0.3596 0,25.0493 0,25.0493 0,0 0,1.9236 -0.80301,2.3371 -0.79702,0.3898 -1.34834,0.6832 -1.34834,2.0675 0,0.2934 0.14957,0.5513 0.39551,0.5513 0.25744,0 7.95224,0 7.95224,0 0,0 0.59926,-0.096 0.59926,-0.4974 0,-0.4133 0.20375,-1.0247 -0.6532,-1.7319 -0.84496,-0.7071 -1.39628,-0.3897 -1.39628,-2.409 0,-2.0255 0,-25.4088 0,-25.4088 0,0 0.10211,-0.4075 1.0547,-0.4075 0.94684,0 2.445,0.1496 2.90044,1.1146 0.43723,0.9528 0.98879,3.6316 1.1446,4.0331 0.14957,0.4012 0.59926,1.9176 2.1993,1.9176 0.40174,0 0.74908,-0.1496 0.74908,-0.6592 0,-0.4974 0,-8.6773 0,-8.6773 l -20.78848,0"
       style="fill:#000000;fill-opacity:1;fill-rule:nonzero;stroke:none"
       id="path3065" />
    <path
       inkscape:connector-curvature="0"
       d="m 100.74527,1006.1731 c 0,0 0.0432,-0.7611 -0.70713,-0.7611 -0.749084,0 -1.204524,0.7611 -1.498164,0.7611 -0.29964,0 -1.05471,0.054 -1.75585,-0.5154 -0.69514,-0.5513 -1.98956,-1.3064 -3.58959,-1.3064 -1.60603,0 -11.302134,1.7259 -11.302134,17.5825 0,8.8871 3.955154,16.8273 10.942574,16.8273 8.953014,0 8.401694,-10.7628 8.401694,-10.7628 l -2.247254,0 c 0,0 0.2517,7.9163 -5.14768,7.9163 -5.39338,0 -6.75371,-6.5979 -6.75371,-14.8318 0,-8.2399 2.00155,-14.2445 6.40015,-14.2445 0.75507,0 2.94838,0.3898 3.4997,3.0682 0.55132,2.6787 1.1446,6.4241 2.69669,6.4241 0.551324,0 1.252464,-0.09 1.252464,-1.1206 0,-1.0127 -0.19176,-9.0369 -0.19176,-9.0369"
       style="fill:#000000;fill-opacity:1;fill-rule:nonzero;stroke:none"
       id="path3067" />
    <path
       inkscape:connector-curvature="0"
       d="m 42.263002,1005.2023 -17.02509,0 c 0,0 -0.67717,0.066 -0.67717,0.9588 0,0.869 0.53933,1.3364 1.00077,1.5341 0.46119,0.1976 0.95882,0.5454 0.95882,2.2113 0,1.666 0,23.0837 0,23.0837 0,0 0.29388,2.0255 -0.95882,2.6308 -1.24647,0.5992 -1.10265,1.4082 -1.10265,1.8157 0,0.4018 0.24546,0.7132 0.60526,0.7132 0.35332,0 7.89231,0 7.89231,0 0,0 0.60526,-0.1496 0.60526,-0.863 0,-0.7131 -0.35381,-1.2584 -0.94684,-1.618 -0.60526,-0.3595 -1.3004,-0.809 -1.3004,-2.3192 0,-1.5281 0,-9.8998 0,-9.8998 0,0 0.0959,-1.2644 0.49139,-1.2644 0.4075,0 2.30118,0 2.30118,0 0,0 1.70191,-0.1022 2.15735,1.3603 0.16779,0.5693 0.68915,1.624 1.04272,1.624 0.34757,0 1.45621,0 1.45621,0 l 0,-8.2399 -1.15059,0 c 0,0 -0.90489,0.1079 -1.15658,1.3843 -0.0599,0.3116 -0.49739,1.4502 -1.69591,1.4502 -1.19853,0 -3.44577,0 -3.44577,0 l 0,-11.422 c 0,0 0,-0.7011 0.69514,-0.7011 0.70114,0 5.74695,-0.3538 6.39415,1.606 0.31162,0.9289 1.00677,3.5956 1.15658,3.8893 0.14958,0.3054 0.30587,1.57 1.49816,1.57 0.74908,0 1.24647,-0.2037 1.24647,-0.5513 0,-0.3533 -0.0431,-8.953 -0.0431,-8.953"
       style="fill:#000000;fill-opacity:1;fill-rule:nonzero;stroke:none"
       id="path3069" />
    <path
       inkscape:connector-curvature="0"
       d="m 63.243252,1024.8702 c 0.33559,1.2584 -0.49739,0.9528 -0.49739,0.9528 0,0 -4.83007,0 -5.62709,0 -0.80302,0 -0.26943,-0.9349 -0.26943,-0.9349 l 3.13415,-11.8594 c 0,0 2.9304,10.607 3.26,11.8415 z m -2.00754,-20.0634 -2.40305,0.809 c 0,0 -0.79702,0.6112 -0.49739,1.4622 0.2934,0.851 0.59927,1.3723 0.14958,2.8285 -0.41325,1.3364 -6.14845,23.0837 -6.14845,23.0837 0,0 -0.60526,1.9776 -1.15059,2.3192 -0.55132,0.3595 -1.75584,0.7191 -1.75584,1.9775 0,0.3538 0.0599,0.863 0.65319,0.863 0.59927,0 5.80088,0 5.80088,0 0,0 0.80302,0.043 0.80302,-0.7671 0,-0.809 0.22772,-1.1146 -1.25246,-1.8098 -0.64721,-0.3116 -1.19853,-0.5093 -0.79703,-2.0674 0.39552,-1.5821 1.09666,-4.2488 1.09666,-4.2488 0,0 0.25169,-1.0188 1.04871,-1.0188 0.80301,0 6.49603,0 6.49603,0 0,0 0.55132,-0.096 0.90488,0.9049 0.34758,1.0248 1.1446,3.9492 1.1446,3.9492 0,0 0.40175,1.9716 -0.14958,2.385 -0.55132,0.3898 -1.3004,0.6473 -1.3004,1.7079 0,0.7012 0.50338,0.9109 0.80301,0.9109 0.2934,0 8.10211,0 8.10211,0 0,0 0.49738,-0.21 0.49738,-0.761 0,-0.5514 0.19752,-1.1147 -1.06074,-1.8038 -0.42572,-0.2575 -1.34835,-0.9049 -1.93562,-3.0922 -0.59927,-2.1754 -7.55673,-26.5834 -7.55673,-26.5834 0,0 0,-1.1506 -1.49217,-1.0487"
       style="fill:#000000;fill-opacity:1;fill-rule:nonzero;stroke:none"
       id="path3071" />
    <path
       inkscape:connector-curvature="0"
       d="m 141.72296,948.42197 c 0,0 -3.59558,19.00867 -16.40186,18.60716 -5.99264,-0.19752 -10.99051,-3.24801 -14.18459,-12.74036 -3.20007,-9.49834 -44.986828,-131.34676 -44.986828,-131.34676 0,0 -5.39937,-24.438 -25.99609,-18.38543 -6.54995,1.93563 -14.99359,12.32687 -14.99359,24.46197 0,12.12312 0,23.23348 0,23.23348 l 2.40305,0 0,-4.44654 c 0,0 -0.198,-8.07808 5.59713,-8.89908 1.97757,-0.2699 4.80011,1.21651 5.99264,5.0578 1.20452,3.84128 40.59422,118.41463 40.59422,118.41463 0,0 7.592684,25.253 30.184948,25.253 22.59227,0 29.78943,-26.06201 29.78943,-26.06201 l 4.20084,-11.93135 -2.1993,-1.21651"
       style="fill:#000000;fill-opacity:1;fill-rule:nonzero;stroke:none"
       id="path3073" />
    <path
       inkscape:connector-curvature="0"
       d="m 178.71555,853.46854 -2.20529,-1.42026 12.59653,-35.16483 c 0,0 5.80088,-13.33363 18.39143,-13.33363 5.00385,0 18.79892,5.8668 18.79892,26.67325 0,20.81845 -0.80901,153.56149 -0.80901,153.56149 l -32.39023,0 0.80301,-133.96554 c 0,0 1.20452,-10.91261 -5.99864,-10.91261 -3.58959,0 -5.18963,4.24879 -5.79488,5.46529 -0.59927,1.21052 -3.39184,9.09684 -3.39184,9.09684"
       style="fill:#000000;fill-opacity:1;fill-rule:nonzero;stroke:none"
       id="path3075" />
    <path
       inkscape:connector-curvature="0"
       d="m 218.267,770.07491 c 0.3236,1.24647 -0.50938,1.1446 -0.50938,1.1446 0,0 -4.82408,0 -5.62709,0 -0.80301,0 -0.47318,-0.9768 -0.47318,-0.9768 l 3.3379,-12.02125 c 0,0 2.93041,10.61298 3.27199,11.85345 z m -2.06746,-19.91954 -2.35511,0.65919 c 0,0 -0.79103,0.60525 -0.49739,1.4622 0.30586,0.87493 0.44345,1.4682 0.14957,2.82853 -0.30538,1.36632 -6.15444,23.08366 -6.15444,23.08366 0,0 -0.59327,1.98357 -1.1446,2.34313 -0.54533,0.33558 -1.74386,0.69514 -1.74386,1.9536 0,0.35956 0.048,0.86893 0.64721,0.86893 0.59926,0 5.80088,0 5.80088,0 0,0 0.79702,0.0479 0.79702,-0.74908 0,-0.82698 0.19752,-1.07868 -1.24647,-1.83375 -0.29963,-0.16156 -1.20452,-0.50937 -0.80901,-2.07345 0.4075,-1.57607 1.10265,-4.2368 1.10265,-4.2368 0,0 0.25169,-1.01875 1.05471,-1.01875 0.80301,0 6.49003,0 6.49003,0 0,0 0.55132,-0.0959 0.90489,0.91687 0.34757,1.00677 1.15058,3.93118 1.15058,3.93118 0,0 0.39552,1.97158 -0.14957,2.37308 -0.55732,0.41374 -1.09666,0.65919 -1.09666,1.7139 0,0.71912 0.2934,0.92287 0.59927,0.92287 0.30586,0 8.09606,0 8.09606,0 0,0 0.49739,-0.20375 0.49739,-0.76107 0,-0.55132 0.19752,-1.11463 -1.04871,-1.81577 -0.43771,-0.25744 -1.34236,-0.91088 -1.9596,-3.08621 -0.59327,-2.17533 -7.54474,-26.5594 -7.54474,-26.5594 0,0 -0.0431,-1.02474 -1.5401,-0.92286"
       style="fill:#000000;fill-opacity:1;fill-rule:nonzero;stroke:none"
       id="path3077" />
    <path
       inkscape:connector-curvature="0"
       d="m 171.76409,750.55687 c 0,0 -0.80302,0 -0.80302,0.86294 0,0.85695 0.45544,1.46221 0.95283,1.73188 0.49739,0.24594 0.94684,0.43147 0.94684,1.84573 0,1.41427 0,24.31216 0,24.31216 0,0 -0.34182,1.25845 -1.00077,1.51014 -0.64122,0.25793 -1.10265,0.70713 -1.10265,1.71989 0,0.45544 0.10212,0.76107 0.55732,0.76107 0.44921,0 7.94624,0 7.94624,0 0,0 0.64721,0 0.64721,-0.67118 0,-0.64121 -0.49739,-1.55209 -1.04872,-1.80978 -0.55132,-0.25169 -1.00077,-0.85695 -1.00077,-1.57007 0,-0.70114 0,-24.09043 0,-24.09043 0,0 0.0537,-1.47419 1.00077,-1.87569 0.95284,-0.40175 1.30041,-1.3064 1.25247,-1.80978 -0.0479,-0.51537 -0.50338,-0.85695 -0.8989,-0.85695 -0.40175,0 -7.44885,-0.0599 -7.44885,-0.0599"
       style="fill:#000000;fill-opacity:1;fill-rule:nonzero;stroke:none"
       id="path3079" />
    <path
       inkscape:connector-curvature="0"
       d="m 77.595682,750.6168 c 0,0 -0.85695,0.0479 -0.85695,1.00077 0,0.97081 0.70713,1.37232 0.95283,1.53412 0.25792,0.13184 1.05471,0.68915 1.05471,2.1154 0,1.40827 0,23.23947 0,23.23947 0,0 -0.20375,1.85772 -0.95283,2.10342 -0.74909,0.25744 -1.09666,0.97081 -1.09666,1.52213 0,0.55732 0,0.96482 0,0.96482 l 18.391424,0 0,-9.14478 c 0,0 0.10212,-0.55731 -0.69514,-0.55731 -0.80302,0 -1.35434,0.46119 -1.60004,1.61801 -0.25744,1.15059 -0.46119,3.83529 -1.40827,4.49448 -0.94084,0.66519 -1.99555,1.40827 -3.44577,1.40827 -1.45022,0 -3.445774,0 -3.445774,0 0,0 -1.15059,0.36532 -1.15059,-1.51613 0,-1.86372 0,-10.55904 0,-10.55904 0,0 -0.0479,-1.24647 1.19853,-1.24647 0.70114,0 1.875704,-0.13184 2.600814,0.90489 0.74908,1.0607 0.8989,1.71389 1.20452,1.80978 0.29388,0.10163 1.69592,0.35955 1.69592,0.10163 0,-0.25169 0,-7.9822 0,-7.9822 0,0 -0.30587,-0.24546 -0.95283,-0.24546 -0.64122,0 -1.04871,0.50338 -1.25246,0.85695 -0.19752,0.36579 -0.44921,2.31915 -2.894454,2.31915 -0.59327,0 -1.5521,-0.14957 -1.5521,-0.95882 0,-0.80301 0,-10.71485 0,-10.71485 0,0 0.15581,-0.85095 1.25247,-0.85095 1.096654,0 3.098194,0 3.098194,0 0,0 1.84574,-0.0479 2.35511,1.26445 0.4914,1.31238 1.74386,5.29749 2.13938,5.59712 0.40174,0.29964 2.10341,0.41949 2.10341,-0.29963 0,-0.70114 0,-8.77922 0,-8.77922 l -16.743444,0"
       style="fill:#000000;fill-opacity:1;fill-rule:nonzero;stroke:none"
       id="path3081" />
    <path
       inkscape:connector-curvature="0"
       d="m 32.908492,750.36511 -8.144,0 0,1.86371 c 0,0 0.65319,0.6532 0.94683,0.70713 0.29964,0.0537 1.05471,0.4612 1.05471,1.96559 0,1.51015 0,22.34057 0,22.34057 0,0 -0.0537,3.12217 -1.25246,3.48173 -0.54533,0.14382 -0.95283,0.90489 -0.95283,1.10265 0,0.2095 0,1.30639 0,1.30639 l 6.49602,0 0,-1.21051 c 0,0 -0.0959,-0.53934 -0.59327,-0.8989 -0.43147,-0.31737 -1.34834,-0.61724 -1.34834,-3.72742 0,-3.15213 0,-19.57198 0,-19.57198 0,0 0.19751,-1.90566 0.44345,-0.95283 0.25745,0.95283 6.40014,25.71444 6.40014,25.71444 0,0 0.10212,0.75507 1.5521,0.75507 1.44423,0 1.49816,-0.75507 1.49816,-0.75507 l 6.04658,-25.85826 c 0,0 0.30586,-1.31239 0.30586,0.55732 0,1.86371 0,20.39895 0,20.39895 0,0 0.0431,2.73265 -0.90489,3.02629 -0.94684,0.30538 -1.14459,0.77305 -1.14459,1.21651 0,0.23347 0,1.30639 0,1.30639 l 8.58746,0 0,-1.14459 c 0,0 -0.0432,-0.86294 -0.84497,-1.16857 -0.26943,-0.1141 -1.09665,-0.41373 -1.09665,-3.0922 0,-2.67871 0,-22.11885 0,-22.11885 0,0 -0.10212,-2.07345 1.09665,-2.45698 0.46743,-0.17978 1.15059,-0.68316 1.15059,-1.06669 0,-0.41373 0,-1.52813 0,-1.52813 l -8.29981,0 -5.04581,21.87914 c 0,0 -0.14957,2.18133 -0.75507,-0.25792 -0.59327,-2.42103 -5.19562,-21.81322 -5.19562,-21.81322"
       style="fill:#000000;fill-opacity:1;fill-rule:nonzero;stroke:none"
       id="path3083" />
    <path
       inkscape:connector-curvature="0"
       d="m 132.82389,750.6168 c 8.59944,0 10.73282,7.4908 11.20025,8.82716 2.54687,7.38294 0.31162,14.22055 -0.10212,15.60485 -2.80455,9.40245 -12.74635,8.3058 -12.74635,8.3058 0,0 -6.94547,0 -7.49679,0 -0.55133,0 -0.79703,-0.35956 -0.79703,-1.12062 0,-0.76107 0.64721,-1.15658 1.34835,-1.57008 0.69515,-0.40174 0.69515,-2.01352 0.69515,-2.01352 0,0 0,-23.08966 0,-24.21028 0,-1.09666 -0.61725,-1.34835 -1.09666,-1.60603 -0.84496,-0.4612 -0.70114,-1.16257 -0.70114,-1.16257 l 0,-1.11464 c 0,0 1.10265,0.0599 9.6961,0.0599 z m -2.84651,2.16934 0,28.08152 c 0,0 5.09974,0.76107 7.29904,-2.3611 0.18553,-0.27566 2.64875,-2.73264 2.64875,-11.27815 0,-8.53353 -2.25323,-11.76356 -2.55286,-12.06919 -0.29964,-0.29963 -0.94684,-2.37308 -7.39493,-2.37308"
       style="fill:#000000;fill-opacity:1;fill-rule:nonzero;stroke:none"
       id="path3085" />
  </g>
</svg>
