<?xml version="1.0" encoding="UTF-8"?>
<!DOCTYPE svg PUBLIC "-//W3C//DTD SVG 1.1//EN" "http://www.w3.org/Graphics/SVG/1.1/DTD/svg11.dtd">
<svg width="2018pt" height="433pt" viewBox="0 0 2018 433" version="1.1" xmlns="http://www.w3.org/2000/svg">
<g id="#ffffffff">
<path fill="#ffffff" opacity="1.00" d=" M 760.31 129.15 C 780.34 125.86 800.69 125.16 820.95 124.77 C 848.35 124.66 875.83 124.60 903.11 127.44 C 911.89 128.52 920.83 129.56 929.13 132.79 C 936.50 135.66 941.41 142.52 944.22 149.65 C 948.88 161.50 949.91 174.38 950.29 186.99 C 931.88 187.01 913.47 187.00 895.06 186.99 C 894.35 182.29 893.29 176.74 888.79 174.16 C 885.45 172.60 881.65 172.58 878.06 172.17 C 860.07 170.87 842.02 171.15 824.00 171.14 C 812.46 171.40 800.86 171.67 789.48 173.71 C 784.94 174.60 779.51 175.90 777.58 180.67 C 773.84 188.88 773.54 198.14 773.00 207.01 C 772.77 219.98 772.45 233.14 775.15 245.91 C 776.26 250.34 777.69 255.64 782.25 257.69 C 786.54 259.58 791.25 260.17 795.86 260.79 C 808.52 262.21 821.28 262.43 834.02 262.37 C 849.66 262.38 865.34 262.45 880.95 261.24 C 884.67 260.80 889.10 260.79 891.70 257.60 C 894.82 253.78 894.97 248.58 895.30 243.88 C 872.61 243.87 849.93 243.89 827.25 243.87 C 827.25 230.46 827.24 217.04 827.25 203.62 C 868.30 203.63 909.34 203.62 950.39 203.63 C 950.08 225.78 950.36 248.03 947.54 270.05 C 946.40 279.48 942.70 288.96 935.45 295.35 C 927.21 302.85 915.91 305.56 905.10 306.50 C 877.14 309.09 849.02 308.73 820.96 308.73 C 798.19 308.22 775.22 307.66 752.85 302.95 C 744.51 300.91 735.08 298.56 729.97 291.00 C 724.48 282.87 722.39 273.03 720.72 263.51 C 717.42 242.53 717.45 221.19 717.98 200.01 C 718.63 184.89 719.68 169.59 724.02 155.01 C 726.26 147.88 729.54 140.24 736.39 136.44 C 743.74 132.36 752.12 130.66 760.31 129.15 Z"/>
<path fill="#ffffff" opacity="1.00" d=" M 1457.28 130.26 C 1474.81 125.92 1492.99 125.29 1510.96 124.79 C 1536.48 124.63 1562.10 124.63 1587.47 127.78 C 1595.83 129.00 1604.39 130.25 1612.13 133.86 C 1618.82 136.97 1622.08 144.24 1623.92 150.98 C 1626.51 160.75 1627.07 170.93 1627.00 181.00 C 1609.92 181.00 1592.84 181.00 1575.76 181.00 C 1575.47 178.19 1575.02 175.15 1572.91 173.09 C 1569.63 169.60 1564.59 169.09 1560.10 168.59 C 1545.13 167.22 1530.07 167.38 1515.05 167.37 C 1506.01 167.53 1496.82 167.57 1488.02 169.86 C 1484.92 170.52 1482.53 172.91 1481.56 175.87 C 1478.62 184.07 1479.22 192.95 1478.97 201.52 C 1487.23 196.05 1497.13 194.01 1506.81 192.80 C 1519.15 191.33 1531.61 190.94 1544.04 190.99 C 1558.58 190.91 1573.18 191.40 1587.56 193.69 C 1595.12 195.01 1602.81 196.68 1609.57 200.48 C 1615.31 203.70 1619.33 209.30 1621.77 215.31 C 1625.35 224.05 1626.49 233.56 1626.93 242.92 C 1627.24 256.01 1627.00 269.40 1622.96 281.97 C 1620.64 289.08 1616.60 296.18 1609.83 299.86 C 1603.70 303.15 1596.80 304.59 1590.01 305.76 C 1578.11 307.66 1566.06 308.24 1554.03 308.49 C 1527.08 308.59 1500.01 308.47 1473.26 304.80 C 1464.17 303.33 1454.82 301.85 1446.62 297.45 C 1438.53 292.81 1435.32 283.34 1433.00 274.85 C 1427.68 253.02 1427.67 230.36 1427.75 208.02 C 1427.98 193.60 1428.65 179.13 1430.97 164.87 C 1432.48 156.60 1434.24 148.07 1438.80 140.87 C 1442.82 134.55 1450.44 132.17 1457.28 130.26 M 1493.52 234.84 C 1489.51 235.34 1484.97 235.92 1482.22 239.24 C 1478.66 243.54 1478.68 249.61 1479.54 254.84 C 1480.22 259.01 1483.24 262.85 1487.53 263.65 C 1496.52 265.62 1505.80 265.51 1514.96 265.84 C 1530.30 265.82 1545.71 266.30 1560.99 264.50 C 1565.12 263.91 1569.86 263.15 1572.53 259.55 C 1575.52 255.37 1575.49 249.84 1574.75 244.96 C 1574.09 240.60 1570.89 236.59 1566.42 235.79 C 1557.42 233.90 1548.15 233.97 1539.00 233.66 C 1523.83 233.66 1508.62 233.25 1493.52 234.84 Z"/>
<path fill="#ffffff" opacity="1.00" d=" M 502.75 127.13 C 566.96 127.12 631.17 127.12 695.38 127.13 C 695.37 141.58 695.38 156.04 695.38 170.50 C 649.50 170.51 603.63 170.49 557.75 170.51 C 557.75 178.71 557.75 186.91 557.75 195.12 C 588.34 195.13 618.92 195.11 649.50 195.13 C 649.50 209.50 649.50 223.87 649.50 238.25 C 618.91 238.26 588.33 238.24 557.75 238.26 C 557.75 246.42 557.75 254.58 557.75 262.74 C 603.63 262.76 649.50 262.74 695.37 262.75 C 695.38 277.17 695.37 291.58 695.38 306.00 C 631.17 306.00 566.96 306.00 502.75 306.00 C 502.75 246.37 502.75 186.75 502.75 127.13 Z"/>
<path fill="#ffffff" opacity="1.00" d=" M 1040.42 127.38 C 1071.97 127.37 1103.53 127.36 1135.09 127.38 C 1164.52 186.95 1194.10 246.44 1223.58 305.99 C 1202.12 306.02 1180.66 305.99 1159.20 306.00 C 1153.52 296.10 1147.83 286.20 1142.19 276.27 C 1105.91 276.22 1069.63 276.27 1033.34 276.25 C 1027.69 286.16 1022.03 296.07 1016.38 305.99 C 994.89 306.00 973.40 306.01 951.91 305.98 C 981.41 246.45 1010.97 186.94 1040.42 127.38 M 1083.56 167.89 C 1073.69 188.57 1063.78 209.22 1053.90 229.88 C 1076.47 229.86 1099.04 229.87 1121.61 229.88 C 1111.71 209.22 1101.86 188.55 1091.99 167.88 C 1089.17 167.87 1086.36 167.87 1083.56 167.89 Z"/>
<path fill="#ffffff" opacity="1.00" d=" M 1650.00 127.12 C 1714.92 127.13 1779.83 127.12 1844.75 127.13 C 1844.74 140.50 1844.75 153.87 1844.75 167.25 C 1796.00 167.25 1747.25 167.25 1698.50 167.25 C 1698.48 176.27 1698.51 185.29 1698.49 194.31 C 1708.88 188.72 1720.67 186.59 1732.26 185.15 C 1751.08 182.99 1770.08 183.33 1788.99 183.79 C 1803.75 184.47 1818.75 184.94 1833.06 188.99 C 1839.02 190.51 1844.11 194.62 1847.03 200.02 C 1852.51 209.93 1853.77 221.49 1854.53 232.60 C 1855.04 245.60 1855.00 258.76 1852.25 271.53 C 1850.41 279.76 1847.39 288.18 1841.24 294.22 C 1835.71 299.67 1827.89 301.67 1820.56 303.39 C 1801.32 307.38 1781.59 308.00 1762.01 308.47 C 1738.89 308.62 1715.71 308.45 1692.73 305.73 C 1683.89 304.51 1674.83 303.24 1666.72 299.30 C 1659.89 295.96 1654.76 289.63 1652.49 282.42 C 1649.42 272.94 1650.09 262.82 1650.00 253.00 C 1666.66 253.00 1683.32 252.99 1699.98 253.01 C 1700.57 257.07 1702.09 262.12 1706.70 263.11 C 1716.33 265.08 1726.25 264.73 1736.03 265.09 C 1752.16 265.10 1768.35 265.49 1784.42 263.78 C 1788.75 263.17 1794.05 262.75 1796.56 258.58 C 1800.29 252.20 1799.83 244.37 1799.32 237.27 C 1798.76 232.85 1797.35 227.25 1792.52 225.80 C 1784.47 223.95 1776.14 224.09 1767.94 223.73 C 1749.94 223.36 1731.93 223.35 1713.94 224.18 C 1710.38 224.54 1706.51 224.30 1703.34 226.18 C 1700.45 228.03 1699.97 231.66 1699.71 234.78 C 1683.14 234.72 1666.57 234.77 1650.00 234.75 C 1650.00 198.87 1650.00 163.00 1650.00 127.12 Z"/>
<path fill="#ffffff" opacity="1.00" d=" M 181.00 127.75 C 213.94 127.75 246.88 127.75 279.83 127.75 C 296.89 164.09 313.87 200.47 330.96 236.79 C 348.14 200.50 365.12 164.11 382.17 127.75 C 413.45 127.75 444.72 127.75 476.00 127.75 C 476.00 187.25 476.00 246.75 476.00 306.25 C 457.66 306.25 439.33 306.25 421.00 306.25 C 420.94 259.59 421.12 212.94 420.91 166.28 C 418.80 169.57 417.44 173.23 415.76 176.74 C 395.04 219.91 374.34 263.09 353.61 306.25 C 338.54 306.25 323.47 306.25 308.40 306.25 C 290.04 270.71 271.72 235.14 253.38 199.59 C 247.60 188.34 241.69 177.16 236.16 165.78 C 236.07 212.60 236.16 259.42 236.12 306.25 C 217.75 306.25 199.38 306.25 181.00 306.25 C 181.00 246.75 181.00 187.25 181.00 127.75 Z"/>
</g>
<g id="#3b3b3bff">
<path fill="#3b3b3b" opacity="1.00" d=" M 195.64 42.66 C 201.74 41.92 207.87 41.31 214.02 41.50 C 741.68 41.50 1269.34 41.50 1797.01 41.50 C 1839.08 40.49 1881.19 55.47 1913.60 82.24 C 1944.66 107.64 1966.21 144.33 1973.51 183.78 C 1981.44 225.31 1972.72 269.60 1950.19 305.32 C 1929.69 338.44 1897.52 363.92 1860.96 377.13 C 1839.60 384.95 1816.72 388.50 1794.01 388.00 C 1270.00 388.00 745.99 388.00 221.98 388.00 C 178.87 389.08 135.49 374.23 102.39 346.50 C 62.73 313.84 38.88 262.48 40.49 211.02 C 40.98 168.52 58.75 126.71 88.13 96.12 C 116.31 66.53 155.11 47.47 195.64 42.66 M 760.31 129.15 C 752.12 130.66 743.74 132.36 736.39 136.44 C 729.54 140.24 726.26 147.88 724.02 155.01 C 719.68 169.59 718.63 184.89 717.98 200.01 C 717.45 221.19 717.42 242.53 720.72 263.51 C 722.39 273.03 724.48 282.87 729.97 291.00 C 735.08 298.56 744.51 300.91 752.85 302.95 C 775.22 307.66 798.19 308.22 820.96 308.73 C 849.02 308.73 877.14 309.09 905.10 306.50 C 915.91 305.56 927.21 302.85 935.45 295.35 C 942.70 288.96 946.40 279.48 947.54 270.05 C 950.36 248.03 950.08 225.78 950.39 203.63 C 909.34 203.62 868.30 203.63 827.25 203.62 C 827.24 217.04 827.25 230.46 827.25 243.87 C 849.93 243.89 872.61 243.87 895.30 243.88 C 894.97 248.58 894.82 253.78 891.70 257.60 C 889.10 260.79 884.67 260.80 880.95 261.24 C 865.34 262.45 849.66 262.38 834.02 262.37 C 821.28 262.43 808.52 262.21 795.86 260.79 C 791.25 260.17 786.54 259.58 782.25 257.69 C 777.69 255.64 776.26 250.34 775.15 245.91 C 772.45 233.14 772.77 219.98 773.00 207.01 C 773.54 198.14 773.84 188.88 777.58 180.67 C 779.51 175.90 784.94 174.60 789.48 173.71 C 800.86 171.67 812.46 171.40 824.00 171.14 C 842.02 171.15 860.07 170.87 878.06 172.17 C 881.65 172.58 885.45 172.60 888.79 174.16 C 893.29 176.74 894.35 182.29 895.06 186.99 C 913.47 187.00 931.88 187.01 950.29 186.99 C 949.91 174.38 948.88 161.50 944.22 149.65 C 941.41 142.52 936.50 135.66 929.13 132.79 C 920.83 129.56 911.89 128.52 903.11 127.44 C 875.83 124.60 848.35 124.66 820.95 124.77 C 800.69 125.16 780.34 125.86 760.31 129.15 M 1457.28 130.26 C 1450.44 132.17 1442.82 134.55 1438.80 140.87 C 1434.24 148.07 1432.48 156.60 1430.97 164.87 C 1428.65 179.13 1427.98 193.60 1427.75 208.02 C 1427.67 230.36 1427.68 253.02 1433.00 274.85 C 1435.32 283.34 1438.53 292.81 1446.62 297.45 C 1454.82 301.85 1464.17 303.33 1473.26 304.80 C 1500.01 308.47 1527.08 308.59 1554.03 308.49 C 1566.06 308.24 1578.11 307.66 1590.01 305.76 C 1596.80 304.59 1603.70 303.15 1609.83 299.86 C 1616.60 296.18 1620.64 289.08 1622.96 281.97 C 1627.00 269.40 1627.24 256.01 1626.93 242.92 C 1626.49 233.56 1625.35 224.05 1621.77 215.31 C 1619.33 209.30 1615.31 203.70 1609.57 200.48 C 1602.81 196.68 1595.12 195.01 1587.56 193.69 C 1573.18 191.40 1558.58 190.91 1544.04 190.99 C 1531.61 190.94 1519.15 191.33 1506.81 192.80 C 1497.13 194.01 1487.23 196.05 1478.97 201.52 C 1479.22 192.95 1478.62 184.07 1481.56 175.87 C 1482.53 172.91 1484.92 170.52 1488.02 169.86 C 1496.82 167.57 1506.01 167.53 1515.05 167.37 C 1530.07 167.38 1545.13 167.22 1560.10 168.59 C 1564.59 169.09 1569.63 169.60 1572.91 173.09 C 1575.02 175.15 1575.47 178.19 1575.76 181.00 C 1592.84 181.00 1609.92 181.00 1627.00 181.00 C 1627.07 170.93 1626.51 160.75 1623.92 150.98 C 1622.08 144.24 1618.82 136.97 1612.13 133.86 C 1604.39 130.25 1595.83 129.00 1587.47 127.78 C 1562.10 124.63 1536.48 124.63 1510.96 124.79 C 1492.99 125.29 1474.81 125.92 1457.28 130.26 M 502.75 127.13 C 502.75 186.75 502.75 246.37 502.75 306.00 C 566.96 306.00 631.17 306.00 695.38 306.00 C 695.37 291.58 695.38 277.17 695.37 262.75 C 649.50 262.74 603.63 262.76 557.75 262.74 C 557.75 254.58 557.75 246.42 557.75 238.26 C 588.33 238.24 618.91 238.26 649.50 238.25 C 649.50 223.87 649.50 209.50 649.50 195.13 C 618.92 195.11 588.34 195.13 557.75 195.12 C 557.75 186.91 557.75 178.71 557.75 170.51 C 603.63 170.49 649.50 170.51 695.38 170.50 C 695.38 156.04 695.37 141.58 695.38 127.13 C 631.17 127.12 566.96 127.12 502.75 127.13 M 1040.42 127.38 C 1010.97 186.94 981.41 246.45 951.91 305.98 C 973.40 306.01 994.89 306.00 1016.38 305.99 C 1022.03 296.07 1027.69 286.16 1033.34 276.25 C 1069.63 276.27 1105.91 276.22 1142.19 276.27 C 1147.83 286.20 1153.52 296.10 1159.20 306.00 C 1180.66 305.99 1202.12 306.02 1223.58 305.99 C 1194.10 246.44 1164.52 186.95 1135.09 127.38 C 1103.53 127.36 1071.97 127.37 1040.42 127.38 M 1179.83 127.51 C 1184.97 137.83 1190.00 148.21 1195.21 158.51 C 1258.64 158.49 1322.07 158.52 1385.50 158.49 C 1385.50 148.16 1385.50 137.84 1385.49 127.51 C 1316.94 127.49 1248.38 127.50 1179.83 127.51 M 1650.00 127.12 C 1650.00 163.00 1650.00 198.87 1650.00 234.75 C 1666.57 234.77 1683.14 234.72 1699.71 234.78 C 1699.97 231.66 1700.45 228.03 1703.34 226.18 C 1706.51 224.30 1710.38 224.54 1713.94 224.18 C 1731.93 223.35 1749.94 223.36 1767.94 223.73 C 1776.14 224.09 1784.47 223.95 1792.52 225.80 C 1797.35 227.25 1798.76 232.85 1799.32 237.27 C 1799.83 244.37 1800.29 252.20 1796.56 258.58 C 1794.05 262.75 1788.75 263.17 1784.42 263.78 C 1768.35 265.49 1752.16 265.10 1736.03 265.09 C 1726.25 264.73 1716.33 265.08 1706.70 263.11 C 1702.09 262.12 1700.57 257.07 1699.98 253.01 C 1683.32 252.99 1666.66 253.00 1650.00 253.00 C 1650.09 262.82 1649.42 272.94 1652.49 282.42 C 1654.76 289.63 1659.89 295.96 1666.72 299.30 C 1674.83 303.24 1683.89 304.51 1692.73 305.73 C 1715.71 308.45 1738.89 308.62 1762.01 308.47 C 1781.59 308.00 1801.32 307.38 1820.56 303.39 C 1827.89 301.67 1835.71 299.67 1841.24 294.22 C 1847.39 288.18 1850.41 279.76 1852.25 271.53 C 1855.00 258.76 1855.04 245.60 1854.53 232.60 C 1853.77 221.49 1852.51 209.93 1847.03 200.02 C 1844.11 194.62 1839.02 190.51 1833.06 188.99 C 1818.75 184.94 1803.75 184.47 1788.99 183.79 C 1770.08 183.33 1751.08 182.99 1732.26 185.15 C 1720.67 186.59 1708.88 188.72 1698.49 194.31 C 1698.51 185.29 1698.48 176.27 1698.50 167.25 C 1747.25 167.25 1796.00 167.25 1844.75 167.25 C 1844.75 153.87 1844.74 140.50 1844.75 127.13 C 1779.83 127.12 1714.92 127.13 1650.00 127.12 M 181.00 127.75 C 181.00 187.25 181.00 246.75 181.00 306.25 C 199.38 306.25 217.75 306.25 236.12 306.25 C 236.16 259.42 236.07 212.60 236.16 165.78 C 241.69 177.16 247.60 188.34 253.38 199.59 C 271.72 235.14 290.04 270.71 308.40 306.25 C 323.47 306.25 338.54 306.25 353.61 306.25 C 374.34 263.09 395.04 219.91 415.76 176.74 C 417.44 173.23 418.80 169.57 420.91 166.28 C 421.12 212.94 420.94 259.59 421.00 306.25 C 439.33 306.25 457.66 306.25 476.00 306.25 C 476.00 246.75 476.00 187.25 476.00 127.75 C 444.72 127.75 413.45 127.75 382.17 127.75 C 365.12 164.11 348.14 200.50 330.96 236.79 C 313.87 200.47 296.89 164.09 279.83 127.75 C 246.88 127.75 213.94 127.75 181.00 127.75 M 1204.09 176.50 C 1209.13 186.86 1214.30 197.16 1219.38 207.50 C 1274.75 207.50 1330.12 207.51 1385.49 207.49 C 1385.50 197.16 1385.50 186.84 1385.49 176.51 C 1325.02 176.49 1264.56 176.50 1204.09 176.50 M 1228.27 225.51 C 1233.43 235.82 1238.46 246.19 1243.63 256.50 C 1290.92 256.50 1338.21 256.50 1385.50 256.50 C 1385.50 246.16 1385.50 235.83 1385.50 225.50 C 1333.09 225.50 1280.68 225.49 1228.27 225.51 M 1252.77 275.01 C 1257.86 285.35 1262.98 295.66 1268.08 306.00 C 1307.22 306.00 1346.36 306.01 1385.50 305.99 C 1385.50 295.66 1385.50 285.34 1385.50 275.01 C 1341.26 274.99 1297.01 274.99 1252.77 275.01 Z"/>
<path fill="#3b3b3b" opacity="1.00" d=" M 1083.56 167.89 C 1086.36 167.87 1089.17 167.87 1091.99 167.88 C 1101.86 188.55 1111.71 209.22 1121.61 229.88 C 1099.04 229.87 1076.47 229.86 1053.90 229.88 C 1063.78 209.22 1073.69 188.57 1083.56 167.89 Z"/>
<path fill="#3b3b3b" opacity="1.00" d=" M 1493.52 234.84 C 1508.62 233.25 1523.83 233.66 1539.00 233.66 C 1548.15 233.97 1557.42 233.90 1566.42 235.79 C 1570.89 236.59 1574.09 240.60 1574.75 244.96 C 1575.49 249.84 1575.52 255.37 1572.53 259.55 C 1569.86 263.15 1565.12 263.91 1560.99 264.50 C 1545.71 266.30 1530.30 265.82 1514.96 265.84 C 1505.80 265.51 1496.52 265.62 1487.53 263.65 C 1483.24 262.85 1480.22 259.01 1479.54 254.84 C 1478.68 249.61 1478.66 243.54 1482.22 239.24 C 1484.97 235.92 1489.51 235.34 1493.52 234.84 Z"/>
</g>
<g id="#356effff">
<path fill="#356eff" opacity="1.00" d=" M 1179.83 127.51 C 1248.38 127.50 1316.94 127.49 1385.49 127.51 C 1385.50 137.84 1385.50 148.16 1385.50 158.49 C 1322.07 158.52 1258.64 158.49 1195.21 158.51 C 1190.00 148.21 1184.97 137.83 1179.83 127.51 Z"/>
</g>
<g id="#13e936ff">
<path fill="#13e936" opacity="1.00" d=" M 1204.09 176.50 C 1264.56 176.50 1325.02 176.49 1385.49 176.51 C 1385.50 186.84 1385.50 197.16 1385.49 207.49 C 1330.12 207.51 1274.75 207.50 1219.38 207.50 C 1214.30 197.16 1209.13 186.86 1204.09 176.50 Z"/>
</g>
<g id="#f7ff23ff">
<path fill="#f7ff23" opacity="1.00" d=" M 1228.27 225.51 C 1280.68 225.49 1333.09 225.50 1385.50 225.50 C 1385.50 235.83 1385.50 246.16 1385.50 256.50 C 1338.21 256.50 1290.92 256.50 1243.63 256.50 C 1238.46 246.19 1233.43 235.82 1228.27 225.51 Z"/>
</g>
<g id="#d64600ff">
<path fill="#d64600" opacity="1.00" d=" M 1252.77 275.01 C 1297.01 274.99 1341.26 274.99 1385.50 275.01 C 1385.50 285.34 1385.50 295.66 1385.50 305.99 C 1346.36 306.01 1307.22 306.00 1268.08 306.00 C 1262.98 295.66 1257.86 285.35 1252.77 275.01 Z"/>
</g>
</svg>