<?xml version="1.0" encoding="UTF-8" standalone="no"?><!-- Generator: Gravit.io --><svg xmlns="http://www.w3.org/2000/svg" xmlns:xlink="http://www.w3.org/1999/xlink" style="isolation:isolate" viewBox="0 0 1920 1080" width="1920pt" height="1080pt"><defs><clipPath id="_clipPath_XIygv7YZdl7DorGcwEnHhJcLCOAkxOJX"><rect width="1920" height="1080"/></clipPath></defs><g clip-path="url(#_clipPath_XIygv7YZdl7DorGcwEnHhJcLCOAkxOJX)"><path d=" M 638.035 465.958 C 635.293 464.304 632.638 462.506 630.081 460.571 Q 627.698 465.292 626.56 467.68 C 624.58 471.81 622.63 475.94 620.7 480.09 C 615.69 490.92 610.74 501.78 605.88 512.68 C 600.29 525.16 594.76 537.68 589.29 550.22 C 581.55 567.93 573.95 585.7 566.51 603.54 C 551.89 599.69 538.06 593.29 525.67 584.62 C 522.29 582.25 519.04 579.68 515.95 576.92 C 512.86 574.17 509.95 571.21 507.24 568.07 C 504.5 564.9 502.01 561.52 499.79 557.97 C 497.52 554.34 495.57 550.53 493.96 546.57 C 490.6 538.3 488.87 529.45 488.87 520.52 C 488.88 514.79 489.57 509.08 490.9 503.51 C 492.31 497.63 494.33 491.91 496.92 486.44 L 496.92 486.44 C 501.18 477.44 506.86 469.19 513.75 462.01 C 520.61 454.86 528.45 448.74 537.04 443.83 C 542.097 440.931 547.365 438.428 552.796 436.34 C 549.912 435.409 547.059 434.382 544.24 433.26 C 528.35 426.93 513.86 417.55 501.59 405.64 C 489.13 393.52 479.26 379 472.56 362.96 C 469.07 354.62 466.44 345.95 464.69 337.08 C 462.87 327.79 461.96 318.35 461.98 308.89 Q 461.98 308.84 462 306.16 C 462.15 297.64 463.2 289.16 465.14 280.86 C 467.02 272.81 469.76 264.98 473.3 257.51 C 476.78 250.16 481.01 243.19 485.92 236.71 C 490.82 230.25 496.34 224.3 502.4 218.93 C 508.51 213.52 515.13 208.71 522.15 204.55 C 529.29 200.32 536.8 196.75 544.6 193.89 C 552.6 190.96 560.84 188.74 569.23 187.27 C 577.9 185.75 586.69 184.99 595.49 185 C 612.98 184.97 630.34 188.11 646.72 194.27 C 654.55 197.23 662.1 200.89 669.27 205.22 C 674.44 208.334 679.384 211.798 684.059 215.604 Q 684.059 215.604 685.059 214.604 C 690.257 211.085 694.618 208.812 700.12 205.79 C 709.02 200.9 718.3 196.72 727.86 193.3 C 737.07 190 746.54 187.46 756.17 185.72 C 765.47 184.03 774.91 183.17 784.36 183.15 C 793.43 183.13 802.47 183.98 811.38 185.7 C 820.13 187.39 828.67 190.02 836.86 193.55 C 845.03 197.09 852.75 201.59 859.85 206.97 C 867.06 212.45 873.54 218.83 879.12 225.97 C 886.91 235.89 892.94 247.08 896.94 259.05 C 898.88 264.87 900.33 270.84 901.27 276.91 C 902.21 282.93 902.68 289.02 902.67 295.12 C 902.67 301.09 902.24 307.04 901.4 312.95 C 900.55 318.92 899.32 324.83 897.71 330.64 C 896.07 336.55 894.09 342.35 891.77 348.03 C 889.4 353.82 886.72 359.48 883.73 364.99 C 880.67 370.62 877.33 376.09 873.72 381.38 C 870.01 386.8 866.05 392.04 861.84 397.08 C 861.282 397.747 860.719 398.41 860.156 399.073 C 869.19 403.368 877.917 408.294 886.26 413.81 C 890.93 416.92 895.45 420.23 899.82 423.75 C 904.08 427.18 908.17 430.81 912.07 434.65 C 915.89 438.4 919.5 442.36 922.89 446.51 C 926.23 450.59 929.33 454.86 932.16 459.31 C 934.96 463.71 937.48 468.28 939.7 473 C 941.9 477.71 943.77 482.56 945.31 487.52 C 948.41 497.55 949.99 508 950 518.5 C 949.99 529 948.41 539.45 945.31 549.48 C 943.77 554.44 941.9 559.29 939.7 564 C 937.48 568.72 934.96 573.29 932.16 577.69 C 929.33 582.14 926.23 586.41 922.89 590.49 C 919.5 594.64 915.89 598.6 912.07 602.35 C 908.17 606.19 904.08 609.82 899.82 613.25 C 895.45 616.77 890.93 620.08 886.26 623.19 C 876.55 629.61 866.32 635.23 855.69 639.98 C 844.5 644.99 832.96 649.16 821.16 652.47 C 808.75 655.95 796.12 658.56 783.35 660.29 C 769.98 662.1 756.5 663.01 743 663 Q 716.02 662.1 702.65 660.29 C 689.88 658.56 677.25 655.95 664.84 652.47 C 653.04 649.16 641.5 644.99 630.31 639.98 C 619.68 635.23 609.45 629.61 599.74 623.19 C 595.07 620.08 590.55 616.77 586.18 613.25 C 582.986 610.678 579.887 607.993 576.892 605.192 L 638.035 465.958 Z  M 693.56 480.769 C 694.52 480.787 695.48 480.794 696.44 480.79 C 702.07 480.78 707.69 480.47 713.29 479.85 C 719.05 479.22 724.79 478.3 730.47 477.11 C 735.032 476.151 739.557 475.034 744.041 473.758 L 673.615 634.133 C 659.02 630.242 645.333 625.16 632.823 619.067 Q 693.559 480.769 693.56 480.769 Z  M 823.998 432.923 C 827.008 430.633 829.97 428.278 832.88 425.86 C 837.286 422.217 841.548 418.409 845.656 414.441 C 853.958 418.085 861.802 422.155 869.114 426.606 L 774.88 641.195 C 764.519 642.382 753.867 643 743 643 C 739.254 643 735.533 642.926 731.841 642.782 L 823.998 432.923 Z  M 666 229 C 655.743 237.422 647.645 245.713 638.87 255.68 C 633.83 261.42 629.08 267.41 624.64 273.63 C 620.33 279.67 616.34 285.93 612.69 292.4 C 609.14 298.69 605.94 305.18 603.12 311.83 C 600.36 318.32 598.01 324.97 596.06 331.75 C 594.16 338.38 592.69 345.13 591.68 351.96 C 590.69 358.68 590.19 365.47 590.18 372.26 C 590.17 378.35 590.6 384.43 591.46 390.46 C 592.32 396.49 593.63 402.45 595.4 408.28 C 596.911 413.252 598.751 418.11 600.909 422.822 C 599.121 422.949 597.315 423 595.5 423 C 532.858 423 480.75 375.375 482 306.5 L 482 306.5 C 483.057 248.255 532.858 205 595.5 205 C 622.811 205 647.883 213.645 667.462 228.054 Q 667.462 228.054 666 229 Z  M 685.876 238.958 C 747.12 191.691 826.348 190.964 863.377 238.304 C 902.25 288 879.653 361.077 820.124 410.456 C 750.75 468 662.25 478.5 628 430 C 589.019 374.801 616.5 292.5 685.876 238.958 L 685.876 238.958 L 685.876 238.958 L 685.876 238.958 Z  M 515 495 C 530.343 462.235 571.25 442.75 613 450 C 603.306 468.684 574.233 533.847 555.342 578.502 C 521.553 563.386 496.857 533.744 515 495 L 515 495 L 515 495 Z  M 913.352 467.11 C 924.044 482.779 930 500.18 930 518.5 C 930 562.18 896.14 600.637 844.956 622.86 L 913.352 467.11 Z " fill-rule="evenodd" fill="rgb(195,74,74)"/></g></svg>