<?xml version="1.0" encoding="UTF-8" standalone="no"?>
<!-- Generator: Gravit.io -->
<svg xmlns="http://www.w3.org/2000/svg" xmlns:xlink="http://www.w3.org/1999/xlink" style="isolation:isolate" viewBox="0 0 2000 1000" width="2000pt" height="1000pt"><defs><clipPath id="_clipPath_8Fo9Iqxx51EnPXQ7ZrhztFqqgJRB9v7w"><rect width="2000" height="1000"/></clipPath></defs><g clip-path="url(#_clipPath_8Fo9Iqxx51EnPXQ7ZrhztFqqgJRB9v7w)"><path d=" M 740.34 453.759 L 707.5 501.802 L 707.5 460.141 C 707.511 459.253 707.418 458.36 707.22 457.48 C 706.69 455.121 705.438 453.006 703.657 451.42 C 703.476 451.254 703.287 451.096 703.086 450.951 C 702.981 450.86 702.87 450.776 702.758 450.694 C 702.561 450.549 702.358 450.411 702.15 450.28 C 699.57 448.65 696.45 448.11 693.48 448.78 C 691.121 449.31 689.006 450.562 687.42 452.343 C 687.254 452.524 687.096 452.713 686.951 452.914 C 686.86 453.019 686.776 453.13 686.695 453.242 C 686.549 453.439 686.411 453.642 686.28 453.85 L 636.28 532.85 C 634.65 535.43 634.11 538.55 634.78 541.52 C 635.45 544.5 637.27 547.09 639.85 548.72 C 642.43 550.35 645.55 550.89 648.52 550.22 C 651.5 549.55 654.09 547.73 655.72 545.15 L 684.5 499.678 L 684.5 538.919 L 684.5 539 C 684.5 542.05 685.71 544.98 687.87 547.13 C 690.02 549.29 692.95 550.5 696 550.5 C 699.05 550.5 701.98 549.29 704.13 547.13 C 704.71 546.552 705.222 545.919 705.66 545.241 L 738.5 497.198 L 738.5 539 C 738.5 542.05 739.71 544.98 741.87 547.13 C 744.02 549.29 746.95 550.5 750 550.5 C 753.05 550.5 755.98 549.29 758.13 547.13 C 760.29 544.98 761.5 542.05 761.5 539 L 761.5 460.081 C 761.505 459.348 761.439 458.611 761.3 457.88 C 760.74 454.88 759.01 452.23 756.49 450.51 C 753.97 448.79 750.87 448.13 747.88 448.7 C 744.88 449.26 742.23 450.99 740.51 453.51 L 740.34 453.759 Z " fill="rgb(255,0,0)"/><path d=" M 585.935 527.5 L 624.213 471.5 L 477 471.5 C 473.95 471.5 471.02 470.29 468.87 468.13 C 466.71 465.98 465.5 463.05 465.5 460 C 465.5 456.95 466.71 454.02 468.87 451.87 C 471.02 449.71 473.95 448.5 477 448.5 L 645.923 448.5 L 646 448.5 C 649.05 448.5 651.98 449.71 654.13 451.87 C 656.29 454.02 657.5 456.95 657.5 460 C 657.5 462.428 656.733 464.779 655.332 466.722 L 601.49 545.49 C 599.77 548.01 597.12 549.74 594.12 550.3 C 593.47 550.424 592.814 550.49 592.161 550.494 C 592.109 550.499 592.055 550.5 592 550.5 L 591.919 550.5 L 477 550.5 C 473.95 550.5 471.02 549.29 468.87 547.13 C 466.71 544.98 465.5 542.05 465.5 539 C 465.5 535.95 466.71 533.02 468.87 530.87 C 471.02 528.71 473.95 527.5 477 527.5 L 585.935 527.5 Z " fill="rgb(255,0,0)"/><path d=" M 1405.837 550.494 C 1405.184 550.49 1404.53 550.424 1403.88 550.3 C 1400.88 549.74 1398.23 548.01 1396.51 545.49 L 1342.51 466.49 C 1341.252 464.647 1340.561 462.493 1340.512 460.299 C 1340.503 460.2 1340.5 460.1 1340.5 460 C 1340.5 456.95 1341.71 454.02 1343.87 451.87 C 1346.02 449.71 1348.95 448.5 1352 448.5 L 1352.077 448.5 L 1521 448.5 C 1524.05 448.5 1526.98 449.71 1529.13 451.87 C 1531.29 454.02 1532.5 456.95 1532.5 460 C 1532.5 463.05 1531.29 465.98 1529.13 468.13 C 1526.98 470.29 1524.05 471.5 1521 471.5 L 1373.787 471.5 L 1412.065 527.5 L 1521 527.5 C 1524.05 527.5 1526.98 528.71 1529.13 530.87 C 1531.29 533.02 1532.5 535.95 1532.5 539 C 1532.5 542.05 1531.29 544.98 1529.13 547.13 C 1526.98 549.29 1524.05 550.5 1521 550.5 L 1406.081 550.5 L 1406 550.5 C 1405.945 550.5 1405.891 550.499 1405.837 550.494 Z " fill="rgb(255,0,0)"/><path d=" M 802.5 501.802 L 835.51 453.51 C 837.23 450.99 839.88 449.26 842.88 448.7 C 845.87 448.13 848.97 448.79 851.49 450.51 C 854.01 452.23 855.74 454.88 856.3 457.88 C 856.439 458.611 856.505 459.348 856.5 460.081 L 856.5 539 C 856.5 542.05 855.29 544.98 853.13 547.13 C 850.98 549.29 848.05 550.5 845 550.5 C 841.95 550.5 839.02 549.29 836.87 547.13 C 834.71 544.98 833.5 542.05 833.5 539 L 833.5 497.198 L 800.49 545.49 C 798.77 548.01 796.12 549.74 793.12 550.3 C 790.13 550.87 787.03 550.21 784.51 548.49 C 781.99 546.77 780.26 544.12 779.7 541.12 C 779.561 540.389 779.495 539.652 779.5 538.919 L 779.5 460 C 779.5 456.95 780.71 454.02 782.87 451.87 C 785.02 449.71 787.95 448.5 791 448.5 C 794.05 448.5 796.98 449.71 799.13 451.87 C 801.29 454.02 802.5 456.95 802.5 460 L 802.5 501.802 Z " fill="rgb(255,0,0)"/><path d=" M 1208 527.5 L 1187.5 527.5 L 1187.5 460 C 1187.5 456.95 1186.29 454.02 1184.13 451.87 C 1181.98 449.71 1179.05 448.5 1176 448.5 C 1172.95 448.5 1170.02 449.71 1167.87 451.87 C 1165.71 454.02 1164.5 456.95 1164.5 460 L 1164.5 538 C 1164.5 544.899 1170.101 550.5 1177 550.5 L 1262 550.5 C 1268.899 550.5 1274.5 544.899 1274.5 538 L 1274.5 460 C 1274.5 456.95 1273.29 454.02 1271.13 451.87 C 1268.98 449.71 1266.05 448.5 1263 448.5 C 1259.95 448.5 1257.02 449.71 1254.87 451.87 C 1252.71 454.02 1251.5 456.95 1251.5 460 L 1251.5 527.5 L 1231 527.5 L 1231 460 C 1231 456.95 1229.79 454.02 1227.63 451.87 C 1225.48 449.71 1222.55 448.5 1219.5 448.5 C 1216.45 448.5 1213.52 449.71 1211.37 451.87 C 1209.21 454.02 1208 456.95 1208 460 L 1208 527.5 Z " fill="rgb(255,0,0)"/><path d=" M 986.869 448.515 C 986.663 448.506 986.457 448.5 986.25 448.5 L 977.5 448.5 C 970.325 448.5 964.5 454.325 964.5 461.5 L 964.5 539 C 964.5 542.05 965.71 544.98 967.87 547.13 C 970.02 549.29 972.95 550.5 976 550.5 C 979.05 550.5 981.98 549.29 984.13 547.13 C 986.29 544.98 987.5 542.05 987.5 539 L 987.5 526.5 C 997.84 526.5 1007.77 522.39 1015.08 515.08 C 1022.39 507.77 1026.5 497.84 1026.5 487.5 C 1026.5 477.16 1022.39 467.23 1015.08 459.92 C 1007.77 452.61 997.84 448.5 987.5 448.5 C 987.289 448.5 987.079 448.506 986.869 448.515 Z  M 987.5 471.5 L 987.5 503.5 C 991.74 503.5 995.81 501.81 998.81 498.81 C 1001.81 495.81 1003.5 491.74 1003.5 487.5 C 1003.5 483.26 1001.81 479.19 998.81 476.19 C 995.81 473.19 991.74 471.5 987.5 471.5 L 987.5 471.5 Z " fill-rule="evenodd" fill="rgb(255,0,0)"/><path d=" M 908.771 508.278 L 898.21 519.05 C 897.982 519.283 897.745 519.506 897.5 519.717 L 897.5 539 C 897.5 542.05 896.29 544.98 894.13 547.13 C 891.98 549.29 889.05 550.5 886 550.5 C 882.95 550.5 880.02 549.29 877.87 547.13 C 875.71 544.98 874.5 542.05 874.5 539 L 874.5 460 C 874.5 456.95 875.71 454.02 877.87 451.87 C 880.02 449.71 882.95 448.5 886 448.5 C 889.05 448.5 891.98 449.71 894.13 451.87 C 896.29 454.02 897.5 456.95 897.5 460 L 897.5 486.926 L 931.79 451.95 C 933.92 449.77 936.84 448.53 939.89 448.5 C 942.93 448.47 945.87 449.65 948.05 451.79 C 950.23 453.92 951.47 456.84 951.5 459.89 C 951.53 462.93 950.35 465.87 948.21 468.05 L 925.458 491.257 L 949.93 533.21 C 951.47 535.84 951.9 538.98 951.12 541.93 C 950.35 544.88 948.43 547.4 945.79 548.93 C 943.16 550.47 940.02 550.9 937.07 550.12 C 934.12 549.35 931.6 547.43 930.07 544.79 L 908.771 508.278 Z " fill="rgb(255,0,0)"/><path d=" M 1034.5 498.5 C 1034.49 490.284 1036.143 482.146 1039.341 474.569 C 1042.431 467.258 1046.908 460.626 1052.517 455.017 C 1058.126 449.408 1064.758 444.931 1072.069 441.841 C 1079.636 438.643 1087.774 436.99 1096 437 C 1104.226 436.99 1112.364 438.643 1119.931 441.841 C 1127.242 444.931 1133.874 449.408 1139.483 455.017 C 1145.092 460.626 1149.569 467.258 1152.659 474.569 C 1155.857 482.136 1157.51 490.274 1157.5 498.5 C 1157.51 506.726 1155.857 514.864 1152.659 522.431 C 1149.569 529.742 1145.092 536.374 1139.483 541.983 C 1133.874 547.592 1127.242 552.069 1119.931 555.159 C 1112.364 558.357 1104.226 560.01 1096 560 C 1087.774 560.01 1079.636 558.357 1072.069 555.159 C 1064.758 552.069 1058.126 547.592 1052.517 541.983 C 1046.908 536.374 1042.431 529.742 1039.341 522.431 C 1036.143 514.864 1034.49 506.726 1034.5 498.5 Z  M 1057.132 498.5 C 1057.122 493.304 1058.165 488.158 1060.182 483.376 C 1062.141 478.761 1064.974 474.569 1068.527 471.027 C 1072.069 467.474 1076.261 464.641 1080.886 462.682 C 1085.668 460.665 1090.804 459.622 1096 459.632 C 1101.196 459.622 1106.332 460.665 1111.114 462.682 C 1115.739 464.641 1119.931 467.474 1123.473 471.027 C 1127.026 474.569 1129.859 478.761 1131.818 483.386 C 1133.835 488.168 1134.878 493.304 1134.868 498.5 C 1134.878 503.695 1133.835 508.832 1131.818 513.614 C 1129.859 518.239 1127.026 522.431 1123.473 525.973 C 1119.931 529.526 1115.739 532.359 1111.114 534.318 C 1106.332 536.335 1101.196 537.378 1096 537.368 C 1090.804 537.378 1085.668 536.335 1080.886 534.318 C 1076.261 532.359 1072.069 529.526 1068.527 525.973 C 1064.974 522.431 1062.141 518.239 1060.182 513.614 C 1058.165 508.832 1057.122 503.695 1057.132 498.5 Z " fill-rule="evenodd" fill="rgb(255,0,0)"/><path d=" M 1328.428 520.5 L 1312.5 497.198 L 1312.5 520.5 L 1328.428 520.5 Z  M 1344.15 543.5 L 1345.51 545.49 C 1347.23 548.01 1349.88 549.74 1352.88 550.3 C 1355.87 550.87 1358.97 550.21 1361.49 548.49 C 1364.01 546.77 1365.74 544.12 1366.3 541.12 C 1366.87 538.13 1366.21 535.03 1364.49 532.51 L 1310.66 453.759 C 1310.579 453.633 1310.495 453.509 1310.404 453.389 C 1310.03 452.848 1309.603 452.34 1309.13 451.87 C 1306.98 449.71 1304.05 448.5 1301 448.5 C 1297.95 448.5 1295.02 449.71 1292.87 451.87 C 1290.71 454.02 1289.5 456.95 1289.5 460 L 1289.5 539 C 1289.5 542.05 1290.71 544.98 1292.87 547.13 C 1295.02 549.29 1297.95 550.5 1301 550.5 C 1304.05 550.5 1306.98 549.29 1309.13 547.13 C 1310.185 546.08 1311.013 544.845 1311.584 543.5 L 1344.15 543.5 Z " fill-rule="evenodd" fill="rgb(255,0,0)"/></g></svg>