<?xml version="1.0" encoding="UTF-8"?>
<svg width="200px" height="30px" viewBox="0 0 200 30" version="1.1" xmlns="http://www.w3.org/2000/svg" xmlns:xlink="http://www.w3.org/1999/xlink">
    <title>multi-mega</title>
    <g id="Page-1" stroke="none" stroke-width="1" fill="none" fill-rule="evenodd">
        <g id="System" fill="#000000" fill-rule="nonzero">
            <g id="multi-mega">
                <line x1="100" y1="30" x2="100" y2="0" id="Path" stroke="#979797"></line>
                <path d="M0,12.2850679 L0,9.57013575 L24.6774402,9.57013575 C25.8840767,9.57013575 27.1493213,10.4751131 27.1493213,12.2850679 L0,12.2850679 Z M0,20.4298643 L0,13.1900452 L4.52488688,13.1900452 L4.52488688,20.4298643 L0,20.4298643 Z M10.8597285,20.4298643 L10.8597285,13.1900452 L15.3846154,13.1900452 L15.3846154,20.4298643 L10.8597285,20.4298643 Z M22.6244344,20.4298643 L22.6244344,13.1900452 L27.1493213,13.1900452 L27.1493213,20.4298643 L22.6244344,20.4298643 Z M34.3891403,12.2850679 L29.8642534,12.2850679 L29.8642534,9.57013575 L34.3891403,9.57013575 L34.3891403,12.2850679 Z M44.3438914,12.2850679 L44.3438914,9.57013575 L48.8687783,9.57013575 L48.8687783,12.2850679 L44.3438914,12.2850679 Z M32.3361345,20.4298643 C31.129498,20.4298643 29.8642534,19.5248869 29.8642534,17.7149321 L29.8642534,13.1900452 L34.3891403,13.1900452 L34.3891403,16.8099548 C34.3891403,17.413273 34.6907994,17.7149321 35.2941176,17.7149321 L43.438914,17.7149321 C44.0422323,17.7149321 44.3438914,17.413273 44.3438914,16.8099548 L44.3438914,13.1900452 L48.8687783,13.1900452 L48.8687783,17.7149321 C48.8687783,19.5248869 47.6035337,20.4298643 46.3968972,20.4298643 L32.3361345,20.4298643 Z M56.1085973,13.1900452 L56.1085973,16.8099548 C56.1085973,17.413273 56.4102564,17.7149321 57.0135747,17.7149321 L67.8733032,17.7149321 L67.8733032,20.4298643 L54.0555915,20.4298643 C52.848955,20.4298643 51.5837104,19.5248869 51.5837104,17.7149321 L51.5837104,13.1900452 L56.1085973,13.1900452 Z M78.7330317,13.1900452 L78.7330317,20.4298643 L74.2081448,20.4298643 L74.2081448,13.1900452 L78.7330317,13.1900452 Z M56.1085973,9.57013575 L56.1085973,12.2850679 L51.5837104,12.2850679 L51.5837104,9.57013575 L56.1085973,9.57013575 Z M85.0678733,9.57013575 L85.0678733,12.2850679 L67.8733032,12.2850679 L67.8733032,9.57013575 L85.0678733,9.57013575 Z M88.6877828,20.4298643 L88.6877828,9.57013575 L93.2126697,9.57013575 L93.2126697,20.4298643 L88.6877828,20.4298643 Z M96.8325792,16.8099548 L96.8325792,14.0950226 L104.977376,14.0950226 L104.977376,16.8099548 L96.8325792,16.8099548 Z M108.597285,12.2850679 L108.597285,9.57013575 L133.274725,9.57013575 C134.481362,9.57013575 135.746606,10.4751131 135.746606,12.2850679 L108.597285,12.2850679 Z M108.597285,20.4298643 L108.597285,13.1900452 L113.122172,13.1900452 L113.122172,20.4298643 L108.597285,20.4298643 Z M119.457014,20.4298643 L119.457014,13.1900452 L123.9819,13.1900452 L123.9819,20.4298643 L119.457014,20.4298643 Z M131.221719,20.4298643 L131.221719,13.1900452 L135.746606,13.1900452 L135.746606,20.4298643 L131.221719,20.4298643 Z M138.461538,17.7149321 L138.461538,13.1900452 L142.986425,13.1900452 C142.986425,13.7933635 143.288084,14.0950226 143.891403,14.0950226 L154.751131,14.0950226 L154.751131,16.8099548 L142.986425,16.8099548 C142.986425,17.413273 143.288084,17.7149321 143.891403,17.7149321 L155.656109,17.7149321 L155.656109,20.4298643 L140.271493,20.4298643 C139.064857,20.4298643 138.461538,19.5248869 138.461538,17.7149321 Z M138.461538,12.2850679 L138.461538,9.57013575 L155.656109,9.57013575 L155.656109,12.2850679 L138.461538,12.2850679 Z M158.371041,12.2850679 C158.371041,10.4751131 159.636285,9.57013575 160.842922,9.57013575 L177.375566,9.57013575 L177.375566,12.2850679 L158.371041,12.2850679 Z M158.371041,17.7149321 L158.371041,13.1900452 L162.895928,13.1900452 L162.895928,17.7149321 L171.945701,17.7149321 C172.54902,17.7149321 172.850679,17.5641026 172.850679,17.2624434 C172.850679,16.9607843 172.54902,16.8099548 171.945701,16.8099548 L167.420814,16.8099548 L167.420814,14.0950226 L175.565611,14.0950226 C177.375566,14.0950226 178.280543,15 178.280543,16.8099548 L178.280543,17.7149321 C178.280543,19.5248869 177.088931,20.4298643 175.882295,20.4298643 L160.978872,20.4298643 C159.772236,20.4298643 158.371041,19.5248869 158.371041,17.7149321 Z M180.995475,20.4298643 L180.995475,13.1900452 L185.520362,13.1900452 L185.520362,20.4298643 L180.995475,20.4298643 Z M195.475113,20.4298643 L195.475113,18.6199095 L186.425339,18.6199095 L186.425339,15.9049774 L195.475113,15.9049774 L195.475113,13.1900452 L200,13.1900452 L200,20.4298643 L195.475113,20.4298643 Z M180.995475,12.2850679 C180.995475,10.4751131 182.26072,9.57013575 183.467356,9.57013575 L197.528119,9.57013575 C198.734755,9.57013575 200,10.4751131 200,12.2850679 L180.995475,12.2850679 Z" id="Combined-Shape"></path>
            </g>
        </g>
    </g>
</svg>