<?xml version="1.0" encoding="UTF-8"?>
<!-- Created with Inkscape (http://www.inkscape.org/) -->
<svg version="1.1" viewBox="0 0 653 531" xmlns="http://www.w3.org/2000/svg">
 <g transform="translate(-206,-511)">
  <path d="m532.5 511c-112.92 0-186.74 0.018-235.06 11h470.12c-48.32-10.982-122.15-11-235.06-11zm-282.64 31c-4.8176 3.5673-9.1128 7.5618-12.928 12h591.13c-3.8149-4.4382-8.1102-8.4327-12.928-12zm-23.701 28c-2.584 4.943-4.9232 10.192-6.8848 16h626.45c-1.9615-5.8076-4.3007-11.057-6.8848-16zm-10.574 29c-1.6567 6.7927-3.0284 14.117-4.1602 22h642.15c-1.1318-7.8827-2.5034-15.207-4.1602-22zm-5.291 31c-1.2415 10.696-2.0394 22.793-2.6602 35.5h649.73c-0.62074-12.707-1.4186-24.804-2.6602-35.5zm-2.873 40.5c-1.2725 29.666-1.4219 64.218-1.4219 106s0.14939 76.334 1.4219 106h650.16c1.2725-29.666 1.4219-64.218 1.4219-106s-0.14939-76.334-1.4219-106zm30.578 26.5h65s30.5 79 30.5 85h0.5v-85h46v151h-65s-28.5-78.708-28.5-85h-0.5v85h-48zm189 0h71l41 151h-58l-4.3867-29h-28.227l-4.3867 29h-58zm120 0h88.5c22.367 0 40.5 18.133 40.5 40.5 0 19.084-9.5942 29.101-25 33.539v0.59961c15.576 4.5107 28.993 16.308 29 35.861 0 28.5-18.133 40.5-40.5 40.5h-92.5v-70zm145 0h52.5v110c0 8.2842 6.7158 15 15 15s15-6.7158 15-15v-110h52.5v110a67.5 48 0 0 1-67.5 48 67.5 48 0 0 1-67.5-48zm-98 31v29h16.5a14.5 14.5 0 0 0 14.5-14.5 14.5 14.5 0 0 0-14.5-14.5zm-131.75 1-10.535 68h21.57l-10.535-68zm131.75 57v32h16a16 16 0 0 0 16-16 16 16 0 0 0-16-16zm-386.37 101.5c0.62074 12.707 1.4186 24.804 2.6602 35.5h644.41c1.2415-10.696 2.0394-22.793 2.6602-35.5zm3.791 44.5c1.1318 7.8827 2.5034 15.207 4.1602 22h633.83c1.6567-6.7927 3.0284-14.117 4.1602-22zm7.8496 35c1.9615 5.8076 4.3007 11.057 6.8848 16h612.68c2.584-4.943 4.9232-10.192 6.8848-16zm17.658 32c3.8149 4.4382 8.1102 8.4327 12.928 12h565.28c4.8176-3.5673 9.1128-7.5618 12.928-12zm60.504 32c48.32 10.982 122.15 11 235.06 11s186.74-0.018 235.06-11z"/>
 </g>
</svg>
