<?xml version="1.0" encoding="UTF-8" standalone="no"?><!-- Generator: Gravit.io --><svg xmlns="http://www.w3.org/2000/svg" xmlns:xlink="http://www.w3.org/1999/xlink" style="isolation:isolate" viewBox="0 0 200 30" width="200pt" height="30pt"><defs><clipPath id="_clipPath_NNMkhIMIQ4i7czlaJqlP3Pyw3pcmnvlX"><rect width="200" height="30"/></clipPath></defs><g clip-path="url(#_clipPath_NNMkhIMIQ4i7czlaJqlP3Pyw3pcmnvlX)"><mask id="_mask_EHXbV8Ukg9f6bHmFiLNReOK990ck2MAh" x="-200%" y="-200%" width="400%" height="400%"><rect x="-200%" y="-200%" width="400%" height="400%" style="fill:white;"/><line x1="100" y1="30" x2="100" y2="0" fill="black" stroke="none"/></mask><line x1="100" y1="30" x2="100" y2="0" mask="url(#_mask_EHXbV8Ukg9f6bHmFiLNReOK990ck2MAh)" vector-effect="non-scaling-stroke" stroke-width="2" stroke="rgb(151,151,151)" stroke-linejoin="miter" stroke-linecap="butt" stroke-miterlimit="4"/><path d=" M 163.37 19.261 L 163.37 19.261 L 158.591 19.261 L 158.591 15.633 L 158.591 15.633 Q 158.591 15.195 158.901 14.882 L 158.901 14.882 L 158.901 14.882 Q 159.21 14.569 159.642 14.569 L 159.642 14.569 L 162.832 14.569 L 162.832 12.011 L 159.079 12.011 L 159.079 12.011 Q 158.854 12.011 158.704 11.858 L 158.704 11.858 L 158.704 11.858 Q 158.554 11.705 158.554 11.486 L 158.554 11.486 L 158.554 11.486 Q 158.554 11.267 158.704 11.113 L 158.704 11.113 L 158.704 11.113 Q 158.854 10.96 159.079 10.96 L 159.079 10.96 L 162.832 10.96 L 162.832 10.96 Q 163.27 10.96 163.583 11.27 L 163.583 11.27 L 163.583 11.27 Q 163.896 11.579 163.896 12.011 L 163.896 12.011 L 163.896 14.569 L 163.896 14.569 Q 163.896 15.014 163.583 15.323 L 163.583 15.323 L 163.583 15.323 Q 163.27 15.633 162.832 15.633 L 162.832 15.633 L 159.642 15.633 L 159.642 18.21 L 163.37 18.21 L 163.37 18.21 Q 163.583 18.21 163.739 18.363 L 163.739 18.363 L 163.739 18.363 Q 163.896 18.517 163.896 18.736 L 163.896 18.736 L 163.896 18.736 Q 163.896 18.954 163.739 19.108 L 163.739 19.108 L 163.739 19.108 Q 163.583 19.261 163.37 19.261 Z  M 170.751 19.023 L 169.083 16.166 L 167.405 19.023 L 167.405 19.023 Q 167.261 19.273 166.961 19.273 L 166.961 19.273 L 166.961 19.273 Q 166.736 19.273 166.576 19.111 L 166.576 19.111 L 166.576 19.111 Q 166.416 18.948 166.416 18.754 L 166.416 18.754 L 166.416 18.754 Q 166.416 18.604 166.51 18.447 L 166.51 18.447 L 168.47 15.115 L 166.548 11.823 L 166.548 11.823 Q 166.435 11.629 166.435 11.467 L 166.435 11.467 L 166.435 11.467 Q 166.435 11.267 166.592 11.113 L 166.592 11.113 L 166.592 11.113 Q 166.749 10.96 166.956 10.96 L 166.956 10.96 L 166.956 10.96 Q 167.263 10.96 167.407 11.212 L 167.407 11.212 L 169.093 14.057 L 170.764 11.216 L 170.764 11.216 Q 170.92 10.96 171.208 10.96 L 171.208 10.96 L 171.208 10.96 Q 171.427 10.96 171.59 11.112 L 171.59 11.112 L 171.59 11.112 Q 171.752 11.263 171.752 11.478 L 171.752 11.478 L 171.752 11.478 Q 171.752 11.623 171.671 11.761 L 171.671 11.761 L 169.699 15.118 L 171.658 18.485 L 171.658 18.485 Q 171.734 18.61 171.734 18.753 L 171.734 18.753 L 171.734 18.753 Q 171.734 18.976 171.58 19.125 L 171.58 19.125 L 171.58 19.125 Q 171.427 19.273 171.208 19.273 L 171.208 19.273 L 171.208 19.273 Q 170.902 19.273 170.751 19.023 L 170.751 19.023 Z  M 174.617 10.96 L 174.617 10.96 L 175.143 10.96 L 175.143 10.96 Q 175.362 10.96 175.515 11.117 L 175.515 11.117 L 175.515 11.117 Q 175.668 11.273 175.668 11.486 L 175.668 11.486 L 175.668 11.486 Q 175.668 11.705 175.515 11.858 L 175.515 11.858 L 175.515 11.858 Q 175.362 12.011 175.143 12.011 L 175.143 12.011 L 175.143 15.483 L 178.846 15.483 L 178.846 15.483 Q 179.059 15.483 179.215 15.642 L 179.215 15.642 L 179.215 15.642 Q 179.371 15.802 179.371 16.021 L 179.371 16.021 L 179.371 18.736 L 179.371 18.736 Q 179.371 18.954 179.212 19.108 L 179.212 19.108 L 179.212 19.108 Q 179.052 19.261 178.833 19.261 L 178.833 19.261 L 174.617 19.261 L 174.617 19.261 Q 174.398 19.261 174.239 19.105 L 174.239 19.105 L 174.239 19.105 Q 174.079 18.948 174.079 18.736 L 174.079 18.736 L 174.079 11.486 L 174.079 11.486 Q 174.079 11.267 174.236 11.113 L 174.236 11.113 L 174.236 11.113 Q 174.392 10.96 174.617 10.96 Z  M 178.308 16.546 L 175.13 16.546 L 175.13 18.21 L 178.308 18.21 L 178.308 16.546 Z  M 108.825 10.96 L 108.825 10.96 L 111.562 10.96 L 111.562 10.96 Q 112.063 10.96 112.51 11.382 L 112.51 11.382 L 112.51 11.382 Q 112.958 11.805 112.958 12.405 L 112.958 12.405 L 112.958 12.405 Q 112.958 12.63 112.799 12.787 L 112.799 12.787 L 112.799 12.787 Q 112.639 12.943 112.445 12.943 L 112.445 12.943 L 112.445 12.943 Q 112.176 12.943 112.076 12.821 L 112.076 12.821 L 112.076 12.821 Q 111.976 12.699 111.885 12.368 L 111.885 12.368 L 111.885 12.368 Q 111.794 12.036 111.481 12.036 L 111.481 12.036 L 108.88 12.036 L 108.88 12.036 Q 108.692 12.036 108.692 12.149 L 108.692 12.149 L 108.692 12.149 Q 108.692 12.22 108.774 12.32 L 108.774 12.32 L 112.676 17.315 L 112.676 17.315 Q 112.958 17.678 112.958 18.091 L 112.958 18.091 L 112.958 18.091 Q 112.958 18.56 112.617 18.917 L 112.617 18.917 L 112.617 18.917 Q 112.276 19.273 111.857 19.273 L 111.857 19.273 L 109.024 19.273 L 109.024 19.273 Q 108.461 19.273 108.045 18.845 L 108.045 18.845 L 108.045 18.845 Q 107.629 18.417 107.629 17.904 L 107.629 17.904 L 107.629 17.904 Q 107.629 17.316 108.179 17.316 L 108.179 17.316 L 108.179 17.316 Q 108.392 17.316 108.542 17.469 L 108.542 17.469 L 108.542 17.469 Q 108.692 17.622 108.692 17.829 L 108.692 17.829 L 108.692 17.829 Q 108.692 17.997 108.808 18.11 L 108.808 18.11 L 108.808 18.11 Q 108.924 18.223 109.099 18.223 L 109.099 18.223 L 111.713 18.223 L 111.713 18.223 Q 111.882 18.223 111.882 18.091 L 111.882 18.091 L 111.882 18.091 Q 111.882 18.029 111.801 17.929 L 111.801 17.929 L 107.904 12.943 L 107.904 12.943 Q 107.629 12.587 107.629 12.167 L 107.629 12.167 L 107.629 12.167 Q 107.629 11.679 107.979 11.32 L 107.979 11.32 L 107.979 11.32 Q 108.33 10.96 108.825 10.96 Z  M 120.684 12.599 L 118.569 15.289 L 118.569 18.748 L 118.569 18.748 Q 118.569 18.967 118.413 19.12 L 118.413 19.12 L 118.413 19.12 Q 118.257 19.273 118.044 19.273 L 118.044 19.273 L 118.044 19.273 Q 117.819 19.273 117.662 19.12 L 117.662 19.12 L 117.662 19.12 Q 117.506 18.967 117.506 18.748 L 117.506 18.748 L 117.506 15.289 L 115.392 12.612 L 115.392 11.498 L 115.392 11.498 Q 115.392 11.273 115.545 11.117 L 115.545 11.117 L 115.545 11.117 Q 115.698 10.96 115.917 10.96 L 115.917 10.96 L 115.917 10.96 Q 116.136 10.96 116.295 11.12 L 116.295 11.12 L 116.295 11.12 Q 116.455 11.281 116.455 11.501 L 116.455 11.501 L 116.455 12.224 L 118.031 14.25 L 119.633 12.223 L 119.633 11.495 L 119.633 11.495 Q 119.633 11.277 119.789 11.119 L 119.789 11.119 L 119.789 11.119 Q 119.945 10.96 120.158 10.96 L 120.158 10.96 L 120.158 10.96 Q 120.365 10.96 120.524 11.107 L 120.524 11.107 L 120.524 11.107 Q 120.684 11.254 120.684 11.498 L 120.684 11.498 L 120.684 12.599 Z  M 124.301 10.96 L 124.301 10.96 L 127.037 10.96 L 127.037 10.96 Q 127.538 10.96 127.986 11.382 L 127.986 11.382 L 127.986 11.382 Q 128.434 11.805 128.434 12.405 L 128.434 12.405 L 128.434 12.405 Q 128.434 12.63 128.274 12.787 L 128.274 12.787 L 128.274 12.787 Q 128.115 12.943 127.921 12.943 L 127.921 12.943 L 127.921 12.943 Q 127.652 12.943 127.552 12.821 L 127.552 12.821 L 127.552 12.821 Q 127.452 12.699 127.361 12.368 L 127.361 12.368 L 127.361 12.368 Q 127.27 12.036 126.957 12.036 L 126.957 12.036 L 124.356 12.036 L 124.356 12.036 Q 124.168 12.036 124.168 12.149 L 124.168 12.149 L 124.168 12.149 Q 124.168 12.22 124.249 12.32 L 124.249 12.32 L 128.152 17.315 L 128.152 17.315 Q 128.434 17.678 128.434 18.091 L 128.434 18.091 L 128.434 18.091 Q 128.434 18.56 128.093 18.917 L 128.093 18.917 L 128.093 18.917 Q 127.752 19.273 127.333 19.273 L 127.333 19.273 L 124.499 19.273 L 124.499 19.273 Q 123.936 19.273 123.52 18.845 L 123.52 18.845 L 123.52 18.845 Q 123.104 18.417 123.104 17.904 L 123.104 17.904 L 123.104 17.904 Q 123.104 17.316 123.655 17.316 L 123.655 17.316 L 123.655 17.316 Q 123.868 17.316 124.018 17.469 L 124.018 17.469 L 124.018 17.469 Q 124.168 17.622 124.168 17.829 L 124.168 17.829 L 124.168 17.829 Q 124.168 17.997 124.284 18.11 L 124.284 18.11 L 124.284 18.11 Q 124.399 18.223 124.574 18.223 L 124.574 18.223 L 127.189 18.223 L 127.189 18.223 Q 127.358 18.223 127.358 18.091 L 127.358 18.091 L 127.358 18.091 Q 127.358 18.029 127.277 17.929 L 127.277 17.929 L 123.38 12.943 L 123.38 12.943 Q 123.104 12.587 123.104 12.167 L 123.104 12.167 L 123.104 12.167 Q 123.104 11.679 123.455 11.32 L 123.455 11.32 L 123.455 11.32 Q 123.806 10.96 124.301 10.96 Z  M 130.842 12.393 L 130.842 12.393 L 130.842 10.973 L 136.147 10.973 L 136.147 12.405 L 136.147 12.405 Q 136.147 12.624 135.99 12.777 L 135.99 12.777 L 135.99 12.777 Q 135.834 12.931 135.621 12.931 L 135.621 12.931 L 135.621 12.931 Q 135.402 12.931 135.243 12.774 L 135.243 12.774 L 135.243 12.774 Q 135.083 12.618 135.083 12.405 L 135.083 12.405 L 135.083 12.024 L 134.02 12.024 L 134.02 18.748 L 134.02 18.748 Q 134.02 18.967 133.864 19.12 L 133.864 19.12 L 133.864 19.12 Q 133.707 19.273 133.495 19.273 L 133.495 19.273 L 133.495 19.273 Q 133.269 19.273 133.113 19.12 L 133.113 19.12 L 133.113 19.12 Q 132.957 18.967 132.957 18.748 L 132.957 18.748 L 132.957 12.024 L 131.893 12.024 L 131.893 12.393 L 131.893 12.393 Q 131.893 12.612 131.74 12.765 L 131.74 12.765 L 131.74 12.765 Q 131.587 12.918 131.368 12.918 L 131.368 12.918 L 131.368 12.918 Q 131.149 12.918 130.996 12.765 L 130.996 12.765 L 130.996 12.765 Q 130.842 12.612 130.842 12.393 Z  M 143.359 12.024 L 143.359 12.024 L 139.644 12.024 L 139.644 14.582 L 141.245 14.582 L 141.245 14.582 Q 141.458 14.582 141.614 14.738 L 141.614 14.738 L 141.614 14.738 Q 141.77 14.895 141.77 15.107 L 141.77 15.107 L 141.77 15.107 Q 141.77 15.333 141.617 15.489 L 141.617 15.489 L 141.617 15.489 Q 141.464 15.645 141.245 15.645 L 141.245 15.645 L 139.644 15.645 L 139.644 18.223 L 143.372 18.223 L 143.372 18.223 Q 143.584 18.223 143.741 18.376 L 143.741 18.376 L 143.741 18.376 Q 143.897 18.529 143.897 18.748 L 143.897 18.748 L 143.897 18.748 Q 143.897 18.967 143.738 19.12 L 143.738 19.12 L 143.738 19.12 Q 143.578 19.273 143.359 19.273 L 143.359 19.273 L 138.593 19.273 L 138.593 10.96 L 143.359 10.96 L 143.359 10.96 Q 143.578 10.96 143.738 11.12 L 143.738 11.12 L 143.738 11.12 Q 143.897 11.279 143.897 11.498 L 143.897 11.498 L 143.897 11.498 Q 143.897 11.711 143.738 11.867 L 143.738 11.867 L 143.738 11.867 Q 143.578 12.024 143.359 12.024 Z  M 148.445 14.225 L 148.445 14.225 L 148.445 13.956 L 147.356 12.405 L 147.356 18.748 L 147.356 18.748 Q 147.356 18.967 147.203 19.12 L 147.203 19.12 L 147.203 19.12 Q 147.05 19.273 146.831 19.273 L 146.831 19.273 L 146.831 19.273 Q 146.612 19.273 146.459 19.117 L 146.459 19.117 L 146.459 19.117 Q 146.306 18.961 146.306 18.748 L 146.306 18.748 L 146.306 10.96 L 147.66 10.96 L 148.958 12.843 L 150.291 10.96 L 151.623 10.96 L 151.623 18.748 L 151.623 18.748 Q 151.623 18.967 151.463 19.12 L 151.463 19.12 L 151.463 19.12 Q 151.304 19.273 151.085 19.273 L 151.085 19.273 L 151.085 19.273 Q 150.872 19.273 150.716 19.117 L 150.716 19.117 L 150.716 19.117 Q 150.559 18.961 150.559 18.748 L 150.559 18.748 L 150.559 12.43 L 149.496 13.931 L 149.496 14.225 L 149.496 14.225 Q 149.496 14.438 149.339 14.594 L 149.339 14.594 L 149.339 14.594 Q 149.183 14.751 148.97 14.751 L 148.97 14.751 L 148.97 14.751 Q 148.751 14.751 148.598 14.594 L 148.598 14.594 L 148.598 14.594 Q 148.445 14.438 148.445 14.225 Z " fill="rgb(0,0,0)"/><path d=" M 91.826 12.594 L 99.782 12.594 L 99.782 17.394 L 91.826 17.394 L 91.826 12.594 L 91.826 12.594 L 91.826 12.594 L 91.826 12.594 L 91.826 12.594 Z  M 20.629 9.673 L 20.629 20.548 L 24.257 20.548 L 24.257 12.815 L 31.107 12.815 L 31.107 20.548 L 34.666 20.548 L 34.666 12.631 C 34.666 11.018 33.321 9.673 31.708 9.673 L 20.629 9.673 L 20.629 9.673 L 20.629 9.673 L 20.629 9.673 Z  M 40.03 16.203 L 46.978 16.203 L 46.978 17.75 L 40.03 17.75 L 40.03 16.203 L 40.03 16.203 L 40.03 16.203 L 40.03 16.203 Z  M 52.772 9.673 L 52.772 20.548 L 56.405 20.548 L 56.405 12.815 L 60.137 12.815 L 60.137 20.548 L 63.77 20.548 L 63.77 12.815 L 67.575 12.815 L 67.575 20.548 L 71.135 20.548 L 71.135 12.631 C 71.135 11.018 69.79 9.673 68.177 9.673 L 52.772 9.673 L 52.772 9.673 Z  M 91.156 9.452 C 89.543 9.452 88.197 10.797 88.197 12.41 L 88.197 17.578 C 88.197 19.19 89.543 20.536 91.156 20.536 L 100.521 20.536 C 102.134 20.536 103.48 19.19 103.48 17.578 L 103.48 12.41 C 103.48 10.797 102.134 9.452 100.521 9.452 L 91.156 9.452 L 91.156 9.452 L 91.156 9.452 L 91.156 9.452 L 91.156 9.452 Z  M 37.121 9.673 L 37.121 12.533 L 46.978 12.533 L 46.978 13.306 L 39.282 13.306 C 37.669 13.306 36.323 14.664 36.323 16.277 L 36.323 17.59 C 36.323 19.203 37.669 20.548 39.282 20.548 L 46.978 20.548 L 48.586 20.548 L 50.538 20.548 L 50.538 12.631 C 50.538 11.018 49.192 9.673 47.58 9.673 L 37.121 9.673 L 37.121 9.673 L 37.121 9.673 L 37.121 9.673 Z  M 76.205 9.452 C 74.592 9.452 73.246 10.797 73.246 12.41 L 73.246 17.578 C 73.246 19.19 74.592 20.536 76.205 20.536 L 86.147 20.536 L 86.147 17.394 L 76.944 17.394 L 76.944 12.594 L 86.147 12.594 L 86.147 9.452 L 76.205 9.452 Z " fill-rule="evenodd" fill="rgb(0,0,0)"/></g></svg>