<?xml version="1.0" encoding="UTF-8"?>
<svg width="163.435112px" height="30px" viewBox="0 0 163.435112 30" version="1.1" xmlns="http://www.w3.org/2000/svg" xmlns:xlink="http://www.w3.org/1999/xlink">
    <title>namco system 22</title>
    <g id="Page-1" stroke="none" stroke-width="1" fill="none" fill-rule="evenodd">
        <g id="System" transform="translate(-18.282444, 0.000000)" fill="#000000">
            <g id="namco-system-22" transform="translate(18.282444, 0.000000)">
                <line x1="81.7175559" y1="30" x2="81.7175559" y2="0" id="Path" stroke="#979797" fill-rule="nonzero"></line>
                <path d="M162.866258,19.6081471 L162.866258,19.6081471 L157.697909,19.6081471 L157.697909,15.684571 L157.697909,15.684571 C157.697909,15.3687815 157.809661,15.0980534 158.033165,14.8723864 L158.033165,14.8723864 L158.033165,14.8723864 C158.255948,14.6467195 158.523071,14.5338861 158.834535,14.5338861 L158.834535,14.5338861 L162.284427,14.5338861 L162.284427,11.7674838 L158.225667,11.7674838 L158.225667,11.7674838 C158.063446,11.7674838 157.928262,11.7123288 157.820115,11.6020187 L157.820115,11.6020187 L157.820115,11.6020187 C157.711968,11.4917087 157.657895,11.3576063 157.657895,11.1997116 L157.657895,11.1997116 L157.657895,11.1997116 C157.657895,11.0418169 157.711968,10.907354 157.820115,10.796323 L157.820115,10.796323 L157.820115,10.796323 C157.928262,10.686013 158.063446,10.630858 158.225667,10.630858 L158.225667,10.630858 L162.284427,10.630858 L162.284427,10.630858 C162.600216,10.630858 162.870944,10.7426099 163.096611,10.9661139 L163.096611,10.9661139 L163.096611,10.9661139 C163.322278,11.1888969 163.435112,11.4560202 163.435112,11.7674838 L163.435112,11.7674838 L163.435112,14.5338861 L163.435112,14.5338861 C163.435112,14.8547224 163.322278,15.1265321 163.096611,15.3493151 L163.096611,15.3493151 L163.096611,15.3493151 C162.870944,15.572819 162.600216,15.684571 162.284427,15.684571 L162.284427,15.684571 L158.834535,15.684571 L158.834535,18.4715213 L162.866258,18.4715213 L162.866258,18.4715213 C163.019827,18.4715213 163.152848,18.5266763 163.265321,18.6369863 L163.265321,18.6369863 L163.265321,18.6369863 C163.378515,18.7480173 163.435112,18.8824802 163.435112,19.0403749 L163.435112,19.0403749 L163.435112,19.0403749 C163.435112,19.1975487 163.378515,19.331651 163.265321,19.442682 L163.265321,19.442682 L163.265321,19.442682 C163.152848,19.5529921 163.019827,19.6081471 162.866258,19.6081471 Z M154.370224,19.6081471 L154.370224,19.6081471 L149.201875,19.6081471 L149.201875,15.684571 L149.201875,15.684571 C149.201875,15.3687815 149.313627,15.0980534 149.53713,14.8723864 L149.53713,14.8723864 L149.53713,14.8723864 C149.759913,14.6467195 150.027037,14.5338861 150.3385,14.5338861 L150.3385,14.5338861 L153.788392,14.5338861 L153.788392,11.7674838 L149.729632,11.7674838 L149.729632,11.7674838 C149.567412,11.7674838 149.432228,11.7123288 149.324081,11.6020187 L149.324081,11.6020187 L149.324081,11.6020187 C149.215934,11.4917087 149.16186,11.3576063 149.16186,11.1997116 L149.16186,11.1997116 L149.16186,11.1997116 C149.16186,11.0418169 149.215934,10.907354 149.324081,10.796323 L149.324081,10.796323 L149.324081,10.796323 C149.432228,10.686013 149.567412,10.630858 149.729632,10.630858 L149.729632,10.630858 L153.788392,10.630858 L153.788392,10.630858 C154.104182,10.630858 154.37491,10.7426099 154.600577,10.9661139 L154.600577,10.9661139 L154.600577,10.9661139 C154.826244,11.1888969 154.939077,11.4560202 154.939077,11.7674838 L154.939077,11.7674838 L154.939077,14.5338861 L154.939077,14.5338861 C154.939077,14.8547224 154.826244,15.1265321 154.600577,15.3493151 L154.600577,15.3493151 L154.600577,15.3493151 C154.37491,15.572819 154.104182,15.684571 153.788392,15.684571 L153.788392,15.684571 L150.3385,15.684571 L150.3385,18.4715213 L154.370224,18.4715213 L154.370224,18.4715213 C154.523792,18.4715213 154.656813,18.5266763 154.769286,18.6369863 L154.769286,18.6369863 L154.769286,18.6369863 C154.88248,18.7480173 154.939077,18.8824802 154.939077,19.0403749 L154.939077,19.0403749 L154.939077,19.0403749 C154.939077,19.1975487 154.88248,19.331651 154.769286,19.442682 L154.769286,19.442682 L154.769286,19.442682 C154.656813,19.5529921 154.523792,19.6081471 154.370224,19.6081471 Z M95.3813987,10.630858 L95.3813987,10.630858 L98.3413843,10.630858 L98.3413843,10.630858 C98.7025955,10.630858 99.0443403,10.7829849 99.3666186,11.0872386 L99.3666186,11.0872386 L99.3666186,11.0872386 C99.6896179,11.3922134 99.8511175,11.760995 99.8511175,12.1935833 L99.8511175,12.1935833 L99.8511175,12.1935833 C99.8511175,12.3558039 99.7937996,12.4935112 99.6791637,12.6067051 L99.6791637,12.6067051 L99.6791637,12.6067051 C99.5638068,12.7191781 99.4361932,12.7754146 99.296323,12.7754146 L99.296323,12.7754146 L99.296323,12.7754146 C99.1023792,12.7754146 98.9693583,12.7314348 98.8972603,12.6434751 L98.8972603,12.6434751 L98.8972603,12.6434751 C98.8251622,12.5555155 98.7563086,12.3922134 98.6906994,12.1535689 L98.6906994,12.1535689 L98.6906994,12.1535689 C98.6250901,11.9142033 98.4794521,11.7945205 98.2537851,11.7945205 L98.2537851,11.7945205 L95.4408796,11.7945205 L95.4408796,11.7945205 C95.3053353,11.7945205 95.2375631,11.8352559 95.2375631,11.9167267 L95.2375631,11.9167267 L95.2375631,11.9167267 C95.2375631,11.9679164 95.2671233,12.0295602 95.3262437,12.1016583 L95.3262437,12.1016583 L99.5461428,17.5036049 L99.5461428,17.5036049 C99.7494593,17.7653208 99.8511175,18.0450613 99.8511175,18.3428262 L99.8511175,18.3428262 L99.8511175,18.3428262 C99.8511175,18.6809661 99.7281903,18.9787311 99.482336,19.2361211 L99.482336,19.2361211 L99.482336,19.2361211 C99.2364816,19.4927902 98.962509,19.6211247 98.6604182,19.6211247 L98.6604182,19.6211247 L95.5966114,19.6211247 L95.5966114,19.6211247 C95.1906994,19.6211247 94.8377794,19.4668349 94.5378515,19.1582552 L94.5378515,19.1582552 L94.5378515,19.1582552 C94.2379236,18.8496756 94.0879596,18.5104542 94.0879596,18.1405912 L94.0879596,18.1405912 L94.0879596,18.1405912 C94.0879596,17.7166547 94.2862293,17.5046864 94.6827686,17.5046864 L94.6827686,17.5046864 L94.6827686,17.5046864 C94.8363374,17.5046864 94.9671954,17.5598414 95.0753425,17.6701514 L95.0753425,17.6701514 L95.0753425,17.6701514 C95.1834895,17.7804614 95.2375631,17.9102379 95.2375631,18.0594809 L95.2375631,18.0594809 L95.2375631,18.0594809 C95.2375631,18.1806056 95.27938,18.2819034 95.3630137,18.3633742 L95.3630137,18.3633742 L95.3630137,18.3633742 C95.4466474,18.444845 95.5515501,18.4855804 95.6777217,18.4855804 L95.6777217,18.4855804 L98.5046864,18.4855804 L98.5046864,18.4855804 C98.6265321,18.4855804 98.6874549,18.4379957 98.6874549,18.3428262 L98.6874549,18.3428262 L98.6874549,18.3428262 C98.6874549,18.2981255 98.6582552,18.239726 98.5998558,18.167628 L98.5998558,18.167628 L94.3853641,12.7754146 L94.3853641,12.7754146 C94.1870944,12.5187455 94.0879596,12.239005 94.0879596,11.9361932 L94.0879596,11.9361932 L94.0879596,11.9361932 C94.0879596,11.5843547 94.2141312,11.2790195 94.4664744,11.0201875 L94.4664744,11.0201875 L94.4664744,11.0201875 C94.7195386,10.7606345 95.0245133,10.630858 95.3813987,10.630858 Z M108.206561,12.4033886 L105.91925,15.3125451 L105.91925,19.0533526 L105.91925,19.0533526 C105.91925,19.2112473 105.863014,19.3453497 105.750541,19.4556597 L105.750541,19.4556597 L105.750541,19.4556597 C105.638068,19.5659697 105.505047,19.6211247 105.351478,19.6211247 L105.351478,19.6211247 L105.351478,19.6211247 C105.189257,19.6211247 105.05155,19.5659697 104.938356,19.4556597 L104.938356,19.4556597 L104.938356,19.4556597 C104.825883,19.3453497 104.769647,19.2112473 104.769647,19.0533526 L104.769647,19.0533526 L104.769647,15.3125451 L102.483417,12.4174477 L102.483417,11.2126893 L102.483417,11.2126893 C102.483417,11.0504686 102.538572,10.9131218 102.648882,10.8006489 L102.648882,10.8006489 L102.648882,10.8006489 C102.759193,10.6874549 102.893295,10.630858 103.05119,10.630858 L103.05119,10.630858 L103.05119,10.630858 C103.209084,10.630858 103.34535,10.6885364 103.459986,10.8038933 L103.459986,10.8038933 L103.459986,10.8038933 C103.575342,10.9199712 103.633021,11.057318 103.633021,11.2159337 L103.633021,11.2159337 L103.633021,11.9978371 L105.337419,14.1888969 L107.069935,11.9967556 L107.069935,11.2094448 L107.069935,11.2094448 C107.069935,11.0522711 107.126172,10.9167267 107.238645,10.8028118 L107.238645,10.8028118 L107.238645,10.8028118 C107.351118,10.6881759 107.484138,10.630858 107.637707,10.630858 L107.637707,10.630858 L107.637707,10.630858 C107.78695,10.630858 107.91889,10.68385 108.033526,10.7898342 L108.033526,10.7898342 L108.033526,10.7898342 C108.148882,10.8958183 108.206561,11.03677 108.206561,11.2126893 L108.206561,11.2126893 L108.206561,12.4033886 Z M112.118241,10.630858 L112.118241,10.630858 L115.077145,10.630858 L115.077145,10.630858 C115.438356,10.630858 115.780461,10.7829849 116.103461,11.0872386 L116.103461,11.0872386 L116.103461,11.0872386 C116.42646,11.3922134 116.58796,11.760995 116.58796,12.1935833 L116.58796,12.1935833 L116.58796,12.1935833 C116.58796,12.3558039 116.530281,12.4935112 116.414924,12.6067051 L116.414924,12.6067051 L116.414924,12.6067051 C116.300288,12.7191781 116.173035,12.7754146 116.033165,12.7754146 L116.033165,12.7754146 L116.033165,12.7754146 C115.839221,12.7754146 115.7062,12.7314348 115.634102,12.6434751 L115.634102,12.6434751 L115.634102,12.6434751 C115.562004,12.5555155 115.493151,12.3922134 115.427541,12.1535689 L115.427541,12.1535689 L115.427541,12.1535689 C115.361932,11.9142033 115.216294,11.7945205 114.990627,11.7945205 L114.990627,11.7945205 L112.177722,11.7945205 L112.177722,11.7945205 C112.042177,11.7945205 111.974405,11.8352559 111.974405,11.9167267 L111.974405,11.9167267 L111.974405,11.9167267 C111.974405,11.9679164 112.003605,12.0295602 112.062004,12.1016583 L112.062004,12.1016583 L116.282985,17.5036049 L116.282985,17.5036049 C116.486301,17.7653208 116.58796,18.0450613 116.58796,18.3428262 L116.58796,18.3428262 L116.58796,18.3428262 C116.58796,18.6809661 116.465032,18.9787311 116.219178,19.2361211 L116.219178,19.2361211 L116.219178,19.2361211 C115.973324,19.4927902 115.699351,19.6211247 115.39726,19.6211247 L115.39726,19.6211247 L112.332372,19.6211247 L112.332372,19.6211247 C111.92646,19.6211247 111.57354,19.4668349 111.273612,19.1582552 L111.273612,19.1582552 L111.273612,19.1582552 C110.973684,18.8496756 110.82372,18.5104542 110.82372,18.1405912 L110.82372,18.1405912 L110.82372,18.1405912 C110.82372,17.7166547 111.02235,17.5046864 111.419611,17.5046864 L111.419611,17.5046864 L111.419611,17.5046864 C111.57318,17.5046864 111.704037,17.5598414 111.812185,17.6701514 L111.812185,17.6701514 L111.812185,17.6701514 C111.920332,17.7804614 111.974405,17.9102379 111.974405,18.0594809 L111.974405,18.0594809 L111.974405,18.0594809 C111.974405,18.1806056 112.016222,18.2819034 112.099856,18.3633742 L112.099856,18.3633742 L112.099856,18.3633742 C112.182769,18.444845 112.287311,18.4855804 112.413482,18.4855804 L112.413482,18.4855804 L115.241528,18.4855804 L115.241528,18.4855804 C115.363374,18.4855804 115.424297,18.4379957 115.424297,18.3428262 L115.424297,18.3428262 L115.424297,18.3428262 C115.424297,18.2981255 115.395097,18.239726 115.336698,18.167628 L115.336698,18.167628 L111.122206,12.7754146 L111.122206,12.7754146 C110.923216,12.5187455 110.82372,12.239005 110.82372,11.9361932 L110.82372,11.9361932 L110.82372,11.9361932 C110.82372,11.5843547 110.950252,11.2790195 111.203317,11.0201875 L111.203317,11.0201875 L111.203317,11.0201875 C111.456381,10.7606345 111.761355,10.630858 112.118241,10.630858 Z M119.192141,12.1806056 L119.192141,12.1806056 L119.192141,10.6449171 L124.929344,10.6449171 L124.929344,12.1935833 L124.929344,12.1935833 C124.929344,12.351478 124.872747,12.4855804 124.759553,12.5958904 L124.759553,12.5958904 L124.759553,12.5958904 C124.64708,12.7069214 124.514059,12.7624369 124.36049,12.7624369 L124.36049,12.7624369 L124.36049,12.7624369 C124.202596,12.7624369 124.06633,12.7058399 123.951694,12.592646 L123.951694,12.592646 L123.951694,12.592646 C123.836337,12.480173 123.778659,12.3471521 123.778659,12.1935833 L123.778659,12.1935833 L123.778659,11.7815429 L122.629056,11.7815429 L122.629056,19.0533526 L122.629056,19.0533526 C122.629056,19.2112473 122.572819,19.3453497 122.460346,19.4556597 L122.460346,19.4556597 L122.460346,19.4556597 C122.347152,19.5659697 122.214131,19.6211247 122.061283,19.6211247 L122.061283,19.6211247 L122.061283,19.6211247 C121.898342,19.6211247 121.760634,19.5659697 121.648161,19.4556597 L121.648161,19.4556597 L121.648161,19.4556597 C121.535689,19.3453497 121.479452,19.2112473 121.479452,19.0533526 L121.479452,19.0533526 L121.479452,11.7815429 L120.328767,11.7815429 L120.328767,12.1806056 L120.328767,12.1806056 C120.328767,12.3385004 120.273612,12.4726027 120.163302,12.5829128 L120.163302,12.5829128 L120.163302,12.5829128 C120.052992,12.6932228 119.91889,12.7483778 119.760995,12.7483778 L119.760995,12.7483778 L119.760995,12.7483778 C119.6031,12.7483778 119.468998,12.6932228 119.358688,12.5829128 L119.358688,12.5829128 L119.358688,12.5829128 C119.247657,12.4726027 119.192141,12.3385004 119.192141,12.1806056 Z M132.728911,11.7815429 L132.728911,11.7815429 L128.711247,11.7815429 L128.711247,14.5479452 L130.442682,14.5479452 L130.442682,14.5479452 C130.596251,14.5479452 130.729272,14.6041817 130.841745,14.7166547 L130.841745,14.7166547 L130.841745,14.7166547 C130.954218,14.8298486 131.010454,14.9628695 131.010454,15.1157174 L131.010454,15.1157174 L131.010454,15.1157174 C131.010454,15.278659 130.955299,15.4163663 130.844989,15.5288392 L130.844989,15.5288392 L130.844989,15.5288392 C130.734679,15.6413122 130.600577,15.6975487 130.442682,15.6975487 L130.442682,15.6975487 L128.711247,15.6975487 L128.711247,18.4855804 L132.74297,18.4855804 L132.74297,18.4855804 C132.895818,18.4855804 133.028839,18.5407354 133.142033,18.6510454 L133.142033,18.6510454 L133.142033,18.6510454 C133.254506,18.7613554 133.310743,18.8954578 133.310743,19.0533526 L133.310743,19.0533526 L133.310743,19.0533526 C133.310743,19.2112473 133.253425,19.3453497 133.138789,19.4556597 L133.138789,19.4556597 L133.138789,19.4556597 C133.023432,19.5659697 132.886806,19.6211247 132.728911,19.6211247 L132.728911,19.6211247 L127.574621,19.6211247 L127.574621,10.630858 L132.728911,10.630858 L132.728911,10.630858 C132.886806,10.630858 133.023432,10.6885364 133.138789,10.8038933 L133.138789,10.8038933 L133.138789,10.8038933 C133.253425,10.9185292 133.310743,11.0547945 133.310743,11.2126893 L133.310743,11.2126893 L133.310743,11.2126893 C133.310743,11.3662581 133.253425,11.499279 133.138789,11.611752 L133.138789,11.611752 L133.138789,11.611752 C133.023432,11.7249459 132.886806,11.7815429 132.728911,11.7815429 Z M138.229272,14.1618601 L138.229272,14.1618601 L138.229272,13.8709445 L137.05155,12.1935833 L137.05155,19.0533526 L137.05155,19.0533526 C137.05155,19.2112473 136.996395,19.3453497 136.886085,19.4556597 L136.886085,19.4556597 L136.886085,19.4556597 C136.775775,19.5659697 136.641673,19.6211247 136.483778,19.6211247 L136.483778,19.6211247 L136.483778,19.6211247 C136.325883,19.6211247 136.191781,19.5648882 136.081471,19.4524153 L136.081471,19.4524153 L136.081471,19.4524153 C135.971161,19.3399423 135.916006,19.2069214 135.916006,19.0533526 L135.916006,19.0533526 L135.916006,10.630858 L137.380317,10.630858 L138.784066,12.6672675 L140.225667,10.630858 L141.666186,10.630858 L141.666186,19.0533526 L141.666186,19.0533526 C141.666186,19.2112473 141.608508,19.3453497 141.493151,19.4556597 L141.493151,19.4556597 L141.493151,19.4556597 C141.378515,19.5659697 141.242249,19.6211247 141.084355,19.6211247 L141.084355,19.6211247 L141.084355,19.6211247 C140.930786,19.6211247 140.797765,19.5648882 140.685292,19.4524153 L140.685292,19.4524153 L140.685292,19.4524153 C140.572098,19.3399423 140.515501,19.2069214 140.515501,19.0533526 L140.515501,19.0533526 L140.515501,12.22062 L139.365898,13.8439077 L139.365898,14.1618601 L139.365898,14.1618601 C139.365898,14.315429 139.309301,14.4484499 139.196107,14.5609229 L139.196107,14.5609229 L139.196107,14.5609229 C139.083634,14.6741168 138.950613,14.7307138 138.797044,14.7307138 L138.797044,14.7307138 L138.797044,14.7307138 C138.639149,14.7307138 138.505047,14.6741168 138.394737,14.5609229 L138.394737,14.5609229 L138.394737,14.5609229 C138.284427,14.4484499 138.229272,14.315429 138.229272,14.1618601 Z" id="Shape" fill-rule="nonzero"></path>
                <path d="M76.9974766,12.3979813 L85.6016583,12.3979813 L85.6016583,17.5890411 L76.9974766,17.5890411 L76.9974766,12.3979813 L76.9974766,12.3979813 L76.9974766,12.3979813 L76.9974766,12.3979813 L76.9974766,12.3979813 Z M0,9.23900505 L0,21 L3.92357606,21 L3.92357606,12.6369863 L11.331651,12.6369863 L11.331651,21 L15.1806056,21 L15.1806056,12.4379957 C15.1806056,10.6935833 13.7260274,9.23900505 11.981615,9.23900505 L0,9.23900505 L0,9.23900505 L0,9.23900505 L0,9.23900505 Z M20.981615,16.3010094 L28.4956741,16.3010094 L28.4956741,17.9740447 L20.981615,17.9740447 L20.981615,16.3010094 L20.981615,16.3010094 L20.981615,16.3010094 L20.981615,16.3010094 Z M34.7617159,9.23900505 L34.7617159,21 L38.6906994,21 L38.6906994,12.6369863 L42.7267484,12.6369863 L42.7267484,21 L46.6557318,21 L46.6557318,12.6369863 L50.7707282,12.6369863 L50.7707282,21 L54.6207642,21 L54.6207642,12.4379957 C54.6207642,10.6935833 53.166186,9.23900505 51.4217736,9.23900505 L34.7617159,9.23900505 L34.7617159,9.23900505 Z M76.2728911,9 C74.5284787,9 73.072819,10.4545782 73.072819,12.1989906 L73.072819,17.7880317 C73.072819,19.5313627 74.5284787,20.9870224 76.2728911,20.9870224 L86.4008652,20.9870224 C88.1452776,20.9870224 89.6009373,19.5313627 89.6009373,17.7880317 L89.6009373,12.1989906 C89.6009373,10.4545782 88.1452776,9 86.4008652,9 L76.2728911,9 L76.2728911,9 L76.2728911,9 L76.2728911,9 L76.2728911,9 Z M17.8356164,9.23900505 L17.8356164,12.3320115 L28.4956741,12.3320115 L28.4956741,13.1679885 L20.1726748,13.1679885 C18.4282624,13.1679885 16.9726027,14.6366258 16.9726027,16.3810382 L16.9726027,17.8010094 C16.9726027,19.5454218 18.4282624,21 20.1726748,21 L28.4956741,21 L30.2346792,21 L32.3457102,21 L32.3457102,12.4379957 C32.3457102,10.6935833 30.8900505,9.23900505 29.1467195,9.23900505 L17.8356164,9.23900505 L17.8356164,9.23900505 L17.8356164,9.23900505 L17.8356164,9.23900505 Z M60.1038212,9 C58.3594088,9 56.9037491,10.4545782 56.9037491,12.1989906 L56.9037491,17.7880317 C56.9037491,19.5313627 58.3594088,20.9870224 60.1038212,20.9870224 L70.8558039,20.9870224 L70.8558039,17.5890411 L60.9030281,17.5890411 L60.9030281,12.3979813 L70.8558039,12.3979813 L70.8558039,9 L60.1038212,9 Z" id="Shape"></path>
            </g>
        </g>
    </g>
</svg>