<?xml version="1.0" encoding="UTF-8" standalone="no"?>
<!-- Generator: Gravit.io -->
<svg xmlns="http://www.w3.org/2000/svg" xmlns:xlink="http://www.w3.org/1999/xlink" style="isolation:isolate" viewBox="0 0 272 32" width="272pt" height="32pt"><defs><clipPath id="_clipPath_ZUP6HKrioyuyHNGmXxJqJ6Rbx3AaD1wt"><rect x="0" y="0" width="272" height="32"/></clipPath></defs><g clip-path="url(#_clipPath_ZUP6HKrioyuyHNGmXxJqJ6Rbx3AaD1wt)"><rect x="0" y="0" width="272" height="32" style="fill:rgb(142,142,142)"/><path d=" M 212 4 L 220 4 L 228 12 L 228 4 L 236 4 L 236 28 L 228 28 L 228 24 L 220 16 L 220 28 L 212 28 L 212 4 L 212 4 L 212 4 L 212 4 L 212 4 L 212 4 L 212 4 L 212 4 Z  M 244 20 L 250 14 L 244 8 L 244 4 L 252 4 L 256 8 L 260 4 L 268 4 L 268 8 L 262 14 L 268 20 L 268 28 L 260 28 L 260 22 L 256.011 18 L 252 22 L 252 28 L 244 28 L 244 20 L 244 20 L 244 20 L 244 20 L 244 20 L 244 20 L 244 20 Z  M 4 4 L 12 4 L 12 24 L 28 24 L 28 28 L 4 28 L 4 4 L 4 4 L 4 4 L 4 4 L 4 4 L 4 4 Z  M 68 4 L 76 4 L 76 16 L 80 12 L 84 16 L 84 4 L 92 4 L 92 28 L 88 28 L 80 20 L 72 28 L 68 28 L 68 4 L 68 4 L 68 4 L 68 4 L 68 4 Z  M 108 8 L 116 8 L 116 12 L 108 12 L 108 8 L 108 8 L 108 8 L 108 8 L 108 8 Z  M 44 8 L 52 8 L 52 24 L 44 24 L 44 8 L 44 8 L 44 8 L 44 8 Z  M 132 4 L 132 28 L 156 28 L 156 24 L 140 24 L 140 16 L 148 16 L 148 12 L 140 12 L 140 8 L 156 8 L 156 4 L 132 4 L 132 4 Z  M 115.2 16 L 120 16 L 124 12 L 124 8 L 120 4 L 100 4 L 100 28 L 108 28 L 108 17.231 L 118 28 L 124 28 L 124 24 L 115.2 16 L 115.2 16 L 115.2 16 L 115.2 16 L 115.2 16 Z  M 40 4 L 56 4 L 60 8 L 60 24 L 56 28 L 40 28 L 36 24 L 36 8 L 40 4 L 40 4 L 40 4 L 40 4 Z  M 208 0 L 208 32 L 272 32 L 272 18 L 268 14 L 272 10 L 272 0 L 208 0 L 208 0 L 208 0 L 208 0 L 208 0 L 208 0 L 208 0 L 208 0 L 208 0 Z  M 192 0 L 192 26 L 186 32 L 86 32 L 80 26 L 74 32 L 0 32 L 0 0 L 16 0 L 24 8 L 24 20 L 32 20 L 32 6 L 38 0 L 58 0 L 64 6 L 64 0 L 122 0 L 128 6 L 128 0 L 160 0 L 160 6 L 166 0 L 192 0 L 192 0 L 192 0 L 192 0 L 192 0 L 192 0 L 192 0 L 192 0 L 192 0 Z  M 188 4 L 188 8 L 172 8 L 172 12 L 184 12 L 188 16 L 188 24 L 184 28 L 164 28 L 164 24 L 180 24 L 180 16 L 168 16 L 164 12 L 164 8 L 168 4 L 188 4 Z " fill-rule="evenodd" fill="rgb(255,255,255)"/></g></svg>