<?xml version="1.0" encoding="UTF-8" standalone="no"?><!-- Generator: Gravit.io --><svg xmlns="http://www.w3.org/2000/svg" xmlns:xlink="http://www.w3.org/1999/xlink" style="isolation:isolate" viewBox="0 0 1920 1080" width="1920pt" height="1080pt"><defs><clipPath id="_clipPath_CGjIsILjwE6yqaS4q4tZCxz62dDrmsZ8"><rect width="1920" height="1080"/></clipPath></defs><g clip-path="url(#_clipPath_CGjIsILjwE6yqaS4q4tZCxz62dDrmsZ8)"><path d=" M 717 471 Q 717 460.406 717 440 C 717 436.689 714.311 434 711 434 L 676.688 434 L 676.688 434 C 664.545 434 652 447.063 652 465 L 652 468.5 C 652 486.437 662.858 499 675 499 L 677 499 C 685.555 499 689.5 491.607 689.5 482.5 L 689.5 482.5 L 689.5 482.5 L 689.5 482 C 689.5 478.137 686.363 475 682.5 475 L 679.512 475 C 673.158 475 668 468.503 668 460.5 C 668 452.497 673.158 446 679.512 446 Q 683.934 446 688 446 C 700.53 446 709.994 460.676 712.543 471 C 713.156 473.484 717 472.571 717 471 L 717 471 L 717 471 Z  M 814.266 434.119 C 843.104 436.227 866 466.06 866 502.5 C 866 538.94 845.104 568.773 816.266 570.881 L 793 570.955 C 785.273 570.98 779 564.727 779 557 L 779 437 C 779 435.344 780.344 434.005 782 434.01 L 814.266 434.119 L 814.266 434.119 L 814.266 434.119 Z  M 980 463 C 1016.625 462.375 1039 497.333 1039 519 C 1039 540.667 1026.667 561 1004 561 C 981.333 561 975 543.333 975 533 C 975 522.667 980.25 507 991 507 C 1001.75 507 1003 511.25 1003 516 Q 1003 520.75 1003 522 Q 1002.625 527 1000 527 C 997.375 527 994 527.188 994 531 C 994 534.813 995.25 539 1004 539 C 1012.75 539 1019 535.125 1019 519 C 1019 502.875 1001.438 487 978 487 C 957.938 487 948.375 493.125 944 500 C 944 510.117 944 598.008 944 616 C 947.25 622.875 956.5 630 968 630 Q 979.5 630 979.5 630 C 983.639 630 987 625.967 987 621 L 987 598 C 987 595.792 985.208 594 983 594 L 976 594 C 973.792 594 972 592.208 972 590 L 972 574.955 C 972 572.748 973.792 570.934 976 570.908 L 1049 570.047 C 1051.208 570.021 1053 571.792 1053 574 L 1053 590 C 1053 592.208 1051.208 594 1049 594 L 1035 594 Q 1035 615.969 1035 621.375 C 1035 635.281 1012.75 656 972 656 C 931.25 656 891 622 891 557 C 891 492 943.375 463.625 980 463 L 980 463 Z  M 717 494 Q 717 517.5 717 621 C 717 623.208 715.208 625 713 625 L 689 625 C 686.792 625 685 626.792 685 629 L 685 645 C 685 647.208 686.792 649 689 649 L 799 649 C 801.208 649 803 647.208 803 645 L 803 629 C 803 626.792 801.208 625 799 625 L 783 625 C 780.792 625 779 623.208 779 621 L 779 604 C 779 601.792 780.792 600 783 600 L 819 600 C 861.35 600 891 557.432 891 505 C 891 452.568 856.617 410 814.266 410 L 674 410 C 648.612 410 628 434.213 628 466.5 L 628 470 C 628 502.287 647.612 527 673 527 L 676 527 C 694.04 527 707.031 512.808 711.823 494 C 712.5 491.344 717 492.181 717 494 L 717 494 L 717 494 Z  M 1092 468.5 C 1076 468.5 1044 480.667 1044 516 C 1044 551.333 1067.667 563 1075 563 C 1082.333 563 1081.313 558 1087 558 Q 1092.688 558 1092 566 L 1092 626 C 1092 628.208 1090.208 630 1088 630 L 1079 630 C 1076.792 630 1075 631.792 1075 634 L 1075 646 C 1075 648.208 1076.792 650 1079 650 L 1122 650 C 1124.208 650 1126 648.208 1126 646 L 1126 634 C 1126 631.792 1124.208 630 1122 630 L 1114 630 C 1111.792 630 1110 628.208 1110 626 Q 1110 537.75 1110 527 C 1110 516.25 1103.5 502.5 1089 502.5 C 1074.5 502.5 1075 510.469 1075 516 C 1075 521.531 1078.656 527 1085 527 C 1091.344 527 1092 530.469 1092 532 C 1092 533.531 1092.156 539 1082 539 C 1071.844 539 1061 534.719 1061 518 C 1061 501.281 1071.25 493 1091 493 C 1100.953 493 1107.875 494.75 1110 500 Q 1112.125 505.25 1164.334 653.114 C 1164.702 654.155 1165.896 655 1167 655 L 1170 655 C 1171.104 655 1172.369 654.183 1172.822 653.177 L 1219.663 549.346 C 1226.472 534.253 1232 535.443 1232 552 L 1232 626 C 1232 628.208 1230.208 630 1228 630 L 1219 630 C 1216.792 630 1215 631.792 1215 634 L 1215 646 C 1215 648.208 1216.792 650 1219 650 L 1291 650 C 1293.208 650 1295 648.208 1295 646 L 1295 634 C 1295 631.792 1293.208 630 1291 630 L 1285 630 C 1282.792 630 1281 628.208 1281 626 L 1281 496 C 1281 494.344 1282.344 493 1284 493 Q 1288.375 493 1293 493 C 1297.625 493 1300 489.75 1300 487 C 1300 484.25 1300 479.5 1300 476 C 1300 472.5 1298.625 470 1293 470 Q 1287.375 470 1234 470 C 1232.896 470 1231.663 470.83 1231.247 471.853 L 1194.386 562.617 C 1192.517 567.219 1189.547 567.193 1187.757 562.56 L 1152.721 471.866 C 1152.323 470.836 1151.104 469.969 1150.001 469.932 Q 1108 468.5 1092 468.5 Z " fill-rule="evenodd" fill="rgb(255,0,0)" fill-opacity="0.53"/></g></svg>