<?xml version="1.0" encoding="UTF-8" standalone="no"?><!-- Generator: Gravit.io --><svg xmlns="http://www.w3.org/2000/svg" xmlns:xlink="http://www.w3.org/1999/xlink" style="isolation:isolate" viewBox="0 0 200 30" width="200pt" height="30pt"><defs><clipPath id="_clipPath_h4o83LMIBCGmbrM7euj5lI3XrN5Ic5qj"><rect width="200" height="30"/></clipPath></defs><g clip-path="url(#_clipPath_h4o83LMIBCGmbrM7euj5lI3XrN5Ic5qj)"><mask id="_mask_UgAnCWUJOQbNEMq6SObDpNIOiyWImJF7" x="-200%" y="-200%" width="400%" height="400%"><rect x="-200%" y="-200%" width="400%" height="400%" style="fill:white;"/><line x1="100" y1="30" x2="100" y2="0" fill="black" stroke="none"/></mask><line x1="100" y1="30" x2="100" y2="0" mask="url(#_mask_UgAnCWUJOQbNEMq6SObDpNIOiyWImJF7)" vector-effect="non-scaling-stroke" stroke-width="2" stroke="rgb(151,151,151)" stroke-linejoin="miter" stroke-linecap="butt" stroke-miterlimit="4"/><path d=" M 74.898 7.199 Q 74.898 6.123 74.898 4.049 C 74.898 3.712 74.625 3.439 74.289 3.439 L 70.802 3.439 L 70.802 3.439 C 69.568 3.439 68.293 4.767 68.293 6.589 L 68.293 6.945 C 68.293 8.768 69.396 10.045 70.63 10.045 L 70.833 10.045 C 71.703 10.045 72.104 9.293 72.104 8.368 L 72.104 8.368 L 72.104 8.368 L 72.104 8.317 C 72.104 7.924 71.785 7.606 71.392 7.606 L 71.089 7.606 C 70.443 7.606 69.919 6.945 69.919 6.132 C 69.919 5.319 70.443 4.659 71.089 4.659 Q 71.538 4.659 71.951 4.659 C 73.225 4.659 74.186 6.15 74.445 7.199 C 74.508 7.452 74.898 7.359 74.898 7.199 L 74.898 7.199 L 74.898 7.199 Z  M 84.783 3.451 C 87.714 3.665 90.041 6.697 90.041 10.4 C 90.041 14.104 87.917 17.135 84.986 17.35 L 82.622 17.357 C 81.837 17.36 81.199 16.724 81.199 15.939 L 81.199 3.744 C 81.199 3.576 81.336 3.44 81.504 3.44 L 84.783 3.451 L 84.783 3.451 L 84.783 3.451 Z  M 101.626 6.386 C 105.348 6.323 107.622 9.875 107.622 12.077 C 107.622 14.279 106.369 16.346 104.065 16.346 C 101.761 16.346 101.118 14.55 101.118 13.5 C 101.118 12.45 101.651 10.858 102.744 10.858 C 103.836 10.858 103.963 11.29 103.963 11.772 Q 103.963 12.255 103.963 12.382 Q 103.925 12.89 103.659 12.89 C 103.392 12.89 103.049 12.909 103.049 13.297 C 103.049 13.684 103.176 14.11 104.065 14.11 C 104.954 14.11 105.589 13.716 105.589 12.077 C 105.589 10.439 103.805 8.825 101.423 8.825 C 99.384 8.825 98.412 9.448 97.967 10.146 C 97.967 11.174 97.967 20.107 97.967 21.935 C 98.298 22.634 99.238 23.358 100.407 23.358 Q 101.575 23.358 101.575 23.358 C 101.996 23.358 102.337 22.948 102.337 22.443 L 102.337 20.106 C 102.337 19.881 102.155 19.699 101.931 19.699 L 101.22 19.699 C 100.995 19.699 100.813 19.517 100.813 19.293 L 100.813 17.764 C 100.813 17.539 100.995 17.355 101.22 17.352 L 108.638 17.265 C 108.863 17.262 109.045 17.442 109.045 17.667 L 109.045 19.293 C 109.045 19.517 108.863 19.699 108.638 19.699 L 107.215 19.699 Q 107.215 21.932 107.215 22.481 C 107.215 23.894 104.954 26 100.813 26 C 96.672 26 92.581 22.545 92.581 15.939 C 92.581 9.333 97.904 6.45 101.626 6.386 L 101.626 6.386 Z  M 74.898 9.537 Q 74.898 11.925 74.898 22.443 C 74.898 22.667 74.716 22.85 74.492 22.85 L 72.053 22.85 C 71.828 22.85 71.646 23.032 71.646 23.256 L 71.646 24.882 C 71.646 25.107 71.828 25.289 72.053 25.289 L 83.232 25.289 C 83.456 25.289 83.638 25.107 83.638 24.882 L 83.638 23.256 C 83.638 23.032 83.456 22.85 83.232 22.85 L 81.606 22.85 C 81.381 22.85 81.199 22.667 81.199 22.443 L 81.199 20.715 C 81.199 20.491 81.381 20.309 81.606 20.309 L 85.264 20.309 C 89.568 20.309 92.581 15.983 92.581 10.654 C 92.581 5.326 89.087 1 84.783 1 L 70.528 1 C 67.948 1 65.854 3.461 65.854 6.742 L 65.854 7.098 C 65.854 10.379 67.847 12.89 70.427 12.89 L 70.732 12.89 C 72.565 12.89 73.885 11.448 74.372 9.537 C 74.441 9.267 74.898 9.352 74.898 9.537 L 74.898 9.537 L 74.898 9.537 Z  M 113.008 6.945 C 111.382 6.945 108.13 8.182 108.13 11.772 C 108.13 15.363 110.535 16.549 111.28 16.549 C 112.026 16.549 111.922 16.041 112.5 16.041 Q 113.078 16.041 113.008 16.854 L 113.008 22.951 C 113.008 23.176 112.826 23.358 112.602 23.358 L 111.687 23.358 C 111.463 23.358 111.28 23.54 111.28 23.764 L 111.28 24.984 C 111.28 25.208 111.463 25.39 111.687 25.39 L 116.057 25.39 C 116.281 25.39 116.463 25.208 116.463 24.984 L 116.463 23.764 C 116.463 23.54 116.281 23.358 116.057 23.358 L 115.244 23.358 C 115.02 23.358 114.837 23.176 114.837 22.951 Q 114.837 13.983 114.837 12.89 C 114.837 11.798 114.177 10.4 112.703 10.4 C 111.23 10.4 111.28 11.21 111.28 11.772 C 111.28 12.334 111.652 12.89 112.297 12.89 C 112.941 12.89 113.008 13.243 113.008 13.398 C 113.008 13.554 113.024 14.11 111.992 14.11 C 110.96 14.11 109.858 13.675 109.858 11.976 C 109.858 10.277 110.899 9.435 112.907 9.435 C 113.918 9.435 114.621 9.613 114.837 10.146 Q 115.053 10.68 120.359 25.707 C 120.397 25.813 120.518 25.898 120.63 25.898 L 120.935 25.898 C 121.047 25.898 121.176 25.815 121.222 25.713 L 125.982 15.161 C 126.674 13.627 127.236 13.748 127.236 15.431 L 127.236 22.951 C 127.236 23.176 127.054 23.358 126.829 23.358 L 125.915 23.358 C 125.69 23.358 125.508 23.54 125.508 23.764 L 125.508 24.984 C 125.508 25.208 125.69 25.39 125.915 25.39 L 133.232 25.39 C 133.456 25.39 133.638 25.208 133.638 24.984 L 133.638 23.764 C 133.638 23.54 133.456 23.358 133.232 23.358 L 132.622 23.358 C 132.398 23.358 132.215 23.176 132.215 22.951 L 132.215 9.74 C 132.215 9.572 132.352 9.435 132.52 9.435 Q 132.965 9.435 133.435 9.435 C 133.905 9.435 134.146 9.105 134.146 8.825 C 134.146 8.546 134.146 8.063 134.146 7.707 C 134.146 7.352 134.007 7.098 133.435 7.098 Q 132.863 7.098 127.439 7.098 C 127.327 7.098 127.202 7.182 127.159 7.286 L 123.413 16.51 C 123.223 16.978 122.921 16.975 122.74 16.504 L 119.179 7.287 C 119.139 7.183 119.015 7.094 118.903 7.091 Q 114.634 6.945 113.008 6.945 Z " fill-rule="evenodd" fill="rgb(0,0,0)"/></g></svg>