<?xml version="1.0" standalone="yes"?>
<svg xmlns="http://www.w3.org/2000/svg" width="750" height="1000">
<path style="fill:#efeee7; stroke:none;" d="M0 0L0 1000L750 1000L750 0L0 0z"/>
<path style="fill:#560b0b; stroke:none;" d="M33 259L33 743L718 743L718 259L33 259z"/>
<path style="fill:#efeee7; stroke:none;" d="M628 544C601.415 547.377 571.683 558.904 545 552C563.731 541.057 582.818 530.968 600 517.576C614.044 506.629 632.55 492.446 633.787 473C635.247 450.047 611.17 435.18 593 427.427C560.816 413.695 521.62 403.239 489 421.312C481.947 425.22 476.671 431.393 471 436.996C466.626 441.318 461.954 445.34 457 448.986C453.726 451.396 449.502 453.774 448.449 458.015C447.397 462.253 449.879 465.732 453.044 468.239C458.916 472.89 470.254 478.59 478 477.38C482.258 476.716 486.131 474.055 490 472.312C495.821 469.688 501.959 467.15 508 465.079C530.575 457.338 569.842 458.428 582.001 483C587.771 494.663 576.028 505.672 568 512.714C557.39 522.021 545.827 530.603 534 538.305C527.459 542.564 520.185 545.911 514 550.681C508.144 555.197 499.783 563.759 500.718 572C502.64 588.961 523.399 585.28 535 583.718C550.296 581.657 565.024 576.695 580 573.13C586.539 571.574 593.537 572.231 600 570.363C610.618 567.294 625.022 554.716 628 544M228 517C233.213 510.577 238.424 504.112 244 498C247.859 493.771 253.251 489.143 255.821 484C257.54 480.56 256.611 476.615 257.637 473C258.98 468.269 261.98 465.076 261 460C238.291 465.206 222.687 485.063 208.13 502C203.307 507.612 198.899 514.045 193 518.606C187.633 522.755 180.225 523.617 174 526C175.596 529.082 180.499 531.531 180.748 535.043C181.375 543.891 166.317 551.017 167.881 559.981C168.628 564.261 173.466 565.138 177 564.481C186.005 562.807 196.829 560.106 205 556C203.177 550.128 205.705 546.749 209.152 542C211.973 538.113 214.843 533.424 219.015 530.857C223.447 528.13 229.96 527.615 235 526.6C262.979 520.969 293.996 518.263 319 503.396C328.047 498.016 339.887 490.681 340.891 479C342.588 459.258 314.726 451.826 300 448.127C254.512 436.699 207.431 435.737 161 440.95C147.798 442.432 134.485 445.077 122 449.696C118.26 451.08 110.784 454.602 113.137 459.867C114.931 463.882 122.095 465.406 126 464.707C130.772 463.852 134.598 459.785 139 457.88C146 454.851 154.457 453.272 162 452.289C195.766 447.891 233.752 450.457 267 457.668C278.353 460.131 296.287 465.42 301.503 477C305.092 484.968 294.631 492.477 289 496.135C276.375 504.336 261.508 509.64 247 513.37C240.723 514.984 234.512 516.865 228 517M418 500C414.51 506.003 412.024 512.516 409.576 519C408.077 522.973 406.636 526.953 405.344 531C404.058 535.03 401.12 541.686 402.643 545.892C405.61 554.088 417.196 549.453 422 546.214C440.276 533.892 453.574 514.826 473 504C466.31 512.704 459.848 522.248 454.784 532C452.916 535.597 449.927 540.812 452.194 544.852C454.786 549.471 460.821 547.587 465 547.169C476.423 546.026 492.514 540.419 496 528C489.545 528.661 484.654 532.443 478 531C481.944 521.527 487.545 512.912 492.576 504C494.574 500.46 498.008 495.372 496.381 491.109C493.273 482.964 480.939 488.728 476 491.259C458.224 500.37 442.231 513.062 428 527C431.412 516.977 436.564 507.651 440.861 498C443.047 493.092 446.056 488.507 443.851 483.018C438.446 469.566 420.751 483.252 414 488.152C388.755 506.477 365.783 529.103 345.754 553C339.071 560.973 331.62 568.903 326.468 578C324.967 580.651 322.266 586.525 326.318 588.382C328.656 589.453 331.723 588.365 334 587.651C343.32 584.73 346.75 576.438 352.152 569C370.507 543.725 391.673 517.411 418 500M310 558C302.065 566.001 289.22 576.528 287 588C293.405 586.674 300.821 584.995 305.896 580.61C312.585 574.828 315.616 566.256 323 560.761C326.649 558.046 339.6 552.681 333.548 546.514C329.373 542.261 319.487 542.311 314 540.175C311.459 539.186 308.826 537.598 306 537.901C303.284 538.191 295.3 541.685 298.662 545.412C300.597 547.557 305.332 547.363 308 548C297.004 553.856 283.381 557.501 271 558.826C267.358 559.216 258.71 560.188 258.022 554.941C257.276 549.251 265.97 543.157 270 540.548C283.774 531.63 302.677 525.598 319 527.718C323.391 528.289 338.476 532.686 339.573 525.867C340.22 521.852 336.546 518.868 332.996 518.229C325.261 516.837 314.718 519.138 307 520.435C289.952 523.301 272.841 528.884 257 535.719C249.789 538.831 241.415 542.557 236.573 549.039C231.391 555.976 235.963 562.361 243 565.235C254.228 569.822 267.383 568.227 279 566.424C289.754 564.756 299.68 561.358 310 558z"/>
</svg>
