<?xml version="1.0" encoding="UTF-8" standalone="no"?><!-- Generator: Gravit.io --><svg xmlns="http://www.w3.org/2000/svg" xmlns:xlink="http://www.w3.org/1999/xlink" style="isolation:isolate" viewBox="0 0 200 30" width="200pt" height="30pt"><defs><clipPath id="_clipPath_LLnk6l3PRIKTb5t40AljAnF5htmMikTU"><rect width="200" height="30"/></clipPath></defs><g clip-path="url(#_clipPath_LLnk6l3PRIKTb5t40AljAnF5htmMikTU)"><mask id="_mask_zGuDT2gZ8vDqqzvHl0IodlRNLqZwesln" x="-200%" y="-200%" width="400%" height="400%"><rect x="-200%" y="-200%" width="400%" height="400%" style="fill:white;"/><line x1="100" y1="30" x2="100" y2="0" fill="black" stroke="none"/></mask><line x1="100" y1="30" x2="100" y2="0" mask="url(#_mask_zGuDT2gZ8vDqqzvHl0IodlRNLqZwesln)" vector-effect="non-scaling-stroke" stroke-width="2" stroke="rgb(151,151,151)" stroke-linejoin="miter" stroke-linecap="butt" stroke-miterlimit="4"/><path d=" M 139.767 21.922 C 135.897 22.414 131.219 24.228 127.325 23.22 C 127.157 23.177 127.142 23.07 127.292 22.983 C 129.967 21.42 132.971 19.832 135.674 17.725 C 137.884 16.003 140.795 13.771 140.99 10.711 C 141.22 7.1 137.431 4.761 134.573 3.541 C 129.509 1.38 123.342 -0.265 118.209 2.579 C 117.099 3.194 116.269 4.165 115.377 5.047 C 114.689 5.727 113.954 6.359 113.174 6.933 C 112.659 7.312 111.995 7.686 111.829 8.354 C 111.663 9.02 112.054 9.568 112.552 9.962 C 113.476 10.694 115.26 11.591 116.478 11.401 C 117.148 11.296 117.758 10.877 118.367 10.603 C 119.282 10.19 120.248 9.791 121.199 9.465 C 124.751 8.247 130.929 8.419 132.842 12.285 C 133.75 14.12 131.902 15.852 130.639 16.96 C 128.97 18.424 127.15 19.775 125.289 20.987 C 124.26 21.657 123.116 22.183 122.143 22.934 C 121.221 23.644 119.906 24.991 120.053 26.288 C 120.355 28.957 123.622 28.378 125.447 28.132 C 127.854 27.808 130.171 27.027 132.527 26.466 C 133.556 26.221 134.657 26.324 135.674 26.031 C 137.345 25.548 139.611 23.569 139.995 22.186 C 140.042 22.018 139.94 21.9 139.767 21.922 Z  M 77.143 17.634 C 77.964 16.624 78.783 15.607 79.661 14.645 C 80.268 13.98 81.116 13.251 81.521 12.442 C 81.791 11.901 81.645 11.28 81.806 10.711 C 82.018 9.967 82.49 9.465 82.336 8.666 C 78.762 9.485 76.307 12.609 74.017 15.274 C 73.258 16.157 72.565 17.169 71.636 17.887 C 70.792 18.54 69.626 18.676 68.72 19.022 C 68.68 19.038 68.663 19.082 68.683 19.12 C 68.898 19.535 69.669 19.921 69.709 20.473 C 69.807 21.865 67.438 22.987 67.684 24.397 C 67.802 25.07 68.563 25.208 69.119 25.105 C 70.536 24.842 72.239 24.417 73.384 23.841 C 73.461 23.802 73.504 23.703 73.478 23.62 C 73.238 22.847 73.635 22.315 74.178 21.568 C 74.622 20.956 75.073 20.219 75.73 19.815 C 76.427 19.386 77.452 19.305 78.245 19.145 C 82.647 18.259 87.527 17.833 91.461 15.494 C 92.885 14.647 94.748 13.493 94.906 11.655 C 95.173 8.549 90.789 7.38 88.472 6.798 C 81.315 5 73.907 4.848 66.601 5.669 C 64.524 5.902 62.43 6.318 60.465 7.045 C 59.877 7.263 58.7 7.817 59.071 8.645 C 59.353 9.277 60.48 9.517 61.095 9.407 C 61.845 9.272 62.447 8.632 63.14 8.332 C 64.241 7.856 65.572 7.607 66.759 7.453 C 72.072 6.761 78.048 7.165 83.28 8.299 C 85.066 8.687 87.888 9.519 88.708 11.341 C 89.273 12.594 87.627 13.776 86.741 14.352 C 84.755 15.642 82.415 16.476 80.133 17.063 C 79.145 17.317 78.168 17.613 77.143 17.634 Z  M 107.038 14.96 C 106.489 15.904 106.098 16.929 105.713 17.949 C 105.477 18.574 105.25 19.2 105.047 19.837 C 104.844 20.471 104.382 21.519 104.622 22.18 C 105.089 23.47 106.911 22.741 107.667 22.231 C 110.543 20.292 112.635 17.292 115.692 15.589 C 114.639 16.958 113.622 18.46 112.826 19.995 C 112.532 20.56 112.061 21.381 112.418 22.017 C 112.826 22.743 113.775 22.447 114.433 22.381 C 116.23 22.201 118.762 21.319 119.268 19.517 C 119.291 19.433 119.24 19.372 119.154 19.381 C 118.295 19.469 117.525 20.064 116.478 19.837 C 117.099 18.347 117.98 16.991 118.772 15.589 C 119.086 15.032 119.626 14.231 119.371 13.561 C 118.881 12.279 116.941 13.186 116.164 13.584 C 113.367 15.018 110.851 17.015 108.611 19.208 C 109.148 17.631 109.959 16.163 110.635 14.645 C 110.979 13.873 111.452 13.151 111.105 12.288 C 110.255 10.171 107.471 12.324 106.409 13.095 C 102.437 15.979 98.822 19.539 95.671 23.299 C 94.619 24.553 93.447 25.801 92.636 27.232 C 92.4 27.649 91.975 28.574 92.613 28.866 C 92.981 29.034 93.463 28.863 93.821 28.751 C 95.288 28.291 95.827 26.986 96.677 25.816 C 99.565 21.839 102.896 17.699 107.038 14.96 Z  M 90.045 24.085 C 88.797 25.344 86.776 27.001 86.486 28.497 C 86.453 28.667 86.564 28.777 86.735 28.742 C 87.434 28.597 88.601 28.333 89.399 27.643 C 90.452 26.733 90.929 25.384 92.091 24.52 C 92.665 24.093 94.702 23.248 93.75 22.278 C 93.093 21.609 91.538 21.617 90.675 21.281 C 90.275 21.125 89.86 20.875 89.416 20.923 C 88.989 20.969 87.732 21.518 88.261 22.105 C 88.566 22.442 89.311 22.412 89.731 22.512 C 88 23.433 85.857 24.007 83.909 24.215 C 83.336 24.277 81.975 24.43 81.867 23.604 C 81.75 22.709 83.118 21.75 83.752 21.339 C 85.919 19.936 88.893 18.987 91.461 19.321 C 92.152 19.411 94.526 20.102 94.698 19.03 C 94.8 18.398 94.222 17.928 93.663 17.828 C 92.446 17.609 90.788 17.971 89.573 18.175 C 86.891 18.626 84.199 19.504 81.706 20.58 C 80.572 21.069 79.254 21.656 78.492 22.675 C 77.677 23.767 78.396 24.772 79.503 25.224 C 81.27 25.945 83.34 25.694 85.168 25.411 C 86.86 25.148 88.421 24.614 90.045 24.085 Z " fill-rule="evenodd" fill="rgb(0,0,0)"/></g></svg>