<?xml version="1.0" standalone="yes"?>
<svg xmlns="http://www.w3.org/2000/svg" width="750" height="1000">
<path style="fill:#efeee7; stroke:none;" d="M0 0L0 1000L750 1000L750 0L0 0z"/>
<path style="fill:#560b0b; stroke:none;" d="M33 259L33 743L718 743L718 259L33 259z"/>
<path style="fill:#efeee7; stroke:none;" d="M628 544L626.329 544.183L625.841 544.276L623.955 544.589L620 545.247L616 545.92L612 546.611L603 548.389L597 549.424C594.997 549.786 593.009 550.239 591 550.562L589 550.844L585 551.286C581.986 551.713 579.033 552.526 576 552.829C573.672 553.062 571.331 552.929 569 553.089L567 553.286L564 553.714C563.002 553.844 562.005 553.917 561 553.961C560.003 554.004 558.998 554.009 558 553.995L556 553.961C554.994 553.909 553.999 553.841 553 553.711L551.005 553.384C549.554 553.097 548.109 552.796 546.671 552.448L545 552L546.671 550.989L547.159 550.742L548.16 550.185L549.045 549.731L552.002 548.138L557 545.281L563 541.85L567 539.576C568.681 538.6 570.348 537.599 572 536.576L577 533.424L581 530.947L586 527.667C587.675 526.55 589.352 525.436 591 524.279C592.35 523.332 593.679 522.357 595 521.37C596.676 520.118 598.349 518.862 600 517.576C602.71 515.463 605.363 513.282 608 511.08C609.679 509.679 611.377 508.297 613 506.83C614.371 505.592 615.686 504.295 616.999 502.996L618.985 501C619.947 500.016 620.92 499.036 621.826 498L623.535 496C624.323 495.014 625.097 494.02 625.841 493C627.235 491.088 628.557 489.117 629.623 487C630.746 484.768 631.562 482.388 632.279 480C632.674 478.68 633.044 477.348 633.33 476C633.54 475.01 633.723 474.011 633.787 473L633.791 471L633.699 470L633.245 467C633.024 465.663 632.816 464.316 632.485 463C632.229 461.979 631.909 460.979 631.521 460C630.83 458.26 629.93 456.611 628.982 455C627.962 453.268 626.878 451.571 625.621 450C624.205 448.229 622.607 446.607 620.996 445.015C619.704 443.738 618.394 442.467 617 441.3C615.072 439.687 613.078 438.161 611 436.746C609.694 435.857 608.355 435.019 607 434.208C605.689 433.422 604.365 432.657 603 431.97C601.364 431.146 599.667 430.452 598 429.695C596.333 428.938 594.684 428.146 593 427.427L589 425.8L584 423.8C582.003 423.002 580.012 422.184 578 421.425C576.018 420.678 574.01 420.003 572 419.333C570.009 418.67 568.018 418.003 566 417.427L563 416.63C561.34 416.21 559.679 415.788 558 415.449L553 414.551L548 413.449C546.673 413.184 545.335 412.973 544 412.754C542.671 412.535 541.342 412.3 540 412.17C538.006 411.977 536.001 412.003 534 412L528 412L522 412C520.332 412.003 518.666 411.998 517 412.089C515.994 412.144 514.994 412.282 514 412.439C511.292 412.865 508.632 413.541 506 414.297C504.321 414.78 502.646 415.279 501 415.864C498.964 416.588 496.971 417.423 495 418.309L492 419.759C490.991 420.258 489.984 420.767 489 421.312C487.262 422.275 485.575 423.315 484 424.529C481.851 426.185 479.927 428.101 478 430.004L471 436.996C469.687 438.294 468.381 439.604 467 440.83C465.689 441.995 464.35 443.125 463 444.245C461.677 445.344 460.354 446.439 459 447.5L457 448.986L454.015 451.155L452.109 452.669C451.246 453.435 450.406 454.221 449.742 455.174C449.138 456.042 448.704 456.988 448.449 458.015L448.218 460.001L448.272 460.999L448.449 461.996L448.746 462.985L449.742 464.907L450.434 465.816L451.228 466.674L453.044 468.239L455.004 469.637L456.001 470.289L458 471.485L460 472.508L462 473.384L464 474.188C465.649 474.832 467.312 475.438 469 475.971C469.989 476.284 470.99 476.601 472 476.84C472.994 477.075 473.981 477.334 475 477.442C476.009 477.549 476.997 477.537 478 477.38C479.745 477.108 481.398 476.399 483 475.688L484 475.218L487 473.755L490 472.312L492 471.452C493.999 470.677 496.018 469.958 498 469.139L501 467.85C503.309 466.874 505.627 465.892 508 465.079C509.645 464.515 511.318 464.068 513 463.63L517 462.651C518.329 462.347 519.662 462.064 521 461.805C522.326 461.548 523.655 461.305 525 461.171C527.322 460.938 529.67 461 532 461L535 461.004C536 461.013 537.002 461.021 538 461.089C540.015 461.228 542.002 461.591 544 461.87C545.334 462.055 546.673 462.202 548 462.435C550.685 462.907 553.365 463.453 556 464.155C558.022 464.694 560.021 465.327 562 466.005C563.7 466.586 565.391 467.187 567 467.992C568.386 468.686 569.711 469.498 570.996 470.363C572.336 471.264 573.644 472.222 574.826 473.326C576.334 474.732 577.622 476.346 578.84 478.004C580.005 479.589 581.126 481.233 582.001 483C582.925 484.868 583.629 486.901 583.721 489C583.828 491.427 583.09 493.818 582.084 496C581.091 498.153 579.762 500.125 578.319 502C577.526 503.031 576.693 504.03 575.826 505C574.598 506.375 573.299 507.682 571.996 508.985C570.707 510.274 569.37 511.512 568 512.714C566.69 513.863 565.338 514.964 564 516.08C560.718 518.818 557.42 521.54 554 524.105C552.356 525.338 550.674 526.518 549 527.709L546 529.86L541 533.421C538.684 535.076 536.386 536.751 534 538.305C532.031 539.587 530.013 540.79 528 542L522 545.576L519 547.309L517 548.545C515.967 549.203 514.97 549.933 514 550.681C512.969 551.476 511.982 552.315 511.004 553.174L509.043 555.039L508.105 556.015L507.213 557.004L505.637 559C504.518 560.561 503.614 562.271 502.785 564C502.313 564.987 501.881 565.982 501.482 567L501.145 568L500.715 570L500.718 572C500.918 573.771 501.666 575.462 502.534 576.999C503.318 578.388 504.251 579.715 505.329 580.891C506.398 582.057 507.601 583.095 509.015 583.821C509.957 584.305 510.959 584.594 512 584.772C512.993 584.941 513.998 584.944 515 584.985L518 585L522 584.996C523 584.987 524.002 584.979 525 584.911L527 584.714L530 584.282L535 583.718L539 583.08L542 582.576C543.671 582.267 545.34 581.942 547 581.576C548.674 581.206 550.336 580.787 552 580.373L557 579.116L564 577.151C566.655 576.433 569.332 575.794 572 575.127L580 573.13L583 572.464L585 572.173C586.661 571.987 588.337 571.997 590 571.831C591.005 571.73 592.001 571.57 593 571.424L595 571.154L598 570.802L600 570.363C601.033 570.065 602.024 569.648 603 569.2C604.372 568.57 605.71 567.857 607 567.073C608.029 566.449 609.028 565.782 610 565.073C611.032 564.319 612.019 563.516 613 562.699C614.397 561.537 615.704 560.261 616.996 558.985C618.626 557.377 620.206 555.723 621.714 554L623.405 552L624.227 551.002L625.772 549.025L626.985 547.161L627.658 545.671L628 544M228 517L231.292 512.955L236.247 507C237.919 504.994 239.581 502.978 241.285 501L244 498L246.715 495L249.285 492L251.074 490C252.773 488.112 254.671 486.301 255.821 484C256.289 483.063 256.627 482.039 256.772 481C257.003 479.34 256.973 477.667 257.104 476C257.184 474.985 257.359 473.98 257.637 473C258.134 471.252 258.98 469.641 259.741 468L260.634 466.005L261 465.025L261.448 463.16L261.471 461.671L261 460L259.329 460.353L258.841 460.495L257.84 460.755L254.995 461.58L252 462.464C250.974 462.807 249.973 463.195 249 463.67C246.493 464.893 244.21 466.549 242 468.236C240.295 469.537 238.636 470.899 237 472.286L234 474.95L231 477.576L228 480.17C226.289 481.718 224.638 483.337 223.039 485.001C222.098 485.98 221.181 486.978 220.285 488L216.845 492L214.155 495L210.729 499L208.13 502L201.41 510C200.559 511.008 199.716 512.021 198.83 512.999C197.911 514.015 196.957 514.992 195.985 515.957C195.045 516.891 194.049 517.795 193 518.606C191.767 519.559 190.444 520.428 189 521.031L188 521.441C186.68 521.913 185.339 522.303 184 522.717L180.005 523.975L178.045 524.576L177.16 524.834L176.159 525.176L175.671 525.313L174 526L174.654 527.558L175.61 528.785L177.126 530.164L178.828 531.596L179.582 532.375L180.579 534.104L180.748 535.043L180.435 537.004L180.025 538.001L179.512 539L178.303 541L176.997 543L174.344 547C173.053 548.977 171.805 550.981 170.58 553L169.367 555L168.333 557L167.991 557.999L167.881 559.981L168.658 561.852L169.336 562.682L170.153 563.396L171.059 563.968L173.005 564.642L174.001 564.758L175 564.757L177 564.481L178 564.25L181 563.421L185 562.291L189 561.151L193 560.116C194.673 559.669 196.338 559.198 197.998 558.707C199.283 558.327 200.575 557.961 201.84 557.514L202.841 557.087L203.329 556.912L205 556L204.431 554.329L204.089 552.839L204.022 551.955L204.296 549.995L205.152 548L205.729 547L207.03 545L209.152 542L212.13 538L213.666 536.005L215.3 534.055L216.174 533.133L217.09 532.279L219.015 530.857C219.951 530.281 220.956 529.868 222 529.533C223.305 529.115 224.666 528.878 226 528.576L231 527.424L235 526.6L244 524.8L250 523.611L256 522.576L261 521.6L267 520.4L276 518.6C278.339 518.132 280.685 517.684 283 517.105C285.016 516.601 287.003 515.991 289 515.421L292 514.576C293.344 514.184 294.678 513.765 296 513.305C297.682 512.719 299.334 512.052 301 511.424L306 509.576L309 508.396C310.346 507.857 311.689 507.301 313 506.68C315.064 505.701 317.038 504.562 319 503.396C322.072 501.569 325.1 499.664 327.999 497.572C329.67 496.366 331.338 495.13 332.826 493.7C334.595 492.001 336.122 490.058 337.451 487.999L338.647 486L339.633 484L340.362 482L340.61 481L340.891 479L340.944 477L340.903 476L340.671 474L340.467 473L340.196 472L339.427 470L338.297 468.001L337.581 467.004L335.892 465.04C334.41 463.462 332.751 462.056 331 460.786C329.403 459.626 327.696 458.611 326 457.605C324.685 456.825 323.361 456.073 322 455.373L320 454.464C318.692 453.913 317.343 453.46 316 453.003L312 451.667C309.676 450.893 307.356 450.1 305 449.427C303.344 448.955 301.67 448.546 300 448.127L294 446.627L290 445.651L285 444.576L280 443.449L275 442.576L271 441.804C270.003 441.614 269.006 441.422 268 441.289C267.001 441.158 266.005 441.089 265 441.025L263 440.914L261 440.714C259.667 440.533 258.339 440.299 257 440.17C255.004 439.977 252.996 440.023 251 439.83L248 439.424C247.001 439.285 246.007 439.159 245 439.089C243.668 438.998 242.333 439.018 241 438.986C239.997 438.962 238.999 438.925 238 438.83L234 438.286C233.001 438.162 232.006 438.083 231 438.039L228 438.001L224 438L212 438L198 438L194 438.001C192.667 438.005 191.331 437.998 190 438.089C188.993 438.158 187.999 438.285 187 438.424L184 438.83C181.006 439.115 177.994 438.885 175 439.17L171 439.718L169 439.95L167 440.155L163 440.718L161 440.95L158 441.282L154 441.87L152 442.131L149 442.614C147.325 442.918 145.661 443.279 144 443.651L140 444.576C138 445.017 135.987 445.396 134 445.895C131.634 446.49 129.315 447.236 127 448.001L124 449.003L122 449.696L120.001 450.468L118.015 451.417L116.109 452.649L114.438 454.214L113.238 456.042L112.89 457.011L112.752 457.985L112.832 458.946L113.137 459.867L114.333 461.49L115.152 462.157L116.059 462.721L117.019 463.196L119.001 463.941L121 464.481L122 464.67L123 464.797L124 464.852L126 464.707C127.054 464.518 128.04 464.169 129 463.698C130.415 463.003 131.68 462.052 133 461.201L134 460.544L136 459.349C136.974 458.809 137.978 458.322 139 457.88C140.303 457.316 141.64 456.847 143 456.439L146 455.63C147.991 455.117 149.989 454.639 152 454.211L157 453.2C158.66 452.87 160.321 452.508 162 452.289C162.998 452.159 163.995 452.085 165 452.036L168 451.911L170 451.714C171.665 451.483 173.321 451.204 175 451.089C175.998 451.021 177 451.013 178 451.004L181 451L191 451L206 451L211 451.001C212.333 451.004 213.669 450.998 215 451.089L217 451.286C218.333 451.467 219.661 451.697 221 451.831L226 452.169L231 452.834L235 453.166L240 453.845L243 454.155L248 454.845L252 455.282L255 455.754L259 456.411L262 456.87L264 457.134C265.007 457.288 266.004 457.452 267 457.668C270.402 458.406 273.706 459.56 277 460.667L280 461.692C281.344 462.169 282.674 462.681 284 463.207C285.354 463.744 286.703 464.315 288 464.981C289.738 465.875 291.403 466.919 293 468.044C294.378 469.014 295.72 470.037 296.957 471.184L298.786 473.04L299.605 474.015L300.343 475.004L301.503 477L302.159 479L302.228 481L301.728 483L301.296 484L300.145 485.999L298.66 487.985L296.906 489.91C295.969 490.821 295.019 491.717 293.996 492.532L292 494.076C291.014 494.784 290.019 495.473 289 496.135C287.05 497.402 285.037 498.57 283 499.691L280 501.241L277 502.691C275.35 503.449 273.668 504.135 272 504.85C270.669 505.42 269.349 506.022 268 506.551L263 508.424C261.338 509.049 259.69 509.707 258 510.255C256.678 510.682 255.335 511.038 254 511.421L250 512.576L247 513.37L239 515.373C237.022 515.865 235.044 516.402 233.025 516.7C231.913 516.864 230.794 516.949 229.671 516.985L228 517M418 500L416.99 501.671L416.2 503.16L415.299 505.025L413.579 509C412.866 510.665 412.122 512.318 411.449 514L409.576 519L408.053 523L406.333 528L405.344 531L404.427 534L403.63 537L402.889 540L402.483 541.999L402.359 542.996L402.322 543.985L402.643 545.892L403.042 546.775L403.607 547.581L404.319 548.297L405.148 548.91L407.019 549.837C408.287 550.321 409.644 550.551 411 550.489C412.37 550.427 413.703 550.05 415 549.633C416.369 549.194 417.718 548.655 419 548.004C420.042 547.475 421.032 546.867 422 546.214C423.385 545.281 424.697 544.234 426 543.192C427.361 542.104 428.702 540.992 430 539.83L435 535.169L439 531.715L441 529.925L444 527.166L448 523.715L450 521.925L453 519.166L458 514.87C459.328 513.728 460.629 512.551 462 511.461C463.31 510.419 464.639 509.405 465.998 508.429C467.259 507.524 468.544 506.659 469.84 505.806L470.841 505.202L471.329 504.888L473 504L471.683 505.671C470.403 507.412 469.201 509.206 467.999 511.002L464 517L460.692 522C459.632 523.647 458.606 525.316 457.604 527C456.625 528.645 455.666 530.301 454.784 532L453.785 534L453.313 535L452.468 537L452.109 538L451.573 540L451.414 541.995L451.782 543.941L452.194 544.852L453.434 546.397L455.109 547.396L456.044 547.678L458.004 547.902L460 547.826L462 547.576L465 547.169L469 546.911C470.012 546.824 471.009 546.696 472 546.471C473.369 546.161 474.695 545.687 476 545.174C477.013 544.775 478.016 544.345 479 543.88C480.714 543.07 482.381 542.159 484 541.174C485.021 540.552 486.03 539.913 487 539.214C488.039 538.466 489.039 537.667 489.995 536.815L491.941 534.961L492.852 533.99L493.682 533.021L494.971 531.161L495.657 529.671L496 528L494.329 528.114L493.841 528.211L492.84 528.39L490.975 528.954L488.998 529.731C487.059 530.502 485.125 531.362 483.025 531.581L481.16 531.617L480.159 531.481L479.671 531.417L478 531L478.66 529.329L478.901 528.841L479.349 527.839L480.756 524.995C481.59 523.322 482.417 521.644 483.309 520C484.782 517.283 486.425 514.664 487.989 512L490.85 507L492.576 504C493.503 502.358 494.396 500.705 495.201 499L496.033 497L496.358 496C496.778 494.418 496.98 492.678 496.381 491.109L495.968 490.228L494.682 488.742L492.941 487.742L491.981 487.434L489.999 487.123L488 487.109L487 487.189C485.988 487.331 484.979 487.484 484 487.789L482 488.468L480 489.312C478.654 489.936 477.32 490.583 476 491.259L473 492.861L470 494.579C467.992 495.728 465.966 496.844 464 498.064L461 500.004C459.318 501.124 457.649 502.26 456 503.427L453 505.63C451.318 506.881 449.639 508.14 448 509.449L445 511.921C443.322 513.32 441.646 514.719 440 516.155L437 518.845L432.045 523.125C430.646 524.365 429.335 525.693 428 527L428.546 525.329L429.101 523.839C429.75 522.212 430.459 520.61 431.15 519L432.861 515L434.258 512L438.219 504L439.576 501L440.861 498L442.255 495L443.204 493L443.647 492L444.348 490L444.694 488C444.812 486.318 444.478 484.579 443.851 483.018L442.91 481.133L442.297 480.279L441.581 479.514L439.892 478.319L438.956 477.897L436.996 477.384L435 477.279L434 477.369L432 477.793C430.98 478.109 429.969 478.451 429 478.904L427 479.89L426 480.439L422 482.811L419 484.695C417.301 485.802 415.64 486.961 414 488.152C411.307 490.107 408.662 492.13 406 494.127L402 497.13C400.644 498.159 399.296 499.195 398 500.299C396.287 501.76 394.679 503.335 393 504.834L389 508.285C387.978 509.181 386.982 510.1 386 511.039C384.303 512.662 382.66 514.341 381 516L372 525L364 533C362.35 534.653 360.682 536.291 359.09 538L357.285 540L353.831 544L349.169 549C347.988 550.296 346.88 551.657 345.754 553L340.753 559C338.548 561.647 336.342 564.292 334.211 567L331.895 570C330.911 571.313 329.962 572.65 329.029 574L327.699 576L326.468 578L325.417 580L324.654 581.999L324.413 582.995L324.253 584.941L324.619 586.682L325.604 587.968L326.318 588.382L328.059 588.758L329.019 588.757L331.001 588.478C332.014 588.241 333.007 587.963 334 587.651L335.999 586.981L337.985 586.2L338.96 585.722L340.816 584.49C342.047 583.492 343.029 582.253 343.96 580.981C344.671 580.01 345.327 578.998 345.999 578L350.025 572L352.152 569L358.116 561L361.735 556L364.015 553C365.608 550.966 367.264 548.983 368.92 547C370.321 545.321 371.707 543.627 373.169 542L377.831 537L381.285 533L383.09 531C385.003 528.946 387.016 526.985 389 525L393 521.004L396 518.089L398 516.286L401 513.718L406 509.285C407.633 507.884 409.319 506.545 410.998 505.201L414.84 502.15L415.841 501.428L416.329 501.045L418 500M310 558C308.359 559.654 306.706 561.294 305.145 563.025L301.715 567C300.819 568.021 299.897 569.013 298.965 570C297.704 571.335 296.383 572.617 295.174 574L293.465 576C292.677 576.985 291.9 577.978 291.16 579L289.765 580.998L289.133 581.995L288.569 582.975L287.704 584.839L287.241 586.329L287 588L288.671 587.673C291.147 587.112 293.587 586.433 296 585.644C297.011 585.314 298.016 584.949 299 584.546C301.449 583.544 303.88 582.352 305.896 580.61C306.822 579.809 307.639 578.92 308.391 577.957C309.128 577.014 309.752 575.996 310.41 574.999C311.289 573.667 312.12 572.304 313.043 571C313.768 569.977 314.506 568.951 315.326 568.001C316.2 566.987 317.079 565.974 318.04 565.04L320.004 563.184L321.001 562.326L323 560.761C323.972 560.038 324.979 559.351 326 558.699L330.906 555.677L331.81 555.046L333.412 553.61L334.573 551.896L335.052 550.003L334.688 548.133L333.548 546.514L331.89 545.314L330.956 544.879L329.985 544.533L328.996 544.254L326 543.576C322.98 542.889 319.96 542.17 317 541.254C315.985 540.94 314.99 540.56 314 540.175L312 539.353L311 538.939L309 538.209L308 537.966L306 537.901L304.001 538.407L302.019 539.282L300.153 540.353L298.662 541.633L297.921 543.154L297.921 543.957L298.176 544.725L298.662 545.412L300.153 546.401L301.058 546.697L302.015 546.892L303.956 547.159L305.841 547.478L306.329 547.568L308 548L306.329 548.942L305.841 549.15L304.84 549.63L301.995 550.798C300.016 551.584 298.018 552.315 296 552.996C294.344 553.555 292.678 554.083 291 554.573L288 555.37C286.673 555.714 285.34 556.048 284 556.338L281 556.917L279 557.261L276 557.883L273 558.536L271 558.826C270.005 558.933 269 558.973 268 558.985L266 558.995L264.001 558.941L263.005 558.852L261.062 558.397L259.362 557.397L258.252 555.852L258.022 554.941L258.238 552.995L258.631 551.999L259.809 550.001L261.329 548.015L263.093 546.09L264.04 545.174L266.004 543.468C267.298 542.441 268.612 541.446 270 540.548C271.91 539.311 273.937 538.266 276 537.309C277.318 536.698 278.663 536.146 280 535.579L282 534.72C283.327 534.152 284.646 533.565 286 533.064C288.642 532.086 291.326 531.22 294 530.333C295.659 529.783 297.315 529.212 299 528.745C300.321 528.379 301.656 528.076 303 527.808C304.324 527.544 305.656 527.305 307 527.171C307.996 527.071 308.999 527.025 310 527.015L313 527.039L315 527.17C316.341 527.279 317.667 527.545 319 527.718L321 527.95L323 528.155L328 528.87L331 529.256L332.999 529.481L333.995 529.526L335.941 529.338L336.852 529.067L337.681 528.667L338.393 528.138L339.353 526.721L339.573 525.867L339.508 523.997L339.238 523.039L338.816 522.108L338.257 521.228L337.566 520.434L335.891 519.179L334.956 518.742L332.996 518.229L331 518.059L330 518.055L328 518.171L323 518.83C322.001 518.926 321.003 518.96 320 518.989L317 519.089L315 519.286L312 519.729C310.333 519.967 308.661 520.156 307 520.435C302.276 521.229 297.642 522.466 293 523.627C290.326 524.295 287.642 524.933 285 525.721L278 527.975L273 529.515L269 530.953C266.994 531.687 264.987 532.417 263 533.204C260.983 534.003 258.992 534.86 257 535.719L255 536.579C253.656 537.154 252.307 537.715 251 538.37C249.633 539.056 248.308 539.823 247 540.616C245.642 541.439 244.297 542.291 243.001 543.209C240.645 544.878 238.313 546.709 236.573 549.039L235.318 551.004L234.859 552.001L234.298 554L234.192 555L234.336 556.996L234.608 557.985L235.603 559.906L237.148 561.66L239.019 563.147L240.005 563.775L241.001 564.326L243 565.235C244.932 566.025 246.965 566.544 249 566.985C250.98 567.415 252.977 567.769 255 567.911C256.662 568.027 258.335 567.997 260 568L265 567.999C266.669 567.991 268.337 567.991 270 567.83C271.342 567.7 272.671 567.464 274 567.246L279 566.424L284 565.714C285.009 565.557 286.005 565.338 287 565.112L290 564.37C291.34 564.029 292.675 563.674 294 563.279C296.015 562.679 298.005 561.998 300 561.333L308.329 558.534L310 558z"/>
</svg>
