<?xml version="1.0" encoding="UTF-8"?>
<svg width="68.1514477px" height="30px" viewBox="0 0 68.1514477 30" version="1.1" xmlns="http://www.w3.org/2000/svg" xmlns:xlink="http://www.w3.org/1999/xlink">
    <title>philips p2000</title>
    <g id="Page-1" stroke="none" stroke-width="1" fill="none" fill-rule="evenodd">
        <g id="System" transform="translate(-65.924276, 0.000000)" fill="#000000">
            <g id="philips-p2000" transform="translate(65.924276, 0.000000)">
                <line x1="34.0757238" y1="30" x2="34.0757238" y2="0" id="Path" stroke="#979797" fill-rule="nonzero"></line>
                <path d="M0.556792873,2.52783964 C0.864301086,2.52783964 1.11358575,2.7771243 1.11358575,3.08463252 L1.11358575,26.9153675 C1.11358575,27.2228757 0.864301086,27.4721604 0.556792873,27.4721604 C0.24928466,27.4721604 0,27.2228757 0,26.9153675 L0,3.08463252 C0,2.7771243 0.24928466,2.52783964 0.556792873,2.52783964 Z M2.11581292,2.52783964 C2.42332113,2.52783964 2.67260579,2.7771243 2.67260579,3.08463252 L2.67260579,26.9153675 C2.67260579,27.2228757 2.42332113,27.4721604 2.11581292,27.4721604 C1.8083047,27.4721604 1.55902004,27.2228757 1.55902004,26.9153675 L1.55902004,3.08463252 C1.55902004,2.7771243 1.8083047,2.52783964 2.11581292,2.52783964 Z M3.67483296,2.52783964 C3.98234117,2.52783964 4.23162584,2.7771243 4.23162584,3.08463252 L4.23162584,26.9153675 C4.23162584,27.2228757 3.98234117,27.4721604 3.67483296,27.4721604 C3.36732475,27.4721604 3.11804009,27.2228757 3.11804009,26.9153675 L3.11804009,3.08463252 C3.11804009,2.7771243 3.36732475,2.52783964 3.67483296,2.52783964 Z M5.23385301,2.52783964 C5.54136122,2.52783964 5.79064588,2.7771243 5.79064588,3.08463252 L5.79064588,7.14922049 C5.79064588,7.4567287 5.54136122,7.70601336 5.23385301,7.70601336 C4.92634479,7.70601336 4.67706013,7.4567287 4.67706013,7.14922049 L4.67706013,3.08463252 C4.67706013,2.7771243 4.92634479,2.52783964 5.23385301,2.52783964 Z M5.23385301,13.1069042 C5.54136122,13.1069042 5.79064588,13.3561889 5.79064588,13.6636971 L5.79064588,17.7282851 C5.79064588,18.0357933 5.54136122,18.285078 5.23385301,18.285078 C4.92634479,18.285078 4.67706013,18.0357933 4.67706013,17.7282851 L4.67706013,13.6636971 C4.67706013,13.3561889 4.92634479,13.1069042 5.23385301,13.1069042 Z M6.79287305,2.52783964 C7.10038126,2.52783964 7.34966592,2.7771243 7.34966592,3.08463252 L7.34966592,7.14922049 C7.34966592,7.4567287 7.10038126,7.70601336 6.79287305,7.70601336 C6.48536484,7.70601336 6.23608018,7.4567287 6.23608018,7.14922049 L6.23608018,3.08463252 C6.23608018,2.7771243 6.48536484,2.52783964 6.79287305,2.52783964 Z M8.3518931,2.52783964 C8.65940131,2.52783964 8.90868597,2.7771243 8.90868597,3.08463252 L8.90868597,17.7282851 C8.90868597,18.0357933 8.65940131,18.285078 8.3518931,18.285078 C8.04438488,18.285078 7.79510022,18.0357933 7.79510022,17.7282851 L7.79510022,3.08463252 C7.79510022,2.7771243 8.04438488,2.52783964 8.3518931,2.52783964 Z M9.91091314,2.52783964 C10.2184214,2.52783964 10.467706,2.7771243 10.467706,3.08463252 L10.467706,17.7282851 C10.467706,18.0357933 10.2184214,18.285078 9.91091314,18.285078 C9.60340493,18.285078 9.35412027,18.0357933 9.35412027,17.7282851 L9.35412027,3.08463252 C9.35412027,2.7771243 9.60340493,2.52783964 9.91091314,2.52783964 Z M11.4699332,3.00111359 C11.7774414,3.00111359 12.0267261,3.25039825 12.0267261,3.55790646 L12.0267261,16.9487751 C12.0267261,17.2562833 11.7774414,17.5055679 11.4699332,17.5055679 C11.162425,17.5055679 10.9131403,17.2562833 10.9131403,16.9487751 L10.9131403,3.55790646 C10.9131403,3.25039825 11.162425,3.00111359 11.4699332,3.00111359 Z M14.5879733,3.00111359 C14.8954815,3.00111359 15.1447661,3.25039825 15.1447661,3.55790646 L15.1447661,11.9097996 C15.1447661,12.2173078 14.8954815,12.4665924 14.5879733,12.4665924 C14.2804651,12.4665924 14.0311804,12.2173078 14.0311804,11.9097996 L14.0311804,3.55790646 C14.0311804,3.25039825 14.2804651,3.00111359 14.5879733,3.00111359 Z M28.6191537,3.00111359 C28.9266619,3.00111359 29.1759465,3.25039825 29.1759465,3.55790646 L29.1759465,26.3864143 C29.1759465,26.6939225 28.9266619,26.9432071 28.6191537,26.9432071 C28.3116455,26.9432071 28.0623608,26.6939225 28.0623608,26.3864143 L28.0623608,3.55790646 C28.0623608,3.25039825 28.3116455,3.00111359 28.6191537,3.00111359 Z M14.5879733,22.2939866 C14.8954815,22.2939866 15.1447661,22.5432713 15.1447661,22.8507795 L15.1447661,26.9153675 C15.1447661,27.2228757 14.8954815,27.4721604 14.5879733,27.4721604 C14.2804651,27.4721604 14.0311804,27.2228757 14.0311804,26.9153675 L14.0311804,22.8507795 C14.0311804,22.5432713 14.2804651,22.2939866 14.5879733,22.2939866 Z M16.1469933,20.2895323 C16.4545015,20.2895323 16.7037862,20.538817 16.7037862,20.8463252 L16.7037862,26.9153675 C16.7037862,27.2228757 16.4545015,27.4721604 16.1469933,27.4721604 C15.8394851,27.4721604 15.5902004,27.2228757 15.5902004,26.9153675 L15.5902004,20.8463252 C15.5902004,20.538817 15.8394851,20.2895323 16.1469933,20.2895323 Z M17.7060134,18.5634744 C18.0135216,18.5634744 18.2628062,18.812759 18.2628062,19.1202673 L18.2628062,26.9153675 C18.2628062,27.2228757 18.0135216,27.4721604 17.7060134,27.4721604 C17.3985052,27.4721604 17.1492205,27.2228757 17.1492205,26.9153675 L17.1492205,19.1202673 C17.1492205,18.812759 17.3985052,18.5634744 17.7060134,18.5634744 Z M19.2650334,16.6146993 C19.5725416,16.6146993 19.8218263,16.863984 19.8218263,17.1714922 L19.8218263,26.9153675 C19.8218263,27.2228757 19.5725416,27.4721604 19.2650334,27.4721604 C18.9575252,27.4721604 18.7082405,27.2228757 18.7082405,26.9153675 L18.7082405,17.1714922 C18.7082405,16.863984 18.9575252,16.6146993 19.2650334,16.6146993 Z M20.8240535,22.2939866 C21.1315617,22.2939866 21.3808463,22.5432713 21.3808463,22.8507795 L21.3808463,26.9153675 C21.3808463,27.2228757 21.1315617,27.4721604 20.8240535,27.4721604 C20.5165452,27.4721604 20.2672606,27.2228757 20.2672606,26.9153675 L20.2672606,22.8507795 C20.2672606,22.5432713 20.5165452,22.2939866 20.8240535,22.2939866 Z M20.8240535,14.1926503 C21.1315617,14.1926503 21.3808463,14.441935 21.3808463,14.7494432 L21.3808463,20.5957684 C21.3808463,20.9032766 21.1315617,21.1525612 20.8240535,21.1525612 C20.5165452,21.1525612 20.2672606,20.9032766 20.2672606,20.5957684 L20.2672606,14.7494432 C20.2672606,14.441935 20.5165452,14.1926503 20.8240535,14.1926503 Z M22.3830735,22.2939866 C22.6905817,22.2939866 22.9398664,22.5432713 22.9398664,22.8507795 L22.9398664,26.9153675 C22.9398664,27.2228757 22.6905817,27.4721604 22.3830735,27.4721604 C22.0755653,27.4721604 21.8262806,27.2228757 21.8262806,26.9153675 L21.8262806,22.8507795 C21.8262806,22.5432713 22.0755653,22.2939866 22.3830735,22.2939866 Z M23.9420935,22.2939866 C24.2496018,22.2939866 24.4988864,22.5432713 24.4988864,22.8507795 L24.4988864,26.9153675 C24.4988864,27.2228757 24.2496018,27.4721604 23.9420935,27.4721604 C23.6345853,27.4721604 23.3853007,27.2228757 23.3853007,26.9153675 L23.3853007,22.8507795 C23.3853007,22.5432713 23.6345853,22.2939866 23.9420935,22.2939866 Z M25.5011136,22.2939866 C25.8086218,22.2939866 26.0579065,22.5432713 26.0579065,22.8507795 L26.0579065,26.9153675 C26.0579065,27.2228757 25.8086218,27.4721604 25.5011136,27.4721604 C25.1936054,27.4721604 24.9443207,27.2228757 24.9443207,26.9153675 L24.9443207,22.8507795 C24.9443207,22.5432713 25.1936054,22.2939866 25.5011136,22.2939866 Z M25.5011136,3.00111359 C25.8086218,3.00111359 26.0579065,3.25039825 26.0579065,3.55790646 L26.0579065,12.9120267 C26.0579065,13.2195349 25.8086218,13.4688196 25.5011136,13.4688196 C25.1936054,13.4688196 24.9443207,13.2195349 24.9443207,12.9120267 L24.9443207,3.55790646 C24.9443207,3.25039825 25.1936054,3.00111359 25.5011136,3.00111359 Z M39.532294,3.00111359 C39.8398022,3.00111359 40.0890869,3.25039825 40.0890869,3.55790646 L40.0890869,26.3864143 C40.0890869,26.6939225 39.8398022,26.9432071 39.532294,26.9432071 C39.2247858,26.9432071 38.9755011,26.6939225 38.9755011,26.3864143 L38.9755011,3.55790646 C38.9755011,3.25039825 39.2247858,3.00111359 39.532294,3.00111359 Z M16.1469933,2.5 C16.4545015,2.5 16.7037862,2.74928466 16.7037862,3.05679287 L16.7037862,11.9097996 C16.7037862,12.2173078 16.4545015,12.4665924 16.1469933,12.4665924 C15.8394851,12.4665924 15.5902004,12.2173078 15.5902004,11.9097996 L15.5902004,3.05679287 C15.5902004,2.74928466 15.8394851,2.5 16.1469933,2.5 Z M30.1781737,2.5 C30.4856819,2.5 30.7349666,2.74928466 30.7349666,3.05679287 L30.7349666,26.9432071 C30.7349666,27.2507153 30.4856819,27.5 30.1781737,27.5 C29.8706655,27.5 29.6213808,27.2507153 29.6213808,26.9432071 L29.6213808,3.05679287 C29.6213808,2.74928466 29.8706655,2.5 30.1781737,2.5 Z M23.9420935,2.5 C24.2496018,2.5 24.4988864,2.74928466 24.4988864,3.05679287 L24.4988864,16.252784 C24.4988864,16.5602922 24.2496018,16.8095768 23.9420935,16.8095768 C23.6345853,16.8095768 23.3853007,16.5602922 23.3853007,16.252784 L23.3853007,3.05679287 C23.3853007,2.74928466 23.6345853,2.5 23.9420935,2.5 Z M37.9732739,2.5 C38.2807822,2.5 38.5300668,2.74928466 38.5300668,3.05679287 L38.5300668,26.9432071 C38.5300668,27.2507153 38.2807822,27.5 37.9732739,27.5 C37.6657657,27.5 37.4164811,27.2507153 37.4164811,26.9432071 L37.4164811,3.05679287 C37.4164811,2.74928466 37.6657657,2.5 37.9732739,2.5 Z M17.7060134,2.5 C18.0135216,2.5 18.2628062,2.74928466 18.2628062,3.05679287 L18.2628062,11.9097996 C18.2628062,12.2173078 18.0135216,12.4665924 17.7060134,12.4665924 C17.3985052,12.4665924 17.1492205,12.2173078 17.1492205,11.9097996 L17.1492205,3.05679287 C17.1492205,2.74928466 17.3985052,2.5 17.7060134,2.5 Z M31.7371938,2.5 C32.044702,2.5 32.2939866,2.74928466 32.2939866,3.05679287 L32.2939866,26.9432071 C32.2939866,27.2507153 32.044702,27.5 31.7371938,27.5 C31.4296856,27.5 31.1804009,27.2507153 31.1804009,26.9432071 L31.1804009,3.05679287 C31.1804009,2.74928466 31.4296856,2.5 31.7371938,2.5 Z M22.3830735,2.5 C22.6905817,2.5 22.9398664,2.74928466 22.9398664,3.05679287 L22.9398664,18.591314 C22.9398664,18.8988222 22.6905817,19.1481069 22.3830735,19.1481069 C22.0755653,19.1481069 21.8262806,18.8988222 21.8262806,18.591314 L21.8262806,3.05679287 C21.8262806,2.74928466 22.0755653,2.5 22.3830735,2.5 Z M36.4142539,2.5 C36.7217621,2.5 36.9710468,2.74928466 36.9710468,3.05679287 L36.9710468,26.9432071 C36.9710468,27.2507153 36.7217621,27.5 36.4142539,27.5 C36.1067457,27.5 35.857461,27.2507153 35.857461,26.9432071 L35.857461,3.05679287 C35.857461,2.74928466 36.1067457,2.5 36.4142539,2.5 Z M19.2650334,2.5 C19.5725416,2.5 19.8218263,2.74928466 19.8218263,3.05679287 L19.8218263,7.12138085 C19.8218263,7.42888906 19.5725416,7.67817372 19.2650334,7.67817372 C18.9575252,7.67817372 18.7082405,7.42888906 18.7082405,7.12138085 L18.7082405,3.05679287 C18.7082405,2.74928466 18.9575252,2.5 19.2650334,2.5 Z M33.2962138,2.5 C33.603722,2.5 33.8530067,2.74928466 33.8530067,3.05679287 L33.8530067,7.12138085 C33.8530067,7.42888906 33.603722,7.67817372 33.2962138,7.67817372 C32.9887056,7.67817372 32.7394209,7.42888906 32.7394209,7.12138085 L32.7394209,3.05679287 C32.7394209,2.74928466 32.9887056,2.5 33.2962138,2.5 Z M33.2962138,22.3218263 C33.603722,22.3218263 33.8530067,22.5711109 33.8530067,22.8786192 L33.8530067,26.9432071 C33.8530067,27.2507153 33.603722,27.5 33.2962138,27.5 C32.9887056,27.5 32.7394209,27.2507153 32.7394209,26.9432071 L32.7394209,22.8786192 C32.7394209,22.5711109 32.9887056,22.3218263 33.2962138,22.3218263 Z M20.8240535,2.5 C21.1315617,2.5 21.3808463,2.74928466 21.3808463,3.05679287 L21.3808463,7.12138085 C21.3808463,7.42888906 21.1315617,7.67817372 20.8240535,7.67817372 C20.5165452,7.67817372 20.2672606,7.42888906 20.2672606,7.12138085 L20.2672606,3.05679287 C20.2672606,2.74928466 20.5165452,2.5 20.8240535,2.5 Z M34.8552339,2.5 C35.1627421,2.5 35.4120267,2.74928466 35.4120267,3.05679287 L35.4120267,7.12138085 C35.4120267,7.42888906 35.1627421,7.67817372 34.8552339,7.67817372 C34.5477256,7.67817372 34.298441,7.42888906 34.298441,7.12138085 L34.298441,3.05679287 C34.298441,2.74928466 34.5477256,2.5 34.8552339,2.5 Z M34.8552339,22.3218263 C35.1627421,22.3218263 35.4120267,22.5711109 35.4120267,22.8786192 L35.4120267,26.9432071 C35.4120267,27.2507153 35.1627421,27.5 34.8552339,27.5 C34.5477256,27.5 34.298441,27.2507153 34.298441,26.9432071 L34.298441,22.8786192 C34.298441,22.5711109 34.5477256,22.3218263 34.8552339,22.3218263 Z M42.6503341,3.00111359 C42.9578423,3.00111359 43.2071269,3.25039825 43.2071269,3.55790646 L43.2071269,26.3864143 C43.2071269,26.6939225 42.9578423,26.9432071 42.6503341,26.9432071 C42.3428259,26.9432071 42.0935412,26.6939225 42.0935412,26.3864143 L42.0935412,3.55790646 C42.0935412,3.25039825 42.3428259,3.00111359 42.6503341,3.00111359 Z M56.6815145,3.00111359 C56.9890227,3.00111359 57.2383073,3.25039825 57.2383073,3.55790646 L57.2383073,26.3864143 C57.2383073,26.6939225 56.9890227,26.9432071 56.6815145,26.9432071 C56.3740063,26.9432071 56.1247216,26.6939225 56.1247216,26.3864143 L56.1247216,3.55790646 C56.1247216,3.25039825 56.3740063,3.00111359 56.6815145,3.00111359 Z M53.5634744,3.00111359 C53.8709826,3.00111359 54.1202673,3.25039825 54.1202673,3.55790646 L54.1202673,26.3864143 C54.1202673,26.6939225 53.8709826,26.9432071 53.5634744,26.9432071 C53.2559662,26.9432071 53.0066815,26.6939225 53.0066815,26.3864143 L53.0066815,3.55790646 C53.0066815,3.25039825 53.2559662,3.00111359 53.5634744,3.00111359 Z M67.5946548,3.00111359 C67.902163,3.00111359 68.1514477,3.25039825 68.1514477,3.55790646 L68.1514477,26.3864143 C68.1514477,26.6939225 67.902163,26.9432071 67.5946548,26.9432071 C67.2871466,26.9432071 67.0378619,26.6939225 67.0378619,26.3864143 L67.0378619,3.55790646 C67.0378619,3.25039825 67.2871466,3.00111359 67.5946548,3.00111359 Z M44.2093541,2.5 C44.5168623,2.5 44.766147,2.74928466 44.766147,3.05679287 L44.766147,26.9432071 C44.766147,27.2507153 44.5168623,27.5 44.2093541,27.5 C43.9018459,27.5 43.6525612,27.2507153 43.6525612,26.9432071 L43.6525612,3.05679287 C43.6525612,2.74928466 43.9018459,2.5 44.2093541,2.5 Z M58.2405345,2.5 C58.5480427,2.5 58.7973274,2.74928466 58.7973274,3.05679287 L58.7973274,26.9432071 C58.7973274,27.2507153 58.5480427,27.5 58.2405345,27.5 C57.9330263,27.5 57.6837416,27.2507153 57.6837416,26.9432071 L57.6837416,3.05679287 C57.6837416,2.74928466 57.9330263,2.5 58.2405345,2.5 Z M52.0044543,2.5 C52.3119626,2.5 52.5612472,2.74928466 52.5612472,3.05679287 L52.5612472,26.9432071 C52.5612472,27.2507153 52.3119626,27.5 52.0044543,27.5 C51.6969461,27.5 51.4476615,27.2507153 51.4476615,26.9432071 L51.4476615,3.05679287 C51.4476615,2.74928466 51.6969461,2.5 52.0044543,2.5 Z M66.0356347,2.5 C66.343143,2.5 66.5924276,2.74928466 66.5924276,3.05679287 L66.5924276,26.9432071 C66.5924276,27.2507153 66.343143,27.5 66.0356347,27.5 C65.7281265,27.5 65.4788419,27.2507153 65.4788419,26.9432071 L65.4788419,3.05679287 C65.4788419,2.74928466 65.7281265,2.5 66.0356347,2.5 Z M45.7683742,2.5 C46.0758824,2.5 46.325167,2.74928466 46.325167,3.05679287 L46.325167,26.9432071 C46.325167,27.2507153 46.0758824,27.5 45.7683742,27.5 C45.460866,27.5 45.2115813,27.2507153 45.2115813,26.9432071 L45.2115813,3.05679287 C45.2115813,2.74928466 45.460866,2.5 45.7683742,2.5 Z M59.7995546,2.5 C60.1070628,2.5 60.3563474,2.74928466 60.3563474,3.05679287 L60.3563474,26.9432071 C60.3563474,27.2507153 60.1070628,27.5 59.7995546,27.5 C59.4920464,27.5 59.2427617,27.2507153 59.2427617,26.9432071 L59.2427617,3.05679287 C59.2427617,2.74928466 59.4920464,2.5 59.7995546,2.5 Z M50.4454343,2.5 C50.7529425,2.5 51.0022272,2.74928466 51.0022272,3.05679287 L51.0022272,26.9432071 C51.0022272,27.2507153 50.7529425,27.5 50.4454343,27.5 C50.1379261,27.5 49.8886414,27.2507153 49.8886414,26.9432071 L49.8886414,3.05679287 C49.8886414,2.74928466 50.1379261,2.5 50.4454343,2.5 Z M64.4766147,2.5 C64.7841229,2.5 65.0334076,2.74928466 65.0334076,3.05679287 L65.0334076,26.9432071 C65.0334076,27.2507153 64.7841229,27.5 64.4766147,27.5 C64.1691065,27.5 63.9198218,27.2507153 63.9198218,26.9432071 L63.9198218,3.05679287 C63.9198218,2.74928466 64.1691065,2.5 64.4766147,2.5 Z M47.3273942,2.5 C47.6349024,2.5 47.8841871,2.74928466 47.8841871,3.05679287 L47.8841871,7.12138085 C47.8841871,7.42888906 47.6349024,7.67817372 47.3273942,7.67817372 C47.019886,7.67817372 46.7706013,7.42888906 46.7706013,7.12138085 L46.7706013,3.05679287 C46.7706013,2.74928466 47.019886,2.5 47.3273942,2.5 Z M61.3585746,2.5 C61.6660828,2.5 61.9153675,2.74928466 61.9153675,3.05679287 L61.9153675,7.12138085 C61.9153675,7.42888906 61.6660828,7.67817372 61.3585746,7.67817372 C61.0510664,7.67817372 60.8017817,7.42888906 60.8017817,7.12138085 L60.8017817,3.05679287 C60.8017817,2.74928466 61.0510664,2.5 61.3585746,2.5 Z M47.3273942,22.3218263 C47.6349024,22.3218263 47.8841871,22.5711109 47.8841871,22.8786192 L47.8841871,26.9432071 C47.8841871,27.2507153 47.6349024,27.5 47.3273942,27.5 C47.019886,27.5 46.7706013,27.2507153 46.7706013,26.9432071 L46.7706013,22.8786192 C46.7706013,22.5711109 47.019886,22.3218263 47.3273942,22.3218263 Z M61.3585746,22.3218263 C61.6660828,22.3218263 61.9153675,22.5711109 61.9153675,22.8786192 L61.9153675,26.9432071 C61.9153675,27.2507153 61.6660828,27.5 61.3585746,27.5 C61.0510664,27.5 60.8017817,27.2507153 60.8017817,26.9432071 L60.8017817,22.8786192 C60.8017817,22.5711109 61.0510664,22.3218263 61.3585746,22.3218263 Z M48.8864143,2.5 C49.1939225,2.5 49.4432071,2.74928466 49.4432071,3.05679287 L49.4432071,7.12138085 C49.4432071,7.42888906 49.1939225,7.67817372 48.8864143,7.67817372 C48.578906,7.67817372 48.3296214,7.42888906 48.3296214,7.12138085 L48.3296214,3.05679287 C48.3296214,2.74928466 48.578906,2.5 48.8864143,2.5 Z M62.9175947,2.5 C63.2251029,2.5 63.4743875,2.74928466 63.4743875,3.05679287 L63.4743875,7.12138085 C63.4743875,7.42888906 63.2251029,7.67817372 62.9175947,7.67817372 C62.6100864,7.67817372 62.3608018,7.42888906 62.3608018,7.12138085 L62.3608018,3.05679287 C62.3608018,2.74928466 62.6100864,2.5 62.9175947,2.5 Z M48.8864143,22.3218263 C49.1939225,22.3218263 49.4432071,22.5711109 49.4432071,22.8786192 L49.4432071,26.9432071 C49.4432071,27.2507153 49.1939225,27.5 48.8864143,27.5 C48.578906,27.5 48.3296214,27.2507153 48.3296214,26.9432071 L48.3296214,22.8786192 C48.3296214,22.5711109 48.578906,22.3218263 48.8864143,22.3218263 Z M62.9175947,22.3218263 C63.2251029,22.3218263 63.4743875,22.5711109 63.4743875,22.8786192 L63.4743875,26.9432071 C63.4743875,27.2507153 63.2251029,27.5 62.9175947,27.5 C62.6100864,27.5 62.3608018,27.2507153 62.3608018,26.9432071 L62.3608018,22.8786192 C62.3608018,22.5711109 62.6100864,22.3218263 62.9175947,22.3218263 Z M6.79287305,13.1069042 C7.10038126,13.1069042 7.34966592,13.3561889 7.34966592,13.6636971 L7.34966592,17.7282851 C7.34966592,18.0357933 7.10038126,18.285078 6.79287305,18.285078 C6.48536484,18.285078 6.23608018,18.0357933 6.23608018,17.7282851 L6.23608018,13.6636971 C6.23608018,13.3561889 6.48536484,13.1069042 6.79287305,13.1069042 Z" id="Shape"></path>
            </g>
        </g>
    </g>
</svg>