<?xml version="1.0" encoding="UTF-8" standalone="no"?>
<!-- Created with Inkscape (http://www.inkscape.org/) -->

<svg
   xmlns:svg="http://www.w3.org/2000/svg"
   xmlns="http://www.w3.org/2000/svg"
   version="1.1"
   width="200"
   height="60"
   id="svg2870">
  <defs
     id="defs2872" />
  <g
     transform="translate(0,-992.36218)"
     id="layer1">
    <path
       d="m 138.65625,1006.125 c -0.32629,0 -0.65256,0.01 -0.96875,0.031 -0.63774,0.045 -1.23856,0.132 -1.71875,0.2188 -0.90549,0.1659 -1.44177,0.3373 -2.09375,0.5938 -0.31505,0.1278 -0.6398,0.2819 -0.9375,0.4374 -0.41948,0.2359 -0.83587,0.5176 -1.1875,0.8438 -0.35071,0.3241 -0.64586,0.6963 -0.90625,1.0938 -0.7949,1.1933 -1.0157,2.5335 -1,3.7812 l 0,0.5 0.5,0 2.34375,0 0.5625,0 -0.0625,-0.5312 c -0.0539,-0.6838 0.005,-1.3569 0.3125,-2.0313 0.12114,-0.2661 0.29944,-0.495 0.5,-0.7187 0.19851,-0.2239 0.42624,-0.4359 0.6875,-0.5938 0.72472,-0.4459 1.67021,-0.5589 2.625,-0.6875 0.01,0 0.0214,10e-4 0.0312,0 1.24936,-0.1268 2.58512,-0.1002 3.90625,0.3125 0.33813,0.106 0.66444,0.2553 0.9375,0.4688 0.27305,0.2122 0.51373,0.4909 0.6875,0.7812 0.51737,0.8794 0.4393,1.983 0.4375,3.1562 -5e-5,0.032 -7e-5,0.061 0,0.094 -0.0251,0.1752 -0.0402,0.3323 -0.0625,0.4062 -0.0245,0.081 -0.081,0.1509 -0.25,0.2813 -0.0198,0.015 -0.007,0.014 -0.0312,0.031 -0.10914,0.059 -0.22904,0.1184 -0.34375,0.1562 -0.09,0.03 -0.52343,0.1225 -0.9375,0.1875 l -0.0312,0 c -2.70056,0.3413 -5.48523,0.511 -8.3125,1.375 l -0.0312,0 c -0.77015,0.2906 -1.60483,0.6417 -2.46875,1.4063 -0.24384,0.2223 -0.46162,0.4553 -0.65625,0.7187 -0.19333,0.2617 -0.39459,0.5689 -0.5625,0.9375 l 0.0312,0 c -0.36044,0.7748 -0.6632,1.7732 -0.65625,2.75 -0.002,0.4885 0.0401,0.9798 0.125,1.4062 0.0847,0.4249 0.22096,0.8041 0.375,1.1563 0.15404,0.3522 0.33742,0.6839 0.5625,1 0.22456,0.3154 0.49842,0.609 0.78125,0.875 1.27414,1.1114 2.65149,1.4055 3.9375,1.5937 l 0.0312,0 c 1.91001,0.2141 3.91213,0.03 5.90625,-0.9062 0.77472,-0.3887 1.56724,-0.9315 2.25,-1.5938 0.24499,-0.2313 0.49384,-0.479 0.75,-0.75 0.035,0.4775 0.008,0.9291 0.1875,1.4376 0.078,0.213 0.20851,0.413 0.34375,0.5937 0.66493,0.8354 1.53937,0.943 2.1875,1.0313 l 0.0312,0 c 0.73472,0.067 1.50199,-0.034 2.25,-0.3438 l 0.3125,-0.125 0,-0.3125 0,-1.4375 0,-0.7188 -0.65625,0.2188 c -0.53276,0.1873 -0.80033,0.3253 -1.25,0.062 -0.26398,-0.1641 -0.32667,-0.3645 -0.40625,-0.6563 -0.001,0 10e-4,-0.026 0,-0.031 -0.0358,-0.171 -0.078,-0.6032 -0.0937,-1.0625 -4e-5,-0.01 4e-5,-0.021 0,-0.031 -0.0158,-3.7187 0.0384,-7.4569 0,-11.1874 l 0,-0.031 c -0.0469,-0.7976 -0.082,-1.6522 -0.4375,-2.5625 l 0,-0.031 -0.0312,0 c -0.13737,-0.3229 -0.29768,-0.62 -0.5,-0.9063 -0.95494,-1.2996 -2.20114,-1.8355 -3.21875,-2.1875 l -0.0312,0 c -0.29567,-0.096 -0.59848,-0.1993 -1.0625,-0.2812 -0.72738,-0.1351 -1.70863,-0.2228 -2.6875,-0.2188 z m 4.78125,10.9375 0,1.875 c -8.9e-4,1.4894 -0.13133,2.8745 -1.3125,4.1563 -0.32397,0.3373 -0.70344,0.6671 -1.09375,0.9374 -1.22906,0.8442 -2.46306,1.1941 -3.65625,1.3126 -0.0107,5e-4 -0.0206,-6e-4 -0.0312,0 -1.48436,0.068 -2.87542,-0.081 -4.125,-1.1876 -0.85149,-0.8491 -0.95503,-1.5693 -0.9375,-2.3437 2.4e-4,-0.01 -2.8e-4,-0.021 0,-0.031 0.0822,-0.9308 0.21993,-1.6726 1.375,-2.4687 0.17798,-0.1154 0.39992,-0.2337 0.625,-0.3437 0.53243,-0.2506 0.84023,-0.3912 1.59375,-0.5626 0.40088,-0.093 0.97462,-0.1898 1.53125,-0.2812 1.07019,-0.1736 2.09258,-0.2847 3.0625,-0.4062 0.46748,-0.06 0.92427,-0.1041 1.25,-0.1563 0.3239,-0.051 0.5353,-0.1101 0.71875,-0.1563 0.18081,-0.046 0.35067,-0.092 0.53125,-0.1562 0.17381,-0.063 0.32423,-0.1269 0.46875,-0.1875 z"
       id="path3778"
       style="font-size:medium;font-style:normal;font-variant:normal;font-weight:normal;font-stretch:normal;text-indent:0;text-align:start;text-decoration:none;line-height:normal;letter-spacing:normal;word-spacing:normal;text-transform:none;direction:ltr;block-progression:tb;writing-mode:lr-tb;text-anchor:start;color:#000000;fill:#000000;fill-opacity:1;fill-rule:evenodd;stroke:none;stroke-width:1;marker:none;visibility:visible;display:inline;overflow:visible;enable-background:accumulate;font-family:Acquaintance;-inkscape-font-specification:Acquaintance" />
    <path
       d="m 127.59375,1006.4375 c -1.02714,-0.016 -2.08918,0.1089 -3.0625,0.4063 -0.31828,0.099 -0.66625,0.2359 -1,0.4062 -0.33405,0.1685 -0.65015,0.36 -0.9375,0.5938 l 0,0.031 c -0.66012,0.5668 -1.14797,1.1634 -1.5625,1.7812 l 0.0937,-2.4687 0.0312,-0.5 -0.53125,0 -2.1875,0 -0.5,0 0,0.5 0,20 0,0.5 0.5,0 2.1875,0 0.5,0 0,-0.5 0,-10.375 c -8.6e-4,-0.5427 0.0369,-1.1086 0.125,-1.6563 0.0803,-0.5407 0.28963,-1.2815 0.65625,-2.0624 0.19462,-0.408 0.44003,-0.7917 0.71875,-1.1563 0.53772,-0.694 1.13288,-1.234 1.5625,-1.5 0.6017,-0.392 1.43251,-0.7107 2.0625,-0.7813 0.43032,-0.058 0.85341,-0.095 1.28125,-0.062 l 0.53125,0.062 0,-0.5312 0,-2.1875 0,-0.5 -0.46875,0 z"
       id="path3774"
       style="font-size:medium;font-style:normal;font-variant:normal;font-weight:normal;font-stretch:normal;text-indent:0;text-align:start;text-decoration:none;line-height:normal;letter-spacing:normal;word-spacing:normal;text-transform:none;direction:ltr;block-progression:tb;writing-mode:lr-tb;text-anchor:start;color:#000000;fill:#000000;fill-opacity:1;fill-rule:evenodd;stroke:none;stroke-width:1;marker:none;visibility:visible;display:inline;overflow:visible;enable-background:accumulate;font-family:Acquaintance;-inkscape-font-specification:Acquaintance" />
    <path
       d="m 171.78125,1006.125 c -1.12603,0.065 -2.27724,0.3349 -3.40625,0.875 -0.36946,0.1856 -0.73156,0.4164 -1.0625,0.6562 -0.77712,0.5571 -1.19944,1.2091 -1.625,1.8438 -0.14664,-0.2979 -0.24614,-0.5841 -0.46875,-0.875 -0.25081,-0.3399 -0.52033,-0.6549 -0.84375,-0.9375 -1.15578,-1.0017 -2.45469,-1.3731 -3.6875,-1.5313 -0.96926,-0.1184 -2.13172,-0.042 -3.3125,0.2813 -0.62737,0.176 -1.21761,0.4366 -1.78125,0.75 -0.81711,0.4487 -1.50579,1.0618 -2.1875,1.7813 l 0.0625,-1.7813 0.0312,-0.5 -0.53125,0 -2.0625,0 -0.5,0 0,0.5 0,20 0,0.5 0.5,0 2.21875,0 0.5,0 0,-0.5 0,-12.2187 c 0.0131,-1.077 0.16234,-2.1339 0.8125,-3.2188 0.20492,-0.3424 0.44537,-0.6688 0.71875,-0.9688 0.27176,-0.2984 0.5763,-0.5701 0.90625,-0.8124 l 0,0.031 c 1.44088,-1.0086 3.14644,-1.2562 4.875,-0.6562 0.25014,0.095 0.49654,0.1988 0.71875,0.3437 0.23322,0.1529 0.46735,0.3333 0.65625,0.5313 0.61798,0.6591 0.8424,1.3471 0.9375,2.0937 0.0939,0.7369 0.0333,1.5387 0.0625,2.375 3.8e-4,0.011 -4.1e-4,0.02 0,0.031 l 0,12.4687 0,0.5 0.5,0 2.1875,0 0.5,0 0,-0.5 c 0.005,-4.1389 -0.0257,-8.3028 0,-12.4375 6e-5,-0.01 -7e-5,-0.021 0,-0.031 0.0373,-0.7454 0.14635,-1.6367 0.46875,-2.4688 0.22513,-0.5688 0.57358,-1.1061 1,-1.5625 0.41503,-0.4443 0.94178,-0.8166 1.5,-1.0937 1.57783,-0.7278 3.32835,-0.8711 5.125,0.031 0.20891,0.1152 0.38724,0.252 0.5625,0.4062 0.89279,0.8074 1.03591,1.6578 1.03125,2.625 l 0,14.5313 0,0.5 0.5,0 2.1875,0 0.5,0 0,-0.5 0,-14.4375 c -0.0111,-0.9231 -0.012,-1.8917 -0.4375,-2.9375 -0.23792,-0.561 -0.60487,-1.1116 -1.125,-1.625 -0.85363,-0.8322 -1.80203,-1.3629 -2.75,-1.6563 -1.053,-0.3308 -2.15522,-0.4712 -3.28125,-0.4062 z"
       id="path3770"
       style="font-size:medium;font-style:normal;font-variant:normal;font-weight:normal;font-stretch:normal;text-indent:0;text-align:start;text-decoration:none;line-height:normal;letter-spacing:normal;word-spacing:normal;text-transform:none;direction:ltr;block-progression:tb;writing-mode:lr-tb;text-anchor:start;color:#000000;fill:#000000;fill-opacity:1;fill-rule:evenodd;stroke:none;stroke-width:1;marker:none;visibility:visible;display:inline;overflow:visible;enable-background:accumulate;font-family:Acquaintance;-inkscape-font-specification:Acquaintance" />
    <path
       d="m 17.375,998.90625 0,0.5 0,27.78125 0,0.5 0.5,0 2.4375,0 0.5,0 0,-0.5 0,-11.75 6.375,0 c 0.75921,9e-4 1.519399,-0.052 2.28125,-0.1563 0.984049,-0.1384 1.890901,-0.332 2.78125,-0.7187 0.26573,-0.1136 0.502254,-0.238 0.75,-0.375 l 0.03125,0 c 0.69429,-0.4036 1.328893,-0.8924 1.875,-1.4687 0.544461,-0.5762 0.994973,-1.2347 1.34375,-1.9376 0.985075,-1.9959 0.984629,-4.2429 0.4375,-6.3124 -0.01058,-0.04 0.01102,-0.085 0,-0.125 -0.142457,-0.4737 -0.344392,-0.9728 -0.59375,-1.4376 -0.249522,-0.4623 -0.554538,-0.8837 -0.90625,-1.2812 -0.711769,-0.8018 -1.50668,-1.3638 -2.25,-1.71875 -0.371546,-0.18208 -0.728615,-0.34535 -1.125,-0.46875 -0.397908,-0.12511 -0.831562,-0.20309 -1.3125,-0.28125 -0.983128,-0.16131 -2.169755,-0.25484 -3.28125,-0.25 l -9.34375,0 -0.5,0 z m 3.4375,3.03125 6.53125,0 c 1.254138,0.01 2.51043,0.1688 3.75,0.7187 l 0.03125,0 c 0.282589,0.1355 0.568245,0.3093 0.8125,0.5 0.250639,0.1971 0.462801,0.412 0.65625,0.6563 0.990442,1.3195 1.10438,2.7414 0.90625,4.25 -0.06272,0.3765 -0.173445,0.7366 -0.3125,1.0937 -0.139234,0.3566 -0.305573,0.7067 -0.46875,0.9688 -0.163891,0.2651 -0.304618,0.4546 -0.46875,0.625 -0.662952,0.6939 -1.358323,1.0074 -2.125,1.25 l -0.03125,0 c -0.822913,0.2376 -2.126844,0.4227 -3.21875,0.4062 l -6.0625,0 0,-10.4687 z"
       id="path3804"
       style="font-size:medium;font-style:normal;font-variant:normal;font-weight:normal;font-stretch:normal;text-indent:0;text-align:start;text-decoration:none;line-height:normal;letter-spacing:normal;word-spacing:normal;text-transform:none;direction:ltr;block-progression:tb;writing-mode:lr-tb;text-anchor:start;color:#000000;fill:#000000;fill-opacity:1;fill-rule:evenodd;stroke:none;stroke-width:1;marker:none;visibility:visible;display:inline;overflow:visible;enable-background:accumulate;font-family:Acquaintance;-inkscape-font-specification:Acquaintance" />
    <path
       d="M 66.71875,1006.6875 67,1007.375 l 8.0625,19.7812 c -0.535847,1.2688 -0.978163,2.492 -1.625,3.75 -0.2256,0.3846 -0.764167,0.9471 -1.03125,1.0626 l -0.03125,0 c -0.694135,0.3581 -1.526561,0.193 -2.46875,0 l -0.59375,-0.125 0,0.625 0,2 0,0.4687 0.46875,0.031 c 1.301672,0.075 2.824845,0.1328 4.28125,-0.4688 l 0.03125,0 c 0.253943,-0.1113 0.491438,-0.2432 0.71875,-0.4062 0.488048,-0.3509 0.819882,-0.7966 1.0625,-1.2188 l 0.03125,0 c 0.0035,-0.01 -0.0034,-0.025 0,-0.031 0.378015,-0.6585 0.698667,-1.3208 0.96875,-2 l 9.625,-23.4688 0.28125,-0.6875 -0.75,0 -2.34375,0 -0.34375,0 -0.125,0.3125 -6.4375,16.0312 L 70.375,1007 l -0.125,-0.3125 -0.34375,0 -2.4375,0 -0.75,0 z"
       id="path3787"
       style="font-size:medium;font-style:normal;font-variant:normal;font-weight:normal;font-stretch:normal;text-indent:0;text-align:start;text-decoration:none;line-height:normal;letter-spacing:normal;word-spacing:normal;text-transform:none;direction:ltr;block-progression:tb;writing-mode:lr-tb;text-anchor:start;color:#000000;fill:#000000;fill-opacity:1;fill-rule:evenodd;stroke:none;stroke-width:1;marker:none;visibility:visible;display:inline;overflow:visible;enable-background:accumulate;font-family:Acquaintance;-inkscape-font-specification:Acquaintance" />
    <path
       d="m 101.6875,998.28125 c -1.24756,-0.0336 -2.511969,0.0553 -3.78125,0.28125 -0.819777,0.15545 -1.611726,0.39355 -2.375,0.71875 -0.763935,0.3255 -1.501876,0.72255 -2.15625,1.21875 -0.654693,0.4976 -1.242198,1.0836 -1.75,1.7188 -0.541675,0.6381 -0.997889,1.3072 -1.40625,2.0312 -0.409869,0.7245 -0.773802,1.4961 -1.03125,2.2812 -0.802724,2.4825 -0.809886,5.2181 -0.78125,7.8438 0.06998,2.3118 0.25616,4.6821 1.25,7.0938 l 0,0.031 c 0.289303,0.662 0.660373,1.2935 1.125,1.9375 0.489584,0.7012 1.041251,1.3632 1.6875,1.9375 0.644751,0.574 1.358773,1.0831 2.125,1.5 2.109546,1.1599 4.472067,1.5104 6.71875,1.4375 1.49935,-0.033 3.06266,-0.3285 4.5625,-0.9375 1.07122,-0.4478 2.06288,-0.9653 3.09375,-1.875 0.33991,-0.2978 0.56087,-0.6239 0.84375,-0.9375 l 0,2.8125 0,0.5 0.5,0 2.15625,0.031 0.5,0 0,-0.5 -0.0312,-13.625 0,-0.5 -0.5,0 -10.59375,0 -0.5,0 0,0.5 -0.0312,2 0,0.5 0.5,0 7.9375,0 c -0.0227,0.9177 -0.0841,1.8344 -0.28125,2.75 -0.11546,0.5357 -0.25546,1.0802 -0.40625,1.5313 -0.14945,0.4506 -0.3128,0.8029 -0.5,1.1563 -0.1872,0.3534 -0.40701,0.7119 -0.65625,1.0312 -0.25089,0.3187 -0.5098,0.6019 -0.8125,0.875 -0.64296,0.5548 -1.3732,1.0199 -2.15625,1.375 -1.54453,0.7101 -3.34704,0.9693 -5.0625,0.75 -0.850564,-0.1066 -1.675977,-0.3304 -2.4375,-0.6562 -0.762788,-0.3262 -1.46903,-0.7535 -2.09375,-1.2813 -0.624196,-0.5262 -1.164524,-1.1346 -1.59375,-1.8125 l 0,-0.031 c -0.894168,-1.3602 -1.18761,-3.0034 -1.46875,-4.6563 -0.0015,-0.01 0.0015,-0.021 0,-0.031 -0.358946,-2.4246 -0.407724,-4.8636 -0.125,-7.3124 0.190659,-1.4314 0.551697,-2.8933 1.125,-4.3126 0.0039,-0.01 -0.0039,-0.022 0,-0.031 0.294755,-0.7038 0.72139,-1.3736 1.21875,-1.9688 0.5037,-0.6023 1.111935,-1.1268 1.78125,-1.5624 1.710134,-1.1127 3.706286,-1.5142 5.65625,-1.3126 1.66327,0.1616 3.31611,0.4108 4.96875,1.5626 0.0125,0.01 0.0187,0.022 0.0312,0.031 1.54991,1.3929 2.08984,2.8447 2.3125,4.3438 0.049,0.3597 0.0649,0.7317 0.0625,1.0937 l 0,0.5 0.5,0 2.65625,0 0.5,0 0,-0.5313 c -0.017,-0.7395 -0.12228,-1.4685 -0.3125,-2.1874 -0.18883,-0.7186 -0.46023,-1.4033 -0.8125,-2.0626 -0.35213,-0.6601 -0.78273,-1.2758 -1.28125,-1.8437 l 0,-0.031 -0.0312,0 c -0.45976,-0.4714 -0.95531,-0.9025 -1.5,-1.2812 -1.14387,-0.79674 -2.37669,-1.31998 -3.625,-1.625 l -0.0312,0 c -1.21667,-0.26636 -2.43994,-0.43515 -3.6875,-0.46875 l -1.5e-4,-4e-4 z"
       id="path30"
       style="font-size:medium;font-style:normal;font-variant:normal;font-weight:normal;font-stretch:normal;text-indent:0;text-align:start;text-decoration:none;line-height:normal;letter-spacing:normal;word-spacing:normal;text-transform:none;direction:ltr;block-progression:tb;writing-mode:lr-tb;text-anchor:start;color:#000000;fill:#000000;fill-opacity:1;fill-rule:evenodd;stroke:none;stroke-width:1;marker:none;visibility:visible;display:inline;overflow:visible;enable-background:accumulate;font-family:Acquaintance;-inkscape-font-specification:Acquaintance" />
    <path
       d="m 61.6875,998.90625 0,0.5 0,27.78125 0.5,0 0,0.5 2.1875,0 0.5,0 0,-0.5 0,-27.78125 0,-0.5 -0.5,0 -2.1875,0 -0.5,0 z"
       id="path3783"
       style="font-size:medium;font-style:normal;font-variant:normal;font-weight:normal;font-stretch:normal;text-indent:0;text-align:start;text-decoration:none;line-height:normal;letter-spacing:normal;word-spacing:normal;text-transform:none;direction:ltr;block-progression:tb;writing-mode:lr-tb;text-anchor:start;color:#000000;fill:#000000;fill-opacity:1;fill-rule:evenodd;stroke:none;stroke-width:1;marker:none;visibility:visible;display:inline;overflow:visible;enable-background:accumulate;font-family:Acquaintance;-inkscape-font-specification:Acquaintance" />
    <path
       d="m 48.875,1005.75 c -1.119923,0.021 -2.562767,0.2411 -3.875,0.8125 -0.625702,0.2643 -1.222362,0.5743 -1.78125,0.9687 -0.55859,0.3945 -1.074086,0.8673 -1.53125,1.375 -0.457397,0.5081 -0.858689,1.0656 -1.1875,1.6563 -0.330085,0.5909 -0.580444,1.2311 -0.8125,2.0625 -0.233262,0.8299 -0.432372,1.8526 -0.53125,2.9062 -0.100202,1.0541 -0.08277,2.1063 0.03125,3.1563 0.114055,1.0515 0.311956,2.1117 0.625,3.0625 0.312791,0.9513 0.732931,1.8087 1.28125,2.5938 0.547975,0.7843 1.222103,1.4835 2,2.0624 0.777815,0.5789 1.637532,1.0318 2.46875,1.3438 1.639072,0.6056 3.210158,0.719 4.78125,0.5938 0.788464,-0.073 1.589525,-0.222 2.40625,-0.5 0.814811,-0.2766 1.639899,-0.6995 2.40625,-1.2188 0.76634,-0.518 1.469987,-1.1238 2.03125,-1.8438 0.558721,-0.7212 0.964268,-1.5235 1.25,-2.1562 0.543382,-1.2344 0.69126,-2.0766 0.84375,-3.0312 0.06754,-0.4872 0.08739,-0.9841 0.09375,-1.625 0.0037,-0.6421 -0.02395,-1.4543 -0.09375,-2.25 -0.06694,-0.7623 -0.160931,-1.4874 -0.28125,-2.125 l 0,-0.063 0,-0.031 c -0.128242,-0.654 -0.278419,-1.1838 -0.46875,-1.6875 -0.189055,-0.5037 -0.444945,-1.0022 -0.71875,-1.4687 -0.274314,-0.4675 -0.579563,-0.9054 -0.90625,-1.3126 -0.326257,-0.4076 -0.666539,-0.7757 -1.0625,-1.125 -1.66734,-1.4742 -3.731542,-1.9011 -5.46875,-2.0937 -0.454316,-0.046 -0.929101,-0.077 -1.5,-0.062 z m 0,2.5625 c 0.618232,-0.024 1.126891,-0.029 1.8125,0.062 0.345705,0.048 0.750956,0.12 1.125,0.25 0.375456,0.1291 0.735083,0.3109 1.0625,0.5312 0.327341,0.2215 0.620209,0.4941 0.90625,0.8126 0.284646,0.3169 0.547627,0.6997 0.78125,1.0937 0.234224,0.3962 0.439545,0.7927 0.59375,1.2187 0.153333,0.428 0.274232,0.8724 0.375,1.5 0.101902,0.6264 0.162519,1.4328 0.21875,2.25 0.05503,0.8156 0.07589,1.6549 0.0625,2.3126 -0.01319,0.6568 -0.03881,1.1345 -0.125,1.625 -0.08728,0.4892 -0.214594,0.9591 -0.375,1.4374 l 0,0.031 c -0.297945,0.9226 -0.860487,1.9208 -1.78125,2.7813 -0.450152,0.4128 -0.991349,0.7707 -1.5625,1.0312 -0.578686,0.265 -1.191346,0.4496 -1.90625,0.5312 -0.716145,0.081 -1.522509,0.067 -2.28125,-0.094 -0.758264,-0.1602 -1.482913,-0.4528 -2.125,-0.875 -0.641994,-0.4221 -1.178748,-0.9832 -1.59375,-1.5937 -0.414924,-0.6106 -0.70795,-1.2963 -0.90625,-1.9688 -0.199502,-0.6727 -0.328701,-1.322 -0.40625,-1.9688 -0.160984,-1.2503 -0.13477,-2.6681 -0.03125,-3.75 0.0474,-0.5362 0.116482,-0.961 0.1875,-1.375 0.071,-0.4124 0.149183,-0.8058 0.25,-1.2187 l 0,-0.031 c 0.238351,-1.1209 0.809592,-2.3066 1.96875,-3.25 0.349028,-0.2818 0.739315,-0.5274 1.03125,-0.6874 0.292756,-0.1604 0.461729,-0.2135 0.65625,-0.2813 l 0,-0.031 c 0.625253,-0.2223 1.277751,-0.2964 2.0625,-0.3437 z"
       id="path3795"
       style="font-size:medium;font-style:normal;font-variant:normal;font-weight:normal;font-stretch:normal;text-indent:0;text-align:start;text-decoration:none;line-height:normal;letter-spacing:normal;word-spacing:normal;text-transform:none;direction:ltr;block-progression:tb;writing-mode:lr-tb;text-anchor:start;color:#000000;fill:#000000;fill-opacity:1;fill-rule:evenodd;stroke:none;stroke-width:1;marker:none;visibility:visible;display:inline;overflow:visible;enable-background:accumulate;font-family:Acquaintance;-inkscape-font-specification:Acquaintance" />
    <rect
       width="185.87639"
       height="4"
       x="6"
       y="1042.3622"
       id="rect2917"
       style="fill:#ff0000;fill-opacity:1;stroke:none" />
  </g>
</svg>
