<?xml version="1.0" encoding="utf-8"?>
<!-- Generator: Adobe Illustrator 22.0.0, SVG Export Plug-In . SVG Version: 6.00 Build 0)  -->
<svg version="1.1" id="Layer_2" xmlns="http://www.w3.org/2000/svg" xmlns:xlink="http://www.w3.org/1999/xlink" x="0px" y="0px"
	 viewBox="0 0 404 108.1" style="enable-background:new 0 0 404 108.1;" xml:space="preserve">
<g>
	<path d="M322.3,82.6c0,0,0-0.1-0.1-0.1"/>
	<path d="M304.9,75.9"/>
	<path d="M41,0C18.4,0,0.1,18.5,0,41c0,0,0,58.8,0,61.6c0,3.4,2.7,5.4,7.2,5.4c4.9,0,7.6-1.8,7.6-5.4c0-1.9,0-27.3,0-27.3l-0.3-3.4
		c0.6,0.5,1.5,1.5,2,1.9C23.4,78.9,31.8,82,41,82c22.6,0,41-18.3,41-41C81.9,18.4,63.6,0,41,0z M41,67.1
		c-14.4,0-26.1-11.7-26.1-26.1c0-14.4,11.7-26.1,26.1-26.1c14.4,0,26.1,11.7,26.1,26.1C67.1,55.3,55.4,67.1,41,67.1z"/>
	<path d="M323.7,71l-1.3,0.1c0-0.1,0.5-1.1,0.7-1.4c2.8-6.5,8.3-10.9,16.8-11.1c8.8-0.1,15,5,16.8,11c0.2,0.4,0.4,1.1,0.6,1.5
		l-1.2-0.1H323.7z M322.2,82.7c0,0,0-0.1,0-0.1 M323.5,82.6h40.6c3.2,0.1,6.8-1.9,6.7-6c-0.4-16.9-14.1-30.7-31.1-30.7
		c-17.1,0-31.1,13.9-31.1,31.1c0,17.1,14,30.9,31.1,31c15.9,0.1,22.8-6.2,26.7-12.7c0.9-1.8,1.4-4.8-1.5-6.9c-3.4-2.4-7-1.3-9,0.9
		c-4.5,4.8-8.5,6.5-16.2,6.4c-7.5-0.1-14-4.8-16.8-11.2c-0.1-0.2-0.2-0.5-0.3-0.7c-0.1-0.3-0.5-0.8-0.7-1.2L323.5,82.6z"/>
	<path d="M139.8,27c5.2,0,6.8-2.9,6.6-5c-0.9-13.3-12.9-22-29.2-21.9c-8.5,0-16.2,3-21.5,8.3c-5.2,5.2-8,12.5-7.9,20.8
		c0.1,14.7,10.7,27.4,28.5,29.2c16.3,1.8,22.6,7.9,22.6,17.2c0,12.5-8.8,17.6-21.9,17.6c-12.1,0-20.3-7.2-20.8-18
		c0,0-0.1-3.8-4.5-4.7c-2.7-0.6-5-0.4-7,0.2c-3.8,1.1-3.6,4.7-3.6,4.7c0.3,18.3,13.2,32.6,35.8,32.7c21,0.1,36.5-11.2,36.5-32.7
		c0-21-13.2-29-35.7-32c-10-1.3-15.2-6.7-15.2-14.3c0-4.3,1.2-7.8,3.6-10.2c2.5-2.5,6.4-3.9,10.9-3.9c8.4,0,12.7,3.4,14,7
		C131.8,23.5,133,27,139.8,27z"/>
	<path d="M204.9,108c17.1,0,31.1-13.9,31.1-31c0-17.2-14-31.1-31.1-31.1c-17.1,0-31.1,13.9-31.1,31.1
		C173.9,94.1,187.8,108,204.9,108z M186.5,77c0-10.2,8.2-18.5,18.4-18.5c10.2,0,18.4,8.3,18.4,18.5c0,10.1-8.2,18.4-18.4,18.4
		C194.8,95.4,186.5,87.1,186.5,77z"/>
	<path d="M247.7,108c3.7,0,6.3-1.8,6.3-5c0-2.1,0-25.9,0-25.9c0-10.2,8.2-18.5,18.4-18.5c10.2,0,18.5,8.3,18.5,18.5v26
		c0,3,2.5,5,6.2,5c4,0,6.4-1.8,6.4-5c0-0.5,0-26,0-26c0-17.2-13.9-31.2-31.1-31.2c-17.1,0-31,13.9-31,31.2c0,0,0,24.1,0,26
		C241.4,106.2,243.7,108,247.7,108z"/>
</g>
<g>
	<path d="M393.8,105.7c-4.8,0-8.7-3.9-8.7-8.7c0-4.8,3.9-8.7,8.7-8.7c4.8,0,8.7,3.9,8.7,8.7C402.5,101.8,398.6,105.7,393.8,105.7
		v1.6c5.7,0,10.2-4.6,10.2-10.2c0-5.7-4.6-10.2-10.2-10.2c-5.7,0-10.2,4.6-10.2,10.2c0,5.7,4.6,10.2,10.2,10.2V105.7z"/>
	<path d="M397.5,97.2c-0.1,0.1-0.1,0.3,0,0.3c0.8,0.5,1,1.4,1,2.8c0,1.6,0.2,2.6,0.8,3l-2.1,0c-0.2-0.4-0.6-1-0.6-1.6
		c0-1.4,0.1-3.8-2.4-3.6h-3.5v-1.6h4c1.1,0,2.4-0.3,2.4-2c0-1.8-1.2-2.1-2.4-2.1h-3.9v11h-1.8V90.7h5.7c1.9-0.1,4.4,0.6,4.4,3.5
		C399.1,95.7,398.5,96.5,397.5,97.2"/>
</g>
</svg>
