<?xml version="1.0" encoding="utf-8"?>
<!-- Generator: Adobe Illustrator 16.0.0, SVG Export Plug-In . SVG Version: 6.00 Build 0)  -->
<!DOCTYPE svg PUBLIC "-//W3C//DTD SVG 1.1//EN" "http://www.w3.org/Graphics/SVG/1.1/DTD/svg11.dtd">
<svg version="1.1" id="Layer_1" xmlns="http://www.w3.org/2000/svg" xmlns:xlink="http://www.w3.org/1999/xlink" x="0px" y="0px"
	 width="586.309px" height="1000px" viewBox="0 0 586.309 1000" enable-background="new 0 0 586.309 1000" xml:space="preserve">
<g>
	<rect x="3.762" y="3.762" fill="#231F20" width="513.051" height="992.476"/>
	<path fill="#FFFFFF" d="M520.575,1000H0V0h520.575V1000z M7.523,992.475h505.529V7.523H7.523V992.475z"/>
	<polyline fill="#FFFFFF" points="486.868,737.257 486.868,37.98 35.061,37.98 35.02,737.257 486.868,737.257 	"/>
	<path fill="#E0393E" d="M215.585,38.063c1.521,2.29,3.306,6.508,3.957,8.943l-3.81-0.628l-3.475-3.024
		c-2.13-0.63-3.789,4.409-4.22,0C207.712,38.945,212.551,38.273,215.585,38.063"/>
	<path fill="#E0393E" d="M236.283,38.063c-0.146,2.017-2.509,3.443-3.757,3.905c-1.984,0.629-0.903,3.317-2.131,4.409l-1.785-1.533
		l-0.923-6.781H236.283"/>
	<path fill="#E0393E" d="M252.667,38.063c1.932,2.017-0.326,6.508,1.05,8.775c0,2.415-3.054,1.658-4.409,1.974l-2.708-1.806
		l-0.744-2.896c-1.701,0.461-3.034,2.728-5.018,2.728c-1.806-3.652,2.728-6.486,4.565-8.103
		C247.356,37.476,250.212,38.273,252.667,38.063"/>
	<polyline fill="#E0393E" points="268.832,38.063 267.309,41.044 264.591,38.063 268.832,38.063 	"/>
	<path fill="#E0393E" d="M282.907,38.063l-1.848,1.365l-1.333,4.051l2.435,3.359l2.257-0.755c2.404,3.17-1.806,10.034,4.083,10.35
		c0.147-1.68,3.485-1.24,1.973-3.211l-3.348-3.654c-1.007-4.408,2.583-7.81,3.82-11.504h15.849l-4.816,5.584
		c1.353,1.513-0.348,5.794,3.033,5.165c3.306-1.806,1.951-8.65,7.221-6.656c1.05-0.188,1.973-1.237,2.446-4.135h76.38
		c-0.609,2.729-1.049,3.652-0.756,4.702l4.84,1.387l1.07-3.359l-0.944-2.771h15.606c-0.598,2.014,1.827,5.667-0.598,6.864
		l1.229,0.651l4.514-0.462l-1.659-6.592V37.98h12.532c-1.051,1.846,2.277,5.667-0.304,6.297l-3.757,2.267l0.146,1.679
		c1.982,0,3.484-0.777,5.594-0.293c0.293,1.973,3.023,3.778,1.219,5.752l1.205,2.267c1.973,0.335,3.201-2.12,5.164-2.12l0.872-2.583
		l-2.55-2.435l-1.355,0.336l-0.629-3.652l3.789-0.462c2.604,0.735,3.631,5.793,6.832,3.652l3.633,3.611
		c0.158,2.287-2.278,0.924-3.369,1.678c-1.471,1.217-4.22,1.513-4.672,3.527l1.942,2.729l-2.257,3.022
		c0.767,3.045,5.133,1.513,6.381,4.409l2.133-1.678c-0.348-2.563-0.632-5.626,1.479-7.138l3.328,1.68l0.156,2.603
		c2.552,1.806,4.378,4.534,7.568,5.164c1.028,1.617,4.555,2.729,2.729,4.703l-3.464-0.483c-2.277,0.944-1.826,4.891-4.837,3.652
		c-1.828-2.875-5.176-1.49-7.465-3.338l-3.453,2.141l0.293,0.924c1.965-0.461,3.666-0.755,5.598-0.293
		c1.993,1.049-0.148,4.659,3.031,4.366l1.996,2.141c-0.168,2.31-3.35,2.604-2.877,4.996l1.805,2.183l4.23-2.288
		c1.963,0.441,3.936,2.121,5.889,1.071v-3.652c-1.354-0.755-3.181,1.805-4.084-0.294l1.082-4.577l3.432-2.896l4.283,0.923
		c1.826-1.848,3.916-3.484,4.041-6.088l1.375-0.209l2.277,2.016l2.109-0.462l4.557-1.637c1.185,4.87-1.229,8.775-3.633,12.47
		l-2.886-1.722l-0.599-4.996l-0.903-0.168l-1.501,3.695c-0.157,1.952-3.359,4.241-0.629,5.751l2.256,0.462v2.121
		c-0.746,1.678-2.131,3.211-1.48,5.186l0.904,3.358c-1.051,1.805-3.736,3.002-2.361,5.605l1.353,3.043l3.003,0.566l2.13,3.549
		c0.45,1.344-2.276,3.148,0.45,3.631c1.554,0.315,2.604-3.526,3.959-0.754l0.619,1.532c-0.619,2.729,1.313,4.996,1.059,7.892
		l-2.277,0.273l-0.472,3.652c0.472,1.365,2.835-0.355,5.846,1.849v12.28c-3.59-1.533-5.699-0.734-6.749-1.805l-2.131-0.609
		l-2.088,4.556c-0.147,2.477,5.594,3.063,2.541,5.962l-1.207,2.267l-1.826,1.26l-4.798,1.511l-0.618,1.806l4.533,1.049l4.104-1.974
		l1.49-2.267l2.121,1.385l-0.295,3.947c-1.658,2.099-4.711,1.805-6.664,3.358l1.375,2.205c-0.903,2.793-4.713,5.101-2.887,8.25
		c2.707,1.344,5.448,2.729,8.176,4.115c0,3.652-4.859,2.708-7.115,4.366c0.578,1.848,2.708,3.191,4.681,3.191
		c1.784,1.26-0.126,4.45,2.435,5.038l1.648,4.282c-0.881,2.078-5.395-0.335-5.668,1.848c0.273,4.639-4.838,7.137-3.915,11.797
		l-2.581,1.555l-4.231-3.359c-1.679,1.385-3.358,4.429-5.939,3.191l-3.327-1.387l-2.404,3.821c0.168,2.141,5.605,4.113,1.668,5.794
		l1.061,1.343c3.507-0.148,4.105-5.291,7.863-3.317l3.158-0.798l0.777,2.772l-2.992,1.846l1.186,0.126
		c0.474,1.344-3.033,2.834-0.576,3.317l1.332,3.525c1.376,1.323,3.181,2.563,2.426,4.704c0,3.358-3.611,2.729-5.438,4.157
		l0.924,3.253l3.014,0.482l-1.208,3.527l-0.903,1.974c-0.756,2.688-0.62,5.563-0.62,8.479c-1.353,1.26-4.534,0.336-4.239,3.066
		l0.881,0.44l0.945-0.651l3.316,1.26l-0.283,3.064c-0.473,2.27,0,4.389,1.186,6.215l4.084-1.681c1.5,3.192-1.658,5.754-3.158,7.916
		c-1.828-0.148-2.438-3.043-4.715-2.162l-1.826,1.678l-1.479,0.335l-4.986,1.175l1.177,4.577l3.956,3.214
		c0.608,3.041-3.484,2.728-3.652,5.456h0.925l1.805,2.875l-1.176,2.898c-2.762-0.293-5.489,1.09-7.611,2.603l1.219,2.56
		c-0.273,2.415-4.104,4.577-0.923,6.718l4.429-1.049l1.186,4.409c0.315,2.245,3.224,0.586,3.653,2.728
		c-0.305,1.806-0.65,3.925-2.729,4.702l-0.608,6.215l0.757,1.846l3.336,1.511l-2.151,4.577v0.881l-2.581,2.478l-1.932,1.448
		l-4.084,0.19l-3.484,1.974l-1.049,4.281l-2.289,3.191l0.158,3.925c1.354,0.609,2.277,3.043,4.209,1.826
		c0.924,2.31-1.029,3.82-2.404,5.311l-3.316-0.441c-3.779,0.757-1.805,5.962-6.057,5.501l-0.608,3.777l-2.55,2.267l0.576,4.745
		l2.582-1.678c-1.029-3.191,2.855-1.849,4.555-2.142c4.083,0.754-0.146,6.551,3.612,7.433l-1.188,3.524
		c-1.669,1.03-2.728,4.409-5.301,2.876l-2.287,1.701l1.364,4.682l-2.236,1.237l0.127,2.373l-2.436,2.33
		c-0.126,2.73,1.963,5.501,0.179,7.893l-1.397,3.172l-1.961-0.569c-1.176,2.435-0.881,5.501-0.273,8.061
		c-0.607,2.1-0.473,4.409-2.256,5.899l-4.86,1.365l-1.658-1.806c-1.228,1.05-3.202-0.754-3.632,1.217
		c-0.451,2.729-2.75,5.752-0.902,8.062c1.186,1.681,4.534,1.217,3.609,3.988l-0.303,1.302l-2.121,0.188
		c-1.354,1.197-1.039,4.264-3.747,3.507c-1.218,0.862,0.137,4.239-2.772,2.708l-0.125-0.756l-1.227-0.148
		c-1.502,1.513-4.797,2.563-3.938,5.626l1.512,1.658c-1.963,1.701-1.332,4.409-1.164,6.528l3.011,0.8l-0.776,4.221
		c-2.582-3.487-3.326,2.119-5.887,1.804l-0.579,3.379l1.48,2.773l-1.228,2.393l-2.707,2.287c1.658,1.638,4.082,0.882,5.887,2.918
		c1.354,1.05,3.181-1.385,4.082,1.05l-0.272,3.82c-4.86,0.714-10.149,9.068-14.4,2.688c0.147-1.974,0.62-3.948-0.282-5.751
		l-1.659-0.464c-2.278,1.806,0.452,5.919-2.278,6.844l-2.383,0.44c-1.375,1.533,1.438,6.696-2.602,5.312h-1.208
		c-0.146,1.26-1.05,3.99,1.208,3.819c1.678,2.583,1.826,6.067,3.484,8.798l-2.729-0.272c-2.75-1.408-3.339-5.501-6.971-4.094
		l-2.424,1.195c0.472,2.099,3.021,3.486,2.581,5.626l0.599,2.603l-3.463,2.856l0.146,2.876l-3.327,0.776l-1.071-1.05l-1.354,4.682
		l0.148,1.405l-2.563,0.128c-1.501-3.484-4.703-1.175-7.242-1.175l-1.994,4.534c0.902,1.678,4.083,2.728,2.444,5.163
		c-1.069,1.658-3.673,1.974-3.673,4.386c-1.48,1.408-2.561,2.919-2.707,5.208l1.091,3.652l-2.298,1.365
		c-0.6-1.974-3.16-1.239-4.703-1.849c-3.014,1.386-1.332,6.824-5.898,6.255l0.934,1.682h0.441c-2.258,1.049-4.682,1.049-7.285,1.385
		l-2.119,0.419l-2.54,1.388l-2.866-3.191l-0.943,0.293l-0.254-0.609c-2.455,0-6.087-1.071-7.116,1.932
		c0.452,3.38,4.515,2.458,6.791,3.841l1.952,1.217c-2.12,1.849-6.813,0.148-6.813,4.284h-3.01l-1.355-3.231l-3.327,1.803
		l0.925,3.823l1.332,1.511l-1.049,0.796c-0.758,2.079-3.938,2.729-2.73,5.606c-5.447,1.531-12.08,0.882-16.038,5.459l0.147,4.765
		c-0.147,2.244,0.146,5.163-2.383,6.508c-3.979-1.849-4.713,6.485-8.188,1.972c-3.462,0-6.842-1.218-10.149-0.461l-1.963,3.945
		l-3.18,0.463l-1.826,3.023l-3.433-1.492l-5.468-0.441l-1.07,2.73c0.451,2.561,2.583,4.534,3.463,7.137
		c1.847,1.682,3.957-3.086,5.585,0.168c2.749,0,4.281,2.688,6.832,3.001l-0.62,2.751c-2.687,0.168-6.056,4.115-8.292,0.589
		l-2.739-0.293l-3.654,1.362c-0.724-2.244,0.946-6.36-2.077-7.41l-3.958,3.316l-0.882,2.604c-2.886,0.128-6.067,0.128-8.019-2.162
		l-1.5,3.211l2.234,3.652l-2.582,3.487l-1.479,0.629c-2.132-0.336-0.158-3.191-2.435-2.603l-1.974,3.337
		c-0.735,3.652,7.263,4.892,2.875,8.712c0.902,1.807-2.089,4.808,1.07,5.752l-1.972,2.54c-3.034-1.027-4.703,2.162-6.939,3.527
		c0.902,1.806,6.183,0,3.905,3.652l-3.905,1.806c-1.102,2.729,2.079,4.89,2.55,7.62l-1.952,1.972l-2.729-0.754
		c-1.103,2.142,1.028,4.406,0.146,7.012v3.191c0.148,1.511,0.577,3.652-1.375,4.406l-5.269-0.984l1.208,3.524l2.277,0.19
		c1.333,1.847,3.307,3.609,3.484,5.584c1.5,3.968,6.172-2.268,5.563,3.211c-1.974,1.408-4.231,2.455-6.488,3.212
		c-2.886,3.925,4.818,5.626,4.209,9.403l-1.028,1.85l-2.005,0.733c1.249,2.458,1.555,6.528,5.039,6.864
		c-1.229,5.165-7.894,9.133-5.291,15.032c4.534,3.357,5.563,8.628,9.93,11.754l0.639,2.688c-1.07,1.195-2.277,3.652-4.534,3.044
		l-0.471,8.943l-1.605-0.105l-16.69,0.105c1.984,0.483,0.755-6.36,1.637-7.137c1.102-2.247,3.79-4.051,3.79-6.656
		c-0.567-1.679-4.221-0.882-2.394-3.484l0.776-4.912l-3.81-1.639l-4.534,1.45c-0.294-2.688,5.143-4.179,1.805-6.445l1.964-3.191
		l-1.786-4.744l-3.83,1.092l-0.431,5.922l-4.083,2.077c-1.375-1.448-3.652-3.129-2.402-5.604l1.5-4.534l-2.856-0.651l-4.24,1.573
		c0.43-3.987-6.813-8.271-0.767-10.831v-3.485l-2.435-0.588l-0.755,2.435l-1.5-1.847l0.283-3.779
		c2.299-0.649,1.521-3.212,3.179-4.449c-0.88-1.533-1.511-3.337-1.784-5.291c2.54-0.797,3.779-3.527,4.208-5.939l-3.179-3.925
		l-1.523,0.882l0.619,3.484c-2.686,1.804-4.061-1.175-6.014-2.29l-0.798-3.524l3.034-2.961c1.522-3.191,1.668-7.475,5.291-8.985
		c1.668-1.343-0.463-4.409,2.014-5.331l-3.379-3.379l-3.652,1.405l-0.556,2.435c-1.953-0.461-4.083-2.603-4.986-4.534
		c0.252-1.385-0.798-3.843,1.354-4.281c1.186-1.513,0.734-3.654,1.029-5.626c-1.628-2.605-6.194-2.435-5.585-6.215l5.006-1.554
		c-1.805-2.728-5.888-4.701-4.86-8.061l2.708-0.714c-0.882-2.478,0-5.226-2.277-6.906c-3.139-0.441-2.235,3.526-4.062,4.892
		l-1.785,0.629l-0.188-4.409c2.749-1.846,1.826-7.432,6.224-6.087l3.19,1.807l3.182-3.047c0.125-2.58-0.474-5.771,1.479-7.577
		l-1.354-2.561c-2.257,0.23-3.159,3.758-5.594,3.316c0.303-2.898,1.784-5.626,1.343-8.814c1.994-2.438,6.551,0.586,7.433-2.773
		c-0.579-2.287,0.754-5.771-1.701-7.43l-1.763-1.346c-0.316-2.139,2.415-1.573,3.316-2.896c0.431-2.162,3.779,0.398,3.61-2.268
		l0.904-2.582c2.297-1.533,5.174-1.701,7.568-0.168c1.668-0.147,3.955,0.566,5.027-1.826l-0.168-1.218
		c-1.984-1.849-4.094-2.289-6.498-2.73l-0.493-3.817h-2.234l-0.148-1.639c2.121-2.603,6.035-1.513,7.841-4.408l-1.659-1.093
		c0.609-2.435,3.191-3.945,3.485-6.402l2.435-2.245c0.431-2.329,0.148-4.451-0.924-6.257c-1.636,1.092-3.935,1.239-5.898,0.924
		l2.11-3.484l2.455,1.343c4.356-1.679,1.008-7.598,5.416-8.69l1.669,2.162l3.937,0.483c1.491-2.162,5.311-3.086,4.083-6.613
		c-1.05-1.806-5.438-0.694-3.78-4.176c2.583-2.478,7.715-1.093,8.618-5.333l3.769,1.322c2.141-0.799,3.821,1.405,5.457-0.273
		c1.218-0.924,1.05-3.023,3.004-3.023l1.405-0.754l-1.249-2.164l-2.687-1.53v-4.241l1.805-0.757l3.18-1.533l-0.167-1.846
		c2.425-0.148,4.85,4.765,6.959,1.239l1.228-2.875c2.11,0,5.133,0.879,6.34-1.997l0.125-1.343l-2.382-1.239l1.05-2.729l-2.12-3.8
		l-1.806-1.343c-2.435-2.603-7.4-4.87-5.447-9.174c1.334-2.56,4.819-3.757,4.671-6.613l0.924-2.329
		c2.603-0.925,4.985,1.658,7.41,0.818c-0.293-1.553-1.806-3.422,0.431-4.155c2.435-1.072,6.844,1.05,8.963-1.849l-1.217-2.436
		l3.925-2.392c-0.146-3.527-4.534-4.998-3.925-8.65l3.925-2.014c0.483-2.142-1.648-6.383,1.963-7.475
		c2.729-1.468,4.104,4.745,6.34,1.428c-1.48-2.034-4.513-3.715-3.937-6.403c-0.125-2.162,2.152-2.876,2.603-4.89
		c1.187-2.898,1.187-6.969,5.143-7.894l0.441-2.267c-1.175-0.461-3.652,1.974-4.061-0.588v-4.114l4.061-1.26
		c0-1.932-2.875-1.491-3.305-3.612l-0.944-1.972l1.826-2.771l-1.479-4.702c-2.436-0.128-5.764-0.777-6.97-3.024l-0.168-1.806
		c3.328-0.167,2.854-4.283,5.006-5.962l-1.826-1.804c-3.18-1.092-2.886,4.87-6.34,2.876c-0.156-3.652-1.375-8.545,1.953-10.644
		l1.375-0.315c-0.472-1.826-2.446-3.043-1.522-5.331l-2.562-1.198c-2.875,2.435-5.311-1.405-8.04-1.51l-0.724-3.191l1.932-3.485
		l-2.394-1.553c-1.826,1.846-2.424,5.331-5.584,4.113l-1.827-3.485h-0.922c-1.229,1.218,0.451,3.948-1.806,4.409l-1.848,2.896
		l-1.491-1.678c-0.294-1.678,0.903-4.577-1.071-5.626c-4.386,1.639-3.757,7.305-4.513,11.42l1.206,1.343
		c-2.277,0.714-5.919,1.806-8.323,0.128l0.735-1.345c-1.06-1.237-0.158-4.722-2.708-3.945c-1.659,1.951-3.182,4.554-5.919,4.702
		c-1.806-0.293-3.906,0.859-4.662-1.092c-1.07-2.54,1.638-2.099,2.856-2.392c2.729,0,3.81-3.191,6.822-2.73
		c4.397-1.553,9.394-4.722,10.443-9.74c2.111-1.513,4.681,0.293,7.076,0.461l2.152-1.846l0.272-1.974l2.749,0.441l0.882-1.491
		l-1.784-2.728l-0.767-3.527l-3.19-0.127l-2.981,2.099c-3.654-0.293-1.396-5.015-4.86-5.456l-3.654-2.29l1.523-2.875l2.414-1.847
		l-0.882-4.702l-2.005-0.756l-1.05,3.359c-3.032,1.218-6.495,1.218-9.351-0.167c-2.456-1.072-0.326-2.751,0.251-4.116
		c-0.251-1.678,1.081-3.652-1.333-4.406v-3.487l-0.146-3.146v-2.605l-4.409,0.882l-4.062-3.191c-2.854,0.631-1.973,5.458-5.29,4.682
		c-1.827-1.951-4.682-3.63-5.007-6.212c-1.522-1.323-3.485-2.876-3.485-5.143c-2.257,1.488-6.182,1.047-8.912,1.047
		c-1.374-1.047-1.941-0.481-3.894-0.481c-1.846,0.882-1.375,3.336-3.484,4.218l-2.876-1.343l-1.375-2.267l-2.277,4.409
		c0.767,1.323,3.799,0.754,2.57,3.043l-3.179,2.918h-1.208c-1.5-1.911,2.287-3.863,0-5.08c-2.099,0.167-4.682-2.057-6.508-2.521
		c0.326-2.457-2.886-3.652-1.701-6.255c2.152-0.295,4.409-0.125,6.088,1.385c2.551-1.51,0.146-7.011,4.377-6.676l1.343-0.335
		c1.994-0.714,3.652-2.12,5.301-3.212c-0.578-2.875-4.062-1.678-6.34-2.875c0.609-1.533,3.034-0.421,3.182-2.458
		c-2.751-1.491-5.008,2.037-8.042,1.115l-0.145-5.166c1.521-1.513,3.652-2.896,4.407-4.995c-3.937-2.142-8.145-0.295-11.629,1.636
		l-0.474,2.898l1.502,3.527l-1.502,2.392l-0.902,1.721c-3.673-1.849-3.589-3.442-4.491-4.199c-3.79,0.757-2.604,1.428-4.609-1.302
		l-3.904-4.574c-0.136-2.395,0.452-5.481-1.68-6.844c-2.728-0.714-2.875,4.449-5.604,1.971c-0.431-2.267,0.964-7.052-3.034-6.505
		l-3.57,3.965l-5.551,1.533c0,0-5.847-4.367-3.527-7.054c1.899-2.182,0.902-5.709,0.902-5.709
		c-4.554-5.541-12.069-1.974-12.974-7.936l0.148-2.393c2.56,0.461,7.222,3.57,4.902-4.659c-4.577-3.023-7.222-15.619-12.513-14.885
		c-1.249,2.458-4.281,1.617-4.281,6.151c5.699,6.97,0.178,8.313,7.892,11.211l0.599,0.566c0.304,2.12-0.923,4.304-2.582,5.689
		c-3.632-0.756-2.813-6.383-5.91-5.836c-4,0.964-3.412,10.664-6.529,11.042c-3.443-1.428-1.574-6.551-5.08-4.491
		c-1.826-1.869-2.035-4.073-0.515-8.607c1.553-1.007,1.102-3.171-0.494-6.551c-2.109-0.313-1.584-0.754-3.389-2.728l-0.158-1.869
		c1.354-1.952,3.811-1.848,4.86-3.968l-1.522-2.56c-2.11-0.651-4.713-1.701-6.844-0.651c1.826,2.162-2.529,4.011,0,5.521
		l-1.627,3.527c-1.375,2.981-1.962,6.192-4.838,8.482c-3.034,3.001-8.344-2.142-10.129,2.876c-0.945,2.896,0.903,7.913-3.222,8.374
		l-2.54-0.628l-3.652,1.804c-1.786-1.929-3.16-4.239-4.209-6.508l2.423-1.678c1.04,1.974,3.769,1.974,5.722,1.678l0.326-2.6
		c-1.68-1.513-4.366-2.395-4.713-4.998c0-1.974,1.512-3.484,2.025-5.333l-1.417-1.468l1.543-2.793l3.305-2.245
		c2.887,0.441,5.469-0.924,7.443-3.213l-1.701-2.246c1.082-2.603,4.567-2.017,6.34-4.284c2.13,0,4.566-0.293,5.762,1.974h2.866
		c1.691-1.701,4.577-3.527,3.8-6.549c-7.158-4.45-11.115,2.394-13.194,2.394c-8.124-2.079-3.81-7.012-6.811-8.397l-13.204-10.246
		l-3.958,0.483l-0.777-1.365c-0.125-2.393,0.504-4.89-0.441-7.137c-2.246-0.482-3.316,1.448-4.218-1.596l-1.155-4.954l0.944-7.851
		c1.742-0.882,2.646-1.281,4.765-1.008c1.082-0.755,0.671,1.721,3.16,0.503l0.492-4.659l1.04-3.527l-3.221-0.167
		c-0.306,3.947-2.741,3.737-4.136,2.52l-6.192,4.575l3.83,3.904c2.132,2.52,0.714,4.284-0.64,4.912
		c-2.289,0.168-4.388,0.735-6.351-0.461c-2.875-1.344-5.804,1.3-7.021-1.092c-2.562-0.525,0.597-9.993-5.742-8.502v-16.521
		c5.72-0.525,5.354-1.553,5.174-2.603l-5.174-1.385v-26.451c4.388-0.483,7.117-1.847,8.764-1.721l2.645,2.014l0.305,2.52
		c1.501,1.951,1.722-0.253,2.729,1.994l3.789,1.028l1.995-2.603c2.046-0.672,5.311,2.603,7.094,2.099
		c1.27,0.252,2.499,0,2.771-2.519c-1.5-2.729-4.47,1.112-3.243-3.738l0.903-2.287c-1.5-3.043-7.117-0.147-3.935-4.577
		c1.951-3.002,5.594-2.288,8.323-3.8c2.236-2.267,1.542-5.941,4-7.264c1.826-0.966,2.141,6.549,7.179,6.549
		c2.298-0.776,1.132-3.945,1.868-4.995l4.188-1.114c1.186,1.722,2.278,4.976,5.931,4.598c1.784-0.798-0.168-7.894,1.637-11.337
		c3.4-1.512,7.399-3.736,12.102-3.4l3.916,0.63c-0.61,1.637,1.071,4.24-1.334,4.661c-2.277-0.294-1.764,1.889-3.747,2.646
		c-2.078,0.125-3.453,1.511-4.083-0.337l-1.502,1.66l1.072,2.412c3.011,1.072,5.374-1.343,7.956-3.336
		c2.414-0.273,3.768,2.287,5.143,3.968c2.382,0.125,2.875-3.316,5.111-3.527c0.619-1.512,3.328-2.1,2.005-4.241
		c-1.387-1.701-6.067-0.587-4.734-4.072l2.277-2.604l-0.734-4.66c4.587-1.512,6.497,3.61,9.982,0.693
		c1.5,0.482,3.159-0.146,3.473,1.805l0.462,1.994c2.099-0.882,5.133-0.419,6.183-3.19l1.06-3.821
		c-2.109-2.854-4.083,1.365-6.644,1.135l-1.681-1.721c-0.146-3.024,0-6.026,2.855-8.062c2.435-0.167,3.139,0,5.123,0.923
		l2.234,2.267l1.89-2.604c1.826-1.238,2.749-0.313,4.713-0.418c2.854,1.868-1.681,9.088,1.73,10.579l4.776-1.448
		c0.158-2.456-2.854-4.577,0-6.696l4.943,3.19c1.848-0.335,2.603-2.141,4.577-2.141c2.886-4.116,5.469,1.679,8.47,1.679
		c2.708-0.336,1.04-3.82,1.49-5.458c-1.49-2.141-4.345-1.973-6.643-1.847l-4.241,1.217l-0.599-3.191
		c1.523-0.755,2.709-3.945,4.986-3.484l3.359,0.567c3.473-1.028,1.354-10.014,6.507-5.332l3.033,2.603l2.382-3.043
		c1.533,2.119,2.257,5.038,0.924,7.137l-0.599,1.092l3.758,2.142c-0.576-2.436,1.806-3.234,1.68-5.333l5.122-1.805
		c1.974-0.462,2.278,2.54,4.273,0.923l1.312-2.037l-1.785-1.784c0.306-2.435,4.986,0.105,3.327-3.359
		c0.483-1.07,0.158-3.317,2.31-3.022l2.237,3.022c1.5-1.679,6.507-0.588,4.534-4.408l2.55-2.269l3.663-1.678
		c-0.923-2.142,4.231-4.87-0.178-5.186l-1.522,1.533l-2.687-2.729l1.049-3.485l5.888-0.461l2.435,2.56l4.555,1.513l-0.651,2.603
		l-2.854,1.846l1.659,1.953c3.034,0.609,6.813-0.441,9.394,1.805l2.257-4.575l2.582-1.323l1.669,1.323l3.18-0.882l1.491-0.273
		l2.119,3.317l1.207-1.344c1.083-0.923,3.633,0.882,3.359-1.7v-4.681c2.079-1.092,3.001,1.805,4.787,0.882l3.033-0.882
		c1.7-1.681,1.102-4.745,2.624-6.718l0.556-2.1c2.278,0.294,5.291-0.628,6.686,1.806c1.639,1.805,3.16-1.385,5.291-0.462
		c2.729-1.344,0.671-7.894,3.673-8.02H282.907"/>
	<path fill="#FFFFFF" d="M299.092,42.724l-0.766,4.577l-2.73,3.484c-1.637-1.805-1.061-5.016-0.586-7.431l2.256-1.974
		L299.092,42.724"/>
	<path fill="#FFFFFF" d="M340.993,41.547l3.014,3.948l-0.904,0.882c-2.561,0.923-6.791-1.05-7.746,2.603l-0.432-0.756
		c-1.342-1.385-5.258-0.65-4.512-3.778c1.805-1.449,4.367-2.205,6.645-3.066L340.993,41.547"/>
	<polyline fill="#FFFFFF" points="353.997,42.724 354.596,45.957 349.768,46.65 349.589,42.724 353.997,42.724 	"/>
	<path fill="#E0393E" d="M454.153,43.354l-1.984,3.191c-1.5-0.294-3.002,2.267-4.388,0.293l-0.745-3.842
		c2.383,1.575,4.229-1.617,6.666-0.273L454.153,43.354"/>
	<path fill="#FFFFFF" d="M386.997,47.93l-0.775,2.896l-4.389-0.65v-3.799C383.491,45.033,386.369,45.769,386.997,47.93"/>
	<path fill="#E0393E" d="M242.224,51.415c-1.816,1.678-5.143,0.882-7.546,1.678l-1.249-1.112c0.125-1.951,2.129-2.54,3.485-3.484
		C239.032,48.686,239.957,51.54,242.224,51.415"/>
	<path fill="#E0393E" d="M473.348,51.415c-0.156,1.678,1.197,3.484-1.038,4.218l-4.104,0.19c1.375-2.73-4.702-5.166-0.43-7.327
		C469.739,49.441,472.31,48.98,473.348,51.415"/>
	<polyline fill="#FFFFFF" points="394.092,51.876 392.602,52.464 391.354,51.981 392.602,50.826 394.092,51.876 	"/>
	<polyline fill="#FFFFFF" points="273.985,53.221 273.041,54.312 271.414,53.221 272.011,51.981 273.985,53.221 	"/>
	<path fill="#FFFFFF" d="M309.526,54.899c-0.736,1.974,1.952,3.065,1.521,4.87c-3.465,1.344-3.801-3.211-5.438-4.87l0.882-1.678
		L309.526,54.899"/>
	<path fill="#E0393E" d="M198.624,55.361c0.303,3.485-2.563,6.382-2.856,9.866l-1.784,0.148l-1.681-0.273
		c0.148,2.267-2.152,0.882-3.327,1.678l-2.131-2.603l2.131-2.435c1.354,0.146,3.632,0.461,3.475-1.701l2.109-4.681
		C195.159,53.557,198.624,52.758,198.624,55.361"/>
	<path fill="#E0393E" d="M464.448,58.237l3.455,2.289l-1.029,2.728c-2.584,1.365-3.674-2.561-6.078-2.561
		c-1.06-1.68-3.336-3.359-3.191-5.794C460.47,53.093,462.17,57.334,464.448,58.237"/>
	<polyline fill="#FFFFFF" points="385.013,59.119 384.09,59.937 382.159,59.119 383.041,57.796 385.013,59.119 	"/>
	<polyline fill="#FFFFFF" points="422.833,59.014 422.252,59.937 419.819,59.769 421.151,58.091 422.833,59.014 	"/>
	<path fill="#FFFFFF" d="M258.083,65.984l-1.5,1.385c-1.984-0.148-5.449,0.293-6.518-2.267l3.652-1.974
		C255.071,64.01,259.479,62.499,258.083,65.984"/>
	<polyline fill="#FFFFFF" points="238.718,65.984 236.776,68.419 235.558,67.998 237.081,65.375 238.718,65.984 	"/>
	<polyline fill="#FFFFFF" points="453.702,69.028 452.797,71.756 451.874,70.706 452.495,68.104 453.702,69.028 	"/>
	<path fill="#FFFFFF" d="M434.913,76.06l-1.943,0.105c-1.217-1.49-2.424-2.708-2.277-4.682l0.305-1.679
		C432.825,71.609,436.434,72.996,434.913,76.06"/>
	<path fill="#E0393E" d="M163.565,71.189c-0.148,2.267-2.583,2.603-3.81,4.051c-2.257,0.19-1.806-1.951-2.729-3.169
		c1.375-1.049,3.81-2.562,5.783-1.638L163.565,71.189"/>
	<path fill="#FFFFFF" d="M223.005,74.967l4.231-1.511l0.576,1.68l2.277,0.923l-1.3,1.638c-2.761,0-6.886,1.553-8.523-1.217
		l1.512-3.654L223.005,74.967"/>
	<polyline fill="#FFFFFF" points="254.776,75.431 253.717,76.165 252.341,76.06 253.077,74.358 254.776,75.431 	"/>
	<polyline fill="#FFFFFF" points="439.038,82.42 437.946,83.66 436.003,82.861 436.434,81.938 439.038,82.42 	"/>
	<polyline fill="#E0393E" points="486.826,94.092 482.114,92.287 483.94,89.579 486.826,89.285 486.826,94.092 	"/>
	<path fill="#FFFFFF" d="M445.377,91.721l1.027,1.343v0.629c-1.195-0.922-4.986-0.168-4.334-2.603h1.313L445.377,91.721"/>
	<polyline fill="#FFFFFF" points="462.444,93.524 461.437,93.82 460.963,91.846 462.444,93.524 	"/>
	<path fill="#FFFFFF" d="M163.713,96.087c1.49,0.586,3.768,0,4.712,2.014c-2.457,1.931-6.235-0.482-8.219,1.931h-1.951l-1.229-3.945
		l1.68-1.345C160.7,94.574,161.718,98.542,163.713,96.087"/>
	<path fill="#E0393E" d="M482.523,107.044l-1.805-1.238l-3.182-2.855l2.603-3.527c1.334-1.322,3.287,1.112,6.604-1.069v7.452
		L482.523,107.044"/>
	<polyline fill="#FFFFFF" points="134.354,108.598 134.502,110.403 129.968,109.647 132.097,106.289 134.354,108.598 	"/>
	<path fill="#FFFFFF" d="M77.833,130.83l-1.564,1.994l-3.957-1.428l-3.076-5.416l3.443-1.05
		C74.999,126.253,77.685,130.557,77.833,130.83"/>
	<polyline fill="#FFFFFF" points="105.113,121.151 102.257,121.278 101.48,117.31 103.57,116.744 105.113,121.151 	"/>
	<path fill="#FFFFFF" d="M43.101,162.759l2.277,2.267c-1.396,2.414-5.542,1.259-7.18,2.646c-1.206-0.463-0.797-1.954,0-4.326v-2.917
		C40.33,158.475,41.399,159.987,43.101,162.759"/>
	<path fill="#E0393E" d="M486.889,174.094c-2.257-0.316-10.172-1.239-10.664-4.115c1.05-2.267,3.358-3.779,3.358-6.381l7.306-2.813
		C487.036,164.227,486.762,170.252,486.889,174.094"/>
	<polyline fill="#FFFFFF" points="471.157,163.766 468.742,164.522 468.742,163.009 471.157,163.766 	"/>
	<polyline fill="#FFFFFF" points="464.04,176.068 462.979,176.991 460.858,175.584 464.04,176.068 	"/>
	<path fill="#E0393E" d="M58.236,195.17c-3.18,2.267-2.624,6.403-2.948,9.573l-2.237,2.287l-3.422-1.28
		c1.04-3.401-0.398-7.18,1.743-10.286l-1.785-3.906l-0.232-3.274l3.16-1.344l3.328,3.967L58.236,195.17"/>
	<path fill="#E0393E" d="M47.981,195.843c-1.984-0.295-2.13-2.142-1.984-3.821c-1.196-1.994-3.453,1.301-3.369,0.209
		c-1.229-1.973-1.983,0.924-2.708,1.513l-0.136,1.427c-0.808-0.294-2.277-0.377-4.724,0.041v8.209
		c4.724,0.482,3.916,2.287,8.04-0.608l-1.313-4.366l1.596,0.041l0.335-0.084l3.055-0.125L47.981,195.843"/>
	<path fill="#E0393E" d="M480.907,205.583l-0.314,2.562l-1.638,0.167c0.451-2.163-2.132-1.217-2.132-3.086
		c0-1.973,1.682-3.17,2.887-4.388C481.84,201.174,479.856,204.029,480.907,205.583"/>
	<path fill="#E0393E" d="M41.485,249.834c-1.27,3.527-6.424,4.639-6.424,4.639v-10.832l2.992,0.398
		C41.169,245.382,39.784,247.567,41.485,249.834"/>
	<path fill="#E0393E" d="M46.774,208.271c0.146,2.603-2.562,2.476-4.104,3.211c0-1.849-3.61-1.491-2.129-3.8l2.886-0.776
		l1.994,0.189L46.774,208.271"/>
	<path fill="#E0393E" d="M485.063,215.932c-0.325,1.68,1.176,6.297-0.777,7.053l-5.185,1.742l-1.218,3.947l-3.631,1.092
		c-1.984-0.63-1.334-3.527-2.289-5.039l-1.479-4.114l3.484-0.461l0.903,0.273l1.207,0.188l4.514-2.435L485.063,215.932"/>
	<polyline fill="#FFFFFF" points="458.959,230.898 459.389,231.971 454.257,231.655 454.876,229.367 458.959,230.898 	"/>
	<path fill="#FFFFFF" d="M109.499,231.928c-1.5,2.498-3.264,0.084-4.061,0.084l1.374-3.799
		C110.56,227.877,109.499,230.563,109.499,231.928"/>
	<path fill="#E0393E" d="M486.868,240.052c-4.838-0.587-5.186-1.301-5.804-1.658l-4.241,0.483l-0.744-1.849l3.777-3.484l1.208-0.923
		l-0.304-1.05h0.629l5.479-7.306V240.052"/>
	<path fill="#FFFFFF" d="M133.726,240.388l1.247,2.855l-2.728-1.513l-1.68-3.336l1.028-0.924
		C133.726,236.903,133.169,239.464,133.726,240.388"/>
	<polyline fill="#E0393E" points="124.656,234.006 124.246,237.469 119.544,237.91 118.337,233.817 120.615,232.158 
		124.656,234.006 	"/>
	<path fill="#E0393E" d="M132.393,242.802l2.256-1.072l0.324,1.513c-1.542,1.092-2.445,2.603-4.554,2.245
		c-1.208,0.967-0.148,3.885-2.583,2.605c-0.902-1.322-3.327-1.638-3.463-3.612c0.136-2.119,1.333-4.093,1.805-6.087
		C128.739,238.877,129.968,242.066,132.393,242.802"/>
	<path fill="#FFFFFF" d="M83.836,242.654c-1.963,0.757-4.408,1.218-6.046,0l1.333-3.504
		C81.275,239.15,82.913,240.954,83.836,242.654"/>
	<path fill="#E0393E" d="M473.348,247.692l-0.43,0.295c1.627-0.168,2.552-1.092,4.514-0.924l-0.157,2.435
		c-1.05,1.974-3.453,0.168-4.229,2.287l-4.986-0.606c-0.903-2.122,1.627-3.086,1.354-5.166l2.258-2.142L473.348,247.692"/>
	<path fill="#E0393E" d="M96.799,252.101l-0.755,5.206c-2.278-0.586-6.234,1.345-6.686-1.846c-0.146-2.435,3.034,0.167,2.887-2.267
		l2.119-2.73L96.799,252.101"/>
	<path fill="#E0393E" d="M113.563,256.971l-0.882,3.359l0.156,1.05l-3.055-0.421l-0.609-3.988
		C110.707,255.753,113.289,254.368,113.563,256.971"/>
	<path fill="#FFFFFF" d="M154.318,253.697c0.966,1.658,3.527,3.023,2.541,5.333l-5.207-0.335l-1.542-1.806l1.396-2.415
		L154.318,253.697"/>
	<path fill="#FFFFFF" d="M101.208,210.411c0.661,1.426,7.107,3.589,3.369,6.046l-5.888-2.142l-1.124-1.553l1.27-1.889
		L101.208,210.411"/>
	<path fill="#E0393E" d="M132.245,265.789l0.283,5.331l-3.012,0.401l-1.229-2.415c1.082-1.386-2.109-3.527,0.924-4.284
		L132.245,265.789"/>
	<polyline fill="#FFFFFF" points="207.544,294.611 205.456,298.159 201.246,296.941 203.419,294.591 207.544,294.611 	"/>
	<path fill="#FFFFFF" d="M82.115,200.586l-2.13,3.486l-4.251-1.219l-0.515-4.198C76.458,196.934,78.221,199.621,82.115,200.586"/>
	<polyline fill="#FFFFFF" points="449.891,271.75 449.292,273.85 444.328,273.514 444.328,269.862 449.891,271.75 	"/>
	<path fill="#E0393E" d="M115.073,269.355l2.876,0.631l1.826-0.167l-1.05,4.116h-3.159c-1.701-2.458-3.957,0.271-5.784-1.681
		l2.604-3.316L115.073,269.355"/>
	<polyline fill="#E0393E" points="139.34,277.167 138.006,281.868 135.121,281.26 134.028,276.706 138.279,275.192 139.34,277.167 	
		"/>
	<path fill="#E0393E" d="M89.966,274.689l-1.081-5.333l1.931-1.448c0.305,2.876,4.755,0.777,4.472,4.304l-1.26,2.142L89.966,274.689
		"/>
	<path fill="#E0393E" d="M145.208,291.315l1.027-5.038l-1.826-1.405c-0.303,2.728-4.554,0.734-4.292,4.05l1.176,2.057
		L145.208,291.315"/>
	<path fill="#E0393E" d="M62.341,234.593l-4.22-0.964c-0.599-1.932-3.925-0.694-4.167-3.023l-1.847,1.365l0.263,3.526l-2.109,3.086
		c-0.756,1.973,1.207,3.147,1.952,4.536c4.103,1.971,2.257-4.536,6.214-4.409c2.729,0.168,2.729,3.945,5.312,3.945
		c1.931-0.293,0.556-3.504,2.853-4.261C64.471,238.078,64.471,235.225,62.341,234.593"/>
	<path fill="#E0393E" d="M76.846,226.407l-1.627-1.217l-1.982-2.562l3.336-2.938l-0.902-1.071l-4.042,0.441l0.041-0.63l-0.859-4.261
		l0.346-2.499l2.833-1.386l-1.511-3.19c-5.731,1.658-7.86-7.431-13.477-4.282l-0.882,2.603c2.089,1.385,5.27-0.924,6.801,1.806
		l-0.158,1.762l-1.668,0.042c-2.13,0.085-2.435,2.372-3.359,3.653c-0.125,4.534,5.07,0.168,6.582,3.822
		c0.818,2.162-1.617,3.652-1.637,5.499l-1.586,0.63c-0.283,2.099-2.414,3.779-1.783,6.046l1.931,1.974
		c3.075,1.364,4.103-2.898,6.833-2.729c2.11,0.294,3.16,3.358,5.289,2.729L76.846,226.407"/>
	<path fill="#E0393E" d="M478.504,282.625c0.145,2.182-0.621,3.043-1.376,4.745l-1.05,1.636l-3.339-3.61l1.983-2.287
		C475.92,282.918,477.432,280.651,478.504,282.625"/>
	<path fill="#E0393E" d="M470.012,283.549l-1.807,3.652c0.756,3.357,3.633,5.331,6.518,6.548l-3.178,3.527
		c-2.311,0-1.533,3.317-2.311,4.995l-1.029,1.849c-2.256-1.092-2.729,2.981-4.859,2.099l-1.784-2.099l1.491-2.896l-3.768,0.125
		l-3.034-4.073c1.353-2.185,4.219-1.132,6.538-2.185l1.658-2.264c-2.581-2.435,0.6-5.186,1.355-7.601L470.012,283.549"/>
	<path fill="#E0393E" d="M109.173,281.029l1.826-0.503l1.837,4.113l-0.451,4.409l0.903,2.122l-4.409,0.146l-3.59-0.146
		c2.708-1.954-1.417-3.655-0.178-6.067c-1.974-1.24-3.181,1.804-5.154,1.971l-0.146-2.162c1.05-2.54,4.702-1.952,5.888-4.386
		L109.173,281.029"/>
	<path fill="#E0393E" d="M125.706,285.396l-0.903,5.163h-3.022l-2.865-5.646l1.7-1.804
		C122.851,283.108,124.373,283.549,125.706,285.396"/>
	<path fill="#E0393E" d="M147.244,306.177l-1.564-4.995l2.688-1.428c2.067,0.671,3.096,2.688,5.153,3.652l-0.619,2.435
		C150.865,306.849,149.332,307.144,147.244,306.177"/>
	<polyline fill="#FFFFFF" points="450.993,284.178 448.842,285.103 448.516,285.103 449.292,283.549 450.993,284.178 	"/>
	<polyline fill="#E0393E" points="160.081,287.643 159.607,292.532 157.677,290.854 153.269,288.294 156.123,285.228 
		160.081,287.643 	"/>
	<path fill="#E0393E" d="M134.354,287.202l-0.472,3.925c-1.637,2.623-6.192,1.806-5.898,5.814l-1.806,0.566l-0.314-3.925
		c4.408-0.882,1.522-8.187,6.833-7.305L134.354,287.202"/>
	<polyline fill="#E0393E" points="170.64,294.045 170.356,295.849 167.953,294.506 168.425,292.7 170.64,294.045 	"/>
	<path fill="#E0393E" d="M211.176,312.139l0.628,0.569c0.316,3.083-4.837,2.455-3.662,5.646l-1.354-0.128l-1.953-3.8l-1.5-2.6
		C206.211,310.586,208.3,314.113,211.176,312.139"/>
	<path fill="#E0393E" d="M174.743,312.433l1.178,0.756c0.754,2.435-1.828,2.603-3.287,3.191l-3.327,1.343
		c-1.512,0.167-2.886,3.695-4.261,1.385c0.158-1.994,1.826-3.484,1.984-5.624C169.6,310.902,172.163,314.426,174.743,312.433"/>
	<path fill="#FFFFFF" d="M449.418,315.038l-1.029,2.435c-1.531-0.358-3.937,0.754-3.937-1.553l0.493-2.856L449.418,315.038"/>
	<path fill="#E0393E" d="M474.997,317.009c-0.744,2.268-5.889,1.218-3.451,4.998c-0.758,2.287-3.034,0.628-4.39,0.48l-1.679-4.597
		l1.679-1.806l3.758-0.293C472.614,315.499,475.302,314.426,474.997,317.009"/>
	<path fill="#E0393E" d="M230.089,325.702l-0.902,4.198l-2.1,0.168l-3.012-2.73l-2.173,0.756l0.944,3.191l-2.708,0.146
		c-1.396,2.29-4.985,0.736-5.311,4.136l-3.652,0.756l-1.05-2.31c0.168-2.099,2.425-2.435,3.957-3.189l-1.206-1.513
		c-2.458,0-3.632,2.771-6.215,2.119c-1.206-0.922-1.206-3.337-3.179-3.798c-1.974-0.421-4.557,1.258-5.597-1.217l2.132-1.806
		c4.514,0,9.96-2.728,14.988,0.924l4.986,0.461l1.479-2.771C224.632,323.369,228.463,322.3,230.089,325.702"/>
	<path fill="#E0393E" d="M464.596,336.889c-0.307,1.869-0.474,4.409-2.583,5.479c-2.425,0.17-3.484,2.458-4.554,4.116l-1.03,1.994
		h-2.151c-0.882-2.603-4.859-2.603-4.534-5.939c1.249-1.24,3.652-0.925,4.126-2.898l1.783-2.75c1.375,0.19,2.708-2.413,3.633-0.273
		l-1.826,3.527l2.707-0.503c1.7-1.994,1.396-5.163,3.956-6.508L464.596,336.889"/>
	<path fill="#E0393E" d="M241.447,342.368l-2.729,7.916c-0.157,1.533-0.43,4.722-2.435,4.133c-1.953-0.649-4.062-4.133-6.014-1.218
		l1.154,5.754l-0.577,1.846l-3.159-3.379c-0.451-1.658,0.776-4.409-1.355-5.458l2.237-3.484c2.425-0.609,4.681-1.533,7.285-1.846
		l2.864-3.8L241.447,342.368"/>
	<path fill="#E0393E" d="M38.221,213.182c1.994-0.861,6.15-2.624,6.706,0.21c0.556,2.854-2.32,7.83,2.562,8.313
		c2.749-0.253,5.437-2.478,6.297-5.375l2.687-0.44c0.944,2.12-0.819,4.304-2.004,6.108c-1.763,1.722-5.972,2.037-5.867,5.416
		c-1.974,0.799-8.314,4.493-10.078,3.484C36.29,230.898,38.221,213.182,38.221,213.182"/>
	<path fill="#E0393E" d="M212.551,344.216c2.455,1.049,0.158,4.702,3.034,4.995l-0.903,1.388c-4.263,1.217-7.421-3.655-11.504-1.388
		l-1.668-0.586l0.599-4.998C205.456,343.921,209.518,342.831,212.551,344.216"/>
	<path fill="#E0393E" d="M464.879,350.471l-0.137,1.659l4.094-1.994l1.322-0.125l0.629,4.241c-1.25,1.363-2.108,3.945-4.555,2.728
		l-2.887,0.796l-2.256,1.806c-0.295-1.974-3.486-1.974-2.258-4.113c2.384-0.924,3.181-3.339,3.338-5.794L464.879,350.471"/>
	<path fill="#E0393E" d="M450.835,356.055c0.157,2.771,4.817,4.451,2.109,7.179l-1.826-0.922l-3.915-0.315
		c-0.925,0.756,0,4.261-2.426,2.75l-2.276-3.487C443.245,357.608,447.634,355.173,450.835,356.055"/>
	<path fill="#E0393E" d="M261.84,375.998l-0.576,4.073l-4.86,0.336l-0.724-2.898l-1.964-0.586l1.354-2.771
		C257.328,372.934,260.057,374.026,261.84,375.998"/>
	<path fill="#E0393E" d="M452.599,379.189l0.346,1.846l-0.642,1.052c-1.038-1.849-3.787,0-4.061-2.142l2.876-2.918L452.599,379.189"
		/>
	<path fill="#E0393E" d="M270.511,377.972l-1.081,4.557c-2.121,1.531-6.487,1.678-6.192,5.183l-0.294,0.295
		c-1.984-0.944-0.494-3.191-0.923-4.597C265.325,381.749,265.325,374.425,270.511,377.972"/>
	<polyline fill="#E0393E" points="238.718,381.604 236.439,383.305 234.949,382.087 236.01,380.68 238.718,381.604 	"/>
	<polyline fill="#FFFFFF" points="433.127,382.087 433.254,384.059 428.416,386.01 429.024,382.716 430.545,381.163 
		433.127,382.087 	"/>
	<path fill="#E0393E" d="M445.377,389.665l-0.925,1.994l-3.652,1.491l-1.187,3.211l-1.396-0.356l-0.271-4.346
		c1.218-1.217,2.141-3.359,4.25-2.918l2.11-0.105L445.377,389.665"/>
	<path fill="#E0393E" d="M271.866,394.094c0.145,2.142,0.145,4.554,1.647,6.212c0.283,2.438,0.776,5.208,0.157,7.768
		c-4.24-2.014-2.256-10.391-8.774-9.572l-1.658,2.267l-2.834-1.974c-1.27-2.267,2.046-2.896,3.139-4.113
		C266.449,393.926,268.979,393.465,271.866,394.094"/>
	<path fill="#E0393E" d="M443.53,399.888c-0.285,2.245-2.404,2.856-3.033,4.827l-2.1,2.478l2.257,2.73l2.876,1.636l-1.932,1.092
		l-4.387-0.799c-1.229,1.072-0.924,3.988-3.633,2.875c-1.679-1.616-0.65-4.364-0.945-6.36c0.494-3.945,4.399-4.534,6.687-7.262
		C439.772,399.53,443.53,395.124,443.53,399.888"/>
	<polyline fill="#E0393E" points="284.996,401.231 281.962,404.127 279.411,403.791 279.254,401.379 278.205,399.382 
		282.907,399.382 284.996,401.231 	"/>
	<polyline fill="#FFFFFF" points="420.249,407.591 420.249,408.075 417.667,407.739 418.422,406.226 420.249,407.591 	"/>
	<path fill="#E0393E" d="M279.108,414.728c-1.932,0.611-3.769,1.533-5.91,1.701l-0.431-1.51c1.521-2.267,4.985-0.295,6.192-3.066
		L279.108,414.728"/>
	<path fill="#E0393E" d="M279.108,423.901c-3.339,1.052,0.303,4.705-3.182,4.873c-1.637-1.849-3.916-0.799-6.192-1.092l-0.431-2.603
		c2.257-1.05,5.585,0.167,6.172-2.898l3.779-1.679L279.108,423.901"/>
	<path fill="#E0393E" d="M425.991,431.963l3.348,3.948l1.984,0.461l-1.826,3.024c-2.907,1.51-4.859-2.435-7.747-1.406l-1.931-0.756
		l-0.168-2.29C421.928,433.896,423.283,427.975,425.991,431.963"/>
	<path fill="#E0393E" d="M270.333,435.279v2.836l-4.208,0.691l-0.326-1.846C267.026,435.911,269.587,437.233,270.333,435.279"/>
	<path fill="#E0393E" d="M418.874,440.906l-0.755,2.73c-1.627,0.461-5.604-1.217-4.661,2.603l-1.375,0.418l-1.353-2.56
		c1.784-1.533-0.904-5.982,3.032-5.291C415.84,438.596,417.993,438.954,418.874,440.906"/>
	<path fill="#FFFFFF" d="M291.188,439.793l0.493,3.382c-1.973,1.257-3.033-1.533-5.006-1.345l-0.158-1.846L291.188,439.793"/>
	<path fill="#E0393E" d="M273.041,450.185l0.472,1.681c-2.099,1.05-5.259,0.754-7.389-0.358l-0.799-1.804
		C267.625,448.631,270.764,449.431,273.041,450.185"/>
	<path fill="#FFFFFF" d="M289.101,450.625l-0.904,2.605l-4.104-1.029l-0.304-3.234C285.772,449.743,288.071,448.779,289.101,450.625
		"/>
	<polyline fill="#E0393E" points="424.311,451.865 424.006,454.761 421.625,454.889 420.848,453.544 421.75,451.234 
		424.311,451.865 	"/>
	<path fill="#E0393E" d="M413.606,458.687l-0.777,3.968l-4.082-2.603l0.303-2.563C410.405,457.153,412.964,456.735,413.606,458.687"
		/>
	<path fill="#FFFFFF" d="M263.416,469.479c-1.576,1.53-4.43,2.916-4.125,5.646l-1.354-1.386c0.765-1.806-0.284-4.389,1.973-5.458
		L263.416,469.479"/>
	<path fill="#FFFFFF" d="M270.333,470.084l-0.148,2.311c-1.353,0-1.931-2.604-3.935-1.386l1.06-1.847L270.333,470.084"/>
	<polyline fill="#E0393E" points="245.698,485.999 244.932,487.845 241.74,486.167 241.595,483.437 242.822,482.094 
		245.698,485.999 	"/>
	<path fill="#FFFFFF" d="M271.866,484.235c-0.306,0.925,0.902,3.484-1.102,3.188h-3.014l-0.293-3.316
		C268.033,481.337,271.687,482.262,271.866,484.235"/>
	<path fill="#E0393E" d="M395.425,484.676l3.653,0.313l0.314,2.435c-1.648,1.514-3.82,0.632-5.909,1.261l-0.472,2.395h-0.903
		c-0.598-2.142-2.876-3.655-2.278-6.09l2.436-1.679L395.425,484.676"/>
	<path fill="#E0393E" d="M257.937,488.813l-3.463,1.342l-2.132-0.756l1.826-3.945C255.826,485.746,257.652,486.838,257.937,488.813"
		/>
	<path fill="#E0393E" d="M236.587,497.585c-0.451,2.289-0.734,4.241-2.666,5.626l-4.409-1.258l1.028-0.881l3.19-4.074
		L236.587,497.585"/>
	<polyline fill="#FFFFFF" points="350.344,508.251 350.198,509.656 347.227,508.774 348.067,507.369 350.344,508.251 	"/>
	<path fill="#E0393E" d="M380.762,517.53l-1.353,2.265l-3.014-0.755c-2.56-0.44-1.208-3.191-1.973-4.997l3.631-0.504L380.762,517.53
		"/>
	<path fill="#FFFFFF" d="M238.414,523.028l-0.431,2.563h-2.277c-0.326-1.681-3.789-3.382-1.208-4.872L238.414,523.028"/>
	<path fill="#E0393E" d="M367.779,525.421c0.104,2.017-1.679,2.122-2.435,3.652c-2.572,0.275-2.258,5.648-4.829,2.122
		c-0.179-2.876,2.099-4.976,2.729-7.621L367.779,525.421"/>
	<polyline fill="#FFFFFF" points="226.889,538.647 223.855,538.647 224.916,537.305 226.889,538.647 	"/>
	<path fill="#FFFFFF" d="M338.389,536.653l-1.627,2.455l-3.357-1.05v-0.461C335.231,537.598,337.666,532.728,338.389,536.653"/>
	<path fill="#E0393E" d="M209.37,540.032c-0.619,2.143-2.109,3.758-3.306,5.437l-1.984,1.533l-2.708-1.533l0.137-2.876l4.702-1.007
		l1.784-2.478L209.37,540.032"/>
	<polyline fill="#FFFFFF" points="299.596,551.703 298.368,553.299 297.307,551.536 299.596,551.703 	"/>
	<polyline fill="#FFFFFF" points="230.678,532.6 227.519,531.383 228.379,530.04 230.678,532.6 	"/>
	<path fill="#FFFFFF" d="M292.154,570.261l-0.326,2.771l-5.311,0.421l-2.257,1.093l-0.599-1.24v-3.044
		C286.087,567.868,289.403,569.652,292.154,570.261"/>
	<path fill="#FFFFFF" d="M279.411,573.663l-1.962,1.05c-0.126-2.436-6.036-2.604-2.278-5.166
		C277.323,569.254,279.254,571.311,279.411,573.663"/>
	<path fill="#E0393E" d="M311.625,571.354l-0.294,0.756c-1.082,1.386-2.436-1.638-3.013,0.754l-1.68,3.484l-2.425-1.468l1.396-3.526
		H311.625"/>
	<path fill="#FFFFFF" d="M206.516,579.414c-1.229,1.804,2.582,3.021,0.452,4.87l-2.435,0.882c-1.523-2.268-3.927-4.995-2.573-7.726
		l1.176-0.922L206.516,579.414"/>
	<polyline fill="#FFFFFF" points="259.909,580.441 256.561,583.172 256.405,581.093 258.986,578.617 259.909,580.441 	"/>
	<polyline fill="#E0393E" points="189.427,575.907 189.722,578.532 184.715,578.071 185.943,574.229 189.427,575.907 	"/>
	<path fill="#E0393E" d="M284.849,587.621c-0.431,2.289-3.16,0.776-4.797,1.072l-0.347-3.066
		C281.689,583.487,283.662,586.383,284.849,587.621"/>
	<polyline fill="#FFFFFF" points="203.786,595.076 203.934,595.494 201.96,595.494 201.96,592.766 203.786,595.076 	"/>
	<path fill="#FFFFFF" d="M196.669,603.703c0.126,1.846-2.582,3.84-0.157,5.351l1.081,0.147l-0.451,2.415l-2.109,0.148l-2.152-4.515
		l2.277-5.04L196.669,603.703"/>
	<path fill="#E0393E" d="M256.405,615.269c0.471,2.143-1.806,1.682-2.876,2.31l-4.063-0.756c-0.431-2.287,2.12-2.287,3.328-3.254
		L256.405,615.269"/>
	<path fill="#E0393E" d="M262.02,626.982l2.278,0.861l0.293,3.255l-4.062,0.754c-1.69,1.05-1.828,4.702-4.43,3.296l0.158-4.05
		l-0.755-4.116c-2.257-0.418-4.083-0.418-6.036-1.385l3.023-3.191C256.875,621.398,257.8,628.2,262.02,626.982"/>
	<polyline fill="#FFFFFF" points="199.377,630.342 198.37,631.539 197.416,630.467 198.37,628.956 199.377,630.342 	"/>
	<polyline fill="#E0393E" points="186.394,631.853 186.846,634.268 182.763,635.148 181.409,633.826 182.438,631.099 
		186.394,631.853 	"/>
	<path fill="#E0393E" d="M253.077,647.221l0.767,2.561l-2.099,1.678c-3.654-1.217-6.813-4.869-7.264-8.354
		C248.238,642.517,249.308,648.143,253.077,647.221"/>
	<polyline fill="#E0393E" points="190.477,649.192 192.451,650.873 190.151,654.314 188.2,653.308 187.14,651.627 186.048,650.703 
		185.617,646.296 186.993,645.247 190.477,649.192 	"/>
	<path fill="#E0393E" d="M242.192,656.918l0.452,1.343l-3.759,2.878c-2.603-0.693-1.229-4.346-1.5-6.488l0.724-2.582
		C241.143,652.258,239.621,656.329,242.192,656.918"/>
	<path fill="#E0393E" d="M246.738,684.879l-0.263-1.218l-4.682-0.714l1.711,5.712l1.9,1.636
		C247.975,688.952,244.732,686.432,246.738,684.879"/>
	<path fill="#E0393E" d="M250.369,717.753l-0.452-1.343h-2.991c-0.734,2.099,1.575,4.198,2.425,6.047l1.553,1.593
		C252.111,722.121,249.551,719.812,250.369,717.753"/>
	<polyline fill="#FFFFFF" points="222.376,664.098 221.63,665.545 220.266,664.559 221.327,663.005 222.376,664.098 	"/>
	<path fill="#FFFFFF" d="M230.803,688.195c-0.125,0.526,0,2.898-2.476,2.773l-1.397-1.599l2.089-2.811L230.803,688.195"/>
	<polyline fill="#FFFFFF" points="206.359,694.032 205.287,694.957 201.656,695.983 202.434,691.575 206.359,694.032 	"/>
	<path fill="#E0393E" d="M254.473,701.673l-2.729,2.52l-3.359,0.379l-1.354-3.359C249.308,699.365,252.195,700.708,254.473,701.673"
		/>
	<polyline fill="#E0393E" points="240.69,704.927 241.143,708.349 238.718,709.063 237.385,704.36 239.316,702.387 240.69,704.927 	
		"/>
	<path fill="#E0393E" d="M216.938,719.602l2.111-0.461l0.452,1.51c-2.563,1.847,1.826,3.82-0.61,5.729
		c-2.404,0.483-3.159-2.37-5.563-1.909c0-2.896-2.152-4.576-3.811-6.844l1.06-1.868C213.18,715.485,215.279,717.88,216.938,719.602"
		/>
	<path fill="#E0393E" d="M248.837,732.657l2.749,4.409h-9.846c0.452-4.995-0.293-7.43,1.188-7.956
		C245.353,729.637,247.807,730.266,248.837,732.657"/>
	<polyline fill="#FFFFFF" points="29.424,961.937 29.424,936.367 42.156,936.367 42.156,939.664 35.166,939.664 35.166,946.277 
		41.893,946.277 41.893,949.634 35.125,949.634 35.125,958.619 42.261,958.619 42.261,961.937 29.424,961.937 	"/>
	<polyline fill="#FFFFFF" points="72.963,936.367 77.297,958.201 77.297,936.367 82.01,936.367 82.01,961.937 73.539,961.937 
		69.026,940.063 69.026,961.937 64.334,961.937 64.334,936.367 72.963,936.367 	"/>
	<polyline fill="#FFFFFF" points="330.654,936.367 335,958.241 335,936.367 339.702,936.367 339.702,961.937 331.231,961.937 
		326.719,940.063 326.719,961.937 322.099,961.937 322.099,936.367 330.654,936.367 	"/>
	<polyline fill="#FFFFFF" points="446.238,936.367 450.604,958.241 450.604,936.367 455.285,936.367 455.285,961.937 
		446.834,961.937 442.301,940.063 442.301,961.937 437.684,961.937 437.684,936.367 446.238,936.367 	"/>
	<polyline fill="#FFFFFF" points="118.358,936.367 118.358,939.664 113.395,939.664 113.395,961.937 107.694,961.937 
		107.694,939.664 102.688,939.664 102.688,936.367 118.358,936.367 	"/>
	<polyline fill="#FFFFFF" points="141.398,961.937 141.398,936.367 154.171,936.367 154.171,939.664 147.117,939.664 
		147.117,946.277 153.889,946.277 153.889,949.634 147.117,949.634 147.117,958.619 154.277,958.619 154.277,961.937 
		141.398,961.937 	"/>
	<path fill="#FFFFFF" d="M183.077,946.948h1.082c1.973,0,2.425-0.714,2.425-1.681v-4.576l-2.173-1.258h-1.334V946.948
		 M177.368,961.937v-25.569h7.515c4.629,0,7.42,1.05,7.42,4.366v3.655c0,1.889-0.839,3.481-5.699,3.817v0.085
		c2.562,0.19,5.249,0.797,5.469,3.106c0.335,3.422,0,6.991,0.944,10.539h-5.719c-0.967-2.938-0.736-6.802-0.714-9.803
		c0-1.49-0.882-2.122-3.507-2.079v11.882H177.368z"/>
	<polyline fill="#FFFFFF" points="230.352,936.367 230.352,939.664 225.387,939.664 225.387,961.937 219.668,961.937 
		219.668,939.664 214.661,939.664 214.661,936.367 230.352,936.367 	"/>
	<path fill="#FFFFFF" d="M261.097,951.65l-1.166-10.624h-0.389l-1.396,10.624H261.097 M255.543,936.367h8.576l4.345,25.569h-5.762
		l-1.049-6.927h-4.063l-1.249,6.927h-5.154L255.543,936.367z"/>
	<rect x="292.091" y="936.367" fill="#FFFFFF" width="5.741" height="25.569"/>
	<polyline fill="#FFFFFF" points="368.104,961.937 364.725,941.069 364.725,961.937 359.717,961.937 359.717,936.367 
		368.147,936.367 370.938,954.862 373.28,936.367 381.749,936.367 381.749,961.937 376.721,961.937 376.721,941.069 
		373.342,961.937 368.104,961.937 	"/>
	<polyline fill="#FFFFFF" points="402.751,961.937 402.751,936.367 415.473,936.367 415.473,939.664 408.473,939.664 
		408.473,946.277 415.178,946.277 415.178,949.634 408.452,949.634 408.452,958.619 415.538,958.619 415.538,961.937 
		402.751,961.937 	"/>
	<polyline fill="#FFFFFF" points="491.655,936.367 491.655,939.664 486.69,939.664 486.69,961.937 480.98,961.937 480.98,939.664 
		475.994,939.664 475.994,936.367 491.655,936.367 	"/>
	<polyline fill="#FFFFFF" points="477.192,755.373 452.252,755.373 452.252,793.41 457.93,793.41 457.93,812.408 471.301,788.497 
		465.247,788.497 477.192,755.373 	"/>
	<path fill="#E0393E" d="M44.045,836.529h15.797l0.021-47.779H44.045V836.529 M29.686,774.392h30.177
		c7.956,0,14.358,6.423,14.358,14.358v43.873c0,6.613-2.917,9.111-6.402,11.085c3.485,1.343,6.402,4.241,6.402,12.804v54.244
		c0,3.843,1.555,6.804,3.506,10.288H62.959c-1.564-2.961-3.118-6.802-3.118-10.288v-59.868H44.045v70.156H29.686V774.392z"/>
	<path fill="#E0393E" d="M170.682,906.686h-14.359v-82.291h14.359V906.686 M170.682,788.54v21.495h-14.359
		c-7.956,0-14.38,6.426-14.38,14.359v82.291c0,7.913,6.424,14.358,14.38,14.358h28.738V788.54H170.682z"/>
	<path fill="#E0393E" d="M230.699,884.937h14.357v21.749h14.381v-55.798h-14.381c-7.934,0-14.357-6.425-14.357-14.358v-41.777
		c0-11.818,9.708-21.538,21.517-21.538c11.902,0,21.58,9.72,21.58,21.538v15.747h-14.358V788.75h-14.381v47.779h14.381
		c7.956,0,14.358,6.359,14.358,14.358v49.793c0,11.839-9.677,21.538-21.58,21.538c-11.809,0-21.517-9.699-21.517-21.538V884.937"/>
	<polyline fill="#E0393E" points="288.133,921.969 288.133,787.908 302.493,787.908 302.493,810.035 316.851,810.035 
		316.851,824.395 302.493,824.395 302.493,921.969 288.133,921.969 	"/>
	<path fill="#E0393E" d="M352.727,906.686H338.37v-82.291h14.357V906.686 M345.569,808.841c-11.861,0-21.58,9.76-21.58,21.578
		v70.262c0,11.839,9.719,21.538,21.537,21.538c11.871,0,21.582-9.699,21.582-21.538v-70.262
		C367.108,818.601,357.397,808.841,345.569,808.841z"/>
	<path fill="#E0393E" d="M380.29,824.395c0-7.934,6.403-14.359,14.359-14.359h14.381v14.359h-14.381v96.649H380.29V824.395"/>
	<path fill="#E0393E" d="M477.317,810.035h-11.944l-11.914,16.248v-16.248h-33.598v111.009h14.337v-96.649h14.381v96.649h14.359
		v-96.649h14.379l-0.042,96.649h14.38v-96.649C491.655,816.461,485.252,810.035,477.317,810.035"/>
	<path fill="#E0393E" d="M129.925,850.99v-20.571c0-11.818-9.698-21.578-21.539-21.578c-9.719,0-18.021,6.61-20.667,15.511h27.751
		v0.043h0.095v12.197H86.817v64.089c0,11.839,9.698,21.538,21.569,21.538c11.84,0,21.539-9.699,21.539-21.538v-15.073h-14.359
		v21.078h-14.359V850.99H129.925"/>
	<path fill="#231F20" d="M567.174,965.463c-1.133-0.693-2.971-0.964-5.5-0.964h-3.915v9.213h4.124l4.39-0.565
		c1.784-0.672,2.665-1.975,2.665-4.008L567.174,965.463 M562.272,961.202c3.223,0,5.596,0.355,7.098,0.987
		c2.686,1.092,4.019,3.273,4.019,6.548c0,2.29-0.86,4.011-2.562,5.123l-3.715,1.26c2.014,0.273,3.527,1.132,4.45,2.521l1.397,3.945
		v1.868l0.063,1.932l0.22,1.362l0.146,0.296h-4.21l-0.094-0.253l-0.063-0.253l-0.084-0.839v-2.015c0-2.98-0.818-4.954-2.467-5.879
		c-0.977-0.606-2.666-0.839-5.101-0.839h-3.611v10.077h-4.534v-25.842H562.272z M548.366,959.92
		c-3.938,3.928-5.91,8.734-5.91,14.318c0,5.627,1.932,10.453,5.846,14.399c3.959,3.947,8.723,5.962,14.402,5.962
		c5.615,0,10.381-2.015,14.337-5.962c3.957-3.946,5.888-8.772,5.888-14.399c0-5.584-1.931-10.391-5.888-14.318
		c-3.956-3.945-8.764-5.982-14.337-5.982C557.12,953.938,552.302,955.975,548.366,959.92z M579.402,990.907
		c-4.616,4.616-10.159,6.903-16.698,6.903c-6.529,0-12.082-2.287-16.658-6.903c-4.555-4.577-6.832-10.184-6.832-16.712
		c0-6.465,2.297-12.006,6.916-16.646c4.535-4.534,10.087-6.823,16.574-6.823c6.539,0,12.082,2.289,16.698,6.823
		c4.588,4.64,6.907,10.181,6.907,16.646C586.309,980.724,583.99,986.268,579.402,990.907z"/>
</g>
</svg>
