<?xml version="1.0" encoding="UTF-8"?>
<svg width="160.517837px" height="30px" viewBox="0 0 160.517837 30" version="1.1" xmlns="http://www.w3.org/2000/svg" xmlns:xlink="http://www.w3.org/1999/xlink">
    <title>retroarch</title>
    <g id="Page-1" stroke="none" stroke-width="1" fill="none" fill-rule="evenodd">
        <g id="System" transform="translate(-20.000000, 0.000000)" fill="#000000">
            <g id="retroarch" transform="translate(20.000000, 0.000000)">
                <line x1="80" y1="30" x2="80" y2="0" id="Path" stroke="#979797" fill-rule="nonzero"></line>
                <g id="Group" transform="translate(0.000000, 2.000000)">
                    <path d="M12.8244971,5.01554244 L14.0495842,6.52142177 L11.2283918,6.54513358 L8.40719946,6.56875557 L7.82890305,8.90284159 L7.25051687,11.2368378 L5.29560211,11.2368378 C4.01324195,11.2368378 3.34068735,11.2049526 3.34068735,11.144236 C3.34068735,11.0933095 3.58306554,10.0841207 3.87930555,8.90158414 C4.17554556,7.71904762 4.41792375,6.70985878 4.41792375,6.65893229 C4.41792375,6.60010186 3.99582662,6.5663305 3.26213886,6.5663305 L2.10635398,6.5663305 L1.02974596,10.8744244 C0.43753525,13.2438985 -0.0253173244,15.2041643 0.00107496746,15.2305706 C0.027557029,15.2569769 1.43604362,15.2786229 3.13125464,15.2786229 C4.82637589,15.2786229 6.21331776,15.3006282 6.21331776,15.3275734 C6.21331776,15.3545187 6.0517323,16.0195271 5.85423896,16.8055195 C5.65674562,17.591512 5.49516016,18.2767293 5.49516016,18.3283744 C5.49516016,18.3916957 6.44474404,18.4222336 8.41599689,18.4222336 L11.3368336,18.4222336 L9.43353644,20.6003067 C8.38673197,21.7982918 7.47000379,22.849156 7.3964824,22.9355604 C7.26972759,23.0844777 7.35671443,23.0927409 9.04959143,23.0922918 L10.8364573,23.0919325 L12.721621,20.7592836 L14.6067847,18.4267245 L19.1586471,18.424479 L23.7104198,18.4222336 L25.6086899,20.7574873 L27.5069599,23.0927409 L29.3021744,23.0927409 L31.0972991,23.0927409 L30.6495278,22.5762906 C30.4032895,22.2922878 29.4926657,21.2514832 28.6259393,20.2634913 L27.0501219,18.4671423 L29.9625203,18.4434305 C31.5643708,18.430407 32.8739312,18.4101981 32.8726745,18.3985218 C32.8715075,18.3868455 32.6943021,17.6801619 32.4789446,16.8279739 L32.0874589,15.2786229 L35.2191646,15.2786229 C37.6661071,15.2786229 38.3503318,15.2541028 38.3482764,15.1663511 C38.3468308,15.1046465 37.8697048,13.1544403 37.2879972,10.8326593 L36.2303306,6.61123922 L35.0562326,6.58626997 L33.8822245,6.5612109 L34.4534291,8.83170617 C34.7675333,10.0804381 35.0257109,11.1324699 35.0269677,11.1694747 C35.0283143,11.2064795 34.1421976,11.2368378 33.0579591,11.2368378 L31.086437,11.2368378 L30.9977445,10.9000224 C30.9489996,10.7148188 30.7232288,9.81547667 30.4960216,8.90158414 C30.2688145,7.98769161 30.0430437,7.08843932 29.9942988,6.90314593 L29.9056063,6.5663305 L27.1261569,6.5663305 C25.5975584,6.5663305 24.3467972,6.54082234 24.3467972,6.50956587 C24.3467972,6.47839922 24.8214994,5.86907765 25.4015912,5.15556785 C25.981683,4.44205804 26.5304451,3.76025379 26.620933,3.64052714 L26.7855706,3.42271982 L25.6163203,3.42271982 L24.4471597,3.42271982 L23.0747605,4.99452516 L21.7023614,6.5663305 L19.173908,6.5663305 L16.6455444,6.5663305 L15.2749406,4.99452516 L13.9044266,3.42271982 L12.7519632,3.42271982 C12.1180993,3.42271982 11.5994998,3.44230003 11.5994998,3.46619147 C11.5994998,3.49008291 12.1507755,4.18733576 12.8244971,5.01554244 Z M10.7441292,10.8609631 L10.7441292,12.8444946 L12.7276607,12.8444946 L14.7111922,12.8444946 L14.7111922,10.8609631 L14.7111922,8.87743155 L12.7276607,8.87743155 L10.7441292,8.87743155 L10.7441292,10.8609631 M23.7197313,10.8609631 L23.7197313,12.8444946 L25.7032628,12.8444946 L27.6867944,12.8444946 L27.6867944,10.8609631 L27.6867944,8.87743155 L25.7032628,8.87743155 L23.7197313,8.87743155 L23.7197313,10.8609631" id="Shape"></path>
                    <path d="M116.971798,0.125692496 C115.932676,0.405205149 115.263317,0.900096267 114.833304,1.70689772 C114.487591,2.35542989 114.402133,2.96958084 114.40139,4.80922369 L114.400728,6.3588577 L113.610043,6.3588577 C112.84316,6.3588577 112.820928,6.36414712 112.874649,6.53324318 C112.905063,6.62911388 113.034736,7.07408612 113.162757,7.52203366 C113.290777,7.96998119 113.419376,8.37503486 113.448468,8.42206109 C113.47756,8.46916996 113.703682,8.50768353 113.951045,8.50768353 L114.400728,8.50768353 L114.400728,16.6897511 L114.400728,24.8718187 L115.392494,24.8718187 L116.38426,24.8718187 L116.38426,16.6897511 L116.38426,8.50768353 L118.078526,8.50768353 L119.772793,8.50768353 L119.772793,16.6897511 L119.772793,24.8718187 L120.765964,24.8718187 L121.759217,24.8718187 L121.737068,13.6111449 L121.715001,2.35047106 L121.476564,1.83417433 C120.939523,0.671494258 119.64064,-0.0146423598 118.005301,0.000237138897 C117.681903,0.0034573655 117.216847,0.05982272 116.971798,0.125692496 M95.0199723,0.24668792 C92.109553,0.696866932 89.3318651,2.50617828 87.6083414,5.07435574 C85.9713494,7.5133557 85.2113262,10.2214548 85.3340572,13.1772474 C85.4737309,16.540821 86.7610429,19.5544665 89.0245003,21.8170975 C90.6106644,23.4026004 92.28898,24.3394058 94.4414423,24.8405781 C95.269732,25.0334765 97.5233544,25.0565351 98.4085054,24.8811578 C104.02066,23.7694711 108.056733,18.237319 107.761187,12.0615109 C107.733996,11.4933117 107.653829,10.6937006 107.583,10.2845972 C106.715288,5.27262625 103.177907,1.36308559 98.6017344,0.358592158 C97.8864233,0.201562578 95.7442919,0.134618388 95.0199723,0.24668792 M145.693831,0.419420458 C142.746303,0.797944393 140.139612,2.4101423 138.466669,4.88939142 C135.837167,8.78620442 135.491371,14.56886 137.631023,18.8635364 C139.102804,21.817676 141.449321,23.7695537 144.442966,24.5299075 C145.194808,24.7208224 146.297816,24.8718187 146.940894,24.8718187 L147.37694,24.8718187 L147.37694,23.8098855 L147.37694,22.7478697 L146.529807,22.6980334 C141.709743,22.4143058 138.203107,18.1939292 138.203107,12.6764883 C138.203107,11.4091769 138.299473,10.6091526 138.584358,9.51300344 C139.651498,5.40568815 142.687706,2.72552381 146.529807,2.49940122 L147.37694,2.44956499 L147.37694,1.38754914 L147.37694,0.325615946 L146.819072,0.336029486 C146.512203,0.341814787 146.005907,0.379336592 145.693831,0.419420458 M41.7538859,12.6718601 L41.7538859,24.8718187 L42.704328,24.8718187 L43.6547702,24.8718187 L43.6547702,22.3924043 L43.6547702,19.9129899 L44.0473442,19.9165437 L44.4399181,19.9201802 L46.588744,22.3900075 L48.7375698,24.8598349 L50.053643,24.8658681 L51.3697988,24.8718187 L51.1983886,24.6858626 C50.5980397,24.0342725 46.4647733,19.2897477 46.4647733,19.2521433 C46.4647733,19.2267706 46.7080865,19.0999072 47.0055335,18.9703992 C49.4970971,17.8849115 51.4312056,15.1040003 51.9693212,11.8331568 C52.1373429,10.811886 52.081804,9.65218123 51.7998119,8.29180919 C50.9636707,4.25854575 48.7993899,1.54771931 45.7622725,0.729843144 C45.2231652,0.584714753 44.7921603,0.544465592 43.4274906,0.511902616 L41.7538859,0.471901397 L41.7538859,12.6718601 M55.6386066,3.42488397 L55.6386066,6.3588577 L54.8479213,6.3588577 C54.0810385,6.3588577 54.0588064,6.36414712 54.112527,6.53324318 C54.1429412,6.62911388 54.2726146,7.07408612 54.400635,7.52203366 C54.5286554,7.96998119 54.6572544,8.37503486 54.6863462,8.42206109 C54.715438,8.46916996 54.9415606,8.50768353 55.1889235,8.50768353 L55.6386066,8.50768353 L55.6386066,16.6897511 L55.6386066,24.8718187 L58.5337362,24.8718187 L61.4288658,24.8718187 L61.4057246,23.8180676 L61.3825833,22.7643165 L59.4610372,22.742167 L57.539491,22.7199349 L57.539491,15.6138506 L57.539491,8.50768353 L59.770964,8.50768353 C61.5499438,8.50768353 62.002437,8.48586469 62.002437,8.39991165 C62.002437,8.30470214 61.5380426,6.88374974 61.382666,6.50349021 C61.3287801,6.37166801 61.1558822,6.3588577 59.4315321,6.3588577 L57.539491,6.3588577 L57.539491,4.45946096 L57.539491,2.56014687 L59.4610372,2.53791479 L61.3825833,2.51576535 L61.4058072,1.5033378 L61.429031,0.490910241 L58.5338188,0.490910241 L55.6386066,0.490910241 L55.6386066,3.42488397 M63.9859685,1.56532316 L63.9859685,2.63973607 L65.1843521,2.63973607 L66.3827358,2.63973607 L66.3827358,13.7557774 L66.3827358,24.8718187 L67.3745015,24.8718187 L68.3662673,24.8718187 L68.3662673,13.7557774 L68.3662673,2.63973607 L69.5646509,2.63973607 L70.7630346,2.63973607 L70.7630346,1.56532316 L70.7630346,0.490910241 L67.3745015,0.490910241 L63.9859685,0.490910241 L63.9859685,1.56532316 M73.0771547,12.6718601 L73.0771547,24.8718187 L74.0275969,24.8718187 L74.9780391,24.8718187 L74.9780391,22.3924043 L74.9780391,19.9129899 L75.370613,19.9165437 L75.763187,19.9201802 L77.9120128,22.3900075 L80.0608387,24.8598349 L81.3769118,24.8658681 L82.6930677,24.8718187 L82.5216575,24.6858626 C81.9213086,24.0342725 77.7880421,19.2897477 77.7880421,19.2521433 C77.7880421,19.2267706 78.0313553,19.0999072 78.3288024,18.9703992 C80.8203659,17.8849115 82.7544745,15.1040003 83.2925901,11.8331568 C83.4606117,10.811886 83.4050728,9.65218123 83.1230808,8.29180919 C82.2869396,4.25854575 80.1226587,1.54771931 77.0855413,0.729843144 C76.546434,0.584714753 76.1154291,0.544465592 74.7507594,0.511902616 L73.0771547,0.471901397 L73.0771547,12.6718601 M123.90515,12.6718601 L123.90515,24.8718187 L124.855593,24.8718187 L125.806035,24.8718187 L125.806035,22.3924043 L125.806035,19.9129899 L126.198609,19.9165437 L126.591183,19.9201802 L128.740008,22.3900075 L130.888834,24.8598349 L132.204907,24.8658681 L133.521063,24.8718187 L133.349653,24.6858626 C132.749304,24.0342725 128.616038,19.2897477 128.616038,19.2521433 C128.616038,19.2267706 128.859351,19.0999072 129.156798,18.9703992 C131.648362,17.8849115 133.58247,15.1040003 134.120586,11.8331568 C134.288607,10.811886 134.233068,9.65218123 133.951076,8.29180919 C133.114935,4.25854575 130.950654,1.54771931 127.913537,0.729843144 C127.37443,0.584714753 126.943425,0.544465592 125.578755,0.511902616 L123.90515,0.471901397 L123.90515,12.6718601 M152.749005,3.42488397 L152.749005,6.3588577 L151.916996,6.3588577 C151.108128,6.3588577 151.086475,6.36373389 151.140278,6.53324318 C151.170692,6.62911388 151.300366,7.07408612 151.428386,7.52203366 C151.556406,7.96998119 151.685005,8.37503486 151.714097,8.42206109 C151.743189,8.46916996 151.987907,8.50768353 152.257998,8.50768353 L152.749005,8.50768353 L152.749005,16.6897511 L152.749005,24.8718187 L153.699447,24.8718187 L154.649889,24.8718187 L154.649889,16.6897511 L154.649889,8.50768353 L156.633421,8.50768353 L158.616952,8.50768353 L158.616952,16.6897511 L158.616952,24.8718187 L159.567394,24.8718187 L160.517837,24.8718187 L160.517837,12.6813645 L160.517837,0.490910241 L159.567394,0.490910241 L158.616952,0.490910241 L158.616952,3.42488397 L158.616952,6.3588577 L156.633421,6.3588577 L154.649889,6.3588577 L154.649889,3.42488397 L154.649889,0.490910241 L153.699447,0.490910241 L152.749005,0.490910241 L152.749005,3.42488397 M117.071471,2.42766349 C116.414178,2.73362323 116.38426,2.83461805 116.38426,4.74310597 L116.38426,6.3588577 L118.078526,6.3588577 L119.772793,6.3588577 L119.772793,4.65368176 L119.772793,2.94850581 L119.495264,2.6867623 C118.961694,2.18360647 117.850751,2.06484252 117.071471,2.42766349 M44.0060206,2.45460646 L43.6547702,2.4839462 L43.6547702,10.0363252 L43.6547702,17.5887041 L44.0407324,17.6466398 C44.6411639,17.7366425 45.5497867,17.5038255 46.5443625,17.00505 C47.2566156,16.6479317 47.527037,16.4542894 48.077467,15.9074132 C49.4670962,14.5267926 50.1258766,12.9774066 50.2399296,10.8218037 C50.3943972,7.90171465 48.6091361,4.21523864 46.4440288,2.98354821 C45.7446687,2.58560219 44.8255497,2.38625727 44.0060206,2.45460646 M75.3292895,2.45460646 L74.9780391,2.4839462 L74.9780391,10.0363252 L74.9780391,17.5887041 L75.3640013,17.6466398 C75.9644328,17.7366425 76.8730555,17.5038255 77.8676313,17.00505 C78.5798844,16.6479317 78.8503059,16.4542894 79.4007359,15.9074132 C80.790365,14.5267926 81.4491454,12.9774066 81.5631985,10.8218037 C81.717666,7.90171465 79.932405,4.21523864 77.7672977,2.98354821 C77.0679375,2.58560219 76.1488186,2.38625727 75.3292895,2.45460646 M95.1462572,2.48609503 C92.3291465,2.95288611 89.7320425,4.99022094 88.3656373,7.80518278 C87.6077629,9.3663874 87.2931252,10.7872572 87.2927116,12.6498759 C87.2922988,14.5769594 87.5923079,15.8895614 88.4143991,17.5575462 C89.7514646,20.2705214 92.1191401,22.1665296 94.8859187,22.7400182 C96.0240525,22.9759758 97.7603038,22.9160566 98.8217411,22.6043116 C102.216307,21.6072564 104.760187,18.7155154 105.570872,14.9321769 C105.810136,13.815118 105.832203,11.6430684 105.615254,10.5588204 C104.91077,7.03879578 102.606154,4.10308646 99.6489564,2.95875406 C98.3189985,2.44411027 96.5316713,2.25650125 95.1462572,2.48609503 M126.157285,2.45460646 L125.806035,2.4839462 L125.806035,10.0363252 L125.806035,17.5887041 L126.191997,17.6466398 C126.792428,17.7366425 127.701051,17.5038255 128.695627,17.00505 C129.40788,16.6479317 129.678302,16.4542894 130.228732,15.9074132 C131.618361,14.5267926 132.277141,12.9774066 132.391194,10.8218037 C132.545662,7.90171465 130.760401,4.21523864 128.595293,2.98354821 C127.895933,2.58560219 126.976814,2.38625727 126.157285,2.45460646" id="Shape"></path>
                </g>
            </g>
        </g>
    </g>
</svg>