<?xml version="1.0" encoding="UTF-8"?>
<svg width="160.087515px" height="30px" viewBox="0 0 160.087515 30" version="1.1" xmlns="http://www.w3.org/2000/svg" xmlns:xlink="http://www.w3.org/1999/xlink">
    <title>sega model 1</title>
    <g id="Page-1" stroke="none" stroke-width="1" fill="none" fill-rule="evenodd">
        <g id="System" transform="translate(-19.961000, 0.000000)" fill="#000000">
            <g id="sega-model-1" transform="translate(19.961000, 0.000000)">
                <line x1="80.039" y1="30" x2="80.039" y2="0" id="Path" stroke="#979797" fill-rule="nonzero"></line>
                <path d="M50.397,25 L50.397,22.615 L58.858,22.615 L53.68,8.242 L53.68,8.242 C53.6386667,8.106 53.5163333,7.98366667 53.313,7.875 L53.313,7.875 L53.313,7.875 C53.109,7.76633333 52.9116667,7.712 52.721,7.712 L52.721,7.712 L52.721,7.712 C52.5036667,7.712 52.3033333,7.76633333 52.12,7.875 L52.12,7.875 L52.12,7.875 C51.9366667,7.98366667 51.8246667,8.106 51.784,8.242 L51.784,8.242 L45.892,25 L43.18,25 L49.48,7.222 L49.48,7.222 C49.5753333,6.93666667 49.7113333,6.66166667 49.888,6.397 L49.888,6.397 L49.888,6.397 C50.0646667,6.13166667 50.2853333,5.89366667 50.55,5.683 L50.55,5.683 L50.55,5.683 C50.8153333,5.47233333 51.128,5.30566667 51.488,5.183 L51.488,5.183 L51.488,5.183 C51.848,5.061 52.259,5 52.721,5 L52.721,5 L52.721,5 C53.1836667,5 53.5916667,5.061 53.945,5.183 L53.945,5.183 L53.945,5.183 C54.2983333,5.30566667 54.6073333,5.47233333 54.872,5.683 L54.872,5.683 L54.872,5.683 C55.1373333,5.89366667 55.3583333,6.13166667 55.535,6.397 L55.535,6.397 L55.535,6.397 C55.7116667,6.66166667 55.8543333,6.93666667 55.963,7.222 L55.963,7.222 L62.263,25 L50.397,25 L50.397,25 Z M34.781,18.843 L34.781,18.843 L37.023,18.843 L37.023,18.843 C37.1183333,18.843 37.1896667,18.8023333 37.237,18.721 L37.237,18.721 L37.237,18.721 C37.285,18.639 37.309,18.5506667 37.309,18.456 L37.309,18.456 L37.309,18.456 C37.309,18.3473333 37.285,18.252 37.237,18.17 L37.237,18.17 L37.237,18.17 C37.1896667,18.0886667 37.1183333,18.048 37.023,18.048 L37.023,18.048 L34.944,18.048 L34.944,15.336 L40.306,15.336 L40.306,21.555 L34.719,21.555 L34.719,21.555 C34.2436667,21.555 33.8293333,21.4596667 33.476,21.269 L33.476,21.269 L33.476,21.269 C33.1226667,21.079 32.8303333,20.8343333 32.599,20.535 L32.599,20.535 L32.599,20.535 C32.3683333,20.2363333 32.195,19.9 32.079,19.526 L32.079,19.526 L32.079,19.526 C31.9636667,19.152 31.906,18.7883333 31.906,18.435 L31.906,18.435 L31.906,11.565 L31.906,11.565 C31.906,11.2116667 31.9636667,10.848 32.079,10.474 L32.079,10.474 L32.079,10.474 C32.195,10.1 32.3683333,9.76366667 32.599,9.465 L32.599,9.465 L32.599,9.465 C32.8303333,9.16566667 33.1226667,8.921 33.476,8.731 L33.476,8.731 L33.476,8.731 C33.8293333,8.54033333 34.2436667,8.445 34.719,8.445 L34.719,8.445 L43.302,8.445 L43.302,11.157 L34.781,11.157 L34.781,11.157 C34.699,11.157 34.614,11.2046667 34.526,11.3 L34.526,11.3 L34.526,11.3 C34.4373333,11.3946667 34.393,11.5236667 34.393,11.687 L34.393,11.687 L34.393,18.313 L34.393,18.313 C34.393,18.4763333 34.4373333,18.6053333 34.526,18.7 L34.526,18.7 L34.526,18.7 C34.614,18.7953333 34.699,18.843 34.781,18.843 L34.781,18.843 Z M43.302,11.972 L43.302,25 L34.128,25 L34.128,25 C33.394,25 32.684,24.8403333 31.998,24.521 L31.998,24.521 L31.998,24.521 C31.3113333,24.2016667 30.7063333,23.7666667 30.183,23.216 L30.183,23.216 L30.183,23.216 C29.6596667,22.6653333 29.2416667,22.013 28.929,21.259 L28.929,21.259 L28.929,21.259 C28.6163333,20.5043333 28.46,19.699 28.46,18.843 L28.46,18.843 L28.46,11.157 L28.46,11.157 C28.46,10.301 28.6163333,9.49566667 28.929,8.741 L28.929,8.741 L28.929,8.741 C29.2416667,7.987 29.6596667,7.33466667 30.183,6.784 L30.183,6.784 L30.183,6.784 C30.7063333,6.23333333 31.3113333,5.79833333 31.998,5.479 L31.998,5.479 L31.998,5.479 C32.684,5.15966667 33.394,5 34.128,5 L34.128,5 L43.302,5 L43.302,7.712 L34.454,7.712 L34.454,7.712 C33.938,7.712 33.476,7.81366667 33.068,8.017 L33.068,8.017 L33.068,8.017 C32.66,8.221 32.3166667,8.486 32.038,8.812 L32.038,8.812 L32.038,8.812 C31.76,9.13866667 31.546,9.50933333 31.396,9.924 L31.396,9.924 L31.396,9.924 C31.2466667,10.338 31.172,10.749 31.172,11.157 L31.172,11.157 L31.172,18.843 L31.172,18.843 C31.172,19.251 31.2466667,19.662 31.396,20.076 L31.396,20.076 L31.396,20.076 C31.546,20.4906667 31.76,20.8613333 32.038,21.188 L32.038,21.188 L32.038,21.188 C32.3166667,21.514 32.66,21.779 33.068,21.983 L33.068,21.983 L33.068,21.983 C33.476,22.1863333 33.938,22.288 34.454,22.288 L34.454,22.288 L41.019,22.288 L41.019,14.664 L34.944,14.664 L34.944,11.972 L43.302,11.972 L43.302,11.972 Z M13.435,11.157 L6.789,11.177 L6.789,11.177 C6.68033333,11.177 6.59533333,11.211 6.534,11.279 L6.534,11.279 L6.534,11.279 C6.47266667,11.347 6.442,11.4286667 6.442,11.524 L6.442,11.524 L6.442,11.524 C6.442,11.6053333 6.46233333,11.6833333 6.503,11.758 L6.503,11.758 L6.503,11.758 C6.54366667,11.8333333 6.605,11.8776667 6.687,11.891 L6.687,11.891 L6.687,11.891 C6.72766667,11.9043333 6.88733333,11.9416667 7.166,12.003 L7.166,12.003 L7.166,12.003 C7.44466667,12.0643333 7.76066667,12.1356667 8.114,12.217 L8.114,12.217 L8.114,12.217 C8.46733333,12.2983333 8.824,12.39 9.184,12.492 L9.184,12.492 L9.184,12.492 C9.54466667,12.594 9.82,12.6926667 10.01,12.788 L10.01,12.788 L10.01,12.788 C10.418,13.0193333 10.819,13.298 11.213,13.624 L11.213,13.624 L11.213,13.624 C11.607,13.95 11.9603333,14.3406667 12.273,14.796 L12.273,14.796 L12.273,14.796 C12.5856667,15.2513333 12.837,15.7813333 13.027,16.386 L13.027,16.386 L13.027,16.386 C13.2176667,16.9913333 13.313,17.6813333 13.313,18.456 L13.313,18.456 L13.313,18.456 C13.313,19.38 13.1463333,20.2396667 12.813,21.035 L12.813,21.035 L12.813,21.035 C12.4803333,21.8296667 12.0283333,22.5193333 11.457,23.104 L11.457,23.104 L11.457,23.104 C10.8863333,23.6886667 10.2103333,24.1506667 9.429,24.49 L9.429,24.49 L9.429,24.49 C8.64766667,24.83 7.80833333,25 6.911,25 L6.911,25 L0,25 L0,22.288 L6.911,22.288 L6.911,22.288 C7.48166667,22.288 8.00166667,22.193 8.471,22.003 L8.471,22.003 L8.471,22.003 C8.93966667,21.813 9.344,21.548 9.684,21.208 L9.684,21.208 L9.684,21.208 C10.0233333,20.868 10.285,20.4636667 10.469,19.995 L10.469,19.995 L10.469,19.995 C10.6523333,19.5263333 10.744,19.0133333 10.744,18.456 L10.744,18.456 L10.744,18.456 C10.744,17.7493333 10.615,17.1716667 10.357,16.723 L10.357,16.723 L10.357,16.723 C10.0983333,16.2743333 9.77866667,15.9173333 9.398,15.652 L9.398,15.652 L9.398,15.652 C9.01733333,15.3873333 8.60633333,15.1903333 8.165,15.061 L8.165,15.061 L8.165,15.061 C7.723,14.9316667 7.31866667,14.8263333 6.952,14.745 L6.952,14.745 L6.952,14.745 C6.544,14.6636667 6.14633333,14.5516667 5.759,14.409 L5.759,14.409 L5.759,14.409 C5.37166667,14.2663333 5.02866667,14.0726667 4.73,13.828 L4.73,13.828 L4.73,13.828 C4.43066667,13.5833333 4.18933333,13.2773333 4.006,12.91 L4.006,12.91 L4.006,12.91 C3.82266667,12.5433333 3.731,12.088 3.731,11.544 L3.731,11.544 L3.731,11.544 C3.731,11.028 3.80566667,10.5763333 3.955,10.189 L3.955,10.189 L3.955,10.189 C4.10433333,9.80166667 4.31166667,9.47866667 4.577,9.22 L4.577,9.22 L4.577,9.22 C4.84166667,8.962 5.15433333,8.76833333 5.515,8.639 L5.515,8.639 L5.515,8.639 C5.875,8.50966667 6.26566667,8.445 6.687,8.445 L6.687,8.445 L13.435,8.445 L13.435,11.157 L13.435,11.157 Z M13.435,7.712 L6.687,7.712 L6.687,7.712 C6.12966667,7.712 5.62333333,7.807 5.168,7.997 L5.168,7.997 L5.168,7.997 C4.71266667,8.187 4.32533333,8.452 4.006,8.792 L4.006,8.792 L4.006,8.792 C3.68666667,9.132 3.43866667,9.53633333 3.262,10.005 L3.262,10.005 L3.262,10.005 C3.08533333,10.4736667 2.997,10.9866667 2.997,11.544 L2.997,11.544 L2.997,11.544 C2.997,12.1286667 3.09866667,12.6383333 3.302,13.073 L3.302,13.073 L3.302,13.073 C3.506,13.5083333 3.76766667,13.8823333 4.087,14.195 L4.087,14.195 L4.087,14.195 C4.407,14.5076667 4.764,14.7556667 5.158,14.939 L5.158,14.939 L5.158,14.939 C5.552,15.1223333 5.93933333,15.248 6.32,15.316 L6.32,15.316 L6.32,15.316 C6.68666667,15.384 7.08766667,15.4756667 7.523,15.591 L7.523,15.591 L7.523,15.591 C7.95766667,15.707 8.35866667,15.877 8.726,16.101 L8.726,16.101 L8.726,16.101 C9.09266667,16.325 9.39833333,16.6273333 9.643,17.008 L9.643,17.008 L9.643,17.008 C9.88766667,17.3886667 10.01,17.8713333 10.01,18.456 L10.01,18.456 L10.01,18.456 C10.01,18.972 9.92833333,19.4236667 9.765,19.811 L9.765,19.811 L9.765,19.811 C9.60233333,20.1983333 9.378,20.5213333 9.092,20.78 L9.092,20.78 L9.092,20.78 C8.80666667,21.038 8.47733333,21.2316667 8.104,21.361 L8.104,21.361 L8.104,21.361 C7.73,21.4903333 7.33233333,21.555 6.911,21.555 L6.911,21.555 L0,21.555 L0,18.843 L6.666,18.843 L6.666,18.843 C6.77533333,18.843 6.86033333,18.8056667 6.921,18.731 L6.921,18.731 L6.921,18.731 C6.98233333,18.6563333 7.013,18.578 7.013,18.496 L7.013,18.496 L7.013,18.496 C7.013,18.306 6.93133333,18.177 6.768,18.109 L6.768,18.109 L6.768,18.109 C6.72733333,18.0956667 6.56433333,18.0616667 6.279,18.007 L6.279,18.007 L6.279,18.007 C5.99366667,17.953 5.671,17.885 5.311,17.803 L5.311,17.803 L5.311,17.803 C4.95033333,17.7216667 4.59333333,17.63 4.24,17.528 L4.24,17.528 L4.24,17.528 C3.88666667,17.426 3.615,17.3206667 3.425,17.212 L3.425,17.212 L3.425,17.212 C3.031,16.9946667 2.64366667,16.723 2.263,16.397 L2.263,16.397 L2.263,16.397 C1.88233333,16.0703333 1.546,15.6793333 1.254,15.224 L1.254,15.224 L1.254,15.224 C0.961333333,14.7686667 0.726666667,14.2386667 0.55,13.634 L0.55,13.634 L0.55,13.634 C0.373333333,13.0293333 0.285,12.3326667 0.285,11.544 L0.285,11.544 L0.285,11.544 C0.285,10.6333333 0.451666667,9.77733333 0.785,8.976 L0.785,8.976 L0.785,8.976 C1.11766667,8.174 1.56933333,7.48066667 2.14,6.896 L2.14,6.896 L2.14,6.896 C2.71133333,6.31133333 3.38766667,5.84933333 4.169,5.51 L4.169,5.51 L4.169,5.51 C4.95033333,5.17 5.78966667,5 6.687,5 L6.687,5 L13.435,5 L13.435,7.712 L13.435,7.712 Z M14.189,18.843 L14.189,11.157 L14.189,11.157 C14.189,10.301 14.3453333,9.49566667 14.658,8.741 L14.658,8.741 L14.658,8.741 C14.9706667,7.987 15.3886667,7.33466667 15.912,6.784 L15.912,6.784 L15.912,6.784 C16.4353333,6.23333333 17.0403333,5.79833333 17.727,5.479 L17.727,5.479 L17.727,5.479 C18.413,5.15966667 19.123,5 19.857,5 L19.857,5 L27.584,5 L27.584,7.712 L20.183,7.712 L20.183,7.712 C19.667,7.712 19.205,7.81366667 18.797,8.017 L18.797,8.017 L18.797,8.017 C18.389,8.221 18.0456667,8.486 17.767,8.812 L17.767,8.812 L17.767,8.812 C17.4883333,9.13866667 17.2743333,9.50933333 17.125,9.924 L17.125,9.924 L17.125,9.924 C16.9756667,10.338 16.901,10.749 16.901,11.157 L16.901,11.157 L16.901,18.843 L16.901,18.843 C16.901,19.251 16.9756667,19.662 17.125,20.076 L17.125,20.076 L17.125,20.076 C17.2743333,20.4906667 17.4883333,20.8613333 17.767,21.188 L17.767,21.188 L17.767,21.188 C18.0456667,21.514 18.389,21.779 18.797,21.983 L18.797,21.983 L18.797,21.983 C19.205,22.1863333 19.667,22.288 20.183,22.288 L20.183,22.288 L27.584,22.288 L27.584,25 L19.857,25 L19.857,25 C19.123,25 18.413,24.8403333 17.727,24.521 L17.727,24.521 L17.727,24.521 C17.0403333,24.2016667 16.4353333,23.7666667 15.912,23.216 L15.912,23.216 L15.912,23.216 C15.3886667,22.6653333 14.9706667,22.013 14.658,21.259 L14.658,21.259 L14.658,21.259 C14.3453333,20.5043333 14.189,19.699 14.189,18.843 L14.189,18.843 L14.189,18.843 Z M26.034,14.664 L17.635,14.664 L17.635,11.565 L17.635,11.565 C17.635,11.2116667 17.6926667,10.848 17.808,10.474 L17.808,10.474 L17.808,10.474 C17.9233333,10.1 18.0966667,9.76366667 18.328,9.465 L18.328,9.465 L18.328,9.465 C18.5593333,9.16566667 18.8516667,8.921 19.205,8.731 L19.205,8.731 L19.205,8.731 C19.5583333,8.54033333 19.9726667,8.445 20.448,8.445 L20.448,8.445 L27.584,8.445 L27.584,11.157 L20.509,11.157 L20.509,11.157 C20.4276667,11.157 20.343,11.2046667 20.255,11.3 L20.255,11.3 L20.255,11.3 C20.1663333,11.3946667 20.122,11.5236667 20.122,11.687 L20.122,11.687 L20.122,11.972 L26.034,11.972 L26.034,14.664 L26.034,14.664 Z M17.635,18.435 L17.635,15.336 L26.034,15.336 L26.034,18.048 L20.122,18.048 L20.122,18.313 L20.122,18.313 C20.122,18.4763333 20.1663333,18.6053333 20.255,18.7 L20.255,18.7 L20.255,18.7 C20.343,18.7953333 20.4276667,18.843 20.509,18.843 L20.509,18.843 L27.584,18.843 L27.584,21.555 L20.448,21.555 L20.448,21.555 C19.9726667,21.555 19.5583333,21.4596667 19.205,21.269 L19.205,21.269 L19.205,21.269 C18.8516667,21.079 18.5593333,20.8343333 18.328,20.535 L18.328,20.535 L18.328,20.535 C18.0966667,20.2363333 17.9233333,19.9 17.808,19.526 L17.808,19.526 L17.808,19.526 C17.6926667,19.152 17.635,18.7883333 17.635,18.435 L17.635,18.435 L17.635,18.435 Z M54.414,19.455 L52.721,14.317 L51.09,19.455 L54.414,19.455 L54.414,19.455 Z M57.879,21.881 L50.397,21.881 L50.397,21.106 L49.092,25 L46.626,25 L52.232,8.751 L52.232,8.751 C52.2593333,8.66966667 52.324,8.59833333 52.426,8.537 L52.426,8.537 L52.426,8.537 C52.528,8.47566667 52.6263333,8.445 52.721,8.445 L52.721,8.445 L52.721,8.445 C52.8163333,8.445 52.9183333,8.47566667 53.027,8.537 L53.027,8.537 L53.027,8.537 C53.1356667,8.59833333 53.2036667,8.66966667 53.231,8.751 L53.231,8.751 L57.879,21.881 L57.879,21.881 Z" id="Shape"></path>
                <path d="M80.5971989,4.8895 C81.0457208,4.8895 81.4500701,4.95066208 81.8102468,5.07298624 C82.1704235,5.1953104 82.4830297,5.36180717 82.7480654,5.57247655 C83.0131011,5.78314594 83.237362,6.02099847 83.4208483,6.28603415 C83.6043345,6.55106983 83.7436481,6.82629918 83.8387891,7.11172222 L90.1384833,24.8895 L87.4269645,24.8895 L81.5554048,8.13109021 C81.5146301,7.99517448 81.392306,7.87285032 81.1884324,7.76411774 C80.9845588,7.65538515 80.7874809,7.60101886 80.5971989,7.60101886 C80.3797338,7.60101886 80.1826559,7.65538515 80.0059655,7.76411774 C79.829275,7.87285032 79.7137467,7.99517448 79.6593804,8.13109021 L76.7439879,15.939449 L73.8285955,8.13109021 C73.7742292,7.99517448 73.6587008,7.87285032 73.4820103,7.76411774 C73.3053199,7.65538515 73.1082421,7.60101886 72.8907769,7.60101886 C72.7004949,7.60101886 72.5034171,7.65538515 72.2995435,7.76411774 C72.0956699,7.87285032 71.9733457,7.99517448 71.932571,8.13109021 L66.0610114,24.8895 L63.3494925,24.8895 L69.6491867,7.11172222 C69.7579193,6.82629918 69.9006308,6.55106983 70.0773212,6.28603415 C70.2540117,6.02099847 70.4748748,5.78314594 70.7399104,5.57247655 C71.0049461,5.36180717 71.3141544,5.1953104 71.6675353,5.07298624 C72.0209162,4.95066208 72.4286634,4.8895 72.8907769,4.8895 C73.3528904,4.8895 73.7538418,4.95066208 74.0936311,5.07298624 C74.4334205,5.1953104 74.7324351,5.36180717 74.990675,5.57247655 C75.2489149,5.78314594 75.4697779,6.02099847 75.6532642,6.28603415 C75.8367504,6.55106983 75.9964514,6.82629918 76.1323671,7.11172222 L76.7439879,8.33496381 L77.3556087,7.11172222 C77.505116,6.82629918 77.6716128,6.55106983 77.855099,6.28603415 C78.0385853,6.02099847 78.2560504,5.78314594 78.5074945,5.57247655 C78.7589386,5.36180717 79.0545554,5.1953104 79.3943447,5.07298624 C79.734134,4.95066208 80.1350854,4.8895 80.5971989,4.8895 Z M80.5971989,8.33496381 C80.6923399,8.33496381 80.7942767,8.36554485 80.9030093,8.42670693 C81.0117419,8.48786901 81.0796998,8.55922477 81.1068829,8.64077421 L86.6930195,24.8895 L84.0834375,24.8895 L80.5971989,14.6142706 L76.7439879,24.8895 L72.8907769,14.6142706 L69.5064752,24.8895 L66.7949563,24.8895 L72.3810929,8.64077421 C72.4082761,8.55922477 72.4762339,8.48786901 72.5849665,8.42670693 C72.6936991,8.36554485 72.7956359,8.33496381 72.8907769,8.33496381 C72.9859179,8.33496381 73.0844568,8.36554485 73.1863936,8.42670693 C73.2883304,8.48786901 73.3528904,8.55922477 73.3800735,8.64077421 L76.7439879,17.9170229 L80.1079023,8.64077421 C80.1350854,8.55922477 80.1996454,8.48786901 80.3015822,8.42670693 C80.403519,8.36554485 80.5020579,8.33496381 80.5971989,8.33496381 Z M97.3352214,4.8895 C98.3274062,4.8895 99.1802774,4.99823259 99.893835,5.21569776 C100.607393,5.43316293 101.195228,5.78654383 101.657342,6.27584047 C102.119455,6.7651371 102.459244,7.40054315 102.67671,8.18205861 C102.894175,8.96357407 103.002907,9.91838209 103.002907,11.0464827 L103.002907,18.7325173 C103.002907,19.8198432 102.894175,20.7542638 102.67671,21.5357793 C102.459244,22.3172948 102.119455,22.9560987 101.657342,23.4521911 C101.195228,23.9482836 100.607393,24.3118581 99.893835,24.5429149 C99.1802774,24.7739716 98.3274062,24.8895 97.3352214,24.8895 L94.7256393,24.8895 C93.747046,24.8895 92.9043685,24.7739716 92.1976067,24.5429149 C91.4908449,24.3118581 90.9030093,23.9482836 90.4341,23.4521911 C89.9651908,22.9560987 89.6186057,22.3172948 89.3943447,21.5357793 C89.1700837,20.7542638 89.0579533,19.8198432 89.0579533,18.7325173 L89.0579533,11.0464827 C89.0579533,9.91838209 89.1700837,8.96357407 89.3943447,8.18205861 C89.6186057,7.40054315 89.9651908,6.7651371 90.4341,6.27584047 C90.9030093,5.78654383 91.4908449,5.43316293 92.1976067,5.21569776 C92.9043685,4.99823259 93.747046,4.8895 94.7256393,4.8895 L97.3352214,4.8895 Z M97.600257,7.60101886 L94.4606036,7.60101886 C93.9441238,7.60101886 93.5057956,7.67237462 93.1456189,7.81508614 C92.7854422,7.95779766 92.4932234,8.15827336 92.2689624,8.41651325 C92.0447015,8.67475314 91.8816026,8.98056354 91.7796658,9.33394444 C91.677729,9.68732535 91.6267606,10.0678894 91.6267606,10.4756366 L91.6267606,19.3033634 C91.6267606,19.7111106 91.677729,20.0916747 91.7796658,20.4450556 C91.8816026,20.7984365 92.0447015,21.1042469 92.2689624,21.3624867 C92.4932234,21.6207266 92.7820443,21.8212023 93.1354252,21.9639139 C93.4888061,22.1066254 93.9237365,22.1779811 94.4402163,22.1779811 L97.6206444,22.1779811 C98.1371242,22.1779811 98.5720545,22.1066254 98.9254354,21.9639139 C99.2788163,21.8212023 99.5676373,21.6207266 99.7918982,21.3624867 C100.016159,21.1042469 100.179258,20.7984365 100.281195,20.4450556 C100.383132,20.0916747 100.4341,19.7111106 100.4341,19.3033634 L100.4341,10.4756366 C100.4341,10.0678894 100.383132,9.68732535 100.281195,9.33394444 C100.179258,8.98056354 100.016159,8.67475314 99.7918982,8.41651325 C99.5676373,8.15827336 99.2754184,7.95779766 98.9152417,7.81508614 C98.555065,7.67237462 98.1167368,7.60101886 97.600257,7.60101886 Z M97.3352214,8.33496381 C97.8109264,8.33496381 98.2016841,8.39952379 98.5074945,8.52864373 C98.8133049,8.65776368 99.0545554,8.83785202 99.2312458,9.06890877 C99.4079363,9.29996551 99.5302604,9.57179698 99.5982183,9.88440316 C99.6661762,10.1970093 99.7001551,10.5300029 99.7001551,10.8833838 L99.7001551,18.8956162 C99.7001551,19.3713213 99.6661762,19.7688748 99.5982183,20.0882768 C99.5302604,20.4076787 99.4113342,20.6693165 99.2414395,20.8731901 C99.0715448,21.0770637 98.8336923,21.2231731 98.5278819,21.3115183 C98.2220715,21.3998636 97.8313138,21.4440362 97.3556087,21.4440362 L94.7052519,21.4440362 C94.2295469,21.4440362 93.8387891,21.3998636 93.5329787,21.3115183 C93.2271683,21.2231731 92.9893158,21.0770637 92.8194211,20.8731901 C92.6495265,20.6693165 92.5306002,20.4076787 92.4626423,20.0882768 C92.3946845,19.7688748 92.3607056,19.3713213 92.3607056,18.8956162 L92.3607056,10.8833838 C92.3607056,10.5300029 92.3946845,10.1970093 92.4626423,9.88440316 C92.5306002,9.57179698 92.6529244,9.29996551 92.8296148,9.06890877 C93.0063053,8.83785202 93.2475557,8.65776368 93.5533661,8.52864373 C93.8591765,8.39952379 94.2499342,8.33496381 94.7256393,8.33496381 L97.3352214,8.33496381 Z M96.6828258,11.0464827 L95.3780348,11.0464827 C95.2149359,11.0464827 95.1096012,11.0940532 95.0620307,11.1891942 C95.0144602,11.2843352 94.990675,11.4134551 94.990675,11.576554 L94.990675,18.202446 C94.990675,18.3655449 95.0144602,18.4946648 95.0620307,18.5898058 C95.1096012,18.6849468 95.2149359,18.7325173 95.3780348,18.7325173 L96.6828258,18.7325173 C96.8459247,18.7325173 96.9512594,18.6849468 96.9988299,18.5898058 C97.0464004,18.4946648 97.0701857,18.3655449 97.0701857,18.202446 L97.0701857,11.576554 C97.0701857,11.4134551 97.0464004,11.2843352 96.9988299,11.1891942 C96.9512594,11.0940532 96.8459247,11.0464827 96.6828258,11.0464827 Z M112.01412,22.1779811 C112.5306,22.1779811 112.965531,22.1066254 113.318911,21.9639139 C113.672292,21.8212023 113.961113,21.6207266 114.185374,21.3624867 C114.409635,21.1042469 114.572734,20.7984365 114.674671,20.4450556 C114.776608,20.0916747 114.827576,19.7111106 114.827576,19.3033634 L114.827576,10.4756366 C114.827576,10.0678894 114.776608,9.68732535 114.674671,9.33394444 C114.572734,8.98056354 114.409635,8.67475314 114.185374,8.41651325 C113.961113,8.15827336 113.668894,7.95779766 113.308718,7.81508614 C112.948541,7.67237462 112.510213,7.60101886 111.993733,7.60101886 L103.879564,7.60101886 L103.879564,4.8895 L111.728697,4.8895 C112.720882,4.8895 113.573753,4.99823259 114.287311,5.21569776 C115.000869,5.43316293 115.588704,5.78654383 116.050818,6.27584047 C116.512931,6.7651371 116.852721,7.40054315 117.070186,8.18205861 C117.287651,8.96357407 117.396383,9.91838209 117.396383,11.0464827 L117.396383,18.7325173 C117.396383,19.8198432 117.287651,20.7542638 117.070186,21.5357793 C116.852721,22.3172948 116.512931,22.9560987 116.050818,23.4521911 C115.588704,23.9482836 115.000869,24.3118581 114.287311,24.5429149 C113.573753,24.7739716 112.720882,24.8895 111.728697,24.8895 L103.879564,24.8895 L103.879564,11.6988782 L106.448371,11.6988782 L106.448371,22.1779811 L112.01412,22.1779811 Z M103.879564,11.0464827 L103.879564,8.33496381 L111.728697,8.33496381 C112.204402,8.33496381 112.59516,8.39952379 112.900971,8.52864373 C113.206781,8.65776368 113.448031,8.83785202 113.624722,9.06890877 C113.801412,9.29996551 113.923736,9.57179698 113.991694,9.88440316 C114.059652,10.1970093 114.093631,10.5300029 114.093631,10.8833838 L114.093631,18.8956162 C114.093631,19.3713213 114.059652,19.7688748 113.991694,20.0882768 C113.923736,20.4076787 113.80481,20.6693165 113.634916,20.8731901 C113.465021,21.0770637 113.227168,21.2231731 112.921358,21.3115183 C112.615548,21.3998636 112.22479,21.4440362 111.749085,21.4440362 L107.182316,21.4440362 L107.182316,11.6988782 L110.036547,11.6988782 L110.036547,18.202446 C110.036547,18.5558269 110.206441,18.7325173 110.546231,18.7325173 L110.994752,18.7325173 C111.157851,18.7325173 111.290369,18.6849468 111.392306,18.5898058 C111.494243,18.4946648 111.545211,18.3655449 111.545211,18.202446 L111.545211,11.576554 C111.545211,11.4134551 111.494243,11.2843352 111.392306,11.1891942 C111.290369,11.0940532 111.157851,11.0464827 110.994752,11.0464827 L103.879564,11.0464827 Z M118.171103,11.0464827 C118.171103,10.1902136 118.327406,9.38491284 118.640012,8.63058053 C118.952619,7.87624822 119.370559,7.2238527 119.893835,6.67339399 C120.417111,6.12293527 121.021936,5.68800493 121.70831,5.36860296 C122.394684,5.04920099 123.104844,4.8895 123.838789,4.8895 L131.565599,4.8895 L131.565599,7.60101886 L124.164987,7.60101886 C123.648507,7.60101886 123.186394,7.70295566 122.778646,7.90682926 C122.370899,8.11070285 122.027712,8.37573853 121.749085,8.70193629 C121.470458,9.02813405 121.25639,9.39850442 121.106883,9.8130474 C120.957376,10.2275904 120.882622,10.6387355 120.882622,11.0464827 L120.882622,18.7325173 C120.882622,19.1402645 120.957376,19.5514096 121.106883,19.9659526 C121.25639,20.3804956 121.470458,20.750866 121.749085,21.0770637 C122.027712,21.4032615 122.370899,21.6682971 122.778646,21.8721707 C123.186394,22.0760443 123.648507,22.1779811 124.164987,22.1779811 L131.565599,22.1779811 L131.565599,24.8895 L123.838789,24.8895 C123.104844,24.8895 122.394684,24.729799 121.70831,24.410397 C121.021936,24.0909951 120.417111,23.6560647 119.893835,23.105606 C119.370559,22.5551473 118.952619,21.9027518 118.640012,21.1484195 C118.327406,20.3940872 118.171103,19.5887864 118.171103,18.7325173 L118.171103,11.0464827 Z M121.616567,14.5531086 L121.616567,11.4542299 C121.616567,11.100849 121.674331,10.7372744 121.789859,10.3635061 C121.905388,9.98973785 122.07868,9.65334642 122.309737,9.3543318 C122.540794,9.05531719 122.833013,8.81066888 123.186394,8.62038685 C123.539775,8.43010483 123.954318,8.33496381 124.430023,8.33496381 L131.565599,8.33496381 L131.565599,11.0464827 L124.491185,11.0464827 C124.409635,11.0464827 124.324688,11.0940532 124.236343,11.1891942 C124.147997,11.2843352 124.103825,11.4134551 124.103825,11.576554 L124.103825,11.8619771 L130.016159,11.8619771 L130.016159,14.5531086 L121.616567,14.5531086 Z M121.616567,15.2258914 L130.016159,15.2258914 L130.016159,17.9374103 L124.103825,17.9374103 L124.103825,18.202446 C124.103825,18.3655449 124.147997,18.4946648 124.236343,18.5898058 C124.324688,18.6849468 124.409635,18.7325173 124.491185,18.7325173 L131.565599,18.7325173 L131.565599,21.4440362 L124.430023,21.4440362 C123.954318,21.4440362 123.539775,21.3488952 123.186394,21.1586131 C122.833013,20.9683311 122.540794,20.7236828 122.309737,20.4246682 C122.07868,20.1256536 121.905388,19.7892621 121.789859,19.4154939 C121.674331,19.0417256 121.616567,18.678151 121.616567,18.3247701 L121.616567,15.2258914 Z M145.83675,24.8895 L138.109941,24.8895 C137.375996,24.8895 136.665836,24.729799 135.979462,24.410397 C135.293087,24.0909951 134.688262,23.6560647 134.164987,23.105606 C133.641711,22.5551473 133.22377,21.9027518 132.911164,21.1484195 C132.598558,20.3940872 132.442255,19.5887864 132.442255,18.7325173 L132.442255,4.8895 L135.153774,4.8895 L135.153774,18.7325173 C135.153774,19.1402645 135.228528,19.5514096 135.378035,19.9659526 C135.527542,20.3804956 135.741609,20.750866 136.020237,21.0770637 C136.298864,21.4032615 136.642051,21.6682971 137.049798,21.8721707 C137.457546,22.0760443 137.919659,22.1779811 138.436139,22.1779811 L145.83675,22.1779811 L145.83675,24.8895 Z M139.068147,18.7325173 L145.83675,18.7325173 L145.83675,21.4440362 L138.701174,21.4440362 C138.225469,21.4440362 137.810926,21.3488952 137.457546,21.1586131 C137.104165,20.9683311 136.811946,20.7236828 136.580889,20.4246682 C136.349832,20.1256536 136.17654,19.7892621 136.061011,19.4154939 C135.945483,19.0417256 135.887719,18.678151 135.887719,18.3247701 L135.887719,4.8895 L138.680787,4.8895 L138.680787,18.202446 C138.680787,18.3655449 138.72496,18.4912669 138.813305,18.5796121 C138.90165,18.6679574 138.986597,18.71213 139.068147,18.71213 L139.068147,18.7325173 Z M150.69302,4.8895 L154.419829,4.8895 C155.153774,4.8895 155.863934,5.04920099 156.550308,5.36860296 C157.236682,5.68800493 157.841507,6.12293527 158.364783,6.67339399 C158.888059,7.2238527 159.305999,7.87624822 159.618606,8.63058053 C159.931212,9.38491284 160.087515,10.1902136 160.087515,11.0464827 L160.087515,24.8895 L157.375996,24.8895 L157.375996,11.0464827 C157.375996,10.6387355 157.301242,10.2275904 157.151735,9.8130474 C157.002228,9.39850442 156.788161,9.02813405 156.509533,8.70193629 C156.230906,8.37573853 155.887719,8.11070285 155.479972,7.90682926 C155.072224,7.70295566 154.610111,7.60101886 154.093631,7.60101886 L150.69302,7.60101886 L150.69302,4.8895 Z M153.461623,11.0464827 L150.69302,11.0464827 L150.69302,8.33496381 L153.828595,8.33496381 C154.304301,8.33496381 154.718844,8.43010483 155.072224,8.62038685 C155.425605,8.81066888 155.717824,9.05531719 155.948881,9.3543318 C156.179938,9.65334642 156.35323,9.98973785 156.468759,10.3635061 C156.584287,10.7372744 156.642051,11.100849 156.642051,11.4542299 L156.642051,24.8895 L153.848983,24.8895 L153.848983,11.576554 C153.848983,11.4134551 153.80481,11.2877331 153.716465,11.1993879 C153.62812,11.1110426 153.543172,11.06687 153.461623,11.06687 L153.461623,11.0464827 Z" id="Combined-Shape" fill-rule="nonzero"></path>
            </g>
        </g>
    </g>
</svg>