<?xml version="1.0" encoding="UTF-8"?>
<!DOCTYPE svg PUBLIC "-//W3C//DTD SVG 1.1//EN" "http://www.w3.org/Graphics/SVG/1.1/DTD/svg11.dtd">
<svg xmlns="http://www.w3.org/2000/svg" version="1.1" width="600px" height="600px" style="shape-rendering:geometricPrecision; text-rendering:geometricPrecision; image-rendering:optimizeQuality; fill-rule:evenodd; clip-rule:evenodd" xmlns:xlink="http://www.w3.org/1999/xlink">
<g><path style="opacity:1" fill="#f7f7f7" d="M -0.5,-0.5 C 199.5,-0.5 399.5,-0.5 599.5,-0.5C 599.5,199.5 599.5,399.5 599.5,599.5C 399.5,599.5 199.5,599.5 -0.5,599.5C -0.5,399.5 -0.5,199.5 -0.5,-0.5 Z"/></g>
<g><path style="opacity:1" fill="#d3d3d3" d="M 529.5,192.5 C 530.609,192.557 531.609,192.89 532.5,193.5C 532.611,194.117 532.944,194.617 533.5,195C 532.207,195.49 530.873,195.657 529.5,195.5C 375.833,194.167 222.167,194.167 68.5,195.5C 64.0293,195.328 63.6959,194.494 67.5,193C 221.5,192.5 375.5,192.333 529.5,192.5 Z"/></g>
<g><path style="opacity:1" fill="#e5e5e5" d="M 529.5,192.5 C 375.5,192.333 221.5,192.5 67.5,193C 63.6959,194.494 64.0293,195.328 68.5,195.5C 64.6813,195.949 61.0146,197.115 57.5,199C 56.1885,201.48 55.1885,203.98 54.5,206.5C 53.1535,202.571 52.3202,202.905 52,207.5C 51.3333,268.833 51.3333,330.167 52,391.5C 52.5406,397.1 55.3739,400.934 60.5,403C 216.813,404.654 373.147,404.987 529.5,404C 534.593,402.445 534.593,401.612 529.5,401.5C 534.843,401.63 539.176,399.63 542.5,395.5C 542.393,397.379 542.893,397.712 544,396.5C 544.92,393.899 545.587,391.232 546,388.5C 546.833,328.164 546.667,267.831 545.5,207.5C 544.833,268.332 544.167,328.999 543.5,389.5C 543.667,328.499 543.5,267.499 543,206.5C 542.764,204.236 542.264,202.069 541.5,200C 537.813,197.375 533.813,195.875 529.5,195.5C 530.873,195.657 532.207,195.49 533.5,195C 532.944,194.617 532.611,194.117 532.5,193.5C 536.286,193.373 539.619,194.54 542.5,197C 544.553,200.347 546.387,203.847 548,207.5C 548.667,269.5 548.667,331.5 548,393.5C 546.91,396.01 545.743,398.51 544.5,401C 540.315,401.758 536.315,403.091 532.5,405C 374.145,405.989 215.811,405.655 57.5,404C 51.6781,399.663 48.6781,393.829 48.5,386.5C 49.3222,325.182 49.8222,263.848 50,202.5C 51.7927,199.083 53.9593,195.916 56.5,193C 135.777,191.837 215.11,191.337 294.5,191.5C 373.001,191.5 451.334,191.833 529.5,192.5 Z"/></g>
<g><path style="opacity:1" fill="#d4d4d4" d="M 54.5,206.5 C 53.171,267.766 53.171,329.099 54.5,390.5C 56.2463,397.915 60.9129,401.582 68.5,401.5C 222.333,402.833 375.999,402.833 529.5,401.5C 534.593,401.612 534.593,402.445 529.5,404C 373.147,404.987 216.813,404.654 60.5,403C 55.3739,400.934 52.5406,397.1 52,391.5C 51.3333,330.167 51.3333,268.833 52,207.5C 52.3202,202.905 53.1535,202.571 54.5,206.5 Z"/></g>
<g><path style="opacity:1" fill="#d3d3d3" d="M 542.5,395.5 C 543.341,393.621 543.675,391.621 543.5,389.5C 544.167,328.999 544.833,268.332 545.5,207.5C 546.667,267.831 546.833,328.164 546,388.5C 545.587,391.232 544.92,393.899 544,396.5C 542.893,397.712 542.393,397.379 542.5,395.5 Z"/></g>
<g><path style="opacity:1" fill="#fdfdfd" d="M 529.5,195.5 C 533.813,195.875 537.813,197.375 541.5,200C 542.264,202.069 542.764,204.236 543,206.5C 543.5,267.499 543.667,328.499 543.5,389.5C 543.675,391.621 543.341,393.621 542.5,395.5C 539.176,399.63 534.843,401.63 529.5,401.5C 375.999,402.833 222.333,402.833 68.5,401.5C 60.9129,401.582 56.2463,397.915 54.5,390.5C 53.171,329.099 53.171,267.766 54.5,206.5C 55.1885,203.98 56.1885,201.48 57.5,199C 61.0146,197.115 64.6813,195.949 68.5,195.5C 222.167,194.167 375.833,194.167 529.5,195.5 Z"/></g>
<g><path style="opacity:1" fill="#020202" d="M 68.5,209.5 C 222.167,209.5 375.833,209.5 529.5,209.5C 529.5,268.833 529.5,328.167 529.5,387.5C 375.833,387.5 222.167,387.5 68.5,387.5C 68.5,328.167 68.5,268.833 68.5,209.5 Z"/></g>
<g><path style="opacity:1" fill="#f2f2f2" d="M 247.5,313.5 C 253.842,313.334 260.175,313.5 266.5,314C 269.121,316.072 269.788,318.572 268.5,321.5C 255.495,321.274 242.495,321.774 229.5,323C 217.35,325.987 207.184,332.154 199,341.5C 197.743,346.578 199.743,348.911 205,348.5C 217.34,347.124 229.173,343.957 240.5,339C 238.5,338.667 236.5,338.333 234.5,338C 232.485,336.445 232.152,334.611 233.5,332.5C 235.722,331.222 238.056,330.222 240.5,329.5C 247.147,332.602 254.147,334.769 261.5,336C 266.709,338.791 266.709,341.791 261.5,345C 256.446,347.389 251.946,350.555 248,354.5C 245.29,358.753 242.457,362.92 239.5,367C 234.462,369.643 229.129,371.476 223.5,372.5C 224.44,369.286 225.94,366.286 228,363.5C 233,358.5 238,353.5 243,348.5C 243.688,347.668 243.521,347.002 242.5,346.5C 226.285,353.647 209.285,356.48 191.5,355C 183.322,353.835 179.155,349.335 179,341.5C 183.692,336.24 189.192,332.074 195.5,329C 212.273,321.644 229.606,316.477 247.5,313.5 Z"/></g>
<g><path style="opacity:1" fill="#f6f6f6" d="M 345.5,278.5 C 352.915,276.863 357.248,279.696 358.5,287C 355.071,295.254 351.237,303.42 347,311.5C 345.686,314.089 345.019,316.756 345,319.5C 357.037,308.127 370.203,298.293 384.5,290C 388,288.247 391.667,287.08 395.5,286.5C 402.154,287.029 403.987,290.363 401,296.5C 395.355,305.458 390.521,314.792 386.5,324.5C 391.643,324.116 396.643,323.116 401.5,321.5C 400.909,324.614 399.242,327.114 396.5,329C 387.479,336.451 377.145,339.451 365.5,338C 363.522,335.503 363.022,332.669 364,329.5C 369.044,319.798 374.877,310.631 381.5,302C 381.167,301.833 380.833,301.667 380.5,301.5C 367.058,312.105 354.058,323.272 341.5,335C 336.569,339.306 330.903,340.972 324.5,340C 321.71,337.79 320.877,334.956 322,331.5C 325.095,320.377 329.261,309.71 334.5,299.5C 334.167,299.167 333.833,298.833 333.5,298.5C 308.112,318.831 286.779,342.664 269.5,370C 264.993,371.893 260.327,373.059 255.5,373.5C 255.211,370.351 255.711,367.351 257,364.5C 273.949,341.54 293.115,320.374 314.5,301C 324.547,292.989 334.88,285.489 345.5,278.5 Z"/></g>
<g><path style="opacity:1" fill="#8b8b8b" d="M 79.5,266.5 C 82.4824,266.963 85.4824,267.296 88.5,267.5C 85.3726,268.815 82.3726,268.482 79.5,266.5 Z"/></g>
<g><path style="opacity:1" fill="#acacac" d="M 125.5,246.5 C 120.384,247.806 115.051,248.473 109.5,248.5C 114.598,247.043 119.931,246.376 125.5,246.5 Z"/></g>
<g><path style="opacity:1" fill="#f6f6f6" d="M 88.5,267.5 C 85.4824,267.296 82.4824,266.963 79.5,266.5C 74.5802,264.026 74.2469,260.859 78.5,257C 88.3532,252.453 98.6865,249.62 109.5,248.5C 115.051,248.473 120.384,247.806 125.5,246.5C 165.42,242.37 204.754,245.536 243.5,256C 253.004,258.665 261.171,263.499 268,270.5C 271.372,276.335 271.039,282.002 267,287.5C 259.473,296.02 250.307,302.187 239.5,306C 233.596,308.309 227.596,310.309 221.5,312C 202.397,315.526 183.397,319.526 164.5,324C 160.667,329.167 156.833,334.333 153,339.5C 152.985,341.791 152.818,343.958 152.5,346C 143.38,349.29 134.046,351.29 124.5,352C 123.313,350.981 122.313,349.814 121.5,348.5C 125.714,341.234 130.048,334.067 134.5,327C 132.159,324.832 129.825,322.665 127.5,320.5C 132.486,317.782 137.819,315.949 143.5,315C 151,306.167 158.5,297.333 166,288.5C 173.87,280.961 182.037,273.794 190.5,267C 194.253,265.011 198.253,264.178 202.5,264.5C 201.451,267.47 200.284,270.47 199,273.5C 198.667,276.833 198.333,280.167 198,283.5C 189.463,292.238 181.63,301.571 174.5,311.5C 193.568,309.087 211.568,302.92 228.5,293C 232.891,289.785 235.891,285.618 237.5,280.5C 236.166,276.656 233.832,273.489 230.5,271C 223.144,267.153 215.477,264.153 207.5,262C 177.368,256.86 147.034,255.193 116.5,257C 110.5,258.333 104.5,259.667 98.5,261C 94.9677,262.928 91.6344,265.095 88.5,267.5 Z"/></g>
<g><path style="opacity:1" fill="#fbfbfb" d="M 415.5,222.5 C 446.887,221.688 475.887,229.521 502.5,246C 520.773,259.836 523.273,276.002 510,294.5C 502.13,302.039 493.963,309.206 485.5,316C 471.835,325.168 457.835,333.835 443.5,342C 449.996,343.622 456.663,343.956 463.5,343C 480.175,340.497 496.841,337.997 513.5,335.5C 508.232,346.261 499.899,353.761 488.5,358C 484.5,358.333 480.5,358.667 476.5,359C 460.641,363.298 444.641,366.965 428.5,370C 416.026,374.104 408.359,369.937 405.5,357.5C 406.927,350.561 410.594,345.061 416.5,341C 436.698,329.479 455.198,315.646 472,299.5C 478.255,290.731 477.422,282.564 469.5,275C 454.813,266.102 438.813,262.769 421.5,265C 408.784,268.905 396.284,273.405 384,278.5C 376.298,277.149 369.298,274.149 363,269.5C 359.308,264.819 359.808,260.653 364.5,257C 374.392,250.114 383.392,242.114 391.5,233C 399.249,228.618 407.249,225.118 415.5,222.5 Z"/></g>
</svg>
