<?xml version="1.0" standalone="yes"?>
<svg xmlns="http://www.w3.org/2000/svg" width="600" height="600">
<path style="fill:#f9f9f9; stroke:none;" d="M0 0L0 600L600 600L600 0L0 0z"/>
<path style="fill:#020202; stroke:none;" d="M69 210L69 388L530 388L530 210L69 210z"/>
<path style="fill:#f9f9f9; stroke:none;" d="M514 336L512.329 336.042L510.84 336.17L506.998 336.729C505.332 336.969 503.656 337.15 502 337.46L499 338.117L496 338.739L492 339.414L484 340.753L481 341.25L477 342C475.671 342.258 474.343 342.536 473 342.711C472.001 342.841 471.005 342.915 470 342.965C468.665 343.03 467.331 343.041 466 343.17C464.326 343.332 462.674 343.671 461 343.83C459.669 343.957 458.336 343.984 457 343.996L454 343.999L451.002 343.958L449.025 343.797L447.16 343.421L445.671 342.897L444 342L445.671 341.339L447.16 340.64L449.025 339.677L454 336.85L460 333.397L464 331C465.673 329.993 467.35 328.992 469 327.947C471.699 326.237 474.342 324.439 477 322.667C479.337 321.109 481.689 319.57 484 317.975C485.692 316.807 487.351 315.597 489 314.37C490.684 313.117 492.37 311.863 494 310.54C495.702 309.159 497.336 307.697 499 306.271C500.335 305.127 501.706 304.021 503 302.83C505.022 300.97 506.995 299.051 508.826 297C510.509 295.116 512.079 293.122 513.452 291C514.485 289.405 515.407 287.727 516.201 286C516.649 285.024 517.089 284.029 517.402 283C517.9 281.361 518.288 279.692 518.56 278C518.879 276.013 519.03 274.011 518.906 272C518.843 270.988 518.7 269.998 518.532 269L518.073 267L517.451 265L516.651 263C516.215 261.966 515.66 260.981 515.12 260C514.35 258.602 513.444 257.263 512.471 256C510.831 253.873 508.953 251.925 506.996 250.09C505.412 248.605 503.747 247.214 502 245.924C500.391 244.737 498.707 243.655 497 242.615C495.044 241.424 493.049 240.294 491 239.27C488.396 237.968 485.7 236.884 483 235.8L476 233C474.339 232.338 472.679 231.669 471 231.053C469.016 230.326 467.007 229.664 465 229.001C463.012 228.344 461.023 227.695 459 227.155C456.688 226.539 454.344 226.072 452 225.6C449.673 225.132 447.348 224.642 445 224.285L441 223.845C438.997 223.605 437.014 223.227 435 223.09C433.337 222.976 431.665 223.002 430 223L425 223.039L423 223.17C421.659 223.28 420.331 223.539 419 223.729C417.333 223.967 415.655 224.143 414 224.461C412.311 224.785 410.646 225.228 409 225.721C406.612 226.438 404.273 227.287 402 228.312L399 229.759L397 230.782C395.987 231.32 394.977 231.864 394 232.468C392.967 233.106 391.962 233.788 391 234.529C388.851 236.185 386.927 238.101 385 240.004L378 246.996L375 249.907L373 251.675C371.73 252.766 370.349 253.717 369.001 254.706L366.044 256.899L364.228 258.465L363.434 259.3L362.746 260.174L361.786 262.039L361.457 264.004L361.786 265.996L362.746 267.96L363.434 268.907L364.228 269.815L366.044 271.471C366.975 272.234 367.985 272.879 369.001 273.521L370 274.096L371 274.626C371.968 275.141 372.993 275.552 374 275.982C374.983 276.402 375.991 276.781 377 277.135C377.992 277.483 378.989 277.791 380 278.076L382 278.529L384 278.786L385 278.816L387 278.657C388.015 278.504 389.034 278.242 390 277.895C391.018 277.53 392.013 277.13 393 276.688L397 274.78L399 273.861L403 272.15C404.988 271.299 406.961 270.424 409 269.698C412.268 268.535 415.639 267.714 419 266.873L422 266.13L425 265.464L427 265.174C428.99 264.96 431.002 265.002 433 265L436 265.004C437.335 265.016 438.67 265.038 440 265.171C442.02 265.373 444.011 265.805 446 266.2C447.669 266.532 449.339 266.862 451 267.235C452.008 267.462 453.004 267.735 454 268.012L456 268.591L457 268.888C458.356 269.319 459.702 269.764 461 270.352L463 271.352L464.996 272.549L466.961 273.927L468.826 275.468L469.699 276.301L471.319 278.09L472.776 280.015C473.86 281.569 474.821 283.232 475.514 285C476.139 286.596 476.579 288.272 476.485 290C476.37 292.134 475.492 294.156 474.471 296C473.701 297.39 472.779 298.682 471.84 299.961L471.1 300.91L470.331 301.83L469.535 302.715L468.7 303.576L465.961 306.169L462.999 308.975C462.011 309.9 461.03 310.831 460 311.711C457.722 313.656 455.373 315.52 453 317.349C450.045 319.627 447.038 321.834 444 324C440.695 326.357 437.426 328.765 434 330.946L430 333.399L424 337C422.323 338.009 420.618 338.989 419 340.093L417.001 341.529L415.015 343.185L414.04 344.093C413.1 345.034 412.18 345.98 411.329 347.004C410.048 348.545 408.898 350.205 408 352C407.365 353.27 406.848 354.613 406.537 356C406.317 356.98 406.182 357.993 406.226 359L406.514 361L406.823 361.999L407.724 363.985L408.92 365.892L409.613 366.775L410.38 367.581L411.21 368.297L413.043 369.427L415.004 370.196L417 370.671L419 370.903C420.004 370.947 420.996 370.963 422 370.907C424.016 370.793 425.994 370.37 428 370.169L432 369.914L434 369.715L436 369.421L438 369.13C439.336 368.951 440.674 368.79 442 368.54C443.682 368.223 445.34 367.786 447 367.373C449.002 366.876 451.008 366.388 453 365.849L458 364.421L461 363.579L465 362.475L469 361.526L472 360.742L474 360.285L477 359.755C478.328 359.529 479.659 359.302 481 359.17C482.663 359.006 484.334 359.02 486 358.907C487.356 358.816 488.693 358.583 490 358.211C491.38 357.819 492.695 357.26 494 356.672L496 355.64L498 354.401L499 353.699L500.996 352.181C502.34 351.138 503.606 350.008 504.83 348.829L505.714 347.91C506.579 346.956 507.416 345.982 508.245 344.996C509.34 343.695 510.42 342.384 511.441 341.025L512.677 339.16L513.444 337.671L514 336M175 313L175.774 311.329L176.725 309.84L178.138 307.975L178.938 306.995L182.247 303C183.918 300.994 185.581 298.978 187.285 297L190 294L191.834 292C192.991 290.688 194.122 289.356 195.227 288L196.772 286L197.987 284L198.684 282L198.856 281L199.1 278C199.198 276.982 199.359 275.986 199.637 275C200.028 273.617 200.648 272.316 201.216 271.002L202.001 269.025L202.448 267.16L202.471 265.671L202 264L196.975 265.579L194 266.475C192.966 266.834 191.965 267.246 191 267.765C188.84 268.926 186.915 270.487 185 272.005C183.3 273.352 181.613 274.719 180 276.171C177.927 278.036 175.973 280.03 174 282L168 288C165.714 290.289 163.421 292.567 161.286 295L159.59 297L156.246 301L153.728 304L151.13 307L148.575 309.995C147.441 311.301 146.295 312.613 144.961 313.721L142.996 315.146L141.999 315.697L140 316.521L137 317.421C135.042 317.995 133.069 318.536 131.16 319.265L129.671 319.941L128 321L129.086 322.447L130.298 323.566L131.064 324.184C132.031 325.038 133.177 325.906 133.555 327.209L133.607 329.043L133.319 330.015L132.361 332.001L131.188 334C129.964 336.037 128.642 338.011 127.343 340L126.054 342L124.831 344L123.768 345.999L123.373 346.995L123.103 348.941L123.302 349.852L124.373 351.397L126.063 352.396L127.02 352.678L128.005 352.837L129.001 352.901L131 352.811C132.707 352.638 134.352 352.158 136 351.705L141 350.291L144 349.421L148.995 348.001L151.84 347.165L152.841 346.824L153.329 346.687L155 346L154.206 343.841L153.986 342.84L154.103 340.975L154.857 338.998L155.417 338C156.275 336.628 157.2 335.306 158.155 334L160.425 331.001L162.004 329.019C163.258 327.506 164.526 325.964 166.171 324.854C167.924 323.672 169.984 323.16 172 322.63C173.657 322.195 175.326 321.813 177 321.449L179 321.084L182 320.576C185.675 319.898 189.335 319.133 193 318.4L201 316.789L207 315.449L212 314.551L217 313.449C218.663 313.114 220.348 312.888 222 312.497C223.693 312.096 225.339 311.537 227 311.024L232 309.485C233.347 309.046 234.67 308.533 236 308.047L240 306.576L243 305.396C244.346 304.857 245.689 304.301 247 303.68C248.713 302.867 250.364 301.944 252 300.988L255 299.185C256.37 298.335 257.724 297.46 259 296.471C260.405 295.384 261.702 294.187 262.985 292.96L264.895 290.996L266.606 289L267.348 288L268.558 286L269.03 285L269.436 284L270.057 282L270.279 281L270.514 279L270.38 277L270.171 276L269.513 274L268.583 272.001L268.005 271.004L267.351 270.015L265.786 268.093L264.895 267.185L262.985 265.529C261.138 264.063 259.084 262.877 257 261.785C255.371 260.931 253.705 260.144 252 259.453C250.034 258.656 248.011 258.006 246 257.333C242.683 256.223 239.375 255.076 236 254.152C233.682 253.518 231.344 252.953 229 252.424L225 251.576L220 250.449C218.342 250.117 216.667 249.867 215 249.586L211 248.92L207 248.282L203 247.845C201.33 247.645 199.674 247.332 198 247.17C196.004 246.977 193.996 247.023 192 246.83L189 246.424C188.001 246.285 187.007 246.158 186 246.09C185.002 246.021 184 246.01 183 246.004L179 245.999L176 245.961L174 245.83L173 245.715L170 245.285L169 245.17L167 245.039C165.669 244.981 164.332 245.001 163 245L157 245L151 245.001C149.667 245.004 148.331 244.998 147 245.09C144.652 245.25 142.347 245.749 140 245.91C138.003 246.048 135.997 245.952 134 246.09C132.993 246.159 131.999 246.285 131 246.424L128 246.83C126.337 246.991 124.666 246.988 123 247.089C121.993 247.15 120.998 247.288 120 247.424L119 247.576L117 247.845C115.33 248.023 113.66 248.172 112 248.438C110.325 248.707 108.663 249.067 107 249.4L102 250.424C99.9908 250.868 97.9959 251.374 96 251.873C92.2956 252.8 88.5741 253.702 85 255.066L83.0008 255.877L82.0046 256.327L80.0586 257.363L78.3187 258.638L77.0471 260.209L76.466 262L76.662 263.79L77.608 265.348L78.3187 265.995L79.1481 266.558L81.0193 267.436L83.0008 268.056L84 268.275C84.9679 268.481 86.019 268.545 87 268.397L88 268.183L90 267.348L92 266.161L93 265.529L95 264.337C96.308 263.622 97.6303 262.929 99 262.338C100.303 261.776 101.638 261.309 103 260.913L106 260.127L110 259.13C110.996 258.89 111.992 258.646 113 258.463L115 258.159L118 257.845C120.003 257.604 121.986 257.228 124 257.09C126.33 256.93 128.67 257.07 131 256.91L133 256.715L136 256.285C137.33 256.113 138.66 256.047 140 256.015L142 256.001L146 256C147.666 256.003 149.337 255.976 151 256.09C153.348 256.25 155.652 256.75 158 256.91C160.995 257.116 164.005 256.884 167 257.09L169 257.285C170.333 257.467 171.661 257.697 173 257.831L178 258.169C179.341 258.287 180.665 258.551 182 258.715L188 259.285L191 259.729L195 260.271L198 260.718C199.663 260.937 201.342 261.038 203 261.296C204.693 261.56 206.349 261.974 208 262.425L211 263.294L215 264.515C216.347 264.953 217.671 265.465 219 265.953C220.678 266.569 222.376 267.15 224 267.901C226.126 268.884 228.148 270.088 229.996 271.529C231.355 272.589 232.642 273.749 233.785 275.04C234.591 275.95 235.368 276.928 235.948 278.001L236.777 280L236.953 281L236.777 283L235.948 285L235.332 286L233.785 287.996C232.341 289.701 230.691 291.219 228.999 292.671C228.056 293.481 227.034 294.207 226 294.895C224.09 296.167 222.041 297.202 220 298.244L216 300.244C214.676 300.895 213.354 301.55 212 302.138C209.693 303.14 207.357 304.069 205 304.947C203.678 305.439 202.337 305.883 201 306.333C198.678 307.113 196.356 307.9 194 308.573C192.344 309.045 190.67 309.454 189 309.873C186.672 310.458 184.346 311.056 182.002 311.576C179.676 312.091 177.338 312.547 175 313M335 299L334.34 300.671L334.1 301.159L333.654 302.16L333.225 303.045C332.606 304.354 331.997 305.668 331.427 307C330.722 308.651 330.069 310.325 329.424 312L328.319 315C327.09 318.323 325.74 321.603 324.721 325C324.325 326.323 323.981 327.656 323.665 329L323.262 331L322.94 332.999C322.743 334.559 322.47 336.296 323.198 337.772L323.693 338.566L324.357 339.258L325.163 339.821L326.062 340.257L328.005 340.756L330 340.851L331 340.772L333 340.361L335 339.633L337 338.647L339 337.451C340.754 336.324 342.405 335.043 344 333.703L349 329.282L353 325.834L357 322.166L362 317.831L367 313.17C368.933 311.439 370.962 309.816 373 308.211C374.31 307.179 375.633 306.164 376.975 305.174L378.84 303.856L379.841 303.227L380.329 302.9L382 302C380.333 304.328 378.646 306.642 377.024 309.002C374.999 311.946 373.051 314.941 371.204 318C369.82 320.291 368.465 322.603 367.27 325C366.617 326.311 366.016 327.642 365.468 329L364.804 331L364.573 331.999L364.438 332.995L364.414 333.981L364.782 335.852L365.194 336.682L366.434 337.972L368.109 338.682L370.015 338.938L372.001 338.956L373 338.91L375 338.714L377 338.41L379 338.076C380.346 337.839 381.687 337.603 383 337.215C384.726 336.705 386.379 335.991 388 335.215C390.082 334.217 392.1 333.094 393.999 331.779C395.02 331.073 395.995 330.318 396.956 329.532L397.891 328.701L399.566 326.934L400.815 325.146L401.529 323.671L402 322L400.329 322.199L398.84 322.529C397.875 322.78 396.936 323.112 395.995 323.438L394.998 323.806L393.005 324.502L392.023 324.758L390.191 324.868L389.423 324.644L388.816 324.211L388.418 323.589L388.287 321.927L388.883 319.995L389.343 318.999L391.001 316L396.15 307L397.85 304L400.135 300L401.176 298L402.026 296L402.343 295.001L402.551 294.004L402.577 292.044L401.957 290.228L401.393 289.434L399.852 288.18L398.941 287.746L397.981 287.448L395.999 287.202L394 287.344L392 287.789L391 288.105L389 288.877L387 289.782C385.989 290.247 384.991 290.751 384 291.259C381.614 292.482 379.295 293.818 377 295.204C374.969 296.43 372.96 297.69 371 299.029C368.616 300.657 366.303 302.389 364 304.13C362.318 305.401 360.652 306.693 359 308.004L356 310.439C354.981 311.297 353.985 312.177 353 313.075L350.025 315.81C348.393 317.26 346.692 318.622 345 320L345.414 318.329L345.588 317.841L345.91 316.84C346.649 314.868 347.432 312.915 348.309 311C349.081 309.313 349.925 307.66 350.753 306L353.247 301L355.219 297C355.84 295.684 356.458 294.358 356.984 293L357.742 291L358.056 290L358.297 289L358.461 287.001L358.363 286.004L357.836 284.044L356.91 282.228L356.297 281.434L354.775 280.179L353.892 279.743L351.985 279.244L349.999 279.149L349 279.228L347 279.639L345 280.363L343 281.327L341 282.454L339 283.695L336 285.667L332 288.344L329 290.427L325 293.375C323.652 294.383 322.303 295.397 321 296.463C318.942 298.148 317.006 299.973 315 301.718L312 304.285L310 306.09C308.291 307.682 306.653 309.35 305 311L299 317L291 325C289.341 326.66 287.662 328.303 286.039 330C285.1 330.982 284.181 331.978 283.285 333L279.834 337L276.166 341L273.59 344C270.002 348.253 266.485 352.561 263.13 357L260.156 361C259.234 362.285 258.288 363.586 257.569 365L257.09 366L256.438 367.995L256.283 368.981L256.362 370.852L256.619 371.681L257.604 372.958L258.318 373.356C259.16 373.717 260.128 373.702 261.019 373.616L263.001 373.235L264.999 372.637C266.692 372.064 268.38 371.387 269.816 370.298C272.009 368.634 273.477 366.244 275 363.999L277.025 361L279.86 357L283.424 352C285.375 349.298 287.376 346.628 289.424 344C291.006 341.971 292.621 339.97 294.275 338L297.729 334C298.875 332.666 299.99 331.305 301.17 330C302.725 328.28 304.366 326.643 306.001 325L312 319L317 314.001C318.32 312.684 319.634 311.359 321 310.09C321.978 309.18 322.977 308.298 324 307.439L327 305.001L331.84 301.15L332.841 300.428L333.329 300.045L335 299M243 348L241.761 349.671L241.363 350.159L239.777 352.045C238.865 353.05 237.932 354.03 236.985 355.002C235.685 356.333 234.355 357.635 233.09 359C231.328 360.903 229.684 362.901 228.16 365C227.453 365.973 226.78 366.961 226.134 367.975L225.095 369.84L224.456 371.329L224 373L225.671 372.802L226.159 372.684L227.16 372.481L229.025 371.96C230.357 371.547 231.684 371.117 233 370.655C234.009 370.301 235.008 369.933 235.999 369.532L237.985 368.583L238.957 368.005L240.79 366.606L242.391 364.895L243.099 363.957L244.41 361.996C245.295 360.669 246.117 359.301 247.043 358.001L248.518 356.015L249.326 355.039L250.184 354.09L252.04 352.301L253.015 351.468L255.001 349.927L257 348.544L258.999 347.294L260.98 346.049L262.836 344.61L263.638 343.788L264.744 341.972L264.963 341.029L264.94 340.104L264.673 339.224L263.547 337.703L261.89 336.572L259.985 335.789L257.999 335.239L255 334.576C252.974 334.105 250.963 333.604 249 332.91L247 332.14L246 331.735L244 330.995L243 330.728L241 330.542L239.005 330.847L238.019 331.164L237.059 331.576L236.153 332.09L234.662 333.4L233.921 334.96L233.921 335.726L234.176 336.413L234.662 336.98L235.336 337.412L236.148 337.722L237.975 338.12L240.329 338.567L242 339L240.329 339.939L239.841 340.14L238.84 340.606C237.238 341.238 235.618 341.824 234 342.413L231 343.485C229.344 344.023 227.673 344.514 226 344.999C224.341 345.48 222.681 345.948 221 346.346C217.697 347.126 214.35 347.709 211 348.246L208 348.698L207 348.786L206.001 348.802L204.02 348.552L203.062 348.254L201.362 347.258L200.712 346.566L200.256 345.772L200.037 344.891L200.327 342.985L200.801 341.996L202.233 340.001L203.11 339.004L205.015 337.043L207.001 335.21L208 334.38L210 332.916C211.892 331.635 213.937 330.611 216 329.64C217.976 328.711 219.981 327.842 222 327.011C224.636 325.926 227.298 324.912 230 324.004L233 323.039L235 322.503C236.314 322.173 237.665 321.977 239 321.755C240.655 321.479 242.318 321.171 244 321.129L246 321.184L248 321.425L251 321.834L254 322.075L256 322.285L259 322.715L261 322.91L262.999 322.966L263.995 322.938L265.938 322.682L266.836 322.397L267.639 321.972L268.758 320.683L269.002 319.857L268.843 318.039L268.485 317.143L267.971 316.317L267.343 315.603L265.786 314.603L264.895 314.318L262.985 314.059L261.996 314.019L259 314L256 314.004C255 314.013 253.998 314.021 253 314.09L251 314.285L248 314.718L244 315.156L242 315.438C240.325 315.707 238.662 316.065 237 316.4C235.329 316.736 233.655 317.064 232 317.475C230.657 317.809 229.331 318.204 228 318.579L223 320L221 320.579L217 321.72C215.322 322.225 213.656 322.771 212 323.344C209.64 324.161 207.32 325.075 205 326L200 328.012C197.277 329.145 194.605 330.397 192 331.782C190.985 332.321 189.988 332.879 189 333.468L187.001 334.789C185.954 335.511 184.993 336.342 184.044 337.185L183.109 338.093L181.434 340.015L180.184 342.001L179.762 343L179.377 344.999L179.427 345.996L180.043 347.96L181.319 349.812L183.059 351.442L184.019 352.146L185.005 352.772L187 353.775C188.596 354.463 190.304 354.846 192 355.191C192.996 355.394 193.995 355.561 195 355.711L196 355.829L198 355.961L201 355.999L205 355.999C206.333 355.995 207.669 356.002 209 355.91C210.681 355.795 212.335 355.513 214 355.271L217 354.869C220.368 354.385 223.695 353.677 227 352.87C229.01 352.38 231.017 351.87 233 351.279C235.802 350.444 238.557 349.46 241.329 348.534L243 348z"/>
<path style="fill:#020202; stroke:none;" d="M344 320L345 321L344 320z"/>
</svg>
