<?xml version="1.0" encoding="UTF-8"?>
<svg width="194.7016px" height="18.9992252px" viewBox="0 0 194.7016 18.9992252" version="1.1" xmlns="http://www.w3.org/2000/svg" xmlns:xlink="http://www.w3.org/1999/xlink">
    <title>super cassette vision</title>
    <g id="Page-1" stroke="none" stroke-width="1" fill="none" fill-rule="evenodd">
        <g id="System" transform="translate(-2.298400, -5.000775)" fill="#000000">
            <g id="super-cassette-vision" transform="translate(2.298400, 0.000000)">
                <line x1="97.7016004" y1="30" x2="97.7016004" y2="0" id="Path" fill-rule="nonzero"></line>
                <path d="M64.2525927,5.36786319 C64.569228,5.48431567 64.6986043,5.61850412 64.6967614,5.82817358 C64.6940672,6.12432309 63.9472315,8.3656552 63.8032814,8.50960531 C63.7725299,8.54035683 63.3394813,8.55890857 62.7464503,8.55929618 L61.7394815,8.54852191 C59.4215106,8.54031005 58.1218349,9.00197335 56.6888187,10.3116627 C55.645146,11.2655556 55.1244783,12.132556 54.7819953,13.4872269 C54.3032615,15.380164 54.5966612,16.7615076 55.7765847,18.1708988 C56.3882615,18.9014948 57.8390632,19.6976131 59.1431023,20.0347309 L59.5165012,20.1226857 C59.9025111,20.2177237 60.2214122,20.3481202 60.2520995,20.4281796 C60.3442166,20.6682339 59.3665382,23.595907 59.1282712,23.7937524 C58.6581992,24.1838064 56.0830458,23.5844954 54.5253049,22.7224446 C52.1385103,21.4018708 50.8622076,19.3301991 50.5248117,16.229016 C50.2675713,13.864357 50.7394307,11.7521263 51.9168794,9.99763975 L52.1706402,9.62831622 C52.8611561,8.65233022 53.3565469,8.23098192 54.8526642,7.24168943 C56.3314869,6.2635986 57.9065514,5.61850412 59.5977933,5.2980192 C60.8041145,5.06951387 63.5533279,5.11076032 64.2525927,5.36786319 Z M179.588814,11.8208846 C180.807234,13.1541074 181.251596,14.3275689 181.251596,16.2121192 C181.251596,20.2040882 178.411778,23.2270405 174.093,23.8326759 C172.838558,24.0086607 171.85153,23.9106317 170.458775,23.4720444 C168.109927,22.7323581 166.072215,20.7441417 165.418046,18.5538177 C165.202465,17.8321423 165.272721,15.2572639 165.52405,14.6679896 L165.751661,14.1454767 C166.218247,13.1025891 166.534457,12.6044565 167.135953,11.9646928 L167.43541,11.6568612 C168.555801,10.5363327 170.140765,9.66094552 171.627424,9.34169799 C174.58782,8.70595271 177.59881,9.64362201 179.588814,11.8208846 Z M97.4903573,9.40520323 L97.9661781,9.42270648 C98.7587504,9.45978351 99.1496714,9.53105937 99.7504483,9.74817564 L100.102632,9.88173722 C101.325177,10.3615709 102.202077,10.9354465 102.974485,11.761063 C103.612843,12.4432793 104.292997,13.5875933 104.294813,13.9821843 L104.293121,14.0425614 L104.284344,14.0997261 C104.235681,14.297595 103.969524,14.4902055 102.569123,15.2421216 L99.1804395,17.0356803 L97.9398287,17.7069567 C97.3985136,18.0030542 96.9282686,18.2650808 96.6062855,18.4508675 L95.8381278,18.8994209 L95.5008145,19.0850062 C95.3030962,19.1901165 95.1668072,19.2541681 95.134635,19.2541681 C94.8597961,19.2541681 94.4118597,19.6831312 94.4856908,19.8756146 C94.7039533,20.4444719 97.2371169,20.6759646 98.3804969,20.2624485 L98.622967,20.1615425 C98.9184961,20.0418293 99.1783453,19.9934878 99.2370069,20.0521494 C99.3455768,20.1607193 98.7703972,22.2305072 98.3683278,23.2090792 L98.279287,23.4123406 C98.1554162,23.6683351 98.0393429,23.7539558 97.6771176,23.8203331 L97.4282126,23.8590593 C94.5247375,24.2584624 91.0579733,22.4540677 89.7537606,19.8646156 C89.2113698,18.7879457 88.8400142,17.1041282 88.9583915,16.2589884 C89.1703983,14.7459311 90.0482602,12.8903908 91.0769467,11.7809988 C91.9603082,10.8282058 93.6679112,9.89411116 95.1530584,9.55107818 C95.675101,9.43050106 96.5331646,9.37701816 97.4903573,9.40520323 Z M127.684134,9.49539547 C128.091236,9.57252633 128.984359,9.90813495 129.668775,10.2411313 C131.034858,10.9057491 132.076193,11.8384688 132.772708,13.0215545 L132.907872,13.256477 C133.354243,14.0585348 133.246932,14.2388923 132.18502,14.8162881 L127.087042,17.5497665 C123.172475,19.6649964 122.974024,19.8807155 123.621176,20.1162783 L124.204593,20.307748 C125.153962,20.5607928 126.87609,20.4956605 127.512961,20.1611776 C127.767452,20.0275391 128.028129,19.9707565 128.092336,20.0349634 C128.15253,20.0951575 127.982767,20.8367638 127.709475,21.7216703 L127.097747,23.6489774 L126.528546,23.8021392 C125.840142,23.9876108 124.172411,23.8651088 123.200645,23.5579602 C119.981359,22.5399978 117.779899,19.790097 117.771865,16.7763564 C117.7678,15.270036 118.612802,13.2682083 119.822973,11.9169746 C120.741944,10.8909004 122.415725,9.93577007 123.945281,9.56427704 C124.878,9.33783403 126.678545,9.30469938 127.684134,9.49539547 Z M68.7920396,9.43393826 C72.1702613,9.61377279 74.7327658,11.6895691 75.3741481,14.7661419 L75.418381,14.9906757 L75.4532073,15.1993868 C75.5962088,16.1617745 75.4567835,17.0136061 74.6515262,19.9308116 L73.6989923,23.3100691 L71.5608819,23.3561226 L71.0423755,23.3603979 C70.3552787,23.3580124 70.198956,23.3109533 70.198956,23.1841299 L70.2078199,23.1193228 L70.2594706,22.8682566 C70.308221,22.6456877 70.3842932,22.3182541 70.4798191,21.9190649 L71.3051216,18.5667579 L71.5576267,17.4724841 C71.7355262,16.6712352 71.848814,16.0790776 71.848814,15.9198051 C71.848814,14.8790197 71.1107775,13.7040458 70.0743917,13.0946982 L69.8749179,12.9821542 C69.4695813,12.7666865 69.1991195,12.7283327 68.2894999,12.7239529 L67.6503988,12.7266831 L67.2468119,12.7408228 C66.7033108,12.772148 66.4112295,12.853144 66.0055669,13.0398404 C65.1811878,13.4193078 64.5065334,14.038692 64.1041055,14.7858027 C63.6710178,15.589421 63.6770673,17.5652635 64.1149671,18.3871677 C64.8667524,19.7980713 66.1097829,20.4504527 67.7724273,20.3065026 L68.3502188,20.2510948 L68.9201582,20.1875295 C69.0368024,20.1735159 69.1437286,20.1599164 69.2348458,20.1474101 L69.9623388,20.0377132 L69.8660971,20.5740545 C69.7320462,21.3199278 69.3807639,22.5567714 69.1884179,22.9594742 C68.8807194,23.6036063 68.2018029,23.8608467 66.8304959,23.8527349 C64.238294,23.8373362 62.4564473,22.8991169 60.7466445,20.6489856 C60.6008677,20.4570128 60.4770105,20.2340295 60.4439051,20.1103406 L60.4194484,19.9423437 C60.389751,19.7923999 60.3214623,19.5497677 60.2428878,19.3229122 C59.9170409,18.3820807 59.8502216,16.8290143 60.0801018,15.5419876 C60.6794127,12.1867264 63.1192778,10.0181255 66.89924,9.48095922 C67.3151417,9.4218393 68.1668809,9.40066613 68.7920396,9.43393826 Z M117.888514,5.30723091 C118.013354,5.34985224 118.044426,5.47414155 117.981319,5.67886143 L117.878958,6.04021209 L117.453666,7.66377676 C117.300776,8.26223376 117.157621,8.83638485 117.086782,9.14150596 L117.041312,9.35502005 C117.023164,9.49055166 117.147751,9.54999048 117.574748,9.58173028 L118.199594,9.61537224 L118.500066,9.63874495 C119.08871,9.69521098 119.282232,9.79232139 119.282232,9.9843034 L119.269156,10.0764341 L119.232103,10.2376967 C119.184146,10.4296442 119.105112,10.7078251 119.009665,11.0198465 L118.856018,11.5067099 L118.74419,11.8431667 L118.636669,12.141145 C118.305359,13.0023173 118.029898,13.1089877 116.91881,13.2746702 C116.564228,13.3276032 116.188473,13.4726532 116.083707,13.59708 C115.998897,13.6979177 115.72812,14.581634 115.431694,15.7041108 L115.156936,16.7838443 L114.825772,18.1468589 L114.720858,18.6307112 C114.612915,19.1781762 114.628263,19.3665661 114.71322,19.5752082 L114.771245,19.7040294 C114.907083,19.9887674 115.189209,20.2655311 115.488796,20.4076938 C115.793057,20.5520564 115.982516,20.7395903 115.982516,20.8963268 C115.982516,21.248709 114.225005,23.7912777 113.981513,23.7912777 C113.894291,23.7912777 113.565617,23.671168 113.189005,23.5056366 L112.900581,23.3741386 C111.946826,22.9235898 111.165205,22.2164882 110.822722,21.4948128 L110.749199,21.3338639 L110.685648,21.1781615 C110.403481,20.431141 110.490176,19.7127169 111.226885,16.7717939 L113.599478,7.50747952 L113.812643,6.71688046 L113.91346,6.36648458 C114.134742,5.62204586 114.263539,5.37436263 114.409651,5.30200636 C114.679953,5.16809289 117.492823,5.17235502 117.888514,5.30723091 Z M109.198627,5.23079541 L109.752203,5.23748141 L110.068909,5.24784096 C110.591273,5.27144009 110.801443,5.32117362 110.835646,5.41020955 C110.86885,5.49682709 110.727314,6.21934675 110.510238,7.09347343 L110.270748,8.04121189 L110.12855,8.6617411 L110.045798,9.07615339 C110.002978,9.31380317 109.986235,9.4673798 110.003843,9.49594543 C110.04036,9.55490035 110.316656,9.60593596 110.665405,9.62455516 L110.937937,9.63205871 L111.217129,9.63399658 L111.463473,9.6414312 C112.094861,9.67451085 112.171122,9.82792181 111.969166,10.5658832 L111.638778,11.6842748 L111.509236,12.1574754 L111.454556,12.3873817 L111.436687,12.5261687 C111.378425,12.7830012 110.956772,13.0191479 110.281429,13.1730495 L109.796459,13.2776814 L109.542327,13.3441025 L109.322046,13.4118569 C109.190109,13.4563672 109.091639,13.4984551 109.048438,13.5314981 C108.956504,13.6017284 108.680586,14.4615947 108.371009,15.6187651 L108.148852,16.478557 L107.858176,17.6596549 L107.760257,18.0836639 C107.439356,19.5278995 107.540427,19.797473 108.14437,20.2269655 L108.490958,20.4646913 L108.680591,20.6058398 C108.853724,20.742004 108.970619,20.8573718 108.970619,20.8993515 C108.970619,21.0940348 107.265628,23.5510858 107.028461,23.6983357 C106.705777,23.8986559 105.409126,23.339904 104.653491,22.6747362 C103.346348,21.5240935 103.194276,20.5197701 103.948407,17.4913137 L104.617281,14.8504256 L105.653962,10.6393654 L106.162903,8.64846662 C106.654963,6.76204283 107.007374,5.54118463 107.121816,5.35603921 C107.15923,5.29552723 107.805177,5.24469957 108.623166,5.23293816 L109.198627,5.23079541 Z M84.4270565,9.85396461 C84.5502459,9.97715401 84.6221522,10.1531389 84.5869552,10.2451185 L84.5129408,10.4836961 L84.1226282,11.8867017 C83.9325172,12.5504936 83.8333771,12.6951553 83.5031213,12.8748118 L83.2953,12.9858673 C83.0509935,13.1250999 82.7928918,13.312342 82.6824691,13.4344315 C82.2613704,13.8999389 81.8026744,15.0846318 81.2937683,17.0213985 L81.1284386,17.6603086 L80.9619279,18.2743278 C80.2463313,20.8235179 79.5944707,21.9490784 78.4754687,22.6902724 C77.3824378,23.4142851 75.1588416,23.961488 74.6933067,23.6210673 L74.6139987,23.5576709 C74.4793561,23.4334676 74.4879241,23.2999254 74.6283693,22.7092684 L74.9023422,21.5908219 L74.9901215,21.2587137 C75.1677594,20.6173558 75.2752223,20.4578866 75.5348846,20.264016 L75.8253275,20.055473 C76.7077754,19.3771491 77.2979609,18.1593131 77.8607421,15.8556222 L78.0183066,15.2016311 C78.7660349,12.2478195 80.0280342,10.476295 81.8446162,9.82825433 C82.6056132,9.55685268 84.1452057,9.57211387 84.4270565,9.85396461 Z M89.1492251,9.57665098 C89.2498664,9.60593596 89.4701225,9.62999639 89.6385455,9.62999639 C89.8069685,9.62999639 90.0598092,9.71413915 90.2004596,9.8169803 C90.4158296,9.97447828 90.4384883,10.0509087 90.3151514,10.5440315 L90.2232833,10.8981775 C89.8491609,12.3202128 89.7196853,12.6147345 89.305199,12.8576012 L89.0696631,12.9845954 C88.2689709,13.4337095 87.8497523,14.1902459 87.3051514,16.2212764 L86.92002,17.6981457 L86.7423802,18.3332842 C85.7734894,21.68101 84.9108167,22.6694581 82.7734863,23.380738 C81.7178522,23.7320203 80.5553897,23.8103885 80.3888915,23.5414617 C80.2970575,23.3932171 80.4187702,22.58271 80.6771491,21.5701852 L80.7876072,21.155492 C80.8702548,20.857263 81.0851144,20.5525076 81.4467389,20.2221597 L81.7685352,19.9387821 C82.5433879,19.2092761 83.1082955,18.0479606 83.5188878,16.3407425 L83.6902846,15.5944398 C84.0983265,13.8987374 84.666502,12.5542519 85.3913985,11.5696795 C86.2249893,10.4371894 87.0614673,9.89974817 88.4033518,9.6345335 L88.6362868,9.5955599 C88.8659651,9.56381302 89.073641,9.55468725 89.1492251,9.57665098 Z M161.546929,9.48702299 C161.896791,9.58091595 162.002541,9.79230114 161.895103,10.2036754 L161.763555,10.6368314 L161.43777,11.7675319 C161.293759,12.2276544 161.128095,12.532722 160.972641,12.6190034 C159.864069,13.2344665 159.384987,14.0160451 158.823676,16.2027719 L158.663787,16.8406384 C157.748115,20.4593619 157.026503,21.8792225 155.710969,22.7139347 C154.887552,23.2362522 153.375595,23.7016497 152.502133,23.7016497 L152.321069,23.700343 C151.796962,23.6890005 151.734317,23.5800748 151.946785,22.5431463 L152.133599,21.6772679 C152.323584,20.8250494 152.405767,20.6390194 152.913914,20.1264415 L153.159326,19.8838782 C154.043513,19.0196276 154.755976,17.7244891 154.916287,16.6897531 C155.494013,12.9603866 157.07004,10.3963697 159.254177,9.63221049 C159.882635,9.41236691 161.003714,9.34142302 161.546929,9.48702299 Z M154.86768,5.00077485 L155.146036,5.00733525 C155.666911,5.02850706 155.678797,5.09894705 155.678797,5.26242406 L155.673272,5.34881177 C155.615352,5.88994908 155.118347,7.65919059 154.959184,7.85613834 C154.87389,7.96164333 154.446802,8.01409506 153.550261,8.02555948 L152.540166,8.0307168 L152.182375,8.03815849 C151.597911,8.05738296 151.384592,8.11045265 151.178792,8.24930391 L151.080643,8.32153579 C150.782379,8.55612498 148.627542,11.6982264 147.500752,13.5247362 L146.583021,15.0284359 L145.642659,16.5302048 C145.306164,17.0630468 144.952033,17.6197776 144.596487,18.1753067 L143.519254,19.8480148 L142.522127,21.3751135 C142.400573,21.5596328 142.284546,21.7350138 142.175213,21.8994558 L141.552113,22.8227891 L141.341657,23.1213916 L141.254713,23.2379013 C141.218595,23.2843945 141.19376,23.3128507 141.181357,23.3214949 C141.062243,23.404415 140.045599,23.4371298 138.972097,23.4299594 L138.475658,23.4238555 C137.404559,23.404657 136.405936,23.347161 136.320463,23.2616875 C136.226833,23.1680581 136.180844,21.9153003 136.163701,18.4750241 L136.160916,11.1250941 L136.181733,7.78364351 C136.194622,6.46260566 136.211359,5.55846067 136.229869,5.29643537 L136.238932,5.22076515 C136.294808,5.07513768 136.491471,5.02331014 137.294718,5.00840422 L138.227371,5.0039859 L138.611019,5.00972301 L138.946207,5.02099484 C139.46306,5.04427617 139.767429,5.08973892 139.806475,5.15298348 L139.815244,5.19594261 L139.828186,5.37485635 C139.850155,5.80864512 139.866405,6.84266846 139.874011,8.20591457 L139.873631,15.0725701 L139.88744,16.32855 C139.909933,17.4730026 139.957572,17.8305875 140.043505,17.9019863 L140.091167,17.9367093 C140.298336,18.0660688 140.504928,17.9057365 140.905162,17.3062088 L143.230377,13.7431416 C144.336576,12.0463034 145.195882,10.7021548 146.06758,9.3032772 L146.788812,8.13826406 C147.630514,6.77053177 148.398386,5.99688585 149.423223,5.48446745 L149.696235,5.35071589 L149.857162,5.27961833 C150.276631,5.10763023 150.659724,5.07114338 151.990514,5.04194795 L154.463816,5.00077485 L154.86768,5.00077485 Z M166.255074,9.53115669 C166.388968,9.61585595 166.388343,9.81849605 166.181354,10.6513939 L165.722696,12.4178673 L165.420914,13.6274018 L165.229255,14.4387946 C165.119505,14.9036234 164.979785,15.4596018 164.864196,15.8928592 L164.671607,16.5981082 L164.397702,17.6718724 L163.643032,20.767825 C163.308668,22.1212577 163.004489,23.1953704 162.929648,23.2702118 C162.834652,23.3652075 162.213402,23.4196013 161.160831,23.4260572 L160.388289,23.4260572 C159.243634,23.4221162 159.128617,23.3931888 159.117544,23.1825784 L159.117544,23.0901905 L159.134485,22.9619941 L159.184412,22.7018689 L159.267968,22.323614 L159.536688,21.2124815 C159.667918,20.6869044 159.830632,20.0510884 160.025879,19.3008666 L161.752265,12.7887368 L162.256658,10.8255794 L162.351804,10.474521 C162.559073,9.73468946 162.669363,9.5322258 162.812508,9.49403488 C163.244771,9.37854482 166.062041,9.40892971 166.255074,9.53115669 Z M185.7881,9.42391944 L188.262668,9.43491497 L190.158011,9.45973746 L190.914755,9.47860967 L191.398337,9.49790871 C192.970472,9.57477826 193.323669,9.75715214 193.884115,10.2848537 L194.084036,10.4790612 C194.876371,11.2894453 194.91226,12.0770004 194.157121,14.966059 L193.423836,17.693032 L192.983811,19.3726663 C192.915151,19.6382577 192.849938,19.8924431 192.789834,20.1288744 L192.383152,21.7462005 L192.171411,22.5283933 C192.056364,22.9343122 191.96793,23.2083797 191.933189,23.2548131 C191.847267,23.3695915 191.352744,23.4205525 190.24467,23.4261507 L189.260692,23.4211524 L188.944802,23.4122148 C188.38227,23.3893145 188.219519,23.3344812 188.17385,23.215629 C188.102405,23.0292597 188.574855,20.7791084 189.190206,18.2982974 L189.392425,17.4952049 L189.978242,15.2445352 L190.124712,14.6448222 C190.413408,13.4006532 190.33274,13.1923324 189.927214,12.9639408 L189.762389,12.8765188 C189.31294,12.6454012 187.106805,12.6459511 186.914871,12.8772062 L186.890976,12.92584 L186.822689,13.1249184 C186.69054,13.5429231 186.442502,14.4477398 186.149866,15.5773583 L184.620354,21.6494636 L184.404602,22.4573833 C184.243224,23.0343961 184.180736,23.1642404 184.107225,23.2548131 L184.083255,23.2767496 C183.945526,23.375287 183.442029,23.4204881 182.419869,23.4261507 L181.421518,23.4211923 L181.105298,23.4122711 C180.542631,23.3893713 180.382568,23.3342847 180.336337,23.2138416 C180.294504,23.1046394 180.427412,22.3833056 180.636691,21.5680661 L181.058171,19.9377934 L182.968999,12.2306647 L183.29099,11.0084831 L183.43942,10.4871246 C183.602336,9.93999434 183.7019,9.70682072 183.787358,9.60767343 L183.827849,9.5693784 C183.955171,9.47566619 184.453626,9.43186778 185.7881,9.42391944 Z M154.273668,9.57474044 C154.357656,9.67728942 154.147124,10.7327958 153.564193,13.1038122 L151.531005,21.1394555 L151.172002,22.4756395 C150.973727,23.1720302 150.912664,23.2637386 150.837014,23.3126956 L150.809762,23.3241299 C150.629087,23.379662 149.794733,23.4100974 148.873133,23.3924388 L147.085786,23.3579292 L147.104897,23.0142088 L147.116951,22.9276342 L147.191912,22.5655807 C147.289163,22.1287921 147.460237,21.422826 147.66673,20.6070274 L150.024832,11.5118242 L150.183781,10.9301296 C150.454601,9.96714805 150.571224,9.73642577 150.74595,9.60673277 L150.824777,9.55562958 C151.189946,9.34321036 154.096995,9.35929648 154.273668,9.57474044 Z M171.946947,12.7629536 C169.622572,13.4898535 168.36868,16.0766934 169.343746,18.1333789 C170.672431,20.9355252 174.541349,21.3107304 176.654267,18.8424054 C177.947343,17.3316854 177.715813,14.7859545 176.169208,13.5102017 C175.124848,12.6488384 173.328703,12.3309657 171.946947,12.7629536 Z M95.4049367,13.0399779 C94.4808788,13.3680247 93.775427,13.915915 93.2884439,14.6839239 C92.6245135,15.7308963 92.4064573,17.4668219 92.938949,17.4668219 C93.1077844,17.4668219 96.2788115,15.8331875 98.7277508,14.4847036 C99.2570802,14.1932287 99.6901679,13.8632571 99.6901679,13.7514792 C99.6901679,13.6398388 99.3808196,13.3938725 99.0027271,13.2051012 C98.085956,12.7472656 96.4422849,12.6717846 95.4049367,13.0399779 Z M124.552428,12.9240754 C122.904633,13.3166041 121.482043,15.1071125 121.482043,16.7884553 C121.482043,17.5249669 121.721315,17.5992838 122.693959,17.0953505 L126.296051,15.1901128 L127.79631,14.3774692 C128.047568,14.2382941 128.23179,14.1333638 128.324416,14.0759513 C128.783352,13.7914882 128.527899,13.4459805 127.594766,13.0889237 C126.79431,12.7824626 125.452013,12.7098688 124.552428,12.9240754 Z M165.831543,5.00390878 L166.193403,5.00891595 L166.685306,5.02473441 C167.189736,5.04731523 167.537323,5.08551116 167.563961,5.12864807 C167.63958,5.25087505 167.062405,7.60192272 166.887245,7.88542332 C166.746594,8.11282875 163.11237,8.07460704 163.02424,7.84472682 C162.952058,7.6567805 163.446878,5.67543852 163.673734,5.24386316 C163.75947,5.08088968 163.924182,5.02611769 164.74001,5.00963938 L165.831543,5.00390878 Z" id="Shape"></path>
                <path d="M7.91287425,10.4087084 L9.0147155,10.4425884 C10.4392276,10.4991288 10.7409594,10.606277 11.2463336,11.1709861 L11.5474262,11.5235668 C12.0261075,12.0954033 12.4941579,12.9354831 12.5874727,13.3905759 L12.6388512,13.628059 C12.7449214,14.0793174 12.8282989,14.1255303 13.1118883,13.8901048 L13.2578037,13.7618983 C14.0524559,13.0385622 15.8263228,13.1725354 16.3631781,13.996277 C16.7187193,14.5423809 16.7547966,14.8232956 16.4170075,16.221115 L16.1440585,17.3166063 L16.0535506,17.711724 C15.7299978,19.2022582 15.8708501,19.6268774 16.5718639,19.465207 L16.7514976,19.4152079 C17.3782422,19.2150304 17.6960427,18.5588994 18.2791939,16.1104897 L18.5007283,15.165852 C18.732054,14.206039 18.9609319,13.4223611 19.0362334,13.3466113 C19.3947276,12.985983 21.6614501,13.3626525 22.0119712,13.8409157 L22.1351296,14.0049889 C22.3344953,14.2592953 22.3996278,14.2575845 22.5137148,13.9949362 L22.600709,13.7809257 C22.7600046,13.4326394 23.1451654,13.3324274 24.7695088,13.3109033 L25.689637,13.3059144 L26.2824669,13.3095045 C29.1092175,13.3464025 29.9196429,13.6824724 30.7233202,14.990827 L30.8072614,15.1244759 L30.974865,15.3746351 C31.2230416,15.7291273 31.4478387,15.9794358 31.5297844,15.9794358 C31.6393407,15.9794358 31.9116073,15.5641488 32.1348541,15.0567738 C32.6993145,13.7743857 34.0617183,13.2401501 36.4630775,13.3667967 L37.1879387,13.4174267 C38.62284,13.5314625 38.889863,13.6498078 39.6167446,14.4955714 L40.8642164,15.9827034 L41.4704672,13.4544434 L44.7981087,13.3557311 C46.9452419,13.3003208 47.1932991,13.3780278 47.7503163,13.9745918 L47.8518653,14.0854101 C48.3283187,14.6174948 48.3392367,14.8418896 48.057133,15.7670394 L47.9642951,16.0581673 C47.7417866,16.7137259 47.567626,16.8456798 46.9119488,16.8669956 L46.6402837,16.8706096 C45.2730449,16.8706096 44.331038,17.8200067 43.9421279,19.590175 L43.6292923,20.9979376 C43.1783933,22.9578721 43.0130947,23.0986526 42.130365,23.1082089 L41.8514042,23.1088262 C41.1760531,23.1088262 40.4103403,22.908015 40.1368926,22.6590805 C39.7508617,22.307661 39.5746414,22.2637335 38.896447,22.5272982 L38.5729839,22.6590805 C37.3935559,23.1548702 34.3729325,23.2597316 33.282685,22.8426623 C32.8999763,22.6962127 32.2069072,22.0251589 31.742991,21.3517285 L30.8990237,20.1269587 L30.3462222,21.0416 C29.6109252,22.2577552 27.999178,22.9124709 26.1742242,22.7360185 L25.8179613,22.7041941 C24.8981185,22.631545 24.710422,22.7174604 24.510607,23.2078568 L24.4352558,23.3979561 C24.2467412,23.8388629 24.009148,23.9691227 23.2624853,23.9947984 L22.9099784,24 C22.1682833,24 21.5744761,23.8552255 21.3000587,23.612125 L21.1981426,23.5040531 C20.9153966,23.2110803 20.3105408,23.1203512 18.5398799,23.1338096 L17.2124968,23.1519609 C14.3939901,23.1730017 13.7309192,22.8744037 12.5834731,21.2175081 L11.8202834,20.0913117 L11.3324134,21.2614361 C10.67121,22.748161 9.67224192,23.0906802 5.94618801,23.1081088 L2.0939884,23.1088262 L1.03740512,21.867124 C-0.112492952,20.5158075 -0.294988331,19.4784812 0.432926088,18.4328373 C0.811795945,17.8886271 1.00876102,17.8307008 1.64897135,18.0757736 C2.06888791,18.2361849 2.74719193,18.6324602 3.15618238,18.9559563 C4.21453747,19.7936597 7.95392095,19.7642509 7.95392095,18.9182299 C7.95392095,18.7895339 7.27639145,18.6814213 6.38607828,18.6577643 L5.75858845,18.6509252 C3.63063682,18.6167478 2.68648507,18.1436742 1.65605855,16.6478161 C1.01614352,15.718916 0.898023536,15.2926378 1.05335132,14.4733521 C1.45466397,12.355329 2.19498099,11.4305876 4.03853869,10.7461662 C4.7617283,10.4773287 6.11154445,10.3599909 7.91287425,10.4087084 Z M23.0029979,14.2980879 L22.9553274,14.4267276 L22.8862304,14.6421917 C22.6943578,15.2688771 22.3659049,16.5297579 22.0559794,17.8400129 L21.6740644,19.4422993 L21.3141291,20.8714856 C21.2260695,21.2074154 21.1538956,21.4686536 21.1058822,21.6227317 L21.0684878,21.7340421 C20.8951467,22.1879466 21.0221257,22.2455758 22.0152195,22.1635879 C22.8506034,22.0948288 23.1421839,21.9551667 23.2325691,21.5482465 L23.2713738,21.3281991 C23.3529968,20.9532387 23.5598694,20.8813744 24.5596734,20.9375068 L25.0951981,20.9729797 C28.1178886,21.1928025 29.1047811,20.4430283 29.9186278,17.308473 L30.0054309,16.9560806 L30.0775502,16.6197887 C30.5105896,14.4038437 29.6969523,13.8500696 26.3279633,13.737709 L25.1532332,13.7093061 L24.7459463,13.7048762 C23.3666113,13.6994643 23.203815,13.8201959 23.0029979,14.2980879 Z M3.64460853,11.396426 C2.67189044,11.8791451 1.45732167,13.7318955 1.45732167,14.7329807 C1.45732167,16.4156132 2.21568607,16.9236246 5.32712971,17.1343006 L6.54975227,17.2084721 L6.96493971,17.2419411 C8.92822725,17.4208303 9.21780219,17.7851981 8.55512349,18.8891597 L8.4145889,19.1130999 L8.31545755,19.2590477 C7.95936725,19.7550614 7.6416852,19.8313423 5.94683821,19.8401805 L4.80804827,19.8382175 L4.37145951,19.829911 C3.2357489,19.7965488 2.92468158,19.6707516 2.51186168,19.2254121 L2.38190587,19.0795324 C1.49718717,18.0558707 0.745058153,18.2358879 0.624575766,19.5001664 L0.605376964,19.7494894 C0.520931122,21.265163 1.17341893,21.5923843 4.33831866,21.6213172 L5.41640684,21.6224696 L6.16241737,21.6152656 C7.96925752,21.5849411 8.38188716,21.4554061 8.98333663,20.9795149 C10.5809095,19.7155334 11.0725839,17.2434173 9.99946382,15.8710096 L9.83434301,15.6677638 L9.72547016,15.5495387 C9.32627708,15.1484692 8.88794307,15.0949554 7.11615302,15.0889486 L6.6209369,15.088262 C5.09955147,15.088262 3.77867471,14.9646859 3.68565522,14.8134834 C3.59293104,14.6622809 3.67295733,14.1944147 3.86342581,13.7737806 L3.9594606,13.573055 C4.20077905,13.1110937 4.46242263,13.026766 5.9355091,13.0119191 L6.82026438,13.0088565 C8.2900145,13.0088565 9.32772938,13.1190575 9.42322661,13.2812093 L9.43042078,13.3059144 C9.43042078,13.4556811 9.83512734,13.5804867 10.356126,13.6002476 L10.7517985,13.6019438 L10.9785918,13.5954877 C11.5499792,13.5649308 11.5339607,13.4107017 11.3829442,12.637534 C11.2789986,12.1063944 10.971296,11.5051492 10.6987341,11.3007733 C9.96343722,10.7494338 4.8069092,10.8195395 3.64460853,11.396426 Z M41.9429472,14.1415384 C41.6060099,14.7748659 40.1416174,20.4786753 40.1416174,21.1574526 C40.1416174,21.8065242 41.5265742,21.7631538 41.8605585,21.1036851 C41.9829944,20.86188 42.1984585,20.1785378 42.3776059,19.4790968 L42.4709435,19.0985441 C43.1767104,16.0801384 44.0132952,15.088262 45.8536046,15.088262 C46.5930357,15.088262 46.9462145,14.6331692 46.7176523,13.9742947 C46.5729061,13.5565488 45.6081949,13.497305 44.6265382,13.8265931 L44.4532922,13.8887421 C44.0227448,14.053431 43.7108372,14.0698999 43.5707419,13.9381487 L43.5304798,13.8887421 C43.2372469,13.41137 42.2476967,13.5691077 41.9429472,14.1415384 Z M13.6561633,13.9742947 C13.4249434,14.3334378 12.8213503,17.0818178 12.4906143,19.2785612 C12.3535952,20.190232 12.4483864,20.4436224 13.1287576,20.9821885 L13.2920799,21.105387 C13.9077324,21.5439112 14.4510518,21.6023741 16.5592573,21.5537279 L19.19038,21.4931281 L19.6961713,19.6391366 L19.9762358,18.5650618 C20.5198521,16.4378636 20.9471195,14.5106951 20.9471195,14.1213384 C20.9471195,13.7210953 20.7910369,13.601578 20.2769573,13.6448172 L20.1518767,13.657631 C19.487186,13.7362325 19.336521,13.9031404 18.8618213,15.7461378 L18.6904372,16.4247256 C17.9459233,19.4127324 17.3280289,20.2351153 15.9374261,19.9980779 L15.5348946,19.9130198 L15.2879029,19.8493344 C14.2877617,19.56454 14.1894894,19.1326985 14.596963,17.2928376 L15.0322202,15.4063157 L15.2640799,14.3194932 C15.3101523,14.0857672 15.3364201,13.9296266 15.3364201,13.8813156 C15.3364201,13.4669198 13.9322688,13.544749 13.6561633,13.9742947 Z M36.5085088,13.9024943 L35.569403,13.9009593 L35.1359791,13.9056046 C33.7393499,13.931275 33.5543667,14.0710036 32.9407277,14.8045717 C32.208679,15.6800014 31.8321716,16.7375276 31.4524158,18.9841768 C31.1919613,20.5238281 31.9045201,21.2943963 33.7926681,21.5151104 C36.2043829,21.7970184 38.6651175,20.8609888 38.6651175,19.662063 C38.6651175,18.9621945 37.8190831,18.8350537 36.8032512,19.3822344 C36.227121,19.69266 35.3996905,19.851883 34.678568,19.7915803 C33.7147089,19.7107805 33.4799454,19.569678 33.4028721,19.0242796 L33.3823974,18.8438682 C33.3562642,18.4481449 33.5435841,18.372733 34.7818545,18.3588955 L36.2460311,18.3521177 L36.6753145,18.3411435 C37.7868481,18.2965493 38.0551963,18.1240246 38.6878556,17.4875989 C39.7025063,16.4669079 39.8046801,15.3434348 38.9604175,14.4941461 C38.5120366,14.0430959 38.0619325,13.9204189 36.5085088,13.9024943 Z M28.0349093,15.980624 C28.4610272,16.7814922 27.907635,18.8383213 27.1578684,19.2420231 C26.3401828,19.6822629 24.8952801,19.6115631 24.3935654,19.1068617 C23.8499182,18.5599781 24.2556603,16.3249142 25.0018833,15.7566423 C25.8009651,15.1482677 27.6651938,15.2858055 28.0349093,15.980624 Z M25.9808027,17.6634572 C25.3385253,18.4848224 25.3134248,18.9782356 25.9034341,19.1760762 C26.3475653,19.3251993 27.7390187,17.9254623 27.7390187,17.3295641 C27.7390187,16.5934545 26.6567444,16.7987216 25.9808027,17.6634572 Z M12.7543172,15.3853199 L11.6829689,15.3853199 C11.0938455,15.3853199 10.6145737,15.4854284 10.6180593,15.6081134 C10.6216609,15.7307983 10.8844778,16.165097 11.2022206,16.5735517 C11.5199634,16.9820063 11.7827803,17.5767163 11.7863239,17.8954595 C11.7971446,18.8499066 12.3000193,18.0669399 12.5294773,16.7914956 L12.7543172,15.3853199 Z M35.9217773,15.4349314 L36.335647,15.4592022 C37.2785919,15.5290275 37.6315676,15.6742088 37.6315676,15.9794358 C37.6315676,16.32432 37.1673561,16.4452226 35.5792329,16.5141401 L33.5266028,16.6035545 L34.0867868,15.9809211 C34.5120188,15.508042 34.8809303,15.3891956 35.9217773,15.4349314 L35.9217773,15.4349314 Z" id="Shape"></path>
            </g>
        </g>
    </g>
</svg>