<?xml version="1.0" encoding="UTF-8"?>
<svg width="94.08mm" height="86.911mm" version="1.1" viewBox="0 0 94.08 86.911" xmlns="http://www.w3.org/2000/svg">
<g transform="translate(-77.43 -111.24)">
<path d="m109.68 132.14v17.727h28.575v-17.727h-28.575" stop-color="#000000"/>
<path d="m85.865 111.24v19.579h76.2v-19.579z" stop-color="#000000" stroke-dashoffset="158.74" stroke-width=".47514"/>
<path d="m86.659 112.03v17.992h74.613v-17.992z" fill="#ffaa1c" stop-color="#000000" stroke-dashoffset="158.74" stroke-width=".4507"/>
<path transform="matrix(.26458 0 0 .26458 71.842 106.48)" d="m149 102v14h63v9h-63v34h97v-14h-62v-9h62v-34z" fill="#fff" stop-color="#000000"/>
<path d="m133.23 151.98h-18.785v33.073h18.785z" stop-color="#000000" stroke-dashoffset="158.74" stroke-width=".47514"/>
<path d="m132.43 152.78h-17.198v31.485h17.198z" fill="#ffaa1c" stop-color="#000000" stroke-dashoffset="158.74" stroke-width=".4507"/>
<g stroke-width=".71341">
<path transform="scale(1.1094 .90135)" d="m104.65 211.51v0.94796h-0.84531v-0.94796zm0 2.4695v5.7723h-0.84531v-5.7723z" fill="#747474"/>
<path transform="scale(1.1094 .90135)" d="m105.97 213.98h0.81513l-0.0242 0.78493 0.0242 0.0181q0.38642-0.88758 1.9201-0.88758 1.2378 0 1.6725 0.43473 0.44077 0.43473 0.44077 1.6665v3.7556h-0.84531v-3.9005q0-0.74267-0.28379-0.99626-0.28378-0.25963-1.0929-0.25963-1.7812 0-1.7812 1.6846v3.4718h-0.84532z" fill="#747474"/>
<path transform="scale(1.1094 .90135)" d="m115.24 213.98v0.7004h-2.222v3.5322q0 0.9238 0.82116 0.9238 0.81512 0 0.81512-0.8272l6e-3 -0.28378 0.0121-0.32001h0.78493l6e-3 0.42869q0 1.7027-1.6182 1.7027-1.6725 0-1.6725-1.4189v-3.7375h-0.79701v-0.7004h0.79701v-1.3887h0.84531v1.3887z" fill="#747474"/>
<path transform="scale(1.1094 .90135)" d="m120.07 218.01h0.86343l6e-3 0.21132q0 0.89966-0.54946 1.2619-0.54341 0.35624-1.914 0.35624-1.594 0-2.0952-0.57964-0.49511-0.58568-0.49511-2.4514 0-1.7269 0.50115-2.3186 0.50115-0.59172 1.9623-0.59172 1.594 0 2.0891 0.51322 0.49511 0.51323 0.49511 2.1616v0.45284h-4.1541q0 1.3646 0.28982 1.7389 0.29586 0.37435 1.3706 0.37435 1.0204 0 1.3223-0.1751 0.30793-0.18114 0.30793-0.77286zm0-1.6423-6e-3 -0.27171q0-0.93588-0.30794-1.2136-0.30793-0.28378-1.3284-0.28378-1.0264 0-1.3344 0.33209-0.3019 0.32605-0.3019 1.437z" fill="#747474"/>
<path transform="scale(1.1094 .90135)" d="m122.19 213.98h0.84531l-0.0845 0.66417 0.0181 0.0181q0.50115-0.81512 1.6544-0.81512 1.594 0 1.594 1.6423l-6e-3 0.39851h-0.83323l0.0181-0.14491q0.0181-0.22944 0.0181-0.30794 0-0.88757-0.96607-0.88757-1.4129 0-1.4129 1.745v3.4597h-0.84531z" fill="#747474"/>
<path transform="scale(1.1094 .90135)" d="m127.76 215.6h-0.83927q0-1.0083 0.45284-1.3525 0.45889-0.3502 1.7872-0.3502 1.4431 0 1.9503 0.42869 0.50718 0.42266 0.50718 1.6182v3.8099h-0.84531l0.0664-0.62191-0.0181-6e-3q-0.48304 0.71248-1.9623 0.71248-2.1857 0-2.1857-1.757 0-1.0446 0.48907-1.4431 0.48908-0.3985 1.7691-0.3985 1.5216 0 1.8235 0.59776l0.0181-6e-3v-0.7004q0-0.99023-0.2717-1.28-0.27171-0.29586-1.1895-0.29586-1.5578 0-1.5578 0.87551 0 0.0423 6e-3 0.16906zm1.3585 1.2982q-0.97211 0-1.268 0.20529-0.28982 0.20529-0.28982 0.88154 0 0.7004 0.28982 0.92985 0.28982 0.2234 1.1774 0.2234 1.7872 0 1.7872-1.0868 0-0.68229-0.3502-0.91777-0.34416-0.23548-1.3465-0.23548z" fill="#747474"/>
<path transform="scale(1.1094 .90135)" d="m136.99 217.67h0.84531l6e-3 0.31397q0 1.8536-2.4273 1.8536-1.5578 0-2.0589-0.58568t-0.50115-2.4152q0-1.7148 0.50719-2.3246 0.51322-0.61587 1.9442-0.61587 1.4068 0 1.9201 0.41662 0.51322 0.41058 0.51322 1.5518h-0.84531v-0.15095q0-0.67021-0.33209-0.89362-0.33208-0.2234-1.3223-0.2234-0.95399 0-1.2257 0.42266-0.2717 0.42265-0.2717 1.8959 0 1.437 0.30793 1.8295 0.31397 0.39247 1.4551 0.39247 0.96607 0 1.2257-0.25359 0.25963-0.25963 0.25963-1.2136z" fill="#747474"/>
<path transform="scale(1.1094 .90135)" d="m141.92 213.98v0.7004h-2.222v3.5322q0 0.9238 0.82116 0.9238 0.81512 0 0.81512-0.8272l6e-3 -0.28378 0.0121-0.32001h0.78494l6e-3 0.42869q0 1.7027-1.6182 1.7027-1.6725 0-1.6725-1.4189v-3.7375h-0.79701v-0.7004h0.79701v-1.3887h0.84531v1.3887z" fill="#747474"/>
<path transform="scale(1.1094 .90135)" d="m143.57 211.51v0.94796h-0.84531v-0.94796zm0 2.4695v5.7723h-0.84531v-5.7723z" fill="#747474"/>
<path transform="scale(1.1094 .90135)" d="m149.17 213.98-1.9321 5.7723h-1.2136l-1.914-5.7723h0.86947l1.0204 3.1397 0.32001 0.98418 0.15095 0.49511 0.15699 0.49511h0.0242l0.14491-0.48907 0.14491-0.49511 0.30793-0.97815 0.97815-3.1518z" fill="#747474"/>
<path transform="scale(1.1094 .90135)" d="m153.72 218.01h0.86343l6e-3 0.21132q0 0.89966-0.54945 1.2619-0.54341 0.35624-1.914 0.35624-1.594 0-2.0952-0.57964-0.49511-0.58568-0.49511-2.4514 0-1.7269 0.50115-2.3186 0.50115-0.59172 1.9623-0.59172 1.594 0 2.0891 0.51322 0.49512 0.51323 0.49512 2.1616v0.45284h-4.1541q0 1.3646 0.28982 1.7389 0.29586 0.37435 1.3706 0.37435 1.0204 0 1.3223-0.1751 0.30794-0.18114 0.30794-0.77286zm0-1.6423-6e-3 -0.27171q0-0.93588-0.30793-1.2136-0.30794-0.28378-1.3284-0.28378-1.0264 0-1.3344 0.33209-0.3019 0.32605-0.3019 1.437z" fill="#747474"/>
<g transform="scale(1.1094 .90135)" aria-label="TAKE2">
<path d="m73.409 212.46v7.3784h-0.92984v-7.3784h-2.6869v-0.86342h6.2795v0.86342z"/>
<path d="m81.559 218.09h-4.1722l-0.63398 1.745h-0.98418l3.019-8.2418h1.3042l3.0793 8.2418h-0.97211zm-0.27171-0.7004-1.8295-5.0356-1.8053 5.0356z"/>
<path d="m84.541 211.59v3.5986h0.81512l3.3812-3.5986h1.2016l-3.7677 3.973 4.2266 4.2688h-1.274l-3.7677-3.8582h-0.81512v3.8582h-0.92984v-8.2418z"/>
<path d="m91.26 212.38v2.8076h4.1843v0.78493h-4.1843v3.0794h4.3654v0.78493h-5.2953v-8.2418h5.2953v0.78493z"/>
<path d="m102.24 219.05v0.78493h-5.9353v-1.5518q0-1.3042 0.50719-1.7087 0.50719-0.40455 2.4091-0.62191 1.5216-0.16906 1.8355-0.45888 0.32001-0.28983 0.32001-1.5034 0-1.0627-0.35624-1.3766-0.3502-0.32001-1.5397-0.32001-1.4853 0-1.8778 0.25963-0.38643 0.25359-0.38643 1.2317l0.01208 0.61587h-0.91173l6e-3 -0.4287q0-1.4793 0.62191-1.9684 0.62794-0.49511 2.5057-0.49511 1.6665 0 2.2401 0.53133 0.57361 0.53134 0.57361 2.071 0 1.4793-0.53738 1.9804-0.53134 0.49511-2.3186 0.67021-1.5699 0.15699-1.8718 0.43473-0.3019 0.27775-0.3019 1.5759v0.27774z"/>
</g>
</g>
</g>
</svg>
