<?xml version="1.0" encoding="UTF-8"?>
<svg width="97.6742793px" height="30px" viewBox="0 0 97.6742793 30" version="1.1" xmlns="http://www.w3.org/2000/svg" xmlns:xlink="http://www.w3.org/1999/xlink">
    <title>teknoparrot</title>
    <g id="Page-1" stroke="none" stroke-width="1" fill="none" fill-rule="evenodd">
        <g id="System" transform="translate(-51.162931, 0.000000)" fill="#000000">
            <g id="teknoparrot" transform="translate(51.162931, -0.000000)">
                <line x1="48.8370693" y1="30" x2="48.8370693" y2="1.13686838e-13" id="Path" stroke="#979797" fill-rule="nonzero"></line>
                <path d="M62.3285564,20.5703838 L63.6684241,20.5698582 C65.1289545,20.5702774 65.2058077,20.5769117 65.3349076,20.6098728 C65.5441285,20.6633935 65.6798393,20.7381555 65.8416949,20.8890774 C65.9905094,21.0278138 66.0932523,21.1849328 66.1642585,21.3823645 L66.2130426,21.5179919 L66.2130426,29.0296608 L66.1659695,29.1793725 C66.0745196,29.470192 65.8559508,29.7292217 65.5826755,29.8714224 L65.510105,29.9087279 C65.3398688,29.9943333 65.2284954,29.9998265 63.3269304,30 L62.1162199,29.9998302 C60.547823,29.9988012 59.8217312,29.9916943 59.7508999,29.9770283 C59.6900971,29.9644462 59.5699104,29.9207742 59.4838392,29.8800025 C59.2957712,29.7909058 59.0738512,29.5789441 58.9733813,29.3934777 L58.9611032,29.370374 C58.8492866,29.1628674 58.8378023,29.2675938 58.8369502,26.8855858 L58.8371604,24.3186096 C58.8381115,21.9123076 58.8438765,21.5316776 58.8688839,21.4356139 C58.9755079,21.0262697 59.3241954,20.6900808 59.7342282,20.601297 C59.8432194,20.5776772 60.2963108,20.5719623 62.3285564,20.5703838 L62.3285564,20.5703838 Z M73.4430239,20.5686004 L73.4430239,22.4256519 L72.0241531,22.4256519 L72.0241531,29.999918 L69.5411292,29.999918 L69.5411292,22.4256519 L67.1207026,22.4256519 L67.1207026,20.5686004 L73.4430239,20.5686004 Z M50.5741653,20.5686004 L53.8330598,20.5686004 L54.357358,20.568926 C55.8788562,20.5705306 56.9190664,20.5779278 56.972584,20.5880681 C57.398905,20.66892 57.7460621,20.9724575 57.879156,21.3795532 L57.8880319,21.4076206 C57.9258391,21.5300248 57.9290443,21.5932934 57.9293159,22.8555359 L57.9291686,23.8937405 C57.9282494,24.8979439 57.9224324,24.9405085 57.8856236,25.0580843 L57.8831235,25.0660452 C57.7722637,25.4183216 57.4797051,25.7145109 57.1275122,25.8310044 C57.1214809,25.8329991 57.1155552,25.8349114 57.109683,25.8367456 L57.1026586,25.8389096 L57.0956657,25.8410005 C57.0898457,25.842713 57.0840376,25.8443511 57.0781893,25.8459194 L57.0612993,25.8502208 C56.9642723,25.873605 56.8435362,25.87972 56.4759375,25.888093 L55.9614716,25.8997987 L58.0371094,29.7101625 C58.0566746,29.74622 58.0705955,29.7719272 58.0781973,29.7860441 L58.1933971,29.999918 L55.7120425,29.999918 L53.4786564,25.8997987 L53.0571892,25.8879053 L53.0571892,29.999918 L50.5741653,29.999918 L50.5741653,20.5686004 Z M42.3113295,29.999918 L42.3113295,20.5686004 L45.9946318,20.5690919 C48.1961725,20.5700369 48.6537731,20.5758078 48.7642078,20.5992105 C49.0733077,20.6646977 49.3791454,20.8954772 49.5305421,21.176467 L49.5622195,21.236865 C49.6690062,21.4436042 49.6758914,21.5236492 49.6762932,22.8343603 L49.6762233,23.7487026 C49.6752276,25.0327087 49.6638093,25.0275273 49.5373463,25.2681926 C49.402804,25.5242362 49.1847569,25.7104003 48.8865437,25.8238891 C48.8591793,25.8343003 48.8359097,25.8426853 48.811653,25.8495379 L48.8046912,25.8514545 C48.7148914,25.875527 48.6053127,25.8796307 48.2254334,25.8881139 L47.7024543,25.8997987 L49.3587087,28.9377598 C49.6903393,29.5469351 49.9168325,29.9642315 49.9208588,29.9738358 C49.9293653,29.9941207 49.6858956,29.9996965 48.750622,29.999918 L47.4531921,29.999918 L45.2194721,25.8997987 L44.7943534,25.8879053 L44.7943534,29.999918 L42.3113295,29.999918 Z M35.5758247,20.7303099 L35.637942,20.5686004 L37.0182368,20.5687102 C37.7721463,20.5695833 37.9905478,20.5758647 37.9980249,20.5946826 L41.6381223,29.9738358 C41.6458654,29.9942025 41.116379,29.9996998 39.0512425,29.999918 L36.1976657,29.999918 L36.1976657,28.1223555 L38.5053756,28.1115679 L37.5988145,25.7868077 C37.1688824,24.6862265 36.8211895,23.8150185 36.8123289,23.8170007 C36.802981,23.8190665 36.2556933,25.211083 35.5961062,26.9103477 L34.3968474,29.999918 L32.9739,29.9998125 C32.1910544,29.9989714 31.9811165,29.9928843 31.9886898,29.9738358 L34.3971549,23.7686281 C35.0346038,22.1258763 35.5542896,20.7863679 35.5758247,20.7303099 Z M25.6395978,29.999918 L25.6395978,20.5678284 L32.0975464,20.5790333 L32.2356777,20.632846 C32.437825,20.7115934 32.5570102,20.7876699 32.6903632,20.9231094 C32.8149108,21.0496185 32.9111645,21.2110567 32.9765786,21.4032303 L32.9787518,21.4097412 L32.9808432,21.4163049 C33.0085278,21.5055906 33.0142661,21.6293387 33.0153837,22.5981147 L33.0156364,23.1337547 L33.0155285,23.6931636 C33.0148118,24.8412529 33.0098157,24.9531544 32.9787518,25.0482251 L32.9765786,25.054736 C32.8469606,25.4354941 32.6139737,25.6777663 32.2356777,25.8251202 L32.0975464,25.878933 L28.1226216,25.8905761 L28.1226216,29.999918 L25.6395978,29.999918 Z M63.7404516,22.4256519 L61.320025,22.4256519 L61.320025,28.1220008 L63.7404516,28.1220008 L63.7404516,22.4256519 Z M55.4567501,22.4465176 L53.0363234,22.4465176 L53.0363234,24.4287636 L55.4567501,24.4287636 L55.4567501,22.4465176 Z M30.5430483,22.4465176 L28.1226216,22.4465176 L28.1226216,24.4287636 L30.5430483,24.4287636 L30.5430483,22.4465176 Z M47.2147801,22.4256519 L44.7943534,22.4256519 L44.7943534,24.4078978 L47.2147801,24.4078978 L47.2147801,22.4256519 Z" id="parrot"></path>
                <path d="M86.2314181,0.0666962121 L87.0917642,0.0666962121 C90.411444,0.0680610626 93.4728424,0.082247278 93.604442,0.110239071 L93.6285827,0.115514473 C93.8199569,0.158378949 94.061898,0.23653296 94.1542197,0.285673914 L94.1599074,0.28877055 C94.1892673,0.305125004 94.288622,0.338950259 94.3807204,0.36390057 C94.5695502,0.415112898 94.9158963,0.580638957 95.1017119,0.708488371 C95.6410182,1.07953355 96.0593964,1.72815792 96.1799058,2.38001969 C96.2353323,2.67984205 97.6923022,22.0639175 97.6741104,22.257129 C97.5716811,23.3333135 96.746423,24.1697071 95.6604705,24.2977798 L95.6278811,24.3014214 C95.3081328,24.3351038 95.0588456,24.2990252 94.4854071,24.1346331 L94.4060894,24.111685 C91.5069494,23.2658343 87.3780897,22.5285486 82.1751915,21.9275576 L81.8240873,21.8869795 C81.4295195,21.8406096 81.0871799,21.7967701 81.0150368,21.7829838 L81.0008302,21.7800971 C80.8470867,21.7477648 80.4642174,21.6375432 80.0217325,21.4980702 C78.7384102,21.0935625 77.7313275,19.9296612 77.4950809,18.5779628 C77.4347704,18.2327889 76.5517694,2.7825458 76.574794,2.47510438 C76.6605293,1.33057164 77.513389,0.357872307 78.6437162,0.115485893 C78.7887838,0.0843728212 82.5276242,0.0676881153 86.2314181,0.0666962121 L86.2314181,0.0666962121 Z M78.5257614,10.5556044 L78.4255155,10.5556044 L78.442149,10.7439876 C78.4483737,10.8144334 78.4970687,11.6340244 78.5635399,12.7812009 L78.7696293,16.3650357 C78.8360267,17.5086198 78.8845956,18.3213469 78.8906685,18.3839739 C78.9859486,19.3658272 79.5940496,20.2494143 80.4801764,20.6935522 L80.5024894,20.7046608 C80.8530856,20.8779717 81.0813516,20.9302324 81.9807689,21.0397554 L82.0680097,21.0503082 C87.4320638,21.6951263 91.2716668,22.3566847 94.0302762,23.1117272 L94.598745,23.2684958 C95.2518358,23.4475822 95.289741,23.4493894 95.4672479,23.4493894 C95.9792037,23.4493894 96.4830382,23.1275751 96.7075351,22.6571473 C96.8135879,22.4349388 96.8470783,22.2843439 96.8478608,22.0260495 C96.8485853,21.7913101 96.1032018,11.8751521 96.0822982,11.8413269 C96.0753777,11.8301435 95.9939273,11.8141469 95.8973639,11.8046123 L95.302198,11.7476944 L94.4569274,11.6651872 C92.9853929,11.5230155 91.1190589,11.3639191 91.1026738,11.3803043 C91.0951635,11.3877894 91.1941275,12.8588086 91.3297607,14.7641703 L91.4317273,16.190098 C91.5628765,18.033589 91.6580331,19.4394134 91.6515248,19.4458971 C91.636203,19.4612468 83.9213657,18.5691476 83.9019972,18.549779 C83.8932338,18.5410436 83.5276867,12.2749432 83.4533381,10.8594735 C83.452315,10.8401127 83.2833815,10.825388 82.297763,10.7632593 L82.0373651,10.7469408 C81.0160156,10.6837332 78.7127742,10.5581993 78.5257614,10.5556044 L78.5257614,10.5556044 Z M0.178559387,2.21873574 L0.326921641,0 L11.0089769,0.00867356967 C15.5005434,0.0131600501 18.9890521,0.0211940894 19.0064997,0.0275179049 C19.0257008,0.0344392441 19.0413855,0.0781720605 19.0413855,0.124723648 L19.0413855,0.209314692 L19.5158321,0.209314692 L19.5158321,4.50724304 L19.285586,4.50752213 C18.8749384,4.50805239 13.0326584,4.64586519 13.0232811,4.65524249 C13.0189608,4.65953874 12.83339,7.56989165 12.5902963,11.4399969 L12.2623532,16.6673939 C12.0605368,19.8740177 11.9144971,22.1643853 11.9098944,22.1879714 L11.9090341,22.1919154 C11.8980445,22.237019 11.8518645,22.2508104 11.5798318,22.290245 L11.3123384,22.3288698 C9.41315364,22.6046638 7.73124568,22.8851452 6.40562777,23.1471799 L5.8289694,23.2630355 C5.64527281,23.3004413 5.51482425,23.32764 5.4875057,23.3344242 L5.47773718,23.3369735 C5.43042894,23.3489508 5.42302457,23.3401418 5.42209458,23.2509607 L5.42197616,23.2232419 C5.42197616,23.1523539 5.41257095,23.0943877 5.40104469,23.0943598 L5.39871501,23.0944984 C5.3821972,23.0960131 5.30541785,23.1097886 5.21112778,23.1280408 L5.14916934,23.1401858 C5.11452966,23.1470589 5.08129533,23.1532263 5.05117214,23.1584399 L5.02214916,23.1633263 C4.95714347,23.1739435 4.91217183,23.1789179 4.90890398,23.1750995 C4.90417961,23.1695535 5.12565818,19.6730508 5.41456487,15.1871965 L5.68610575,10.9698153 C5.91503601,7.40069577 6.0775908,4.82152989 6.07333557,4.8164148 C6.06816466,4.8101722 4.97889663,4.83052469 3.61865601,4.86208929 L1.73985442,4.90511632 C1.13210929,4.91853268 0.717540813,4.92697538 0.667044062,4.92670969 L0.503080886,4.92587243 L0.538217846,4.75021554 L-7.10542736e-15,4.78231046 L0.0160192699,4.59872935 C0.0278086905,4.45036658 0.0994027102,3.40243126 0.178559387,2.21873574 Z M11.8114502,11.4556576 L11.8110029,11.3091373 L11.7063456,11.3140213 C11.6521832,11.3165429 11.557205,11.3226492 11.4886312,11.3280124 L10.5711895,11.4017009 C10.343241,11.4205016 9.9887713,11.4508762 9.59519982,11.4852359 L9.07489916,11.5309772 L8.59797007,11.5734691 L7.06653658,11.7111052 L7.06653658,11.7961986 C7.06653658,11.8322152 6.97718265,13.2572387 6.85198787,15.222781 L6.39672957,22.3412495 C6.39672957,22.3459616 6.57173527,22.3156411 6.807428,22.2705844 L7.01550821,22.2302482 C8.14070546,22.0136551 10.8199883,21.5883038 11.1173301,21.5796457 L11.1257625,21.5795115 C11.1846218,21.5795115 11.1955619,21.5638269 11.2084836,21.4608999 C11.2298616,21.2906572 11.8119797,11.6313424 11.8114502,11.4556576 Z M40.0003163,16.8130097 L39.9955813,17.3819032 L43.3894274,17.3085688 L43.2713516,17.3953144 C43.0307089,17.5717842 42.8217184,17.722941 42.6110818,17.872246 L42.4968819,17.9528992 C42.2073126,18.1566642 41.9035218,18.3648472 41.5010274,18.6369726 L41.3299112,18.7524903 C40.292635,19.4515521 38.6611493,20.5295962 38.6611493,20.5155187 C38.6611493,20.510861 38.803139,20.4051195 38.9935354,20.267438 L39.1757477,20.136257 C39.4049914,19.9708926 39.6702662,19.7757638 39.9405393,19.5742619 L40.0817409,19.4687507 L40.1508882,19.4169089 L40.3554575,19.2628727 C40.7424703,18.9705077 41.1066449,18.6898932 41.3537456,18.49206 L41.8276062,18.1126981 L41.6886491,18.1034324 C41.675654,18.1025642 41.6487248,18.1021186 41.6099958,18.102059 L41.5428288,18.1022577 C41.3366775,18.1035741 40.9486727,18.1111233 40.5278224,18.1223492 L39.8083024,18.1422321 C38.9705815,18.1648066 39.0518701,18.1548381 39.0518701,18.0813846 L39.0518701,18.0081802 L38.5495148,18.0322096 L38.5495148,17.6354047 L38.7803754,17.5048924 C38.8049582,17.4910633 38.8314247,17.476259 38.858647,17.461102 L38.9478768,17.4116502 C38.9872449,17.389931 39.025674,17.3688614 39.0598699,17.3502593 L39.1480009,17.3026786 C39.3277693,17.2052195 39.6430106,17.023399 40.0003163,16.8130097 Z M35.3937916,10.9149838 L35.3937916,10.1090664 L35.1111084,10.1157526 C35.0745709,10.1167041 35.0353058,10.117812 34.9959023,10.1189945 L34.8342782,10.1242611 L34.640415,10.1313191 C34.5047423,10.1357674 34.2722703,10.1428405 34.0006594,10.150791 L33.2396013,10.1726314 C32.0803669,10.2063908 30.793836,10.2506372 29.4914442,10.3011131 L29.2586793,10.3101939 L29.0017835,10.3203547 L28.6592116,10.3341302 L28.2691451,10.3501319 C27.540049,10.3803585 26.816905,10.4121226 26.1193072,10.4446758 L25.4861615,10.4747459 C23.8225346,10.5549703 22.3849533,10.6331306 22.3751155,10.6444375 C22.367636,10.6530055 21.8903426,18.4914221 21.8966346,18.4997389 L21.8973,18.4998473 L21.9014963,18.4998473 C21.9411254,18.4979258 22.220816,18.4711042 22.5558238,18.4369165 L22.77188,18.4150287 C26.2416284,18.0660577 30.3239214,17.7766603 34.406823,17.5902691 L34.771593,17.5736462 C35.171425,17.5541929 35.4912719,17.5295588 35.50364,17.5166017 L35.5044045,17.5155527 C35.5192308,17.4922707 35.6671352,17.1490745 35.8326167,16.7592483 L35.91734,16.5592242 L36.0993573,16.1264521 C36.2220876,15.8329953 36.3147763,15.6072662 36.3147763,15.597493 C36.3147763,15.5918226 36.2235654,15.5911795 36.1057561,15.5956694 L35.3067967,15.6268782 L34.4602651,15.658336 C33.7238926,15.685975 33.0179537,15.7155519 32.3106005,15.7487809 L32.0084743,15.7631922 L31.8061858,15.7730857 L31.4725009,15.7898328 C30.2138189,15.8540025 28.9117019,15.9316414 27.3912371,16.0321634 L26.3955562,16.0986723 C26.0148685,16.1231857 25.7288693,16.1380853 25.7238994,16.1331153 C25.7179827,16.1272266 25.7652321,15.0345481 25.8288637,13.7049812 L25.9445729,11.2875918 L26.2218502,11.2702718 L26.2799499,11.2675207 C26.6715002,11.2501296 28.4977107,11.1821301 30.6113705,11.1063425 L32.1253779,11.0517095 C33.8959731,10.9870768 35.2223272,10.9357768 35.27518,10.9293567 L35.3937916,10.9149838 Z M69.748362,10.1784843 L69.5736808,10.1611997 L69.5906214,10.4630594 C69.5999149,10.6290878 69.6546996,12.4129234 69.7123588,14.4271168 L69.8171836,18.0893146 L69.9355858,18.1042441 C69.944652,18.1052868 69.9589087,18.1067838 69.9778722,18.1086907 L70.2478619,18.1343582 C70.421897,18.1504907 70.6525369,18.1714385 70.9055855,18.1940594 L71.1586954,18.2165779 C71.3034258,18.2293861 71.4513306,18.2427292 71.5993584,18.2563026 L71.7547019,18.2706263 L72.1941388,18.311986 C72.9203954,18.3813693 73.5428352,18.4460365 73.6597068,18.4658959 L73.6804948,18.4694356 C73.7377174,18.4782864 73.7402991,18.4661857 73.7406068,18.3623447 C73.7410247,18.2331836 73.3470666,10.3481317 73.3399499,10.3433314 L73.3382715,10.3431277 C73.3153233,10.3412301 73.0601575,10.3305275 72.6953828,10.3160265 L71.7404888,10.2786655 C70.7537276,10.2392836 70.0995348,10.2071808 69.8119832,10.1840271 L69.7818546,10.1815182 L69.748362,10.1784843 Z M89.2594876,4.75842067 L83.9010315,4.75842067 L83.9024828,4.86307802 C83.9067528,5.16666805 84.6169715,17.6518429 84.6307863,17.6656577 C84.6459965,17.68084 90.1875053,18.3260316 90.1966779,18.3136681 L90.1965612,18.3098847 C90.1920188,18.2190858 90.07326,16.5037656 89.9063232,14.1146809 L89.4365558,7.39861334 C89.3313529,5.88707357 89.2629816,4.89450554 89.2603736,4.8373349 L89.2594876,4.75842067 Z M50.3334576,12.48911 C50.3503981,12.48911 56.3751727,17.7506953 56.7989651,18.1356389 L56.921791,18.2471618 L56.1083011,18.2226548 C54.8654414,18.1864622 53.3381057,18.154507 51.6915775,18.1303014 L49.5646307,18.1000554 L49.4314508,17.987779 C49.3238669,17.8970721 49.2802801,17.8765879 49.185741,17.8755199 L49.1670261,17.8754027 C49.062986,17.87365 49.0073285,17.8318606 47.9761742,16.9337741 L47.6114406,16.6157917 C46.9671761,16.0527706 46.4658176,15.6039839 46.4701493,15.593498 C46.4749505,15.582223 46.5063477,15.5579983 46.5399776,15.5396065 L46.6061325,15.5033726 C46.9144256,15.33389 47.1142074,15.2143036 47.3348154,15.0496674 L49.9262875,17.3003936 L54.6530796,17.3819032 L49.702304,12.9977599 L49.8738017,12.8547125 C50.1193954,12.6508476 50.3225536,12.48911 50.3334576,12.48911 Z M44.5568465,16.871071 C44.5683448,16.8709038 44.577778,17.1325192 44.577778,17.4524358 L44.577778,18.0341074 L44.0037627,18.0541076 C43.7228893,18.0633635 43.3706172,18.0707251 43.197836,18.0707514 L42.8644674,18.0708351 L43.1668275,17.8656831 C43.3093348,17.7683946 43.4686847,17.6535902 43.5388832,17.5976572 L43.5675881,17.5746585 C43.6393933,17.5182531 43.8082954,17.3933402 43.9885289,17.263187 L44.0687345,17.2054639 L44.1728992,17.1311334 C44.2912216,17.0471741 44.3963899,16.9742426 44.466691,16.9271552 L44.4951631,16.9082446 C44.5311292,16.884596 44.5532756,16.8711232 44.5568465,16.871071 Z M58.6695854,9.96952324 L58.6700878,10.4090841 L58.6702765,10.468606 C58.6754023,11.5411221 58.7793947,17.4565033 58.7938904,17.470999 C58.8028443,17.4799661 59.6628696,17.5231622 60.5645063,17.5641595 L61.2393774,17.5940766 C61.9823507,17.6261266 62.6076828,17.6499229 62.6136882,17.6428882 C62.6259959,17.6285153 62.3861492,10.0486721 62.3729763,10.0354992 C62.3653672,10.0278757 61.739093,10.0107839 61.039142,9.99594476 L60.8103955,9.99122904 L60.2789235,9.98132306 C59.888272,9.97462844 59.5378827,9.97005781 59.3300709,9.96981163 L58.6695854,9.96952324 Z M45.2948345,13.2779132 L47.0883524,14.8356771 L47.0572354,14.8607655 C46.8952414,14.9903891 46.7945927,15.0548085 46.6559161,15.1354591 L46.5383097,15.2032266 C46.1957193,15.4021557 45.6046191,15.7814703 45.0064485,16.1807065 L44.9219,16.2372379 L44.7544294,16.3498145 C44.3982408,16.59011 44.0516693,16.829462 43.7664099,17.0335131 L43.7663793,17.3003936 L43.3729033,17.3089046 L43.5742592,17.1606703 L43.6201135,17.1272219 C43.6667217,17.0933298 43.7155594,17.0581285 43.7663356,17.0218112 L43.7667446,14.2853401 L44.0986863,14.0660222 L45.1161509,13.396928 C45.1777878,13.3562409 45.2372083,13.3166813 45.2948345,13.2779132 Z M44.5938254,13.9961758 C44.5855275,13.9961758 44.5786379,14.4075524 44.5778525,14.9292557 L44.5779625,15.1922908 C44.5790818,15.6832659 44.585154,16.0614141 44.59243,16.0614141 C44.6184557,16.0614141 44.7594326,15.9882562 44.9056821,15.9035073 L44.9322267,15.8880313 L44.9520386,15.8763569 L44.9821697,15.8583932 C45.0570919,15.8134033 45.1282973,15.7681873 45.1805764,15.7312829 C45.3237878,15.630189 45.6138043,15.3749258 45.7649858,15.2248935 L45.7772568,15.21264 C45.8289852,15.160645 45.8615747,15.1233119 45.8615747,15.1128557 C45.8615747,15.0895799 44.6202828,13.9961758 44.5938254,13.9961758 Z M49.4427975,12.7679761 L49.6936328,12.9900956 L49.5883707,13.0800078 C49.2996095,13.3276013 48.9470052,13.6372456 48.546302,13.9952523 L48.2320246,14.2766308 L48.0547489,14.4343726 C47.7258877,14.7256594 47.5128313,14.9056489 47.3401106,15.0352773 L47.3283673,15.0440595 L47.0812988,14.8295318 L47.1276737,14.7916043 C47.3039441,14.6461452 47.5515114,14.4281015 47.9621157,14.0622936 L48.4254444,13.6489918 L48.5268345,13.5589008 C48.8615697,13.2621342 49.1642529,13.0005291 49.4427975,12.7679761 Z M36.5221764,14.7776173 C36.5080711,14.7776173 36.4748063,14.8050457 36.4460918,14.8398038 L36.4303956,14.8596237 C36.3901723,14.9111529 36.3954005,14.9085471 36.4563679,14.8625475 L36.4804767,14.8440681 C36.5445029,14.7940765 36.5539851,14.7776173 36.5221764,14.7776173 Z M43.7670062,13.865325 L43.7671076,11.9510357 L45.0067953,13.0276787 L45.0792733,12.9778232 C45.8462686,12.4483222 46.1658931,12.1641994 47.0437336,11.3694212 L47.2273827,11.2031608 L47.3561049,11.0870149 C47.3877094,11.0585583 47.4188864,11.030533 47.4496459,11.0029314 L47.7378739,11.2583256 L47.5681309,11.4112541 C46.2538518,12.5940512 45.967739,12.8181671 45.2851287,13.2694988 L45.0143247,13.0342213 L44.9198706,13.0987574 C44.6189155,13.3035451 44.2505216,13.5471178 43.7670062,13.865325 Z M58.3855623,3.05599451 C58.3782771,3.05599451 58.3529498,3.08049758 58.3264041,3.1126574 L58.3157607,3.12588976 C58.2661816,3.18923482 58.2675776,3.19063272 58.3308378,3.14098713 L58.3439364,3.13046812 C58.3999429,3.08441845 58.4161251,3.05599451 58.3855623,3.05599451 Z M35.4452663,19.354911 L35.3818858,19.3856942 L35.4422692,19.3329396 C35.5000876,19.2842515 36.2072002,18.7124433 37.0373138,18.0431777 L38.5774234,16.8015229 L38.5774359,15.8143841 L38.5776525,15.6951065 L38.5782829,15.5446454 L38.5791196,15.4160194 C38.5820417,15.0291322 38.5884255,14.6685459 38.5957873,14.515025 L38.6141791,14.1319791 L38.7981249,14.0392946 C38.879856,13.998136 39.0806451,13.8651899 39.2842514,13.7189989 L39.3077503,13.7020764 L39.3443105,13.6755456 L39.3685901,13.657786 L39.3987559,13.6355581 L39.4798135,13.5754101 C39.6032941,13.4843509 39.7996168,13.3424563 40.0307099,13.1769606 L40.0028439,16.5160645 L40.1112392,16.4463159 L40.3112184,16.3169734 L40.5081442,16.188956 C41.3412817,15.6456315 41.6681863,15.4079029 41.9436799,15.1539565 L41.9788884,15.1213098 L42.0026961,15.0995351 C42.2562746,14.8695211 42.5850884,14.6318178 43.2923828,14.1658319 L43.7668336,13.8536493 L43.766711,14.2725494 L43.5514633,14.4159448 C42.8965283,14.8534472 42.6837134,15.008425 42.512535,15.1578914 L42.4834533,15.1835744 L42.4570301,15.2073789 L42.4305666,15.2315995 L42.3845642,15.274349 C42.2938549,15.3591975 42.0886381,15.5159851 41.9182187,15.6311857 L41.8740881,15.6605954 C41.6992967,15.7754857 41.3311699,16.0015687 40.9114562,16.2542656 L40.7403246,16.3570612 L40.5994002,16.4413735 L40.4919841,16.5054425 L40.2426219,16.6535309 L40.0482683,16.7683038 C40.0322725,16.7777251 40.0163368,16.7871047 40.0004687,16.796438 L40.002717,16.5277951 L39.8875913,16.6015156 C38.5861427,17.4328964 35.6411014,19.2598031 35.4452663,19.354911 Z M39.7645335,13.0315694 L39.538011,13.1932975 C39.1950122,13.439333 39.0171155,13.5733152 38.8635585,13.6969271 L38.8300244,13.7240667 C38.700333,13.8295892 38.5122289,13.9617923 38.412009,14.0178329 L38.3863434,14.0319491 C38.2421575,14.1100723 37.9833457,14.2325794 37.7160991,14.3512613 L37.6604576,14.3758618 L37.623333,14.3921534 L37.5666704,14.4168276 C37.444188,14.4699098 37.3240954,14.5202928 37.2166778,14.5633071 L37.1199393,14.601718 C36.9714601,14.6611979 36.8470081,14.7159451 36.8331343,14.7283307 C36.818881,14.7410291 36.8395206,14.7390484 36.8794114,14.7244444 L36.8889516,14.7208511 C36.9339542,14.7034501 37.0958901,14.6824774 37.2524344,14.6735882 L37.3350195,14.6694136 C37.5150002,14.6612411 37.549994,14.6674898 37.5381899,14.6966265 L37.5044446,14.7787622 C37.3330383,15.1933936 36.6622591,16.7963777 36.3181889,17.6147809 L36.1339166,18.0515503 C36.126106,18.0698688 36.1202834,18.0834236 36.1166362,18.0917666 L36.0037458,18.3499214 L35.7886819,18.3499214 C35.0237305,18.3499214 30.6973867,18.5826154 28.3361322,18.7502621 L28.1244758,18.7654668 C25.8354187,18.9315377 22.8709339,19.1963947 21.4297933,19.3638569 L21.1839755,19.3926728 C20.9249382,19.4219524 20.9383439,19.4087814 20.9391404,19.3123872 L20.939172,19.1997111 L20.6690273,19.2272361 C20.5383535,19.239843 20.4273656,19.2428535 20.4177108,19.2337596 C20.4092948,19.2247876 20.6146854,15.7076505 20.8838479,11.2533857 L21.3079841,4.2425945 C21.4082512,2.5797952 21.4706552,1.53778983 21.4703848,1.52799725 C21.4696685,1.50154691 22.926379,1.49385976 28.5323596,1.49316482 L31.3399614,1.49327202 C36.6805059,1.49434106 37.4078677,1.50145352 37.3942931,1.53497441 L37.3607748,1.61772349 C37.3472001,1.65130314 37.3914451,1.6596932 37.6252192,1.66625714 L37.9284363,1.67451754 L36.2718082,5.13518712 L30.8721806,5.14348714 C27.7422704,5.14919491 26.9674352,5.15819248 26.9674352,5.18500402 L26.9661591,5.2277551 C26.9630047,5.31333218 26.9542539,5.51332011 26.9427429,5.7672016 L26.9153591,6.36151787 L26.8636398,7.44503879 C26.8531199,7.65865831 26.8451062,7.81444825 26.8419022,7.86325528 L26.8258826,8.10745575 L35.6191091,8.10745575 L35.6191091,8.27490751 L36.1214644,8.27490751 L36.1214644,11.7076685 L35.9470355,11.7076126 C35.5915633,11.707501 26.6761528,12.0454745 26.6620311,12.0595962 C26.6453138,12.0763135 26.5369446,14.943562 26.5525455,14.9561209 L26.5533687,14.9563766 C26.5722233,14.9596753 26.887808,14.9431352 27.2767728,14.9185031 L27.5387658,14.9018637 C29.0293832,14.8082339 30.8055126,14.7167648 32.6294714,14.6388276 L33.0177566,14.6224712 C33.1483045,14.6170508 33.2790102,14.6117035 33.4097874,14.6064333 L33.5753598,14.5998036 L33.7409696,14.5932582 C34.1320062,14.5779046 34.5230301,14.5632712 34.9117357,14.5494683 L36.7313237,14.4860838 L37.1039317,14.4730505 L37.415085,14.2658289 C37.5816899,14.1548495 37.8033298,13.9796804 37.9154318,13.8707328 L37.9242779,13.8620469 C38.0297185,13.7574436 38.2183796,13.6055844 38.3507903,13.5182433 L38.4113937,13.4786478 C38.5216756,13.4056106 38.6054921,13.3431954 38.6056391,13.3331785 L38.615635,12.5920993 C38.6523737,9.78766358 38.7444203,2.20018767 38.7445961,1.91871801 L38.7448752,1.46520285 L44.0754227,1.46520285 L44.0754912,1.54644332 C44.0764286,1.60076574 44.0900626,1.60447759 44.2860762,1.60472806 L44.5774151,1.60474598 L44.5917323,5.54424385 L47.389549,2.55765825 C47.863168,2.05126042 48.1977843,1.69255293 48.2430178,1.64245053 L48.3778164,1.49311147 L54.9137096,1.49311147 L54.7844647,1.63067309 L55.3846676,1.64660891 L51.1879556,6.13691053 C49.4766008,7.96923829 48.1627609,9.38206222 48.1663528,9.38675925 C48.1675744,9.38834294 48.1785856,9.38391436 48.1976579,9.37448577 L48.2051845,9.37071766 C48.2828454,9.3313987 48.4671805,9.22581205 48.671521,9.1047147 L48.7637072,9.04983843 L48.7917046,9.03307629 L48.8617666,8.99093153 L48.9305316,8.94927964 C49.0367681,8.88469995 49.1387416,8.82160747 49.2245641,8.76696449 L49.272732,8.73618213 C49.6705345,8.48097386 49.9784996,8.25850475 50.201366,8.06542536 L50.2410735,8.03115524 C50.8663596,7.49365997 51.3361877,7.1948332 52.6172316,6.52290374 L52.7984528,6.42806033 C53.3919654,6.11644933 53.5975108,5.97911618 53.8472796,5.72909047 L53.8631173,5.71314685 C54.012306,5.56215384 54.2076692,5.41061516 54.53305,5.19409384 L54.5690659,5.17021245 C54.811789,5.00979709 55.2632328,4.7298218 55.7380378,4.44276496 L55.8400718,4.38118538 L56.0373036,4.26276313 C56.3312294,4.08689019 56.6192932,3.91727404 56.8579817,3.78031919 L57.1725779,3.60021271 L57.134371,1.49311147 L73.2120279,1.49311147 L73.2120415,1.56887601 C73.2123799,1.62799024 73.2207022,1.63232205 73.4092551,1.63263134 L73.4984589,1.63275078 C73.6741254,1.63358899 73.6870882,1.64099975 73.6979729,1.69544901 C73.713825,1.77473741 74.5792156,19.3642883 74.5680227,19.375675 C74.5680227,19.3758592 74.5668862,19.3759717 74.5654193,19.3760144 L74.5591521,19.3759356 C74.4969516,19.3737585 74.1128592,19.3357612 73.655468,19.2862837 L73.5565347,19.2756698 C72.4755079,19.1605902 70.5898537,18.9875778 69.7223181,18.9242157 L69.4332089,18.903045 C68.9703692,18.8681934 68.9420082,18.8579136 68.9420082,18.813679 C68.9420082,18.7746642 68.7831899,18.7428648 68.5825986,18.7407537 L68.5613345,18.7406421 C68.4944096,18.7406421 68.4396529,18.7307346 68.4396529,18.7185943 L68.1636232,9.37402503 C68.0970489,7.09640639 68.0502242,5.44394492 68.0489584,5.31519916 L68.0489321,5.09332418 L63.0027456,5.09332418 L63.0156952,5.36543328 L63.0175098,5.40841989 C63.054447,6.342239 63.4439218,18.4709572 63.4369201,18.4776033 C63.4366564,18.4778534 63.4340267,18.4779856 63.4291609,18.4780053 L63.4129802,18.4778346 C63.3081015,18.4758515 62.8716224,18.4570643 62.3555725,18.4320844 L62.0334578,18.4166422 C60.706533,18.3536324 59.4848419,18.3030901 58.793098,18.2826579 L58.4294323,18.2726177 C57.9440392,18.2583967 57.9186245,18.2479256 57.9181096,18.1841594 L57.918036,18.177216 C57.916696,18.132135 57.8928983,18.1269498 57.6877186,18.1266657 L57.4157458,18.1266524 L57.4154974,17.7133688 C57.4140025,17.4368494 57.3813248,15.4435234 57.3401962,13.1158573 L57.2961246,10.6084754 C57.2684403,9.00432618 57.2489356,7.8048642 57.2481486,7.63938413 L57.2474288,7.2841513 L57.5923515,6.94776863 C57.6634748,6.87840057 57.7282637,6.81647048 57.7926693,6.75686821 L57.8313143,6.72134531 C57.9989895,6.5682689 58.1721203,6.42401963 58.4553058,6.19878138 L58.5806711,6.09938668 C58.6139593,6.07239218 58.5732705,6.09631451 58.4860966,6.1547705 L58.4623192,6.17079249 C57.9489512,6.51825265 57.4652546,6.92996066 56.6819942,7.68737146 L56.5767779,7.78925617 C55.6791174,8.65687435 55.371921,8.87656515 54.3414137,9.38785028 L54.1999429,9.45789755 C53.4115048,9.84993695 53.0899568,10.0579036 52.6175933,10.4789331 L52.5875535,10.5058114 C52.2087004,10.8460505 51.8464866,11.111651 51.4470075,11.3418796 L51.3756961,11.3827 C50.8063769,11.7104468 50.2204782,12.1309382 49.4497452,12.7740704 L47.7439797,11.2635714 L48.0444156,10.9927797 C48.0784465,10.9622165 48.1072008,10.9364581 48.1290948,10.9169334 L48.3429865,10.7262337 L49.3685467,11.6240493 C49.4614624,11.7057989 49.5266528,11.7634445 49.5461357,11.7811749 L49.6194154,11.8482442 L50.03157,11.6520187 C50.729146,11.3199339 51.2322269,11.0283446 51.5213882,10.7884979 C51.585165,10.7355934 51.6919201,10.6119885 51.7629738,10.5092956 L51.7701936,10.4987505 C51.9290548,10.2641666 52.1201895,10.0901831 52.499291,9.83618929 L52.517782,9.82383623 C53.0987075,9.43684548 53.8295397,9.07034322 54.3987318,8.87991652 L54.4919373,8.84915721 C54.735061,8.76810243 54.7901618,8.73367785 55.1007545,8.44527063 L55.2249186,8.32944096 C55.7992155,7.79253053 56.4835812,7.22398928 56.9468072,6.8986696 L57.2254089,6.7043496 L57.1873695,3.99093347 L57.4535278,3.7788428 C57.4911944,3.74901812 57.5349326,3.71458478 57.5815333,3.67804905 L57.6999082,3.58552104 L57.8277248,3.48620928 L57.9851613,3.36453236 C58.2039975,3.19411739 58.3442579,3.0743715 58.2250959,3.15774936 L58.1831095,3.18732574 C57.7227751,3.51372498 56.8648212,4.18813692 55.7753494,5.08011495 L55.6270563,5.20151059 C53.807982,6.68900709 53.2741497,7.05382401 52.5792905,7.29097802 L52.5577471,7.29827306 C51.7888915,7.55658379 51.1268656,8.00053436 50.4159988,8.73514971 L50.3322108,8.82198931 C50.0759534,9.08626922 49.9970381,9.14902142 49.8657369,9.20434847 C49.2966442,9.44413386 48.7414316,9.85598474 47.4564312,11.0088092 L46.2826665,9.96952324 L44.4614482,9.99056458 L44.521275,9.94429978 C45.13073,9.47157228 45.4706624,9.1629916 45.7184511,8.8827169 L45.7343114,8.86467259 C45.8733801,8.7055376 46.0750757,8.5004092 46.1825239,8.408841 C46.4418969,8.18776179 46.8873378,7.89105636 47.1943168,7.73422473 L47.2323057,7.7149788 C47.4161109,7.62098795 47.5198184,7.54358693 47.7472612,7.32914144 L47.8233078,7.25710255 C48.1963789,6.90558963 48.4883569,6.68626518 48.7506648,6.5603201 L48.8769722,6.50054822 C49.1784742,6.35667728 49.2540496,6.30639312 49.5732545,6.06750267 L49.6222418,6.030655 C50.4326291,5.41808361 51.7400021,4.2849888 52.6852337,3.37471101 L52.96432,3.10595095 L52.7270967,3.30655815 L52.6405211,3.3794989 C51.2270782,4.5659415 49.158455,6.09264538 48.5176047,6.42085481 L48.4463431,6.45668419 C48.0787251,6.64359774 47.8622751,6.80572312 47.4705707,7.18353179 L47.4143127,7.23782379 C47.1850584,7.45800311 47.0923002,7.52849279 46.9141836,7.61782254 L46.8847887,7.63236722 C46.3385918,7.89934729 45.7563331,8.34528203 45.3454357,8.81050638 L45.2839178,8.88068152 C45.055774,9.13930669 44.9187882,9.26498097 44.5291332,9.5804172 L44.4737722,9.62502439 C44.335797,9.73569967 44.1782401,9.85848536 43.9975781,9.99595255 L40.0569323,10.0415554 L40.0335901,12.8298677 L40.2869092,12.6503024 C40.4022223,12.5687245 40.5248349,12.4821813 40.6551193,12.390404 L41.262813,11.962784 C42.4750036,11.1083044 43.3615633,10.4671046 43.9813992,9.99616177 L44.4500615,9.99073135 L44.3881651,10.0381076 C43.724873,10.5443725 42.7443963,11.2482314 41.2198738,12.3231104 L40.8590419,12.5773287 L40.4149431,12.8914071 L40.2004882,13.0438497 C40.1423901,13.0852202 40.0856899,13.1256565 40.0308138,13.1648535 L40.0334826,12.840863 L39.848852,12.9716646 C39.819884,12.9922243 39.7917911,13.0121829 39.7645335,13.0315694 L39.7645335,13.0315694 Z" id="tekno"></path>
            </g>
        </g>
    </g>
</svg>