<?xml version="1.0" encoding="UTF-8"?>
<svg width="163.433635px" height="30px" viewBox="0 0 163.433635 30" version="1.1" xmlns="http://www.w3.org/2000/svg" xmlns:xlink="http://www.w3.org/1999/xlink">
    <title>ti-83</title>
    <g id="Page-1" stroke="none" stroke-width="1" fill="none" fill-rule="evenodd">
        <g id="System" transform="translate(-18.283183, 0.000000)" fill="#000000">
            <g id="ti-83" transform="translate(18.283183, 0.000000)">
                <line x1="81.7168174" y1="30" x2="81.7168174" y2="0" id="Path" stroke="#979797" fill-rule="nonzero"></line>
                <path d="M13.7315404,1.07939448 L13.7315404,5.26994927 L13.9619937,5.44387632 L14.1076576,5.53083984 L14.3098478,5.61780337 L14.512038,5.67432966 L14.7729286,5.76129318 L15.0022949,5.81890651 L15.2925356,5.87651985 L14.5403012,9.22896368 L12.4303487,9.22896368 L11.7074644,12.2074644 L13.8761172,12.2074644 L13.0956196,15.850149 L12.9803929,16.4001933 L12.9510428,16.7176101 L12.8934294,17.0643772 L12.8934294,17.7579113 L12.9216926,18.0764152 L12.9803929,18.3655689 L13.0673565,18.5960222 L13.1532329,18.8003865 L13.2695467,19.0004026 L13.3847733,19.1743297 L13.5293502,19.3765198 L13.6445769,19.5210967 L13.8185039,19.6656736 L13.992431,19.7819873 L14.1076576,19.8972139 L14.339198,19.9548273 L14.5131251,20.0417908 L14.7153152,20.1287543 L14.9164184,20.1570175 L15.1196956,20.1863677 L15.350149,20.2146308 L15.8991062,20.2146308 L16.2469603,20.1863677 L16.5643772,20.1570175 L16.9122313,20.0994041 L17.5177148,19.9841775 L17.8079556,19.8972139 L18.0384089,19.8396006 L18.2992995,19.7526371 L18.5297528,19.6939367 L18.8482567,19.57871 L19.1667606,19.4341332 L19.8309445,16.8904501 L19.743981,16.9198003 L19.6004912,16.9491505 L19.2830743,16.9491505 L18.9634834,16.9774136 L18.6754167,17.0056768 L18.5308398,17.0056768 L18.4145261,16.9774136 L18.3286496,16.9491505 L18.2992995,16.9491505 L18.2710363,16.9198003 L18.2416861,16.8915372 L18.1840728,16.862187 L18.1547226,16.7752234 L18.0981963,16.7176101 L18.0688461,16.5730333 L18.0394959,16.4578066 L18.0688461,16.3708431 L18.0981963,16.0806023 L18.9928336,12.2074644 L21.1038731,12.2074644 L21.7974072,9.22896368 L19.6298414,9.22896368 L20.3233755,6.13741042 L21.1027861,6.13741042 L21.8832837,6.16567356 L22.6637813,6.22437394 L23.3866656,6.31133747 L24.0508495,6.36786376 L24.3693534,6.39721395 L24.6585071,6.45482728 L24.9193977,6.51352766 L25.1509381,6.57114099 L25.5542314,6.68636766 L25.4683549,8.01690957 L25.4096546,9.14417425 L25.4096546,9.60616797 L25.4683549,10.0681617 L25.5553185,10.4160158 L25.642282,10.7334326 L25.7270714,11.0225864 L25.8140349,11.137813 L25.8727353,11.2823899 L25.987962,11.4856671 L26.1325389,11.6585071 L26.2771157,11.7737338 L26.3923424,11.9193977 L26.5380063,12.0063612 L26.6238828,12.0639746 L26.826073,12.1509381 L26.8847733,12.1781142 L26.8847733,12.3520412 L26.9423867,12.8433851 L26.9717369,13.2195024 L27,13.5673565 L27,14 L26.9717369,14.4913439 L26.9130365,15.1272647 L26.8847733,15.7055721 L26.7978098,16.196916 L26.7108463,16.6002094 L26.6238828,16.9480635 L26.5956196,17.1796038 L26.5380063,17.381794 L25.815122,17.6426846 L25.3237781,17.8166116 L24.7454706,18.0459779 L24.4280538,18.1916418 L24.1399871,18.3362187 L23.4442789,18.6840728 L22.7507448,19.0873661 L22.4039778,19.3189065 L21.9995974,19.57871 L21.7104437,19.7819873 L21.4495531,20.0124406 L21.1908366,20.243981 L20.9299461,20.5037845 L20.6701425,20.7364119 L20.4386021,21.0233916 L20.2081488,21.2842821 L20.0037845,21.5451727 L19.8015943,21.8332394 L19.6287543,22.1234802 L19.5135277,22.4115468 L19.4265641,22.5854739 L19.3689508,22.7300507 L19.1950238,23.3648845 L19.1384975,23.6823013 L19.1384975,24.3769225 L19.1667606,24.7530397 L19.2243739,25.1008938 L19.2830743,25.4172236 L19.3396006,25.7357275 L19.4265641,25.9966181 L19.5135277,26.2857718 L19.6287543,26.5173122 L19.5135277,26.5738385 L19.3396006,26.660802 L19.1091473,26.7477655 L18.9928336,26.8053789 L18.8189065,26.8053789 L18.5014897,26.8923424 L18.2992995,26.8923424 L18.0688461,26.9206055 L17.6340285,26.9206055 L17.4894516,26.8923424 L17.3166116,26.8923424 L17.0263709,26.8053789 L16.7100411,26.7477655 L16.362187,26.6031887 L16.2176101,26.5455753 L16.0719462,26.487962 L15.7556164,26.3140349 L15.4360254,26.0814075 L15.1186086,25.8792173 L14.8294549,25.6194138 L14.5403012,25.3585232 L14.2511474,25.0693695 L13.9902569,24.7791288 L13.7304533,24.4627989 L13.4695628,24.1149448 L13.3543361,23.9410178 L13.2391094,23.7692648 L13.007569,23.3920606 L12.7466785,22.9018037 L12.487962,22.3800225 L12.0248812,21.3973347 L11.5911507,20.4146469 L11.3900475,19.9526532 L11.1585071,19.5471858 L10.9269667,19.1449795 L10.8400032,18.9427893 L10.6954264,18.7688622 L10.463886,18.4797085 L10.3769225,18.3351317 L10.1171189,18.0753281 L9.97254207,17.9590144 L9.85622836,17.9014011 L9.68338836,17.8144376 L9.56816169,17.727474 L9.42358483,17.6992109 L9.24965778,17.6992109 L9.10508092,17.6709477 L8.96050407,17.6992109 L8.6996135,17.6992109 L8.55612368,17.727474 L8.46916016,17.7861744 L8.35393349,17.8437877 L8.23653273,17.9014011 L8.15065625,17.9307513 L7.97781625,18.1035913 L7.8038892,18.2481681 L7.68757549,18.4220952 L7.51582253,18.566672 L7.39950882,18.7405991 L7.25493196,18.886263 L7.1103551,19.0286658 L6.96577824,19.1732426 L6.87881472,19.23303 L6.7918512,19.2895563 L6.59074805,19.3765198 L6.50378452,19.404783 L6.38855785,19.4330461 L6.01244062,19.4330461 L5.86786376,19.404783 L5.75155004,19.404783 L5.60806023,19.3471697 L5.49174652,19.2884693 L5.37651985,19.2015058 L5.02866575,18.9417022 L4.91343909,18.8264756 L4.79821242,18.739512 L4.71124889,18.6231983 L4.53732185,18.3644818 L4.3633948,18.0753281 L4.21990498,17.7861744 L4.04597794,17.4970207 L3.78617441,16.9187133 L3.32418069,15.9077623 L3.26548031,15.7620984 L3.15025364,15.6175215 L2.97741364,15.3283678 L2.74587326,15.0674773 L2.51541992,14.8087608 L1.99363878,14.3163298 L1.70448506,14.0858765 L1.44468154,13.8249859 L1.18379097,13.5662694 L0.952250584,13.2760287 L0.72288429,13.0162251 L0.519607054,12.6977212 L0.345680006,12.3509542 L0.258716483,12.148764 L0.171752959,11.975924 L0.115226669,11.7726468 L0.0858764796,11.5411064 L0.0282631452,11.309566 L7.10542736e-15,11.0508495 L7.08209196,11.0508495 L7.08209196,1.07939448 L13.7315404,1.07939448 Z M18.8482567,7.32228843 L16.7100411,16.8045736 L14.1946211,16.8045736 L16.2469603,7.32228843 L18.8482567,7.32228843 Z M18.2123359,3.68069088 L18.3286496,3.70895402 L18.4721395,3.73721717 L18.5884532,3.7676544 L18.7047669,3.82418069 L18.8199936,3.91114421 L18.9352202,3.96875755 L19.0221838,4.05572107 L19.1950238,4.25791126 L19.2819873,4.37313793 L19.3396006,4.48945165 L19.3689508,4.60467832 L19.3972139,4.77860536 L19.4254771,4.89383203 L19.4254771,5.18298575 L19.3972139,5.32756261 L19.3689508,5.44387632 L19.3396006,5.58736613 L19.2819873,5.70367985 L19.1950238,5.78955632 L19.1374104,5.93522023 L19.0504469,5.99283356 L18.9634834,6.10806023 L18.8482567,6.16567356 L18.73303,6.22437394 L18.6167163,6.28198728 L18.5014897,6.31133747 L18.3569128,6.33851357 L18.213423,6.36786376 L17.8949191,6.36786376 L17.7786054,6.33851357 L17.6340285,6.31133747 L17.5177148,6.28198728 L17.374225,6.22437394 L17.2579113,6.16567356 L17.1709477,6.10806023 L17.0557211,6.02218375 L16.9687575,5.93522023 L16.881794,5.81890651 L16.8252677,5.70367985 L16.7665674,5.61671632 L16.7383042,5.44278927 L16.6806909,5.32756261 L16.6524277,5.18298575 L16.6524277,4.89491908 L16.6806909,4.77969241 L16.7383042,4.63511555 L16.7665674,4.51988888 L16.8252677,4.40357517 L16.8828811,4.25899831 L16.9981077,4.17203479 L17.0557211,4.08615831 L17.1709477,3.96984459 L17.2872615,3.91223126 L17.4024881,3.82526773 L17.5177148,3.76874144 L17.6633787,3.73830421 L17.7786054,3.71004107 L17.9231822,3.68177792 L18.0384089,3.68177792 L18.0384089,3.68069088 L18.2123359,3.68069088 Z M104.986102,9.60188116 L104.986102,22.7932452 L101.544877,22.7932452 L101.544877,9.60188116 L96.9336349,9.60188116 L96.9336349,6.78007633 L109.597344,6.78007633 L109.597344,9.60188116 L104.986102,9.60188116 Z M111.683167,22.7932452 L111.683167,20.2467384 L115.124392,20.2467384 L115.124392,9.32658313 L111.683167,9.32658313 L111.683167,6.78007633 L122.006843,6.78007633 L122.006843,9.32658313 L118.565618,9.32658313 L118.565618,20.2467384 L122.006843,20.2467384 L122.006843,22.7932452 L111.683167,22.7932452 Z M126.75388,17.4249336 L126.75388,14.1672402 L134.095161,14.1672402 L134.095161,17.4249336 L126.75388,17.4249336 Z M144.004036,23.0685433 C143.040493,23.0685433 142.18401,22.9500122 141.434588,22.71295 C140.685165,22.4758878 140.050451,22.1508831 139.530443,21.7379361 C139.010436,21.3249891 138.616607,20.8317467 138.348956,20.2582092 C138.081305,19.6846716 137.947479,19.0614274 137.947479,18.3884767 C137.947479,17.3484619 138.245719,16.5110971 138.842198,15.8763822 C139.438677,15.2416672 140.203394,14.7943079 141.136348,14.5343042 L141.136348,14.3507722 C140.341043,14.0601799 139.691034,13.6166441 139.186321,13.0201651 C138.681608,12.423686 138.429251,11.6589692 138.429251,10.7260148 C138.429251,10.1142414 138.551606,9.54835099 138.796315,9.0283436 C139.041024,8.5083362 139.400441,8.0609769 139.874566,7.68626569 C140.34869,7.31155448 140.929875,7.02096211 141.61812,6.81448858 C142.306365,6.60801506 143.10167,6.5047783 144.004036,6.5047783 C144.891108,6.5047783 145.682589,6.60801506 146.378482,6.81448858 C147.074374,7.02096211 147.659382,7.31155448 148.133507,7.68626569 C148.607631,8.0609769 148.967048,8.5083362 149.211757,9.0283436 C149.456467,9.54835099 149.578821,10.1142414 149.578821,10.7260148 C149.578821,11.6589692 149.326465,12.423686 148.821752,13.0201651 C148.317039,13.6166441 147.667029,14.0601799 146.871724,14.3507722 L146.871724,14.5343042 C147.804678,14.7943079 148.569395,15.2416672 149.165874,15.8763822 C149.762353,16.5110971 150.060593,17.3484619 150.060593,18.3884767 C150.060593,19.0614274 149.926767,19.6846716 149.659117,20.2582092 C149.391466,20.8317467 148.997637,21.3249891 148.477629,21.7379361 C147.957622,22.1508831 147.322907,22.4758878 146.573484,22.71295 C145.824062,22.9500122 144.967579,23.0685433 144.004036,23.0685433 Z M144.004036,20.4302704 C144.799342,20.4302704 145.407291,20.2467384 145.827886,19.8796744 C146.24848,19.5126103 146.458777,19.0155444 146.458777,18.3884767 L146.458777,17.9296466 C146.458777,17.2872846 146.252303,16.7863951 145.839356,16.4269782 C145.426409,16.0675613 144.814636,15.8878529 144.004036,15.8878529 C143.193436,15.8878529 142.581663,16.0675613 142.168716,16.4269782 C141.755769,16.7863951 141.549295,17.2872846 141.549295,17.9296466 L141.549295,18.3884767 C141.549295,19.0155444 141.759592,19.5126103 142.180187,19.8796744 C142.600781,20.2467384 143.208731,20.4302704 144.004036,20.4302704 Z M144.004036,13.3642876 C144.768753,13.3642876 145.349938,13.1884028 145.74759,12.836633 C146.145243,12.4848633 146.344069,12.0107389 146.344069,11.4142599 L146.344069,11.0701373 C146.344069,10.4736583 146.14142,10.0033575 145.73612,9.65923492 C145.33082,9.31511238 144.753459,9.14305111 144.004036,9.14305111 C143.254614,9.14305111 142.677253,9.31511238 142.271953,9.65923492 C141.866653,10.0033575 141.664003,10.4736583 141.664003,11.0701373 L141.664003,11.4142599 C141.664003,12.0107389 141.862829,12.4848633 142.260482,12.836633 C142.658135,13.1884028 143.239319,13.3642876 144.004036,13.3642876 Z M156.964131,13.1119311 C157.851203,13.1119311 158.497388,12.9436934 158.902688,12.607218 C159.307988,12.2707426 159.510638,11.8577956 159.510638,11.3683769 L159.510638,11.2077864 C159.510638,10.6266016 159.315635,10.163948 158.92563,9.81982544 C158.535624,9.4757029 157.981204,9.30364163 157.262371,9.30364163 C156.604714,9.30364163 155.989117,9.46805573 155.41558,9.79688394 C154.842042,10.1257121 154.356447,10.5960129 153.958794,11.2077864 L151.779352,9.18893412 C152.085238,8.7912814 152.421714,8.42804094 152.788778,8.09921274 C153.155842,7.77038453 153.561142,7.48743933 154.004677,7.25037714 C154.448213,7.01331494 154.949102,6.82978292 155.507346,6.69978107 C156.065589,6.56977922 156.69648,6.5047783 157.40002,6.5047783 C158.271797,6.5047783 159.059455,6.60419148 159.762994,6.80301783 C160.466534,7.00184419 161.066837,7.28861297 161.563902,7.66332419 C162.060968,8.0380354 162.44715,8.4853947 162.722448,9.00540209 C162.997746,9.52540949 163.135395,10.1065942 163.135395,10.7489563 C163.135395,11.2536694 163.051277,11.7124994 162.883039,12.1254465 C162.714801,12.5383935 162.48921,12.8978104 162.206264,13.2036971 C161.923319,13.5095838 161.594491,13.7581167 161.21978,13.9492959 C160.845069,14.1404751 160.443592,14.2743006 160.015351,14.3507722 L160.015351,14.4884212 C160.994188,14.6566589 161.808612,15.0657824 162.458621,15.7157916 C163.10863,16.3658009 163.433635,17.2414016 163.433635,18.3425937 C163.433635,19.0614274 163.284515,19.7114367 162.986276,20.2926214 C162.688036,20.8738062 162.267442,21.3708721 161.724493,21.7838191 C161.181544,22.1967662 160.523888,22.5141236 159.751524,22.7358915 C158.97916,22.9576593 158.118853,23.0685433 157.170605,23.0685433 C156.360005,23.0685433 155.644995,22.9844244 155.025574,22.8161867 C154.406154,22.647949 153.859381,22.4223576 153.385257,22.1394124 C152.911132,21.8564672 152.502009,21.527639 152.157886,21.1529278 C151.813764,20.7782166 151.511701,20.3920346 151.251697,19.9943819 L153.798204,18.0214127 C154.149973,18.6790691 154.589686,19.2181944 155.11734,19.6387886 C155.644995,20.0593828 156.352358,20.2696799 157.239429,20.2696799 C158.065323,20.2696799 158.700038,20.0785007 159.143574,19.6961424 C159.58711,19.313784 159.808877,18.7861294 159.808877,18.1131787 L159.808877,17.9525882 C159.808877,17.2949317 159.556521,16.8016894 159.051808,16.4728612 C158.547095,16.144033 157.843555,15.9796189 156.94119,15.9796189 L155.449992,15.9796189 L155.449992,13.1119311 L156.964131,13.1119311 Z M55.8654042,20.3272314 L55.9572209,20.2962432 L56.0490375,20.2509088 L56.2166029,20.1590921 L56.2929255,20.1286778 L56.3233398,20.0982636 L56.3537541,20.0827695 L56.4300767,20.0064469 L56.475985,19.9605386 L56.5523076,19.8847898 L56.5982159,19.8084672 L56.6286302,19.7476387 L56.6745385,19.655822 L56.6900326,19.5794994 L56.7049528,19.5031768 L56.719873,19.4113602 L56.7049528,19.3046233 L56.6900326,19.2128067 L56.6590445,19.1215639 L56.6131361,19.0446674 L56.5827219,18.9379305 L56.5218933,18.877102 L56.4599171,18.8162735 L56.3847422,18.7399509 L56.3084196,18.6940425 L56.232097,18.6487081 L56.1402803,18.6027997 L56.0484637,18.5723855 L55.9721411,18.5419712 L55.8654042,18.5109831 L55.7747353,18.495489 L54.7366332,18.495489 L54.6752308,18.5109831 L54.6293225,18.5419712 L54.5679201,18.5723855 L54.5070915,18.6027997 L54.4927452,18.6487081 L54.4617571,18.7095366 L54.4468368,18.7858592 L54.4313428,18.8472616 L54.4313428,20.3272314 L54.4468368,21.0904573 L54.4468368,22.7684068 L54.4617571,22.8602234 L54.4766773,22.9520401 L54.4927452,22.9979484 L54.5070915,23.074271 L54.5380796,23.1345257 L54.5989082,23.2412625 L54.6293225,23.2722507 L54.6752308,23.318159 L54.7670474,23.3640673 L54.827876,23.3789875 L54.8737843,23.4094018 L54.9805212,23.4248959 L54.9805212,23.5924613 L52.5990266,23.5924613 L52.5990266,23.4248959 L52.6610028,23.4248959 L52.7069112,23.4094018 L52.7671659,23.3789875 L52.8130742,23.3640673 L52.9048908,23.318159 L52.935879,23.2722507 L52.9812134,23.2412625 L53.0271218,23.1810079 L53.0426158,23.1345257 L53.0730301,23.074271 L53.0885242,22.9973745 L53.1183646,22.9520401 L53.1344325,22.8602234 L53.1344325,18.6182938 L53.1183646,18.5419712 L53.1028705,18.4501545 L53.0885242,18.3738319 L53.057536,18.3124296 L53.0271218,18.251601 L53.0116277,18.2056927 L52.9657194,18.1448642 L52.935879,18.0989558 L52.8899706,18.0840356 L52.798154,18.0226332 L52.7522456,17.992219 L52.7069112,17.9767249 L52.5990266,17.9623786 L52.5990266,17.7942393 L56.0794518,17.7942393 L56.3078457,17.8091595 L56.5218933,17.8395738 L56.719873,17.8705619 L56.9184265,17.9308166 L57.0102432,17.9618047 L57.0865658,17.9767249 L57.1927288,18.0226332 L57.2696252,18.0530475 L57.4216966,18.1448642 L57.4825251,18.1907725 L57.5594216,18.2366808 L57.6196762,18.2980832 L57.6805048,18.3428438 L57.7264131,18.4042462 L57.7883893,18.4650748 L57.8337238,18.5413974 L57.8796322,18.6027997 L57.9106203,18.6791223 L57.9559547,18.7399509 L57.970875,18.8162735 L58.0012892,18.9230103 L58.0167833,18.9993329 L58.0322773,19.0911496 L58.0471976,19.1829662 L58.0471976,19.2897031 L58.0322773,19.39644 L58.0322773,19.5031768 L58.0167833,19.5949935 L57.986369,19.6707422 L57.9553809,19.7625589 L57.9404607,19.8543756 L57.9100464,19.9152041 L57.8641381,20.0070208 L57.7723214,20.1137576 L57.7264131,20.1745862 L57.6805048,20.2348408 L57.5743418,20.3266575 L57.4974453,20.3582195 L57.4521108,20.419048 L57.3143859,20.4793027 L57.1921549,20.5556253 L57.0550038,20.6015336 L56.9178527,20.6474419 L56.7801277,20.6933503 L56.6584706,20.7237645 L56.444423,20.7696729 L56.582148,20.8305014 L56.7043789,20.8919038 L56.826036,20.9676525 L56.9482669,21.0594692 L57.0550038,21.1357918 L57.1468204,21.2276085 L57.2380633,21.3188513 L57.3298799,21.426162 L57.4216966,21.5328988 L57.4974453,21.6241416 L57.6655846,21.8370415 L57.8021618,22.051663 L57.9249666,22.2812046 L58.0466237,22.4786104 L58.1694285,22.6777378 L58.214763,22.7684068 L58.2755915,22.8602234 L58.3978224,22.9979484 L58.458651,23.074271 L58.5349736,23.1339518 L58.5963759,23.1959281 L58.6721247,23.2418364 L58.7335271,23.2722507 L58.8098497,23.3026649 L58.9016663,23.318159 L58.9929091,23.3330792 L58.9929091,23.4708042 L58.8712521,23.5316327 L58.6876187,23.5924613 L58.5808819,23.6079553 L58.458651,23.6383696 L58.3214998,23.6538636 L57.9857952,23.6538636 L57.8939785,23.6383696 L57.8176559,23.6234494 L57.6345964,23.5924613 L57.4819513,23.5471268 L57.3442263,23.4857244 L57.2219953,23.4094018 L57.1003383,23.3485733 L56.9936014,23.2412625 L56.9017847,23.1500197 L56.8254621,23.0587769 L56.7336455,22.9669603 L56.6733908,22.8453032 L56.5970682,22.7379925 L56.5511599,22.6157616 L56.444423,22.3724474 L56.2309493,21.8990178 L56.1242124,21.685544 L56.0783041,21.5633131 L56.0019815,21.4869905 L55.9405791,21.4106679 L55.8648304,21.3188513 L55.7885078,21.2585966 L55.7121852,21.1971942 L55.6054483,21.1512859 L55.5589661,21.1208716 L55.4981376,21.1048037 L55.4522293,21.0904573 L54.4456891,21.0904573 L54.4456891,21.1048037 L54.4456891,21.0904573 L54.4301951,20.8609157 L54.4301951,20.3731397 L55.0861103,20.3731397 L55.3305722,20.3582195 L55.7425994,20.3582195 L55.8654042,20.3272314 L55.8654042,20.3272314 Z M32.7310495,16.7865515 L32.7310495,16.5879979 L32.7155554,16.5128231 L32.6851412,16.4210064 L32.6547269,16.359604 L32.6392328,16.2987755 L32.6093924,16.2528671 L32.5634841,16.2069588 L32.5485639,16.1610505 L32.5026555,16.1306362 L32.4108389,16.0692338 L32.3649306,16.0388196 L32.3190222,16.0233255 L32.2122854,16.0084053 L32.2122854,15.8408399 L34.6999429,15.8408399 L34.6999429,16.0084053 L34.6540346,16.0233255 L34.6081263,16.0233255 L34.5013894,16.0692338 L34.4554811,16.100222 L34.4250668,16.1306362 L34.3946526,16.1616243 L34.3487442,16.2069588 L34.31833,16.2528671 L34.2724216,16.2987755 L34.2575014,16.359604 L34.2270872,16.4204325 L34.2115931,16.5122492 L34.196099,16.5885718 L34.1811788,16.6803885 L34.1811788,22.7844747 L34.196099,22.8757175 L34.2110192,22.9520401 L34.2265133,23.0283627 L34.2569276,23.0891912 L34.2879157,23.1500197 L34.3177561,23.1959281 L34.3487442,23.2579043 L34.3946526,23.2877447 L34.424493,23.318159 L34.4554811,23.3491471 L34.5163096,23.3795614 L34.6081263,23.4254697 L34.6999429,23.4254697 L34.6999429,23.6085292 L32.2117115,23.6085292 L32.2117115,23.4248959 L32.3190222,23.4248959 L32.3649306,23.4099757 L32.4108389,23.3795614 L32.5026555,23.318159 L32.5485639,23.2877447 L32.5634841,23.2418364 L32.6392328,23.1500197 L32.6547269,23.074271 L32.6851412,23.0128686 L32.7310495,22.8757175 L32.7310495,16.7865515 Z M40.8797779,23.6848518 L40.6663042,23.6848518 L36.6986768,19.4882566 L36.6986768,22.7844747 L36.7141709,22.8602234 L36.7296649,22.9520401 L36.7445852,23.0128686 L36.7749994,23.074271 L36.7904935,23.1500197 L36.8209077,23.1810079 L36.8668161,23.2418364 L36.8972303,23.2722507 L36.9431387,23.318159 L37.0194613,23.3795614 L37.0802898,23.3795614 L37.1416922,23.4094018 L37.2335089,23.4248959 L37.2335089,23.6085292 L35.3862725,23.6085292 L35.3862725,23.4248959 L35.4476749,23.4094018 L35.5085034,23.3950554 L35.5699058,23.3795614 L35.6152403,23.3646412 L35.6611486,23.3336531 L35.6915629,23.3032388 L35.7374712,23.2722507 L35.7833795,23.2418364 L35.8132199,23.1810079 L35.844208,23.1345257 L35.8591283,23.074271 L35.8901164,23.0128686 L35.9050366,22.9520401 L35.9205306,22.8602234 L35.9360247,22.7850485 L35.9360247,18.6027997 L35.9205306,18.5109831 L35.9050366,18.4352343 L35.8901164,18.3589117 L35.8751962,18.2980832 L35.844208,18.2366808 L35.8132199,18.1907725 L35.7982997,18.1448642 L35.7523914,18.0989558 L35.7064831,18.0840356 L35.6146664,18.0226332 L35.5079295,17.9767249 L35.3862725,17.9623786 L35.3862725,17.7942393 L37.079716,17.7942393 L40.1165519,21.0898835 L40.1165519,18.6182938 L40.1016317,18.5419712 L40.0861377,18.4501545 L40.0712174,18.3738319 L40.0402293,18.3124296 L40.0402293,18.251601 L39.994321,18.2056927 L39.9644806,18.1603582 L39.9185723,18.1144499 L39.8875841,18.0840356 L39.7957675,18.0226332 L39.6896045,17.9767249 L39.5822937,17.9623786 L39.5822937,17.7942393 L41.4289563,17.7942393 L41.4289563,17.9623786 L41.3675539,17.9767249 L41.3216456,17.9767249 L41.2613909,17.992219 L41.2304028,18.0226332 L41.1236659,18.0840356 L41.0932516,18.0995297 L41.0473433,18.145438 L41.001435,18.2062665 L40.9865148,18.2521749 L40.9555266,18.3130034 L40.9251124,18.3738319 L40.8946981,18.5419712 L40.8797779,18.6182938 L40.8797779,23.6854256 L40.8797779,23.6848518 Z M64.2436743,21.6551298 L64.2276064,21.8221213 L64.2276064,22.0975713 L64.1971921,22.2192284 L64.1512838,22.3569534 L64.1059493,22.4642641 L64.060041,22.5859211 L63.9992124,22.692658 L63.9383839,22.7993949 L63.8620613,22.8757175 L63.7851648,22.9675341 L63.7249102,23.0438567 L63.6181733,23.1052591 L63.5412768,23.1810079 L63.450034,23.2579043 L63.3582174,23.3032388 L63.2514805,23.3640673 L63.1596639,23.4099757 L63.052927,23.455884 L62.9611103,23.5017923 L62.7476366,23.5781149 L62.6408997,23.6079553 L62.5192427,23.6389434 L62.3057689,23.6687839 L62.1066416,23.699772 L61.9086619,23.7158399 L61.5115548,23.7158399 L61.2980811,23.699772 L61.0846074,23.6687839 L60.8711336,23.6389434 L60.6576599,23.5781149 L60.4286921,23.5167125 L60.3064612,23.4708042 L60.2146445,23.4099757 L60.1084815,23.3795614 L60.0017447,23.3032388 L59.909928,23.2579043 L59.8181113,23.1810079 L59.7119483,23.1196055 L59.6356257,23.0438567 L59.5587293,22.9830282 L59.4669126,22.8912115 L59.4060841,22.7993949 L59.3297615,22.692658 L59.2838532,22.5859211 L59.2235985,22.4791843 L59.1926104,22.3724474 L59.146702,22.2347224 L59.131208,22.1888141 L59.1168616,22.1124915 L59.0852996,21.9604202 L59.0852996,18.7095366 L59.0709533,18.6182938 L59.0709533,18.5419712 L59.0548854,18.4650748 L59.025045,18.3738319 L58.9940568,18.3130034 L58.9630687,18.2366808 L58.9022402,18.1448642 L58.8563319,18.0989558 L58.8264914,18.0691154 L58.7805831,18.0387011 L58.7346748,18.007713 L58.6887665,17.992219 L58.6428581,17.9772988 L58.5361213,17.9623786 L58.5361213,17.7948131 L60.9164681,17.7948131 L60.9164681,17.9623786 L60.8097313,17.9772988 L60.7638229,17.992219 L60.7179146,18.007713 L60.6260979,18.0691154 L60.5801896,18.0995297 L60.5503492,18.145438 L60.4740266,18.2372547 L60.4430385,18.3130034 L60.4281183,18.3738319 L60.397704,18.5419712 L60.3822099,18.6182938 L60.3822099,21.6551298 L60.397704,21.8376154 L60.397704,21.9145118 L60.4126242,21.9908344 L60.4430385,22.1429058 L60.4889468,22.2806308 L60.5193611,22.3265391 L60.5503492,22.4028617 L60.6266718,22.5095985 L60.7024205,22.6014152 L60.7942372,22.692658 L60.9164681,22.7684068 L61.038699,22.8298091 L61.16093,22.8912115 L61.2831609,22.9371199 L61.4352322,22.9675341 L61.5878774,22.9979484 L62.2282986,22.9979484 L62.3815177,22.9675341 L62.5186688,22.9371199 L62.6563938,22.8912115 L62.7780509,22.8298091 L62.8997079,22.7684068 L63.0070187,22.692658 L63.068421,22.6467497 L63.1286757,22.6008414 L63.1596639,22.554933 L63.2055722,22.5095985 L63.2514805,22.44877 L63.2818948,22.4028617 L63.3576435,22.2812046 L63.4035518,22.1434796 L63.4494602,21.9908344 L63.4643804,21.9145118 L63.4798744,21.8376154 L63.4798744,21.7463726 L63.4959424,21.6551298 L63.4959424,18.7101105 L63.4798744,18.6182938 L63.4798744,18.5419712 L63.4643804,18.4650748 L63.4339661,18.3738319 L63.4184721,18.3130034 L63.3886316,18.2521749 L63.3576435,18.2062665 L63.3272293,18.1448642 L63.2813209,18.0989558 L63.2509067,18.0840356 L63.1435959,18.0226332 L63.0982615,17.992219 L63.0523531,17.9767249 L62.9456163,17.9623786 L62.9456163,17.7942393 L64.7767847,17.7942393 L64.7767847,17.9623786 L64.7165301,17.9767249 L64.6706217,17.9767249 L64.6247134,17.992219 L64.5793789,18.0226332 L64.4875623,18.0840356 L64.4416539,18.0995297 L64.4106658,18.145438 L64.3647575,18.2062665 L64.3498373,18.2521749 L64.3199969,18.3130034 L64.2890087,18.3738319 L64.2580206,18.5419712 L64.2436743,18.6182938 L64.2436743,21.6551298 L64.2436743,21.6551298 Z M48.982598,18.9385044 L48.982598,18.8013533 L48.9676778,18.7095366 L48.9372635,18.633214 L48.9062754,18.5873057 L48.8603671,18.5413974 L48.8001124,18.5109831 L48.7392838,18.495489 L48.2962685,18.495489 L48.1436233,18.5109831 L48.0213923,18.5109831 L47.8991614,18.5259033 L47.7929984,18.5419712 L47.6856877,18.5723855 L47.593871,18.5878795 L47.5175484,18.6337879 L47.4263056,18.6636283 L47.349983,18.7095366 L47.2736604,18.7858592 L47.1818438,18.8627557 L47.0900271,18.9539985 L46.9075415,19.1829662 L46.7698165,19.1221377 L47.212258,17.7942393 L52.0504221,17.7942393 L52.5077838,19.1221377 L52.3551386,19.1829662 L52.172653,18.9539985 L52.0963304,18.8621818 L52.0045137,18.7858592 L51.9276173,18.7095366 L51.8518685,18.6636283 L51.7600519,18.633214 L51.6837293,18.5873057 L51.5919126,18.5723855 L51.4851758,18.5419712 L51.3784389,18.5259033 L51.2711282,18.5109831 L51.133977,18.5109831 L50.9968259,18.495489 L50.5693046,18.495489 L50.4941297,18.5109831 L50.4178071,18.5419712 L50.4178071,18.5568914 L50.386819,18.5878795 L50.3569786,18.6027997 L50.3414845,18.6337879 L50.3110702,18.7101105 L50.2955762,18.8019271 L50.2955762,22.8596496 L50.3254166,23.0122947 L50.3713249,23.1339518 L50.4172333,23.180434 L50.4327273,23.2412625 L50.4786357,23.2871709 L50.524544,23.3020911 L50.6008666,23.3634935 L50.6616951,23.3939077 L50.7076034,23.4088279 L50.8298344,23.424322 L50.8298344,23.6079553 L48.4489137,23.6079553 L48.4489137,23.424322 L48.5711446,23.4088279 L48.6773076,23.3634935 L48.7392838,23.3330792 L48.7691242,23.3020911 L48.8150326,23.2716768 L48.8460207,23.2257685 L48.8758611,23.1798602 L48.9068492,23.1339518 L48.9223433,23.0736971 L48.9521837,23.0122947 L48.9676778,22.9359722 L48.9676778,22.8596496 L48.982598,22.7839008 L48.982598,18.9379305 L48.982598,18.9385044 Z M44.3435613,17.6875024 L44.5880232,17.7024226 L44.69476,17.7024226 L44.816991,17.7173428 L45.0304647,17.748331 L45.198604,17.7632512 L45.3661694,17.8091595 L45.5038943,17.8550678 L45.6714597,17.9009762 L45.7328621,17.9158964 L45.7632764,17.9009762 L45.7781966,17.886056 L45.7936907,17.8705619 L45.8086109,17.7942393 L45.8235311,17.7632512 L45.839599,17.748331 L45.9767501,17.7024226 L46.4191917,19.0911496 L46.2516263,19.152552 L46.1288215,19.0303211 L46.0679929,18.9539985 L45.9767501,18.8925961 L45.9004275,18.8323414 L45.8086109,18.7560188 L45.701874,18.7101105 L45.5951371,18.6492819 L45.4884003,18.5878795 L45.3661694,18.5574653 L45.2295921,18.4960629 L45.0918671,18.4650748 L44.9237278,18.4352343 L44.7865767,18.4197403 L44.6029434,18.4042462 L44.435378,18.3898999 L44.3435613,18.3898999 L44.2523185,18.4042462 L44.0692591,18.4197403 L43.8557853,18.4656486 L43.7639687,18.4805688 L43.672152,18.5264771 L43.5964033,18.5723855 L43.5504949,18.5878795 L43.5045866,18.6027997 L43.4431842,18.6636283 L43.4133438,18.6946164 L43.3674355,18.7250307 L43.3370212,18.8013533 L43.2911129,18.8931699 L43.2601248,18.9844127 L43.2601248,19.1829662 L43.3060331,19.2897031 L43.3519414,19.3660257 L43.3668616,19.39644 L43.41277,19.4268542 L43.4586783,19.4727626 L43.4890925,19.5031768 L43.5964033,19.5640054 L43.7031401,19.6254078 L43.8247972,19.6713161 L43.9625222,19.7172244 L44.1002472,19.778053 L44.3900435,19.8549494 L44.7102541,19.9461922 L45.0459588,20.037435 L45.3810896,20.1447457 L45.5647229,20.2055743 L45.7328621,20.265829 L45.8700133,20.3421516 L46.0226585,20.419048 L46.1747298,20.5102908 L46.2969607,20.6330956 L46.4346857,20.7392586 L46.5414226,20.8609157 L46.6332392,20.9831466 L46.6791476,21.0749633 L46.708988,21.1357918 L46.7853106,21.3033572 L46.8008046,21.3951739 L46.8157248,21.4720703 L46.846713,21.5633131 L46.8610593,21.67005 L46.8610593,22.0665832 L46.846713,22.17332 L46.8157248,22.2651367 L46.8008046,22.3563795 L46.7698165,22.4327021 L46.6934939,22.6157616 L46.6016773,22.7844747 L46.5563428,22.8602234 L46.4955142,22.9210519 L46.4346857,22.9973745 L46.3577893,23.0432829 L46.2969607,23.1196055 L46.2051441,23.1810079 L46.0524989,23.2877447 L45.9612561,23.3485733 L45.8539453,23.3944816 L45.6410455,23.4862982 L45.5337348,23.5167125 L45.4269979,23.5477006 L45.1687635,23.6234494 L45.0459588,23.6234494 L44.9082338,23.6544375 L44.6339315,23.6854256 L44.1002472,23.6854256 L43.8861996,23.6687839 L43.672152,23.6389434 L43.4741723,23.6234494 L43.2756188,23.5930351 L43.0919855,23.5471268 L42.7568547,23.4564578 L42.665038,23.4564578 L42.6351976,23.4708042 L42.6191297,23.4862982 L42.6042095,23.5012185 L42.5892893,23.5322066 L42.558875,23.5930351 L42.543381,23.6234494 L42.5284608,23.6234494 L42.4670584,23.6544375 L42.3907358,23.6687839 L41.7646609,21.9753404 L41.9482943,21.9145118 L42.0550311,22.0212487 L42.1462739,22.1279856 L42.2380906,22.2198022 L42.3448274,22.3265391 L42.4670584,22.4183557 L42.5892893,22.5101724 L42.7264404,22.5859211 L42.8641654,22.6616699 L43.0168106,22.7385663 L43.1533879,22.7993949 L43.322101,22.8602234 L43.4890925,22.9061317 L43.6727259,22.9371199 L43.8563592,22.9675341 L44.053765,22.9979484 L44.4359518,22.9979484 L44.5880232,22.9830282 L44.7412422,22.9520401 L44.8783934,22.9216258 L45.0000504,22.8912115 L45.1067873,22.8453032 L45.1836837,22.7993949 L45.2600063,22.7534865 L45.3059147,22.7230723 L45.3363289,22.6771639 L45.3822373,22.6312556 L45.4281456,22.554933 L45.4740539,22.4941045 L45.5044682,22.4183557 L45.5044682,22.3563795 L45.5193884,22.2812046 L45.5193884,22.1429058 L45.5044682,22.0826511 L45.5044682,22.0367428 L45.4889741,21.9753404 L45.4275717,21.8835237 L45.3816634,21.7917071 L45.3357551,21.7463726 L45.2909945,21.7004642 L45.1991778,21.6396357 L45.0918671,21.5788072 L44.97021,21.5328988 L44.8485529,21.4720703 L44.710828,21.426162 L44.4210316,21.3498394 L44.100821,21.2425287 L43.7794627,21.1667799 L43.4592521,21.0600431 L43.2916867,20.9992145 L43.1241213,20.9378121 L42.9863963,20.8614895 L42.8337512,20.800661 L42.6960262,20.7088443 L42.5743691,20.6176015 L42.452712,20.5102908 L42.3454013,20.3886337 L42.299493,20.3272314 L42.2535846,20.2664028 L42.177262,20.1143315 L42.1015133,19.9611124 L42.0705252,19.8853637 L42.055605,19.793547 L42.055605,19.6868102 L42.0401109,19.5949935 L42.0251907,19.4882566 L42.0251907,19.2897031 L42.0401109,19.1829662 L42.055605,19.0911496 L42.0705252,18.9993329 L42.1015133,18.9080901 L42.1313537,18.8323414 L42.177262,18.7405247 L42.2231704,18.6636283 L42.2690787,18.5878795 L42.314987,18.5264771 L42.3913096,18.4501545 L42.452712,18.3738319 L42.5284608,18.3124296 L42.5892893,18.251601 L42.7574286,18.129944 L42.8337512,18.0840356 L42.9100737,18.0381273 L43.0168106,17.992219 L43.1086273,17.9463106 L43.2922606,17.8705619 L43.4896664,17.8097334 L43.5969771,17.7793191 L43.703714,17.748331 L43.9166139,17.7179167 L44.1306614,17.7029965 L44.3435613,17.6875024 L44.3435613,17.6875024 Z M72.2856658,22.6777378 L72.2856658,22.8757175 L72.300586,22.9520401 L72.3160801,23.0128686 L72.3464944,23.074271 L72.3924027,23.1500197 L72.4073229,23.1959281 L72.4532312,23.2418364 L72.4991395,23.2877447 L72.5295538,23.318159 L72.5903824,23.3491471 L72.6362907,23.3795614 L72.7430275,23.4099757 L72.8348442,23.4248959 L72.8348442,23.6085292 L70.4235092,23.6085292 L70.4235092,23.4248959 L70.5153259,23.4099757 L70.5612342,23.4099757 L70.6220627,23.3795614 L70.6989592,23.318159 L70.7448675,23.2877447 L70.790202,23.2418364 L70.8510305,23.1500197 L70.8814448,23.074271 L70.9124329,23.0128686 L70.927927,22.8757175 L70.9428472,22.7850485 L70.9428472,19.9002839 L68.8207347,23.715266 L68.6990776,23.715266 L66.4862961,19.793547 L66.4862961,22.8757175 L66.5172843,22.9520401 L66.5322045,23.0128686 L66.5626187,23.074271 L66.6085271,23.1500197 L66.6234473,23.1959281 L66.6693556,23.2418364 L66.7152639,23.2877447 L66.7462521,23.318159 L66.8070806,23.3491471 L66.8529889,23.3795614 L66.9597258,23.4099757 L67.0509686,23.4248959 L67.0509686,23.6085292 L65.1893859,23.6085292 L65.1893859,23.4248959 L65.2812025,23.4099757 L65.3414572,23.4099757 L65.3873655,23.3795614 L65.4791822,23.318159 L65.5101703,23.2877447 L65.5560786,23.2418364 L65.617481,23.1500197 L65.6473214,23.074271 L65.6777357,23.0128686 L65.7087238,22.8757175 L65.723644,22.7850485 L65.723644,18.5723855 L65.7087238,18.5264771 L65.6932298,18.4346605 L65.6932298,18.3898999 L65.6777357,18.3434177 L65.6478953,18.2825891 L65.617481,18.2217606 L65.6014131,18.1758523 L65.5560786,18.129944 L65.5101703,18.0995297 L65.479756,18.0685416 L65.4338477,18.0387011 L65.3879394,18.007713 L65.342031,17.992219 L65.2817764,17.9767249 L65.1899597,17.9767249 L65.1899597,17.7948131 L67.0819567,17.7948131 L69.0502763,21.6097953 L71.2022293,17.7948131 L72.8050038,17.7948131 L72.8050038,17.9772988 L72.6976931,17.9772988 L72.6517847,17.9927928 L72.6058764,18.0082869 L72.5605419,18.039275 L72.5295538,18.0691154 L72.438311,18.1305178 L72.4078967,18.1764261 L72.3774825,18.2223345 L72.3464944,18.283163 L72.3160801,18.3439915 L72.3011599,18.4358082 L72.2856658,18.527051 L72.2856658,22.6783117 L72.2856658,22.6777378 Z M84.6619775,23.6848518 L84.4324358,23.6848518 L80.4803026,19.4882566 L80.4803026,22.8757175 L80.5107168,22.9520401 L80.5262109,23.0128686 L80.5560513,23.074271 L80.5721192,23.1500197 L80.6180275,23.1959281 L80.663362,23.2418364 L80.6937763,23.2722507 L80.7396846,23.318159 L80.7855929,23.3491471 L80.8315013,23.3795614 L80.8768358,23.3950554 L80.9227441,23.4094018 L81.0294809,23.4248959 L81.0294809,23.6085292 L79.1828184,23.6085292 L79.1828184,23.4248959 L79.2746351,23.4094018 L79.3205434,23.3950554 L79.3658779,23.3795614 L79.4731886,23.318159 L79.5036029,23.2722507 L79.534591,23.2418364 L79.6103397,23.1500197 L79.6258338,23.074271 L79.6562481,23.0128686 L79.7021564,22.8757175 L79.7021564,18.5109831 L79.6866623,18.4352343 L79.6711683,18.3589117 L79.6413278,18.2980832 L79.6258338,18.2366808 L79.6109136,18.1907725 L79.5650052,18.1448642 L79.534591,18.0989558 L79.4886827,18.0685416 L79.4427743,18.0387011 L79.396866,18.0226332 L79.2901291,17.9767249 L79.1833923,17.9623786 L79.1833923,17.7942393 L80.8469953,17.7942393 L83.8987515,21.0904573 L83.8987515,18.7101105 L83.8838313,18.6182938 L83.8838313,18.5419712 L83.8689111,18.4501545 L83.8384968,18.3738319 L83.8224289,18.3124296 L83.8069349,18.251601 L83.7616004,18.2056927 L83.7311861,18.1448642 L83.700198,18.0989558 L83.6542897,18.0840356 L83.562473,18.0226332 L83.5171385,17.992219 L83.45631,17.9767249 L83.3495731,17.9623786 L83.3495731,17.7942393 L85.1962357,17.7942393 L85.1962357,17.9623786 L85.1503273,17.9767249 L85.104419,17.9767249 L85.0435905,17.992219 L85.0126023,18.0226332 L84.9058655,18.0840356 L84.8754512,18.0995297 L84.8295429,18.1448642 L84.7836346,18.2056927 L84.7687144,18.251601 L84.722806,18.3124296 L84.6918179,18.3738319 L84.6774715,18.4501545 L84.6619775,18.5419712 L84.6619775,23.6854256 L84.6619775,23.6848518 Z M73.5825761,23.6079553 L73.5825761,23.424322 L73.6434047,23.424322 L73.704807,23.4094018 L73.8109701,23.3640673 L73.9027867,23.3026649 L73.948695,23.2722507 L73.9946034,23.2263423 L74.0089497,23.180434 L74.0405117,23.1345257 L74.070926,23.0587769 L74.0858462,22.9973745 L74.1168343,22.8602234 L74.1168343,18.5419712 L74.1013402,18.4650748 L74.070926,18.3898999 L74.0554319,18.3284975 L74.0250176,18.2521749 L73.9946034,18.2062665 L73.9641891,18.1603582 L73.9177069,18.1144499 L73.8717986,18.0840356 L73.8419582,18.0536214 L73.7811296,18.0232071 L73.689313,17.9772988 L73.5825761,17.9772988 L73.5825761,17.7948131 L78.1447163,17.7948131 L78.5877317,19.0458151 L78.4350865,19.0917234 L78.3587639,19.0154008 L78.2824413,18.9385044 L78.2061187,18.8633295 L78.1297961,18.8019271 L77.9616569,18.6946164 L77.8853343,18.6492819 L77.7935176,18.6188677 L77.7028487,18.5878795 L77.611032,18.5729593 L77.5192153,18.5419712 L77.4273987,18.5264771 L77.3206618,18.5115569 L77.1990047,18.5115569 L76.9694631,18.4960629 L75.8561861,18.4960629 L75.7339552,18.5115569 L75.6725528,18.5115569 L75.6421385,18.5264771 L75.5658159,18.5574653 L75.5038397,18.5878795 L75.4894933,18.6188677 L75.4585052,18.6492819 L75.443585,18.7101105 L75.4286648,18.8168473 L75.4286648,20.17516 L77.1376023,20.17516 L77.3057416,20.1602398 L77.4273987,20.1143315 L77.473307,20.0994113 L77.5192153,20.0684231 L77.5955379,20.0225148 L77.6259522,19.9766065 L77.6569403,19.9467661 L77.6867807,19.8549494 L77.717195,19.7786268 L77.8698402,19.7786268 L77.8698402,21.3653334 L77.717195,21.3653334 L77.6867807,21.2431025 L77.6712867,21.2126882 L77.6575142,21.1667799 L77.6265261,21.1208716 L77.5961118,21.1048037 L77.5656975,21.0594692 L77.5347094,21.0290549 L77.4744547,21.0141347 L77.4428927,20.9992145 L77.367144,20.9837205 L77.3063155,20.9682264 L77.1381762,20.9533062 L76.9401965,20.9378121 L75.4292387,20.9378121 L75.4292387,22.5859211 L75.4447327,22.692658 L75.4447327,22.7385663 L75.4590791,22.7689806 L75.490641,22.8148889 L75.5044135,22.8298091 L75.5359755,22.8458771 L75.5663898,22.8757175 L75.6427124,22.9067056 L75.734529,22.9216258 L77.4428927,22.9216258 L77.6414463,22.9067056 L77.8399998,22.8607973 L77.9473105,22.8458771 L78.0391272,22.8148889 L78.1447163,22.7850485 L78.252027,22.7391402 L78.3438437,22.692658 L78.4201663,22.6318295 L78.511983,22.5704271 L78.618146,22.4791843 L78.6944686,22.4028617 L78.7707912,22.3116189 L78.9240102,22.3569534 L78.4815687,23.6079553 L73.5825761,23.6079553 Z M87.5151801,18.9385044 L87.5002599,18.8013533 L87.484192,18.7095366 L87.4692718,18.633214 L87.4233635,18.5873057 L87.3929492,18.5413974 L87.3321207,18.5109831 L87.2563719,18.4960629 L86.8282768,18.4960629 L86.6911256,18.5109831 L86.5534006,18.5109831 L86.4317436,18.5264771 L86.3255806,18.5419712 L86.2188437,18.5723855 L86.127027,18.5878795 L86.0507044,18.6337879 L85.9588878,18.6636283 L85.8670711,18.7095366 L85.7907485,18.7858592 L85.7144259,18.8627557 L85.6231831,18.9545723 L85.4395498,19.1829662 L85.2869046,19.1221377 L85.7448402,17.7948131 L90.5979244,17.7948131 L91.0397921,19.1221377 L90.902641,19.1829662 L90.7190077,18.9539985 L90.6128446,18.8627557 L90.536522,18.7858592 L90.4756935,18.7101105 L90.3838769,18.6642021 L90.3075543,18.6337879 L90.2312317,18.5878795 L90.1244948,18.5723855 L90.0326781,18.5419712 L89.9265151,18.5264771 L89.8042842,18.5109831 L89.6820533,18.5109831 L89.5299819,18.4960629 L89.1024606,18.4960629 L89.0416321,18.5109831 L88.9802297,18.5419712 L88.9498154,18.5568914 L88.9188273,18.5878795 L88.9033332,18.6027997 L88.888413,18.6337879 L88.8734928,18.7101105 L88.8425047,18.8019271 L88.8425047,22.7839008 L88.8579988,22.8596496 L88.888413,23.0122947 L88.9033332,23.0736971 L88.9188273,23.1339518 L88.9498154,23.1798602 L88.9951499,23.2406887 L89.0255642,23.286597 L89.0565523,23.3020911 L89.1483689,23.3634935 L89.2086236,23.3939077 L89.2694522,23.4088279 L89.3767629,23.424322 L89.3767629,23.6073815 L86.9665756,23.6073815 L86.9665756,23.4237481 L87.0882327,23.4088279 L87.2104636,23.3629196 L87.2563719,23.3325053 L87.3017064,23.3020911 L87.3321207,23.2716768 L87.378029,23.2257685 L87.4090171,23.1798602 L87.4233635,23.1339518 L87.4543516,23.0731233 L87.4692718,23.0122947 L87.484192,22.9359722 L87.5002599,22.8596496 L87.5002599,22.7839008 L87.5151801,22.6765901 L87.5151801,18.9385044 Z M93.6800949,17.6875024 L93.9239829,17.7024226 L94.0312936,17.7024226 L94.1380305,17.7173428 L94.3515042,17.748331 L94.5351375,17.7632512 L94.6872088,17.8091595 L94.8249338,17.8550678 L94.9924992,17.9009762 L95.0539016,17.9158964 L95.0843159,17.9009762 L95.0992361,17.886056 L95.1147302,17.886056 L95.1296504,17.8705619 L95.1445706,17.7942393 L95.1445706,17.7632512 L95.1600646,17.748331 L95.3132837,17.7024226 L95.7402311,19.0911496 L95.5720919,19.152552 L95.449861,19.0303211 L95.3890324,18.9539985 L95.3132837,18.8925961 L95.221467,18.8323414 L95.1296504,18.7560188 L95.0389814,18.7101105 L94.9316707,18.6492819 L94.8094398,18.5878795 L94.6872088,18.5574653 L94.5500577,18.4960629 L94.4123327,18.4650748 L94.2602614,18.4352343 L94.1070423,18.4197403 L93.9555449,18.4042462 L93.7719115,18.3898999 L93.6800949,18.3898999 L93.5882782,18.4042462 L93.3902986,18.4197403 L93.191745,18.4656486 L93.0850082,18.4805688 L93.0092594,18.5264771 L92.9174428,18.5723855 L92.8715344,18.5878795 L92.8256261,18.6027997 L92.7642237,18.6636283 L92.7338094,18.6946164 L92.7033952,18.7250307 L92.6574868,18.8013533 L92.6115785,18.8931699 L92.5811643,18.9844127 L92.5811643,19.0762294 L92.5960845,19.1829662 L92.6270726,19.2897031 L92.6729809,19.3660257 L92.7033952,19.39644 L92.7338094,19.4268542 L92.7797178,19.4727626 L92.8256261,19.5031768 L92.932363,19.5640054 L93.0390998,19.6254078 L93.1613308,19.6713161 L93.2829878,19.7172244 L93.4207128,19.778053 L93.7409234,19.8549494 L94.0462138,19.9461922 L94.3824923,20.037435 L94.7170493,20.1447457 L94.8857624,20.2055743 L95.0533278,20.265829 L95.1904789,20.3421516 L95.3586182,20.419048 L95.4963431,20.5102908 L95.6334943,20.6330956 L95.7551514,20.7392586 L95.8618882,20.8609157 L95.9537049,20.9831466 L95.9996132,21.0749633 L96.0300275,21.1357918 L96.1063501,21.3033572 L96.1367643,21.3951739 L96.1516845,21.4720703 L96.1671786,21.5633131 L96.1826727,21.67005 L96.1826727,21.7612928 L96.1975929,21.8680296 L96.1826727,22.0665832 L96.1671786,22.17332 L96.1516845,22.2651367 L96.1367643,22.3563795 L96.1069239,22.4327021 L96.0156811,22.6163354 L95.9387847,22.7844747 L95.8928763,22.8602234 L95.8165537,22.9216258 L95.7706454,22.9973745 L95.6948967,23.0432829 L95.6180002,23.1196055 L95.5428253,23.1810079 L95.3741122,23.2877447 L95.2822956,23.3485733 L95.1904789,23.3944816 L94.9781529,23.4862982 L94.855922,23.5167125 L94.7486112,23.5477006 L94.5047232,23.6234494 L94.3669983,23.6234494 L94.2447673,23.6544375 L93.9859591,23.6854256 L93.4367807,23.6854256 L93.2072391,23.6693577 L92.9937654,23.6389434 L92.7952118,23.6240232 L92.5966583,23.5930351 L92.4296668,23.5477006 L92.0778942,23.455884 L91.9860775,23.455884 L91.9711573,23.4708042 L91.9407431,23.4862982 L91.9258229,23.5017923 L91.9109026,23.5322066 L91.8948347,23.5930351 L91.8799145,23.6234494 L91.8649943,23.6234494 L91.7886717,23.6544375 L91.7123491,23.6687839 L91.1011945,21.9759142 L91.2848278,21.9145118 L91.3766445,22.0212487 L91.4678873,22.1279856 L91.5597039,22.2198022 L91.681361,22.3265391 L91.7886717,22.4183557 L91.9109026,22.5101724 L92.0474799,22.5859211 L92.1852049,22.6616699 L92.3372763,22.7385663 L92.4904953,22.7999687 L92.6586346,22.8602234 L92.8262,22.9061317 L92.9937654,22.9371199 L93.1773987,22.9675341 L93.3908724,22.9979484 L93.7724854,22.9979484 L93.9239829,22.983602 L94.0772019,22.9526139 L94.1994329,22.9216258 L94.3210899,22.8912115 L94.4284006,22.8453032 L94.5202173,22.7993949 L94.595966,22.7534865 L94.6263803,22.7230723 L94.6573684,22.6777378 L94.718197,22.6318295 L94.7641053,22.5555069 L94.7945196,22.4941045 L94.8255077,22.4183557 L94.8404279,22.3569534 L94.8404279,22.0367428 L94.8100136,21.9753404 L94.7641053,21.8835237 L94.7032768,21.7917071 L94.6573684,21.7463726 L94.6114601,21.7004642 L94.5196434,21.6396357 L94.4134804,21.5788072 L94.3061697,21.5328988 L94.1684447,21.4720703 L94.0318675,21.426162 L93.7569913,21.3498394 L93.4207128,21.2425287 L93.1010761,21.1667799 L92.7802916,21.0600431 L92.6127262,20.9992145 L92.4595072,20.9378121 L92.3074358,20.8614895 L92.1697109,20.800661 L92.0176395,20.7088443 L91.8954086,20.6176015 L91.7731777,20.5102908 L91.6664408,20.3886337 L91.6360265,20.3272314 L91.5746241,20.2664028 L91.4983015,20.1143315 L91.4368991,19.9611124 L91.4070587,19.8853637 L91.3915647,19.793547 L91.3766445,19.6868102 L91.3617243,19.5949935 L91.3456563,19.4882566 L91.3456563,19.2897031 L91.3617243,19.1829662 L91.3766445,19.0917234 L91.3915647,18.9999068 L91.4225528,18.9080901 L91.4678873,18.8323414 L91.5137956,18.7405247 L91.5447837,18.6642021 L91.6056123,18.5878795 L91.6515206,18.5264771 L91.7123491,18.4501545 L91.7731777,18.3738319 L91.8495003,18.3130034 L91.9109026,18.2521749 L92.0778942,18.129944 L92.1547906,18.0840356 L92.2311132,18.0387011 L92.3372763,17.9927928 L92.4290929,17.9468845 L92.6127262,17.8711357 L92.8262,17.8097334 L92.9329368,17.7793191 L93.0247535,17.7489048 L93.2376534,17.7179167 L93.4517009,17.7029965 L93.6800949,17.6875024 Z M56.4414909,7.70299649 L56.5482278,7.71849055 L56.6710325,7.73398461 L56.8839324,7.76439888 L57.0520717,7.77989294 L57.2196371,7.82580127 L57.3573621,7.85621554 L57.5249275,7.91647022 L57.6167441,7.91647022 L57.6316643,7.90212387 L57.6316643,7.88662981 L57.6471584,7.87113575 L57.6620786,7.795387 L57.6769988,7.76439888 L57.6924929,7.76439888 L57.8302178,7.71849055 L58.2720855,9.12271157 L58.1045201,9.1686199 L57.9214607,8.98556043 L57.829644,8.90923784 L57.7538953,8.86332951 L57.6620786,8.78643306 L57.5547679,8.72560452 L57.448031,8.66477599 L57.3412941,8.61886766 L57.2196371,8.55803912 L57.0819121,8.51213079 L56.9441871,8.48171652 L56.7766217,8.45130226 L56.6394706,8.42031413 L56.4564111,8.40539393 L56.1057862,8.40539393 L55.9072327,8.43638205 L55.6943328,8.48171652 L55.6025162,8.49663673 L55.5106995,8.52762485 L55.4343769,8.58845339 L55.3890424,8.60394745 L55.3431341,8.61944151 L55.2823056,8.68027005 L55.2513175,8.72617838 L55.2209032,8.74109858 L55.1749949,8.83291524 L55.1290865,8.90923784 L55.0992461,9.0010545 L55.0992461,9.21452823 L55.1445806,9.29085082 L55.1904889,9.36717342 L55.2513175,9.45899008 L55.2972258,9.48883049 L55.3425603,9.51981861 L55.4343769,9.58064715 L55.5411138,9.62655548 L55.6633447,9.68738402 L55.8010697,9.73329234 L55.9382208,9.77920067 L56.2429374,9.87101733 L56.5642957,9.96226014 L56.8994265,10.0535029 L57.2351311,10.1757339 L57.4181906,10.2216422 L57.5863299,10.2979648 L57.723481,10.3737135 L57.8761262,10.4655302 L58.0293452,10.5573469 L58.1659225,10.6336694 L58.2881534,10.7559004 L58.3948903,10.8775574 L58.486707,11.0152824 L58.5326153,11.076111 L58.5624557,11.1679276 L58.6387783,11.319999 L58.6548462,11.4118156 L58.6697664,11.5030584 L58.7001807,11.5948751 L58.7156747,11.6866917 L58.7156747,12.098719 L58.7001807,12.1905357 L58.6697664,12.2966987 L58.6548462,12.3730213 L58.6387783,12.4648379 L58.5475355,12.6484712 L58.4557188,12.8005426 L58.4103844,12.8762913 L58.3495558,12.9531878 L58.2881534,13.0295104 L58.2118308,13.0909128 L58.1510023,13.1666615 L58.0591856,13.2125698 L57.9065404,13.3342269 L57.8152976,13.3962032 L57.7085608,13.4260436 L57.495087,13.5178602 L57.3883502,13.5327804 L57.2816133,13.5792626 L57.0371515,13.6400911 L56.8994265,13.6555852 L56.7622753,13.6699316 L56.4879731,13.7014935 L56.1826827,13.715266 L55.9382208,13.715266 L55.7247471,13.7014935 L55.5112734,13.6699316 L55.3127199,13.6555852 L55.1141663,13.6096769 L54.9311069,13.5792626 L54.5954022,13.487446 L54.4886653,13.487446 L54.4582511,13.5178602 L54.442757,13.5327804 L54.4278368,13.5637686 L54.3968487,13.6245971 L54.3819285,13.6400911 L54.3819285,13.6555852 L54.3056059,13.6699316 L54.2292833,13.7009197 L53.6192764,12.0218225 L53.8029097,11.9460738 L53.9090727,12.0522368 L54.0003155,12.1595475 L54.0921322,12.2502165 L54.3056059,12.4338498 L54.4278368,12.5411605 L54.5655618,12.6174831 L54.7021391,12.6938057 L54.8553581,12.7695545 L54.9925093,12.8309568 L55.1606485,12.8917854 L55.3431341,12.9221997 L55.5112734,12.968108 L55.6943328,12.9990961 L55.8928864,13.0140163 L56.090866,13.0295104 L56.2894196,13.0140163 L56.4420647,12.9990961 L56.5947099,12.983602 L56.7324349,12.9531878 L56.854092,12.9221997 L56.9608289,12.8762913 L57.0371515,12.8154628 L57.1134741,12.7695545 L57.1593824,12.739714 L57.235705,12.6633914 L57.2816133,12.5870689 L57.3275216,12.5262403 L57.3573621,12.4493439 L57.3573621,12.3730213 L57.3728561,12.3116189 L57.3728561,12.1750416 L57.3573621,12.1136392 L57.3573621,12.0528107 L57.341868,12.0218225 L57.2959597,11.9150857 L57.235705,11.823269 L57.1897967,11.7934286 L57.1438883,11.7475203 L57.0520717,11.6866917 L56.9453348,11.6097953 L56.8231039,11.563887 L56.7020207,11.5024846 L56.5642957,11.4422299 L56.2739255,11.3504132 L55.9382208,11.2740906 L55.6180102,11.197768 L55.2966519,11.076111 L55.1290865,11.0302026 L54.9770152,10.95388 L54.8237961,10.8930515 L54.6717248,10.8161551 L54.5339998,10.7249123 L54.4117689,10.6336694 L54.2901118,10.5418528 L54.1982952,10.4196219 L54.1523868,10.3432993 L54.1064785,10.2824707 L54.0301559,10.1447457 L53.9544072,9.97718034 L53.9239929,9.88536368 L53.9084988,9.80961494 L53.9084988,9.71779828 L53.8935786,9.61048756 L53.8775107,9.5037507 L53.8775107,9.29085082 L53.8935786,9.19903417 L53.9084988,9.10721751 L53.9239929,9.03089491 L53.9544072,8.93907825 L53.9848214,8.86332951 L54.0301559,8.75659264 L54.0760642,8.69576411 L54.1219726,8.61944151 L54.1678809,8.52762485 L54.2287094,8.46622246 L54.289538,8.38989987 L54.3658606,8.32964518 L54.427263,8.25332259 L54.5948284,8.14658572 L54.6717248,8.10067739 L54.7474736,8.039275 L54.8547843,8.00828688 L54.9460271,7.9629524 L55.1290865,7.88662981 L55.3425603,7.81030721 L55.4343769,7.77989294 L55.7551614,7.73341076 L55.9686351,7.70299649 L56.4414909,7.70299649 Z M40.2656911,7.77989294 L40.7087065,9.03089491 L40.5554875,9.0922973 L40.4946589,9.0159747 L40.4028423,8.93965211 L40.3265197,8.86332951 L40.2656911,8.80192712 L40.0981257,8.69576411 L39.9144924,8.60394745 L39.8226758,8.57353318 L39.7320068,8.55861297 L39.6401902,8.52762485 L39.5483735,8.51270465 L39.4422105,8.49721058 L39.3348998,8.48171652 L37.8704241,8.48171652 L37.8239419,8.49721058 L37.7780336,8.49721058 L37.7022848,8.52762485 L37.6259622,8.60394745 L37.6104682,8.63493557 L37.5800539,8.71125817 L37.5645598,8.81799503 L37.5496396,8.9247319 L37.5496396,10.1757339 L39.0910118,10.1757339 L39.2746451,10.1608137 L39.3348998,10.1608137 L39.4267164,10.1453196 L39.5489474,10.1149053 L39.5948557,10.0999851 L39.6556842,10.0695709 L39.6860985,10.0385827 L39.7165128,10.0236625 L39.7475009,9.9777542 L39.7779151,9.93184587 L39.8083294,9.85552327 L39.8393175,9.74878641 L40.0068829,9.74878641 L40.0068829,11.3504132 L39.8393175,11.3504132 L39.8083294,11.2442502 L39.8083294,11.1983419 L39.7779151,11.1524336 L39.7624211,11.1220193 L39.7165128,11.076111 L39.6860985,11.0451228 L39.6556842,11.0147086 L39.6097759,10.9992145 L39.5638676,10.9842943 L39.4881188,10.9688003 L39.4267164,10.95388 L39.2740712,10.938386 L39.0910118,10.9234658 L37.5496396,10.9234658 L37.5496396,12.4493439 L37.5645598,12.5870689 L37.5800539,12.6938057 L37.595548,12.7236461 L37.6104682,12.7695545 L37.6259622,12.8005426 L37.6563765,12.8154628 L37.6718705,12.8464509 L37.7022848,12.8762913 L37.7780336,12.8917854 L37.8704241,12.9221997 L39.5638676,12.9221997 L39.7779151,12.8917854 L39.9764687,12.8613711 L40.0671376,12.8309568 L40.1589543,12.8154628 L40.2811852,12.7850485 L40.4648185,12.6932319 L40.5554875,12.6324033 L40.6323839,12.5715748 L40.7391208,12.480332 L40.9066862,12.3116189 L41.0444112,12.342607 L40.6013958,13.6096769 L35.7178973,13.6096769 L35.7184711,13.609103 L35.7184711,13.4415376 L35.7792997,13.4254697 L35.8401282,13.4254697 L35.9468651,13.3795614 L36.0237615,13.3193067 L36.0696699,13.2888924 L36.1150043,13.2429841 L36.1304984,13.1821556 L36.1603388,13.1362472 L36.1913269,13.0754187 L36.2062471,13.0140163 L36.2372353,12.8464509 L36.2521555,12.7695545 L36.2521555,8.60394745 L36.2372353,8.52762485 L36.2062471,8.36005945 L36.1603388,8.23782852 L36.1304984,8.1919202 L36.1000841,8.14658572 L36.069096,8.10067739 L36.0231877,8.06968927 L35.9927734,8.039275 L35.931371,8.00886073 L35.8860365,7.99394053 L35.825208,7.96352626 L35.7184711,7.96352626 L35.7184711,7.77989294 L40.2656911,7.77989294 Z M50.7953403,7.77989294 L52.932373,12.8005426 L52.9926277,12.9067056 L53.0081217,12.9526139 L53.0534562,13.0140163 L53.1297788,13.105833 L53.2365157,13.1976496 L53.3283323,13.3038126 L53.4505633,13.3646412 L53.5573001,13.4254697 L53.679531,13.4409638 L53.679531,13.609103 L51.1161247,13.609103 L51.1161247,13.4409638 L51.1769533,13.4409638 L51.2681961,13.4254697 L51.3600127,13.3956293 L51.4208413,13.3342269 L51.4667496,13.3038126 L51.4977377,13.2424102 L51.5126579,13.1821556 L51.528152,13.1666615 L51.528152,13.0599246 L51.5126579,12.9531878 L51.4977377,12.8613711 L51.4518294,12.7546343 L51.1310449,11.9759142 L48.6892957,11.9759142 L48.3386708,12.7999687 L48.3237506,12.8917854 L48.2927625,12.983602 L48.2927625,13.1362472 L48.3076827,13.1821556 L48.3386708,13.2424102 L48.353591,13.3038126 L48.4454077,13.3646412 L48.4758219,13.3962032 L48.5217303,13.4111234 L48.581985,13.4254697 L48.6129731,13.4254697 L48.6588814,13.4415376 L48.7197099,13.4415376 L48.7197099,13.609103 L47.2701545,13.609103 L47.2698406,13.6085214 L44.8284052,13.6085292 L44.8284052,13.4409638 L44.9047278,13.4409638 L44.9965445,13.4248959 L45.0424528,13.3950554 L45.0877873,13.3640673 L45.1187754,13.3336531 L45.1646837,13.3187328 L45.1945241,13.2579043 L45.2100182,13.211996 L45.2249384,13.1660877 L45.2249384,13.1046853 L45.2100182,13.0289365 L45.1790301,12.9520401 L45.1336956,12.8757175 L45.0728671,12.7689806 L44.1719161,11.5334727 L43.1498819,12.8762913 L43.1188938,12.9520401 L43.0729855,13.0134425 L43.0431451,13.0748448 L43.027651,13.1201793 L43.027651,13.211996 L43.0431451,13.2728245 L43.0729855,13.3336531 L43.1033997,13.3640673 L43.1648021,13.4099757 L43.2107105,13.4409638 L43.3484354,13.4409638 L43.3484354,13.609103 L41.1350801,13.609103 L41.1350801,13.4409638 L41.1959087,13.4409638 L41.257311,13.4248959 L41.379542,13.3795614 L41.517267,13.3193067 L41.6538442,13.22749 L41.7915692,13.1356734 L41.9292942,13.0140163 L42.0658715,12.8762913 L42.1881024,12.7391402 L43.6510793,10.8242539 L41.9746287,8.69576411 L41.8678918,8.54311891 L41.761155,8.42088799 L41.6693383,8.31357727 L41.5626014,8.23782852 L41.4707848,8.16093207 L41.4248765,8.14658572 L41.3789681,8.1155976 L41.257311,8.06968927 L41.1809885,8.05476906 L41.1201599,8.05476906 L41.1201599,7.88662981 L43.8517055,7.88662981 L43.8517055,8.05476906 L43.7598888,8.05476906 L43.6990603,8.08518333 L43.653152,8.10067739 L43.6227377,8.13109166 L43.5917496,8.16150593 L43.5458413,8.1919202 L43.5314949,8.23782852 L43.5160008,8.28373685 L43.5160008,8.32964518 L43.5005068,8.38989987 L43.5160008,8.45130226 L43.5160008,8.51270465 L43.5464151,8.58902724 L43.5923234,8.64985578 L43.6382318,8.72617838 L44.4462184,9.85494942 L45.3925038,8.61944151 L45.4688264,8.51270465 L45.4998145,8.40596778 L45.5296549,8.31415112 L45.5147347,8.26824279 L45.5147347,8.23782852 L45.4998145,8.1919202 L45.4843204,8.16150593 L45.4539062,8.13109166 L45.4079979,8.10067739 L45.3620895,8.08518333 L45.3316753,8.05476906 L45.2249384,8.05476906 L45.2249384,7.88662981 L47.3918115,7.88662981 L47.3918115,8.05476906 L47.2701545,8.06968927 L47.1479235,8.10067739 L47.0256926,8.16093207 L46.9040355,8.2068404 L46.7818046,8.283163 L46.6440796,8.37497966 L46.5981713,8.45130226 L46.5224225,8.51213079 L46.4765142,8.58845339 L46.4007655,8.66477599 L45.0070916,10.4874581 L45.1032813,10.4649563 L45.1038552,10.4649563 L45.4848943,11.076111 L45.6524597,11.3808275 L45.8355192,11.6396357 L46.0030846,11.9150857 L46.2022119,12.1899618 L46.4151118,12.4946783 L46.6446535,12.8154628 L46.7663105,12.9830282 L46.8277129,13.0444306 L46.8581272,13.1046853 L47.0411867,13.2584782 L47.1927694,13.3960696 L47.4227996,13.1660877 L48.2927625,11.1673538 L49.6814894,7.77989294 L50.7953403,7.77989294 Z M36.5729399,5.85748166 L37.0303016,7.20030029 L36.8782303,7.27662288 L36.8472422,7.23071456 L36.8013339,7.18480623 L36.7255851,7.10848363 L36.6188482,7.03273489 L36.588434,7.00232062 L36.5270316,6.9713325 L36.4811233,6.94091823 L36.4352149,6.92542417 L36.3290519,6.87951584 L36.2217412,6.83360751 L36.1000841,6.8037671 L35.825208,6.77277897 L35.4895034,6.74236471 L35.321938,6.7274445 L34.4215608,6.7274445 L34.3297442,6.74236471 L34.2534216,6.77277897 L34.2385014,6.78827303 L34.2080871,6.78827303 L34.1776729,6.81926116 L34.1621788,6.84967542 L34.1317645,6.92599802 L34.1317645,12.6783117 L34.1311907,12.6783117 L34.1311907,12.8762913 L34.1461109,12.9526139 L34.177099,13.0289365 L34.2075133,13.0903389 L34.2379275,13.1660877 L34.2528477,13.2125698 L34.2993299,13.2584782 L34.3297442,13.3038126 L34.3756525,13.3342269 L34.4060668,13.3646412 L34.4663215,13.3956293 L34.5736322,13.4254697 L34.6195405,13.4415376 L34.6803691,13.4415376 L34.6803691,13.609103 L32.1318829,13.609103 L32.1318829,13.4415376 L32.2386198,13.4254697 L32.2845281,13.4111234 L32.3304365,13.3962032 L32.391265,13.3646412 L32.4216793,13.3342269 L32.4675876,13.3038126 L32.5134959,13.2584782 L32.5588304,13.1666615 L32.5898185,13.0903389 L32.6196589,13.0295104 L32.6357268,12.9526139 L32.6357268,12.8762913 L32.6506471,12.7844747 L32.6506471,7.04822895 L32.6357268,6.92599802 L32.6357268,6.84967542 L32.6047387,6.81926116 L32.5898185,6.78884689 L32.5588304,6.78884689 L32.5134959,6.77277897 L32.4980019,6.75785877 L32.4520935,6.74293856 L32.3602769,6.7274445 L31.4604736,6.7274445 L31.2774142,6.74293856 L30.9572036,6.77277897 L30.8045584,6.78884689 L30.6668334,6.8037671 L30.5451763,6.83418136 L30.4378656,6.88008969 L30.3311287,6.92599802 L30.2393121,6.97190635 L30.1480693,7.03273489 L30.1021609,7.06314915 L30.0562526,7.10905748 L30.0103443,7.1388979 L29.9650098,7.18480623 L29.8886872,7.27662288 L29.736042,7.20030029 L30.1945514,5.85748166 L36.5729399,5.85748166 Z M49.9408715,8.77151285 L49.0095063,11.1673538 L50.8871569,11.1673538 L49.9408715,8.77151285 Z" id="Combined-Shape"></path>
            </g>
        </g>
    </g>
</svg>