<?xml version="1.0" encoding="UTF-8" standalone="no"?>
<!-- Created with Inkscape (http://www.inkscape.org/) -->

<svg
   xmlns:dc="http://purl.org/dc/elements/1.1/"
   xmlns:cc="http://creativecommons.org/ns#"
   xmlns:rdf="http://www.w3.org/1999/02/22-rdf-syntax-ns#"
   xmlns:svg="http://www.w3.org/2000/svg"
   xmlns="http://www.w3.org/2000/svg"
   xmlns:sodipodi="http://sodipodi.sourceforge.net/DTD/sodipodi-0.dtd"
   xmlns:inkscape="http://www.inkscape.org/namespaces/inkscape"
   version="1.1"
   id="svg2"
   xml:space="preserve"
   width="500"
   height="234.57236"
   viewBox="0 0 500 234.57236"
   sodipodi:docname="UFOInteractive logo.svg"
   inkscape:version="0.92.4 (5da689c313, 2019-01-14)"><metadata
     id="metadata8"><rdf:RDF><cc:Work
         rdf:about=""><dc:format>image/svg+xml</dc:format><dc:type
           rdf:resource="http://purl.org/dc/dcmitype/StillImage" /><dc:title></dc:title></cc:Work></rdf:RDF></metadata><defs
     id="defs6"><clipPath
       clipPathUnits="userSpaceOnUse"
       id="clipPath18"><path
         d="M 0,0 H 840 V 594 H 0 Z"
         id="path16"
         inkscape:connector-curvature="0" /></clipPath><clipPath
       clipPathUnits="userSpaceOnUse"
       id="clipPath74"><path
         d="M 400.579,557.36 H 32.619 V 38.641 h 367.96 v 0.032 H 33 V 99.47 h 367.579 z"
         id="path72"
         inkscape:connector-curvature="0" /></clipPath><clipPath
       clipPathUnits="userSpaceOnUse"
       id="clipPath90"><path
         d="M 33,38.673 H 400.579 V 99.47 H 33 Z m 258.655,51.743 h 57.753 V 77.352 h -57.753 z"
         id="path88"
         inkscape:connector-curvature="0" /></clipPath><clipPath
       clipPathUnits="userSpaceOnUse"
       id="clipPath104"><path
         d="M 0,0 H 840 V 594 H 0 Z"
         id="path102"
         inkscape:connector-curvature="0" /></clipPath><clipPath
       clipPathUnits="userSpaceOnUse"
       id="clipPath148"><path
         d="M 0,0 H 840 V 594 H 0 Z"
         id="path146"
         inkscape:connector-curvature="0" /></clipPath><clipPath
       clipPathUnits="userSpaceOnUse"
       id="clipPath1142"><path
         d="M 0,0 H 840 V 594 H 0 Z"
         id="path1140"
         inkscape:connector-curvature="0" /></clipPath><clipPath
       clipPathUnits="userSpaceOnUse"
       id="clipPath1184"><path
         d="M 0,0 H 840 V 594 H 0 Z"
         id="path1182"
         inkscape:connector-curvature="0" /></clipPath><clipPath
       clipPathUnits="userSpaceOnUse"
       id="clipPath1204"><path
         d="M 0,0 H 840 V 594 H 0 Z"
         id="path1202"
         inkscape:connector-curvature="0" /></clipPath><clipPath
       clipPathUnits="userSpaceOnUse"
       id="clipPath1220"><path
         d="M 0,0 H 840 V 594 H 0 Z"
         id="path1218"
         inkscape:connector-curvature="0" /></clipPath><clipPath
       clipPathUnits="userSpaceOnUse"
       id="clipPath1506"><path
         d="M 0,0 H 840 V 594 H 0 Z"
         id="path1504"
         inkscape:connector-curvature="0" /></clipPath><clipPath
       clipPathUnits="userSpaceOnUse"
       id="clipPath1538"><path
         d="M 349.408,90.416 H 291.655 V 77.352 h 57.753 z"
         id="path1536"
         inkscape:connector-curvature="0" /></clipPath><clipPath
       clipPathUnits="userSpaceOnUse"
       id="clipPath1506-7"><path
         d="M 0,0 H 840 V 594 H 0 Z"
         id="path1504-1"
         inkscape:connector-curvature="0" /></clipPath></defs><sodipodi:namedview
     pagecolor="#ffffff"
     bordercolor="#666666"
     borderopacity="1"
     objecttolerance="10"
     gridtolerance="10"
     guidetolerance="10"
     inkscape:pageopacity="0"
     inkscape:pageshadow="2"
     inkscape:window-width="1920"
     inkscape:window-height="1027"
     id="namedview4"
     showgrid="false"
     fit-margin-top="0"
     fit-margin-left="0"
     fit-margin-right="0"
     fit-margin-bottom="0"
     inkscape:zoom="1.1919192"
     inkscape:cx="383.55146"
     inkscape:cy="159.56565"
     inkscape:window-x="-8"
     inkscape:window-y="-8"
     inkscape:window-maximized="1"
     inkscape:current-layer="g10" /><g
     id="g10"
     inkscape:groupmode="layer"
     inkscape:label="RaidenIV_SecretFile"
     transform="matrix(1.3333333,0,0,-1.3333333,-442.71827,658.44389)"><g
       id="g2462"
       transform="matrix(11.731215,0,0,11.731215,-6597.0622,-3824.8677)"><path
         d="m 615.97801,364.46554 c -0.367,-0.067 -0.691,-0.081 -0.99,-0.152 -1.844,-0.442 -3.019,-1.626 -3.552,-3.365 -0.092,-0.296 -0.125,-0.608 -0.222,-0.939 -0.084,-0.279 -0.223,-0.489 -0.291,-0.734 -0.071,-0.267 -0.122,-0.567 -0.085,-0.939 0.114,-1.157 1.197,-1.802 2.459,-1.76 0.32,0.011 0.629,0.099 0.939,0.121 0.336,0.023 0.636,0.064 0.923,0.137 1.625,0.414 2.905,1.39 3.499,2.85 0.211,0.514 0.264,1.091 0.41,1.709 0.126,0.534 0.224,1.293 0.068,1.878 -0.246,0.925 -1.158,1.446 -2.322,1.365 l -0.016,-0.018 c -0.365,-0.028 -0.569,-0.106 -0.82,-0.153 m -12.619,3.672 h 13.08 c 1.861,-0.166 3.341,-0.633 4.372,-1.622 0.488,-0.469 0.873,-1.124 1.193,-1.793 0.331,-0.69 0.557,-1.486 0.617,-2.373 v -0.872 h -0.018 c -0.094,-1.499 -0.54,-2.73 -1.126,-3.772 -0.581,-1.032 -1.367,-1.908 -2.289,-2.614 -0.882,-0.675 -1.966,-1.328 -3.227,-1.674 -1.257,-0.344 -3.051,-0.393 -4.388,0 -1.234,0.364 -2.17,1.08 -2.852,2.05 -0.695,0.986 -1.161,2.156 -1.161,3.74 0,1.507 0.466,2.8 1.041,3.859 0.534,0.982 1.196,1.91 1.947,2.647 0.038,0.034 0.176,0.106 0.085,0.12 -0.66,-0.128 -1.219,-0.377 -1.673,-0.753 -0.135,-0.11 -0.296,-0.35 -0.444,-0.374 -0.238,-0.042 -0.58,0.016 -0.888,0.016 h -2.765 c -0.632,0 -1.258,0.057 -1.709,-0.137 -0.404,-0.173 -0.752,-0.485 -0.87,-0.974 -0.127,-0.526 -0.148,-1.004 -0.257,-1.604 h 4.081 c -0.187,-1.032 -0.349,-2.087 -0.546,-3.108 h -4.132 c -0.62,-3.376 -2.614,-5.711 -6.727,-5.514 -2.529,0.119 -4.048,1.545 -4.048,4.148 0,0.652 0.117,1.233 0.223,1.828 0.515,2.905 1.049,5.817 1.571,8.672 1.109,0.031 2.338,0.031 3.449,0 -0.465,-2.868 -0.944,-5.775 -1.436,-8.587 -0.07,-0.41 -0.18,-0.833 -0.204,-1.23 -0.046,-0.739 0.315,-1.192 0.838,-1.4 0.687,-0.274 1.453,-0.073 1.911,0.291 0.502,0.396 0.633,0.961 0.802,1.673 0.315,1.315 0.574,2.749 0.821,4.132 0.127,0.714 0.226,1.418 0.461,2.015 0.684,1.731 2.276,2.804 4.268,3.21"
         style="fill:#343f9a;fill-opacity:1;fill-rule:evenodd;stroke:none"
         id="path1510"
         inkscape:connector-curvature="0" /><path
         d="m 613.79341,356.81614 c 2.1,0.685 4.046,1.901 4.831,4.013 0.114,0.31 0.254,0.664 0.255,0.99 0.007,0.662 -0.425,1.293 -0.8,1.675 -0.432,0.432 -0.955,0.692 -1.624,0.836 1.651,0.276 2.656,-0.51 2.511,-2.118 -0.013,-0.141 -0.068,-0.292 -0.069,-0.461 -0.002,-0.157 0.104,-0.332 0.102,-0.513 -10e-4,-0.233 -0.21,-0.607 -0.323,-0.854 -0.794,-1.705 -2.265,-2.789 -4.082,-3.516 -0.307,-0.124 -0.512,-0.202 -0.801,-0.052"
         style="fill:#343f9a;fill-opacity:1;fill-rule:evenodd;stroke:none"
         id="path1514"
         inkscape:connector-curvature="0" /><path
         d="m 611.31591,359.41185 c 0.15,-1.495 0.88,-2.41 2.355,-2.577 -1.35,-0.183 -2.419,0.453 -2.508,1.621 -0.03,0.367 0.046,0.672 0.153,0.956"
         style="fill:#343f9a;fill-opacity:1;fill-rule:evenodd;stroke:none"
         id="path1518"
         inkscape:connector-curvature="0" /></g></g></svg>