<?xml version="1.0" encoding="UTF-8" standalone="no"?>
<!-- Generator: Gravit.io -->
<svg xmlns="http://www.w3.org/2000/svg" xmlns:xlink="http://www.w3.org/1999/xlink" style="isolation:isolate" viewBox="0 0 120 30" width="120pt" height="30pt"><defs><clipPath id="_clipPath_0Fk8go7PatnSLPOiDB3ugbSnN5BsTRRq"><rect width="120" height="30"/></clipPath></defs><g clip-path="url(#_clipPath_0Fk8go7PatnSLPOiDB3ugbSnN5BsTRRq)"><path d=" M 0 9 L 4 9 L 4 5 L 20 5 L 20 17 L 8 17 L 8 25 L 0 25 L 0 9 L 0 9 L 0 9 L 0 9 L 0 9 L 0 9 L 0 9 L 0 9 L 0 9 Z  M 24 5 L 24 9 L 28 9 L 28 21 L 24 21 L 24 25 L 40 25 L 40 21 L 36 21 L 36 9 L 40 9 L 40 5 L 24 5 L 24 5 L 24 5 L 24 5 L 24 5 L 24 5 L 24 5 L 24 5 L 24 5 Z  M 44 9 L 48 9 L 48 5 L 60 5 L 60 9 L 52 9 L 52 21 L 60 21 L 60 25 L 44 25 L 44 9 L 44 9 L 44 9 L 44 9 L 44 9 L 44 9 L 44 9 L 44 9 Z  M 88 17 L 88 13 L 96 13 L 96 17 L 88 17 L 88 17 L 88 17 L 88 17 L 88 17 L 88 17 Z  M 108 9 L 108 13 L 116 13 L 116 9 L 108 9 L 108 9 L 108 9 L 108 9 Z  M 108 17 L 116 17 L 116 21 L 108 21 L 108 17 L 108 17 L 108 17 Z  M 72 9 L 76 9 L 76 21 L 72 21 L 72 9 L 72 9 Z  M 64 25 L 64 9 L 68 9 L 68 5 L 84 5 L 84 21 L 80 21 L 80 25 L 64 25 L 64 25 L 64 25 L 64 25 L 64 25 L 64 25 L 64 25 Z  M 100 25 L 100 13 L 104 13 L 104 5 L 120 5 L 120 25 L 100 25 L 100 25 L 100 25 L 100 25 L 100 25 Z  M 8 9 L 8 13 L 12 13 L 12 9 L 8 9 Z " fill-rule="evenodd" fill="rgb(0,0,0)"/><line x1="60" y1="0" x2="60" y2="30" vector-effect="non-scaling-stroke" stroke-width="1" stroke="rgb(162,162,162)" stroke-linejoin="miter" stroke-linecap="square" stroke-miterlimit="3"/></g></svg>