<?xml version="1.0" encoding="UTF-8"?>
<svg width="105.846869px" height="30px" viewBox="0 0 105.846869 30" version="1.1" xmlns="http://www.w3.org/2000/svg" xmlns:xlink="http://www.w3.org/1999/xlink">
    <title>vircon32</title>
    <g id="Page-1" stroke="none" stroke-width="1" fill="none" fill-rule="evenodd">
        <g id="System" transform="translate(-47.076565, 0.000000)" fill="#000000">
            <g id="vircon32" transform="translate(47.076565, 0.000000)">
                <line x1="52.9234346" y1="30" x2="52.9234346" y2="0" id="Path" stroke="#979797" fill-rule="nonzero"></line>
                <path d="M7.71180723,21.9783126 C7.90405013,22.2894735 11.942561,22.1837164 12.1984932,21.8608047 C12.5122392,21.4652732 23.303928,1.77095227 23.303928,1.59422042 C23.303928,1.51760528 22.3920668,1.48540812 21.2773871,1.52277563 L19.2508462,1.59069518 L15.8532233,7.81861289 C13.9843779,11.2439676 12.0725247,14.7339517 11.6046083,15.5741331 L10.7538513,17.1017355 L9.44951378,9.34621535 L8.14541132,1.59069518 L6.08902339,1.52277563 C4.95812754,1.48540812 4.03263547,1.53170623 4.03263547,1.62547751 C4.03263547,2.01607371 7.61192554,21.8168568 7.71180723,21.9783126 Z M80.3913719,1.82406583 C79.7979571,2.01466362 78.8264019,2.59867779 78.2320471,3.12158786 C77.1850518,4.04331968 75.815615,6.37068078 76.1399367,6.67714133 C76.3246591,6.85152303 78.5911511,7.34858137 79.2019571,7.34858137 C79.4581243,7.34858137 79.7246322,7.04071072 79.9081795,6.53307667 C80.2940754,5.46587009 81.212752,4.76340798 82.2226147,4.76340798 C83.374427,4.76340798 83.8844112,5.11640165 84.1812361,6.11850886 C84.717307,7.93001036 83.5746604,9.60308758 81.6228545,9.86489514 C80.8035895,9.9746475 80.6183971,10.0985008 80.5039444,10.6115402 C80.4287394,10.9497279 80.2722189,11.5964913 80.1563561,12.0488966 C79.8555359,13.2216253 79.856946,13.2239754 80.780793,13.2239754 C81.8644507,13.2239754 82.4383592,13.5443019 82.8780737,14.3943539 C83.6012172,15.7929327 83.1857093,17.6077245 81.913334,18.6086566 C80.9610501,19.3576518 79.1598893,19.2932575 78.4092489,18.4831582 C78.0950329,18.1442654 77.7697711,17.5026724 77.6863405,17.0573175 C77.5178342,16.1597923 77.82923,16.2030352 74.77238,16.6523854 C73.6565252,16.8164264 73.5749747,17.2157182 74.3213848,18.8643537 C74.9119794,20.1693963 75.7754273,21.1019388 77.0050298,21.7630381 C77.768361,22.1736107 78.3429745,22.2685571 80.0602347,22.2683225 C81.8957078,22.267852 82.3326021,22.1851265 83.3652613,21.64177 C84.642572,20.970095 86.0169442,19.6006581 86.6583022,18.3602449 C86.8766319,17.9381566 87.1071823,16.94451 87.1706366,16.1515668 C87.3081208,14.440417 86.8883826,13.3584044 85.6735862,12.2919029 L84.8764127,11.591791 L85.5236461,11.2538383 C86.3532517,10.8204692 87.2996602,9.79862069 87.8134047,8.78170749 C88.4655734,7.49053089 88.2300876,5.05905781 87.3280971,3.77469666 C86.938676,3.21982445 86.1621839,2.51266202 85.6028464,2.20361629 C84.3238906,1.49645386 81.9495264,1.32371728 80.3913719,1.82406583 M94.7487198,1.83440653 C92.7922136,2.44192227 90.9959881,4.450602 90.6331238,6.43672021 C90.456627,7.40263499 90.5261916,7.44235265 92.8946805,7.72061132 L94.1938476,7.87337156 L94.5947845,6.82379117 C95.2746851,5.04354677 96.5428302,4.24096794 97.8323617,4.77515876 C98.6100288,5.09736538 99.2140193,6.06704041 99.2140193,6.99370756 C99.2140193,8.24587155 98.1578585,9.63645981 94.2758681,13.4954186 C90.933709,16.8178365 90.2096254,17.6667134 89.488362,19.1087701 C89.0206807,20.0431928 88.63831,21.1106344 88.63831,21.4810192 L88.63831,22.1545744 L94.7442545,22.1545744 L100.850199,22.1545744 L100.970292,21.6257889 C101.365119,19.8871423 101.553366,18.9468443 101.558537,18.6880919 C101.562767,18.466237 100.728931,18.3943222 98.1564484,18.3943222 C96.2821977,18.3943222 94.7480148,18.3148869 94.7468397,18.2180604 C94.7458996,18.1212339 96.2594012,16.5611993 98.1103853,14.7515779 C102.091552,10.8590118 102.977797,9.44821219 102.969164,7.01720914 C102.966046,6.14459561 102.796835,5.21839849 102.535967,4.64378495 C101.382745,2.1053797 97.9103869,0.852510671 94.7487198,1.83440653 M23.9330652,6.8197959 C23.8759564,6.91685741 23.7560983,7.36620755 23.6665573,7.81861289 C23.5770163,8.27101823 23.4517529,8.82636048 23.3880636,9.05244564 C23.2865368,9.41342986 23.4564532,9.46372323 24.7753617,9.46372323 L26.2785225,9.46372323 L26.553726,8.27078322 C26.7053111,7.61461921 26.8291644,6.98007665 26.8291644,6.86068864 C26.8291644,6.60287635 24.0834753,6.56409875 23.9330652,6.8197959 M33.2920979,10.9969661 C32.9043219,11.1924992 32.2864655,11.6942578 31.9189008,12.1118808 L31.250751,12.8714518 L31.4107967,11.8726348 L31.5708425,10.8738178 L30.1814293,10.8738178 L28.7917811,10.8738178 L27.6912023,16.2204264 C27.0858017,19.1611786 26.5913285,21.6993489 26.5922672,21.8608047 C26.5934436,22.0626832 27.031983,22.1545744 27.9950776,22.1545744 L29.3962416,22.1545744 L29.6155113,21.2732653 C29.7360744,20.7886628 30.0634514,19.3675225 30.3431201,18.1153585 C31.0632084,14.8902372 32.2042099,13.4169234 34.0307525,13.3537041 C34.8504874,13.3250322 34.9409685,13.247007 35.3729275,12.1946064 C35.7642287,11.2409124 35.7846751,11.0336285 35.5040663,10.8561916 C35.0048928,10.5400954 34.0819859,10.5988494 33.2920979,10.9969661 M37.4128643,12.4886111 C35.947776,13.9536994 35.4464874,15.4171425 35.559295,17.899614 C35.6305048,19.4638789 35.7360268,19.8464846 36.3007697,20.5867843 C38.4351829,23.3851169 42.8687552,22.7797163 44.9542851,19.40536 C45.548405,18.4436755 45.4198513,18.2909153 43.8334949,18.0735257 C42.8384382,17.9372165 42.7538325,17.9748191 41.7855676,18.9853869 C40.4431575,20.3865508 39.3714857,20.4030019 38.6633832,19.0335651 C37.9705567,17.6939752 38.7369431,14.6669722 40.048096,13.5635732 C40.6057884,13.0944817 40.9684178,12.9802641 41.7261086,13.0357278 C42.5557142,13.0963619 42.7427868,13.2141048 43.0452521,13.8650984 C43.4191621,14.6697924 43.8609918,14.7882403 45.3660327,14.4871852 C45.9246652,14.3755527 46.100457,14.2150369 46.100457,13.8169202 C46.100457,13.082731 45.1834255,11.8049503 44.2769697,11.2754597 C43.2473656,10.6740544 41.105432,10.5497311 39.6704257,11.0082468 C38.9190803,11.2481979 38.1465835,11.7548919 37.4128643,12.4886111 Z M47.4856399,15.9496882 C46.6567393,20.4213332 50.052247,23.3543299 54.5217768,22.0269609 C55.9657136,21.5980571 57.1628839,20.613341 58.0218666,19.1475477 C58.9067009,17.6375715 59.071682,14.6949391 58.3506536,13.2815543 C57.2159975,11.0573651 54.3873478,10.1006159 51.557993,10.9842752 C49.4097139,11.6550102 47.9523812,13.4319644 47.4856399,15.9496882 Z M67.3693835,10.9259913 C66.9816075,11.0634755 66.3999435,11.3548951 66.0767968,11.5739298 C65.0149956,12.293078 64.9818584,12.292843 65.0883205,11.5664093 L65.1900823,10.8738178 L63.7931486,10.8738178 L62.3959799,10.8738178 L61.2986913,16.1320605 C60.6951709,19.0241645 60.2014027,21.5623347 60.2014027,21.7724388 C60.2014027,22.0826596 60.4660305,22.1545744 61.607032,22.1545744 C62.8725919,22.1545744 63.0246471,22.1019309 63.1322843,21.6257889 C63.1980887,21.3350744 63.529931,19.8279184 63.8692937,18.2768143 C64.5715208,15.0683791 64.826748,14.4665038 65.8514167,13.604466 C67.1019356,12.5523004 68.4368251,12.5729818 68.718374,13.6488839 C68.7815932,13.8909502 68.4826532,15.7715463 68.0542194,17.8279342 C67.6257857,19.8845572 67.2699718,21.7042842 67.2636264,21.8720855 C67.2549308,22.0979356 67.6330712,22.1588047 68.7207241,22.1071012 L70.1895726,22.0370665 L70.9425631,18.5118301 C72.1190521,13.0042357 71.9897934,11.7283351 70.1787619,10.9715844 C69.2570301,10.5866285 68.3672604,10.5720576 67.3693835,10.9259913 M22.9586898,11.1675875 C22.8393018,11.5356222 20.7187546,21.790535 20.7187546,22.0004041 C20.7187546,22.2998142 23.5495195,22.1656202 23.6630321,21.8608047 C23.8313034,21.4081643 25.8891014,11.5412626 25.8891014,11.1868588 C25.8891014,10.7614803 23.0966441,10.743149 22.9586898,11.1675875 M51.7485908,13.8702688 C50.2795073,15.3464028 49.9239284,18.0869216 51.0451886,19.2904373 C52.541299,20.896065 54.8538541,19.7670493 55.6451521,17.0448617 C56.3563098,14.5988176 55.5365749,12.9889597 53.5803037,12.9889597 C52.7897106,12.9889597 52.4747895,13.1405448 51.7485908,13.8702688 M0.407752348,26.0910884 C0.323381689,26.7051846 0.197413241,27.4983628 0.127378543,27.8537067 L7.10542736e-15,28.5 L52.6322501,28.5 L105.264265,28.5 L105.4182,27.501183 C105.502806,26.9517162 105.633945,26.158538 105.709385,25.7385648 L105.846869,24.9747636 L53.2038084,24.9747636 L0.56074761,24.9747636 L0.407752348,26.0910884" id="Shape"></path>
            </g>
        </g>
    </g>
</svg>