<?xml version="1.0" encoding="UTF-8"?>
<svg width="131.271021px" height="30px" viewBox="0 0 131.271021 30" version="1.1" xmlns="http://www.w3.org/2000/svg" xmlns:xlink="http://www.w3.org/1999/xlink">
    <title>wasm 4</title>
    <g id="Page-1" stroke="none" stroke-width="1" fill="none" fill-rule="evenodd">
        <g id="System" transform="translate(-34.364490, 0.000000)" fill="#000000">
            <g id="wasm-4" transform="translate(34.364490, 0.000000)">
                <line x1="65.6355104" y1="30" x2="65.6355104" y2="0" id="Path" stroke="#979797" fill-rule="nonzero"></line>
                <path d="M8.37691727,4 C8.37691727,5.44868859 9.55131141,6.62308273 11,6.62308273 C12.4486886,6.62308273 13.6230827,5.44868859 13.6230827,4 L22,4 L22,26 L7.10542736e-15,26 L7.10542736e-15,4 L8.37691727,4 Z M14.4375,18.3229167 C13.424978,18.3229167 12.6041667,19.143728 12.6041667,20.15625 C12.6041667,21.168772 13.424978,21.9895833 14.4375,21.9895833 C15.450022,21.9895833 16.2708333,21.168772 16.2708333,20.15625 C16.2708333,19.143728 15.450022,18.3229167 14.4375,18.3229167 Z M6.94375,14.5416667 L4.83541667,14.5416667 L4.83541667,17.0624542 L2.31458333,17.0625 L2.31458333,19.1708333 L4.83541667,19.1707875 L4.83541667,21.6916667 L6.94375,21.6916667 L6.94375,19.1707875 L9.46458333,19.1708333 L9.46458333,17.0625 L6.94375,17.0624542 L6.94375,14.5416667 Z M17.7833333,14.2666667 C16.7708113,14.2666667 15.95,15.087478 15.95,16.1 C15.95,17.112522 16.7708113,17.9333333 17.7833333,17.9333333 C18.7958554,17.9333333 19.6166667,17.112522 19.6166667,16.1 C19.6166667,15.087478 18.7958554,14.2666667 17.7833333,14.2666667 Z M68.6794525,9.15379428 L68.5421689,9.43538617 C68.262372,10.0245347 68.2537889,10.2004578 68.2537889,11.2665984 L68.2559223,11.6725107 C68.2663347,12.4562898 68.3219736,12.6642485 68.5708567,13.1975415 C68.9263124,13.9595235 69.7099229,14.8208156 70.4351023,15.2467057 C71.2045913,15.6985939 72.2266563,16.0416479 73.968332,16.4272029 L74.8457699,16.6185682 C77.1633771,17.1385279 77.8531152,17.4905697 78.1617057,18.2356362 C78.3650821,18.7265251 78.2533157,19.5947248 77.9305859,20.031146 C77.1512785,21.0851701 74.6209639,21.4346241 72.9556784,20.7181641 C72.2977626,20.435181 71.5045269,19.627564 71.4073682,19.141884 L71.3395383,18.8028479 L67.8574541,18.8028479 L67.8574541,19.2100536 C67.8574541,20.3377959 68.6819437,21.8778397 69.6881811,22.6296302 C71.2012741,23.7603167 72.3249399,24.0684387 74.9348611,24.0684387 C77.1278381,24.0684387 77.9129207,23.9174918 79.2096149,23.2467801 C81.2111056,22.2114403 82.1073884,20.6028873 81.9853173,18.2655312 C81.9396822,17.3921225 81.8727583,17.1012128 81.5817353,16.5103342 C80.8017696,14.9269272 79.4669595,14.184448 75.977451,13.4369508 L75.1145712,13.2553492 C73.6654517,12.9421808 73.1381962,12.7485735 72.641668,12.3818845 C71.5092829,11.5456181 71.7657681,10.0078391 73.1512413,9.32750216 C73.7347593,9.04100872 73.920244,9.00782984 74.9349743,9.00896222 L75.3224343,9.01206324 C76.0105415,9.02488726 76.2207491,9.0852041 76.7266341,9.33271113 C77.4579284,9.69043159 77.9975099,10.3174332 78.1155044,10.9461334 L78.1874109,11.3291061 L81.6725526,11.3291061 L81.6711937,10.9610809 C81.6655318,9.41129866 80.5064224,7.63571879 78.9635476,6.81338071 C77.5532752,6.06170347 75.0708605,5.73059406 73.2929027,6.05694745 C71.0311899,6.47219308 69.4952227,7.50322973 68.6794525,9.15379428 Z M27.7710208,6.36382382 C27.7710208,6.41510469 27.8599939,6.78720875 27.9884602,7.2815972 L32.380168,23.8419617 L36.0272407,23.9041296 L38.836412,13.6849708 C39.1334532,12.6377654 39.298339,12.197 39.3476204,12.3146209 L39.5233636,12.9156505 C40.099934,14.9506147 41.9076099,21.5242579 42.3624193,23.2445355 L42.4776574,23.6995145 C42.5258195,23.8701988 42.6483067,23.8945637 43.7731747,23.8980158 L46.1819043,23.8985809 L50.790372,6.48555522 L50.8518605,6.22816408 L46.9717429,6.28999231 L44.6753913,16.5726534 C44.3909992,17.8128424 44.2026616,18.602882 44.184377,18.6209868 C44.1527174,18.652335 44.0375145,18.3263882 43.919013,17.8774259 L40.9465482,6.28999231 L37.6330761,6.22737141 L34.8960121,16.8917001 C34.6554537,17.8114292 34.5216425,18.303977 34.4703366,18.4626344 L34.4110953,18.6167236 C34.3673367,18.7164542 34.3521983,18.6945464 34.3126235,18.5383381 L31.6211302,6.28625544 C31.6211302,6.25886504 30.8537728,6.23618913 29.8807836,6.23361615 L29.0752821,6.23655632 C28.1514708,6.24731397 27.7710208,6.28606671 27.7710208,6.36382382 Z M58.9393786,6.23377313 L56.3284147,6.23337306 L50.1998902,23.8188578 C50.1948239,23.8347687 50.1922462,23.8435747 50.1922462,23.8450191 C50.1922462,23.8774053 51.0710903,23.8899748 52.1452708,23.872989 L54.0981822,23.8419617 L55.068976,20.7562122 L55.4315657,19.5955175 L61.5928731,19.5955175 L62.9233124,23.8985809 L65.7625566,23.8942685 C66.3993903,23.8876567 66.8383075,23.8741481 66.8383075,23.858721 L65.0842531,18.7868262 L60.7766499,6.43154045 L60.7571427,6.39295555 C60.670707,6.26144219 60.3906492,6.23694303 58.9393786,6.23377313 Z M84.3902769,6.2285038 L84.3902769,23.8985809 L87.6741937,23.8985809 L87.6799518,15.7512993 C87.6920235,13.5580503 87.7217406,12.0183756 87.7562916,12.0529267 L87.7920784,12.1247633 C87.9954076,12.5736297 89.0053291,15.0531278 90.1791428,17.9884365 L92.5198961,23.8419617 L94.8808058,23.9058282 L99.6208567,12.0651564 L99.6795143,23.9045826 L103.018012,23.8419617 L103.07599,6.23337306 L98.7149486,6.23529811 L94.8551644,15.983753 C93.997503,18.1194995 93.7261168,18.7332928 93.676858,18.723253 L93.6535663,18.6837398 C93.5487366,18.4618624 93.0779854,17.3025816 92.4925257,15.8264446 L89.712034,8.78123958 L88.7260662,6.28999231 L84.3902769,6.2285038 Z M123.725373,6.23337306 L116.663253,17.5344633 L116.663253,20.6146641 L125.37639,20.6146641 L125.439237,23.8419617 L129.006251,23.9043561 L129.006251,20.6146641 L131.271021,20.6146641 L131.271021,17.6704628 L129.006251,17.6704628 L129.006251,6.23337306 L123.725373,6.23337306 Z M125.467547,8.95313467 L122.435648,13.7168843 C121.071845,15.8813631 119.985466,17.6232606 119.96608,17.67771 C119.944354,17.7387816 120.936043,17.7798367 122.48682,17.7834428 L125.495857,17.7837013 L125.487025,10.1673044 C125.481949,9.41525528 125.475091,8.95258872 125.467547,8.95313467 Z M58.3397116,10.2084245 L56.7066114,15.4937754 C56.4834331,16.2341451 56.34318,16.7250787 56.3543463,16.736245 C56.3685263,16.7505131 56.9675105,16.7543688 57.7908626,16.7473859 L60.6985154,16.7079354 L58.5541177,9.85700544 C58.5231356,9.76986841 58.4342762,9.91901032 58.3397116,10.2084245 L58.3397116,10.2084245 Z M106.20896,15.140035 C106.169538,15.1795628 106.136725,15.8041441 106.132525,16.5624661 L106.132071,18.2366553 L114.178347,18.2366553 L114.115386,15.1225962 L109.271757,15.0879822 C107.553872,15.0832472 106.245037,15.103958 106.20896,15.140035 Z" id="Shape"></path>
            </g>
        </g>
    </g>
</svg>