<?xml version="1.0" encoding="UTF-8"?>
<svg width="183px" height="34px" viewBox="0 0 183 34" version="1.1" xmlns="http://www.w3.org/2000/svg" xmlns:xlink="http://www.w3.org/1999/xlink">
    <title>windows 9x</title>
    <g id="Page-1" stroke="none" stroke-width="1" fill="none" fill-rule="evenodd">
        <g id="System" transform="translate(-6.000000, 2.000000)" fill="#000000">
            <g id="windows-9x" transform="translate(6.579481, -1.351394)">
                <line x1="93.4205188" y1="31.3513942" x2="93.4205188" y2="1.35139425" id="Path" fill-rule="nonzero"></line>
                <path d="M170.481514,7.40483583 L174.349634,14.6015906 L178.994107,7.40483583 L181.542116,7.40483583 L175.543005,16.4742155 L181.152802,26.3513942 L178.572539,26.3513942 L174.22062,18.3835586 L169.092348,26.3513942 L166.576592,26.3513942 L173.027249,16.5109337 L167.933504,7.40483583 L170.481514,7.40483583 Z M159.149153,6.35139425 C164.017416,6.35139425 166.982876,9.72588623 166.982876,15.623245 C166.982876,22.1788836 163.698914,26.1563676 158.918302,26.1563676 C155.693508,26.1563676 153.504275,24.8395817 152.438321,22.3153247 L154.454028,21.6299507 C155.462463,23.3863225 156.873723,24.2636516 158.71765,24.2636516 C162.460986,24.2636516 164.564247,21.3553872 164.564247,15.8421327 L164.564215,15.5150945 L164.529824,15.5852956 C163.37939,17.9031549 161.24107,19.2171368 158.652664,19.2434454 L158.573288,19.2438483 C154.829855,19.2438483 151.977234,16.5832471 151.977234,12.9895441 C151.977234,11.5093523 152.553132,9.9719005 153.619086,8.73756132 C154.915599,7.2287557 156.960017,6.35139425 159.149153,6.35139425 Z M159.205863,8.27107506 C156.556772,8.27107506 154.539384,10.219499 154.539384,12.9896087 C154.539384,15.4312252 156.4407,17.2684271 159.062633,17.2684271 C161.856312,17.2684271 164.074094,15.1567911 164.074094,12.7975566 C164.074094,10.1638556 162.115744,8.27107506 159.205863,8.27107506 Z M101.425424,6.70006265 L101.425424,25.7671871 L96.0502267,25.7671871 L96.0502267,23.8778014 L95.9912855,23.8778014 C95.1376557,25.4337794 93.8713078,26.0450484 91.9869659,26.0450484 C88.0935289,26.0450484 86.4284701,22.9634102 86.1335107,19.7945515 L86.133514,25.7728452 L80.551069,25.7812839 L80.551069,17.2704963 C80.551069,15.9536458 80.0559689,15.1032493 79.1062161,15.1032493 C78.1261681,15.1032493 77.5216242,15.7886233 77.5216242,17.1054737 L77.5216242,25.7727159 L72.0035522,25.7810899 L72.0070117,11.686467 L77.1177327,11.6730169 L77.1177327,13.6752414 C77.9244164,12.1125383 79.3944559,11.2890743 81.3529028,11.2890743 C84.779611,11.2890743 86.133514,12.9360669 86.133514,16.5009945 L86.1334867,17.6311902 C86.4271235,14.3643826 88.0868771,11.287102 92.163822,11.287102 C93.6068643,11.287102 94.8428848,11.8697249 95.7555851,12.7319226 L95.7555851,6.70006265 L101.425424,6.70006265 Z M94.0631983,14.7325951 C92.7244591,14.7342117 91.9666614,16.2597977 91.9599197,18.8749724 C91.9582551,20.1262212 92.2091838,22.3490469 94.0345845,22.3490469 C94.6222834,22.3490469 95.0062261,22.0998318 95.3295462,21.6266205 C95.7378495,21.0216532 95.6843266,20.5255317 95.6831796,19.8411932 L95.6832877,16.8840178 C95.6848756,16.3438453 95.6951875,15.7152352 95.3295462,15.289999 C95.0651673,14.9279322 94.534696,14.7325951 94.0631983,14.7325951 Z M109.459443,11.2954114 C113.038793,11.2954114 115.72803,12.9328521 116.875898,15.6121955 L115.56932,11.6778991 L121.215783,11.6778991 L123.260103,18.590483 L125.045089,11.6778991 L129.366262,11.6778991 L131.208508,18.7825351 L133.31177,11.6778991 L137.314473,11.6778991 L136.475434,14.1772582 C137.464039,12.4937256 139.75154,11.3848417 143.058707,11.3848417 C146.684419,11.3848417 149.151352,12.7186018 150.161727,15.1418214 L145.584807,15.877698 C145.049292,15.0054126 144.158481,14.5456838 142.7608,14.5456838 C141.632542,14.5456838 141.073457,15.0559152 141.066732,15.5240504 C141.056709,16.3946868 142.46438,16.2852106 145.286706,16.748302 L145.721054,16.8205536 C147.160987,17.0613297 148.360747,17.2947499 149.388992,18.1375762 C150.310098,18.8987364 150.784991,19.9057492 150.784991,21.0777846 C150.784991,23.9356111 147.873493,26.0860131 143.087709,26.0860131 C138.749723,26.0860131 136.015049,24.5350142 135.183179,21.7312145 L139.997513,21.1856119 C140.265286,22.2212385 141.36493,22.7651599 143.32674,22.7651599 C144.722739,22.7651599 145.529364,22.3526035 145.465373,21.8120446 C145.374197,21.030693 144.247749,21.1317467 142.137762,20.7780992 L141.785033,20.7213594 C140.236256,20.4712948 138.863151,20.2213572 137.619687,19.3349599 C136.550371,18.5721184 135.925619,17.4286969 135.925619,16.2314102 C135.925619,16.0606908 135.935502,15.892645 135.955103,15.7275893 L132.580743,25.7811222 L128.404417,25.7811222 L126.484704,17.9053677 L124.371355,25.7811222 L120.252289,25.7811222 L117.255526,16.7553642 C117.407674,17.3797791 117.486835,18.0472539 117.486835,18.7521431 C117.486835,23.2094341 114.280469,26.2085514 109.459443,26.2085514 C104.665253,26.2085514 101.430435,23.2094341 101.430435,18.7521431 C101.430435,14.2659149 104.665253,11.2954114 109.459443,11.2954114 Z M109.462806,14.8454662 C108.076894,14.8454662 107.186083,16.1100035 107.186083,18.7521431 C107.186083,21.3941533 108.083652,22.6588199 109.469531,22.6588199 C110.855443,22.6588199 111.742892,21.3942827 111.742892,18.7521431 C111.742892,16.1101328 110.848717,14.8454662 109.462806,14.8454662 Z M44.6292348,6.99169739 L47.4060696,17.9509558 L50.1408081,6.99169739 L55.3223361,6.99169739 L58.1294983,17.8429669 L60.9939205,7.06379778 L70.8812758,7.06379778 L70.8812758,10.5478953 L65.2955976,10.5478953 L65.2955976,8.70603761 L60.3860787,25.7727159 L54.8139799,25.7727159 L52.0943728,15.0831065 L49.4606719,25.7727159 L43.7737945,25.7727159 L43.7737298,25.7730392 L38.4205188,6.99169739 L44.6292348,6.99169739 Z M70.8812758,11.6727259 L70.8812758,25.7723926 L65.2955976,25.7723926 L65.2955976,11.6727259 L70.8812758,11.6727259 Z" id="Shape" fill-rule="nonzero"></path>
                <path d="M15.8696965,6.7905396 L15.8696965,9.56239638 L18.6415533,8.10974283 L18.6415533,5.44923631 L15.8696965,6.7905396 Z M15.8696965,9.96444737 L15.8696965,12.7371542 L18.6415533,11.2836506 L18.6415533,8.60104403 L15.8696965,9.96444737 Z M15.8696965,13.095005 L15.8696965,15.8668618 L18.6415533,14.4363083 L18.6415533,11.7537018 L15.8696965,13.095005 Z M15.8696965,16.2697628 L15.8696965,19.0416196 L18.6415533,17.588116 L18.6415533,14.9276095 L15.8696965,16.2697628 Z M15.8696965,19.3994705 L15.8696965,22.1492272 L18.6415533,20.7178237 L18.6415533,18.0352171 L15.8696965,19.3994705 Z M15.8696965,22.6184284 L15.8696965,25.3902852 L18.6415533,23.9597317 L18.6415533,21.2771251 L15.8696965,22.6184284 Z M15.8696965,25.7931861 L15.8696965,28.5650429 L18.6415533,27.1123894 L18.6415533,24.4510329 L15.8696965,25.7931861 Z M12.7399888,7.75189195 L15.3103951,6.45478877 L15.3103951,8.95889491 L12.7399888,10.2559981 L12.7399888,7.75189195 Z M12.7399888,10.9487498 L15.3103951,9.6516466 L15.3103951,12.1557527 L12.7399888,13.4528559 L12.7399888,10.9487498 Z M12.9992395,11.1077002 L15.0502945,10.0740976 L15.0502945,11.9959523 L12.9992395,13.0295549 L12.9992395,11.1077002 Z M12.7399888,13.9892072 L15.3103951,12.6921041 L15.3103951,15.1962102 L12.7399888,16.4933134 L12.7399888,13.9892072 Z M12.9992395,14.1490076 L15.0502945,13.1154051 L15.0502945,15.0372598 L12.9992395,16.0708623 L12.9992395,14.1490076 Z M12.7399888,17.163965 L15.3103951,15.8668618 L15.3103951,18.370968 L12.7399888,19.6901712 L12.7399888,17.163965 Z M12.7399888,20.3608228 L15.3103951,19.0637197 L15.3103951,21.5678258 L12.7399888,22.887029 L12.7399888,20.3608228 Z M12.9992395,20.5197732 L15.0502945,19.4861707 L15.0502945,21.4080254 L12.9992395,22.460328 L12.9992395,20.5197732 Z M12.7399888,23.4233803 L15.3103951,22.1262772 L15.3103951,24.6303833 L12.7399888,25.9495865 L12.7399888,23.4233803 Z M12.9992395,23.5840307 L15.0502945,22.5478782 L15.0502945,24.4722829 L12.9992395,25.5245855 L12.9992395,23.5840307 Z M12.7399888,26.5981381 L15.3103951,25.3010349 L15.3103951,27.8051411 L12.7399888,29.1013942 L12.7399888,26.5981381 Z M9.96728205,7.63969168 L12.1577374,6.61118916 L12.1577374,8.80249452 L9.96728205,9.8530971 L9.96728205,7.63969168 Z M9.96728205,10.8586496 L12.1577374,9.80889699 L12.1577374,12.0214524 L9.96728205,13.072905 L9.96728205,10.8586496 Z M10.2265327,11.0227 L11.8984868,10.221998 L11.8984868,11.859102 L10.2265327,12.659804 L10.2265327,11.0227 Z M9.96728205,13.899957 L12.1577374,12.8714545 L12.1577374,15.0619099 L9.96728205,16.1133624 L9.96728205,13.899957 Z M10.2265327,14.0657074 L11.8984868,13.2794555 L11.8984868,14.8978595 L10.2265327,15.7002614 L10.2265327,14.0657074 Z M9.96728205,17.0738648 L12.1577374,16.0462123 L12.1577374,18.2366676 L9.96728205,19.2872702 L9.96728205,17.0738648 Z M9.96728205,20.2936727 L12.1577374,19.2430701 L12.1577374,21.4564755 L9.96728205,22.5070781 L9.96728205,20.2936727 Z M10.2265327,20.4577231 L11.8984868,19.6570211 L11.8984868,21.2915751 L10.2265327,22.0948271 L10.2265327,20.4577231 Z M9.96728205,23.3341301 L12.1577374,22.2835275 L12.1577374,24.496933 L9.96728205,25.5245855 L9.96728205,23.3341301 Z M10.2265327,23.4981805 L11.8984868,22.6957786 L11.8984868,24.3303326 L10.2265327,25.1148845 L10.2265327,23.4981805 Z M9.96728205,26.4859378 L12.1577374,25.4574353 L12.1577374,27.6487407 L9.96728205,28.6993433 L9.96728205,26.4859378 Z M7.39602575,9.33884584 L9.18443013,8.53389387 L9.18443013,6.90188987 L7.39602575,7.75189195 L7.39602575,9.33884584 Z M7.39602575,10.9487498 L9.18443013,10.0987477 L9.18443013,11.7307517 L7.39602575,12.5357037 L7.39602575,10.9487498 Z M7.65612639,11.1119502 L8.92432949,10.5109987 L8.92432949,11.5633013 L7.65612639,12.1336527 L7.65612639,11.1119502 Z M7.39602575,13.9892072 L9.18443013,13.1171051 L9.18443013,14.7712091 L7.39602575,15.5761611 L7.39602575,13.9892072 Z M7.65612639,14.1507076 L8.92432949,13.5336061 L8.92432949,14.6046087 L7.65612639,15.1741101 L7.65612639,14.1507076 Z M7.39602575,18.7509189 L9.18443013,17.9459669 L9.18443013,16.3139629 L7.39602575,17.163965 L7.39602575,18.7509189 Z M7.39602575,20.3608228 L9.18443013,19.5108208 L9.18443013,21.1428248 L7.39602575,21.9698768 L7.39602575,20.3608228 Z M7.65612639,20.5240232 L8.92432949,19.9230718 L8.92432949,20.9779243 L7.65612639,21.5644258 L7.65612639,20.5240232 Z M7.39602575,23.4233803 L9.18443013,22.5733783 L9.18443013,24.2062323 L7.39602575,25.0332843 L7.39602575,23.4233803 Z M7.65612639,23.5882807 L8.92432949,22.9847793 L8.92432949,24.0396318 L7.65612639,24.6261333 L7.65612639,23.5882807 Z M7.39602575,28.185092 L9.18443013,27.38014 L9.18443013,25.748136 L7.39602575,26.5981381 L7.39602575,28.185092 Z M4.98201984,6.70043937 L6.27827301,5.91843746 L6.27827301,7.2818408 L4.98201984,8.01964261 L4.98201984,6.70043937 Z M4.98201984,9.89814721 L6.27827301,9.11529529 L6.27827301,10.5016487 L4.98201984,11.2173504 L4.98201984,9.89814721 Z M5.24127047,10.0451976 L6.01902238,9.57514642 L6.01902238,10.3486483 L5.24127047,10.7770494 L5.24127047,10.0451976 Z M4.98201984,12.9386047 L6.27827301,12.1557527 L6.27827301,13.5421061 L4.98201984,14.2799079 L4.98201984,12.9386047 Z M5.24127047,13.085655 L6.01902238,12.6156039 L6.01902238,13.3899558 L5.24127047,13.8328068 L5.24127047,13.085655 Z M4.98201984,16.1133624 L6.27827301,15.3305105 L6.27827301,16.7168639 L4.98201984,17.4546657 L4.98201984,16.1133624 Z M4.98201984,19.3314703 L6.27827301,18.5494684 L6.27827301,19.9137217 L4.98201984,20.6515235 L4.98201984,19.3314703 Z M5.24127047,19.4776707 L6.01902238,19.0101695 L6.01902238,19.7624214 L5.24127047,20.2035725 L5.24127047,19.4776707 Z M4.98201984,22.3727778 L6.27827301,21.5899258 L6.27827301,22.9762792 L4.98201984,23.714081 L4.98201984,22.3727778 Z M5.24127047,22.5189781 L6.01902238,22.050627 L6.01902238,22.8241289 L5.24127047,23.26783 L5.24127047,22.5189781 Z M4.98201984,25.5475355 L6.27827301,24.7646836 L6.27827301,26.151037 L4.98201984,26.8658888 L4.98201984,25.5475355 Z M2.76861441,5.96263757 L3.77416688,5.44923631 L3.77416688,6.43268872 L2.76861441,6.87978981 L2.76861441,5.96263757 Z M2.76861441,9.13739534 L3.77416688,8.64609414 L3.77416688,9.62954655 L2.76861441,10.0766476 L2.76861441,9.13739534 Z M3.02786505,9.30059574 L3.51406624,9.06344516 L3.51406624,9.46039614 L3.02786505,9.67714667 L3.02786505,9.30059574 Z M2.76861441,12.1778528 L3.77416688,11.7086516 L3.77416688,12.6921041 L2.76861441,13.1171051 L2.76861441,12.1778528 Z M3.02786505,12.3436032 L3.51406624,12.1166526 L3.51406624,12.5204036 L3.02786505,12.7244041 L3.02786505,12.3436032 Z M2.76861441,15.3526106 L3.77416688,14.8613094 L3.77416688,15.8447618 L2.76861441,16.2918629 L2.76861441,15.3526106 Z M2.76861441,18.5724185 L3.77416688,18.0802672 L3.77416688,19.0416196 L2.76861441,19.4887207 L2.76861441,18.5724185 Z M3.02786505,18.7356189 L3.51406624,18.4959183 L3.51406624,18.8724692 L3.02786505,19.0892197 L3.02786505,18.7356189 Z M2.76861441,21.634976 L3.77416688,21.1428248 L3.77416688,22.1041771 L2.76861441,22.5512782 L2.76861441,21.634976 Z M3.02786505,21.7973264 L3.51406624,21.5601758 L3.51406624,21.9367267 L3.02786505,22.1509272 L3.02786505,21.7973264 Z M2.76861441,24.8097337 L3.77416688,24.2954825 L3.77416688,25.2789349 L2.76861441,25.726036 L2.76861441,24.8097337 Z M19.0657043,8.31374333 L19.0657043,5.18063565 C23.8503661,3.10153056 28.7914282,2.96723023 33.9551908,5.42628625 L33.9551908,27.2016396 C28.746378,24.6754334 23.7611158,24.4068327 19.0657043,27.1344894 L19.0657043,24.095732 L19.0657043,24.095732 C20.575308,23.3919303 22.2583122,22.9286791 24.0067664,22.6184284 L24.0067664,16.0011622 C22.5209628,16.1125124 20.8813088,16.5086134 19.0657043,17.3883656 L19.0657043,15.2208602 L19.0657043,15.2208602 C20.7053584,14.4720084 22.3450124,13.9654072 24.0067664,13.8328068 L24.0067664,6.90273987 C22.609363,6.99114009 21.0130591,7.45439122 19.0657043,8.31374333 Z M25.9515712,6.5890891 L25.9515712,13.6764065 L27.919326,13.6764065 C28.7905782,13.6764065 30.2219817,14.1235076 30.8705333,14.3691582 L30.8705333,7.37194102 C29.2376793,6.67918932 27.5844252,6.43268872 25.9515712,6.5890891 L25.9515712,6.5890891 L25.9515712,6.5890891 L25.9515712,6.5890891 Z M25.9515712,15.7104614 L25.9515712,22.5291781 C27.8521759,22.4399279 29.3056794,22.7306286 30.8705333,23.2448799 L30.8705333,16.359013 C29.2376793,15.7104614 27.5844252,15.509861 25.9515712,15.7104614 L25.9515712,15.7104614 L25.9515712,15.7104614 Z" id="Shape" transform="translate(18.361903, 16.351394) rotate(15.000000) translate(-18.361903, -16.351394) "></path>
            </g>
        </g>
    </g>
</svg>