<?xml version="1.0" encoding="UTF-8"?>
<svg width="183.849925px" height="30px" viewBox="0 0 183.849925 30" version="1.1" xmlns="http://www.w3.org/2000/svg" xmlns:xlink="http://www.w3.org/1999/xlink">
    <title>wondermega</title>
    <g id="Page-1" stroke="none" stroke-width="1" fill="none" fill-rule="evenodd">
        <g id="System" transform="translate(-8.075037, 0.000000)" fill="#000000" fill-rule="nonzero">
            <g id="wondermega" transform="translate(8.075037, 0.000000)">
                <line x1="91.9249627" y1="30" x2="91.9249627" y2="0" id="Path" stroke="#979797"></line>
                <path d="M3.33333333,5 L3.33333333,21.6666667 L3.86243386,21.6666667 C4.2680776,21.6666667 4.58553792,21.4726631 4.81481481,21.0846561 L11.6931217,6.11111111 C12.0458554,5.37037037 12.5925926,5 13.3333333,5 L15.5555556,5 C17.037037,5 17.7777778,5.74074074 17.7777778,7.22222222 L17.7777778,21.6666667 L18.3068783,21.6666667 C18.712522,21.6666667 19.0299824,21.4726631 19.2592593,21.0846561 L26.6666667,5 L30,5 L21.7460317,22.7777778 C21.0405644,24.2592593 20.0881834,25 18.8888889,25 L16.6666667,25 C15.1851852,25 14.4444444,24.2592593 14.4444444,22.7777778 L14.4444444,8.33333333 L14.021164,8.33333333 L7.3015873,22.7777778 C6.59611993,24.2592593 5.64373898,25 4.44444444,25 L2.22222222,25 C0.740740741,25 0,24.2592593 0,22.7777778 L0,5 L3.33333333,5 Z M39.7810911,5 C44.2255355,5 45.4160117,7.22222222 43.3525196,11.6666667 L38.66998,21.6666667 C37.6470523,23.8888889 36.0244773,25 33.8022551,25 L29.3578106,25 C24.9133662,25 23.72289,22.7777778 25.7863821,18.3333333 L30.4424667,8.33333333 C31.4830311,6.11111111 33.1144244,5 35.3366466,5 L39.7810911,5 Z M52.472235,5 C53.9537165,5 54.6944573,5.74074074 54.6944573,7.22222222 L54.6944573,21.6666667 L55.1177377,21.6666667 L62.8955155,5 L65.8055684,5 L57.44578,23.8888889 C57.0930463,24.6296296 56.5463091,25 55.8055684,25 L53.5833461,25 C52.1018647,25 51.3611239,24.2592593 51.3611239,22.7777778 L51.3611239,8.33333333 L50.8320234,8.33333333 C50.4263797,8.33333333 50.1089193,8.52733686 49.8796424,8.91534392 L42.472235,25 L39.1389017,25 L47.39287,7.22222222 C48.0983373,5.74074074 49.0507183,5 50.2500128,5 L52.472235,5 Z M76.6977705,5 C81.142215,5 82.3326912,7.22222222 80.2691991,11.6666667 L75.5866594,21.6666667 C74.5637317,23.8888889 72.9411568,25 70.7189346,25 L62.9411568,25 L64.4755483,21.6666667 L71.142215,21.6666667 C71.8829557,21.6666667 72.4296929,21.2962963 72.7824266,20.5555556 L77.9676118,9.44444444 C78.3027088,8.7037037 78.0998869,8.33333333 77.3591462,8.33333333 L69.5813684,8.33333333 L61.8300457,25 L58.4967123,25 L67.8088817,5 L76.6977705,5 Z M97.5899727,5 L96.0291262,8.33333333 L87.1402373,8.33333333 L80.9233061,21.6666667 L89.8121949,21.6666667 L88.2778034,25 L80.5000256,25 C77.5370627,25 76.7434119,23.5185185 78.1190732,20.5555556 L84.3360045,7.22222222 C85.0238352,5.74074074 86.1084912,5 87.5899727,5 L97.5899727,5 Z M111.815508,5 C114.03773,5 114.628559,6.11111111 113.587995,8.33333333 L110.995402,13.8888889 C110.307572,15.3703704 109.222916,16.1111111 107.741434,16.1111111 L104.170006,16.1111111 L107.688524,21.6666667 L109.400832,21.6666667 L116.093954,7.22222222 C116.799421,5.74074074 117.751802,5 118.951097,5 L121.173319,5 C122.6548,5 123.395541,5.74074074 123.395541,7.22222222 L123.395541,21.6666667 L123.818822,21.6666667 L130.538398,7.22222222 C131.243866,5.74074074 132.196247,5 133.395541,5 L135.617763,5 C137.099245,5 137.839986,5.74074074 137.839986,7.22222222 L137.839986,25 L134.506652,25 L134.506652,8.33333333 L133.977552,8.33333333 C133.571908,8.33333333 133.254448,8.52733686 133.025171,8.91534392 L126.146864,23.8888889 C125.79413,24.6296296 125.247393,25 124.506652,25 L122.28443,25 C120.802948,25 120.062208,24.2592593 120.062208,22.7777778 L120.062208,8.33333333 L119.533107,8.33333333 C119.127463,8.33333333 118.810003,8.52733686 118.580726,8.91534392 L112.28443,22.7777778 C111.581245,24.1841468 110.544295,24.9229834 109.173578,24.9942876 L106.305594,25 L106.426879,24.6348772 C105.711705,24.2777801 105.118144,23.6587469 104.646196,22.7777778 L99.1964606,13.015873 L93.61445,25 L90.2811167,25 L98.56154,7.22222222 C99.2493707,5.74074074 100.334027,5 101.815508,5 L111.815508,5 Z M40.4424667,8.33333333 L34.8869112,8.33333333 C34.1461704,8.33333333 33.6082516,8.7037037 33.2731546,9.44444444 L28.0879694,20.5555556 C27.7352357,21.2962963 27.9292392,21.6666667 28.66998,21.6666667 L34.2255355,21.6666667 C34.9662762,21.6666667 35.5130135,21.2962963 35.8657471,20.5555556 L41.0509323,9.44444444 C41.3860293,8.7037037 41.1832075,8.33333333 40.4424667,8.33333333 Z M93.9656341,12.7777778 L92.4047875,16.1111111 L84.6270098,16.1111111 L86.1878563,12.7777778 L93.9656341,12.7777778 Z M110.254662,8.33333333 L101.365773,8.33333333 L99.3022807,12.7777778 L108.19117,12.7777778 L110.254662,8.33333333 Z M139.843299,22.7777778 L139.843299,7.22222222 C139.843299,5.74074074 140.58404,5 142.065521,5 L150.95441,5 L150.95441,8.33333333 L143.176632,8.33333333 L143.176632,13.3333333 L150.95441,13.3333333 L150.95441,16.6666667 L143.176632,16.6666667 L143.176632,21.6666667 L150.95441,21.6666667 L150.95441,25 L142.065521,25 C140.58404,25 139.843299,24.2592593 139.843299,22.7777778 Z M152.957723,22.7777778 L152.957723,7.22222222 C152.957723,5.74074074 153.698464,5 155.179945,5 L166.291057,5 L166.291057,8.33333333 L156.291057,8.33333333 L156.291057,21.6666667 L162.957723,21.6666667 L162.957723,16.6666667 L157.402168,16.6666667 L157.402168,13.3333333 L164.068834,13.3333333 C165.550316,13.3333333 166.291057,14.0740741 166.291057,15.5555556 L166.291057,22.7777778 C166.291057,24.2592593 165.550316,25 164.068834,25 L155.179945,25 C153.698464,25 152.957723,24.2592593 152.957723,22.7777778 Z M168.29437,7.22222222 C168.29437,5.74074074 169.035111,5 170.516592,5 L172.738814,5 C173.938109,5 174.89049,5.74074074 175.595957,7.22222222 L183.849925,25 L180.516592,25 L173.109185,8.91534392 C172.879908,8.52733686 172.562447,8.33333333 172.156804,8.33333333 L171.627703,8.33333333 L171.627703,25 L168.29437,25 L168.29437,7.22222222 Z" id="Combined-Shape"></path>
            </g>
        </g>
    </g>
</svg>