<?xml version="1.0" encoding="UTF-8" standalone="no"?>
<!-- Generator: Gravit.io -->
<svg xmlns="http://www.w3.org/2000/svg" xmlns:xlink="http://www.w3.org/1999/xlink" style="isolation:isolate" viewBox="0 0 660.023 109" width="660.023pt" height="109pt"><defs><clipPath id="_clipPath_rfJRUKsfsgQoq5Mw2qvCO2wgJrxC9iVz"><rect x="0" y="0" width="660.023" height="109"/></clipPath></defs><g clip-path="url(#_clipPath_rfJRUKsfsgQoq5Mw2qvCO2wgJrxC9iVz)"><path d=" M 118.541 60 C 119.8 56.501 123.114 54 127 54 C 130.886 54 134.2 56.501 135.459 60 L 118.541 60 Z  M 0 93.028 L 0 97 L 70 97 L 70 89 L 39.252 89 L 74.245 33 L 1 33 L 1 41 L 32.51 41 L 0 93.028 Z  M 206 97 L 167 97 L 167 59 C 167 55.689 163.415 53 159 53 C 154.585 53 151 55.689 151 59 L 151 97 L 143 97 L 143 35 L 151 35 L 151 44.008 C 159.822 38.136 166.314 34 180 34 C 195.188 34 201.984 45.375 204 48 C 207.281 44.438 219.516 34 234 34 C 248.484 34 266 46.898 266 64 L 266 97 L 222 97 L 222 59 C 222 55.689 218.415 53 214 53 C 209.585 53 206 55.689 206 59 L 206 97 Z  M 334 97 L 295 97 L 295 59 C 295 55.689 291.415 53 287 53 C 282.585 53 279 55.689 279 59 L 279 97 L 271 97 L 271 35 L 279 35 L 279 44.008 C 287.822 38.136 294.314 34 308 34 C 323.188 34 329.984 45.375 332 48 C 335.281 44.438 347.516 34 362 34 C 376.484 34 394 46.898 394 64 L 394 97 L 350 97 L 350 59 C 350 55.689 346.415 53 342 53 C 337.585 53 334 55.689 334 59 L 334 97 Z  M 406 34 L 406 97 L 399 97 L 399 34 L 406 34 Z  M 406 0 L 406 23 L 399 23 L 399 0 L 406 0 Z  M 118.459 66 C 119.65 69.624 123.026 72.239 127 72.239 C 129.807 72.239 132.316 70.934 133.967 68.891 L 138.555 68.891 C 135.896 84.821 121.651 97 104.5 97 C 85.459 97 70 82.989 70 64.5 L 70 62.5 C 70 44.011 85.459 30 104.5 30 C 123.541 30 139 45.011 139 63.5 C 139 64.341 138.968 65.175 138.905 66 L 118.459 66 Z  M 488.066 97 L 461.896 57.009 L 486.394 34 L 475.213 34 L 457.64 50.505 L 447.84 34 L 409.104 34 L 434.269 72.456 L 408.138 97 L 419.318 97 L 438.525 78.96 L 450.33 97 L 488.066 97 Z " fill-rule="evenodd" fill="rgb(235,235,235)"/><path d=" M 577.472 78.362 L 614.243 18.386 L 598.34 18.386 L 598.34 0 L 660.023 0 L 660.023 18.386 L 636.253 18.386 L 581.438 109 L 548.121 109 L 499.872 18.386 L 488.066 18.386 L 488.066 0 L 549.749 0 L 549.749 18.386 L 546.676 18.386 L 577.472 78.362 Z  M 577.065 89.078 L 623.62 13.133 L 603.593 13.133 L 603.593 5.253 L 654.77 5.253 L 654.77 13.133 L 633.285 13.133 L 578.47 103.747 L 551.273 103.747 L 503.024 13.133 L 493.319 13.133 L 493.319 5.253 L 544.496 5.253 L 544.496 13.133 L 538.075 13.133 L 577.065 89.078 Z " fill-rule="evenodd" fill="rgb(235,235,235)"/></g></svg>