<?xml version="1.0" encoding="UTF-8" standalone="no"?>
<!-- Generator: Gravit.io -->
<svg xmlns="http://www.w3.org/2000/svg" xmlns:xlink="http://www.w3.org/1999/xlink" style="isolation:isolate" viewBox="0 0 512 512" width="512pt" height="512pt"><defs><clipPath id="_clipPath_ZfKY4NdwhoEmMKQ5kRdRWO7yF1LNRFfW"><rect width="512" height="512"/></clipPath></defs><g clip-path="url(#_clipPath_ZfKY4NdwhoEmMKQ5kRdRWO7yF1LNRFfW)"><path d=" M 163 155 C 167.206 155.526 165.766 155.641 179 152 C 192.234 148.359 235.207 135.837 244 132 C 257.75 126 284.828 111.063 290 125 C 295.172 138.938 262.25 149.75 243 162 C 232.958 168.391 193.641 189.844 193 208 C 192.703 216.417 207.813 203.813 227 204 C 246.188 204.188 276.938 222.375 300 216 C 323.063 209.625 362.25 189.5 360 170 C 357.75 150.5 309.25 156.75 284 180 C 285.609 173.637 285.375 171.875 289 167 C 353.25 125.156 384.529 149.85 388 159 C 400.5 191.953 339.188 216.75 302 224 C 274.83 229.297 259.172 247.359 246 264 C 228.538 286.06 238.5 303.891 231 327 C 225.984 342.456 206.75 377 170 395 C 178.875 380.625 198.286 367.75 203 343 C 208.31 315.124 215.75 285 227 268 C 241.397 246.245 255.742 237.91 254 230 C 250.875 215.813 208.688 221.813 182 240 C 155.313 258.188 131.566 287.498 125 279 C 116.5 268 152.779 229.496 179 204 C 206.125 177.625 246.625 150.875 243 145 C 240.706 141.282 202.563 152.313 188 164 C 173.438 175.688 158.438 181.688 155 180 C 151.563 178.313 160.5 154.688 163 155 Z " fill="none" vector-effect="non-scaling-stroke" stroke-width="1" stroke="rgb(0,0,0)" stroke-linejoin="miter" stroke-linecap="square" stroke-miterlimit="3"/></g></svg>